<svg width="50" height="50" viewBox="0 0 50 50" fill="none" xmlns="http://www.w3.org/2000/svg">
<circle cx="24.9075" cy="24.9074" r="22.4167" stroke="#1D8CE0" stroke-width="0.996296"/>
<circle cx="24.9075" cy="24.9074" r="22.4167" stroke="white" stroke-opacity="0.95" stroke-width="0.996296"/>
<path d="M40.3501 31.8815C43.5383 24.3096 40.3501 15.4426 35.3687 10.9592C36.365 15.4426 35.6675 22.1177 32.8779 28.8926C30.0883 35.6674 23.7452 40.0179 20.9224 41.3463C26.402 42.8407 37.162 39.4533 40.3501 31.8815Z" fill="#FEFEFE" fill-opacity="0.15"/>
<path d="M14.4463 8.96666C11.6057 11.4681 10.4611 14.9444 10.4611 17.9333C10.9468 15.8739 14.0426 11.6996 16.937 9.96295C19.4003 8.48499 21.4204 6.97407 24.9074 6.47591C21.4204 5.97777 17.2869 6.46523 14.4463 8.96666Z" fill="#FEFEFE"/>
<path d="M33.874 39.8519C37.3611 37.8592 40.8481 32.8778 40.8481 29.8889C40.1079 32.8778 36.163 36.7039 33.3759 38.3574C30.3241 40.1679 24.4092 41.8444 20.9222 41.8444C24.4092 42.8407 29.8889 42.1291 33.874 39.8519Z" fill="#FEFEFE"/>
<path d="M33.9926 35.8784C32.4379 36.9206 30.6573 38.1143 27.9771 38.6733C25.297 39.2322 22.6441 38.9863 21.0392 38.5889C18.3476 37.9226 16.9007 37.5239 14.9323 35.0989C13.875 33.7964 10.1579 29.46 14.0537 25.632C14.9554 24.746 15.7729 23.5395 15.5277 22.4641C15.8874 22.8983 16.3904 23.1582 16.0941 24.0913C15.8219 24.9482 15.0583 25.4082 15.3874 26.5531C15.6564 27.4893 16.327 28.004 16.5961 26.8806C16.8114 25.9819 17.4033 25.5076 17.6724 25.3828C17.4033 25.8821 17.1343 26.8806 18.2106 26.8806C19.5559 26.8806 18.2271 25.4861 18.7653 23.8011C19.3034 22.116 18.2474 22.9316 18.0079 21.4317C17.8881 20.6818 18.5858 20.155 19.1418 19.7352C18.7972 20.7012 19.1118 21.9155 20.1881 21.4661C21.5335 20.9045 19.2212 18.9665 18.9521 17.6559C18.7368 16.6074 19.2212 16.0957 19.4903 15.9708C19.4006 16.2829 19.5441 16.907 20.8356 16.907C22.4501 16.907 22.4501 15.9708 21.3738 14.2858C20.2975 12.6007 20.5665 11.6646 21.3738 10.9157C22.181 10.1667 24.0171 10.1407 24.5552 9.7662C25.1507 9.35187 25.1508 8.45042 24.6004 8C25.4373 8.23407 26.4861 9.41783 26.4861 10.1667C26.4861 11.1029 25.1408 12.2263 25.4099 12.9752C25.6789 13.7241 26.2171 14.473 27.2934 14.2858C28.1544 14.136 27.6521 13.1 27.2934 12.6007C27.8315 12.9752 28.9078 13.9488 28.9078 14.8475C28.9078 15.9708 26.4862 18.4048 26.2171 18.9665C25.948 19.5282 25.948 20.2771 27.0243 20.2771C27.8853 20.2771 27.9212 19.2785 27.8315 18.7793C28.1006 18.9041 28.872 19.5018 28.872 19.9512C28.872 20.5129 28.6512 20.9582 28.7722 21.7073C28.8683 22.3027 28.8764 22.8891 29.4106 23.3262C30.0706 23.8662 30.5691 22.9444 31.0318 22.4657C31.0318 23.0274 31.3417 23.8098 31.0129 24.6373C30.7289 25.3522 29.7807 25.9445 30.0498 26.5062C30.3188 27.0679 31.3951 28.004 31.9333 27.2551C32.3638 26.656 33.1195 25.4308 33.4782 25.1188C33.4782 25.4933 33.7092 26.6934 34.3549 26.6934C34.9868 26.6934 35.4646 24.8555 35.6529 24.0747C35.6551 24.0538 35.6591 24.0369 35.665 24.0246C35.6611 24.0408 35.6571 24.0575 35.6529 24.0747C35.6218 24.372 35.9483 25.4861 36.1494 25.9059C36.4185 26.4676 37.066 28.7384 36.9945 30.2818C36.911 32.0866 35.554 34.8316 33.9926 35.8784Z" fill="#D0333D"/>
<path d="M33.9926 35.8784C32.4379 36.9206 30.6573 38.1143 27.9771 38.6733C25.297 39.2322 22.6441 38.9863 21.0392 38.5889C18.3476 37.9226 16.9007 37.5239 14.9323 35.0989C13.875 33.7964 10.1579 29.46 14.0537 25.632C14.9554 24.746 15.7729 23.5395 15.5277 22.4641C15.8874 22.8983 16.3904 23.1582 16.0941 24.0913C15.8219 24.9482 15.0583 25.4082 15.3874 26.5531C15.6564 27.4893 16.327 28.004 16.5961 26.8806C16.8114 25.9819 17.4033 25.5076 17.6724 25.3828C17.4033 25.8821 17.1343 26.8806 18.2106 26.8806C19.5559 26.8806 18.2271 25.4861 18.7653 23.8011C19.3034 22.116 18.2474 22.9316 18.0079 21.4317C17.8881 20.6818 18.5858 20.155 19.1418 19.7352C18.7972 20.7012 19.1118 21.9155 20.1881 21.4661C21.5335 20.9045 19.2212 18.9665 18.9521 17.6559C18.7368 16.6074 19.2212 16.0957 19.4903 15.9708C19.4006 16.2829 19.5441 16.907 20.8356 16.907C22.4501 16.907 22.4501 15.9708 21.3738 14.2858C20.2975 12.6007 20.5665 11.6646 21.3738 10.9157C22.181 10.1667 24.0171 10.1407 24.5552 9.7662C25.1507 9.35187 25.1508 8.45042 24.6004 8C25.4373 8.23407 26.4861 9.41783 26.4861 10.1667C26.4861 11.1029 25.1408 12.2263 25.4099 12.9752C25.6789 13.7241 26.2171 14.473 27.2934 14.2858C28.1544 14.136 27.6521 13.1 27.2934 12.6007C27.8315 12.9752 28.9078 13.9488 28.9078 14.8475C28.9078 15.9708 26.4862 18.4048 26.2171 18.9665C25.948 19.5282 25.948 20.2771 27.0243 20.2771C27.8853 20.2771 27.9212 19.2785 27.8315 18.7793C28.1006 18.9041 28.872 19.5018 28.872 19.9512C28.872 20.5129 28.6512 20.9582 28.7722 21.7073C28.8683 22.3027 28.8764 22.8891 29.4106 23.3262C30.0706 23.8662 30.5691 22.9444 31.0318 22.4657C31.0318 23.0274 31.3417 23.8098 31.0129 24.6373C30.7289 25.3522 29.7807 25.9445 30.0498 26.5062C30.3188 27.0679 31.3951 28.004 31.9333 27.2551C32.3638 26.656 33.1195 25.4308 33.4782 25.1188C33.4782 25.4933 33.7092 26.6934 34.3549 26.6934C34.9868 26.6934 35.4646 24.8555 35.6529 24.0747C35.6551 24.0538 35.6591 24.0369 35.665 24.0246C35.6611 24.0408 35.6571 24.0575 35.6529 24.0747C35.6218 24.372 35.9483 25.4861 36.1494 25.9059C36.4185 26.4676 37.066 28.7384 36.9945 30.2818C36.911 32.0866 35.554 34.8316 33.9926 35.8784Z" fill="black" fill-opacity="0.2"/>
<path d="M33.9295 22.7018C33.9004 23.1156 33.4376 23.5304 33.2098 23.686C34.504 23.7866 34.8856 22.9842 34.9001 22.7773C34.9182 22.5186 34.9727 21.7428 34.0565 20.8914C33.3235 20.2103 32.9972 18.9888 32.9256 18.4631L32.8167 20.0149C32.7623 20.7908 33.9658 22.1845 33.9295 22.7018Z" fill="#D0333D"/>
<path d="M33.9295 22.7018C33.9004 23.1156 33.4376 23.5304 33.2098 23.686C34.504 23.7866 34.8856 22.9842 34.9001 22.7773C34.9182 22.5186 34.9727 21.7428 34.0565 20.8914C33.3235 20.2103 32.9972 18.9888 32.9256 18.4631L32.8167 20.0149C32.7623 20.7908 33.9658 22.1845 33.9295 22.7018Z" fill="black" fill-opacity="0.2"/>
<path d="M29.498 34.5111C28.6918 35.0516 27.7686 35.6705 26.3788 35.9603C24.9891 36.2501 23.6136 36.1226 22.7814 35.9166C21.3858 35.5711 20.6355 35.3644 19.6149 34.107C19.0666 33.4316 17.1393 31.1831 19.1593 29.1982C19.6268 28.7388 20.0507 28.1132 19.9236 27.5556C20.1101 27.7807 20.3709 27.9155 20.2173 28.3993C20.0762 28.8436 19.6802 29.0821 19.8508 29.6758C19.9903 30.1612 20.3381 30.4281 20.4776 29.8456C20.5892 29.3796 20.8961 29.1337 21.0357 29.069C20.8961 29.3279 20.7566 29.8456 21.3147 29.8456C22.0123 29.8456 21.3233 29.1226 21.6023 28.2488C21.8814 27.3751 21.3338 27.798 21.2096 27.0203C21.1475 26.6314 21.5092 26.3583 21.7976 26.1406C21.6189 26.6415 21.782 27.2711 22.3401 27.0381C23.0377 26.7469 21.8387 25.742 21.6992 25.0624C21.5876 24.5188 21.8387 24.2534 21.9782 24.1887C21.9317 24.3505 22.0062 24.6741 22.6758 24.6741C23.513 24.6741 23.513 24.1887 22.9549 23.315C22.3968 22.4412 22.5363 21.9558 22.9549 21.5675C23.3734 21.1792 24.3255 21.1656 24.6045 20.9715C24.9133 20.7566 24.9134 20.2892 24.6279 20.0557C25.0619 20.177 25.6057 20.7908 25.6057 21.1792C25.6057 21.6646 24.9082 22.2471 25.0477 22.6354C25.1872 23.0237 25.4662 23.412 26.0243 23.315C26.4708 23.2373 26.2103 22.7001 26.0243 22.4412C26.3033 22.6354 26.8614 23.1402 26.8614 23.6062C26.8614 24.1887 25.6057 25.4508 25.4662 25.742C25.3267 26.0332 25.3267 26.4216 25.8848 26.4216C26.3312 26.4216 26.3499 25.9038 26.3033 25.6449C26.4429 25.7096 26.8429 26.0196 26.8429 26.2526C26.8429 26.5438 26.7284 26.7748 26.7911 27.1632C26.8409 27.4719 26.8452 27.7759 27.1221 28.0026C27.4644 28.2826 27.7228 27.8046 27.9627 27.5564C27.9627 27.8477 28.1235 28.2534 27.953 28.6824C27.8057 29.0531 27.314 29.3602 27.4535 29.6515C27.5931 29.9427 28.1511 30.4281 28.4302 30.0398C28.6534 29.7291 29.0452 29.0939 29.2313 28.9321C29.2313 29.1262 29.351 29.7485 29.6859 29.7485C30.0135 29.7485 30.2612 28.7956 30.3589 28.3907C30.36 28.3799 30.3621 28.3711 30.3651 28.3647C30.3631 28.3731 30.3611 28.3818 30.3589 28.3907C30.3428 28.5449 30.5121 29.1225 30.6163 29.3402C30.7559 29.6315 31.0916 30.8089 31.0545 31.6092C31.0112 32.545 30.3076 33.9684 29.498 34.5111Z" fill="#FAA21E"/>
</svg>
