<?xml version="1.0" encoding="utf-8"?><svg fill="none" viewBox="0 0 50 50" xmlns="http://www.w3.org/2000/svg" width="50" height="50"><g clip-path="url(#aaba)"><path d="M10.242 27.364c.475-.48 2.736-1.562 3.806-2.043l11.063.601c-.317 3.964-.951 12.661-.951 15.736 0 3.075.634 6.807.951 8.289-.317.04-1.094.096-1.665 0-.714-.12-2.38-.72-3.212-1.201-.833-.48-9.774-1.86-9.517-2.283.283-.463.283-.463.476-.96-2.062-1.242-6.162-3.797-6.066-4.085.095-.288.912-1.401 1.308-1.922-1.388-1.04-4.116-3.22-3.926-3.604.238-.48 7.138-7.928 7.733-8.528Z" fill="#898989"/><path d="M10.242 27.364c.475-.48 2.736-1.562 3.806-2.043l11.063.601c-.317 3.964-.951 12.661-.951 15.736 0 3.075.634 6.807.951 8.289-.317.04-1.094.096-1.665 0-.714-.12-2.38-.72-3.212-1.201-.833-.48-9.774-1.86-9.517-2.283.283-.463.283-.463.476-.96-2.062-1.242-6.162-3.797-6.066-4.085.095-.288.912-1.401 1.308-1.922-1.388-1.04-4.116-3.22-3.926-3.604.238-.48 7.138-7.928 7.733-8.528Z" fill="#000" fill-opacity=".2"/><path d="M27.134 42.62c.19-3.076-.873-12.413-1.428-16.698l10.587-.6c1.11.44 3.117 2.234 3.688 2.522.714.36 7.97 7.688 7.494 8.409-.38.576-2.458 2.002-3.45 2.642.556.521 1.57 1.754 1.19 2.523-.476.961-3.688 1.802-5.59 3.604-1.904 1.802-4.76.48-5.949 2.162-.951 1.345-5.234 2.002-7.256 2.162.158-.96.523-3.651.714-6.727Z" fill="#898989"/><path d="M27.134 42.62c.19-3.076-.873-12.413-1.428-16.698l10.587-.6c1.11.44 3.117 2.234 3.688 2.522.714.36 7.97 7.688 7.494 8.409-.38.576-2.458 2.002-3.45 2.642.556.521 1.57 1.754 1.19 2.523-.476.961-3.688 1.802-5.59 3.604-1.904 1.802-4.76.48-5.949 2.162-.951 1.345-5.234 2.002-7.256 2.162.158-.96.523-3.651.714-6.727Z" fill="#000" fill-opacity=".2"/><path d="M10.242 27.364c.475-.48 2.736-1.562 3.806-2.043l11.459-.069 10.786.07c1.11.44 3.83 2.354 4.402 2.642.713.36 7.256 7.568 6.78 8.289-.28.425-1.487 1.314-2.498 2.008-.555-.99-1.92-2.704-3.477-4.261-1.5-1.5-2.907-2.94-4.136-3.5.833.6 2.415 2.538 3.636 4.071 1.33 1.67 1.995 2.683 3.026 4.325.555.52 1.57 1.753 1.19 2.522-.395.797-2.67 1.51-4.521 2.759-.357-1.08-1.743-4.543-2.695-6.177-.952-1.634-3.272-4.15-4.8-5.471.912 1.241 3.022 4.252 4.164 6.366 1.142 2.115 1.983 4.966 2.26 6.127-1.903 1.802-4.758.48-5.948 2.162-.951 1.345-5.234 2.002-7.256 2.162.158-.96.523-3.651.714-6.727.19-3.075-1.072-13.082-1.627-17.367-.318 3.965-1 10.057-1 13.132 0 3.075.287 10.081.604 11.563-.317.04-1.094.096-1.665 0-.714-.12-2.38-.72-3.212-1.201-.833-.48-9.774-1.86-9.517-2.283.283-.463.402-.717.476-.96.793-2.603 2.546-8.217 3.212-9.85.666-1.634 1.309-2.924 1.547-3.364-.952 1.361-3.046 4.588-3.807 6.606a362.282 362.282 0 0 0-2.141 5.883c-2.138-1.316-4.957-3.12-4.877-3.36.095-.288.912-1.401 1.308-1.922C7.5 38 9.052 35.1 10.004 33.85a25.626 25.626 0 0 1 2.617-2.883C10.717 32 8.933 33.514 7.98 34.571c-.951 1.057-2.3 3.048-2.854 3.91-1.322-1.056-2.757-2.306-2.618-2.589.238-.48 7.138-7.928 7.733-8.528Z" fill="#898989"/><path d="M10.242 27.364c.475-.48 2.736-1.562 3.806-2.043l11.459-.069 10.786.07c1.11.44 3.83 2.354 4.402 2.642.713.36 7.256 7.568 6.78 8.289-.28.425-1.487 1.314-2.498 2.008-.555-.99-1.92-2.704-3.477-4.261-1.5-1.5-2.907-2.94-4.136-3.5.833.6 2.415 2.538 3.636 4.071 1.33 1.67 1.995 2.683 3.026 4.325.555.52 1.57 1.753 1.19 2.522-.395.797-2.67 1.51-4.521 2.759-.357-1.08-1.743-4.543-2.695-6.177-.952-1.634-3.272-4.15-4.8-5.471.912 1.241 3.022 4.252 4.164 6.366 1.142 2.115 1.983 4.966 2.26 6.127-1.903 1.802-4.758.48-5.948 2.162-.951 1.345-5.234 2.002-7.256 2.162.158-.96.523-3.651.714-6.727.19-3.075-1.072-13.082-1.627-17.367-.318 3.965-1 10.057-1 13.132 0 3.075.287 10.081.604 11.563-.317.04-1.094.096-1.665 0-.714-.12-2.38-.72-3.212-1.201-.833-.48-9.774-1.86-9.517-2.283.283-.463.402-.717.476-.96.793-2.603 2.546-8.217 3.212-9.85.666-1.634 1.309-2.924 1.547-3.364-.952 1.361-3.046 4.588-3.807 6.606a362.282 362.282 0 0 0-2.141 5.883c-2.138-1.316-4.957-3.12-4.877-3.36.095-.288.912-1.401 1.308-1.922C7.5 38 9.052 35.1 10.004 33.85a25.626 25.626 0 0 1 2.617-2.883C10.717 32 8.933 33.514 7.98 34.571c-.951 1.057-2.3 3.048-2.854 3.91-1.322-1.056-2.757-2.306-2.618-2.589.238-.48 7.138-7.928 7.733-8.528Z" fill="#fff" fill-opacity=".2"/><path d="M36.114 17.959c-.468-1.84-7.84-10.513-10.998-10.382l-4.564 5.125c-1.716 1.227-5.288 3.943-5.85 4.994-.702 1.314.234 4.31 0 5.23-.234.92-.55 2.638-.199 4.347.351 1.708 3.475 1.987 5.113 1.067 1.31-.736 4.584-3.022 5.89-3.087 1.307-.066 3.19 2.193 4.875 2.824 2.106.789 4.329.789 5.382 0 1.053-.788.82-8.279.351-10.118Z" fill="#898989"/><path d="M36.114 17.959c-.468-1.84-7.84-10.513-10.998-10.382l-4.564 5.125c-1.716 1.227-5.288 3.943-5.85 4.994-.702 1.314.234 4.31 0 5.23-.234.92-.55 2.638-.199 4.347.351 1.708 3.475 1.987 5.113 1.067 1.31-.736 4.584-3.022 5.89-3.087 1.307-.066 3.19 2.193 4.875 2.824 2.106.789 4.329.789 5.382 0 1.053-.788.82-8.279.351-10.118Z" fill="#000" fill-opacity=".6"/><path d="M17.617 5.741c.761-2.306 5.169-4.62 7.39-5.741 1.493 0 6.67 3.945 7.502 4.545.833.601 1.762 4.32 2.952 5.52 1.19 1.202.594 6.007 1.546 8.41.899 2.268-.384 7.717-.912 9.102a.44.44 0 0 1-.085.2c.025-.051.054-.119.085-.2.211-.919-.074-4.42-.397-6.7-.356-2.523-3.168-7.385-5.19-7.746-2.022-.36-4.169-4.065-5.001-4.545-.833-.48-4.312 3.248-5.502 5.05-1.19 1.802-2.93 2.48-4.001 4.04-1.07 1.562-.885 5.964-1.48 7.285-.377.837-.281 1.98-.127 2.738l.127.505a5.404 5.404 0 0 1-.127-.505c-.417-1.686-1.063-4.48-1.063-5.26 0-1.081.12-4.565.476-7.448.357-2.883 2.855-6.367 3.807-9.25Z" fill="#898989"/><path d="M17.617 5.741c.761-2.306 5.169-4.62 7.39-5.741 1.493 0 6.67 3.945 7.502 4.545.833.601 1.762 4.32 2.952 5.52 1.19 1.202.594 6.007 1.546 8.41.899 2.268-.384 7.717-.912 9.102a.44.44 0 0 1-.085.2c.025-.051.054-.119.085-.2.211-.919-.074-4.42-.397-6.7-.356-2.523-3.168-7.385-5.19-7.746-2.022-.36-4.169-4.065-5.001-4.545-.833-.48-4.312 3.248-5.502 5.05-1.19 1.802-2.93 2.48-4.001 4.04-1.07 1.562-.885 5.964-1.48 7.285-.377.837-.281 1.98-.127 2.738l.127.505a5.404 5.404 0 0 1-.127-.505c-.417-1.686-1.063-4.48-1.063-5.26 0-1.081.12-4.565.476-7.448.357-2.883 2.855-6.367 3.807-9.25Z" fill="#fff" fill-opacity=".4"/><path d="M22.61 33.04a16.172 16.172 0 0 1 2.897-6.777c-.17.596-.966 2.049-1.372 3.195-.509 1.432-.763 3.581-1.017 5.969-.203 1.91-.17 6.684-.127 8.833l-.89.836c-.084-2.547-.101-8.523.509-12.057Z" fill="#2FC4A7"/><path d="M22.61 33.04a16.172 16.172 0 0 1 2.897-6.777c-.17.596-.966 2.049-1.372 3.195-.509 1.432-.763 3.581-1.017 5.969-.203 1.91-.17 6.684-.127 8.833l-.89.836c-.084-2.547-.101-8.523.509-12.057Z" fill="#fff" fill-opacity=".2"/><path d="M22.61 33.04a16.172 16.172 0 0 1 2.897-6.777c-.17.596-.966 2.049-1.372 3.195-.509 1.432-.763 3.581-1.017 5.969-.203 1.91-.17 6.684-.127 8.833l-.89.836c-.084-2.547-.101-8.523.509-12.057Z" stroke="#2FC4A7" stroke-width=".5"/><path d="M22.61 33.04a16.172 16.172 0 0 1 2.897-6.777c-.17.596-.966 2.049-1.372 3.195-.509 1.432-.763 3.581-1.017 5.969-.203 1.91-.17 6.684-.127 8.833l-.89.836c-.084-2.547-.101-8.523.509-12.057Z" stroke="#fff" stroke-opacity=".2" stroke-width=".5"/><path d="M29.687 31.726c-1.08-3.533-2.892-4.695-3.941-5.491.3.597 1.422 1.719 2.141 2.865.9 1.432 1.428 3.539 1.428 5.968 0 2.269-.758 6.327-.833 8.476l.832.836c.15-2.547 1.452-9.12.373-12.654Z" fill="#2FC4A7"/><path d="M29.687 31.726c-1.08-3.533-2.892-4.695-3.941-5.491.3.597 1.422 1.719 2.141 2.865.9 1.432 1.428 3.539 1.428 5.968 0 2.269-.758 6.327-.833 8.476l.832.836c.15-2.547 1.452-9.12.373-12.654Z" fill="#fff" fill-opacity=".2"/><path d="M29.687 31.726c-1.08-3.533-2.892-4.695-3.941-5.491.3.597 1.422 1.719 2.141 2.865.9 1.432 1.428 3.539 1.428 5.968 0 2.269-.758 6.327-.833 8.476l.832.836c.15-2.547 1.452-9.12.373-12.654Z" stroke="#2FC4A7" stroke-width=".5"/><path d="M29.687 31.726c-1.08-3.533-2.892-4.695-3.941-5.491.3.597 1.422 1.719 2.141 2.865.9 1.432 1.428 3.539 1.428 5.968 0 2.269-.758 6.327-.833 8.476l.832.836c.15-2.547 1.452-9.12.373-12.654Z" stroke="#fff" stroke-opacity=".2" stroke-width=".5"/><path d="M19.917 26.832c.571-1.05 4.09-1.074 5.59-.67-.318.119-1.498-.118-2.26.073-.95.239-1.784.597-2.616 1.433-.833.835-.357 1.193.476 1.193.666 0 3.211-1.75 4.4-2.626-.515.637-2.164 2.173-3.21 2.746-1.31.716-1.904-.08-2.38-.239-.357-.12-.714-.597 0-1.91Z" fill="#2FC4A7"/><path d="M19.917 26.832c.571-1.05 4.09-1.074 5.59-.67-.318.119-1.498-.118-2.26.073-.95.239-1.784.597-2.616 1.433-.833.835-.357 1.193.476 1.193.666 0 3.211-1.75 4.4-2.626-.515.637-2.164 2.173-3.21 2.746-1.31.716-1.904-.08-2.38-.239-.357-.12-.714-.597 0-1.91Z" fill="#fff" fill-opacity=".2"/><path d="M19.917 26.832c.571-1.05 4.09-1.074 5.59-.67-.318.119-1.498-.118-2.26.073-.95.239-1.784.597-2.616 1.433-.833.835-.357 1.193.476 1.193.666 0 3.211-1.75 4.4-2.626-.515.637-2.164 2.173-3.21 2.746-1.31.716-1.904-.08-2.38-.239-.357-.12-.714-.597 0-1.91Z" stroke="#2FC4A7" stroke-width=".5"/><path d="M19.917 26.832c.571-1.05 4.09-1.074 5.59-.67-.318.119-1.498-.118-2.26.073-.95.239-1.784.597-2.616 1.433-.833.835-.357 1.193.476 1.193.666 0 3.211-1.75 4.4-2.626-.515.637-2.164 2.173-3.21 2.746-1.31.716-1.904-.08-2.38-.239-.357-.12-.714-.597 0-1.91Z" stroke="#fff" stroke-opacity=".2" stroke-width=".5"/><path d="M30.844 26.373c-.566-.721-3.452-.784-5.217-.316.315.082 2.333-.013 3.089.118.944.163.939.198 1.765.771.826.574.164 1.338-.662 1.338-.661 0-3.011-1.31-4.192-1.911.512.437 2.636 1.577 3.53 2.263 1.18.905 1.403.226 1.876.117.354-.082.52-1.479-.189-2.38Z" fill="#2FC4A7"/><path d="M30.844 26.373c-.566-.721-3.452-.784-5.217-.316.315.082 2.333-.013 3.089.118.944.163.939.198 1.765.771.826.574.164 1.338-.662 1.338-.661 0-3.011-1.31-4.192-1.911.512.437 2.636 1.577 3.53 2.263 1.18.905 1.403.226 1.876.117.354-.082.52-1.479-.189-2.38Z" fill="#fff" fill-opacity=".2"/><path d="M30.844 26.373c-.566-.721-3.452-.784-5.217-.316.315.082 2.333-.013 3.089.118.944.163.939.198 1.765.771.826.574.164 1.338-.662 1.338-.661 0-3.011-1.31-4.192-1.911.512.437 2.636 1.577 3.53 2.263 1.18.905 1.403.226 1.876.117.354-.082.52-1.479-.189-2.38Z" stroke="#2FC4A7" stroke-width=".5"/><path d="M30.844 26.373c-.566-.721-3.452-.784-5.217-.316.315.082 2.333-.013 3.089.118.944.163.939.198 1.765.771.826.574.164 1.338-.662 1.338-.661 0-3.011-1.31-4.192-1.911.512.437 2.636 1.577 3.53 2.263 1.18.905 1.403.226 1.876.117.354-.082.52-1.479-.189-2.38Z" stroke="#fff" stroke-opacity=".2" stroke-width=".5"/><g clip-path="url(#aabb)" fill="#152242"><path d="M39.029 28.446a1 1 0 0 1 1.742 0l3.507 6.22a1 1 0 0 0 .673.49l7 1.412a1 1 0 0 1 .538 1.657l-4.833 5.258a1 1 0 0 0-.257.791l.82 7.094a1 1 0 0 1-1.41 1.024l-6.493-2.972a1 1 0 0 0-.832 0l-6.494 2.972a1 1 0 0 1-1.41-1.024l.82-7.094a1 1 0 0 0-.257-.791l-4.833-5.258a1 1 0 0 1 .539-1.657l7-1.412a1 1 0 0 0 .673-.49l3.507-6.22Z"/><path d="m41.935 37.532.339.602.675.135 4.062.82-2.804 3.05-.467.508.08.686.474 4.115-3.766-1.724-.627-.287-.627.288-3.769 1.723.476-4.115.079-.686-.467-.508-2.805-3.05 4.063-.82.676-.135.338-.602 2.035-3.611 2.035 3.611Z" stroke="#FAA21E" stroke-width="3.013"/></g></g><defs><clipPath id="aaba"><path fill="#fff" transform="matrix(-1 0 0 1 50 0)" d="M0 0h50v50H0z"/></clipPath><clipPath id="aabb"><path fill="#fff" transform="matrix(1 0 0 -1 0 50)" d="M0 0h50v50H0z"/></clipPath></defs></svg>