<svg width="50" height="50" viewBox="0 0 50 50" fill="none" xmlns="http://www.w3.org/2000/svg">
<g clip-path="url(#clip0_4774_7622)">
<path d="M36.7688 3.38448L39.4999 -3.64413e-05C36.7431 0.177302 31.3412 0.502028 27.8088 0.912675C23.3934 1.42598 16.1524 1.5064 11.2147 5.55483C6.2769 9.60327 22.7503 13.3684 27.8364 14.3386C32.9225 15.3089 41.1211 15.8392 45.1242 20.8392C49.1273 25.8392 47.4225 29.6568 45.9036 30.7519C44.8437 31.516 40.3005 32.7856 29.2196 29.2367C19.6596 26.175 13.9751 26.1857 11.2132 26.191L11.1769 26.1911C5.91477 26.2009 -0.459013 27.3095 0.105034 31.5772C0.66908 35.8449 10.4431 37.6756 14.0096 39.5251C17.5761 41.3747 18.3918 43.1147 17.5237 43.9574C16.6556 44.8 11.4975 43.2561 8.99989 43C6.50224 42.7438 4.13068 42.8597 2.88355 45.1128C1.88584 46.9152 5.38185 49.1271 7.49988 50L13.9999 48C8.43851 47.4949 3.90422 46.8137 4.43978 44.8928C4.77597 43.6871 7.76885 43.647 11.0088 44.3244C14.2487 45.0017 20.3756 46.8491 21.0987 45.7501C21.8218 44.651 19.2069 40.8806 14.4999 38.5C9.79283 36.1193 2.03651 35.5021 3.93345 30.8312C5.83038 26.1603 20.1353 26.2817 29.3136 30.3287C40.3287 35.1856 44.4334 35.4521 47.414 34.358C50.3945 33.2638 51.0694 28.6799 48.3658 23.8977C44.0444 16.2539 35.5419 14.5142 29.4698 13.2718L29.3136 13.2398C23.232 11.9949 15.0199 9.50438 15.4164 7.2331C15.813 4.96182 20.5708 2.37872 26.7416 1.70039C31.6782 1.15772 35.4956 2.8168 36.7688 3.38448Z" fill="#2FC4A7"/>
<path d="M36.7688 3.38448L39.4999 -3.64413e-05C36.7431 0.177302 31.3412 0.502028 27.8088 0.912675C23.3934 1.42598 16.1524 1.5064 11.2147 5.55483C6.2769 9.60327 22.7503 13.3684 27.8364 14.3386C32.9225 15.3089 41.1211 15.8392 45.1242 20.8392C49.1273 25.8392 47.4225 29.6568 45.9036 30.7519C44.8437 31.516 40.3005 32.7856 29.2196 29.2367C19.6596 26.175 13.9751 26.1857 11.2132 26.191L11.1769 26.1911C5.91477 26.2009 -0.459013 27.3095 0.105034 31.5772C0.66908 35.8449 10.4431 37.6756 14.0096 39.5251C17.5761 41.3747 18.3918 43.1147 17.5237 43.9574C16.6556 44.8 11.4975 43.2561 8.99989 43C6.50224 42.7438 4.13068 42.8597 2.88355 45.1128C1.88584 46.9152 5.38185 49.1271 7.49988 50L13.9999 48C8.43851 47.4949 3.90422 46.8137 4.43978 44.8928C4.77597 43.6871 7.76885 43.647 11.0088 44.3244C14.2487 45.0017 20.3756 46.8491 21.0987 45.7501C21.8218 44.651 19.2069 40.8806 14.4999 38.5C9.79283 36.1193 2.03651 35.5021 3.93345 30.8312C5.83038 26.1603 20.1353 26.2817 29.3136 30.3287C40.3287 35.1856 44.4334 35.4521 47.414 34.358C50.3945 33.2638 51.0694 28.6799 48.3658 23.8977C44.0444 16.2539 35.5419 14.5142 29.4698 13.2718L29.3136 13.2398C23.232 11.9949 15.0199 9.50438 15.4164 7.2331C15.813 4.96182 20.5708 2.37872 26.7416 1.70039C31.6782 1.15772 35.4956 2.8168 36.7688 3.38448Z" fill="black" fill-opacity="0.4"/>
<path d="M36.6682 2.74628L39.5 1.87338e-05C36.745 0.17098 31.2379 -0.12676 27.7081 0.274468C23.2958 0.776002 16.0587 0.842287 11.1308 4.85393C6.20296 8.86557 22.6749 12.636 27.7602 13.6092C32.8455 14.5824 41.041 15.1245 45.0512 20.098C49.0614 25.0715 47.3644 28.8599 45.8483 29.9447C44.7904 30.7017 40.2518 31.954 29.1699 28.4085C19.6092 25.3497 13.9276 25.3497 11.1671 25.3498L11.1308 25.3498C5.87135 25.3497 -0.497197 26.4388 0.0743645 30.6785C0.645926 34.9182 10.4183 36.7548 13.9864 38.5985C17.5545 40.4422 18.3729 42.1719 17.5068 43.0072C16.6407 43.8424 11.862 42.5241 9.36518 42.265C6.86833 42.0059 4.1186 41.8919 2.87621 44.1273C1.8823 45.9156 5.38144 48.1291 7.5 49L14.0076 47.8667C8.44815 47.3546 3.89948 45.8185 4.43126 43.9117C4.76507 42.7148 7.75638 42.6806 10.9959 43.3594C14.2355 44.0383 20.3626 45.8846 21.0833 44.7944C21.8041 43.7041 19.2221 40.5109 14.513 38.1376C9.80401 35.7643 2.01204 34.5803 3.89948 29.9447C5.78693 25.3091 20.0849 25.4566 29.266 29.4933C40.2844 34.3379 44.3875 34.6102 47.3645 33.5291C50.3416 32.448 51.0077 27.8965 48.2968 23.1418C43.9263 15.4765 34.0561 14.057 27.9753 12.8091C21.8944 11.5613 14.9414 8.78376 15.3335 6.52867C15.7257 4.27358 20.4765 1.71697 26.6429 1.05482C31.576 0.525109 35.3945 2.18007 36.6682 2.74628Z" fill="#2FC4A7"/>
<path d="M36.6682 2.74628L39.5 1.87338e-05C36.745 0.17098 31.2379 -0.12676 27.7081 0.274468C23.2958 0.776002 16.0587 0.842287 11.1308 4.85393C6.20296 8.86557 22.6749 12.636 27.7602 13.6092C32.8455 14.5824 41.041 15.1245 45.0512 20.098C49.0614 25.0715 47.3644 28.8599 45.8483 29.9447C44.7904 30.7017 40.2518 31.954 29.1699 28.4085C19.6092 25.3497 13.9276 25.3497 11.1671 25.3498L11.1308 25.3498C5.87135 25.3497 -0.497197 26.4388 0.0743645 30.6785C0.645926 34.9182 10.4183 36.7548 13.9864 38.5985C17.5545 40.4422 18.3729 42.1719 17.5068 43.0072C16.6407 43.8424 11.862 42.5241 9.36518 42.265C6.86833 42.0059 4.1186 41.8919 2.87621 44.1273C1.8823 45.9156 5.38144 48.1291 7.5 49L14.0076 47.8667C8.44815 47.3546 3.89948 45.8185 4.43126 43.9117C4.76507 42.7148 7.75638 42.6806 10.9959 43.3594C14.2355 44.0383 20.3626 45.8846 21.0833 44.7944C21.8041 43.7041 19.2221 40.5109 14.513 38.1376C9.80401 35.7643 2.01204 34.5803 3.89948 29.9447C5.78693 25.3091 20.0849 25.4566 29.266 29.4933C40.2844 34.3379 44.3875 34.6102 47.3645 33.5291C50.3416 32.448 51.0077 27.8965 48.2968 23.1418C43.9263 15.4765 34.0561 14.057 27.9753 12.8091C21.8944 11.5613 14.9414 8.78376 15.3335 6.52867C15.7257 4.27358 20.4765 1.71697 26.6429 1.05482C31.576 0.525109 35.3945 2.18007 36.6682 2.74628Z" fill="white" fill-opacity="0.2"/>
</g>
<defs>
<clipPath id="clip0_4774_7622">
<rect width="50" height="50" fill="white" transform="matrix(-1 0 0 1 50 0)"/>
</clipPath>
</defs>
</svg>
