<svg width="50" height="50" viewBox="0 0 50 50" fill="none" xmlns="http://www.w3.org/2000/svg">
<g clip-path="url(#clip0_4774_7567)">
<path d="M10.2417 27.3637C10.7175 26.8832 12.9777 25.8021 14.0483 25.3216L25.1113 25.9222C24.7941 29.8863 24.1597 38.5833 24.1597 41.6584C24.1597 44.7336 24.7941 48.4654 25.1113 49.947C24.7941 49.987 24.0169 50.0431 23.4459 49.947C22.7322 49.8268 21.0668 49.2262 20.2341 48.7457C19.4014 48.2652 10.4599 46.886 10.7175 46.4634C11 46 11 46 11.1933 45.5024C9.13142 44.2611 5.03136 41.7065 5.12653 41.4182C5.22169 41.1299 6.03853 40.0167 6.43505 39.4962C5.04722 38.4551 2.31913 36.2769 2.50946 35.8925C2.74738 35.412 9.64689 27.9643 10.2417 27.3637Z" fill="#898989"/>
<path d="M10.2417 27.3637C10.7175 26.8832 12.9777 25.8021 14.0483 25.3216L25.1113 25.9222C24.7941 29.8863 24.1597 38.5833 24.1597 41.6584C24.1597 44.7336 24.7941 48.4654 25.1113 49.947C24.7941 49.987 24.0169 50.0431 23.4459 49.947C22.7322 49.8268 21.0668 49.2262 20.2341 48.7457C19.4014 48.2652 10.4599 46.886 10.7175 46.4634C11 46 11 46 11.1933 45.5024C9.13142 44.2611 5.03136 41.7065 5.12653 41.4182C5.22169 41.1299 6.03853 40.0167 6.43505 39.4962C5.04722 38.4551 2.31913 36.2769 2.50946 35.8925C2.74738 35.412 9.64689 27.9643 10.2417 27.3637Z" fill="black" fill-opacity="0.2"/>
<path d="M27.1336 42.6194C27.3239 39.5442 26.2613 30.2066 25.7061 25.9222L36.2933 25.3216C37.4036 25.762 39.41 27.5559 39.981 27.8442C40.6947 28.2046 47.9511 35.5321 47.4753 36.2529C47.0946 36.8294 45.0168 38.2549 44.0255 38.8956C44.5807 39.4161 45.5958 40.6494 45.2151 41.4182C44.7393 42.3792 41.5274 43.22 39.6241 45.0219C37.7208 46.8237 34.8658 45.5024 33.6762 47.1841C32.7246 48.5295 28.4421 49.1862 26.4199 49.3463C26.5785 48.3854 26.9433 45.6946 27.1336 42.6194Z" fill="#898989"/>
<path d="M27.1336 42.6194C27.3239 39.5442 26.2613 30.2066 25.7061 25.9222L36.2933 25.3216C37.4036 25.762 39.41 27.5559 39.981 27.8442C40.6947 28.2046 47.9511 35.5321 47.4753 36.2529C47.0946 36.8294 45.0168 38.2549 44.0255 38.8956C44.5807 39.4161 45.5958 40.6494 45.2151 41.4182C44.7393 42.3792 41.5274 43.22 39.6241 45.0219C37.7208 46.8237 34.8658 45.5024 33.6762 47.1841C32.7246 48.5295 28.4421 49.1862 26.4199 49.3463C26.5785 48.3854 26.9433 45.6946 27.1336 42.6194Z" fill="black" fill-opacity="0.2"/>
<path d="M10.2417 27.3637C10.7175 26.8832 12.9777 25.802 14.0483 25.3216L25.5067 25.2525L36.2933 25.3216C37.4036 25.762 40.1237 27.676 40.6947 27.9643C41.4085 28.3246 47.9511 35.5321 47.4753 36.2528C47.1942 36.6785 45.9881 37.5669 44.9772 38.2606C44.422 37.271 43.0575 35.5575 41.5 34C40 32.5 38.5932 31.0606 37.3639 30.5C38.1966 31.1006 39.7789 33.038 41 34.5711C42.3295 36.2402 42.9946 37.2538 44.0255 38.8955C44.5807 39.4161 45.5958 40.6493 45.2151 41.4181C44.8206 42.2148 42.5456 42.929 40.6947 44.1766C40.3378 43.097 38.9517 39.6337 38 38C37.0483 36.3663 34.7279 33.8503 33.2004 32.529C34.1124 33.7703 36.2219 36.7814 37.3639 38.8955C38.5059 41.0097 39.3465 43.8607 39.6241 45.0218C37.7208 46.8237 34.8658 45.5023 33.6762 47.1841C32.7246 48.5295 28.4421 49.1861 26.4199 49.3463C26.5785 48.3853 26.9433 45.6945 27.1336 42.6194C27.3239 39.5442 26.0618 29.5369 25.5067 25.2525C25.1895 29.2166 24.5064 35.3086 24.5064 38.3838C24.5064 41.459 24.7941 48.4654 25.1113 49.9469C24.7941 49.987 24.0169 50.043 23.4459 49.9469C22.7322 49.8268 21.0668 49.2262 20.2341 48.7457C19.4014 48.2652 10.4598 46.886 10.7175 46.4633C11 46 11.1189 45.7465 11.1933 45.5023C11.9864 42.8997 13.739 37.2859 14.4052 35.6522C15.0713 34.0185 15.7137 32.7292 15.9516 32.2887C15 33.6501 12.9063 36.8775 12.145 38.8955C11.3837 40.9136 10.4003 43.658 10.0038 44.778C7.86574 43.4625 5.04744 41.6577 5.12653 41.4181C5.22169 41.1298 6.03853 40.0167 6.43505 39.4962C7.5 38 9.05211 35.0996 10.0038 33.8503C10.9554 32.6011 12.145 31.4078 12.6208 30.9674C10.7175 32 8.93316 33.514 7.9815 34.5711C7.02984 35.6282 5.68166 37.6187 5.12653 38.4818C3.80476 37.4253 2.36964 36.1748 2.50946 35.8924C2.74738 35.4119 9.64689 27.9643 10.2417 27.3637Z" fill="#898989"/>
<path d="M10.2417 27.3637C10.7175 26.8832 12.9777 25.802 14.0483 25.3216L25.5067 25.2525L36.2933 25.3216C37.4036 25.762 40.1237 27.676 40.6947 27.9643C41.4085 28.3246 47.9511 35.5321 47.4753 36.2528C47.1942 36.6785 45.9881 37.5669 44.9772 38.2606C44.422 37.271 43.0575 35.5575 41.5 34C40 32.5 38.5932 31.0606 37.3639 30.5C38.1966 31.1006 39.7789 33.038 41 34.5711C42.3295 36.2402 42.9946 37.2538 44.0255 38.8955C44.5807 39.4161 45.5958 40.6493 45.2151 41.4181C44.8206 42.2148 42.5456 42.929 40.6947 44.1766C40.3378 43.097 38.9517 39.6337 38 38C37.0483 36.3663 34.7279 33.8503 33.2004 32.529C34.1124 33.7703 36.2219 36.7814 37.3639 38.8955C38.5059 41.0097 39.3465 43.8607 39.6241 45.0218C37.7208 46.8237 34.8658 45.5023 33.6762 47.1841C32.7246 48.5295 28.4421 49.1861 26.4199 49.3463C26.5785 48.3853 26.9433 45.6945 27.1336 42.6194C27.3239 39.5442 26.0618 29.5369 25.5067 25.2525C25.1895 29.2166 24.5064 35.3086 24.5064 38.3838C24.5064 41.459 24.7941 48.4654 25.1113 49.9469C24.7941 49.987 24.0169 50.043 23.4459 49.9469C22.7322 49.8268 21.0668 49.2262 20.2341 48.7457C19.4014 48.2652 10.4598 46.886 10.7175 46.4633C11 46 11.1189 45.7465 11.1933 45.5023C11.9864 42.8997 13.739 37.2859 14.4052 35.6522C15.0713 34.0185 15.7137 32.7292 15.9516 32.2887C15 33.6501 12.9063 36.8775 12.145 38.8955C11.3837 40.9136 10.4003 43.658 10.0038 44.778C7.86574 43.4625 5.04744 41.6577 5.12653 41.4181C5.22169 41.1298 6.03853 40.0167 6.43505 39.4962C7.5 38 9.05211 35.0996 10.0038 33.8503C10.9554 32.6011 12.145 31.4078 12.6208 30.9674C10.7175 32 8.93316 33.514 7.9815 34.5711C7.02984 35.6282 5.68166 37.6187 5.12653 38.4818C3.80476 37.4253 2.36964 36.1748 2.50946 35.8924C2.74738 35.4119 9.64689 27.9643 10.2417 27.3637Z" fill="white" fill-opacity="0.2"/>
<path d="M36.1141 17.9587C35.6461 16.1189 28.2747 7.44587 25.1155 7.57728L20.5522 12.7023C18.8361 13.9288 15.2635 16.6446 14.7019 17.6958C13.9999 19.0099 14.936 22.0063 14.702 22.9261C14.4679 23.846 14.1524 25.5644 14.5034 27.2728C14.8544 28.9811 17.9781 29.2599 19.6162 28.34C20.9267 27.6041 24.2001 25.3176 25.5067 25.2526C26.8133 25.1875 28.6959 27.4464 30.3808 28.0772C32.4869 28.8657 34.71 28.8657 35.7631 28.0772C36.8161 27.2888 36.5821 19.7984 36.1141 17.9587Z" fill="#898989"/>
<path d="M36.1141 17.9587C35.6461 16.1189 28.2747 7.44587 25.1155 7.57728L20.5522 12.7023C18.8361 13.9288 15.2635 16.6446 14.7019 17.6958C13.9999 19.0099 14.936 22.0063 14.702 22.9261C14.4679 23.846 14.1524 25.5644 14.5034 27.2728C14.8544 28.9811 17.9781 29.2599 19.6162 28.34C20.9267 27.6041 24.2001 25.3176 25.5067 25.2526C26.8133 25.1875 28.6959 27.4464 30.3808 28.0772C32.4869 28.8657 34.71 28.8657 35.7631 28.0772C36.8161 27.2888 36.5821 19.7984 36.1141 17.9587Z" fill="black" fill-opacity="0.6"/>
<path d="M17.6169 5.74138C18.3783 3.43501 22.786 1.12115 25.0066 0C26.5 0 31.6761 3.94483 32.5088 4.54545C33.3415 5.14607 34.2709 8.8646 35.4605 10.0658C36.6501 11.2671 36.0553 16.072 37.0069 18.4745C37.9056 20.7432 36.6232 26.1923 36.0948 27.5768C36.0723 27.6746 36.0441 27.7431 36.0098 27.7778C36.0351 27.7259 36.0636 27.6584 36.0948 27.5768C36.3063 26.6581 36.021 23.1569 35.6984 20.877C35.3415 18.3544 32.5304 13.4917 30.5082 13.1313C28.4859 12.7709 26.3394 9.06635 25.5067 8.58586C24.674 8.10536 21.1947 11.8345 20.0051 13.6364C18.8155 15.4382 17.0746 16.1152 16.004 17.6768C14.9333 19.2384 15.1188 23.6398 14.524 24.9612C14.1473 25.7981 14.2428 26.9411 14.3973 27.6989C14.4426 27.8818 14.4852 28.0517 14.524 28.2045C14.4827 28.0711 14.438 27.8983 14.3973 27.6989C13.9799 26.013 13.3345 23.2188 13.3345 22.4386C13.3345 21.3575 13.4534 17.8739 13.8103 14.9909C14.1672 12.1079 16.6653 8.62435 17.6169 5.74138Z" fill="#898989"/>
<path d="M17.6169 5.74138C18.3783 3.43501 22.786 1.12115 25.0066 0C26.5 0 31.6761 3.94483 32.5088 4.54545C33.3415 5.14607 34.2709 8.8646 35.4605 10.0658C36.6501 11.2671 36.0553 16.072 37.0069 18.4745C37.9056 20.7432 36.6232 26.1923 36.0948 27.5768C36.0723 27.6746 36.0441 27.7431 36.0098 27.7778C36.0351 27.7259 36.0636 27.6584 36.0948 27.5768C36.3063 26.6581 36.021 23.1569 35.6984 20.877C35.3415 18.3544 32.5304 13.4917 30.5082 13.1313C28.4859 12.7709 26.3394 9.06635 25.5067 8.58586C24.674 8.10536 21.1947 11.8345 20.0051 13.6364C18.8155 15.4382 17.0746 16.1152 16.004 17.6768C14.9333 19.2384 15.1188 23.6398 14.524 24.9612C14.1473 25.7981 14.2428 26.9411 14.3973 27.6989C14.4426 27.8818 14.4852 28.0517 14.524 28.2045C14.4827 28.0711 14.438 27.8983 14.3973 27.6989C13.9799 26.013 13.3345 23.2188 13.3345 22.4386C13.3345 21.3575 13.4534 17.8739 13.8103 14.9909C14.1672 12.1079 16.6653 8.62435 17.6169 5.74138Z" fill="white" fill-opacity="0.4"/>
<path d="M22.6096 33.0391C23.2196 29.5057 24.9136 27.0584 25.5066 26.2626C25.3372 26.8594 24.5413 28.3119 24.1346 29.4579C23.6263 30.8904 23.3721 33.0391 23.118 35.4266C22.9147 37.3365 22.9485 42.1114 22.9909 44.2602L22.1013 45.0958C22.0166 42.5491 21.9997 36.5725 22.6096 33.0391Z" fill="#2FC4A7"/>
<path d="M22.6096 33.0391C23.2196 29.5057 24.9136 27.0584 25.5066 26.2626C25.3372 26.8594 24.5413 28.3119 24.1346 29.4579C23.6263 30.8904 23.3721 33.0391 23.118 35.4266C22.9147 37.3365 22.9485 42.1114 22.9909 44.2602L22.1013 45.0958C22.0166 42.5491 21.9997 36.5725 22.6096 33.0391Z" fill="white" fill-opacity="0.2"/>
<path d="M22.6096 33.0391C23.2196 29.5057 24.9136 27.0584 25.5066 26.2626C25.3372 26.8594 24.5413 28.3119 24.1346 29.4579C23.6263 30.8904 23.3721 33.0391 23.118 35.4266C22.9147 37.3365 22.9485 42.1114 22.9909 44.2602L22.1013 45.0958C22.0166 42.5491 21.9997 36.5725 22.6096 33.0391Z" stroke="#2FC4A7" stroke-width="0.5"/>
<path d="M22.6096 33.0391C23.2196 29.5057 24.9136 27.0584 25.5066 26.2626C25.3372 26.8594 24.5413 28.3119 24.1346 29.4579C23.6263 30.8904 23.3721 33.0391 23.118 35.4266C22.9147 37.3365 22.9485 42.1114 22.9909 44.2602L22.1013 45.0958C22.0166 42.5491 21.9997 36.5725 22.6096 33.0391Z" stroke="white" stroke-opacity="0.2" stroke-width="0.5"/>
<path d="M29.687 31.726C28.6078 28.1926 26.7951 27.0307 25.7459 26.2349C26.0456 26.8317 27.1676 27.9538 27.8871 29.0998C28.7864 30.5323 29.3146 32.6387 29.3146 35.0685C29.3146 37.3366 28.5568 41.3952 28.4818 43.5439L29.3145 44.3796C29.4644 41.8329 30.7662 35.2595 29.687 31.726Z" fill="#2FC4A7"/>
<path d="M29.687 31.726C28.6078 28.1926 26.7951 27.0307 25.7459 26.2349C26.0456 26.8317 27.1676 27.9538 27.8871 29.0998C28.7864 30.5323 29.3146 32.6387 29.3146 35.0685C29.3146 37.3366 28.5568 41.3952 28.4818 43.5439L29.3145 44.3796C29.4644 41.8329 30.7662 35.2595 29.687 31.726Z" fill="white" fill-opacity="0.2"/>
<path d="M29.687 31.726C28.6078 28.1926 26.7951 27.0307 25.7459 26.2349C26.0456 26.8317 27.1676 27.9538 27.8871 29.0998C28.7864 30.5323 29.3146 32.6387 29.3146 35.0685C29.3146 37.3366 28.5568 41.3952 28.4818 43.5439L29.3145 44.3796C29.4644 41.8329 30.7662 35.2595 29.687 31.726Z" stroke="#2FC4A7" stroke-width="0.5"/>
<path d="M29.687 31.726C28.6078 28.1926 26.7951 27.0307 25.7459 26.2349C26.0456 26.8317 27.1676 27.9538 27.8871 29.0998C28.7864 30.5323 29.3146 32.6387 29.3146 35.0685C29.3146 37.3366 28.5568 41.3952 28.4818 43.5439L29.3145 44.3796C29.4644 41.8329 30.7662 35.2595 29.687 31.726Z" stroke="white" stroke-opacity="0.2" stroke-width="0.5"/>
<path d="M19.917 26.832C20.488 25.7815 24.0062 25.7576 25.5066 26.1616C25.1894 26.281 24.0091 26.0442 23.2477 26.2352C22.2961 26.4739 21.4634 26.832 20.6307 27.6676C19.798 28.5033 20.2738 28.8614 21.1065 28.8614C21.7727 28.8614 24.3183 27.1106 25.5079 26.2352C24.9924 26.8718 23.3429 28.4077 22.2961 28.9807C20.9875 29.697 20.3928 28.9011 19.917 28.742C19.5601 28.6226 19.2032 28.1451 19.917 26.832Z" fill="#2FC4A7"/>
<path d="M19.917 26.832C20.488 25.7815 24.0062 25.7576 25.5066 26.1616C25.1894 26.281 24.0091 26.0442 23.2477 26.2352C22.2961 26.4739 21.4634 26.832 20.6307 27.6676C19.798 28.5033 20.2738 28.8614 21.1065 28.8614C21.7727 28.8614 24.3183 27.1106 25.5079 26.2352C24.9924 26.8718 23.3429 28.4077 22.2961 28.9807C20.9875 29.697 20.3928 28.9011 19.917 28.742C19.5601 28.6226 19.2032 28.1451 19.917 26.832Z" fill="white" fill-opacity="0.2"/>
<path d="M19.917 26.832C20.488 25.7815 24.0062 25.7576 25.5066 26.1616C25.1894 26.281 24.0091 26.0442 23.2477 26.2352C22.2961 26.4739 21.4634 26.832 20.6307 27.6676C19.798 28.5033 20.2738 28.8614 21.1065 28.8614C21.7727 28.8614 24.3183 27.1106 25.5079 26.2352C24.9924 26.8718 23.3429 28.4077 22.2961 28.9807C20.9875 29.697 20.3928 28.9011 19.917 28.742C19.5601 28.6226 19.2032 28.1451 19.917 26.832Z" stroke="#2FC4A7" stroke-width="0.5"/>
<path d="M19.917 26.832C20.488 25.7815 24.0062 25.7576 25.5066 26.1616C25.1894 26.281 24.0091 26.0442 23.2477 26.2352C22.2961 26.4739 21.4634 26.832 20.6307 27.6676C19.798 28.5033 20.2738 28.8614 21.1065 28.8614C21.7727 28.8614 24.3183 27.1106 25.5079 26.2352C24.9924 26.8718 23.3429 28.4077 22.2961 28.9807C20.9875 29.697 20.3928 28.9011 19.917 28.742C19.5601 28.6226 19.2032 28.1451 19.917 26.832Z" stroke="white" stroke-opacity="0.2" stroke-width="0.5"/>
<path d="M30.8443 26.3729C30.2777 25.6518 27.3921 25.5886 25.627 26.0574C25.9418 26.1394 27.9604 26.0435 28.7159 26.1746C29.6603 26.3385 29.6547 26.3729 30.481 26.9465C31.3074 27.5201 30.6455 28.2843 29.8191 28.2843C29.158 28.2843 26.8075 26.9738 25.627 26.3729C26.1385 26.8099 28.263 27.9502 29.1572 28.6359C30.3377 29.5412 30.5604 28.8623 31.0326 28.7531C31.3867 28.6712 31.5526 27.2742 30.8443 26.3729Z" fill="#2FC4A7"/>
<path d="M30.8443 26.3729C30.2777 25.6518 27.3921 25.5886 25.627 26.0574C25.9418 26.1394 27.9604 26.0435 28.7159 26.1746C29.6603 26.3385 29.6547 26.3729 30.481 26.9465C31.3074 27.5201 30.6455 28.2843 29.8191 28.2843C29.158 28.2843 26.8075 26.9738 25.627 26.3729C26.1385 26.8099 28.263 27.9502 29.1572 28.6359C30.3377 29.5412 30.5604 28.8623 31.0326 28.7531C31.3867 28.6712 31.5526 27.2742 30.8443 26.3729Z" fill="white" fill-opacity="0.2"/>
<path d="M30.8443 26.3729C30.2777 25.6518 27.3921 25.5886 25.627 26.0574C25.9418 26.1394 27.9604 26.0435 28.7159 26.1746C29.6603 26.3385 29.6547 26.3729 30.481 26.9465C31.3074 27.5201 30.6455 28.2843 29.8191 28.2843C29.158 28.2843 26.8075 26.9738 25.627 26.3729C26.1385 26.8099 28.263 27.9502 29.1572 28.6359C30.3377 29.5412 30.5604 28.8623 31.0326 28.7531C31.3867 28.6712 31.5526 27.2742 30.8443 26.3729Z" stroke="#2FC4A7" stroke-width="0.5"/>
<path d="M30.8443 26.3729C30.2777 25.6518 27.3921 25.5886 25.627 26.0574C25.9418 26.1394 27.9604 26.0435 28.7159 26.1746C29.6603 26.3385 29.6547 26.3729 30.481 26.9465C31.3074 27.5201 30.6455 28.2843 29.8191 28.2843C29.158 28.2843 26.8075 26.9738 25.627 26.3729C26.1385 26.8099 28.263 27.9502 29.1572 28.6359C30.3377 29.5412 30.5604 28.8623 31.0326 28.7531C31.3867 28.6712 31.5526 27.2742 30.8443 26.3729Z" stroke="white" stroke-opacity="0.2" stroke-width="0.5"/>
</g>
<defs>
<clipPath id="clip0_4774_7567">
<rect width="50" height="50" fill="white" transform="matrix(-1 0 0 1 50 0)"/>
</clipPath>
</defs>
</svg>
