<?xml version="1.0" encoding="utf-8"?><svg fill="none" viewBox="0 0 50 50" xmlns="http://www.w3.org/2000/svg" width="50" height="50"><path d="M24.314 10.879c.441-.16.93-.16 1.372 0 7.08 2.573 10.4 5.921 12.355 10.148 2.092 4.522 2.716 10.149 3.893 17.845.176 1.157-.42 2.218-1.355 2.636-6.244 2.788-10.882 4.019-15.42 3.992-4.553-.027-9.264-1.32-15.662-4.042-.974-.415-1.595-1.503-1.416-2.679 1.17-7.666 1.799-13.273 3.89-17.778 1.957-4.213 5.276-7.554 12.343-10.122Z" fill="#1D8CE0"/><path d="M24.314 10.879c.441-.16.93-.16 1.372 0 7.08 2.573 10.4 5.921 12.355 10.148 2.092 4.522 2.716 10.149 3.893 17.845.176 1.157-.42 2.218-1.355 2.636-6.244 2.788-10.882 4.019-15.42 3.992-4.553-.027-9.264-1.32-15.662-4.042-.974-.415-1.595-1.503-1.416-2.679 1.17-7.666 1.799-13.273 3.89-17.778 1.957-4.213 5.276-7.554 12.343-10.122Z" fill="#000" fill-opacity=".2"/><path d="M24.314 10.879c.441-.16.93-.16 1.372 0 7.08 2.573 10.4 5.921 12.355 10.148 2.092 4.522 2.716 10.149 3.893 17.845.176 1.157-.42 2.218-1.355 2.636-6.244 2.788-10.882 4.019-15.42 3.992-4.553-.027-9.264-1.32-15.662-4.042-.974-.415-1.595-1.503-1.416-2.679 1.17-7.666 1.799-13.273 3.89-17.778 1.957-4.213 5.276-7.554 12.343-10.122Z" stroke="#1D8CE0" stroke-width="5"/><path d="M24.314 10.879c.441-.16.93-.16 1.372 0 7.08 2.573 10.4 5.921 12.355 10.148 2.092 4.522 2.716 10.149 3.893 17.845.176 1.157-.42 2.218-1.355 2.636-6.244 2.788-10.882 4.019-15.42 3.992-4.553-.027-9.264-1.32-15.662-4.042-.974-.415-1.595-1.503-1.416-2.679 1.17-7.666 1.799-13.273 3.89-17.778 1.957-4.213 5.276-7.554 12.343-10.122Z" stroke="#fff" stroke-opacity=".2" stroke-width="5"/><path d="M23.8 9.47a3.517 3.517 0 0 1 2.4 0c7.387 2.686 11.05 6.28 13.202 10.933 2.206 4.771 2.858 10.69 4.014 18.255.272 1.781-.635 3.523-2.226 4.233-6.342 2.827-11.213 4.14-16.055 4.108-4.849-.031-9.772-1.41-16.222-4.148-1.641-.697-2.591-2.47-2.314-4.286 1.15-7.536 1.805-13.437 4.012-18.192 2.154-4.638 5.818-8.223 13.19-10.903Z" stroke="#1D8CE0" stroke-width="2"/><path d="M23.8 9.47a3.517 3.517 0 0 1 2.4 0c7.387 2.686 11.05 6.28 13.202 10.933 2.206 4.771 2.858 10.69 4.014 18.255.272 1.781-.635 3.523-2.226 4.233-6.342 2.827-11.213 4.14-16.055 4.108-4.849-.031-9.772-1.41-16.222-4.148-1.641-.697-2.591-2.47-2.314-4.286 1.15-7.536 1.805-13.437 4.012-18.192 2.154-4.638 5.818-8.223 13.19-10.903Z" stroke="#fff" stroke-opacity=".6" stroke-width="2"/><circle cx="24.991" cy="11.972" r="2" fill="#080B16"/><path d="M27.016 4.343c.162.703.178 1.705-.039 2.82A9.756 9.756 0 0 1 26.6 8.55c.747.27 1.146.434 1.851.728.204-.538.37-1.122.49-1.733.257-1.324.263-2.616.025-3.65-.119-.516-.309-1.015-.6-1.424-.294-.415-.73-.783-1.32-.898-.59-.115-1.132.063-1.56.337-.424.27-.787.662-1.09 1.095-.609.87-1.088 2.07-1.345 3.394-.258 1.324-.264 2.616-.026 3.65.118.516.309 1.015.6 1.424.294.414.73.783 1.32.897.59.115 1.132-.063 1.56-.336.162-.104.315-.225.46-.36-.142-.831-.41-1.151-1.257-1.57a1.475 1.475 0 0 1-.279.244.466.466 0 0 1-.1.05.467.467 0 0 1-.075-.084c-.091-.13-.198-.36-.28-.713-.161-.703-.177-1.705.04-2.82.217-1.115.607-2.038 1.02-2.629.208-.297.394-.47.528-.556a.48.48 0 0 1 .1-.051c.016.014.042.04.074.085.092.13.2.36.28.713Z" fill="#1D8CE0"/><path d="M27.015 4.33c.161.707.177 1.713-.04 2.834A9.838 9.838 0 0 1 26.6 8.55c.302.105.476.163.76.3.74-2.002.77-4.133.334-4.892-.45-.783-.762-.568-1.034-.43.016.015.042.04.074.086.092.13.2.362.28.717Z" fill="#1D8CE0"/><path d="M27.015 4.33c.161.707.177 1.713-.04 2.834A9.838 9.838 0 0 1 26.6 8.55c.302.105.476.163.76.3.74-2.002.77-4.133.334-4.892-.45-.783-.762-.568-1.034-.43.016.015.042.04.074.086.092.13.2.362.28.717Z" fill="#000" fill-opacity=".2"/><path d="M25.426 10.364a.47.47 0 0 1-.1.05c.136.204.667.577 1.086.117-.277-.232-.672-.434-.708-.43 0 0-.2.213-.278.263Z" fill="#1D8CE0"/><path d="M25.426 10.364a.47.47 0 0 1-.1.05c.136.204.667.577 1.086.117-.277-.232-.672-.434-.708-.43 0 0-.2.213-.278.263Z" fill="#000" fill-opacity=".2"/><path d="M15 28.542c0-2.325 1.818-3.505 2.338-3.505-.098.424-.107.68 0 1.194.083.403.173.685.26.77l.779-.256c-.285-.681-.368-1.803 0-2.568.494-1.026 1.039-1.797 2.857-1.797 1.922 0 2.312.514 2.857 1.027l.754-.424-.78-.77c.433-.171 1.688-.449 3.143.167 1.423.603 1.533 1.373 2.052 2.143l.545-.346-.52-1.026c.347.042 1.193 0 2.338.77.96.645 1.3 1.24 1.3 1.54-.347 0-1.196.051-1.82.257a3.683 3.683 0 0 0-1.298.77l.52.513c.494-.256.624-.77 2.078-.77 1.711 0 2.597 1.886 2.597 3.594 0 2.143-1.039 3.338-2.597 3.851-1.247.41-2.598.342-3.117.257.173.342.546.962.753 1.373.208.41.26.77.286 1.194l-1.559-.257c-.26-.342-.804-1.194-1.558-1.797-.685-.548-1.844-1.023-2.104-1.194.26 0 1.024-.413 1.3-.514.243-.089.519-.256 1.064-.602l-.78-.514c-.606.428-2.233 1.233-3.896 1.027-2.078-.257-2.597-1.45-2.597-2.663 0-.842 1.013-1.762 1.533-2.125l-.754-.346c-.433.256-1.35 1.078-1.558 2.31-.208 1.233.433 2.054.779 2.31-.606.086-2.252.206-3.117-.167-.805-.346-2.078-1.027-2.078-3.426Z" fill="#1D8CE0"/><path d="M15 28.542c0-2.325 1.818-3.505 2.338-3.505-.098.424-.107.68 0 1.194.083.403.173.685.26.77l.779-.256c-.285-.681-.368-1.803 0-2.568.494-1.026 1.039-1.797 2.857-1.797 1.922 0 2.312.514 2.857 1.027l.754-.424-.78-.77c.433-.171 1.688-.449 3.143.167 1.423.603 1.533 1.373 2.052 2.143l.545-.346-.52-1.026c.347.042 1.193 0 2.338.77.96.645 1.3 1.24 1.3 1.54-.347 0-1.196.051-1.82.257a3.683 3.683 0 0 0-1.298.77l.52.513c.494-.256.624-.77 2.078-.77 1.711 0 2.597 1.886 2.597 3.594 0 2.143-1.039 3.338-2.597 3.851-1.247.41-2.598.342-3.117.257.173.342.546.962.753 1.373.208.41.26.77.286 1.194l-1.559-.257c-.26-.342-.804-1.194-1.558-1.797-.685-.548-1.844-1.023-2.104-1.194.26 0 1.024-.413 1.3-.514.243-.089.519-.256 1.064-.602l-.78-.514c-.606.428-2.233 1.233-3.896 1.027-2.078-.257-2.597-1.45-2.597-2.663 0-.842 1.013-1.762 1.533-2.125l-.754-.346c-.433.256-1.35 1.078-1.558 2.31-.208 1.233.433 2.054.779 2.31-.606.086-2.252.206-3.117-.167-.805-.346-2.078-1.027-2.078-3.426Z" fill="#fff" fill-opacity=".8"/></svg>