<?xml version="1.0" encoding="utf-8"?><svg fill="none" viewBox="0 0 50 50" xmlns="http://www.w3.org/2000/svg" width="50" height="50"><path d="M24.314 10.879c.441-.16.93-.16 1.372 0 7.08 2.573 10.4 5.921 12.355 10.148 2.092 4.522 2.716 10.149 3.893 17.845.176 1.157-.42 2.218-1.355 2.636-6.244 2.788-10.882 4.019-15.42 3.992-4.553-.027-9.264-1.32-15.662-4.042-.974-.415-1.595-1.503-1.416-2.679 1.17-7.666 1.799-13.273 3.89-17.778 1.957-4.213 5.276-7.554 12.343-10.122Z" fill="#1D8CE0"/><path d="M24.314 10.879c.441-.16.93-.16 1.372 0 7.08 2.573 10.4 5.921 12.355 10.148 2.092 4.522 2.716 10.149 3.893 17.845.176 1.157-.42 2.218-1.355 2.636-6.244 2.788-10.882 4.019-15.42 3.992-4.553-.027-9.264-1.32-15.662-4.042-.974-.415-1.595-1.503-1.416-2.679 1.17-7.666 1.799-13.273 3.89-17.778 1.957-4.213 5.276-7.554 12.343-10.122Z" fill="#000" fill-opacity=".2"/><path d="M24.314 10.879c.441-.16.93-.16 1.372 0 7.08 2.573 10.4 5.921 12.355 10.148 2.092 4.522 2.716 10.149 3.893 17.845.176 1.157-.42 2.218-1.355 2.636-6.244 2.788-10.882 4.019-15.42 3.992-4.553-.027-9.264-1.32-15.662-4.042-.974-.415-1.595-1.503-1.416-2.679 1.17-7.666 1.799-13.273 3.89-17.778 1.957-4.213 5.276-7.554 12.343-10.122Z" stroke="#1D8CE0" stroke-width="5"/><path d="M24.314 10.879c.441-.16.93-.16 1.372 0 7.08 2.573 10.4 5.921 12.355 10.148 2.092 4.522 2.716 10.149 3.893 17.845.176 1.157-.42 2.218-1.355 2.636-6.244 2.788-10.882 4.019-15.42 3.992-4.553-.027-9.264-1.32-15.662-4.042-.974-.415-1.595-1.503-1.416-2.679 1.17-7.666 1.799-13.273 3.89-17.778 1.957-4.213 5.276-7.554 12.343-10.122Z" stroke="#fff" stroke-opacity=".2" stroke-width="5"/><path d="M23.8 9.47a3.517 3.517 0 0 1 2.4 0c7.387 2.686 11.05 6.28 13.202 10.933 2.206 4.771 2.858 10.69 4.014 18.255.272 1.781-.635 3.523-2.226 4.233-6.342 2.827-11.213 4.14-16.055 4.108-4.849-.031-9.772-1.41-16.222-4.148-1.641-.697-2.591-2.47-2.314-4.286 1.15-7.536 1.805-13.437 4.012-18.192 2.154-4.638 5.818-8.223 13.19-10.903Z" stroke="#1D8CE0" stroke-width="2"/><path d="M23.8 9.47a3.517 3.517 0 0 1 2.4 0c7.387 2.686 11.05 6.28 13.202 10.933 2.206 4.771 2.858 10.69 4.014 18.255.272 1.781-.635 3.523-2.226 4.233-6.342 2.827-11.213 4.14-16.055 4.108-4.849-.031-9.772-1.41-16.222-4.148-1.641-.697-2.591-2.47-2.314-4.286 1.15-7.536 1.805-13.437 4.012-18.192 2.154-4.638 5.818-8.223 13.19-10.903Z" stroke="#fff" stroke-opacity=".6" stroke-width="2"/><circle cx="24.991" cy="11.972" r="2" fill="#080B16"/><path d="M27.016 4.343c.162.703.178 1.705-.039 2.82A9.756 9.756 0 0 1 26.6 8.55c.747.27 1.146.434 1.851.728.204-.538.37-1.122.49-1.733.257-1.324.263-2.616.025-3.65-.119-.516-.309-1.015-.6-1.424-.294-.415-.73-.783-1.32-.898-.59-.115-1.132.063-1.56.337-.424.27-.787.662-1.09 1.095-.609.87-1.088 2.07-1.345 3.394-.258 1.324-.264 2.616-.026 3.65.118.516.309 1.015.6 1.424.294.414.73.783 1.32.897.59.115 1.132-.063 1.56-.336.162-.104.315-.225.46-.36-.142-.831-.41-1.151-1.257-1.57a1.475 1.475 0 0 1-.279.244.466.466 0 0 1-.1.05.467.467 0 0 1-.075-.084c-.091-.13-.198-.36-.28-.713-.161-.703-.177-1.705.04-2.82.217-1.115.607-2.038 1.02-2.629.208-.297.394-.47.528-.556a.48.48 0 0 1 .1-.051c.016.014.042.04.074.085.092.13.2.36.28.713Z" fill="#1D8CE0"/><path d="M27.015 4.33c.161.707.177 1.713-.04 2.834A9.838 9.838 0 0 1 26.6 8.55c.302.105.476.163.76.3.74-2.002.77-4.133.334-4.892-.45-.783-.762-.568-1.034-.43.016.015.042.04.074.086.092.13.2.362.28.717Z" fill="#1D8CE0"/><path d="M27.015 4.33c.161.707.177 1.713-.04 2.834A9.838 9.838 0 0 1 26.6 8.55c.302.105.476.163.76.3.74-2.002.77-4.133.334-4.892-.45-.783-.762-.568-1.034-.43.016.015.042.04.074.086.092.13.2.362.28.717Z" fill="#000" fill-opacity=".2"/><path d="M25.426 10.364a.47.47 0 0 1-.1.05c.136.204.667.577 1.086.117-.277-.232-.672-.434-.708-.43 0 0-.2.213-.278.263Z" fill="#1D8CE0"/><path d="M25.426 10.364a.47.47 0 0 1-.1.05c.136.204.667.577 1.086.117-.277-.232-.672-.434-.708-.43 0 0-.2.213-.278.263Z" fill="#000" fill-opacity=".2"/><path d="m24.589 28-5.096 9.317" stroke="#1D8CE0" stroke-width="1.993" stroke-linecap="round"/><path d="m24.589 28-5.096 9.317" stroke="#fff" stroke-opacity=".8" stroke-width="1.993" stroke-linecap="round"/><path d="m30.645 31.124 2.05-3.709a1.993 1.993 0 0 0-.788-2.712L23.309 20a1.992 1.992 0 0 0-2.693.77l-2.14 3.805a1.993 1.993 0 0 0 .802 2.737l8.689 4.61c.96.509 2.152.154 2.678-.797Z" fill="#1D8CE0"/><path d="m30.645 31.124 2.05-3.709a1.993 1.993 0 0 0-.788-2.712L23.309 20a1.992 1.992 0 0 0-2.693.77l-2.14 3.805a1.993 1.993 0 0 0 .802 2.737l8.689 4.61c.96.509 2.152.154 2.678-.797Z" fill="#fff" fill-opacity=".8"/><path d="M20.825 22.452a1.204 1.204 0 0 1-1.928 1.371l1.143-2.03c.335.088.629.32.785.659Zm1.217 3.674a.69.69 0 1 1-1.253.579.69.69 0 0 1 1.253-.579Zm3.776-3.779a1.485 1.485 0 1 1-2.696 1.246 1.485 1.485 0 0 1 2.696-1.246Zm2.156 6.913a1.008 1.008 0 1 1 .52 1.949 1.008 1.008 0 0 1-.52-1.949Zm-.679-2.532a.804.804 0 1 1-1.46.674.804.804 0 0 1 1.46-.674Zm3.602.636a.402.402 0 1 1-.73.338.402.402 0 0 1 .73-.338Zm-.182-3.314a1.204 1.204 0 1 1-2.099-1.148l2.099 1.148Z" fill="#1D8CE0"/><path d="M20.825 22.452a1.204 1.204 0 0 1-1.928 1.371l1.143-2.03c.335.088.629.32.785.659Zm1.217 3.674a.69.69 0 1 1-1.253.579.69.69 0 0 1 1.253-.579Zm3.776-3.779a1.485 1.485 0 1 1-2.696 1.246 1.485 1.485 0 0 1 2.696-1.246Zm2.156 6.913a1.008 1.008 0 1 1 .52 1.949 1.008 1.008 0 0 1-.52-1.949Zm-.679-2.532a.804.804 0 1 1-1.46.674.804.804 0 0 1 1.46-.674Zm3.602.636a.402.402 0 1 1-.73.338.402.402 0 0 1 .73-.338Zm-.182-3.314a1.204 1.204 0 1 1-2.099-1.148l2.099 1.148Z" fill="#fff" fill-opacity=".8"/></svg>