<svg width="50" height="50" viewBox="0 0 50 50" fill="none" xmlns="http://www.w3.org/2000/svg">
        <g clip-path="url(#aaza)">
            <path d="m38.214 4.5 7.379 6H4.407l7.38-6h26.427Z" fill="#FAA21E" />
            <path d="m38.214 4.5 7.379 6H4.407l7.38-6h26.427Z" fill="#fff" fill-opacity=".6" />
            <path d="m38.214 4.5 7.379 6H4.407l7.38-6h26.427Z" stroke="#FAA21E" />
            <path d="m38.214 4.5 7.379 6H4.407l7.38-6h26.427Z" stroke="#fff" stroke-opacity=".6" />
            <path d="M47 11v35H3V11h44Z" fill="#C57A09" />
            <path d="M47 12v7H3v-7h44Z" fill="#FAA21E" />
            <path d="M47 12v7H3v-7h44Z" fill="#fff" fill-opacity=".2" />
            <path d="M47 21v7H3v-7h44Z" fill="#FAA21E" />
            <path d="M47 21v7H3v-7h44Z" fill="#fff" fill-opacity=".2" />
            <path d="M47 30v7H3v-7h44Z" fill="#FAA21E" />
            <path d="M47 30v7H3v-7h44Z" fill="#fff" fill-opacity=".2" />
            <path d="M47 39v7H3v-7h44Z" fill="#FAA21E" />
            <path d="M47 39v7H3v-7h44Z" fill="#fff" fill-opacity=".2" />
            <circle cx="5.25" cy="40.75" r=".75" fill="#C57A09" />
            <circle cx="5.25" cy="44.25" r=".75" fill="#C57A09" />
            <circle cx="44.75" cy="40.75" r=".75" fill="#C57A09" />
            <circle cx="44.75" cy="44.25" r=".75" fill="#C57A09" />
            <circle cx="5.25" cy="31.75" r=".75" fill="#C57A09" />
            <circle cx="5.25" cy="35.25" r=".75" fill="#C57A09" />
            <circle cx="44.75" cy="31.75" r=".75" fill="#C57A09" />
            <circle cx="44.75" cy="35.25" r=".75" fill="#C57A09" />
            <circle cx="5.25" cy="22.75" r=".75" fill="#C57A09" />
            <circle cx="5.25" cy="26.25" r=".75" fill="#C57A09" />
            <circle cx="44.75" cy="22.75" r=".75" fill="#C57A09" />
            <circle cx="44.75" cy="26.25" r=".75" fill="#C57A09" />
            <circle cx="5.25" cy="13.75" r=".75" fill="#C57A09" />
            <circle cx="5.25" cy="17.25" r=".75" fill="#C57A09" />
            <circle cx="44.75" cy="13.75" r=".75" fill="#C57A09" />
            <circle cx="44.75" cy="17.25" r=".75" fill="#C57A09" />
            <ellipse cx="12.25" cy="5" rx=".75" ry=".5" fill="#FAA21E" />
            <ellipse cx="6.75" cy="9.5" rx=".75" ry=".5" fill="#FAA21E" />
            <ellipse cx="37.75" cy="5" rx=".75" ry=".5" fill="#FAA21E" />
            <ellipse cx="43.25" cy="9.5" rx=".75" ry=".5" fill="#FAA21E" />
            <path fill="#FAA21E" d="m13.662 13.557 25.81 3.137-3.137 25.81-25.81-3.137z" />
            <path fill="#000" fill-opacity=".4" d="m13.662 13.557 25.81 3.137-3.137 25.81-25.81-3.137z" />
            <path
                d="M22.212 37.82c-2.812-.342-4.503-1.591-4.698-2.137-.194-.545.029-2.381.029-2.381l10.285 1.25c-.133 1.097-.159 1.841-.542 2.319-.612.76-2.517 1.26-5.074.949Z"
                fill="#898989" />
            <path
                d="M22.212 37.82c-2.812-.342-4.503-1.591-4.698-2.137-.194-.545.029-2.381.029-2.381l10.285 1.25c-.133 1.097-.159 1.841-.542 2.319-.612.76-2.517 1.26-5.074.949Z"
                fill="#fff" fill-opacity=".6" />
            <path
                d="M32.546 27.445c-.416-.07-.964-.621-.607-1.482s1.508-1.36 2.755-1.151c1.246.208 1.757.983 2.305 1.535-.074.448-.166 2.274-1.466 3.668-1.3 1.394-2.608 1.848-3.98 2.097-.88.16-1.188.722-1.263 1.17-.075.448.266.965.682 1.034"
                stroke="#FEFEFE" stroke-width="1.295" stroke-linecap="round" />
            <path
                d="M34.072 21.826 14.53 19.45c.6 2.058 1.126 2.406 1.413 4.71.144 1.151-.568 4.672-.247 6.696.407 2.563 1.702 4.036 3.09 4.913 1.381.873 5.442 1.367 7.265.883 1.587-.421 3.185-1.598 4.177-4.03 1.145-2.807.828-4.934 1.364-6.56.45-1.364 1.092-2.137 2.481-4.236Z"
                fill="#898989" />
            <path
                d="M34.072 21.826 14.53 19.45c.6 2.058 1.126 2.406 1.413 4.71.144 1.151-.568 4.672-.247 6.696.407 2.563 1.702 4.036 3.09 4.913 1.381.873 5.442 1.367 7.265.883 1.587-.421 3.185-1.598 4.177-4.03 1.145-2.807.828-4.934 1.364-6.56.45-1.364 1.092-2.137 2.481-4.236Z"
                fill="#fff" fill-opacity=".95" />
            <path
                d="M34.085 21.72c-.169 1.388-4.568 2.041-9.965 1.385-5.397-.656-9.747-2.372-9.578-3.76.169-1.388 4.798-1.967 10.194-1.31 5.397.655 9.518 2.297 9.349 3.685Z"
                fill="#898989" />
            <path
                d="M34.085 21.72c-.169 1.388-4.568 2.041-9.965 1.385-5.397-.656-9.747-2.372-9.578-3.76.169-1.388 4.798-1.967 10.194-1.31 5.397.655 9.518 2.297 9.349 3.685Z"
                fill="#fff" fill-opacity=".6" />
            <path
                d="M34.085 21.72c-.169 1.388-4.568 2.041-9.965 1.385-5.397-.656-9.747-2.372-9.578-3.76.169-1.388 4.798-1.967 10.194-1.31 5.397.655 9.518 2.297 9.349 3.685Z"
                stroke="#FEFEFE" stroke-width=".777" />
            <path
                d="M31.422 22.75c.022-.18-3.854-1.254-7.133-1.652-3.278-.399-7.299-.285-7.32-.104-.023.18 2.984 1.305 7.113 1.807 4.646.565 7.318.13 7.34-.05Z"
                fill="#FAA21E" />
            <path
                d="M31.422 22.75c.022-.18-3.854-1.254-7.133-1.652-3.278-.399-7.299-.285-7.32-.104-.023.18 2.984 1.305 7.113 1.807 4.646.565 7.318.13 7.34-.05Z"
                fill="#fff" fill-opacity=".4" />
            <path
                d="M22.133 28.493c-.683-.62-1.614-2.014-1.994-2.634.285.62.997 2.014 1.567 2.634.712.775 2.563 2.479 2.99 3.254.342.62.523 1.29.57 1.549-.997.051-3.275-.093-4.415-1.085C19.427 30.971 19 29.268 19 27.718c0-1.24.38-2.995.57-3.718.712.361 2.506 1.24 3.987 1.86 1.852.774 2.279 2.323 2.421 4.027.114 1.364-.047 2.53-.142 2.944l1.139 1.394-.285.775c-.38-.568-1.196-1.952-1.424-2.944-.285-1.24-2.278-2.788-3.133-3.563Z"
                fill="#2FC4A7" />
            <path
                d="M22.133 28.493c-.683-.62-1.614-2.014-1.994-2.634.285.62.997 2.014 1.567 2.634.712.775 2.563 2.479 2.99 3.254.342.62.523 1.29.57 1.549-.997.051-3.275-.093-4.415-1.085C19.427 30.971 19 29.268 19 27.718c0-1.24.38-2.995.57-3.718.712.361 2.506 1.24 3.987 1.86 1.852.774 2.279 2.323 2.421 4.027.114 1.364-.047 2.53-.142 2.944l1.139 1.394-.285.775c-.38-.568-1.196-1.952-1.424-2.944-.285-1.24-2.278-2.788-3.133-3.563Z"
                fill="#000" fill-opacity=".2" />
        </g>
        <defs>
            <clipPath id="aaza">
                <path fill="#fff" transform="matrix(-1 0 0 1 50 0)" d="M0 0h50v50H0z" />
            </clipPath>
        </defs>
    </svg>