<svg width="50" height="50" viewBox="0 0 50 50" fill="none" xmlns="http://www.w3.org/2000/svg">
        <g clip-path="url(#aaga)">
            <path d="m27.75 3-6.154 11.377c-4.615 2.068-13.333 2.068-13.846.517L21.083 3.26" stroke="#898989"
                stroke-width="1.5" />
            <path d="m27.75 3-6.154 11.377c-4.615 2.068-13.333 2.068-13.846.517L21.083 3.26" stroke="#000"
                stroke-opacity=".2" stroke-width="1.5" />
            <path d="m13.4 47.3.9-2.7h23.4l.9 2.7c-.873 3.611-24.274 3.6-25.2 0Z" fill="#898989" />
            <ellipse cx="26" cy="44.6" rx="11.7" ry="2.7" fill="#FAA21E" />
            <ellipse cx="26" cy="44.6" rx="11.7" ry="2.7" fill="#fff" fill-opacity=".6" />
            <path d="M17 38.3h18v5.85c-.94 2.013-17.138 1.974-18 0V38.3Z" fill="#898989" />
            <path d="M17 38.3h18v5.85c-.94 2.013-17.138 1.974-18 0V38.3Z" fill="#fff" fill-opacity=".2" />
            <path
                d="M35 38.3H17V40c1.5.333 5.4 1 9 1 3.6 0 7.5-.833 9-1v-1.7ZM20 6h12V1.018c-.626-1.37-11.425-1.344-12 0V6Z"
                fill="#898989" />
            <path d="M20 6h12V1.018c-.626-1.37-11.425-1.344-12 0V6Z" fill="#fff" fill-opacity=".2" />
            <path
                d="M26 38c1.437.008 2.866-.307 4.537-.948.896-.344 1.438-1.243 1.4-2.201L30.892 8.775c-.036-.886-.56-1.69-1.388-2.01C28.21 6.264 27.1 6.005 26 6"
                stroke="#FAA21E" stroke-width="2" />
            <path
                d="M26 38c1.437.008 2.866-.307 4.537-.948.896-.344 1.438-1.243 1.4-2.201L30.892 8.775c-.036-.886-.56-1.69-1.388-2.01C28.21 6.264 27.1 6.005 26 6"
                stroke="#fff" stroke-opacity=".6" stroke-width="2" />
            <path
                d="M17.738 7.023c6.288-1.342 10.296-1.38 16.316-.016a1.31 1.31 0 0 1 1.003 1.174l2.37 27.382a1.324 1.324 0 0 1-1.045 1.417c-7.914 1.614-13.008 1.637-20.792.007a1.32 1.32 0 0 1-1.034-1.403L16.71 8.219a1.32 1.32 0 0 1 1.029-1.196Z"
                stroke="#FAA21E" stroke-width="2" />
            <path
                d="M17.738 7.023c6.288-1.342 10.296-1.38 16.316-.016a1.31 1.31 0 0 1 1.003 1.174l2.37 27.382a1.324 1.324 0 0 1-1.045 1.417c-7.914 1.614-13.008 1.637-20.792.007a1.32 1.32 0 0 1-1.034-1.403L16.71 8.219a1.32 1.32 0 0 1 1.029-1.196Z"
                stroke="#fff" stroke-opacity=".8" stroke-width="2" />
            <path d="M23.85 20.555h4.657L26.178 12l-2.329 8.555Z" fill="#FAA21E" />
            <path d="M23.85 20.555h4.657L26.178 12l-2.329 8.555Z" fill="#fff" fill-opacity=".2" />
            <path d="M28.507 20.556 32 23l-5.822-11 2.329 8.556Z" fill="#FAA21E" />
            <path d="M28.507 20.556 32 23l-5.822-11 2.329 8.556Z" fill="#fff" fill-opacity=".8" />
            <path d="M23.85 20.556 20.355 23l5.822-11-2.329 8.556Z" fill="#FAA21E" />
            <path d="M23.85 20.556 20.355 23l5.822-11-2.329 8.556Z" fill="#fff" fill-opacity=".4" />
            <path d="m32 23-5.822 11 2.329-13.444L32 23Z" fill="#FAA21E" />
            <path d="m32 23-5.822 11 2.329-13.444L32 23Z" fill="#fff" fill-opacity=".2" />
            <path d="m20.356 23 5.822 11-2.329-13.444L20.357 23Z" fill="#FAA21E" />
            <path d="m20.356 23 5.822 11-2.329-13.444L20.357 23Z" fill="#fff" fill-opacity=".6" />
            <path d="M23.85 20.556h4.657L26.178 34 23.85 20.556Z" fill="#FAA21E" />
            <path d="M23.85 20.556h4.657L26.178 34 23.85 20.556Z" fill="#fff" fill-opacity=".4" />
            <path d="m20.357 23 5.821-11c-.582 1.222-4.463 8.823-4.463 9.167 0 .305.97-.306 2.134-.611L20.357 23Z"
                fill="#1D8CE0" />
            <path d="m20.357 23 5.821-11c-.582 1.222-4.463 8.823-4.463 9.167 0 .305.97-.306 2.134-.611L20.357 23Z"
                fill="#fff" fill-opacity=".95" />
            <path
                d="M26 38c-1.437.008-2.866-.307-4.537-.948-.896-.344-1.438-1.243-1.4-2.201l1.044-26.076c.036-.886.56-1.69 1.388-2.01C23.79 6.264 24.9 6.005 26 6"
                stroke="#FEFEFE" stroke-width="2" />
            <circle cx="27.5" cy="3" r="1" fill="#898989" />
            <circle cx="27.5" cy="3" r="1" fill="#000" fill-opacity=".6" />
            <path d="m27.5 3-5.904 11.377c-4.615 2.068-13.333 2.068-13.846.517" stroke="#898989" stroke-width="1.5" />
            <path d="m27.5 3-5.904 11.377c-4.615 2.068-13.333 2.068-13.846.517" stroke="#fff" stroke-opacity=".2"
                stroke-width="1.5" />
        </g>
        <defs>
            <clipPath id="aaga">
                <path fill="#fff" transform="matrix(-1 0 0 1 50 0)" d="M0 0h50v50H0z" />
            </clipPath>
        </defs>
    </svg>