<svg width="50" height="50" viewBox="0 0 50 50" fill="none" xmlns="http://www.w3.org/2000/svg">
        <g clip-path="url(#aaoa)">
            <path d="m38.214 4.5 7.379 6H4.407l7.38-6h26.427Z" fill="#FAA21E" />
            <path d="m38.214 4.5 7.379 6H4.407l7.38-6h26.427Z" fill="#fff" fill-opacity=".6" />
            <path d="m38.214 4.5 7.379 6H4.407l7.38-6h26.427Z" stroke="#FAA21E" />
            <path d="m38.214 4.5 7.379 6H4.407l7.38-6h26.427Z" stroke="#fff" stroke-opacity=".6" />
            <path d="M47 11v35H3V11h44Z" fill="#C57A09" />
            <path d="M47 12v7H3v-7h44Z" fill="#FAA21E" />
            <path d="M47 12v7H3v-7h44Z" fill="#fff" fill-opacity=".2" />
            <path d="M47 21v7H3v-7h44Z" fill="#FAA21E" />
            <path d="M47 21v7H3v-7h44Z" fill="#fff" fill-opacity=".2" />
            <path d="M47 30v7H3v-7h44Z" fill="#FAA21E" />
            <path d="M47 30v7H3v-7h44Z" fill="#fff" fill-opacity=".2" />
            <path d="M47 39v7H3v-7h44Z" fill="#FAA21E" />
            <path d="M47 39v7H3v-7h44Z" fill="#fff" fill-opacity=".2" />
            <circle cx="5.25" cy="40.75" r=".75" fill="#C57A09" />
            <circle cx="5.25" cy="44.25" r=".75" fill="#C57A09" />
            <circle cx="44.75" cy="40.75" r=".75" fill="#C57A09" />
            <circle cx="44.75" cy="44.25" r=".75" fill="#C57A09" />
            <circle cx="5.25" cy="31.75" r=".75" fill="#C57A09" />
            <circle cx="5.25" cy="35.25" r=".75" fill="#C57A09" />
            <circle cx="44.75" cy="31.75" r=".75" fill="#C57A09" />
            <circle cx="44.75" cy="35.25" r=".75" fill="#C57A09" />
            <circle cx="5.25" cy="22.75" r=".75" fill="#C57A09" />
            <circle cx="5.25" cy="26.25" r=".75" fill="#C57A09" />
            <circle cx="44.75" cy="22.75" r=".75" fill="#C57A09" />
            <circle cx="44.75" cy="26.25" r=".75" fill="#C57A09" />
            <circle cx="5.25" cy="13.75" r=".75" fill="#C57A09" />
            <circle cx="5.25" cy="17.25" r=".75" fill="#C57A09" />
            <circle cx="44.75" cy="13.75" r=".75" fill="#C57A09" />
            <circle cx="44.75" cy="17.25" r=".75" fill="#C57A09" />
            <ellipse cx="12.25" cy="5" rx=".75" ry=".5" fill="#FAA21E" />
            <ellipse cx="6.75" cy="9.5" rx=".75" ry=".5" fill="#FAA21E" />
            <ellipse cx="37.75" cy="5" rx=".75" ry=".5" fill="#FAA21E" />
            <ellipse cx="43.25" cy="9.5" rx=".75" ry=".5" fill="#FAA21E" />
            <path fill="#FAA21E" d="m11.943 14.99 26-.047.047 26-26 .047z" />
            <path fill="#000" fill-opacity=".4" d="m11.943 14.99 26-.047.047 26-26 .047z" />
            <ellipse cx="25.17" cy="27.162" rx="10.212" ry="8.718" transform="rotate(-.104 25.17 27.162)"
                fill="#D0333D" />
            <ellipse cx="25.17" cy="27.162" rx="10.212" ry="8.718" transform="rotate(-.104 25.17 27.162)" fill="#fff"
                fill-opacity=".9" />
            <path
                d="M14.496 27.421c-.59.197-.572 1.06-.49 1.467l2.721 9.037c.244.46.402.635.993 1.22.591.586 1.469.73 1.715.73l11.553-.02c.245-.083.93-.252 1.473-.737.528-.471.9-.979.981-1.223l2.44-9.536c0-.325-.148-1.026-.739-1.22-.738-.243-1.718 1.47-2.947 1.472-1.229.002-2.461-1.707-3.936-1.704-1.475.003-1.963 1.714-3.192 1.717-1.23.002-2.462-1.706-3.936-1.704-1.475.003-2.701 1.716-3.684 1.717-.984.002-2.215-1.462-2.952-1.216Z"
                fill="#CE4317" />
            <path
                d="M14.496 27.421c-.59.197-.572 1.06-.49 1.467l2.721 9.037c.244.46.402.635.993 1.22.591.586 1.469.73 1.715.73l11.553-.02c.245-.083.93-.252 1.473-.737.528-.471.9-.979.981-1.223l2.44-9.536c0-.325-.148-1.026-.739-1.22-.738-.243-1.718 1.47-2.947 1.472-1.229.002-2.461-1.707-3.936-1.704-1.475.003-1.963 1.714-3.192 1.717-1.23.002-2.462-1.706-3.936-1.704-1.475.003-2.701 1.716-3.684 1.717-.984.002-2.215-1.462-2.952-1.216Z"
                fill="#fff" fill-opacity=".6" />
            <circle cx="28.395" cy="19.933" r="3.487" transform="rotate(-.104 28.395 19.933)" fill="#D0333D" />
            <circle cx="28.395" cy="19.933" r="3.487" transform="rotate(-.104 28.395 19.933)" fill="#000"
                fill-opacity=".2" />
            <path d="M31.378 16.44c-.199.37-.298.665-.895 1.33-.374.418-.497.592-.596.666" stroke="#2FC4A7"
                stroke-width=".498" stroke-linecap="round" />
        </g>
        <defs>
            <clipPath id="aaoa">
                <path fill="#fff" transform="matrix(-1 0 0 1 50 0)" d="M0 0h50v50H0z" />
            </clipPath>
        </defs>
    </svg>