<svg width="50" height="50" viewBox="0 0 50 50" fill="none" xmlns="http://www.w3.org/2000/svg">
        <g clip-path="url(#aaja)">
            <path d="m38.214 4.5 7.379 6H4.407l7.38-6h26.427Z" fill="#FAA21E" />
            <path d="m38.214 4.5 7.379 6H4.407l7.38-6h26.427Z" fill="#fff" fill-opacity=".6" />
            <path d="m38.214 4.5 7.379 6H4.407l7.38-6h26.427Z" stroke="#FAA21E" />
            <path d="m38.214 4.5 7.379 6H4.407l7.38-6h26.427Z" stroke="#fff" stroke-opacity=".6" />
            <path d="M47 11v35H3V11h44Z" fill="#C57A09" />
            <path d="M47 12v7H3v-7h44Z" fill="#FAA21E" />
            <path d="M47 12v7H3v-7h44Z" fill="#fff" fill-opacity=".2" />
            <path d="M47 21v7H3v-7h44Z" fill="#FAA21E" />
            <path d="M47 21v7H3v-7h44Z" fill="#fff" fill-opacity=".2" />
            <path d="M47 30v7H3v-7h44Z" fill="#FAA21E" />
            <path d="M47 30v7H3v-7h44Z" fill="#fff" fill-opacity=".2" />
            <path d="M47 39v7H3v-7h44Z" fill="#FAA21E" />
            <path d="M47 39v7H3v-7h44Z" fill="#fff" fill-opacity=".2" />
            <circle cx="5.25" cy="40.75" r=".75" fill="#C57A09" />
            <circle cx="5.25" cy="44.25" r=".75" fill="#C57A09" />
            <circle cx="44.75" cy="40.75" r=".75" fill="#C57A09" />
            <circle cx="44.75" cy="44.25" r=".75" fill="#C57A09" />
            <circle cx="5.25" cy="31.75" r=".75" fill="#C57A09" />
            <circle cx="5.25" cy="35.25" r=".75" fill="#C57A09" />
            <circle cx="44.75" cy="31.75" r=".75" fill="#C57A09" />
            <circle cx="44.75" cy="35.25" r=".75" fill="#C57A09" />
            <circle cx="5.25" cy="22.75" r=".75" fill="#C57A09" />
            <circle cx="5.25" cy="26.25" r=".75" fill="#C57A09" />
            <circle cx="44.75" cy="22.75" r=".75" fill="#C57A09" />
            <circle cx="44.75" cy="26.25" r=".75" fill="#C57A09" />
            <circle cx="5.25" cy="13.75" r=".75" fill="#C57A09" />
            <circle cx="5.25" cy="17.25" r=".75" fill="#C57A09" />
            <circle cx="44.75" cy="13.75" r=".75" fill="#C57A09" />
            <circle cx="44.75" cy="17.25" r=".75" fill="#C57A09" />
            <ellipse cx="12.25" cy="5" rx=".75" ry=".5" fill="#FAA21E" />
            <ellipse cx="6.75" cy="9.5" rx=".75" ry=".5" fill="#FAA21E" />
            <ellipse cx="37.75" cy="5" rx=".75" ry=".5" fill="#FAA21E" />
            <ellipse cx="43.25" cy="9.5" rx=".75" ry=".5" fill="#FAA21E" />
            <path fill="#FAA21E" d="m11.023 16.065 25.92-2.03 2.03 25.921-25.92 2.03z" />
            <path fill="#000" fill-opacity=".4" d="m11.023 16.065 25.92-2.03 2.03 25.921-25.92 2.03z" />
            <g clip-path="url(#aajb)">
                <path
                    d="m29.584 22.515.142 1.813c.28-.402.959-1.443 2.44-1.56 1.851-.144 2.705 1.84 2.83 3.427.123 1.586-.643 3.697-2.263 3.824-1.296.102-2.403-.951-2.652-1.16l.142 1.813c.231-.018.765.852 2.617.707 2.314-.181 3.774-2.348 3.544-5.293-.23-2.946-2.01-4.858-4.325-4.677-1.62.127-2.243 1.088-2.475 1.106Z"
                    fill="#898989" />
                <path
                    d="m29.584 22.515.142 1.813c.28-.402.959-1.443 2.44-1.56 1.851-.144 2.705 1.84 2.83 3.427.123 1.586-.643 3.697-2.263 3.824-1.296.102-2.403-.951-2.652-1.16l.142 1.813c.231-.018.765.852 2.617.707 2.314-.181 3.774-2.348 3.544-5.293-.23-2.946-2.01-4.858-4.325-4.677-1.62.127-2.243 1.088-2.475 1.106Z"
                    fill="#fff" fill-opacity=".95" />
                <path
                    d="m13.328 19.866 16.45-1.287 1.424 18.194s-1.3 2.61-8.03 3.136c-6.729.527-8.42-1.848-8.42-1.848l-1.424-18.195Z"
                    fill="#898989" />
                <path
                    d="m13.328 19.866 16.45-1.287 1.424 18.194s-1.3 2.61-8.03 3.136c-6.729.527-8.42-1.848-8.42-1.848l-1.424-18.195Z"
                    fill="#fff" fill-opacity=".85" />
                <ellipse cx="21.533" cy="18.973" rx="8.25" ry="2.25" transform="rotate(-4.477 21.533 18.973)"
                    fill="#FEFEFE" />
                <ellipse cx="21.533" cy="18.973" rx="7.25" ry="1.75" transform="rotate(-4.477 21.533 18.973)"
                    fill="#898989" />
                <ellipse cx="21.533" cy="18.973" rx="7.25" ry="1.75" transform="rotate(-4.477 21.533 18.973)"
                    fill="#fff" fill-opacity=".4" />
                <path
                    d="M27.344 19.521c-.02-.249-2.625-.546-5.791-.299-3.166.248-5.694.948-5.674 1.197.02.25 2.625.547 5.791.299 3.166-.248 5.693-.947 5.674-1.197Z"
                    fill="#FAA21E" />
                <path
                    d="M27.344 19.521c-.02-.249-2.625-.546-5.791-.299-3.166.248-5.694.948-5.674 1.197.02.25 2.625.547 5.791.299 3.166-.248 5.693-.947 5.674-1.197Z"
                    fill="#000" fill-opacity=".6" />
            </g>
            <path
                d="M20.044 25.5c-.797 0-1.827.166-1.827.664 0 .499 1.495.615 2.657 1.661 1.163 1.046 1.163.997 2.325 1.993 1.163.997 3.156 2.326 3.82 1.827.665-.498.499-.83.333-1.495-.166-.664-1.396-2.557-2.99-3.487C22.369 25.5 21.04 25.5 20.044 25.5Z"
                fill="#FAA21E" />
            <path
                d="M20.044 25.5c-.797 0-1.827.166-1.827.664 0 .499 1.495.615 2.657 1.661 1.163 1.046 1.163.997 2.325 1.993 1.163.997 3.156 2.326 3.82 1.827.665-.498.499-.83.333-1.495-.166-.664-1.396-2.557-2.99-3.487C22.369 25.5 21.04 25.5 20.044 25.5Z"
                fill="#000" fill-opacity=".4" />
            <path
                d="M17.718 28.988c-.127-.51-.498-1.495.167-1.827.664-.332 1.263.407 1.827.83.664.499 1.494 1.329 2.657 2.326 1.085.93 1.66 1.328 2.657 1.66.997.332 1.329 0 1.661.332.275.276 0 .499-.332.665-.21.105-1.66.664-2.823.498-1.163-.166-2.824-.664-3.986-1.66-1.163-.997-1.661-2.16-1.828-2.824Z"
                fill="#FAA21E" />
            <path
                d="M17.718 28.988c-.127-.51-.498-1.495.167-1.827.664-.332 1.263.407 1.827.83.664.499 1.494 1.329 2.657 2.326 1.085.93 1.66 1.328 2.657 1.66.997.332 1.329 0 1.661.332.275.276 0 .499-.332.665-.21.105-1.66.664-2.823.498-1.163-.166-2.824-.664-3.986-1.66-1.163-.997-1.661-2.16-1.828-2.824Z"
                fill="#000" fill-opacity=".4" />
        </g>
        <defs>
            <clipPath id="aaja">
                <path fill="#fff" transform="matrix(-1 0 0 1 50 0)" d="M0 0h50v50H0z" />
            </clipPath>
            <clipPath id="aajb">
                <path fill="#fff" transform="rotate(-4.477 217.284 -126.836)" d="M0 0h25v25H0z" />
            </clipPath>
        </defs>
    </svg>