<?xml version="1.0" encoding="utf-8"?><svg fill="none" viewBox="0 0 50 50" xmlns="http://www.w3.org/2000/svg" width="50" height="50"><path d="M24.314 10.879c.441-.16.93-.16 1.372 0 7.08 2.573 10.4 5.921 12.355 10.148 2.092 4.522 2.716 10.149 3.893 17.845.176 1.157-.42 2.218-1.355 2.636-6.244 2.788-10.882 4.019-15.42 3.992-4.553-.027-9.264-1.32-15.662-4.042-.974-.415-1.595-1.503-1.416-2.679 1.17-7.666 1.799-13.273 3.89-17.778 1.957-4.213 5.276-7.554 12.343-10.122Z" fill="#1D8CE0"/><path d="M24.314 10.879c.441-.16.93-.16 1.372 0 7.08 2.573 10.4 5.921 12.355 10.148 2.092 4.522 2.716 10.149 3.893 17.845.176 1.157-.42 2.218-1.355 2.636-6.244 2.788-10.882 4.019-15.42 3.992-4.553-.027-9.264-1.32-15.662-4.042-.974-.415-1.595-1.503-1.416-2.679 1.17-7.666 1.799-13.273 3.89-17.778 1.957-4.213 5.276-7.554 12.343-10.122Z" fill="#000" fill-opacity=".2"/><path d="M24.314 10.879c.441-.16.93-.16 1.372 0 7.08 2.573 10.4 5.921 12.355 10.148 2.092 4.522 2.716 10.149 3.893 17.845.176 1.157-.42 2.218-1.355 2.636-6.244 2.788-10.882 4.019-15.42 3.992-4.553-.027-9.264-1.32-15.662-4.042-.974-.415-1.595-1.503-1.416-2.679 1.17-7.666 1.799-13.273 3.89-17.778 1.957-4.213 5.276-7.554 12.343-10.122Z" stroke="#1D8CE0" stroke-width="5"/><path d="M24.314 10.879c.441-.16.93-.16 1.372 0 7.08 2.573 10.4 5.921 12.355 10.148 2.092 4.522 2.716 10.149 3.893 17.845.176 1.157-.42 2.218-1.355 2.636-6.244 2.788-10.882 4.019-15.42 3.992-4.553-.027-9.264-1.32-15.662-4.042-.974-.415-1.595-1.503-1.416-2.679 1.17-7.666 1.799-13.273 3.89-17.778 1.957-4.213 5.276-7.554 12.343-10.122Z" stroke="#fff" stroke-opacity=".2" stroke-width="5"/><path d="M23.8 9.47a3.517 3.517 0 0 1 2.4 0c7.387 2.686 11.05 6.28 13.202 10.933 2.206 4.771 2.858 10.69 4.014 18.255.272 1.781-.635 3.523-2.226 4.233-6.342 2.827-11.213 4.14-16.055 4.108-4.849-.031-9.772-1.41-16.222-4.148-1.641-.697-2.591-2.47-2.314-4.286 1.15-7.536 1.805-13.437 4.012-18.192 2.154-4.638 5.818-8.223 13.19-10.903Z" stroke="#1D8CE0" stroke-width="2"/><path d="M23.8 9.47a3.517 3.517 0 0 1 2.4 0c7.387 2.686 11.05 6.28 13.202 10.933 2.206 4.771 2.858 10.69 4.014 18.255.272 1.781-.635 3.523-2.226 4.233-6.342 2.827-11.213 4.14-16.055 4.108-4.849-.031-9.772-1.41-16.222-4.148-1.641-.697-2.591-2.47-2.314-4.286 1.15-7.536 1.805-13.437 4.012-18.192 2.154-4.638 5.818-8.223 13.19-10.903Z" stroke="#fff" stroke-opacity=".6" stroke-width="2"/><circle cx="24.991" cy="11.972" r="2" fill="#080B16"/><path d="M27.016 4.343c.162.703.178 1.705-.039 2.82A9.756 9.756 0 0 1 26.6 8.55c.747.27 1.146.434 1.851.728.204-.538.37-1.122.49-1.733.257-1.324.263-2.616.025-3.65-.119-.516-.309-1.015-.6-1.424-.294-.415-.73-.783-1.32-.898-.59-.115-1.132.063-1.56.337-.424.27-.787.662-1.09 1.095-.609.87-1.088 2.07-1.345 3.394-.258 1.324-.264 2.616-.026 3.65.118.516.309 1.015.6 1.424.294.414.73.783 1.32.897.59.115 1.132-.063 1.56-.336.162-.104.315-.225.46-.36-.142-.831-.41-1.151-1.257-1.57a1.475 1.475 0 0 1-.279.244.466.466 0 0 1-.1.05.467.467 0 0 1-.075-.084c-.091-.13-.198-.36-.28-.713-.161-.703-.177-1.705.04-2.82.217-1.115.607-2.038 1.02-2.629.208-.297.394-.47.528-.556a.48.48 0 0 1 .1-.051c.016.014.042.04.074.085.092.13.2.36.28.713Z" fill="#1D8CE0"/><path d="M27.015 4.33c.161.707.177 1.713-.04 2.834A9.838 9.838 0 0 1 26.6 8.55c.302.105.476.163.76.3.74-2.002.77-4.133.334-4.892-.45-.783-.762-.568-1.034-.43.016.015.042.04.074.086.092.13.2.362.28.717Z" fill="#1D8CE0"/><path d="M27.015 4.33c.161.707.177 1.713-.04 2.834A9.838 9.838 0 0 1 26.6 8.55c.302.105.476.163.76.3.74-2.002.77-4.133.334-4.892-.45-.783-.762-.568-1.034-.43.016.015.042.04.074.086.092.13.2.362.28.717Z" fill="#000" fill-opacity=".2"/><path d="M25.426 10.364a.47.47 0 0 1-.1.05c.136.204.667.577 1.086.117-.277-.232-.672-.434-.708-.43 0 0-.2.213-.278.263Z" fill="#1D8CE0"/><path d="M25.426 10.364a.47.47 0 0 1-.1.05c.136.204.667.577 1.086.117-.277-.232-.672-.434-.708-.43 0 0-.2.213-.278.263Z" fill="#000" fill-opacity=".2"/><path d="M28.163 20.488c0-.785-2.013-.988-3.163-.988s-3.163.22-3.163.988c0 .423.432.564.576.705.047.47.057 1.636-.288 2.539-.431 1.128-1.378 1.476-2.012 1.974-.72.565-.863 1.693-.863 2.257v9.027c.144.423 1.238 1.252 2.587 1.693 1.294.423 4.6.423 6.038 0 1.306-.385 2.875-1.27 2.875-1.693v-9.027c0-.611 0-1.749-.863-2.257-.862-.507-1.58-1.128-2.012-1.974-.345-.677-.335-1.928-.288-2.54.288-.14.576-.352.576-.704Z" fill="#1D8CE0"/><path d="M28.163 20.488c0-.785-2.013-.988-3.163-.988s-3.163.22-3.163.988c0 .423.432.564.576.705.047.47.057 1.636-.288 2.539-.431 1.128-1.378 1.476-2.012 1.974-.72.565-.863 1.693-.863 2.257v9.027c.144.423 1.238 1.252 2.587 1.693 1.294.423 4.6.423 6.038 0 1.306-.385 2.875-1.27 2.875-1.693v-9.027c0-.611 0-1.749-.863-2.257-.862-.507-1.58-1.128-2.012-1.974-.345-.677-.335-1.928-.288-2.54.288-.14.576-.352.576-.704Z" fill="#fff" fill-opacity=".8"/><path d="M28.671 29.405c-.46.282-.855-.157-1.447-.014-.592.143-.79.337-.987.693-.207.373-.198 1.086.196 1.424.558.48 1.276.967 2.394 1.003 1.28.042 1.517-.686 1.923-1.003V29.75c-.076-.2-.073-.55-.335-.849-.329-.373-.888-.49-1.184-.269-.338.252-.208.558-.56.773Z" fill="#1D8CE0"/><path d="M28.671 29.405c-.46.282-.855-.157-1.447-.014-.592.143-.79.337-.987.693-.207.373-.198 1.086.196 1.424.558.48 1.276.967 2.394 1.003 1.28.042 1.517-.686 1.923-1.003V29.75c-.076-.2-.073-.55-.335-.849-.329-.373-.888-.49-1.184-.269-.338.252-.208.558-.56.773Z" fill="#fff" fill-opacity=".8"/><path d="M21.7 24.5c-.418.486-1.002.734-1.25 1 .303.442.633.475 1.148.462.825-.021.362.467 1.528 1.057 1.165.59 2.154-.003 2.395-.658.242-.654-.461-1.066-.744-1.196-.282-.13.002-.485-.045-.924-.048-.44-.131-.93-.732-1.24-.4-.208-1.213-.188-1.7 0-.154.598-.227 1.066-.6 1.5Z" fill="#1D8CE0"/><path d="M21.7 24.5c-.418.486-1.002.734-1.25 1 .303.442.633.475 1.148.462.825-.021.362.467 1.528 1.057 1.165.59 2.154-.003 2.395-.658.242-.654-.461-1.066-.744-1.196-.282-.13.002-.485-.045-.924-.048-.44-.131-.93-.732-1.24-.4-.208-1.213-.188-1.7 0-.154.598-.227 1.066-.6 1.5Z" fill="#fff" fill-opacity=".8"/><path d="M21 31.75c-.797-.14-1.75.396-1.75 1V37s.393.596 1 1c1.5 1 3.028 1 3.75 1 0-.5-.788-.568-.77-.91.018-.343.831-.2 1.483-.645.377-.258.763-1.237-.093-1.831-.924-.642-2.06-.121-2.195-.575-.136-.454.36-.54.388-1.273.035-.924-.388-1.766-1.813-2.016Z" fill="#1D8CE0"/><path d="M21 31.75c-.797-.14-1.75.396-1.75 1V37s.393.596 1 1c1.5 1 3.028 1 3.75 1 0-.5-.788-.568-.77-.91.018-.343.831-.2 1.483-.645.377-.258.763-1.237-.093-1.831-.924-.642-2.06-.121-2.195-.575-.136-.454.36-.54.388-1.273.035-.924-.388-1.766-1.813-2.016Z" fill="#fff" fill-opacity=".8"/><ellipse cx="25.024" cy="20.387" rx="2.523" ry=".639" transform="rotate(-.057 25.024 20.387)" fill="#1D8CE0"/><ellipse cx="25.024" cy="20.387" rx="2.523" ry=".639" transform="rotate(-.057 25.024 20.387)" fill="#fff" fill-opacity=".8"/></svg>