<svg width="50" height="50" viewBox="0 0 50 50" fill="none" xmlns="http://www.w3.org/2000/svg">
<circle cx="25.0667" cy="25.0665" r="22.4167" stroke="#1D8CE0" stroke-width="0.996296"/>
<circle cx="25.0667" cy="25.0665" r="22.4167" stroke="white" stroke-opacity="0.95" stroke-width="0.996296"/>
<path d="M37.5 37.5001C43 33.0454 45 21.5 38.5745 13.0016C39.2992 19.1626 37.6992 26.8689 32.5142 32.0453C27.3291 37.2217 15.4045 38.4225 11 37.5001C22.5965 45.5482 31.1158 42.671 37.5 37.5001Z" fill="#FEFEFE" fill-opacity="0.15"/>
<g clip-path="url(#clip0_5928_9434)">
<circle cx="25" cy="25" r="14.25" stroke="#546DDB" stroke-width="1.5"/>
<circle cx="25" cy="25" r="14.25" stroke="white" stroke-opacity="0.2" stroke-width="1.5"/>
<path d="M29.6573 25C29.6573 28.3522 29.0736 31.3515 28.1593 33.4847C27.7016 34.5527 27.1759 35.369 26.6303 35.9074C26.088 36.4427 25.5669 36.667 25.0858 36.667C24.6046 36.667 24.0835 36.4427 23.5412 35.9074C22.9956 35.369 22.4699 34.5527 22.0122 33.4847C21.0979 31.3515 20.5142 28.3522 20.5142 25C20.5142 21.6477 21.0979 18.6484 22.0122 16.5152C22.4699 15.4473 22.9956 14.631 23.5412 14.0925C24.0835 13.5573 24.6046 13.3329 25.0858 13.3329C25.5669 13.3329 26.088 13.5573 26.6303 14.0925C27.1759 14.631 27.7016 15.4473 28.1593 16.5152C29.0736 18.6484 29.6573 21.6477 29.6573 25Z" stroke="#546DDB" stroke-width="1.5"/>
<path d="M29.6573 25C29.6573 28.3522 29.0736 31.3515 28.1593 33.4847C27.7016 34.5527 27.1759 35.369 26.6303 35.9074C26.088 36.4427 25.5669 36.667 25.0858 36.667C24.6046 36.667 24.0835 36.4427 23.5412 35.9074C22.9956 35.369 22.4699 34.5527 22.0122 33.4847C21.0979 31.3515 20.5142 28.3522 20.5142 25C20.5142 21.6477 21.0979 18.6484 22.0122 16.5152C22.4699 15.4473 22.9956 14.631 23.5412 14.0925C24.0835 13.5573 24.6046 13.3329 25.0858 13.3329C25.5669 13.3329 26.088 13.5573 26.6303 14.0925C27.1759 14.631 27.7016 15.4473 28.1593 16.5152C29.0736 18.6484 29.6573 21.6477 29.6573 25Z" stroke="white" stroke-opacity="0.2" stroke-width="1.5"/>
<path d="M27.3716 28.9591C24.4685 30.6353 21.5791 31.6293 19.2746 31.9042C18.1209 32.0418 17.151 31.9947 16.4119 31.7914C15.6772 31.5893 15.2224 31.2502 14.9818 30.8335C14.7412 30.4169 14.675 29.8534 14.8674 29.1161C15.0609 28.3744 15.505 27.5109 16.201 26.5806C17.5913 24.7222 19.8969 22.717 22.8 21.0409C25.7031 19.3648 28.5925 18.3707 30.897 18.0959C32.0507 17.9583 33.0205 18.0054 33.7596 18.2087C34.4943 18.4107 34.9492 18.7498 35.1897 19.1665C35.4303 19.5832 35.4966 20.1466 35.3042 20.8839C35.1107 21.6256 34.6666 22.4891 33.9706 23.4194C32.5803 25.2778 30.2747 27.283 27.3716 28.9591Z" stroke="#546DDB" stroke-width="1.5"/>
<path d="M27.3716 28.9591C24.4685 30.6353 21.5791 31.6293 19.2746 31.9042C18.1209 32.0418 17.151 31.9947 16.4119 31.7914C15.6772 31.5893 15.2224 31.2502 14.9818 30.8335C14.7412 30.4169 14.675 29.8534 14.8674 29.1161C15.0609 28.3744 15.505 27.5109 16.201 26.5806C17.5913 24.7222 19.8969 22.717 22.8 21.0409C25.7031 19.3648 28.5925 18.3707 30.897 18.0959C32.0507 17.9583 33.0205 18.0054 33.7596 18.2087C34.4943 18.4107 34.9492 18.7498 35.1897 19.1665C35.4303 19.5832 35.4966 20.1466 35.3042 20.8839C35.1107 21.6256 34.6666 22.4891 33.9706 23.4194C32.5803 25.2778 30.2747 27.283 27.3716 28.9591Z" stroke="white" stroke-opacity="0.2" stroke-width="1.5"/>
<path d="M22.7999 28.9591C19.8968 27.283 17.5912 25.2778 16.2009 23.4194C15.5049 22.4891 15.0608 21.6256 14.8673 20.8839C14.6749 20.1466 14.7412 19.5831 14.9818 19.1665C15.2223 18.7498 15.6772 18.4107 16.4119 18.2086C17.151 18.0054 18.1208 17.9582 19.2745 18.0958C21.579 18.3707 24.4684 19.3648 27.3715 21.0409C30.2746 22.717 32.5802 24.7222 33.9705 26.5806C34.6665 27.5109 35.1106 28.3744 35.3041 29.1161C35.4965 29.8534 35.4303 30.4168 35.1897 30.8335C34.9491 31.2502 34.4943 31.5893 33.7596 31.7914C33.0205 31.9946 32.0506 32.0418 30.8969 31.9042C28.5924 31.6293 25.703 30.6352 22.7999 28.9591Z" stroke="#546DDB" stroke-width="1.5"/>
<path d="M22.7999 28.9591C19.8968 27.283 17.5912 25.2778 16.2009 23.4194C15.5049 22.4891 15.0608 21.6256 14.8673 20.8839C14.6749 20.1466 14.7412 19.5831 14.9818 19.1665C15.2223 18.7498 15.6772 18.4107 16.4119 18.2086C17.151 18.0054 18.1208 17.9582 19.2745 18.0958C21.579 18.3707 24.4684 19.3648 27.3715 21.0409C30.2746 22.717 32.5802 24.7222 33.9705 26.5806C34.6665 27.5109 35.1106 28.3744 35.3041 29.1161C35.4965 29.8534 35.4303 30.4168 35.1897 30.8335C34.9491 31.2502 34.4943 31.5893 33.7596 31.7914C33.0205 31.9946 32.0506 32.0418 30.8969 31.9042C28.5924 31.6293 25.703 30.6352 22.7999 28.9591Z" stroke="white" stroke-opacity="0.2" stroke-width="1.5"/>
<circle cx="25" cy="25" r="2.25" fill="#546DDB"/>
<circle cx="25" cy="25" r="2.25" fill="white" fill-opacity="0.2"/>
<circle cx="17.5" cy="31.75" r="1.5" fill="#D0333D"/>
<circle cx="17.5" cy="31.75" r="1.5" fill="white" fill-opacity="0.2"/>
<circle cx="22.75" cy="15.25" r="1.5" fill="#FAA21E"/>
<circle cx="34.75" cy="28" r="1.5" fill="#2FC4A7"/>
</g>
<path d="M14.6055 9.12572C11.7649 11.6271 10.6203 15.1035 10.6203 18.0924C11.106 16.033 14.2018 11.8587 17.0962 10.122C19.5595 8.64405 21.5796 7.13312 25.0666 6.63497C21.5796 6.13682 17.4461 6.62428 14.6055 9.12572Z" fill="#FEFEFE"/>
<path d="M34.5 40C37.5 38.5 40.5 35.5 42 30C40 34 37.0518 37.1895 34 39C30.9482 40.8105 27 42.5 21 42C27.5 43.5 30.6529 41.9235 34.5 40Z" fill="#FEFEFE"/>
<defs>
<clipPath id="clip0_5928_9434">
<rect width="30" height="30" fill="white" transform="matrix(-1 0 0 1 40 10)"/>
</clipPath>
</defs>
</svg>
