<svg width="40" height="40" viewBox="0 0 40 40" fill="none" xmlns="http://www.w3.org/2000/svg">
<g clip-path="url(#clip0_5928_9463)">
<circle cx="20" cy="20" r="19" stroke="#546DDB" stroke-width="2"/>
<circle cx="20" cy="20" r="19" stroke="white" stroke-opacity="0.2" stroke-width="2"/>
<path d="M26.2097 20C26.2097 24.4696 25.4314 28.4687 24.2124 31.313C23.6021 32.7369 22.9012 33.8253 22.1737 34.5432C21.4506 35.2569 20.7558 35.5561 20.1143 35.5561C19.4728 35.5561 18.778 35.2569 18.0549 34.5432C17.3274 33.8253 16.6264 32.7369 16.0162 31.313C14.7972 28.4687 14.0188 24.4696 14.0188 20C14.0188 15.5303 14.7972 11.5313 16.0162 8.68699C16.6264 7.26307 17.3274 6.17464 18.0549 5.45671C18.778 4.74303 19.4728 4.44391 20.1143 4.44391C20.7558 4.44391 21.4506 4.74303 22.1737 5.45671C22.9012 6.17464 23.6021 7.26307 24.2124 8.68699C25.4314 11.5313 26.2097 15.5303 26.2097 20Z" stroke="#546DDB" stroke-width="2"/>
<path d="M26.2097 20C26.2097 24.4696 25.4314 28.4687 24.2124 31.313C23.6021 32.7369 22.9012 33.8253 22.1737 34.5432C21.4506 35.2569 20.7558 35.5561 20.1143 35.5561C19.4728 35.5561 18.778 35.2569 18.0549 34.5432C17.3274 33.8253 16.6264 32.7369 16.0162 31.313C14.7972 28.4687 14.0188 24.4696 14.0188 20C14.0188 15.5303 14.7972 11.5313 16.0162 8.68699C16.6264 7.26307 17.3274 6.17464 18.0549 5.45671C18.778 4.74303 19.4728 4.44391 20.1143 4.44391C20.7558 4.44391 21.4506 4.74303 22.1737 5.45671C22.9012 6.17464 23.6021 7.26307 24.2124 8.68699C25.4314 11.5313 26.2097 15.5303 26.2097 20Z" stroke="white" stroke-opacity="0.2" stroke-width="2"/>
<path d="M23.162 25.2789C19.2912 27.5137 15.4387 28.8391 12.366 29.2056C10.8277 29.3891 9.53463 29.3262 8.54917 29.0552C7.56953 28.7858 6.96309 28.3336 6.64234 27.7781C6.32158 27.2225 6.23324 26.4712 6.48973 25.4881C6.74775 24.4992 7.33987 23.3479 8.2679 22.1075C10.1216 19.6297 13.1957 16.956 17.0666 14.7212C20.9374 12.4864 24.7899 11.161 27.8626 10.7945C29.4009 10.611 30.694 10.6739 31.6794 10.9449C32.659 11.2143 33.2655 11.6664 33.5862 12.222C33.907 12.7776 33.9953 13.5288 33.7388 14.5119C33.4808 15.5009 32.8887 16.6521 31.9607 17.8926C30.1069 20.3704 27.0328 23.044 23.162 25.2789Z" stroke="#546DDB" stroke-width="2"/>
<path d="M23.162 25.2789C19.2912 27.5137 15.4387 28.8391 12.366 29.2056C10.8277 29.3891 9.53463 29.3262 8.54917 29.0552C7.56953 28.7858 6.96309 28.3336 6.64234 27.7781C6.32158 27.2225 6.23324 26.4712 6.48973 25.4881C6.74775 24.4992 7.33987 23.3479 8.2679 22.1075C10.1216 19.6297 13.1957 16.956 17.0666 14.7212C20.9374 12.4864 24.7899 11.161 27.8626 10.7945C29.4009 10.611 30.694 10.6739 31.6794 10.9449C32.659 11.2143 33.2655 11.6664 33.5862 12.222C33.907 12.7776 33.9953 13.5288 33.7388 14.5119C33.4808 15.5009 32.8887 16.6521 31.9607 17.8926C30.1069 20.3704 27.0328 23.044 23.162 25.2789Z" stroke="white" stroke-opacity="0.2" stroke-width="2"/>
<path d="M17.0666 25.2788C13.1957 23.044 10.1216 20.3704 8.2679 17.8926C7.33988 16.6521 6.74775 15.5008 6.48973 14.5119C6.23324 13.5288 6.32158 12.7775 6.64234 12.222C6.96309 11.6664 7.56954 11.2142 8.54917 10.9448C9.53463 10.6738 10.8277 10.611 12.366 10.7944C15.4387 11.1609 19.2912 12.4863 23.162 14.7212C27.0329 16.956 30.1069 19.6296 31.9607 22.1074C32.8887 23.3479 33.4808 24.4992 33.7388 25.4881C33.9953 26.4712 33.907 27.2225 33.5862 27.778C33.2655 28.3336 32.659 28.7857 31.6794 29.0551C30.694 29.3262 29.4009 29.389 27.8626 29.2055C24.7899 28.8391 20.9374 27.5136 17.0666 25.2788Z" stroke="#546DDB" stroke-width="2"/>
<path d="M17.0666 25.2788C13.1957 23.044 10.1216 20.3704 8.2679 17.8926C7.33988 16.6521 6.74775 15.5008 6.48973 14.5119C6.23324 13.5288 6.32158 12.7775 6.64234 12.222C6.96309 11.6664 7.56954 11.2142 8.54917 10.9448C9.53463 10.6738 10.8277 10.611 12.366 10.7944C15.4387 11.1609 19.2912 12.4863 23.162 14.7212C27.0329 16.956 30.1069 19.6296 31.9607 22.1074C32.8887 23.3479 33.4808 24.4992 33.7388 25.4881C33.9953 26.4712 33.907 27.2225 33.5862 27.778C33.2655 28.3336 32.659 28.7857 31.6794 29.0551C30.694 29.3262 29.4009 29.389 27.8626 29.2055C24.7899 28.8391 20.9374 27.5136 17.0666 25.2788Z" stroke="white" stroke-opacity="0.2" stroke-width="2"/>
<circle cx="20" cy="20" r="3" fill="#546DDB"/>
<circle cx="20" cy="20" r="3" fill="white" fill-opacity="0.2"/>
<circle cx="10" cy="29" r="2" fill="#D0333D"/>
<circle cx="10" cy="29" r="2" fill="white" fill-opacity="0.2"/>
<circle cx="17" cy="7" r="2" fill="#FAA21E"/>
<circle cx="33" cy="24" r="2" fill="#2FC4A7"/>
</g>
<defs>
<clipPath id="clip0_5928_9463">
<rect width="40" height="40" fill="white" transform="matrix(-1 0 0 1 40 0)"/>
</clipPath>
</defs>
</svg>
