<svg width="50" height="50" viewBox="0 0 50 50" fill="none" xmlns="http://www.w3.org/2000/svg">
<path d="M11.2988 12.4471C11.6813 8.57729 12.3624 3.0155 13 1C15.3616 1.4977 23.1745 2 27 2C30.8255 2 34.6516 1.40311 36.8831 1.00001C37.3613 2.20931 37.6053 6.47468 38.3143 10.5092C39.0794 14.8627 41.6812 44.1767 42 47.4015C37.75 49.3972 35.3222 49.372 29.1058 48.1627C28.9464 45.7441 27.2372 16.1163 26.8547 16.1163C26.4721 16.1163 25.2802 45.7441 25.2802 48.1627C21.8266 48.745 18.2033 48.8133 16.1292 48.7674C12.7819 48.7674 11.3473 48.7674 8 47.5581C8 46.9534 10.9162 16.3168 11.2988 12.4471Z" fill="#1D8CE0"/>
<path d="M11.2988 12.4471C11.6813 8.57729 12.3624 3.0155 13 1C15.3616 1.4977 23.1745 2 27 2C30.8255 2 34.6516 1.40311 36.8831 1.00001C37.3613 2.20931 37.6053 6.47468 38.3143 10.5092C39.0794 14.8627 41.6812 44.1767 42 47.4015C37.75 49.3972 35.3222 49.372 29.1058 48.1627C28.9464 45.7441 27.2372 16.1163 26.8547 16.1163C26.4721 16.1163 25.2802 45.7441 25.2802 48.1627C21.8266 48.745 18.2033 48.8133 16.1292 48.7674C12.7819 48.7674 11.3473 48.7674 8 47.5581C8 46.9534 10.9162 16.3168 11.2988 12.4471Z" fill="black" fill-opacity="0.4"/>
<path d="M12.6715 2.5C13.8355 2.74379 15.1219 2.94717 16.5 3.10726C21.456 3.68299 27.5981 3.69879 33.5 3.02009C34.7381 2.8777 35.9657 2.70476 37.1695 2.5" stroke="#1D8CE0"/>
<path d="M12.6715 2.5C13.8355 2.74379 15.1219 2.94717 16.5 3.10726C21.456 3.68299 27.5981 3.69879 33.5 3.02009C34.7381 2.8777 35.9657 2.70476 37.1695 2.5" stroke="white" stroke-opacity="0.4"/>
<path d="M15 3L10.5 48.5M36 3L40.5 48" stroke="#1D8CE0" stroke-width="2"/>
<path d="M15 3L10.5 48.5M36 3L40.5 48" stroke="white" stroke-opacity="0.4" stroke-width="2"/>
</svg>
