<svg width="50" height="50" viewBox="0 0 50 50" fill="none" xmlns="http://www.w3.org/2000/svg">
<g clip-path="url(#clip0_5929_9535)">
<path d="M22.9148 44.3352C17.4664 44.3352 13.9481 42.3426 13.45 41.3463C12.9518 40.35 12.9518 36.7936 12.9518 36.7936H32.8778C32.8778 38.9191 33.0013 40.3459 32.3796 41.3463C31.389 42.9404 27.8679 44.3352 22.9148 44.3352Z" fill="#898989"/>
<path d="M22.9148 44.3352C17.4664 44.3352 13.9481 42.3426 13.45 41.3463C12.9518 40.35 12.9518 36.7936 12.9518 36.7936H32.8778C32.8778 38.9191 33.0013 40.3459 32.3796 41.3463C31.389 42.9404 27.8679 44.3352 22.9148 44.3352Z" fill="white" fill-opacity="0.6"/>
<path d="M40.2341 22.1313C39.4248 22.0953 38.2497 21.1691 38.732 19.4428C39.2142 17.7164 41.2956 16.4981 43.7233 16.6062C46.1511 16.7142 47.3068 18.0764 48.4819 19.0026C48.4431 19.8748 48.6925 23.3816 46.5335 26.3442C44.3746 29.3068 41.9827 30.4779 39.422 31.2712C37.7776 31.7807 37.3212 32.9256 37.2824 33.7978C37.2436 34.6699 38.0141 35.5781 38.8233 35.6141" stroke="#FEFEFE" stroke-width="2.49074" stroke-linecap="round"/>
<path d="M41.8444 11.0499H3.98517C5.60926 14.8394 6.69198 15.3808 7.7747 19.7117C8.31607 21.8771 7.77471 28.7639 8.85743 32.5535C10.2286 37.3525 13.0428 39.863 15.8951 41.2153C18.7355 42.5618 26.6024 42.5618 29.9706 41.2153C32.9017 40.0434 35.6795 37.4257 37.0083 32.5535C38.5424 26.9283 37.4452 22.9407 38.091 19.7117C38.6324 17.0049 39.679 15.3808 41.8444 11.0499Z" fill="#898989"/>
<path d="M41.8444 11.0499H3.98517C5.60926 14.8394 6.69198 15.3808 7.7747 19.7117C8.31607 21.8771 7.77471 28.7639 8.85743 32.5535C10.2286 37.3525 13.0428 39.863 15.8951 41.2153C18.7355 42.5618 26.6024 42.5618 29.9706 41.2153C32.9017 40.0434 35.6795 37.4257 37.0083 32.5535C38.5424 26.9283 37.4452 22.9407 38.091 19.7117C38.6324 17.0049 39.679 15.3808 41.8444 11.0499Z" fill="white" fill-opacity="0.95"/>
<path d="M41.8444 10.8454C41.8444 13.5337 33.5969 15.802 23.1424 15.802C12.6878 15.802 3.98517 13.5337 3.98517 10.8454C3.98517 8.15709 12.6878 5.97778 23.1424 5.97778C33.5969 5.97778 41.8444 8.15709 41.8444 10.8454Z" fill="#898989"/>
<path d="M41.8444 10.8454C41.8444 13.5337 33.5969 15.802 23.1424 15.802C12.6878 15.802 3.98517 13.5337 3.98517 10.8454C3.98517 8.15709 12.6878 5.97778 23.1424 5.97778C33.5969 5.97778 41.8444 8.15709 41.8444 10.8454Z" fill="white" fill-opacity="0.6"/>
<path d="M41.8444 10.8454C41.8444 13.5337 33.5969 15.802 23.1424 15.802C12.6878 15.802 3.98517 13.5337 3.98517 10.8454C3.98517 8.15709 12.6878 5.97778 23.1424 5.97778C33.5969 5.97778 41.8444 8.15709 41.8444 10.8454Z" stroke="#FEFEFE" stroke-width="1.49444"/>
<path d="M37 13.4304C37 13.0805 29.3513 11.9305 23 11.9305C16.6487 11.9305 9 13.0805 9 13.4304C9 13.7804 15 15.2305 23 15.2305C32 15.2305 37 13.7804 37 13.4304Z" fill="#FAA21E"/>
<path d="M37 13.4304C37 13.0805 29.3513 11.9305 23 11.9305C16.6487 11.9305 9 13.0805 9 13.4304C9 13.7804 15 15.2305 23 15.2305C32 15.2305 37 13.7804 37 13.4304Z" fill="white" fill-opacity="0.4"/>
<g clip-path="url(#clip1_5929_9535)">
<circle cx="23" cy="29" r="9.5" stroke="#546DDB"/>
<circle cx="23" cy="29" r="9.5" stroke="white" stroke-opacity="0.2"/>
<path d="M26.1049 29C26.1049 31.2348 25.7157 33.2343 25.1062 34.6565C24.8011 35.3684 24.4506 35.9126 24.0869 36.2716C23.7253 36.6284 23.3779 36.778 23.0572 36.778C22.7364 36.778 22.389 36.6284 22.0274 36.2716C21.6637 35.9126 21.3132 35.3684 21.0081 34.6565C20.3986 33.2343 20.0094 31.2348 20.0094 29C20.0094 26.7651 20.3986 24.7656 21.0081 23.3435C21.3132 22.6315 21.6637 22.0873 22.0274 21.7283C22.389 21.3715 22.7364 21.2219 23.0572 21.2219C23.3779 21.2219 23.7253 21.3715 24.0869 21.7283C24.4506 22.0873 24.8011 22.6315 25.1062 23.3435C25.7157 24.7656 26.1049 26.7651 26.1049 29Z" stroke="#546DDB"/>
<path d="M26.1049 29C26.1049 31.2348 25.7157 33.2343 25.1062 34.6565C24.8011 35.3684 24.4506 35.9126 24.0869 36.2716C23.7253 36.6284 23.3779 36.778 23.0572 36.778C22.7364 36.778 22.389 36.6284 22.0274 36.2716C21.6637 35.9126 21.3132 35.3684 21.0081 34.6565C20.3986 33.2343 20.0094 31.2348 20.0094 29C20.0094 26.7651 20.3986 24.7656 21.0081 23.3435C21.3132 22.6315 21.6637 22.0873 22.0274 21.7283C22.389 21.3715 22.7364 21.2219 23.0572 21.2219C23.3779 21.2219 23.7253 21.3715 24.0869 21.7283C24.4506 22.0873 24.8011 22.6315 25.1062 23.3435C25.7157 24.7656 26.1049 26.7651 26.1049 29Z" stroke="white" stroke-opacity="0.2"/>
<path d="M24.581 31.6394C22.6456 32.7568 20.7194 33.4196 19.183 33.6028C18.4139 33.6945 17.7673 33.6631 17.2746 33.5276C16.7848 33.3929 16.4815 33.1668 16.3212 32.889C16.1608 32.6113 16.1166 32.2356 16.2449 31.7441C16.3739 31.2496 16.6699 30.674 17.134 30.0537C18.0608 28.8148 19.5979 27.478 21.5333 26.3606C23.4687 25.2432 25.3949 24.5805 26.9313 24.3972C27.7004 24.3055 28.347 24.3369 28.8397 24.4724C29.3295 24.6071 29.6327 24.8332 29.7931 25.111C29.9535 25.3888 29.9977 25.7644 29.8694 26.256C29.7404 26.7504 29.4444 27.3261 28.9803 27.9463C28.0535 29.1852 26.5164 30.522 24.581 31.6394Z" stroke="#546DDB"/>
<path d="M24.581 31.6394C22.6456 32.7568 20.7194 33.4196 19.183 33.6028C18.4139 33.6945 17.7673 33.6631 17.2746 33.5276C16.7848 33.3929 16.4815 33.1668 16.3212 32.889C16.1608 32.6113 16.1166 32.2356 16.2449 31.7441C16.3739 31.2496 16.6699 30.674 17.134 30.0537C18.0608 28.8148 19.5979 27.478 21.5333 26.3606C23.4687 25.2432 25.3949 24.5805 26.9313 24.3972C27.7004 24.3055 28.347 24.3369 28.8397 24.4724C29.3295 24.6071 29.6327 24.8332 29.7931 25.111C29.9535 25.3888 29.9977 25.7644 29.8694 26.256C29.7404 26.7504 29.4444 27.3261 28.9803 27.9463C28.0535 29.1852 26.5164 30.522 24.581 31.6394Z" stroke="white" stroke-opacity="0.2"/>
<path d="M21.5333 31.6394C19.5979 30.522 18.0608 29.1852 17.134 27.9463C16.6699 27.326 16.3739 26.7504 16.2449 26.2559C16.1166 25.7644 16.1608 25.3888 16.3212 25.111C16.4815 24.8332 16.7848 24.6071 17.2746 24.4724C17.7673 24.3369 18.4139 24.3055 19.183 24.3972C20.7194 24.5805 22.6456 25.2432 24.581 26.3606C26.5164 27.478 28.0535 28.8148 28.9803 30.0537C29.4444 30.6739 29.7404 31.2496 29.8694 31.744C29.9977 32.2356 29.9535 32.6112 29.7931 32.889C29.6327 33.1668 29.3295 33.3929 28.8397 33.5276C28.347 33.6631 27.7004 33.6945 26.9313 33.6028C25.3949 33.4195 23.4687 32.7568 21.5333 31.6394Z" stroke="#546DDB"/>
<path d="M21.5333 31.6394C19.5979 30.522 18.0608 29.1852 17.134 27.9463C16.6699 27.326 16.3739 26.7504 16.2449 26.2559C16.1166 25.7644 16.1608 25.3888 16.3212 25.111C16.4815 24.8332 16.7848 24.6071 17.2746 24.4724C17.7673 24.3369 18.4139 24.3055 19.183 24.3972C20.7194 24.5805 22.6456 25.2432 24.581 26.3606C26.5164 27.478 28.0535 28.8148 28.9803 30.0537C29.4444 30.6739 29.7404 31.2496 29.8694 31.744C29.9977 32.2356 29.9535 32.6112 29.7931 32.889C29.6327 33.1668 29.3295 33.3929 28.8397 33.5276C28.347 33.6631 27.7004 33.6945 26.9313 33.6028C25.3949 33.4195 23.4687 32.7568 21.5333 31.6394Z" stroke="white" stroke-opacity="0.2"/>
<circle cx="23" cy="29" r="1.5" fill="#546DDB"/>
<circle cx="23" cy="29" r="1.5" fill="white" fill-opacity="0.2"/>
<circle cx="18" cy="33.5" r="1" fill="#D0333D"/>
<circle cx="18" cy="33.5" r="1" fill="white" fill-opacity="0.2"/>
<circle cx="21.5" cy="22.5" r="1" fill="#FAA21E"/>
<circle cx="29.5" cy="31" r="1" fill="#2FC4A7"/>
</g>
</g>
<defs>
<clipPath id="clip0_5929_9535">
<rect width="50" height="50" fill="white"/>
</clipPath>
<clipPath id="clip1_5929_9535">
<rect width="20" height="20" fill="white" transform="matrix(-1 0 0 1 33 19)"/>
</clipPath>
</defs>
</svg>
