<svg width="50" height="50" viewBox="0 0 50 50" fill="none" xmlns="http://www.w3.org/2000/svg">
<path d="M27.4091 0.5C26.0455 0.5 23.3182 0.5 21.5 0L27.4091 6H29.2273L31.5 0C29.6818 0.5 28.7727 0.5 27.4091 0.5Z" fill="#898989"/>
<path d="M30.5 17L35 2.5L31 2L27.5 3L20.5 1.5L16 3L26.5 17H30.5Z" fill="#898989"/>
<path d="M30.5 17L35 2.5L31 2L27.5 3L20.5 1.5L16 3L26.5 17H30.5Z" fill="white" fill-opacity="0.8"/>
<path d="M25.5 3H29L28.5 5L30.5 13.5L29 18L25.5 13.5L27 5L25.5 3Z" fill="#898989"/>
<path d="M25.5 3H29L28.5 5L30.5 13.5L29 18L25.5 13.5L27 5L25.5 3Z" fill="white" fill-opacity="0.2"/>
<path d="M20 2L21.5 0L27.4286 3L31.5 0L33 2.15385C32.0714 3 31.1428 5 31.1428 7C30.1036 5.13381 28.7629 3.98648 27.4286 3C26.1153 3.96012 24.9643 5.5 24.5 7C22.6429 4.5 21.5 3 20 2Z" fill="#FEFEFE"/>
<path d="M8 39C5.12601 38.7851 3.60014 38.3198 1 37C3.5 29.5 10.5 5.5 11.5 4.5C12.5 3.5 15.5 3 18 2C19.9938 8.43477 23 11 28.5 16.5C32 10.5 31.7468 8.52493 33 2C35 3 38.5 3.5 39.5 4.5C40.5 5.5 46.5 29 49 37C47.1436 38.1935 45.7014 38.5226 43 39L38.5 19C39 27.5 40 39 41 48C37.5 48.5 32 49 28 49C22.5 49 15.5 48.5 11 48C12.5 37 13.5 27 13.5 18.5L8 39Z" fill="#1D8CE0"/>
<path d="M8 39C5.12601 38.7851 3.60014 38.3198 1 37C3.5 29.5 10.5 5.5 11.5 4.5C12.5 3.5 15.5 3 18 2C19.9938 8.43477 23 11 28.5 16.5C32 10.5 31.7468 8.52493 33 2C35 3 38.5 3.5 39.5 4.5C40.5 5.5 46.5 29 49 37C47.1436 38.1935 45.7014 38.5226 43 39L38.5 19C39 27.5 40 39 41 48C37.5 48.5 32 49 28 49C22.5 49 15.5 48.5 11 48C12.5 37 13.5 27 13.5 18.5L8 39Z" fill="white" fill-opacity="0.6"/>
<path d="M24.0098 30H16.0361C16.0361 32.963 15.8027 37.9517 16.523 38.8889C17.6617 40.3704 22.3835 40.3704 23.523 38.8889C24.2435 37.952 24.0098 32.963 24.0098 30Z" fill="#1D8CE0"/>
<path d="M24.0098 30H16.0361C16.0361 32.963 15.8027 37.9517 16.523 38.8889C17.6617 40.3704 22.3835 40.3704 23.523 38.8889C24.2435 37.952 24.0098 32.963 24.0098 30Z" fill="white" fill-opacity="0.8"/>
<path d="M38.063 30H32.5098C32.5098 32.963 32.3968 37.9517 32.9371 38.8889C33.7911 40.3704 36.6454 40.4815 37.5 39C38.0404 38.0632 38 33.5 38.063 30Z" fill="#1D8CE0"/>
<path d="M38.063 30H32.5098C32.5098 32.963 32.3968 37.9517 32.9371 38.8889C33.7911 40.3704 36.6454 40.4815 37.5 39C38.0404 38.0632 38 33.5 38.063 30Z" fill="white" fill-opacity="0.8"/>
<path d="M22.9901 18H17.0098C17.0098 20.0741 16.8968 23.5662 17.4371 24.2222C18.2911 25.2593 21.7085 25.2593 22.563 24.2222C23.1034 23.5664 22.9901 20.0741 22.9901 18Z" fill="#1D8CE0"/>
<path d="M22.9901 18H17.0098C17.0098 20.0741 16.8968 23.5662 17.4371 24.2222C18.2911 25.2593 21.7085 25.2593 22.563 24.2222C23.1034 23.5664 22.9901 20.0741 22.9901 18Z" fill="white" fill-opacity="0.8"/>
<path d="M20.5 1.18485L17.5 2L16 6.10222L19.2439 6.50584L18.5 10.5L28.4348 17L29 16.5459C25.1676 11.3024 22.9043 6.49934 20.5 1.18485Z" fill="#1D8CE0"/>
<path d="M20.5 1.18485L17.5 2L16 6.10222L19.2439 6.50584L18.5 10.5L28.4348 17L29 16.5459C25.1676 11.3024 22.9043 6.49934 20.5 1.18485Z" fill="white" fill-opacity="0.8"/>
<path d="M32.6667 1.54286L35 2.5L36 5.72263L33.8462 6.25642L35.3333 9.52199C35.3333 9.52199 32.7436 12.6934 31.6667 13.761C30.6198 14.7988 30.3333 15.1739 28 17.9999C30.476 11.3465 31.282 7.40366 32.6667 1.54286Z" fill="#1D8CE0"/>
<path d="M32.6667 1.54286L35 2.5L36 5.72263L33.8462 6.25642L35.3333 9.52199C35.3333 9.52199 32.7436 12.6934 31.6667 13.761C30.6198 14.7988 30.3333 15.1739 28 17.9999C30.476 11.3465 31.282 7.40366 32.6667 1.54286Z" fill="white" fill-opacity="0.8"/>
<circle cx="30" cy="19" r="1" fill="#1D8CE0"/>
<circle cx="30" cy="19" r="1" fill="white" fill-opacity="0.95"/>
<circle cx="30" cy="32" r="1" fill="#1D8CE0"/>
<circle cx="30" cy="32" r="1" fill="white" fill-opacity="0.95"/>
<circle cx="30" cy="25.5" r="1" fill="#1D8CE0"/>
<circle cx="30" cy="25.5" r="1" fill="white" fill-opacity="0.95"/>
<circle cx="30" cy="38.5" r="1" fill="#1D8CE0"/>
<circle cx="30" cy="38.5" r="1" fill="white" fill-opacity="0.95"/>
<path d="M28 18V49" stroke="#1D8CE0" stroke-width="0.5"/>
<path d="M28 18V49" stroke="white" stroke-opacity="0.8" stroke-width="0.5"/>
</svg>
