<svg width="50" height="50" viewBox="0 0 50 50" fill="none" xmlns="http://www.w3.org/2000/svg">
<path d="M39 29C39 36.732 32.732 43 25 43C17.268 43 11 36.732 11 29C11 21.268 23 7 25 7C27 7 39 21.268 39 29Z" fill="#FAA21E"/>
<path d="M39 29C39 36.732 32.732 43 25 43C17.268 43 11 36.732 11 29C11 21.268 23 7 25 7C27 7 39 21.268 39 29Z" fill="black" fill-opacity="0.1"/>
<path d="M35 24.7222C35 30.9508 29.8513 36 23.5 36C17.1487 36 13 30.9508 13 24.7222C13 18.4937 23.3571 7 25 7C26.6429 7 35 18.4937 35 24.7222Z" fill="#FAA21E"/>
<path d="M35 24.7222C35 30.9508 29.8513 36 23.5 36C17.1487 36 13 30.9508 13 24.7222C13 18.4937 23.3571 7 25 7C26.6429 7 35 18.4937 35 24.7222Z" fill="#FEFEFE" fill-opacity="0.15"/>
<path d="M31.5 20C31.5 24.5103 27.4183 28 23 28C18.5817 28 16 24.0103 16 19.5C16 14.9897 23.8571 7 25 7C26.1429 7 31.5 15.4897 31.5 20Z" fill="#FAA21E"/>
<path d="M31.5 20C31.5 24.5103 27.4183 28 23 28C18.5817 28 16 24.0103 16 19.5C16 14.9897 23.8571 7 25 7C26.1429 7 31.5 15.4897 31.5 20Z" fill="white" fill-opacity="0.4"/>
<ellipse cx="23.1708" cy="13.2861" rx="3.5" ry="2.5" transform="rotate(-49.6784 23.1708 13.2861)" fill="#FEFEFE"/>
<circle cx="19.0122" cy="19.0122" r="1.5" transform="rotate(-26.5419 19.0122 19.0122)" fill="#FEFEFE"/>
</svg>
