<svg width="50" height="50" viewBox="0 0 50 50" fill="none" xmlns="http://www.w3.org/2000/svg">
<path d="M19 21L31 21L25 7L19 21Z" fill="#7445B8"/>
<path d="M31 21L40 25L25 7L31 21Z" fill="#7445B8"/>
<path d="M31 21L40 25L25 7L31 21Z" fill="white" fill-opacity="0.6"/>
<path d="M19 21L10 25L25 7L19 21Z" fill="#7445B8"/>
<path d="M19 21L10 25L25 7L19 21Z" fill="white" fill-opacity="0.2"/>
<path d="M40 25L25 43L31 21L40 25Z" fill="#7445B8"/>
<path d="M10 25L25 43L19 21L10 25Z" fill="#7445B8"/>
<path d="M10 25L25 43L19 21L10 25Z" fill="white" fill-opacity="0.4"/>
<path d="M19 21L31 21L25 43L19 21Z" fill="#7445B8"/>
<path d="M19 21L31 21L25 43L19 21Z" fill="white" fill-opacity="0.2"/>
<path d="M10 25.0001L25 7.00004C23.5 9 13.5 21.4375 13.5 22C13.5 22.5 16 21.5 19.0001 21.0001L10 25.0001Z" fill="#7445B8"/>
<path d="M10 25.0001L25 7.00004C23.5 9 13.5 21.4375 13.5 22C13.5 22.5 16 21.5 19.0001 21.0001L10 25.0001Z" fill="white" fill-opacity="0.95"/>
</svg>
