<?xml version="1.0" encoding="utf-8"?><svg fill="none" viewBox="0 0 50 50" xmlns="http://www.w3.org/2000/svg" width="50" height="50"><g clip-path="url(#abca)"><path d="m15 35.5-4-18 3 6 1 12Z" fill="#898989"/><path d="m15 35.5-4-18 3 6 1 12Z" fill="#fff" fill-opacity=".2"/><path d="m35 35.5 4-18-3 6-1 12Z" fill="#898989"/><path d="m35 35.5 4-18-3 6-1 12Z" fill="#000" fill-opacity=".4"/><path d="M34 6.357c-2.476 1.62-7.171 5.143-9 5.143-2.971 0-7.381-3.524-9-5.143V3.5c0-1 6.714-1.5 9-1.5 2.286 0 9 .5 9 1.5v2.857Z" fill="#898989"/><path d="M34 6.357c-2.476 1.62-7.171 5.143-9 5.143-2.971 0-7.381-3.524-9-5.143V3.5c0-1 6.714-1.5 9-1.5 2.286 0 9 .5 9 1.5v2.857Z" fill="#000" fill-opacity=".2"/><path d="m15 35.5-1-12 8 2 3 6v6l-10-2Z" fill="#898989"/><path d="m15 35.5-1-12 8 2 3 6v6l-10-2Z" fill="#fff" fill-opacity=".6"/><path d="m35 35.5 1-12-8 2-3 6v6l10-2Z" fill="#898989"/><path d="m35 35.5 1-12-8 2-3 6v6l10-2Z" fill="#000" fill-opacity=".2"/><path d="M2 24c0-4 5-9 10-9l-2 12-8-3Z" fill="#898989"/><path d="M2 24c0-4 5-9 10-9l-2 12-8-3Z" fill="#fff" fill-opacity=".2"/><path d="M48 24c0-4-6-7.5-10.5-9L40 27l8-3Z" fill="#898989"/><path d="M48 24c0-4-6-7.5-10.5-9L40 27l8-3Z" fill="#fff" fill-opacity=".2"/><path d="M1 18.5c2-4 6-8 11-8l-2 12-9-4Z" fill="#898989"/><path d="M1 18.5c2-4 6-8 11-8l-2 12-9-4Z" fill="#fff" fill-opacity=".4"/><path d="M49 18.5c-2-4-6-8-11-8l2 12 9-4Z" fill="#898989"/><path d="M49 18.5c-2-4-6-8-11-8l2 12 9-4Z" fill="#fff" fill-opacity=".4"/><path d="M14.63 7.5 8 11.5l6 12c2.484.974 8.408 3 11 3 2.593 0 9.024-2.026 10.968-3L42 11.5l-7.279-3.708-20.09-.292Z" fill="#898989"/><path d="M14.63 7.5 8 11.5l6 12c2.484.974 8.408 3 11 3 2.593 0 9.024-2.026 10.968-3L42 11.5l-7.279-3.708-20.09-.292Z" fill="#fff" fill-opacity=".4"/><path d="m42.5 11-7.406-3.5H25v19c2.511 0 9.117-2.026 11-3L42.5 11Z" fill="#898989"/><path d="m25 31.5 3-5.5-3-5-3 5 3 5.5Z" fill="#898989"/><path d="m25 31.5 3-5.5-3-5-3 5 3 5.5Z" fill="#fff" fill-opacity=".2"/><path d="M34 6.357c-2.476 1.62-7.171 5.143-9 5.143-2.971 0-7.381-3.524-9-5.143V3.5c1.905.952 6.714 3 9 3 2.286 0 6.714-2.048 9-3v2.857Z" fill="#898989"/><path d="M34 6.357c-2.476 1.62-7.171 5.143-9 5.143-2.971 0-7.381-3.524-9-5.143V3.5c1.905.952 6.714 3 9 3 2.286 0 6.714-2.048 9-3v2.857Z" fill="#fff" fill-opacity=".4"/><path d="M16 3.5c1.905.952 6.714 3 9 3v5c-2.971 0-7.381-3.524-9-5.143V3.5Z" fill="#898989"/><path d="M16 3.5c1.905.952 6.714 3 9 3v5c-2.971 0-7.381-3.524-9-5.143V3.5Z" fill="#fff" fill-opacity=".6"/><path d="M40.507 7.39c-4.143 1.151-8.438 1.63-10.069 1.726L29 23.5c3.069-1.534 9.953-5.293 12.945-8.055C44.937 12.684 48.562 5.665 50 2.5c-1.438 1.15-5.35 3.74-9.493 4.89Z" fill="#1D8CE0"/><path d="M40.507 7.39c-4.143 1.151-8.438 1.63-10.069 1.726L29 23.5c3.069-1.534 9.953-5.293 12.945-8.055C44.937 12.684 48.562 5.665 50 2.5c-1.438 1.15-5.35 3.74-9.493 4.89Z" fill="#000" fill-opacity=".4"/><path d="M9.493 7.39c4.143 1.151 8.438 1.63 10.069 1.726L21 23.5c-3.069-1.534-9.953-5.293-12.945-8.055C5.063 12.684 1.438 5.665 0 2.5c1.438 1.15 5.35 3.74 9.493 4.89ZM41.945 15.445C44.937 12.684 48.562 5.665 50 2.5c-.995.796-3.173 2.28-5.792 3.5.93-.333 2.892-1 3.292-1 .4 0-3 8.5-10.5 14.019 1.941-1.214 3.753-2.473 4.945-3.574Z" fill="#1D8CE0"/><path d="M41.945 15.445C44.937 12.684 48.562 5.665 50 2.5c-.995.796-3.173 2.28-5.792 3.5.93-.333 2.892-1 3.292-1 .4 0-3 8.5-10.5 14.019 1.941-1.214 3.753-2.473 4.945-3.574Z" fill="#fff" fill-opacity=".4"/><path d="M13 19C6.5 16 2.5 9 0 2.5c.893.714 2.738 1.982 5 3.117C4.333 5.41 2.9 4.6 2.5 5 2.1 5.4 7 15 13 19Z" fill="#1D8CE0"/><path d="M13 19C6.5 16 2.5 9 0 2.5c.893.714 2.738 1.982 5 3.117C4.333 5.41 2.9 4.6 2.5 5 2.1 5.4 7 15 13 19Z" fill="#fff" fill-opacity=".95"/><path d="M30 11.5V6.326c3.248-.036 5.333-.609 8-1.826v3.348c-.197.406-1.067 1.46-2.963 2.435-1.896.974-4.148 1.217-5.037 1.217Z" fill="#898989"/><path d="M30 11.5V6.326c3.248-.036 5.333-.609 8-1.826v3.348c-.197.406-1.067 1.46-2.963 2.435-1.896.974-4.148 1.217-5.037 1.217Z" fill="#fff" fill-opacity=".6"/><path d="M20 11.5V6.326c-3.248-.036-5.333-.609-8-1.826v3.348c.197.406 1.067 1.46 2.963 2.435 1.896.974 4.148 1.217 5.037 1.217Z" fill="#898989"/><path d="M20 11.5V6.326c-3.248-.036-5.333-.609-8-1.826v3.348c.197.406 1.067 1.46 2.963 2.435 1.896.974 4.148 1.217 5.037 1.217Z" fill="#fff" fill-opacity=".95"/><path d="M20.365 21.854a1.187 1.187 0 0 0 .614-2.292l-1.719-.46a1.187 1.187 0 0 0-.614 2.291l1.719.46Zm-1.566-1.033a.594.594 0 0 1 .308-1.146l1.718.46a.593.593 0 1 1-.307 1.146l-1.719-.46Z" fill="#898989"/><path d="M20.365 21.854a1.187 1.187 0 0 0 .614-2.292l-1.719-.46a1.187 1.187 0 0 0-.614 2.291l1.719.46Zm-1.566-1.033a.594.594 0 0 1 .308-1.146l1.718.46a.593.593 0 1 1-.307 1.146l-1.719-.46Z" fill="#fff" fill-opacity=".95"/><path d="M31.354 21.393a1.187 1.187 0 0 0-.614-2.292l-1.72.46a1.187 1.187 0 0 0 .615 2.293l1.719-.46Zm-1.872-.112a.594.594 0 0 1-.307-1.146l1.718-.46a.594.594 0 1 1 .307 1.146l-1.718.46Z" fill="#898989"/><path d="M31.354 21.393a1.187 1.187 0 0 0-.614-2.292l-1.72.46a1.187 1.187 0 0 0 .615 2.293l1.719-.46Zm-1.872-.112a.594.594 0 0 1-.307-1.146l1.718-.46a.594.594 0 1 1 .307 1.146l-1.718.46Z" fill="#fff" fill-opacity=".6"/><path d="M14.913 19.663a1.187 1.187 0 0 0 1.291-1.99l-1.492-.97a1.187 1.187 0 0 0-1.292 1.991l1.493.969Zm-1.17-1.466a.594.594 0 0 1 .646-.995l1.492.968a.593.593 0 1 1-.646.996l-1.492-.969Z" fill="#898989"/><path d="M14.913 19.663a1.187 1.187 0 0 0 1.291-1.99l-1.492-.97a1.187 1.187 0 0 0-1.292 1.991l1.493.969Zm-1.17-1.466a.594.594 0 0 1 .646-.995l1.492.968a.593.593 0 1 1-.646.996l-1.492-.969Z" fill="#fff" fill-opacity=".95"/><path d="M36.739 18.587a1.187 1.187 0 0 0-1.44-1.887l-1.414 1.08a1.187 1.187 0 0 0 1.44 1.886l1.414-1.08Zm-1.774.608a.594.594 0 0 1-.72-.944l1.415-1.079a.593.593 0 1 1 .72.944l-1.415 1.079Z" fill="#898989"/><path d="M36.739 18.587a1.187 1.187 0 0 0-1.44-1.887l-1.414 1.08a1.187 1.187 0 0 0 1.44 1.886l1.414-1.08Zm-1.774.608a.594.594 0 0 1-.72-.944l1.415-1.079a.593.593 0 1 1 .72.944l-1.415 1.079Z" fill="#fff" fill-opacity=".4"/><path d="M25.867 22.926a1.187 1.187 0 0 0 0-2.373h-1.78a1.187 1.187 0 0 0 0 2.373h1.78Zm-1.78-.593a.593.593 0 0 1 0-1.186h1.781a.593.593 0 0 1 0 1.186h-1.78Z" fill="#898989"/><path d="M25.867 22.926a1.187 1.187 0 0 0 0-2.373h-1.78a1.187 1.187 0 0 0 0 2.373h1.78Zm-1.78-.593a.593.593 0 0 1 0-1.186h1.781a.593.593 0 0 1 0 1.186h-1.78Z" fill="#fff" fill-opacity=".8"/><rect width="3.46" height=".593" rx=".297" transform="scale(1 -1) rotate(-15 -69.114 -89.094)" fill="#898989"/><rect width="3.46" height=".593" rx=".297" transform="scale(1 -1) rotate(-15 -69.114 -89.094)" fill="#fff" fill-opacity=".8"/><rect width="3.46" height=".593" rx=".297" transform="scale(1 -1) rotate(-24.753 -35.71 -45.467)" fill="#898989"/><rect width="3.46" height=".593" rx=".297" transform="scale(1 -1) rotate(-24.753 -35.71 -45.467)" fill="#fff" fill-opacity=".8"/><rect width="3.46" height=".593" rx=".297" transform="scale(1 -1) rotate(15 95.89 88.006)" fill="#898989"/><rect width="3.46" height=".593" rx=".297" transform="scale(1 -1) rotate(15 95.89 88.006)" fill="#fff" fill-opacity=".6"/><rect width="3.46" height=".593" rx=".297" transform="scale(1 -1) rotate(20.791 71.373 74.598)" fill="#898989"/><rect width="3.46" height=".593" rx=".297" transform="scale(1 -1) rotate(20.791 71.373 74.598)" fill="#fff" fill-opacity=".6"/><circle cx="35.857" cy="17.357" r=".857" fill="#898989"/><circle cx="13.857" cy="17.357" r=".857" fill="#898989"/><circle cx="13.857" cy="17.357" r=".857" fill="#fff" fill-opacity=".4"/><path d="M11 42c1.077-2.807 1.78-4.326 4-6.5l10 2L23 49c-4.5-4-8.473-6.512-12-7Z" fill="#898989"/><path d="M11 42c1.077-2.807 1.78-4.326 4-6.5l10 2L23 49c-4.5-4-8.473-6.512-12-7Z" fill="#fff" fill-opacity=".8"/><path d="M39 42c-1.184-2.964-2.112-4.328-4-6.5l-10 2L27 49c4.5-4.5 7.405-5.974 12-7Z" fill="#898989"/><path d="M39 42c-1.184-2.964-2.112-4.328-4-6.5l-10 2L27 49c4.5-4.5 7.405-5.974 12-7Z" fill="#fff" fill-opacity=".4"/><g clip-path="url(#abcb)" fill="#152242"><path d="M39.029 28.446a1 1 0 0 1 1.742 0l3.507 6.22a1 1 0 0 0 .673.49l7 1.412a1 1 0 0 1 .538 1.657l-4.833 5.258a1 1 0 0 0-.257.791l.82 7.094a1 1 0 0 1-1.41 1.024l-6.493-2.972a1 1 0 0 0-.832 0l-6.494 2.972a1 1 0 0 1-1.41-1.024l.82-7.094a1 1 0 0 0-.257-.791l-4.833-5.258a1 1 0 0 1 .539-1.657l7-1.412a1 1 0 0 0 .673-.49l3.507-6.22Z"/><path d="m41.935 37.532.339.602.675.135 4.062.82-2.804 3.05-.467.508.08.686.474 4.115-3.766-1.724-.627-.287-.627.288-3.769 1.723.476-4.115.079-.686-.467-.508-2.805-3.05 4.063-.82.676-.135.338-.602 2.035-3.611 2.035 3.611Z" stroke="#FAA21E" stroke-width="3.013"/></g></g><defs><clipPath id="abca"><path fill="#fff" transform="matrix(-1 0 0 1 50 0)" d="M0 0h50v50H0z"/></clipPath><clipPath id="abcb"><path fill="#fff" transform="matrix(1 0 0 -1 0 50)" d="M0 0h50v50H0z"/></clipPath></defs></svg>