<?xml version="1.0" encoding="utf-8"?><svg fill="none" viewBox="0 0 50 50" width="50" height="50" xmlns="http://www.w3.org/2000/svg"><path d="m15 35.5-4-18 3 6 1 12Z" fill="#898989"/><path d="m15 35.5-4-18 3 6 1 12Z" fill="#fff" fill-opacity=".2"/><path d="m35 35.5 4-18-3 6-1 12Z" fill="#898989"/><path d="m35 35.5 4-18-3 6-1 12Z" fill="#000" fill-opacity=".4"/><path d="M34 6.357c-2.476 1.62-7.171 5.143-9 5.143-2.971 0-7.381-3.524-9-5.143V3.5c0-1 6.714-1.5 9-1.5 2.286 0 9 .5 9 1.5v2.857Z" fill="#898989"/><path d="M34 6.357c-2.476 1.62-7.171 5.143-9 5.143-2.971 0-7.381-3.524-9-5.143V3.5c0-1 6.714-1.5 9-1.5 2.286 0 9 .5 9 1.5v2.857Z" fill="#000" fill-opacity=".2"/><path d="m15 35.5-1-12 8 2 3 6v6l-10-2Z" fill="#898989"/><path d="m15 35.5-1-12 8 2 3 6v6l-10-2Z" fill="#fff" fill-opacity=".6"/><path d="m35 35.5 1-12-8 2-3 6v6l10-2Z" fill="#898989"/><path d="m35 35.5 1-12-8 2-3 6v6l10-2Z" fill="#000" fill-opacity=".2"/><path d="M2 24c0-4 5-9 10-9l-2 12-8-3Z" fill="#898989"/><path d="M2 24c0-4 5-9 10-9l-2 12-8-3Z" fill="#fff" fill-opacity=".2"/><path d="M48 24c0-4-6-7.5-10.5-9L40 27l8-3Z" fill="#898989"/><path d="M48 24c0-4-6-7.5-10.5-9L40 27l8-3Z" fill="#fff" fill-opacity=".2"/><path d="M1 18.5c2-4 6-8 11-8l-2 12-9-4Z" fill="#898989"/><path d="M1 18.5c2-4 6-8 11-8l-2 12-9-4Z" fill="#fff" fill-opacity=".4"/><path d="M49 18.5c-2-4-6-8-11-8l2 12 9-4Z" fill="#898989"/><path d="M49 18.5c-2-4-6-8-11-8l2 12 9-4Z" fill="#fff" fill-opacity=".4"/><path d="M14.63 7.5 8 11.5l6 12c2.484.974 8.408 3 11 3 2.593 0 9.024-2.026 10.968-3L42 11.5l-7.279-3.708-20.09-.292Z" fill="#898989"/><path d="M14.63 7.5 8 11.5l6 12c2.484.974 8.408 3 11 3 2.593 0 9.024-2.026 10.968-3L42 11.5l-7.279-3.708-20.09-.292Z" fill="#fff" fill-opacity=".4"/><path d="m42.5 11-7.406-3.5H25v19c2.511 0 9.117-2.026 11-3L42.5 11Z" fill="#898989"/><path d="m25 31.5 3-5.5-3-5-3 5 3 5.5Z" fill="#898989"/><path d="m25 31.5 3-5.5-3-5-3 5 3 5.5Z" fill="#fff" fill-opacity=".2"/><path d="M34 6.357c-2.476 1.62-7.171 5.143-9 5.143-2.971 0-7.381-3.524-9-5.143V3.5c1.905.952 6.714 3 9 3 2.286 0 6.714-2.048 9-3v2.857Z" fill="#898989"/><path d="M34 6.357c-2.476 1.62-7.171 5.143-9 5.143-2.971 0-7.381-3.524-9-5.143V3.5c1.905.952 6.714 3 9 3 2.286 0 6.714-2.048 9-3v2.857Z" fill="#fff" fill-opacity=".4"/><path d="M16 3.5c1.905.952 6.714 3 9 3v5c-2.971 0-7.381-3.524-9-5.143V3.5Z" fill="#898989"/><path d="M16 3.5c1.905.952 6.714 3 9 3v5c-2.971 0-7.381-3.524-9-5.143V3.5Z" fill="#fff" fill-opacity=".6"/><path d="M40.507 7.39c-4.143 1.151-8.438 1.63-10.069 1.726L29 23.5c3.069-1.534 9.953-5.293 12.945-8.055C44.937 12.684 48.562 5.665 50 2.5c-1.438 1.15-5.35 3.74-9.493 4.89Z" fill="#1D8CE0"/><path d="M40.507 7.39c-4.143 1.151-8.438 1.63-10.069 1.726L29 23.5c3.069-1.534 9.953-5.293 12.945-8.055C44.937 12.684 48.562 5.665 50 2.5c-1.438 1.15-5.35 3.74-9.493 4.89Z" fill="#000" fill-opacity=".4"/><path d="M9.493 7.39c4.143 1.151 8.438 1.63 10.069 1.726L21 23.5c-3.069-1.534-9.953-5.293-12.945-8.055C5.063 12.684 1.438 5.665 0 2.5c1.438 1.15 5.35 3.74 9.493 4.89ZM41.945 15.445C44.937 12.684 48.562 5.665 50 2.5c-.995.796-3.173 2.28-5.792 3.5.93-.333 2.892-1 3.292-1 .4 0-3 8.5-10.5 14.019 1.941-1.214 3.753-2.473 4.945-3.574Z" fill="#1D8CE0"/><path d="M41.945 15.445C44.937 12.684 48.562 5.665 50 2.5c-.995.796-3.173 2.28-5.792 3.5.93-.333 2.892-1 3.292-1 .4 0-3 8.5-10.5 14.019 1.941-1.214 3.753-2.473 4.945-3.574Z" fill="#fff" fill-opacity=".4"/><path d="M13 19C6.5 16 2.5 9 0 2.5c.893.714 2.738 1.982 5 3.117C4.333 5.41 2.9 4.6 2.5 5 2.1 5.4 7 15 13 19Z" fill="#1D8CE0"/><path d="M13 19C6.5 16 2.5 9 0 2.5c.893.714 2.738 1.982 5 3.117C4.333 5.41 2.9 4.6 2.5 5 2.1 5.4 7 15 13 19Z" fill="#fff" fill-opacity=".95"/><path d="M30 11.5V6.326c3.248-.036 5.333-.609 8-1.826v3.348c-.197.406-1.067 1.46-2.963 2.435-1.896.974-4.148 1.217-5.037 1.217Z" fill="#898989"/><path d="M30 11.5V6.326c3.248-.036 5.333-.609 8-1.826v3.348c-.197.406-1.067 1.46-2.963 2.435-1.896.974-4.148 1.217-5.037 1.217Z" fill="#fff" fill-opacity=".6"/><path d="M20 11.5V6.326c-3.248-.036-5.333-.609-8-1.826v3.348c.197.406 1.067 1.46 2.963 2.435 1.896.974 4.148 1.217 5.037 1.217Z" fill="#898989"/><path d="M20 11.5V6.326c-3.248-.036-5.333-.609-8-1.826v3.348c.197.406 1.067 1.46 2.963 2.435 1.896.974 4.148 1.217 5.037 1.217Z" fill="#fff" fill-opacity=".95"/><path fill-rule="evenodd" clip-rule="evenodd" d="M18.646 21.393a1.186 1.186 0 1 1 .614-2.292l1.719.461a1.186 1.186 0 1 1-.614 2.292l-1.72-.46Zm.153-.573a.593.593 0 0 1 .307-1.146l1.72.46a.593.593 0 1 1-.308 1.147l-1.719-.46Z" fill="#898989"/><path fill-rule="evenodd" clip-rule="evenodd" d="M18.646 21.393a1.186 1.186 0 1 1 .614-2.292l1.719.461a1.186 1.186 0 1 1-.614 2.292l-1.72-.46Zm.153-.573a.593.593 0 0 1 .307-1.146l1.72.46a.593.593 0 1 1-.308 1.147l-1.719-.46Z" fill="#fff" fill-opacity=".95"/><path fill-rule="evenodd" clip-rule="evenodd" d="M29.635 21.854a1.186 1.186 0 1 1-.614-2.292l1.719-.46a1.186 1.186 0 1 1 .614 2.291l-1.72.46Zm-.153-.573a.593.593 0 1 1-.307-1.146l1.719-.46a.593.593 0 1 1 .307 1.145l-1.72.46Z" fill="#898989"/><path fill-rule="evenodd" clip-rule="evenodd" d="M29.635 21.854a1.186 1.186 0 1 1-.614-2.292l1.719-.46a1.186 1.186 0 1 1 .614 2.291l-1.72.46Zm-.153-.573a.593.593 0 1 1-.307-1.146l1.719-.46a.593.593 0 1 1 .307 1.145l-1.72.46Z" fill="#fff" fill-opacity=".6"/><path fill-rule="evenodd" clip-rule="evenodd" d="M13.42 18.694a1.186 1.186 0 0 1 1.292-1.99l1.493.969a1.186 1.186 0 1 1-1.292 1.99l-1.493-.969Zm.323-.497a.593.593 0 0 1 .646-.996l1.493.969a.593.593 0 0 1-.646.995l-1.493-.968Z" fill="#898989"/><path fill-rule="evenodd" clip-rule="evenodd" d="M13.42 18.694a1.186 1.186 0 0 1 1.292-1.99l1.493.969a1.186 1.186 0 1 1-1.292 1.99l-1.493-.969Zm.323-.497a.593.593 0 0 1 .646-.996l1.493.969a.593.593 0 0 1-.646.995l-1.493-.968Z" fill="#fff" fill-opacity=".95"/><path fill-rule="evenodd" clip-rule="evenodd" d="M35.325 19.666a1.186 1.186 0 1 1-1.44-1.886L35.3 16.7a1.186 1.186 0 1 1 1.44 1.887l-1.416 1.08Zm-.36-.472a.593.593 0 1 1-.72-.943l1.415-1.08a.593.593 0 0 1 .72.944l-1.415 1.08Z" fill="#898989"/><path fill-rule="evenodd" clip-rule="evenodd" d="M35.325 19.666a1.186 1.186 0 1 1-1.44-1.886L35.3 16.7a1.186 1.186 0 1 1 1.44 1.887l-1.416 1.08Zm-.36-.472a.593.593 0 1 1-.72-.943l1.415-1.08a.593.593 0 0 1 .72.944l-1.415 1.08Z" fill="#fff" fill-opacity=".4"/><path fill-rule="evenodd" clip-rule="evenodd" d="M24.088 22.926a1.186 1.186 0 0 1 0-2.373h1.78a1.186 1.186 0 1 1 0 2.373h-1.78Zm0-.593a.593.593 0 0 1 0-1.187h1.78a.593.593 0 0 1 0 1.187h-1.78Z" fill="#898989"/><path fill-rule="evenodd" clip-rule="evenodd" d="M24.088 22.926a1.186 1.186 0 0 1 0-2.373h1.78a1.186 1.186 0 1 1 0 2.373h-1.78Zm0-.593a.593.593 0 0 1 0-1.187h1.78a.593.593 0 0 1 0 1.187h-1.78Z" fill="#fff" fill-opacity=".8"/><rect width="3.46" height=".593" rx=".297" transform="scale(1 -1) rotate(-15 -69.114 -89.094)" fill="#898989"/><rect width="3.46" height=".593" rx=".297" transform="scale(1 -1) rotate(-15 -69.114 -89.094)" fill="#fff" fill-opacity=".8"/><rect width="3.46" height=".593" rx=".297" transform="scale(1 -1) rotate(-24.753 -35.71 -45.468)" fill="#898989"/><rect width="3.46" height=".593" rx=".297" transform="scale(1 -1) rotate(-24.753 -35.71 -45.468)" fill="#fff" fill-opacity=".8"/><rect width="3.46" height=".593" rx=".297" transform="scale(1 -1) rotate(15 95.89 88.007)" fill="#898989"/><rect width="3.46" height=".593" rx=".297" transform="scale(1 -1) rotate(15 95.89 88.007)" fill="#fff" fill-opacity=".6"/><rect width="3.46" height=".593" rx=".297" transform="scale(1 -1) rotate(20.791 71.373 74.598)" fill="#898989"/><rect width="3.46" height=".593" rx=".297" transform="scale(1 -1) rotate(20.791 71.373 74.598)" fill="#fff" fill-opacity=".6"/><circle cx="35.857" cy="17.357" r=".857" fill="#898989"/><circle cx="13.857" cy="17.357" r=".857" fill="#898989"/><circle cx="13.857" cy="17.357" r=".857" fill="#fff" fill-opacity=".4"/><path d="M11 42c1.077-2.807 1.78-4.326 4-6.5l10 2L23 49c-4.5-4-8.473-6.512-12-7Z" fill="#898989"/><path d="M11 42c1.077-2.807 1.78-4.326 4-6.5l10 2L23 49c-4.5-4-8.473-6.512-12-7Z" fill="#fff" fill-opacity=".8"/><path d="M39 42c-1.184-2.964-2.112-4.328-4-6.5l-10 2L27 49c4.5-4.5 7.405-5.974 12-7Z" fill="#898989"/><path d="M39 42c-1.184-2.964-2.112-4.328-4-6.5l-10 2L27 49c4.5-4.5 7.405-5.974 12-7Z" fill="#fff" fill-opacity=".4"/></svg>