<?xml version="1.0" encoding="utf-8"?><svg fill="none" viewBox="0 0 50 50" xmlns="http://www.w3.org/2000/svg" width="50" height="50"><g clip-path="url(#abea)"><path d="M37.5 5.73c-9.75 2.655-15.264 2.62-25 0L9 26 8 46.875l10.75 1.042L25 24.479l6.25 23.438L42 46.875 41 26 37.5 5.73Z" fill="#898989"/><path d="m23.5 31-2-.5-.5 2 2 .5.5-2Z" fill="#898989"/><path d="m23.5 31-2-.5-.5 2 2 .5.5-2Z" fill="#000" fill-opacity=".2"/><path d="m26.5 31 2-.5.5 2-2 .5-.5-2Z" fill="#898989"/><path d="m26.5 31 2-.5.5 2-2 .5-.5-2Z" fill="#000" fill-opacity=".2"/><path d="M20 44.5 8 43l-.5 2 12 1.5.5-2Z" fill="#898989"/><path d="M20 44.5 8 43l-.5 2 12 1.5.5-2Z" fill="#000" fill-opacity=".2"/><path d="M30 44.5 42 43l.5 2-12 1.5-.5-2Z" fill="#898989"/><path d="M30 44.5 42 43l.5 2-12 1.5-.5-2Z" fill="#000" fill-opacity=".2"/><path d="M41.1 49.48c1.557-21.355 0-29.688-5.827-46.355L27.08 13.132 28.5 33c5.619 5.043 4.432 8.91 6.773 17l5.826-.52Z" fill="#898989"/><path d="M41.1 49.48c1.557-21.355 0-29.688-5.827-46.355L27.08 13.132 28.5 33c5.619 5.043 4.432 8.91 6.773 17l5.826-.52Z" fill="#fff" fill-opacity=".4"/><path d="M8.9 49.48c-1.557-21.355 0-29.688 5.827-46.355l8.193 10.007L21.5 33c-5.619 5.043-4.432 8.91-6.773 17l-5.826-.52Z" fill="#898989"/><path d="M8.9 49.48c-1.557-21.355 0-29.688 5.827-46.355l8.193 10.007L21.5 33c-5.619 5.043-4.432 8.91-6.773 17l-5.826-.52Z" fill="#fff" fill-opacity=".6"/><path d="M21 14.384c-5.953-3.25-8.58-8.55-9.11-14.384C6.274 12.069 4.85 25.083 6.87 42c3.864-13.903 5.9-20.534 14.13-27.616ZM29 14.384c5.953-3.25 8.58-8.55 9.11-14.384 5.615 12.069 7.039 25.083 5.02 42-3.864-13.903-5.9-20.534-14.13-27.616Z" fill="#1D8CE0"/><path d="M29 14.384c5.953-3.25 8.58-8.55 9.11-14.384 5.615 12.069 7.039 25.083 5.02 42-3.864-13.903-5.9-20.534-14.13-27.616Z" fill="#000" fill-opacity=".4"/><path d="M38.5 4c-.333-.5-1 2.5-2.5 3.5 1.279-2.719 1.816-4.327 2.11-7.5 4.815 10.35 6.548 21.395 5.671 35C43.75 23.971 39.5 5.5 38.5 4Z" fill="#1D8CE0"/><path d="M38.5 4c-.333-.5-1 2.5-2.5 3.5 1.279-2.719 1.816-4.327 2.11-7.5 4.815 10.35 6.548 21.395 5.671 35C43.75 23.971 39.5 5.5 38.5 4Z" fill="#fff" fill-opacity=".4"/><path d="M14.038 7.5C12.81 5.207 12.132 2.659 11.89 0 7.075 10.35 5.342 21.395 6.22 35c0-17 5.048-30.774 5.281-31 .233-.226 1 2 2.538 3.5Z" fill="#1D8CE0"/><path d="M14.038 7.5C12.81 5.207 12.132 2.659 11.89 0 7.075 10.35 5.342 21.395 6.22 35c0-17 5.048-30.774 5.281-31 .233-.226 1 2 2.538 3.5Z" fill="#fff" fill-opacity=".95"/><path d="M20.172 17.035a1.236 1.236 0 0 0 .64-2.387l-1.792-.48a1.236 1.236 0 0 0-.64 2.387l1.792.48Zm-1.631-1.077a.618.618 0 0 1 .32-1.193l1.79.48a.618.618 0 1 1-.32 1.193l-1.79-.48Z" fill="#898989"/><path d="M20.172 17.035a1.236 1.236 0 0 0 .64-2.387l-1.792-.48a1.236 1.236 0 0 0-.64 2.387l1.792.48Zm-1.631-1.077a.618.618 0 0 1 .32-1.193l1.79.48a.618.618 0 1 1-.32 1.193l-1.79-.48Z" fill="#fff" fill-opacity=".95"/><path d="M31.62 16.555a1.236 1.236 0 0 0-.64-2.387l-1.792.48a1.236 1.236 0 0 0 .64 2.387l1.791-.48Zm-1.951-.116a.619.619 0 0 1-.32-1.194l1.79-.48a.618.618 0 0 1 .32 1.194l-1.79.48Z" fill="#898989"/><path d="M31.62 16.555a1.236 1.236 0 0 0-.64-2.387l-1.792.48a1.236 1.236 0 0 0 .64 2.387l1.791-.48Zm-1.951-.116a.619.619 0 0 1-.32-1.194l1.79-.48a.618.618 0 0 1 .32 1.194l-1.79.48Z" fill="#fff" fill-opacity=".6"/><path d="M14.493 14.753a1.236 1.236 0 0 0 1.346-2.073l-1.556-1.01a1.236 1.236 0 0 0-1.345 2.074l1.555 1.01Zm-1.219-1.528a.619.619 0 0 1 .673-1.036l1.554 1.009a.618.618 0 1 1-.672 1.036l-1.555-1.009Z" fill="#898989"/><path d="M14.493 14.753a1.236 1.236 0 0 0 1.346-2.073l-1.556-1.01a1.236 1.236 0 0 0-1.345 2.074l1.555 1.01Zm-1.219-1.528a.619.619 0 0 1 .673-1.036l1.554 1.009a.618.618 0 1 1-.672 1.036l-1.555-1.009Z" fill="#fff" fill-opacity=".95"/><path d="M37.229 13.632a1.236 1.236 0 0 0-1.5-1.965l-1.474 1.124a1.236 1.236 0 0 0 1.5 1.966l1.474-1.125Zm-1.85.633a.617.617 0 0 1-.749-.982l1.474-1.124a.618.618 0 0 1 .749.982l-1.474 1.124Z" fill="#898989"/><path d="M37.229 13.632a1.236 1.236 0 0 0-1.5-1.965l-1.474 1.124a1.236 1.236 0 0 0 1.5 1.966l1.474-1.125Zm-1.85.633a.617.617 0 0 1-.749-.982l1.474-1.124a.618.618 0 0 1 .749.982l-1.474 1.124Z" fill="#fff" fill-opacity=".4"/><path d="M25.904 18.152a1.236 1.236 0 0 0 0-2.472H24.05a1.236 1.236 0 0 0 0 2.472h1.854Zm-1.854-.618a.617.617 0 0 1 0-1.236h1.854a.618.618 0 0 1 0 1.236H24.05Z" fill="#898989"/><path d="M25.904 18.152a1.236 1.236 0 0 0 0-2.472H24.05a1.236 1.236 0 0 0 0 2.472h1.854Zm-1.854-.618a.617.617 0 0 1 0-1.236h1.854a.618.618 0 0 1 0 1.236H24.05Z" fill="#fff" fill-opacity=".8"/><rect width="3.604" height=".618" rx=".309" transform="scale(1 -1) rotate(-15 -50.756 -85.985)" fill="#898989"/><rect width="3.604" height=".618" rx=".309" transform="scale(1 -1) rotate(-15 -50.756 -85.985)" fill="#fff" fill-opacity=".8"/><rect width="3.604" height=".618" rx=".309" transform="scale(1 -1) rotate(-24.753 -24.665 -42.124)" fill="#898989"/><rect width="3.604" height=".618" rx=".309" transform="scale(1 -1) rotate(-24.753 -24.665 -42.124)" fill="#fff" fill-opacity=".8"/><rect width="3.604" height=".618" rx=".309" transform="scale(1 -1) rotate(15 77.605 90.582)" fill="#898989"/><rect width="3.604" height=".618" rx=".309" transform="scale(1 -1) rotate(15 77.605 90.582)" fill="#fff" fill-opacity=".6"/><rect width="3.604" height=".618" rx=".309" transform="scale(1 -1) rotate(20.791 58.211 77.732)" fill="#898989"/><rect width="3.604" height=".618" rx=".309" transform="scale(1 -1) rotate(20.791 58.211 77.732)" fill="#fff" fill-opacity=".6"/><circle cx="36.309" cy="12.351" r=".893" fill="#898989"/><circle cx="13.393" cy="12.351" r=".893" fill="#898989"/><circle cx="13.393" cy="12.351" r=".893" fill="#fff" fill-opacity=".4"/><g clip-path="url(#abeb)" fill="#152242"><path d="M39.029 28.446a1 1 0 0 1 1.742 0l3.507 6.22a1 1 0 0 0 .673.49l7 1.412a1 1 0 0 1 .538 1.657l-4.833 5.258a1 1 0 0 0-.257.791l.82 7.094a1 1 0 0 1-1.41 1.024l-6.493-2.972a1 1 0 0 0-.832 0l-6.494 2.972a1 1 0 0 1-1.41-1.024l.82-7.094a1 1 0 0 0-.257-.791l-4.833-5.258a1 1 0 0 1 .539-1.657l7-1.412a1 1 0 0 0 .673-.49l3.507-6.22Z"/><path d="m41.935 37.532.339.602.675.135 4.062.82-2.804 3.05-.467.508.08.686.474 4.115-3.766-1.724-.627-.287-.627.288-3.769 1.723.476-4.115.079-.686-.467-.508-2.805-3.05 4.063-.82.676-.135.338-.602 2.035-3.611 2.035 3.611Z" stroke="#FAA21E" stroke-width="3.013"/></g></g><defs><clipPath id="abea"><path fill="#fff" transform="matrix(-1 0 0 1 50 0)" d="M0 0h50v50H0z"/></clipPath><clipPath id="abeb"><path fill="#fff" transform="matrix(1 0 0 -1 0 50)" d="M0 0h50v50H0z"/></clipPath></defs></svg>