<svg width="50" height="50" viewBox="0 0 50 50" fill="none" xmlns="http://www.w3.org/2000/svg">
<path d="M12.5417 9.60262C8.22917 10.561 2 14.3944 2 25.4153C2 36.4362 6.09697 41.0123 9.1875 44.1028C12.0625 46.9778 15.4167 48.8945 25 48.8945C34.5833 48.8945 37.8901 47.0252 40.3333 44.582C42.7292 42.1861 48 37.3945 48 25.4153C48 18.2278 44.6458 11.0401 38.4167 9.60262C32.1875 8.1651 28.3542 11.0403 25 11.0403C21.6458 11.0403 16.8542 8.64429 12.5417 9.60262Z" fill="#D0333D"/>
<path d="M24.8277 13.0301C21.5875 13.0301 18.9398 10.5975 18.2917 12.9564C17.6437 15.3154 22.8836 17.748 25.4758 17.748C28.716 17.748 33.1459 14.8731 32.6667 12.9565C32.3403 11.6508 28.068 13.0301 24.8277 13.0301Z" fill="#D0333D"/>
<path d="M24.8277 13.0301C21.5875 13.0301 18.9398 10.5975 18.2917 12.9564C17.6437 15.3154 22.8836 17.748 25.4758 17.748C28.716 17.748 33.1459 14.8731 32.6667 12.9565C32.3403 11.6508 28.068 13.0301 24.8277 13.0301Z" fill="black" fill-opacity="0.2"/>
<path d="M16.2822 11.5381C19.5419 13.2381 22.7127 12.1848 24.1611 11.2847C23.5754 9.18957 22.5141 5.9291 19.0901 4.41184C15.6661 2.89458 12.7034 3.5642 10.092 5.49091C12.287 6.9041 13.4727 10.0728 16.2822 11.5381Z" fill="#2FC4A7"/>
<path d="M16.2822 11.5381C19.5419 13.2381 22.7127 12.1848 24.1611 11.2847C23.5754 9.18957 22.5141 5.9291 19.0901 4.41184C15.6661 2.89458 12.7034 3.5642 10.092 5.49091C12.287 6.9041 13.4727 10.0728 16.2822 11.5381Z" fill="black" fill-opacity="0.4"/>
<path d="M30.75 2.63603L26.4811 1.45654C26.4811 2.43945 25.1394 4.995 24.6515 7.35398C24.1636 9.71295 24.0417 13.8412 24.0417 15.6104C24.0417 16.0036 24.2856 16.7899 25.2614 16.7899C26.2371 16.7899 26.4811 16.0036 26.4811 15.6104C26.6843 13.6446 27.2129 10.4206 27.7007 8.53347C28.1886 6.64629 29.9369 3.42235 30.75 2.63603Z" fill="#2FC4A7"/>
<path d="M30.75 2.63603L26.4811 1.45654C26.4811 2.43945 25.1394 4.995 24.6515 7.35398C24.1636 9.71295 24.0417 13.8412 24.0417 15.6104C24.0417 16.0036 24.2856 16.7899 25.2614 16.7899C26.2371 16.7899 26.4811 16.0036 26.4811 15.6104C26.6843 13.6446 27.2129 10.4206 27.7007 8.53347C28.1886 6.64629 29.9369 3.42235 30.75 2.63603Z" fill="black" fill-opacity="0.4"/>
</svg>
