<svg width="50" height="50" viewBox="0 0 50 50" fill="none" xmlns="http://www.w3.org/2000/svg">
<rect x="4" y="4" width="42" height="2" fill="#FEFEFE"/>
<path d="M44 7H6L8 41C8 41.5132 8.5 42.5789 9 43C9.85519 43.7202 10.8311 44 11 44C14.04 44.6842 19 46 25 46C31 46 35.2978 44.6316 38 43.9474C38.3378 43.7763 39.3049 43.5853 40 43C40.5 42.5789 41 42.1316 41 41L44 7Z" fill="#FEFEFE"/>
<rect x="6" y="6" width="38" height="2" fill="#898989"/>
<rect x="6" y="6" width="38" height="2" fill="white" fill-opacity="0.6"/>
<path d="M18.5217 18.9934C16.2792 19.4918 13.04 21.4852 13.04 27.216C13.04 32.9469 15.1704 35.3265 16.7775 36.9335C18.2725 38.4285 20.0167 39.4252 25 39.4252C29.9833 39.4252 31.7028 38.4532 32.9733 37.1827C34.2192 35.9369 36.96 33.4452 36.96 27.216C36.96 23.4785 35.2158 19.741 31.9767 18.9934C28.7375 18.2459 26.7442 19.741 25 19.741C23.2558 19.741 20.7642 18.4951 18.5217 18.9934Z" fill="#D0333D"/>
<path d="M24.9104 20.7759C23.2255 20.7759 21.8487 19.5109 21.5117 20.7376C21.1747 21.9642 23.8995 23.2292 25.2474 23.2292C26.9323 23.2292 29.2359 21.7343 28.9867 20.7376C28.817 20.0587 26.5954 20.7759 24.9104 20.7759Z" fill="#D0333D"/>
<path d="M24.9104 20.7759C23.2255 20.7759 21.8487 19.5109 21.5117 20.7376C21.1747 21.9642 23.8995 23.2292 25.2474 23.2292C26.9323 23.2292 29.2359 21.7343 28.9867 20.7376C28.817 20.0587 26.5954 20.7759 24.9104 20.7759Z" fill="black" fill-opacity="0.2"/>
<path d="M20.4667 19.9998C22.1618 20.8839 23.8106 20.3362 24.5638 19.8681C24.2592 18.7786 23.7073 17.0832 21.9268 16.2942C20.1464 15.5052 18.6057 15.8534 17.2479 16.8553C18.3892 17.5902 19.0058 19.2379 20.4667 19.9998Z" fill="#2FC4A7"/>
<path d="M20.4667 19.9998C22.1618 20.8839 23.8106 20.3362 24.5638 19.8681C24.2592 18.7786 23.7073 17.0832 21.9268 16.2942C20.1464 15.5052 18.6057 15.8534 17.2479 16.8553C18.3892 17.5902 19.0058 19.2379 20.4667 19.9998Z" fill="black" fill-opacity="0.4"/>
<path d="M27.99 15.3707L25.7701 14.7573C25.7701 15.2684 25.0725 16.5973 24.8188 17.824C24.5651 19.0507 24.5016 21.1973 24.5016 22.1173C24.5016 22.3218 24.6285 22.7307 25.1359 22.7307C25.6433 22.7307 25.7701 22.3218 25.7701 22.1173C25.8758 21.0951 26.1507 19.4187 26.4044 18.4373C26.6581 17.456 27.5672 15.7795 27.99 15.3707Z" fill="#2FC4A7"/>
<path d="M27.99 15.3707L25.7701 14.7573C25.7701 15.2684 25.0725 16.5973 24.8188 17.824C24.5651 19.0507 24.5016 21.1973 24.5016 22.1173C24.5016 22.3218 24.6285 22.7307 25.1359 22.7307C25.6433 22.7307 25.7701 22.3218 25.7701 22.1173C25.8758 21.0951 26.1507 19.4187 26.4044 18.4373C26.6581 17.456 27.5672 15.7795 27.99 15.3707Z" fill="black" fill-opacity="0.4"/>
</svg>
