<svg width="51" height="50" viewBox="0 0 51 50" fill="none" xmlns="http://www.w3.org/2000/svg">
<path d="M10.66 1.99249H40.811V4.98138L41.8073 6.97397H45.7925V47.8221H12.2331C11.7087 47.8221 9.08687 47.8221 7.51377 46.2597C5.94067 44.6974 5.94067 43.135 5.94067 42.6142V6.67961C5.94067 5.63803 6.67479 4.38813 7.51377 3.55487C8.35276 2.7216 9.61124 1.99249 10.66 1.99249Z" fill="#2FC4A7"/>
<path d="M10.66 1.99249H40.811V4.98138L41.8073 6.97397H45.7925V47.8221H12.2331C11.7087 47.8221 9.08687 47.8221 7.51377 46.2597C5.94067 44.6974 5.94067 43.135 5.94067 42.6142V6.67961C5.94067 5.63803 6.67479 4.38813 7.51377 3.55487C8.35276 2.7216 9.61124 1.99249 10.66 1.99249Z" fill="black" fill-opacity="0.4"/>
<path d="M43.8 9.0662L40.8111 4.98138V39.8518H38.8185L43.8 45.8295V9.0662Z" fill="#898989"/>
<path d="M43.8 9.0662L40.8111 4.98138V39.8518H38.8185L43.8 45.8295V9.0662Z" fill="white" fill-opacity="0.2"/>
<path d="M11.0522 39.8517H38.8185L43.8 45.8295H11.0522C10.5478 45.8295 7.93335 45.0823 7.93335 42.8406C7.93335 40.599 10.5478 39.8517 11.0522 39.8517Z" fill="#898989"/>
<path d="M11.0522 39.8517H38.8185L43.8 45.8295H11.0522C10.5478 45.8295 7.93335 45.0823 7.93335 42.8406C7.93335 40.599 10.5478 39.8517 11.0522 39.8517Z" fill="white" fill-opacity="0.4"/>
<path d="M38.3842 29.5031C39.3143 32.1596 39.0902 34.7982 38.6792 35.72C37.3992 34.44 35.3961 33.0423 33.8792 32.52C32.0817 31.9012 26.0493 32.2765 22.743 30.9031C20.0979 29.8043 18.9315 27.3987 18.6789 26.3332C18.9093 26.5536 19.6638 27.1383 20.8379 27.714C22.0119 28.2897 23.6666 28.1924 24.3471 28.0718C23.4813 27.5069 21.2131 26.1585 19.0674 25.2848C16.3852 24.1926 14.2945 21.0364 13.3001 18.6656C12.5046 16.769 12.7564 14.5169 12.9818 13.628C13.2796 14.2283 14.1653 15.7694 15.3255 17.1312C16.4856 18.493 18.5863 19.6882 19.4915 20.1156C18.8305 18.8642 19.0684 18.2664 18.4752 16.6474C17.7338 14.6236 15.0315 14.5576 12.1474 12.3257C9.84007 10.5402 8.61221 8.05554 8.79546 5.63965C9.91278 7.86833 11.2153 9.53935 13.4459 10.2803C16.4057 11.2634 23.5625 9.59809 25.2301 15.7681C26.8976 21.9381 28.6181 23.0047 31.8571 23.9982C35.0961 24.9917 37.2215 26.1825 38.3842 29.5031Z" fill="#898989"/>
<path d="M38.3842 29.5031C39.3143 32.1596 39.0902 34.7982 38.6792 35.72C37.3992 34.44 35.3961 33.0423 33.8792 32.52C32.0817 31.9012 26.0493 32.2765 22.743 30.9031C20.0979 29.8043 18.9315 27.3987 18.6789 26.3332C18.9093 26.5536 19.6638 27.1383 20.8379 27.714C22.0119 28.2897 23.6666 28.1924 24.3471 28.0718C23.4813 27.5069 21.2131 26.1585 19.0674 25.2848C16.3852 24.1926 14.2945 21.0364 13.3001 18.6656C12.5046 16.769 12.7564 14.5169 12.9818 13.628C13.2796 14.2283 14.1653 15.7694 15.3255 17.1312C16.4856 18.493 18.5863 19.6882 19.4915 20.1156C18.8305 18.8642 19.0684 18.2664 18.4752 16.6474C17.7338 14.6236 15.0315 14.5576 12.1474 12.3257C9.84007 10.5402 8.61221 8.05554 8.79546 5.63965C9.91278 7.86833 11.2153 9.53935 13.4459 10.2803C16.4057 11.2634 23.5625 9.59809 25.2301 15.7681C26.8976 21.9381 28.6181 23.0047 31.8571 23.9982C35.0961 24.9917 37.2215 26.1825 38.3842 29.5031Z" fill="white" fill-opacity="0.4"/>
<path d="M29.5264 19.9517C29.8758 21.9237 32.0514 22.6986 33.0956 22.8396C32.085 22.8883 30.5635 22.9866 28.7432 21.5881C26.6486 19.9787 26.3901 17.6069 25.3423 14.8258C24.3473 12.1848 22.7233 11.64 22.0803 11.2976C22.7861 11.1725 25.0185 11.5193 27.1238 12.5544C29.7553 13.8483 29.0896 17.4866 29.5264 19.9517Z" fill="#898989"/>
<path d="M29.5264 19.9517C29.8758 21.9237 32.0514 22.6986 33.0956 22.8396C32.085 22.8883 30.5635 22.9866 28.7432 21.5881C26.6486 19.9787 26.3901 17.6069 25.3423 14.8258C24.3473 12.1848 22.7233 11.64 22.0803 11.2976C22.7861 11.1725 25.0185 11.5193 27.1238 12.5544C29.7553 13.8483 29.0896 17.4866 29.5264 19.9517Z" fill="white" fill-opacity="0.4"/>
<path d="M32.9494 20.7657C33.1858 22.0996 34.0859 22.4683 34.5882 22.6341C33.267 22.4223 30.8136 22.249 30.1841 20.526C29.5545 18.8031 29.6499 17.3497 29.7049 16.181C30.2618 16.2735 31.5328 16.6598 32.162 17.4655C32.9485 18.4727 32.654 19.0982 32.9494 20.7657Z" fill="#898989"/>
<path d="M32.9494 20.7657C33.1858 22.0996 34.0859 22.4683 34.5882 22.6341C33.267 22.4223 30.8136 22.249 30.1841 20.526C29.5545 18.8031 29.6499 17.3497 29.7049 16.181C30.2618 16.2735 31.5328 16.6598 32.162 17.4655C32.9485 18.4727 32.654 19.0982 32.9494 20.7657Z" fill="white" fill-opacity="0.4"/>
<path d="M33.3054 33.9666L38.2666 35.3074L36.9257 30.3462L36.2301 32.3659L25.1483 21.284L25.1427 18.5631L19.2596 12.68L19.2596 16.3004L15.6392 16.3004L21.5223 22.1835L24.2295 22.2028L35.3113 33.2847L33.3054 33.9666Z" fill="#898989"/>
<path d="M33.3054 33.9666L38.2666 35.3074L36.9257 30.3462L36.2301 32.3659L25.1483 21.284L25.1427 18.5631L19.2596 12.68L19.2596 16.3004L15.6392 16.3004L21.5223 22.1835L24.2295 22.2028L35.3113 33.2847L33.3054 33.9666Z" fill="white" fill-opacity="0.95"/>
<path d="M33.2392 29.96C36.0475 30.7026 38.0267 33.8347 38.16 35.1515C38.2967 33.9061 38.0068 32.1163 36.1192 29.64C33.947 26.7902 31.4028 27.8555 27.4792 26.12C23.7531 24.4718 22.0392 21.64 21.7192 20.36C21.3992 21.64 21.3992 23.88 23.3192 26.44C25.4792 29.32 29.7288 29.0317 33.2392 29.96Z" fill="#898989"/>
<path d="M33.2392 29.96C36.0475 30.7026 38.0267 33.8347 38.16 35.1515C38.2967 33.9061 38.0068 32.1163 36.1192 29.64C33.947 26.7902 31.4028 27.8555 27.4792 26.12C23.7531 24.4718 22.0392 21.64 21.7192 20.36C21.3992 21.64 21.3992 23.88 23.3192 26.44C25.4792 29.32 29.7288 29.0317 33.2392 29.96Z" fill="white" fill-opacity="0.95"/>
<circle cx="11.1593" cy="11.4" r="1.28" fill="#898989"/>
<circle cx="11.1593" cy="11.4" r="1.28" fill="white" fill-opacity="0.95"/>
<circle cx="29.0792" cy="13.96" r="1.28" fill="#898989"/>
<circle cx="29.0792" cy="13.96" r="1.28" fill="white" fill-opacity="0.95"/>
<circle cx="21.0793" cy="7.24003" r="0.96" fill="#898989"/>
<circle cx="21.0793" cy="7.24003" r="0.96" fill="white" fill-opacity="0.95"/>
<circle cx="13.3992" cy="32.84" r="0.96" fill="#898989"/>
<circle cx="13.3992" cy="32.84" r="0.96" fill="white" fill-opacity="0.95"/>
<circle cx="37.7193" cy="25.16" r="0.96" fill="#898989"/>
<circle cx="37.7193" cy="25.16" r="0.96" fill="white" fill-opacity="0.95"/>
</svg>
