<svg width="50" height="50" viewBox="0 0 50 50" fill="none" xmlns="http://www.w3.org/2000/svg">
<path d="M25.5 47.5C36.5 47.5 44 40 45.5 33.5C44.5 35.5 40 38.5 34.5 38.5C30.5 38.5 28 36.5 25.5 36.5C23 36.5 21.5 39 16 39C9.99999 39 6.49657 35.8264 4.49999 34.4999C7.99999 41.9915 13 47.4999 25.5 47.5Z" fill="#1D8CE0"/>
<path d="M25.5 47.5C36.5 47.5 44 40 45.5 33.5C44.5 35.5 40 38.5 34.5 38.5C30.5 38.5 28 36.5 25.5 36.5C23 36.5 21.5 39 16 39C9.99999 39 6.49657 35.8264 4.49999 34.4999C7.99999 41.9915 13 47.4999 25.5 47.5Z" fill="white" fill-opacity="0.2"/>
<circle cx="25" cy="25" r="22.5" stroke="#1D8CE0"/>
<circle cx="25" cy="25" r="22.5" stroke="white" stroke-opacity="0.95"/>
<path d="M40.5 32C43.7 24.4 40.5 15.5 35.5 11C36.5 15.5 35.8 22.2 33 29C30.2 35.8 23.8333 40.1667 21 41.5C26.5 43 37.3 39.6 40.5 32Z" fill="#FEFEFE" fill-opacity="0.15"/>
<path d="M18.1507 13.5405C18.1507 9.80404 22.7157 5.88964 25.7404 5C23.0715 7.66891 21.3534 10.5513 21.3534 13.5405C21.3534 17.277 24.5561 21.5473 25.7404 24.2162C26.6064 26.1678 27.5 31 24.0223 34.3581C20.1825 38.0658 16.0156 35.9594 14.948 33.2905C14.107 31.1878 14.948 26.8851 17.0832 26.8851C19.0077 26.8851 18.8847 29.7542 18.1507 29.0202C16.2635 27.133 16.0862 33.1394 19.7521 32.2229C21.8872 31.6891 22.421 26.8851 21.3534 23.6824C20.2859 20.4797 18.1507 18.4618 18.1507 13.5405Z" fill="#1D8CE0"/>
<path d="M18.1507 13.5405C18.1507 9.80404 22.7157 5.88964 25.7404 5C23.0715 7.66891 21.3534 10.5513 21.3534 13.5405C21.3534 17.277 24.5561 21.5473 25.7404 24.2162C26.6064 26.1678 27.5 31 24.0223 34.3581C20.1825 38.0658 16.0156 35.9594 14.948 33.2905C14.107 31.1878 14.948 26.8851 17.0832 26.8851C19.0077 26.8851 18.8847 29.7542 18.1507 29.0202C16.2635 27.133 16.0862 33.1394 19.7521 32.2229C21.8872 31.6891 22.421 26.8851 21.3534 23.6824C20.2859 20.4797 18.1507 18.4618 18.1507 13.5405Z" fill="white" fill-opacity="0.2"/>
<path d="M30.5278 10.5C30.5278 8.25344 28.5203 5.53489 26.4713 5C28.2792 6.60468 28.5 8.70276 28.5 10.5C28.5 12.7466 27.2736 14.949 26.4713 16.5537C25.8847 17.7271 25.4657 20.084 27.6352 22.6515C29.8046 25.219 33.0589 23.6143 33.7821 22.0096C34.3518 20.7454 33.7821 18.1584 32.3357 18.1584C31.032 18.1584 31.1154 19.8834 31.6126 19.4421C32.8909 18.3075 33.011 21.9188 30.5278 21.3678C29.0815 21.0468 28.7199 18.1584 29.4431 16.2328C30.1662 14.3072 30.5278 13.4589 30.5278 10.5Z" fill="#1D8CE0"/>
<path d="M30.5278 10.5C30.5278 8.25344 28.5203 5.53489 26.4713 5C28.2792 6.60468 28.5 8.70276 28.5 10.5C28.5 12.7466 27.2736 14.949 26.4713 16.5537C25.8847 17.7271 25.4657 20.084 27.6352 22.6515C29.8046 25.219 33.0589 23.6143 33.7821 22.0096C34.3518 20.7454 33.7821 18.1584 32.3357 18.1584C31.032 18.1584 31.1154 19.8834 31.6126 19.4421C32.8909 18.3075 33.011 21.9188 30.5278 21.3678C29.0815 21.0468 28.7199 18.1584 29.4431 16.2328C30.1662 14.3072 30.5278 13.4589 30.5278 10.5Z" fill="white" fill-opacity="0.4"/>
<path d="M34 40.0001C37.5 38.0001 41 33.0001 41 30.0001C40.2571 33.0001 36.2975 36.8405 33.5 38.5001C30.4369 40.3173 24.5 42.0001 21 42.0001C24.5 43.0001 30 42.2858 34 40.0001Z" fill="#FEFEFE"/>
<path d="M14.5 9.00006C11.6489 11.5108 10.5 15 10.5 18C10.9875 15.933 14.0949 11.7432 17 10.0001C19.4724 8.5166 21.5 7.00006 25 6.50006C21.5 6.00006 17.3512 6.48933 14.5 9.00006Z" fill="#FEFEFE"/>
<path d="M14.9283 22.9235C16.0861 23.2391 16.7557 24.4582 16.9457 25.0282L15.0162 24.5022C14.5338 24.3707 13.4375 24.59 13.0866 23.9761C12.7357 23.3622 13.4811 22.5289 14.9283 22.9235Z" fill="#1D8CE0"/>
<path d="M14.9283 22.9235C16.0861 23.2391 16.7557 24.4582 16.9457 25.0282L15.0162 24.5022C14.5338 24.3707 13.4375 24.59 13.0866 23.9761C12.7357 23.3622 13.4811 22.5289 14.9283 22.9235Z" fill="white" fill-opacity="0.8"/>
<path d="M10.2678 29.6499C11.1693 28.858 12.5555 28.9713 13.136 29.1269L11.6334 30.4469C11.2578 30.7769 10.8365 31.8125 10.1308 31.7668C9.42521 31.7212 9.14086 30.6399 10.2678 29.6499Z" fill="#1D8CE0"/>
<path d="M10.2678 29.6499C11.1693 28.858 12.5555 28.9713 13.136 29.1269L11.6334 30.4469C11.2578 30.7769 10.8365 31.8125 10.1308 31.7668C9.42521 31.7212 9.14086 30.6399 10.2678 29.6499Z" fill="white" fill-opacity="0.8"/>
<path d="M12.1428 34.5943C12.0742 33.3963 13.0174 32.3741 13.4976 32.0127L13.6118 34.0095C13.6403 34.5087 14.1966 35.4785 13.726 36.0062C13.2553 36.5339 12.2284 36.0919 12.1428 34.5943Z" fill="#1D8CE0"/>
<path d="M12.1428 34.5943C12.0742 33.3963 13.0174 32.3741 13.4976 32.0127L13.6118 34.0095C13.6403 34.5087 14.1966 35.4785 13.726 36.0062C13.2553 36.5339 12.2284 36.0919 12.1428 34.5943Z" fill="white" fill-opacity="0.8"/>
<path d="M30.9596 27.8098C30.019 27.0646 29.8822 25.6805 29.9314 25.0816L31.4991 26.3236C31.8911 26.634 32.9854 26.8631 33.0668 27.5655C33.1483 28.2679 32.1354 28.7412 30.9596 27.8098Z" fill="#1D8CE0"/>
<path d="M30.9596 27.8098C30.019 27.0646 29.8822 25.6805 29.9314 25.0816L31.4991 26.3236C31.8911 26.634 32.9854 26.8631 33.0668 27.5655C33.1483 28.2679 32.1354 28.7412 30.9596 27.8098Z" fill="white" fill-opacity="0.6"/>
<path d="M37.8882 23.4556C36.748 23.8296 35.5178 23.1808 35.0452 22.8096L36.9456 22.1862C37.4207 22.0303 38.215 21.2435 38.8459 21.5627C39.4769 21.882 39.3135 22.988 37.8882 23.4556Z" fill="#1D8CE0"/>
<path d="M37.8882 23.4556C36.748 23.8296 35.5178 23.1808 35.0452 22.8096L36.9456 22.1862C37.4207 22.0303 38.215 21.2435 38.8459 21.5627C39.4769 21.882 39.3135 22.988 37.8882 23.4556Z" fill="white" fill-opacity="0.6"/>
<path d="M38.1068 18.1723C37.6991 19.3009 36.4301 19.8703 35.8466 20.0139L36.5262 18.1329C36.696 17.6626 36.5656 16.5523 37.2057 16.2519C37.8458 15.9515 38.6165 16.7616 38.1068 18.1723Z" fill="#1D8CE0"/>
<path d="M38.1068 18.1723C37.6991 19.3009 36.4301 19.8703 35.8466 20.0139L36.5262 18.1329C36.696 17.6626 36.5656 16.5523 37.2057 16.2519C37.8458 15.9515 38.6165 16.7616 38.1068 18.1723Z" fill="white" fill-opacity="0.6"/>
<path d="M21 15.5C21 14 21.1667 12.6667 21.5 12C21.3333 13.5 21.5 15.5 22 17C23.0607 20.182 26.5 23 26.5 28.5C26.5 32.5 23.3333 35.5 21.5 36C22.5 35.1667 24.5 32.5 25 30.5C25.5423 28.3307 25 25 24 23C23 21 21 17.5 21 15.5Z" fill="#1D8CE0"/>
<path d="M21 15.5C21 14 21.1667 12.6667 21.5 12C21.3333 13.5 21.5 15.5 22 17C23.0607 20.182 26.5 23 26.5 28.5C26.5 32.5 23.3333 35.5 21.5 36C22.5 35.1667 24.5 32.5 25 30.5C25.5423 28.3307 25 25 24 23C23 21 21 17.5 21 15.5Z" fill="white" fill-opacity="0.6"/>
<path d="M29 12.4999C29 11.5 29 11 28.5 9.99995C28.5 12 28.2791 12.3023 28 13C27 15.5 26 16.6875 26 19C26 21.3125 27.5 23.5 30 24C29 23.5 28.3259 23.2569 27.5 22C26.6041 20.6367 26.6517 18.9028 27.2974 17.2874C27.9432 15.6719 29 13.9166 29 12.5L29 12.4999Z" fill="#1D8CE0"/>
<path d="M29 12.4999C29 11.5 29 11 28.5 9.99995C28.5 12 28.2791 12.3023 28 13C27 15.5 26 16.6875 26 19C26 21.3125 27.5 23.5 30 24C29 23.5 28.3259 23.2569 27.5 22C26.6041 20.6367 26.6517 18.9028 27.2974 17.2874C27.9432 15.6719 29 13.9166 29 12.5L29 12.4999Z" fill="white" fill-opacity="0.6"/>
</svg>
