<svg width="50" height="50" viewBox="0 0 50 50" fill="none" xmlns="http://www.w3.org/2000/svg">
<g clip-path="url(#clip0_1880_9331)">
<g clip-path="url(#clip1_1880_9331)">
<path d="M22.8299 44.171C17.4017 44.171 13.8965 42.1857 13.4002 41.1931C12.9039 40.2005 12.9039 36.6573 12.9039 36.6573H32.756C32.756 38.7749 32.8791 40.1965 32.2597 41.1931C31.2727 42.7813 27.7647 44.171 22.8299 44.171Z" fill="#898989"/>
<path d="M22.8299 44.171C17.4017 44.171 13.8965 42.1857 13.4002 41.1931C12.9039 40.2005 12.9039 36.6573 12.9039 36.6573H32.756C32.756 38.7749 32.8791 40.1965 32.2597 41.1931C31.2727 42.7813 27.7647 44.171 22.8299 44.171Z" fill="white" fill-opacity="0.6"/>
<path d="M40.0851 22.0494C39.2788 22.0135 38.1081 21.0907 38.5886 19.3708C39.069 17.6508 41.1427 16.4371 43.5614 16.5447C45.9802 16.6523 47.1316 18.0095 48.3024 18.9323C48.2637 19.8012 48.5122 23.295 46.3612 26.2466C44.2102 29.1983 41.8272 30.365 39.276 31.1554C37.6377 31.663 37.183 32.8037 37.1444 33.6726C37.1057 34.5416 37.8733 35.4464 38.6796 35.4823" stroke="#FEFEFE" stroke-width="2.48152" stroke-linecap="round"/>
<path d="M41.6894 11.0089H3.9704C5.58847 14.7844 6.66718 15.3238 7.7459 19.6386C8.28526 21.7961 7.7459 28.6574 8.82461 32.4329C10.1907 37.2142 12.9945 39.7154 15.8363 41.0626C18.6661 42.4042 26.5039 42.4042 29.8595 41.0626C32.7798 39.8951 35.5473 37.2871 36.8712 32.4329C38.3997 26.8285 37.3065 22.8557 37.9499 19.6386C38.4893 16.9418 39.532 15.3238 41.6894 11.0089Z" fill="#898989"/>
<path d="M41.6894 11.0089H3.9704C5.58847 14.7844 6.66718 15.3238 7.7459 19.6386C8.28526 21.7961 7.7459 28.6574 8.82461 32.4329C10.1907 37.2142 12.9945 39.7154 15.8363 41.0626C18.6661 42.4042 26.5039 42.4042 29.8595 41.0626C32.7798 39.8951 35.5473 37.2871 36.8712 32.4329C38.3997 26.8285 37.3065 22.8557 37.9499 19.6386C38.4893 16.9418 39.532 15.3238 41.6894 11.0089Z" fill="white" fill-opacity="0.95"/>
<path d="M41.6894 10.8052C41.6894 13.4836 33.4725 15.7434 23.0566 15.7434C12.6408 15.7434 3.9704 13.4836 3.9704 10.8052C3.9704 8.12686 12.6408 5.95563 23.0566 5.95563C33.4725 5.95563 41.6894 8.12686 41.6894 10.8052Z" fill="#898989"/>
<path d="M41.6894 10.8052C41.6894 13.4836 33.4725 15.7434 23.0566 15.7434C12.6408 15.7434 3.9704 13.4836 3.9704 10.8052C3.9704 8.12686 12.6408 5.95563 23.0566 5.95563C33.4725 5.95563 41.6894 8.12686 41.6894 10.8052Z" fill="white" fill-opacity="0.6"/>
<path d="M41.6894 10.8052C41.6894 13.4836 33.4725 15.7434 23.0566 15.7434C12.6408 15.7434 3.9704 13.4836 3.9704 10.8052C3.9704 8.12686 12.6408 5.95563 23.0566 5.95563C33.4725 5.95563 41.6894 8.12686 41.6894 10.8052Z" stroke="#FEFEFE" stroke-width="1.48891"/>
<path d="M36.863 13.3807C36.863 13.032 29.2426 11.8863 22.9148 11.8863C16.5871 11.8863 8.96667 13.032 8.96667 13.3807C8.96667 13.7293 14.9445 15.1741 22.9148 15.1741C31.8815 15.1741 36.863 13.7293 36.863 13.3807Z" fill="#FAA21E"/>
<path d="M36.863 13.3807C36.863 13.032 29.2426 11.8863 22.9148 11.8863C16.5871 11.8863 8.96667 13.032 8.96667 13.3807C8.96667 13.7293 14.9445 15.1741 22.9148 15.1741C31.8815 15.1741 36.863 13.7293 36.863 13.3807Z" fill="white" fill-opacity="0.4"/>
</g>
<path d="M15.3687 37.6855L13.1235 35.4403C13.5888 34.7678 14.8239 33.1303 15.6027 32.2998C16.5763 31.2617 19.2344 29.8401 19.7811 29.2934C20.3209 28.7536 21.4098 27.1539 21.5538 27.0099C21.7183 26.8454 22.1316 26.5915 22.3795 26.5148C22.6185 26.5896 23.2865 26.7865 23.7018 27.1759C24.117 27.5654 24.3754 28.286 24.3629 28.4982C24.2898 28.7069 24.042 29.169 23.8679 29.3239C23.6937 29.4787 22.0626 30.6606 21.5898 31.1335C20.9368 31.7869 19.725 34.1279 18.5779 35.275C17.5994 36.2534 16 37.2966 15.3687 37.6855Z" fill="#FAA21E"/>
<path d="M15.3687 37.6855L13.1235 35.4403C13.5888 34.7678 14.8239 33.1303 15.6027 32.2998C16.5763 31.2617 19.2344 29.8401 19.7811 29.2934C20.3209 28.7536 21.4098 27.1539 21.5538 27.0099C21.7183 26.8454 22.1316 26.5915 22.3795 26.5148C22.6185 26.5896 23.2865 26.7865 23.7018 27.1759C24.117 27.5654 24.3754 28.286 24.3629 28.4982C24.2898 28.7069 24.042 29.169 23.8679 29.3239C23.6937 29.4787 22.0626 30.6606 21.5898 31.1335C20.9368 31.7869 19.725 34.1279 18.5779 35.275C17.5994 36.2534 16 37.2966 15.3687 37.6855Z" fill="black" fill-opacity="0.4"/>
<path d="M24.363 25.1925L22.3795 26.5148C22.6489 26.5914 23.1213 26.9518 23.5366 27.3412C23.9518 27.7306 24.3487 28.2235 24.363 28.4982L25.6853 26.5148C25.7263 26.3346 25.5611 26.06 25.1894 25.6883C24.8588 25.3578 24.486 25.1693 24.363 25.1925Z" fill="#898989"/>
<path d="M24.363 25.1925L22.3795 26.5148C22.6489 26.5914 23.1213 26.9518 23.5366 27.3412C23.9518 27.7306 24.3487 28.2235 24.363 28.4982L25.6853 26.5148C25.7263 26.3346 25.5611 26.06 25.1894 25.6883C24.8588 25.3578 24.486 25.1693 24.363 25.1925Z" fill="white" fill-opacity="0.2"/>
<path d="M25.2456 24.5062C25.1223 24.6296 24.6162 25.0249 24.363 25.1926C24.5449 25.2032 24.8589 25.3579 25.1895 25.6884C25.481 25.98 25.721 26.4257 25.6853 26.5149C25.8208 26.2794 26.2173 25.7246 26.3407 25.6013C26.5265 25.4154 27.4114 25.6332 27.834 25.6884L32.1315 21.391L29.4869 18.7464L25.1895 23.0438C25.2288 23.4112 25.4003 24.3516 25.2456 24.5062Z" fill="#898989"/>
<path d="M25.2456 24.5062C25.1223 24.6296 24.6162 25.0249 24.363 25.1926C24.5449 25.2032 24.8589 25.3579 25.1895 25.6884C25.481 25.98 25.721 26.4257 25.6853 26.5149C25.8208 26.2794 26.2173 25.7246 26.3407 25.6013C26.5265 25.4154 27.4114 25.6332 27.834 25.6884L32.1315 21.391L29.4869 18.7464L25.1895 23.0438C25.2288 23.4112 25.4003 24.3516 25.2456 24.5062Z" fill="white" fill-opacity="0.6"/>
<path d="M29.0862 19.1345L29.7473 18.4734L32.3919 21.118L31.7307 21.7791L29.0862 19.1345Z" fill="#898989"/>
<path d="M29.0862 19.1345L29.7473 18.4734L32.3919 21.118L31.7307 21.7791L29.0862 19.1345Z" fill="white" fill-opacity="0.2"/>
<path fill-rule="evenodd" clip-rule="evenodd" d="M13.0001 18.437L26.1159 29.5697C26.2982 29.7064 26.7449 29.9662 27.0731 29.9115C27.2545 29.8813 27.4091 29.7308 27.5902 29.5546C27.8187 29.3322 28.0893 29.0688 28.5089 28.9543C29.261 28.7492 30.0815 28.6808 30.902 29.3646C31.7224 30.0483 32.0643 31.2106 31.7908 32.5097C31.5173 33.8088 30.0131 34.219 28.9191 34.0139C27.8252 33.8088 27.4149 33.1251 27.0731 32.3046C26.7996 31.6482 24.8168 30.299 23.8596 29.7064C24.3382 30.6409 25.7865 33.0567 26.1159 33.1665C26.5994 33.3278 27.2782 33.8772 27.5517 34.6976C27.8252 35.5181 27.7568 36.2702 27.3466 36.8856C26.9363 37.5009 26.1842 37.9795 25.0903 37.9112C23.9963 37.8428 23.1758 37.2958 22.6289 36.2702C22.0819 35.2446 22.6289 34.3558 22.9024 34.0139C23.0085 33.8812 23.1558 33.7588 23.3004 33.6388C23.5283 33.4495 23.7494 33.2659 23.7912 33.0567C23.7912 32.0358 19.9103 27.1595 16.3501 22.6862C15.1417 21.1679 13.9703 19.696 13.0001 18.437ZM22.6719 27.7913C22.6719 28.159 22.3738 28.4571 22.0061 28.4571C21.6384 28.4571 21.3403 28.159 21.3403 27.7913C21.3403 27.4236 21.6384 27.1255 22.0061 27.1255C22.3738 27.1255 22.6719 27.4236 22.6719 27.7913ZM27.0661 35.3813C27.0661 36.3373 26.2911 37.1123 25.335 37.1123C24.379 37.1123 23.604 36.3373 23.604 35.3813C23.604 34.4252 24.379 33.6502 25.335 33.6502C26.2911 33.6502 27.0661 34.4252 27.0661 35.3813ZM29.4629 33.3839C30.419 33.3839 31.194 32.6089 31.194 31.6528C31.194 30.6968 30.419 29.9218 29.4629 29.9218C28.5069 29.9218 27.7319 30.6968 27.7319 31.6528C27.7319 32.6089 28.5069 33.3839 29.4629 33.3839Z" fill="#546DDB"/>
</g>
<defs>
<clipPath id="clip0_1880_9331">
<rect width="50" height="50" fill="white"/>
</clipPath>
<clipPath id="clip1_1880_9331">
<rect width="49.8148" height="49.8148" fill="white"/>
</clipPath>
</defs>
</svg>
