<svg width="51" height="51" viewBox="0 0 51 51" fill="none" xmlns="http://www.w3.org/2000/svg">
<g clip-path="url(#clip0_1633_8513)">
<g clip-path="url(#clip1_1633_8513)">
<path d="M37.2444 15.6078V19.2307C37.8611 18.476 39.3722 16.5136 42.3326 16.5136C46.0331 16.5136 47.4208 20.5893 47.4208 23.7593C47.4208 26.9294 45.5706 31.0051 42.3326 31.0051C39.7422 31.0051 37.707 28.7408 37.2444 28.288V31.9109C37.707 31.9109 38.6321 33.7223 42.3326 33.7223C46.9583 33.7223 50.1962 29.6466 50.1962 23.7593C50.1962 17.8721 46.9583 13.7964 42.3326 13.7964C39.0946 13.7964 37.707 15.6078 37.2444 15.6078Z" fill="#898989"/>
<path d="M37.2444 15.6078V19.2307C37.8611 18.476 39.3722 16.5136 42.3326 16.5136C46.0331 16.5136 47.4208 20.5893 47.4208 23.7593C47.4208 26.9294 45.5706 31.0051 42.3326 31.0051C39.7422 31.0051 37.707 28.7408 37.2444 28.288V31.9109C37.707 31.9109 38.6321 33.7223 42.3326 33.7223C46.9583 33.7223 50.1962 29.6466 50.1962 23.7593C50.1962 17.8721 46.9583 13.7964 42.3326 13.7964C39.0946 13.7964 37.707 15.6078 37.2444 15.6078Z" fill="white" fill-opacity="0.95"/>
<path d="M5.36292 7.8186H38.2407V44.1834C38.2407 44.1834 35.2518 49.1649 21.8018 49.1649C8.35183 49.1649 5.36292 44.1834 5.36292 44.1834V7.8186Z" fill="#898989"/>
<path d="M5.36292 7.8186H38.2407V44.1834C38.2407 44.1834 35.2518 49.1649 21.8018 49.1649C8.35183 49.1649 5.36292 44.1834 5.36292 44.1834V7.8186Z" fill="white" fill-opacity="0.85"/>
<ellipse cx="21.8018" cy="7.32046" rx="16.4389" ry="4.48333" fill="#FEFEFE"/>
<ellipse cx="21.8018" cy="7.32046" rx="14.4463" ry="3.48704" fill="#898989"/>
<ellipse cx="21.8018" cy="7.32046" rx="14.4463" ry="3.48704" fill="white" fill-opacity="0.4"/>
<path d="M33.2592 9.31305C33.2592 8.8149 28.1295 7.81861 21.8018 7.81861C15.474 7.81861 10.3444 8.8149 10.3444 9.31305C10.3444 9.8112 15.474 10.8075 21.8018 10.8075C28.1295 10.8075 33.2592 9.8112 33.2592 9.31305Z" fill="#FAA21E"/>
<path d="M33.2592 9.31305C33.2592 8.8149 28.1295 7.81861 21.8018 7.81861C15.474 7.81861 10.3444 8.8149 10.3444 9.31305C10.3444 9.8112 15.474 10.8075 21.8018 10.8075C28.1295 10.8075 33.2592 9.8112 33.2592 9.31305Z" fill="black" fill-opacity="0.6"/>
</g>
<path d="M29.06 33.3587L22.5303 23.0914L17.5552 25.8916L23.2363 36.7811C25.1942 39.277 27.1944 40.8258 29.9952 41.6851C30.6147 38.6479 30.2412 36.3033 29.06 33.3587Z" fill="#D0333D"/>
<path d="M29.06 33.3587L22.5303 23.0914L17.5552 25.8916L23.2363 36.7811C25.1942 39.277 27.1944 40.8258 29.9952 41.6851C30.6147 38.6479 30.2412 36.3033 29.06 33.3587Z" fill="white" fill-opacity="0.6"/>
<path d="M18.5604 17.2745C18.2401 16.5891 17.4018 16.3252 16.7468 16.7037L14.7801 17.8398C14.1207 18.2208 13.9326 19.0871 14.3746 19.7071L18.1837 25.0502C18.5744 25.5983 19.3206 25.7537 19.8977 25.4072L20.8234 24.8515C21.3903 24.5111 21.6084 23.7971 21.3285 23.198L18.5604 17.2745Z" fill="#D0333D"/>
<rect width="13.5962" height="1.70004" rx="0.850021" transform="matrix(-0.865895 0.500226 0.499774 0.866156 25.4673 20.2408)" fill="#D0333D"/>
</g>
<defs>
<clipPath id="clip0_1633_8513">
<rect width="50" height="50" fill="white" transform="translate(0.38147 0.844482)"/>
</clipPath>
<clipPath id="clip1_1633_8513">
<rect width="49.8148" height="49.8148" fill="white" transform="translate(0.38147 0.844482)"/>
</clipPath>
</defs>
</svg>
