<svg width="40" height="40" viewBox="0 0 40 40" fill="none" xmlns="http://www.w3.org/2000/svg">
<path d="M30.8617 26.7057L20.8159 10.9099L13.162 15.2178L21.9021 31.9709C24.9143 35.8107 27.9914 38.1935 32.3005 39.5156C33.2535 34.8429 32.6789 31.2358 30.8617 26.7057Z" fill="#D0333D"/>
<path d="M30.8617 26.7057L20.8159 10.9099L13.162 15.2178L21.9021 31.9709C24.9143 35.8107 27.9914 38.1935 32.3005 39.5156C33.2535 34.8429 32.6789 31.2358 30.8617 26.7057Z" fill="white" fill-opacity="0.6"/>
<path d="M14.7151 1.97533C14.2187 0.913035 12.9194 0.504109 11.9042 1.09063L8.90654 2.82235C7.88452 3.41278 7.59295 4.75551 8.27808 5.71655L14.1209 13.9123C14.7264 14.7617 15.883 15.0026 16.7774 14.4656L18.1783 13.6246C19.0571 13.097 19.3951 11.9903 18.9612 11.0617L14.7151 1.97533Z" fill="#D0333D"/>
<rect width="20.9173" height="2.61545" rx="1.30772" transform="matrix(-0.865895 0.500226 0.499774 0.866156 25.3342 6.52429)" fill="#D0333D"/>
</svg>
