<svg width="50" height="50" viewBox="0 0 50 50" fill="none" xmlns="http://www.w3.org/2000/svg">
<path d="M39.5 9.49965C38.0689 10.2151 36.8333 11.833 36.5 12.9997C35.6667 10.333 33.4 4.59976 31 2.99976C28 0.999761 25.5 0.499761 21.5 2.49976C17.5 4.49976 17.5 7.49976 17.5 9.99976C17.5 11.9998 20.5 17.4998 22 19.9998L26 29.4998L41 21.9998L40.5 20.9998C41.5 18.3331 43.4 12.5997 43 10.9997C42.5 8.99965 40.5 8.99976 39.5 9.49965Z" fill="#1D8CE0"/>
<path d="M20.5 3C21.4303 2.37983 24 1.5 24 1.5C23.5 2.16667 22.5 3.5 22 4.5C21.3676 5.76491 20.5 7.91886 20.5 9.5C20.5 11 22.5 13.5 25 20C27 25.2 30.3333 30.8333 31.5 33L28.5 34.5L26.5 30.5L24.5 26L22 20C21 18 17.5 12.6406 17.5 9C17.5 6.5 18.5673 4.28846 20.5 3Z" fill="black" fill-opacity="0.1"/>
<path d="M43.5 27L28.5 34.5L26 29.5L41 22L43.5 27Z" fill="#1D8CE0"/>
<path d="M43.5 27L28.5 34.5L26 29.5L41 22L43.5 27Z" fill="white" fill-opacity="0.8"/>
<path d="M37.1712 36.7223L25.469 48.7352L21.4647 44.8345L32 34.5L34 33.5L37.1712 36.7223Z" fill="#1D8CE0"/>
<path d="M37.1712 36.7223L25.469 48.7352L21.4647 44.8345L32 34.5L34 33.5L37.1712 36.7223Z" fill="white" fill-opacity="0.8"/>
<path d="M20.5 43.9997L21.5 44.9997L32 34.4998L28 36.4998L21 20.9998C20.3333 19.9997 18.1 17.8997 14.5 17.4997C9.99998 16.9997 6.49999 20.9997 5.99999 23.9997C5.49999 26.9997 6.99999 30.4997 8.49999 32.4997C9.69999 34.0997 13 36.833 14.5 37.9997C13.6667 37.9997 11.5733 37.963 10.5 38.4998L10.4998 38.4999C9.49986 38.9999 8.50004 39.4999 8.99999 40.9997C9.47435 42.4227 10.5 42.9998 12 43.4998C13.2 43.8998 18.1667 44.1664 20.5 43.9997Z" fill="#1D8CE0"/>
</svg>
