<svg width="50" height="50" viewBox="0 0 50 50" fill="none" xmlns="http://www.w3.org/2000/svg">
<path d="M12 15C12 15 17 17 26 17C35 17 40 15 40 15V43C40 43 35 46 26 46C17 46 12 43 12 43V15Z" fill="#1D8CE0"/>
<path d="M40 20H46.4C46.6667 20 47.28 20.0789 47.6 20.3947C47.92 20.7105 48 21.3158 48 21.5789V33.4211C48 33.6842 47.92 34.2895 47.6 34.6053C47.28 34.9211 46.6667 35 46.4 35H40" stroke="#1D8CE0" stroke-width="3"/>
<path d="M6 15H0L12 33V20.6842L6 15Z" fill="#1D8CE0"/>
<path d="M12 12C12 12 17 14.7273 26 14.7273C35 14.7273 40 12 40 12V16C40 16 35 19 26 19C17 19 12 16 12 16V12Z" fill="#1D8CE0"/>
<path d="M12 12C12 12 17 14.7273 26 14.7273C35 14.7273 40 12 40 12V16C40 16 35 19 26 19C17 19 12 16 12 16V12Z" fill="white" fill-opacity="0.8"/>
<path d="M40 12C40 13 33.732 15 26 15C18.268 15 12 13 12 12C12 11 18.268 9 26 9C33.732 9 40 11 40 12Z" fill="#1D8CE0"/>
<circle cx="26" cy="8.5" r="3.5" fill="#1D8CE0"/>
<circle cx="26" cy="8.5" r="3.5" fill="white" fill-opacity="0.8"/>
</svg>
