<svg width="51" height="51" viewBox="0 0 51 51" fill="none" xmlns="http://www.w3.org/2000/svg">
<path fill-rule="evenodd" clip-rule="evenodd" d="M31.6567 6.08764C29.4356 5.74732 27.5458 5.60988 26.832 5.60988C26.7414 5.60988 26.6422 5.60967 26.5349 5.60945C24.2503 5.6046 18.289 5.59195 13.5666 7.43652C8.6008 9.37619 1.30297 15.2289 0.591505 24.9554C0.311873 28.7783 0.702742 32.7563 1.36188 36.1671C2.01896 39.5672 2.95412 42.4621 3.79694 44.1082L5.13209 43.4245C4.37881 41.9534 3.47784 39.2108 2.83463 35.8825C2.19349 32.5648 1.8199 28.7233 2.08751 25.0648C2.74413 16.0881 9.50159 10.6347 14.1124 8.83372C18.5579 7.09728 24.2647 7.10606 26.5608 7.1096L26.832 7.10988C27.4466 7.10988 29.1749 7.2335 31.2412 7.54182L31.6567 6.08764ZM33.7902 7.99533L34.2033 6.54948C34.5708 6.62746 34.9389 6.71098 35.3042 6.80031C37.0829 7.23525 38.8535 7.82086 40.1965 8.60548C41.5077 9.37153 42.631 10.4627 42.631 11.9709C42.631 13.3412 41.9011 14.5278 40.9313 15.5386C39.9576 16.5532 38.6564 17.48 37.3291 18.3355C36.672 18.759 35.9971 19.1723 35.3418 19.5734L35.3418 19.5734L35.3106 19.5925C34.6426 20.0015 33.9965 20.3973 33.3949 20.7878C32.1725 21.5813 31.2169 22.3014 30.6752 22.9786C29.631 24.2838 28.7493 26.6113 28.8002 28.89C28.8501 31.1244 29.7832 33.2199 32.2691 34.3248C32.3773 34.3728 32.4844 34.4189 32.5904 34.463C32.5703 32.1658 33.1479 29.9445 34.5096 28.2845C36.406 25.9726 38.5808 25.3127 40.389 25.8918C42.1458 26.4545 43.3395 28.1377 43.3395 30.0101C43.3395 31.796 42.3893 34.083 40.4321 35.4947C38.9117 36.5913 36.8539 37.1136 34.291 36.5692C34.7305 39.0434 35.8688 41.4903 37.5132 43.2551C40.4407 46.3967 44.6183 48.0101 50.0895 48.0101V49.5101C44.3107 49.5101 39.6934 47.795 36.4158 44.2776C34.4235 42.1396 33.1274 39.1774 32.7243 36.2631C32.7175 36.2137 32.7109 36.1643 32.7046 36.1149C32.3639 35.9931 32.0157 35.8536 31.6599 35.6955C28.5208 34.3003 27.3601 31.5912 27.3006 28.9234C27.242 26.2998 28.2353 23.6273 29.5039 22.0416C30.2121 21.1563 31.3554 20.3233 32.5783 19.5296C33.1993 19.1265 33.8625 18.7203 34.5274 18.3132L34.5518 18.2983L34.5522 18.298C35.212 17.8941 35.8742 17.4887 36.5164 17.0748C37.8244 16.2316 39.0023 15.3823 39.849 14.5C40.6994 13.6137 41.131 12.7826 41.131 11.9709C41.131 11.297 40.6297 10.5958 39.4398 9.90064C38.2817 9.22406 36.6749 8.67968 34.9479 8.25738C34.5637 8.16345 34.1765 8.07621 33.7902 7.99533ZM39.5547 34.2781C38.3459 35.1499 36.5645 35.6406 34.1067 34.984C33.9862 32.7351 34.4943 30.6683 35.6694 29.2358C37.2949 27.2541 38.87 26.9804 39.9314 27.3204C41.0442 27.6768 41.8395 28.7654 41.8395 30.0101C41.8395 31.3415 41.0991 33.1641 39.5547 34.2781Z" fill="#1D8CE0"/>
<path fill-rule="evenodd" clip-rule="evenodd" d="M31.6567 6.08764C29.4356 5.74732 27.5458 5.60988 26.832 5.60988C26.7414 5.60988 26.6422 5.60967 26.5349 5.60945C24.2503 5.6046 18.289 5.59195 13.5666 7.43652C8.6008 9.37619 1.30297 15.2289 0.591505 24.9554C0.311873 28.7783 0.702742 32.7563 1.36188 36.1671C2.01896 39.5672 2.95412 42.4621 3.79694 44.1082L5.13209 43.4245C4.37881 41.9534 3.47784 39.2108 2.83463 35.8825C2.19349 32.5648 1.8199 28.7233 2.08751 25.0648C2.74413 16.0881 9.50159 10.6347 14.1124 8.83372C18.5579 7.09728 24.2647 7.10606 26.5608 7.1096L26.832 7.10988C27.4466 7.10988 29.1749 7.2335 31.2412 7.54182L31.6567 6.08764ZM33.7902 7.99533L34.2033 6.54948C34.5708 6.62746 34.9389 6.71098 35.3042 6.80031C37.0829 7.23525 38.8535 7.82086 40.1965 8.60548C41.5077 9.37153 42.631 10.4627 42.631 11.9709C42.631 13.3412 41.9011 14.5278 40.9313 15.5386C39.9576 16.5532 38.6564 17.48 37.3291 18.3355C36.672 18.759 35.9971 19.1723 35.3418 19.5734L35.3418 19.5734L35.3106 19.5925C34.6426 20.0015 33.9965 20.3973 33.3949 20.7878C32.1725 21.5813 31.2169 22.3014 30.6752 22.9786C29.631 24.2838 28.7493 26.6113 28.8002 28.89C28.8501 31.1244 29.7832 33.2199 32.2691 34.3248C32.3773 34.3728 32.4844 34.4189 32.5904 34.463C32.5703 32.1658 33.1479 29.9445 34.5096 28.2845C36.406 25.9726 38.5808 25.3127 40.389 25.8918C42.1458 26.4545 43.3395 28.1377 43.3395 30.0101C43.3395 31.796 42.3893 34.083 40.4321 35.4947C38.9117 36.5913 36.8539 37.1136 34.291 36.5692C34.7305 39.0434 35.8688 41.4903 37.5132 43.2551C40.4407 46.3967 44.6183 48.0101 50.0895 48.0101V49.5101C44.3107 49.5101 39.6934 47.795 36.4158 44.2776C34.4235 42.1396 33.1274 39.1774 32.7243 36.2631C32.7175 36.2137 32.7109 36.1643 32.7046 36.1149C32.3639 35.9931 32.0157 35.8536 31.6599 35.6955C28.5208 34.3003 27.3601 31.5912 27.3006 28.9234C27.242 26.2998 28.2353 23.6273 29.5039 22.0416C30.2121 21.1563 31.3554 20.3233 32.5783 19.5296C33.1993 19.1265 33.8625 18.7203 34.5274 18.3132L34.5518 18.2983L34.5522 18.298C35.212 17.8941 35.8742 17.4887 36.5164 17.0748C37.8244 16.2316 39.0023 15.3823 39.849 14.5C40.6994 13.6137 41.131 12.7826 41.131 11.9709C41.131 11.297 40.6297 10.5958 39.4398 9.90064C38.2817 9.22406 36.6749 8.67968 34.9479 8.25738C34.5637 8.16345 34.1765 8.07621 33.7902 7.99533ZM39.5547 34.2781C38.3459 35.1499 36.5645 35.6406 34.1067 34.984C33.9862 32.7351 34.4943 30.6683 35.6694 29.2358C37.2949 27.2541 38.87 26.9804 39.9314 27.3204C41.0442 27.6768 41.8395 28.7654 41.8395 30.0101C41.8395 31.3415 41.0991 33.1641 39.5547 34.2781Z" fill="white" fill-opacity="0.95"/>
<path fill-rule="evenodd" clip-rule="evenodd" d="M23.8395 10.6351C23.0808 13.417 21.3895 18.447 19.4423 24.2382C16.5772 32.7592 13.1579 42.9284 11.3395 50.0102C15.4558 43.0125 20.6565 31.9482 24.6778 23.3931C26.7622 18.9585 28.5298 15.1982 29.6651 13.0279C33.5798 5.54444 33.592 0.700382 30.9741 0.0515689C29.5044 -0.312672 27.9219 1.28709 26.5438 3.76007H28.53C29.0714 3.18307 29.623 2.9019 30.0895 3.13515C31.3395 3.76015 30.7145 6.88517 29.4645 9.38517C28.5806 11.1529 25.0895 17.5102 24.4645 17.5102C23.9623 17.008 25.0742 12.8741 25.8547 9.97202C25.9724 9.53448 26.0826 9.12494 26.1785 8.76007H24.4047C24.2002 9.37861 24.0109 10.0065 23.8395 10.6351Z" fill="#1D8CE0"/>
</svg>
