<svg width="50" height="50" viewBox="0 0 50 50" fill="none" xmlns="http://www.w3.org/2000/svg">
<path d="M21 10C21 7 22.6 1 29 1C35.4 1 37 7 37 10" stroke="#898989" stroke-width="2" stroke-linecap="round"/>
<path d="M21 10C21 7 22.6 1 29 1C35.4 1 37 7 37 10" stroke="white" stroke-opacity="0.6" stroke-width="2" stroke-linecap="round"/>
<rect x="6" y="11" width="32" height="39" fill="#D0333D"/>
<rect x="6" y="11" width="32" height="39" fill="black" fill-opacity="0.2"/>
<path d="M11.2006 23.5275C9.90985 21.2651 9.71624 18.7442 11.5233 17.7099C13.6779 16.4768 15.7183 18.0331 17.0091 20.2955" stroke="#FEFEFE" stroke-width="1.28"/>
<ellipse cx="7.3835" cy="1.93844" rx="7.3835" ry="1.93844" transform="matrix(0.865685 -0.500589 0.499411 0.866365 7.27765 24.7996)" fill="#898989"/>
<ellipse cx="7.3835" cy="1.93844" rx="7.3835" ry="1.93844" transform="matrix(0.865685 -0.500589 0.499411 0.866365 7.27765 24.7996)" fill="white" fill-opacity="0.8"/>
<path d="M13.7929 46.4683L8.31586 26.5291L20.7959 18.8491L35.7361 33.5403L13.7929 46.4683Z" fill="#898989"/>
<path d="M13.7929 46.4683L8.31586 26.5291L20.7959 18.8491L35.7361 33.5403L13.7929 46.4683Z" fill="white" fill-opacity="0.8"/>
<ellipse cx="12.7466" cy="4.13729" rx="12.7466" ry="4.13729" transform="matrix(0.865685 -0.500589 0.499411 0.866365 11.6776 42.766)" fill="#FEFEFE"/>
<ellipse cx="11.2987" cy="3.16301" rx="11.2987" ry="3.16301" transform="matrix(0.865685 -0.500589 0.499411 0.866365 13.4514 42.9439)" fill="#898989"/>
<ellipse cx="11.2987" cy="3.16301" rx="11.2987" ry="3.16301" transform="matrix(0.865685 -0.500589 0.499411 0.866365 13.4514 42.9439)" fill="white" fill-opacity="0.4"/>
<ellipse cx="25.4099" cy="40.3276" rx="1.93616" ry="1.9392" fill="#898989"/>
<ellipse cx="25.4099" cy="40.3276" rx="1.93616" ry="1.9392" fill="white" fill-opacity="0.95"/>
<path d="M23.4738 37.0956L25.0872 39.6812" stroke="#898989" stroke-width="1.28"/>
<path d="M23.4738 37.0956L25.0872 39.6812" stroke="white" stroke-opacity="0.95" stroke-width="1.28"/>
<path d="M25.0269 29.3669C24.8987 30.2197 23.958 30.2517 23.5248 31.1223C23.0915 31.9929 23.1266 32.4341 23.3594 33.0416C23.6028 33.6767 24.4832 34.3986 25.302 34.264C26.4619 34.0734 27.2787 33.8166 28.4706 32.4864C28.8225 31.9875 29.6502 30.4492 29.2431 29.3158C28.836 28.1824 28.0633 27.4636 27.5828 27.1782C27.2593 27.0662 26.835 26.7024 26.2001 26.7172C25.4064 26.7357 24.6896 27.2991 24.6561 27.8885C24.6179 28.5604 25.125 28.7148 25.0269 29.3669Z" fill="#898989"/>
<path d="M25.0269 29.3669C24.8987 30.2197 23.958 30.2517 23.5248 31.1223C23.0915 31.9929 23.1266 32.4341 23.3594 33.0416C23.6028 33.6767 24.4832 34.3986 25.302 34.264C26.4619 34.0734 27.2787 33.8166 28.4706 32.4864C28.8225 31.9875 29.6502 30.4492 29.2431 29.3158C28.836 28.1824 28.0633 27.4636 27.5828 27.1782C27.2593 27.0662 26.835 26.7024 26.2001 26.7172C25.4064 26.7357 24.6896 27.2991 24.6561 27.8885C24.6179 28.5604 25.125 28.7148 25.0269 29.3669Z" fill="white" fill-opacity="0.2"/>
<path d="M16.9966 19.4772C16.4145 19.7294 14.7483 20.4408 14.7483 20.536C14.7483 21.4044 15.0754 23.0352 16.6754 23.0352C17.9835 23.0352 16.7277 24.5334 18.2814 25.9259C19.8351 27.3184 21.4933 26.8356 22.1357 25.9259C22.7794 25.0166 22.3411 23.9654 21.8145 23.6776C21.1661 23.3231 22.0231 22.6425 22.1319 21.9456C22.2395 21.2476 22.3139 20.4571 21.5163 19.7294C20.9837 19.2438 20.0735 18.7474 19.2449 18.8349C18.7126 18.8911 17.6558 19.1917 16.9966 19.4772Z" fill="#898989"/>
<path d="M16.9966 19.4772C16.4145 19.7294 14.7483 20.4408 14.7483 20.536C14.7483 21.4044 15.0754 23.0352 16.6754 23.0352C17.9835 23.0352 16.7277 24.5334 18.2814 25.9259C19.8351 27.3184 21.4933 26.8356 22.1357 25.9259C22.7794 25.0166 22.3411 23.9654 21.8145 23.6776C21.1661 23.3231 22.0231 22.6425 22.1319 21.9456C22.2395 21.2476 22.3139 20.4571 21.5163 19.7294C20.9837 19.2438 20.0735 18.7474 19.2449 18.8349C18.7126 18.8911 17.6558 19.1917 16.9966 19.4772Z" fill="white" fill-opacity="0.2"/>
<path d="M11.3054 26.7694C10.0349 27.0031 8.96686 28.1742 8.96685 28.7791L10.894 35.8828C10.894 35.8828 12.474 37.0432 14.0864 37.4459C15.6989 37.8485 19.5264 38.4613 19.5264 36.4859C19.5264 35.7613 18.3319 35.5414 18.1686 35.0187C18.0053 34.496 19.3019 34.2585 20.0297 33.229C20.4505 32.6337 20.4845 30.9531 18.8731 30.5397C17.1328 30.0933 15.7219 31.5042 15.2669 30.9002C14.8119 30.2961 15.5056 29.8913 15.1401 28.7791C14.6792 27.3768 13.5773 26.3514 11.3054 26.7694Z" fill="#898989"/>
<path d="M11.3054 26.7694C10.0349 27.0031 8.96686 28.1742 8.96685 28.7791L10.894 35.8828C10.894 35.8828 12.474 37.0432 14.0864 37.4459C15.6989 37.8485 19.5264 38.4613 19.5264 36.4859C19.5264 35.7613 18.3319 35.5414 18.1686 35.0187C18.0053 34.496 19.3019 34.2585 20.0297 33.229C20.4505 32.6337 20.4845 30.9531 18.8731 30.5397C17.1328 30.0933 15.7219 31.5042 15.2669 30.9002C14.8119 30.2961 15.5056 29.8913 15.1401 28.7791C14.6792 27.3768 13.5773 26.3514 11.3054 26.7694Z" fill="white" fill-opacity="0.2"/>
<path d="M12 7L6 11H38L44 7H12Z" fill="#898989"/>
<path d="M12 7L6 11H38L44 7H12Z" fill="black" fill-opacity="0.2"/>
<path d="M14 13.5C14 10.5 15.6 4.5 22 4.5C28.4 4.5 30 10.5 30 13.5" stroke="#898989" stroke-width="2" stroke-linecap="round"/>
<path d="M14 13.5C14 10.5 15.6 4.5 22 4.5C28.4 4.5 30 10.5 30 13.5" stroke="white" stroke-opacity="0.95" stroke-width="2" stroke-linecap="round"/>
<path d="M44 7L38 11V50L44 46V26.5V7Z" fill="#D0333D"/>
<path d="M44 7L38 11V50L44 46V26.5V7Z" fill="white" fill-opacity="0.15"/>
<path d="M12 7L6 11H12V7Z" fill="#898989"/>
<path d="M12 7L6 11H12V7Z" fill="white" fill-opacity="0.2"/>
</svg>
