<svg width="50" height="50" viewBox="0 0 50 50" fill="none" xmlns="http://www.w3.org/2000/svg">
<path d="M14.0792 11.0779C13.6467 9.70202 10 6.5 7.51721 5C9 7 10.2954 9.62823 11 11.5C11.7046 13.3718 13.3737 14.6914 14.0604 14.7179L15.5 16.5L16 16L14.6009 14C14.6941 13.68 14.5116 12.4537 14.0792 11.0779Z" fill="#2FC4A7"/>
<path d="M39.4599 26.4429C41.159 24.3575 41.7798 19.9616 41.8778 18.0244C41.5353 18.5961 40.6379 20.0003 39.7883 21.0429C38.7264 22.3462 36.8874 23.6946 35.8599 25.4098C35.0379 26.782 34.9244 28.2235 34.9704 28.7727L32.1385 32.2482L33.3039 32.1807L35.3934 29.1621C36.0409 29.1246 37.7607 28.5282 39.4599 26.4429Z" fill="#2FC4A7"/>
<path d="M39.4599 26.4429C41.159 24.3575 41.7798 19.9616 41.8778 18.0244C41.5353 18.5961 40.6379 20.0003 39.7883 21.0429C38.7264 22.3462 36.8874 23.6946 35.8599 25.4098C35.0379 26.782 34.9244 28.2235 34.9704 28.7727L32.1385 32.2482L33.3039 32.1807L35.3934 29.1621C36.0409 29.1246 37.7607 28.5282 39.4599 26.4429Z" fill="black" fill-opacity="0.2"/>
<path d="M42.8498 29.2991C45.9093 27.9189 48.8914 23.3804 50 21.2837C49.3056 21.73 47.5345 22.7951 46.0047 23.4853C44.0925 24.3479 41.2474 24.8331 39.1643 26.172C37.4978 27.2431 36.6254 28.7809 36.3975 29.4159L31.2984 31.7162L32.6978 32.2823L36.6931 30.0808C37.4705 30.3953 39.7903 30.6793 42.8498 29.2991Z" fill="#2FC4A7"/>
<path d="M10.4536 32.5494C8.14659 30.8457 2.52328 30.3946 0 30.382C2.29247 32.0262 7.32136 35.584 9.09716 36.6616C10.8729 37.7392 13.1003 37.5722 13.9919 37.354L16.4299 39.5927L16.6575 38.5919L14.3287 36.7991C13.9983 36.0924 12.7606 34.2531 10.4536 32.5494Z" fill="#2FC4A7"/>
<path d="M18.5 0C17.2273 0 15.5303 0.526316 15 1C15.1061 2.57895 15.6364 6.82105 15.6364 9.47368C15.6364 12.1263 15.3182 15.7368 15 17C15.4242 17.4737 16.4636 18 18.5 18C20.5364 18 21.6818 17.4737 22 17C21.7879 15.8947 21.3636 12.5053 21.3636 9.47368C21.3636 6.44211 21.7879 2.42105 22 1C21.3636 0.526316 19.7727 0 18.5 0Z" fill="#2FC4A7"/>
<path d="M18.5 0C17.2273 0 15.5303 0.526316 15 1C15.1061 2.57895 15.6364 6.82105 15.6364 9.47368C15.6364 12.1263 15.3182 15.7368 15 17C15.4242 17.4737 16.4636 18 18.5 18C20.5364 18 21.6818 17.4737 22 17C21.7879 15.8947 21.3636 12.5053 21.3636 9.47368C21.3636 6.44211 21.7879 2.42105 22 1C21.3636 0.526316 19.7727 0 18.5 0Z" fill="black" fill-opacity="0.4"/>
<path d="M18.5 19C17.5261 19 15.7101 18.5161 15 18C15.2029 19.2043 15.913 22.2323 15.913 24.7097C15.913 27.1871 15.2029 31.4516 15 33C15.5072 33.3441 17.0391 34 18.5 34C19.9609 34 21.4928 33.3441 22 33C21.7971 31.4516 21.3913 27.1871 21.3913 24.7097C21.3913 22.2323 21.7971 19.2043 22 18C21.2899 18.5161 19.4739 19 18.5 19Z" fill="#2FC4A7"/>
<path d="M18.5 19C17.5261 19 15.7101 18.5161 15 18C15.2029 19.2043 15.913 22.2323 15.913 24.7097C15.913 27.1871 15.2029 31.4516 15 33C15.5072 33.3441 17.0391 34 18.5 34C19.9609 34 21.4928 33.3441 22 33C21.7971 31.4516 21.3913 27.1871 21.3913 24.7097C21.3913 22.2323 21.7971 19.2043 22 18C21.2899 18.5161 19.4739 19 18.5 19Z" fill="black" fill-opacity="0.4"/>
<path d="M18.5 35C17.5261 35 15.7101 34.4516 15 34C15.2029 35.4839 15.913 38.7484 15.913 41.2258C15.913 43.7032 15.3043 47.4194 15 48.9677C15.6087 49.3118 17.0391 50 18.5 50C19.9609 50 21.4928 49.3118 22 48.9677C21.7971 47.5914 21.3913 44.1161 21.3913 41.2258C21.3913 38.3355 21.7971 35.3118 22 34C21.2899 34.4516 19.4739 35 18.5 35Z" fill="#2FC4A7"/>
<path d="M18.5 35C17.5261 35 15.7101 34.4516 15 34C15.2029 35.4839 15.913 38.7484 15.913 41.2258C15.913 43.7032 15.3043 47.4194 15 48.9677C15.6087 49.3118 17.0391 50 18.5 50C19.9609 50 21.4928 49.3118 22 48.9677C21.7971 47.5914 21.3913 44.1161 21.3913 41.2258C21.3913 38.3355 21.7971 35.3118 22 34C21.2899 34.4516 19.4739 35 18.5 35Z" fill="black" fill-opacity="0.4"/>
<path d="M30.5 0C29.2273 0 27.5303 0.526316 27 1C27.1061 2.57895 27.6364 6.82105 27.6364 9.47368C27.6364 12.1263 27.3182 15.7368 27 17C27.4242 17.4737 28.4636 18 30.5 18C32.5364 18 33.6818 17.4737 34 17C33.7879 15.8947 33.3636 12.5053 33.3636 9.47368C33.3636 6.44211 33.7879 2.42105 34 1C33.3636 0.526316 31.7727 0 30.5 0Z" fill="#2FC4A7"/>
<path d="M30.5 0C29.2273 0 27.5303 0.526316 27 1C27.1061 2.57895 27.6364 6.82105 27.6364 9.47368C27.6364 12.1263 27.3182 15.7368 27 17C27.4242 17.4737 28.4636 18 30.5 18C32.5364 18 33.6818 17.4737 34 17C33.7879 15.8947 33.3636 12.5053 33.3636 9.47368C33.3636 6.44211 33.7879 2.42105 34 1C33.3636 0.526316 31.7727 0 30.5 0Z" fill="black" fill-opacity="0.4"/>
<path d="M30.5 19C29.5261 19 27.7101 18.5161 27 18C27.2029 19.2043 27.913 22.2323 27.913 24.7097C27.913 27.1871 27.2029 31.4516 27 33C27.5072 33.3441 29.0391 34 30.5 34C31.9609 34 33.4928 33.3441 34 33C33.7971 31.4516 33.3913 27.1871 33.3913 24.7097C33.3913 22.2323 33.7971 19.2043 34 18C33.2899 18.5161 31.4739 19 30.5 19Z" fill="#2FC4A7"/>
<path d="M30.5 19C29.5261 19 27.7101 18.5161 27 18C27.2029 19.2043 27.913 22.2323 27.913 24.7097C27.913 27.1871 27.2029 31.4516 27 33C27.5072 33.3441 29.0391 34 30.5 34C31.9609 34 33.4928 33.3441 34 33C33.7971 31.4516 33.3913 27.1871 33.3913 24.7097C33.3913 22.2323 33.7971 19.2043 34 18C33.2899 18.5161 31.4739 19 30.5 19Z" fill="black" fill-opacity="0.4"/>
<path d="M30.5 35C29.5261 35 27.7101 34.4516 27 34C27.2029 35.4839 27.913 38.7484 27.913 41.2258C27.913 43.7032 27.3043 47.4194 27 48.9677C27.6087 49.3118 29.0391 50 30.5 50C31.9609 50 33.4928 49.3118 34 48.9677C33.7971 47.5914 33.3913 44.1161 33.3913 41.2258C33.3913 38.3355 33.7971 35.3118 34 34C33.2899 34.4516 31.4739 35 30.5 35Z" fill="#2FC4A7"/>
<path d="M30.5 35C29.5261 35 27.7101 34.4516 27 34C27.2029 35.4839 27.913 38.7484 27.913 41.2258C27.913 43.7032 27.3043 47.4194 27 48.9677C27.6087 49.3118 29.0391 50 30.5 50C31.9609 50 33.4928 49.3118 34 48.9677C33.7971 47.5914 33.3913 44.1161 33.3913 41.2258C33.3913 38.3355 33.7971 35.3118 34 34C33.2899 34.4516 31.4739 35 30.5 35Z" fill="black" fill-opacity="0.4"/>
</svg>
