<svg width="50" height="50" viewBox="0 0 50 50" fill="none" xmlns="http://www.w3.org/2000/svg">
        <g clip-path="url(#aeaa)">
            <path
                d="m26.593.753.231.017h.011v.001c.904.136 1.742.75 2.486 1.565.75.82 1.432 1.874 2.02 2.948 1.179 2.15 2.004 4.42 2.253 5.166.502 1.507-.39 3.41-2.167 4.235.378.257.841.576 1.285.896.607.438 1.198.887 1.477 1.166.114.114.237.323.365.575.133.263.285.605.453 1.013.336.816.737 1.908 1.169 3.182.863 2.547 1.85 5.833 2.67 9.12.816 3.261 1.914 5.985 3.069 7.99.577 1.004 1.167 1.823 1.737 2.438.573.618 1.117 1.019 1.6 1.205l-.067.482c-2.512.218-8.143.657-10.517.657-.685 0-1.446.24-2.259.597-.814.358-1.644.815-2.485 1.241-.831.42-1.67.808-2.462.992-.796.185-1.578.173-2.269-.242-1.214-.728-3.085-1.624-5.02-2.337-1.941-.715-3.915-1.234-5.345-1.234-1.272 0-2.56-.76-3.629-1.658a14.728 14.728 0 0 1-2.48-2.713l-.14-.204.201-.143c.663-.468 1.36-1.25 2.054-2.233.69-.98 1.367-2.142 1.988-3.355 1.244-2.426 2.263-5.034 2.75-6.738.492-1.725 1.076-3.63 1.573-5.179.248-.774.475-1.46.659-1.99.18-.521.326-.91.408-1.073.103-.207.316-.445.57-.681.26-.243.587-.506.94-.763a13.405 13.405 0 0 1 1.728-1.068 7.175 7.175 0 0 1-1.201-.781c-.605-.49-1.183-1.147-1.4-1.94-.075-.277-.066-.665-.004-1.104.063-.448.184-.978.357-1.555a19.709 19.709 0 0 1 1.617-3.8c.715-1.286 1.598-2.512 2.604-3.388.942-.822 2.015-1.354 3.17-1.307Z"
                fill="#898989" />
            <path
                d="m26.593.753.231.017h.011v.001c.904.136 1.742.75 2.486 1.565.75.82 1.432 1.874 2.02 2.948 1.179 2.15 2.004 4.42 2.253 5.166.502 1.507-.39 3.41-2.167 4.235.378.257.841.576 1.285.896.607.438 1.198.887 1.477 1.166.114.114.237.323.365.575.133.263.285.605.453 1.013.336.816.737 1.908 1.169 3.182.863 2.547 1.85 5.833 2.67 9.12.816 3.261 1.914 5.985 3.069 7.99.577 1.004 1.167 1.823 1.737 2.438.573.618 1.117 1.019 1.6 1.205l-.067.482c-2.512.218-8.143.657-10.517.657-.685 0-1.446.24-2.259.597-.814.358-1.644.815-2.485 1.241-.831.42-1.67.808-2.462.992-.796.185-1.578.173-2.269-.242-1.214-.728-3.085-1.624-5.02-2.337-1.941-.715-3.915-1.234-5.345-1.234-1.272 0-2.56-.76-3.629-1.658a14.728 14.728 0 0 1-2.48-2.713l-.14-.204.201-.143c.663-.468 1.36-1.25 2.054-2.233.69-.98 1.367-2.142 1.988-3.355 1.244-2.426 2.263-5.034 2.75-6.738.492-1.725 1.076-3.63 1.573-5.179.248-.774.475-1.46.659-1.99.18-.521.326-.91.408-1.073.103-.207.316-.445.57-.681.26-.243.587-.506.94-.763a13.405 13.405 0 0 1 1.728-1.068 7.175 7.175 0 0 1-1.201-.781c-.605-.49-1.183-1.147-1.4-1.94-.075-.277-.066-.665-.004-1.104.063-.448.184-.978.357-1.555a19.709 19.709 0 0 1 1.617-3.8c.715-1.286 1.598-2.512 2.604-3.388.942-.822 2.015-1.354 3.17-1.307Z"
                fill="#fff" fill-opacity=".2" />
            <path
                d="m26.593.753.231.017h.011v.001c.904.136 1.742.75 2.486 1.565.75.82 1.432 1.874 2.02 2.948 1.179 2.15 2.004 4.42 2.253 5.166.502 1.507-.39 3.41-2.167 4.235.378.257.841.576 1.285.896.607.438 1.198.887 1.477 1.166.114.114.237.323.365.575.133.263.285.605.453 1.013.336.816.737 1.908 1.169 3.182.863 2.547 1.85 5.833 2.67 9.12.816 3.261 1.914 5.985 3.069 7.99.577 1.004 1.167 1.823 1.737 2.438.573.618 1.117 1.019 1.6 1.205l-.067.482c-2.512.218-8.143.657-10.517.657-.685 0-1.446.24-2.259.597-.814.358-1.644.815-2.485 1.241-.831.42-1.67.808-2.462.992-.796.185-1.578.173-2.269-.242-1.214-.728-3.085-1.624-5.02-2.337-1.941-.715-3.915-1.234-5.345-1.234-1.272 0-2.56-.76-3.629-1.658a14.728 14.728 0 0 1-2.48-2.713l-.14-.204.201-.143c.663-.468 1.36-1.25 2.054-2.233.69-.98 1.367-2.142 1.988-3.355 1.244-2.426 2.263-5.034 2.75-6.738.492-1.725 1.076-3.63 1.573-5.179.248-.774.475-1.46.659-1.99.18-.521.326-.91.408-1.073.103-.207.316-.445.57-.681.26-.243.587-.506.94-.763a13.405 13.405 0 0 1 1.728-1.068 7.175 7.175 0 0 1-1.201-.781c-.605-.49-1.183-1.147-1.4-1.94-.075-.277-.066-.665-.004-1.104.063-.448.184-.978.357-1.555a19.709 19.709 0 0 1 1.617-3.8c.715-1.286 1.598-2.512 2.604-3.388.942-.822 2.015-1.354 3.17-1.307Z"
                stroke="#898989" stroke-width=".5" />
            <path
                d="m26.593.753.231.017h.011v.001c.904.136 1.742.75 2.486 1.565.75.82 1.432 1.874 2.02 2.948 1.179 2.15 2.004 4.42 2.253 5.166.502 1.507-.39 3.41-2.167 4.235.378.257.841.576 1.285.896.607.438 1.198.887 1.477 1.166.114.114.237.323.365.575.133.263.285.605.453 1.013.336.816.737 1.908 1.169 3.182.863 2.547 1.85 5.833 2.67 9.12.816 3.261 1.914 5.985 3.069 7.99.577 1.004 1.167 1.823 1.737 2.438.573.618 1.117 1.019 1.6 1.205l-.067.482c-2.512.218-8.143.657-10.517.657-.685 0-1.446.24-2.259.597-.814.358-1.644.815-2.485 1.241-.831.42-1.67.808-2.462.992-.796.185-1.578.173-2.269-.242-1.214-.728-3.085-1.624-5.02-2.337-1.941-.715-3.915-1.234-5.345-1.234-1.272 0-2.56-.76-3.629-1.658a14.728 14.728 0 0 1-2.48-2.713l-.14-.204.201-.143c.663-.468 1.36-1.25 2.054-2.233.69-.98 1.367-2.142 1.988-3.355 1.244-2.426 2.263-5.034 2.75-6.738.492-1.725 1.076-3.63 1.573-5.179.248-.774.475-1.46.659-1.99.18-.521.326-.91.408-1.073.103-.207.316-.445.57-.681.26-.243.587-.506.94-.763a13.405 13.405 0 0 1 1.728-1.068 7.175 7.175 0 0 1-1.201-.781c-.605-.49-1.183-1.147-1.4-1.94-.075-.277-.066-.665-.004-1.104.063-.448.184-.978.357-1.555a19.709 19.709 0 0 1 1.617-3.8c.715-1.286 1.598-2.512 2.604-3.388.942-.822 2.015-1.354 3.17-1.307Z"
                stroke="#fff" stroke-opacity=".4" stroke-width=".5" />
            <path
                d="m26.593.753.231.017h.011v.001c.904.136 1.742.75 2.486 1.565.75.82 1.432 1.874 2.02 2.948 1.179 2.15 2.004 4.42 2.253 5.166.502 1.507-.39 3.41-2.167 4.235.378.257.841.576 1.285.896.607.438 1.198.887 1.477 1.166.114.114.237.323.365.575.133.263.285.605.453 1.013.336.816.737 1.908 1.169 3.182.863 2.547 1.85 5.833 2.67 9.12 1.631 6.522 3.662 8.774 5.493 9.995.674.45 1.667.724 2.592.862.458.069.893.103 1.25.11.364.008.628-.014.759-.046l.568-.143-.291.509c-.242.424-.621 1.384-1.486 2.195-.582.547-1.384 1.032-2.516 1.285-1.422.319-2.866.115-3.732.037-1.076-.096-1.873-.165-2.813.091-.494.135-.991.451-1.517.86-.267.209-.536.437-.813.671-.96.812-2.03 1.727-3.274 1.918-.886.137-1.938.08-2.881-.044a17.743 17.743 0 0 1-2.306-.454l-.243-.067.07-.242c.075-.265.157-.787.24-1.489.08-.695.16-1.549.234-2.467.147-1.837.27-3.925.336-5.496.084-2.028-.007-6.26-.183-10.216-.164-3.684-.4-7.092-.633-8.254a53.341 53.341 0 0 0-1.255-4.91c-.326.876-.668 2.108-.99 3.475a77.294 77.294 0 0 0-1.034 5.262c-.325 2.033-.448 5.414-.427 8.6.021 3.174.185 6.116.425 7.316.186.932.38 2.579.563 4.154.106.903.209 1.786.307 2.508.1.732.192 1.27.27 1.506l.08.243-.244.075c-.402.124-.958.268-1.602.398-1.67.336-3.986.586-5.753.096-1.537-.428-2.559-1.201-3.487-1.903-.919-.694-1.734-1.305-2.89-1.536-1.814-.363-4.014-.802-5.976-1.789a10.278 10.278 0 0 1-1.967-1.275C2.105 41.126 1.108 39.27.773 38.545l-.298-.648.636.32c.913.456 2.293.714 3.726.66 1.432-.054 2.88-.42 3.943-1.169.663-.468 1.36-1.25 2.054-2.233.69-.98 1.367-2.142 1.988-3.355 1.244-2.426 2.263-5.034 2.75-6.738.492-1.725 1.076-3.63 1.573-5.179.248-.774.475-1.46.659-1.99.18-.521.326-.91.408-1.073.103-.207.316-.445.57-.681.26-.243.587-.506.94-.763a13.405 13.405 0 0 1 1.728-1.068 7.171 7.171 0 0 1-1.201-.781c-.605-.49-1.183-1.147-1.4-1.94-.075-.277-.066-.665-.004-1.104.063-.448.184-.978.357-1.555a19.709 19.709 0 0 1 1.617-3.8c.715-1.286 1.598-2.512 2.604-3.388.942-.822 2.015-1.354 3.17-1.307Zm-.451 4.615c-.386 0-.745.23-1.12.67-.374.438-.724 1.037-1.104 1.689-.306.525-.628 1.08-.987 1.577-.36.497-.764.95-1.242 1.27-.468.312-.545.933-.285 1.607.259.67.804 1.247 1.355 1.384.348.088.762.09 1.203.047.44-.043.89-.13 1.31-.21.445-.087.879-.171 1.198-.171.399 0 .883.054 1.37.109.602.068 1.216.137 1.747.122.544-.015.928-.117 1.134-.322.45-.451.705-1.046.705-1.586 0-.53-.241-1.011-.805-1.293-.465-.233-.846-.625-1.176-1.069-.33-.443-.624-.96-.907-1.456-.363-.635-.705-1.233-1.1-1.676-.39-.439-.801-.692-1.296-.692Z"
                fill="#898989" />
            <path
                d="m26.593.753.231.017h.011v.001c.904.136 1.742.75 2.486 1.565.75.82 1.432 1.874 2.02 2.948 1.179 2.15 2.004 4.42 2.253 5.166.502 1.507-.39 3.41-2.167 4.235.378.257.841.576 1.285.896.607.438 1.198.887 1.477 1.166.114.114.237.323.365.575.133.263.285.605.453 1.013.336.816.737 1.908 1.169 3.182.863 2.547 1.85 5.833 2.67 9.12 1.631 6.522 3.662 8.774 5.493 9.995.674.45 1.667.724 2.592.862.458.069.893.103 1.25.11.364.008.628-.014.759-.046l.568-.143-.291.509c-.242.424-.621 1.384-1.486 2.195-.582.547-1.384 1.032-2.516 1.285-1.422.319-2.866.115-3.732.037-1.076-.096-1.873-.165-2.813.091-.494.135-.991.451-1.517.86-.267.209-.536.437-.813.671-.96.812-2.03 1.727-3.274 1.918-.886.137-1.938.08-2.881-.044a17.743 17.743 0 0 1-2.306-.454l-.243-.067.07-.242c.075-.265.157-.787.24-1.489.08-.695.16-1.549.234-2.467.147-1.837.27-3.925.336-5.496.084-2.028-.007-6.26-.183-10.216-.164-3.684-.4-7.092-.633-8.254a53.341 53.341 0 0 0-1.255-4.91c-.326.876-.668 2.108-.99 3.475a77.294 77.294 0 0 0-1.034 5.262c-.325 2.033-.448 5.414-.427 8.6.021 3.174.185 6.116.425 7.316.186.932.38 2.579.563 4.154.106.903.209 1.786.307 2.508.1.732.192 1.27.27 1.506l.08.243-.244.075c-.402.124-.958.268-1.602.398-1.67.336-3.986.586-5.753.096-1.537-.428-2.559-1.201-3.487-1.903-.919-.694-1.734-1.305-2.89-1.536-1.814-.363-4.014-.802-5.976-1.789a10.278 10.278 0 0 1-1.967-1.275C2.105 41.126 1.108 39.27.773 38.545l-.298-.648.636.32c.913.456 2.293.714 3.726.66 1.432-.054 2.88-.42 3.943-1.169.663-.468 1.36-1.25 2.054-2.233.69-.98 1.367-2.142 1.988-3.355 1.244-2.426 2.263-5.034 2.75-6.738.492-1.725 1.076-3.63 1.573-5.179.248-.774.475-1.46.659-1.99.18-.521.326-.91.408-1.073.103-.207.316-.445.57-.681.26-.243.587-.506.94-.763a13.405 13.405 0 0 1 1.728-1.068 7.171 7.171 0 0 1-1.201-.781c-.605-.49-1.183-1.147-1.4-1.94-.075-.277-.066-.665-.004-1.104.063-.448.184-.978.357-1.555a19.709 19.709 0 0 1 1.617-3.8c.715-1.286 1.598-2.512 2.604-3.388.942-.822 2.015-1.354 3.17-1.307Zm-.451 4.615c-.386 0-.745.23-1.12.67-.374.438-.724 1.037-1.104 1.689-.306.525-.628 1.08-.987 1.577-.36.497-.764.95-1.242 1.27-.468.312-.545.933-.285 1.607.259.67.804 1.247 1.355 1.384.348.088.762.09 1.203.047.44-.043.89-.13 1.31-.21.445-.087.879-.171 1.198-.171.399 0 .883.054 1.37.109.602.068 1.216.137 1.747.122.544-.015.928-.117 1.134-.322.45-.451.705-1.046.705-1.586 0-.53-.241-1.011-.805-1.293-.465-.233-.846-.625-1.176-1.069-.33-.443-.624-.96-.907-1.456-.363-.635-.705-1.233-1.1-1.676-.39-.439-.801-.692-1.296-.692Z"
                fill="#fff" fill-opacity=".8" />
            <path
                d="m26.593.753.231.017h.011v.001c.904.136 1.742.75 2.486 1.565.75.82 1.432 1.874 2.02 2.948 1.179 2.15 2.004 4.42 2.253 5.166.502 1.507-.39 3.41-2.167 4.235.378.257.841.576 1.285.896.607.438 1.198.887 1.477 1.166.114.114.237.323.365.575.133.263.285.605.453 1.013.336.816.737 1.908 1.169 3.182.863 2.547 1.85 5.833 2.67 9.12 1.631 6.522 3.662 8.774 5.493 9.995.674.45 1.667.724 2.592.862.458.069.893.103 1.25.11.364.008.628-.014.759-.046l.568-.143-.291.509c-.242.424-.621 1.384-1.486 2.195-.582.547-1.384 1.032-2.516 1.285-1.422.319-2.866.115-3.732.037-1.076-.096-1.873-.165-2.813.091-.494.135-.991.451-1.517.86-.267.209-.536.437-.813.671-.96.812-2.03 1.727-3.274 1.918-.886.137-1.938.08-2.881-.044a17.743 17.743 0 0 1-2.306-.454l-.243-.067.07-.242c.075-.265.157-.787.24-1.489.08-.695.16-1.549.234-2.467.147-1.837.27-3.925.336-5.496.084-2.028-.007-6.26-.183-10.216-.164-3.684-.4-7.092-.633-8.254a53.341 53.341 0 0 0-1.255-4.91c-.326.876-.668 2.108-.99 3.475a77.294 77.294 0 0 0-1.034 5.262c-.325 2.033-.448 5.414-.427 8.6.021 3.174.185 6.116.425 7.316.186.932.38 2.579.563 4.154.106.903.209 1.786.307 2.508.1.732.192 1.27.27 1.506l.08.243-.244.075c-.402.124-.958.268-1.602.398-1.67.336-3.986.586-5.753.096-1.537-.428-2.559-1.201-3.487-1.903-.919-.694-1.734-1.305-2.89-1.536-1.814-.363-4.014-.802-5.976-1.789a10.278 10.278 0 0 1-1.967-1.275C2.105 41.126 1.108 39.27.773 38.545l-.298-.648.636.32c.913.456 2.293.714 3.726.66 1.432-.054 2.88-.42 3.943-1.169.663-.468 1.36-1.25 2.054-2.233.69-.98 1.367-2.142 1.988-3.355 1.244-2.426 2.263-5.034 2.75-6.738.492-1.725 1.076-3.63 1.573-5.179.248-.774.475-1.46.659-1.99.18-.521.326-.91.408-1.073.103-.207.316-.445.57-.681.26-.243.587-.506.94-.763a13.405 13.405 0 0 1 1.728-1.068 7.171 7.171 0 0 1-1.201-.781c-.605-.49-1.183-1.147-1.4-1.94-.075-.277-.066-.665-.004-1.104.063-.448.184-.978.357-1.555a19.709 19.709 0 0 1 1.617-3.8c.715-1.286 1.598-2.512 2.604-3.388.942-.822 2.015-1.354 3.17-1.307Zm-.451 4.615c-.386 0-.745.23-1.12.67-.374.438-.724 1.037-1.104 1.689-.306.525-.628 1.08-.987 1.577-.36.497-.764.95-1.242 1.27-.468.312-.545.933-.285 1.607.259.67.804 1.247 1.355 1.384.348.088.762.09 1.203.047.44-.043.89-.13 1.31-.21.445-.087.879-.171 1.198-.171.399 0 .883.054 1.37.109.602.068 1.216.137 1.747.122.544-.015.928-.117 1.134-.322.45-.451.705-1.046.705-1.586 0-.53-.241-1.011-.805-1.293-.465-.233-.846-.625-1.176-1.069-.33-.443-.624-.96-.907-1.456-.363-.635-.705-1.233-1.1-1.676-.39-.439-.801-.692-1.296-.692Z"
                stroke="#898989" stroke-width=".5" />
            <path
                d="m26.593.753.231.017h.011v.001c.904.136 1.742.75 2.486 1.565.75.82 1.432 1.874 2.02 2.948 1.179 2.15 2.004 4.42 2.253 5.166.502 1.507-.39 3.41-2.167 4.235.378.257.841.576 1.285.896.607.438 1.198.887 1.477 1.166.114.114.237.323.365.575.133.263.285.605.453 1.013.336.816.737 1.908 1.169 3.182.863 2.547 1.85 5.833 2.67 9.12 1.631 6.522 3.662 8.774 5.493 9.995.674.45 1.667.724 2.592.862.458.069.893.103 1.25.11.364.008.628-.014.759-.046l.568-.143-.291.509c-.242.424-.621 1.384-1.486 2.195-.582.547-1.384 1.032-2.516 1.285-1.422.319-2.866.115-3.732.037-1.076-.096-1.873-.165-2.813.091-.494.135-.991.451-1.517.86-.267.209-.536.437-.813.671-.96.812-2.03 1.727-3.274 1.918-.886.137-1.938.08-2.881-.044a17.743 17.743 0 0 1-2.306-.454l-.243-.067.07-.242c.075-.265.157-.787.24-1.489.08-.695.16-1.549.234-2.467.147-1.837.27-3.925.336-5.496.084-2.028-.007-6.26-.183-10.216-.164-3.684-.4-7.092-.633-8.254a53.341 53.341 0 0 0-1.255-4.91c-.326.876-.668 2.108-.99 3.475a77.294 77.294 0 0 0-1.034 5.262c-.325 2.033-.448 5.414-.427 8.6.021 3.174.185 6.116.425 7.316.186.932.38 2.579.563 4.154.106.903.209 1.786.307 2.508.1.732.192 1.27.27 1.506l.08.243-.244.075c-.402.124-.958.268-1.602.398-1.67.336-3.986.586-5.753.096-1.537-.428-2.559-1.201-3.487-1.903-.919-.694-1.734-1.305-2.89-1.536-1.814-.363-4.014-.802-5.976-1.789a10.278 10.278 0 0 1-1.967-1.275C2.105 41.126 1.108 39.27.773 38.545l-.298-.648.636.32c.913.456 2.293.714 3.726.66 1.432-.054 2.88-.42 3.943-1.169.663-.468 1.36-1.25 2.054-2.233.69-.98 1.367-2.142 1.988-3.355 1.244-2.426 2.263-5.034 2.75-6.738.492-1.725 1.076-3.63 1.573-5.179.248-.774.475-1.46.659-1.99.18-.521.326-.91.408-1.073.103-.207.316-.445.57-.681.26-.243.587-.506.94-.763a13.405 13.405 0 0 1 1.728-1.068 7.171 7.171 0 0 1-1.201-.781c-.605-.49-1.183-1.147-1.4-1.94-.075-.277-.066-.665-.004-1.104.063-.448.184-.978.357-1.555a19.709 19.709 0 0 1 1.617-3.8c.715-1.286 1.598-2.512 2.604-3.388.942-.822 2.015-1.354 3.17-1.307Zm-.451 4.615c-.386 0-.745.23-1.12.67-.374.438-.724 1.037-1.104 1.689-.306.525-.628 1.08-.987 1.577-.36.497-.764.95-1.242 1.27-.468.312-.545.933-.285 1.607.259.67.804 1.247 1.355 1.384.348.088.762.09 1.203.047.44-.043.89-.13 1.31-.21.445-.087.879-.171 1.198-.171.399 0 .883.054 1.37.109.602.068 1.216.137 1.747.122.544-.015.928-.117 1.134-.322.45-.451.705-1.046.705-1.586 0-.53-.241-1.011-.805-1.293-.465-.233-.846-.625-1.176-1.069-.33-.443-.624-.96-.907-1.456-.363-.635-.705-1.233-1.1-1.676-.39-.439-.801-.692-1.296-.692Z"
                stroke="#fff" stroke-opacity=".95" stroke-width=".5" />
            <path
                d="M22.042 14.628c1.7.225 2.676.118 4.428-.188 1.64.272 2.551.44 4.427.188.4.266 1.024.693 1.62 1.122-2.446.091-3.755-.312-6.047-1.31-2.497 1.021-4.031 1.323-6.868 1.659.746-.572 1.698-1.162 2.44-1.47Z"
                fill="#898989" />
            <path
                d="M22.042 14.628c1.7.225 2.676.118 4.428-.188 1.64.272 2.551.44 4.427.188.4.266 1.024.693 1.62 1.122-2.446.091-3.755-.312-6.047-1.31-2.497 1.021-4.031 1.323-6.868 1.659.746-.572 1.698-1.162 2.44-1.47Z"
                fill="#fff" fill-opacity=".6" />
            <path
                d="M24.174 40.044c.184.919.375 2.554.56 4.135.21 1.804.413 3.54.588 4.063a16.88 16.88 0 0 1-1.578.392c-.428-7.507-.362-10.804 0-15.954.02 3.172.185 6.137.43 7.364Z"
                fill="#898989" />
            <path
                d="M24.174 40.044c.184.919.375 2.554.56 4.135.21 1.804.413 3.54.588 4.063a16.88 16.88 0 0 1-1.578.392c-.428-7.507-.362-10.804 0-15.954.02 3.172.185 6.137.43 7.364Z"
                fill="#fff" fill-opacity=".6" />
            <path
                d="M27.945 48.242c.328-1.147.69-6.362.82-9.51.085-2.04-.006-6.281-.182-10.237.704 6.35.988 10.667 1.217 20.24l-1.855-.493Z"
                fill="#898989" />
            <path
                d="M27.945 48.242c.328-1.147.69-6.362.82-9.51.085-2.04-.006-6.281-.182-10.237.704 6.35.988 10.667 1.217 20.24l-1.855-.493Z"
                fill="#fff" fill-opacity=".6" />
            <path
                d="M41.506 45.193c-1.072-.096-1.913-.172-2.902.098-.544.148-1.072.49-1.604.904-2.925-5.73-4-10.005-5.28-18.795 2.4 8.465 4.6 12.31 9.786 17.793Z"
                fill="#898989" />
            <path
                d="M41.506 45.193c-1.072-.096-1.913-.172-2.902.098-.544.148-1.072.49-1.604.904-2.925-5.73-4-10.005-5.28-18.795 2.4 8.465 4.6 12.31 9.786 17.793Z"
                fill="#fff" fill-opacity=".6" />
            <path
                d="M38.604 30.698c1.64 6.558 3.696 8.875 5.596 10.142 1.44.96 4.144 1.124 4.8.96-.263.46-.612 1.36-1.44 2.137-5.136-1.593-6.972-4.774-8.956-13.24Z"
                fill="#898989" />
            <path
                d="M38.604 30.698c1.64 6.558 3.696 8.875 5.596 10.142 1.44.96 4.144 1.124 4.8.96-.263.46-.612 1.36-1.44 2.137-5.136-1.593-6.972-4.774-8.956-13.24Z"
                fill="#fff" fill-opacity=".6" />
            <path
                d="M11.712 45.291c1.22.244 2.077.892 2.991 1.582C18.33 40.924 19.11 35.62 20.68 26.44c-2.75 9.223-4.431 14.051-8.968 18.851Z"
                fill="#898989" />
            <path
                d="M11.712 45.291c1.22.244 2.077.892 2.991 1.582C18.33 40.924 19.11 35.62 20.68 26.44c-2.75 9.223-4.431 14.051-8.968 18.851Z"
                fill="#fff" fill-opacity=".6" />
            <path
                d="M13.96 35.08c-3.444 4.114-5.58 5.877-10.08 7.2.593.495 1.242.902 1.92 1.244 4.209-3.028 5.87-4.909 8.16-8.444Z"
                fill="#898989" />
            <path
                d="M13.96 35.08c-3.444 4.114-5.58 5.877-10.08 7.2.593.495 1.242.902 1.92 1.244 4.209-3.028 5.87-4.909 8.16-8.444Z"
                fill="#fff" fill-opacity=".6" />
        </g>
        <defs>
            <clipPath id="aeaa">
                <path fill="#fff" transform="matrix(-1 0 0 1 50 0)" d="M0 0h50v50H0z" />
            </clipPath>
        </defs>
    </svg>