<?xml version="1.0" encoding="utf-8"?><svg fill="none" viewBox="0 0 50 50" xmlns="http://www.w3.org/2000/svg" width="50" height="50"><path d="M25 10.5c4.387 0 7.93 1.7 10.414 4.62C37.928 18.076 39.5 22.46 39.5 28v15a2.5 2.5 0 0 1-2.5 2.5H13a2.5 2.5 0 0 1-2.5-2.5V28c0-5.55 1.548-9.934 4.046-12.885C17.01 12.205 20.548 10.5 25 10.5Z" fill="#2FC4A7"/><path d="M25 10.5c4.387 0 7.93 1.7 10.414 4.62C37.928 18.076 39.5 22.46 39.5 28v15a2.5 2.5 0 0 1-2.5 2.5H13a2.5 2.5 0 0 1-2.5-2.5V28c0-5.55 1.548-9.934 4.046-12.885C17.01 12.205 20.548 10.5 25 10.5Z" fill="#000" fill-opacity=".2"/><path d="M25 10.5c4.387 0 7.93 1.7 10.414 4.62C37.928 18.076 39.5 22.46 39.5 28v15a2.5 2.5 0 0 1-2.5 2.5H13a2.5 2.5 0 0 1-2.5-2.5V28c0-5.55 1.548-9.934 4.046-12.885C17.01 12.205 20.548 10.5 25 10.5Z" stroke="#2FC4A7" stroke-width="5"/><path d="M25 10.5c4.387 0 7.93 1.7 10.414 4.62C37.928 18.076 39.5 22.46 39.5 28v15a2.5 2.5 0 0 1-2.5 2.5H13a2.5 2.5 0 0 1-2.5-2.5V28c0-5.55 1.548-9.934 4.046-12.885C17.01 12.205 20.548 10.5 25 10.5Z" stroke="#fff" stroke-opacity=".2" stroke-width="5"/><path d="M25 9c4.809 0 8.777 1.88 11.557 5.148C39.349 17.43 41 22.184 41 28v15a4 4 0 0 1-4 4H13a4 4 0 0 1-4-4V28c0-5.82 1.625-10.573 4.401-13.854C16.165 10.883 20.13 9 25 9Z" stroke="#2FC4A7" stroke-width="2"/><path d="M25 9c4.809 0 8.777 1.88 11.557 5.148C39.349 17.43 41 22.184 41 28v15a4 4 0 0 1-4 4H13a4 4 0 0 1-4-4V28c0-5.82 1.625-10.573 4.401-13.854C16.165 10.883 20.13 9 25 9Z" stroke="#fff" stroke-opacity=".6" stroke-width="2"/><circle cx="24.991" cy="11.972" r="2" fill="#080B16"/><path d="M27.016 4.343c.162.703.178 1.705-.039 2.82-.063.323-.14.63-.23.918.74.081 1.17.139 1.995.307.076-.274.142-.555.198-.843.258-1.324.264-2.616.026-3.65-.119-.516-.309-1.015-.6-1.424-.294-.415-.73-.783-1.32-.898-.59-.115-1.132.063-1.56.337-.424.27-.787.662-1.09 1.095-.609.87-1.088 2.07-1.345 3.394-.258 1.324-.264 2.616-.026 3.65.118.516.309 1.015.6 1.424.294.414.73.783 1.32.897.59.115 1.132-.063 1.56-.336.162-.104.315-.225.46-.36-.142-.831-.41-1.151-1.257-1.57a1.475 1.475 0 0 1-.279.244.466.466 0 0 1-.1.05.467.467 0 0 1-.075-.084c-.091-.13-.198-.36-.28-.713-.161-.703-.177-1.705.04-2.82.217-1.115.607-2.038 1.02-2.629.208-.297.394-.47.528-.556a.48.48 0 0 1 .1-.051c.016.014.042.04.074.085.092.13.2.36.28.713Z" fill="#2FC4A7"/><path d="M27.015 4.33c.161.707.177 1.713-.04 2.834a9.01 9.01 0 0 1-.228.92c.314.028.493.05.818.095.537-1.797.521-3.54.129-4.221-.45-.783-.762-.568-1.034-.43.016.015.042.04.074.086.092.13.2.362.28.717Z" fill="#2FC4A7"/><path d="M27.015 4.33c.161.707.177 1.713-.04 2.834a9.01 9.01 0 0 1-.228.92c.314.028.493.05.818.095.537-1.797.521-3.54.129-4.221-.45-.783-.762-.568-1.034-.43.016.015.042.04.074.086.092.13.2.362.28.717Z" fill="#000" fill-opacity=".2"/><path d="M25.426 10.364a.47.47 0 0 1-.1.05c.136.204.667.577 1.086.117-.277-.232-.672-.434-.708-.43 0 0-.2.213-.278.263Z" fill="#2FC4A7"/><path d="M25.426 10.364a.47.47 0 0 1-.1.05c.136.204.667.577 1.086.117-.277-.232-.672-.434-.708-.43 0 0-.2.213-.278.263Z" fill="#000" fill-opacity=".2"/><g clip-path="url(#adda)"><path d="M31.5 26.5h-13c0 .842.084 2.82.5 4.474.416 1.654 1 3.026 1.5 4.026h9c.52-.766 1.084-2.74 1.5-4.026.416-1.287.5-3.479.5-4.474Z" fill="#2FC4A7"/><path d="M31.5 26.5h-13c0 .842.084 2.82.5 4.474.416 1.654 1 3.026 1.5 4.026h9c.52-.766 1.084-2.74 1.5-4.026.416-1.287.5-3.479.5-4.474Z" fill="#fff" fill-opacity=".8"/><path d="M31.5 26.5h-13c0 .842.084 2.82.5 4.474.416 1.654 1 3.026 1.5 4.026h9c.52-.766 1.084-2.74 1.5-4.026.416-1.287.5-3.479.5-4.474Z" stroke="#2FC4A7" stroke-width=".498"/><path d="M31.5 26.5h-13c0 .842.084 2.82.5 4.474.416 1.654 1 3.026 1.5 4.026h9c.52-.766 1.084-2.74 1.5-4.026.416-1.287.5-3.479.5-4.474Z" stroke="#fff" stroke-opacity=".8" stroke-width=".498"/><path d="M16 37.7c-.68-.544-.833-1-1-1.2h20c-.25.2-.375.7-1 1.2s-1.667.6-2 .8H18c-.333-.2-1.32-.256-2-.8Z" fill="#2FC4A7"/><path d="M16 37.7c-.68-.544-.833-1-1-1.2h20c-.25.2-.375.7-1 1.2s-1.667.6-2 .8H18c-.333-.2-1.32-.256-2-.8Z" fill="#fff" fill-opacity=".8"/><path d="M16 37.7c-.68-.544-.833-1-1-1.2h20c-.25.2-.375.7-1 1.2s-1.667.6-2 .8H18c-.333-.2-1.32-.256-2-.8Z" stroke="#2FC4A7" stroke-width=".498"/><path d="M16 37.7c-.68-.544-.833-1-1-1.2h20c-.25.2-.375.7-1 1.2s-1.667.6-2 .8H18c-.333-.2-1.32-.256-2-.8Z" stroke="#fff" stroke-opacity=".8" stroke-width=".498"/><path d="M30.75 28.25c.301-.16 2-.75 2.75-.25 1.08.72 1.051 1.539.75 2.5-.241.77-3.043 2.199-4.75 3" stroke="#2FC4A7" stroke-width=".996"/><path d="M30.75 28.25c.301-.16 2-.75 2.75-.25 1.08.72 1.051 1.539.75 2.5-.241.77-3.043 2.199-4.75 3" stroke="#fff" stroke-opacity=".8" stroke-width=".996"/><path d="M24 20c.417.167 2 .422 2 1.5S24 23 24 24s1 1.25 2 1.5" stroke="#2FC4A7" stroke-width=".996" stroke-linecap="round"/><path d="M24 20c.417.167 2 .422 2 1.5S24 23 24 24s1 1.25 2 1.5" stroke="#fff" stroke-opacity=".8" stroke-width=".996" stroke-linecap="round"/></g><defs><clipPath id="adda"><path fill="#fff" transform="translate(15 19)" d="M0 0h20v20H0z"/></clipPath></defs></svg>