<svg width="50" height="50" viewBox="0 0 50 50" fill="none" xmlns="http://www.w3.org/2000/svg">
        <g clip-path="url(#adta)">
            <path d="M11.609 4 3 11h44l-8.609-7H11.61Z" fill="#898989" />
            <path d="M11.609 4 3 11h44l-8.609-7H11.61Z" fill="#fff" fill-opacity=".6" />
            <path d="M47 11v35H3V11h44Z" fill="#898989" />
            <path d="M47 11v35H3V11h44Z" fill="#000" fill-opacity=".2" />
            <path d="M47 12v7H3v-7h44Z" fill="#898989" />
            <path d="M47 12v7H3v-7h44Z" fill="#fff" fill-opacity=".2" />
            <path d="M47 21v7H3v-7h44Z" fill="#898989" />
            <path d="M47 21v7H3v-7h44Z" fill="#fff" fill-opacity=".2" />
            <path d="M47 30v7H3v-7h44Z" fill="#898989" />
            <path d="M47 30v7H3v-7h44Z" fill="#fff" fill-opacity=".2" />
            <path d="M47 39v7H3v-7h44Z" fill="#898989" />
            <path d="M47 39v7H3v-7h44Z" fill="#fff" fill-opacity=".2" />
            <circle cx="5.25" cy="40.75" r=".75" fill="#898989" />
            <circle cx="5.25" cy="40.75" r=".75" fill="#000" fill-opacity=".2" />
            <circle cx="5.25" cy="44.25" r=".75" fill="#898989" />
            <circle cx="5.25" cy="44.25" r=".75" fill="#000" fill-opacity=".2" />
            <circle cx="44.75" cy="40.75" r=".75" fill="#898989" />
            <circle cx="44.75" cy="40.75" r=".75" fill="#000" fill-opacity=".2" />
            <circle cx="44.75" cy="44.25" r=".75" fill="#898989" />
            <circle cx="44.75" cy="44.25" r=".75" fill="#000" fill-opacity=".2" />
            <circle cx="5.25" cy="31.75" r=".75" fill="#898989" />
            <circle cx="5.25" cy="31.75" r=".75" fill="#000" fill-opacity=".2" />
            <circle cx="5.25" cy="35.25" r=".75" fill="#898989" />
            <circle cx="5.25" cy="35.25" r=".75" fill="#000" fill-opacity=".2" />
            <circle cx="44.75" cy="31.75" r=".75" fill="#898989" />
            <circle cx="44.75" cy="31.75" r=".75" fill="#000" fill-opacity=".2" />
            <circle cx="44.75" cy="35.25" r=".75" fill="#898989" />
            <circle cx="44.75" cy="35.25" r=".75" fill="#000" fill-opacity=".2" />
            <circle cx="5.25" cy="22.75" r=".75" fill="#898989" />
            <circle cx="5.25" cy="22.75" r=".75" fill="#000" fill-opacity=".2" />
            <circle cx="5.25" cy="26.25" r=".75" fill="#898989" />
            <circle cx="5.25" cy="26.25" r=".75" fill="#000" fill-opacity=".2" />
            <circle cx="44.75" cy="22.75" r=".75" fill="#898989" />
            <circle cx="44.75" cy="22.75" r=".75" fill="#000" fill-opacity=".2" />
            <circle cx="44.75" cy="26.25" r=".75" fill="#898989" />
            <circle cx="44.75" cy="26.25" r=".75" fill="#000" fill-opacity=".2" />
            <circle cx="5.25" cy="13.75" r=".75" fill="#898989" />
            <circle cx="5.25" cy="13.75" r=".75" fill="#000" fill-opacity=".2" />
            <circle cx="5.25" cy="17.25" r=".75" fill="#898989" />
            <circle cx="5.25" cy="17.25" r=".75" fill="#000" fill-opacity=".2" />
            <circle cx="44.75" cy="13.75" r=".75" fill="#898989" />
            <circle cx="44.75" cy="13.75" r=".75" fill="#000" fill-opacity=".2" />
            <circle cx="44.75" cy="17.25" r=".75" fill="#898989" />
            <circle cx="44.75" cy="17.25" r=".75" fill="#000" fill-opacity=".2" />
            <ellipse cx="12.25" cy="5" rx=".75" ry=".5" fill="#898989" />
            <ellipse cx="12.25" cy="5" rx=".75" ry=".5" fill="#fff" fill-opacity=".2" />
            <ellipse cx="6.75" cy="9.5" rx=".75" ry=".5" fill="#898989" />
            <ellipse cx="6.75" cy="9.5" rx=".75" ry=".5" fill="#fff" fill-opacity=".2" />
            <ellipse cx="37.75" cy="5" rx=".75" ry=".5" fill="#898989" />
            <ellipse cx="37.75" cy="5" rx=".75" ry=".5" fill="#fff" fill-opacity=".2" />
            <ellipse cx="43.25" cy="9.5" rx=".75" ry=".5" fill="#898989" />
            <ellipse cx="43.25" cy="9.5" rx=".75" ry=".5" fill="#fff" fill-opacity=".2" />
            <path fill="#898989" d="M11.966 14.967h26v26h-26z" />
            <path fill="#000" fill-opacity=".4" d="M11.966 14.967h26v26h-26z" />
            <ellipse cx="25.172" cy="27.162" rx="10.212" ry="8.718" fill="#D0333D" />
            <ellipse cx="25.172" cy="27.162" rx="10.212" ry="8.718" fill="#fff" fill-opacity=".9" />
            <path
                d="M14.497 27.402c-.59.195-.574 1.059-.492 1.466l2.704 9.042c.244.46.4.635.99 1.222.59.586 1.468.733 1.714.733h11.553c.246-.082.93-.25 1.475-.733.528-.47.901-.978.983-1.222l2.458-9.53c0-.327-.148-1.027-.737-1.223-.738-.244-1.721 1.466-2.95 1.466-1.23 0-2.458-1.71-3.933-1.71-1.475 0-1.967 1.71-3.196 1.71s-2.458-1.71-3.933-1.71c-1.474 0-2.703 1.71-3.687 1.71-.983 0-2.212-1.465-2.95-1.221Z"
                fill="#CE4317" />
            <path
                d="M14.497 27.402c-.59.195-.574 1.059-.492 1.466l2.704 9.042c.244.46.4.635.99 1.222.59.586 1.468.733 1.714.733h11.553c.246-.082.93-.25 1.475-.733.528-.47.901-.978.983-1.222l2.458-9.53c0-.327-.148-1.027-.737-1.223-.738-.244-1.721 1.466-2.95 1.466-1.23 0-2.458-1.71-3.933-1.71-1.475 0-1.967 1.71-3.196 1.71s-2.458-1.71-3.933-1.71c-1.474 0-2.703 1.71-3.687 1.71-.983 0-2.212-1.465-2.95-1.221Z"
                fill="#fff" fill-opacity=".6" />
            <circle cx="28.41" cy="19.939" r="3.487" fill="#D0333D" />
            <circle cx="28.41" cy="19.939" r="3.487" fill="#000" fill-opacity=".2" />
            <path d="M31.398 16.452c-.199.369-.298.664-.896 1.328-.375.417-.498.59-.598.664" stroke="#2FC4A7"
                stroke-width=".498" stroke-linecap="round" />
        </g>
        <defs>
            <clipPath id="adta">
                <path fill="#fff" transform="matrix(-1 0 0 1 50 0)" d="M0 0h50v50H0z" />
            </clipPath>
        </defs>
    </svg>