<?xml version="1.0" encoding="utf-8"?><svg fill="none" viewBox="0 0 50 50" xmlns="http://www.w3.org/2000/svg" width="50" height="50"><path d="M25 10.5c4.387 0 7.93 1.7 10.414 4.62C37.928 18.076 39.5 22.46 39.5 28v15a2.5 2.5 0 0 1-2.5 2.5H13a2.5 2.5 0 0 1-2.5-2.5V28c0-5.55 1.548-9.934 4.046-12.885C17.01 12.205 20.548 10.5 25 10.5Z" fill="#2FC4A7"/><path d="M25 10.5c4.387 0 7.93 1.7 10.414 4.62C37.928 18.076 39.5 22.46 39.5 28v15a2.5 2.5 0 0 1-2.5 2.5H13a2.5 2.5 0 0 1-2.5-2.5V28c0-5.55 1.548-9.934 4.046-12.885C17.01 12.205 20.548 10.5 25 10.5Z" fill="#000" fill-opacity=".2"/><path d="M25 10.5c4.387 0 7.93 1.7 10.414 4.62C37.928 18.076 39.5 22.46 39.5 28v15a2.5 2.5 0 0 1-2.5 2.5H13a2.5 2.5 0 0 1-2.5-2.5V28c0-5.55 1.548-9.934 4.046-12.885C17.01 12.205 20.548 10.5 25 10.5Z" stroke="#2FC4A7" stroke-width="5"/><path d="M25 10.5c4.387 0 7.93 1.7 10.414 4.62C37.928 18.076 39.5 22.46 39.5 28v15a2.5 2.5 0 0 1-2.5 2.5H13a2.5 2.5 0 0 1-2.5-2.5V28c0-5.55 1.548-9.934 4.046-12.885C17.01 12.205 20.548 10.5 25 10.5Z" stroke="#fff" stroke-opacity=".2" stroke-width="5"/><path d="M25 9c4.809 0 8.777 1.88 11.557 5.148C39.349 17.43 41 22.184 41 28v15a4 4 0 0 1-4 4H13a4 4 0 0 1-4-4V28c0-5.82 1.625-10.573 4.401-13.854C16.165 10.883 20.13 9 25 9Z" stroke="#2FC4A7" stroke-width="2"/><path d="M25 9c4.809 0 8.777 1.88 11.557 5.148C39.349 17.43 41 22.184 41 28v15a4 4 0 0 1-4 4H13a4 4 0 0 1-4-4V28c0-5.82 1.625-10.573 4.401-13.854C16.165 10.883 20.13 9 25 9Z" stroke="#fff" stroke-opacity=".6" stroke-width="2"/><circle cx="24.991" cy="11.972" r="2" fill="#080B16"/><path d="M27.016 4.343c.162.703.178 1.705-.039 2.82-.063.323-.14.63-.23.918.74.081 1.17.139 1.995.307.076-.274.142-.555.198-.843.258-1.324.264-2.616.026-3.65-.119-.516-.309-1.015-.6-1.424-.294-.415-.73-.783-1.32-.898-.59-.115-1.132.063-1.56.337-.424.27-.787.662-1.09 1.095-.609.87-1.088 2.07-1.345 3.394-.258 1.324-.264 2.616-.026 3.65.118.516.309 1.015.6 1.424.294.414.73.783 1.32.897.59.115 1.132-.063 1.56-.336.162-.104.315-.225.46-.36-.142-.831-.41-1.151-1.257-1.57a1.475 1.475 0 0 1-.279.244.466.466 0 0 1-.1.05.467.467 0 0 1-.075-.084c-.091-.13-.198-.36-.28-.713-.161-.703-.177-1.705.04-2.82.217-1.115.607-2.038 1.02-2.629.208-.297.394-.47.528-.556a.48.48 0 0 1 .1-.051c.016.014.042.04.074.085.092.13.2.36.28.713Z" fill="#2FC4A7"/><path d="M27.015 4.33c.161.707.177 1.713-.04 2.834a9.01 9.01 0 0 1-.228.92c.314.028.493.05.818.095.537-1.797.521-3.54.129-4.221-.45-.783-.762-.568-1.034-.43.016.015.042.04.074.086.092.13.2.362.28.717Z" fill="#2FC4A7"/><path d="M27.015 4.33c.161.707.177 1.713-.04 2.834a9.01 9.01 0 0 1-.228.92c.314.028.493.05.818.095.537-1.797.521-3.54.129-4.221-.45-.783-.762-.568-1.034-.43.016.015.042.04.074.086.092.13.2.362.28.717Z" fill="#000" fill-opacity=".2"/><path d="M25.426 10.364a.47.47 0 0 1-.1.05c.136.204.667.577 1.086.117-.277-.232-.672-.434-.708-.43 0 0-.2.213-.278.263Z" fill="#2FC4A7"/><path d="M25.426 10.364a.47.47 0 0 1-.1.05c.136.204.667.577 1.086.117-.277-.232-.672-.434-.708-.43 0 0-.2.213-.278.263Z" fill="#000" fill-opacity=".2"/><path d="M28.163 20.488c0-.785-2.013-.988-3.163-.988s-3.163.22-3.163.988c0 .423.432.564.576.705.047.47.057 1.636-.288 2.539-.431 1.128-1.378 1.476-2.012 1.974-.72.565-.863 1.693-.863 2.257v9.027c.144.423 1.238 1.252 2.587 1.693 1.294.423 4.6.423 6.038 0 1.306-.385 2.875-1.27 2.875-1.693v-9.027c0-.611 0-1.749-.863-2.257-.862-.507-1.58-1.128-2.012-1.974-.345-.677-.335-1.928-.288-2.54.288-.14.576-.352.576-.704Z" fill="#2FC4A7"/><path d="M28.163 20.488c0-.785-2.013-.988-3.163-.988s-3.163.22-3.163.988c0 .423.432.564.576.705.047.47.057 1.636-.288 2.539-.431 1.128-1.378 1.476-2.012 1.974-.72.565-.863 1.693-.863 2.257v9.027c.144.423 1.238 1.252 2.587 1.693 1.294.423 4.6.423 6.038 0 1.306-.385 2.875-1.27 2.875-1.693v-9.027c0-.611 0-1.749-.863-2.257-.862-.507-1.58-1.128-2.012-1.974-.345-.677-.335-1.928-.288-2.54.288-.14.576-.352.576-.704Z" fill="#fff" fill-opacity=".8"/><path d="M28.671 29.405c-.46.282-.855-.157-1.447-.014-.592.143-.79.337-.987.693-.207.373-.198 1.086.196 1.424.558.48 1.276.967 2.394 1.003 1.28.042 1.517-.686 1.923-1.003V29.75c-.076-.2-.073-.55-.335-.849-.329-.373-.888-.49-1.184-.269-.338.252-.208.558-.56.773Z" fill="#2FC4A7"/><path d="M28.671 29.405c-.46.282-.855-.157-1.447-.014-.592.143-.79.337-.987.693-.207.373-.198 1.086.196 1.424.558.48 1.276.967 2.394 1.003 1.28.042 1.517-.686 1.923-1.003V29.75c-.076-.2-.073-.55-.335-.849-.329-.373-.888-.49-1.184-.269-.338.252-.208.558-.56.773Z" fill="#fff" fill-opacity=".8"/><path d="M21.7 24.5c-.418.486-1.002.734-1.25 1 .303.442.633.475 1.148.462.825-.021.362.467 1.528 1.057 1.165.59 2.154-.003 2.395-.658.242-.654-.461-1.066-.744-1.196-.282-.13.002-.485-.045-.924-.048-.44-.131-.93-.732-1.24-.4-.208-1.213-.188-1.7 0-.154.598-.227 1.066-.6 1.5Z" fill="#2FC4A7"/><path d="M21.7 24.5c-.418.486-1.002.734-1.25 1 .303.442.633.475 1.148.462.825-.021.362.467 1.528 1.057 1.165.59 2.154-.003 2.395-.658.242-.654-.461-1.066-.744-1.196-.282-.13.002-.485-.045-.924-.048-.44-.131-.93-.732-1.24-.4-.208-1.213-.188-1.7 0-.154.598-.227 1.066-.6 1.5Z" fill="#fff" fill-opacity=".8"/><path d="M21 31.75c-.797-.14-1.75.396-1.75 1V37s.393.596 1 1c1.5 1 3.028 1 3.75 1 0-.5-.788-.568-.77-.91.018-.343.831-.2 1.483-.645.377-.258.763-1.237-.093-1.831-.924-.642-2.06-.121-2.195-.575-.136-.454.36-.54.388-1.273.035-.924-.388-1.766-1.813-2.016Z" fill="#2FC4A7"/><path d="M21 31.75c-.797-.14-1.75.396-1.75 1V37s.393.596 1 1c1.5 1 3.028 1 3.75 1 0-.5-.788-.568-.77-.91.018-.343.831-.2 1.483-.645.377-.258.763-1.237-.093-1.831-.924-.642-2.06-.121-2.195-.575-.136-.454.36-.54.388-1.273.035-.924-.388-1.766-1.813-2.016Z" fill="#fff" fill-opacity=".8"/><ellipse cx="25.024" cy="20.387" rx="2.523" ry=".639" transform="rotate(-.057 25.024 20.387)" fill="#2FC4A7"/><ellipse cx="25.024" cy="20.387" rx="2.523" ry=".639" transform="rotate(-.057 25.024 20.387)" fill="#fff" fill-opacity=".8"/></svg>