<?xml version="1.0" encoding="utf-8"?><svg fill="none" viewBox="0 0 50 50" xmlns="http://www.w3.org/2000/svg" width="50" height="50"><path d="M25 10.5c4.387 0 7.93 1.7 10.414 4.62C37.928 18.076 39.5 22.46 39.5 28v15a2.5 2.5 0 0 1-2.5 2.5H13a2.5 2.5 0 0 1-2.5-2.5V28c0-5.55 1.548-9.934 4.046-12.885C17.01 12.205 20.548 10.5 25 10.5Z" fill="#2FC4A7"/><path d="M25 10.5c4.387 0 7.93 1.7 10.414 4.62C37.928 18.076 39.5 22.46 39.5 28v15a2.5 2.5 0 0 1-2.5 2.5H13a2.5 2.5 0 0 1-2.5-2.5V28c0-5.55 1.548-9.934 4.046-12.885C17.01 12.205 20.548 10.5 25 10.5Z" fill="#000" fill-opacity=".2"/><path d="M25 10.5c4.387 0 7.93 1.7 10.414 4.62C37.928 18.076 39.5 22.46 39.5 28v15a2.5 2.5 0 0 1-2.5 2.5H13a2.5 2.5 0 0 1-2.5-2.5V28c0-5.55 1.548-9.934 4.046-12.885C17.01 12.205 20.548 10.5 25 10.5Z" stroke="#2FC4A7" stroke-width="5"/><path d="M25 10.5c4.387 0 7.93 1.7 10.414 4.62C37.928 18.076 39.5 22.46 39.5 28v15a2.5 2.5 0 0 1-2.5 2.5H13a2.5 2.5 0 0 1-2.5-2.5V28c0-5.55 1.548-9.934 4.046-12.885C17.01 12.205 20.548 10.5 25 10.5Z" stroke="#fff" stroke-opacity=".2" stroke-width="5"/><path d="M25 9c4.809 0 8.777 1.88 11.557 5.148C39.349 17.43 41 22.184 41 28v15a4 4 0 0 1-4 4H13a4 4 0 0 1-4-4V28c0-5.82 1.625-10.573 4.401-13.854C16.165 10.883 20.13 9 25 9Z" stroke="#2FC4A7" stroke-width="2"/><path d="M25 9c4.809 0 8.777 1.88 11.557 5.148C39.349 17.43 41 22.184 41 28v15a4 4 0 0 1-4 4H13a4 4 0 0 1-4-4V28c0-5.82 1.625-10.573 4.401-13.854C16.165 10.883 20.13 9 25 9Z" stroke="#fff" stroke-opacity=".6" stroke-width="2"/><circle cx="24.991" cy="11.972" r="2" fill="#080B16"/><path d="M27.016 4.343c.162.703.178 1.705-.039 2.82-.063.323-.14.63-.23.918.74.081 1.17.139 1.995.307.076-.274.142-.555.198-.843.258-1.324.264-2.616.026-3.65-.119-.516-.309-1.015-.6-1.424-.294-.415-.73-.783-1.32-.898-.59-.115-1.132.063-1.56.337-.424.27-.787.662-1.09 1.095-.609.87-1.088 2.07-1.345 3.394-.258 1.324-.264 2.616-.026 3.65.118.516.309 1.015.6 1.424.294.414.73.783 1.32.897.59.115 1.132-.063 1.56-.336.162-.104.315-.225.46-.36-.142-.831-.41-1.151-1.257-1.57a1.475 1.475 0 0 1-.279.244.466.466 0 0 1-.1.05.467.467 0 0 1-.075-.084c-.091-.13-.198-.36-.28-.713-.161-.703-.177-1.705.04-2.82.217-1.115.607-2.038 1.02-2.629.208-.297.394-.47.528-.556a.48.48 0 0 1 .1-.051c.016.014.042.04.074.085.092.13.2.36.28.713Z" fill="#2FC4A7"/><path d="M27.015 4.33c.161.707.177 1.713-.04 2.834a9.01 9.01 0 0 1-.228.92c.314.028.493.05.818.095.537-1.797.521-3.54.129-4.221-.45-.783-.762-.568-1.034-.43.016.015.042.04.074.086.092.13.2.362.28.717Z" fill="#2FC4A7"/><path d="M27.015 4.33c.161.707.177 1.713-.04 2.834a9.01 9.01 0 0 1-.228.92c.314.028.493.05.818.095.537-1.797.521-3.54.129-4.221-.45-.783-.762-.568-1.034-.43.016.015.042.04.074.086.092.13.2.362.28.717Z" fill="#000" fill-opacity=".2"/><path d="M25.426 10.364a.47.47 0 0 1-.1.05c.136.204.667.577 1.086.117-.277-.232-.672-.434-.708-.43 0 0-.2.213-.278.263Z" fill="#2FC4A7"/><path d="M25.426 10.364a.47.47 0 0 1-.1.05c.136.204.667.577 1.086.117-.277-.232-.672-.434-.708-.43 0 0-.2.213-.278.263Z" fill="#000" fill-opacity=".2"/><path d="M18.719 21.398c4.515-3.134 5.684 2.8 5.704 6.158 2.704-2.539 8.392-6.014 9.505.389 1.114 6.403-8.69 8.953-13.73 9.428-2.375-4.02-5.994-12.84-1.479-15.975Z" fill="#2FC4A7"/><path d="M18.719 21.398c4.515-3.134 5.684 2.8 5.704 6.158 2.704-2.539 8.392-6.014 9.505.389 1.114 6.403-8.69 8.953-13.73 9.428-2.375-4.02-5.994-12.84-1.479-15.975Z" fill="#fff" fill-opacity=".8"/><path d="M21.11 24.031c.57-.481 1.447-.83.658-1.534-.79-.703-1.795-.045-2.366.436-.722.609-1.405 1.576-.617 2.279 1.05.936 1.753-.7 2.324-1.18Z" fill="#2FC4A7"/><path d="M21.11 24.031c.57-.481 1.447-.83.658-1.534-.79-.703-1.795-.045-2.366.436-.722.609-1.405 1.576-.617 2.279 1.05.936 1.753-.7 2.324-1.18Z" fill="#fff" fill-opacity=".8"/><path d="M19.79 26.985c-.331-.336-.996-.675-1.333-.343-.337.331-.61 1.064-.344 1.333.332.336.857.811 1.333.343.337-.331.579-1.095.344-1.333Z" fill="#2FC4A7"/><path d="M19.79 26.985c-.331-.336-.996-.675-1.333-.343-.337.331-.61 1.064-.344 1.333.332.336.857.811 1.333.343.337-.331.579-1.095.344-1.333Z" fill="#fff" fill-opacity=".8"/></svg>