<svg width="50" height="50" viewBox="0 0 50 50" fill="none" xmlns="http://www.w3.org/2000/svg">
<circle cx="24.9075" cy="24.9074" r="22.4167" stroke="#1D8CE0" stroke-width="0.996296"/>
<circle cx="24.9075" cy="24.9074" r="22.4167" stroke="white" stroke-opacity="0.95" stroke-width="0.996296"/>
<path d="M40.3499 31.8814C43.538 24.3096 40.3499 15.4425 35.3684 10.9592C36.3647 15.4425 35.6673 22.1177 32.8777 28.8925C30.088 35.6673 23.745 40.0178 20.9221 41.3462C26.4017 42.8407 37.1617 39.4533 40.3499 31.8814Z" fill="#FEFEFE" fill-opacity="0.15"/>
<path d="M15.6277 13.0939C17.2336 13.0939 18.3436 14.8743 18.6998 15.4167L15.6277 20.2979C14.6927 19.6303 12.8495 17.7947 12.9564 15.7921C13.0738 13.592 13.6351 13.0939 15.6277 13.0939Z" fill="#FAA21E"/>
<path d="M15.6277 13.0939C17.2336 13.0939 18.3436 14.8743 18.6998 15.4167L15.6277 20.2979C14.6927 19.6303 12.8495 17.7947 12.9564 15.7921C13.0738 13.592 13.6351 13.0939 15.6277 13.0939Z" fill="black" fill-opacity="0.4"/>
<path d="M34.3723 13.0939C32.7695 13.194 31.5097 14.8743 31.1535 15.4167L34.2256 20.2979C35.1605 19.6303 37.0038 17.7947 36.8969 15.7921C36.7901 13.7896 36.3758 12.9687 34.3723 13.0939Z" fill="#FAA21E"/>
<path d="M34.3723 13.0939C32.7695 13.194 31.5097 14.8743 31.1535 15.4167L34.2256 20.2979C35.1605 19.6303 37.0038 17.7947 36.8969 15.7921C36.7901 13.7896 36.3758 12.9687 34.3723 13.0939Z" fill="black" fill-opacity="0.4"/>
<path d="M32.8138 15.3825C31.2357 14.3172 27.8164 13.7255 24.3972 13.7255C21.9423 13.9622 17.9415 14.4227 16.638 15.3825C15.1914 16.4477 11.6406 25.1214 11.6406 28.5538C11.6406 31.9861 16.638 35.2664 19.7943 36.6867C22.7631 38.0226 26.2656 38.1205 29.5156 36.6855C31.4844 35.8162 37.6406 32.3805 37.6406 28.5538C37.6406 24.7271 34.392 16.4477 32.8138 15.3825Z" fill="#FAA21E"/>
<path d="M32.8138 15.3825C31.2357 14.3172 27.8164 13.7255 24.3972 13.7255C21.9423 13.9622 17.9415 14.4227 16.638 15.3825C15.1914 16.4477 11.6406 25.1214 11.6406 28.5538C11.6406 31.9861 16.638 35.2664 19.7943 36.6867C22.7631 38.0226 26.2656 38.1205 29.5156 36.6855C31.4844 35.8162 37.6406 32.3805 37.6406 28.5538C37.6406 24.7271 34.392 16.4477 32.8138 15.3825Z" fill="black" fill-opacity="0.4"/>
<path d="M18.1351 23.7255C17.338 23.7255 16.696 24.6506 16.6406 25.2199C16.8067 25.7181 17.2052 26.7144 18.1351 26.7144C19.0649 26.7144 19.6295 25.7181 19.6295 25.2199C19.4081 24.6506 18.9321 23.7255 18.1351 23.7255Z" fill="#FAA21E"/>
<path d="M18.1351 23.7255C17.338 23.7255 16.696 24.6506 16.6406 25.2199C16.8067 25.7181 17.2052 26.7144 18.1351 26.7144C19.0649 26.7144 19.6295 25.7181 19.6295 25.2199C19.4081 24.6506 18.9321 23.7255 18.1351 23.7255Z" fill="black" fill-opacity="0.8"/>
<path d="M31.1352 23.7255C31.9322 23.7255 32.5743 24.6506 32.6296 25.2199C32.4636 25.7181 32.0651 26.7144 31.1352 26.7144C30.2053 26.7144 29.6407 25.7181 29.6407 25.2199C29.8621 24.6506 30.3382 23.7255 31.1352 23.7255Z" fill="#FAA21E"/>
<path d="M31.1352 23.7255C31.9322 23.7255 32.5743 24.6506 32.6296 25.2199C32.4636 25.7181 32.0651 26.7144 31.1352 26.7144C30.2053 26.7144 29.6407 25.7181 29.6407 25.2199C29.8621 24.6506 30.3382 23.7255 31.1352 23.7255Z" fill="black" fill-opacity="0.8"/>
<path d="M28.889 34.2255C27.8377 35.2255 26.5259 35.7255 24.757 35.7255C23.3203 35.7255 21.5297 35.2255 20.4784 34.2255C19.6931 33.4785 19.4328 30.5206 19.8131 28.6411C20.1934 26.7616 21.9681 23.7255 24.757 23.7255C27.5458 23.7255 29.067 27.0508 29.4473 28.6411C29.8276 30.2315 29.6496 33.502 28.889 34.2255Z" fill="#FAA21E"/>
<path d="M28.889 34.2255C27.8377 35.2255 26.5259 35.7255 24.757 35.7255C23.3203 35.7255 21.5297 35.2255 20.4784 34.2255C19.6931 33.4785 19.4328 30.5206 19.8131 28.6411C20.1934 26.7616 21.9681 23.7255 24.757 23.7255C27.5458 23.7255 29.067 27.0508 29.4473 28.6411C29.8276 30.2315 29.6496 33.502 28.889 34.2255Z" fill="white" fill-opacity="0.8"/>
<path d="M24.6406 31.7255V33.4397M24.6406 33.4397L22.6406 34.7255M24.6406 33.4397L26.6406 34.7255" stroke="#FAA21E" stroke-width="0.996296" stroke-linecap="round"/>
<path d="M24.6406 31.7255V33.4397M24.6406 33.4397L22.6406 34.7255M24.6406 33.4397L26.6406 34.7255" stroke="black" stroke-opacity="0.8" stroke-width="0.996296" stroke-linecap="round"/>
<path d="M27.6406 30.4518C27.6406 29.8834 25.7549 29.7255 24.7263 29.7255C23.6978 29.7255 21.6406 29.8505 21.6406 30.4518C21.6406 31.1465 23.0121 32.7255 24.7263 32.7255C26.4406 32.7255 27.6406 31.0202 27.6406 30.4518Z" fill="#FAA21E"/>
<path d="M27.6406 30.4518C27.6406 29.8834 25.7549 29.7255 24.7263 29.7255C23.6978 29.7255 21.6406 29.8505 21.6406 30.4518C21.6406 31.1465 23.0121 32.7255 24.7263 32.7255C26.4406 32.7255 27.6406 31.0202 27.6406 30.4518Z" fill="black" fill-opacity="0.8"/>
<path d="M14.4463 8.96667C11.6057 11.4681 10.4611 14.9444 10.4611 17.9333C10.9468 15.8739 14.0426 11.6996 16.937 9.96297C19.4003 8.48501 21.4204 6.97408 24.9074 6.47593C21.4204 5.97778 17.2869 6.46524 14.4463 8.96667Z" fill="#FEFEFE"/>
<path d="M33.874 39.8519C37.3611 37.8593 40.8481 32.8778 40.8481 29.8889C40.1079 32.8778 36.163 36.704 33.3759 38.3574C30.3241 40.1679 24.4092 41.8444 20.9222 41.8444C24.4092 42.8407 29.8889 42.1291 33.874 39.8519Z" fill="#FEFEFE"/>
</svg>
