<svg width="50" height="50" viewBox="0 0 50 50" fill="none" xmlns="http://www.w3.org/2000/svg">
<path d="M32 0H18C18.5 1.5 17.8 4.8 15 6C12.2 7.2 9.16667 5.5 8 4.5L4 12.5C6.83333 13.8333 12 18.1 12 24.5C12 30.9 6.66667 35.5 4 37L7.1875 43.5C8.29167 42.8333 12.125 42 17 43.5C22.2 45.1 24.5 48.5 25 50C25.5 48.5 28.5 45 33 43.5C36.6125 42.2958 41 42.8333 43 43.5L46 37C43.3333 35.8333 38 31.7 38 24.5C38 17.3 43.3333 13.5 46 12.5L41.5 4.5C40.8333 5.66667 38.375 7.5 35 6C32 4.66667 31.5 1.33333 32 0Z" fill="#CE4317"/>
<path d="M32 0H18C18.5 1.5 17.8 4.8 15 6C12.2 7.2 9.16667 5.5 8 4.5L4 12.5C6.83333 13.8333 12 18.1 12 24.5C12 30.9 6.66667 35.5 4 37L7.1875 43.5C8.29167 42.8333 12.125 42 17 43.5C22.2 45.1 24.5 48.5 25 50C25.5 48.5 28.5 45 33 43.5C36.6125 42.2958 41 42.8333 43 43.5L46 37C43.3333 35.8333 38 31.7 38 24.5C38 17.3 43.3333 13.5 46 12.5L41.5 4.5C40.8333 5.66667 38.375 7.5 35 6C32 4.66667 31.5 1.33333 32 0Z" fill="white" fill-opacity="0.15"/>
<path d="M12 10.5C16.6931 10.1606 22 7.5 25 5C27.5 8 34 9.04225 38.5 10C35.7946 10.4815 30.2781 11.7032 27.5 12.9296C30.3379 14.5226 32.8259 14.1678 36.5 15C32.8142 15.3244 30.4066 16.5865 27.5 17.8592C29.9614 18.9389 31.5145 19.4716 34.5 20.3239C31.2962 20.4707 29.7536 20.7901 27.5 21.8028C29.2022 23.3171 31.4479 23.67 34 24.5C31.5125 24.5992 29.3175 25.1979 27.5 26.2394C30.6952 27.6774 32.5865 28.2556 36 29.1972C32.3848 29.5817 31 30 28.5 31.5C31.8794 32.8154 34.3454 34.9136 39 35.6056C34.559 35.7143 32.1252 34.8666 28.5 36.0986C30.2766 37.2705 32.2336 38.5302 35 39C31.0254 39.2532 26.5 40.5352 25 43C23.5 40.5352 19.3733 38.7096 15 38.5C17.4454 37.9834 19.1993 37.0881 21 35.6056C17.3292 34.5546 15.069 34.9196 11 35C15.2919 33.8753 17.5453 32.7006 21 30.6761C18.7946 29.3693 17.1929 29.0089 14 28.7042C17.1169 27.8197 18.6749 27.1901 21 25.7465C19 25 17.4862 24.3342 15 24C17.527 23.495 19.2092 22.8225 21 21.8028C19 21 17.3132 20.504 15.5 20.3239C17.3261 19.8097 19 19 21 17.8592C19.3846 16.8489 16.2717 15.5444 14 15C16.1374 14.6048 19.2427 14.4805 21 13.3125C18.0972 11.3397 15.2817 11.0722 12 10.5Z" fill="#CE4317"/>
<path d="M12 10.5C16.6931 10.1606 22 7.5 25 5C27.5 8 34 9.04225 38.5 10C35.7946 10.4815 30.2781 11.7032 27.5 12.9296C30.3379 14.5226 32.8259 14.1678 36.5 15C32.8142 15.3244 30.4066 16.5865 27.5 17.8592C29.9614 18.9389 31.5145 19.4716 34.5 20.3239C31.2962 20.4707 29.7536 20.7901 27.5 21.8028C29.2022 23.3171 31.4479 23.67 34 24.5C31.5125 24.5992 29.3175 25.1979 27.5 26.2394C30.6952 27.6774 32.5865 28.2556 36 29.1972C32.3848 29.5817 31 30 28.5 31.5C31.8794 32.8154 34.3454 34.9136 39 35.6056C34.559 35.7143 32.1252 34.8666 28.5 36.0986C30.2766 37.2705 32.2336 38.5302 35 39C31.0254 39.2532 26.5 40.5352 25 43C23.5 40.5352 19.3733 38.7096 15 38.5C17.4454 37.9834 19.1993 37.0881 21 35.6056C17.3292 34.5546 15.069 34.9196 11 35C15.2919 33.8753 17.5453 32.7006 21 30.6761C18.7946 29.3693 17.1929 29.0089 14 28.7042C17.1169 27.8197 18.6749 27.1901 21 25.7465C19 25 17.4862 24.3342 15 24C17.527 23.495 19.2092 22.8225 21 21.8028C19 21 17.3132 20.504 15.5 20.3239C17.3261 19.8097 19 19 21 17.8592C19.3846 16.8489 16.2717 15.5444 14 15C16.1374 14.6048 19.2427 14.4805 21 13.3125C18.0972 11.3397 15.2817 11.0722 12 10.5Z" fill="black" fill-opacity="0.15"/>
</svg>
