<svg width="50" height="50" viewBox="0 0 50 50" fill="none" xmlns="http://www.w3.org/2000/svg">
<path d="M9.73684 2H40V5L41 7H45V48H11.3158C10.7895 48 8.15789 48 6.57895 46.4318C5 44.8636 5 43.2955 5 42.7727V6.70455C5 5.65909 5.73684 4.40455 6.57895 3.56818C7.42105 2.73182 8.68421 2 9.73684 2Z" fill="#FAA21E"/>
<path d="M9.73684 2H40V5L41 7H45V48H11.3158C10.7895 48 8.15789 48 6.57895 46.4318C5 44.8636 5 43.2955 5 42.7727V6.70455C5 5.65909 5.73684 4.40455 6.57895 3.56818C7.42105 2.73182 8.68421 2 9.73684 2Z" fill="black" fill-opacity="0.1"/>
<path d="M43 9.1L40 5V40H38L43 46V9.1Z" fill="#898989"/>
<path d="M43 9.1L40 5V40H38L43 46V9.1Z" fill="white" fill-opacity="0.2"/>
<path d="M10.1304 40H38L43 46H10.1304C9.62415 46 7 45.25 7 43C7 40.75 9.62415 40 10.1304 40Z" fill="#898989"/>
<path d="M10.1304 40H38L43 46H10.1304C9.62415 46 7 45.25 7 43C7 40.75 9.62415 40 10.1304 40Z" fill="white" fill-opacity="0.6"/>
<path d="M35.584 14.8302C36.096 14.6015 36.7787 13.6101 37.12 13C36.1872 13.631 35.6318 13.9433 34.56 14.3727C34.56 14.8302 35.072 15.059 35.584 14.8302Z" fill="#FEFEFE"/>
<path fill-rule="evenodd" clip-rule="evenodd" d="M22.0126 9.61499C22.9221 8.70552 24.1347 7.79605 25.0442 7.49289C25.9537 7.18973 32.6232 6.28026 33.5326 6.88657C34.4421 7.49289 37.1705 11.7371 36.5642 12.3434C35.9579 12.9498 31.1074 15.375 30.1979 15.375C29.2884 15.375 26.2568 14.4655 26.2568 13.8592C26.2568 13.6273 26.106 13.4566 25.9213 13.3852C25.9088 13.3654 25.894 13.3468 25.8768 13.3295L25.2705 12.7232C25.0666 12.5193 24.9361 12.2822 24.8567 12.0815C24.8173 11.9817 24.7915 11.8937 24.7759 11.8275C24.7643 11.778 24.7602 11.7487 24.7587 11.7383V11.7383C24.758 11.733 24.7579 11.7326 24.7579 11.7369C24.7579 11.5601 24.6146 11.4169 24.4379 11.4169C24.2612 11.4169 24.1179 11.5601 24.1179 11.7369C24.1179 11.8001 24.1325 11.8874 24.1529 11.9741C24.1753 12.0689 24.2101 12.1868 24.2616 12.3169C24.3641 12.576 24.5368 12.8946 24.8179 13.1758L25.2899 13.6477C25.0893 13.9667 24.8534 14.3317 24.6015 14.7216C23.5631 16.329 22.2521 18.3583 22.0126 19.3161C21.9714 19.4811 21.9317 19.8019 21.8811 20.2116C21.7433 21.3268 21.5242 23.1001 20.9698 24.1786C20.9057 24.2079 20.8509 24.2585 20.8169 24.3264C20.7347 24.4908 20.5333 24.7653 20.257 25.0921C19.9871 25.4113 19.6648 25.7585 19.3611 26.0622C18.9362 26.487 18.4856 26.7727 18.0734 26.9909C17.8805 27.093 17.698 27.1794 17.5271 27.2603L17.4893 27.2782C17.3124 27.362 17.1397 27.4445 16.9975 27.5298C16.8459 27.6208 16.7968 27.8173 16.8877 27.9689C16.9786 28.1204 17.1752 28.1696 17.3267 28.0786C17.4371 28.0124 17.5802 27.9433 17.7633 27.8566L17.8026 27.838C17.9721 27.7578 18.1668 27.6657 18.3729 27.5565C18.8196 27.32 19.329 26.9994 19.8136 26.5147C20.1283 26.2001 20.4628 25.8399 20.7457 25.5053C21.0193 25.1817 21.2642 24.8594 21.3855 24.6203C21.7908 24.524 22.3622 24.3435 23.0226 24.1349C24.4494 23.6841 26.2918 23.102 27.7726 22.954C29.9907 22.7322 31.1809 23.0513 32.1745 23.3177C32.539 23.4154 32.8769 23.506 33.2295 23.5603C33.7347 23.1561 35.0484 22.5902 36.2611 22.3476C37.4737 22.1051 37.7768 22.0445 38.08 22.0445V35.0803H34.7453L33.5326 33.2613C32.7242 33.5645 30.4404 34.1102 27.7726 33.8676C25.1048 33.6251 21.9116 32.8571 20.8 32.3519C19.5874 32.2508 16.2526 31.9274 15.04 31.4424C14.3716 31.175 14.1748 30.9666 14.0336 30.8171C13.8547 30.6276 13.7652 30.5329 12.9179 30.5329C11.7053 30.5329 11.2 30.3308 11.0989 30.2298C10.4926 29.8255 9.28 28.8352 9.28 28.1076C9.28 27.6383 9.68374 27.0882 10.1162 26.499C10.5216 25.9465 10.9522 25.3597 11.0989 24.7729C11.2 24.3687 11.2896 23.9425 11.3793 23.5163C11.5585 22.664 11.7378 21.8116 12.0084 21.135C12.4732 19.9731 14.8976 17.9204 16.2772 16.7523C16.6973 16.3966 17.0206 16.1229 17.1621 15.9813C17.6472 15.4963 20.5979 11.535 22.0126 9.61499Z" fill="#FEFEFE"/>
<path d="M18.88 24.52C19.9611 23.1686 20.0533 20.7867 20.16 20.04C19.7333 20.68 18.688 23.112 17.92 23.88L15.04 26.76C16.1067 26.3334 17.6 26.12 18.88 24.52Z" fill="#FEFEFE"/>
<path d="M29.44 30.9199C27.2678 31.6439 23.5733 31.6665 22.08 31.5599C24.64 32.5199 28.8 33.1599 31.04 32.5199C32.832 32.0079 34.56 29.7465 34.56 28.3599C34.0267 28.8932 31.36 30.2799 29.44 30.9199Z" fill="#FEFEFE"/>
</svg>
