<svg width="50" height="50" viewBox="0 0 50 50" fill="none" xmlns="http://www.w3.org/2000/svg">
<g clip-path="url(#clip0_2182_10171)">
<path d="M45.6041 14.1189C48.5115 11.9983 50.2537 9.42093 49.841 6.23791C48.5943 8.01823 46.5182 8.66144 46.5182 8.66144C47.7655 6.00958 49.0123 4.22931 47.7695 0.780578C46.5221 3.43246 44.8614 3.77273 43.2007 4.11294C43.6167 2.9385 44.448 1.46117 44.034 0.021106C42.3726 1.23287 39.3697 2.98763 37.7083 4.19939C35.6316 5.7141 35.0539 9.61957 37.1273 12.4624C39.2008 15.3052 43.4862 15.6636 45.6041 14.1189Z" fill="#CE4317"/>
<path d="M42.3573 13.0029C43.9432 11.8462 44.8872 10.4318 44.6453 8.67263C43.9695 9.64946 42.8329 9.99456 42.8329 9.99456C43.5049 8.5366 44.1807 7.5598 43.4819 5.64996C42.8099 7.10793 41.8999 7.28779 40.9898 7.46761C41.2125 6.82127 41.6618 6.00971 41.4276 5.21273C40.5214 5.8737 38.8813 6.82796 37.9751 7.48893C36.8423 8.31513 36.544 10.4684 37.6959 12.0477C38.8478 13.627 41.2021 13.8455 42.3573 13.0029Z" fill="#CE4317"/>
<path d="M42.3573 13.0029C43.9432 11.8462 44.8872 10.4318 44.6453 8.67263C43.9695 9.64946 42.8329 9.99456 42.8329 9.99456C43.5049 8.5366 44.1807 7.5598 43.4819 5.64996C42.8099 7.10793 41.8999 7.28779 40.9898 7.46761C41.2125 6.82127 41.6618 6.00971 41.4276 5.21273C40.5214 5.8737 38.8813 6.82796 37.9751 7.48893C36.8423 8.31513 36.544 10.4684 37.6959 12.0477C38.8478 13.627 41.2021 13.8455 42.3573 13.0029Z" fill="white" fill-opacity="0.45"/>
<path d="M37.4811 15.7657C37.8358 16.1204 38.4109 16.1204 38.7656 15.7657C39.1203 15.411 39.1203 14.8359 38.7656 14.4811L35.6127 11.3282C35.258 10.9735 34.6828 10.9735 34.3281 11.3282C33.9734 11.6829 33.9734 12.258 34.3281 12.6127L37.4811 15.7657Z" fill="#FAA21E"/>
<path d="M37.4811 15.7657C37.8358 16.1204 38.4109 16.1204 38.7656 15.7657C39.1203 15.411 39.1203 14.8359 38.7656 14.4811L35.6127 11.3282C35.258 10.9735 34.6828 10.9735 34.3281 11.3282C33.9734 11.6829 33.9734 12.258 34.3281 12.6127L37.4811 15.7657Z" fill="white" fill-opacity="0.6"/>
<path d="M36.0156 15.9845L34.0156 13.9844L4.84628 43.1537L3.5 44.5L5.5 46.5L6.84628 45.1537L36.0156 15.9845Z" fill="#FAA21E"/>
<path d="M36.0156 15.9845L34.0156 13.9844L4.84628 43.1537L3.5 44.5L5.5 46.5L6.84628 45.1537L36.0156 15.9845Z" fill="white" fill-opacity="0.6"/>
<ellipse cx="2.51562" cy="47.5156" rx="2.09924" ry="2.10485" transform="rotate(45 2.51562 47.5156)" fill="#FAA21E"/>
<ellipse cx="2.51562" cy="47.5156" rx="2.09924" ry="2.10485" transform="rotate(45 2.51562 47.5156)" fill="white" fill-opacity="0.6"/>
</g>
<defs>
<clipPath id="clip0_2182_10171">
<rect width="50" height="50" fill="white"/>
</clipPath>
</defs>
</svg>
