<svg width="50" height="50" viewBox="0 0 50 50" fill="none" xmlns="http://www.w3.org/2000/svg">
<g clip-path="url(#clip0_2179_10348)">
<path d="M46.281 12.4906C44.1693 14.6024 40.5795 15.2361 37.6236 12.2802C34.6677 9.32431 35.6829 4.65585 38.1172 2.91897C41.6776 0.37869 47.0244 1.40145 49.8752 0.0286729C48.5024 2.87941 49.7504 9.0213 46.281 12.4906Z" fill="#1D8CE0"/>
<path d="M46.281 12.4906C44.1693 14.6024 40.5795 15.2361 37.6236 12.2802C34.6677 9.32431 35.6829 4.65585 38.1172 2.91897C41.6776 0.37869 47.0244 1.40145 49.8752 0.0286729C48.5024 2.87941 49.7504 9.0213 46.281 12.4906Z" fill="white" fill-opacity="0.2"/>
<path d="M45.0248 4.27013C46.0658 4.17116 47.2806 4.41841 47.1921 3.15547C47.1037 1.89255 45.4572 1.87157 44.4161 1.97028C43.0993 2.09512 41.467 2.61374 41.5548 3.8755C41.672 5.5575 43.9838 4.3691 45.0248 4.27013Z" fill="#1D8CE0"/>
<path d="M45.0248 4.27013C46.0658 4.17116 47.2806 4.41841 47.1921 3.15547C47.1037 1.89255 45.4572 1.87157 44.4161 1.97028C43.0993 2.09512 41.467 2.61374 41.5548 3.8755C41.672 5.5575 43.9838 4.3691 45.0248 4.27013Z" fill="white" fill-opacity="0.95"/>
<path d="M40.8916 5.22236C40.9013 4.66933 40.6392 3.84061 40.0863 3.84214C39.5329 3.8433 38.6964 4.2326 38.689 4.67502C38.6798 5.22839 38.7124 6.05675 39.4943 6.05528C40.0477 6.05424 40.8848 5.6134 40.8916 5.22236Z" fill="#1D8CE0"/>
<path d="M40.8916 5.22236C40.9013 4.66933 40.6392 3.84061 40.0863 3.84214C39.5329 3.8433 38.6964 4.2326 38.689 4.67502C38.6798 5.22839 38.7124 6.05675 39.4943 6.05528C40.0477 6.05424 40.8848 5.6134 40.8916 5.22236Z" fill="white" fill-opacity="0.95"/>
<path d="M38.4377 11.4237C36.8784 9.86446 37.4168 7.06145 37.8808 5.85486C37.9736 6.69019 38.4934 8.69499 39.8299 10.0315C41.1665 11.3681 42.9856 12.0734 43.7282 12.2591C42.6144 12.6303 39.997 12.983 38.4377 11.4237Z" fill="#FEFEFE" fill-opacity="0.15"/>
<path d="M38.4377 11.4237C36.8784 9.86446 37.4168 7.06145 37.8808 5.85486C37.9736 6.69019 38.4934 8.69499 39.8299 10.0315C41.1665 11.3681 42.9856 12.0734 43.7282 12.2591C42.6144 12.6303 39.997 12.983 38.4377 11.4237Z" fill="#FEFEFE" fill-opacity="0.15"/>
<path d="M38.4377 11.4237C36.8784 9.86446 37.4168 7.06145 37.8808 5.85486C37.9736 6.69019 38.4934 8.69499 39.8299 10.0315C41.1665 11.3681 42.9856 12.0734 43.7282 12.2591C42.6144 12.6303 39.997 12.983 38.4377 11.4237Z" fill="#FEFEFE" fill-opacity="0.15"/>
<path d="M37.4811 15.7657C37.8358 16.1204 38.4109 16.1204 38.7656 15.7657C39.1203 15.411 39.1203 14.8359 38.7656 14.4811L35.6127 11.3282C35.258 10.9735 34.6828 10.9735 34.3281 11.3282C33.9734 11.6829 33.9734 12.258 34.3281 12.6127L37.4811 15.7657Z" fill="#FAA21E"/>
<path d="M37.4811 15.7657C37.8358 16.1204 38.4109 16.1204 38.7656 15.7657C39.1203 15.411 39.1203 14.8359 38.7656 14.4811L35.6127 11.3282C35.258 10.9735 34.6828 10.9735 34.3281 11.3282C33.9734 11.6829 33.9734 12.258 34.3281 12.6127L37.4811 15.7657Z" fill="white" fill-opacity="0.6"/>
<path d="M36.0156 15.9845L34.0156 13.9844L4.84628 43.1537L3.5 44.5L5.5 46.5L6.84628 45.1537L36.0156 15.9845Z" fill="#FAA21E"/>
<path d="M36.0156 15.9845L34.0156 13.9844L4.84628 43.1537L3.5 44.5L5.5 46.5L6.84628 45.1537L36.0156 15.9845Z" fill="white" fill-opacity="0.6"/>
<ellipse cx="2.51562" cy="47.5156" rx="2.09924" ry="2.10485" transform="rotate(45 2.51562 47.5156)" fill="#FAA21E"/>
<ellipse cx="2.51562" cy="47.5156" rx="2.09924" ry="2.10485" transform="rotate(45 2.51562 47.5156)" fill="white" fill-opacity="0.6"/>
</g>
<defs>
<clipPath id="clip0_2179_10348">
<rect width="50" height="50" fill="white"/>
</clipPath>
</defs>
</svg>
