<svg width="50" height="50" viewBox="0 0 50 50" fill="none" xmlns="http://www.w3.org/2000/svg">
<path d="M39.3674 4.87755L43.2041 5.83673L11.551 37.4898L12.5102 38.449L44.1633 6.79592L45.1225 10.6327L47.8335 2L39.3674 4.87755Z" fill="#FAA21E"/>
<path d="M39.3674 4.87755L43.2041 5.83673L11.551 37.4898L12.5102 38.449L44.1633 6.79592L45.1225 10.6327L47.8335 2L39.3674 4.87755Z" fill="white" fill-opacity="0.2"/>
<path d="M37.449 9.67342L34.5714 8.71423L10.5918 32.6938L1 46.1224L3.87755 48.9999L17.3061 39.4081L41.2857 15.4285L40.3265 12.551L13.949 38.9285C12.9898 39.8877 11.8388 39.6959 11.0714 38.9285C10.3041 38.1612 10.1122 37.0102 11.0714 36.051L37.449 9.67342Z" fill="#FAA21E"/>
<path d="M37.449 9.67342L34.5714 8.71423L10.5918 32.6938L1 46.1224L3.87755 48.9999L17.3061 39.4081L41.2857 15.4285L40.3265 12.551L13.949 38.9285C12.9898 39.8877 11.8388 39.6959 11.0714 38.9285C10.3041 38.1612 10.1122 37.0102 11.0714 36.051L37.449 9.67342Z" fill="white" fill-opacity="0.6"/>
<path d="M12.5102 4.7261C9.8245 4.36262 5.95579 2.75725 4.35716 2L3.87756 3.8174C5.95579 5.18045 10.5918 7.90655 12.5102 7.90655C14.9082 7.90655 23.0612 7.4522 25.9388 7.90655C28.2408 8.27003 29.9354 9.8754 30.7347 10.6327L33.6123 7.90655L27.3776 4.7261C24.0204 3.8174 15.8674 5.18045 12.5102 4.7261Z" fill="#FAA21E"/>
<path d="M12.5102 4.7261C9.8245 4.36262 5.95579 2.75725 4.35716 2L3.87756 3.8174C5.95579 5.18045 10.5918 7.90655 12.5102 7.90655C14.9082 7.90655 23.0612 7.4522 25.9388 7.90655C28.2408 8.27003 29.9354 9.8754 30.7347 10.6327L33.6123 7.90655L27.3776 4.7261C24.0204 3.8174 15.8674 5.18045 12.5102 4.7261Z" fill="white" fill-opacity="0.6"/>
<path d="M45.2739 36.809C45.6374 39.4081 47.2427 43.1365 48 44.6836L46.0816 45.1632C44.7186 43.152 42.0934 38.6655 42.0934 36.809C42.0934 34.4884 42.5478 26.5984 42.0934 23.8136C41.73 21.5859 40.1246 20.0388 39.3673 19.2652L42.2449 16.3877L45.2739 22.4213C46.1826 25.6701 44.8195 33.5602 45.2739 36.809Z" fill="#FAA21E"/>
<path d="M45.2739 36.809C45.6374 39.4081 47.2427 43.1365 48 44.6836L46.0816 45.1632C44.7186 43.152 42.0934 38.6655 42.0934 36.809C42.0934 34.4884 42.5478 26.5984 42.0934 23.8136C41.73 21.5859 40.1246 20.0388 39.3673 19.2652L42.2449 16.3877L45.2739 22.4213C46.1826 25.6701 44.8195 33.5602 45.2739 36.809Z" fill="white" fill-opacity="0.6"/>
<path d="M4.35715 5.35718L10.5918 31.7347M18.2653 39.4082L44.6429 44.6837" stroke="#FAA21E" stroke-width="0.959184"/>
<path d="M4.35715 5.35718L10.5918 31.7347M18.2653 39.4082L44.6429 44.6837" stroke="white" stroke-opacity="0.2" stroke-width="0.959184"/>
</svg>
