<svg width="50" height="50" viewBox="0 0 50 50" fill="none" xmlns="http://www.w3.org/2000/svg">
<path d="M29 5.5L10.5 12C5.99999 14 4.01137 16.855 2.49998 19.5C0.499985 23 -1.00001 27.5 0.999987 34C2.99999 40.5 6.89445 43.8183 12.5 45.5C17.5 47 22.1919 45.2053 24 44C31.5 39 38 34.5 45 30C49.0356 27.4057 50 22.5 50 18C50 15 48.5 11 45 7.99996C41.7787 5.23889 39 3.99995 33 4.49996C31.5052 4.62453 31.5 4.5 29 5.5Z" fill="#FAA21E"/>
<path d="M29 5.5L10.5 12C5.99999 14 4.01137 16.855 2.49998 19.5C0.499985 23 -1.00001 27.5 0.999987 34C2.99999 40.5 6.89445 43.8183 12.5 45.5C17.5 47 22.1919 45.2053 24 44C31.5 39 38 34.5 45 30C49.0356 27.4057 50 22.5 50 18C50 15 48.5 11 45 7.99996C41.7787 5.23889 39 3.99995 33 4.49996C31.5052 4.62453 31.5 4.5 29 5.5Z" fill="white" fill-opacity="0.6"/>
<path d="M17.9764 14.1333C16.4899 13.6378 13.5167 13.1423 10.5436 14.1333C8.28593 14.8859 7.07501 16.1154 5.09294 18.593C2.6753 21.6151 1.62431 27.0168 2.11983 30.981C2.61534 34.9451 5.09294 38.9092 7.57053 40.8913C10.8538 43.5179 16.4898 44.8555 19.9585 43.8644C23.4271 42.8734 25.9047 39.9003 26.8957 37.9182C27.8868 35.9361 29.8688 31.4765 27.8868 24.5392C25.9047 17.602 19.463 14.6288 17.9764 14.1333Z" fill="#FAA21E"/>
<path d="M17.9764 14.1333C16.4899 13.6378 13.5167 13.1423 10.5436 14.1333C8.28593 14.8859 7.07501 16.1154 5.09294 18.593C2.6753 21.6151 1.62431 27.0168 2.11983 30.981C2.61534 34.9451 5.09294 38.9092 7.57053 40.8913C10.8538 43.5179 16.4898 44.8555 19.9585 43.8644C23.4271 42.8734 25.9047 39.9003 26.8957 37.9182C27.8868 35.9361 29.8688 31.4765 27.8868 24.5392C25.9047 17.602 19.463 14.6288 17.9764 14.1333Z" fill="white" fill-opacity="0.2"/>
<path d="M17.5861 16.3391C16.3219 15.9177 13.7936 15.4963 11.2654 16.3391C9.34544 16.9791 8.3157 18.0246 6.63018 20.1315C4.57426 22.7014 3.68052 27.295 4.1019 30.666C4.52328 34.0371 6.63018 37.4081 8.73708 39.0936C11.5291 41.3272 16.3219 42.4647 19.2716 41.6219C22.2212 40.7791 24.3281 38.2509 25.1709 36.5653C26.0137 34.8798 27.6992 31.0874 26.0137 25.1881C24.3281 19.2888 18.8502 16.7605 17.5861 16.3391Z" fill="#FAA21E"/>
<path d="M17.5861 16.3391C16.3219 15.9177 13.7936 15.4963 11.2654 16.3391C9.34544 16.9791 8.3157 18.0246 6.63018 20.1315C4.57426 22.7014 3.68052 27.295 4.1019 30.666C4.52328 34.0371 6.63018 37.4081 8.73708 39.0936C11.5291 41.3272 16.3219 42.4647 19.2716 41.6219C22.2212 40.7791 24.3281 38.2509 25.1709 36.5653C26.0137 34.8798 27.6992 31.0874 26.0137 25.1881C24.3281 19.2888 18.8502 16.7605 17.5861 16.3391Z" fill="white" fill-opacity="0.6"/>
<path d="M17.1957 18.545C16.154 18.1978 14.0705 17.8505 11.9871 18.545C10.405 19.0724 9.55638 19.934 8.16742 21.6702C6.47323 23.7879 5.73673 27.5733 6.08397 30.3512C6.43121 33.1292 8.16742 35.9071 9.90363 37.296C12.2044 39.1367 16.154 40.074 18.5847 39.3795C21.0154 38.685 22.7516 36.6016 23.446 35.2126C24.1405 33.8236 25.5295 30.6985 24.1405 25.8371C22.7516 20.9757 18.2374 18.8922 17.1957 18.545Z" fill="#FAA21E"/>
<path d="M17.1957 18.545C16.154 18.1978 14.0705 17.8505 11.9871 18.545C10.405 19.0724 9.55638 19.934 8.16742 21.6702C6.47323 23.7879 5.73673 27.5733 6.08397 30.3512C6.43121 33.1292 8.16742 35.9071 9.90363 37.296C12.2044 39.1367 16.154 40.074 18.5847 39.3795C21.0154 38.685 22.7516 36.6016 23.446 35.2126C24.1405 33.8236 25.5295 30.6985 24.1405 25.8371C22.7516 20.9757 18.2374 18.8922 17.1957 18.545Z" fill="white" fill-opacity="0.2"/>
<path d="M16.8053 20.7508C15.986 20.4777 14.3474 20.2046 12.7088 20.7508C11.4645 21.1656 10.7971 21.8432 9.70466 23.2087C8.37219 24.8743 7.79294 27.8515 8.06604 30.0363C8.33915 32.2211 9.70466 34.4059 11.0702 35.4984C12.8797 36.946 15.986 37.6832 17.8978 37.137C19.8095 36.5908 21.175 34.9521 21.7212 33.8597C22.2674 32.7673 23.3598 30.3094 22.2674 26.4859C21.175 22.6625 17.6247 21.0239 16.8053 20.7508Z" fill="#FAA21E"/>
<path d="M16.8053 20.7508C15.986 20.4777 14.3474 20.2046 12.7088 20.7508C11.4645 21.1656 10.7971 21.8432 9.70466 23.2087C8.37219 24.8743 7.79294 27.8515 8.06604 30.0363C8.33915 32.2211 9.70466 34.4059 11.0702 35.4984C12.8797 36.946 15.986 37.6832 17.8978 37.137C19.8095 36.5908 21.175 34.9521 21.7212 33.8597C22.2674 32.7673 23.3598 30.3094 22.2674 26.4859C21.175 22.6625 17.6247 21.0239 16.8053 20.7508Z" fill="white" fill-opacity="0.6"/>
<path d="M16.415 22.9566C15.8181 22.7576 14.6243 22.5586 13.4305 22.9566C12.524 23.2587 12.0378 23.7524 11.2419 24.7472C10.2712 25.9607 9.84915 28.1296 10.0481 29.7214C10.2471 31.3131 11.2419 32.9048 12.2367 33.7007C13.555 34.7553 15.8181 35.2924 17.2108 34.8944C18.6036 34.4965 19.5984 33.3027 19.9964 32.5069C20.3943 31.711 21.1901 29.9203 20.3943 27.1348C19.5984 24.3493 17.0119 23.1555 16.415 22.9566Z" fill="#FAA21E"/>
<path d="M16.415 22.9566C15.8181 22.7576 14.6243 22.5586 13.4305 22.9566C12.524 23.2587 12.0378 23.7524 11.2419 24.7472C10.2712 25.9607 9.84915 28.1296 10.0481 29.7214C10.2471 31.3131 11.2419 32.9048 12.2367 33.7007C13.555 34.7553 15.8181 35.2924 17.2108 34.8944C18.6036 34.4965 19.5984 33.3027 19.9964 32.5069C20.3943 31.711 21.1901 29.9203 20.3943 27.1348C19.5984 24.3493 17.0119 23.1555 16.415 22.9566Z" fill="white" fill-opacity="0.2"/>
<path d="M16.0277 25.1448C15.6515 25.0194 14.899 24.894 14.1465 25.1448C13.575 25.3353 13.2685 25.6465 12.7669 26.2736C12.1549 27.0385 11.8889 28.4057 12.0143 29.4091C12.1398 30.4124 12.7668 31.4158 13.3939 31.9174C14.225 32.5822 15.6515 32.9208 16.5294 32.6699C17.4073 32.4191 18.0344 31.6666 18.2853 31.1649C18.5361 30.6632 19.0378 29.5345 18.5361 27.7786C18.0344 26.0228 16.404 25.2702 16.0277 25.1448Z" fill="#FAA21E"/>
<path d="M16.0277 25.1448C15.6515 25.0194 14.899 24.894 14.1465 25.1448C13.575 25.3353 13.2685 25.6465 12.7669 26.2736C12.1549 27.0385 11.8889 28.4057 12.0143 29.4091C12.1398 30.4124 12.7668 31.4158 13.3939 31.9174C14.225 32.5822 15.6515 32.9208 16.5294 32.6699C17.4073 32.4191 18.0344 31.6666 18.2853 31.1649C18.5361 30.6632 19.0378 29.5345 18.5361 27.7786C18.0344 26.0228 16.404 25.2702 16.0277 25.1448Z" fill="white" fill-opacity="0.6"/>
<path d="M15.687 27.0701C15.5049 27.0094 15.1406 26.9487 14.7764 27.0701C14.4998 27.1623 14.3514 27.3129 14.1086 27.6165C13.8124 27.9867 13.6836 28.6485 13.7443 29.1342C13.805 29.6199 14.1086 30.1056 14.4121 30.3484C14.8144 30.6702 15.5049 30.8341 15.9299 30.7127C16.3548 30.5912 16.6584 30.227 16.7798 29.9841C16.9012 29.7413 17.144 29.1949 16.9012 28.345C16.6584 27.4951 15.8692 27.1308 15.687 27.0701Z" fill="#FAA21E"/>
<path d="M15.687 27.0701C15.5049 27.0094 15.1406 26.9487 14.7764 27.0701C14.4998 27.1623 14.3514 27.3129 14.1086 27.6165C13.8124 27.9867 13.6836 28.6485 13.7443 29.1342C13.805 29.6199 14.1086 30.1056 14.4121 30.3484C14.8144 30.6702 15.5049 30.8341 15.9299 30.7127C16.3548 30.5912 16.6584 30.227 16.7798 29.9841C16.9012 29.7413 17.144 29.1949 16.9012 28.345C16.6584 27.4951 15.8692 27.1308 15.687 27.0701Z" fill="white" fill-opacity="0.2"/>
<path d="M38 4.54993L14 14.5L17 15L39 4.74993C38.6044 4.65001 38.3855 4.60608 38 4.54993Z" fill="#FAA21E"/>
<path d="M38 4.54993L14 14.5L17 15L39 4.74993C38.6044 4.65001 38.3855 4.60608 38 4.54993Z" fill="white" fill-opacity="0.2"/>
<path d="M28 27L27.5 24.5L48.5 12.5C48.7543 12.8756 48.8666 13.0951 49 13.5L28 27Z" fill="#FAA21E"/>
<path d="M28 27L27.5 24.5L48.5 12.5C48.7543 12.8756 48.8666 13.0951 49 13.5L28 27Z" fill="white" fill-opacity="0.2"/>
<path d="M28 33.5L28.5 31.5L49.95 17.5C50.0072 17.8799 50.0053 18.0992 49.95 18.5L28 33.5Z" fill="#FAA21E"/>
<path d="M28 33.5L28.5 31.5L49.95 17.5C50.0072 17.8799 50.0053 18.0992 49.95 18.5L28 33.5Z" fill="white" fill-opacity="0.2"/>
</svg>
