<svg width="50" height="50" viewBox="0 0 50 50" fill="none" xmlns="http://www.w3.org/2000/svg">
<g clip-path="url(#clip0_4792_7277)">
<path d="M2.23169 46.101C-1.47357 41.0412 0.23675 36.2624 1.6617 35.4191C14.1076 27.642 41.8523 7.00948 42.5 8.5C44.1598 12.3194 46.2687 13.9843 50 13.9843C46.1997 16.7953 38.806 23.5525 33.5821 28.7045C28.3328 33.8817 19.2552 45.4087 16.5 50C13 48 5.19589 50.1489 2.23169 46.101Z" fill="#C57A09"/>
<path d="M3.94214 41.0407L12.2077 35.4187C12.7777 36.262 13.8038 38.8481 13.3478 42.4463C12.7777 46.9439 10.2126 46.6628 7.64739 45.8195C5.59525 45.1448 4.32216 42.3526 3.94214 41.0407Z" fill="#FAA21E"/>
<path d="M3.94214 41.0407L12.2077 35.4187C12.7777 36.262 13.8038 38.8481 13.3478 42.4463C12.7777 46.9439 10.2126 46.6628 7.64739 45.8195C5.59525 45.1448 4.32216 42.3526 3.94214 41.0407Z" fill="black" fill-opacity="0.4"/>
<path d="M9.35764 37.4037C6.62145 35.3797 3.37223 34.2945 1.66211 35.4189C6.98248 30.9212 18.5353 20.9872 22.1835 17.1643C25.8318 13.3413 33.0143 4.32729 36.1495 0.298173C37.5746 -0.170331 41.3939 -0.432693 45.2701 2.26589C49.1464 4.96447 49.3554 8.26273 48.9754 9.57454C44.9851 12.4793 35.6365 19.638 30.1641 25.0352C24.6917 30.4323 15.9131 40.9643 12.2078 45.5556C12.3979 43.6816 12.0938 39.4276 9.35764 37.4037Z" fill="#FAA21E"/>
<path d="M9.35764 37.4037C6.62145 35.3797 3.37223 34.2945 1.66211 35.4189C6.98248 30.9212 18.5353 20.9872 22.1835 17.1643C25.8318 13.3413 33.0143 4.32729 36.1495 0.298173C37.5746 -0.170331 41.3939 -0.432693 45.2701 2.26589C49.1464 4.96447 49.3554 8.26273 48.9754 9.57454C44.9851 12.4793 35.6365 19.638 30.1641 25.0352C24.6917 30.4323 15.9131 40.9643 12.2078 45.5556C12.3979 43.6816 12.0938 39.4276 9.35764 37.4037Z" fill="white" fill-opacity="0.2"/>
<path d="M16 22.0378C17.1149 20.4312 22.1317 19.36 26.5912 20.4312C31.0506 21.5023 35.5101 25.2511 34.9526 29" stroke="#D0333D" stroke-width="1.5625"/>
<path d="M16 22.0378C17.1149 20.4312 22.1317 19.36 26.5912 20.4312C31.0506 21.5023 35.5101 25.2511 34.9526 29" stroke="black" stroke-opacity="0.2" stroke-width="1.5625"/>
<path d="M22 16.0789C25.2871 15.5532 28.5741 17.6556 30.2177 22.3858C31.8866 27.1892 30.5829 32.8976 29.122 35" stroke="#D0333D" stroke-width="1.5625"/>
<path d="M22 16.0789C25.2871 15.5532 28.5741 17.6556 30.2177 22.3858C31.8866 27.1892 30.5829 32.8976 29.122 35" stroke="black" stroke-opacity="0.2" stroke-width="1.5625"/>
</g>
<defs>
<clipPath id="clip0_4792_7277">
<rect width="50" height="50" fill="white" transform="matrix(-1 0 0 1 50 0)"/>
</clipPath>
</defs>
</svg>
