<svg width="50" height="50" viewBox="0 0 50 50" fill="none" xmlns="http://www.w3.org/2000/svg">
<path d="M34 21.9131C34 26.3185 32.2857 30.3034 26 30.9534C20.8571 31.4852 18 27.3821 18 22.9767C18 18.5713 21.5817 15 26 15C30.4183 15 34 17.5077 34 21.9131Z" fill="#D0333D"/>
<path d="M34 21.9131C34 26.3185 32.2857 30.3034 26 30.9534C20.8571 31.4852 18 27.3821 18 22.9767C18 18.5713 21.5817 15 26 15C30.4183 15 34 17.5077 34 21.9131Z" fill="black" fill-opacity="0.4"/>
<path d="M36.5233 13.6391C35.718 14.0613 33.8389 14.8706 33 15.2225C34.1744 16.1022 35.0133 17.8616 35.5166 20.5007C36.02 23.1397 35.5166 25.251 35.0133 26.3066C37.0266 27.3622 40.0466 27.3622 43.0665 25.251C46.0865 23.1397 46.4668 18.2214 45.5831 15.7503C44.4506 12.5834 41.5565 11 39.5432 11C38.8721 11.7038 37.3286 13.2168 36.5233 13.6391Z" fill="#D0333D"/>
<path d="M36.5233 13.6391C35.718 14.0613 33.8389 14.8706 33 15.2225C34.1744 16.1022 35.0133 17.8616 35.5166 20.5007C36.02 23.1397 35.5166 25.251 35.0133 26.3066C37.0266 27.3622 40.0466 27.3622 43.0665 25.251C46.0865 23.1397 46.4668 18.2214 45.5831 15.7503C44.4506 12.5834 41.5565 11 39.5432 11C38.8721 11.7038 37.3286 13.2168 36.5233 13.6391Z" fill="black" fill-opacity="0.4"/>
<path d="M12 17.7491C13.6 18.189 16 17.9324 17 17.7491C16.8333 18.6655 16.5 20.8282 16.5 22.1478V27.0962C15.5 28.0126 12.7 29.6254 9.5 28.7457C5.5 27.6461 4 24.3471 4 21.0481C4 17.7491 6 16.0997 7 15C8 15.7331 10.4 17.3093 12 17.7491Z" fill="#D0333D"/>
<path d="M12 17.7491C13.6 18.189 16 17.9324 17 17.7491C16.8333 18.6655 16.5 20.8282 16.5 22.1478V27.0962C15.5 28.0126 12.7 29.6254 9.5 28.7457C5.5 27.6461 4 24.3471 4 21.0481C4 17.7491 6 16.0997 7 15C8 15.7331 10.4 17.3093 12 17.7491Z" fill="black" fill-opacity="0.4"/>
<path d="M13.9922 30.9297C11.2033 31.5689 10 30.9297 9 30.5C7.77213 31.7865 6.50003 33.219 6.5 36.5C6.49997 39.781 8.31638 42.772 12 44C16.0562 45.3522 19.3951 43.3946 21.5 40.5C23.1512 38.2293 23.1754 34.9297 23 33C22.1229 32.6784 20.4463 32.0224 19.7807 31.4122L19.7807 31.4121C18.7282 30.4473 17.8512 29.6432 17.6758 29C17.1495 29.4824 15.6761 30.5438 13.9922 30.9297Z" fill="#D0333D"/>
<path d="M13.9922 30.9297C11.2033 31.5689 10 30.9297 9 30.5C7.77213 31.7865 6.50003 33.219 6.5 36.5C6.49997 39.781 8.31638 42.772 12 44C16.0562 45.3522 19.3951 43.3946 21.5 40.5C23.1512 38.2293 23.1754 34.9297 23 33C22.1229 32.6784 20.4463 32.0224 19.7807 31.4122L19.7807 31.4121C18.7282 30.4473 17.8512 29.6432 17.6758 29C17.1495 29.4824 15.6761 30.5438 13.9922 30.9297Z" fill="black" fill-opacity="0.4"/>
<path d="M23.4694 41.296C24.8072 39.2839 25.1915 34.9012 25 33C28.4474 33.5185 32.6625 36.111 33.8116 40.259C34.6593 43.3187 33.0086 48.1438 28.5 49.5C24.478 50.7098 19.7983 48.5925 17.5 46C19.5 45.519 21.7457 43.8885 23.4694 41.296Z" fill="#D0333D"/>
<path d="M23.4694 41.296C24.8072 39.2839 25.1915 34.9012 25 33C28.4474 33.5185 32.6625 36.111 33.8116 40.259C34.6593 43.3187 33.0086 48.1438 28.5 49.5C24.478 50.7098 19.7983 48.5925 17.5 46C19.5 45.519 21.7457 43.8885 23.4694 41.296Z" fill="black" fill-opacity="0.4"/>
<path d="M32.0266 30.6129C31.5221 31.129 29.5044 31.9892 29 32.1613C30.3451 33.1935 32.6991 34.7419 34.0443 36.8065C35.3894 38.871 35.5576 40.9355 35.5576 43C38.5841 43 43.347 40.129 44.5 36C45.5089 32.3871 44.301 28.7204 43.6284 27C42.6195 27.6882 40.6361 28.6687 39.0885 29.0645C37.0708 29.5806 35.2213 28.8925 34.0443 28.5484L32.0266 30.6129Z" fill="#D0333D"/>
<path d="M32.0266 30.6129C31.5221 31.129 29.5044 31.9892 29 32.1613C30.3451 33.1935 32.6991 34.7419 34.0443 36.8065C35.3894 38.871 35.5576 40.9355 35.5576 43C38.5841 43 43.347 40.129 44.5 36C45.5089 32.3871 44.301 28.7204 43.6284 27C42.6195 27.6882 40.6361 28.6687 39.0885 29.0645C37.0708 29.5806 35.2213 28.8925 34.0443 28.5484L32.0266 30.6129Z" fill="black" fill-opacity="0.4"/>
<path d="M12.5 11C9.5 10.2499 6.33333 10.8374 5 11C6.33333 11.8133 8.56393 13.8256 11.5 15C14 16 17.3333 15.6625 18.5 15.4999C17.3333 14.6866 15.5 11.7501 12.5 11Z" fill="#2FC4A7"/>
<path d="M12.5 11C9.5 10.2499 6.33333 10.8374 5 11C6.33333 11.8133 8.56393 13.8256 11.5 15C14 16 17.3333 15.6625 18.5 15.4999C17.3333 14.6866 15.5 11.7501 12.5 11Z" fill="black" fill-opacity="0.2"/>
<path d="M23.898 5.86836C25.1247 3.14989 27.4835 1.13198 28.4113 0.230033C28.2362 1.73452 28.4461 4.65387 27.5851 7.58626C26.852 10.0831 24.5858 12.3807 23.7583 13.1574C23.8331 11.7782 22.6713 8.58685 23.898 5.86836Z" fill="#2FC4A7"/>
<path d="M23.898 5.86836C25.1247 3.14989 27.4835 1.13198 28.4113 0.230033C28.2362 1.73452 28.4461 4.65387 27.5851 7.58626C26.852 10.0831 24.5858 12.3807 23.7583 13.1574C23.8331 11.7782 22.6713 8.58685 23.898 5.86836Z" fill="black" fill-opacity="0.2"/>
<path d="M15.1545 7.65349C14.7992 5.60626 16.2059 2.02315 16.9537 0.487504C18.2342 2.0227 20.8664 5.50252 21.1506 7.1403C21.4348 8.77809 20.8572 12.4634 20.5329 14.1013C18.8881 12.805 15.5097 9.70072 15.1545 7.65349Z" fill="#2FC4A7"/>
<path d="M15.1545 7.65349C14.7992 5.60626 16.2059 2.02315 16.9537 0.487504C18.2342 2.0227 20.8664 5.50252 21.1506 7.1403C21.4348 8.77809 20.8572 12.4634 20.5329 14.1013C18.8881 12.805 15.5097 9.70072 15.1545 7.65349Z" fill="black" fill-opacity="0.2"/>
<path d="M32.1538 7.21503C30.3077 7.60448 28.6154 10.9472 28 12.5699C29.5385 12.8945 33.0769 13.3489 34.9231 12.5699C36.7692 11.7909 39.0769 8.67542 40 7.21503C38.1538 7.05276 34 6.82559 32.1538 7.21503Z" fill="#2FC4A7"/>
<path d="M32.1538 7.21503C30.3077 7.60448 28.6154 10.9472 28 12.5699C29.5385 12.8945 33.0769 13.3489 34.9231 12.5699C36.7692 11.7909 39.0769 8.67542 40 7.21503C38.1538 7.05276 34 6.82559 32.1538 7.21503Z" fill="black" fill-opacity="0.2"/>
</svg>
