<svg width="51" height="51" viewBox="0 0 51 51" fill="none" xmlns="http://www.w3.org/2000/svg">
<path d="M46.7948 23.1375L24.1409 23.7655V33.6772C23.0015 33.4873 19.8111 33.5633 16.165 35.3863C12.5188 37.2094 12.0993 41.9768 13.9832 45.1167C17.0216 45.4965 19.1947 45.7447 27.1707 45.7447C34.8618 45.7447 41.5257 44.6203 44.754 43.8607L46.7948 23.1375Z" fill="#141414"/>
<path d="M46.7948 23.1375L24.1409 23.7655V33.6772C23.0015 33.4873 19.8111 33.5633 16.165 35.3863C12.5188 37.2094 12.0993 41.9768 13.9832 45.1167C17.0216 45.4965 19.1947 45.7447 27.1707 45.7447C34.8618 45.7447 41.5257 44.6203 44.754 43.8607L46.7948 23.1375Z" stroke="#898989" stroke-width="0.498148"/>
<path d="M46.7948 23.1375L24.1409 23.7655V33.6772C23.0015 33.4873 19.8111 33.5633 16.165 35.3863C12.5188 37.2094 12.0993 41.9768 13.9832 45.1167C17.0216 45.4965 19.1947 45.7447 27.1707 45.7447C34.8618 45.7447 41.5257 44.6203 44.754 43.8607L46.7948 23.1375Z" stroke="white" stroke-opacity="0.2" stroke-width="0.498148"/>
<path d="M27.9789 47.0006C21.3271 47.0006 15.2607 46.3155 13.3552 45.973V43.8607C15.4339 44.0891 21.7428 44.6029 27.9789 44.6029C34.215 44.6029 42.1557 43.6894 44.754 43.2327V45.973C42.3289 46.3155 34.6308 47.0006 27.9789 47.0006Z" fill="#898989"/>
<path d="M27.9789 47.0006C21.3271 47.0006 15.2607 46.3155 13.3552 45.973V43.8607C15.4339 44.0891 21.7428 44.6029 27.9789 44.6029C34.215 44.6029 42.1557 43.6894 44.754 43.2327V45.973C42.3289 46.3155 34.6308 47.0006 27.9789 47.0006Z" fill="black" fill-opacity="0.6"/>
<path d="M27.9789 47.0006C21.3271 47.0006 15.2607 46.3155 13.3552 45.973V43.8607C15.4339 44.0891 21.7428 44.6029 27.9789 44.6029C34.215 44.6029 42.1557 43.6894 44.754 43.2327V45.973C42.3289 46.3155 34.6308 47.0006 27.9789 47.0006Z" stroke="#898989" stroke-width="0.498148"/>
<path d="M27.9789 47.0006C21.3271 47.0006 15.2607 46.3155 13.3552 45.973V43.8607C15.4339 44.0891 21.7428 44.6029 27.9789 44.6029C34.215 44.6029 42.1557 43.6894 44.754 43.2327V45.973C42.3289 46.3155 34.6308 47.0006 27.9789 47.0006Z" stroke="white" stroke-opacity="0.2" stroke-width="0.498148"/>
<path d="M35.4912 26.9053C31.4219 26.9053 26.2599 27.4635 24.1876 27.7426V35.069L27.1967 32.1114L28.1893 36.0818L30.6708 33.104L32.1597 37.0745L33.6487 32.6077L35.6339 36.5782L37.6191 34.5929L39.6043 36.5782L41.0932 33.6037L42.5821 37.5708L44.071 32.6077L45.5599 37.0745L46.7948 26.9053C44.7224 26.7193 39.5605 26.9053 35.4912 26.9053Z" fill="#898989"/>
<path d="M35.4912 26.9053C31.4219 26.9053 26.2599 27.4635 24.1876 27.7426V35.069L27.1967 32.1114L28.1893 36.0818L30.6708 33.104L32.1597 37.0745L33.6487 32.6077L35.6339 36.5782L37.6191 34.5929L39.6043 36.5782L41.0932 33.6037L42.5821 37.5708L44.071 32.6077L45.5599 37.0745L46.7948 26.9053C44.7224 26.7193 39.5605 26.9053 35.4912 26.9053Z" fill="black" fill-opacity="0.8"/>
<path d="M35.4912 26.9053C31.4219 26.9053 26.2599 27.4635 24.1876 27.7426V35.069L27.1967 32.1114L28.1893 36.0818L30.6708 33.104L32.1597 37.0745L33.6487 32.6077L35.6339 36.5782L37.6191 34.5929L39.6043 36.5782L41.0932 33.6037L42.5821 37.5708L44.071 32.6077L45.5599 37.0745L46.7948 26.9053C44.7224 26.7193 39.5605 26.9053 35.4912 26.9053Z" stroke="#898989" stroke-width="0.498148"/>
<path d="M35.4912 26.9053C31.4219 26.9053 26.2599 27.4635 24.1876 27.7426V35.069L27.1967 32.1114L28.1893 36.0818L30.6708 33.104L32.1597 37.0745L33.6487 32.6077L35.6339 36.5782L37.6191 34.5929L39.6043 36.5782L41.0932 33.6037L42.5821 37.5708L44.071 32.6077L45.5599 37.0745L46.7948 26.9053C44.7224 26.7193 39.5605 26.9053 35.4912 26.9053Z" stroke="white" stroke-opacity="0.2" stroke-width="0.498148"/>
<path d="M36.1191 19.3695C32.6987 19.3695 25.4435 19.9975 22.9316 21.3832L23.9035 29.6687L26.4212 27.409L29.1819 31.1188L30.1745 28.141L32.1597 30.1262L34.1449 28.6373L35.6338 31.1188L37.619 27.6447L39.108 31.1188L41.0932 28.141L43.0784 30.1262L43.8642 26.9052L46.8545 29.6687L48.0507 20.63C45.0603 19.3695 39.5396 19.3695 36.1191 19.3695Z" fill="#898989"/>
<path d="M36.1191 19.3695C32.6987 19.3695 25.4435 19.9975 22.9316 21.3832L23.9035 29.6687L26.4212 27.409L29.1819 31.1188L30.1745 28.141L32.1597 30.1262L34.1449 28.6373L35.6338 31.1188L37.619 27.6447L39.108 31.1188L41.0932 28.141L43.0784 30.1262L43.8642 26.9052L46.8545 29.6687L48.0507 20.63C45.0603 19.3695 39.5396 19.3695 36.1191 19.3695Z" fill="black" fill-opacity="0.6"/>
<path d="M36.1191 19.3695C32.6987 19.3695 25.4435 19.9975 22.9316 21.3832L23.9035 29.6687L26.4212 27.409L29.1819 31.1188L30.1745 28.141L32.1597 30.1262L34.1449 28.6373L35.6338 31.1188L37.619 27.6447L39.108 31.1188L41.0932 28.141L43.0784 30.1262L43.8642 26.9052L46.8545 29.6687L48.0507 20.63C45.0603 19.3695 39.5396 19.3695 36.1191 19.3695Z" stroke="#898989" stroke-width="0.498148"/>
<path d="M36.1191 19.3695C32.6987 19.3695 25.4435 19.9975 22.9316 21.3832L23.9035 29.6687L26.4212 27.409L29.1819 31.1188L30.1745 28.141L32.1597 30.1262L34.1449 28.6373L35.6338 31.1188L37.619 27.6447L39.108 31.1188L41.0932 28.141L43.0784 30.1262L43.8642 26.9052L46.8545 29.6687L48.0507 20.63C45.0603 19.3695 39.5396 19.3695 36.1191 19.3695Z" stroke="white" stroke-opacity="0.2" stroke-width="0.498148"/>
<path d="M34.4079 16.2297C29.9448 16.2297 23.8081 16.6283 22.9317 17.4857C22.0553 18.343 22.7216 21.7887 22.9317 24.3934L25.2115 21.2535L26.7004 23.8583L28.6856 21.718L30.1745 25.1632L32.1597 22.6817L33.6486 24.1706L35.1376 21.2535L37.6191 25.1632L39.6043 21.1928L40.5969 24.6669L42.0858 22.1854L44.2261 24.3934L45.5599 21.718L48.0507 23.7654C48.0507 21.8815 48.7003 18.6933 47.4228 17.4857C46.1452 16.2781 38.8709 16.2297 34.4079 16.2297Z" fill="#898989"/>
<path d="M34.4079 16.2297C29.9448 16.2297 23.8081 16.6283 22.9317 17.4857C22.0553 18.343 22.7216 21.7887 22.9317 24.3934L25.2115 21.2535L26.7004 23.8583L28.6856 21.718L30.1745 25.1632L32.1597 22.6817L33.6486 24.1706L35.1376 21.2535L37.6191 25.1632L39.6043 21.1928L40.5969 24.6669L42.0858 22.1854L44.2261 24.3934L45.5599 21.718L48.0507 23.7654C48.0507 21.8815 48.7003 18.6933 47.4228 17.4857C46.1452 16.2781 38.8709 16.2297 34.4079 16.2297Z" fill="black" fill-opacity="0.4"/>
<path d="M34.4079 16.2297C29.9448 16.2297 23.8081 16.6283 22.9317 17.4857C22.0553 18.343 22.7216 21.7887 22.9317 24.3934L25.2115 21.2535L26.7004 23.8583L28.6856 21.718L30.1745 25.1632L32.1597 22.6817L33.6486 24.1706L35.1376 21.2535L37.6191 25.1632L39.6043 21.1928L40.5969 24.6669L42.0858 22.1854L44.2261 24.3934L45.5599 21.718L48.0507 23.7654C48.0507 21.8815 48.7003 18.6933 47.4228 17.4857C46.1452 16.2781 38.8709 16.2297 34.4079 16.2297Z" stroke="#898989" stroke-width="0.498148"/>
<path d="M34.4079 16.2297C29.9448 16.2297 23.8081 16.6283 22.9317 17.4857C22.0553 18.343 22.7216 21.7887 22.9317 24.3934L25.2115 21.2535L26.7004 23.8583L28.6856 21.718L30.1745 25.1632L32.1597 22.6817L33.6486 24.1706L35.1376 21.2535L37.6191 25.1632L39.6043 21.1928L40.5969 24.6669L42.0858 22.1854L44.2261 24.3934L45.5599 21.718L48.0507 23.7654C48.0507 21.8815 48.7003 18.6933 47.4228 17.4857C46.1452 16.2781 38.8709 16.2297 34.4079 16.2297Z" stroke="white" stroke-opacity="0.2" stroke-width="0.498148"/>
<path fill-rule="evenodd" clip-rule="evenodd" d="M35.5305 13.7424C30.8661 13.7872 22.3805 14.0977 20.7448 15.7334C18.4649 18.0133 21.7374 31.1188 21.7374 31.1188C18.3809 31.2 16.4892 31.6775 14.8112 32.8379C7.99863 32.809 5.91141 32.5687 3.06448 32.2128C1.18055 29.0729 1.60013 24.3055 5.24628 22.4825C8.89242 20.6594 12.0828 20.5834 13.2222 20.7733V10.8616L35.8761 10.2336L35.5305 13.7424Z" fill="#141414"/>
<path d="M35.5305 13.7424L35.5329 13.9923L35.7573 13.9902L35.7793 13.7669L35.5305 13.7424ZM20.7448 15.7334L20.9215 15.9102L20.9215 15.9102L20.7448 15.7334ZM21.7374 31.1188L21.7434 31.3687L22.0556 31.3612L21.9799 31.0582L21.7374 31.1188ZM14.8112 32.8379L14.8101 33.0879L14.8887 33.0882L14.9534 33.0435L14.8112 32.8379ZM3.06448 32.2128L2.85011 32.3414L2.91272 32.4458L3.03348 32.4609L3.06448 32.2128ZM5.24628 22.4825L5.13447 22.2589L5.13447 22.2589L5.24628 22.4825ZM13.2222 20.7733L13.1811 21.0199L13.4722 21.0685V20.7733H13.2222ZM13.2222 10.8616L13.2153 10.6117L12.9722 10.6185V10.8616H13.2222ZM35.8761 10.2336L36.1249 10.2581L36.1526 9.97588L35.8691 9.98374L35.8761 10.2336ZM35.5281 13.4924C33.1934 13.5148 29.8972 13.6037 26.9773 13.8925C25.5179 14.0368 24.1456 14.2317 23.0316 14.4952C22.4746 14.627 21.9768 14.7772 21.5625 14.9492C21.1514 15.1199 20.8057 15.3189 20.568 15.5566L20.9215 15.9102C21.0927 15.739 21.37 15.5705 21.7543 15.4109C22.1353 15.2527 22.6053 15.1099 23.1467 14.9818C24.2296 14.7257 25.5769 14.5334 27.0265 14.3901C29.9244 14.1035 33.2032 14.0147 35.5329 13.9923L35.5281 13.4924ZM20.568 15.5566C20.2337 15.8909 20.0217 16.3996 19.8888 16.9946C19.7548 17.5948 19.695 18.313 19.688 19.097C19.674 20.6655 19.8715 22.5324 20.1388 24.3181C20.4064 26.1056 20.7454 27.8205 21.0172 29.0879C21.1532 29.7218 21.2725 30.2442 21.3578 30.6083C21.4005 30.7903 21.4346 30.9329 21.4582 31.03C21.47 31.0785 21.4791 31.1158 21.4853 31.1409C21.4884 31.1535 21.4907 31.163 21.4923 31.1695C21.4931 31.1727 21.4937 31.1751 21.4942 31.1768C21.4944 31.1776 21.4945 31.1782 21.4946 31.1787C21.4947 31.1789 21.4947 31.1791 21.4948 31.1792C21.4948 31.1793 21.4948 31.1794 21.7374 31.1188C21.9799 31.0582 21.9799 31.0582 21.9799 31.0581C21.9799 31.058 21.9798 31.0579 21.9798 31.0577C21.9797 31.0574 21.9796 31.0568 21.9794 31.056C21.979 31.0545 21.9784 31.0522 21.9776 31.0491C21.9761 31.0429 21.9738 31.0337 21.9708 31.0214C21.9647 30.9968 21.9558 30.9601 21.9441 30.9121C21.9208 30.8162 21.887 30.6749 21.8446 30.4942C21.7599 30.1327 21.6413 29.6134 21.5061 28.983C21.2356 27.7219 20.8989 26.0179 20.6333 24.244C20.3675 22.4683 20.1744 20.6314 20.188 19.1014C20.1948 18.3362 20.2534 17.6565 20.3768 17.1035C20.5014 16.5454 20.6858 16.1459 20.9215 15.9102L20.568 15.5566ZM21.7313 30.8689C18.3535 30.9505 16.4049 31.4319 14.669 32.6322L14.9534 33.0435C16.5736 31.9231 18.4083 31.4494 21.7434 31.3687L21.7313 30.8689ZM3.03348 32.4609C5.89094 32.8181 7.98818 33.0589 14.8101 33.0879L14.8123 32.5879C8.00909 32.559 5.93189 32.3193 3.09549 31.9647L3.03348 32.4609ZM5.13447 22.2589C3.2295 23.2113 2.17223 24.9332 1.83553 26.8097C1.49965 28.6816 1.87711 30.7198 2.85011 32.3414L3.27886 32.0842C2.36793 30.566 2.01321 28.6505 2.32767 26.898C2.64131 25.1501 3.6169 23.5767 5.35808 22.7061L5.13447 22.2589ZM13.2633 20.5267C12.0686 20.3276 8.82493 20.4136 5.13447 22.2589L5.35808 22.7061C8.95992 20.9052 12.097 20.8392 13.1811 21.0199L13.2633 20.5267ZM12.9722 10.8616V20.7733H13.4722V10.8616H12.9722ZM35.8691 9.98374L13.2153 10.6117L13.2292 11.1115L35.883 10.4835L35.8691 9.98374ZM35.7793 13.7669L36.1249 10.2581L35.6273 10.2091L35.2817 13.7179L35.7793 13.7669Z" fill="#898989"/>
<path d="M35.5305 13.7424L35.5329 13.9923L35.7573 13.9902L35.7793 13.7669L35.5305 13.7424ZM20.7448 15.7334L20.9215 15.9102L20.9215 15.9102L20.7448 15.7334ZM21.7374 31.1188L21.7434 31.3687L22.0556 31.3612L21.9799 31.0582L21.7374 31.1188ZM14.8112 32.8379L14.8101 33.0879L14.8887 33.0882L14.9534 33.0435L14.8112 32.8379ZM3.06448 32.2128L2.85011 32.3414L2.91272 32.4458L3.03348 32.4609L3.06448 32.2128ZM5.24628 22.4825L5.13447 22.2589L5.13447 22.2589L5.24628 22.4825ZM13.2222 20.7733L13.1811 21.0199L13.4722 21.0685V20.7733H13.2222ZM13.2222 10.8616L13.2153 10.6117L12.9722 10.6185V10.8616H13.2222ZM35.8761 10.2336L36.1249 10.2581L36.1526 9.97588L35.8691 9.98374L35.8761 10.2336ZM35.5281 13.4924C33.1934 13.5148 29.8972 13.6037 26.9773 13.8925C25.5179 14.0368 24.1456 14.2317 23.0316 14.4952C22.4746 14.627 21.9768 14.7772 21.5625 14.9492C21.1514 15.1199 20.8057 15.3189 20.568 15.5566L20.9215 15.9102C21.0927 15.739 21.37 15.5705 21.7543 15.4109C22.1353 15.2527 22.6053 15.1099 23.1467 14.9818C24.2296 14.7257 25.5769 14.5334 27.0265 14.3901C29.9244 14.1035 33.2032 14.0147 35.5329 13.9923L35.5281 13.4924ZM20.568 15.5566C20.2337 15.8909 20.0217 16.3996 19.8888 16.9946C19.7548 17.5948 19.695 18.313 19.688 19.097C19.674 20.6655 19.8715 22.5324 20.1388 24.3181C20.4064 26.1056 20.7454 27.8205 21.0172 29.0879C21.1532 29.7218 21.2725 30.2442 21.3578 30.6083C21.4005 30.7903 21.4346 30.9329 21.4582 31.03C21.47 31.0785 21.4791 31.1158 21.4853 31.1409C21.4884 31.1535 21.4907 31.163 21.4923 31.1695C21.4931 31.1727 21.4937 31.1751 21.4942 31.1768C21.4944 31.1776 21.4945 31.1782 21.4946 31.1787C21.4947 31.1789 21.4947 31.1791 21.4948 31.1792C21.4948 31.1793 21.4948 31.1794 21.7374 31.1188C21.9799 31.0582 21.9799 31.0582 21.9799 31.0581C21.9799 31.058 21.9798 31.0579 21.9798 31.0577C21.9797 31.0574 21.9796 31.0568 21.9794 31.056C21.979 31.0545 21.9784 31.0522 21.9776 31.0491C21.9761 31.0429 21.9738 31.0337 21.9708 31.0214C21.9647 30.9968 21.9558 30.9601 21.9441 30.9121C21.9208 30.8162 21.887 30.6749 21.8446 30.4942C21.7599 30.1327 21.6413 29.6134 21.5061 28.983C21.2356 27.7219 20.8989 26.0179 20.6333 24.244C20.3675 22.4683 20.1744 20.6314 20.188 19.1014C20.1948 18.3362 20.2534 17.6565 20.3768 17.1035C20.5014 16.5454 20.6858 16.1459 20.9215 15.9102L20.568 15.5566ZM21.7313 30.8689C18.3535 30.9505 16.4049 31.4319 14.669 32.6322L14.9534 33.0435C16.5736 31.9231 18.4083 31.4494 21.7434 31.3687L21.7313 30.8689ZM3.03348 32.4609C5.89094 32.8181 7.98818 33.0589 14.8101 33.0879L14.8123 32.5879C8.00909 32.559 5.93189 32.3193 3.09549 31.9647L3.03348 32.4609ZM5.13447 22.2589C3.2295 23.2113 2.17223 24.9332 1.83553 26.8097C1.49965 28.6816 1.87711 30.7198 2.85011 32.3414L3.27886 32.0842C2.36793 30.566 2.01321 28.6505 2.32767 26.898C2.64131 25.1501 3.6169 23.5767 5.35808 22.7061L5.13447 22.2589ZM13.2633 20.5267C12.0686 20.3276 8.82493 20.4136 5.13447 22.2589L5.35808 22.7061C8.95992 20.9052 12.097 20.8392 13.1811 21.0199L13.2633 20.5267ZM12.9722 10.8616V20.7733H13.4722V10.8616H12.9722ZM35.8691 9.98374L13.2153 10.6117L13.2292 11.1115L35.883 10.4835L35.8691 9.98374ZM35.7793 13.7669L36.1249 10.2581L35.6273 10.2091L35.2817 13.7179L35.7793 13.7669Z" fill="white" fill-opacity="0.2"/>
<path fill-rule="evenodd" clip-rule="evenodd" d="M17.1876 31.6989C15.6822 32.1503 14.5655 32.8918 13.3711 34.0301C8.26147 33.8497 3.98148 33.3468 2.43658 33.0691V30.9568C4.51529 31.1852 10.8242 31.699 17.0603 31.699C17.1026 31.699 17.1451 31.699 17.1876 31.6989Z" fill="#898989"/>
<path fill-rule="evenodd" clip-rule="evenodd" d="M17.1876 31.6989C15.6822 32.1503 14.5655 32.8918 13.3711 34.0301C8.26147 33.8497 3.98148 33.3468 2.43658 33.0691V30.9568C4.51529 31.1852 10.8242 31.699 17.0603 31.699C17.1026 31.699 17.1451 31.699 17.1876 31.6989Z" fill="black" fill-opacity="0.6"/>
<path d="M17.1876 31.6989L17.2594 31.9383L17.1871 31.4489L17.1876 31.6989ZM13.3711 34.0301L13.3623 34.2799L13.4674 34.2837L13.5436 34.2111L13.3711 34.0301ZM2.43658 33.0691H2.18658V33.2782L2.39235 33.3152L2.43658 33.0691ZM2.43658 30.9568L2.46388 30.7083L2.18658 30.6779V30.9568H2.43658ZM17.1158 31.4594C15.5633 31.925 14.4134 32.6914 13.1986 33.8491L13.5436 34.2111C14.7176 33.0922 15.8011 32.3756 17.2594 31.9383L17.1158 31.4594ZM13.3799 33.7803C8.27834 33.6002 4.01077 33.0981 2.48082 32.8231L2.39235 33.3152C3.95219 33.5956 8.2446 34.0993 13.3623 34.2799L13.3799 33.7803ZM2.68658 33.0691V30.9568H2.18658V33.0691H2.68658ZM2.40929 31.2054C4.49524 31.4345 10.8134 31.949 17.0603 31.949V31.449C10.8349 31.449 4.53534 30.9359 2.46388 30.7083L2.40929 31.2054ZM17.0603 31.949C17.1028 31.949 17.1454 31.949 17.1881 31.9489L17.1871 31.4489C17.1447 31.449 17.1025 31.449 17.0603 31.449V31.949Z" fill="#898989"/>
<path d="M17.1876 31.6989L17.2594 31.9383L17.1871 31.4489L17.1876 31.6989ZM13.3711 34.0301L13.3623 34.2799L13.4674 34.2837L13.5436 34.2111L13.3711 34.0301ZM2.43658 33.0691H2.18658V33.2782L2.39235 33.3152L2.43658 33.0691ZM2.43658 30.9568L2.46388 30.7083L2.18658 30.6779V30.9568H2.43658ZM17.1158 31.4594C15.5633 31.925 14.4134 32.6914 13.1986 33.8491L13.5436 34.2111C14.7176 33.0922 15.8011 32.3756 17.2594 31.9383L17.1158 31.4594ZM13.3799 33.7803C8.27834 33.6002 4.01077 33.0981 2.48082 32.8231L2.39235 33.3152C3.95219 33.5956 8.2446 34.0993 13.3623 34.2799L13.3799 33.7803ZM2.68658 33.0691V30.9568H2.18658V33.0691H2.68658ZM2.40929 31.2054C4.49524 31.4345 10.8134 31.949 17.0603 31.949V31.449C10.8349 31.449 4.53534 30.9359 2.46388 30.7083L2.40929 31.2054ZM17.0603 31.949C17.1028 31.949 17.1454 31.949 17.1881 31.9489L17.1871 31.4489C17.1447 31.449 17.1025 31.449 17.0603 31.449V31.949Z" fill="white" fill-opacity="0.2"/>
<path fill-rule="evenodd" clip-rule="evenodd" d="M29.3595 13.9528C25.5478 14.1954 21.7785 14.6999 20.7448 15.7336C19.9719 16.5064 19.8371 18.5233 19.9965 20.8519L19.7521 20.2001L17.2706 23.178L16.278 19.2075L13.2689 22.1651V14.8387C15.3412 14.5596 20.5032 14.0014 24.5725 14.0014C25.9641 14.0014 27.4836 13.9797 28.9635 13.9585C29.0959 13.9566 29.2279 13.9547 29.3595 13.9528Z" fill="#898989"/>
<path fill-rule="evenodd" clip-rule="evenodd" d="M29.3595 13.9528C25.5478 14.1954 21.7785 14.6999 20.7448 15.7336C19.9719 16.5064 19.8371 18.5233 19.9965 20.8519L19.7521 20.2001L17.2706 23.178L16.278 19.2075L13.2689 22.1651V14.8387C15.3412 14.5596 20.5032 14.0014 24.5725 14.0014C25.9641 14.0014 27.4836 13.9797 28.9635 13.9585C29.0959 13.9566 29.2279 13.9547 29.3595 13.9528Z" fill="black" fill-opacity="0.8"/>
<path d="M29.3595 13.9528L29.3754 14.2023L29.3559 13.7028L29.3595 13.9528ZM20.7448 15.7336L20.9215 15.9104L20.9215 15.9104L20.7448 15.7336ZM19.9965 20.8519L19.7625 20.9397L20.246 20.8348L19.9965 20.8519ZM19.7521 20.2001L19.9862 20.1124L19.8353 19.7099L19.5601 20.0401L19.7521 20.2001ZM17.2706 23.178L17.0281 23.2386L17.1475 23.7162L17.4627 23.338L17.2706 23.178ZM16.278 19.2075L16.5205 19.1469L16.4145 18.7228L16.1028 19.0292L16.278 19.2075ZM13.2689 22.1651H13.0189V22.7614L13.4442 22.3434L13.2689 22.1651ZM13.2689 14.8387L13.2356 14.591L13.0189 14.6201V14.8387H13.2689ZM28.9635 13.9585L28.9599 13.7085L28.9599 13.7085L28.9635 13.9585ZM29.3436 13.7033C27.4338 13.8249 25.5272 14.0124 23.965 14.3007C23.1841 14.4448 22.483 14.6152 21.9079 14.8175C21.3388 15.0178 20.8665 15.2582 20.568 15.5568L20.9215 15.9104C21.1398 15.6921 21.5263 15.4818 22.0739 15.2892C22.6153 15.0987 23.2886 14.9339 24.0557 14.7924C25.5895 14.5094 27.4735 14.3234 29.3754 14.2023L29.3436 13.7033ZM20.568 15.5568C20.1188 16.006 19.8845 16.7772 19.7729 17.6786C19.6597 18.5931 19.6669 19.6973 19.7471 20.869L20.246 20.8348C20.1667 19.6778 20.1616 18.6093 20.2691 17.74C20.3783 16.8577 20.5979 16.234 20.9215 15.9104L20.568 15.5568ZM19.518 20.2879L19.7625 20.9397L20.2306 20.7641L19.9862 20.1124L19.518 20.2879ZM17.4627 23.338L19.9442 20.3602L19.5601 20.0401L17.0786 23.0179L17.4627 23.338ZM16.0355 19.2682L17.0281 23.2386L17.5132 23.1173L16.5205 19.1469L16.0355 19.2682ZM13.4442 22.3434L16.4533 19.3858L16.1028 19.0292L13.0937 21.9868L13.4442 22.3434ZM13.0189 14.8387V22.1651H13.5189V14.8387H13.0189ZM24.5725 13.7514C20.4869 13.7514 15.3123 14.3113 13.2356 14.591L13.3023 15.0865C15.3701 14.808 20.5195 14.2514 24.5725 14.2514V13.7514ZM28.9599 13.7085C27.4796 13.7297 25.962 13.7514 24.5725 13.7514V14.2514C25.9663 14.2514 27.4875 14.2296 28.9671 14.2085L28.9599 13.7085ZM29.3559 13.7028C29.2243 13.7047 29.0923 13.7066 28.9599 13.7085L28.9671 14.2085C29.0994 14.2066 29.2315 14.2047 29.363 14.2028L29.3559 13.7028Z" fill="#898989"/>
<path d="M29.3595 13.9528L29.3754 14.2023L29.3559 13.7028L29.3595 13.9528ZM20.7448 15.7336L20.9215 15.9104L20.9215 15.9104L20.7448 15.7336ZM19.9965 20.8519L19.7625 20.9397L20.246 20.8348L19.9965 20.8519ZM19.7521 20.2001L19.9862 20.1124L19.8353 19.7099L19.5601 20.0401L19.7521 20.2001ZM17.2706 23.178L17.0281 23.2386L17.1475 23.7162L17.4627 23.338L17.2706 23.178ZM16.278 19.2075L16.5205 19.1469L16.4145 18.7228L16.1028 19.0292L16.278 19.2075ZM13.2689 22.1651H13.0189V22.7614L13.4442 22.3434L13.2689 22.1651ZM13.2689 14.8387L13.2356 14.591L13.0189 14.6201V14.8387H13.2689ZM28.9635 13.9585L28.9599 13.7085L28.9599 13.7085L28.9635 13.9585ZM29.3436 13.7033C27.4338 13.8249 25.5272 14.0124 23.965 14.3007C23.1841 14.4448 22.483 14.6152 21.9079 14.8175C21.3388 15.0178 20.8665 15.2582 20.568 15.5568L20.9215 15.9104C21.1398 15.6921 21.5263 15.4818 22.0739 15.2892C22.6153 15.0987 23.2886 14.9339 24.0557 14.7924C25.5895 14.5094 27.4735 14.3234 29.3754 14.2023L29.3436 13.7033ZM20.568 15.5568C20.1188 16.006 19.8845 16.7772 19.7729 17.6786C19.6597 18.5931 19.6669 19.6973 19.7471 20.869L20.246 20.8348C20.1667 19.6778 20.1616 18.6093 20.2691 17.74C20.3783 16.8577 20.5979 16.234 20.9215 15.9104L20.568 15.5568ZM19.518 20.2879L19.7625 20.9397L20.2306 20.7641L19.9862 20.1124L19.518 20.2879ZM17.4627 23.338L19.9442 20.3602L19.5601 20.0401L17.0786 23.0179L17.4627 23.338ZM16.0355 19.2682L17.0281 23.2386L17.5132 23.1173L16.5205 19.1469L16.0355 19.2682ZM13.4442 22.3434L16.4533 19.3858L16.1028 19.0292L13.0937 21.9868L13.4442 22.3434ZM13.0189 14.8387V22.1651H13.5189V14.8387H13.0189ZM24.5725 13.7514C20.4869 13.7514 15.3123 14.3113 13.2356 14.591L13.3023 15.0865C15.3701 14.808 20.5195 14.2514 24.5725 14.2514V13.7514ZM28.9599 13.7085C27.4796 13.7297 25.962 13.7514 24.5725 13.7514V14.2514C25.9663 14.2514 27.4875 14.2296 28.9671 14.2085L28.9599 13.7085ZM29.3559 13.7028C29.2243 13.7047 29.0923 13.7066 28.9599 13.7085L28.9671 14.2085C29.0994 14.2066 29.2315 14.2047 29.363 14.2028L29.3559 13.7028Z" fill="white" fill-opacity="0.2"/>
<path fill-rule="evenodd" clip-rule="evenodd" d="M36.3366 13.7369C31.9233 13.7544 22.4799 13.9982 20.7448 15.7334C20.6254 15.8528 20.5212 16.0019 20.431 16.1772L19.2558 15.2371L18.2632 18.2149L15.5025 14.5052L12.9848 16.7649L12.0129 8.47936C14.5248 7.09361 21.78 6.46564 25.2004 6.46564C28.6209 6.46564 34.1416 6.46564 37.132 7.72613L36.3366 13.7369Z" fill="#898989"/>
<path fill-rule="evenodd" clip-rule="evenodd" d="M36.3366 13.7369C31.9233 13.7544 22.4799 13.9982 20.7448 15.7334C20.6254 15.8528 20.5212 16.0019 20.431 16.1772L19.2558 15.2371L18.2632 18.2149L15.5025 14.5052L12.9848 16.7649L12.0129 8.47936C14.5248 7.09361 21.78 6.46564 25.2004 6.46564C28.6209 6.46564 34.1416 6.46564 37.132 7.72613L36.3366 13.7369Z" fill="black" fill-opacity="0.6"/>
<path d="M36.3366 13.7369L36.3375 13.9869L36.5558 13.986L36.5844 13.7697L36.3366 13.7369ZM20.7448 15.7334L20.568 15.5566L20.568 15.5566L20.7448 15.7334ZM20.431 16.1772L20.2748 16.3725L20.5135 16.5634L20.6533 16.2916L20.431 16.1772ZM19.2558 15.2371L19.412 15.0419L19.132 14.8179L19.0186 15.158L19.2558 15.2371ZM18.2632 18.2149L18.0626 18.3642L18.3488 18.7487L18.5004 18.294L18.2632 18.2149ZM15.5025 14.5052L15.7031 14.3559L15.5395 14.1361L15.3355 14.3191L15.5025 14.5052ZM12.9848 16.7649L12.7365 16.794L12.7927 17.2732L13.1518 16.9509L12.9848 16.7649ZM12.0129 8.47936L11.8922 8.26046L11.7451 8.34162L11.7646 8.50849L12.0129 8.47936ZM37.132 7.72613L37.3798 7.75892L37.4049 7.56984L37.2291 7.49576L37.132 7.72613ZM36.3356 13.4869C34.1266 13.4956 30.6541 13.561 27.5141 13.842C25.9447 13.9824 24.4515 14.1773 23.238 14.4479C22.6313 14.5831 22.0888 14.7385 21.6392 14.918C21.1934 15.0959 20.8198 15.3048 20.568 15.5566L20.9215 15.9102C21.1035 15.7282 21.4046 15.5499 21.8246 15.3823C22.2407 15.2162 22.7552 15.0678 23.3468 14.9359C24.5298 14.6721 25.9986 14.4796 27.5587 14.34C30.6774 14.0609 34.1333 13.9956 36.3375 13.9869L36.3356 13.4869ZM20.568 15.5566C20.4266 15.698 20.3081 15.8696 20.2087 16.0629L20.6533 16.2916C20.7343 16.1342 20.8241 16.0076 20.9215 15.9102L20.568 15.5566ZM19.0996 15.4323L20.2748 16.3725L20.5871 15.982L19.412 15.0419L19.0996 15.4323ZM18.5004 18.294L19.493 15.3161L19.0186 15.158L18.026 18.1359L18.5004 18.294ZM15.3019 14.6544L18.0626 18.3642L18.4637 18.0657L15.7031 14.3559L15.3019 14.6544ZM13.1518 16.9509L15.6695 14.6912L15.3355 14.3191L12.8178 16.5788L13.1518 16.9509ZM11.7646 8.50849L12.7365 16.794L13.2331 16.7357L12.2612 8.45024L11.7646 8.50849ZM25.2004 6.21564C23.4786 6.21564 20.799 6.37344 18.2339 6.70491C16.9511 6.87068 15.693 7.08039 14.5954 7.33665C13.5022 7.59187 12.5508 7.89712 11.8922 8.26046L12.1337 8.69826C12.731 8.36873 13.6285 8.07582 14.709 7.82356C15.7851 7.57233 17.0255 7.36522 18.298 7.20078C20.8436 6.87182 23.5018 6.71564 25.2004 6.71564V6.21564ZM37.2291 7.49576C35.6938 6.84859 33.531 6.5317 31.3455 6.37385C29.1536 6.21554 26.9096 6.21564 25.2004 6.21564V6.71564C26.9118 6.71564 29.1383 6.71574 31.3095 6.87255C33.4871 7.02982 35.5799 7.34317 37.0349 7.9565L37.2291 7.49576ZM36.5844 13.7697L37.3798 7.75892L36.8842 7.69333L36.0887 13.7041L36.5844 13.7697Z" fill="#898989"/>
<path d="M36.3366 13.7369L36.3375 13.9869L36.5558 13.986L36.5844 13.7697L36.3366 13.7369ZM20.7448 15.7334L20.568 15.5566L20.568 15.5566L20.7448 15.7334ZM20.431 16.1772L20.2748 16.3725L20.5135 16.5634L20.6533 16.2916L20.431 16.1772ZM19.2558 15.2371L19.412 15.0419L19.132 14.8179L19.0186 15.158L19.2558 15.2371ZM18.2632 18.2149L18.0626 18.3642L18.3488 18.7487L18.5004 18.294L18.2632 18.2149ZM15.5025 14.5052L15.7031 14.3559L15.5395 14.1361L15.3355 14.3191L15.5025 14.5052ZM12.9848 16.7649L12.7365 16.794L12.7927 17.2732L13.1518 16.9509L12.9848 16.7649ZM12.0129 8.47936L11.8922 8.26046L11.7451 8.34162L11.7646 8.50849L12.0129 8.47936ZM37.132 7.72613L37.3798 7.75892L37.4049 7.56984L37.2291 7.49576L37.132 7.72613ZM36.3356 13.4869C34.1266 13.4956 30.6541 13.561 27.5141 13.842C25.9447 13.9824 24.4515 14.1773 23.238 14.4479C22.6313 14.5831 22.0888 14.7385 21.6392 14.918C21.1934 15.0959 20.8198 15.3048 20.568 15.5566L20.9215 15.9102C21.1035 15.7282 21.4046 15.5499 21.8246 15.3823C22.2407 15.2162 22.7552 15.0678 23.3468 14.9359C24.5298 14.6721 25.9986 14.4796 27.5587 14.34C30.6774 14.0609 34.1333 13.9956 36.3375 13.9869L36.3356 13.4869ZM20.568 15.5566C20.4266 15.698 20.3081 15.8696 20.2087 16.0629L20.6533 16.2916C20.7343 16.1342 20.8241 16.0076 20.9215 15.9102L20.568 15.5566ZM19.0996 15.4323L20.2748 16.3725L20.5871 15.982L19.412 15.0419L19.0996 15.4323ZM18.5004 18.294L19.493 15.3161L19.0186 15.158L18.026 18.1359L18.5004 18.294ZM15.3019 14.6544L18.0626 18.3642L18.4637 18.0657L15.7031 14.3559L15.3019 14.6544ZM13.1518 16.9509L15.6695 14.6912L15.3355 14.3191L12.8178 16.5788L13.1518 16.9509ZM11.7646 8.50849L12.7365 16.794L13.2331 16.7357L12.2612 8.45024L11.7646 8.50849ZM25.2004 6.21564C23.4786 6.21564 20.799 6.37344 18.2339 6.70491C16.9511 6.87068 15.693 7.08039 14.5954 7.33665C13.5022 7.59187 12.5508 7.89712 11.8922 8.26046L12.1337 8.69826C12.731 8.36873 13.6285 8.07582 14.709 7.82356C15.7851 7.57233 17.0255 7.36522 18.298 7.20078C20.8436 6.87182 23.5018 6.71564 25.2004 6.71564V6.21564ZM37.2291 7.49576C35.6938 6.84859 33.531 6.5317 31.3455 6.37385C29.1536 6.21554 26.9096 6.21564 25.2004 6.21564V6.71564C26.9118 6.71564 29.1383 6.71574 31.3095 6.87255C33.4871 7.02982 35.5799 7.34317 37.0349 7.9565L37.2291 7.49576ZM36.5844 13.7697L37.3798 7.75892L36.8842 7.69333L36.0887 13.7041L36.5844 13.7697Z" fill="white" fill-opacity="0.2"/>
<path fill-rule="evenodd" clip-rule="evenodd" d="M12.013 4.58179C12.8894 3.72445 19.0261 3.32587 23.4892 3.32587C27.9522 3.32587 35.2265 3.3742 36.5041 4.58182C37.4778 5.50227 37.332 7.57335 37.2076 9.3405C37.1688 9.89182 37.132 10.4136 37.132 10.8616L34.6412 8.81413L33.3074 11.4896L31.1671 9.2815L29.6782 11.763L28.6856 8.2889L26.7004 12.2593L24.2189 8.34968L22.7299 11.2667L21.241 9.77781L19.2558 12.2593L17.7669 8.81413L15.7817 10.9544L14.2928 8.34968L12.013 11.4896C11.9659 10.9054 11.8958 10.279 11.8254 9.64892C11.5816 7.46951 11.3331 5.24686 12.013 4.58179Z" fill="#898989"/>
<path fill-rule="evenodd" clip-rule="evenodd" d="M12.013 4.58179C12.8894 3.72445 19.0261 3.32587 23.4892 3.32587C27.9522 3.32587 35.2265 3.3742 36.5041 4.58182C37.4778 5.50227 37.332 7.57335 37.2076 9.3405C37.1688 9.89182 37.132 10.4136 37.132 10.8616L34.6412 8.81413L33.3074 11.4896L31.1671 9.2815L29.6782 11.763L28.6856 8.2889L26.7004 12.2593L24.2189 8.34968L22.7299 11.2667L21.241 9.77781L19.2558 12.2593L17.7669 8.81413L15.7817 10.9544L14.2928 8.34968L12.013 11.4896C11.9659 10.9054 11.8958 10.279 11.8254 9.64892C11.5816 7.46951 11.3331 5.24686 12.013 4.58179Z" fill="black" fill-opacity="0.4"/>
<path d="M12.013 4.58179L12.1878 4.7605L12.1878 4.7605L12.013 4.58179ZM36.5041 4.58182L36.6758 4.40014L36.6758 4.40014L36.5041 4.58182ZM37.2076 9.3405L36.9582 9.32294L36.9582 9.32294L37.2076 9.3405ZM37.132 10.8616L36.9733 11.0547L37.382 11.3907V10.8616H37.132ZM34.6412 8.81413L34.8 8.621L34.5575 8.4217L34.4175 8.70258L34.6412 8.81413ZM33.3074 11.4896L33.1279 11.6636L33.3736 11.9171L33.5311 11.6011L33.3074 11.4896ZM31.1671 9.2815L31.3466 9.1075L31.1201 8.87386L30.9527 9.15288L31.1671 9.2815ZM29.6782 11.763L29.4378 11.8317L29.5961 12.3857L29.8926 11.8916L29.6782 11.763ZM28.6856 8.2889L28.926 8.22022L28.7494 7.60225L28.462 8.17709L28.6856 8.2889ZM26.7004 12.2593L26.4893 12.3933L26.7262 12.7666L26.924 12.3711L26.7004 12.2593ZM24.2189 8.34968L24.4299 8.21571L24.1953 7.84599L23.9962 8.23602L24.2189 8.34968ZM22.7299 11.2667L22.5532 11.4435L22.7963 11.6866L22.9526 11.3804L22.7299 11.2667ZM21.241 9.77781L21.4178 9.60103L21.2203 9.40352L21.0458 9.62163L21.241 9.77781ZM19.2558 12.2593L19.0263 12.3585L19.1913 12.7402L19.451 12.4155L19.2558 12.2593ZM17.7669 8.81413L17.9964 8.71495L17.8443 8.36305L17.5836 8.64412L17.7669 8.81413ZM15.7817 10.9544L15.5647 11.0785L15.7336 11.374L15.965 11.1245L15.7817 10.9544ZM14.2928 8.34968L14.5098 8.22561L14.3178 7.8897L14.0905 8.20279L14.2928 8.34968ZM12.013 11.4896L11.7638 11.5097L11.8181 12.1834L12.2153 11.6364L12.013 11.4896ZM11.8254 9.64892L12.0738 9.62114L11.8254 9.64892ZM23.4892 3.07587C21.2516 3.07587 18.5937 3.17573 16.3827 3.38342C15.2778 3.48721 14.279 3.61843 13.4979 3.77898C13.1077 3.8592 12.7662 3.94786 12.4906 4.04622C12.2225 4.14194 11.9879 4.25657 11.8382 4.40308L12.1878 4.7605C12.2571 4.69267 12.4061 4.60731 12.6587 4.51712C12.9039 4.42959 13.2205 4.34646 13.5986 4.26874C14.3541 4.11343 15.3327 3.98426 16.4295 3.88123C18.6217 3.6753 21.2636 3.57587 23.4892 3.57587V3.07587ZM36.6758 4.40014C36.4785 4.21366 36.1864 4.06663 35.8446 3.94549C35.4981 3.8227 35.0779 3.71889 34.6051 3.63038C33.6593 3.45332 32.4793 3.33328 31.2072 3.2515C28.662 3.08788 25.7201 3.07587 23.4892 3.07587V3.57587C25.7213 3.57587 28.6481 3.58802 31.1752 3.75047C32.4392 3.83173 33.5963 3.9502 34.5131 4.12185C34.9717 4.20769 35.3643 4.30578 35.6776 4.41678C35.9955 4.52943 36.2102 4.64807 36.3323 4.7635L36.6758 4.40014ZM37.457 9.35805C37.5188 8.47895 37.5883 7.49952 37.5168 6.6233C37.4459 5.755 37.2328 4.92664 36.6758 4.40014L36.3323 4.7635C36.7491 5.15744 36.9499 5.82485 37.0184 6.66399C37.0863 7.49521 37.0207 8.4349 36.9582 9.32294L37.457 9.35805ZM37.382 10.8616C37.382 10.4242 37.418 9.91196 37.457 9.35805L36.9582 9.32294C36.9196 9.87169 36.882 10.403 36.882 10.8616H37.382ZM34.4825 9.00725L36.9733 11.0547L37.2908 10.6684L34.8 8.621L34.4825 9.00725ZM33.5311 11.6011L34.865 8.92567L34.4175 8.70258L33.0837 11.378L33.5311 11.6011ZM30.9876 9.45551L33.1279 11.6636L33.4869 11.3156L31.3466 9.1075L30.9876 9.45551ZM29.8926 11.8916L31.3815 9.41013L30.9527 9.15288L29.4638 11.6344L29.8926 11.8916ZM28.4452 8.35758L29.4378 11.8317L29.9186 11.6943L28.926 8.22022L28.4452 8.35758ZM26.924 12.3711L28.9092 8.4007L28.462 8.17709L26.4768 12.1475L26.924 12.3711ZM24.0078 8.48365L26.4893 12.3933L26.9114 12.1254L24.4299 8.21571L24.0078 8.48365ZM22.9526 11.3804L24.4415 8.46333L23.9962 8.23602L22.5073 11.1531L22.9526 11.3804ZM21.0643 9.95458L22.5532 11.4435L22.9067 11.0899L21.4178 9.60103L21.0643 9.95458ZM19.451 12.4155L21.4363 9.93398L21.0458 9.62163L19.0606 12.1031L19.451 12.4155ZM17.5374 8.9133L19.0263 12.3585L19.4853 12.1601L17.9964 8.71495L17.5374 8.9133ZM15.965 11.1245L17.9502 8.98414L17.5836 8.64412L15.5984 10.7844L15.965 11.1245ZM14.0758 8.47374L15.5647 11.0785L15.9987 10.8304L14.5098 8.22561L14.0758 8.47374ZM12.2153 11.6364L14.4951 8.49656L14.0905 8.20279L11.8107 11.3427L12.2153 11.6364ZM11.5769 9.6767C11.6475 10.3076 11.717 10.9301 11.7638 11.5097L12.2622 11.4695C12.2147 10.8808 12.1442 10.2503 12.0738 9.62114L11.5769 9.6767ZM11.8382 4.40308C11.6158 4.62063 11.4901 4.94219 11.4176 5.29768C11.3441 5.65802 11.319 6.08591 11.3228 6.54957C11.3306 7.47637 11.4555 8.59094 11.5769 9.6767L12.0738 9.62114C11.9515 8.52749 11.8303 7.44103 11.8228 6.54539C11.8191 6.09782 11.844 5.70914 11.9075 5.39757C11.972 5.08116 12.0702 4.87549 12.1878 4.7605L11.8382 4.40308Z" fill="#898989"/>
<path d="M12.013 4.58179L12.1878 4.7605L12.1878 4.7605L12.013 4.58179ZM36.5041 4.58182L36.6758 4.40014L36.6758 4.40014L36.5041 4.58182ZM37.2076 9.3405L36.9582 9.32294L36.9582 9.32294L37.2076 9.3405ZM37.132 10.8616L36.9733 11.0547L37.382 11.3907V10.8616H37.132ZM34.6412 8.81413L34.8 8.621L34.5575 8.4217L34.4175 8.70258L34.6412 8.81413ZM33.3074 11.4896L33.1279 11.6636L33.3736 11.9171L33.5311 11.6011L33.3074 11.4896ZM31.1671 9.2815L31.3466 9.1075L31.1201 8.87386L30.9527 9.15288L31.1671 9.2815ZM29.6782 11.763L29.4378 11.8317L29.5961 12.3857L29.8926 11.8916L29.6782 11.763ZM28.6856 8.2889L28.926 8.22022L28.7494 7.60225L28.462 8.17709L28.6856 8.2889ZM26.7004 12.2593L26.4893 12.3933L26.7262 12.7666L26.924 12.3711L26.7004 12.2593ZM24.2189 8.34968L24.4299 8.21571L24.1953 7.84599L23.9962 8.23602L24.2189 8.34968ZM22.7299 11.2667L22.5532 11.4435L22.7963 11.6866L22.9526 11.3804L22.7299 11.2667ZM21.241 9.77781L21.4178 9.60103L21.2203 9.40352L21.0458 9.62163L21.241 9.77781ZM19.2558 12.2593L19.0263 12.3585L19.1913 12.7402L19.451 12.4155L19.2558 12.2593ZM17.7669 8.81413L17.9964 8.71495L17.8443 8.36305L17.5836 8.64412L17.7669 8.81413ZM15.7817 10.9544L15.5647 11.0785L15.7336 11.374L15.965 11.1245L15.7817 10.9544ZM14.2928 8.34968L14.5098 8.22561L14.3178 7.8897L14.0905 8.20279L14.2928 8.34968ZM12.013 11.4896L11.7638 11.5097L11.8181 12.1834L12.2153 11.6364L12.013 11.4896ZM11.8254 9.64892L12.0738 9.62114L11.8254 9.64892ZM23.4892 3.07587C21.2516 3.07587 18.5937 3.17573 16.3827 3.38342C15.2778 3.48721 14.279 3.61843 13.4979 3.77898C13.1077 3.8592 12.7662 3.94786 12.4906 4.04622C12.2225 4.14194 11.9879 4.25657 11.8382 4.40308L12.1878 4.7605C12.2571 4.69267 12.4061 4.60731 12.6587 4.51712C12.9039 4.42959 13.2205 4.34646 13.5986 4.26874C14.3541 4.11343 15.3327 3.98426 16.4295 3.88123C18.6217 3.6753 21.2636 3.57587 23.4892 3.57587V3.07587ZM36.6758 4.40014C36.4785 4.21366 36.1864 4.06663 35.8446 3.94549C35.4981 3.8227 35.0779 3.71889 34.6051 3.63038C33.6593 3.45332 32.4793 3.33328 31.2072 3.2515C28.662 3.08788 25.7201 3.07587 23.4892 3.07587V3.57587C25.7213 3.57587 28.6481 3.58802 31.1752 3.75047C32.4392 3.83173 33.5963 3.9502 34.5131 4.12185C34.9717 4.20769 35.3643 4.30578 35.6776 4.41678C35.9955 4.52943 36.2102 4.64807 36.3323 4.7635L36.6758 4.40014ZM37.457 9.35805C37.5188 8.47895 37.5883 7.49952 37.5168 6.6233C37.4459 5.755 37.2328 4.92664 36.6758 4.40014L36.3323 4.7635C36.7491 5.15744 36.9499 5.82485 37.0184 6.66399C37.0863 7.49521 37.0207 8.4349 36.9582 9.32294L37.457 9.35805ZM37.382 10.8616C37.382 10.4242 37.418 9.91196 37.457 9.35805L36.9582 9.32294C36.9196 9.87169 36.882 10.403 36.882 10.8616H37.382ZM34.4825 9.00725L36.9733 11.0547L37.2908 10.6684L34.8 8.621L34.4825 9.00725ZM33.5311 11.6011L34.865 8.92567L34.4175 8.70258L33.0837 11.378L33.5311 11.6011ZM30.9876 9.45551L33.1279 11.6636L33.4869 11.3156L31.3466 9.1075L30.9876 9.45551ZM29.8926 11.8916L31.3815 9.41013L30.9527 9.15288L29.4638 11.6344L29.8926 11.8916ZM28.4452 8.35758L29.4378 11.8317L29.9186 11.6943L28.926 8.22022L28.4452 8.35758ZM26.924 12.3711L28.9092 8.4007L28.462 8.17709L26.4768 12.1475L26.924 12.3711ZM24.0078 8.48365L26.4893 12.3933L26.9114 12.1254L24.4299 8.21571L24.0078 8.48365ZM22.9526 11.3804L24.4415 8.46333L23.9962 8.23602L22.5073 11.1531L22.9526 11.3804ZM21.0643 9.95458L22.5532 11.4435L22.9067 11.0899L21.4178 9.60103L21.0643 9.95458ZM19.451 12.4155L21.4363 9.93398L21.0458 9.62163L19.0606 12.1031L19.451 12.4155ZM17.5374 8.9133L19.0263 12.3585L19.4853 12.1601L17.9964 8.71495L17.5374 8.9133ZM15.965 11.1245L17.9502 8.98414L17.5836 8.64412L15.5984 10.7844L15.965 11.1245ZM14.0758 8.47374L15.5647 11.0785L15.9987 10.8304L14.5098 8.22561L14.0758 8.47374ZM12.2153 11.6364L14.4951 8.49656L14.0905 8.20279L11.8107 11.3427L12.2153 11.6364ZM11.5769 9.6767C11.6475 10.3076 11.717 10.9301 11.7638 11.5097L12.2622 11.4695C12.2147 10.8808 12.1442 10.2503 12.0738 9.62114L11.5769 9.6767ZM11.8382 4.40308C11.6158 4.62063 11.4901 4.94219 11.4176 5.29768C11.3441 5.65802 11.319 6.08591 11.3228 6.54957C11.3306 7.47637 11.4555 8.59094 11.5769 9.6767L12.0738 9.62114C11.9515 8.52749 11.8303 7.44103 11.8228 6.54539C11.8191 6.09782 11.844 5.70914 11.9075 5.39757C11.972 5.08116 12.0702 4.87549 12.1878 4.7605L11.8382 4.40308Z" fill="white" fill-opacity="0.2"/>
</svg>
