<?xml version="1.0" encoding="utf-8"?><svg fill="none" viewBox="0 0 50 50" width="50" height="50" xmlns="http://www.w3.org/2000/svg"><g clip-path="url(#adia)"><path d="M3.23 42.5c-1.038 2.454-1.272 4.748-.73 5.5.914-1.444 3.519-5 5-5 3 0 6.278-.033 9-2 2.178-1.574 2.967-4.283 2.996-5.31-.167.251-.737.948-1.687 1.726-.95.78-4.673 1.047-5.309 1.084.665-.693 4.41-2.852 6.317-3.953l.083-.047c2.6-1.5 4.219-2.608 4.6-5 .372-2.331-.367-5.738-.736-6.5-.156.612-.473 4.007-1.264 5.5-.79 1.493-3.264 1.914-4 2.5.013-2.8-.316-4.078.737-5.5 1.173-1.584 1.83-1.568 4.263-4 1.5-1.5 1.617-3.335 1-5.5-.5 3-1.128 3.842-3 5-2.483 1.536-6.15 2.51-6.5 8.5-.35 5.99-2.767 6.894-5.5 8.5-2.732 1.606-4 1.5-5.27 4.5Z" fill="#FAA21E"/><g clip-path="url(#adib)"><path d="m29.375 18.75 1.875 1.875L3.125 48.75 1.25 46.875 29.375 18.75Z" fill="#D0333D"/><path d="m29.375 18.75 1.875 1.875L3.125 48.75 1.25 46.875 29.375 18.75Z" fill="#000" fill-opacity=".2"/><path d="m29.375 18.75.935.935L2.185 47.81l-.935-.935L29.375 18.75Z" fill="#D0333D"/><path d="m29.375 18.75.935.935L2.185 47.81l-.935-.935L29.375 18.75Z" fill="#fff" fill-opacity=".4"/><path d="M27.792 9.97C29.493 7.737 32.55 5.2 38.125 0l-2.378 6.435-.683-2.45c-2.863 3.073-4.385 4.776-5.062 7.312 0 1.828.998 3.703 2.498 3.203l-3.75 6.75c.884-1.768-.725-5.247-1.4-7.302-.475-1.448-.26-2.676.442-3.977Z" fill="#D0333D"/><path d="M27.792 9.97C29.493 7.737 32.55 5.2 38.125 0l-2.378 6.435-.683-2.45c-2.863 3.073-4.385 4.776-5.062 7.312 0 1.828.998 3.703 2.498 3.203l-3.75 6.75c.884-1.768-.725-5.247-1.4-7.302-.475-1.448-.26-2.676.442-3.977Z" fill="#fff" fill-opacity=".2"/><path d="M36.19 22.787c-1.815-.912-5.672-2.42-7.44-1.537l6.75-3.75c0 1.5 1.375 2.635 3.341 2.635 2.792-.799 4.414-2.285 7.312-5.062l-2.45-.683L50 11.875c-4.332 4.587-6.878 8.232-9.833 10.47-1.346.96-2.525 1.172-3.978.442Z" fill="#D0333D"/><path d="M36.19 22.787c-1.815-.912-5.672-2.42-7.44-1.537l6.75-3.75c0 1.5 1.375 2.635 3.341 2.635 2.792-.799 4.414-2.285 7.312-5.062l-2.45-.683L50 11.875c-4.332 4.587-6.878 8.232-9.833 10.47-1.346.96-2.525 1.172-3.978.442Z" fill="#fff" fill-opacity=".2"/><path d="M47.586 3.367c-4.277 4.42-10.572 10.86-11.994 14.714l-6.842 3.17L49.991.146c-.458 3.012-1.156 4.425-2.478 6.897l.073-3.677Z" fill="#D0333D"/><path d="M47.586 3.367c-4.277 4.42-10.572 10.86-11.994 14.714l-6.842 3.17L49.991.146c-.458 3.012-1.156 4.425-2.478 6.897l.073-3.677Z" fill="#000" fill-opacity=".2"/><path d="M32.044 14.558c2.942-.722 9.459-6.836 14.679-11.959l-3.672.069C45.69 1.267 47.179.569 49.936.202L28.75 21.25l3.294-6.692Z" fill="#D0333D"/><path d="M32.044 14.558c2.942-.722 9.459-6.836 14.679-11.959l-3.672.069C45.69 1.267 47.179.569 49.936.202L28.75 21.25l3.294-6.692Z" fill="#fff" fill-opacity=".4"/><path d="M43.689 14.404c2.322-1.562 3.701-2.147 6.35-2.568l-3.889 3.24-2.461-.672Z" fill="#D0333D"/><path d="M43.689 14.404c2.322-1.562 3.701-2.147 6.35-2.568l-3.889 3.24-2.461-.672Z" fill="#fff" fill-opacity=".6"/><path d="m35.747 6.435-.683-2.45L38.125 0c-.511 2.544-.957 3.958-2.378 6.435Z" fill="#D0333D"/><path d="m35.747 6.435-.683-2.45L38.125 0c-.511 2.544-.957 3.958-2.378 6.435Z" fill="#fff" fill-opacity=".6"/><path d="M0 46.25h3.75V50H0v-3.75Z" fill="#D0333D"/><path d="M0 46.25h3.75V50H0v-3.75Z" fill="#fff" fill-opacity=".4"/><path d="M3.75 50H0l3.75-3.75V50Z" fill="#D0333D"/><path d="M1.25 47.5H2.5v1.25H1.25V47.5Z" fill="#D0333D"/><path d="M1.25 47.5H2.5v1.25H1.25V47.5Z" fill="#fff" fill-opacity=".9"/><path d="m2.5 47.5-1.25 1.25H2.5V47.5Z" fill="#D0333D"/><path d="m2.5 47.5-1.25 1.25H2.5V47.5Z" fill="#fff" fill-opacity=".8"/></g><path d="M23.515 37.47c-1.569-.158-3.76.834-4.515 2.03.361-.936.467-1.557 2-3 1.764-1.66 5.108-1.534 7.468-1.86 2.242-.31 3.705-1.303 4.134-1.851-.096.73-1.753 4.195-3.237 4.78-2.373.938-3.89.098-5.85-.1Z" fill="#D0333D"/><path d="M16.687 41.642c-.818.787-2.362 1.134-2.687.89.703.743 2.85 1.05 4.09.187 1.326-.92 1.779-.931 3.161-.378-.298-.311-.848-1.184-1.875-1.557-1.091-.395-1.814.017-2.689.858ZM4.32 37.576c-.007 1.103-.341 2.28-.676 2.471.908-.325 2.363-1.524 2.601-2.987.239-1.463-.362-2.447-.207-3.87-.383.14-1.209.91-1.557 1.633-.435.904-.152 1.374-.16 2.753Z" fill="#FAA21E"/><path d="M10.978 31.44c.785 1.967.013 4.864-.561 5.459.65-.406 1.803-1.712 2.219-3.808.478-2.412-.96-3.149-1.723-6.17-.725-2.87.795-5.287 1.276-5.979-.741.31-3.378 1.737-3.82 3.884-.498 2.417 1.628 4.154 2.61 6.613ZM9.761 46.401c-1.863-.419-4.331.68-4.779 1.276.268-.636 1.267-1.848 3.073-2.516 2.079-.769 2.94.406 5.737.656 2.658.237 4.66-.79 5.208-1.317-.17.703-1.134 2.584-2.982 3.283-2.08.787-3.928-.858-6.257-1.382Z" fill="#D0333D"/></g><defs><clipPath id="adia"><path fill="#fff" transform="matrix(-1 0 0 1 50 0)" d="M0 0h50v50H0z"/></clipPath><clipPath id="adib"><path fill="#fff" d="M0 0h50v50H0z"/></clipPath></defs></svg>