<?xml version="1.0" encoding="utf-8"?><svg fill="none" viewBox="0 0 50 50" width="50" height="50" xmlns="http://www.w3.org/2000/svg"><g clip-path="url(#adka)"><g clip-path="url(#adkb)"><path d="m29.375 18.75 1.875 1.875L3.125 48.75 1.25 46.875 29.375 18.75Z" fill="#2FC4A7"/><path d="m29.375 18.75 1.875 1.875L3.125 48.75 1.25 46.875 29.375 18.75Z" fill="#000" fill-opacity=".2"/><path d="m29.375 18.75.935.935L2.185 47.81l-.935-.935L29.375 18.75Z" fill="#2FC4A7"/><path d="m29.375 18.75.935.935L2.185 47.81l-.935-.935L29.375 18.75Z" fill="#fff" fill-opacity=".4"/><path d="M27.792 9.97C29.493 7.737 32.55 5.2 38.125 0l-2.378 6.435-.683-2.45c-2.863 3.073-4.385 4.776-5.062 7.312 0 1.828.998 3.703 2.498 3.203l-3.75 6.75c.884-1.768-.725-5.247-1.4-7.302-.475-1.448-.26-2.676.442-3.977Z" fill="#2FC4A7"/><path d="M27.792 9.97C29.493 7.737 32.55 5.2 38.125 0l-2.378 6.435-.683-2.45c-2.863 3.073-4.385 4.776-5.062 7.312 0 1.828.998 3.703 2.498 3.203l-3.75 6.75c.884-1.768-.725-5.247-1.4-7.302-.475-1.448-.26-2.676.442-3.977Z" fill="#fff" fill-opacity=".2"/><path d="M36.19 22.787c-1.815-.912-5.672-2.42-7.44-1.537l6.75-3.75c0 1.5 1.375 2.635 3.341 2.635 2.792-.799 4.414-2.285 7.312-5.062l-2.45-.683L50 11.875c-4.332 4.587-6.878 8.232-9.833 10.47-1.346.96-2.525 1.172-3.978.442Z" fill="#2FC4A7"/><path d="M36.19 22.787c-1.815-.912-5.672-2.42-7.44-1.537l6.75-3.75c0 1.5 1.375 2.635 3.341 2.635 2.792-.799 4.414-2.285 7.312-5.062l-2.45-.683L50 11.875c-4.332 4.587-6.878 8.232-9.833 10.47-1.346.96-2.525 1.172-3.978.442Z" fill="#fff" fill-opacity=".2"/><path d="M47.586 3.367c-4.277 4.42-10.572 10.86-11.994 14.714l-6.842 3.17L49.991.146c-.458 3.012-1.156 4.425-2.478 6.897l.073-3.677Z" fill="#2FC4A7"/><path d="M47.586 3.367c-4.277 4.42-10.572 10.86-11.994 14.714l-6.842 3.17L49.991.146c-.458 3.012-1.156 4.425-2.478 6.897l.073-3.677Z" fill="#000" fill-opacity=".2"/><path d="M32.044 14.558c2.942-.722 9.459-6.836 14.679-11.959l-3.672.069C45.69 1.267 47.179.569 49.936.202L28.75 21.25l3.294-6.692Z" fill="#2FC4A7"/><path d="M32.044 14.558c2.942-.722 9.459-6.836 14.679-11.959l-3.672.069C45.69 1.267 47.179.569 49.936.202L28.75 21.25l3.294-6.692Z" fill="#fff" fill-opacity=".4"/><path d="M43.689 14.404c2.322-1.562 3.701-2.147 6.35-2.568l-3.889 3.24-2.461-.672Z" fill="#2FC4A7"/><path d="M43.689 14.404c2.322-1.562 3.701-2.147 6.35-2.568l-3.889 3.24-2.461-.672Z" fill="#fff" fill-opacity=".6"/><path d="m35.747 6.435-.683-2.45L38.125 0c-.511 2.544-.957 3.958-2.378 6.435Z" fill="#2FC4A7"/><path d="m35.747 6.435-.683-2.45L38.125 0c-.511 2.544-.957 3.958-2.378 6.435Z" fill="#fff" fill-opacity=".6"/><path d="M0 46.25h3.75V50H0v-3.75Z" fill="#2FC4A7"/><path d="M0 46.25h3.75V50H0v-3.75Z" fill="#fff" fill-opacity=".4"/><path d="M3.75 50H0l3.75-3.75V50Z" fill="#2FC4A7"/><path d="M1.25 47.5H2.5v1.25H1.25V47.5Z" fill="#2FC4A7"/><path d="M1.25 47.5H2.5v1.25H1.25V47.5Z" fill="#fff" fill-opacity=".95"/><path d="m2.5 47.5-1.25 1.25H2.5V47.5Z" fill="#2FC4A7"/><path d="m2.5 47.5-1.25 1.25H2.5V47.5Z" fill="#fff" fill-opacity=".8"/></g><path d="M28.78 30.328c1.886-.014 2.836.922 2.85 2.808-1.886.014-2.836-.922-2.85-2.808Z" fill="#2FC4A7"/><path d="M28.78 30.328c1.886-.014 2.836.922 2.85 2.808-1.886.014-2.836-.922-2.85-2.808Z" fill="#000" fill-opacity=".2"/><path d="M17.974 36.186c.75-2.109 2.134-2.679 4.153-1.71-.75 2.108-2.135 2.678-4.153 1.71Z" fill="#2FC4A7"/><path d="M17.974 36.186c.75-2.109 2.134-2.679 4.153-1.71-.75 2.108-2.135 2.678-4.153 1.71Z" fill="#000" fill-opacity=".2"/><path d="M9.254 44.742c.665 1.296.335 2.247-.989 2.854-.665-1.296-.335-2.247.99-2.854Z" fill="#2FC4A7"/><path d="M9.254 44.742c.665 1.296.335 2.247-.989 2.854-.665-1.296-.335-2.247.99-2.854Z" fill="#000" fill-opacity=".2"/><path d="M40.761 14.785c1.399.209 1.994 1.012 1.785 2.411-1.399-.209-1.994-1.012-1.785-2.411Z" fill="#2FC4A7"/><path d="M40.761 14.785c1.399.209 1.994 1.012 1.785 2.411-1.399-.209-1.994-1.012-1.785-2.411Z" fill="#000" fill-opacity=".2"/><path d="M15.271 30.176c.982-1.605 2.249-1.874 3.8-.808-.983 1.605-2.25 1.875-3.8.808Z" fill="#2FC4A7"/><path d="M15.271 30.176c.982-1.605 2.249-1.874 3.8-.808-.983 1.605-2.25 1.875-3.8.808Z" fill="#000" fill-opacity=".2"/><path d="M16.437 43.88c1.743-.72 2.974-.209 3.694 1.535-1.743.719-2.974.207-3.694-1.536Z" fill="#2FC4A7"/><path d="M16.437 43.88c1.743-.72 2.974-.209 3.694 1.535-1.743.719-2.974.207-3.694-1.536Z" fill="#fff" fill-opacity=".4"/><path d="M16.003 45.175c1.076.918 1.155 1.915.237 2.99-1.075-.917-1.154-1.914-.236-2.99Z" fill="#2FC4A7"/><path d="M16.003 45.175c1.076.918 1.155 1.915.237 2.99-1.075-.917-1.154-1.914-.236-2.99Z" fill="#fff" fill-opacity=".4"/><path d="M20.276 24.372c-1.45-.323-1.893-1.171-1.328-2.545 1.45.322 1.893 1.17 1.328 2.544Z" fill="#2FC4A7"/><path d="M20.276 24.372c-1.45-.323-1.893-1.171-1.328-2.545 1.45.322 1.893 1.17 1.328 2.544Z" fill="#fff" fill-opacity=".4"/><path d="M22.672 16.42c.744-1.203 1.717-1.433 2.92-.69-.743 1.203-1.716 1.433-2.92.69Z" fill="#2FC4A7"/><path d="M22.672 16.42c.744-1.203 1.717-1.433 2.92-.69-.743 1.203-1.716 1.433-2.92.69Z" fill="#fff" fill-opacity=".4"/><path d="M16.847 40.437c-.828 1.147-1.815 1.306-2.962.479.828-1.147 1.815-1.306 2.962-.479Z" fill="#2FC4A7"/><path d="M16.847 40.437c-.828 1.147-1.815 1.306-2.962.479.828-1.147 1.815-1.306 2.962-.479Z" fill="#fff" fill-opacity=".4"/><path d="M20.073 39.724c-1.413-.067-2.085-.807-2.018-2.22 1.413.068 2.085.808 2.018 2.22Z" fill="#2FC4A7"/><path d="M20.073 39.724c-1.413-.067-2.085-.807-2.018-2.22 1.413.068 2.085.808 2.018 2.22Z" fill="#fff" fill-opacity=".4"/><path d="M31.297 24.919c.271 1.387-.287 2.217-1.675 2.489-.271-1.388.287-2.218 1.675-2.49Z" fill="#2FC4A7"/><path d="M31.297 24.919c.271 1.387-.287 2.217-1.675 2.489-.271-1.388.287-2.218 1.675-2.49Z" fill="#fff" fill-opacity=".4"/><path d="M34.385 11.176c-.235.234-.875.396-1.167.103-.292-.294-.125-.933.11-1.167.235-.233.662-.185.954.11.292.293.338.72.103.954Z" fill="#D0333D"/><path d="M34.385 11.176c-.235.234-.875.396-1.167.103-.292-.294-.125-.933.11-1.167.235-.233.662-.185.954.11.292.293.338.72.103.954Z" fill="#fff" fill-opacity=".8"/><path d="M26.097 29.682c-.331.006-.905-.32-.912-.735-.007-.414.555-.76.887-.765.331-.005.605.326.613.74.007.414-.256.754-.588.76Z" fill="#D0333D"/><path d="M26.097 29.682c-.331.006-.905-.32-.912-.735-.007-.414.555-.76.887-.765.331-.005.605.326.613.74.007.414-.256.754-.588.76Z" fill="#fff" fill-opacity=".8"/><path d="M5.746 39.554c-.094.318-.578.767-.975.65-.397-.118-.557-.759-.463-1.077.094-.317.493-.48.89-.361.397.117.642.47.548.788Z" fill="#D0333D"/><path d="M5.746 39.554c-.094.318-.578.767-.975.65-.397-.118-.557-.759-.463-1.077.094-.317.493-.48.89-.361.397.117.642.47.548.788Z" fill="#fff" fill-opacity=".8"/><path d="M19.276 24.304c.319.168.708.753.515 1.12-.193.366-.896.375-1.215.207-.318-.168-.42-.601-.226-.968.193-.366.608-.527.926-.359Z" fill="#D0333D"/><path d="M19.276 24.304c.319.168.708.753.515 1.12-.193.366-.896.375-1.215.207-.318-.168-.42-.601-.226-.968.193-.366.608-.527.926-.359Z" fill="#fff" fill-opacity=".8"/><path d="M28.06 35.378c-.205-.243-.329-.855-.046-1.093.282-.24.864-.015 1.07.229.206.243.143.634-.14.873-.282.238-.678.234-.883-.009Z" fill="#D0333D"/><path d="M28.06 35.378c-.205-.243-.329-.855-.046-1.093.282-.24.864-.015 1.07.229.206.243.143.634-.14.873-.282.238-.678.234-.883-.009Z" fill="#fff" fill-opacity=".8"/><path d="M45.5 2.6c0 6.1-4.4 13.5-8 13.9C33 17 32.869 7 30 7c-1.5 0-2 1.6-1.5 2.1m1.6 2.4c-2 0-3.6 3-2.6 3.5m4-.6c-.5 1-1.5 2.1-2 4.6-.374 1.869 0 15.5-2.5 15.5-1.803 0-2-6.6-2.5-7.1m-.5-3.3c-1-1-3-1.1-4 1.9-.707 2.121-2.5 21-6.5 21-3 0-4-3.6-4.5-4.1m-2.2-1.55c-.5-.5-2.986-1.164-4.3.15C1 43 1.4 45.75 1.4 46.25" stroke="#2FC4A7"/><path d="M45.5 2.6c0 6.1-4.4 13.5-8 13.9C33 17 32.869 7 30 7c-1.5 0-2 1.6-1.5 2.1m1.6 2.4c-2 0-3.6 3-2.6 3.5m4-.6c-.5 1-1.5 2.1-2 4.6-.374 1.869 0 15.5-2.5 15.5-1.803 0-2-6.6-2.5-7.1m-.5-3.3c-1-1-3-1.1-4 1.9-.707 2.121-2.5 21-6.5 21-3 0-4-3.6-4.5-4.1m-2.2-1.55c-.5-.5-2.986-1.164-4.3.15C1 43 1.4 45.75 1.4 46.25" stroke="#000" stroke-opacity=".4"/><path d="M27.373 13.458c.243-1.9-.585-2.97-2.484-3.213-.243 1.9.585 2.97 2.484 3.213Z" fill="#2FC4A7"/><path d="M27.373 13.458c.243-1.9-.585-2.97-2.484-3.213-.243 1.9.585 2.97 2.484 3.213Z" fill="#000" fill-opacity=".4"/><path d="M29.467 6.676c.806-1.188.615-2.185-.573-2.991-.806 1.188-.615 2.185.573 2.991Z" fill="#2FC4A7"/><path d="M29.467 6.676c.806-1.188.615-2.185-.573-2.991-.806 1.188-.615 2.185.573 2.991Z" fill="#000" fill-opacity=".2"/><path d="M26.052 13.909a.5.5 0 0 1 .896 0l.17.344a.5.5 0 0 0 .377.274l.38.055a.5.5 0 0 1 .277.853l-.275.268a.5.5 0 0 0-.144.442l.065.379a.5.5 0 0 1-.725.527l-.34-.179a.5.5 0 0 0-.466 0l-.34.18a.5.5 0 0 1-.725-.528l.065-.379a.5.5 0 0 0-.144-.442l-.275-.268a.5.5 0 0 1 .277-.853l.38-.056a.5.5 0 0 0 .377-.273l.17-.345Z" fill="#D0333D"/><path d="M26.052 13.909a.5.5 0 0 1 .896 0l.17.344a.5.5 0 0 0 .377.274l.38.055a.5.5 0 0 1 .277.853l-.275.268a.5.5 0 0 0-.144.442l.065.379a.5.5 0 0 1-.725.527l-.34-.179a.5.5 0 0 0-.466 0l-.34.18a.5.5 0 0 1-.725-.528l.065-.379a.5.5 0 0 0-.144-.442l-.275-.268a.5.5 0 0 1 .277-.853l.38-.056a.5.5 0 0 0 .377-.273l.17-.345Z" fill="#fff" fill-opacity=".9"/><circle cx="26.5" cy="15.5" r=".5" fill="#D0333D"/><circle cx="26.5" cy="15.5" r=".5" fill="#fff" fill-opacity=".4"/><path d="M30.584 26.467a.5.5 0 0 1 .729.521l-.063.38a.5.5 0 0 0 .147.441l.277.266a.5.5 0 0 1-.27.855l-.38.058a.5.5 0 0 0-.375.276l-.168.346a.5.5 0 0 1-.896.006l-.173-.343a.5.5 0 0 0-.378-.27l-.38-.053a.5.5 0 0 1-.284-.851l.273-.27a.5.5 0 0 0 .141-.444l-.068-.378a.5.5 0 0 1 .722-.532l.341.176a.5.5 0 0 0 .466-.003l.338-.181Z" fill="#D0333D"/><path d="M30.584 26.467a.5.5 0 0 1 .729.521l-.063.38a.5.5 0 0 0 .147.441l.277.266a.5.5 0 0 1-.27.855l-.38.058a.5.5 0 0 0-.375.276l-.168.346a.5.5 0 0 1-.896.006l-.173-.343a.5.5 0 0 0-.378-.27l-.38-.053a.5.5 0 0 1-.284-.851l.273-.27a.5.5 0 0 0 .141-.444l-.068-.378a.5.5 0 0 1 .722-.532l.341.176a.5.5 0 0 0 .466-.003l.338-.181Z" fill="#fff" fill-opacity=".9"/><circle cx="30.022" cy="28.022" r=".5" transform="rotate(35.591 30.022 28.022)" fill="#D0333D"/><circle cx="30.022" cy="28.022" r=".5" transform="rotate(35.591 30.022 28.022)" fill="#fff" fill-opacity=".4"/><path d="M15.225 42.762a.5.5 0 0 1 .888-.124l.216.318a.5.5 0 0 0 .41.218l.385.002a.5.5 0 0 1 .393.806l-.235.304a.5.5 0 0 0-.081.458l.116.366a.5.5 0 0 1-.645.623l-.361-.13a.5.5 0 0 0-.461.065l-.312.224a.5.5 0 0 1-.792-.422l.012-.383a.5.5 0 0 0-.204-.419l-.31-.227a.5.5 0 0 1 .156-.883l.37-.108a.5.5 0 0 0 .334-.323l.12-.365Z" fill="#D0333D"/><path d="M15.225 42.762a.5.5 0 0 1 .888-.124l.216.318a.5.5 0 0 0 .41.218l.385.002a.5.5 0 0 1 .393.806l-.235.304a.5.5 0 0 0-.081.458l.116.366a.5.5 0 0 1-.645.623l-.361-.13a.5.5 0 0 0-.461.065l-.312.224a.5.5 0 0 1-.792-.422l.012-.383a.5.5 0 0 0-.204-.419l-.31-.227a.5.5 0 0 1 .156-.883l.37-.108a.5.5 0 0 0 .334-.323l.12-.365Z" fill="#fff" fill-opacity=".9"/><circle cx="15.889" cy="44.276" r=".5" transform="rotate(-7.979 15.89 44.276)" fill="#D0333D"/><circle cx="15.889" cy="44.276" r=".5" transform="rotate(-7.979 15.89 44.276)" fill="#fff" fill-opacity=".4"/><path d="M23.553 42.632c-.203-.261-.288-.916.039-1.171.326-.255.94-.012 1.144.249.204.261.104.68-.222.934-.327.255-.757.25-.96-.012Z" fill="#D0333D"/><path d="M23.553 42.632c-.203-.261-.288-.916.039-1.171.326-.255.94-.012 1.144.249.204.261.104.68-.222.934-.327.255-.757.25-.96-.012Z" fill="#fff" fill-opacity=".6"/><path d="M41.863 37.694c-.318-.094-.768-.578-.65-.975s.759-.557 1.076-.463c.318.094.48.492.362.89-.118.397-.47.642-.788.548Z" fill="#D0333D"/><path d="M41.863 37.694c-.318-.094-.768-.578-.65-.975s.759-.557 1.076-.463c.318.094.48.492.362.89-.118.397-.47.642-.788.548Z" fill="#fff" fill-opacity=".6"/><path d="M24.783 3.276c-.168.319-.753.708-1.12.515-.366-.193-.375-.896-.207-1.215.168-.318.601-.42.968-.226.366.193.527.608.359.926Z" fill="#D0333D"/><path d="M24.783 3.276c-.168.319-.753.708-1.12.515-.366-.193-.375-.896-.207-1.215.168-.318.601-.42.968-.226.366.193.527.608.359.926Z" fill="#fff" fill-opacity=".6"/><path d="M9.44 27.559c.244-.206.856-.33 1.094-.047.239.282.015.864-.229 1.07-.243.206-.634.143-.873-.14-.239-.282-.235-.678.009-.883Z" fill="#D0333D"/><path d="M9.44 27.559c.244-.206.856-.33 1.094-.047.239.282.015.864-.229 1.07-.243.206-.634.143-.873-.14-.239-.282-.235-.678.009-.883Z" fill="#fff" fill-opacity=".6"/></g><defs><clipPath id="adka"><path fill="#fff" transform="matrix(-1 0 0 1 50 0)" d="M0 0h50v50H0z"/></clipPath><clipPath id="adkb"><path fill="#fff" d="M0 0h50v50H0z"/></clipPath></defs></svg>