<svg width="50" height="50" viewBox="0 0 50 50" fill="none" xmlns="http://www.w3.org/2000/svg">
<path d="M39.5811 3.90698C35.1693 4.46512 29.103 7.25581 28 9.48837L31.8604 20.093L43 24.5C45.7574 21.7093 47.3478 18 47.8533 13.3953C48.4048 8.37209 47.3018 3.34884 46.1989 0C43.9929 2.23256 41.9625 3.6057 39.5811 3.90698Z" fill="#2FC4A7"/>
<path d="M39.5811 3.90698C35.1693 4.46512 29.103 7.25581 28 9.48837L31.8604 20.093L43 24.5C45.7574 21.7093 47.3478 18 47.8533 13.3953C48.4048 8.37209 47.3018 3.34884 46.1989 0C43.9929 2.23256 41.9625 3.6057 39.5811 3.90698Z" fill="black" fill-opacity="0.4"/>
<path d="M32 18.0909C22 17.5455 14.2222 25.7273 15.3333 35C9.22222 35 2 28.7076 2 20.2727C2 11.8378 8.96446 5 17.5556 5C26.1467 5 32 13.1818 32 18.0909Z" fill="#546DDB"/>
<path d="M32 18.0909C22 17.5455 14.2222 25.7273 15.3333 35C9.22222 35 2 28.7076 2 20.2727C2 11.8378 8.96446 5 17.5556 5C26.1467 5 32 13.1818 32 18.0909Z" fill="white" fill-opacity="0.2"/>
<circle cx="31.5" cy="34.5" r="15.5" fill="#546DDB"/>
<circle cx="31.5" cy="34.5" r="15.5" fill="white" fill-opacity="0.2"/>
<path d="M13.5275 7.08742C12.6016 6.63975 10.4409 8.02007 9.47634 8.7662C8.12595 8.39314 5.30942 7.87086 4.84643 8.76621C4.38343 9.66156 5.42515 11.7507 6.00388 12.6834C5.03931 13.616 3.34167 15.7052 4.26766 16.6005C5.19364 17.4958 7.35428 16.9736 8.31886 16.6005C9.09051 17.5332 10.8653 19.5104 11.7913 19.958C12.7173 20.4057 13.3346 17.1601 13.5275 15.4813C14.685 15.2948 17 14.6979 17 13.8025C17 12.9072 15.0709 11.5642 14.1063 11.0046C14.2992 9.88539 14.4535 7.53509 13.5275 7.08742Z" fill="#2FC4A7"/>
<path d="M13.5275 7.08742C12.6016 6.63975 10.4409 8.02007 9.47634 8.7662C8.12595 8.39314 5.30942 7.87086 4.84643 8.76621C4.38343 9.66156 5.42515 11.7507 6.00388 12.6834C5.03931 13.616 3.34167 15.7052 4.26766 16.6005C5.19364 17.4958 7.35428 16.9736 8.31886 16.6005C9.09051 17.5332 10.8653 19.5104 11.7913 19.958C12.7173 20.4057 13.3346 17.1601 13.5275 15.4813C14.685 15.2948 17 14.6979 17 13.8025C17 12.9072 15.0709 11.5642 14.1063 11.0046C14.2992 9.88539 14.4535 7.53509 13.5275 7.08742Z" fill="white" fill-opacity="0.4"/>
<path d="M32.2861 17.2969C31.2979 17.2931 30.0544 19.4296 29.5562 20.4983C28.2376 20.7403 25.5995 21.4714 25.5957 22.4596C25.5919 23.4478 27.3983 24.8548 28.302 25.4347C27.8855 26.6685 27.3486 29.2359 28.533 29.6357C29.7173 30.0355 31.3367 28.6582 31.9984 27.9195C33.0671 28.4177 35.4516 29.4151 36.4398 29.4189C37.428 29.4227 36.5341 26.2898 35.9637 24.7229C36.8721 24.0675 38.5908 22.5588 38.1986 21.7667C37.8063 20.9746 35.5677 20.6036 34.4974 20.5172C34.1721 19.4453 33.2744 17.3007 32.2861 17.2969Z" fill="#2FC4A7"/>
<path d="M32.2861 17.2969C31.2979 17.2931 30.0544 19.4296 29.5562 20.4983C28.2376 20.7403 25.5995 21.4714 25.5957 22.4596C25.5919 23.4478 27.3983 24.8548 28.302 25.4347C27.8855 26.6685 27.3486 29.2359 28.533 29.6357C29.7173 30.0355 31.3367 28.6582 31.9984 27.9195C33.0671 28.4177 35.4516 29.4151 36.4398 29.4189C37.428 29.4227 36.5341 26.2898 35.9637 24.7229C36.8721 24.0675 38.5908 22.5588 38.1986 21.7667C37.8063 20.9746 35.5677 20.6036 34.4974 20.5172C34.1721 19.4453 33.2744 17.3007 32.2861 17.2969Z" fill="white" fill-opacity="0.4"/>
</svg>
