<svg width="50" height="50" viewBox="0 0 50 50" fill="none" xmlns="http://www.w3.org/2000/svg">
<g clip-path="url(#clip0_6323_24893)">
<path d="M32.8288 19.2683C35.1129 19.8552 37.3522 20.1651 40 20C37.5819 21.0743 35.2469 21.1622 31.7545 21.6353C31.0092 22.4389 29.4786 25.2801 26.7674 28.2211C23.9242 31.3053 22.5256 34.0033 21.7803 34.8069C27.4125 35.2829 31.0467 36.5759 35.5 38.5C32.1411 38.133 23.2011 37.3673 19.8102 38.583C15.8096 40.7246 14.344 42.7015 10.9464 45.156C8.22832 47.1195 3.7106 48.9365 0.792021 48.9744L-2.01273e-07 44C1.56345 44.329 6.74287 43.2309 10.9464 40C15.5 36.5 18.2224 33.0019 19.8848 30.8066C20.5723 26.2287 20.5 23.5 19.8102 20.5C21.2576 23.1083 22.3223 25.7214 22.1208 28.3959L31.0645 18.753C33.7476 15.8601 35.6972 12.2848 35.8544 11.3095C35.8544 13 35.5 14 34.5 16C33.5 18 33.2015 18.8665 32.8288 19.2683Z" fill="#898989"/>
<path d="M37.6154 0.672485C41.1079 4.27728 38.6536 10.3269 35.7204 11.7408C33.3414 9.95488 33.1732 3.85932 37.6154 0.672485Z" fill="#1D8CE0"/>
<path d="M37.6154 0.672485C41.1079 4.27728 38.6536 10.3269 35.7204 11.7408C33.3414 9.95488 33.1732 3.85932 37.6154 0.672485Z" fill="white" fill-opacity="0.2"/>
<path d="M11.9654 21.7683C12.8261 25.7886 18.0218 26.8355 20.3006 25.4627C20.1668 23.0263 16.1231 20.161 11.9654 21.7683Z" fill="#1D8CE0"/>
<path d="M11.9654 21.7683C12.8261 25.7886 18.0218 26.8355 20.3006 25.4627C20.1668 23.0263 16.1231 20.161 11.9654 21.7683Z" fill="white" fill-opacity="0.2"/>
<path d="M39.6828 20.1699C40.605 15.2363 46.9601 13.7414 49.8094 15.3172C49.7276 18.2909 44.8512 21.9521 39.6828 20.1699Z" fill="#1D8CE0"/>
<path d="M19.9143 20.683C15.3588 18.9529 14.5583 12.0755 16.3134 9.34051C19.1043 9.88759 22.0849 15.555 19.9143 20.683Z" fill="#1D8CE0"/>
<path d="M45.6623 41.6077C41.018 44.4387 36.0947 41.711 35.0381 38.4104C37.0751 35.7802 43.0304 36.5924 45.6623 41.6077Z" fill="#1D8CE0"/>
<path d="M45.6623 41.6077C41.018 44.4387 36.0947 41.711 35.0381 38.4104C37.0751 35.7802 43.0304 36.5924 45.6623 41.6077Z" fill="white" fill-opacity="0.2"/>
<circle cx="2.5" cy="2.5" r="2.5" transform="matrix(-1 0 0 1 12.5 31.5)" fill="#FEFEFE" fill-opacity="0.15"/>
<circle cx="2.00002" cy="2.00002" r="2.00002" transform="matrix(-1 0 0 1 43 21.8571)" fill="#FEFEFE" fill-opacity="0.15"/>
<circle cx="1.50003" cy="1.50003" r="1.50003" transform="matrix(-1 0 0 1 31.4445 7)" fill="#FEFEFE" fill-opacity="0.15"/>
<path d="M6.5 34C10 33.6786 9.70833 33.6786 10 29.5C10.2917 33.6786 10 33.6786 13.5 34C10 34.3214 10.2917 34.3214 10 38.5C9.70833 34.3214 10 34.3214 6.5 34Z" fill="#FEFEFE"/>
<path d="M38 23.8571C41 23.5816 40.75 23.5816 41 20C41.25 23.5816 41 23.5816 44 23.8571C41 24.1327 41.25 24.1327 41 27.7143C40.75 24.1327 41 24.1327 38 23.8571Z" fill="#FEFEFE"/>
<path d="M28 8.5C29.9444 8.32143 29.7824 8.32143 29.9444 6C30.1065 8.32143 29.9444 8.32143 31.8889 8.5C29.9444 8.67857 30.1065 8.67857 29.9444 11C29.7824 8.67857 29.9444 8.67857 28 8.5Z" fill="#FEFEFE"/>
</g>
<defs>
<clipPath id="clip0_6323_24893">
<rect width="50" height="50" fill="white"/>
</clipPath>
</defs>
</svg>
