<svg width="50" height="50" viewBox="0 0 50 50" fill="none" xmlns="http://www.w3.org/2000/svg">
<path d="M9.37308 12.4714C9.80286 8.59338 10.4256 3.01978 11.1419 1C13.7951 1.49875 20.4681 2 24.7659 2C29.0638 2 35.6091 1.40397 38.1162 1.00001C38.6534 2.21188 38.9275 6.4863 39.7241 10.5294C40.5837 14.8921 40.6418 44.2684 41 47.5C37.1802 49.5 31.5 49 27.6934 48.2629C27.5143 45.8391 25.1957 16 24.7659 16C24.3362 16 23.3956 45.8391 23.3956 48.2629C19.5156 48.8464 18.5016 49.046 16.1714 49C13.8413 48.954 11.4099 48.7629 9.5 48.2629C9.5 47.6569 8.9433 16.3493 9.37308 12.4714Z" fill="#898989"/>
<path d="M9.37308 12.4714C9.80286 8.59338 10.4256 3.01978 11.1419 1C13.7951 1.49875 20.4681 2 24.7659 2C29.0638 2 35.6091 1.40397 38.1162 1.00001C38.6534 2.21188 38.9275 6.4863 39.7241 10.5294C40.5837 14.8921 40.6418 44.2684 41 47.5C37.1802 49.5 31.5 49 27.6934 48.2629C27.5143 45.8391 25.1957 16 24.7659 16C24.3362 16 23.3956 45.8391 23.3956 48.2629C19.5156 48.8464 18.5016 49.046 16.1714 49C13.8413 48.954 11.4099 48.7629 9.5 48.2629C9.5 47.6569 8.9433 16.3493 9.37308 12.4714Z" fill="black" fill-opacity="0.4"/>
<path d="M10.4418 3.5C17.6039 5 28.7949 5.16988 38.6126 3.5" stroke="#898989"/>
<path d="M10.4418 3.5C17.6039 5 28.7949 5.16988 38.6126 3.5" stroke="black" stroke-opacity="0.4"/>
<path d="M14.739 4.5C14.739 6 12.8593 10.4 9.66956 9.8M34.3154 4.5C34.7929 7 36.6604 10.4857 39.5676 9.8M21.6262 5C21.6262 8.42857 21.5849 11.23 22.6437 12.6286C23.682 14 24.5472 14 24.7203 14L24.7203 5.08571" stroke="#898989"/>
<path d="M14.739 4.5C14.739 6 12.8593 10.4 9.66956 9.8M34.3154 4.5C34.7929 7 36.6604 10.4857 39.5676 9.8M21.6262 5C21.6262 8.42857 21.5849 11.23 22.6437 12.6286C23.682 14 24.5472 14 24.7203 14L24.7203 5.08571" stroke="black" stroke-opacity="0.4"/>
<path d="M9.38544 46.0825V44.7136C14.4142 45.9415 17.9963 45.9578 23.5 44.7136L23.4791 46.0844C18.0327 47.2976 14.3927 47.2846 9.38544 46.0825Z" fill="#898989"/>
<path d="M9.38544 46.0825V44.7136C14.4142 45.9415 17.9963 45.9578 23.5 44.7136L23.4791 46.0844C18.0327 47.2976 14.3927 47.2846 9.38544 46.0825Z" fill="black" fill-opacity="0.6"/>
<path d="M40.8369 45.4046L40.8049 44.0413C35.842 45.3284 32.1165 45.3183 27.4339 44.6892L27.507 46.0537C32.1415 46.6632 35.8924 46.6675 40.8369 45.4046Z" fill="#898989"/>
<path d="M40.8369 45.4046L40.8049 44.0413C35.842 45.3284 32.1165 45.3183 27.4339 44.6892L27.507 46.0537C32.1415 46.6632 35.8924 46.6675 40.8369 45.4046Z" fill="black" fill-opacity="0.6"/>
<path d="M5 26.5C21.9167 29.0167 27.5833 29.0167 44.5 26.5C44.5 26.5 42 11 38 0H10.5C7 11 5 26.5 5 26.5Z" fill="#7445B8"/>
<path d="M5 26.5C21.9167 29.0167 27.5833 29.0167 44.5 26.5C44.5 26.5 42 11 38 0H10.5C7 11 5 26.5 5 26.5Z" fill="white" fill-opacity="0.4"/>
<path d="M5.5 24C9.16667 24.6667 19.4 26 25 26C30.6 26 40.3333 24.6667 44 24" stroke="#7445B8" stroke-dasharray="2 2"/>
</svg>
