<svg width="50" height="50" viewBox="0 0 50 50" fill="none" xmlns="http://www.w3.org/2000/svg">
<circle cx="25.0667" cy="25.0665" r="22.4167" stroke="#1D8CE0" stroke-width="0.996296"/>
<circle cx="25.0667" cy="25.0665" r="22.4167" stroke="white" stroke-opacity="0.95" stroke-width="0.996296"/>
<path d="M37.5 37.5001C43 33.0454 45 21.5 38.5745 13.0016C39.2991 19.1626 37.6992 26.8689 32.5141 32.0453C27.329 37.2217 15.4044 38.4225 11 37.5001C22.5964 45.5482 31.1157 42.671 37.5 37.5001Z" fill="#FEFEFE" fill-opacity="0.15"/>
<g clip-path="url(#clip0_5928_9343)">
<path d="M34.75 20.25H15.25C15.25 21.5135 15.376 24.4794 16 26.9605C16.624 29.4416 17.5 31.5 18.25 33H31.75C32.53 31.8514 33.376 28.8903 34 26.9605C34.624 25.0308 34.75 21.7432 34.75 20.25Z" fill="#2FC4A7"/>
<path d="M34.75 20.25H15.25C15.25 21.5135 15.376 24.4794 16 26.9605C16.624 29.4416 17.5 31.5 18.25 33H31.75C32.53 31.8514 33.376 28.8903 34 26.9605C34.624 25.0308 34.75 21.7432 34.75 20.25Z" fill="white" fill-opacity="0.4"/>
<path d="M34.75 20.25H15.25C15.25 21.5135 15.376 24.4794 16 26.9605C16.624 29.4416 17.5 31.5 18.25 33H31.75C32.53 31.8514 33.376 28.8903 34 26.9605C34.624 25.0308 34.75 21.7432 34.75 20.25Z" stroke="#2FC4A7" stroke-width="0.996296"/>
<path d="M34.75 20.25H15.25C15.25 21.5135 15.376 24.4794 16 26.9605C16.624 29.4416 17.5 31.5 18.25 33H31.75C32.53 31.8514 33.376 28.8903 34 26.9605C34.624 25.0308 34.75 21.7432 34.75 20.25Z" stroke="white" stroke-opacity="0.4" stroke-width="0.996296"/>
<path d="M11.5 37.05C10.4805 36.2344 10.25 35.55 10 35.25H40C39.625 35.55 39.4375 36.3 38.5 37.05C37.5625 37.8 36 37.95 35.5 38.25H14.5C14 37.95 12.5195 37.8656 11.5 37.05Z" fill="#2FC4A7"/>
<path d="M11.5 37.05C10.4805 36.2344 10.25 35.55 10 35.25H40C39.625 35.55 39.4375 36.3 38.5 37.05C37.5625 37.8 36 37.95 35.5 38.25H14.5C14 37.95 12.5195 37.8656 11.5 37.05Z" fill="white" fill-opacity="0.2"/>
<path d="M11.5 37.05C10.4805 36.2344 10.25 35.55 10 35.25H40C39.625 35.55 39.4375 36.3 38.5 37.05C37.5625 37.8 36 37.95 35.5 38.25H14.5C14 37.95 12.5195 37.8656 11.5 37.05Z" stroke="#2FC4A7" stroke-width="0.996296"/>
<path d="M11.5 37.05C10.4805 36.2344 10.25 35.55 10 35.25H40C39.625 35.55 39.4375 36.3 38.5 37.05C37.5625 37.8 36 37.95 35.5 38.25H14.5C14 37.95 12.5195 37.8656 11.5 37.05Z" stroke="white" stroke-opacity="0.2" stroke-width="0.996296"/>
<path d="M33.625 22.875C34.0769 22.6346 36.625 21.75 37.75 22.5C39.3694 23.5796 39.3269 24.8078 38.875 26.2499C38.5135 27.4036 34.311 29.5482 31.75 30.7499" stroke="#2FC4A7" stroke-width="1.99259"/>
<path d="M33.625 22.875C34.0769 22.6346 36.625 21.75 37.75 22.5C39.3694 23.5796 39.3269 24.8078 38.875 26.2499C38.5135 27.4036 34.311 29.5482 31.75 30.7499" stroke="white" stroke-opacity="0.4" stroke-width="1.99259"/>
<path d="M23.5 10.5C24.125 10.75 26.5 11.1328 26.5 12.75C26.5 14.3672 23.5 15 23.5 16.5C23.5 18 25 18.375 26.5 18.75" stroke="#1D8CE0" stroke-width="1.99259" stroke-linecap="round"/>
<path d="M23.5 10.5C24.125 10.75 26.5 11.1328 26.5 12.75C26.5 14.3672 23.5 15 23.5 16.5C23.5 18 25 18.375 26.5 18.75" stroke="white" stroke-opacity="0.8" stroke-width="1.99259" stroke-linecap="round"/>
</g>
<path d="M14.6055 9.12572C11.765 11.6271 10.6204 15.1035 10.6204 18.0924C11.1061 16.033 14.2019 11.8587 17.0963 10.122C19.5596 8.64405 21.5796 7.13312 25.0667 6.63497C21.5796 6.13682 17.4461 6.62428 14.6055 9.12572Z" fill="#FEFEFE"/>
<path d="M34.5 40C37.5 38.5 40.5 35.5 42 30C40 34 37.0518 37.1895 34 39C30.9482 40.8105 27 42.5 21 42C27.5 43.5 30.6529 41.9235 34.5 40Z" fill="#FEFEFE"/>
<defs>
<clipPath id="clip0_5928_9343">
<rect width="30" height="30" fill="white" transform="translate(10 9)"/>
</clipPath>
</defs>
</svg>
