<svg width="40" height="40" viewBox="0 0 40 40" fill="none" xmlns="http://www.w3.org/2000/svg">
<g clip-path="url(#clip0_662_482)">
<path d="M33 15H7C7 16.6847 7.168 20.6393 8 23.9474C8.832 27.2555 10 30 11 32H29C30.04 30.4685 31.168 26.5203 32 23.9474C32.832 21.3744 33 16.991 33 15Z" fill="#2FC4A7"/>
<path d="M33 15H7C7 16.6847 7.168 20.6393 8 23.9474C8.832 27.2555 10 30 11 32H29C30.04 30.4685 31.168 26.5203 32 23.9474C32.832 21.3744 33 16.991 33 15Z" fill="white" fill-opacity="0.4"/>
<path d="M33 15H7C7 16.6847 7.168 20.6393 8 23.9474C8.832 27.2555 10 30 11 32H29C30.04 30.4685 31.168 26.5203 32 23.9474C32.832 21.3744 33 16.991 33 15Z" stroke="#2FC4A7"/>
<path d="M33 15H7C7 16.6847 7.168 20.6393 8 23.9474C8.832 27.2555 10 30 11 32H29C30.04 30.4685 31.168 26.5203 32 23.9474C32.832 21.3744 33 16.991 33 15Z" stroke="white" stroke-opacity="0.4"/>
<path d="M2 37.4C0.640625 36.3125 0.333333 35.4 0 35H40C39.5 35.4 39.25 36.4 38 37.4C36.75 38.4 34.6667 38.6 34 39H6C5.33333 38.6 3.35938 38.4875 2 37.4Z" fill="#2FC4A7"/>
<path d="M2 37.4C0.640625 36.3125 0.333333 35.4 0 35H40C39.5 35.4 39.25 36.4 38 37.4C36.75 38.4 34.6667 38.6 34 39H6C5.33333 38.6 3.35938 38.4875 2 37.4Z" fill="white" fill-opacity="0.2"/>
<path d="M2 37.4C0.640625 36.3125 0.333333 35.4 0 35H40C39.5 35.4 39.25 36.4 38 37.4C36.75 38.4 34.6667 38.6 34 39H6C5.33333 38.6 3.35938 38.4875 2 37.4Z" stroke="#2FC4A7"/>
<path d="M2 37.4C0.640625 36.3125 0.333333 35.4 0 35H40C39.5 35.4 39.25 36.4 38 37.4C36.75 38.4 34.6667 38.6 34 39H6C5.33333 38.6 3.35938 38.4875 2 37.4Z" stroke="white" stroke-opacity="0.2"/>
<path d="M31.5 18.5C32.1026 18.1795 35.5 17 37 18C39.1592 19.4394 39.1026 21.0771 38.5 22.9999C38.0179 24.5382 32.4146 27.3976 29 28.9999" stroke="#2FC4A7" stroke-width="2"/>
<path d="M31.5 18.5C32.1026 18.1795 35.5 17 37 18C39.1592 19.4394 39.1026 21.0771 38.5 22.9999C38.0179 24.5382 32.4146 27.3976 29 28.9999" stroke="white" stroke-opacity="0.4" stroke-width="2"/>
<path d="M18 2C18.8333 2.33333 22 2.84375 22 5C22 7.15625 18 8 18 10C18 12 20 12.5 22 13" stroke="#1D8CE0" stroke-width="2"/>
<path d="M18 2C18.8333 2.33333 22 2.84375 22 5C22 7.15625 18 8 18 10C18 12 20 12.5 22 13" stroke="white" stroke-opacity="0.8" stroke-width="2"/>
</g>
<defs>
<clipPath id="clip0_662_482">
<rect width="40" height="40" fill="white"/>
</clipPath>
</defs>
</svg>
