<svg width="50" height="50" viewBox="0 0 50 50" fill="none" xmlns="http://www.w3.org/2000/svg">
<g clip-path="url(#clip0_6268_12371)">
<path d="M27 3.5C23.8 3.5 19.6667 1.66667 18 0.5C17.8334 2.16667 18 5.9 20 7.5C22.5 9.5 25 10.5 30.5 9C34.9 7.8 34.6667 2.83333 34 0.5C33 1.66667 30.2 3.5 27 3.5Z" fill="#898989"/>
<path d="M27 3.5C23.8 3.5 19.6667 1.66667 18 0.5C17.8334 2.16667 18 5.9 20 7.5C22.5 9.5 25 10.5 30.5 9C34.9 7.8 34.6667 2.83333 34 0.5C33 1.66667 30.2 3.5 27 3.5Z" fill="white" fill-opacity="0.2"/>
<path d="M22 7.5C19.5 6 18 2.94444 18 0.5C12.5 1.5 5.5 1.5 2.5 11.5C4.5 12.5 8.5 14 10 15C10 20.5 10.5 28.6667 12 35.5C12 35.5 14 28.6667 24.6667 28.6667C35.3333 28.6667 41 34 41 34C40 28 40 24 40 15C42 14 43.5 13 46.5 11.5C44 3.5 42.5 2 34 0.5C34 3 33.5001 6.16664 31.5 7.5C29.4999 8.83336 24.5 9 22 7.5Z" fill="#898989"/>
<path d="M22 7.5C19.5 6 18 2.94444 18 0.5C12.5 1.5 5.5 1.5 2.5 11.5C4.5 12.5 8.5 14 10 15C10 20.5 10.5 28.6667 12 35.5C12 35.5 14 28.6667 24.6667 28.6667C35.3333 28.6667 41 34 41 34C40 28 40 24 40 15C42 14 43.5 13 46.5 11.5C44 3.5 42.5 2 34 0.5C34 3 33.5001 6.16664 31.5 7.5C29.4999 8.83336 24.5 9 22 7.5Z" fill="white" fill-opacity="0.95"/>
<path d="M16.5 0.700098L13 1.4001C13 7.30011 12.2852 23.1627 11.5 27.5C11.1379 29.5 11 27.5 10 31.5C9 35.5 7.5 39.5 6 49C6 49 19.0075 50.0001 28 50.0001C36.9925 50.0001 44.5 49 44.5 49C42.5 41.5 42.6339 39.1693 41.5 33.5C40.3661 27.8307 40 30.0001 39.5 26.5C38.7135 22.1006 38.7903 6.60412 38.5 1.4L35 0.600098L34.5 13.4989C32.5 14.5001 30.5 15.5001 27.5 15.5001C24 15.5001 20 14.5001 18 13.4989L16.5 0.700098Z" fill="#7445B8"/>
<path d="M16.5 0.700098L13 1.4001C13 7.30011 12.2852 23.1627 11.5 27.5C11.1379 29.5 11 27.5 10 31.5C9 35.5 7.5 39.5 6 49C6 49 19.0075 50.0001 28 50.0001C36.9925 50.0001 44.5 49 44.5 49C42.5 41.5 42.6339 39.1693 41.5 33.5C40.3661 27.8307 40 30.0001 39.5 26.5C38.7135 22.1006 38.7903 6.60412 38.5 1.4L35 0.600098L34.5 13.4989C32.5 14.5001 30.5 15.5001 27.5 15.5001C24 15.5001 20 14.5001 18 13.4989L16.5 0.700098Z" fill="white" fill-opacity="0.4"/>
<circle cx="15.3333" cy="12.3333" r="1.33333" fill="#7445B8"/>
<circle cx="36.8333" cy="12.3333" r="1.33333" fill="#7445B8"/>
<path d="M37.3333 30C31.1868 31.2144 26.0283 30.9437 16 30C16 45 18.3667 46 28.5 46C36.5 46 37.5 45 37.3333 30Z" fill="#7445B8"/>
<path d="M37.3333 30C31.1868 31.2144 26.0283 30.9437 16 30C16 45 18.3667 46 28.5 46C36.5 46 37.5 45 37.3333 30Z" fill="white" fill-opacity="0.2"/>
</g>
<defs>
<clipPath id="clip0_6268_12371">
<rect width="50" height="50" fill="white" transform="matrix(-1 0 0 1 50 0)"/>
</clipPath>
</defs>
</svg>
