<svg width="50" height="50" viewBox="0 0 50 50" fill="none" xmlns="http://www.w3.org/2000/svg">
<path d="M33.4648 22.8169L28.9014 18.2535L2.38087 41.7318C1.70573 43.0407 1.5211 45.6338 3.80279 47.9155C6.08448 50.1972 8.67756 50.0126 9.9865 49.3374L33.4648 22.8169Z" fill="#7445B8"/>
<path d="M33.4648 22.8169L28.9014 18.2535L2.38087 41.7318C1.70573 43.0407 1.5211 45.6338 3.80279 47.9155C6.08448 50.1972 8.67756 50.0126 9.9865 49.3374L33.4648 22.8169Z" fill="white" fill-opacity="0.8"/>
<path d="M32.7042 3.80282L30.4225 6.08451L35.7464 7.60563L44.4929 16.3521C44.4929 16.3521 46.3943 21.2958 46.7746 23.9577C47.1549 26.6197 46.7746 32.3239 46.7746 32.3239C46.7746 32.3239 44.8732 28.1408 42.9718 26.2394C41.0704 24.338 39.1167 23.6868 37.6478 23.1972C36.179 22.7076 34.9859 22.8169 33.4647 22.8169L28.9014 18.2535C28.9014 16.7324 29.2008 16.1097 28.5211 14.0704C27.8413 12.0312 26.1126 11.1549 25.8591 10.6479L23.5774 12.9296L19.7746 9.12676L28.9014 0L32.7042 3.80282Z" fill="#7445B8"/>
</svg>
