<svg width="50" height="50" viewBox="0 0 50 50" fill="none" xmlns="http://www.w3.org/2000/svg">
<path d="M46.0928 13.6187L23.866 14.0723L26.5877 35.3919C25.6804 35.2407 23.1402 35.3011 20.2371 36.7527C17.334 38.2042 16.6083 40.9864 16.6083 42.196C19.0275 42.4984 22.9588 43.1032 29.3093 43.1032C35.433 43.1032 39.8935 41.8936 42.464 41.2888L46.0928 13.6187Z" fill="#7445B8"/>
<path d="M46.0928 13.6187L23.866 14.0723L26.5877 35.3919C25.6804 35.2407 23.1402 35.3011 20.2371 36.7527C17.334 38.2042 16.6083 40.9864 16.6083 42.196C19.0275 42.4984 22.9588 43.1032 29.3093 43.1032C35.433 43.1032 39.8935 41.8936 42.464 41.2888L46.0928 13.6187Z" fill="white" fill-opacity="0.2"/>
<path d="M23.866 14.0722L22.9587 8.17529L47 7.72168L46.0928 13.6186L23.866 14.0722Z" fill="#7445B8"/>
<path d="M23.866 14.0722L22.9587 8.17529L47 7.72168L46.0928 13.6186L23.866 14.0722Z" fill="white" fill-opacity="0.8"/>
<path d="M28.8557 46.2783C23.0495 46.2783 18.2715 45.371 16.6083 44.9174V42.1958C18.4227 42.4982 23.4124 43.103 28.8557 43.103C34.299 43.103 40.1959 41.8934 42.464 41.2886V44.9174C40.3471 45.371 34.6619 46.2783 28.8557 46.2783Z" fill="#7445B8"/>
<path d="M28.8557 46.2783C23.0495 46.2783 18.2715 45.371 16.6083 44.9174V42.1958C18.4227 42.4982 23.4124 43.103 28.8557 43.103C34.299 43.103 40.1959 41.8934 42.464 41.2886V44.9174C40.3471 45.371 34.6619 46.2783 28.8557 46.2783Z" fill="white" fill-opacity="0.8"/>
<path d="M33.3918 5L9.35052 5.45361L10.2577 11.3505L22.233 11.0784L21.598 7.0866L33.1196 6.81443L33.3918 5Z" fill="#7445B8"/>
<path d="M33.3918 5L9.35052 5.45361L10.2577 11.3505L22.233 11.0784L21.598 7.0866L33.1196 6.81443L33.3918 5Z" fill="white" fill-opacity="0.8"/>
<path d="M5.72165 34.4843C7.16866 33.3991 10.7113 32.2163 12.9794 32.6699L10.2577 11.3503L22.233 11.0781L25.2268 34.3029C24.3196 34.4541 22.1411 34.4305 19.7835 35.8451C17.5155 37.206 16.1546 38.5668 15.701 40.3812H12.9794C9.35052 40.3812 4.81443 39.9276 3 39.474C3 38.1132 3.90722 35.8451 5.72165 34.4843Z" fill="#7445B8"/>
<path d="M5.72165 34.4843C7.16866 33.3991 10.7113 32.2163 12.9794 32.6699L10.2577 11.3503L22.233 11.0781L25.2268 34.3029C24.3196 34.4541 22.1411 34.4305 19.7835 35.8451C17.5155 37.206 16.1546 38.5668 15.701 40.3812H12.9794C9.35052 40.3812 4.81443 39.9276 3 39.474C3 38.1132 3.90722 35.8451 5.72165 34.4843Z" fill="white" fill-opacity="0.2"/>
<path d="M8.89691 40.1999C4.81443 39.9277 3.90722 39.6253 3 39.4741V42.1958C4.81443 42.6494 7.08803 43.0028 7.98969 43.103C12.0722 43.5566 14.4914 43.5566 15.701 43.5566V40.3813C14.3402 40.3813 11.4572 40.3706 8.89691 40.1999Z" fill="#7445B8"/>
<path d="M8.89691 40.1999C4.81443 39.9277 3.90722 39.6253 3 39.4741V42.1958C4.81443 42.6494 7.08803 43.0028 7.98969 43.103C12.0722 43.5566 14.4914 43.5566 15.701 43.5566V40.3813C14.3402 40.3813 11.4572 40.3706 8.89691 40.1999Z" fill="white" fill-opacity="0.8"/>
</svg>
