<svg width="50" height="50" viewBox="0 0 50 50" fill="none" xmlns="http://www.w3.org/2000/svg">
<path d="M27.2618 22.5855C26.7078 22.0315 25.9271 21.0349 25.6925 20.6925L9.34796 37.037L12.8103 40.4993L29.1548 24.1548C28.7546 23.8625 27.8158 23.1394 27.2618 22.5855Z" fill="#7445B8"/>
<path d="M27.2618 22.5855C26.7078 22.0315 25.9271 21.0349 25.6925 20.6925L9.34796 37.037L12.8103 40.4993L29.1548 24.1548C28.7546 23.8625 27.8158 23.1394 27.2618 22.5855Z" fill="white" fill-opacity="0.6"/>
<path d="M12.8555 41.8391L8.00818 36.9918L4.34245e-07 45L-4.08692e-07 47L3 50L5 50L12.8555 41.8391Z" fill="#7445B8"/>
<path d="M12.8555 41.8391L8.00818 36.9918L4.34245e-07 45L-4.08692e-07 47L3 50L5 50L12.8555 41.8391Z" fill="white" fill-opacity="0.6"/>
<path fill-rule="evenodd" clip-rule="evenodd" d="M45.0583 5.76655L40.8169 8.05037L42.7745 10.0079L45.0583 5.76655ZM35.1074 0.383276L36.9018 9.02914L33.313 9.02914L35.1074 0.383276ZM41.5 14.0862V17.8381L49.9985 15.5L41.5 14.0862ZM28.0928 17.8381L28.256 14.0862L20.752 16.0437L28.0928 17.8381ZM32.9867 22.732H37.1235L35.1074 30.3991L32.9867 22.732ZM42.9376 21.5901L45.7108 25.9946L41.1432 23.3845L42.9376 21.5901ZM29.0716 7.72411L27.2772 9.51853L24.504 4.78777L29.0716 7.72411ZM29.0716 9.3554C30.2461 8.18087 31.8529 7.77848 32.3423 7.72411C32.1248 8.26787 31.846 9.51853 32.4985 10.171C33.3142 10.9867 36.7387 11.1498 37.7175 10.171C38.4681 9.42039 37.9794 8.20995 37.7461 7.63209L37.7175 7.56098C38.4244 7.94161 40.0665 8.93126 40.9801 9.84479C41.8367 10.7015 42.4256 12.0076 42.7198 12.6602L42.7745 12.7811L42.7712 12.7805C42.2264 12.6715 41.1498 12.4562 40.4985 13.1074C39.6829 13.923 39.6667 17.6682 40.4985 18.5C41.3169 19.3183 41.8466 19.1472 42.3995 18.9687C42.5222 18.929 42.6461 18.889 42.7745 18.8594C42.7551 18.9161 42.7358 18.9746 42.7159 19.0349C42.5057 19.6709 42.2308 20.5025 41.1432 21.5901C40.2839 22.4494 39.4471 22.9747 38.7616 23.4049C38.4974 23.5708 38.2556 23.7226 38.0437 23.8739C38.0437 23.7465 38.0512 23.5955 38.0593 23.4311C38.0928 22.7532 38.1376 21.8471 37.7175 21.427C37.065 20.7745 32.9867 20.6113 32.1711 21.427C31.5185 22.0795 31.6273 23.4389 31.8448 23.8739C31.301 23.7652 29.9199 23.254 28.7453 22.0795C27.5708 20.905 27.0597 19.5238 26.9509 18.98C27.3859 19.0888 28.4191 19.1432 29.0716 18.4907C29.8873 17.675 29.8872 13.7599 29.2347 13.1074C28.7127 12.5854 27.4947 12.6724 26.9509 12.7811C27.1684 12.1286 27.8971 10.5299 29.0716 9.3554ZM33.1498 17.6751C34.0508 18.5761 35.5115 18.5761 36.4124 17.6751C37.3134 16.7742 37.3134 15.3135 36.4124 14.4125C35.5115 13.5116 34.0508 13.5116 33.1498 14.4125C32.2489 15.3135 32.2489 16.7742 33.1498 17.6751Z" fill="#7445B8"/>
<path fill-rule="evenodd" clip-rule="evenodd" d="M45.0583 5.76655L40.8169 8.05037L42.7745 10.0079L45.0583 5.76655ZM35.1074 0.383276L36.9018 9.02914L33.313 9.02914L35.1074 0.383276ZM41.5 14.0862V17.8381L49.9985 15.5L41.5 14.0862ZM28.0928 17.8381L28.256 14.0862L20.752 16.0437L28.0928 17.8381ZM32.9867 22.732H37.1235L35.1074 30.3991L32.9867 22.732ZM42.9376 21.5901L45.7108 25.9946L41.1432 23.3845L42.9376 21.5901ZM29.0716 7.72411L27.2772 9.51853L24.504 4.78777L29.0716 7.72411ZM29.0716 9.3554C30.2461 8.18087 31.8529 7.77848 32.3423 7.72411C32.1248 8.26787 31.846 9.51853 32.4985 10.171C33.3142 10.9867 36.7387 11.1498 37.7175 10.171C38.4681 9.42039 37.9794 8.20995 37.7461 7.63209L37.7175 7.56098C38.4244 7.94161 40.0665 8.93126 40.9801 9.84479C41.8367 10.7015 42.4256 12.0076 42.7198 12.6602L42.7745 12.7811L42.7712 12.7805C42.2264 12.6715 41.1498 12.4562 40.4985 13.1074C39.6829 13.923 39.6667 17.6682 40.4985 18.5C41.3169 19.3183 41.8466 19.1472 42.3995 18.9687C42.5222 18.929 42.6461 18.889 42.7745 18.8594C42.7551 18.9161 42.7358 18.9746 42.7159 19.0349C42.5057 19.6709 42.2308 20.5025 41.1432 21.5901C40.2839 22.4494 39.4471 22.9747 38.7616 23.4049C38.4974 23.5708 38.2556 23.7226 38.0437 23.8739C38.0437 23.7465 38.0512 23.5955 38.0593 23.4311C38.0928 22.7532 38.1376 21.8471 37.7175 21.427C37.065 20.7745 32.9867 20.6113 32.1711 21.427C31.5185 22.0795 31.6273 23.4389 31.8448 23.8739C31.301 23.7652 29.9199 23.254 28.7453 22.0795C27.5708 20.905 27.0597 19.5238 26.9509 18.98C27.3859 19.0888 28.4191 19.1432 29.0716 18.4907C29.8873 17.675 29.8872 13.7599 29.2347 13.1074C28.7127 12.5854 27.4947 12.6724 26.9509 12.7811C27.1684 12.1286 27.8971 10.5299 29.0716 9.3554ZM33.1498 17.6751C34.0508 18.5761 35.5115 18.5761 36.4124 17.6751C37.3134 16.7742 37.3134 15.3135 36.4124 14.4125C35.5115 13.5116 34.0508 13.5116 33.1498 14.4125C32.2489 15.3135 32.2489 16.7742 33.1498 17.6751Z" fill="white" fill-opacity="0.2"/>
</svg>
