<svg width="50" height="50" viewBox="0 0 50 50" fill="none" xmlns="http://www.w3.org/2000/svg">
<path d="M39.3669 6.11867C39.869 4.24506 35.1439 2.46003 32.3697 1.71669C29.5955 0.973354 24.5997 0.198807 24.109 2.03031C23.8382 3.0408 24.7883 3.65638 25.0448 4.08612C24.8595 5.23986 24.1366 8.0305 22.7267 9.9632C20.9644 12.3791 18.4591 12.5981 16.6083 13.378C14.5135 14.2607 13.4447 16.8624 13.0837 18.2097L7.30747 39.7667C7.38349 40.8701 9.49338 43.5549 12.4663 45.4812C15.3165 47.3279 23.2923 49.465 27.0308 49.3837C30.4278 49.3098 34.7785 48.2106 35.0493 47.2001L40.8254 25.6431C41.2165 24.1835 41.9446 21.4664 40.1889 19.6963C38.4331 17.9263 37.0964 15.9796 36.5976 13.6799C36.1985 11.8401 37.0219 8.85977 37.5286 7.43115C38.3124 7.28015 39.1413 6.96075 39.3669 6.11867Z" fill="#FEFEFE"/>
<path d="M34.8257 27.9599C33.5335 28.3414 32.8669 27.0305 31.348 26.9919C29.829 26.9534 29.2275 27.2943 28.5209 28.0252C27.7822 28.7893 27.3413 30.5128 28.0727 31.5834C29.1087 33.1 30.5251 34.7371 33.196 35.5464C36.2555 36.4735 37.2948 34.872 38.4775 34.3713L39.613 30.1338C39.558 29.6017 39.7929 28.7606 39.3527 27.8712C38.8024 26.7595 37.5311 26.1165 36.6744 26.4583C35.6976 26.848 35.814 27.6681 34.8257 27.9599Z" fill="#7445B8"/>
<path d="M34.8257 27.9599C33.5335 28.3414 32.8669 27.0305 31.348 26.9919C29.829 26.9534 29.2275 27.2943 28.5209 28.0252C27.7822 28.7893 27.3413 30.5128 28.0727 31.5834C29.1087 33.1 30.5251 34.7371 33.196 35.5464C36.2555 36.4735 37.2948 34.872 38.4775 34.3713L39.613 30.1338C39.558 29.6017 39.7929 28.7606 39.3527 27.8712C38.8024 26.7595 37.5311 26.1165 36.6744 26.4583C35.6976 26.848 35.814 27.6681 34.8257 27.9599Z" fill="white" fill-opacity="0.2"/>
<path d="M21.1926 11.6369C19.8704 12.5379 18.3048 12.7594 17.5343 13.2397C17.978 14.5001 18.7527 14.7924 20.0031 15.0934C22.0039 15.5751 20.5746 16.4524 23.0023 18.6282C25.43 20.804 28.195 20.0108 29.1987 18.5894C30.2045 17.1686 28.7769 15.7213 28.1797 15.2261C27.5824 14.731 28.4963 14.0587 28.6662 12.9698C28.8343 11.8791 28.9506 10.644 27.7043 9.50697C26.8722 8.74814 24.902 8.27266 23.6073 8.40928C22.8504 9.75362 22.3722 10.8332 21.1926 11.6369Z" fill="#7445B8"/>
<path d="M21.1926 11.6369C19.8704 12.5379 18.3048 12.7594 17.5343 13.2397C17.978 14.5001 18.7527 14.7924 20.0031 15.0934C22.0039 15.5751 20.5746 16.4524 23.0023 18.6282C25.43 20.804 28.195 20.0108 29.1987 18.5894C30.2045 17.1686 28.7769 15.7213 28.1797 15.2261C27.5824 14.731 28.4963 14.0587 28.6662 12.9698C28.8343 11.8791 28.9506 10.644 27.7043 9.50697C26.8722 8.74814 24.902 8.27266 23.6073 8.40928C22.8504 9.75362 22.3722 10.8332 21.1926 11.6369Z" fill="white" fill-opacity="0.2"/>
<path d="M14.8238 28.6574C12.9938 27.8059 10.3524 28.482 9.96058 29.9373L7.31003 39.7701C7.31003 39.7701 7.31003 40.5285 9.00003 42.5001C12.0971 46.1132 15.7585 47.0353 17.5 47.5001C17.8229 46.2951 15.8403 46.1892 16.1051 45.3755C16.3699 44.5619 18.2366 45.4322 20.0951 44.779C21.1696 44.4013 22.7333 42.291 21.0544 40.3066C19.2411 38.1635 16.1672 38.6848 16.1339 37.5036C16.1007 36.3225 17.3506 36.4342 17.8911 34.6867C18.5726 32.4832 18.0963 30.18 14.8238 28.6574Z" fill="#7445B8"/>
<path d="M14.8238 28.6574C12.9938 27.8059 10.3524 28.482 9.96058 29.9373L7.31003 39.7701C7.31003 39.7701 7.31003 40.5285 9.00003 42.5001C12.0971 46.1132 15.7585 47.0353 17.5 47.5001C17.8229 46.2951 15.8403 46.1892 16.1051 45.3755C16.3699 44.5619 18.2366 45.4322 20.0951 44.779C21.1696 44.4013 22.7333 42.291 21.0544 40.3066C19.2411 38.1635 16.1672 38.6848 16.1339 37.5036C16.1007 36.3225 17.3506 36.4342 17.8911 34.6867C18.5726 32.4832 18.0963 30.18 14.8238 28.6574Z" fill="white" fill-opacity="0.2"/>
<ellipse cx="31.8594" cy="3.87004" rx="6.29547" ry="1.59485" transform="rotate(14.9427 31.8594 3.87004)" fill="#898989"/>
<ellipse cx="31.8594" cy="3.87004" rx="6.29547" ry="1.59485" transform="rotate(14.9427 31.8594 3.87004)" fill="white" fill-opacity="0.6"/>
</svg>
