<svg width="50" height="50" viewBox="0 0 50 50" fill="none" xmlns="http://www.w3.org/2000/svg">
<g clip-path="url(#clip0_1369_8352)">
<path d="M30.0203 21.9797L35 17.5L32.5 15L28.0203 19.9797L30.0203 21.9797Z" fill="#7445B8"/>
<path d="M30.0203 21.9797L35 17.5L32.5 15L28.0203 19.9797L30.0203 21.9797Z" fill="white" fill-opacity="0.6"/>
<path d="M29.1149 22.8851L27.1149 20.8851L-0.0945942 47.0946L8.75352e-06 49L1.00001 50L2.90542 50.0946L29.1149 22.8851Z" fill="#7445B8"/>
<path d="M29.1149 22.8851L27.1149 20.8851L-0.0945942 47.0946L8.75352e-06 49L1.00001 50L2.90542 50.0946L29.1149 22.8851Z" fill="white" fill-opacity="0.6"/>
<path fill-rule="evenodd" clip-rule="evenodd" d="M49.9942 0.0945164L41.6297 16.0474L38.687 16.1444C37.7061 16.1768 35.7317 16.7821 35.7317 16.7821L35.0733 16.1237L41.8884 8.20036L33.7563 14.8068L33.0976 14.1481C33.0976 14.1481 33.9119 12.3826 33.9443 11.4017L34.0413 8.45901L49.9942 0.0945164Z" fill="#7445B8"/>
<path fill-rule="evenodd" clip-rule="evenodd" d="M49.9942 0.0945164L41.6297 16.0474L38.687 16.1444C37.7061 16.1768 35.7317 16.7821 35.7317 16.7821L35.0733 16.1237L41.8884 8.20036L33.7563 14.8068L33.0976 14.1481C33.0976 14.1481 33.9119 12.3826 33.9443 11.4017L34.0413 8.45901L49.9942 0.0945164Z" fill="white" fill-opacity="0.2"/>
</g>
<defs>
<clipPath id="clip0_1369_8352">
<rect width="50" height="50" fill="white"/>
</clipPath>
</defs>
</svg>
