<svg width="50" height="50" viewBox="0 0 50 50" fill="none" xmlns="http://www.w3.org/2000/svg">
<path d="M43.8244 11.6002C43.3005 12.1122 42.0816 12.8802 41.5358 13.2002C41.645 13.7335 42.0381 15.0323 42.1907 16.0802C42.447 17.8402 42.447 18.3202 42.5182 19.2802C42.8456 19.4935 43.6969 19.8562 44.4828 19.6002C45.2687 19.3442 45.9017 18.0002 46.12 17.3602L46.12 13.5202C46.12 11.4722 45.6834 10.3202 45.4651 9.68018C45.1377 10.1068 44.3483 11.0882 43.8244 11.6002Z" fill="#7445B8"/>
<path d="M43.8244 11.6002C43.3005 12.1122 42.0816 12.8802 41.5358 13.2002C41.645 13.7335 42.0381 15.0323 42.1907 16.0802C42.447 17.8402 42.447 18.3202 42.5182 19.2802C42.8456 19.4935 43.6969 19.8562 44.4828 19.6002C45.2687 19.3442 45.9017 18.0002 46.12 17.3602L46.12 13.5202C46.12 11.4722 45.6834 10.3202 45.4651 9.68018C45.1377 10.1068 44.3483 11.0882 43.8244 11.6002Z" fill="white" fill-opacity="0.2"/>
<path d="M10.1014 14.1604C8.23405 13.2052 6.1721 12.8804 5.18977 12.8804C4.79827 14.0002 4.53489 15.4404 4.20745 17.3604C3.98786 18.648 3.88 21.307 3.88 22.4804C4.31659 22.8004 6.04112 23.5684 9.44652 24.0804C12.8519 24.5924 16.9777 23.6537 18.6149 23.1204C17.96 21.7337 16.7157 18.7044 15.6679 17.6804C14.3581 16.4004 12.6035 15.4402 10.1014 14.1604Z" fill="#7445B8"/>
<path d="M10.1014 14.1604C8.23405 13.2052 6.1721 12.8804 5.18977 12.8804C4.79827 14.0002 4.53489 15.4404 4.20745 17.3604C3.98786 18.648 3.88 21.307 3.88 22.4804C4.31659 22.8004 6.04112 23.5684 9.44652 24.0804C12.8519 24.5924 16.9777 23.6537 18.6149 23.1204C17.96 21.7337 16.7157 18.7044 15.6679 17.6804C14.3581 16.4004 12.6035 15.4402 10.1014 14.1604Z" fill="white" fill-opacity="0.2"/>
<path d="M14.3581 7.12L15.3404 2C17.196 3.38667 21.1689 6.544 22.2167 8.08C23.2645 9.616 23.2726 11.7067 23.1635 12.56C20.8322 11.6 19.358 10.672 18.5721 10.16C17.7863 9.648 15.1222 7.76 14.3581 7.12Z" fill="#7445B8"/>
<path d="M14.3581 7.12L15.3404 2C17.196 3.38667 21.1689 6.544 22.2167 8.08C23.2645 9.616 23.2726 11.7067 23.1635 12.56C20.8322 11.6 19.358 10.672 18.5721 10.16C17.7863 9.648 15.1222 7.76 14.3581 7.12Z" fill="white" fill-opacity="0.2"/>
<path d="M16.3228 16.08C17.6325 16.848 19.4512 18.16 20.8678 18.8C21.7861 18.32 22.2452 17.36 22.7043 16.4C23.1372 15.4949 23.1635 14.48 23.1635 14C21.6354 13.36 19.0313 12.08 16.9777 10.64C15.7305 9.76548 13.8124 8.4 13.0484 7.76C11.3408 8.08 10.1669 8.528 9.11905 9.04C8.07124 9.552 6.63475 10.64 5.71649 11.6C5.93479 11.6 6.56501 11.664 8.13673 11.92C10.1014 12.24 14.6856 15.12 16.3228 16.08Z" fill="#7445B8"/>
<path d="M16.3228 16.08C17.6325 16.848 19.4512 18.16 20.8678 18.8C21.7861 18.32 22.2452 17.36 22.7043 16.4C23.1372 15.4949 23.1635 14.48 23.1635 14C21.6354 13.36 19.0313 12.08 16.9777 10.64C15.7305 9.76548 13.8124 8.4 13.0484 7.76C11.3408 8.08 10.1669 8.528 9.11905 9.04C8.07124 9.552 6.63475 10.64 5.71649 11.6C5.93479 11.6 6.56501 11.664 8.13673 11.92C10.1014 12.24 14.6856 15.12 16.3228 16.08Z" fill="white" fill-opacity="0.2"/>
<path d="M15.9954 36.8799H12.7209L10.7563 41.0399C10.9746 41.1465 11.8696 41.4879 13.7033 41.9999C15.9954 42.6399 19.9247 48.3999 26.4735 49.6799C31.7126 50.7039 33.8955 48.3999 34.3321 47.1199L34.987 44.5599C31.887 43.76 26.3746 42.128 24.5409 41.36C22.7072 40.592 18.1131 38.48 15.9954 36.8799Z" fill="#7445B8"/>
<path d="M15.9954 36.8799H12.7209L10.7563 41.0399C10.9746 41.1465 11.8696 41.4879 13.7033 41.9999C15.9954 42.6399 19.9247 48.3999 26.4735 49.6799C31.7126 50.7039 33.8955 48.3999 34.3321 47.1199L34.987 44.5599C31.887 43.76 26.3746 42.128 24.5409 41.36C22.7072 40.592 18.1131 38.48 15.9954 36.8799Z" fill="white" fill-opacity="0.8"/>
<path d="M39.5712 40.7199C39.0473 41.7439 37.7015 43.4933 36.9374 44.24C37.9198 45.52 38.3148 47.12 40.2261 46.4799C42.1888 45.8225 42.1907 41.0399 42.8456 39.7599L41.2084 36.8799C40.8809 37.7332 40.0951 39.6959 39.5712 40.7199Z" fill="#7445B8"/>
<path d="M39.5712 40.7199C39.0473 41.7439 37.7015 43.4933 36.9374 44.24C37.9198 45.52 38.3148 47.12 40.2261 46.4799C42.1888 45.8225 42.1907 41.0399 42.8456 39.7599L41.2084 36.8799C40.8809 37.7332 40.0951 39.6959 39.5712 40.7199Z" fill="white" fill-opacity="0.8"/>
<path d="M35.9693 9.67959C34.9215 9.93559 34.1858 10.1599 33.64 10.1599C34.2949 11.7599 35.1179 15.4396 35.6419 17.9996C36.2967 21.1996 36.9516 27.9196 36.9516 33.0396C36.9516 37.1356 36.7333 40.9329 36.6242 42.3196C37.3882 41.3596 38.7092 39.2797 39.2331 37.9997C39.757 36.7197 40.6626 34.3196 40.8809 33.3596C40.9901 31.4396 41.2084 27.1516 41.2084 25.3596C41.2084 23.1196 41.2084 18.9596 40.5535 14.7996C40.0296 11.4716 38.8071 8.93292 38.2614 8.07959C37.9339 8.50626 37.0171 9.42359 35.9693 9.67959Z" fill="#7445B8"/>
<path d="M35.9693 9.67959C34.9215 9.93559 34.1858 10.1599 33.64 10.1599C34.2949 11.7599 35.1179 15.4396 35.6419 17.9996C36.2967 21.1996 36.9516 27.9196 36.9516 33.0396C36.9516 37.1356 36.7333 40.9329 36.6242 42.3196C37.3882 41.3596 38.7092 39.2797 39.2331 37.9997C39.757 36.7197 40.6626 34.3196 40.8809 33.3596C40.9901 31.4396 41.2084 27.1516 41.2084 25.3596C41.2084 23.1196 41.2084 18.9596 40.5535 14.7996C40.0296 11.4716 38.8071 8.93292 38.2614 8.07959C37.9339 8.50626 37.0171 9.42359 35.9693 9.67959Z" fill="white" fill-opacity="0.2"/>
<path d="M12.7209 25.6799C8.01218 26.0001 4.97148 24.8267 3.88 24.0801C3.88 25.3601 4.46938 28.1759 5.51719 30.4799C6.82696 33.3599 8.79161 35.2799 12.7209 35.5999C15.8644 35.8559 17.96 35.2799 18.6149 34.9599L18.5722 24.5601C18.2447 24.8801 16.9105 25.3951 12.7209 25.6799Z" fill="#7445B8"/>
<path d="M12.7209 25.6799C8.01218 26.0001 4.97148 24.8267 3.88 24.0801C3.88 25.3601 4.46938 28.1759 5.51719 30.4799C6.82696 33.3599 8.79161 35.2799 12.7209 35.5999C15.8644 35.8559 17.96 35.2799 18.6149 34.9599L18.5722 24.5601C18.2447 24.8801 16.9105 25.3951 12.7209 25.6799Z" fill="white" fill-opacity="0.2"/>
<path d="M44.2835 21.1998C43.1506 21.4766 42.5561 20.8265 42.447 20.7198L42.5181 30.7999C42.8456 30.7999 44.2835 30.7998 45.2017 29.3598C45.8365 28.3644 46.12 26.2131 46.12 25.9998V24.0798V19.2798C45.9017 19.5998 45.3313 20.9438 44.2835 21.1998Z" fill="#7445B8"/>
<path d="M44.2835 21.1998C43.1506 21.4766 42.5561 20.8265 42.447 20.7198L42.5181 30.7999C42.8456 30.7999 44.2835 30.7998 45.2017 29.3598C45.8365 28.3644 46.12 26.2131 46.12 25.9998V24.0798V19.2798C45.9017 19.5998 45.3313 20.9438 44.2835 21.1998Z" fill="white" fill-opacity="0.2"/>
<path d="M34.3321 18.9604C33.8082 16.4004 32.964 12.08 32.2 10.16C29.4879 10.32 26.9369 10.0004 24.1814 9.36035C24.5088 10.427 24.9673 13.2004 24.1814 15.7604C23.1991 18.9604 21.5619 20.2404 20.907 20.2404C20.3831 20.2404 18.2874 18.747 17.3051 18.0003L19.9246 22.8004C20.0338 26.9604 19.9495 35.1203 19.9495 35.6003C19.9495 36.35 18.0691 36.5604 17.6326 36.5604C24.2183 39.7954 28.1029 41.2088 35.3144 43.2803C35.4236 39.9737 35.6419 32.9123 35.6419 31.1203C35.6419 28.8804 34.987 22.1603 34.3321 18.9604Z" fill="#7445B8"/>
<path d="M34.3321 18.9604C33.8082 16.4004 32.964 12.08 32.2 10.16C29.4879 10.32 26.9369 10.0004 24.1814 9.36035C24.5088 10.427 24.9673 13.2004 24.1814 15.7604C23.1991 18.9604 21.5619 20.2404 20.907 20.2404C20.3831 20.2404 18.2874 18.747 17.3051 18.0003L19.9246 22.8004C20.0338 26.9604 19.9495 35.1203 19.9495 35.6003C19.9495 36.35 18.0691 36.5604 17.6326 36.5604C24.2183 39.7954 28.1029 41.2088 35.3144 43.2803C35.4236 39.9737 35.6419 32.9123 35.6419 31.1203C35.6419 28.8804 34.987 22.1603 34.3321 18.9604Z" fill="white" fill-opacity="0.2"/>
<path d="M42.1907 5.83987C40.8809 5.07187 40.36 5.3601 40.36 5.3601L41.2084 11.9199C41.7541 11.5999 42.6044 11.1955 43.5004 10.3199C44.495 9.3479 44.5243 9.14661 44.7426 8.71995C44.4152 8.18661 43.5004 6.60787 42.1907 5.83987Z" fill="#7445B8"/>
<path d="M42.1907 5.83987C40.8809 5.07187 40.36 5.3601 40.36 5.3601L41.2084 11.9199C41.7541 11.5999 42.6044 11.1955 43.5004 10.3199C44.495 9.3479 44.5243 9.14661 44.7426 8.71995C44.4152 8.18661 43.5004 6.60787 42.1907 5.83987Z" fill="white" fill-opacity="0.2"/>
<path d="M36.52 5.36006C35.8537 5.02708 34.6417 4.60256 34.6417 4.60256C34.6417 4.60256 35.1009 4.87982 35.1009 5.35982C35.1009 5.35982 35.0773 5.69794 34.6417 5.83982C33.6594 6.15982 30.7302 6.15975 27.4558 5.83975C24.8363 5.58375 21.3435 4.66641 19.9246 4.23975C20.5795 4.66641 21.6928 5.64775 22.2167 6.15975C22.7406 6.67175 23.4173 7.65308 23.5265 8.07975C27.7548 8.71982 30.9687 8.71982 33.3497 8.71975C35.3144 8.71968 37.6065 7.75975 37.6065 6.79975C37.6065 6.32006 37.48 5.83982 36.52 5.36006Z" fill="#7445B8"/>
<path d="M36.52 5.36006C35.8537 5.02708 34.6417 4.60256 34.6417 4.60256C34.6417 4.60256 35.1009 4.87982 35.1009 5.35982C35.1009 5.35982 35.0773 5.69794 34.6417 5.83982C33.6594 6.15982 30.7302 6.15975 27.4558 5.83975C24.8363 5.58375 21.3435 4.66641 19.9246 4.23975C20.5795 4.66641 21.6928 5.64775 22.2167 6.15975C22.7406 6.67175 23.4173 7.65308 23.5265 8.07975C27.7548 8.71982 30.9687 8.71982 33.3497 8.71975C35.3144 8.71968 37.6065 7.75975 37.6065 6.79975C37.6065 6.32006 37.48 5.83982 36.52 5.36006Z" fill="white" fill-opacity="0.8"/>
<path d="M35.08 0.0800781L34.12 3.44014C35.56 3.92008 35.56 3.92008 36.52 4.40008C37.48 4.88008 38.44 5.36008 39.88 9.20008C39.4 5.84027 39.88 3.92008 37.48 2.00008L35.08 0.0800781Z" fill="#7445B8"/>
<path d="M35.08 0.0800781L34.12 3.44014C35.56 3.92008 35.56 3.92008 36.52 4.40008C37.48 4.88008 38.44 5.36008 39.88 9.20008C39.4 5.84027 39.88 3.92008 37.48 2.00008L35.08 0.0800781Z" fill="white" fill-opacity="0.2"/>
</svg>
