<svg width="50" height="50" viewBox="0 0 50 50" fill="none" xmlns="http://www.w3.org/2000/svg">
<ellipse cx="40.5" cy="33" rx="6.5" ry="1" fill="#7445B8"/>
<ellipse cx="40.5" cy="33" rx="6.5" ry="1" fill="black" fill-opacity="0.2"/>
<path d="M19.6685 0.956357C14.364 3.08946 12.7021 8.46061 12.5 11C13.5321 11.4085 14.6323 11.3802 15.5 11C15.5 9.37479 16.7586 4.79592 20.8809 3.08946C26.0338 0.956383 29.3681 4.30837 31.793 7.66037C35.761 13.1455 43.0081 9.48873 46.0392 14.0596C49.047 18.5952 43.3112 29.3976 40.2801 35.0858L41.1894 36C44.8268 30.8196 51.3134 18.9962 48.161 13.1455C44.2206 5.83201 38.594 11.6217 33.9147 5.83201C29.9743 0.956405 25.7307 -1.48145 19.6685 0.956357Z" fill="#7445B8"/>
<path d="M19.6685 0.956357C14.364 3.08946 12.7021 8.46061 12.5 11C13.5321 11.4085 14.6323 11.3802 15.5 11C15.5 9.37479 16.7586 4.79592 20.8809 3.08946C26.0338 0.956383 29.3681 4.30837 31.793 7.66037C35.761 13.1455 43.0081 9.48873 46.0392 14.0596C49.047 18.5952 43.3112 29.3976 40.2801 35.0858L41.1894 36C44.8268 30.8196 51.3134 18.9962 48.161 13.1455C44.2206 5.83201 38.594 11.6217 33.9147 5.83201C29.9743 0.956405 25.7307 -1.48145 19.6685 0.956357Z" fill="white" fill-opacity="0.8"/>
<path d="M47 33C44.0019 34.3273 37.0015 34.338 34 33V48.5C38.8014 50.4581 42.3046 50.4588 47 48.5V33Z" fill="#7445B8"/>
<path d="M47 33C44.0019 34.3273 37.0015 34.338 34 33V48.5C38.8014 50.4581 42.3046 50.4588 47 48.5V33Z" fill="white" fill-opacity="0.2"/>
<path d="M47 48.5V37C46.8333 39.8333 46 45.8 44 47C40.7513 48.9492 38 49.5 36 49.2238C39.8346 50.4177 42.9805 50.1768 47 48.5Z" fill="#7445B8"/>
<path d="M1 39.1945C1 35.9734 2.54762 33.8259 3.47619 33H24.5238C25.7619 34.2389 27 35.7875 27 39.1945C27 44.1598 25.4876 47.0322 22 48.4864C17.0476 50.5512 10.3333 50.4573 6 48.4864C2.59524 46.9377 1 43.221 1 39.1945Z" fill="#7445B8"/>
<path d="M1 39.1945C1 35.9734 2.54762 33.8259 3.47619 33H24.5238C25.7619 34.2389 27 35.7875 27 39.1945C27 44.1598 25.4876 47.0322 22 48.4864C17.0476 50.5512 10.3333 50.4573 6 48.4864C2.59524 46.9377 1 43.221 1 39.1945Z" fill="white" fill-opacity="0.2"/>
<path d="M22 48.4863C17.0476 50.5512 10.3333 50.4573 6 48.4863C12.5 49 18.4 47.5 22 45.5C25.6 43.5 26.8333 40.463 27 39.1945C27 44.1598 25.4876 47.0322 22 48.4863Z" fill="#7445B8"/>
<path d="M2 35L2.5 34C11.9987 35.8403 16.2991 35.879 25.5 34L26 35C23.5 36 19.2364 37.3 14 37.3C8.76364 37.3 4 36.5 2 35Z" fill="#7445B8"/>
<path d="M14 29.5833C12.1268 29.5833 9.47561 29.1944 8.5 29C5.39909 30.5742 4.21707 31.7844 2 34.25C4 36 9.78537 36.5 14 36.5C18.2146 36.5 24 35.5 26 34.25C23.7853 31.8553 22.3333 30.6848 19.5 29C18.5244 29.1944 15.8732 29.5833 14 29.5833Z" fill="#7445B8"/>
<path d="M14 29.5833C12.1268 29.5833 9.47561 29.1944 8.5 29C5.39909 30.5742 4.21707 31.7844 2 34.25C4 36 9.78537 36.5 14 36.5C18.2146 36.5 24 35.5 26 34.25C23.7853 31.8553 22.3333 30.6848 19.5 29C18.5244 29.1944 15.8732 29.5833 14 29.5833Z" fill="white" fill-opacity="0.2"/>
<path d="M14 36.5C18.2146 36.5 24 35.5 26 34.25C24.8994 33.0598 23.9871 32.1721 23 31.3733C23.1667 31.9155 22.6573 33.1224 19.5 34.25C16 35.5 11.5 36.0045 7 36.0045C9.26493 36.3685 11.8389 36.5 14 36.5Z" fill="#7445B8"/>
<path d="M10.1566 15.5238C11.857 14.2843 12.5 11.9048 12.5 11C13.0224 11.2187 15.022 11.2322 15.5 11C15.5 11.9048 15.9562 13.9858 17.84 15.5238C20.7952 17.9365 23.4548 20.0476 21.0907 23.3651C19.0221 26.2678 19.5 27.4868 19.5 29.0952C15.9887 29.9263 12.6723 29.9355 8.5 29.0952C8.5 27.8889 9.08824 26.0872 6.90593 23.3651C4.2463 20.0476 8.088 17.0317 10.1566 15.5238Z" fill="#7445B8"/>
<path d="M10.1566 15.5238C11.857 14.2843 12.5 11.9048 12.5 11C13.0224 11.2187 15.022 11.2322 15.5 11C15.5 11.9048 15.9562 13.9858 17.84 15.5238C20.7952 17.9365 23.4548 20.0476 21.0907 23.3651C19.0221 26.2678 19.5 27.4868 19.5 29.0952C15.9887 29.9263 12.6723 29.9355 8.5 29.0952C8.5 27.8889 9.08824 26.0872 6.90593 23.3651C4.2463 20.0476 8.088 17.0317 10.1566 15.5238Z" fill="white" fill-opacity="0.2"/>
<path d="M12.5 11C12.5 11 12.9091 11.5 14 11.5C15.0909 11.5 15.5 11 15.5 11" stroke="#7445B8" stroke-linecap="round"/>
<path d="M12.5 11C12.5 11 12.9091 11.5 14 11.5C15.0909 11.5 15.5 11 15.5 11" stroke="white" stroke-opacity="0.6" stroke-linecap="round"/>
<path d="M19.5 29.0952C15.9887 29.9263 12.6723 29.9355 8.5 29.0952C8.5 28.3304 8.88306 27.3263 8.5 26C11.5489 25.6667 16.7623 25.1189 19 24C20.6 23.2 21.8326 21.6667 21.9989 21C21.9793 21.7247 21.7041 22.5043 21.0907 23.3651C19.0221 26.2678 19.5 27.4868 19.5 29.0952Z" fill="#7445B8"/>
<path d="M8.5 27V26C12.8536 26.9201 15.2829 26.9395 19.5 26V27C18.6667 27.1667 16.4 27.7 14 27.7C11.6 27.7 9.33333 27.1667 8.5 27Z" fill="#7445B8"/>
<path d="M8.5 26C8.5 26 11 26.7 14 26.7C17 26.7 19.5 26 19.5 26" stroke="#7445B8" stroke-linecap="round"/>
<path d="M8.5 26C8.5 26 11 26.7 14 26.7C17 26.7 19.5 26 19.5 26" stroke="white" stroke-opacity="0.6" stroke-linecap="round"/>
<circle cx="23" cy="34" r="1" fill="#7445B8"/>
<circle cx="23" cy="34" r="1" fill="white" fill-opacity="0.6"/>
<circle cx="14" cy="35" r="1" fill="#7445B8"/>
<circle cx="14" cy="35" r="1" fill="white" fill-opacity="0.95"/>
<circle cx="5" cy="34" r="1" fill="#7445B8"/>
<circle cx="5" cy="34" r="1" fill="white" fill-opacity="0.95"/>
</svg>
