<svg width="50" height="50" viewBox="0 0 50 50" fill="none" xmlns="http://www.w3.org/2000/svg">
<path d="M0 24H50V38C50 40.2091 48.2091 42 46 42H4C1.79086 42 0 40.2091 0 38V24Z" fill="#7445B8"/>
<path d="M0 24H50V38C50 40.2091 48.2091 42 46 42H4C1.79086 42 0 40.2091 0 38V24Z" fill="white" fill-opacity="0.8"/>
<path d="M50 24H0L33.5 7C36 7 40.8941 9.48142 44.5 12.5C48.5 15.8485 50 21 50 24Z" fill="#7445B8"/>
<circle cx="6.5" cy="34.5" r="2.5" fill="#7445B8"/>
<circle cx="14.5" cy="25.5" r="1.5" fill="#7445B8"/>
<circle cx="46.5" cy="38.5" r="1.5" fill="#7445B8"/>
<circle cx="28.5" cy="24.5" r="2.5" fill="#7445B8"/>
<circle cx="33.5" cy="39.5" r="2.5" fill="#7445B8"/>
<circle cx="22" cy="32" r="4" fill="#7445B8"/>
<circle cx="42" cy="30" r="3" fill="#7445B8"/>
</svg>
