<svg width="50" height="50" viewBox="0 0 50 50" fill="none" xmlns="http://www.w3.org/2000/svg">
<g clip-path="url(#clip0_6298_43794)">
<path d="M37.4721 15.7357C35.0979 15.7357 -1.10984 22.8585 0.670859 25.2328L10.7615 35.9171L49.3645 30.6237C49.7602 30.228 49.3645 26.6154 48.7919 24.3249C48.0578 21.3887 39.2529 15.7357 37.4721 15.7357Z" fill="#FAA21E"/>
<path d="M37.4721 15.7357C35.0979 15.7357 -1.10984 22.8585 0.670859 25.2328L10.7615 35.9171L49.3645 30.6237C49.7602 30.228 49.3645 26.6154 48.7919 24.3249C48.0578 21.3887 39.2529 15.7357 37.4721 15.7357Z" fill="white" fill-opacity="0.6"/>
<path d="M0.692256 39.5C-0.494883 37.7193 0.119638 25.4701 0.692246 24.8975C3.06652 24.8975 8.70885 32.3415 10.7616 34.7299C12.696 36.9807 12.1865 48.9473 10.9993 48.9473C9.81219 48.9473 1.87939 41.2807 0.692256 39.5Z" fill="#FAA21E"/>
<path d="M0.692256 39.5C-0.494883 37.7193 0.119638 25.4701 0.692246 24.8975C3.06652 24.8975 8.70885 32.3415 10.7616 34.7299C12.696 36.9807 12.1865 48.9473 10.9993 48.9473C9.81219 48.9473 1.87939 41.2807 0.692256 39.5Z" fill="white" fill-opacity="0.4"/>
<path d="M47.6465 25.4702C46.4593 25.4702 12.1864 34.0175 10.9993 35.2046C9.81216 36.3917 9.88685 48.0501 10.9993 48.9474C12.1117 49.8446 48.4593 38.9994 49.3643 37.4951C50.2693 35.9908 49.745 30.2266 49.5935 28.3332C49.3645 25.4702 48.8336 25.4702 47.6465 25.4702Z" fill="#FAA21E"/>
<path d="M47.6465 25.4702C46.4593 25.4702 12.1864 34.0175 10.9993 35.2046C9.81216 36.3917 9.88685 48.0501 10.9993 48.9474C12.1117 49.8446 48.4593 38.9994 49.3643 37.4951C50.2693 35.9908 49.745 30.2266 49.5935 28.3332C49.3645 25.4702 48.8336 25.4702 47.6465 25.4702Z" fill="white" fill-opacity="0.2"/>
<path d="M22.5 20C16.6666 21.1667 3.5 24 4.49997 25C5.50002 27 8.99997 29.5 10.5 31C9.50002 29 8.09997 27.2 8.49997 26C8.89997 24.8 18 21.5 22.5 20Z" fill="#FEFEFE"/>
<path d="M47.5 24C47.9 23.6 43.6667 20.5 41.5 19C42.6446 19.8333 44.7471 21.8 44 23C43.2529 24.2 34.6887 27.1667 30.5 28.5C36 27.1667 47.1 24.4 47.5 24Z" fill="#FEFEFE"/>
<circle cx="2.5" cy="2.5" r="2.5" transform="matrix(-1 0 0 1 23 11)" fill="#FEFEFE" fill-opacity="0.15"/>
<circle cx="2.00002" cy="2.00002" r="2.00002" transform="matrix(-1 0 0 1 31 7)" fill="#FEFEFE" fill-opacity="0.15"/>
<circle cx="1.50003" cy="1.50003" r="1.50003" transform="matrix(-1 0 0 1 26 1)" fill="#FEFEFE" fill-opacity="0.15"/>
<path d="M17 13.5C20.5 13.1786 20.2083 13.1786 20.5 9C20.7917 13.1786 20.5 13.1786 24 13.5C20.5 13.8214 20.7917 13.8214 20.5 18C20.2083 13.8214 20.5 13.8214 17 13.5Z" fill="#FEFEFE"/>
<path d="M26 9.00003C29 8.72452 28.75 8.72452 29 5.14288C29.25 8.72452 29 8.72452 32 9.00003C29 9.27554 29.25 9.27554 29 12.8572C28.75 9.27554 29 9.27554 26 9.00003Z" fill="#FEFEFE"/>
<path d="M22.5555 2.5C24.5 2.32143 24.3379 2.32143 24.5 0C24.662 2.32143 24.5 2.32143 26.4444 2.5C24.5 2.67857 24.662 2.67857 24.5 5C24.3379 2.67857 24.5 2.67857 22.5555 2.5Z" fill="#FEFEFE"/>
</g>
<defs>
<clipPath id="clip0_6298_43794">
<rect width="50" height="50" fill="white" transform="matrix(-1 0 0 1 50 0)"/>
</clipPath>
</defs>
</svg>
