<svg width="50" height="50" viewBox="0 0 50 50" fill="none" xmlns="http://www.w3.org/2000/svg">
<g clip-path="url(#clip0_6030_11625)">
<path d="M22.9148 44.3352C17.4664 44.3352 13.9481 42.3426 13.45 41.3463C12.9518 40.35 12.9518 36.7936 12.9518 36.7936H32.8778C32.8778 38.9191 33.0013 40.3459 32.3796 41.3463C31.389 42.9404 27.8679 44.3352 22.9148 44.3352Z" fill="#898989"/>
<path d="M22.9148 44.3352C17.4664 44.3352 13.9481 42.3426 13.45 41.3463C12.9518 40.35 12.9518 36.7936 12.9518 36.7936H32.8778C32.8778 38.9191 33.0013 40.3459 32.3796 41.3463C31.389 42.9404 27.8679 44.3352 22.9148 44.3352Z" fill="white" fill-opacity="0.6"/>
<path d="M40.2341 22.1313C39.4248 22.0953 38.2497 21.1691 38.732 19.4428C39.2142 17.7164 41.2956 16.4981 43.7233 16.6062C46.1511 16.7142 47.3068 18.0764 48.4819 19.0026C48.4431 19.8748 48.6925 23.3816 46.5335 26.3442C44.3746 29.3068 41.9827 30.4779 39.422 31.2712C37.7776 31.7807 37.3212 32.9256 37.2824 33.7978C37.2436 34.6699 38.0141 35.5781 38.8233 35.6141" stroke="#FEFEFE" stroke-width="2.49074" stroke-linecap="round"/>
<path d="M41.8444 11.0499H3.98517C5.60926 14.8394 6.69198 15.3808 7.7747 19.7117C8.31607 21.8771 7.77471 28.7639 8.85743 32.5535C10.2286 37.3525 13.0428 39.863 15.8951 41.2153C18.7355 42.5618 26.6024 42.5618 29.9706 41.2153C32.9017 40.0434 35.6795 37.4257 37.0083 32.5535C38.5424 26.9283 37.4452 22.9407 38.091 19.7117C38.6324 17.0049 39.679 15.3808 41.8444 11.0499Z" fill="#898989"/>
<path d="M41.8444 11.0499H3.98517C5.60926 14.8394 6.69198 15.3808 7.7747 19.7117C8.31607 21.8771 7.77471 28.7639 8.85743 32.5535C10.2286 37.3525 13.0428 39.863 15.8951 41.2153C18.7355 42.5618 26.6024 42.5618 29.9706 41.2153C32.9017 40.0434 35.6795 37.4257 37.0083 32.5535C38.5424 26.9283 37.4452 22.9407 38.091 19.7117C38.6324 17.0049 39.679 15.3808 41.8444 11.0499Z" fill="white" fill-opacity="0.95"/>
<path d="M41.8444 10.8454C41.8444 13.5337 33.5969 15.802 23.1424 15.802C12.6878 15.802 3.98517 13.5337 3.98517 10.8454C3.98517 8.15709 12.6878 5.97778 23.1424 5.97778C33.5969 5.97778 41.8444 8.15709 41.8444 10.8454Z" fill="#898989"/>
<path d="M41.8444 10.8454C41.8444 13.5337 33.5969 15.802 23.1424 15.802C12.6878 15.802 3.98517 13.5337 3.98517 10.8454C3.98517 8.15709 12.6878 5.97778 23.1424 5.97778C33.5969 5.97778 41.8444 8.15709 41.8444 10.8454Z" fill="white" fill-opacity="0.6"/>
<path d="M41.8444 10.8454C41.8444 13.5337 33.5969 15.802 23.1424 15.802C12.6878 15.802 3.98517 13.5337 3.98517 10.8454C3.98517 8.15709 12.6878 5.97778 23.1424 5.97778C33.5969 5.97778 41.8444 8.15709 41.8444 10.8454Z" stroke="#FEFEFE" stroke-width="1.49444"/>
<path d="M37 13.4304C37 13.0805 29.3513 11.9305 23 11.9305C16.6487 11.9305 9 13.0805 9 13.4304C9 13.7804 15 15.2305 23 15.2305C32 15.2305 37 13.7804 37 13.4304Z" fill="#FAA21E"/>
<path d="M37 13.4304C37 13.0805 29.3513 11.9305 23 11.9305C16.6487 11.9305 9 13.0805 9 13.4304C9 13.7804 15 15.2305 23 15.2305C32 15.2305 37 13.7804 37 13.4304Z" fill="white" fill-opacity="0.4"/>
<path d="M27.8 19.6862L32.6 28L27.8 36.3139L18.2 36.3139L13.4 28L18.2 19.6862L27.8 19.6862Z" stroke="#1D8CE0" stroke-width="0.417391"/>
<path d="M27.1506 20.9848L27.1004 20.8979L27 20.8979L19 20.8979L18.8996 20.8979L18.8494 20.9848L14.8494 27.913L14.7992 28L14.8494 28.0869L18.8494 35.0151L18.8996 35.1021L19 35.1021L27 35.1021L27.1004 35.1021L27.1506 35.0151L31.1506 28.0869L31.2008 28L31.1506 27.913L27.1506 20.9848Z" fill="#1D8CE0" stroke="#1D8CE0" stroke-width="0.347826"/>
<path d="M21.6677 28.395L21.6677 28.6433L21.8828 28.7675L23.9225 29.9451L24.1376 30.0693L24.3526 29.9451L26.3923 28.7675L26.6074 28.6433L26.6074 28.395L26.6074 26.0397L26.6074 25.7914L26.3923 25.6672L24.3526 24.4896L24.1376 24.3654L23.9225 24.4896L21.8828 25.6672L21.6677 25.7914L21.6677 26.0397L21.6677 28.395Z" stroke="#FEFEFE" stroke-width="0.86027"/>
<path d="M21.7258 28.5119L18.6663 30.2783" stroke="#FEFEFE" stroke-width="0.86027"/>
<circle cx="18.9652" cy="30.0348" r="0.706576" transform="rotate(-120 18.9652 30.0348)" fill="#FEFEFE"/>
</g>
<defs>
<clipPath id="clip0_6030_11625">
<rect width="50" height="50" fill="white"/>
</clipPath>
</defs>
</svg>
