<svg width="50" height="50" viewBox="0 0 50 50" fill="none" xmlns="http://www.w3.org/2000/svg">
<g clip-path="url(#clip0_6065_10147)">
<path d="M37 4.21539L49 25L37 45.7846L13 45.7846L1 25L13 4.21539L37 4.21539Z" stroke="#2FC4A7"/>
<path d="M35 7.67949L45 25L35 42.3205L15 42.3205L5.00001 25L15 7.67949L35 7.67949Z" fill="#2FC4A7"/>
<path d="M13 32L25 25" stroke="#546DDB" stroke-width="2"/>
<path d="M13 32L25 25" stroke="black" stroke-opacity="0.8" stroke-width="2"/>
<path d="M37 32L25 24.9752" stroke="#546DDB" stroke-width="2"/>
<path d="M37 32L25 24.9752" stroke="black" stroke-opacity="0.8" stroke-width="2"/>
<path d="M25 11V24.8269" stroke="#546DDB" stroke-width="2"/>
<path d="M25 11V24.8269" stroke="black" stroke-opacity="0.8" stroke-width="2"/>
<ellipse cx="13" cy="31.95" rx="2" ry="2" transform="rotate(-90 13 31.95)" fill="#546DDB"/>
<ellipse cx="13" cy="31.95" rx="2" ry="2" transform="rotate(-90 13 31.95)" fill="black" fill-opacity="0.8"/>
<ellipse cx="25.0079" cy="11.1077" rx="2" ry="2" transform="rotate(-150 25.0079 11.1077)" fill="#546DDB"/>
<ellipse cx="25.0079" cy="11.1077" rx="2" ry="2" transform="rotate(-150 25.0079 11.1077)" fill="black" fill-opacity="0.8"/>
<ellipse cx="37" cy="31.95" rx="2" ry="2" transform="rotate(-90 37 31.95)" fill="#546DDB"/>
<ellipse cx="37" cy="31.95" rx="2" ry="2" transform="rotate(-90 37 31.95)" fill="black" fill-opacity="0.8"/>
<path d="M19.3448 28.1852L19.3448 28.7626L19.8448 29.0512L24.6079 31.8013L25.1079 32.0899L25.6079 31.8013L30.3711 29.0513L30.8711 28.7626L30.8711 28.1852L30.8711 22.6852L30.8711 22.1079L30.3711 21.8192L25.6079 19.0692L25.1079 18.7805L24.6079 19.0692L19.8448 21.8192L19.3448 22.1079L19.3448 22.6852L19.3448 28.1852Z" fill="#2FC4A7"/>
<path d="M19.3448 28.1852L19.3448 28.7626L19.8448 29.0512L24.6079 31.8013L25.1079 32.0899L25.6079 31.8013L30.3711 29.0513L30.8711 28.7626L30.8711 28.1852L30.8711 22.6852L30.8711 22.1079L30.3711 21.8192L25.6079 19.0692L25.1079 18.7805L24.6079 19.0692L19.8448 21.8192L19.3448 22.1079L19.3448 22.6852L19.3448 28.1852Z" stroke="#546DDB" stroke-width="2"/>
<path d="M19.3448 28.1852L19.3448 28.7626L19.8448 29.0512L24.6079 31.8013L25.1079 32.0899L25.6079 31.8013L30.3711 29.0513L30.8711 28.7626L30.8711 28.1852L30.8711 22.6852L30.8711 22.1079L30.3711 21.8192L25.6079 19.0692L25.1079 18.7805L24.6079 19.0692L19.8448 21.8192L19.3448 22.1079L19.3448 22.6852L19.3448 28.1852Z" stroke="black" stroke-opacity="0.8" stroke-width="2"/>
</g>
<defs>
<clipPath id="clip0_6065_10147">
<rect width="50" height="50" fill="white" transform="matrix(-1 0 0 1 50 0)"/>
</clipPath>
</defs>
</svg>
