<svg width="50" height="50" viewBox="0 0 50 50" fill="none" xmlns="http://www.w3.org/2000/svg">
<g clip-path="url(#clip0_6065_10157)">
<path d="M37 4.21539L49 25L37 45.7846L13 45.7846L1 25L13 4.21539L37 4.21539Z" stroke="#FAA21E"/>
<path d="M35 7.67949L45 25L35 42.3205L15 42.3205L5.00001 25L15 7.67949L35 7.67949Z" fill="#FAA21E"/>
<path d="M25.5131 12.634L25.0131 12.3453L24.5131 12.634L19.75 15.384L19.25 15.6726V16.25V21.75V22.3274L19.75 22.616L24.5131 25.366L25.0131 25.6547L25.5131 25.366L30.2763 22.616L30.7763 22.3274V21.75V16.25V15.6726L30.2763 15.384L25.5131 12.634Z" stroke="#546DDB" stroke-width="2"/>
<path d="M25.5131 12.634L25.0131 12.3453L24.5131 12.634L19.75 15.384L19.25 15.6726V16.25V21.75V22.3274L19.75 22.616L24.5131 25.366L25.0131 25.6547L25.5131 25.366L30.2763 22.616L30.7763 22.3274V21.75V16.25V15.6726L30.2763 15.384L25.5131 12.634Z" stroke="black" stroke-opacity="0.8" stroke-width="2"/>
<path d="M19.5 22.6208L19 22.3321L18.5 22.6208L13.7369 25.3708L13.2369 25.6595V26.2368V31.7368V32.3142L13.7369 32.6028L18.5 35.3528L19 35.6415L19.5 35.3528L24.2631 32.6028L24.7631 32.3142V31.7368V26.2368V25.6595L24.2631 25.3708L19.5 22.6208Z" stroke="#546DDB" stroke-width="2"/>
<path d="M19.5 22.6208L19 22.3321L18.5 22.6208L13.7369 25.3708L13.2369 25.6595V26.2368V31.7368V32.3142L13.7369 32.6028L18.5 35.3528L19 35.6415L19.5 35.3528L24.2631 32.6028L24.7631 32.3142V31.7368V26.2368V25.6595L24.2631 25.3708L19.5 22.6208Z" stroke="black" stroke-opacity="0.8" stroke-width="2"/>
<path d="M31.5 22.6208L31 22.3321L30.5 22.6208L25.7369 25.3708L25.2369 25.6595V26.2368V31.7368V32.3142L25.7369 32.6028L30.5 35.3528L31 35.6415L31.5 35.3528L36.2631 32.6028L36.7631 32.3142V31.7368V26.2368V25.6595L36.2631 25.3708L31.5 22.6208Z" stroke="#546DDB" stroke-width="2"/>
<path d="M31.5 22.6208L31 22.3321L30.5 22.6208L25.7369 25.3708L25.2369 25.6595V26.2368V31.7368V32.3142L25.7369 32.6028L30.5 35.3528L31 35.6415L31.5 35.3528L36.2631 32.6028L36.7631 32.3142V31.7368V26.2368V25.6595L36.2631 25.3708L31.5 22.6208Z" stroke="black" stroke-opacity="0.8" stroke-width="2"/>
</g>
<defs>
<clipPath id="clip0_6065_10157">
<rect width="50" height="50" fill="white" transform="matrix(-1 0 0 1 50 0)"/>
</clipPath>
</defs>
</svg>
