<svg width="50" height="50" viewBox="0 0 50 50" fill="none" xmlns="http://www.w3.org/2000/svg">
<g clip-path="url(#clip0_6065_10163)">
<path d="M37 4.21539L49 25L37 45.7846L13 45.7846L1 25L13 4.21539L37 4.21539Z" stroke="#A272E4"/>
<path d="M35 7.67949L45 25L35 42.3205L15 42.3205L5.00001 25L15 7.67949L35 7.67949Z" fill="#A272E4"/>
<path d="M37.5 18L25.5 25" stroke="#546DDB" stroke-width="2"/>
<path d="M37.5 18L25.5 25" stroke="black" stroke-opacity="0.8" stroke-width="2"/>
<path d="M13.5 17.9503L25.5 24.9752" stroke="#546DDB" stroke-width="2"/>
<path d="M13.5 17.9503L25.5 24.9752" stroke="black" stroke-opacity="0.8" stroke-width="2"/>
<path d="M25.5 11V24.8269" stroke="#546DDB" stroke-width="2"/>
<path d="M25.5 11V24.8269" stroke="black" stroke-opacity="0.8" stroke-width="2"/>
<ellipse cx="13.5" cy="17.95" rx="2" ry="2" transform="rotate(-90 13.5 17.95)" fill="#546DDB"/>
<ellipse cx="13.5" cy="17.95" rx="2" ry="2" transform="rotate(-90 13.5 17.95)" fill="black" fill-opacity="0.8"/>
<ellipse cx="37.5" cy="17.95" rx="2" ry="2" transform="rotate(-90 37.5 17.95)" fill="#546DDB"/>
<ellipse cx="37.5" cy="17.95" rx="2" ry="2" transform="rotate(-90 37.5 17.95)" fill="black" fill-opacity="0.8"/>
<ellipse cx="25.4979" cy="11.1077" rx="2" ry="2" transform="rotate(-150 25.4979 11.1077)" fill="#546DDB"/>
<ellipse cx="25.4979" cy="11.1077" rx="2" ry="2" transform="rotate(-150 25.4979 11.1077)" fill="black" fill-opacity="0.8"/>
<path d="M30.7685 22.3301L30.7685 21.7849L30.2964 21.5123L25.9662 19.0123L25.4941 18.7397L25.0219 19.0123L20.6918 21.5123L20.2197 21.7849L20.2197 22.3301L20.2197 27.3301L20.2197 27.8753L20.6918 28.1479L25.0219 30.6479L25.4941 30.9205L25.9662 30.6479L30.2964 28.1479L30.7685 27.8753L30.7685 27.3301L30.7685 22.3301Z" fill="#A272E4"/>
<path d="M30.7685 22.3301L30.7685 21.7849L30.2964 21.5123L25.9662 19.0123L25.4941 18.7397L25.0219 19.0123L20.6918 21.5123L20.2197 21.7849L20.2197 22.3301L20.2197 27.3301L20.2197 27.8753L20.6918 28.1479L25.0219 30.6479L25.4941 30.9205L25.9662 30.6479L30.2964 28.1479L30.7685 27.8753L30.7685 27.3301L30.7685 22.3301Z" stroke="#546DDB" stroke-width="1.88861"/>
<path d="M30.7685 22.3301L30.7685 21.7849L30.2964 21.5123L25.9662 19.0123L25.4941 18.7397L25.0219 19.0123L20.6918 21.5123L20.2197 21.7849L20.2197 22.3301L20.2197 27.3301L20.2197 27.8753L20.6918 28.1479L25.0219 30.6479L25.4941 30.9205L25.9662 30.6479L30.2964 28.1479L30.7685 27.8753L30.7685 27.3301L30.7685 22.3301Z" stroke="black" stroke-opacity="0.8" stroke-width="1.88861"/>
<path d="M25.2685 31.3301L25.2685 30.7849L24.7964 30.5123L20.4662 28.0123L19.9941 27.7397L19.5219 28.0123L15.1918 30.5123L14.7197 30.7849L14.7197 31.3301L14.7197 36.3301L14.7197 36.8753L15.1918 37.1479L19.5219 39.6479L19.9941 39.9205L20.4662 39.6479L24.7964 37.1479L25.2685 36.8753L25.2685 36.3301L25.2685 31.3301Z" fill="#A272E4"/>
<path d="M25.2685 31.3301L25.2685 30.7849L24.7964 30.5123L20.4662 28.0123L19.9941 27.7397L19.5219 28.0123L15.1918 30.5123L14.7197 30.7849L14.7197 31.3301L14.7197 36.3301L14.7197 36.8753L15.1918 37.1479L19.5219 39.6479L19.9941 39.9205L20.4662 39.6479L24.7964 37.1479L25.2685 36.8753L25.2685 36.3301L25.2685 31.3301Z" stroke="#546DDB" stroke-width="1.88861"/>
<path d="M25.2685 31.3301L25.2685 30.7849L24.7964 30.5123L20.4662 28.0123L19.9941 27.7397L19.5219 28.0123L15.1918 30.5123L14.7197 30.7849L14.7197 31.3301L14.7197 36.3301L14.7197 36.8753L15.1918 37.1479L19.5219 39.6479L19.9941 39.9205L20.4662 39.6479L24.7964 37.1479L25.2685 36.8753L25.2685 36.3301L25.2685 31.3301Z" stroke="black" stroke-opacity="0.8" stroke-width="1.88861"/>
</g>
<defs>
<clipPath id="clip0_6065_10163">
<rect width="50" height="50" fill="white" transform="matrix(-1 0 0 1 50 0)"/>
</clipPath>
</defs>
</svg>
