<svg width="50" height="50" viewBox="0 0 50 50" fill="none" xmlns="http://www.w3.org/2000/svg">
<g clip-path="url(#clip0_6296_35179)">
<path fill-rule="evenodd" clip-rule="evenodd" d="M31.6567 6.0877C29.4356 5.74738 27.5458 5.60995 26.832 5.60995C26.7414 5.60995 26.6422 5.60974 26.5349 5.60951C24.2503 5.60466 18.289 5.59202 13.5666 7.43658C8.6008 9.37625 1.30297 15.2289 0.591505 24.9555C0.311873 28.7783 0.702742 32.7563 1.36188 36.1671C2.01896 39.5673 2.95412 42.4622 3.79694 44.1082L5.13209 43.4246C4.37881 41.9534 3.47784 39.2109 2.83463 35.8825C2.19349 32.5648 1.8199 28.7233 2.08751 25.0649C2.74413 16.0882 9.5016 10.6348 14.1124 8.83378C18.5579 7.09734 24.2647 7.10612 26.5608 7.10966L26.832 7.10995C27.4466 7.10995 29.1749 7.23356 31.2412 7.54188L31.6567 6.0877ZM33.7902 7.99539L34.2033 6.54954C34.5708 6.62752 34.9389 6.71105 35.3042 6.80037C37.0829 7.23531 38.8535 7.82092 40.1965 8.60554C41.5077 9.37159 42.631 10.4628 42.631 11.9709C42.631 13.3413 41.9011 14.5279 40.9313 15.5386C39.9576 16.5533 38.6564 17.48 37.3291 18.3356C36.672 18.7591 35.9971 19.1723 35.3418 19.5734L35.3418 19.5735L35.3106 19.5925C34.6426 20.0015 33.9965 20.3974 33.3949 20.7879C32.1725 21.5813 31.2169 22.3015 30.6752 22.9787C29.631 24.2839 28.7493 26.6113 28.8002 28.89C28.8501 31.1245 29.7832 33.22 32.2691 34.3248C32.3773 34.3729 32.4844 34.419 32.5904 34.4631C32.5703 32.1659 33.1479 29.9446 34.5096 28.2845C36.406 25.9727 38.5808 25.3128 40.389 25.8919C42.1458 26.4546 43.3395 28.1377 43.3395 30.0102C43.3395 31.796 42.3893 34.0831 40.4322 35.4947C38.9117 36.5914 36.8539 37.1136 34.291 36.5693C34.7305 39.0434 35.8688 41.4904 37.5132 43.2551C40.443 46.3992 44.5329 48.0102 50 48.0102V49.5102C44.217 49.5102 39.6911 47.7927 36.4158 44.2777C34.4235 42.1397 33.1274 39.1774 32.7243 36.2632C32.7214 36.242 32.7185 36.2207 32.7157 36.1995C32.7119 36.1713 32.7082 36.1431 32.7046 36.1149C32.3639 35.9931 32.0157 35.8537 31.6599 35.6955C28.5208 34.3004 27.3601 31.5913 27.3006 28.9235C27.242 26.2999 28.2353 23.6273 29.5039 22.0417C30.2121 21.1564 31.3554 20.3234 32.5783 19.5297C33.1993 19.1266 33.8625 18.7203 34.5274 18.3132L34.5518 18.2983L34.5518 18.2983C35.2118 17.8943 35.8741 17.4888 36.5164 17.0748C37.8244 16.2317 39.0023 15.3823 39.849 14.5001C40.6994 13.6138 41.131 12.7826 41.131 11.9709C41.131 11.2971 40.6297 10.5958 39.4398 9.9007C38.2818 9.22412 36.6749 8.67974 34.9479 8.25744C34.5637 8.16351 34.1765 8.07627 33.7902 7.99539ZM39.5547 34.2781C38.3459 35.15 36.5645 35.6407 34.1067 34.984C33.9862 32.7351 34.4943 30.6684 35.6694 29.2358C37.2949 27.2542 38.87 26.9805 39.9314 27.3204C41.0442 27.6768 41.8395 28.7654 41.8395 30.0102C41.8395 31.3416 41.0991 33.1642 39.5547 34.2781Z" fill="#546DDB"/>
<path fill-rule="evenodd" clip-rule="evenodd" d="M31.6567 6.0877C29.4356 5.74738 27.5458 5.60995 26.832 5.60995C26.7414 5.60995 26.6422 5.60974 26.5349 5.60951C24.2503 5.60466 18.289 5.59202 13.5666 7.43658C8.6008 9.37625 1.30297 15.2289 0.591505 24.9555C0.311873 28.7783 0.702742 32.7563 1.36188 36.1671C2.01896 39.5673 2.95412 42.4622 3.79694 44.1082L5.13209 43.4246C4.37881 41.9534 3.47784 39.2109 2.83463 35.8825C2.19349 32.5648 1.8199 28.7233 2.08751 25.0649C2.74413 16.0882 9.5016 10.6348 14.1124 8.83378C18.5579 7.09734 24.2647 7.10612 26.5608 7.10966L26.832 7.10995C27.4466 7.10995 29.1749 7.23356 31.2412 7.54188L31.6567 6.0877ZM33.7902 7.99539L34.2033 6.54954C34.5708 6.62752 34.9389 6.71105 35.3042 6.80037C37.0829 7.23531 38.8535 7.82092 40.1965 8.60554C41.5077 9.37159 42.631 10.4628 42.631 11.9709C42.631 13.3413 41.9011 14.5279 40.9313 15.5386C39.9576 16.5533 38.6564 17.48 37.3291 18.3356C36.672 18.7591 35.9971 19.1723 35.3418 19.5734L35.3418 19.5735L35.3106 19.5925C34.6426 20.0015 33.9965 20.3974 33.3949 20.7879C32.1725 21.5813 31.2169 22.3015 30.6752 22.9787C29.631 24.2839 28.7493 26.6113 28.8002 28.89C28.8501 31.1245 29.7832 33.22 32.2691 34.3248C32.3773 34.3729 32.4844 34.419 32.5904 34.4631C32.5703 32.1659 33.1479 29.9446 34.5096 28.2845C36.406 25.9727 38.5808 25.3128 40.389 25.8919C42.1458 26.4546 43.3395 28.1377 43.3395 30.0102C43.3395 31.796 42.3893 34.0831 40.4322 35.4947C38.9117 36.5914 36.8539 37.1136 34.291 36.5693C34.7305 39.0434 35.8688 41.4904 37.5132 43.2551C40.443 46.3992 44.5329 48.0102 50 48.0102V49.5102C44.217 49.5102 39.6911 47.7927 36.4158 44.2777C34.4235 42.1397 33.1274 39.1774 32.7243 36.2632C32.7214 36.242 32.7185 36.2207 32.7157 36.1995C32.7119 36.1713 32.7082 36.1431 32.7046 36.1149C32.3639 35.9931 32.0157 35.8537 31.6599 35.6955C28.5208 34.3004 27.3601 31.5913 27.3006 28.9235C27.242 26.2999 28.2353 23.6273 29.5039 22.0417C30.2121 21.1564 31.3554 20.3234 32.5783 19.5297C33.1993 19.1266 33.8625 18.7203 34.5274 18.3132L34.5518 18.2983L34.5518 18.2983C35.2118 17.8943 35.8741 17.4888 36.5164 17.0748C37.8244 16.2317 39.0023 15.3823 39.849 14.5001C40.6994 13.6138 41.131 12.7826 41.131 11.9709C41.131 11.2971 40.6297 10.5958 39.4398 9.9007C38.2818 9.22412 36.6749 8.67974 34.9479 8.25744C34.5637 8.16351 34.1765 8.07627 33.7902 7.99539ZM39.5547 34.2781C38.3459 35.15 36.5645 35.6407 34.1067 34.984C33.9862 32.7351 34.4943 30.6684 35.6694 29.2358C37.2949 27.2542 38.87 26.9805 39.9314 27.3204C41.0442 27.6768 41.8395 28.7654 41.8395 30.0102C41.8395 31.3416 41.0991 33.1642 39.5547 34.2781Z" fill="white" fill-opacity="0.6"/>
<path fill-rule="evenodd" clip-rule="evenodd" d="M23.8395 10.6351C23.0808 13.417 21.3895 18.447 19.4423 24.2382C16.5772 32.7592 13.1579 42.9284 11.3395 50.0102C15.4558 43.0125 20.6565 31.9482 24.6778 23.3931C26.7622 18.9585 28.5298 15.1982 29.6651 13.0279C33.5798 5.54444 33.592 0.700382 30.9741 0.0515688C29.5044 -0.312672 27.9219 1.28709 26.5438 3.76007H28.53C29.0714 3.18307 29.623 2.9019 30.0895 3.13515C31.3395 3.76015 30.7145 6.88517 29.4645 9.38517C28.5806 11.1529 25.0895 17.5102 24.4645 17.5102C23.9623 17.008 25.0742 12.8741 25.8547 9.97202C25.9724 9.53448 26.0826 9.12494 26.1785 8.76007H24.4047C24.2002 9.37861 24.0109 10.0065 23.8395 10.6351Z" fill="#546DDB"/>
<path d="M24.2151 20.6314C23.9791 19.9921 24.2688 18.9444 24.2376 18.2488C23.7413 18.7371 23.3925 19.625 22.6325 20.0097C21.9527 20.3538 21.2287 20.4832 20.3212 20.4683C20.9962 21.0751 21.4665 21.7381 21.7025 22.3774C21.9385 23.0167 21.7367 24.0989 21.68 24.7599C22.1271 24.1384 22.6053 23.3431 23.285 22.999C24.0451 22.6143 24.6889 22.5256 25.5964 22.5404C25.1851 22.0373 24.5101 21.4305 24.2151 20.6314Z" fill="#FAA21E"/>
<path d="M24.2151 20.6314C23.9791 19.9921 24.2688 18.9444 24.2376 18.2488C23.7413 18.7371 23.3925 19.625 22.6325 20.0097C21.9527 20.3538 21.2287 20.4832 20.3212 20.4683C20.9962 21.0751 21.4665 21.7381 21.7025 22.3774C21.9385 23.0167 21.7367 24.0989 21.68 24.7599C22.1271 24.1384 22.6053 23.3431 23.285 22.999C24.0451 22.6143 24.6889 22.5256 25.5964 22.5404C25.1851 22.0373 24.5101 21.4305 24.2151 20.6314Z" fill="white" fill-opacity="0.2"/>
</g>
<defs>
<clipPath id="clip0_6296_35179">
<rect width="50" height="50" fill="white"/>
</clipPath>
</defs>
</svg>
