<svg width="51" height="51" viewBox="0 0 51 51" fill="none" xmlns="http://www.w3.org/2000/svg">
<g clip-path="url(#clip0_6296_35122)">
<path d="M4.81177 35.8795L4.7945 35.8863L4.77779 35.8943C4.01458 36.2603 3.24676 36.1757 2.59676 35.888C1.9287 35.5922 1.44721 35.1086 1.27801 34.784C1.10963 34.461 0.99738 33.8087 1.14918 33.1292C1.29461 32.4782 1.67021 31.8525 2.41559 31.4865L16.5514 26.4019L16.9316 31.1432L4.81177 35.8795Z" fill="#546DDB"/>
<path d="M4.81177 35.8795L4.7945 35.8863L4.77779 35.8943C4.01458 36.2603 3.24676 36.1757 2.59676 35.888C1.9287 35.5922 1.44721 35.1086 1.27801 34.784C1.10963 34.461 0.99738 33.8087 1.14918 33.1292C1.29461 32.4782 1.67021 31.8525 2.41559 31.4865L16.5514 26.4019L16.9316 31.1432L4.81177 35.8795Z" fill="black" fill-opacity="0.4"/>
<path d="M4.81177 35.8795L4.7945 35.8863L4.77779 35.8943C4.01458 36.2603 3.24676 36.1757 2.59676 35.888C1.9287 35.5922 1.44721 35.1086 1.27801 34.784C1.10963 34.461 0.99738 33.8087 1.14918 33.1292C1.29461 32.4782 1.67021 31.8525 2.41559 31.4865L16.5514 26.4019L16.9316 31.1432L4.81177 35.8795Z" stroke="#546DDB" stroke-width="0.992606"/>
<path d="M4.81177 35.8795L4.7945 35.8863L4.77779 35.8943C4.01458 36.2603 3.24676 36.1757 2.59676 35.888C1.9287 35.5922 1.44721 35.1086 1.27801 34.784C1.10963 34.461 0.99738 33.8087 1.14918 33.1292C1.29461 32.4782 1.67021 31.8525 2.41559 31.4865L16.5514 26.4019L16.9316 31.1432L4.81177 35.8795Z" stroke="white" stroke-opacity="0.6" stroke-width="0.992606"/>
<path d="M14.2919 45.6548L14.2844 45.6723L14.2755 45.6892C13.8828 46.4328 13.9524 47.1898 14.2345 47.8384C14.5246 48.5055 15.0142 48.997 15.352 49.1753C15.6898 49.3537 16.3718 49.481 17.0861 49.3444C17.7739 49.2129 18.4319 48.8495 18.826 48.1206L24.3969 34.21L19.4652 33.7204L14.2919 45.6548Z" fill="#546DDB"/>
<path d="M14.2919 45.6548L14.2844 45.6723L14.2755 45.6892C13.8828 46.4328 13.9524 47.1898 14.2345 47.8384C14.5246 48.5055 15.0142 48.997 15.352 49.1753C15.6898 49.3537 16.3718 49.481 17.0861 49.3444C17.7739 49.2129 18.4319 48.8495 18.826 48.1206L24.3969 34.21L19.4652 33.7204L14.2919 45.6548Z" fill="black" fill-opacity="0.4"/>
<path d="M14.2919 45.6548L14.2844 45.6723L14.2755 45.6892C13.8828 46.4328 13.9524 47.1898 14.2345 47.8384C14.5246 48.5055 15.0142 48.997 15.352 49.1753C15.6898 49.3537 16.3718 49.481 17.0861 49.3444C17.7739 49.2129 18.4319 48.8495 18.826 48.1206L24.3969 34.21L19.4652 33.7204L14.2919 45.6548Z" stroke="#546DDB" stroke-width="0.992606"/>
<path d="M14.2919 45.6548L14.2844 45.6723L14.2755 45.6892C13.8828 46.4328 13.9524 47.1898 14.2345 47.8384C14.5246 48.5055 15.0142 48.997 15.352 49.1753C15.6898 49.3537 16.3718 49.481 17.0861 49.3444C17.7739 49.2129 18.4319 48.8495 18.826 48.1206L24.3969 34.21L19.4652 33.7204L14.2919 45.6548Z" stroke="white" stroke-opacity="0.6" stroke-width="0.992606"/>
<path d="M21.3162 23.6912C22.1114 21.0638 23.5125 16.4667 24.1657 14.4429C25.0612 11.6683 26.8827 7.66618 29.8458 5.60616C31.8479 4.2142 34.7002 3.33691 36.4639 2.93964L28.2088 22.7799L21.3162 23.6912Z" fill="#546DDB"/>
<path d="M21.3162 23.6912C22.1114 21.0638 23.5125 16.4667 24.1657 14.4429C25.0612 11.6683 26.8827 7.66618 29.8458 5.60616C31.8479 4.2142 34.7002 3.33691 36.4639 2.93964L28.2088 22.7799L21.3162 23.6912Z" fill="black" fill-opacity="0.4"/>
<path d="M21.3162 23.6912C22.1114 21.0638 23.5125 16.4667 24.1657 14.4429C25.0612 11.6683 26.8827 7.66618 29.8458 5.60616C31.8479 4.2142 34.7002 3.33691 36.4639 2.93964L28.2088 22.7799L21.3162 23.6912Z" stroke="#546DDB" stroke-width="0.992606"/>
<path d="M21.3162 23.6912C22.1114 21.0638 23.5125 16.4667 24.1657 14.4429C25.0612 11.6683 26.8827 7.66618 29.8458 5.60616C31.8479 4.2142 34.7002 3.33691 36.4639 2.93964L28.2088 22.7799L21.3162 23.6912Z" stroke="white" stroke-opacity="0.6" stroke-width="0.992606"/>
<path d="M27.6667 29.9986C30.3101 29.2587 34.9351 27.9543 36.9721 27.3437C39.7646 26.5066 43.8039 24.7695 45.9256 21.8503C47.3593 19.8779 48.2963 17.0447 48.7305 15.2897L28.7227 23.1268L27.6667 29.9986Z" fill="#546DDB"/>
<path d="M27.6667 29.9986C30.3101 29.2587 34.9351 27.9543 36.9721 27.3437C39.7646 26.5066 43.8039 24.7695 45.9256 21.8503C47.3593 19.8779 48.2963 17.0447 48.7305 15.2897L28.7227 23.1268L27.6667 29.9986Z" fill="black" fill-opacity="0.4"/>
<path d="M27.6667 29.9986C30.3101 29.2587 34.9351 27.9543 36.9721 27.3437C39.7646 26.5066 43.8039 24.7695 45.9256 21.8503C47.3593 19.8779 48.2963 17.0447 48.7305 15.2897L28.7227 23.1268L27.6667 29.9986Z" stroke="#546DDB" stroke-width="0.992606"/>
<path d="M27.6667 29.9986C30.3101 29.2587 34.9351 27.9543 36.9721 27.3437C39.7646 26.5066 43.8039 24.7695 45.9256 21.8503C47.3593 19.8779 48.2963 17.0447 48.7305 15.2897L28.7227 23.1268L27.6667 29.9986Z" stroke="white" stroke-opacity="0.6" stroke-width="0.992606"/>
<circle cx="23.4114" cy="27.7004" r="7.44455" fill="#546DDB"/>
<circle cx="23.4114" cy="27.7004" r="7.44455" fill="black" fill-opacity="0.4"/>
<circle cx="23.4114" cy="27.7004" r="7.44455" stroke="#546DDB" stroke-width="0.992606"/>
<circle cx="23.4114" cy="27.7004" r="7.44455" stroke="white" stroke-opacity="0.6" stroke-width="0.992606"/>
<path d="M26.0108 27.5259C26.0414 26.3949 27.138 25.0806 27.5201 24.0299C26.4502 24.3546 25.3613 25.3862 23.9476 25.3479C22.6831 25.3137 21.4832 24.9276 20.0886 24.1825C20.7572 25.6153 21.0743 26.9679 21.0437 28.0988C21.0131 29.2298 20.0311 30.6651 19.5344 31.5948C20.6106 31.0344 21.8424 30.2425 23.1069 30.2767C24.5205 30.315 25.5713 30.6971 26.9658 31.4422C26.6411 30.3724 25.9725 28.9396 26.0108 27.5259Z" fill="#FAA21E"/>
<path d="M26.0108 27.5259C26.0414 26.3949 27.138 25.0806 27.5201 24.0299C26.4502 24.3546 25.3613 25.3862 23.9476 25.3479C22.6831 25.3137 21.4832 24.9276 20.0886 24.1825C20.7572 25.6153 21.0743 26.9679 21.0437 28.0988C21.0131 29.2298 20.0311 30.6651 19.5344 31.5948C20.6106 31.0344 21.8424 30.2425 23.1069 30.2767C24.5205 30.315 25.5713 30.6971 26.9658 31.4422C26.6411 30.3724 25.9725 28.9396 26.0108 27.5259Z" fill="white" fill-opacity="0.2"/>
</g>
<defs>
<clipPath id="clip0_6296_35122">
<rect width="50" height="50" fill="white" transform="translate(0.581482 0.900024)"/>
</clipPath>
</defs>
</svg>
