<svg width="51" height="51" viewBox="0 0 51 51" fill="none" xmlns="http://www.w3.org/2000/svg">
<path d="M39.5815 20.6666H45.9815C46.2481 20.6666 46.8615 20.7456 47.1815 21.0614C47.5015 21.3772 47.5815 21.9824 47.5815 22.2456V34.0877C47.5815 34.3508 47.5015 34.9561 47.1815 35.2719C46.8615 35.5877 46.2481 35.6666 45.9815 35.6666H39.5815" stroke="#546DDB" stroke-width="3.98519"/>
<path d="M39.5815 20.6666H45.9815C46.2481 20.6666 46.8615 20.7456 47.1815 21.0614C47.5015 21.3772 47.5815 21.9824 47.5815 22.2456V34.0877C47.5815 34.3508 47.5015 34.9561 47.1815 35.2719C46.8615 35.5877 46.2481 35.6666 45.9815 35.6666H39.5815" stroke="white" stroke-opacity="0.6" stroke-width="3.98519"/>
<path d="M39.5815 20.6666H45.9815C46.2481 20.6666 46.8615 20.7456 47.1815 21.0614C47.5015 21.3772 47.5815 21.9824 47.5815 22.2456V34.0877C47.5815 34.3508 47.5015 34.9561 47.1815 35.2719C46.8615 35.5877 46.2481 35.6666 45.9815 35.6666H39.5815" stroke="#546DDB" stroke-width="1.99259"/>
<path d="M39.5815 20.6666H45.9815C46.2481 20.6666 46.8615 20.7456 47.1815 21.0614C47.5015 21.3772 47.5815 21.9824 47.5815 22.2456V34.0877C47.5815 34.3508 47.5015 34.9561 47.1815 35.2719C46.8615 35.5877 46.2481 35.6666 45.9815 35.6666H39.5815" stroke="black" stroke-opacity="0.4" stroke-width="1.99259"/>
<path d="M14.0833 32.1261L2.55574 16.1648H7.89439L14.0833 21.577V32.1261Z" fill="#546DDB"/>
<path d="M14.0833 32.1261L2.55574 16.1648H7.89439L14.0833 21.577V32.1261Z" fill="black" fill-opacity="0.4"/>
<path d="M14.0833 32.1261L2.55574 16.1648H7.89439L14.0833 21.577V32.1261Z" stroke="#546DDB" stroke-width="0.996296"/>
<path d="M14.0833 32.1261L2.55574 16.1648H7.89439L14.0833 21.577V32.1261Z" stroke="white" stroke-opacity="0.6" stroke-width="0.996296"/>
<path d="M40.0833 16.3679V43.3726C39.9373 43.4495 39.726 43.5561 39.4509 43.6831C38.8591 43.9562 37.9725 44.3234 36.8065 44.6916C34.4749 45.4279 31.0255 46.1685 26.5815 46.1685C22.1375 46.1685 18.6881 45.4279 16.3565 44.6916C15.1905 44.3234 14.3039 43.9562 13.7121 43.6831C13.437 43.5561 13.2256 43.4495 13.0796 43.3726V16.3679C13.1643 16.3952 13.2567 16.4244 13.3569 16.4552C13.98 16.647 14.9008 16.9008 16.1039 17.1541C18.51 17.6606 22.0444 18.1648 26.5815 18.1648C31.1185 18.1648 34.653 17.6606 37.0591 17.1541C38.2621 16.9008 39.183 16.647 39.8061 16.4552C39.9062 16.4244 39.9987 16.3952 40.0833 16.3679Z" fill="#546DDB"/>
<path d="M40.0833 16.3679V43.3726C39.9373 43.4495 39.726 43.5561 39.4509 43.6831C38.8591 43.9562 37.9725 44.3234 36.8065 44.6916C34.4749 45.4279 31.0255 46.1685 26.5815 46.1685C22.1375 46.1685 18.6881 45.4279 16.3565 44.6916C15.1905 44.3234 14.3039 43.9562 13.7121 43.6831C13.437 43.5561 13.2256 43.4495 13.0796 43.3726V16.3679C13.1643 16.3952 13.2567 16.4244 13.3569 16.4552C13.98 16.647 14.9008 16.9008 16.1039 17.1541C18.51 17.6606 22.0444 18.1648 26.5815 18.1648C31.1185 18.1648 34.653 17.6606 37.0591 17.1541C38.2621 16.9008 39.183 16.647 39.8061 16.4552C39.9062 16.4244 39.9987 16.3952 40.0833 16.3679Z" fill="black" fill-opacity="0.4"/>
<path d="M40.0833 16.3679V43.3726C39.9373 43.4495 39.726 43.5561 39.4509 43.6831C38.8591 43.9562 37.9725 44.3234 36.8065 44.6916C34.4749 45.4279 31.0255 46.1685 26.5815 46.1685C22.1375 46.1685 18.6881 45.4279 16.3565 44.6916C15.1905 44.3234 14.3039 43.9562 13.7121 43.6831C13.437 43.5561 13.2256 43.4495 13.0796 43.3726V16.3679C13.1643 16.3952 13.2567 16.4244 13.3569 16.4552C13.98 16.647 14.9008 16.9008 16.1039 17.1541C18.51 17.6606 22.0444 18.1648 26.5815 18.1648C31.1185 18.1648 34.653 17.6606 37.0591 17.1541C38.2621 16.9008 39.183 16.647 39.8061 16.4552C39.9062 16.4244 39.9987 16.3952 40.0833 16.3679Z" stroke="#546DDB" stroke-width="0.996296"/>
<path d="M40.0833 16.3679V43.3726C39.9373 43.4495 39.726 43.5561 39.4509 43.6831C38.8591 43.9562 37.9725 44.3234 36.8065 44.6916C34.4749 45.4279 31.0255 46.1685 26.5815 46.1685C22.1375 46.1685 18.6881 45.4279 16.3565 44.6916C15.1905 44.3234 14.3039 43.9562 13.7121 43.6831C13.437 43.5561 13.2256 43.4495 13.0796 43.3726V16.3679C13.1643 16.3952 13.2567 16.4244 13.3569 16.4552C13.98 16.647 14.9008 16.9008 16.1039 17.1541C18.51 17.6606 22.0444 18.1648 26.5815 18.1648C31.1185 18.1648 34.653 17.6606 37.0591 17.1541C38.2621 16.9008 39.183 16.647 39.8061 16.4552C39.9062 16.4244 39.9987 16.3952 40.0833 16.3679Z" stroke="white" stroke-opacity="0.6" stroke-width="0.996296"/>
<path d="M12.5815 12.6666C12.5815 12.6666 17.5815 15.3939 26.5815 15.3939C35.5815 15.3939 40.5815 12.6666 40.5815 12.6666V16.6666C40.5815 16.6666 35.5815 19.6666 26.5815 19.6666C17.5815 19.6666 12.5815 16.6666 12.5815 16.6666V12.6666Z" fill="#546DDB"/>
<path d="M12.5815 12.6666C12.5815 12.6666 17.5815 15.3939 26.5815 15.3939C35.5815 15.3939 40.5815 12.6666 40.5815 12.6666V16.6666C40.5815 16.6666 35.5815 19.6666 26.5815 19.6666C17.5815 19.6666 12.5815 16.6666 12.5815 16.6666V12.6666Z" fill="white" fill-opacity="0.6"/>
<path d="M40.0815 12.6666C40.0815 13.6666 34.0373 15.6666 26.5815 15.6666C19.1256 15.6666 13.0815 13.6666 13.0815 12.6666C13.0815 11.6666 19.1256 9.66663 26.5815 9.66663C34.0373 9.66663 40.0815 11.6666 40.0815 12.6666Z" fill="#546DDB"/>
<path d="M40.0815 12.6666C40.0815 13.6666 34.0373 15.6666 26.5815 15.6666C19.1256 15.6666 13.0815 13.6666 13.0815 12.6666C13.0815 11.6666 19.1256 9.66663 26.5815 9.66663C34.0373 9.66663 40.0815 11.6666 40.0815 12.6666Z" fill="black" fill-opacity="0.4"/>
<path d="M40.0815 12.6666C40.0815 13.6666 34.0373 15.6666 26.5815 15.6666C19.1256 15.6666 13.0815 13.6666 13.0815 12.6666C13.0815 11.6666 19.1256 9.66663 26.5815 9.66663C34.0373 9.66663 40.0815 11.6666 40.0815 12.6666Z" stroke="#546DDB" stroke-width="0.996296"/>
<path d="M40.0815 12.6666C40.0815 13.6666 34.0373 15.6666 26.5815 15.6666C19.1256 15.6666 13.0815 13.6666 13.0815 12.6666C13.0815 11.6666 19.1256 9.66663 26.5815 9.66663C34.0373 9.66663 40.0815 11.6666 40.0815 12.6666Z" stroke="white" stroke-opacity="0.6" stroke-width="0.996296"/>
<circle cx="26.5815" cy="9.16663" r="3.5" fill="#546DDB"/>
<circle cx="26.5815" cy="9.16663" r="3.5" fill="white" fill-opacity="0.6"/>
<circle cx="26.5815" cy="38.6666" r="2" fill="#FAA21E"/>
<circle cx="26.5815" cy="38.6666" r="2" fill="white" fill-opacity="0.2"/>
<path d="M22.0815 26.1666C21.2815 25.3666 21.0815 23.6666 20.5815 22.6666C20.0815 23.6666 20.0815 25.1666 19.0815 26.1666C18.1871 27.0611 17.0815 27.6666 15.5815 28.1666C17.0815 28.6666 18.2815 29.3666 19.0815 30.1666C19.8815 30.9666 20.2481 32.6666 20.5815 33.6666C20.9148 32.5 21.1871 31.0611 22.0815 30.1666C23.0815 29.1666 24.0815 28.6666 25.5815 28.1666C24.5815 27.6666 23.0815 27.1666 22.0815 26.1666Z" fill="#FAA21E"/>
<path d="M22.0815 26.1666C21.2815 25.3666 21.0815 23.6666 20.5815 22.6666C20.0815 23.6666 20.0815 25.1666 19.0815 26.1666C18.1871 27.0611 17.0815 27.6666 15.5815 28.1666C17.0815 28.6666 18.2815 29.3666 19.0815 30.1666C19.8815 30.9666 20.2481 32.6666 20.5815 33.6666C20.9148 32.5 21.1871 31.0611 22.0815 30.1666C23.0815 29.1666 24.0815 28.6666 25.5815 28.1666C24.5815 27.6666 23.0815 27.1666 22.0815 26.1666Z" fill="white" fill-opacity="0.2"/>
<path d="M35.1315 31.2121C34.5715 30.6303 34.4315 29.3939 34.0815 28.6666C33.7315 29.3939 33.7315 30.4848 33.0315 31.2121C32.4054 31.8626 31.6315 32.303 30.5815 32.6666C31.6315 33.0303 32.4715 33.5394 33.0315 34.1212C33.5915 34.703 33.8481 35.9394 34.0815 36.6666C34.3148 35.8181 34.5054 34.7717 35.1315 34.1212C35.8315 33.3939 36.5315 33.0303 37.5815 32.6666C36.8815 32.303 35.8315 31.9394 35.1315 31.2121Z" fill="#FEFEFE"/>
<circle cx="31.0815" cy="25.1666" r="1.5" fill="#FEFEFE"/>
</svg>
