<svg width="50" height="50" viewBox="0 0 50 50" fill="none" xmlns="http://www.w3.org/2000/svg">
<path d="M18.3426 29.0396C18.0275 26.011 19.1988 23.6517 19.8079 23.2152L15.1507 23.5954L11.8841 29.1322C11.9562 29.7956 13.6889 32.8487 15.4692 34.8626C17.7989 37.4979 20.0993 39.4474 21.1484 40.2007L22.7231 38.9206C20.8826 36.2887 18.597 31.4837 18.3426 29.0396Z" fill="#546DDB"/>
<path d="M18.3426 29.0396C18.0275 26.011 19.1988 23.6517 19.8079 23.2152L15.1507 23.5954L11.8841 29.1322C11.9562 29.7956 13.6889 32.8487 15.4692 34.8626C17.7989 37.4979 20.0993 39.4474 21.1484 40.2007L22.7231 38.9206C20.8826 36.2887 18.597 31.4837 18.3426 29.0396Z" fill="white" fill-opacity="0.6"/>
<path d="M12.8975 49.5018H2.49889C2.5177 43.2415 2.89324 38.065 3.67704 33.9049C4.48244 29.63 5.71193 26.4676 7.39321 24.306C9.12548 22.0788 10.4618 20.7936 11.595 19.9811C12.721 19.1736 13.667 18.8173 14.6637 18.4705C15.097 18.3197 15.9722 18.2026 17.1065 18.1222C18.2192 18.0433 19.5206 18.003 20.7652 17.9845C22.0087 17.9661 23.19 17.9695 24.0608 17.9776C24.4407 17.9811 24.7613 17.9855 25.0019 17.9893V24.001C24.877 24.0006 24.7504 24 24.6222 23.9994C22.9942 23.9922 21.1163 23.9838 19.3739 24.1726C17.331 24.394 15.3292 24.8977 14.1243 26.121C12.9398 27.3237 12.4094 28.6349 12.1768 30.3558C11.9866 31.7623 11.9921 33.4794 11.9991 35.6577C12.0004 36.0868 12.0019 36.5339 12.0019 37C12.0019 40.8708 12.4567 45.2285 12.7368 47.9119C12.8028 48.5443 12.8591 49.0837 12.8975 49.5018Z" fill="#546DDB"/>
<path d="M12.8975 49.5018H2.49889C2.5177 43.2415 2.89324 38.065 3.67704 33.9049C4.48244 29.63 5.71193 26.4676 7.39321 24.306C9.12548 22.0788 10.4618 20.7936 11.595 19.9811C12.721 19.1736 13.667 18.8173 14.6637 18.4705C15.097 18.3197 15.9722 18.2026 17.1065 18.1222C18.2192 18.0433 19.5206 18.003 20.7652 17.9845C22.0087 17.9661 23.19 17.9695 24.0608 17.9776C24.4407 17.9811 24.7613 17.9855 25.0019 17.9893V24.001C24.877 24.0006 24.7504 24 24.6222 23.9994C22.9942 23.9922 21.1163 23.9838 19.3739 24.1726C17.331 24.394 15.3292 24.8977 14.1243 26.121C12.9398 27.3237 12.4094 28.6349 12.1768 30.3558C11.9866 31.7623 11.9921 33.4794 11.9991 35.6577C12.0004 36.0868 12.0019 36.5339 12.0019 37C12.0019 40.8708 12.4567 45.2285 12.7368 47.9119C12.8028 48.5443 12.8591 49.0837 12.8975 49.5018Z" fill="black" fill-opacity="0.4"/>
<path d="M12.8975 49.5018H2.49889C2.5177 43.2415 2.89324 38.065 3.67704 33.9049C4.48244 29.63 5.71193 26.4676 7.39321 24.306C9.12548 22.0788 10.4618 20.7936 11.595 19.9811C12.721 19.1736 13.667 18.8173 14.6637 18.4705C15.097 18.3197 15.9722 18.2026 17.1065 18.1222C18.2192 18.0433 19.5206 18.003 20.7652 17.9845C22.0087 17.9661 23.19 17.9695 24.0608 17.9776C24.4407 17.9811 24.7613 17.9855 25.0019 17.9893V24.001C24.877 24.0006 24.7504 24 24.6222 23.9994C22.9942 23.9922 21.1163 23.9838 19.3739 24.1726C17.331 24.394 15.3292 24.8977 14.1243 26.121C12.9398 27.3237 12.4094 28.6349 12.1768 30.3558C11.9866 31.7623 11.9921 33.4794 11.9991 35.6577C12.0004 36.0868 12.0019 36.5339 12.0019 37C12.0019 40.8708 12.4567 45.2285 12.7368 47.9119C12.8028 48.5443 12.8591 49.0837 12.8975 49.5018Z" stroke="#546DDB" stroke-width="0.996296"/>
<path d="M12.8975 49.5018H2.49889C2.5177 43.2415 2.89324 38.065 3.67704 33.9049C4.48244 29.63 5.71193 26.4676 7.39321 24.306C9.12548 22.0788 10.4618 20.7936 11.595 19.9811C12.721 19.1736 13.667 18.8173 14.6637 18.4705C15.097 18.3197 15.9722 18.2026 17.1065 18.1222C18.2192 18.0433 19.5206 18.003 20.7652 17.9845C22.0087 17.9661 23.19 17.9695 24.0608 17.9776C24.4407 17.9811 24.7613 17.9855 25.0019 17.9893V24.001C24.877 24.0006 24.7504 24 24.6222 23.9994C22.9942 23.9922 21.1163 23.9838 19.3739 24.1726C17.331 24.394 15.3292 24.8977 14.1243 26.121C12.9398 27.3237 12.4094 28.6349 12.1768 30.3558C11.9866 31.7623 11.9921 33.4794 11.9991 35.6577C12.0004 36.0868 12.0019 36.5339 12.0019 37C12.0019 40.8708 12.4567 45.2285 12.7368 47.9119C12.8028 48.5443 12.8591 49.0837 12.8975 49.5018Z" stroke="white" stroke-opacity="0.6" stroke-width="0.996296"/>
<path d="M38.3198 1.59058C38.292 1.68892 38.263 1.79102 38.233 1.89688C37.3391 5.04666 35.5019 11.5207 35.5019 21.0001C35.5019 30.655 37.406 37.5889 38.2875 40.4087C37.86 40.3016 37.4081 40.1033 36.9341 39.8218C36.1902 39.3799 35.4242 38.7517 34.6575 38.0157C33.3352 36.7464 32.0575 35.2028 30.9234 33.833C30.7393 33.6105 30.5589 33.3926 30.3827 33.1812C29.1613 31.7154 27.7726 29.499 26.6801 27.6287C26.1363 26.6976 25.6699 25.8594 25.3396 25.2541C25.1745 24.9515 25.0435 24.7073 24.9539 24.539C24.9214 24.4781 24.8944 24.4271 24.8731 24.3869V17.7784L24.9728 17.603C25.0786 17.4169 25.2321 17.1482 25.4221 16.8178C25.8021 16.157 26.3283 15.25 26.9127 14.2654C28.0867 12.2876 29.4798 10.024 30.3985 8.79895C31.3295 7.55767 32.8103 5.70791 34.4217 4.17329C35.2276 3.40577 36.054 2.7288 36.85 2.24639C37.3751 1.92812 37.8682 1.70609 38.3198 1.59058Z" fill="#546DDB"/>
<path d="M38.3198 1.59058C38.292 1.68892 38.263 1.79102 38.233 1.89688C37.3391 5.04666 35.5019 11.5207 35.5019 21.0001C35.5019 30.655 37.406 37.5889 38.2875 40.4087C37.86 40.3016 37.4081 40.1033 36.9341 39.8218C36.1902 39.3799 35.4242 38.7517 34.6575 38.0157C33.3352 36.7464 32.0575 35.2028 30.9234 33.833C30.7393 33.6105 30.5589 33.3926 30.3827 33.1812C29.1613 31.7154 27.7726 29.499 26.6801 27.6287C26.1363 26.6976 25.6699 25.8594 25.3396 25.2541C25.1745 24.9515 25.0435 24.7073 24.9539 24.539C24.9214 24.4781 24.8944 24.4271 24.8731 24.3869V17.7784L24.9728 17.603C25.0786 17.4169 25.2321 17.1482 25.4221 16.8178C25.8021 16.157 26.3283 15.25 26.9127 14.2654C28.0867 12.2876 29.4798 10.024 30.3985 8.79895C31.3295 7.55767 32.8103 5.70791 34.4217 4.17329C35.2276 3.40577 36.054 2.7288 36.85 2.24639C37.3751 1.92812 37.8682 1.70609 38.3198 1.59058Z" fill="black" fill-opacity="0.4"/>
<path d="M38.3198 1.59058C38.292 1.68892 38.263 1.79102 38.233 1.89688C37.3391 5.04666 35.5019 11.5207 35.5019 21.0001C35.5019 30.655 37.406 37.5889 38.2875 40.4087C37.86 40.3016 37.4081 40.1033 36.9341 39.8218C36.1902 39.3799 35.4242 38.7517 34.6575 38.0157C33.3352 36.7464 32.0575 35.2028 30.9234 33.833C30.7393 33.6105 30.5589 33.3926 30.3827 33.1812C29.1613 31.7154 27.7726 29.499 26.6801 27.6287C26.1363 26.6976 25.6699 25.8594 25.3396 25.2541C25.1745 24.9515 25.0435 24.7073 24.9539 24.539C24.9214 24.4781 24.8944 24.4271 24.8731 24.3869V17.7784L24.9728 17.603C25.0786 17.4169 25.2321 17.1482 25.4221 16.8178C25.8021 16.157 26.3283 15.25 26.9127 14.2654C28.0867 12.2876 29.4798 10.024 30.3985 8.79895C31.3295 7.55767 32.8103 5.70791 34.4217 4.17329C35.2276 3.40577 36.054 2.7288 36.85 2.24639C37.3751 1.92812 37.8682 1.70609 38.3198 1.59058Z" stroke="#546DDB" stroke-width="0.996296"/>
<path d="M38.3198 1.59058C38.292 1.68892 38.263 1.79102 38.233 1.89688C37.3391 5.04666 35.5019 11.5207 35.5019 21.0001C35.5019 30.655 37.406 37.5889 38.2875 40.4087C37.86 40.3016 37.4081 40.1033 36.9341 39.8218C36.1902 39.3799 35.4242 38.7517 34.6575 38.0157C33.3352 36.7464 32.0575 35.2028 30.9234 33.833C30.7393 33.6105 30.5589 33.3926 30.3827 33.1812C29.1613 31.7154 27.7726 29.499 26.6801 27.6287C26.1363 26.6976 25.6699 25.8594 25.3396 25.2541C25.1745 24.9515 25.0435 24.7073 24.9539 24.539C24.9214 24.4781 24.8944 24.4271 24.8731 24.3869V17.7784L24.9728 17.603C25.0786 17.4169 25.2321 17.1482 25.4221 16.8178C25.8021 16.157 26.3283 15.25 26.9127 14.2654C28.0867 12.2876 29.4798 10.024 30.3985 8.79895C31.3295 7.55767 32.8103 5.70791 34.4217 4.17329C35.2276 3.40577 36.054 2.7288 36.85 2.24639C37.3751 1.92812 37.8682 1.70609 38.3198 1.59058Z" stroke="white" stroke-opacity="0.6" stroke-width="0.996296"/>
<ellipse cx="38.5" cy="21.0001" rx="3" ry="20" fill="#546DDB"/>
<ellipse cx="38.5" cy="21.0001" rx="3" ry="20" fill="white" fill-opacity="0.6"/>
<path d="M35.5 20.0001H42.5V22.4992H35.5V20.0001Z" fill="#546DDB"/>
<path d="M35.5 20.0001H42.5V22.4992H35.5V20.0001Z" fill="black" fill-opacity="0.4"/>
<path d="M48.5019 21.0001C48.5019 22.9341 46.934 24.5019 45 24.5019C43.066 24.5019 41.4981 22.9341 41.4981 21.0001C41.4981 19.066 43.066 17.4982 45 17.4982C46.934 17.4982 48.5019 19.066 48.5019 21.0001Z" fill="#546DDB"/>
<path d="M48.5019 21.0001C48.5019 22.9341 46.934 24.5019 45 24.5019C43.066 24.5019 41.4981 22.9341 41.4981 21.0001C41.4981 19.066 43.066 17.4982 45 17.4982C46.934 17.4982 48.5019 19.066 48.5019 21.0001Z" fill="black" fill-opacity="0.4"/>
<path d="M48.5019 21.0001C48.5019 22.9341 46.934 24.5019 45 24.5019C43.066 24.5019 41.4981 22.9341 41.4981 21.0001C41.4981 19.066 43.066 17.4982 45 17.4982C46.934 17.4982 48.5019 19.066 48.5019 21.0001Z" stroke="#546DDB" stroke-width="0.996296"/>
<path d="M48.5019 21.0001C48.5019 22.9341 46.934 24.5019 45 24.5019C43.066 24.5019 41.4981 22.9341 41.4981 21.0001C41.4981 19.066 43.066 17.4982 45 17.4982C46.934 17.4982 48.5019 19.066 48.5019 21.0001Z" stroke="white" stroke-opacity="0.6" stroke-width="0.996296"/>
<path d="M31.1125 19.5455C30.5525 18.9636 30.4125 17.7273 30.0625 17C29.7125 17.7273 29.7125 18.8182 29.0125 19.5455C28.3864 20.1959 27.6125 20.6364 26.5625 21C27.6125 21.3636 28.4525 21.8727 29.0125 22.4545C29.5725 23.0364 29.8292 24.2727 30.0625 25C30.2958 24.1515 30.4864 23.105 31.1125 22.4545C31.8125 21.7273 32.5125 21.3636 33.5625 21C32.8625 20.6364 31.8125 20.2727 31.1125 19.5455Z" fill="#FAA21E"/>
<path d="M31.1125 19.5455C30.5525 18.9636 30.4125 17.7273 30.0625 17C29.7125 17.7273 29.7125 18.8182 29.0125 19.5455C28.3864 20.1959 27.6125 20.6364 26.5625 21C27.6125 21.3636 28.4525 21.8727 29.0125 22.4545C29.5725 23.0364 29.8292 24.2727 30.0625 25C30.2958 24.1515 30.4864 23.105 31.1125 22.4545C31.8125 21.7273 32.5125 21.3636 33.5625 21C32.8625 20.6364 31.8125 20.2727 31.1125 19.5455Z" fill="white" fill-opacity="0.2"/>
</svg>
