<svg width="50" height="50" viewBox="0 0 50 50" fill="none" xmlns="http://www.w3.org/2000/svg">
<g clip-path="url(#clip0_6296_35188)">
<path d="M30.578 1.66039L37.7981 6.62425C36.3679 8.62876 34.1874 11.5893 32.1414 14.2448C31.0454 15.6674 29.9907 16.9989 29.112 18.0477C28.2174 19.1154 27.5448 19.8414 27.2 20.1C26.6633 20.5025 25.825 21.3118 24.866 22.3098C23.8984 23.3167 22.7837 24.5415 21.6862 25.7957C19.5034 28.2903 17.348 30.9481 16.5712 32.2428C15.8059 33.5183 14.5464 36.0396 13.419 38.5448C12.2986 41.0346 11.2727 43.5867 11.0097 44.9019C10.7425 46.2377 10.8767 47.1833 11.0097 47.8481C11.0305 47.9522 11.0495 48.0422 11.0662 48.1215C11.1061 48.3105 11.1332 48.4392 11.1421 48.554C11.1464 48.6101 11.1435 48.6392 11.1414 48.6515C10.8232 48.9671 10.0417 49.5013 6.06199 49.0039C2.34194 48.5389 0.972141 47.2065 0.506872 46.388C0.521585 46.3381 0.545104 46.2696 0.580161 46.1799C0.676494 45.9336 0.836856 45.5859 1.05834 45.1439C1.49971 44.2631 2.16258 43.0494 2.98171 41.6062C4.61877 38.7218 6.86584 34.9454 9.17749 31.1343C13.81 23.4968 18.6688 15.775 19.4 14.8C20.5503 13.2662 27.2877 5.32616 30.578 1.66039Z" fill="#546DDB"/>
<path d="M30.578 1.66039L37.7981 6.62425C36.3679 8.62876 34.1874 11.5893 32.1414 14.2448C31.0454 15.6674 29.9907 16.9989 29.112 18.0477C28.2174 19.1154 27.5448 19.8414 27.2 20.1C26.6633 20.5025 25.825 21.3118 24.866 22.3098C23.8984 23.3167 22.7837 24.5415 21.6862 25.7957C19.5034 28.2903 17.348 30.9481 16.5712 32.2428C15.8059 33.5183 14.5464 36.0396 13.419 38.5448C12.2986 41.0346 11.2727 43.5867 11.0097 44.9019C10.7425 46.2377 10.8767 47.1833 11.0097 47.8481C11.0305 47.9522 11.0495 48.0422 11.0662 48.1215C11.1061 48.3105 11.1332 48.4392 11.1421 48.554C11.1464 48.6101 11.1435 48.6392 11.1414 48.6515C10.8232 48.9671 10.0417 49.5013 6.06199 49.0039C2.34194 48.5389 0.972141 47.2065 0.506872 46.388C0.521585 46.3381 0.545104 46.2696 0.580161 46.1799C0.676494 45.9336 0.836856 45.5859 1.05834 45.1439C1.49971 44.2631 2.16258 43.0494 2.98171 41.6062C4.61877 38.7218 6.86584 34.9454 9.17749 31.1343C13.81 23.4968 18.6688 15.775 19.4 14.8C20.5503 13.2662 27.2877 5.32616 30.578 1.66039Z" fill="black" fill-opacity="0.4"/>
<path d="M30.578 1.66039L37.7981 6.62425C36.3679 8.62876 34.1874 11.5893 32.1414 14.2448C31.0454 15.6674 29.9907 16.9989 29.112 18.0477C28.2174 19.1154 27.5448 19.8414 27.2 20.1C26.6633 20.5025 25.825 21.3118 24.866 22.3098C23.8984 23.3167 22.7837 24.5415 21.6862 25.7957C19.5034 28.2903 17.348 30.9481 16.5712 32.2428C15.8059 33.5183 14.5464 36.0396 13.419 38.5448C12.2986 41.0346 11.2727 43.5867 11.0097 44.9019C10.7425 46.2377 10.8767 47.1833 11.0097 47.8481C11.0305 47.9522 11.0495 48.0422 11.0662 48.1215C11.1061 48.3105 11.1332 48.4392 11.1421 48.554C11.1464 48.6101 11.1435 48.6392 11.1414 48.6515C10.8232 48.9671 10.0417 49.5013 6.06199 49.0039C2.34194 48.5389 0.972141 47.2065 0.506872 46.388C0.521585 46.3381 0.545104 46.2696 0.580161 46.1799C0.676494 45.9336 0.836856 45.5859 1.05834 45.1439C1.49971 44.2631 2.16258 43.0494 2.98171 41.6062C4.61877 38.7218 6.86584 34.9454 9.17749 31.1343C13.81 23.4968 18.6688 15.775 19.4 14.8C20.5503 13.2662 27.2877 5.32616 30.578 1.66039Z" stroke="#546DDB"/>
<path d="M30.578 1.66039L37.7981 6.62425C36.3679 8.62876 34.1874 11.5893 32.1414 14.2448C31.0454 15.6674 29.9907 16.9989 29.112 18.0477C28.2174 19.1154 27.5448 19.8414 27.2 20.1C26.6633 20.5025 25.825 21.3118 24.866 22.3098C23.8984 23.3167 22.7837 24.5415 21.6862 25.7957C19.5034 28.2903 17.348 30.9481 16.5712 32.2428C15.8059 33.5183 14.5464 36.0396 13.419 38.5448C12.2986 41.0346 11.2727 43.5867 11.0097 44.9019C10.7425 46.2377 10.8767 47.1833 11.0097 47.8481C11.0305 47.9522 11.0495 48.0422 11.0662 48.1215C11.1061 48.3105 11.1332 48.4392 11.1421 48.554C11.1464 48.6101 11.1435 48.6392 11.1414 48.6515C10.8232 48.9671 10.0417 49.5013 6.06199 49.0039C2.34194 48.5389 0.972141 47.2065 0.506872 46.388C0.521585 46.3381 0.545104 46.2696 0.580161 46.1799C0.676494 45.9336 0.836856 45.5859 1.05834 45.1439C1.49971 44.2631 2.16258 43.0494 2.98171 41.6062C4.61877 38.7218 6.86584 34.9454 9.17749 31.1343C13.81 23.4968 18.6688 15.775 19.4 14.8C20.5503 13.2662 27.2877 5.32616 30.578 1.66039Z" stroke="white" stroke-opacity="0.6"/>
<path d="M20.7503 7.19276L24.6362 9.57363L25.0274 9.81328L24.8222 10.2236C24.5394 10.7892 24.324 11.547 24.4182 12.3197C24.5098 13.0714 24.8987 13.8837 25.9111 14.5899C27.6144 15.778 29.7664 15.1515 30.8964 14.0214L31.181 13.7369L31.5198 13.954L31.527 13.9586L31.527 13.9586C32.115 14.3355 33.6383 15.3198 34.4743 17.828C35.3531 20.4643 36.5884 25.5138 37.3712 28.7139C37.4768 29.1455 37.5741 29.5434 37.6612 29.8973C39.7759 28.7089 43.2408 26.6347 45.6096 23.6737C46.5431 22.5069 47.4232 21.2965 48.1237 20.2425C48.6964 19.3807 49.1352 18.6439 49.3884 18.1273L37.7006 8.38742L26.0998 0.666996L20.7503 7.19276Z" fill="#546DDB"/>
<path d="M20.7503 7.19276L24.6362 9.57363L25.0274 9.81328L24.8222 10.2236C24.5394 10.7892 24.324 11.547 24.4182 12.3197C24.5098 13.0714 24.8987 13.8837 25.9111 14.5899C27.6144 15.778 29.7664 15.1515 30.8964 14.0214L31.181 13.7369L31.5198 13.954L31.527 13.9586L31.527 13.9586C32.115 14.3355 33.6383 15.3198 34.4743 17.828C35.3531 20.4643 36.5884 25.5138 37.3712 28.7139C37.4768 29.1455 37.5741 29.5434 37.6612 29.8973C39.7759 28.7089 43.2408 26.6347 45.6096 23.6737C46.5431 22.5069 47.4232 21.2965 48.1237 20.2425C48.6964 19.3807 49.1352 18.6439 49.3884 18.1273L37.7006 8.38742L26.0998 0.666996L20.7503 7.19276Z" fill="black" fill-opacity="0.4"/>
<path d="M20.7503 7.19276L24.6362 9.57363L25.0274 9.81328L24.8222 10.2236C24.5394 10.7892 24.324 11.547 24.4182 12.3197C24.5098 13.0714 24.8987 13.8837 25.9111 14.5899C27.6144 15.778 29.7664 15.1515 30.8964 14.0214L31.181 13.7369L31.5198 13.954L31.527 13.9586L31.527 13.9586C32.115 14.3355 33.6383 15.3198 34.4743 17.828C35.3531 20.4643 36.5884 25.5138 37.3712 28.7139C37.4768 29.1455 37.5741 29.5434 37.6612 29.8973C39.7759 28.7089 43.2408 26.6347 45.6096 23.6737C46.5431 22.5069 47.4232 21.2965 48.1237 20.2425C48.6964 19.3807 49.1352 18.6439 49.3884 18.1273L37.7006 8.38742L26.0998 0.666996L20.7503 7.19276Z" stroke="#546DDB"/>
<path d="M20.7503 7.19276L24.6362 9.57363L25.0274 9.81328L24.8222 10.2236C24.5394 10.7892 24.324 11.547 24.4182 12.3197C24.5098 13.0714 24.8987 13.8837 25.9111 14.5899C27.6144 15.778 29.7664 15.1515 30.8964 14.0214L31.181 13.7369L31.5198 13.954L31.527 13.9586L31.527 13.9586C32.115 14.3355 33.6383 15.3198 34.4743 17.828C35.3531 20.4643 36.5884 25.5138 37.3712 28.7139C37.4768 29.1455 37.5741 29.5434 37.6612 29.8973C39.7759 28.7089 43.2408 26.6347 45.6096 23.6737C46.5431 22.5069 47.4232 21.2965 48.1237 20.2425C48.6964 19.3807 49.1352 18.6439 49.3884 18.1273L37.7006 8.38742L26.0998 0.666996L20.7503 7.19276Z" stroke="white" stroke-opacity="0.6"/>
<path d="M31.0767 9.2075C31.0045 8.50461 31.5747 7.57712 31.7256 6.88722C31.0923 7.19967 30.5041 7.95144 29.6295 8.07517C28.8473 8.18584 28.0765 8.07205 27.1569 7.75647C27.6844 8.57322 27.9888 9.37698 28.0609 10.0799C28.1331 10.7828 27.6433 11.7732 27.412 12.4002C28.0303 11.9413 28.7259 11.3229 29.5081 11.2122C30.3826 11.0885 31.0611 11.2153 31.9807 11.5309C31.6944 10.9029 31.1669 10.0861 31.0767 9.2075Z" fill="#FAA21E"/>
<path d="M31.0767 9.2075C31.0045 8.50461 31.5747 7.57712 31.7256 6.88722C31.0923 7.19967 30.5041 7.95144 29.6295 8.07517C28.8473 8.18584 28.0765 8.07205 27.1569 7.75647C27.6844 8.57322 27.9888 9.37698 28.0609 10.0799C28.1331 10.7828 27.6433 11.7732 27.412 12.4002C28.0303 11.9413 28.7259 11.3229 29.5081 11.2122C30.3826 11.0885 31.0611 11.2153 31.9807 11.5309C31.6944 10.9029 31.1669 10.0861 31.0767 9.2075Z" fill="white" fill-opacity="0.2"/>
<path d="M37.3694 28.7068C37.4756 29.1411 37.5736 29.5416 37.6612 29.8973C39.7759 28.709 43.2408 26.6348 45.6096 23.6738C46.5431 22.507 47.4232 21.2966 48.1237 20.2426C48.6964 19.3808 49.1352 18.644 49.3884 18.1274L45.6644 15.024C44.3149 17.1937 43.0931 18.8311 41.6676 20.2798C40.2023 21.769 38.5363 23.0439 36.3253 24.4912C36.7077 26.0022 37.0711 27.4877 37.3694 28.7068Z" fill="#546DDB"/>
<path d="M37.3694 28.7068C37.4756 29.1411 37.5736 29.5416 37.6612 29.8973C39.7759 28.709 43.2408 26.6348 45.6096 23.6738C46.5431 22.507 47.4232 21.2966 48.1237 20.2426C48.6964 19.3808 49.1352 18.644 49.3884 18.1274L45.6644 15.024C44.3149 17.1937 43.0931 18.8311 41.6676 20.2798C40.2023 21.769 38.5363 23.0439 36.3253 24.4912C36.7077 26.0022 37.0711 27.4877 37.3694 28.7068Z" fill="black" fill-opacity="0.4"/>
<path d="M37.3694 28.7068C37.4756 29.1411 37.5736 29.5416 37.6612 29.8973C39.7759 28.709 43.2408 26.6348 45.6096 23.6738C46.5431 22.507 47.4232 21.2966 48.1237 20.2426C48.6964 19.3808 49.1352 18.644 49.3884 18.1274L45.6644 15.024C44.3149 17.1937 43.0931 18.8311 41.6676 20.2798C40.2023 21.769 38.5363 23.0439 36.3253 24.4912C36.7077 26.0022 37.0711 27.4877 37.3694 28.7068Z" stroke="#546DDB"/>
<path d="M37.3694 28.7068C37.4756 29.1411 37.5736 29.5416 37.6612 29.8973C39.7759 28.709 43.2408 26.6348 45.6096 23.6738C46.5431 22.507 47.4232 21.2966 48.1237 20.2426C48.6964 19.3808 49.1352 18.644 49.3884 18.1274L45.6644 15.024C44.3149 17.1937 43.0931 18.8311 41.6676 20.2798C40.2023 21.769 38.5363 23.0439 36.3253 24.4912C36.7077 26.0022 37.0711 27.4877 37.3694 28.7068Z" stroke="white" stroke-opacity="0.6"/>
</g>
<defs>
<clipPath id="clip0_6296_35188">
<rect width="50" height="50" fill="white" transform="matrix(-1 0 0 1 50 0)"/>
</clipPath>
</defs>
</svg>
