<svg width="50" height="50" viewBox="0 0 50 50" fill="none" xmlns="http://www.w3.org/2000/svg">
<g clip-path="url(#clip0_6296_34705)">
<ellipse cx="40.5" cy="33" rx="6.5" ry="1" fill="#546DDB"/>
<ellipse cx="40.5" cy="33" rx="6.5" ry="1" fill="white" fill-opacity="0.2"/>
<path d="M19.6685 0.956357C14.364 3.08946 12.7021 8.46061 12.5 11C13.5321 11.4085 14.6323 11.3802 15.5 11C15.5 9.37479 16.7586 4.79592 20.8809 3.08946C26.0338 0.956383 29.3681 4.30837 31.793 7.66037C35.761 13.1455 43.0081 9.48873 46.0392 14.0596C49.047 18.5952 43.3112 29.3976 40.2801 35.0858L41.1894 36C44.8268 30.8196 51.3134 18.9962 48.161 13.1455C44.2206 5.83201 38.594 11.6217 33.9147 5.83201C29.9743 0.956405 25.7307 -1.48145 19.6685 0.956357Z" fill="#546DDB"/>
<path d="M19.6685 0.956357C14.364 3.08946 12.7021 8.46061 12.5 11C13.5321 11.4085 14.6323 11.3802 15.5 11C15.5 9.37479 16.7586 4.79592 20.8809 3.08946C26.0338 0.956383 29.3681 4.30837 31.793 7.66037C35.761 13.1455 43.0081 9.48873 46.0392 14.0596C49.047 18.5952 43.3112 29.3976 40.2801 35.0858L41.1894 36C44.8268 30.8196 51.3134 18.9962 48.161 13.1455C44.2206 5.83201 38.594 11.6217 33.9147 5.83201C29.9743 0.956405 25.7307 -1.48145 19.6685 0.956357Z" fill="white" fill-opacity="0.6"/>
<path d="M34.5 48.1619V33.7261C36.0961 34.2531 38.3228 34.5006 40.5015 34.4995C42.6806 34.4983 44.906 34.2483 46.5 33.7246V48.1647C44.3242 49.0415 42.43 49.4689 40.5398 49.4688C38.6479 49.4687 36.7276 49.0404 34.5 48.1619Z" fill="#546DDB"/>
<path d="M34.5 48.1619V33.7261C36.0961 34.2531 38.3228 34.5006 40.5015 34.4995C42.6806 34.4983 44.906 34.2483 46.5 33.7246V48.1647C44.3242 49.0415 42.43 49.4689 40.5398 49.4688C38.6479 49.4687 36.7276 49.0404 34.5 48.1619Z" fill="black" fill-opacity="0.4"/>
<path d="M34.5 48.1619V33.7261C36.0961 34.2531 38.3228 34.5006 40.5015 34.4995C42.6806 34.4983 44.906 34.2483 46.5 33.7246V48.1647C44.3242 49.0415 42.43 49.4689 40.5398 49.4688C38.6479 49.4687 36.7276 49.0404 34.5 48.1619Z" stroke="#546DDB"/>
<path d="M34.5 48.1619V33.7261C36.0961 34.2531 38.3228 34.5006 40.5015 34.4995C42.6806 34.4983 44.906 34.2483 46.5 33.7246V48.1647C44.3242 49.0415 42.43 49.4689 40.5398 49.4688C38.6479 49.4687 36.7276 49.0404 34.5 48.1619Z" stroke="white" stroke-opacity="0.6"/>
<path d="M1.5 39.1945C1.5 36.2946 2.82218 34.3309 3.6731 33.5H24.315C24.865 34.0636 25.3814 34.6792 25.7754 35.5005C26.2026 36.3912 26.5 37.5544 26.5 39.1945C26.5 41.6327 26.1276 43.5005 25.367 44.9212C24.6138 46.328 23.4585 47.3365 21.8076 48.0249C16.9754 50.0396 10.4062 49.9412 6.20701 48.0312C3.04879 46.5947 1.5 43.1128 1.5 39.1945Z" fill="#546DDB"/>
<path d="M1.5 39.1945C1.5 36.2946 2.82218 34.3309 3.6731 33.5H24.315C24.865 34.0636 25.3814 34.6792 25.7754 35.5005C26.2026 36.3912 26.5 37.5544 26.5 39.1945C26.5 41.6327 26.1276 43.5005 25.367 44.9212C24.6138 46.328 23.4585 47.3365 21.8076 48.0249C16.9754 50.0396 10.4062 49.9412 6.20701 48.0312C3.04879 46.5947 1.5 43.1128 1.5 39.1945Z" fill="black" fill-opacity="0.4"/>
<path d="M1.5 39.1945C1.5 36.2946 2.82218 34.3309 3.6731 33.5H24.315C24.865 34.0636 25.3814 34.6792 25.7754 35.5005C26.2026 36.3912 26.5 37.5544 26.5 39.1945C26.5 41.6327 26.1276 43.5005 25.367 44.9212C24.6138 46.328 23.4585 47.3365 21.8076 48.0249C16.9754 50.0396 10.4062 49.9412 6.20701 48.0312C3.04879 46.5947 1.5 43.1128 1.5 39.1945Z" stroke="#546DDB"/>
<path d="M1.5 39.1945C1.5 36.2946 2.82218 34.3309 3.6731 33.5H24.315C24.865 34.0636 25.3814 34.6792 25.7754 35.5005C26.2026 36.3912 26.5 37.5544 26.5 39.1945C26.5 41.6327 26.1276 43.5005 25.367 44.9212C24.6138 46.328 23.4585 47.3365 21.8076 48.0249C16.9754 50.0396 10.4062 49.9412 6.20701 48.0312C3.04879 46.5947 1.5 43.1128 1.5 39.1945Z" stroke="white" stroke-opacity="0.6"/>
<path d="M2.73999 34.1762C4.67146 32.044 5.83526 30.9324 8.57442 29.5235C9.67846 29.7291 12.1836 30.0833 14 30.0833C15.8063 30.0833 18.2939 29.733 19.4072 29.5269C21.9027 31.0216 23.2893 32.1129 25.1888 34.1151C24.1782 34.5792 22.5832 35.0152 20.7406 35.3519C18.5427 35.7535 16.073 36 14 36C11.9087 36 9.43586 35.8757 7.24591 35.5371C6.15083 35.3678 5.13731 35.1465 4.28249 34.8649C3.66031 34.66 3.14128 34.4293 2.73999 34.1762Z" fill="#546DDB"/>
<path d="M2.73999 34.1762C4.67146 32.044 5.83526 30.9324 8.57442 29.5235C9.67846 29.7291 12.1836 30.0833 14 30.0833C15.8063 30.0833 18.2939 29.733 19.4072 29.5269C21.9027 31.0216 23.2893 32.1129 25.1888 34.1151C24.1782 34.5792 22.5832 35.0152 20.7406 35.3519C18.5427 35.7535 16.073 36 14 36C11.9087 36 9.43586 35.8757 7.24591 35.5371C6.15083 35.3678 5.13731 35.1465 4.28249 34.8649C3.66031 34.66 3.14128 34.4293 2.73999 34.1762Z" fill="black" fill-opacity="0.4"/>
<path d="M2.73999 34.1762C4.67146 32.044 5.83526 30.9324 8.57442 29.5235C9.67846 29.7291 12.1836 30.0833 14 30.0833C15.8063 30.0833 18.2939 29.733 19.4072 29.5269C21.9027 31.0216 23.2893 32.1129 25.1888 34.1151C24.1782 34.5792 22.5832 35.0152 20.7406 35.3519C18.5427 35.7535 16.073 36 14 36C11.9087 36 9.43586 35.8757 7.24591 35.5371C6.15083 35.3678 5.13731 35.1465 4.28249 34.8649C3.66031 34.66 3.14128 34.4293 2.73999 34.1762Z" stroke="#546DDB"/>
<path d="M2.73999 34.1762C4.67146 32.044 5.83526 30.9324 8.57442 29.5235C9.67846 29.7291 12.1836 30.0833 14 30.0833C15.8063 30.0833 18.2939 29.733 19.4072 29.5269C21.9027 31.0216 23.2893 32.1129 25.1888 34.1151C24.1782 34.5792 22.5832 35.0152 20.7406 35.3519C18.5427 35.7535 16.073 36 14 36C11.9087 36 9.43586 35.8757 7.24591 35.5371C6.15083 35.3678 5.13731 35.1465 4.28249 34.8649C3.66031 34.66 3.14128 34.4293 2.73999 34.1762Z" stroke="white" stroke-opacity="0.6"/>
<path d="M10.4511 15.9279C11.3968 15.2385 12.0297 14.2484 12.4249 13.3349C12.6929 12.7152 12.863 12.1041 12.944 11.6076C12.9859 11.6129 13.0278 11.6177 13.0693 11.6221C13.358 11.6527 13.6893 11.6682 14.0153 11.6691C14.341 11.6699 14.6708 11.6562 14.956 11.6259C14.9863 11.6227 15.0171 11.6192 15.0481 11.6153C15.2133 12.7633 15.8433 14.5391 17.5238 15.9111L17.5692 15.9482C19.055 17.1612 20.3538 18.2215 21.0302 19.3605C21.3614 19.9182 21.527 20.4714 21.4964 21.0533C21.4656 21.6377 21.2343 22.302 20.6835 23.0749C19.6187 24.5691 19.1805 25.6708 19.0259 26.6365C18.9493 27.115 18.9449 27.5441 18.9579 27.9457C18.963 28.1045 18.9703 28.251 18.9774 28.3932C18.9825 28.4962 18.9875 28.5969 18.9915 28.6984C15.8212 29.3948 12.778 29.402 9.01715 28.687C9.02069 28.6356 9.02459 28.5826 9.02865 28.5273C9.03803 28.3996 9.04829 28.2599 9.05705 28.1013C9.07899 27.7041 9.08556 27.2463 9.01693 26.7324C8.87814 25.6931 8.43918 24.4782 7.29604 23.0523C6.69547 22.3032 6.48546 21.6052 6.50078 20.9643C6.51634 20.313 6.76618 19.6679 7.17678 19.0393C8.00708 17.7683 9.41246 16.685 10.4511 15.9279Z" fill="#546DDB"/>
<path d="M10.4511 15.9279C11.3968 15.2385 12.0297 14.2484 12.4249 13.3349C12.6929 12.7152 12.863 12.1041 12.944 11.6076C12.9859 11.6129 13.0278 11.6177 13.0693 11.6221C13.358 11.6527 13.6893 11.6682 14.0153 11.6691C14.341 11.6699 14.6708 11.6562 14.956 11.6259C14.9863 11.6227 15.0171 11.6192 15.0481 11.6153C15.2133 12.7633 15.8433 14.5391 17.5238 15.9111L17.5692 15.9482C19.055 17.1612 20.3538 18.2215 21.0302 19.3605C21.3614 19.9182 21.527 20.4714 21.4964 21.0533C21.4656 21.6377 21.2343 22.302 20.6835 23.0749C19.6187 24.5691 19.1805 25.6708 19.0259 26.6365C18.9493 27.115 18.9449 27.5441 18.9579 27.9457C18.963 28.1045 18.9703 28.251 18.9774 28.3932C18.9825 28.4962 18.9875 28.5969 18.9915 28.6984C15.8212 29.3948 12.778 29.402 9.01715 28.687C9.02069 28.6356 9.02459 28.5826 9.02865 28.5273C9.03803 28.3996 9.04829 28.2599 9.05705 28.1013C9.07899 27.7041 9.08556 27.2463 9.01693 26.7324C8.87814 25.6931 8.43918 24.4782 7.29604 23.0523C6.69547 22.3032 6.48546 21.6052 6.50078 20.9643C6.51634 20.313 6.76618 19.6679 7.17678 19.0393C8.00708 17.7683 9.41246 16.685 10.4511 15.9279Z" fill="black" fill-opacity="0.4"/>
<path d="M10.4511 15.9279C11.3968 15.2385 12.0297 14.2484 12.4249 13.3349C12.6929 12.7152 12.863 12.1041 12.944 11.6076C12.9859 11.6129 13.0278 11.6177 13.0693 11.6221C13.358 11.6527 13.6893 11.6682 14.0153 11.6691C14.341 11.6699 14.6708 11.6562 14.956 11.6259C14.9863 11.6227 15.0171 11.6192 15.0481 11.6153C15.2133 12.7633 15.8433 14.5391 17.5238 15.9111L17.5692 15.9482C19.055 17.1612 20.3538 18.2215 21.0302 19.3605C21.3614 19.9182 21.527 20.4714 21.4964 21.0533C21.4656 21.6377 21.2343 22.302 20.6835 23.0749C19.6187 24.5691 19.1805 25.6708 19.0259 26.6365C18.9493 27.115 18.9449 27.5441 18.9579 27.9457C18.963 28.1045 18.9703 28.251 18.9774 28.3932C18.9825 28.4962 18.9875 28.5969 18.9915 28.6984C15.8212 29.3948 12.778 29.402 9.01715 28.687C9.02069 28.6356 9.02459 28.5826 9.02865 28.5273C9.03803 28.3996 9.04829 28.2599 9.05705 28.1013C9.07899 27.7041 9.08556 27.2463 9.01693 26.7324C8.87814 25.6931 8.43918 24.4782 7.29604 23.0523C6.69547 22.3032 6.48546 21.6052 6.50078 20.9643C6.51634 20.313 6.76618 19.6679 7.17678 19.0393C8.00708 17.7683 9.41246 16.685 10.4511 15.9279Z" stroke="#546DDB"/>
<path d="M10.4511 15.9279C11.3968 15.2385 12.0297 14.2484 12.4249 13.3349C12.6929 12.7152 12.863 12.1041 12.944 11.6076C12.9859 11.6129 13.0278 11.6177 13.0693 11.6221C13.358 11.6527 13.6893 11.6682 14.0153 11.6691C14.341 11.6699 14.6708 11.6562 14.956 11.6259C14.9863 11.6227 15.0171 11.6192 15.0481 11.6153C15.2133 12.7633 15.8433 14.5391 17.5238 15.9111L17.5692 15.9482C19.055 17.1612 20.3538 18.2215 21.0302 19.3605C21.3614 19.9182 21.527 20.4714 21.4964 21.0533C21.4656 21.6377 21.2343 22.302 20.6835 23.0749C19.6187 24.5691 19.1805 25.6708 19.0259 26.6365C18.9493 27.115 18.9449 27.5441 18.9579 27.9457C18.963 28.1045 18.9703 28.251 18.9774 28.3932C18.9825 28.4962 18.9875 28.5969 18.9915 28.6984C15.8212 29.3948 12.778 29.402 9.01715 28.687C9.02069 28.6356 9.02459 28.5826 9.02865 28.5273C9.03803 28.3996 9.04829 28.2599 9.05705 28.1013C9.07899 27.7041 9.08556 27.2463 9.01693 26.7324C8.87814 25.6931 8.43918 24.4782 7.29604 23.0523C6.69547 22.3032 6.48546 21.6052 6.50078 20.9643C6.51634 20.313 6.76618 19.6679 7.17678 19.0393C8.00708 17.7683 9.41246 16.685 10.4511 15.9279Z" stroke="white" stroke-opacity="0.6"/>
<path d="M12.5 11C12.5 11 12.9091 11.5 14 11.5C15.0909 11.5 15.5 11 15.5 11" stroke="#546DDB" stroke-linecap="round"/>
<path d="M12.5 11C12.5 11 12.9091 11.5 14 11.5C15.0909 11.5 15.5 11 15.5 11" stroke="white" stroke-opacity="0.4" stroke-linecap="round"/>
<path d="M8.5 26C8.5 26 11 26.7 14 26.7C17 26.7 19.5 26 19.5 26" stroke="#546DDB" stroke-linecap="round"/>
<path d="M8.5 26C8.5 26 11 26.7 14 26.7C17 26.7 19.5 26 19.5 26" stroke="white" stroke-opacity="0.6" stroke-linecap="round"/>
<circle cx="23" cy="34" r="1" fill="#546DDB"/>
<circle cx="23" cy="34" r="1" fill="white" fill-opacity="0.6"/>
<circle cx="14" cy="35" r="1" fill="#546DDB"/>
<circle cx="14" cy="35" r="1" fill="white" fill-opacity="0.6"/>
<circle cx="5" cy="34" r="1" fill="#546DDB"/>
<circle cx="5" cy="34" r="1" fill="white" fill-opacity="0.6"/>
<path d="M41.55 39.5455C40.99 38.9636 40.85 37.7273 40.5 37C40.15 37.7273 40.15 38.8182 39.45 39.5455C38.8239 40.1959 38.05 40.6364 37 41C38.05 41.3636 38.89 41.8727 39.45 42.4545C40.01 43.0364 40.2667 44.2727 40.5 45C40.7333 44.1515 40.9239 43.105 41.55 42.4545C42.25 41.7273 42.95 41.3636 44 41C43.3 40.6364 42.25 40.2727 41.55 39.5455Z" fill="#FAA21E"/>
<path d="M41.55 39.5455C40.99 38.9636 40.85 37.7273 40.5 37C40.15 37.7273 40.15 38.8182 39.45 39.5455C38.8239 40.1959 38.05 40.6364 37 41C38.05 41.3636 38.89 41.8727 39.45 42.4545C40.01 43.0364 40.2667 44.2727 40.5 45C40.7333 44.1515 40.9239 43.105 41.55 42.4545C42.25 41.7273 42.95 41.3636 44 41C43.3 40.6364 42.25 40.2727 41.55 39.5455Z" fill="white" fill-opacity="0.2"/>
</g>
<defs>
<clipPath id="clip0_6296_34705">
<rect width="50" height="50" fill="white"/>
</clipPath>
</defs>
</svg>
