<svg width="50" height="50" viewBox="0 0 50 50" fill="none" xmlns="http://www.w3.org/2000/svg">
<g clip-path="url(#clip0_6296_35159)">
<path d="M2.77509 41.8857L28.7736 18.8696L32.6571 22.7532L9.64102 48.7516C8.49008 49.2991 6.20354 49.4483 4.14098 47.3858C2.07842 45.3232 2.22763 43.0367 2.77509 41.8857Z" fill="#546DDB"/>
<path d="M2.77509 41.8857L28.7736 18.8696L32.6571 22.7532L9.64102 48.7516C8.49008 49.2991 6.20354 49.4483 4.14098 47.3858C2.07842 45.3232 2.22763 43.0367 2.77509 41.8857Z" fill="black" fill-opacity="0.4"/>
<path d="M2.77509 41.8857L28.7736 18.8696L32.6571 22.7532L9.64102 48.7516C8.49008 49.2991 6.20354 49.4483 4.14098 47.3858C2.07842 45.3232 2.22763 43.0367 2.77509 41.8857Z" stroke="#546DDB" stroke-width="0.996296"/>
<path d="M2.77509 41.8857L28.7736 18.8696L32.6571 22.7532L9.64102 48.7516C8.49008 49.2991 6.20354 49.4483 4.14098 47.3858C2.07842 45.3232 2.22763 43.0367 2.77509 41.8857Z" stroke="white" stroke-opacity="0.6" stroke-width="0.996296"/>
<path d="M30.173 6.54092L35.3531 8.02095L43.9005 16.5684C43.9124 16.5998 43.9269 16.6383 43.9439 16.6835C43.996 16.822 44.0709 17.0233 44.162 17.2732C44.3444 17.7733 44.5914 18.4673 44.8501 19.2432C45.3713 20.8069 45.9258 22.6628 46.1082 23.9394C46.2909 25.2183 46.2929 27.2626 46.2455 29.0177C46.2333 29.4684 46.2179 29.8971 46.2019 30.2851C46.0935 30.0805 45.9767 29.8647 45.8528 29.6417C45.1401 28.3587 44.1649 26.79 43.1649 25.79C41.1873 23.8124 39.1486 23.1329 37.6765 22.6422L37.6659 22.6386C36.3484 22.1995 35.2202 22.2136 34.0164 22.2286C33.8612 22.2306 33.7047 22.2325 33.5464 22.2335L29.2945 17.9816C29.2996 17.7205 29.3135 17.48 29.327 17.2461C29.381 16.3129 29.4289 15.4835 28.888 13.8607C28.5151 12.7418 27.8562 11.9504 27.2786 11.3849C27.0573 11.1683 26.8406 10.9782 26.6628 10.8221C26.6117 10.7773 26.5639 10.7354 26.5201 10.6964C26.4178 10.6054 26.3402 10.5334 26.2827 10.473C26.23 10.4177 26.2122 10.3905 26.2092 10.386C26.2087 10.3853 26.2086 10.3851 26.2089 10.3856L25.8998 9.76746L25.4111 10.2562L23.4901 12.1772L20.4058 9.09293L28.7943 0.704457L31.8786 3.7887L29.9576 5.7097L29.3589 6.30834L30.173 6.54092Z" fill="#546DDB"/>
<path d="M30.173 6.54092L35.3531 8.02095L43.9005 16.5684C43.9124 16.5998 43.9269 16.6383 43.9439 16.6835C43.996 16.822 44.0709 17.0233 44.162 17.2732C44.3444 17.7733 44.5914 18.4673 44.8501 19.2432C45.3713 20.8069 45.9258 22.6628 46.1082 23.9394C46.2909 25.2183 46.2929 27.2626 46.2455 29.0177C46.2333 29.4684 46.2179 29.8971 46.2019 30.2851C46.0935 30.0805 45.9767 29.8647 45.8528 29.6417C45.1401 28.3587 44.1649 26.79 43.1649 25.79C41.1873 23.8124 39.1486 23.1329 37.6765 22.6422L37.6659 22.6386C36.3484 22.1995 35.2202 22.2136 34.0164 22.2286C33.8612 22.2306 33.7047 22.2325 33.5464 22.2335L29.2945 17.9816C29.2996 17.7205 29.3135 17.48 29.327 17.2461C29.381 16.3129 29.4289 15.4835 28.888 13.8607C28.5151 12.7418 27.8562 11.9504 27.2786 11.3849C27.0573 11.1683 26.8406 10.9782 26.6628 10.8221C26.6117 10.7773 26.5639 10.7354 26.5201 10.6964C26.4178 10.6054 26.3402 10.5334 26.2827 10.473C26.23 10.4177 26.2122 10.3905 26.2092 10.386C26.2087 10.3853 26.2086 10.3851 26.2089 10.3856L25.8998 9.76746L25.4111 10.2562L23.4901 12.1772L20.4058 9.09293L28.7943 0.704457L31.8786 3.7887L29.9576 5.7097L29.3589 6.30834L30.173 6.54092Z" fill="black" fill-opacity="0.4"/>
<path d="M30.173 6.54092L35.3531 8.02095L43.9005 16.5684C43.9124 16.5998 43.9269 16.6383 43.9439 16.6835C43.996 16.822 44.0709 17.0233 44.162 17.2732C44.3444 17.7733 44.5914 18.4673 44.8501 19.2432C45.3713 20.8069 45.9258 22.6628 46.1082 23.9394C46.2909 25.2183 46.2929 27.2626 46.2455 29.0177C46.2333 29.4684 46.2179 29.8971 46.2019 30.2851C46.0935 30.0805 45.9767 29.8647 45.8528 29.6417C45.1401 28.3587 44.1649 26.79 43.1649 25.79C41.1873 23.8124 39.1486 23.1329 37.6765 22.6422L37.6659 22.6386C36.3484 22.1995 35.2202 22.2136 34.0164 22.2286C33.8612 22.2306 33.7047 22.2325 33.5464 22.2335L29.2945 17.9816C29.2996 17.7205 29.3135 17.48 29.327 17.2461C29.381 16.3129 29.4289 15.4835 28.888 13.8607C28.5151 12.7418 27.8562 11.9504 27.2786 11.3849C27.0573 11.1683 26.8406 10.9782 26.6628 10.8221C26.6117 10.7773 26.5639 10.7354 26.5201 10.6964C26.4178 10.6054 26.3402 10.5334 26.2827 10.473C26.23 10.4177 26.2122 10.3905 26.2092 10.386C26.2087 10.3853 26.2086 10.3851 26.2089 10.3856L25.8998 9.76746L25.4111 10.2562L23.4901 12.1772L20.4058 9.09293L28.7943 0.704457L31.8786 3.7887L29.9576 5.7097L29.3589 6.30834L30.173 6.54092Z" stroke="#546DDB" stroke-width="0.996296"/>
<path d="M30.173 6.54092L35.3531 8.02095L43.9005 16.5684C43.9124 16.5998 43.9269 16.6383 43.9439 16.6835C43.996 16.822 44.0709 17.0233 44.162 17.2732C44.3444 17.7733 44.5914 18.4673 44.8501 19.2432C45.3713 20.8069 45.9258 22.6628 46.1082 23.9394C46.2909 25.2183 46.2929 27.2626 46.2455 29.0177C46.2333 29.4684 46.2179 29.8971 46.2019 30.2851C46.0935 30.0805 45.9767 29.8647 45.8528 29.6417C45.1401 28.3587 44.1649 26.79 43.1649 25.79C41.1873 23.8124 39.1486 23.1329 37.6765 22.6422L37.6659 22.6386C36.3484 22.1995 35.2202 22.2136 34.0164 22.2286C33.8612 22.2306 33.7047 22.2325 33.5464 22.2335L29.2945 17.9816C29.2996 17.7205 29.3135 17.48 29.327 17.2461C29.381 16.3129 29.4289 15.4835 28.888 13.8607C28.5151 12.7418 27.8562 11.9504 27.2786 11.3849C27.0573 11.1683 26.8406 10.9782 26.6628 10.8221C26.6117 10.7773 26.5639 10.7354 26.5201 10.6964C26.4178 10.6054 26.3402 10.5334 26.2827 10.473C26.23 10.4177 26.2122 10.3905 26.2092 10.386C26.2087 10.3853 26.2086 10.3851 26.2089 10.3856L25.8998 9.76746L25.4111 10.2562L23.4901 12.1772L20.4058 9.09293L28.7943 0.704457L31.8786 3.7887L29.9576 5.7097L29.3589 6.30834L30.173 6.54092Z" stroke="white" stroke-opacity="0.6" stroke-width="0.996296"/>
<path d="M36.69 15.8901C36.7035 15.1836 37.3819 14.332 37.6153 13.6655C36.9488 13.8989 36.2738 14.5739 35.3907 14.5908C34.6009 14.6059 33.8495 14.3995 32.9749 13.9749C33.3996 14.8495 33.6043 15.6842 33.5908 16.3907C33.5773 17.0972 32.9711 18.0209 32.6655 18.6153C33.3349 18.2347 34.1003 17.7051 34.8901 17.69C35.7732 17.6731 36.4313 17.8812 37.3059 18.3059C37.0978 17.6478 36.6731 16.7732 36.69 15.8901Z" fill="#FAA21E"/>
<path d="M36.69 15.8901C36.7035 15.1836 37.3819 14.332 37.6153 13.6655C36.9488 13.8989 36.2738 14.5739 35.3907 14.5908C34.6009 14.6059 33.8495 14.3995 32.9749 13.9749C33.3996 14.8495 33.6043 15.6842 33.5908 16.3907C33.5773 17.0972 32.9711 18.0209 32.6655 18.6153C33.3349 18.2347 34.1003 17.7051 34.8901 17.69C35.7732 17.6731 36.4313 17.8812 37.3059 18.3059C37.0978 17.6478 36.6731 16.7732 36.69 15.8901Z" fill="white" fill-opacity="0.2"/>
</g>
<defs>
<clipPath id="clip0_6296_35159">
<rect width="50" height="50" fill="white"/>
</clipPath>
</defs>
</svg>
