<svg width="50" height="50" viewBox="0 0 50 50" fill="none" xmlns="http://www.w3.org/2000/svg">
<g clip-path="url(#clip0_6296_35194)">
<path d="M6.06673 49.3596L0.651211 43.9441C2.02815 42.038 5.52292 37.829 7.3667 35.8399C8.54668 34.5669 10.7666 33.0759 12.9241 31.6996C13.3115 31.4525 13.6969 31.209 14.0719 30.972C14.7267 30.5584 15.3497 30.1647 15.8961 29.8069C16.7441 29.2515 17.4659 28.7457 17.8556 28.3514C18.5731 27.6255 19.6316 26.1807 20.5334 24.9093C20.8236 24.5001 21.1026 24.1016 21.3522 23.7452C21.4933 23.5436 21.6251 23.3555 21.744 23.1866C21.9099 22.951 22.0508 22.7529 22.1609 22.603C22.216 22.528 22.2616 22.4676 22.2975 22.4219C22.3154 22.3991 22.3298 22.3815 22.3408 22.3685C22.3512 22.3561 22.3559 22.3512 22.3559 22.3512L22.3556 22.3514C22.5154 22.1898 22.9348 21.8916 23.4289 21.5942C23.8351 21.3497 24.2315 21.1419 24.4992 21.0324C24.7514 21.137 25.1267 21.3366 25.5614 21.618C26.0835 21.956 26.6572 22.3896 27.1559 22.8627C27.6522 23.3336 28.1365 23.919 28.4898 24.4476C28.6665 24.7119 28.8039 24.9523 28.8933 25.149C28.9379 25.2472 28.9673 25.3273 28.9842 25.3888C28.9881 25.4031 28.9911 25.4154 28.9934 25.4258C28.8929 25.672 28.6731 26.1054 28.4139 26.5496C28.2701 26.7962 28.1209 27.0344 27.9837 27.2318C27.8402 27.4382 27.7302 27.5701 27.6655 27.6283C27.5837 27.702 27.2629 27.9339 26.7564 28.2917C26.6086 28.3961 26.4478 28.5093 26.2774 28.6292C25.8865 28.9044 25.4449 29.2151 24.993 29.5375C23.7109 30.4521 22.2796 31.5055 21.6443 32.1486C21.1943 32.6041 20.6744 33.3205 20.1171 34.1504C19.7123 34.7532 19.2744 35.4363 18.8163 36.151C18.6391 36.4274 18.4589 36.7085 18.2764 36.9916C16.9556 39.0401 15.5092 41.196 14.1 42.6218C11.8014 44.9475 7.84052 48.1618 6.06673 49.3596Z" fill="#546DDB"/>
<path d="M6.06673 49.3596L0.651211 43.9441C2.02815 42.038 5.52292 37.829 7.3667 35.8399C8.54668 34.5669 10.7666 33.0759 12.9241 31.6996C13.3115 31.4525 13.6969 31.209 14.0719 30.972C14.7267 30.5584 15.3497 30.1647 15.8961 29.8069C16.7441 29.2515 17.4659 28.7457 17.8556 28.3514C18.5731 27.6255 19.6316 26.1807 20.5334 24.9093C20.8236 24.5001 21.1026 24.1016 21.3522 23.7452C21.4933 23.5436 21.6251 23.3555 21.744 23.1866C21.9099 22.951 22.0508 22.7529 22.1609 22.603C22.216 22.528 22.2616 22.4676 22.2975 22.4219C22.3154 22.3991 22.3298 22.3815 22.3408 22.3685C22.3512 22.3561 22.3559 22.3512 22.3559 22.3512L22.3556 22.3514C22.5154 22.1898 22.9348 21.8916 23.4289 21.5942C23.8351 21.3497 24.2315 21.1419 24.4992 21.0324C24.7514 21.137 25.1267 21.3366 25.5614 21.618C26.0835 21.956 26.6572 22.3896 27.1559 22.8627C27.6522 23.3336 28.1365 23.919 28.4898 24.4476C28.6665 24.7119 28.8039 24.9523 28.8933 25.149C28.9379 25.2472 28.9673 25.3273 28.9842 25.3888C28.9881 25.4031 28.9911 25.4154 28.9934 25.4258C28.8929 25.672 28.6731 26.1054 28.4139 26.5496C28.2701 26.7962 28.1209 27.0344 27.9837 27.2318C27.8402 27.4382 27.7302 27.5701 27.6655 27.6283C27.5837 27.702 27.2629 27.9339 26.7564 28.2917C26.6086 28.3961 26.4478 28.5093 26.2774 28.6292C25.8865 28.9044 25.4449 29.2151 24.993 29.5375C23.7109 30.4521 22.2796 31.5055 21.6443 32.1486C21.1943 32.6041 20.6744 33.3205 20.1171 34.1504C19.7123 34.7532 19.2744 35.4363 18.8163 36.151C18.6391 36.4274 18.4589 36.7085 18.2764 36.9916C16.9556 39.0401 15.5092 41.196 14.1 42.6218C11.8014 44.9475 7.84052 48.1618 6.06673 49.3596Z" fill="black" fill-opacity="0.4"/>
<path d="M6.06673 49.3596L0.651211 43.9441C2.02815 42.038 5.52292 37.829 7.3667 35.8399C8.54668 34.5669 10.7666 33.0759 12.9241 31.6996C13.3115 31.4525 13.6969 31.209 14.0719 30.972C14.7267 30.5584 15.3497 30.1647 15.8961 29.8069C16.7441 29.2515 17.4659 28.7457 17.8556 28.3514C18.5731 27.6255 19.6316 26.1807 20.5334 24.9093C20.8236 24.5001 21.1026 24.1016 21.3522 23.7452C21.4933 23.5436 21.6251 23.3555 21.744 23.1866C21.9099 22.951 22.0508 22.7529 22.1609 22.603C22.216 22.528 22.2616 22.4676 22.2975 22.4219C22.3154 22.3991 22.3298 22.3815 22.3408 22.3685C22.3512 22.3561 22.3559 22.3512 22.3559 22.3512L22.3556 22.3514C22.5154 22.1898 22.9348 21.8916 23.4289 21.5942C23.8351 21.3497 24.2315 21.1419 24.4992 21.0324C24.7514 21.137 25.1267 21.3366 25.5614 21.618C26.0835 21.956 26.6572 22.3896 27.1559 22.8627C27.6522 23.3336 28.1365 23.919 28.4898 24.4476C28.6665 24.7119 28.8039 24.9523 28.8933 25.149C28.9379 25.2472 28.9673 25.3273 28.9842 25.3888C28.9881 25.4031 28.9911 25.4154 28.9934 25.4258C28.8929 25.672 28.6731 26.1054 28.4139 26.5496C28.2701 26.7962 28.1209 27.0344 27.9837 27.2318C27.8402 27.4382 27.7302 27.5701 27.6655 27.6283C27.5837 27.702 27.2629 27.9339 26.7564 28.2917C26.6086 28.3961 26.4478 28.5093 26.2774 28.6292C25.8865 28.9044 25.4449 29.2151 24.993 29.5375C23.7109 30.4521 22.2796 31.5055 21.6443 32.1486C21.1943 32.6041 20.6744 33.3205 20.1171 34.1504C19.7123 34.7532 19.2744 35.4363 18.8163 36.151C18.6391 36.4274 18.4589 36.7085 18.2764 36.9916C16.9556 39.0401 15.5092 41.196 14.1 42.6218C11.8014 44.9475 7.84052 48.1618 6.06673 49.3596Z" stroke="#546DDB"/>
<path d="M6.06673 49.3596L0.651211 43.9441C2.02815 42.038 5.52292 37.829 7.3667 35.8399C8.54668 34.5669 10.7666 33.0759 12.9241 31.6996C13.3115 31.4525 13.6969 31.209 14.0719 30.972C14.7267 30.5584 15.3497 30.1647 15.8961 29.8069C16.7441 29.2515 17.4659 28.7457 17.8556 28.3514C18.5731 27.6255 19.6316 26.1807 20.5334 24.9093C20.8236 24.5001 21.1026 24.1016 21.3522 23.7452C21.4933 23.5436 21.6251 23.3555 21.744 23.1866C21.9099 22.951 22.0508 22.7529 22.1609 22.603C22.216 22.528 22.2616 22.4676 22.2975 22.4219C22.3154 22.3991 22.3298 22.3815 22.3408 22.3685C22.3512 22.3561 22.3559 22.3512 22.3559 22.3512L22.3556 22.3514C22.5154 22.1898 22.9348 21.8916 23.4289 21.5942C23.8351 21.3497 24.2315 21.1419 24.4992 21.0324C24.7514 21.137 25.1267 21.3366 25.5614 21.618C26.0835 21.956 26.6572 22.3896 27.1559 22.8627C27.6522 23.3336 28.1365 23.919 28.4898 24.4476C28.6665 24.7119 28.8039 24.9523 28.8933 25.149C28.9379 25.2472 28.9673 25.3273 28.9842 25.3888C28.9881 25.4031 28.9911 25.4154 28.9934 25.4258C28.8929 25.672 28.6731 26.1054 28.4139 26.5496C28.2701 26.7962 28.1209 27.0344 27.9837 27.2318C27.8402 27.4382 27.7302 27.5701 27.6655 27.6283C27.5837 27.702 27.2629 27.9339 26.7564 28.2917C26.6086 28.3961 26.4478 28.5093 26.2774 28.6292C25.8865 28.9044 25.4449 29.2151 24.993 29.5375C23.7109 30.4521 22.2796 31.5055 21.6443 32.1486C21.1943 32.6041 20.6744 33.3205 20.1171 34.1504C19.7123 34.7532 19.2744 35.4363 18.8163 36.151C18.6391 36.4274 18.4589 36.7085 18.2764 36.9916C16.9556 39.0401 15.5092 41.196 14.1 42.6218C11.8014 44.9475 7.84052 48.1618 6.06673 49.3596Z" stroke="white" stroke-opacity="0.6"/>
<path d="M29.1646 25.3193C29.0666 25.0946 28.9501 24.8578 28.8193 24.6189C28.4397 23.9257 27.9189 23.1763 27.342 22.6353C26.7715 22.1004 26.0249 21.6249 25.3474 21.2621C25.0883 21.1234 24.8334 20.9981 24.5958 20.89L30.6564 16.9939C30.6771 16.9959 30.7029 16.9994 30.7342 17.0053C30.8306 17.0233 30.9572 17.0599 31.1059 17.1237C31.4027 17.2508 31.7718 17.4791 32.1464 17.8536C32.9517 18.6589 33.0453 19.0904 33.0242 19.3154L29.1646 25.3193Z" fill="#546DDB"/>
<path d="M29.1646 25.3193C29.0666 25.0946 28.9501 24.8578 28.8193 24.6189C28.4397 23.9257 27.9189 23.1763 27.342 22.6353C26.7715 22.1004 26.0249 21.6249 25.3474 21.2621C25.0883 21.1234 24.8334 20.9981 24.5958 20.89L30.6564 16.9939C30.6771 16.9959 30.7029 16.9994 30.7342 17.0053C30.8306 17.0233 30.9572 17.0599 31.1059 17.1237C31.4027 17.2508 31.7718 17.4791 32.1464 17.8536C32.9517 18.6589 33.0453 19.0904 33.0242 19.3154L29.1646 25.3193Z" fill="black" fill-opacity="0.4"/>
<path d="M29.1646 25.3193C29.0666 25.0946 28.9501 24.8578 28.8193 24.6189C28.4397 23.9257 27.9189 23.1763 27.342 22.6353C26.7715 22.1004 26.0249 21.6249 25.3474 21.2621C25.0883 21.1234 24.8334 20.9981 24.5958 20.89L30.6564 16.9939C30.6771 16.9959 30.7029 16.9994 30.7342 17.0053C30.8306 17.0233 30.9572 17.0599 31.1059 17.1237C31.4027 17.2508 31.7718 17.4791 32.1464 17.8536C32.9517 18.6589 33.0453 19.0904 33.0242 19.3154L29.1646 25.3193Z" stroke="#546DDB"/>
<path d="M29.1646 25.3193C29.0666 25.0946 28.9501 24.8578 28.8193 24.6189C28.4397 23.9257 27.9189 23.1763 27.342 22.6353C26.7715 22.1004 26.0249 21.6249 25.3474 21.2621C25.0883 21.1234 24.8334 20.9981 24.5958 20.89L30.6564 16.9939C30.6771 16.9959 30.7029 16.9994 30.7342 17.0053C30.8306 17.0233 30.9572 17.0599 31.1059 17.1237C31.4027 17.2508 31.7718 17.4791 32.1464 17.8536C32.9517 18.6589 33.0453 19.0904 33.0242 19.3154L29.1646 25.3193Z" stroke="white" stroke-opacity="0.6"/>
<path d="M30.5574 17.1237C30.5205 17.1021 30.4836 17.0813 30.4467 17.0612C31.0242 16.6043 31.63 16.0771 31.8536 15.8536C32.0107 15.6964 32.0662 15.4973 32.0889 15.3534C32.113 15.2008 32.1115 15.037 32.0997 14.881C32.076 14.5681 32.0033 14.1997 31.9217 13.8411C31.8695 13.6117 31.8096 13.3695 31.7525 13.1387C31.7206 13.01 31.6896 12.8848 31.6613 12.7673C31.6068 12.5406 31.5619 12.3412 31.5316 12.1755L42 1.70711L48.2929 8L37.8287 18.4642C37.6437 18.4271 37.4309 18.3735 37.1959 18.3101C37.082 18.2793 36.9619 18.2459 36.839 18.2118C36.6077 18.1476 36.3668 18.0807 36.1403 18.0236C35.7921 17.936 35.4303 17.8588 35.1136 17.8396C34.8341 17.8227 34.4173 17.8367 34.1327 18.1213C33.9659 18.2881 33.6074 18.6717 33.2477 19.088C33.1291 19.2253 33.0064 19.3706 32.8882 19.5163C32.8804 19.5027 32.8726 19.4891 32.8648 19.4755C32.6174 19.0485 32.2588 18.5516 31.8536 18.1464C31.4085 17.7014 30.9635 17.3602 30.5574 17.1237Z" fill="#546DDB"/>
<path d="M30.5574 17.1237C30.5205 17.1021 30.4836 17.0813 30.4467 17.0612C31.0242 16.6043 31.63 16.0771 31.8536 15.8536C32.0107 15.6964 32.0662 15.4973 32.0889 15.3534C32.113 15.2008 32.1115 15.037 32.0997 14.881C32.076 14.5681 32.0033 14.1997 31.9217 13.8411C31.8695 13.6117 31.8096 13.3695 31.7525 13.1387C31.7206 13.01 31.6896 12.8848 31.6613 12.7673C31.6068 12.5406 31.5619 12.3412 31.5316 12.1755L42 1.70711L48.2929 8L37.8287 18.4642C37.6437 18.4271 37.4309 18.3735 37.1959 18.3101C37.082 18.2793 36.9619 18.2459 36.839 18.2118C36.6077 18.1476 36.3668 18.0807 36.1403 18.0236C35.7921 17.936 35.4303 17.8588 35.1136 17.8396C34.8341 17.8227 34.4173 17.8367 34.1327 18.1213C33.9659 18.2881 33.6074 18.6717 33.2477 19.088C33.1291 19.2253 33.0064 19.3706 32.8882 19.5163C32.8804 19.5027 32.8726 19.4891 32.8648 19.4755C32.6174 19.0485 32.2588 18.5516 31.8536 18.1464C31.4085 17.7014 30.9635 17.3602 30.5574 17.1237Z" fill="black" fill-opacity="0.4"/>
<path d="M30.5574 17.1237C30.5205 17.1021 30.4836 17.0813 30.4467 17.0612C31.0242 16.6043 31.63 16.0771 31.8536 15.8536C32.0107 15.6964 32.0662 15.4973 32.0889 15.3534C32.113 15.2008 32.1115 15.037 32.0997 14.881C32.076 14.5681 32.0033 14.1997 31.9217 13.8411C31.8695 13.6117 31.8096 13.3695 31.7525 13.1387C31.7206 13.01 31.6896 12.8848 31.6613 12.7673C31.6068 12.5406 31.5619 12.3412 31.5316 12.1755L42 1.70711L48.2929 8L37.8287 18.4642C37.6437 18.4271 37.4309 18.3735 37.1959 18.3101C37.082 18.2793 36.9619 18.2459 36.839 18.2118C36.6077 18.1476 36.3668 18.0807 36.1403 18.0236C35.7921 17.936 35.4303 17.8588 35.1136 17.8396C34.8341 17.8227 34.4173 17.8367 34.1327 18.1213C33.9659 18.2881 33.6074 18.6717 33.2477 19.088C33.1291 19.2253 33.0064 19.3706 32.8882 19.5163C32.8804 19.5027 32.8726 19.4891 32.8648 19.4755C32.6174 19.0485 32.2588 18.5516 31.8536 18.1464C31.4085 17.7014 30.9635 17.3602 30.5574 17.1237Z" stroke="#546DDB"/>
<path d="M30.5574 17.1237C30.5205 17.1021 30.4836 17.0813 30.4467 17.0612C31.0242 16.6043 31.63 16.0771 31.8536 15.8536C32.0107 15.6964 32.0662 15.4973 32.0889 15.3534C32.113 15.2008 32.1115 15.037 32.0997 14.881C32.076 14.5681 32.0033 14.1997 31.9217 13.8411C31.8695 13.6117 31.8096 13.3695 31.7525 13.1387C31.7206 13.01 31.6896 12.8848 31.6613 12.7673C31.6068 12.5406 31.5619 12.3412 31.5316 12.1755L42 1.70711L48.2929 8L37.8287 18.4642C37.6437 18.4271 37.4309 18.3735 37.1959 18.3101C37.082 18.2793 36.9619 18.2459 36.839 18.2118C36.6077 18.1476 36.3668 18.0807 36.1403 18.0236C35.7921 17.936 35.4303 17.8588 35.1136 17.8396C34.8341 17.8227 34.4173 17.8367 34.1327 18.1213C33.9659 18.2881 33.6074 18.6717 33.2477 19.088C33.1291 19.2253 33.0064 19.3706 32.8882 19.5163C32.8804 19.5027 32.8726 19.4891 32.8648 19.4755C32.6174 19.0485 32.2588 18.5516 31.8536 18.1464C31.4085 17.7014 30.9635 17.3602 30.5574 17.1237Z" stroke="white" stroke-opacity="0.6"/>
<path d="M40.6601 10.6557C40.6911 9.89576 41.4394 8.94635 41.7056 8.21824C40.9845 8.5027 40.2439 9.26213 39.2952 9.32477C38.4467 9.38079 37.6448 9.1969 36.7155 8.78457C37.1511 9.70319 37.3514 10.59 37.3204 11.3499C37.2894 12.1099 36.6169 13.1332 36.2748 13.7874C37.0025 13.3446 37.8367 12.7369 38.6852 12.6809C39.6339 12.6182 40.3357 12.8087 41.265 13.221C41.0569 12.5243 40.6213 11.6056 40.6601 10.6557Z" fill="#FAA21E"/>
<path d="M40.6601 10.6557C40.6911 9.89576 41.4394 8.94635 41.7056 8.21824C40.9845 8.5027 40.2439 9.26213 39.2952 9.32477C38.4467 9.38079 37.6448 9.1969 36.7155 8.78457C37.1511 9.70319 37.3514 10.59 37.3204 11.3499C37.2894 12.1099 36.6169 13.1332 36.2748 13.7874C37.0025 13.3446 37.8367 12.7369 38.6852 12.6809C39.6339 12.6182 40.3357 12.8087 41.265 13.221C41.0569 12.5243 40.6213 11.6056 40.6601 10.6557Z" fill="white" fill-opacity="0.2"/>
<path d="M48 8.29293L41.7071 2.00003L43 0.707105L49.2929 7L48 8.29293Z" fill="#546DDB"/>
<path d="M48 8.29293L41.7071 2.00003L43 0.707105L49.2929 7L48 8.29293Z" fill="black" fill-opacity="0.4"/>
<path d="M48 8.29293L41.7071 2.00003L43 0.707105L49.2929 7L48 8.29293Z" stroke="#546DDB"/>
<path d="M48 8.29293L41.7071 2.00003L43 0.707105L49.2929 7L48 8.29293Z" stroke="white" stroke-opacity="0.6"/>
</g>
<defs>
<clipPath id="clip0_6296_35194">
<rect width="50" height="50" fill="white"/>
</clipPath>
</defs>
</svg>
