<svg width="50" height="50" viewBox="0 0 50 50" fill="none" xmlns="http://www.w3.org/2000/svg">
<g clip-path="url(#clip0_6296_35126)">
<path d="M1.08224 42.5752L19.0413 27.3115L22.5363 30.8064L7.27251 48.7655C6.48163 49.0129 4.72456 48.8871 2.84259 47.0051C0.960607 45.1232 0.834806 43.3661 1.08224 42.5752Z" fill="#546DDB"/>
<path d="M1.08224 42.5752L19.0413 27.3115L22.5363 30.8064L7.27251 48.7655C6.48163 49.0129 4.72456 48.8871 2.84259 47.0051C0.960607 45.1232 0.834806 43.3661 1.08224 42.5752Z" fill="black" fill-opacity="0.4"/>
<path d="M1.08224 42.5752L19.0413 27.3115L22.5363 30.8064L7.27251 48.7655C6.48163 49.0129 4.72456 48.8871 2.84259 47.0051C0.960607 45.1232 0.834806 43.3661 1.08224 42.5752Z" stroke="#546DDB" stroke-width="0.996296"/>
<path d="M1.08224 42.5752L19.0413 27.3115L22.5363 30.8064L7.27251 48.7655C6.48163 49.0129 4.72456 48.8871 2.84259 47.0051C0.960607 45.1232 0.834806 43.3661 1.08224 42.5752Z" stroke="white" stroke-opacity="0.6" stroke-width="0.996296"/>
<path d="M8.0382 43.2825C8.05137 42.5934 8.71308 41.7627 8.94078 41.1125C8.2906 41.3402 7.63218 41.9986 6.77076 42.015C6.00028 42.0298 5.26738 41.8285 4.41418 41.4142C4.82844 42.2674 5.02816 43.0817 5.01499 43.7708C5.00182 44.46 4.41053 45.3611 4.11241 45.9408C4.76534 45.5696 5.51195 45.053 6.28243 45.0383C7.14386 45.0218 7.78581 45.2248 8.63901 45.6391C8.436 44.9971 8.02174 44.1439 8.0382 43.2825Z" fill="#FAA21E"/>
<path d="M8.0382 43.2825C8.05137 42.5934 8.71308 41.7627 8.94078 41.1125C8.2906 41.3402 7.63218 41.9986 6.77076 42.015C6.00028 42.0298 5.26738 41.8285 4.41418 41.4142C4.82844 42.2674 5.02816 43.0817 5.01499 43.7708C5.00182 44.46 4.41053 45.3611 4.11241 45.9408C4.76534 45.5696 5.51195 45.053 6.28243 45.0383C7.14386 45.0218 7.78581 45.2248 8.63901 45.6391C8.436 44.9971 8.02174 44.1439 8.0382 43.2825Z" fill="white" fill-opacity="0.2"/>
<path d="M19.2397 26.7917L20.5854 11.3161L30.6028 1.29881C30.599 1.30253 30.5993 1.30232 30.6048 1.29862C30.6171 1.29029 30.6556 1.26421 30.7331 1.22541C30.8316 1.17612 30.9641 1.12063 31.121 1.06868C31.4374 0.963891 31.8225 0.883464 32.1933 0.883464C32.469 0.883464 32.8457 0.955178 33.2014 1.07377C33.5739 1.19792 33.8262 1.34113 33.9134 1.42833L48.4194 15.9344C48.4469 15.9619 48.5043 16.0409 48.5769 16.1909C48.6452 16.3321 48.7125 16.5056 48.772 16.6921C48.8948 17.0767 48.9643 17.4523 48.9643 17.6545C48.9643 17.859 48.894 18.2364 48.7844 18.613C48.7316 18.7949 48.6742 18.9602 48.6208 19.0871C48.57 19.2078 48.5402 19.2508 48.5416 19.2518C48.5418 19.252 48.5432 19.2508 48.5456 19.2484L38.5316 29.2623L23.0561 30.608L19.2397 26.7917Z" fill="#546DDB"/>
<path d="M19.2397 26.7917L20.5854 11.3161L30.6028 1.29881C30.599 1.30253 30.5993 1.30232 30.6048 1.29862C30.6171 1.29029 30.6556 1.26421 30.7331 1.22541C30.8316 1.17612 30.9641 1.12063 31.121 1.06868C31.4374 0.963891 31.8225 0.883464 32.1933 0.883464C32.469 0.883464 32.8457 0.955178 33.2014 1.07377C33.5739 1.19792 33.8262 1.34113 33.9134 1.42833L48.4194 15.9344C48.4469 15.9619 48.5043 16.0409 48.5769 16.1909C48.6452 16.3321 48.7125 16.5056 48.772 16.6921C48.8948 17.0767 48.9643 17.4523 48.9643 17.6545C48.9643 17.859 48.894 18.2364 48.7844 18.613C48.7316 18.7949 48.6742 18.9602 48.6208 19.0871C48.57 19.2078 48.5402 19.2508 48.5416 19.2518C48.5418 19.252 48.5432 19.2508 48.5456 19.2484L38.5316 29.2623L23.0561 30.608L19.2397 26.7917Z" fill="black" fill-opacity="0.4"/>
<path d="M19.2397 26.7917L20.5854 11.3161L30.6028 1.29881C30.599 1.30253 30.5993 1.30232 30.6048 1.29862C30.6171 1.29029 30.6556 1.26421 30.7331 1.22541C30.8316 1.17612 30.9641 1.12063 31.121 1.06868C31.4374 0.963891 31.8225 0.883464 32.1933 0.883464C32.469 0.883464 32.8457 0.955178 33.2014 1.07377C33.5739 1.19792 33.8262 1.34113 33.9134 1.42833L48.4194 15.9344C48.4469 15.9619 48.5043 16.0409 48.5769 16.1909C48.6452 16.3321 48.7125 16.5056 48.772 16.6921C48.8948 17.0767 48.9643 17.4523 48.9643 17.6545C48.9643 17.859 48.894 18.2364 48.7844 18.613C48.7316 18.7949 48.6742 18.9602 48.6208 19.0871C48.57 19.2078 48.5402 19.2508 48.5416 19.2518C48.5418 19.252 48.5432 19.2508 48.5456 19.2484L38.5316 29.2623L23.0561 30.608L19.2397 26.7917Z" stroke="#546DDB" stroke-width="0.996296"/>
<path d="M19.2397 26.7917L20.5854 11.3161L30.6028 1.29881C30.599 1.30253 30.5993 1.30232 30.6048 1.29862C30.6171 1.29029 30.6556 1.26421 30.7331 1.22541C30.8316 1.17612 30.9641 1.12063 31.121 1.06868C31.4374 0.963891 31.8225 0.883464 32.1933 0.883464C32.469 0.883464 32.8457 0.955178 33.2014 1.07377C33.5739 1.19792 33.8262 1.34113 33.9134 1.42833L48.4194 15.9344C48.4469 15.9619 48.5043 16.0409 48.5769 16.1909C48.6452 16.3321 48.7125 16.5056 48.772 16.6921C48.8948 17.0767 48.9643 17.4523 48.9643 17.6545C48.9643 17.859 48.894 18.2364 48.7844 18.613C48.7316 18.7949 48.6742 18.9602 48.6208 19.0871C48.57 19.2078 48.5402 19.2508 48.5416 19.2518C48.5418 19.252 48.5432 19.2508 48.5456 19.2484L38.5316 29.2623L23.0561 30.608L19.2397 26.7917Z" stroke="white" stroke-opacity="0.6" stroke-width="0.996296"/>
<path d="M32.5387 8.32918C31.986 7.77657 31.2722 7.75354 30.8117 7.9838L27.3579 11.4376C27.2428 11.783 27.1507 12.6119 27.7033 13.1645C28.2559 13.7172 29.0848 13.6251 29.4302 13.5099L32.884 10.0561C33.1143 9.59558 33.0913 8.88179 32.5387 8.32918Z" fill="#546DDB"/>
<path d="M32.5387 8.32918C31.986 7.77657 31.2722 7.75354 30.8117 7.9838L27.3579 11.4376C27.2428 11.783 27.1507 12.6119 27.7033 13.1645C28.2559 13.7172 29.0848 13.6251 29.4302 13.5099L32.884 10.0561C33.1143 9.59558 33.0913 8.88179 32.5387 8.32918Z" fill="white" fill-opacity="0.6"/>
<path d="M37.0287 12.819C36.4761 12.2664 35.7623 12.2434 35.3018 12.4737L31.848 15.9275C31.7328 16.2729 31.6407 17.1018 32.1933 17.6544C32.746 18.207 33.5749 18.1149 33.9203 17.9998L37.3741 14.546C37.6043 14.0855 37.5813 13.3717 37.0287 12.819Z" fill="#546DDB"/>
<path d="M37.0287 12.819C36.4761 12.2664 35.7623 12.2434 35.3018 12.4737L31.848 15.9275C31.7328 16.2729 31.6407 17.1018 32.1933 17.6544C32.746 18.207 33.5749 18.1149 33.9203 17.9998L37.3741 14.546C37.6043 14.0855 37.5813 13.3717 37.0287 12.819Z" fill="white" fill-opacity="0.6"/>
<path d="M41.5186 17.3092C40.966 16.7566 40.2522 16.7336 39.7917 16.9638L36.3379 20.4177C36.2228 20.7631 36.1307 21.592 36.6833 22.1446C37.2359 22.6972 38.0648 22.6051 38.4102 22.49L41.864 19.0361C42.0943 18.5756 42.0712 17.8618 41.5186 17.3092Z" fill="#546DDB"/>
<path d="M41.5186 17.3092C40.966 16.7566 40.2522 16.7336 39.7917 16.9638L36.3379 20.4177C36.2228 20.7631 36.1307 21.592 36.6833 22.1446C37.2359 22.6972 38.0648 22.6051 38.4102 22.49L41.864 19.0361C42.0943 18.5756 42.0712 17.8618 41.5186 17.3092Z" fill="white" fill-opacity="0.6"/>
</g>
<defs>
<clipPath id="clip0_6296_35126">
<rect width="50" height="50" fill="white"/>
</clipPath>
</defs>
</svg>
