<svg width="50" height="50" viewBox="0 0 50 50" fill="none" xmlns="http://www.w3.org/2000/svg">
<g clip-path="url(#clip0_6296_35164)">
<line x1="42.2983" y1="7.19974" x2="48.7129" y2="13.6144" stroke="#546DDB" stroke-width="1.98521" stroke-linecap="round"/>
<line x1="42.2983" y1="7.19974" x2="48.7129" y2="13.6144" stroke="white" stroke-opacity="0.6" stroke-width="1.98521" stroke-linecap="round"/>
<line x1="36.9101" y1="19.0911" x2="43.3247" y2="25.5058" stroke="#546DDB" stroke-width="1.98521" stroke-linecap="round"/>
<line x1="36.9101" y1="19.0911" x2="43.3247" y2="25.5058" stroke="white" stroke-opacity="0.6" stroke-width="1.98521" stroke-linecap="round"/>
<line x1="23.2278" y1="28.8645" x2="29.6424" y2="35.2792" stroke="#546DDB" stroke-width="1.98521" stroke-linecap="round"/>
<line x1="23.2278" y1="28.8645" x2="29.6424" y2="35.2792" stroke="white" stroke-opacity="0.6" stroke-width="1.98521" stroke-linecap="round"/>
<line x1="19.0323" y1="30.5329" x2="25.4469" y2="36.9475" stroke="#546DDB" stroke-width="1.98521" stroke-linecap="round"/>
<line x1="19.0323" y1="30.5329" x2="25.4469" y2="36.9475" stroke="white" stroke-opacity="0.6" stroke-width="1.98521" stroke-linecap="round"/>
<line x1="27.1371" y1="26.9099" x2="33.5517" y2="33.3245" stroke="#546DDB" stroke-width="1.98521" stroke-linecap="round"/>
<line x1="27.1371" y1="26.9099" x2="33.5517" y2="33.3245" stroke="white" stroke-opacity="0.6" stroke-width="1.98521" stroke-linecap="round"/>
<line x1="31.0463" y1="24.9551" x2="37.4609" y2="31.3698" stroke="#546DDB" stroke-width="1.98521" stroke-linecap="round"/>
<line x1="31.0463" y1="24.9551" x2="37.4609" y2="31.3698" stroke="white" stroke-opacity="0.6" stroke-width="1.98521" stroke-linecap="round"/>
<line x1="33.9781" y1="22.0234" x2="40.3927" y2="28.438" stroke="#546DDB" stroke-width="1.98521" stroke-linecap="round"/>
<line x1="33.9781" y1="22.0234" x2="40.3927" y2="28.438" stroke="white" stroke-opacity="0.6" stroke-width="1.98521" stroke-linecap="round"/>
<line x1="38.8646" y1="15.1827" x2="45.2793" y2="21.5974" stroke="#546DDB" stroke-width="1.98521" stroke-linecap="round"/>
<line x1="38.8646" y1="15.1827" x2="45.2793" y2="21.5974" stroke="white" stroke-opacity="0.6" stroke-width="1.98521" stroke-linecap="round"/>
<line x1="40.8192" y1="11.273" x2="47.2339" y2="17.6876" stroke="#546DDB" stroke-width="1.98521" stroke-linecap="round"/>
<line x1="40.8192" y1="11.273" x2="47.2339" y2="17.6876" stroke="white" stroke-opacity="0.6" stroke-width="1.98521" stroke-linecap="round"/>
<path d="M14.392 30.3621L14.5379 30.2162L14.5374 30.01C14.5329 28.1163 14.6158 25.8603 15.7813 22.9815C16.9502 20.0944 19.2222 16.5482 23.6506 12.1198C28.0725 7.69794 32.3004 5.09491 35.7529 3.95462C39.2399 2.80296 41.7915 3.17908 43.06 4.44754C43.6743 5.06187 44.0368 6.04852 44.0733 7.37854C44.1097 8.70416 43.8191 10.3201 43.1856 12.1156C41.9194 15.7044 39.3098 19.9348 35.3877 23.8569C30.868 28.3766 27.4576 30.5414 24.6717 31.6419C22.3262 32.5684 20.4079 32.7509 18.5521 32.9274C18.2006 32.9608 17.8513 32.9941 17.5017 33.0321L17.328 33.051L17.2045 33.1746C15.7454 34.6337 13.4179 37.4549 11.2824 40.0778C10.946 40.491 10.6148 40.8987 10.2924 41.2954C8.54633 43.4447 7.06101 45.273 6.43405 45.9C6.0242 46.3099 5.25715 46.7729 4.37064 46.8961C3.5099 47.0157 2.52607 46.8186 1.60749 45.9C0.688923 44.9814 0.491835 43.9976 0.61143 43.1369C0.734604 42.2503 1.19764 41.4833 1.6075 41.0734C2.22291 40.458 3.98271 39.0497 6.07826 37.3728C6.50601 37.0305 6.94775 36.677 7.3966 36.3167C10.0148 34.2154 12.8518 31.9023 14.392 30.3621Z" fill="#546DDB"/>
<path d="M14.392 30.3621L14.5379 30.2162L14.5374 30.01C14.5329 28.1163 14.6158 25.8603 15.7813 22.9815C16.9502 20.0944 19.2222 16.5482 23.6506 12.1198C28.0725 7.69794 32.3004 5.09491 35.7529 3.95462C39.2399 2.80296 41.7915 3.17908 43.06 4.44754C43.6743 5.06187 44.0368 6.04852 44.0733 7.37854C44.1097 8.70416 43.8191 10.3201 43.1856 12.1156C41.9194 15.7044 39.3098 19.9348 35.3877 23.8569C30.868 28.3766 27.4576 30.5414 24.6717 31.6419C22.3262 32.5684 20.4079 32.7509 18.5521 32.9274C18.2006 32.9608 17.8513 32.9941 17.5017 33.0321L17.328 33.051L17.2045 33.1746C15.7454 34.6337 13.4179 37.4549 11.2824 40.0778C10.946 40.491 10.6148 40.8987 10.2924 41.2954C8.54633 43.4447 7.06101 45.273 6.43405 45.9C6.0242 46.3099 5.25715 46.7729 4.37064 46.8961C3.5099 47.0157 2.52607 46.8186 1.60749 45.9C0.688923 44.9814 0.491835 43.9976 0.61143 43.1369C0.734604 42.2503 1.19764 41.4833 1.6075 41.0734C2.22291 40.458 3.98271 39.0497 6.07826 37.3728C6.50601 37.0305 6.94775 36.677 7.3966 36.3167C10.0148 34.2154 12.8518 31.9023 14.392 30.3621Z" fill="black" fill-opacity="0.4"/>
<path d="M14.392 30.3621L14.5379 30.2162L14.5374 30.01C14.5329 28.1163 14.6158 25.8603 15.7813 22.9815C16.9502 20.0944 19.2222 16.5482 23.6506 12.1198C28.0725 7.69794 32.3004 5.09491 35.7529 3.95462C39.2399 2.80296 41.7915 3.17908 43.06 4.44754C43.6743 5.06187 44.0368 6.04852 44.0733 7.37854C44.1097 8.70416 43.8191 10.3201 43.1856 12.1156C41.9194 15.7044 39.3098 19.9348 35.3877 23.8569C30.868 28.3766 27.4576 30.5414 24.6717 31.6419C22.3262 32.5684 20.4079 32.7509 18.5521 32.9274C18.2006 32.9608 17.8513 32.9941 17.5017 33.0321L17.328 33.051L17.2045 33.1746C15.7454 34.6337 13.4179 37.4549 11.2824 40.0778C10.946 40.491 10.6148 40.8987 10.2924 41.2954C8.54633 43.4447 7.06101 45.273 6.43405 45.9C6.0242 46.3099 5.25715 46.7729 4.37064 46.8961C3.5099 47.0157 2.52607 46.8186 1.60749 45.9C0.688923 44.9814 0.491835 43.9976 0.61143 43.1369C0.734604 42.2503 1.19764 41.4833 1.6075 41.0734C2.22291 40.458 3.98271 39.0497 6.07826 37.3728C6.50601 37.0305 6.94775 36.677 7.3966 36.3167C10.0148 34.2154 12.8518 31.9023 14.392 30.3621Z" stroke="#546DDB" stroke-width="0.992606"/>
<path d="M14.392 30.3621L14.5379 30.2162L14.5374 30.01C14.5329 28.1163 14.6158 25.8603 15.7813 22.9815C16.9502 20.0944 19.2222 16.5482 23.6506 12.1198C28.0725 7.69794 32.3004 5.09491 35.7529 3.95462C39.2399 2.80296 41.7915 3.17908 43.06 4.44754C43.6743 5.06187 44.0368 6.04852 44.0733 7.37854C44.1097 8.70416 43.8191 10.3201 43.1856 12.1156C41.9194 15.7044 39.3098 19.9348 35.3877 23.8569C30.868 28.3766 27.4576 30.5414 24.6717 31.6419C22.3262 32.5684 20.4079 32.7509 18.5521 32.9274C18.2006 32.9608 17.8513 32.9941 17.5017 33.0321L17.328 33.051L17.2045 33.1746C15.7454 34.6337 13.4179 37.4549 11.2824 40.0778C10.946 40.491 10.6148 40.8987 10.2924 41.2954C8.54633 43.4447 7.06101 45.273 6.43405 45.9C6.0242 46.3099 5.25715 46.7729 4.37064 46.8961C3.5099 47.0157 2.52607 46.8186 1.60749 45.9C0.688923 44.9814 0.491835 43.9976 0.61143 43.1369C0.734604 42.2503 1.19764 41.4833 1.6075 41.0734C2.22291 40.458 3.98271 39.0497 6.07826 37.3728C6.50601 37.0305 6.94775 36.677 7.3966 36.3167C10.0148 34.2154 12.8518 31.9023 14.392 30.3621Z" stroke="white" stroke-opacity="0.6" stroke-width="0.992606"/>
<path d="M25.2458 22.0173C25.2612 21.2099 26.0365 20.2367 26.3032 19.4749C25.5415 19.7417 24.7701 20.5131 23.7609 20.5324C22.8582 20.5496 21.9995 20.3138 20.9999 19.8285C21.4853 20.828 21.7193 21.782 21.7038 22.5894C21.6884 23.3968 20.9957 24.4525 20.6464 25.1318C21.4113 24.6968 22.2861 24.0916 23.1888 24.0743C24.198 24.055 24.9501 24.2929 25.9497 24.7782C25.7118 24.0261 25.2265 23.0265 25.2458 22.0173Z" fill="#FEFEFE"/>
<path d="M36.895 12.4716C36.9056 11.913 37.4421 11.2396 37.6266 10.7125C37.0996 10.8971 36.5658 11.4308 35.8675 11.4442C35.2429 11.4561 34.6487 11.2929 33.9571 10.9571C34.2929 11.6488 34.4548 12.3089 34.4441 12.8675C34.4335 13.4262 33.9541 14.1567 33.7125 14.6267C34.2418 14.3257 34.847 13.9069 35.4716 13.895C36.1699 13.8816 36.6903 14.0462 37.382 14.382C37.2174 13.8616 36.8816 13.17 36.895 12.4716Z" fill="#FAA21E"/>
<path d="M36.895 12.4716C36.9056 11.913 37.4421 11.2396 37.6266 10.7125C37.0996 10.8971 36.5658 11.4308 35.8675 11.4442C35.2429 11.4561 34.6487 11.2929 33.9571 10.9571C34.2929 11.6488 34.4548 12.3089 34.4441 12.8675C34.4335 13.4262 33.9541 14.1567 33.7125 14.6267C34.2418 14.3257 34.847 13.9069 35.4716 13.895C36.1699 13.8816 36.6903 14.0462 37.382 14.382C37.2174 13.8616 36.8816 13.17 36.895 12.4716Z" fill="white" fill-opacity="0.2"/>
<circle cx="31" cy="21" r="1" fill="#FAA21E"/>
<circle cx="31" cy="21" r="1" fill="white" fill-opacity="0.2"/>
<circle cx="29.5" cy="13.5" r="1.5" fill="#FEFEFE"/>
</g>
<defs>
<clipPath id="clip0_6296_35164">
<rect width="50" height="50" fill="white"/>
</clipPath>
</defs>
</svg>
