<svg width="50" height="50" viewBox="0 0 50 50" fill="none" xmlns="http://www.w3.org/2000/svg">
<path fill-rule="evenodd" clip-rule="evenodd" d="M16.785 41.4953C16.2741 41.6925 15.7713 41.8941 15.275 42.0932C12.8183 43.0785 10.5209 44 8.17778 44C3.57778 44 1.88792 43.4607 0.306667 41.6198L0 39.2397L20.6441 35C21.4448 35 22.536 37.0553 22.8866 38.8072C22.7589 38.8708 22.63 38.935 22.5 39C19.8304 39.4449 17.7053 40.2031 16.785 41.4953Z" fill="#898989"/>
<path fill-rule="evenodd" clip-rule="evenodd" d="M0 39.0042C0 37.3481 2.06857 35.3947 5.91639 34.9981C12.0852 32.4247 15.0983 28.7691 17.0874 24.641C18.0263 22.6923 17.874 18.297 17.6822 12.7592C17.549 8.91174 17.3966 4.51287 17.5778 0C17.7768 0.0498139 17.9637 0.097519 18.1429 0.143261C19.815 0.570127 20.8174 0.826033 24.7748 1.02936C28.8322 1.23782 31.6739 1.8305 33 2.28919C32.6299 5.87412 31.4263 10.9761 30.2613 15.915C29.3395 19.8229 28.4417 23.6287 28 26.5C27.7453 29.0474 28.0096 30.328 28.3303 31.8813C28.4995 32.701 28.6844 33.5966 28.817 34.7944C27.742 36.391 25.666 37.424 23.0996 38.7011C22.9026 38.7992 22.7026 38.8987 22.5 39C22.4811 39.0032 22.4622 39.0063 22.4433 39.0095C22.1676 39.0036 21.8839 38.9999 21.591 38.9999C20.2134 38.9999 18.6768 39.5381 16.9054 40.1586C14.4788 41.0086 11.6114 42.013 8.10776 41.9999C5.5149 41.9999 3.42817 41.9907 1.31904 40.909C0.430524 40.4533 0 39.7597 0 39.0042Z" fill="#898989"/>
<path fill-rule="evenodd" clip-rule="evenodd" d="M0 39.0042C0 37.3481 2.06857 35.3947 5.91639 34.9981C12.0852 32.4247 15.0983 28.7691 17.0874 24.641C18.0263 22.6923 17.874 18.297 17.6822 12.7592C17.549 8.91174 17.3966 4.51287 17.5778 0C17.7768 0.0498139 17.9637 0.097519 18.1429 0.143261C19.815 0.570127 20.8174 0.826033 24.7748 1.02936C28.8322 1.23782 31.6739 1.8305 33 2.28919C32.6299 5.87412 31.4263 10.9761 30.2613 15.915C29.3395 19.8229 28.4417 23.6287 28 26.5C27.7453 29.0474 28.0096 30.328 28.3303 31.8813C28.4995 32.701 28.6844 33.5966 28.817 34.7944C27.742 36.391 25.666 37.424 23.0996 38.7011C22.9026 38.7992 22.7026 38.8987 22.5 39C22.4811 39.0032 22.4622 39.0063 22.4433 39.0095C22.1676 39.0036 21.8839 38.9999 21.591 38.9999C20.2134 38.9999 18.6768 39.5381 16.9054 40.1586C14.4788 41.0086 11.6114 42.013 8.10776 41.9999C5.5149 41.9999 3.42817 41.9907 1.31904 40.909C0.430524 40.4533 0 39.7597 0 39.0042Z" fill="black" fill-opacity="0.2"/>
<path fill-rule="evenodd" clip-rule="evenodd" d="M28.7988 34.8213C27.7186 36.4026 25.6516 37.4312 23.0996 38.7011C22.9026 38.7992 22.7026 38.8987 22.5 39C22.443 39.0095 22.3863 39.0191 22.3299 39.0289C22.2791 39.028 22.228 39.0272 22.1766 39.0265C22.4009 38.452 22.7617 37.7048 23.1791 36.9572C23.7578 35.9208 24.3944 34.9754 24.8467 34.54C25.7179 33.7015 27.0333 33.0404 28.4195 32.5558C28.5561 33.2105 28.6925 33.9396 28.7988 34.8213ZM18.1503 0.454696C19.8215 0.878385 20.8235 1.13239 24.7789 1.3342C28.8343 1.54111 31.6746 2.12938 33 2.58465C32.6369 6.07686 31.454 11.0032 30.3034 15.7949C29.354 19.7487 28.4266 23.6109 28 26.5C27.6615 28.7927 27.8861 30.0777 28.2075 31.571C26.7224 32.0787 25.2006 32.8115 24.1533 33.8195C23.5858 34.3657 22.8891 35.4254 22.306 36.4697C21.7992 37.3774 21.34 38.3424 21.107 39.0434C19.8574 39.1483 18.4769 39.6284 16.9134 40.1723L16.9134 40.1723L16.9134 40.1723C14.9935 40.8401 12.7976 41.604 10.2287 41.8869C9.28104 40.9734 8.36683 40.0574 7.4437 38.2804C7.04933 37.5213 6.68181 36.6958 6.41394 36.0039C6.27994 35.6578 6.17301 35.3505 6.10043 35.1054C6.08843 35.0649 6.07775 35.0272 6.06827 34.9925C8.19206 34.1003 9.93774 33.0792 11.3944 31.9546L13.6224 34.3511L14.3776 33.6489L12.1953 31.3014C13.1664 30.4647 13.9968 29.5768 14.7195 28.6472L17.1365 30.4985L17.7636 29.6798L15.3304 27.8161C15.9249 26.9604 16.4406 26.0733 16.9014 25.1617L19.8849 26.1139L20.1985 25.1315L17.316 24.2115C17.6268 23.2477 17.7691 21.8932 17.8156 20.2378L21.0085 20.6745L21.1482 19.6528L17.8326 19.1992C17.8408 17.8693 17.8033 16.3802 17.751 14.7699L21.0085 15.2154L21.1482 14.1937L17.7158 13.7242L17.6898 12.9768L17.6898 12.9767C17.6505 11.8496 17.6095 10.6749 17.576 9.4636L21.0344 9.75925L21.1223 8.73175L17.5494 8.42632C17.5183 7.08947 17.4989 5.71329 17.5029 4.31207L21.5354 4.79469L21.658 3.77075L17.5113 3.27447L17.5102 3.28408C17.5213 2.30237 17.5451 1.31024 17.5855 0.3125C17.7844 0.361944 17.9712 0.409294 18.1503 0.454696ZM5.07991 35.1666C0.150316 36.0207 -1.35132 39.5491 1.33475 40.9171C3.44283 41.9907 5.52852 41.9999 8.1201 41.9999C8.38525 42.0009 8.64674 41.9961 8.90468 41.986C8.13011 41.1954 7.34044 40.2509 6.5563 38.7414C6.14444 37.9486 5.76197 37.0897 5.48139 36.3649C5.34117 36.0028 5.22426 35.6686 5.14157 35.3893C5.11959 35.315 5.09864 35.2402 5.07991 35.1666Z" fill="#898989"/>
<path fill-rule="evenodd" clip-rule="evenodd" d="M28.7988 34.8213C27.7186 36.4026 25.6516 37.4312 23.0996 38.7011C22.9026 38.7992 22.7026 38.8987 22.5 39C22.443 39.0095 22.3863 39.0191 22.3299 39.0289C22.2791 39.028 22.228 39.0272 22.1766 39.0265C22.4009 38.452 22.7617 37.7048 23.1791 36.9572C23.7578 35.9208 24.3944 34.9754 24.8467 34.54C25.7179 33.7015 27.0333 33.0404 28.4195 32.5558C28.5561 33.2105 28.6925 33.9396 28.7988 34.8213ZM18.1503 0.454696C19.8215 0.878385 20.8235 1.13239 24.7789 1.3342C28.8343 1.54111 31.6746 2.12938 33 2.58465C32.6369 6.07686 31.454 11.0032 30.3034 15.7949C29.354 19.7487 28.4266 23.6109 28 26.5C27.6615 28.7927 27.8861 30.0777 28.2075 31.571C26.7224 32.0787 25.2006 32.8115 24.1533 33.8195C23.5858 34.3657 22.8891 35.4254 22.306 36.4697C21.7992 37.3774 21.34 38.3424 21.107 39.0434C19.8574 39.1483 18.4769 39.6284 16.9134 40.1723L16.9134 40.1723L16.9134 40.1723C14.9935 40.8401 12.7976 41.604 10.2287 41.8869C9.28104 40.9734 8.36683 40.0574 7.4437 38.2804C7.04933 37.5213 6.68181 36.6958 6.41394 36.0039C6.27994 35.6578 6.17301 35.3505 6.10043 35.1054C6.08843 35.0649 6.07775 35.0272 6.06827 34.9925C8.19206 34.1003 9.93774 33.0792 11.3944 31.9546L13.6224 34.3511L14.3776 33.6489L12.1953 31.3014C13.1664 30.4647 13.9968 29.5768 14.7195 28.6472L17.1365 30.4985L17.7636 29.6798L15.3304 27.8161C15.9249 26.9604 16.4406 26.0733 16.9014 25.1617L19.8849 26.1139L20.1985 25.1315L17.316 24.2115C17.6268 23.2477 17.7691 21.8932 17.8156 20.2378L21.0085 20.6745L21.1482 19.6528L17.8326 19.1992C17.8408 17.8693 17.8033 16.3802 17.751 14.7699L21.0085 15.2154L21.1482 14.1937L17.7158 13.7242L17.6898 12.9768L17.6898 12.9767C17.6505 11.8496 17.6095 10.6749 17.576 9.4636L21.0344 9.75925L21.1223 8.73175L17.5494 8.42632C17.5183 7.08947 17.4989 5.71329 17.5029 4.31207L21.5354 4.79469L21.658 3.77075L17.5113 3.27447L17.5102 3.28408C17.5213 2.30237 17.5451 1.31024 17.5855 0.3125C17.7844 0.361944 17.9712 0.409294 18.1503 0.454696ZM5.07991 35.1666C0.150316 36.0207 -1.35132 39.5491 1.33475 40.9171C3.44283 41.9907 5.52852 41.9999 8.1201 41.9999C8.38525 42.0009 8.64674 41.9961 8.90468 41.986C8.13011 41.1954 7.34044 40.2509 6.5563 38.7414C6.14444 37.9486 5.76197 37.0897 5.48139 36.3649C5.34117 36.0028 5.22426 35.6686 5.14157 35.3893C5.11959 35.315 5.09864 35.2402 5.07991 35.1666Z" fill="white" fill-opacity="0.6"/>
<path d="M39 44.8C38.2 44.32 37.3333 44.6 37 44.8V43L46 44.2L45.5 49.6C45 49.8 44.3273 50 42.7273 50C41.1273 50 39.3333 49.8 39 49.6V44.8Z" fill="#898989"/>
<path d="M17.3067 47.6198L17 45.2397L37.6441 41C38.6104 41 40 43.9938 40 45.8347C34.2021 46.4483 29.7778 50 25.1778 50C20.5778 50 18.8879 49.4607 17.3067 47.6198Z" fill="#898989"/>
<path d="M41.7748 7.02936C37.3934 6.80425 36.6341 6.51468 34.5778 6C34.1358 17.0084 35.6786 27.3385 34.0874 30.641C32.0983 34.7691 29.0852 38.4247 22.9164 40.9981C17.3132 41.5756 15.4829 45.4544 18.319 46.909C20.4282 47.9907 22.5149 47.9999 25.1078 47.9999C31.1692 48.0226 35.3262 44.9999 38.591 44.9999C41.7026 44.9999 43.7899 45.4174 46 44.5C46 37.6197 44.5 37.5 45 32.5C46 26 49.337 14.7108 50 8.28919C48.6739 7.8305 45.8322 7.23782 41.7748 7.02936Z" fill="#898989"/>
<path d="M41.7748 7.02936C37.3934 6.80425 36.6341 6.51468 34.5778 6C34.1358 17.0084 35.6786 27.3385 34.0874 30.641C32.0983 34.7691 29.0852 38.4247 22.9164 40.9981C17.3132 41.5756 15.4829 45.4544 18.319 46.909C20.4282 47.9907 22.5149 47.9999 25.1078 47.9999C31.1692 48.0226 35.3262 44.9999 38.591 44.9999C41.7026 44.9999 43.7899 45.4174 46 44.5C46 37.6197 44.5 37.5 45 32.5C46 26 49.337 14.7108 50 8.28919C48.6739 7.8305 45.8322 7.23782 41.7748 7.02936Z" fill="black" fill-opacity="0.2"/>
<path fill-rule="evenodd" clip-rule="evenodd" d="M41.7789 7.3342C37.8235 7.13239 36.8215 6.87839 35.1503 6.4547C34.9712 6.40929 34.7844 6.36194 34.5855 6.3125C34.5451 7.31024 34.5213 8.30237 34.5102 9.28408L34.5113 9.27447L38.658 9.77075L38.5354 10.7947L34.5029 10.3121C34.4989 11.7133 34.5183 13.0895 34.5494 14.4263L38.1223 14.7317L38.0344 15.7593L34.576 15.4636C34.6095 16.6749 34.6505 17.8497 34.6898 18.9768C34.6986 19.2283 34.7073 19.4775 34.7158 19.7242L38.1482 20.1937L38.0085 21.2154L34.751 20.7699C34.8033 22.3802 34.8408 23.8693 34.8326 25.1992L38.1482 25.6528L38.0085 26.6745L34.8156 26.2378C34.7691 27.8932 34.6268 29.2477 34.316 30.2115L37.1985 31.1315L36.8849 32.1139L33.9014 31.1617C33.4406 32.0733 32.9249 32.9604 32.3304 33.8161L34.7636 35.6798L34.1365 36.4985L31.7195 34.6472C30.9968 35.5768 30.1664 36.4647 29.1953 37.3014L31.3776 39.6489L30.6224 40.3511L28.3944 37.9546C26.9377 39.0792 25.1921 40.1003 23.0683 40.9925C23.0778 41.0272 23.0884 41.0649 23.1004 41.1054C23.173 41.3505 23.2799 41.6578 23.4139 42.0039C23.6818 42.6958 24.0493 43.5213 24.4437 44.2804C25.3668 46.0574 26.281 46.9734 27.2287 47.8869C29.7976 47.604 31.9935 46.8401 33.9134 46.1723L33.9134 46.1723L33.9134 46.1723C35.4769 45.6284 36.8574 45.1483 38.107 45.0434C38.34 44.3424 38.7992 43.3774 39.306 42.4697C39.8891 41.4254 40.5858 40.3657 41.1533 39.8195C42.2006 38.8115 43.7224 38.0787 45.2075 37.571C44.8861 36.0777 44.6615 34.7927 45 32.5C45.4266 29.6109 46.354 25.7487 47.3034 21.7949C48.454 17.0032 49.6369 12.0769 50 8.58465C48.6746 8.12938 45.8343 7.54111 41.7789 7.3342ZM18.3347 46.9171C15.6487 45.5491 17.1503 42.0207 22.0799 41.1666C22.0986 41.2402 22.1196 41.315 22.1416 41.3893C22.2243 41.6686 22.3412 42.0028 22.4814 42.3649C22.762 43.0897 23.1444 43.9486 23.5563 44.7414C24.3404 46.2509 25.1301 47.1954 25.9047 47.986C25.6467 47.9961 25.3852 48.0009 25.1201 47.9999C22.5285 47.9999 20.4428 47.9907 18.3347 46.9171ZM40.713 45.0673C40.2276 45.0511 39.7178 45.0342 39.1766 45.0265C39.4009 44.452 39.7617 43.7048 40.1791 42.9572C40.7578 41.9208 41.3944 40.9754 41.8467 40.54C42.7179 39.7015 44.0333 39.0404 45.4195 38.5558C45.7104 39.9491 46 41.6799 46 44.5C44.3318 45.1876 42.7348 45.1345 40.7134 45.0673L40.713 45.0673Z" fill="#898989"/>
<path fill-rule="evenodd" clip-rule="evenodd" d="M41.7789 7.3342C37.8235 7.13239 36.8215 6.87839 35.1503 6.4547C34.9712 6.40929 34.7844 6.36194 34.5855 6.3125C34.5451 7.31024 34.5213 8.30237 34.5102 9.28408L34.5113 9.27447L38.658 9.77075L38.5354 10.7947L34.5029 10.3121C34.4989 11.7133 34.5183 13.0895 34.5494 14.4263L38.1223 14.7317L38.0344 15.7593L34.576 15.4636C34.6095 16.6749 34.6505 17.8497 34.6898 18.9768C34.6986 19.2283 34.7073 19.4775 34.7158 19.7242L38.1482 20.1937L38.0085 21.2154L34.751 20.7699C34.8033 22.3802 34.8408 23.8693 34.8326 25.1992L38.1482 25.6528L38.0085 26.6745L34.8156 26.2378C34.7691 27.8932 34.6268 29.2477 34.316 30.2115L37.1985 31.1315L36.8849 32.1139L33.9014 31.1617C33.4406 32.0733 32.9249 32.9604 32.3304 33.8161L34.7636 35.6798L34.1365 36.4985L31.7195 34.6472C30.9968 35.5768 30.1664 36.4647 29.1953 37.3014L31.3776 39.6489L30.6224 40.3511L28.3944 37.9546C26.9377 39.0792 25.1921 40.1003 23.0683 40.9925C23.0778 41.0272 23.0884 41.0649 23.1004 41.1054C23.173 41.3505 23.2799 41.6578 23.4139 42.0039C23.6818 42.6958 24.0493 43.5213 24.4437 44.2804C25.3668 46.0574 26.281 46.9734 27.2287 47.8869C29.7976 47.604 31.9935 46.8401 33.9134 46.1723L33.9134 46.1723L33.9134 46.1723C35.4769 45.6284 36.8574 45.1483 38.107 45.0434C38.34 44.3424 38.7992 43.3774 39.306 42.4697C39.8891 41.4254 40.5858 40.3657 41.1533 39.8195C42.2006 38.8115 43.7224 38.0787 45.2075 37.571C44.8861 36.0777 44.6615 34.7927 45 32.5C45.4266 29.6109 46.354 25.7487 47.3034 21.7949C48.454 17.0032 49.6369 12.0769 50 8.58465C48.6746 8.12938 45.8343 7.54111 41.7789 7.3342ZM18.3347 46.9171C15.6487 45.5491 17.1503 42.0207 22.0799 41.1666C22.0986 41.2402 22.1196 41.315 22.1416 41.3893C22.2243 41.6686 22.3412 42.0028 22.4814 42.3649C22.762 43.0897 23.1444 43.9486 23.5563 44.7414C24.3404 46.2509 25.1301 47.1954 25.9047 47.986C25.6467 47.9961 25.3852 48.0009 25.1201 47.9999C22.5285 47.9999 20.4428 47.9907 18.3347 46.9171ZM40.713 45.0673C40.2276 45.0511 39.7178 45.0342 39.1766 45.0265C39.4009 44.452 39.7617 43.7048 40.1791 42.9572C40.7578 41.9208 41.3944 40.9754 41.8467 40.54C42.7179 39.7015 44.0333 39.0404 45.4195 38.5558C45.7104 39.9491 46 41.6799 46 44.5C44.3318 45.1876 42.7348 45.1345 40.7134 45.0673L40.713 45.0673Z" fill="white" fill-opacity="0.6"/>
</svg>
