<svg width="50" height="50" viewBox="0 0 50 50" fill="none" xmlns="http://www.w3.org/2000/svg">
<path d="M21.1014 1.16552L4.43401 1.16552C5.9422 8.14455 8.01423 20.7622 9.14931 22.7645C11.0135 24.8903 16.5884 26.6357 19.6275 31.5981C21.4952 35.6899 21.3025 36.5388 20.8457 37.235C22.3933 37.4625 26.5536 37.1254 31.2778 36.1044C36.0021 35.0835 38.2038 33.4839 38.7141 32.8117C38.0347 31.8347 36.1884 29.705 34.2385 29.0026C31.801 28.1245 24.7611 22.2004 24.007 18.7109C23.4038 15.9193 22.2127 7.83251 21.1014 1.16552Z" fill="#898989"/>
<path d="M21.1014 1.16552L4.43401 1.16552C5.9422 8.14455 8.01423 20.7622 9.14931 22.7645C11.0135 24.8903 16.5884 26.6357 19.6275 31.5981C21.4952 35.6899 21.3025 36.5388 20.8457 37.235C22.3933 37.4625 26.5536 37.1254 31.2778 36.1044C36.0021 35.0835 38.2038 33.4839 38.7141 32.8117C38.0347 31.8347 36.1884 29.705 34.2385 29.0026C31.801 28.1245 24.7611 22.2004 24.007 18.7109C23.4038 15.9193 22.2127 7.83251 21.1014 1.16552Z" fill="white" fill-opacity="0.6"/>
<path d="M39.8541 35.0243C38.4466 36.4328 35.59 37.5826 30.6974 38.8646C25.4632 39.9958 21.5 39.5 21 40C20.5027 40.4974 20.6529 41.3551 21 42C22.1738 44.1813 23.8706 48.4878 24.8456 48.839C26.0643 49.278 32.8437 48.7963 38.078 47.6652C43.3122 46.5341 45.5432 44.5067 45.5034 43.6724C45.4716 43.005 41.7062 37.5273 39.8541 35.0243Z" fill="#898989"/>
<rect x="23.3199" y="42.2139" width="2.51832" height="5.70455" rx="1.25916" transform="rotate(-28.4657 23.3199 42.2139)" fill="#898989"/>
<rect x="23.3199" y="42.2139" width="2.51832" height="5.70455" rx="1.25916" transform="rotate(-28.4657 23.3199 42.2139)" fill="white" fill-opacity="0.95"/>
</svg>
