<svg width="50" height="50" viewBox="0 0 50 50" fill="none" xmlns="http://www.w3.org/2000/svg">
<path d="M37 14.8182V18.4546C37.619 17.697 39.1357 15.7273 42.1071 15.7273C45.8214 15.7273 47.2143 19.8182 47.2143 23C47.2143 26.1819 45.3571 30.2728 42.1071 30.2728C39.5071 30.2728 37.4643 28 37 27.5455V31.1819C37.4643 31.1819 38.3929 33 42.1071 33C46.75 33 50 28.9091 50 23C50 17.091 46.75 13 42.1071 13C38.8571 13 37.4643 14.8182 37 14.8182Z" fill="#898989"/>
<path d="M37 14.8182V18.4546C37.619 17.697 39.1357 15.7273 42.1071 15.7273C45.8214 15.7273 47.2143 19.8182 47.2143 23C47.2143 26.1819 45.3571 30.2728 42.1071 30.2728C39.5071 30.2728 37.4643 28 37 27.5455V31.1819C37.4643 31.1819 38.3929 33 42.1071 33C46.75 33 50 28.9091 50 23C50 17.091 46.75 13 42.1071 13C38.8571 13 37.4643 14.8182 37 14.8182Z" fill="white" fill-opacity="0.95"/>
<path d="M5 7.00005H38V43.5C38 43.5 35 48.5 21.5 48.5C8.00003 48.5 5 43.5 5 43.5V7.00005Z" fill="#898989"/>
<path d="M5 7.00005H38V43.5C38 43.5 35 48.5 21.5 48.5C8.00003 48.5 5 43.5 5 43.5V7.00005Z" fill="white" fill-opacity="0.85"/>
<ellipse cx="21.5" cy="6.50005" rx="16.5" ry="4.5" fill="#FEFEFE"/>
<ellipse cx="21.5" cy="6.50005" rx="14.5" ry="3.5" fill="#898989"/>
<ellipse cx="21.5" cy="6.50005" rx="14.5" ry="3.5" fill="white" fill-opacity="0.4"/>
<path d="M33 8.50005C33 8.00005 27.8513 7.00005 21.5 7.00005C15.1487 7.00005 10 8.00005 10 8.50005C10 9.00005 15.1487 10 21.5 10C27.8513 10 33 9.00005 33 8.50005Z" fill="#FAA21E"/>
<path d="M33 8.50005C33 8.00005 27.8513 7.00005 21.5 7.00005C15.1487 7.00005 10 8.00005 10 8.50005C10 9.00005 15.1487 10 21.5 10C27.8513 10 33 9.00005 33 8.50005Z" fill="black" fill-opacity="0.6"/>
<path fill-rule="evenodd" clip-rule="evenodd" d="M19.8298 20.1593L8.82983 20.1593L8.82984 16.1593L19.8298 16.1593L19.8298 20.1593Z" fill="#7445B8"/>
<path fill-rule="evenodd" clip-rule="evenodd" d="M19.8298 20.1593L8.82983 20.1593L8.82984 16.1593L19.8298 16.1593L19.8298 20.1593Z" fill="white" fill-opacity="0.6"/>
<path fill-rule="evenodd" clip-rule="evenodd" d="M18.8298 27.1593L8.82983 27.1593L8.82985 23.1593L18.8298 23.1593L18.8298 27.1593Z" fill="#7445B8"/>
<path fill-rule="evenodd" clip-rule="evenodd" d="M18.8298 27.1593L8.82983 27.1593L8.82985 23.1593L18.8298 23.1593L18.8298 27.1593Z" fill="white" fill-opacity="0.6"/>
<path fill-rule="evenodd" clip-rule="evenodd" d="M17.8298 34.1593H8.82983V30.1593L17.8298 30.1593V34.1593Z" fill="#7445B8"/>
<path fill-rule="evenodd" clip-rule="evenodd" d="M17.8298 34.1593H8.82983V30.1593L17.8298 30.1593V34.1593Z" fill="white" fill-opacity="0.6"/>
<path fill-rule="evenodd" clip-rule="evenodd" d="M19.8298 41.1593H8.82983V37.1593H19.8298V41.1593Z" fill="#7445B8"/>
<path fill-rule="evenodd" clip-rule="evenodd" d="M19.8298 41.1593H8.82983V37.1593H19.8298V41.1593Z" fill="white" fill-opacity="0.6"/>
<path fill-rule="evenodd" clip-rule="evenodd" d="M31.3298 41.1593H22.291V38.0393C22.291 37.8239 22.0233 37.1624 21.7097 36.3875C21.2663 35.2915 20.731 33.9685 20.731 33.3593L20.731 27.6393C20.731 25.5593 20.731 19.3193 22.291 19.3193C22.5811 19.3193 22.8712 19.4812 23.071 19.7146V26.0793C23.071 26.2229 23.1874 26.3393 23.331 26.3393C23.4746 26.3393 23.591 26.2229 23.591 26.0793V18.9087C23.8232 17.8432 24.2072 16.7193 24.891 16.7193C25.2638 16.7193 25.5114 16.8237 25.671 16.9858V25.5593C25.671 25.7029 25.7874 25.8193 25.931 25.8193C26.0746 25.8193 26.191 25.7029 26.191 25.5593V16.5608C26.3874 15.8564 26.7364 15.1593 27.491 15.1593C28.1637 15.1593 28.5645 15.7134 28.791 16.3327V25.5593C28.791 25.7029 28.9074 25.8193 29.051 25.8193C29.1946 25.8193 29.311 25.7029 29.311 25.5593V17.101C29.4707 16.8933 29.7182 16.7193 30.091 16.7193C31.131 16.7193 31.651 18.7993 31.651 19.8393C31.651 20.3068 31.7561 21.6147 31.8717 23.0548C32.0134 24.8186 32.171 26.7805 32.171 27.6393C32.171 28.1256 32.2215 28.6625 32.2753 29.2341C32.3941 30.4961 32.5289 31.9277 32.171 33.3593C31.651 35.4393 31.3298 37.1393 31.3298 37.6593V41.1593Z" fill="#7445B8"/>
<path fill-rule="evenodd" clip-rule="evenodd" d="M31.3298 41.1593H22.291V38.0393C22.291 37.8239 22.0233 37.1624 21.7097 36.3875C21.2663 35.2915 20.731 33.9685 20.731 33.3593L20.731 27.6393C20.731 25.5593 20.731 19.3193 22.291 19.3193C22.5811 19.3193 22.8712 19.4812 23.071 19.7146V26.0793C23.071 26.2229 23.1874 26.3393 23.331 26.3393C23.4746 26.3393 23.591 26.2229 23.591 26.0793V18.9087C23.8232 17.8432 24.2072 16.7193 24.891 16.7193C25.2638 16.7193 25.5114 16.8237 25.671 16.9858V25.5593C25.671 25.7029 25.7874 25.8193 25.931 25.8193C26.0746 25.8193 26.191 25.7029 26.191 25.5593V16.5608C26.3874 15.8564 26.7364 15.1593 27.491 15.1593C28.1637 15.1593 28.5645 15.7134 28.791 16.3327V25.5593C28.791 25.7029 28.9074 25.8193 29.051 25.8193C29.1946 25.8193 29.311 25.7029 29.311 25.5593V17.101C29.4707 16.8933 29.7182 16.7193 30.091 16.7193C31.131 16.7193 31.651 18.7993 31.651 19.8393C31.651 20.3068 31.7561 21.6147 31.8717 23.0548C32.0134 24.8186 32.171 26.7805 32.171 27.6393C32.171 28.1256 32.2215 28.6625 32.2753 29.2341C32.3941 30.4961 32.5289 31.9277 32.171 33.3593C31.651 35.4393 31.3298 37.1393 31.3298 37.6593V41.1593Z" fill="white" fill-opacity="0.2"/>
<path d="M33.8296 27.6593C32.3002 27.2964 31.0966 25.6466 30.8298 26.1593C30.3168 27.1453 31.4483 28.8107 31.8298 29.1593C31.8737 29.6544 31.5839 31.6834 31.5839 31.6834C31.5839 31.6834 29.4392 31.2299 28.3617 33.6355C26.7525 37.2283 31.0589 37.6678 31.5841 37.1593C32.1093 36.6508 34.2883 34.7287 34.3299 32.1593C34.355 30.6087 33.8296 27.6593 33.8296 27.6593Z" fill="#7445B8"/>
<path d="M33.8296 27.6593C32.3002 27.2964 31.0966 25.6466 30.8298 26.1593C30.3168 27.1453 31.4483 28.8107 31.8298 29.1593C31.8737 29.6544 31.5839 31.6834 31.5839 31.6834C31.5839 31.6834 29.4392 31.2299 28.3617 33.6355C26.7525 37.2283 31.0589 37.6678 31.5841 37.1593C32.1093 36.6508 34.2883 34.7287 34.3299 32.1593C34.355 30.6087 33.8296 27.6593 33.8296 27.6593Z" fill="white" fill-opacity="0.4"/>
</svg>
