<svg width="50" height="50" viewBox="0 0 50 50" fill="none" xmlns="http://www.w3.org/2000/svg">
<g clip-path="url(#clip0_4774_7590)">
<path fill-rule="evenodd" clip-rule="evenodd" d="M9.5715 1.85714C7.44126 -0.273098 3.98745 -0.273098 1.85721 1.85714C-0.273029 3.98738 -0.273026 7.44119 1.85722 9.57143L7.64293 15.3571C9.77317 17.4874 13.227 17.4874 15.3572 15.3571C17.4875 13.2269 17.4875 9.7731 15.3572 7.64286L9.5715 1.85714ZM7.64282 3.7857C6.5777 2.72058 4.8508 2.72058 3.78568 3.7857C2.72056 4.85082 2.72056 6.57772 3.78568 7.64284L9.57139 13.4286C10.6365 14.4937 12.3634 14.4937 13.4285 13.4286C14.4937 12.3634 14.4937 10.6365 13.4285 9.57141L7.64282 3.7857Z" fill="#D0333D"/>
<path fill-rule="evenodd" clip-rule="evenodd" d="M9.5715 1.85714C7.44126 -0.273098 3.98745 -0.273098 1.85721 1.85714C-0.273029 3.98738 -0.273026 7.44119 1.85722 9.57143L7.64293 15.3571C9.77317 17.4874 13.227 17.4874 15.3572 15.3571C17.4875 13.2269 17.4875 9.7731 15.3572 7.64286L9.5715 1.85714ZM7.64282 3.7857C6.5777 2.72058 4.8508 2.72058 3.78568 3.7857C2.72056 4.85082 2.72056 6.57772 3.78568 7.64284L9.57139 13.4286C10.6365 14.4937 12.3634 14.4937 13.4285 13.4286C14.4937 12.3634 14.4937 10.6365 13.4285 9.57141L7.64282 3.7857Z" fill="black" fill-opacity="0.2"/>
<path fill-rule="evenodd" clip-rule="evenodd" d="M42.3571 34.6429C40.2269 32.5127 36.7731 32.5127 34.6429 34.6429C32.5126 36.7732 32.5126 40.227 34.6429 42.3572L40.4286 48.1429C42.5588 50.2732 46.0126 50.2732 48.1429 48.1429C50.2731 46.0127 50.2731 42.5589 48.1429 40.4286L42.3571 34.6429ZM40.4286 36.5714C39.3635 35.5063 37.6365 35.5063 36.5714 36.5714C35.5063 37.6366 35.5063 39.3635 36.5714 40.4286L42.3571 46.2143C43.4223 47.2794 45.1492 47.2794 46.2143 46.2143C47.2794 45.1492 47.2794 43.4223 46.2143 42.3572L40.4286 36.5714Z" fill="#D0333D"/>
<path fill-rule="evenodd" clip-rule="evenodd" d="M42.3571 34.6429C40.2269 32.5127 36.7731 32.5127 34.6429 34.6429C32.5126 36.7732 32.5126 40.227 34.6429 42.3572L40.4286 48.1429C42.5588 50.2732 46.0126 50.2732 48.1429 48.1429C50.2731 46.0127 50.2731 42.5589 48.1429 40.4286L42.3571 34.6429ZM40.4286 36.5714C39.3635 35.5063 37.6365 35.5063 36.5714 36.5714C35.5063 37.6366 35.5063 39.3635 36.5714 40.4286L42.3571 46.2143C43.4223 47.2794 45.1492 47.2794 46.2143 46.2143C47.2794 45.1492 47.2794 43.4223 46.2143 42.3572L40.4286 36.5714Z" fill="black" fill-opacity="0.2"/>
<path fill-rule="evenodd" clip-rule="evenodd" d="M25.9641 18.25C23.8338 16.1197 20.38 16.1197 18.2498 18.25C16.1195 20.3802 16.1196 23.834 18.2498 25.9643L24.0355 31.75C26.1657 33.8802 29.6196 33.8802 31.7498 31.75C33.88 29.6197 33.88 26.1659 31.7498 24.0357L25.9641 18.25ZM24.0356 20.1786C22.9705 19.1135 21.2436 19.1135 20.1784 20.1786C19.1133 21.2437 19.1133 22.9706 20.1784 24.0357L25.9642 29.8214C27.0293 30.8866 28.7562 30.8866 29.8213 29.8214C30.8864 28.7563 30.8864 27.0294 29.8213 25.9643L24.0356 20.1786Z" fill="#D0333D"/>
<path fill-rule="evenodd" clip-rule="evenodd" d="M25.9641 18.25C23.8338 16.1197 20.38 16.1197 18.2498 18.25C16.1195 20.3802 16.1196 23.834 18.2498 25.9643L24.0355 31.75C26.1657 33.8802 29.6196 33.8802 31.7498 31.75C33.88 29.6197 33.88 26.1659 31.7498 24.0357L25.9641 18.25ZM24.0356 20.1786C22.9705 19.1135 21.2436 19.1135 20.1784 20.1786C19.1133 21.2437 19.1133 22.9706 20.1784 24.0357L25.9642 29.8214C27.0293 30.8866 28.7562 30.8866 29.8213 29.8214C30.8864 28.7563 30.8864 27.0294 29.8213 25.9643L24.0356 20.1786Z" fill="black" fill-opacity="0.2"/>
<rect x="12.1428" y="10.2144" width="15.9099" height="2.72741" rx="1.36371" transform="rotate(45 12.1428 10.2144)" fill="#D0333D"/>
<rect x="12.1428" y="10.2144" width="15.9099" height="2.72741" rx="1.36371" transform="rotate(45 12.1428 10.2144)" fill="white" fill-opacity="0.2"/>
<rect x="28.5354" y="26.6072" width="15.9099" height="2.72741" rx="1.36371" transform="rotate(45 28.5354 26.6072)" fill="#D0333D"/>
<rect x="28.5354" y="26.6072" width="15.9099" height="2.72741" rx="1.36371" transform="rotate(45 28.5354 26.6072)" fill="white" fill-opacity="0.2"/>
</g>
<defs>
<clipPath id="clip0_4774_7590">
<rect width="50" height="50" fill="white" transform="matrix(-1 0 0 1 50 0)"/>
</clipPath>
</defs>
</svg>
