<svg width="50" height="50" viewBox="0 0 50 50" fill="none" xmlns="http://www.w3.org/2000/svg">
<g clip-path="url(#clip0_4774_7658)">
<path d="M20 7.5001C24 -4.49994 34.5 1.49992 37.5 9.50001C40.5 17.5001 40.5 23 37.5 29.5001" stroke="#D0333D" stroke-width="2"/>
<path d="M21.3739 4.92195C20.5853 4.5889 19.3981 3.8705 19.0262 3.60498L7.24512 31.4994L12.1737 33.581L23.9549 5.68656C23.4231 5.57046 22.1625 5.255 21.3739 4.92195Z" fill="#898989"/>
<path d="M21.3739 4.92195C20.5853 4.5889 19.3981 3.8705 19.0262 3.60498L7.24512 31.4994L12.1737 33.581L23.9549 5.68656C23.4231 5.57046 22.1625 5.255 21.3739 4.92195Z" fill="white" fill-opacity="0.2"/>
<path d="M12.6929 35.1021L5.79282 32.1879L0.0205236 45.8551L0.723213 48.1629L4.99368 49.9665L7.13797 48.8611L12.6929 35.1021Z" fill="#898989"/>
<path d="M12.6929 35.1021L5.79282 32.1879L0.0205236 45.8551L0.723213 48.1629L4.99368 49.9665L7.13797 48.8611L12.6929 35.1021Z" fill="white" fill-opacity="0.2"/>
<path d="M30.9221 49.906L33.6458 45.7923L30.9316 44.9723L30.9221 49.906Z" fill="#D0333D"/>
<path d="M42.5095 49.951L36.7065 43.0145L39.9462 41.2781L42.5095 49.951Z" fill="#D0333D"/>
<path d="M30.1089 40.6742L28.2936 37.2872L21.7532 43.5097L30.1089 40.6742Z" fill="#D0333D"/>
<path d="M40.3964 30.8004L42.0645 34.2663L47.8913 28.8686L40.3964 30.8004Z" fill="#D0333D"/>
<path d="M33.6109 28.7505L29.8765 30.752L27.9869 22.8553L33.6109 28.7505Z" fill="#D0333D"/>
<path d="M25.1806 34.5958L20.5461 31.9616L25.9322 32.1078L25.1806 34.5958Z" fill="#D0333D"/>
<path d="M44.4063 40.404L45.158 37.916L49.9503 40.8448L44.4063 40.404Z" fill="#D0333D"/>
<path fill-rule="evenodd" clip-rule="evenodd" d="M43.6171 38.9315C43.1251 40.56 41.8693 41.7006 41.4539 41.9865C41.3871 41.3904 41.0337 40.1265 40.1289 39.8532C38.998 39.5116 36.024 40.916 35.614 42.2731C35.2996 43.3139 36.1301 44.2753 36.6203 44.6841L36.6805 44.7344C35.8583 44.7328 33.897 44.634 32.6304 44.2513C31.4426 43.8925 30.279 42.9983 29.6977 42.5516L29.5899 42.4689L29.5931 42.4679C30.1377 42.3026 31.2138 41.9761 31.4865 41.0732C31.8282 39.9423 30.0308 36.5536 28.8774 36.2052C27.7428 35.8624 27.3473 36.2732 26.9347 36.7019C26.8431 36.797 26.7506 36.8931 26.649 36.982C26.6391 36.9213 26.6282 36.8592 26.617 36.7952C26.4991 36.1194 26.3448 35.2356 26.8004 33.7276C27.1603 32.5362 27.6616 31.6571 28.0722 30.9371C28.2305 30.6595 28.3753 30.4055 28.4933 30.1664C28.555 30.2814 28.6213 30.4213 28.6935 30.5737C28.9913 31.2018 29.3893 32.0414 29.9718 32.2174C30.8765 32.4907 34.6369 30.6648 34.9786 29.5339C35.2519 28.6292 34.496 27.4546 34.0892 27.1672C34.6327 27.0022 36.1268 26.7954 37.7553 27.2874C39.3838 27.7794 40.5135 28.7789 40.8748 29.2171C40.4295 29.3294 39.4705 29.7802 39.1972 30.685C38.8555 31.8159 40.7498 35.3501 41.6545 35.6234C42.3783 35.8421 43.4357 35.1742 43.874 34.813C43.9933 35.5072 44.1091 37.3029 43.6171 38.9315ZM35.6669 33.6519C34.5015 33.2998 33.2714 33.9591 32.9193 35.1245C32.5672 36.2899 33.2265 37.5201 34.3919 37.8722C35.5574 38.2243 36.7875 37.5649 37.1396 36.3995C37.4917 35.2341 36.8323 34.0039 35.6669 33.6519Z" fill="#D0333D"/>
<path d="M43.1678 38.5323C42.8012 39.7455 42.2263 40.6121 41.8392 40.8785C41.777 40.323 41.1418 39.5483 40.3446 39.1739C38.7917 38.4448 35.1808 40.3801 34.9283 42.0769C34.7727 43.1223 35.092 43.9059 35.5202 44.2653C34.3756 44.2978 33.4434 44.0162 32.989 43.8789C32.5346 43.7416 31.3606 43.0087 31.1186 42.5573C31.6251 42.4036 32.4727 41.8316 32.1983 40.2356C32.0118 39.1505 30.9563 36.8342 30.0211 36.1734L30.0211 36.1734C29.0859 35.5126 28.1507 34.8518 27.0386 36.0289C26.9312 35.3758 27.3104 33.8768 27.425 33.4977C27.5395 33.1186 27.8439 32.1112 28.2952 31.8693C28.779 32.772 29.4723 32.9814 30.1656 33.1909C31.0087 33.4456 34.7116 31.9163 35.5819 30.2879C36.2073 29.1174 35.6541 27.8152 35.275 27.5473C35.7815 27.3936 36.4196 27.5148 37.5438 28.0393C38.74 28.5974 39.3399 28.8469 39.6765 29.2553C39.2615 29.3599 38.3602 30.2006 38.5969 31.577C38.8712 33.173 40.26 35.6386 41.016 36.0906C41.7366 36.5214 42.4025 36.5094 43.3053 36.0256C43.4165 36.6726 43.5591 37.2371 43.1678 38.5323Z" fill="#D0333D"/>
<path d="M43.1678 38.5323C42.8012 39.7455 42.2263 40.6121 41.8392 40.8785C41.777 40.323 41.1418 39.5483 40.3446 39.1739C38.7917 38.4448 35.1808 40.3801 34.9283 42.0769C34.7727 43.1223 35.092 43.9059 35.5202 44.2653C34.3756 44.2978 33.4434 44.0162 32.989 43.8789C32.5346 43.7416 31.3606 43.0087 31.1186 42.5573C31.6251 42.4036 32.4727 41.8316 32.1983 40.2356C32.0118 39.1505 30.9563 36.8342 30.0211 36.1734L30.0211 36.1734C29.0859 35.5126 28.1507 34.8518 27.0386 36.0289C26.9312 35.3758 27.3104 33.8768 27.425 33.4977C27.5395 33.1186 27.8439 32.1112 28.2952 31.8693C28.779 32.772 29.4723 32.9814 30.1656 33.1909C31.0087 33.4456 34.7116 31.9163 35.5819 30.2879C36.2073 29.1174 35.6541 27.8152 35.275 27.5473C35.7815 27.3936 36.4196 27.5148 37.5438 28.0393C38.74 28.5974 39.3399 28.8469 39.6765 29.2553C39.2615 29.3599 38.3602 30.2006 38.5969 31.577C38.8712 33.173 40.26 35.6386 41.016 36.0906C41.7366 36.5214 42.4025 36.5094 43.3053 36.0256C43.4165 36.6726 43.5591 37.2371 43.1678 38.5323Z" fill="black" fill-opacity="0.2"/>
</g>
<defs>
<clipPath id="clip0_4774_7658">
<rect width="50" height="50" fill="white"/>
</clipPath>
</defs>
</svg>
