<?xml version="1.0" encoding="utf-8"?><svg fill="none" viewBox="0 0 50 50" xmlns="http://www.w3.org/2000/svg" width="50" height="50"><g clip-path="url(#ahia)"><path d="M20 7.5c4.5-11 14.5-6 17.5 2s3 13.5 0 20" stroke="#D0333D" stroke-width="2"/><path d="M21.374 4.922c-.789-.333-1.976-1.051-2.348-1.317L7.246 31.5l4.928 2.081 11.78-27.894c-.53-.116-1.791-.432-2.58-.765Z" fill="#898989"/><path d="M21.374 4.922c-.789-.333-1.976-1.051-2.348-1.317L7.246 31.5l4.928 2.081 11.78-27.894c-.53-.116-1.791-.432-2.58-.765Z" fill="#fff" fill-opacity=".2"/><path d="m12.693 35.102-6.9-2.914L.02 45.855l.702 2.308 4.27 1.804 2.145-1.106 5.555-13.759Z" fill="#898989"/><path d="m12.693 35.102-6.9-2.914L.02 45.855l.702 2.308 4.27 1.804 2.145-1.106 5.555-13.759Z" fill="#fff" fill-opacity=".2"/><path d="m30.922 49.906 2.724-4.114-2.714-.82-.01 4.934ZM42.51 49.95l-5.803-6.936 3.24-1.736 2.563 8.673ZM30.109 40.674l-1.815-3.387-6.54 6.223 8.355-2.836ZM40.396 30.8l1.669 3.466 5.826-5.397-7.495 1.931ZM33.61 28.75l-3.733 2.002-1.89-7.897 5.624 5.895ZM25.18 34.596l-4.634-2.634 5.386.146-.751 2.488ZM44.406 40.404l.752-2.488 4.792 2.929-5.544-.441Z" fill="#D0333D"/><path fill-rule="evenodd" clip-rule="evenodd" d="M43.617 38.931c-.492 1.629-1.748 2.77-2.163 3.055-.067-.596-.42-1.86-1.325-2.133-1.131-.342-4.105 1.063-4.515 2.42-.314 1.04.516 2.002 1.006 2.411l.06.05c-.822-.001-2.783-.1-4.05-.483-1.187-.359-2.351-1.253-2.932-1.7l-.108-.082.003-.001c.545-.165 1.62-.492 1.893-1.395.342-1.13-1.455-4.52-2.609-4.868-1.134-.343-1.53.068-1.942.497a4.642 4.642 0 0 1-.286.28c-.01-.06-.02-.123-.032-.187-.118-.676-.272-1.56.183-3.067.36-1.192.862-2.071 1.272-2.791.159-.278.303-.532.421-.77.062.114.128.254.2.407.298.628.696 1.467 1.279 1.643.904.274 4.665-1.552 5.007-2.683.273-.905-.483-2.08-.89-2.367.544-.165 2.038-.372 3.666.12 1.629.492 2.758 1.492 3.12 1.93-.446.112-1.404.563-1.678 1.468-.342 1.13 1.553 4.665 2.457 4.938.724.219 1.782-.449 2.22-.81.12.694.235 2.49-.257 4.118Zm-7.95-5.28a2.204 2.204 0 1 0-1.275 4.221 2.204 2.204 0 0 0 1.275-4.22Z" fill="#D0333D"/><path d="M35.52 44.266c-1.145.032-2.077-.25-2.531-.388-.455-.137-1.628-.87-1.87-1.32.506-.154 1.353-.726 1.079-2.322-.187-1.085-1.242-3.402-2.178-4.063-.935-.66-1.87-1.32-2.981-.144-.108-.654.272-2.152.386-2.531.115-.38.419-1.387.87-1.628.484.902 1.177 1.111 1.87 1.32.844.255 4.546-1.274 5.416-2.902.626-1.17.073-2.473-.306-2.74.506-.155 1.145-.033 2.269.491 1.196.558 1.795.808 2.132 1.216-.415.105-1.316.946-1.08 2.322.275 1.596 1.664 4.061 2.42 4.513.72.431 1.386.42 2.289-.064.111.647.254 1.211-.137 2.506-.367 1.213-.941 2.08-1.329 2.347-.062-.556-.698-1.33-1.495-1.705-1.553-.729-5.163 1.206-5.416 2.903-.155 1.045.164 1.83.592 2.189Z" fill="#D0333D"/><path d="M35.52 44.266c-1.145.032-2.077-.25-2.531-.388-.455-.137-1.628-.87-1.87-1.32.506-.154 1.353-.726 1.079-2.322-.187-1.085-1.242-3.402-2.178-4.063-.935-.66-1.87-1.32-2.981-.144-.108-.654.272-2.152.386-2.531.115-.38.419-1.387.87-1.628.484.902 1.177 1.111 1.87 1.32.844.255 4.546-1.274 5.416-2.902.626-1.17.073-2.473-.306-2.74.506-.155 1.145-.033 2.269.491 1.196.558 1.795.808 2.132 1.216-.415.105-1.316.946-1.08 2.322.275 1.596 1.664 4.061 2.42 4.513.72.431 1.386.42 2.289-.064.111.647.254 1.211-.137 2.506-.367 1.213-.941 2.08-1.329 2.347-.062-.556-.698-1.33-1.495-1.705-1.553-.729-5.163 1.206-5.416 2.903-.155 1.045.164 1.83.592 2.189Z" fill="#000" fill-opacity=".2"/><g clip-path="url(#ahib)" fill="#152242"><path d="M39.029 28.446a1 1 0 0 1 1.742 0l3.507 6.22a1 1 0 0 0 .673.49l7 1.412a1 1 0 0 1 .538 1.657l-4.833 5.258a1 1 0 0 0-.257.791l.82 7.094a1 1 0 0 1-1.41 1.024l-6.493-2.972a1 1 0 0 0-.832 0l-6.494 2.972a1 1 0 0 1-1.41-1.024l.82-7.094a1 1 0 0 0-.257-.791l-4.833-5.258a1 1 0 0 1 .539-1.657l7-1.412a1 1 0 0 0 .673-.49l3.507-6.22Z"/><path d="m41.935 37.532.339.602.675.135 4.062.82-2.804 3.05-.467.508.08.686.474 4.115-3.766-1.724-.627-.287-.627.288-3.769 1.723.476-4.115.079-.686-.467-.508-2.805-3.05 4.063-.82.676-.135.338-.602 2.035-3.611 2.035 3.611Z" stroke="#FAA21E" stroke-width="3.013"/></g></g><defs><clipPath id="ahia"><path fill="#fff" d="M0 0h50v50H0z"/></clipPath><clipPath id="ahib"><path fill="#fff" transform="matrix(1 0 0 -1 0 50)" d="M0 0h50v50H0z"/></clipPath></defs></svg>