<svg width="41" height="41" viewBox="0 0 41 41" fill="none" xmlns="http://www.w3.org/2000/svg">
<path d="M18.8254 18.2817L8.63341 36.9153" stroke="#FAA21E" stroke-width="3.98519" stroke-linecap="round"/>
<path d="M18.8254 18.2817L8.63341 36.9153" stroke="white" stroke-opacity="0.2" stroke-width="3.98519" stroke-linecap="round"/>
<path d="M30.9375 24.5295L35.0364 17.1122C36.1041 15.1801 35.3979 12.7482 33.4613 11.6886L16.2655 2.27973C14.3509 1.23215 11.9498 1.91942 10.8795 3.8214L6.59823 11.4294C5.49981 13.3813 6.22519 15.8548 8.20382 16.9044L25.5821 26.1225C27.5029 27.1414 29.8859 26.4325 30.9375 24.5295Z" fill="#FAA21E"/>
<path d="M30.9375 24.5295L35.0364 17.1122C36.1041 15.1801 35.3979 12.7482 33.4613 11.6886L16.2655 2.27973C14.3509 1.23215 11.9498 1.91942 10.8795 3.8214L6.59823 11.4294C5.49981 13.3813 6.22519 15.8548 8.20382 16.9044L25.5821 26.1225C27.5029 27.1414 29.8859 26.4325 30.9375 24.5295Z" fill="white" fill-opacity="0.2"/>
<path fill-rule="evenodd" clip-rule="evenodd" d="M7.44099 9.93185C8.13577 10.6001 9.19566 10.8111 10.1233 10.382C11.331 9.82348 11.8571 8.39168 11.2986 7.18404C10.9854 6.50686 10.3976 6.04396 9.72875 5.86643L7.44099 9.93185ZM26.8792 8.08713C26.3982 8.76791 26.2842 9.67983 26.6593 10.4907C27.2178 11.6983 28.6496 12.2245 29.8573 11.666C30.435 11.3987 30.8568 10.9316 31.0785 10.3848L26.8792 8.08713ZM15.8945 9.46777C16.5827 10.9557 18.3469 11.6041 19.8348 10.9159C21.3228 10.2276 21.9711 8.4635 21.2829 6.97553C20.5947 5.48757 18.8306 4.83924 17.3426 5.52745C15.8546 6.21566 15.2063 7.9798 15.8945 9.46777ZM23.4549 17.8711C22.6498 18.2435 21.6952 17.8927 21.3229 17.0876C20.9505 16.2825 21.3013 15.3279 22.1064 14.9556C22.9115 14.5832 23.866 14.934 24.2384 15.7391C24.6108 16.5442 24.26 17.4987 23.4549 17.8711ZM11.2276 15.6908C11.5473 16.3821 12.3669 16.6833 13.0582 16.3636C13.7494 16.0438 14.0506 15.2243 13.7309 14.533C13.4112 13.8417 12.5916 13.5405 11.9003 13.8602C11.2091 14.18 10.9079 14.9996 11.2276 15.6908ZM26.639 24.6973C25.5636 24.9855 24.4583 24.3473 24.1701 23.2719C23.882 22.1966 24.5201 21.0912 25.5955 20.8031C26.6709 20.5149 27.7762 21.1531 28.0644 22.2285C28.3525 23.3038 27.7144 24.4092 26.639 24.6973ZM29.9845 17.6844C30.1707 18.087 30.6479 18.2624 31.0505 18.0762C31.453 17.89 31.6284 17.4128 31.4422 17.0102C31.2561 16.6077 30.7788 16.4323 30.3762 16.6184C29.9737 16.8046 29.7983 17.2819 29.9845 17.6844Z" fill="#FAA21E"/>
<path fill-rule="evenodd" clip-rule="evenodd" d="M7.44099 9.93185C8.13577 10.6001 9.19566 10.8111 10.1233 10.382C11.331 9.82348 11.8571 8.39168 11.2986 7.18404C10.9854 6.50686 10.3976 6.04396 9.72875 5.86643L7.44099 9.93185ZM26.8792 8.08713C26.3982 8.76791 26.2842 9.67983 26.6593 10.4907C27.2178 11.6983 28.6496 12.2245 29.8573 11.666C30.435 11.3987 30.8568 10.9316 31.0785 10.3848L26.8792 8.08713ZM15.8945 9.46777C16.5827 10.9557 18.3469 11.6041 19.8348 10.9159C21.3228 10.2276 21.9711 8.4635 21.2829 6.97553C20.5947 5.48757 18.8306 4.83924 17.3426 5.52745C15.8546 6.21566 15.2063 7.9798 15.8945 9.46777ZM23.4549 17.8711C22.6498 18.2435 21.6952 17.8927 21.3229 17.0876C20.9505 16.2825 21.3013 15.3279 22.1064 14.9556C22.9115 14.5832 23.866 14.934 24.2384 15.7391C24.6108 16.5442 24.26 17.4987 23.4549 17.8711ZM11.2276 15.6908C11.5473 16.3821 12.3669 16.6833 13.0582 16.3636C13.7494 16.0438 14.0506 15.2243 13.7309 14.533C13.4112 13.8417 12.5916 13.5405 11.9003 13.8602C11.2091 14.18 10.9079 14.9996 11.2276 15.6908ZM26.639 24.6973C25.5636 24.9855 24.4583 24.3473 24.1701 23.2719C23.882 22.1966 24.5201 21.0912 25.5955 20.8031C26.6709 20.5149 27.7762 21.1531 28.0644 22.2285C28.3525 23.3038 27.7144 24.4092 26.639 24.6973ZM29.9845 17.6844C30.1707 18.087 30.6479 18.2624 31.0505 18.0762C31.453 17.89 31.6284 17.4128 31.4422 17.0102C31.2561 16.6077 30.7788 16.4323 30.3762 16.6184C29.9737 16.8046 29.7983 17.2819 29.9845 17.6844Z" fill="white" fill-opacity="0.8"/>
</svg>
