<svg width="50" height="50" viewBox="0 0 50 50" fill="none" xmlns="http://www.w3.org/2000/svg">
<g id="cheese_enhancer">
<g id="Vector 261">
<path d="M18.3426 29.0398C18.0275 26.0112 19.1988 23.6518 19.8079 23.2153L15.1507 23.5955L11.8841 29.1324C11.9562 29.7957 13.6889 32.8488 15.4692 34.8627C17.7989 37.498 20.0993 39.4476 21.1484 40.2008L22.7231 38.9207C20.8826 36.2888 18.597 31.4839 18.3426 29.0398Z" fill="#FAA21E"/>
<path d="M18.3426 29.0398C18.0275 26.0112 19.1988 23.6518 19.8079 23.2153L15.1507 23.5955L11.8841 29.1324C11.9562 29.7957 13.6889 32.8488 15.4692 34.8627C17.7989 37.498 20.0993 39.4476 21.1484 40.2008L22.7231 38.9207C20.8826 36.2888 18.597 31.4839 18.3426 29.0398Z" fill="white" fill-opacity="0.95"/>
</g>
<g id="Vector 259">
<path d="M24.375 17.4999C24.375 17.4999 16.5208 17.2966 14.5 17.9998C12.4792 18.7029 10.5 19.4999 7 23.9999C3.5 28.4999 2 36.9999 2 49.9997H13.4375C13.327 48.2633 12.5 42.2234 12.5 36.9998C12.5 31.281 12.2947 28.6882 14.4792 26.4703C16.6263 24.2903 20.7292 24.5095 24.375 24.5095V17.4999Z" fill="#FAA21E"/>
<path d="M24.375 17.4999C24.375 17.4999 16.5208 17.2966 14.5 17.9998C12.4792 18.7029 10.5 19.4999 7 23.9999C3.5 28.4999 2 36.9999 2 49.9997H13.4375C13.327 48.2633 12.5 42.2234 12.5 36.9998C12.5 31.281 12.2947 28.6882 14.4792 26.4703C16.6263 24.2903 20.7292 24.5095 24.375 24.5095V17.4999Z" fill="white" fill-opacity="0.4"/>
</g>
<g id="Vector 260">
<path d="M36 21C36 10.4118 38.3056 3.61438 39 1C36 1.00001 31.875 6 30 8.5C28.125 11 24.375 17.6471 24.375 17.6471V24.5098C24.375 24.5098 27.5 30.5 30 33.5C32.5 36.5 36 41 39 41C38.3056 38.8758 36 31.5882 36 21Z" fill="#FAA21E"/>
<path d="M36 21C36 10.4118 38.3056 3.61438 39 1C36 1.00001 31.875 6 30 8.5C28.125 11 24.375 17.6471 24.375 17.6471V24.5098C24.375 24.5098 27.5 30.5 30 33.5C32.5 36.5 36 41 39 41C38.3056 38.8758 36 31.5882 36 21Z" fill="white" fill-opacity="0.4"/>
</g>
<g id="Ellipse 205">
<ellipse cx="39" cy="21" rx="3" ry="20" fill="#FAA21E"/>
<ellipse cx="39" cy="21" rx="3" ry="20" fill="white" fill-opacity="0.95"/>
</g>
<g id="Rectangle 454">
<path d="M36 20H42V22.5H36V20Z" fill="#FAA21E"/>
<path d="M36 20H42V22.5H36V20Z" fill="white" fill-opacity="0.4"/>
</g>
<g id="Ellipse 206">
<circle cx="45" cy="21" r="4" fill="#FAA21E"/>
<circle cx="45" cy="21" r="4" fill="white" fill-opacity="0.4"/>
</g>
</g>
</svg>
