<svg width="50" height="50" viewBox="0 0 50 50" fill="none" xmlns="http://www.w3.org/2000/svg">
<circle cx="25.0667" cy="25.0665" r="22.4167" stroke="#1D8CE0" stroke-width="0.996296"/>
<circle cx="25.0667" cy="25.0665" r="22.4167" stroke="white" stroke-opacity="0.95" stroke-width="0.996296"/>
<path d="M37.5 37.5001C43 33.0454 45 21.5 38.5745 13.0016C39.2991 19.1626 37.6992 26.8689 32.5141 32.0453C27.329 37.2217 15.4044 38.4225 11 37.5001C22.5964 45.5482 31.1157 42.671 37.5 37.5001Z" fill="#FEFEFE" fill-opacity="0.15"/>
<path d="M25.4507 24.3001L16.7875 40.1387" stroke="#FAA21E" stroke-width="3.38741" stroke-linecap="round"/>
<path d="M25.4507 24.3001L16.7875 40.1387" stroke="white" stroke-opacity="0.2" stroke-width="3.38741" stroke-linecap="round"/>
<path d="M35.746 29.6108L39.23 23.3061C40.1376 21.6638 39.5373 19.5967 37.8912 18.696L23.2747 10.6985C21.6473 9.80804 19.6064 10.3922 18.6967 12.0089L15.0576 18.4757C14.1239 20.1348 14.7405 22.2373 16.4223 23.1294L31.1938 30.9648C32.8265 31.8309 34.8521 31.2284 35.746 29.6108Z" fill="#FAA21E"/>
<path d="M35.746 29.6108L39.23 23.3061C40.1376 21.6638 39.5373 19.5967 37.8912 18.696L23.2747 10.6985C21.6473 9.80804 19.6064 10.3922 18.6967 12.0089L15.0576 18.4757C14.1239 20.1348 14.7405 22.2373 16.4223 23.1294L31.1938 30.9648C32.8265 31.8309 34.8521 31.2284 35.746 29.6108Z" fill="white" fill-opacity="0.2"/>
<path fill-rule="evenodd" clip-rule="evenodd" d="M15.7739 17.2028C16.3645 17.7708 17.2654 17.9502 18.0539 17.5855C19.0804 17.1107 19.5277 15.8937 19.0529 14.8672C18.7867 14.2916 18.287 13.8981 17.7185 13.7472L15.7739 17.2028ZM32.2964 15.6348C31.8876 16.2135 31.7907 16.9886 32.1094 17.6778C32.5842 18.7043 33.8012 19.1516 34.8277 18.6768C35.3189 18.4497 35.6774 18.0526 35.8658 17.5878L32.2964 15.6348ZM22.9594 16.8083C23.5444 18.0731 25.0439 18.6242 26.3087 18.0392C27.5735 17.4542 28.1245 15.9547 27.5396 14.6899C26.9546 13.4252 25.4551 12.8741 24.1903 13.4591C22.9255 14.044 22.3744 15.5436 22.9594 16.8083ZM29.3857 23.9512C28.7014 24.2677 27.89 23.9695 27.5735 23.2852C27.257 22.6008 27.5552 21.7895 28.2395 21.473C28.9238 21.1565 29.7352 21.4546 30.0517 22.139C30.3682 22.8233 30.07 23.6346 29.3857 23.9512ZM18.9925 22.0979C19.2643 22.6855 19.9609 22.9415 20.5485 22.6698C21.1361 22.398 21.3921 21.7014 21.1204 21.1138C20.8486 20.5262 20.152 20.2702 19.5644 20.5419C18.9768 20.8137 18.7208 21.5104 18.9925 22.0979ZM32.0922 29.7535C31.1782 29.9984 30.2386 29.4559 29.9937 28.5419C29.7488 27.6278 30.2912 26.6883 31.2053 26.4433C32.1193 26.1984 33.0589 26.7409 33.3038 27.6549C33.5487 28.569 33.0063 29.5085 32.0922 29.7535ZM34.9359 23.7925C35.0942 24.1347 35.4998 24.2838 35.842 24.1255C36.1842 23.9673 36.3332 23.5616 36.175 23.2194C36.0167 22.8772 35.6111 22.7282 35.2689 22.8864C34.9267 23.0447 34.7776 23.4504 34.9359 23.7925Z" fill="#FAA21E"/>
<path fill-rule="evenodd" clip-rule="evenodd" d="M15.7739 17.2028C16.3645 17.7708 17.2654 17.9502 18.0539 17.5855C19.0804 17.1107 19.5277 15.8937 19.0529 14.8672C18.7867 14.2916 18.287 13.8981 17.7185 13.7472L15.7739 17.2028ZM32.2964 15.6348C31.8876 16.2135 31.7907 16.9886 32.1094 17.6778C32.5842 18.7043 33.8012 19.1516 34.8277 18.6768C35.3189 18.4497 35.6774 18.0526 35.8658 17.5878L32.2964 15.6348ZM22.9594 16.8083C23.5444 18.0731 25.0439 18.6242 26.3087 18.0392C27.5735 17.4542 28.1245 15.9547 27.5396 14.6899C26.9546 13.4252 25.4551 12.8741 24.1903 13.4591C22.9255 14.044 22.3744 15.5436 22.9594 16.8083ZM29.3857 23.9512C28.7014 24.2677 27.89 23.9695 27.5735 23.2852C27.257 22.6008 27.5552 21.7895 28.2395 21.473C28.9238 21.1565 29.7352 21.4546 30.0517 22.139C30.3682 22.8233 30.07 23.6346 29.3857 23.9512ZM18.9925 22.0979C19.2643 22.6855 19.9609 22.9415 20.5485 22.6698C21.1361 22.398 21.3921 21.7014 21.1204 21.1138C20.8486 20.5262 20.152 20.2702 19.5644 20.5419C18.9768 20.8137 18.7208 21.5104 18.9925 22.0979ZM32.0922 29.7535C31.1782 29.9984 30.2386 29.4559 29.9937 28.5419C29.7488 27.6278 30.2912 26.6883 31.2053 26.4433C32.1193 26.1984 33.0589 26.7409 33.3038 27.6549C33.5487 28.569 33.0063 29.5085 32.0922 29.7535ZM34.9359 23.7925C35.0942 24.1347 35.4998 24.2838 35.842 24.1255C36.1842 23.9673 36.3332 23.5616 36.175 23.2194C36.0167 22.8772 35.6111 22.7282 35.2689 22.8864C34.9267 23.0447 34.7776 23.4504 34.9359 23.7925Z" fill="white" fill-opacity="0.8"/>
<path d="M14.6055 9.12572C11.765 11.6271 10.6204 15.1035 10.6204 18.0924C11.1061 16.033 14.2019 11.8587 17.0963 10.122C19.5596 8.64405 21.5796 7.13312 25.0667 6.63497C21.5796 6.13682 17.4461 6.62428 14.6055 9.12572Z" fill="#FEFEFE"/>
<path d="M34.5 40C37.5 38.5 40.5 35.5 42 30C40 34 37.0518 37.1895 34 39C30.9482 40.8105 27 42.5 21 42C27.5 43.5 30.6529 41.9235 34.5 40Z" fill="#FEFEFE"/>
</svg>
