<svg width="50" height="50" viewBox="0 0 50 50" fill="none" xmlns="http://www.w3.org/2000/svg">
<path d="M33.4648 22.8169L28.9014 18.2535L2.38087 41.7318C1.70573 43.0407 1.5211 45.6338 3.80279 47.9155C6.08448 50.1972 8.67756 50.0126 9.9865 49.3374L33.4648 22.8169Z" fill="#FAA21E"/>
<path d="M33.4648 22.8169L28.9014 18.2535L2.38087 41.7318C1.70573 43.0407 1.5211 45.6338 3.80279 47.9155C6.08448 50.1972 8.67756 50.0126 9.9865 49.3374L33.4648 22.8169Z" fill="white" fill-opacity="0.8"/>
<path d="M32.7028 3.80282L30.4212 6.08451L35.7451 7.60563L44.4916 16.3521C44.4916 16.3521 46.393 21.2958 46.7733 23.9577C47.1535 26.6197 46.7733 32.3239 46.7733 32.3239C46.7733 32.3239 44.8719 28.1408 42.9704 26.2394C41.069 24.338 39.1153 23.6868 37.6465 23.1972C36.1777 22.7076 34.9845 22.8169 33.4634 22.8169L28.9 18.2535C28.9 16.7324 29.1995 16.1097 28.5197 14.0704C27.84 12.0312 26.1113 11.1549 25.8578 10.6479L23.5761 12.9296L19.7733 9.12676L28.9 0L32.7028 3.80282Z" fill="#FAA21E"/>
<path d="M32.7028 3.80282L30.4212 6.08451L35.7451 7.60563L44.4916 16.3521C44.4916 16.3521 46.393 21.2958 46.7733 23.9577C47.1535 26.6197 46.7733 32.3239 46.7733 32.3239C46.7733 32.3239 44.8719 28.1408 42.9704 26.2394C41.069 24.338 39.1153 23.6868 37.6465 23.1972C36.1777 22.7076 34.9845 22.8169 33.4634 22.8169L28.9 18.2535C28.9 16.7324 29.1995 16.1097 28.5197 14.0704C27.84 12.0312 26.1113 11.1549 25.8578 10.6479L23.5761 12.9296L19.7733 9.12676L28.9 0L32.7028 3.80282Z" fill="white" fill-opacity="0.4"/>
</svg>
