<svg width="50" height="50" viewBox="0 0 50 50" fill="none" xmlns="http://www.w3.org/2000/svg">
<g clip-path="url(#clip0_1880_9307)">
<g clip-path="url(#clip1_1880_9307)">
<path d="M22.8299 44.171C17.4017 44.171 13.8965 42.1857 13.4002 41.1931C12.9039 40.2005 12.9039 36.6573 12.9039 36.6573H32.756C32.756 38.7749 32.8791 40.1965 32.2597 41.1931C31.2727 42.7813 27.7647 44.171 22.8299 44.171Z" fill="#898989"/>
<path d="M22.8299 44.171C17.4017 44.171 13.8965 42.1857 13.4002 41.1931C12.9039 40.2005 12.9039 36.6573 12.9039 36.6573H32.756C32.756 38.7749 32.8791 40.1965 32.2597 41.1931C31.2727 42.7813 27.7647 44.171 22.8299 44.171Z" fill="white" fill-opacity="0.6"/>
<path d="M40.0851 22.0494C39.2788 22.0135 38.1081 21.0907 38.5886 19.3708C39.069 17.6508 41.1427 16.4371 43.5614 16.5447C45.9802 16.6523 47.1316 18.0095 48.3024 18.9323C48.2637 19.8012 48.5122 23.295 46.3612 26.2466C44.2102 29.1983 41.8272 30.365 39.276 31.1554C37.6377 31.663 37.183 32.8037 37.1444 33.6726C37.1057 34.5416 37.8733 35.4464 38.6796 35.4823" stroke="#FEFEFE" stroke-width="2.48152" stroke-linecap="round"/>
<path d="M41.6894 11.0089H3.9704C5.58847 14.7844 6.66718 15.3238 7.7459 19.6386C8.28526 21.7961 7.7459 28.6574 8.82461 32.4329C10.1907 37.2142 12.9945 39.7154 15.8363 41.0626C18.6661 42.4042 26.5039 42.4042 29.8595 41.0626C32.7798 39.8951 35.5473 37.2871 36.8712 32.4329C38.3997 26.8285 37.3065 22.8557 37.9499 19.6386C38.4893 16.9418 39.532 15.3238 41.6894 11.0089Z" fill="#898989"/>
<path d="M41.6894 11.0089H3.9704C5.58847 14.7844 6.66718 15.3238 7.7459 19.6386C8.28526 21.7961 7.7459 28.6574 8.82461 32.4329C10.1907 37.2142 12.9945 39.7154 15.8363 41.0626C18.6661 42.4042 26.5039 42.4042 29.8595 41.0626C32.7798 39.8951 35.5473 37.2871 36.8712 32.4329C38.3997 26.8285 37.3065 22.8557 37.9499 19.6386C38.4893 16.9418 39.532 15.3238 41.6894 11.0089Z" fill="white" fill-opacity="0.95"/>
<path d="M41.6894 10.8052C41.6894 13.4836 33.4725 15.7434 23.0566 15.7434C12.6408 15.7434 3.9704 13.4836 3.9704 10.8052C3.9704 8.12686 12.6408 5.95563 23.0566 5.95563C33.4725 5.95563 41.6894 8.12686 41.6894 10.8052Z" fill="#898989"/>
<path d="M41.6894 10.8052C41.6894 13.4836 33.4725 15.7434 23.0566 15.7434C12.6408 15.7434 3.9704 13.4836 3.9704 10.8052C3.9704 8.12686 12.6408 5.95563 23.0566 5.95563C33.4725 5.95563 41.6894 8.12686 41.6894 10.8052Z" fill="white" fill-opacity="0.6"/>
<path d="M41.6894 10.8052C41.6894 13.4836 33.4725 15.7434 23.0566 15.7434C12.6408 15.7434 3.9704 13.4836 3.9704 10.8052C3.9704 8.12686 12.6408 5.95563 23.0566 5.95563C33.4725 5.95563 41.6894 8.12686 41.6894 10.8052Z" stroke="#FEFEFE" stroke-width="1.48891"/>
<path d="M36.863 13.3807C36.863 13.032 29.2426 11.8863 22.9148 11.8863C16.5871 11.8863 8.96667 13.032 8.96667 13.3807C8.96667 13.7293 14.9445 15.1741 22.9148 15.1741C31.8815 15.1741 36.863 13.7293 36.863 13.3807Z" fill="#FAA21E"/>
<path d="M36.863 13.3807C36.863 13.032 29.2426 11.8863 22.9148 11.8863C16.5871 11.8863 8.96667 13.032 8.96667 13.3807C8.96667 13.7293 14.9445 15.1741 22.9148 15.1741C31.8815 15.1741 36.863 13.7293 36.863 13.3807Z" fill="white" fill-opacity="0.4"/>
</g>
<path d="M22.0886 27.0001L16.9926 36.3169" stroke="#FAA21E" stroke-width="2.98889" stroke-linecap="round"/>
<path d="M22.0886 27.0001L16.9926 36.3169" stroke="white" stroke-opacity="0.2" stroke-width="2.98889" stroke-linecap="round"/>
<path d="M28.1447 30.124L30.1942 26.4153C30.728 25.4493 30.3749 24.2333 29.4066 23.7035L20.8087 18.9991C19.8514 18.4753 18.6509 18.8189 18.1157 19.7699L15.9751 23.5739C15.4259 24.5499 15.7885 25.7866 16.7779 26.3114L25.467 30.9205C26.4274 31.4299 27.6189 31.0755 28.1447 30.124Z" fill="#FAA21E"/>
<path d="M28.1447 30.124L30.1942 26.4153C30.728 25.4493 30.3749 24.2333 29.4066 23.7035L20.8087 18.9991C19.8514 18.4753 18.6509 18.8189 18.1157 19.7699L15.9751 23.5739C15.4259 24.5499 15.7885 25.7866 16.7779 26.3114L25.467 30.9205C26.4274 31.4299 27.6189 31.0755 28.1447 30.124Z" fill="white" fill-opacity="0.2"/>
<path fill-rule="evenodd" clip-rule="evenodd" d="M16.3964 22.8252C16.7438 23.1593 17.2738 23.2648 17.7376 23.0503C18.3414 22.771 18.6045 22.0551 18.3253 21.4513C18.1687 21.1127 17.8748 20.8812 17.5403 20.7925L16.3964 22.8252ZM26.1156 21.9028C25.8751 22.2432 25.8181 22.6992 26.0056 23.1046C26.2849 23.7084 27.0008 23.9715 27.6046 23.6923C27.8935 23.5586 28.1044 23.3251 28.2152 23.0516L26.1156 21.9028ZM20.6232 22.5932C20.9673 23.3371 21.8494 23.6613 22.5934 23.3172C23.3374 22.9731 23.6615 22.091 23.3174 21.347C22.9733 20.6031 22.0912 20.2789 21.3473 20.623C20.6033 20.9671 20.2791 21.8492 20.6232 22.5932ZM24.4034 26.7948C24.0008 26.981 23.5236 26.8056 23.3374 26.4031C23.1512 26.0005 23.3266 25.5232 23.7292 25.3371C24.1317 25.1509 24.609 25.3263 24.7952 25.7288C24.9813 26.1314 24.8059 26.6086 24.4034 26.7948ZM18.2898 25.7047C18.4496 26.0503 18.8594 26.2009 19.205 26.0411C19.5507 25.8812 19.7013 25.4714 19.5414 25.1258C19.3816 24.7801 18.9718 24.6295 18.6261 24.7894C18.2805 24.9493 18.1299 25.359 18.2898 25.7047ZM25.9955 30.2079C25.4578 30.352 24.9051 30.0329 24.761 29.4952C24.617 28.9575 24.936 28.4049 25.4737 28.2608C26.0114 28.1167 26.5641 28.4358 26.7082 28.9735C26.8522 29.5112 26.5331 30.0639 25.9955 30.2079ZM27.6682 26.7015C27.7613 26.9028 27.9999 26.9905 28.2012 26.8974C28.4025 26.8043 28.4902 26.5656 28.3971 26.3644C28.304 26.1631 28.0654 26.0754 27.8641 26.1685C27.6628 26.2616 27.5751 26.5002 27.6682 26.7015Z" fill="#FAA21E"/>
<path fill-rule="evenodd" clip-rule="evenodd" d="M16.3964 22.8252C16.7438 23.1593 17.2738 23.2648 17.7376 23.0503C18.3414 22.771 18.6045 22.0551 18.3253 21.4513C18.1687 21.1127 17.8748 20.8812 17.5403 20.7925L16.3964 22.8252ZM26.1156 21.9028C25.8751 22.2432 25.8181 22.6992 26.0056 23.1046C26.2849 23.7084 27.0008 23.9715 27.6046 23.6923C27.8935 23.5586 28.1044 23.3251 28.2152 23.0516L26.1156 21.9028ZM20.6232 22.5932C20.9673 23.3371 21.8494 23.6613 22.5934 23.3172C23.3374 22.9731 23.6615 22.091 23.3174 21.347C22.9733 20.6031 22.0912 20.2789 21.3473 20.623C20.6033 20.9671 20.2791 21.8492 20.6232 22.5932ZM24.4034 26.7948C24.0008 26.981 23.5236 26.8056 23.3374 26.4031C23.1512 26.0005 23.3266 25.5232 23.7292 25.3371C24.1317 25.1509 24.609 25.3263 24.7952 25.7288C24.9813 26.1314 24.8059 26.6086 24.4034 26.7948ZM18.2898 25.7047C18.4496 26.0503 18.8594 26.2009 19.205 26.0411C19.5507 25.8812 19.7013 25.4714 19.5414 25.1258C19.3816 24.7801 18.9718 24.6295 18.6261 24.7894C18.2805 24.9493 18.1299 25.359 18.2898 25.7047ZM25.9955 30.2079C25.4578 30.352 24.9051 30.0329 24.761 29.4952C24.617 28.9575 24.936 28.4049 25.4737 28.2608C26.0114 28.1167 26.5641 28.4358 26.7082 28.9735C26.8522 29.5112 26.5331 30.0639 25.9955 30.2079ZM27.6682 26.7015C27.7613 26.9028 27.9999 26.9905 28.2012 26.8974C28.4025 26.8043 28.4902 26.5656 28.3971 26.3644C28.304 26.1631 28.0654 26.0754 27.8641 26.1685C27.6628 26.2616 27.5751 26.5002 27.6682 26.7015Z" fill="white" fill-opacity="0.8"/>
</g>
<defs>
<clipPath id="clip0_1880_9307">
<rect width="50" height="50" fill="white"/>
</clipPath>
<clipPath id="clip1_1880_9307">
<rect width="49.8148" height="49.8148" fill="white"/>
</clipPath>
</defs>
</svg>
