<svg width="50" height="50" viewBox="0 0 50 50" fill="none" xmlns="http://www.w3.org/2000/svg">
<path d="M0.258344 34.3676C-0.206711 33.4754 -0.206681 31.245 1.65349 30.3529L16.535 25L17 30.799L4.44379 35.7058C2.58359 36.5979 0.723396 35.2597 0.258344 34.3676Z" fill="#FAA21E"/>
<path d="M0.258344 34.3676C-0.206711 33.4754 -0.206681 31.245 1.65349 30.3529L16.535 25L17 30.799L4.44379 35.7058C2.58359 36.5979 0.723396 35.2597 0.258344 34.3676Z" fill="white" fill-opacity="0.6"/>
<path d="M14.6471 49.0771C15.5605 49.5594 17.8697 49.6106 18.8343 47.7836L24.7043 33.1263L18.7107 32.5312L13.3538 44.8893C12.3891 46.7164 13.7336 48.5947 14.6471 49.0771Z" fill="#FAA21E"/>
<path d="M14.6471 49.0771C15.5605 49.5594 17.8697 49.6106 18.8343 47.7836L24.7043 33.1263L18.7107 32.5312L13.3538 44.8893C12.3891 46.7164 13.7336 48.5947 14.6471 49.0771Z" fill="white" fill-opacity="0.6"/>
<path d="M36.9713 1.38174L28.1841 22.5008L20.1863 23.5582C20.916 21.1405 22.5573 15.7421 23.2841 13.4901C24.1926 10.6753 26.0692 6.50513 29.1969 4.33067C31.699 2.5911 35.4224 1.6399 36.9713 1.38174Z" fill="#FAA21E"/>
<path d="M36.9713 1.38174L28.1841 22.5008L20.1863 23.5582C20.916 21.1405 22.5573 15.7421 23.2841 13.4901C24.1926 10.6753 26.0692 6.50513 29.1969 4.33067C31.699 2.5911 35.4224 1.6399 36.9713 1.38174Z" fill="white" fill-opacity="0.4"/>
<path d="M49.1979 13.6896L27.9004 22.0318L26.6751 30.0056C29.1074 29.3267 34.5387 27.799 36.8053 27.1196C39.6384 26.2704 43.8468 24.4816 46.0864 21.4003C47.878 18.9353 48.9073 15.2327 49.1979 13.6896Z" fill="#FAA21E"/>
<path d="M49.1979 13.6896L27.9004 22.0318L26.6751 30.0056C29.1074 29.3267 34.5387 27.799 36.8053 27.1196C39.6384 26.2704 43.8468 24.4816 46.0864 21.4003C47.878 18.9353 48.9073 15.2327 49.1979 13.6896Z" fill="white" fill-opacity="0.4"/>
<circle cx="23" cy="27" r="8" fill="#FAA21E"/>
<circle cx="23" cy="27" r="8" fill="white" fill-opacity="0.95"/>
<circle cx="23" cy="27" r="4" fill="#FAA21E"/>
<circle cx="23" cy="27" r="4" fill="white" fill-opacity="0.4"/>
</svg>
