<svg width="50" height="50" viewBox="0 0 50 50" fill="none" xmlns="http://www.w3.org/2000/svg">
<path d="M23.2996 30.8934L19.1396 26.7333L0.660742 42.4389C0.27137 43.406 0.419581 45.4534 2.49958 47.5334C4.57958 49.6134 6.62693 49.7616 7.59408 49.3722L23.2996 30.8934Z" fill="#FAA21E"/>
<path d="M23.2996 30.8934L19.1396 26.7333L0.660742 42.4389C0.27137 43.406 0.419581 45.4534 2.49958 47.5334C4.57958 49.6134 6.62693 49.7616 7.59408 49.3722L23.2996 30.8934Z" fill="white" fill-opacity="0.95"/>
<path d="M20.1796 11.1333L18.793 27.08L22.953 31.24L38.8997 29.8534L49.083 19.67C49.2997 19.4534 49.6463 18.2747 49.6463 17.72C49.6463 17.1653 49.2997 15.9867 48.953 15.64L34.393 1.08C34.0463 0.733335 33.0063 0.386668 32.313 0.386668C31.436 0.386668 30.5508 0.762224 30.363 0.950002L20.1796 11.1333Z" fill="#FAA21E"/>
<path d="M20.1796 11.1333L18.793 27.08L22.953 31.24L38.8997 29.8534L49.083 19.67C49.2997 19.4534 49.6463 18.2747 49.6463 17.72C49.6463 17.1653 49.2997 15.9867 48.953 15.64L34.393 1.08C34.0463 0.733335 33.0063 0.386668 32.313 0.386668C31.436 0.386668 30.5508 0.762224 30.363 0.950002L20.1796 11.1333Z" fill="white" fill-opacity="0.4"/>
<path d="M32.6596 8.36007C32.105 7.8054 31.3885 7.78229 30.9263 8.0134L27.4596 11.4801C27.3441 11.8267 27.2516 12.6587 27.8063 13.2134C28.361 13.7681 29.193 13.6756 29.5396 13.5601L33.0063 10.0934C33.2374 9.63118 33.2143 8.91474 32.6596 8.36007Z" fill="#FAA21E"/>
<path d="M32.6596 8.36007C32.105 7.8054 31.3885 7.78229 30.9263 8.0134L27.4596 11.4801C27.3441 11.8267 27.2516 12.6587 27.8063 13.2134C28.361 13.7681 29.193 13.6756 29.5396 13.5601L33.0063 10.0934C33.2374 9.63118 33.2143 8.91474 32.6596 8.36007Z" fill="white" fill-opacity="0.95"/>
<path d="M37.1663 12.8667C36.6117 12.312 35.8952 12.2889 35.433 12.52L31.9663 15.9867C31.8508 16.3333 31.7583 17.1653 32.313 17.72C32.8677 18.2747 33.6997 18.1822 34.0463 18.0667L37.513 14.6C37.7441 14.1378 37.721 13.4213 37.1663 12.8667Z" fill="#FAA21E"/>
<path d="M37.1663 12.8667C36.6117 12.312 35.8952 12.2889 35.433 12.52L31.9663 15.9867C31.8508 16.3333 31.7583 17.1653 32.313 17.72C32.8677 18.2747 33.6997 18.1822 34.0463 18.0667L37.513 14.6C37.7441 14.1378 37.721 13.4213 37.1663 12.8667Z" fill="white" fill-opacity="0.95"/>
<path d="M41.673 17.3735C41.1183 16.8188 40.4019 16.7957 39.9397 17.0268L36.473 20.4935C36.3574 20.8402 36.265 21.6722 36.8197 22.2268C37.3743 22.7815 38.2063 22.6891 38.553 22.5735L42.0197 19.1068C42.2508 18.6446 42.2277 17.9282 41.673 17.3735Z" fill="#FAA21E"/>
<path d="M41.673 17.3735C41.1183 16.8188 40.4019 16.7957 39.9397 17.0268L36.473 20.4935C36.3574 20.8402 36.265 21.6722 36.8197 22.2268C37.3743 22.7815 38.2063 22.6891 38.553 22.5735L42.0197 19.1068C42.2508 18.6446 42.2277 17.9282 41.673 17.3735Z" fill="white" fill-opacity="0.95"/>
</svg>
