<svg width="50" height="50" viewBox="0 0 50 50" fill="none" xmlns="http://www.w3.org/2000/svg">
<path d="M12.5 12C12.9298 8.12202 13.2154 3.01978 13.9317 1C16.5849 1.49875 21.7022 2 26 2C30.2978 2 35.3989 1.40397 37.906 1.00001C38.4432 2.21188 38.5 6.5 39 10.5C39.5515 14.9123 41.4316 44.2684 41.7898 47.5C37.97 49.5 32.2898 49 28.4832 48.2629C28.3041 45.8391 26.4298 16 26 16C25.5702 16 24.1854 45.8391 24.1854 48.2629C21 49 19.2914 49.046 16.9612 49C14.6311 48.954 12.4099 48.5 10.5 48C10.5 47.3941 12.0702 15.878 12.5 12Z" fill="#FAA21E"/>
<path d="M12.5 12C12.9298 8.12202 13.2154 3.01978 13.9317 1C16.5849 1.49875 21.7022 2 26 2C30.2978 2 35.3989 1.40397 37.906 1.00001C38.4432 2.21188 38.5 6.5 39 10.5C39.5515 14.9123 41.4316 44.2684 41.7898 47.5C37.97 49.5 32.2898 49 28.4832 48.2629C28.3041 45.8391 26.4298 16 26 16C25.5702 16 24.1854 45.8391 24.1854 48.2629C21 49 19.2914 49.046 16.9612 49C14.6311 48.954 12.4099 48.5 10.5 48C10.5 47.3941 12.0702 15.878 12.5 12Z" fill="black" fill-opacity="0.6"/>
<path d="M7.5 40.5C26 43 32.5 42.5 43 40.5C43 40.5 39.9765 11.1863 38.1765 1C35.0848 1.67909 29.24 3.03727 26 3.03727C22.76 3.03727 17.2269 1.67909 13.8235 1C11 12.5 7.5 40.5 7.5 40.5Z" fill="#898989"/>
<path d="M7.5 40.5C26 43 32.5 42.5 43 40.5C43 40.5 39.9765 11.1863 38.1765 1C35.0848 1.67909 29.24 3.03727 26 3.03727C22.76 3.03727 17.2269 1.67909 13.8235 1C11 12.5 7.5 40.5 7.5 40.5Z" fill="white" fill-opacity="0.2"/>
<path d="M15 37.0001C26 38.5 35 38 39 37.0001C39 37.0001 39 12.0001 38.5 2.80371C35.9236 3.40493 29.7 4.00008 27 4.00008C24.3 4.00008 18.3361 3.40493 15.5 2.80371C15 12.0001 15 37.0001 15 37.0001Z" fill="#FAA21E"/>
<path d="M15 37.0001C26 38.5 35 38 39 37.0001C39 37.0001 39 12.0001 38.5 2.80371C35.9236 3.40493 29.7 4.00008 27 4.00008C24.3 4.00008 18.3361 3.40493 15.5 2.80371C15 12.0001 15 37.0001 15 37.0001Z" fill="black" fill-opacity="0.6"/>
<path d="M13 5.24242L13.4368 1C16.4946 1.54545 25.879 2 28.5 2C31.121 2 34.6317 1.54545 38.5632 1L39 5.24242C35.5054 6.45455 32.0578 7 29 7C25.0685 7 16.9315 6.45455 13 5.24242Z" fill="#FAA21E"/>
<path d="M13 5.24242L13.4368 1C16.4946 1.54545 25.879 2 28.5 2C31.121 2 34.6317 1.54545 38.5632 1L39 5.24242C35.5054 6.45455 32.0578 7 29 7C25.0685 7 16.9315 6.45455 13 5.24242Z" fill="black" fill-opacity="0.6"/>
<path d="M13 4.5L13.444 2C16.9959 2.66667 23.6162 3.5 28.5 3.5C33.3838 3.5 35 3 38.4583 2L39 4.5C35.5 5.5 32.5 6 28.5 6C24.5 6 16.9959 5.16667 13 4.5Z" fill="#FAA21E"/>
<path d="M13 4.5L13.444 2C16.9959 2.66667 23.6162 3.5 28.5 3.5C33.3838 3.5 35 3 38.4583 2L39 4.5C35.5 5.5 32.5 6 28.5 6C24.5 6 16.9959 5.16667 13 4.5Z" fill="black" fill-opacity="0.4"/>
<path d="M30.5 6.5L25.5 6.5L25.5 3L30.5 3" stroke="#898989" stroke-linejoin="round"/>
<path d="M30.5 6.5L25.5 6.5L25.5 3L30.5 3" stroke="white" stroke-opacity="0.6" stroke-linejoin="round"/>
<path d="M17 6V35C27 36.5 33 36 37 35V6" stroke="#FAA21E" stroke-width="0.4" stroke-linejoin="round" stroke-dasharray="1 1"/>
<path d="M17 6V35C27 36.5 33 36 37 35V6" stroke="black" stroke-opacity="0.1" stroke-width="0.4" stroke-linejoin="round" stroke-dasharray="1 1"/>
</svg>
