<svg width="51" height="51" viewBox="0 0 51 51" fill="none" xmlns="http://www.w3.org/2000/svg">
<path d="M39.5 7.5L31.5 2C28.3334 5.5 21.2 13.9 20 15.5C18.5 17.5 0.50003 46.5 1.00003 47.5C1.50003 48.5 3.00003 50 7.00003 50.5C11 51 12 50.5 12.5 50C13 49.5 12 48.5 12.5 46C13 43.5 16.5 36 18 33.5C19.5 31 26.5 23 28.5 21.5C30.1 20.3 36.6667 11.5 39.5 7.5Z" fill="#FAA21E"/>
<path d="M39.5 7.5L31.5 2C28.3334 5.5 21.2 13.9 20 15.5C18.5 17.5 0.50003 46.5 1.00003 47.5C1.50003 48.5 3.00003 50 7.00003 50.5C11 51 12 50.5 12.5 50C13 49.5 12 48.5 12.5 46C13 43.5 16.5 36 18 33.5C19.5 31 26.5 23 28.5 21.5C30.1 20.3 36.6667 11.5 39.5 7.5Z" fill="white" fill-opacity="0.95"/>
<path d="M39 8.98608L51 18.9861C50.5556 20.0972 48.8847 22.6302 47 24.9861C44.3333 28.3194 40.3333 30.5416 38.3333 31.6528C37.6667 28.9861 36.0667 22.1861 35 18.9861C34.2164 16.6354 32.8042 15.7302 32.2572 15.3796L32.25 15.375C31 16.625 28.5812 17.3645 26.625 16C24.375 14.4305 24.75 12.25 25.375 11L21 8.31942L27 0.986084L39 8.98608Z" fill="#FAA21E"/>
<path d="M39 8.98608L51 18.9861C50.5556 20.0972 48.8847 22.6302 47 24.9861C44.3333 28.3194 40.3333 30.5416 38.3333 31.6528C37.6667 28.9861 36.0667 22.1861 35 18.9861C34.2164 16.6354 32.8042 15.7302 32.2572 15.3796L32.25 15.375C31 16.625 28.5812 17.3645 26.625 16C24.375 14.4305 24.75 12.25 25.375 11L21 8.31942L27 0.986084L39 8.98608Z" fill="white" fill-opacity="0.4"/>
<path d="M47 24.9862C44.3333 28.3195 40.3333 30.5417 38.3333 31.6528C37.9885 30.2735 37.3939 27.7882 36.7526 25.2673C41.4464 22.2286 43.6189 20.0699 46.541 15.2703L51 18.9862C50.5556 20.0973 48.8847 22.6303 47 24.9862Z" fill="#FAA21E"/>
<path d="M47 24.9862C44.3333 28.3195 40.3333 30.5417 38.3333 31.6528C37.9885 30.2735 37.3939 27.7882 36.7526 25.2673C41.4464 22.2286 43.6189 20.0699 46.541 15.2703L51 18.9862C50.5556 20.0973 48.8847 22.6303 47 24.9862Z" fill="white" fill-opacity="0.95"/>
</svg>
