<svg width="50" height="50" viewBox="0 0 50 50" fill="none" xmlns="http://www.w3.org/2000/svg">
<path d="M26.5 3C23.3 3 19.5 2 18.5 1.5L28 18.5L31.5 1.5C30.8333 2 29.7 3 26.5 3Z" fill="#898989"/>
<path d="M26.5 3C23.3 3 19.5 2 18.5 1.5L28 18.5L31.5 1.5C30.8333 2 29.7 3 26.5 3Z" fill="black" fill-opacity="0.2"/>
<path d="M5 41.6096C3.48384 41.2273 2.70359 40.8371 1.5 39.637C1.5 25.8288 7.5 6.76027 9.5 5.44521C11.5 4.13014 17.5 1.5 18.5 1.5C20 3.5 25.3368 3.21097 26 4.13014C26.5 4.82313 27.5 15.3699 28 18C28.5 15.3699 28.5799 4.78767 29 4.13014C29.8403 2.81507 31.5 3 31.5 1.5C32.5 1.5 37 3.89041 39.5 5.44521C42 7 48.5 29.774 48.5 39.637C47.2698 41.0278 46.4771 41.3397 45 41.6096C39.5 36.5 37.5 21.5 37.5 21.5C37.5 28 37.6496 30.4091 38 34.2273C38.4964 39.637 39.5 43.5 40.5 46.8699C37.5 48.8425 32 49.5 25.5 49.5C18 49.5 12 48.0485 9.5 46.8699C10.5 42.9545 11.4286 38.5909 12 34.2273C12.5 30.4091 13 28 13 21.5C13 21.5 10 36.3493 5 41.6096Z" fill="#898989"/>
<path d="M5 41.6096C3.48384 41.2273 2.70359 40.8371 1.5 39.637C1.5 25.8288 7.5 6.76027 9.5 5.44521C11.5 4.13014 17.5 1.5 18.5 1.5C20 3.5 25.3368 3.21097 26 4.13014C26.5 4.82313 27.5 15.3699 28 18C28.5 15.3699 28.5799 4.78767 29 4.13014C29.8403 2.81507 31.5 3 31.5 1.5C32.5 1.5 37 3.89041 39.5 5.44521C42 7 48.5 29.774 48.5 39.637C47.2698 41.0278 46.4771 41.3397 45 41.6096C39.5 36.5 37.5 21.5 37.5 21.5C37.5 28 37.6496 30.4091 38 34.2273C38.4964 39.637 39.5 43.5 40.5 46.8699C37.5 48.8425 32 49.5 25.5 49.5C18 49.5 12 48.0485 9.5 46.8699C10.5 42.9545 11.4286 38.5909 12 34.2273C12.5 30.4091 13 28 13 21.5C13 21.5 10 36.3493 5 41.6096Z" fill="white" fill-opacity="0.4"/>
<circle cx="4.25" cy="39.75" r="0.75" fill="#FAA21E"/>
<circle cx="4.25" cy="39.75" r="0.75" fill="black" fill-opacity="0.6"/>
<circle cx="45.25" cy="39.75" r="0.75" fill="#FAA21E"/>
<circle cx="45.25" cy="39.75" r="0.75" fill="black" fill-opacity="0.6"/>
<path d="M25.576 5.07617L29.165 7.44663L26.2584 10.0546L29.3477 12.4433L26.9225 14.5333M29.5734 4.93003L26.1671 7.55624L29.2564 9.94496L26.3497 12.5529L28.9211 14.4602" stroke="#FAA21E" stroke-width="0.5" stroke-linecap="round" stroke-linejoin="round"/>
<path d="M25.576 5.07617L29.165 7.44663L26.2584 10.0546L29.3477 12.4433L26.9225 14.5333M29.5734 4.93003L26.1671 7.55624L29.2564 9.94496L26.3497 12.5529L28.9211 14.4602" stroke="black" stroke-opacity="0.6" stroke-width="0.5" stroke-linecap="round" stroke-linejoin="round"/>
<path d="M8 8C8.47619 8.82286 10.2222 11.12 11.3333 14.32C12.4444 17.52 13 21.1771 13 22" stroke="#898989" stroke-width="0.4" stroke-linejoin="round" stroke-dasharray="1 1"/>
<path d="M40 7C39.6029 7.71745 38.4899 10.4643 37.8678 13.207C37.2457 15.9497 37.3328 20.3476 37.4508 21.2444" stroke="#898989" stroke-width="0.4" stroke-linejoin="round" stroke-dasharray="1 1"/>
<path d="M28 18.5V49.5" stroke="#898989" stroke-width="0.4" stroke-dasharray="1 1"/>
</svg>
