<svg width="50" height="50" viewBox="0 0 50 50" fill="none" xmlns="http://www.w3.org/2000/svg">
<path d="M27.5 0.5C25 0.5 22.2334 0.433431 20.4 0.100098L28 5.5001L31.6 0.200098C30.7667 0.533431 29.5 0.5 27.5 0.5Z" fill="#898989"/>
<path d="M27.5 0.5C25 0.5 22.2334 0.433431 20.4 0.100098L28 5.5001L31.6 0.200098C30.7667 0.533431 29.5 0.5 27.5 0.5Z" fill="white" fill-opacity="0.4"/>
<path d="M8.5 44C5.48571 43.6968 3.45929 43.2433 1 42C3.5 32.7744 7.5 9.50005 9.5 7.50005C11.5 5.50005 18.4591 4.7172 19 3.50005C19.7175 1.88559 20 1.00005 20 1.00005C20 1.00005 24.7938 3.8256 28 5C30.2601 4.03141 32.3 0.800049 32.3 0.800049C32.3 0.800049 32.2915 1.90582 33 3.50005C33.6666 5 38 5.56124 40 7C42 8.43876 46.5 35.0808 49 42C46.7735 43.4579 45.6266 43.7433 42.5 44C41 36 38.5 20.5 38.5 20.5C38 28.5001 39.5577 39.7744 41 47.2838C38.5962 48.4279 34.25 49.5 28 49.5C20.7885 49.5 14 48.2162 11 47C13 40.2162 13.5 31 13 18C13 18 10.5 35.351 8.5 44Z" fill="#898989"/>
<path d="M8.5 44C5.48571 43.6968 3.45929 43.2433 1 42C3.5 32.7744 7.5 9.50005 9.5 7.50005C11.5 5.50005 18.4591 4.7172 19 3.50005C19.7175 1.88559 20 1.00005 20 1.00005C20 1.00005 24.7938 3.8256 28 5C30.2601 4.03141 32.3 0.800049 32.3 0.800049C32.3 0.800049 32.2915 1.90582 33 3.50005C33.6666 5 38 5.56124 40 7C42 8.43876 46.5 35.0808 49 42C46.7735 43.4579 45.6266 43.7433 42.5 44C41 36 38.5 20.5 38.5 20.5C38 28.5001 39.5577 39.7744 41 47.2838C38.5962 48.4279 34.25 49.5 28 49.5C20.7885 49.5 14 48.2162 11 47C13 40.2162 13.5 31 13 18C13 18 10.5 35.351 8.5 44Z" fill="white" fill-opacity="0.95"/>
<path d="M32 0.5C30.7922 2.3471 29.875 3.5 28 5M20.1539 49C20.6255 27.6573 20.7937 18.3342 19 9.5C22.5 8.5 25.5 7 28 5M28 5C24.8037 3.84712 23.0758 2.5025 20.1539 0.5" stroke="#546DDB"/>
<path d="M32 0.5C30.7922 2.3471 29.875 3.5 28 5M20.1539 49C20.6255 27.6573 20.7937 18.3342 19 9.5C22.5 8.5 25.5 7 28 5M28 5C24.8037 3.84712 23.0758 2.5025 20.1539 0.5" stroke="black" stroke-opacity="0.2"/>
<circle cx="24.1195" cy="11.8876" r="1" transform="rotate(-1.45758 24.1195 11.8876)" fill="#546DDB"/>
<circle cx="24.1195" cy="11.8876" r="1" transform="rotate(-1.45758 24.1195 11.8876)" fill="black" fill-opacity="0.4"/>
<circle cx="30.6174" cy="11.722" r="1" transform="rotate(-1.45758 30.6174 11.722)" fill="#546DDB"/>
<circle cx="30.6174" cy="11.722" r="1" transform="rotate(-1.45758 30.6174 11.722)" fill="black" fill-opacity="0.4"/>
<circle cx="24.3103" cy="19.3851" r="1" transform="rotate(-1.45758 24.3103 19.3851)" fill="#546DDB"/>
<circle cx="24.3103" cy="19.3851" r="1" transform="rotate(-1.45758 24.3103 19.3851)" fill="black" fill-opacity="0.4"/>
<circle cx="30.8081" cy="19.2196" r="1" transform="rotate(-1.45758 30.8081 19.2196)" fill="#546DDB"/>
<circle cx="30.8081" cy="19.2196" r="1" transform="rotate(-1.45758 30.8081 19.2196)" fill="black" fill-opacity="0.4"/>
<circle cx="24.501" cy="26.8827" r="1" transform="rotate(-1.45758 24.501 26.8827)" fill="#546DDB"/>
<circle cx="24.501" cy="26.8827" r="1" transform="rotate(-1.45758 24.501 26.8827)" fill="black" fill-opacity="0.4"/>
<circle cx="30.9989" cy="26.7172" r="1" transform="rotate(-1.45758 30.9989 26.7172)" fill="#546DDB"/>
<circle cx="30.9989" cy="26.7172" r="1" transform="rotate(-1.45758 30.9989 26.7172)" fill="black" fill-opacity="0.4"/>
<circle cx="24.6918" cy="34.3802" r="1" transform="rotate(-1.45758 24.6918 34.3802)" fill="#546DDB"/>
<circle cx="24.6918" cy="34.3802" r="1" transform="rotate(-1.45758 24.6918 34.3802)" fill="black" fill-opacity="0.4"/>
<circle cx="31.1897" cy="34.215" r="1" transform="rotate(-1.45758 31.1897 34.215)" fill="#546DDB"/>
<circle cx="31.1897" cy="34.215" r="1" transform="rotate(-1.45758 31.1897 34.215)" fill="black" fill-opacity="0.4"/>
<circle cx="24.8826" cy="41.8778" r="1" transform="rotate(-1.45758 24.8826 41.8778)" fill="#546DDB"/>
<circle cx="24.8826" cy="41.8778" r="1" transform="rotate(-1.45758 24.8826 41.8778)" fill="black" fill-opacity="0.4"/>
<circle cx="31.3805" cy="41.7125" r="1" transform="rotate(-1.45758 31.3805 41.7125)" fill="#546DDB"/>
<circle cx="31.3805" cy="41.7125" r="1" transform="rotate(-1.45758 31.3805 41.7125)" fill="black" fill-opacity="0.4"/>
<path d="M1.59998 39.5C3 40.5 7 41.5 9 41.5M42 42C43.9574 41.8825 47.5 40.5 48.4 40.0001" stroke="#546DDB"/>
<path d="M1.59998 39.5C3 40.5 7 41.5 9 41.5M42 42C43.9574 41.8825 47.5 40.5 48.4 40.0001" stroke="black" stroke-opacity="0.4"/>
</svg>
