<svg width="50" height="50" viewBox="0 0 50 50" fill="none" xmlns="http://www.w3.org/2000/svg">
<path d="M10.5 13C11 9 12.3143 3.28571 13 1C16 1.5 20.8857 2 25 2C29.1143 2 34 1.5 37 1C37.5 3 38.6771 8.06286 39.5 13C40.3229 17.9371 42.6571 43.2857 43 46.9429C43 46.9429 32.2 49 25 49C17.8 49 6.5 46.9429 6.5 46.9429C6.5 46.2571 9.95328 17.3738 10.5 13Z" fill="#546DDB"/>
<path d="M10.5 13C11 9 12.3143 3.28571 13 1C16 1.5 20.8857 2 25 2C29.1143 2 34 1.5 37 1C37.5 3 38.6771 8.06286 39.5 13C40.3229 17.9371 42.6571 43.2857 43 46.9429C43 46.9429 32.2 49 25 49C17.8 49 6.5 46.9429 6.5 46.9429C6.5 46.2571 9.95328 17.3738 10.5 13Z" fill="black" fill-opacity="0.4"/>
<path d="M31 48.7V4.5L34.5 48.3C33.1305 48.548 32.3647 48.6298 31 48.7Z" fill="#546DDB"/>
<path d="M31 48.7V4.5L34.5 48.3C33.1305 48.548 32.3647 48.6298 31 48.7Z" fill="black" fill-opacity="0.55"/>
<path d="M12.5 3C15 3.5 21 4 25 4C29 4 35 3.5 37.5 3" stroke="#546DDB" stroke-width="2"/>
<path d="M12.5 3C15 3.5 21 4 25 4C29 4 35 3.5 37.5 3" stroke="white" stroke-opacity="0.2" stroke-width="2"/>
<path d="M29 28L30.5714 3L34 22" stroke="#546DDB" stroke-width="2"/>
<path d="M29 28L30.5714 3L34 22" stroke="white" stroke-opacity="0.2" stroke-width="2"/>
</svg>
