<svg width="50" height="50" viewBox="0 0 50 50" fill="none" xmlns="http://www.w3.org/2000/svg">
<g clip-path="url(#clip0_4704_7903)">
<ellipse cx="31.8707" cy="17.3447" rx="8.47206" ry="1.21029" transform="rotate(45 31.8707 17.3447)" fill="#898989"/>
<ellipse cx="31.8707" cy="17.3447" rx="8.47206" ry="1.21029" transform="rotate(45 31.8707 17.3447)" fill="black" fill-opacity="0.4"/>
<path d="M40.4868 3.70978L37.0636 7.13301" stroke="#2FC4A7" stroke-width="1.21029"/>
<path d="M40.4868 3.70978L37.0636 7.13301" stroke="black" stroke-opacity="0.2" stroke-width="1.21029"/>
<path d="M32.7849 11.4121L1.97585 42.2212" stroke="#898989" stroke-width="1.21029"/>
<path d="M40.9151 5.84928L37.9198 6.27719L38.3477 3.28186L33.2128 8.4167L31.9291 12.2678L35.7802 10.9841L40.9151 5.84928Z" fill="#898989"/>
<path d="M40.9151 5.84928L37.9198 6.27719L38.3477 3.28186L33.2128 8.4167L31.9291 12.2678L35.7802 10.9841L40.9151 5.84928Z" fill="white" fill-opacity="0.6"/>
<path d="M45.6216 7.133L42.1984 10.5562" stroke="#2FC4A7" stroke-width="1.21029"/>
<path d="M45.6216 7.133L42.1984 10.5562" stroke="black" stroke-opacity="0.2" stroke-width="1.21029"/>
<path d="M37.9194 14.8351L7.11038 45.6442" stroke="#898989" stroke-width="1.21029"/>
<path d="M46.0496 9.2725L43.0543 9.7004L43.4822 6.70508L38.3473 11.8399L37.0636 15.6911L40.9148 14.4073L46.0496 9.2725Z" fill="#898989"/>
<path d="M46.0496 9.2725L43.0543 9.7004L43.4822 6.70508L38.3473 11.8399L37.0636 15.6911L40.9148 14.4073L46.0496 9.2725Z" fill="white" fill-opacity="0.6"/>
<path d="M38.6194 0.425415L35.6114 4.21874" stroke="#2FC4A7" stroke-width="1.21029"/>
<path d="M38.6194 0.425415L35.6114 4.21874" stroke="white" stroke-opacity="0.2" stroke-width="1.21029"/>
<path d="M31.8518 8.96039L4.78035 43.1003" stroke="#898989" stroke-width="1.21029"/>
<path d="M31.8518 8.96039L4.78035 43.1003" stroke="white" stroke-opacity="0.4" stroke-width="1.21029"/>
<path d="M39.2901 2.50162L36.3636 3.2703L36.4451 0.245667L31.9332 5.93565L31.0997 9.90862L34.7781 8.1916L39.2901 2.50162Z" fill="#FEFEFE"/>
<path d="M45.6216 3.70972L42.1984 7.13295" stroke="#2FC4A7" stroke-width="1.21029"/>
<path d="M45.6216 3.70972L42.1984 7.13295" stroke="white" stroke-opacity="0.2" stroke-width="1.21029"/>
<path d="M37.9194 11.4121L7.11038 42.2212" stroke="#898989" stroke-width="1.21029"/>
<path d="M37.9194 11.4121L7.11038 42.2212" stroke="white" stroke-opacity="0.4" stroke-width="1.21029"/>
<path d="M46.0496 5.84928L43.0543 6.27719L43.4822 3.28186L38.3473 8.4167L37.0636 12.2678L40.9148 10.9841L46.0496 5.84928Z" fill="#FEFEFE"/>
<path d="M48.9011 12.4771L45.047 15.4067" stroke="#2FC4A7" stroke-width="1.21029"/>
<path d="M48.9011 12.4771L45.047 15.4067" stroke="white" stroke-opacity="0.2" stroke-width="1.21029"/>
<path d="M40.2292 19.0687L5.54178 45.4349" stroke="#898989" stroke-width="1.21029"/>
<path d="M40.2292 19.0687L5.54178 45.4349" stroke="white" stroke-opacity="0.4" stroke-width="1.21029"/>
<path d="M49.0363 14.6548L46.0106 14.6743L46.8391 11.7642L41.0579 16.1585L39.2658 19.801L43.255 19.0491L49.0363 14.6548Z" fill="#FEFEFE"/>
<path d="M18.5456 0.52764C24.2488 1.34239 25.6747 7.14747 25.6747 12.7489L22.6194 15.295C22.7891 13.9371 23.1286 10.712 22.6193 8.67515C21.9543 6.0148 21.0916 3.07374 16.5087 2.0553C15.0216 1.72483 13.2128 1.93052 11.4303 2.56799C8.56783 5.07712 6.93489 9.56038 6.93489 14.7858C6.93489 16.4943 7.16895 18.1035 7.59636 19.6137C10.7233 23.137 15.3023 26.4868 19.5642 29.0439C27.2023 33.6269 29.2393 43.3021 24.1471 46.3574C23.4956 46.7483 22.7184 47.0351 21.8681 47.2343C21.4879 47.7034 21.0577 48.0973 20.5826 48.3943C17.3236 50.4311 10.2283 49.243 8.36115 48.3943L10.398 45.8482C11.9451 47.1139 17.7586 48.1972 21.8681 47.2343C24.7475 43.6815 24.756 35.8175 19.6654 33.1177C14.2708 30.2566 9.3346 25.7553 7.59636 19.6137C5.1191 16.8224 3.55318 13.9223 3.77828 11.2212C4.12226 7.09341 7.7194 3.89507 11.4303 2.56799C13.31 0.92035 15.7198 0.123956 18.5456 0.52764Z" fill="#FAA21E"/>
<path d="M18.5456 0.52764C24.2488 1.34239 25.6747 7.14747 25.6747 12.7489L22.6194 15.295C22.7891 13.9371 23.1286 10.712 22.6193 8.67515C21.9543 6.0148 21.0916 3.07374 16.5087 2.0553C15.0216 1.72483 13.2128 1.93052 11.4303 2.56799C8.56783 5.07712 6.93489 9.56038 6.93489 14.7858C6.93489 16.4943 7.16895 18.1035 7.59636 19.6137C10.7233 23.137 15.3023 26.4868 19.5642 29.0439C27.2023 33.6269 29.2393 43.3021 24.1471 46.3574C23.4956 46.7483 22.7184 47.0351 21.8681 47.2343C21.4879 47.7034 21.0577 48.0973 20.5826 48.3943C17.3236 50.4311 10.2283 49.243 8.36115 48.3943L10.398 45.8482C11.9451 47.1139 17.7586 48.1972 21.8681 47.2343C24.7475 43.6815 24.756 35.8175 19.6654 33.1177C14.2708 30.2566 9.3346 25.7553 7.59636 19.6137C5.1191 16.8224 3.55318 13.9223 3.77828 11.2212C4.12226 7.09341 7.7194 3.89507 11.4303 2.56799C13.31 0.92035 15.7198 0.123956 18.5456 0.52764Z" fill="black" fill-opacity="0.4"/>
<path fill-rule="evenodd" clip-rule="evenodd" d="M37.8562 23.34C37.8579 23.3385 37.8595 23.3369 37.8611 23.3353C37.8611 23.3353 37.8612 23.3353 37.8612 23.3352L37.8614 23.3354L37.8562 23.34ZM37.8498 23.3457L8.76399 49.0096C8.73832 49.0133 8.71205 49.0171 8.68517 49.021C7.6665 49.1691 5.77504 49.4439 2.77334 46.4422C-0.228363 43.4405 0.0464972 41.549 0.194528 40.5304C0.198434 40.5035 0.20225 40.4772 0.205918 40.4516L25.8626 11.374C25.4677 11.9072 27.7495 14.9354 31.0146 18.2005C34.2978 21.4837 37.3415 23.7727 37.8498 23.3457Z" fill="#2FC4A7"/>
<path fill-rule="evenodd" clip-rule="evenodd" d="M37.8562 23.34C37.8579 23.3385 37.8595 23.3369 37.8611 23.3353C37.8611 23.3353 37.8612 23.3353 37.8612 23.3352L37.8614 23.3354L37.8562 23.34ZM37.8498 23.3457L8.76399 49.0096C8.73832 49.0133 8.71205 49.0171 8.68517 49.021C7.6665 49.1691 5.77504 49.4439 2.77334 46.4422C-0.228363 43.4405 0.0464972 41.549 0.194528 40.5304C0.198434 40.5035 0.20225 40.4772 0.205918 40.4516L25.8626 11.374C25.4677 11.9072 27.7495 14.9354 31.0146 18.2005C34.2978 21.4837 37.3415 23.7727 37.8498 23.3457Z" fill="black" fill-opacity="0.4"/>
<path d="M31.0152 18.2006C26.9073 14.0927 25.8804 11.9247 25.8804 11.3541L22.286 15.462C22.8565 16.6031 24.7678 19.6555 27.1641 22.0517C29.5603 24.448 32.6127 26.3593 33.7538 26.9298L37.8617 23.3354C37.2911 23.3354 35.1231 22.3085 31.0152 18.2006Z" fill="#FAA21E"/>
<path d="M31.0152 18.2006C26.9073 14.0927 25.8804 11.9247 25.8804 11.3541L22.286 15.462C22.8565 16.6031 24.7678 19.6555 27.1641 22.0517C29.5603 24.448 32.6127 26.3593 33.7538 26.9298L37.8617 23.3354C37.2911 23.3354 35.1231 22.3085 31.0152 18.2006Z" fill="black" fill-opacity="0.1"/>
<path d="M6.62442 42.5912C3.69023 39.657 3.26488 37.2866 3.37231 36.7717L0.205829 40.4516C-0.222075 42.5912 1.06164 44.7307 2.77325 46.4423C4.48486 48.1539 6.62438 49.4376 8.7639 49.0097L12.4439 45.8433C11.9289 45.9507 9.55862 45.5254 6.62442 42.5912Z" fill="#FAA21E"/>
<path d="M6.62442 42.5912C3.69023 39.657 3.26488 37.2866 3.37231 36.7717L0.205829 40.4516C-0.222075 42.5912 1.06164 44.7307 2.77325 46.4423C4.48486 48.1539 6.62438 49.4376 8.7639 49.0097L12.4439 45.8433C11.9289 45.9507 9.55862 45.5254 6.62442 42.5912Z" fill="black" fill-opacity="0.1"/>
<path d="M18.6056 29.7539C18.247 26.5262 18.3632 21.8092 18.6484 19.527L16.6373 21.7949C16.2009 24.4857 15.9657 27.5345 16.4661 31.0376C16.9044 34.1063 18.0208 39.1535 18.734 40.152L20.5739 38.5687C20.146 37.285 19.0335 33.6051 18.6056 29.7539Z" fill="#FAA21E"/>
<path d="M18.6056 29.7539C18.247 26.5262 18.3632 21.8092 18.6484 19.527L16.6373 21.7949C16.2009 24.4857 15.9657 27.5345 16.4661 31.0376C16.9044 34.1063 18.0208 39.1535 18.734 40.152L20.5739 38.5687C20.146 37.285 19.0335 33.6051 18.6056 29.7539Z" fill="black" fill-opacity="0.1"/>
<path d="M19.4186 30.567C22.6463 30.9256 27.3634 30.8094 29.6455 30.5242L27.3776 32.5353C24.6868 32.9717 21.6381 33.2069 18.1349 32.7065C15.0662 32.2682 10.019 31.1518 9.02056 30.4386L10.6038 28.5986C11.8875 29.0265 15.5675 30.1391 19.4186 30.567Z" fill="#FAA21E"/>
<path d="M19.4186 30.567C22.6463 30.9256 27.3634 30.8094 29.6455 30.5242L27.3776 32.5353C24.6868 32.9717 21.6381 33.2069 18.1349 32.7065C15.0662 32.2682 10.019 31.1518 9.02056 30.4386L10.6038 28.5986C11.8875 29.0265 15.5675 30.1391 19.4186 30.567Z" fill="black" fill-opacity="0.1"/>
</g>
<defs>
<clipPath id="clip0_4704_7903">
<rect width="50" height="50" fill="white" transform="matrix(-1 0 0 1 50 0)"/>
</clipPath>
</defs>
</svg>
