<svg width="50" height="50" viewBox="0 0 50 50" fill="none" xmlns="http://www.w3.org/2000/svg">
<g clip-path="url(#clip0_5573_9266)">
<path fill-rule="evenodd" clip-rule="evenodd" d="M42.0653 17.7256C45.1319 12.4141 43.5002 5.73092 38.4209 2.79833C33.3415 -0.134253 26.7378 1.79427 23.6712 7.1058C20.6046 12.4173 22.2363 19.1005 27.3157 22.0331C32.395 24.9657 38.9987 23.0372 42.0653 17.7256ZM36.1997 6.64526C32.9674 4.77906 28.8554 5.84973 27.0155 9.03665C25.1755 12.2236 26.3042 16.3199 29.5366 18.1861C32.7689 20.0523 36.8808 18.9816 38.7208 15.7947C40.5608 12.6078 39.432 8.51145 36.1997 6.64526Z" fill="#2FC4A7"/>
<path fill-rule="evenodd" clip-rule="evenodd" d="M42.0653 17.7256C45.1319 12.4141 43.5002 5.73092 38.4209 2.79833C33.3415 -0.134253 26.7378 1.79427 23.6712 7.1058C20.6046 12.4173 22.2363 19.1005 27.3157 22.0331C32.395 24.9657 38.9987 23.0372 42.0653 17.7256ZM36.1997 6.64526C32.9674 4.77906 28.8554 5.84973 27.0155 9.03665C25.1755 12.2236 26.3042 16.3199 29.5366 18.1861C32.7689 20.0523 36.8808 18.9816 38.7208 15.7947C40.5608 12.6078 39.432 8.51145 36.1997 6.64526Z" fill="white" fill-opacity="0.2"/>
<path fill-rule="evenodd" clip-rule="evenodd" d="M26.5027 18.9993L13.7317 41.1193L9.18071 42.3387L11.2131 49.9237L18.7981 47.8913L17.5787 43.3404L30.3496 21.2204L26.5027 18.9993ZM15.0999 43.1916L12.0659 44.0046L12.8789 47.0386L15.9129 46.2256L15.0999 43.1916Z" fill="#2FC4A7"/>
<path fill-rule="evenodd" clip-rule="evenodd" d="M26.5027 18.9993L13.7317 41.1193L9.18071 42.3387L11.2131 49.9237L18.7981 47.8913L17.5787 43.3404L30.3496 21.2204L26.5027 18.9993ZM15.0999 43.1916L12.0659 44.0046L12.8789 47.0386L15.9129 46.2256L15.0999 43.1916Z" fill="white" fill-opacity="0.2"/>
<rect x="12.7937" y="29.0367" width="4.44208" height="4.44208" transform="rotate(75 12.7937 29.0367)" fill="#2FC4A7"/>
<rect x="12.7937" y="29.0367" width="4.44208" height="4.44208" transform="rotate(75 12.7937 29.0367)" fill="white" fill-opacity="0.2"/>
<rect x="28.1814" y="37.9209" width="4.44208" height="4.44208" transform="rotate(75 28.1814 37.9209)" fill="#2FC4A7"/>
<rect x="28.1814" y="37.9209" width="4.44208" height="4.44208" transform="rotate(75 28.1814 37.9209)" fill="white" fill-opacity="0.2"/>
<path d="M24.0299 10.3391C23.6573 13.4035 24.5 17 29.4999 18C26.9999 16.5 25.5 14 26.5 10.5C27 7.99999 29 6.49999 31 5.99999C33 5.49999 35 5.99999 35.5 6.49999C35.5 5.49999 31.5 4.5 30 4.5C28.5 4.5 24.4955 6.50866 24.0299 10.3391Z" fill="#2FC4A7"/>
<path d="M24.0299 10.3391C23.6573 13.4035 24.5 17 29.4999 18C26.9999 16.5 25.5 14 26.5 10.5C27 7.99999 29 6.49999 31 5.99999C33 5.49999 35 5.99999 35.5 6.49999C35.5 5.49999 31.5 4.5 30 4.5C28.5 4.5 24.4955 6.50866 24.0299 10.3391Z" fill="black" fill-opacity="0.2"/>
<path d="M12.8042 29.0348L10.7888 28.0679L11.4301 31.325L13.9747 33.3607L12.8042 29.0348Z" fill="#2FC4A7"/>
<path d="M12.8042 29.0348L10.7888 28.0679L11.4301 31.325L13.9747 33.3607L12.8042 29.0348Z" fill="black" fill-opacity="0.2"/>
<path d="M9.64898 34.4804L7.6438 33.4829L10.4124 32.3429L11.9392 33.8697L9.64898 34.4804Z" fill="#2FC4A7"/>
<path d="M9.64898 34.4804L7.6438 33.4829L10.4124 32.3429L11.9392 33.8697L9.64898 34.4804Z" fill="white" fill-opacity="0.2"/>
<path d="M29.4461 22.9786L26.6979 21.6554L15.5015 42.3179L17.5881 43.3867L29.4461 22.9786Z" fill="#2FC4A7"/>
<path d="M27.7158 40.9946L23.0337 42.3687L25.0389 43.3662L29.2426 42.0125L27.7158 40.9946Z" fill="#2FC4A7"/>
<path d="M27.7158 40.9946L23.0337 42.3687L25.0389 43.3662L29.2426 42.0125L27.7158 40.9946Z" fill="white" fill-opacity="0.2"/>
<path d="M28.2247 37.9411L26.189 36.9232L27.2068 41.1473L29.3443 42.2161L28.2247 37.9411Z" fill="#2FC4A7"/>
<path d="M28.2247 37.9411L26.189 36.9232L27.2068 41.1473L29.3443 42.2161L28.2247 37.9411Z" fill="black" fill-opacity="0.2"/>
<path d="M12.0917 43.9973L9.90332 42.9286L10.9212 46.5928L12.9569 47.1018L12.0917 43.9973Z" fill="#2FC4A7"/>
<path d="M12.0917 43.9973L9.90332 42.9286L10.9212 46.5928L12.9569 47.1018L12.0917 43.9973Z" fill="black" fill-opacity="0.2"/>
<path d="M11.2165 49.9213L9.19092 48.934L16.5195 46.7456L18.7995 47.8957L11.2165 49.9213Z" fill="#2FC4A7"/>
<path d="M11.2165 49.9213L9.19092 48.934L16.5195 46.7456L18.7995 47.8957L11.2165 49.9213Z" fill="white" fill-opacity="0.4"/>
<path fill-rule="evenodd" clip-rule="evenodd" d="M24.4941 18.0087L11.7232 40.1287L7.17216 41.3482L9.19071 48.9332L16.7895 46.9008L15.5701 42.3498L28.3411 20.2298L24.4941 18.0087ZM13.0914 42.201L10.0574 43.014L10.8703 46.048L13.9043 45.235L13.0914 42.201Z" fill="#898989"/>
<path d="M9.76514 31.3043L23.7103 39.3556" stroke="#898989" stroke-width="2.22104"/>
<rect x="10.7852" y="28.0462" width="4.44208" height="4.44208" transform="rotate(75 10.7852 28.0462)" fill="#898989"/>
<path d="M26.1888 36.9304L27.3225 41.2211L23.0317 42.3708L21.882 38.0801L26.1888 36.9304Z" fill="#898989"/>
<path fill-rule="evenodd" clip-rule="evenodd" d="M40.0619 16.7381C43.1285 11.4266 41.4945 4.74207 36.4122 1.80782C31.3299 -1.12643 24.7239 0.800732 21.6573 6.11227C18.5907 11.4238 20.2247 18.1083 25.307 21.0426C30.3893 23.9768 36.9953 22.0497 40.0619 16.7381ZM34.1911 5.65464C30.9569 3.78739 26.8435 4.85719 25.0035 8.04411C23.1635 11.231 24.2938 15.3283 27.528 17.1955C30.7621 19.0628 34.8755 17.993 36.7155 14.806C38.5555 11.6191 37.4252 7.52189 34.1911 5.65464Z" fill="#898989"/>
<path fill-rule="evenodd" clip-rule="evenodd" d="M40.0619 16.7381C43.1285 11.4266 41.4945 4.74207 36.4122 1.80782C31.3299 -1.12643 24.7239 0.800732 21.6573 6.11227C18.5907 11.4238 20.2247 18.1083 25.307 21.0426C30.3893 23.9768 36.9953 22.0497 40.0619 16.7381ZM34.1911 5.65464C30.9569 3.78739 26.8435 4.85719 25.0035 8.04411C23.1635 11.231 24.2938 15.3283 27.528 17.1955C30.7621 19.0628 34.8755 17.993 36.7155 14.806C38.5555 11.6191 37.4252 7.52189 34.1911 5.65464Z" fill="white" fill-opacity="0.2"/>
</g>
<defs>
<clipPath id="clip0_5573_9266">
<rect width="50" height="50" fill="white" transform="matrix(-1 0 0 1 50 0)"/>
</clipPath>
</defs>
</svg>
