<svg width="50" height="50" viewBox="0 0 50 50" fill="none" xmlns="http://www.w3.org/2000/svg">
<circle cx="24.9075" cy="24.9074" r="22.4167" stroke="#1D8CE0" stroke-width="0.996296"/>
<circle cx="24.9075" cy="24.9074" r="22.4167" stroke="white" stroke-opacity="0.95" stroke-width="0.996296"/>
<path d="M40.3501 31.8815C43.5383 24.3096 40.3501 15.4426 35.3687 10.9592C36.365 15.4426 35.6675 22.1177 32.8779 28.8926C30.0883 35.6674 23.7452 40.0179 20.9224 41.3463C26.402 42.8407 37.162 39.4533 40.3501 31.8815Z" fill="#FEFEFE" fill-opacity="0.15"/>
<path d="M14.4463 8.96666C11.6057 11.4681 10.4611 14.9444 10.4611 17.9333C10.9468 15.8739 14.0426 11.6996 16.937 9.96295C19.4003 8.48499 21.4204 6.97407 24.9074 6.47591C21.4204 5.97777 17.2869 6.46523 14.4463 8.96666Z" fill="#FEFEFE"/>
<path d="M33.874 39.8519C37.3611 37.8592 40.8481 32.8778 40.8481 29.8889C40.1079 32.8778 36.163 36.7039 33.3759 38.3574C30.3241 40.1679 24.4092 41.8444 20.9222 41.8444C24.4092 42.8407 29.8889 42.1291 33.874 39.8519Z" fill="#FEFEFE"/>
<circle cx="25" cy="25" r="14" fill="#898989"/>
<circle cx="25" cy="25" r="14" fill="white" fill-opacity="0.95"/>
<path d="M24.9997 39.0001C32.7317 39.0001 38.9997 32.732 38.9997 25.0001C38.9997 19.219 35.4958 14.2564 30.4958 12.1201C30.9971 12.8667 32.1677 14.9761 32.8397 17.4401C33.6797 20.5201 33.9597 27.8001 31.4397 30.3201C28.9197 32.8401 25.5597 34.2401 20.5197 32.8401C16.4877 31.7201 12.5004 27.5201 11.0107 25.5601C11.3047 33.0324 17.4553 39.0001 24.9997 39.0001Z" fill="#898989"/>
<path d="M24.9997 39.0001C32.7317 39.0001 38.9997 32.732 38.9997 25.0001C38.9997 19.219 35.4958 14.2564 30.4958 12.1201C30.9971 12.8667 32.1677 14.9761 32.8397 17.4401C33.6797 20.5201 33.9597 27.8001 31.4397 30.3201C28.9197 32.8401 25.5597 34.2401 20.5197 32.8401C16.4877 31.7201 12.5004 27.5201 11.0107 25.5601C11.3047 33.0324 17.4553 39.0001 24.9997 39.0001Z" fill="white" fill-opacity="0.6"/>
<circle cx="24.9998" cy="25" r="11.2" fill="#2FC4A7"/>
<path d="M25 36.1999C31.1856 36.1999 36.2 31.1855 36.2 24.9999C36.2 21.7281 34.7971 18.784 32.56 16.7363C32.9333 18.4642 33.736 22.7599 32.84 26.1199C31.72 30.3199 28.92 32.2799 25 32.8399C20.2878 33.5131 16.7546 30.6933 14.7319 29.4799C16.4602 33.4355 20.4073 36.1999 25 36.1999Z" fill="#2FC4A7"/>
<path d="M25 36.1999C31.1856 36.1999 36.2 31.1855 36.2 24.9999C36.2 21.7281 34.7971 18.784 32.56 16.7363C32.9333 18.4642 33.736 22.7599 32.84 26.1199C31.72 30.3199 28.92 32.2799 25 32.8399C20.2878 33.5131 16.7546 30.6933 14.7319 29.4799C16.4602 33.4355 20.4073 36.1999 25 36.1999Z" fill="black" fill-opacity="0.2"/>
<path d="M25.28 25.2975L24.16 27.03M25.28 25.2975L26.96 27.3188M25.28 25.2975L24.23 23.8538M25.28 25.2975C25.9351 24.8818 26.9602 24.1912 27.8 23.5345M29.2 22.1213L31.02 22.5544M29.2 22.1213C29.097 22.4401 28.5158 22.975 27.8 23.5345M29.2 22.1213C29.2968 21.822 29.4318 21.1531 29.569 20.3888M30.04 17.5013C29.934 18.2122 29.7496 19.3831 29.569 20.3888M32.84 22.9875L34.52 25.2975M32.84 22.9875L31.02 22.5544M32.84 22.9875L34.52 22.6988M28.64 29.34L26.96 27.3188M28.64 29.34L26.96 31.65L27.8 33.96M28.64 29.34L28.92 30.9282M30.88 33.0938L29.2 32.5163L28.92 30.9282M21.92 30.495V33.6713M21.92 30.495L19.26 29.4844M21.92 30.495L24.16 27.03M16.6 28.4738L19.26 29.4844M21.08 16.3463V19.5225L22.13 20.9663M23.18 22.41L21.43 22.6988M23.18 22.41L24.23 23.8538M23.18 22.41L22.13 20.9663M17.16 20.9663L18.42 21.9769M18.42 21.9769L19.68 22.9875L21.43 22.6988M18.42 21.9769L16.04 23.565M19.26 29.4844L17.72 30.495M21.43 22.6988L19.68 25.875M19.68 25.875L16.6 26.4525M19.68 25.875L18.42 24.4313M24.16 27.03L22.76 27.2105M19.68 27.6075L22.76 27.2105M22.76 27.2105L21.92 24.4313M26.96 27.3188L26.4 28.9069M26.96 27.3188L29.48 27.6075L30.6 28.9069M23.6 33.96L24.72 32.2275M24.72 32.2275L25.84 30.495L26.4 28.9069M24.72 32.2275L26.4 33.96M26.4 28.9069L24.16 29.4844L23.6 31.0725M26.96 24.4313L29.2 25.7307M33.12 31.0725L32.28 29.0513M28.92 30.9282L30.88 30.495M29.2 25.7307L31.44 27.03L32.28 29.0513M29.2 25.7307L31.44 25.2975L34.52 27.6075M32.28 29.0513H34.24M31.02 22.5544L30.04 24.4313M24.23 23.8538L23.6 20.3888L24.16 17.9344M24.72 15.48L24.16 17.9344M24.16 17.9344L23.18 17.5013L22.2 16.0575M22.13 20.9663L19.68 19.2338H18M27.8 23.5345V21.9617M27.8 20.3888L28.36 18.2232M27.8 20.3888L27.45 19.306M27.8 20.3888V21.9617M26.4 16.0575L27.1 18.2232M27.1 18.2232L28.64 16.635M27.1 18.2232L27.45 19.306M29.569 20.3888L30.7845 19.9557M33.4 20.3888L32 19.5225L30.7845 19.9557M30.7845 19.9557L32.28 21.5438M27.45 19.306L25.84 18.2232M27.8 21.9617L26.68 21.2981M25 19.9557L26.12 20.9663L26.68 21.2981M26.68 21.2981L25 21.9617M26.12 24.4313L26.4 22.5544M21.2479 19.306L22.76 18.3519" stroke="#2FC4A7" stroke-width="0.56"/>
<path d="M25.28 25.2975L24.16 27.03M25.28 25.2975L26.96 27.3188M25.28 25.2975L24.23 23.8538M25.28 25.2975C25.9351 24.8818 26.9602 24.1912 27.8 23.5345M29.2 22.1213L31.02 22.5544M29.2 22.1213C29.097 22.4401 28.5158 22.975 27.8 23.5345M29.2 22.1213C29.2968 21.822 29.4318 21.1531 29.569 20.3888M30.04 17.5013C29.934 18.2122 29.7496 19.3831 29.569 20.3888M32.84 22.9875L34.52 25.2975M32.84 22.9875L31.02 22.5544M32.84 22.9875L34.52 22.6988M28.64 29.34L26.96 27.3188M28.64 29.34L26.96 31.65L27.8 33.96M28.64 29.34L28.92 30.9282M30.88 33.0938L29.2 32.5163L28.92 30.9282M21.92 30.495V33.6713M21.92 30.495L19.26 29.4844M21.92 30.495L24.16 27.03M16.6 28.4738L19.26 29.4844M21.08 16.3463V19.5225L22.13 20.9663M23.18 22.41L21.43 22.6988M23.18 22.41L24.23 23.8538M23.18 22.41L22.13 20.9663M17.16 20.9663L18.42 21.9769M18.42 21.9769L19.68 22.9875L21.43 22.6988M18.42 21.9769L16.04 23.565M19.26 29.4844L17.72 30.495M21.43 22.6988L19.68 25.875M19.68 25.875L16.6 26.4525M19.68 25.875L18.42 24.4313M24.16 27.03L22.76 27.2105M19.68 27.6075L22.76 27.2105M22.76 27.2105L21.92 24.4313M26.96 27.3188L26.4 28.9069M26.96 27.3188L29.48 27.6075L30.6 28.9069M23.6 33.96L24.72 32.2275M24.72 32.2275L25.84 30.495L26.4 28.9069M24.72 32.2275L26.4 33.96M26.4 28.9069L24.16 29.4844L23.6 31.0725M26.96 24.4313L29.2 25.7307M33.12 31.0725L32.28 29.0513M28.92 30.9282L30.88 30.495M29.2 25.7307L31.44 27.03L32.28 29.0513M29.2 25.7307L31.44 25.2975L34.52 27.6075M32.28 29.0513H34.24M31.02 22.5544L30.04 24.4313M24.23 23.8538L23.6 20.3888L24.16 17.9344M24.72 15.48L24.16 17.9344M24.16 17.9344L23.18 17.5013L22.2 16.0575M22.13 20.9663L19.68 19.2338H18M27.8 23.5345V21.9617M27.8 20.3888L28.36 18.2232M27.8 20.3888L27.45 19.306M27.8 20.3888V21.9617M26.4 16.0575L27.1 18.2232M27.1 18.2232L28.64 16.635M27.1 18.2232L27.45 19.306M29.569 20.3888L30.7845 19.9557M33.4 20.3888L32 19.5225L30.7845 19.9557M30.7845 19.9557L32.28 21.5438M27.45 19.306L25.84 18.2232M27.8 21.9617L26.68 21.2981M25 19.9557L26.12 20.9663L26.68 21.2981M26.68 21.2981L25 21.9617M26.12 24.4313L26.4 22.5544M21.2479 19.306L22.76 18.3519" stroke="white" stroke-opacity="0.8" stroke-width="0.56"/>
<path d="M25.256 15.3663L25.015 14.8241L24.7497 15.3548C24.3516 16.1509 24.0684 17.5687 23.8818 19.2573C23.6938 20.9592 23.6001 22.9764 23.6001 25C23.6001 27.0239 23.6938 28.9481 23.8819 30.6037C24.0695 32.2543 24.3528 33.6558 24.7402 34.624L24.9865 35.24L25.256 34.6338C25.6479 33.752 25.9312 32.3435 26.1184 30.6732C26.3065 28.9945 26.4001 27.0238 26.4001 25C26.4001 22.9763 26.3065 21.0056 26.1184 19.3269C25.9312 17.6565 25.6479 16.2481 25.256 15.3663Z" fill="#898989"/>
<path d="M25.256 15.3663L25.015 14.8241L24.7497 15.3548C24.3516 16.1509 24.0684 17.5687 23.8818 19.2573C23.6938 20.9592 23.6001 22.9764 23.6001 25C23.6001 27.0239 23.6938 28.9481 23.8819 30.6037C24.0695 32.2543 24.3528 33.6558 24.7402 34.624L24.9865 35.24L25.256 34.6338C25.6479 33.752 25.9312 32.3435 26.1184 30.6732C26.3065 28.9945 26.4001 27.0238 26.4001 25C26.4001 22.9763 26.3065 21.0056 26.1184 19.3269C25.9312 17.6565 25.6479 16.2481 25.256 15.3663Z" fill="black" fill-opacity="0.8"/>
<path d="M25.256 15.3663L25.015 14.8241L24.7497 15.3548C24.3516 16.1509 24.0684 17.5687 23.8818 19.2573C23.6938 20.9592 23.6001 22.9764 23.6001 25C23.6001 27.0239 23.6938 28.9481 23.8819 30.6037C24.0695 32.2543 24.3528 33.6558 24.7402 34.624L24.9865 35.24L25.256 34.6338C25.6479 33.752 25.9312 32.3435 26.1184 30.6732C26.3065 28.9945 26.4001 27.0238 26.4001 25C26.4001 22.9763 26.3065 21.0056 26.1184 19.3269C25.9312 17.6565 25.6479 16.2481 25.256 15.3663Z" stroke="#2FC4A7" stroke-width="0.56"/>
<path d="M25.256 15.3663L25.015 14.8241L24.7497 15.3548C24.3516 16.1509 24.0684 17.5687 23.8818 19.2573C23.6938 20.9592 23.6001 22.9764 23.6001 25C23.6001 27.0239 23.6938 28.9481 23.8819 30.6037C24.0695 32.2543 24.3528 33.6558 24.7402 34.624L24.9865 35.24L25.256 34.6338C25.6479 33.752 25.9312 32.3435 26.1184 30.6732C26.3065 28.9945 26.4001 27.0238 26.4001 25C26.4001 22.9763 26.3065 21.0056 26.1184 19.3269C25.9312 17.6565 25.6479 16.2481 25.256 15.3663Z" stroke="white" stroke-opacity="0.8" stroke-width="0.56"/>
</svg>
