<svg width="50" height="50" viewBox="0 0 50 50" fill="none" xmlns="http://www.w3.org/2000/svg">
<path d="M46.3223 28.6569C44.3631 40.8366 33.3982 49.2018 21.8314 47.3412C16.9795 46.5608 12.7923 44.105 9.71062 40.6178C9.38085 40.2975 9.12454 39.9904 8.94971 39.7074C9.19519 40.018 9.44892 40.3216 9.71062 40.6178C13.2641 44.0683 25.3452 49.0384 35.8703 41.7303C49.257 32.4354 44.8828 17.9649 40.9911 9.89548C45.2931 14.7254 47.4646 21.5555 46.3223 28.6569Z" fill="#FAA21E"/>
<path d="M46.3223 28.6569C44.3631 40.8366 33.3982 49.2018 21.8314 47.3412C16.9795 46.5608 12.7923 44.105 9.71062 40.6178C9.38085 40.2975 9.12454 39.9904 8.94971 39.7074C9.19519 40.018 9.44892 40.3216 9.71062 40.6178C13.2641 44.0683 25.3452 49.0384 35.8703 41.7303C49.257 32.4354 44.8828 17.9649 40.9911 9.89548C45.2931 14.7254 47.4646 21.5555 46.3223 28.6569Z" fill="white" fill-opacity="0.6"/>
<path fill-rule="evenodd" clip-rule="evenodd" d="M18.3695 45.8734C29.7932 49.0403 41.7282 41.961 45.027 30.0613C48.3259 18.1617 41.7394 5.94781 30.3157 2.78091C18.8921 -0.385985 6.9571 6.69332 3.65825 18.593C0.359397 30.4926 6.94587 42.7065 18.3695 45.8734ZM18.8473 44.1497C29.3571 47.0632 40.3372 40.5503 43.3722 29.6026C46.4071 18.6549 40.3476 7.41814 29.8378 4.50459C19.328 1.59105 8.34785 8.10401 5.3129 19.0517C2.27796 29.9994 8.33751 41.2361 18.8473 44.1497Z" fill="#FAA21E"/>
<path fill-rule="evenodd" clip-rule="evenodd" d="M18.3695 45.8734C29.7932 49.0403 41.7282 41.961 45.027 30.0613C48.3259 18.1617 41.7394 5.94781 30.3157 2.78091C18.8921 -0.385985 6.9571 6.69332 3.65825 18.593C0.359397 30.4926 6.94587 42.7065 18.3695 45.8734ZM18.8473 44.1497C29.3571 47.0632 40.3372 40.5503 43.3722 29.6026C46.4071 18.6549 40.3476 7.41814 29.8378 4.50459C19.328 1.59105 8.34785 8.10401 5.3129 19.0517C2.27796 29.9994 8.33751 41.2361 18.8473 44.1497Z" fill="white" fill-opacity="0.2"/>
<path d="M5.31261 19.0517C8.34755 8.10398 19.3277 1.59102 29.8375 4.50457C34.246 5.72672 37.8715 8.41337 40.3712 11.9289C40.644 12.2566 40.8502 12.5646 40.9835 12.842C40.7876 12.5319 40.5835 12.2274 40.3712 11.9289C37.4316 8.39765 26.7585 2.58296 16.2912 8.17391C2.97817 15.2849 5.09535 29.6041 8.35854 36.7887C4.86523 31.9161 3.54307 25.4348 5.31261 19.0517Z" fill="#FAA21E"/>
<path d="M5.31261 19.0517C8.34755 8.10398 19.3277 1.59102 29.8375 4.50457C34.246 5.72672 37.8715 8.41337 40.3712 11.9289C40.644 12.2566 40.8502 12.5646 40.9835 12.842C40.7876 12.5319 40.5835 12.2274 40.3712 11.9289C37.4316 8.39765 26.7585 2.58296 16.2912 8.17391C2.97817 15.2849 5.09535 29.6041 8.35854 36.7887C4.86523 31.9161 3.54307 25.4348 5.31261 19.0517Z" fill="black" fill-opacity="0.1"/>
<path d="M41.1787 30.5722C42.5481 25.0056 37.9368 37.8837 22.5537 33.7178C6.79087 29.4491 10.0575 17.0132 8.68819 22.5798C7.31885 28.1464 13.0067 34.713 21.9787 36.9201C30.9507 39.1271 39.8094 36.1388 41.1787 30.5722Z" fill="#FAA21E"/>
<path d="M41.1787 30.5722C42.5481 25.0056 37.9368 37.8837 22.5537 33.7178C6.79087 29.4491 10.0575 17.0132 8.68819 22.5798C7.31885 28.1464 13.0067 34.713 21.9787 36.9201C30.9507 39.1271 39.8094 36.1388 41.1787 30.5722Z" fill="white" fill-opacity="0.2"/>
<path fill-rule="evenodd" clip-rule="evenodd" d="M21.9789 37.3477C32.0513 39.8254 41.5557 36.3905 43.2075 29.6755C44.8593 22.9606 38.0331 15.5084 27.9606 13.0307C17.8882 10.553 8.38383 13.9879 6.73201 20.7028C5.08018 27.4178 11.9064 34.8699 21.9789 37.3477ZM22.4061 35.6107C31.0396 37.7345 39.1862 34.7902 40.602 29.0346C42.0179 23.2789 36.1668 16.8913 27.5333 14.7676C18.8998 12.6438 10.7532 15.588 9.33735 21.3437C7.9215 27.0994 13.7726 33.4869 22.4061 35.6107Z" fill="#FAA21E"/>
<path fill-rule="evenodd" clip-rule="evenodd" d="M21.9789 37.3477C32.0513 39.8254 41.5557 36.3905 43.2075 29.6755C44.8593 22.9606 38.0331 15.5084 27.9606 13.0307C17.8882 10.553 8.38383 13.9879 6.73201 20.7028C5.08018 27.4178 11.9064 34.8699 21.9789 37.3477ZM22.4061 35.6107C31.0396 37.7345 39.1862 34.7902 40.602 29.0346C42.0179 23.2789 36.1668 16.8913 27.5333 14.7676C18.8998 12.6438 10.7532 15.588 9.33735 21.3437C7.9215 27.0994 13.7726 33.4869 22.4061 35.6107Z" fill="black" fill-opacity="0.1"/>
<path d="M16.6327 17.1942C12.495 23.6976 12.7718 31.2799 17.2509 34.1297C14.2567 25.4181 15.8488 20.302 21.2333 14.7207C26.6177 9.13947 32.2862 11.1549 34.4474 12.8603C33.8855 11.9361 33.1475 11.1592 32.235 10.5787C27.7558 7.72887 20.7705 10.6907 16.6327 17.1942Z" fill="#C57A09"/>
<path d="M33.6325 27.5785C37.4866 20.903 36.8838 13.3396 32.2861 10.6852C35.6524 19.2599 34.2819 24.4398 29.1426 30.2475C24.0033 36.0553 18.2533 34.2856 16.0208 32.6748C16.6219 33.574 17.3927 34.3184 18.3293 34.8591C22.9269 37.5136 29.7784 34.2539 33.6325 27.5785Z" fill="#C57A09"/>
<path fill-rule="evenodd" clip-rule="evenodd" d="M18.1811 35.06C22.6603 37.9098 29.6457 34.9479 33.7834 28.4445C37.9212 21.941 37.6444 14.3587 33.1652 11.5089C28.686 8.65908 21.7006 11.6209 17.5629 18.1244C13.4252 24.6278 13.702 32.2101 18.1811 35.06ZM19.2452 33.3877C23.0883 35.8329 29.0817 33.2916 32.6318 27.7117C36.1819 22.1318 35.9445 15.6263 32.1014 13.1811C28.2583 10.736 22.2649 13.2773 18.7147 18.8572C15.1646 24.437 15.4021 30.9426 19.2452 33.3877Z" fill="#FAA21E"/>
<path fill-rule="evenodd" clip-rule="evenodd" d="M18.1811 35.06C22.6603 37.9098 29.6457 34.9479 33.7834 28.4445C37.9212 21.941 37.6444 14.3587 33.1652 11.5089C28.686 8.65908 21.7006 11.6209 17.5629 18.1244C13.4252 24.6278 13.702 32.2101 18.1811 35.06ZM19.2452 33.3877C23.0883 35.8329 29.0817 33.2916 32.6318 27.7117C36.1819 22.1318 35.9445 15.6263 32.1014 13.1811C28.2583 10.736 22.2649 13.2773 18.7147 18.8572C15.1646 24.437 15.4021 30.9426 19.2452 33.3877Z" fill="white" fill-opacity="0.4"/>
<path d="M29.6052 27.7437C29.6052 30.5343 25.7974 31.4488 25.4192 33.79C24.868 31.4834 21.2333 30.5343 21.2332 27.7437C21.2332 24.953 22.1921 24.6036 23.0696 23.1746C22.0882 21.8149 21.2547 21.2333 21.2332 18.4415C21.2118 15.6498 24.5763 14.7538 25.4192 12.3952C26.3494 14.7207 29.6051 15.651 29.6051 18.4415C29.6051 21.2321 28.4472 21.7163 27.7447 23.1746C28.7262 24.5343 29.6052 24.953 29.6052 27.7437Z" fill="#FAA21E"/>
<path d="M29.6052 27.7437C29.6052 30.5343 25.7974 31.4488 25.4192 33.79C24.868 31.4834 21.2333 30.5343 21.2332 27.7437C21.2332 24.953 22.1921 24.6036 23.0696 23.1746C22.0882 21.8149 21.2547 21.2333 21.2332 18.4415C21.2118 15.6498 24.5763 14.7538 25.4192 12.3952C26.3494 14.7207 29.6051 15.651 29.6051 18.4415C29.6051 21.2321 28.4472 21.7163 27.7447 23.1746C28.7262 24.5343 29.6052 24.953 29.6052 27.7437Z" fill="white" fill-opacity="0.8"/>
<path d="M43.6349 27.9385C41.983 34.6535 44.789 17.6308 27.3129 13.7923C9.40546 9.85908 5.50755 25.6808 7.15937 18.9659C8.81119 12.2509 17.9882 8.27492 28.0606 10.7527C38.133 13.2304 45.2867 21.2236 43.6349 27.9385Z" fill="#FAA21E"/>
<path d="M43.6349 27.9385C41.983 34.6535 44.789 17.6308 27.3129 13.7923C9.40546 9.85908 5.50755 25.6808 7.15937 18.9659C8.81119 12.2509 17.9882 8.27492 28.0606 10.7527C38.133 13.2304 45.2867 21.2236 43.6349 27.9385Z" fill="white" fill-opacity="0.6"/>
<path d="M27.9606 13.0307C17.8882 10.553 8.38383 13.9879 6.73201 20.7028L9.14061 21.2322C10.3809 17.8214 16.5823 11.9301 27.7448 14.7207C37.512 17.1625 41.698 24.953 40.7678 28.6739L43.2075 29.6755C44.8593 22.9606 38.0331 15.5084 27.9606 13.0307Z" fill="#FAA21E"/>
<path d="M27.9606 13.0307C17.8882 10.553 8.38383 13.9879 6.73201 20.7028L9.14061 21.2322C10.3809 17.8214 16.5823 11.9301 27.7448 14.7207C37.512 17.1625 41.698 24.953 40.7678 28.6739L43.2075 29.6755C44.8593 22.9606 38.0331 15.5084 27.9606 13.0307Z" fill="black" fill-opacity="0.1"/>
<path d="M28.675 28.2088C26.164 28.7945 24.7494 28.7855 22.1636 28.2088C22.6287 30.0692 24.4891 30.5343 25.4193 32.3947C26.3495 30.5343 28.2099 30.0692 28.675 28.2088Z" fill="#1D8CE0"/>
<path d="M28.675 28.2088C26.164 28.7945 24.7494 28.7855 22.1636 28.2088C22.6287 30.0692 24.4891 30.5343 25.4193 32.3947C26.3495 30.5343 28.2099 30.0692 28.675 28.2088Z" fill="white" fill-opacity="0.2"/>
<ellipse cx="25.4193" cy="28.2088" rx="3.25574" ry="0.465105" fill="#1D8CE0"/>
<ellipse cx="25.4193" cy="28.2088" rx="3.25574" ry="0.465105" fill="white" fill-opacity="0.6"/>
</svg>
