<svg width="50" height="50" viewBox="0 0 50 50" fill="none" xmlns="http://www.w3.org/2000/svg">
<path d="M15.0813 31.6011C15.2889 36.6419 15.8389 39.7265 16.8984 45.2746C14.2306 46.0099 12.5631 46.9543 10 46.891C9.97675 42.2519 10.0691 39.648 10.5 35C9.38342 39.3565 9.01061 41.9652 8.5 46.7203C6.34666 46.239 5.22069 44.8269 4.24789 43.9034L4.26828 43.7709C5.07553 38.5242 5.53443 35.5416 6.83514 30.4276C6.33761 29.0195 5.3021 26.7886 4.95288 23.2336C4.56775 19.313 4.22878 7.88446 4.82067 7.92645C6.59637 8.05244 5.98968 16.835 7.17348 16.919C8.35728 17.003 7.00084 2.19739 8.77654 2.32338C10.5522 2.44937 8.98965 16.4595 10.1734 16.5435C11.3572 16.6275 11.225 1.32036 13.0007 1.44635C14.7764 1.57233 12.541 16.7115 13.7249 16.7955C14.9087 16.8795 15.2874 2.78534 17.0631 2.91133C18.8388 3.03732 15.7689 21.6475 17.5446 21.7735C19.3203 21.8995 22.2002 14.6511 23.357 15.1254C24.5139 15.5997 22.2798 22.1095 19.5886 26.6255C17.4357 30.2384 15.6867 31.4479 15.0813 31.6011Z" fill="#1D8CE0"/>
<path d="M15.0813 31.6011C15.2889 36.6419 15.8389 39.7265 16.8984 45.2746C14.2306 46.0099 12.5631 46.9543 10 46.891C9.97675 42.2519 10.0691 39.648 10.5 35C9.38342 39.3565 9.01061 41.9652 8.5 46.7203C6.34666 46.239 5.22069 44.8269 4.24789 43.9034L4.26828 43.7709C5.07553 38.5242 5.53443 35.5416 6.83514 30.4276C6.33761 29.0195 5.3021 26.7886 4.95288 23.2336C4.56775 19.313 4.22878 7.88446 4.82067 7.92645C6.59637 8.05244 5.98968 16.835 7.17348 16.919C8.35728 17.003 7.00084 2.19739 8.77654 2.32338C10.5522 2.44937 8.98965 16.4595 10.1734 16.5435C11.3572 16.6275 11.225 1.32036 13.0007 1.44635C14.7764 1.57233 12.541 16.7115 13.7249 16.7955C14.9087 16.8795 15.2874 2.78534 17.0631 2.91133C18.8388 3.03732 15.7689 21.6475 17.5446 21.7735C19.3203 21.8995 22.2002 14.6511 23.357 15.1254C24.5139 15.5997 22.2798 22.1095 19.5886 26.6255C17.4357 30.2384 15.6867 31.4479 15.0813 31.6011Z" fill="black" fill-opacity="0.2"/>
<path d="M27.61 30.7303C26 35.5 24.5 37.5 20.5 42C22 44 23 45.5 25 46.5C27.61 43 29 41 31 36.5C29.8515 41.1103 29 43 26.5371 47.4209C28.9733 48.1887 30.9348 47.8967 32.2851 47.4209C33.8317 41.8247 34.6963 38.687 35.616 33.0511C36.6348 31.969 38.4748 30.3564 40.2182 27.2513C42.1408 23.8269 47.0292 13.5223 46.4715 13.3171C44.7983 12.7015 41.8342 20.9772 40.7187 20.5669C39.6032 20.1565 46.7743 7.18437 45.1011 6.56882C43.4279 5.95327 39.243 19.3996 38.1276 18.9892C37.0121 18.5789 43.2654 4.64465 41.5921 4.0291C39.9189 3.41355 35.8966 18.1685 34.7811 17.7581C33.6656 17.3478 38.966 4.3118 37.2927 3.69625C35.6195 3.0807 30.9693 21.3511 29.2961 20.7356C27.6229 20.12 27.8949 12.3109 26.6477 12.2683C25.4005 12.2258 24.8341 19.0941 25.4843 24.3286C26.0043 28.5161 27.1181 30.3412 27.61 30.7303Z" fill="#1D8CE0"/>
<path d="M27.61 30.7303C26 35.5 24.5 37.5 20.5 42C22 44 23 45.5 25 46.5C27.61 43 29 41 31 36.5C29.8515 41.1103 29 43 26.5371 47.4209C28.9733 48.1887 30.9348 47.8967 32.2851 47.4209C33.8317 41.8247 34.6963 38.687 35.616 33.0511C36.6348 31.969 38.4748 30.3564 40.2182 27.2513C42.1408 23.8269 47.0292 13.5223 46.4715 13.3171C44.7983 12.7015 41.8342 20.9772 40.7187 20.5669C39.6032 20.1565 46.7743 7.18437 45.1011 6.56882C43.4279 5.95327 39.243 19.3996 38.1276 18.9892C37.0121 18.5789 43.2654 4.64465 41.5921 4.0291C39.9189 3.41355 35.8966 18.1685 34.7811 17.7581C33.6656 17.3478 38.966 4.3118 37.2927 3.69625C35.6195 3.0807 30.9693 21.3511 29.2961 20.7356C27.6229 20.12 27.8949 12.3109 26.6477 12.2683C25.4005 12.2258 24.8341 19.0941 25.4843 24.3286C26.0043 28.5161 27.1181 30.3412 27.61 30.7303Z" fill="black" fill-opacity="0.2"/>
<path d="M15.051 23.2556C14.9346 25.4945 13.0511 27.206 10.8532 27.0886C8.65527 26.9713 6.95958 25.0687 7.07594 22.8299C7.19229 20.5911 9.07581 18.8796 11.2737 18.9969C13.4716 19.1142 15.1673 21.0168 15.051 23.2556Z" stroke="#1D8CE0" stroke-width="0.694922"/>
<path d="M15.051 23.2556C14.9346 25.4945 13.0511 27.206 10.8532 27.0886C8.65527 26.9713 6.95958 25.0687 7.07594 22.8299C7.19229 20.5911 9.07581 18.8796 11.2737 18.9969C13.4716 19.1142 15.1673 21.0168 15.051 23.2556Z" stroke="white" stroke-opacity="0.6" stroke-width="0.694922"/>
<path d="M15.0511 23.2556C15.03 23.6623 14.6725 24.1034 13.9071 24.4415C13.1616 24.7708 12.1216 24.9537 10.9675 24.8921C9.81336 24.8305 8.79806 24.5379 8.09084 24.131C7.36467 23.7133 7.05494 23.2366 7.07608 22.8298C7.09721 22.4231 7.45465 21.982 8.2201 21.6439C8.96558 21.3146 10.0056 21.1317 11.1597 21.1933C12.3138 21.2549 13.3291 21.5475 14.0363 21.9544C14.7625 22.3721 15.0722 22.8488 15.0511 23.2556Z" stroke="#1D8CE0" stroke-width="0.694922"/>
<path d="M15.0511 23.2556C15.03 23.6623 14.6725 24.1034 13.9071 24.4415C13.1616 24.7708 12.1216 24.9537 10.9675 24.8921C9.81336 24.8305 8.79806 24.5379 8.09084 24.131C7.36467 23.7133 7.05494 23.2366 7.07608 22.8298C7.09721 22.4231 7.45465 21.982 8.2201 21.6439C8.96558 21.3146 10.0056 21.1317 11.1597 21.1933C12.3138 21.2549 13.3291 21.5475 14.0363 21.9544C14.7625 22.3721 15.0722 22.8488 15.0511 23.2556Z" stroke="white" stroke-opacity="0.6" stroke-width="0.694922"/>
<path d="M12.8837 23.14C12.8228 24.3115 12.5336 25.3424 12.1313 26.0607C11.717 26.8005 11.247 27.1097 10.8532 27.0887C10.4594 27.0676 10.024 26.7101 9.68867 25.9303C9.36306 25.1731 9.18229 24.1171 9.24317 22.9456C9.30406 21.7741 9.59329 20.7432 9.99559 20.0249C10.4099 19.2851 10.8799 18.9759 11.2737 18.9969C11.6675 19.0179 12.1028 19.3755 12.4382 20.1553C12.7638 20.9124 12.9446 21.9685 12.8837 23.14Z" stroke="#1D8CE0" stroke-width="0.694922"/>
<path d="M12.8837 23.14C12.8228 24.3115 12.5336 25.3424 12.1313 26.0607C11.717 26.8005 11.247 27.1097 10.8532 27.0887C10.4594 27.0676 10.024 26.7101 9.68867 25.9303C9.36306 25.1731 9.18229 24.1171 9.24317 22.9456C9.30406 21.7741 9.59329 20.7432 9.99559 20.0249C10.4099 19.2851 10.8799 18.9759 11.2737 18.9969C11.6675 19.0179 12.1028 19.3755 12.4382 20.1553C12.7638 20.9124 12.9446 21.9685 12.8837 23.14Z" stroke="white" stroke-opacity="0.6" stroke-width="0.694922"/>
<path d="M38.1513 26.0877C37.3057 28.1576 34.9674 29.1359 32.9323 28.282C30.8973 27.428 29.9258 25.0608 30.7715 22.9909C31.6171 20.921 33.9554 19.9427 35.9905 20.7966C38.0255 21.6506 38.997 24.0178 38.1513 26.0877Z" stroke="#1D8CE0" stroke-width="0.694922"/>
<path d="M38.1513 26.0877C37.3057 28.1576 34.9674 29.1359 32.9323 28.282C30.8973 27.428 29.9258 25.0608 30.7715 22.9909C31.6171 20.921 33.9554 19.9427 35.9905 20.7966C38.0255 21.6506 38.997 24.0178 38.1513 26.0877Z" stroke="white" stroke-opacity="0.6" stroke-width="0.694922"/>
<path d="M38.1512 26.0877C37.9979 26.463 37.5164 26.7583 36.6829 26.8185C35.8715 26.877 34.8305 26.698 33.7625 26.2498C32.6944 25.8016 31.8333 25.1825 31.3002 24.5597C30.7526 23.92 30.6181 23.3662 30.7714 22.9909C30.9247 22.6156 31.4062 22.3203 32.2397 22.2601C33.0511 22.2016 34.0921 22.3806 35.1601 22.8288C36.2282 23.277 37.0894 23.8961 37.6224 24.5189C38.17 25.1586 38.3046 25.7124 38.1512 26.0877Z" stroke="#1D8CE0" stroke-width="0.694922"/>
<path d="M38.1512 26.0877C37.9979 26.463 37.5164 26.7583 36.6829 26.8185C35.8715 26.877 34.8305 26.698 33.7625 26.2498C32.6944 25.8016 31.8333 25.1825 31.3002 24.5597C30.7526 23.92 30.6181 23.3662 30.7714 22.9909C30.9247 22.6156 31.4062 22.3203 32.2397 22.2601C33.0511 22.2016 34.0921 22.3806 35.1601 22.8288C36.2282 23.277 37.0894 23.8961 37.6224 24.5189C38.17 25.1586 38.3046 25.7124 38.1512 26.0877Z" stroke="white" stroke-opacity="0.6" stroke-width="0.694922"/>
<path d="M36.1461 25.2462C35.7034 26.3298 35.0917 27.2038 34.4763 27.7448C33.8428 28.3019 33.2977 28.4352 32.9323 28.2819C32.5669 28.1285 32.2744 27.6437 32.2148 26.7958C32.1569 25.9722 32.3339 24.9158 32.7766 23.8322C33.2193 22.7486 33.831 21.8746 34.4464 21.3335C35.08 20.7765 35.6251 20.6432 35.9904 20.7965C36.3558 20.9498 36.6484 21.4346 36.7079 22.2825C36.7658 23.1061 36.5889 24.1625 36.1461 25.2462Z" stroke="#1D8CE0" stroke-width="0.694922"/>
<path d="M36.1461 25.2462C35.7034 26.3298 35.0917 27.2038 34.4763 27.7448C33.8428 28.3019 33.2977 28.4352 32.9323 28.2819C32.5669 28.1285 32.2744 27.6437 32.2148 26.7958C32.1569 25.9722 32.3339 24.9158 32.7766 23.8322C33.2193 22.7486 33.831 21.8746 34.4464 21.3335C35.08 20.7765 35.6251 20.6432 35.9904 20.7965C36.3558 20.9498 36.6484 21.4346 36.7079 22.2825C36.7658 23.1061 36.5889 24.1625 36.1461 25.2462Z" stroke="white" stroke-opacity="0.6" stroke-width="0.694922"/>
</svg>
