<svg width="50" height="50" viewBox="0 0 50 50" fill="none" xmlns="http://www.w3.org/2000/svg">
<path d="M9.73684 2H40V5L41 7H45V48H11.3158C10.7895 48 8.15789 48 6.57895 46.4318C5 44.8636 5 43.2955 5 42.7727V6.70455C5 5.65909 5.73684 4.40455 6.57895 3.56818C7.42105 2.73182 8.68421 2 9.73684 2Z" fill="#D0333D"/>
<path d="M9.73684 2H40V5L41 7H45V48H11.3158C10.7895 48 8.15789 48 6.57895 46.4318C5 44.8636 5 43.2955 5 42.7727V6.70455C5 5.65909 5.73684 4.40455 6.57895 3.56818C7.42105 2.73182 8.68421 2 9.73684 2Z" fill="black" fill-opacity="0.2"/>
<path d="M43 9.1L40 5V40H38L43 46V9.1Z" fill="#898989"/>
<path d="M10.1304 40H38L43 46H10.1304C9.62415 46 7 45.25 7 43C7 40.75 9.62415 40 10.1304 40Z" fill="#898989"/>
<path d="M10.1304 40H38L43 46H10.1304C9.62415 46 7 45.25 7 43C7 40.75 9.62415 40 10.1304 40Z" fill="white" fill-opacity="0.4"/>
<path d="M9.24548 18.12C12.1255 14.28 16.92 13 23 12.04L22.9319 12.0715C18.7868 13.9845 13.9414 16.2207 13.0855 20.04C12.44 22.92 13.4 25.8 18.84 26.44C24.28 27.08 33.5655 24.52 38.3655 22.28C33.2455 26.76 22.6855 32.2 13.7255 29.64C7.11914 27.7524 6.34 21.994 9.24548 18.12Z" fill="#FEFEFE"/>
<rect x="33.2811" y="5.37109" width="1.348" height="9.43601" rx="0.674001" transform="rotate(30 33.2811 5.37109)" fill="#FEFEFE"/>
<rect x="31.5267" y="14.4756" width="1.348" height="4.718" rx="0.674001" transform="rotate(120 31.5267 14.4756)" fill="#FEFEFE"/>
<path d="M18.1243 28.1403C19.7763 23.2571 26.2454 16.0963 27.8853 13.93L29.6364 14.941C27.3677 17.5225 22.6497 25.6943 22.4239 29.4553C20.7841 31.6216 19.9957 33.7568 19.3006 36.213C18.9306 34.832 16.9129 31.7214 18.1243 28.1403Z" fill="#FEFEFE"/>
<path d="M18.1587 28.1597C19.8077 23.2748 26.2934 16.1235 27.9342 13.9578L28.5179 14.2948C26.3726 17.3366 16.9607 28.2464 20.4509 32.9853C20.1139 33.569 19.7317 34.9049 19.3496 36.2408C18.9766 34.8581 16.9494 31.742 18.1587 28.1597Z" fill="#FEFEFE"/>
</svg>
