<svg width="50" height="50" viewBox="0 0 50 50" fill="none" xmlns="http://www.w3.org/2000/svg">
<g clip-path="url(#clip0_2159_10146)">
<path d="M43.2102 30.9073C40.5606 29.4404 33.359 27.3475 27.8391 29.0595C23.9677 30.5342 21.9194 35.1306 23.9677 38.4117C26.7717 42.9032 33.568 44.9024 40.0225 44.6875C46.477 44.4726 47.1162 41.7096 47.7896 38.7984C48.6047 35.2749 45.8598 32.3742 43.2102 30.9073Z" fill="#D0333D"/>
<path d="M43.2102 30.9073C40.5606 29.4404 33.359 27.3475 27.8391 29.0595C23.9677 30.5342 21.9194 35.1306 23.9677 38.4117C26.7717 42.9032 33.568 44.9024 40.0225 44.6875C46.477 44.4726 47.1162 41.7096 47.7896 38.7984C48.6047 35.2749 45.8598 32.3742 43.2102 30.9073Z" fill="white" fill-opacity="0.8"/>
<path d="M24.8936 34.7067C24.3897 32.1418 24.8146 30.3517 27.4696 29.2897C26.9657 30.3156 26.4054 31.6288 26.4054 32.6548C26.4054 33.6808 27.9172 34.1938 28.4212 34.7067C28.9251 35.2197 27.9172 37.2717 29.4291 37.7847C30.9409 38.2977 32.9566 37.7847 33.9645 38.2977C34.9724 38.8106 34.7848 39.9095 35.9654 39.9095C37.0274 39.9095 37.6666 37.7855 39.6824 37.7855C41.6981 37.7855 43.0354 40.3496 45.0512 39.8366C46.6638 39.4262 47.5767 38.2985 47.9127 37.7855C47.6472 40.4405 47.067 41.3756 44.5473 42.4015C41.1409 43.7885 35.4763 42.9145 31.4448 41.3756C27.4133 39.8366 25.4948 37.7665 24.8936 34.7067Z" fill="#D0333D"/>
<path d="M24.8936 34.7067C24.3897 32.1418 24.8146 30.3517 27.4696 29.2897C26.9657 30.3156 26.4054 31.6288 26.4054 32.6548C26.4054 33.6808 27.9172 34.1938 28.4212 34.7067C28.9251 35.2197 27.9172 37.2717 29.4291 37.7847C30.9409 38.2977 32.9566 37.7847 33.9645 38.2977C34.9724 38.8106 34.7848 39.9095 35.9654 39.9095C37.0274 39.9095 37.6666 37.7855 39.6824 37.7855C41.6981 37.7855 43.0354 40.3496 45.0512 39.8366C46.6638 39.4262 47.5767 38.2985 47.9127 37.7855C47.6472 40.4405 47.067 41.3756 44.5473 42.4015C41.1409 43.7885 35.4763 42.9145 31.4448 41.3756C27.4133 39.8366 25.4948 37.7665 24.8936 34.7067Z" fill="white" fill-opacity="0.9"/>
<path d="M23.2217 36.1926C22.6907 33.5376 24.2837 30.8827 26.4076 29.8207C25.8766 30.8827 24.8147 33.0066 24.8147 34.0686C24.8147 35.1306 26.4076 35.6616 26.9386 36.1926C27.4696 36.7235 26.4076 38.8475 28.0006 39.3785C29.5936 39.9095 31.7175 39.3785 32.7795 39.9095C33.8415 40.4405 33.3105 42.0334 35.9654 42.0334C38.6204 42.0334 37.5584 39.3785 39.6824 39.3785C41.8063 39.3785 42.3373 42.0334 44.4613 41.5025C46.1604 41.0777 47.2932 39.9095 47.6472 39.3785C47.4702 40.7945 46.5852 43.0954 43.9303 44.1574C40.3411 45.5931 34.3725 44.6884 30.1246 43.0954C25.8766 41.5025 23.8551 39.3597 23.2217 36.1926Z" fill="#D0333D"/>
<path d="M23.2217 36.1926C22.6907 33.5376 24.2837 30.8827 26.4076 29.8207C25.8766 30.8827 24.8147 33.0066 24.8147 34.0686C24.8147 35.1306 26.4076 35.6616 26.9386 36.1926C27.4696 36.7235 26.4076 38.8475 28.0006 39.3785C29.5936 39.9095 31.7175 39.3785 32.7795 39.9095C33.8415 40.4405 33.3105 42.0334 35.9654 42.0334C38.6204 42.0334 37.5584 39.3785 39.6824 39.3785C41.8063 39.3785 42.3373 42.0334 44.4613 41.5025C46.1604 41.0777 47.2932 39.9095 47.6472 39.3785C47.4702 40.7945 46.5852 43.0954 43.9303 44.1574C40.3411 45.5931 34.3725 44.6884 30.1246 43.0954C25.8766 41.5025 23.8551 39.3597 23.2217 36.1926Z" fill="white" fill-opacity="0.6"/>
<path d="M12.2544 15.402C9.49097 13.2867 3.87976 14.4219 2.51312 20.2628C1.89192 22.9177 2.42127 28.7503 4.04396 32.4402C6.07233 37.0526 9.94598 40.0323 13.6639 38.8475C18.74 37.2297 19.8016 33.8221 19.1068 28.1522C18.412 22.4824 15.0179 17.5174 12.2544 15.402Z" fill="#D0333D"/>
<path d="M12.2544 15.402C9.49097 13.2867 3.87976 14.4219 2.51312 20.2628C1.89192 22.9177 2.42127 28.7503 4.04396 32.4402C6.07233 37.0526 9.94598 40.0323 13.6639 38.8475C18.74 37.2297 19.8016 33.8221 19.1068 28.1522C18.412 22.4824 15.0179 17.5174 12.2544 15.402Z" fill="white" fill-opacity="0.8"/>
<path d="M3 19C3.36864 15.8853 6.23199 15.1244 6.99999 14.7999C6.69279 15.9355 6.0975 18.6987 6.0975 19.8667C6.0975 21.3267 7.47991 20.84 7.47991 22.7867C7.47991 24.7333 6.5583 25.22 6.5583 27.1667C6.5583 29.1134 9.78393 27.1667 10.2447 28.6267C10.7055 30.0867 9.57025 31.3345 9.99999 33.0067C10.2553 34 11.6271 32.52 13.0096 33.0067C14.392 33.4934 13.4704 35.44 14.8528 35.44C15.9587 35.44 17.9784 34.4866 18.9 34C18.9 34.1622 18.6059 35.332 17.5 36.5C16.1176 37.96 13.9311 38.36 12.0879 37.8734C10.2447 37.3867 9.12267 37.0904 7.0191 33.98C3.58912 28.9085 2.5392 22.8933 3 19Z" fill="#D0333D"/>
<path d="M3 19C3.36864 15.8853 6.23199 15.1244 6.99999 14.7999C6.69279 15.9355 6.0975 18.6987 6.0975 19.8667C6.0975 21.3267 7.47991 20.84 7.47991 22.7867C7.47991 24.7333 6.5583 25.22 6.5583 27.1667C6.5583 29.1134 9.78393 27.1667 10.2447 28.6267C10.7055 30.0867 9.57025 31.3345 9.99999 33.0067C10.2553 34 11.6271 32.52 13.0096 33.0067C14.392 33.4934 13.4704 35.44 14.8528 35.44C15.9587 35.44 17.9784 34.4866 18.9 34C18.9 34.1622 18.6059 35.332 17.5 36.5C16.1176 37.96 13.9311 38.36 12.0879 37.8734C10.2447 37.3867 9.12267 37.0904 7.0191 33.98C3.58912 28.9085 2.5392 22.8933 3 19Z" fill="white" fill-opacity="0.9"/>
<path d="M2.50003 20.5C2.90003 17.3 4.6667 15.8333 5.50003 15.5C5.1667 16.6667 4.50004 19.3 4.50004 20.5C4.50004 22 6.00004 21.5 6.00004 23.5C6.00004 25.5 5.00004 26 5.00004 28C5.00004 30 8.50004 28 9.00004 29.5C9.50004 31 8.00004 32.5 9.00004 34C10 35.5 10.5 33.5 12 34C13.5 34.5 12.5 36.5 14 36.5C15.2 36.5 17.5 35.5 18.5 35C18.5 35.1667 18.2 35.8 17 37C15.5 38.5 13 39.5 11 39C9.00003 38.5 7.78255 38.1955 5.50003 35C1.7783 29.7896 2.00003 24.5 2.50003 20.5Z" fill="#D0333D"/>
<path d="M2.50003 20.5C2.90003 17.3 4.6667 15.8333 5.50003 15.5C5.1667 16.6667 4.50004 19.3 4.50004 20.5C4.50004 22 6.00004 21.5 6.00004 23.5C6.00004 25.5 5.00004 26 5.00004 28C5.00004 30 8.50004 28 9.00004 29.5C9.50004 31 8.00004 32.5 9.00004 34C10 35.5 10.5 33.5 12 34C13.5 34.5 12.5 36.5 14 36.5C15.2 36.5 17.5 35.5 18.5 35C18.5 35.1667 18.2 35.8 17 37C15.5 38.5 13 39.5 11 39C9.00003 38.5 7.78255 38.1955 5.50003 35C1.7783 29.7896 2.00003 24.5 2.50003 20.5Z" fill="white" fill-opacity="0.6"/>
<path d="M37.321 4.35008C33.4558 3.98981 30.016 5.41387 25.9497 7.98419C24.5115 9.24864 22.8755 10.526 22.1597 12.829C21.3843 15.3239 20.7205 19.8619 24.3373 21.4452C27.9542 23.0286 32.0832 22.3887 36.8232 20.3796C41.5633 18.3706 43.7384 15.4163 44.1879 11.2627C44.6374 7.10905 41.1861 4.71035 37.321 4.35008Z" fill="#D0333D"/>
<path d="M37.321 4.35008C33.4558 3.98981 30.016 5.41387 25.9497 7.98419C24.5115 9.24864 22.8755 10.526 22.1597 12.829C21.3843 15.3239 20.7205 19.8619 24.3373 21.4452C27.9542 23.0286 32.0832 22.3887 36.8232 20.3796C41.5633 18.3706 43.7384 15.4163 44.1879 11.2627C44.6374 7.10905 41.1861 4.71035 37.321 4.35008Z" fill="white" fill-opacity="0.8"/>
<path d="M42.0221 9.01491C41.6446 6.53683 40.7989 4.81404 38 4.50001C38.8021 5.31583 40 6.50001 39.9529 7.50858C39.9058 8.51714 39.0633 9.29613 38.7667 9.89198C38.4702 10.4878 40.0743 12.1195 38.8476 12.9659C37.621 13.8124 35.5923 13.843 34.8307 14.5641C34.0691 15.2853 34.6032 16.2466 33.5136 16.5401C32.5336 16.8042 31.2461 15.0148 29.3859 15.516C27.5257 16.0172 27.5287 18.4694 25.5 18.5C23.877 18.5245 22.5 18.5 21.6 17.5C22 20.5 23.7504 20.6452 26.4127 20.9598C30.0117 21.3852 34.9521 19.175 38.1669 16.761C41.3818 14.3469 42.4723 11.9711 42.0221 9.01491Z" fill="#D0333D"/>
<path d="M42.0221 9.01491C41.6446 6.53683 40.7989 4.81404 38 4.50001C38.8021 5.31583 40 6.50001 39.9529 7.50858C39.9058 8.51714 39.0633 9.29613 38.7667 9.89198C38.4702 10.4878 40.0743 12.1195 38.8476 12.9659C37.621 13.8124 35.5923 13.843 34.8307 14.5641C34.0691 15.2853 34.6032 16.2466 33.5136 16.5401C32.5336 16.8042 31.2461 15.0148 29.3859 15.516C27.5257 16.0172 27.5287 18.4694 25.5 18.5C23.877 18.5245 22.5 18.5 21.6 17.5C22 20.5 23.7504 20.6452 26.4127 20.9598C30.0117 21.3852 34.9521 19.175 38.1669 16.761C41.3818 14.3469 42.4723 11.9711 42.0221 9.01491Z" fill="white" fill-opacity="0.9"/>
<path d="M44 8.99991C43.5 6.99993 41.3088 5.14603 39 4.69998C40 5.5 41.8852 6.79688 41.8852 8.40984C41.8852 10.0228 40.9384 10.2671 40.6228 10.8862C40.3072 11.5053 41.9849 13.1895 40.6893 14.0727C39.3936 14.9558 37.2592 14.9968 36.4536 15.7479C35.6479 16.4991 36.6612 17.8282 34.2111 18.4884C31.7611 19.1485 31.869 16.4491 29.909 16.9772C27.9489 17.5053 28.331 20.0726 26.1965 20.1136C24.489 20.1465 22.5011 19.399 22 19C22.5 20.5 24 21.5 26 22C30.13 23.0325 36.6031 21.1173 40 18.6C43.3968 16.0826 44.7566 12.0265 44 8.99991Z" fill="#D0333D"/>
<path d="M44 8.99991C43.5 6.99993 41.3088 5.14603 39 4.69998C40 5.5 41.8852 6.79688 41.8852 8.40984C41.8852 10.0228 40.9384 10.2671 40.6228 10.8862C40.3072 11.5053 41.9849 13.1895 40.6893 14.0727C39.3936 14.9558 37.2592 14.9968 36.4536 15.7479C35.6479 16.4991 36.6612 17.8282 34.2111 18.4884C31.7611 19.1485 31.869 16.4491 29.909 16.9772C27.9489 17.5053 28.331 20.0726 26.1965 20.1136C24.489 20.1465 22.5011 19.399 22 19C22.5 20.5 24 21.5 26 22C30.13 23.0325 36.6031 21.1173 40 18.6C43.3968 16.0826 44.7566 12.0265 44 8.99991Z" fill="white" fill-opacity="0.6"/>
</g>
<defs>
<clipPath id="clip0_2159_10146">
<rect width="50" height="50" fill="white"/>
</clipPath>
</defs>
</svg>
