<svg width="50" height="50" viewBox="0 0 50 50" fill="none" xmlns="http://www.w3.org/2000/svg">
<path d="M9.23264 44.2352L33.7326 1.79996L40.6608 5.79997C45.424 8.54998 47.3211 14.2641 47.5531 17.8622C47.9012 23.2593 47.0271 28.7733 43.3833 35.0846C39.1333 42.4458 34.9012 45.7759 30.0531 48.173C25.5602 50.3946 20.0579 50.4852 16.1608 48.2352L9.23264 44.2352Z" fill="#FAA21E"/>
<path d="M9.23264 44.2352L33.7326 1.79996L40.6608 5.79997C45.424 8.54998 47.3211 14.2641 47.5531 17.8622C47.9012 23.2593 47.0271 28.7733 43.3833 35.0846C39.1333 42.4458 34.9012 45.7759 30.0531 48.173C25.5602 50.3946 20.0579 50.4852 16.1608 48.2352L9.23264 44.2352Z" fill="black" fill-opacity="0.1"/>
<ellipse cx="21.5029" cy="23.0331" rx="17.0319" ry="24.4986" transform="rotate(30.0157 21.5029 23.0331)" fill="#FAA21E"/>
<ellipse cx="21.5029" cy="23.0331" rx="17.0319" ry="24.4986" transform="rotate(30.0157 21.5029 23.0331)" fill="white" fill-opacity="0.2"/>
<ellipse cx="20.4769" cy="22.4006" rx="13.1794" ry="20.4689" transform="rotate(30.0157 20.4769 22.4006)" fill="#FAA21E"/>
<ellipse cx="20.4769" cy="22.4006" rx="13.1794" ry="20.4689" transform="rotate(30.0157 20.4769 22.4006)" fill="black" fill-opacity="0.1"/>
<path d="M29.8519 14.2303C30.3619 13.347 28.228 11.8106 26.9333 11.0631C25.6385 10.3156 23.2296 9.25556 22.731 10.119C22.456 10.5954 22.8498 11.0345 22.92 11.2868C22.6683 11.8472 21.9212 13.1662 20.946 13.9582C19.7271 14.9483 18.4356 14.7249 17.3968 14.8733C16.2208 15.0413 15.3255 16.2182 14.9588 16.8534L9.09118 27.0164C8.97797 27.5863 9.6717 29.2298 10.9041 30.6039C12.0856 31.9212 15.8079 34.0703 17.7013 34.5283C19.4218 34.9444 21.7632 34.9678 22.0383 34.4914L27.9059 24.3284C28.3032 23.6403 29.0427 22.3593 28.4018 21.227C27.7608 20.0947 27.355 18.9288 27.4196 17.6957C27.4712 16.7093 28.2949 15.3075 28.7462 14.6505C29.1615 14.6786 29.6227 14.6273 29.8519 14.2303Z" fill="#FAA21E"/>
<path d="M29.8519 14.2303C30.3619 13.347 28.228 11.8106 26.9333 11.0631C25.6385 10.3156 23.2296 9.25556 22.731 10.119C22.456 10.5954 22.8498 11.0345 22.92 11.2868C22.6683 11.8472 21.9212 13.1662 20.946 13.9582C19.7271 14.9483 18.4356 14.7249 17.3968 14.8733C16.2208 15.0413 15.3255 16.2182 14.9588 16.8534L9.09118 27.0164C8.97797 27.5863 9.6717 29.2298 10.9041 30.6039C12.0856 31.9212 15.8079 34.0703 17.7013 34.5283C19.4218 34.9444 21.7632 34.9678 22.0383 34.4914L27.9059 24.3284C28.3032 23.6403 29.0427 22.3593 28.4018 21.227C27.7608 20.0947 27.355 18.9288 27.4196 17.6957C27.4712 16.7093 28.2949 15.3075 28.7462 14.6505C29.1615 14.6786 29.6227 14.6273 29.8519 14.2303Z" fill="white" fill-opacity="0.2"/>
<ellipse cx="26.3838" cy="12.0767" rx="3.28097" ry="0.830773" transform="matrix(0.866313 0.498767 -0.499501 0.866736 9.5595 -11.55)" fill="#FAA21E"/>
<ellipse cx="26.3838" cy="12.0767" rx="3.28097" ry="0.830773" transform="matrix(0.866313 0.498767 -0.499501 0.866736 9.5595 -11.55)" fill="black" fill-opacity="0.1"/>
</svg>
