<svg width="50" height="50" viewBox="0 0 50 50" fill="none" xmlns="http://www.w3.org/2000/svg">
<path d="M0 31.8278V27.4377L27.4377 24.694L36.7666 25.7915V35.1203H25.7915L26.3402 30.1815C23.9623 31.8278 17.9077 35.1203 12.6214 35.1203C6.58506 35.1203 3.29253 34.0228 0 31.8278Z" fill="#898989"/>
<path d="M21.9502 13.1701C22.3892 9.65809 20.6698 4.0242 19.7552 0C29.6328 1.64627 32.9253 1.64627 38.4128 0C37.3153 3.65837 36.2178 11.5239 36.2178 15.9139C36.2178 20.3039 36.7666 21.9502 36.7666 26.3402C34.0228 26.3402 28.5353 26.7322 26.889 27.4377C23.0477 29.084 21.9502 31.279 14.2676 31.279C8.12157 31.279 2.56086 28.9011 0 27.4377C0.731673 24.694 3.40228 19.6454 8.23132 19.2064C14.2676 18.6577 14.7774 21.4014 18.6577 21.4014C21.9502 21.4014 21.4014 17.5602 21.9502 13.1701Z" fill="#898989"/>
<path d="M21.9502 13.1701C22.3892 9.65809 20.6698 4.0242 19.7552 0C29.6328 1.64627 32.9253 1.64627 38.4128 0C37.3153 3.65837 36.2178 11.5239 36.2178 15.9139C36.2178 20.3039 36.7666 21.9502 36.7666 26.3402C34.0228 26.3402 28.5353 26.7322 26.889 27.4377C23.0477 29.084 21.9502 31.279 14.2676 31.279C8.12157 31.279 2.56086 28.9011 0 27.4377C0.731673 24.694 3.40228 19.6454 8.23132 19.2064C14.2676 18.6577 14.7774 21.4014 18.6577 21.4014C21.9502 21.4014 21.4014 17.5602 21.9502 13.1701Z" fill="black" fill-opacity="0.2"/>
<path d="M20.8525 3.84128L19.7551 9.53867M21.9501 4.93879L20.7154 9.53867M22.8399 6.4721L21.0602 11.3786M23.8365 7.39207L22.128 11.072M24.6197 8.31204L22.8399 12.6052M25.6875 8.92536L24.2637 12.9119M26.7554 9.53867L25.6875 13.8319M27.8232 10.152L27.1113 15.0585M28.8911 10.7653V15.3652M30.1815 10.152L30.6708 14.4452M31.279 9.53867L32.0946 12.9119M32.3765 8.92536L33.8744 13.8319M33.474 8.23132L34.5862 12.9119M34.5715 7.13381L35.669 11.5239M35.669 6.0363L37.0779 10.7653M36.7665 4.39004L37.3153 8.92536M37.3153 3.29253L38.4128 9.32883" stroke="#CE4317" stroke-width="0.658506" stroke-linecap="round"/>
<path d="M20.8525 3.84128L19.7551 9.53867M21.9501 4.93879L20.7154 9.53867M22.8399 6.4721L21.0602 11.3786M23.8365 7.39207L22.128 11.072M24.6197 8.31204L22.8399 12.6052M25.6875 8.92536L24.2637 12.9119M26.7554 9.53867L25.6875 13.8319M27.8232 10.152L27.1113 15.0585M28.8911 10.7653V15.3652M30.1815 10.152L30.6708 14.4452M31.279 9.53867L32.0946 12.9119M32.3765 8.92536L33.8744 13.8319M33.474 8.23132L34.5862 12.9119M34.5715 7.13381L35.669 11.5239M35.669 6.0363L37.0779 10.7653M36.7665 4.39004L37.3153 8.92536M37.3153 3.29253L38.4128 9.32883" stroke="black" stroke-opacity="0.3" stroke-width="0.658506" stroke-linecap="round"/>
<path d="M31.8277 1.09751C26.8889 1.09751 19.7551 0 19.7551 0L20.3039 3.84128C22.4989 7.13381 25.2427 9.32883 29.0839 10.9751C33.474 8.78008 35.1203 7.13381 37.864 3.29253L38.4128 0C38.4128 0 35.9093 1.09751 31.8277 1.09751Z" fill="#CE4317"/>
<path d="M31.8277 1.09751C26.8889 1.09751 19.7551 0 19.7551 0L20.3039 3.84128C22.4989 7.13381 25.2427 9.32883 29.0839 10.9751C33.474 8.78008 35.1203 7.13381 37.864 3.29253L38.4128 0C38.4128 0 35.9093 1.09751 31.8277 1.09751Z" fill="black" fill-opacity="0.3"/>
<path d="M17 32C15.4 32.4 13 34 12.5 35V36.5L15.5 37L25 38L35 37.5L37.5 13.5C35 13.1667 29.8 12.6 29 13C28 13.5 29 18 29 18.5C29 19 29.5 21.5 28 24C26.5 26.5 29 26.5 30 27.5C31 28.5 30 31.5 30 32.5C30 33.5 28.5 33.5 26 32.5C23.5 31.5 19 31.5 17 32Z" fill="#152242"/>
<path d="M10.9119 46.7075V42.3174L38.3496 39.5737L47.6784 40.6712V50H36.7034L37.2521 45.0612C34.8742 46.7075 28.8195 50 23.5332 50C17.4969 50 14.2044 48.9025 10.9119 46.7075Z" fill="#898989"/>
<path d="M32.8621 28.0498C33.3011 24.5378 31.5816 18.9039 30.667 14.8797C40.5446 16.526 43.8372 16.526 49.3247 14.8797C48.2272 18.5381 47.1297 26.4036 47.1297 30.7936C47.1297 35.1836 47.6784 36.8299 47.6784 41.2199C44.9347 41.2199 39.4471 41.6119 37.8009 42.3174C33.9596 43.9637 32.8621 46.1587 25.1795 46.1587C19.0334 46.1587 13.4727 43.7808 10.9119 42.3174C11.6435 39.5737 14.3141 34.5251 19.1432 34.0861C25.1795 33.5374 25.6892 36.2811 29.5695 36.2811C32.8621 36.2811 32.3133 32.4399 32.8621 28.0498Z" fill="#898989"/>
<path d="M32.8621 28.0498C33.3011 24.5378 31.5816 18.9039 30.667 14.8797C40.5446 16.526 43.8372 16.526 49.3247 14.8797C48.2272 18.5381 47.1297 26.4036 47.1297 30.7936C47.1297 35.1836 47.6784 36.8299 47.6784 41.2199C44.9347 41.2199 39.4471 41.6119 37.8009 42.3174C33.9596 43.9637 32.8621 46.1587 25.1795 46.1587C19.0334 46.1587 13.4727 43.7808 10.9119 42.3174C11.6435 39.5737 14.3141 34.5251 19.1432 34.0861C25.1795 33.5374 25.6892 36.2811 29.5695 36.2811C32.8621 36.2811 32.3133 32.4399 32.8621 28.0498Z" fill="black" fill-opacity="0.2"/>
<path d="M31.7644 18.721L30.667 24.4184M32.862 19.8185L31.6273 24.4184M33.7518 21.3518L31.972 26.2583M34.7484 22.2718L33.0399 25.9517M35.5315 23.1918L33.7518 27.485M36.5994 23.8051L35.1756 27.7916M37.6672 24.4184L36.5994 28.7116M38.7351 25.0317L38.0232 29.9382M39.8029 25.645V30.2449M41.0933 25.0317L41.5827 29.3249M42.1908 24.4184L43.0065 27.7916M43.2884 23.8051L44.7862 28.7116M44.3859 23.111L45.4981 27.7916M45.4834 22.0135L46.5809 26.4036M46.5809 20.916L47.9898 25.645M47.6784 19.2698L48.2271 23.8051M48.2271 18.1722L49.3247 24.2085" stroke="#CE4317" stroke-width="0.658506" stroke-linecap="round"/>
<path d="M31.7644 18.721L30.667 24.4184M32.862 19.8185L31.6273 24.4184M33.7518 21.3518L31.972 26.2583M34.7484 22.2718L33.0399 25.9517M35.5315 23.1918L33.7518 27.485M36.5994 23.8051L35.1756 27.7916M37.6672 24.4184L36.5994 28.7116M38.7351 25.0317L38.0232 29.9382M39.8029 25.645V30.2449M41.0933 25.0317L41.5827 29.3249M42.1908 24.4184L43.0065 27.7916M43.2884 23.8051L44.7862 28.7116M44.3859 23.111L45.4981 27.7916M45.4834 22.0135L46.5809 26.4036M46.5809 20.916L47.9898 25.645M47.6784 19.2698L48.2271 23.8051M48.2271 18.1722L49.3247 24.2085" stroke="black" stroke-opacity="0.3" stroke-width="0.658506" stroke-linecap="round"/>
<path d="M42.7396 15.9772C37.8008 15.9772 30.667 14.8797 30.667 14.8797L31.2157 18.721C33.4108 22.0135 36.1545 24.2085 39.9957 25.8548C44.3859 23.6598 46.0321 22.0135 48.7759 18.1722L49.3247 14.8797C49.3247 14.8797 46.8212 15.9772 42.7396 15.9772Z" fill="#CE4317"/>
<path d="M42.7396 15.9772C37.8008 15.9772 30.667 14.8797 30.667 14.8797L31.2157 18.721C33.4108 22.0135 36.1545 24.2085 39.9957 25.8548C44.3859 23.6598 46.0321 22.0135 48.7759 18.1722L49.3247 14.8797C49.3247 14.8797 46.8212 15.9772 42.7396 15.9772Z" fill="black" fill-opacity="0.3"/>
</svg>
