<svg width="50" height="50" viewBox="0 0 50 50" fill="none" xmlns="http://www.w3.org/2000/svg">
<path d="M20.8333 15.4762L24.9999 0V25L20.8333 15.4762Z" fill="#2FC4A7"/>
<path d="M20.8333 15.4762L24.9999 0V25L20.8333 15.4762Z" fill="white" fill-opacity="0.6"/>
<path d="M25 25V0L29.1667 15.4762L25 25Z" fill="#2FC4A7"/>
<path d="M25 25V0L29.1667 15.4762L25 25Z" fill="white" fill-opacity="0.2"/>
<path d="M29.1666 15.4762L42.857 7.14287L24.9999 25L29.1666 15.4762Z" fill="#546DDB"/>
<path d="M29.1666 15.4762L42.857 7.14287L24.9999 25L29.1666 15.4762Z" fill="white" fill-opacity="0.6"/>
<path d="M25 25L42.8572 7.14288L34.5238 20.8334L25 25Z" fill="#546DDB"/>
<path d="M25 25L42.8572 7.14288L34.5238 20.8334L25 25Z" fill="white" fill-opacity="0.2"/>
<path d="M34.5238 20.8333L50 25L25 25L34.5238 20.8333Z" fill="#2FC4A7"/>
<path d="M34.5238 20.8333L50 25L25 25L34.5238 20.8333Z" fill="white" fill-opacity="0.6"/>
<path d="M25 25L50 25L34.5238 29.1667L25 25Z" fill="#2FC4A7"/>
<path d="M25 25L50 25L34.5238 29.1667L25 25Z" fill="white" fill-opacity="0.2"/>
<path d="M34.5237 29.1667L42.857 42.8572L24.9998 25L34.5237 29.1667Z" fill="#546DDB"/>
<path d="M34.5237 29.1667L42.857 42.8572L24.9998 25L34.5237 29.1667Z" fill="white" fill-opacity="0.6"/>
<path d="M25 25L42.8572 42.8571L29.1667 34.5238L25 25Z" fill="#546DDB"/>
<path d="M25 25L42.8572 42.8571L29.1667 34.5238L25 25Z" fill="white" fill-opacity="0.2"/>
<path d="M29.1667 34.5238L25.0001 50L25.0001 25L29.1667 34.5238Z" fill="#2FC4A7"/>
<path d="M29.1667 34.5238L25.0001 50L25.0001 25L29.1667 34.5238Z" fill="white" fill-opacity="0.6"/>
<path d="M25 25L25 50L20.8333 34.5238L25 25Z" fill="#2FC4A7"/>
<path d="M25 25L25 50L20.8333 34.5238L25 25Z" fill="white" fill-opacity="0.2"/>
<path d="M20.8334 34.5238L7.14296 42.8571L25.0002 24.9999L20.8334 34.5238Z" fill="#546DDB"/>
<path d="M20.8334 34.5238L7.14296 42.8571L25.0002 24.9999L20.8334 34.5238Z" fill="white" fill-opacity="0.6"/>
<path d="M25 25L7.14282 42.8571L15.4762 29.1666L25 25Z" fill="#546DDB"/>
<path d="M25 25L7.14282 42.8571L15.4762 29.1666L25 25Z" fill="white" fill-opacity="0.2"/>
<path d="M15.4762 29.1667L5.46392e-07 25L25 25L15.4762 29.1667Z" fill="#2FC4A7"/>
<path d="M15.4762 29.1667L5.46392e-07 25L25 25L15.4762 29.1667Z" fill="white" fill-opacity="0.6"/>
<path d="M25 25L0 25L15.4762 20.8333L25 25Z" fill="#2FC4A7"/>
<path d="M25 25L0 25L15.4762 20.8333L25 25Z" fill="white" fill-opacity="0.2"/>
<path d="M15.4763 20.8333L7.14292 7.14284L25.0001 24.9999L15.4763 20.8333Z" fill="#546DDB"/>
<path d="M15.4763 20.8333L7.14292 7.14284L25.0001 24.9999L15.4763 20.8333Z" fill="white" fill-opacity="0.6"/>
<path d="M25 25L7.14282 7.14288L20.8333 15.4762L25 25Z" fill="#546DDB"/>
<path d="M25 25L7.14282 7.14288L20.8333 15.4762L25 25Z" fill="white" fill-opacity="0.2"/>
</svg>
