<svg width="50" height="50" viewBox="0 0 50 50" fill="none" xmlns="http://www.w3.org/2000/svg">
<path d="M41.5599 4.36571C41.56 3.51143 40.6399 3.38 38.7999 2.92C36.96 2.46 29.1399 2 24.9999 2C20.86 2 13.4999 2.26285 11.1999 2.92C8.89994 3.57715 8.43997 3.51143 8.43994 4.36571C8.43991 5.22 12.9867 5.81143 12.9867 5.81143L20.3999 7.65143H29.5999L37.0132 5.81143C37.0132 5.81143 41.5599 5.22 41.5599 4.36571Z" fill="#546DDB"/>
<path d="M41.5599 4.36571C41.56 3.51143 40.6399 3.38 38.7999 2.92C36.96 2.46 29.1399 2 24.9999 2C20.86 2 13.4999 2.26285 11.1999 2.92C8.89994 3.57715 8.43997 3.51143 8.43994 4.36571C8.43991 5.22 12.9867 5.81143 12.9867 5.81143L20.3999 7.65143H29.5999L37.0132 5.81143C37.0132 5.81143 41.5599 5.22 41.5599 4.36571Z" fill="black" fill-opacity="0.4"/>
<path d="M20.8599 45.24L17.6399 48L19.4799 25L23.1599 23.16L20.8599 45.24Z" fill="#546DDB"/>
<path d="M19.4799 25H8.8999L11.1999 48H17.6399L19.4799 25Z" fill="#546DDB"/>
<path d="M19.4799 25H8.8999L11.1999 48H17.6399L19.4799 25Z" fill="black" fill-opacity="0.2"/>
<path d="M8.43993 45.24L5.67993 24.08L8.89993 25L11.1999 48L8.43993 45.24Z" fill="#546DDB"/>
<path d="M8.43993 45.24L5.67993 24.08L8.89993 25L11.1999 48L8.43993 45.24Z" fill="black" fill-opacity="0.4"/>
<path d="M42.388 45.24L39.168 48L41.008 25L44.688 23.16L42.388 45.24Z" fill="#546DDB"/>
<path d="M42.388 45.24L39.168 48L41.008 25L44.688 23.16L42.388 45.24Z" fill="white" fill-opacity="0.2"/>
<path d="M41.008 25H30.428L32.728 48H39.168L41.008 25Z" fill="#546DDB"/>
<path d="M29.968 45.24L27.208 24.08L30.428 25L32.728 48L29.968 45.24Z" fill="#546DDB"/>
<path d="M29.968 45.24L27.208 24.08L30.428 25L32.728 48L29.968 45.24Z" fill="black" fill-opacity="0.2"/>
<path d="M41.1001 25.3286L36.9601 5.81146H29.6001L30.5201 25.69L37.4201 33.28L41.1001 25.3286Z" fill="#546DDB"/>
<path d="M41.1001 25.3286L36.9601 5.81146H29.6001L30.5201 25.69L37.4201 33.28L41.1001 25.3286Z" fill="white" fill-opacity="0.4"/>
<path d="M25 25.69V6.60001L29.6 5.81146L30.52 25.69H25Z" fill="#546DDB"/>
<path d="M25 25.69V6.60001L29.6 5.81146L30.52 25.69H25Z" fill="white" fill-opacity="0.2"/>
<path d="M41.56 4.36572L36.96 5.81144L41.1 25.3286L48 22.7986L41.56 4.36572Z" fill="#546DDB"/>
<path d="M41.56 4.36572L36.96 5.81144L41.1 25.3286L48 22.7986L41.56 4.36572Z" fill="white" fill-opacity="0.6"/>
<path d="M8.8999 25.3286L12.8927 5.81146H20.3999L19.5167 25.69L12.8927 33.28L8.8999 25.3286Z" fill="#546DDB"/>
<path d="M8.8999 25.3286L12.8927 5.81146H20.3999L19.5167 25.69L12.8927 33.28L8.8999 25.3286Z" fill="white" fill-opacity="0.2"/>
<path d="M25 25.69V6.6L20.4 5.83594L19.48 25.69H25Z" fill="#546DDB"/>
<path d="M25 25.69V6.6L20.4 5.83594L19.48 25.69H25Z" fill="white" fill-opacity="0.4"/>
<path d="M8.44004 4.36572L13.04 5.8368L8.90004 25.3286L2.00004 23.122L8.44004 4.36572Z" fill="#546DDB"/>
<path d="M13.7332 36.4762L14.3998 34L14.3998 38L13.7332 36.4762Z" fill="#2FC4A7"/>
<path d="M13.7332 36.4762L14.3998 34L14.3998 38L13.7332 36.4762Z" fill="white" fill-opacity="0.6"/>
<path d="M14.3999 38L14.3999 34L15.0666 36.4762L14.3999 38Z" fill="#2FC4A7"/>
<path d="M14.3999 38L14.3999 34L15.0666 36.4762L14.3999 38Z" fill="white" fill-opacity="0.2"/>
<path d="M15.0665 36.4762L17.2569 35.1429L14.3998 38L15.0665 36.4762Z" fill="#546DDB"/>
<path d="M15.0665 36.4762L17.2569 35.1429L14.3998 38L15.0665 36.4762Z" fill="white" fill-opacity="0.6"/>
<path d="M14.3999 38L17.2571 35.1429L15.9237 37.3333L14.3999 38Z" fill="#546DDB"/>
<path d="M14.3999 38L17.2571 35.1429L15.9237 37.3333L14.3999 38Z" fill="white" fill-opacity="0.2"/>
<path d="M15.9237 37.3333L18.3999 38L14.3999 38L15.9237 37.3333Z" fill="#2FC4A7"/>
<path d="M15.9237 37.3333L18.3999 38L14.3999 38L15.9237 37.3333Z" fill="white" fill-opacity="0.6"/>
<path d="M14.3999 38L18.3999 38L15.9237 38.6667L14.3999 38Z" fill="#2FC4A7"/>
<path d="M14.3999 38L18.3999 38L15.9237 38.6667L14.3999 38Z" fill="white" fill-opacity="0.2"/>
<path d="M15.9236 38.6667L17.257 40.8572L14.3998 38L15.9236 38.6667Z" fill="#546DDB"/>
<path d="M15.9236 38.6667L17.257 40.8572L14.3998 38L15.9236 38.6667Z" fill="white" fill-opacity="0.6"/>
<path d="M14.3999 38L17.2571 40.8571L15.0666 39.5238L14.3999 38Z" fill="#546DDB"/>
<path d="M14.3999 38L17.2571 40.8571L15.0666 39.5238L14.3999 38Z" fill="white" fill-opacity="0.2"/>
<path d="M15.0667 39.5238L14.4 42L14.4 38L15.0667 39.5238Z" fill="#2FC4A7"/>
<path d="M15.0667 39.5238L14.4 42L14.4 38L15.0667 39.5238Z" fill="white" fill-opacity="0.6"/>
<path d="M14.3999 38V42L13.7332 39.5238L14.3999 38Z" fill="#2FC4A7"/>
<path d="M14.3999 38V42L13.7332 39.5238L14.3999 38Z" fill="white" fill-opacity="0.2"/>
<path d="M13.7333 39.5238L11.5429 40.8571L14.4 38L13.7333 39.5238Z" fill="#546DDB"/>
<path d="M13.7333 39.5238L11.5429 40.8571L14.4 38L13.7333 39.5238Z" fill="white" fill-opacity="0.6"/>
<path d="M14.3999 38L11.5427 40.8571L12.8761 38.6667L14.3999 38Z" fill="#546DDB"/>
<path d="M14.3999 38L11.5427 40.8571L12.8761 38.6667L14.3999 38Z" fill="white" fill-opacity="0.2"/>
<path d="M12.8761 38.6667L10.3999 38L14.3999 38L12.8761 38.6667Z" fill="#2FC4A7"/>
<path d="M12.8761 38.6667L10.3999 38L14.3999 38L12.8761 38.6667Z" fill="white" fill-opacity="0.6"/>
<path d="M14.3999 38L10.3999 38L12.8761 37.3333L14.3999 38Z" fill="#2FC4A7"/>
<path d="M14.3999 38L10.3999 38L12.8761 37.3333L14.3999 38Z" fill="white" fill-opacity="0.2"/>
<path d="M12.8762 37.3333L11.5428 35.1428L14.4 38L12.8762 37.3333Z" fill="#546DDB"/>
<path d="M12.8762 37.3333L11.5428 35.1428L14.4 38L12.8762 37.3333Z" fill="white" fill-opacity="0.6"/>
<path d="M14.3999 38L11.5427 35.1429L13.7332 36.4762L14.3999 38Z" fill="#546DDB"/>
<path d="M14.3999 38L11.5427 35.1429L13.7332 36.4762L14.3999 38Z" fill="white" fill-opacity="0.2"/>
</svg>
