<svg width="50" height="50" viewBox="0 0 50 50" fill="none" xmlns="http://www.w3.org/2000/svg">
<path d="M6.85908 9.02679C5.25908 6.62679 6.60909 4.52679 8.35913 4.52679C10.3591 4.52679 10.2 6.79999 11 7.99999C11.8 9.19999 13.3334 13.1667 13.0001 14.5C12.1668 14 8.45908 11.4268 6.85908 9.02679Z" fill="#546DDB"/>
<path d="M6.85908 9.02679C5.25908 6.62679 6.60909 4.52679 8.35913 4.52679C10.3591 4.52679 10.2 6.79999 11 7.99999C11.8 9.19999 13.3334 13.1667 13.0001 14.5C12.1668 14 8.45908 11.4268 6.85908 9.02679Z" fill="black" fill-opacity="0.55"/>
<path d="M43.3796 8.06088C44.7707 5.89508 44.0215 4.5 42.5 4.5C40.7613 4.5 40.475 6.05137 39.7795 7.13428C39.084 8.21718 38.21 12.2968 38.4998 13.5C39.2243 13.0488 41.9886 10.2267 43.3796 8.06088Z" fill="#546DDB"/>
<path d="M43.3796 8.06088C44.7707 5.89508 44.0215 4.5 42.5 4.5C40.7613 4.5 40.475 6.05137 39.7795 7.13428C39.084 8.21718 38.21 12.2968 38.4998 13.5C39.2243 13.0488 41.9886 10.2267 43.3796 8.06088Z" fill="black" fill-opacity="0.55"/>
<path d="M11.5 41C8.38662 28.5739 7.30861 21.5728 7 9H43C42.4055 21.7495 41.3253 28.7353 38.5 41L25 37.5714L11.5 41Z" fill="#546DDB"/>
<path d="M11.5 41C8.38662 28.5739 7.30861 21.5728 7 9H43C42.4055 21.7495 41.3253 28.7353 38.5 41L25 37.5714L11.5 41Z" fill="black" fill-opacity="0.55"/>
<path d="M21 13.579L19 8L11 13.579L12.5 21.3895H18L21 13.579Z" fill="#546DDB"/>
<path d="M21 13.579L19 8L11 13.579L12.5 21.3895H18L21 13.579Z" fill="black" fill-opacity="0.2"/>
<path d="M18 21.3895H12.5L11 29.2L14 40.3579L19 45.9369L22 33.6632L18 21.3895Z" fill="#546DDB"/>
<path d="M18 21.3895H12.5L11 29.2L14 40.3579L19 45.9369L22 33.6632L18 21.3895Z" fill="white" fill-opacity="0.2"/>
<path d="M12.5 21.3895L11 13.5789V29.2L12.5 21.3895Z" fill="#546DDB"/>
<path d="M12.5 21.3895L11 13.5789V29.2L12.5 21.3895Z" fill="black" fill-opacity="0.55"/>
<path d="M25.085 48L28 33.6632L31 45.9369L25.085 48L19 45.9369L22 33.6632L25.085 48Z" fill="#546DDB"/>
<path d="M25.085 48L28 33.6632L31 45.9369L25.085 48L19 45.9369L22 33.6632L25.085 48Z" fill="black" fill-opacity="0.4"/>
<path d="M28 33.6632H22L25.085 47.8421L28 33.6632Z" fill="#546DDB"/>
<path d="M28 33.6632H22L25.085 47.8421L28 33.6632Z" fill="black" fill-opacity="0.2"/>
<path d="M31 8H19L21 13.579H29L31 8Z" fill="#546DDB"/>
<path d="M31 8H19L21 13.579H29L31 8Z" fill="white" fill-opacity="0.4"/>
<path d="M29 13.579L31 8L39 13.579L37.5 21.3895H32L29 13.579Z" fill="#546DDB"/>
<path d="M29 13.579L31 8L39 13.579L37.5 21.3895H32L29 13.579Z" fill="white" fill-opacity="0.6"/>
<path d="M37.5 21.3895L39 13.5789V29.2L37.5 21.3895Z" fill="#546DDB"/>
<path d="M37.5 21.3895H32L28 33.6632L31 45.9369L36 40.3579L39 29.2L37.5 21.3895Z" fill="#546DDB"/>
<path d="M37.5 21.3895H32L28 33.6632L31 45.9369L36 40.3579L39 29.2L37.5 21.3895Z" fill="black" fill-opacity="0.2"/>
<path d="M29 13.5789H21L18 21.3895L22 33.6632H28L32 21.3895L29 13.5789Z" fill="#546DDB"/>
<path d="M10 8C10.8 10 11 12.5 11 13.5L19 8C18.5 6.5 16.8 4.3 16 3.5C15.2 2.7 14 2 13.5 2L7 5C9 5 9.2 6 10 8Z" fill="#546DDB"/>
<path d="M40 8C39.2 10 39 12.5 39 13.5L31 8C31.5 6.5 33.2 4.3 34 3.5C34.8 2.7 36 2 36.5 2L43 4.5C41 4.5 40.8 6 40 8Z" fill="#546DDB"/>
<path d="M40 8C39.2 10 39 12.5 39 13.5L31 8C31.5 6.5 33.2 4.3 34 3.5C34.8 2.7 36 2 36.5 2L43 4.5C41 4.5 40.8 6 40 8Z" fill="white" fill-opacity="0.2"/>
<path d="M9.6548 20.3765C6.15378 21.3448 4.24408 21.5659 0.903867 21.5251C1.46846 25.0968 2.18618 26.9883 3.95 30.2281C4.8795 30.4505 7.02452 30.3327 8.16867 28.0828C9.31283 25.8328 9.63616 22.0078 9.6548 20.3765Z" fill="#546DDB"/>
<path d="M9.6548 20.3765C6.15378 21.3448 4.24408 21.5659 0.903867 21.5251C1.46846 25.0968 2.18618 26.9883 3.95 30.2281C4.8795 30.4505 7.02452 30.3327 8.16867 28.0828C9.31283 25.8328 9.63616 22.0078 9.6548 20.3765Z" fill="black" fill-opacity="0.2"/>
<path d="M40.3452 20.3765C43.8462 21.3448 45.7559 21.5659 49.0961 21.5251C48.5315 25.0968 47.8138 26.9883 46.05 30.2281C45.1205 30.4505 42.9755 30.3327 41.8313 28.0828C40.6872 25.8328 40.3638 22.0078 40.3452 20.3765Z" fill="#546DDB"/>
<path d="M9.45094 16.5753C5.81861 16.6045 3.91676 16.3238 0.700918 15.4199C0.321847 19.016 0.525555 21.0288 1.39076 24.6147C2.23102 25.0701 4.33342 25.5115 6.02092 23.6344C7.70843 21.7572 9.01073 18.1462 9.45094 16.5753Z" fill="#546DDB"/>
<path d="M40.5491 16.5753C44.1814 16.6045 46.0832 16.3238 49.2991 15.4199C49.6782 19.016 49.4744 21.0288 48.6092 24.6147C47.769 25.0701 45.6666 25.5115 43.9791 23.6344C42.2916 21.7572 40.9893 18.1462 40.5491 16.5753Z" fill="#546DDB"/>
<path d="M40.5491 16.5753C44.1814 16.6045 46.0832 16.3238 49.2991 15.4199C49.6782 19.016 49.4744 21.0288 48.6092 24.6147C47.769 25.0701 45.6666 25.5115 43.9791 23.6344C42.2916 21.7572 40.9893 18.1462 40.5491 16.5753Z" fill="white" fill-opacity="0.2"/>
<path d="M11 13.3757C9 10 7 8 4 8C1.87364 10.9248 1.04366 12.7698 0 16.3079C0.5 17.1224 2.1 18.5559 4.5 17.774C6.9 16.9921 9.83333 14.516 11 13.3757Z" fill="#546DDB"/>
<path d="M11 13.3757C9 10 7 8 4 8C1.87364 10.9248 1.04366 12.7698 0 16.3079C0.5 17.1224 2.1 18.5559 4.5 17.774C6.9 16.9921 9.83333 14.516 11 13.3757Z" fill="white" fill-opacity="0.2"/>
<path d="M39 13.3757C41.5 9 43.5 8 46 8C48.1264 10.9248 48.9563 12.7698 50 16.3079C49.5 17.1224 47.9 18.5559 45.5 17.774C43.1 16.9921 40.1667 14.516 39 13.3757Z" fill="#546DDB"/>
<path d="M39 13.3757C41.5 9 43.5 8 46 8C48.1264 10.9248 48.9563 12.7698 50 16.3079C49.5 17.1224 47.9 18.5559 45.5 17.774C43.1 16.9921 40.1667 14.516 39 13.3757Z" fill="white" fill-opacity="0.4"/>
<path d="M24 18.7143L25 15V21L24 18.7143Z" fill="#2FC4A7"/>
<path d="M24 18.7143L25 15V21L24 18.7143Z" fill="white" fill-opacity="0.6"/>
<path d="M25 21V15L26 18.7143L25 21Z" fill="#2FC4A7"/>
<path d="M25 21V15L26 18.7143L25 21Z" fill="white" fill-opacity="0.2"/>
<path d="M26 18.7143L29.2857 16.7143L25 21L26 18.7143Z" fill="#546DDB"/>
<path d="M26 18.7143L29.2857 16.7143L25 21L26 18.7143Z" fill="white" fill-opacity="0.6"/>
<path d="M24.9999 21L29.2856 16.7143L27.2856 20L24.9999 21Z" fill="#546DDB"/>
<path d="M24.9999 21L29.2856 16.7143L27.2856 20L24.9999 21Z" fill="white" fill-opacity="0.2"/>
<path d="M27.2857 20L31 21L25 21L27.2857 20Z" fill="#2FC4A7"/>
<path d="M27.2857 20L31 21L25 21L27.2857 20Z" fill="white" fill-opacity="0.6"/>
<path d="M25 21L31 21L27.2857 22L25 21Z" fill="#2FC4A7"/>
<path d="M25 21L31 21L27.2857 22L25 21Z" fill="white" fill-opacity="0.2"/>
<path d="M27.2856 22L29.2856 25.2857L24.9999 21L27.2856 22Z" fill="#546DDB"/>
<path d="M27.2856 22L29.2856 25.2857L24.9999 21L27.2856 22Z" fill="white" fill-opacity="0.6"/>
<path d="M24.9999 21L29.2856 25.2857L25.9999 23.2857L24.9999 21Z" fill="#546DDB"/>
<path d="M24.9999 21L29.2856 25.2857L25.9999 23.2857L24.9999 21Z" fill="white" fill-opacity="0.2"/>
<path d="M26 23.2857L25 27L25 21L26 23.2857Z" fill="#2FC4A7"/>
<path d="M26 23.2857L25 27L25 21L26 23.2857Z" fill="white" fill-opacity="0.6"/>
<path d="M25 21L25 27L24 23.2857L25 21Z" fill="#2FC4A7"/>
<path d="M25 21L25 27L24 23.2857L25 21Z" fill="white" fill-opacity="0.2"/>
<path d="M24 23.2857L20.7143 25.2857L25.0001 21L24 23.2857Z" fill="#546DDB"/>
<path d="M24 23.2857L20.7143 25.2857L25.0001 21L24 23.2857Z" fill="white" fill-opacity="0.6"/>
<path d="M25.0001 21L20.7144 25.2857L22.7144 22L25.0001 21Z" fill="#546DDB"/>
<path d="M25.0001 21L20.7144 25.2857L22.7144 22L25.0001 21Z" fill="white" fill-opacity="0.2"/>
<path d="M22.7143 22L19 21L25 21L22.7143 22Z" fill="#2FC4A7"/>
<path d="M22.7143 22L19 21L25 21L22.7143 22Z" fill="white" fill-opacity="0.6"/>
<path d="M25 21L19 21L22.7143 20L25 21Z" fill="#2FC4A7"/>
<path d="M25 21L19 21L22.7143 20L25 21Z" fill="white" fill-opacity="0.2"/>
<path d="M22.7144 20L20.7144 16.7143L25.0001 21L22.7144 20Z" fill="#546DDB"/>
<path d="M22.7144 20L20.7144 16.7143L25.0001 21L22.7144 20Z" fill="white" fill-opacity="0.6"/>
<path d="M25.0001 21L20.7144 16.7143L24.0001 18.7143L25.0001 21Z" fill="#546DDB"/>
<path d="M25.0001 21L20.7144 16.7143L24.0001 18.7143L25.0001 21Z" fill="white" fill-opacity="0.2"/>
</svg>
