<svg width="40" height="40" viewBox="0 0 40 40" fill="none" xmlns="http://www.w3.org/2000/svg">
<path d="M23.3171 19L20 15.4065L29.5366 4.07317L37 2L34.5122 9.46341L23.3171 19Z" fill="#1D8CE0"/>
<path d="M23.3171 19L20 15.4065L29.5366 4.07317L37 2L34.5122 9.46341L23.3171 19Z" fill="white" fill-opacity="0.4"/>
<path d="M2 2L9.75455 4.33928L26.7601 24.5672L26.8126 24.6181C29.4291 23.2196 32.4818 24.1439 33.8345 24.98L30.7266 28.4228L37.2356 34.7499C37.9158 35.438 38.4146 36.2636 37.5077 37.3644C36.6007 38.4653 35.467 37.9148 34.7868 37.3644L28.4057 30.994L25.2637 34.4747C24.2347 33.0337 22.8465 29.769 24.3906 26.9856L24.3113 26.9065L4.44881 9.70587L2 2Z" fill="#898989"/>
<path d="M2 2L9.75455 4.33928L26.7601 24.5672L26.8126 24.6181C29.4291 23.2196 32.4818 24.1439 33.8345 24.98L30.7266 28.4228L37.2356 34.7499C37.9158 35.438 38.4146 36.2636 37.5077 37.3644C36.6007 38.4653 35.467 37.9148 34.7868 37.3644L28.4057 30.994L25.2637 34.4747C24.2347 33.0337 22.8465 29.769 24.3906 26.9856L24.3113 26.9065L4.44881 9.70587L2 2Z" fill="white" fill-opacity="0.8"/>
<path d="M14.0156 25.6961C10.9246 22.6243 6.71727 24.4162 5 25.6961L14.8743 35C15.9237 33.2278 17.1067 28.7679 14.0156 25.6961Z" fill="#1D8CE0"/>
<path d="M14.0156 25.6961C10.9246 22.6243 6.71727 24.4162 5 25.6961L14.8743 35C15.9237 33.2278 17.1067 28.7679 14.0156 25.6961Z" fill="white" fill-opacity="0.4"/>
<path d="M19 23.8761L15.7141 21L2.66646 34.6023C1.98644 35.2504 1.63172 36.3391 2.57056 37.2978C3.7246 38.4762 4.88786 37.9354 5.38654 37.3799L19 23.8761Z" fill="#1D8CE0"/>
<path d="M19 23.8761L15.7141 21L2.66646 34.6023C1.98644 35.2504 1.63172 36.3391 2.57056 37.2978C3.7246 38.4762 4.88786 37.9354 5.38654 37.3799L19 23.8761Z" fill="white" fill-opacity="0.4"/>
</svg>
