<svg width="50" height="50" viewBox="0 0 50 50" fill="none" xmlns="http://www.w3.org/2000/svg">
<g clip-path="url(#clip0_1880_9309)">
<g clip-path="url(#clip1_1880_9309)">
<path d="M22.8299 44.171C17.4017 44.171 13.8965 42.1857 13.4002 41.1931C12.9039 40.2005 12.9039 36.6573 12.9039 36.6573H32.756C32.756 38.7749 32.8791 40.1965 32.2597 41.1931C31.2727 42.7813 27.7647 44.171 22.8299 44.171Z" fill="#898989"/>
<path d="M22.8299 44.171C17.4017 44.171 13.8965 42.1857 13.4002 41.1931C12.9039 40.2005 12.9039 36.6573 12.9039 36.6573H32.756C32.756 38.7749 32.8791 40.1965 32.2597 41.1931C31.2727 42.7813 27.7647 44.171 22.8299 44.171Z" fill="white" fill-opacity="0.6"/>
<path d="M40.0851 22.0494C39.2788 22.0135 38.1081 21.0907 38.5886 19.3708C39.069 17.6508 41.1427 16.4371 43.5614 16.5447C45.9802 16.6523 47.1316 18.0095 48.3024 18.9323C48.2637 19.8012 48.5122 23.295 46.3612 26.2466C44.2102 29.1983 41.8272 30.365 39.276 31.1554C37.6377 31.663 37.183 32.8037 37.1444 33.6726C37.1057 34.5416 37.8733 35.4464 38.6796 35.4823" stroke="#FEFEFE" stroke-width="2.48152" stroke-linecap="round"/>
<path d="M41.6894 11.0089H3.9704C5.58847 14.7844 6.66718 15.3238 7.7459 19.6386C8.28526 21.7961 7.7459 28.6574 8.82461 32.4329C10.1907 37.2142 12.9945 39.7154 15.8363 41.0626C18.6661 42.4042 26.5039 42.4042 29.8595 41.0626C32.7798 39.8951 35.5473 37.2871 36.8712 32.4329C38.3997 26.8285 37.3065 22.8557 37.9499 19.6386C38.4893 16.9418 39.532 15.3238 41.6894 11.0089Z" fill="#898989"/>
<path d="M41.6894 11.0089H3.9704C5.58847 14.7844 6.66718 15.3238 7.7459 19.6386C8.28526 21.7961 7.7459 28.6574 8.82461 32.4329C10.1907 37.2142 12.9945 39.7154 15.8363 41.0626C18.6661 42.4042 26.5039 42.4042 29.8595 41.0626C32.7798 39.8951 35.5473 37.2871 36.8712 32.4329C38.3997 26.8285 37.3065 22.8557 37.9499 19.6386C38.4893 16.9418 39.532 15.3238 41.6894 11.0089Z" fill="white" fill-opacity="0.95"/>
<path d="M41.6894 10.8052C41.6894 13.4836 33.4725 15.7434 23.0566 15.7434C12.6408 15.7434 3.9704 13.4836 3.9704 10.8052C3.9704 8.12686 12.6408 5.95563 23.0566 5.95563C33.4725 5.95563 41.6894 8.12686 41.6894 10.8052Z" fill="#898989"/>
<path d="M41.6894 10.8052C41.6894 13.4836 33.4725 15.7434 23.0566 15.7434C12.6408 15.7434 3.9704 13.4836 3.9704 10.8052C3.9704 8.12686 12.6408 5.95563 23.0566 5.95563C33.4725 5.95563 41.6894 8.12686 41.6894 10.8052Z" fill="white" fill-opacity="0.6"/>
<path d="M41.6894 10.8052C41.6894 13.4836 33.4725 15.7434 23.0566 15.7434C12.6408 15.7434 3.9704 13.4836 3.9704 10.8052C3.9704 8.12686 12.6408 5.95563 23.0566 5.95563C33.4725 5.95563 41.6894 8.12686 41.6894 10.8052Z" stroke="#FEFEFE" stroke-width="1.48891"/>
<path d="M36.863 13.3807C36.863 13.032 29.2426 11.8863 22.9148 11.8863C16.5871 11.8863 8.96667 13.032 8.96667 13.3807C8.96667 13.7293 14.9445 15.1741 22.9148 15.1741C31.8815 15.1741 36.863 13.7293 36.863 13.3807Z" fill="#FAA21E"/>
<path d="M36.863 13.3807C36.863 13.032 29.2426 11.8863 22.9148 11.8863C16.5871 11.8863 8.96667 13.032 8.96667 13.3807C8.96667 13.7293 14.9445 15.1741 22.9148 15.1741C31.8815 15.1741 36.863 13.7293 36.863 13.3807Z" fill="white" fill-opacity="0.4"/>
</g>
<path d="M17.5955 36.5133L17.3531 30.9625C14.8507 29.1437 12.7665 28.2929 13.9955 24.9389C14.9196 22.4169 17.6503 21.4331 19.6917 23.315C19.2955 21.4432 21.0298 18.5944 24.1428 18.7609C27.2559 18.9274 29.0303 22.2268 28.0161 24.4323C29.372 24.3879 32.4435 24.462 32.3796 27.5C32.3232 30.1853 30.1436 31.4226 27.5763 31.5385L26.7558 36.7664L17.5955 36.5133Z" fill="#FEFEFE"/>
<path d="M17.5955 36.5133L17.3531 30.9625C14.8507 29.1437 12.7665 28.2929 13.9955 24.9389C14.9196 22.4169 17.6503 21.4331 19.6917 23.315C19.2955 21.4432 21.0298 18.5944 24.1428 18.7609C27.2559 18.9274 29.0303 22.2268 28.0161 24.4323C29.372 24.3879 32.4435 24.462 32.3796 27.5C32.3232 30.1853 30.1436 31.4226 27.5763 31.5385L26.7558 36.7664L17.5955 36.5133Z" stroke="#898989" stroke-width="0.498148"/>
<path d="M17.5955 36.5133L17.3531 30.9625C14.8507 29.1437 12.7665 28.2929 13.9955 24.9389C14.9196 22.4169 17.6503 21.4331 19.6917 23.315C19.2955 21.4432 21.0298 18.5944 24.1428 18.7609C27.2559 18.9274 29.0303 22.2268 28.0161 24.4323C29.372 24.3879 32.4435 24.462 32.3796 27.5C32.3232 30.1853 30.1436 31.4226 27.5763 31.5385L26.7558 36.7664L17.5955 36.5133Z" stroke="white" stroke-opacity="0.2" stroke-width="0.498148"/>
<path d="M19.9218 31.2303C19.9226 30.9552 19.7002 30.7315 19.4251 30.7307C19.15 30.7299 18.9263 30.9522 18.9255 31.2274L19.9218 31.2303ZM18.9255 31.2274L18.9099 36.5154L19.9062 36.5184L19.9218 31.2303L18.9255 31.2274Z" fill="#898989"/>
<path d="M19.9218 31.2303C19.9226 30.9552 19.7002 30.7315 19.4251 30.7307C19.15 30.7299 18.9263 30.9522 18.9255 31.2274L19.9218 31.2303ZM18.9255 31.2274L18.9099 36.5154L19.9062 36.5184L19.9218 31.2303L18.9255 31.2274Z" fill="white" fill-opacity="0.2"/>
<path d="M22.8892 31.3952C22.9021 31.1204 22.6897 30.8871 22.4149 30.8743C22.1401 30.8614 21.9069 31.0738 21.894 31.3486L22.8892 31.3952ZM21.894 31.3486L21.6508 36.5449L22.646 36.5914L22.8892 31.3952L21.894 31.3486Z" fill="#898989"/>
<path d="M22.8892 31.3952C22.9021 31.1204 22.6897 30.8871 22.4149 30.8743C22.1401 30.8614 21.9069 31.0738 21.894 31.3486L22.8892 31.3952ZM21.894 31.3486L21.6508 36.5449L22.646 36.5914L22.8892 31.3952L21.894 31.3486Z" fill="white" fill-opacity="0.2"/>
<path d="M25.7771 31.6525C25.8024 31.3785 25.6008 31.136 25.3268 31.1107C25.0529 31.0854 24.8103 31.287 24.785 31.561L25.7771 31.6525ZM24.785 31.561L24.3142 36.6655L25.3063 36.757L25.7771 31.6525L24.785 31.561Z" fill="#898989"/>
<path d="M25.7771 31.6525C25.8024 31.3785 25.6008 31.136 25.3268 31.1107C25.0529 31.0854 24.8103 31.287 24.785 31.561L25.7771 31.6525ZM24.785 31.561L24.3142 36.6655L25.3063 36.757L25.7771 31.6525L24.785 31.561Z" fill="white" fill-opacity="0.2"/>
</g>
<defs>
<clipPath id="clip0_1880_9309">
<rect width="50" height="50" fill="white"/>
</clipPath>
<clipPath id="clip1_1880_9309">
<rect width="49.8148" height="49.8148" fill="white"/>
</clipPath>
</defs>
</svg>
