<svg width="50" height="50" viewBox="0 0 50 50" fill="none" xmlns="http://www.w3.org/2000/svg">
<circle cx="25.0667" cy="25.0665" r="22.4167" stroke="#1D8CE0" stroke-width="0.996296"/>
<circle cx="25.0667" cy="25.0665" r="22.4167" stroke="white" stroke-opacity="0.95" stroke-width="0.996296"/>
<path d="M37.5 37.5001C43 33.0454 45 21.5 38.5745 13.0016C39.2991 19.1626 37.6992 26.8689 32.5141 32.0453C27.329 37.2217 15.4044 38.4225 11 37.5001C22.5964 45.5482 31.1157 42.671 37.5 37.5001Z" fill="#FEFEFE" fill-opacity="0.15"/>
<path d="M17.8931 37.7698L17.5296 29.4436C13.776 26.7153 10.6497 25.4391 12.4931 20.4081C13.8792 16.6252 17.9754 15.1495 21.0374 17.9723C20.4431 15.1646 23.0446 10.8913 27.7142 11.1412C32.3838 11.391 35.0454 16.34 33.524 19.6482C35.5579 19.5817 40.1651 19.6928 40.0693 24.2499C39.9847 28.2777 36.7153 30.1337 32.8643 30.3076L31.6337 38.1493L17.8931 37.7698Z" fill="#FEFEFE"/>
<path d="M21.3826 29.8451C21.3838 29.4324 21.0503 29.0969 20.6376 29.0957C20.2249 29.0945 19.8894 29.428 19.8882 29.8407L21.3826 29.8451ZM19.8882 29.8407L19.8648 37.7728L21.3592 37.7772L21.3826 29.8451L19.8882 29.8407Z" fill="#898989"/>
<path d="M21.3826 29.8451C21.3838 29.4324 21.0503 29.0969 20.6376 29.0957C20.2249 29.0945 19.8894 29.428 19.8882 29.8407L21.3826 29.8451ZM19.8882 29.8407L19.8648 37.7728L21.3592 37.7772L21.3826 29.8451L19.8882 29.8407Z" fill="white" fill-opacity="0.2"/>
<path d="M25.8337 30.0924C25.853 29.6802 25.5345 29.3304 25.1223 29.3111C24.71 29.2918 24.3602 29.6103 24.3409 30.0226L25.8337 30.0924ZM24.3409 30.0226L23.9762 37.817L25.469 37.8868L25.8337 30.0924L24.3409 30.0226Z" fill="#898989"/>
<path d="M25.8337 30.0924C25.853 29.6802 25.5345 29.3304 25.1223 29.3111C24.71 29.2918 24.3602 29.6103 24.3409 30.0226L25.8337 30.0924ZM24.3409 30.0226L23.9762 37.817L25.469 37.8868L25.8337 30.0924L24.3409 30.0226Z" fill="white" fill-opacity="0.2"/>
<path d="M30.1656 30.4784C30.2035 30.0675 29.9011 29.7037 29.4902 29.6658C29.0793 29.6279 28.7154 29.9303 28.6775 30.3412L30.1656 30.4784ZM28.6775 30.3412L27.9713 37.9979L29.4594 38.1352L30.1656 30.4784L28.6775 30.3412Z" fill="#898989"/>
<path d="M30.1656 30.4784C30.2035 30.0675 29.9011 29.7037 29.4902 29.6658C29.0793 29.6279 28.7154 29.9303 28.6775 30.3412L30.1656 30.4784ZM28.6775 30.3412L27.9713 37.9979L29.4594 38.1352L30.1656 30.4784L28.6775 30.3412Z" fill="white" fill-opacity="0.2"/>
<path d="M14.6055 9.12572C11.765 11.6271 10.6204 15.1035 10.6204 18.0924C11.1061 16.033 14.2019 11.8587 17.0963 10.122C19.5596 8.64405 21.5796 7.13312 25.0667 6.63497C21.5796 6.13682 17.4461 6.62428 14.6055 9.12572Z" fill="#FEFEFE"/>
<path d="M34.5 40C37.5 38.5 40.5 35.5 42 30C40 34 37.0518 37.1895 34 39C30.9482 40.8105 27 42.5 21 42C27.5 43.5 30.6529 41.9235 34.5 40Z" fill="#FEFEFE"/>
</svg>
