<svg width="40" height="40" viewBox="0 0 40 40" fill="none" xmlns="http://www.w3.org/2000/svg">
<path d="M9.1908 37.0263L8.70609 25.9247C3.7013 22.287 -0.467176 20.5854 1.99074 13.8774C3.83893 8.83349 9.30048 6.8659 13.3831 10.6296C12.5908 6.88601 16.0594 1.18838 22.2855 1.52145C28.5116 1.85452 32.0604 8.45328 30.0319 12.8642C32.7439 12.7755 38.8867 12.9237 38.759 18.9997C38.6462 24.3702 34.287 26.8448 29.1524 27.0767L27.5115 37.5324L9.1908 37.0263Z" fill="#FEFEFE"/>
<path d="M13.8471 26.4602C13.8487 25.9079 13.4023 25.4589 12.8501 25.4573C12.2978 25.4557 11.8487 25.902 11.8471 26.4543L13.8471 26.4602ZM11.8471 26.4543L11.816 37.0305L13.816 37.0364L13.8471 26.4602L11.8471 26.4543Z" fill="#898989"/>
<path d="M13.8471 26.4602C13.8487 25.9079 13.4023 25.4589 12.8501 25.4573C12.2978 25.4557 11.8487 25.902 11.8471 26.4543L13.8471 26.4602ZM11.8471 26.4543L11.816 37.0305L13.816 37.0364L13.8471 26.4602L11.8471 26.4543Z" fill="white" fill-opacity="0.2"/>
<path d="M19.782 26.7902C19.8078 26.2385 19.3815 25.7703 18.8298 25.7445C18.2781 25.7187 17.81 26.145 17.7842 26.6967L19.782 26.7902ZM17.7842 26.6967L17.2978 37.0892L19.2956 37.1827L19.782 26.7902L17.7842 26.6967Z" fill="#898989"/>
<path d="M19.782 26.7902C19.8078 26.2385 19.3815 25.7703 18.8298 25.7445C18.2781 25.7187 17.81 26.145 17.7842 26.6967L19.782 26.7902ZM17.7842 26.6967L17.2978 37.0892L19.2956 37.1827L19.782 26.7902L17.7842 26.6967Z" fill="white" fill-opacity="0.2"/>
<path d="M25.5578 27.305C25.6086 26.755 25.2039 26.2681 24.6539 26.2174C24.104 26.1666 23.617 26.5713 23.5663 27.1213L25.5578 27.305ZM23.5663 27.1213L22.6247 37.3302L24.6162 37.5139L25.5578 27.305L23.5663 27.1213Z" fill="#898989"/>
<path d="M25.5578 27.305C25.6086 26.755 25.2039 26.2681 24.6539 26.2174C24.104 26.1666 23.617 26.5713 23.5663 27.1213L25.5578 27.305ZM23.5663 27.1213L22.6247 37.3302L24.6162 37.5139L25.5578 27.305L23.5663 27.1213Z" fill="white" fill-opacity="0.2"/>
</svg>
