<?xml version="1.0" encoding="utf-8"?><svg fill="none" viewBox="0 0 50 50" width="50" height="50" xmlns="http://www.w3.org/2000/svg"><path d="m20.313 43.75-1.563-3.125h12.5l-1.563 3.125-1.562-3.125-1.563 3.125L25 40.625l-1.563 3.125-1.562-3.125-1.563 3.125Z" fill="#C57A09"/><path d="M32.292 40.625H17.708v-8.333L25 29.167l7.292 3.125v8.333Z" fill="#FAA21E"/><path d="M32.292 40.625H17.708v-8.333L25 29.167l7.292 3.125v8.333Z" fill="#000" fill-opacity=".1"/><path fill-rule="evenodd" clip-rule="evenodd" d="M7.292 17.708 6.25 25.963l10.417 7.37L25 29.688v-8.855L7.292 17.708Zm4.166 6.25 9.375 2.679c-.281 1.488-2.477 3.571-4.504 3.571-2.027 0-3.745-2.38-4.87-6.25Z" fill="#FAA21E"/><path fill-rule="evenodd" clip-rule="evenodd" d="M7.292 17.708 6.25 25.963l10.417 7.37L25 29.688v-8.855L7.292 17.708Zm4.166 6.25 9.375 2.679c-.281 1.488-2.477 3.571-4.504 3.571-2.027 0-3.745-2.38-4.87-6.25Z" fill="#000" fill-opacity=".1"/><path d="m6.25 25.963 1.042-8.255 5.208 4.688-6.25 3.567Z" fill="#FAA21E"/><path d="m6.25 25.963 1.042-8.255 5.208 4.688-6.25 3.567Z" fill="#fff" fill-opacity=".2"/><path fill-rule="evenodd" clip-rule="evenodd" d="m42.708 17.708 1.042 8.255-10.417 7.37L25 29.688v-8.855l17.708-3.125Zm-4.166 6.25-9.375 2.679c.281 1.488 2.477 3.571 4.504 3.571 2.027 0 3.745-2.38 4.87-6.25Z" fill="#C57A09"/><path d="m43.75 25.963-1.042-8.255-5.208 4.688 6.25 3.567Z" fill="#FAA21E"/><path d="m43.75 25.963-1.042-8.255-5.208 4.688 6.25 3.567Z" fill="#000" fill-opacity=".4"/><path d="m11.458 22.917-4.166-5.209C7.292 11.608 11.982 0 25 0c13.018 0 17.708 11.458 17.708 17.708l-4.166 5.209-11.459-1.563-2.083-.52-13.542 2.083Z" fill="#898989"/><path d="m11.458 22.917-4.166-5.209C7.292 11.608 11.982 0 25 0c13.018 0 17.708 11.458 17.708 17.708l-4.166 5.209-11.459-1.563-2.083-.52-13.542 2.083Z" fill="#fff" fill-opacity=".2"/><path d="m41.964 16.555.744 1.153-12.5 3.646L25 20.796V5.246c3.646 3.608 12.723 5.654 16.964 11.31Z" fill="#898989"/><path d="m41.964 16.555.744 1.153-12.5 3.646L25 20.796V5.246c3.646 3.608 12.723 5.654 16.964 11.31Z" fill="#fff" fill-opacity=".4"/><path d="m7.292 17.708.744-1.153C12.276 10.9 21.354 8.855 25 5.245v15.588L7.292 17.708Z" fill="#898989"/><path d="m7.292 17.708.744-1.153C12.276 10.9 21.354 8.855 25 5.245v15.588L7.292 17.708Z" fill="#fff" fill-opacity=".6"/><path d="m42.708 17.708-4.166 5.209-11.459-1.563-2.083-.52c4.64-2.917 9.419-3.38 17.708-3.126Z" fill="#FAA21E"/><path d="m42.708 17.708-4.166 5.209-11.459-1.563-2.083-.52c4.64-2.917 9.419-3.38 17.708-3.126Z" fill="#fff" fill-opacity=".4"/><path d="m11.458 22.917-4.166-5.209c8.427-.046 13.153.311 17.708 3.125l-13.542 2.084Z" fill="#FAA21E"/><path d="m11.458 22.917-4.166-5.209c8.427-.046 13.153.311 17.708 3.125l-13.542 2.084Z" fill="#fff" fill-opacity=".6"/><path d="M20.313 33.333 22.395 25h5.208l2.084 8.333L25 36.458l-4.688-3.125Z" fill="#FAA21E"/><path d="M20.313 33.333 22.395 25h5.208l2.084 8.333L25 36.458l-4.688-3.125Z" fill="#000" fill-opacity=".4"/><path d="m20.833 31.25 2.084-9.896 2.083-.52 2.083.52 2.084 9.896L25 34.375l-4.167-3.125Z" fill="#FAA21E"/><path d="m20.833 31.25 2.084-9.896 2.083-.52v13.541l-4.167-3.125Z" fill="#FAA21E"/><path d="m20.833 31.25 2.084-9.896 2.083-.52v13.541l-4.167-3.125Z" fill="#fff" fill-opacity=".4"/><path d="m9.822 35.315-2.01-8.232 8.855 6.25V50l-3.274-13.16-3.571-1.525Z" fill="#898989"/><path d="m9.822 35.315-2.01-8.232 8.855 6.25V50l-3.274-13.16-3.571-1.525Z" fill="#fff" fill-opacity=".6"/><path d="m20.833 31.25-4.166 2.083V50l4.166-18.75Z" fill="#898989"/><path d="m20.833 31.25-4.166 2.083V50l4.166-18.75Z" fill="#fff" fill-opacity=".2"/><path d="m40.178 35.315 2.01-8.232-8.855 6.25V50l3.274-13.16 3.571-1.525Z" fill="#898989"/><path d="m40.178 35.315 2.01-8.232-8.855 6.25V50l3.274-13.16 3.571-1.525Z" fill="#000" fill-opacity=".2"/><path d="m29.167 31.25 4.166 2.083V50l-4.166-18.75Z" fill="#898989"/><g clip-path="url(#ahsa)"><path d="m31.141 5.739-11.858 6.847" stroke="#898989" stroke-width="1.437"/><path d="m31.141 5.739-11.858 6.847" stroke="#fff" stroke-opacity=".95" stroke-width="1.437"/><circle cx=".769" cy=".769" r=".59" transform="scale(-1 1) rotate(-15 5.924 125.698)" fill="#898989"/><circle cx=".769" cy=".769" r=".59" transform="scale(-1 1) rotate(-15 5.924 125.698)" fill="#fff" fill-opacity=".95"/><circle cx=".769" cy=".769" r=".59" transform="scale(-1 1) rotate(-15 5.924 125.698)" stroke="#898989" stroke-width=".359"/><circle cx=".769" cy=".769" r=".59" transform="scale(-1 1) rotate(-15 5.924 125.698)" stroke="#fff" stroke-opacity=".95" stroke-width=".359"/><circle cx=".769" cy=".769" r=".59" transform="scale(-1 1) rotate(-15 1.249 122.109)" fill="#898989"/><circle cx=".769" cy=".769" r=".59" transform="scale(-1 1) rotate(-15 1.249 122.109)" fill="#fff" fill-opacity=".95"/><circle cx=".769" cy=".769" r=".59" transform="scale(-1 1) rotate(-15 1.249 122.109)" stroke="#898989" stroke-width=".359"/><circle cx=".769" cy=".769" r=".59" transform="scale(-1 1) rotate(-15 1.249 122.109)" stroke="#fff" stroke-opacity=".95" stroke-width=".359"/><circle cx=".769" cy=".769" r=".59" transform="scale(1 -1) rotate(75 19.257 6.006)" fill="#898989"/><circle cx=".769" cy=".769" r=".59" transform="scale(1 -1) rotate(75 19.257 6.006)" fill="#fff" fill-opacity=".95"/><circle cx=".769" cy=".769" r=".59" transform="scale(1 -1) rotate(75 19.257 6.006)" stroke="#898989" stroke-width=".359"/><circle cx=".769" cy=".769" r=".59" transform="scale(1 -1) rotate(75 19.257 6.006)" stroke="#fff" stroke-opacity=".95" stroke-width=".359"/><circle cx=".769" cy=".769" r=".59" transform="scale(1 -1) rotate(75 18.004 6.171)" fill="#898989"/><circle cx=".769" cy=".769" r=".59" transform="scale(1 -1) rotate(75 18.004 6.171)" fill="#fff" fill-opacity=".95"/><circle cx=".769" cy=".769" r=".59" transform="scale(1 -1) rotate(75 18.004 6.171)" stroke="#898989" stroke-width=".359"/><circle cx=".769" cy=".769" r=".59" transform="scale(1 -1) rotate(75 18.004 6.171)" stroke="#fff" stroke-opacity=".95" stroke-width=".359"/><path d="m19.005 5.7 11.86 6.846" stroke="#898989" stroke-width="1.437"/><path d="m19.005 5.7 11.86 6.846" stroke="#fff" stroke-opacity=".95" stroke-width="1.437"/><path d="M19.533 5.597a.59.59 0 1 0-.305-1.139.59.59 0 0 0 .305 1.14Z" fill="#898989"/><path d="M19.533 5.597a.59.59 0 1 0-.305-1.139.59.59 0 0 0 .305 1.14Z" fill="#fff" fill-opacity=".95"/><path d="M19.533 5.597a.59.59 0 1 0-.305-1.139.59.59 0 0 0 .305 1.14Z" stroke="#898989" stroke-width=".359"/><path d="M19.533 5.597a.59.59 0 1 0-.305-1.139.59.59 0 0 0 .305 1.14Z" stroke="#fff" stroke-opacity=".95" stroke-width=".359"/><path d="M18.764 6.93a.59.59 0 1 0-.305-1.14.59.59 0 0 0 .305 1.14Z" fill="#898989"/><path d="M18.764 6.93a.59.59 0 1 0-.305-1.14.59.59 0 0 0 .305 1.14Z" fill="#fff" fill-opacity=".95"/><path d="M18.764 6.93a.59.59 0 1 0-.305-1.14.59.59 0 0 0 .305 1.14Z" stroke="#898989" stroke-width=".359"/><path d="M18.764 6.93a.59.59 0 1 0-.305-1.14.59.59 0 0 0 .305 1.14Z" stroke="#fff" stroke-opacity=".95" stroke-width=".359"/><circle cx=".769" cy=".769" r=".59" transform="scale(-1 1) rotate(15 -57.412 -115.242)" fill="#898989"/><circle cx=".769" cy=".769" r=".59" transform="scale(-1 1) rotate(15 -57.412 -115.242)" fill="#fff" fill-opacity=".95"/><circle cx=".769" cy=".769" r=".59" transform="scale(-1 1) rotate(15 -57.412 -115.242)" stroke="#898989" stroke-width=".359"/><circle cx=".769" cy=".769" r=".59" transform="scale(-1 1) rotate(15 -57.412 -115.242)" stroke="#fff" stroke-opacity=".95" stroke-width=".359"/><circle cx=".769" cy=".769" r=".59" transform="scale(-1 1) rotate(15 -62.087 -111.655)" fill="#898989"/><circle cx=".769" cy=".769" r=".59" transform="scale(-1 1) rotate(15 -62.087 -111.655)" fill="#fff" fill-opacity=".95"/><circle cx=".769" cy=".769" r=".59" transform="scale(-1 1) rotate(15 -62.087 -111.655)" stroke="#898989" stroke-width=".359"/><circle cx=".769" cy=".769" r=".59" transform="scale(-1 1) rotate(15 -62.087 -111.655)" stroke="#fff" stroke-opacity=".95" stroke-width=".359"/><path d="M25.583 9.667h3.525l-3.525 4.562V9.667Z" fill="#1D8CE0" stroke="#898989" stroke-width="1.167"/><path d="m24.417 14.229-3.525-4.562h3.525v4.562Z" fill="#1D8CE0"/><path d="m24.417 14.229-3.525-4.562h3.525v4.562Z" stroke="#898989" stroke-width="1.167"/><path d="m24.417 14.229-3.525-4.562h3.525v4.562Z" stroke="#fff" stroke-opacity=".2" stroke-width="1.167"/><path d="M20.779 9.083 25 3.621l4.221 5.462-4.22 5.463-4.222-5.463Z" fill="#1D8CE0"/><path d="M20.779 9.083 25 3.621l4.221 5.462-4.22 5.463-4.222-5.463Z" stroke="#898989" stroke-width="1.167"/><path d="M20.779 9.083 25 3.621l4.221 5.462-4.22 5.463-4.222-5.463Z" stroke="#fff" stroke-opacity=".6" stroke-width="1.167"/><path d="M20.779 9.083 25 3.621l4.221 5.462-4.22 5.463-4.222-5.463Z" fill="#1D8CE0"/><path d="M20.779 9.083 25 3.621l4.221 5.462-4.22 5.463-4.222-5.463Z" stroke="#898989" stroke-width="1.167"/><path d="M20.779 9.083 25 3.621l4.221 5.462-4.22 5.463-4.222-5.463Z" stroke="#fff" stroke-opacity=".6" stroke-width="1.167"/><path d="M25.004 13.59 28.5 9.092l-.994-1.284c0 .432-.23 1.38-.94 2.09-.617.616-1.562 1.42-3.266 1.49l1.704 2.202Z" fill="#1D8CE0"/><path d="M25.004 13.59 28.5 9.092l-.994-1.284c0 .432-.23 1.38-.94 2.09-.617.616-1.562 1.42-3.266 1.49l1.704 2.202Z" fill="#000" fill-opacity=".2"/><path d="M25.875 5.693 25 4.563 22.96 7.188c.729-.803 1.848-1.551 2.041-1.605.199-.055.584-.146.875.11Z" fill="#1D8CE0"/><path d="M25.875 5.693 25 4.563 22.96 7.188c.729-.803 1.848-1.551 2.041-1.605.199-.055.584-.146.875.11Z" fill="#fff" fill-opacity=".95"/><path d="m23.422 4.708-3.38 4.375 1.896 2.454c-.39-.672-1.167-2.104-1.167-2.454 0-.35 1.768-3.062 2.651-4.375Z" fill="#FEFEFE"/></g><defs><clipPath id="ahsa"><path fill="#fff" transform="matrix(-1 0 0 1 32.292 2.083)" d="M0 0h14.583v14.583H0z"/></clipPath></defs></svg>