<?xml version="1.0" encoding="utf-8"?><svg fill="none" viewBox="0 0 50 50" xmlns="http://www.w3.org/2000/svg" width="50" height="50"><g clip-path="url(#ajja)"><path d="m20.313 43.75-1.563-3.125h12.5l-1.563 3.125-1.562-3.125-1.563 3.125L25 40.625l-1.563 3.125-1.562-3.125-1.563 3.125Z" fill="#C57A09"/><path d="M32.292 40.625H17.708v-8.333L25 29.167l7.292 3.125v8.333Z" fill="#FAA21E"/><path d="M32.292 40.625H17.708v-8.333L25 29.167l7.292 3.125v8.333Z" fill="#000" fill-opacity=".1"/><path d="m6.25 25.963 10.417 7.37L25 29.688v-8.855L7.292 17.708 6.25 25.963Zm14.583.674c-.282 1.488-2.477 3.571-4.504 3.571-2.027 0-3.745-2.38-4.871-6.25l9.375 2.68Z" fill="#FAA21E"/><path d="m6.25 25.963 10.417 7.37L25 29.688v-8.855L7.292 17.708 6.25 25.963Zm14.583.674c-.282 1.488-2.477 3.571-4.504 3.571-2.027 0-3.745-2.38-4.871-6.25l9.375 2.68Z" fill="#000" fill-opacity=".1"/><path d="m6.25 25.963 1.042-8.255 5.208 4.688-6.25 3.567Z" fill="#FAA21E"/><path d="m6.25 25.963 1.042-8.255 5.208 4.688-6.25 3.567Z" fill="#fff" fill-opacity=".2"/><path d="M25 20.833v8.855l8.333 3.645 10.417-7.37-1.042-8.255L25 20.833Zm13.542 3.125c-1.126 3.87-2.844 6.25-4.871 6.25-2.027 0-4.222-2.083-4.504-3.57l9.375-2.68Z" fill="#C57A09"/><path d="m43.75 25.963-1.042-8.255-5.208 4.688 6.25 3.567Z" fill="#FAA21E"/><path d="m43.75 25.963-1.042-8.255-5.208 4.688 6.25 3.567Z" fill="#000" fill-opacity=".4"/><path d="m11.458 22.917-4.166-5.209C7.292 11.608 11.982 0 25 0c13.018 0 17.708 11.458 17.708 17.708l-4.166 5.209-11.459-1.563-2.083-.52-13.542 2.083Z" fill="#898989"/><path d="m11.458 22.917-4.166-5.209C7.292 11.608 11.982 0 25 0c13.018 0 17.708 11.458 17.708 17.708l-4.166 5.209-11.459-1.563-2.083-.52-13.542 2.083Z" fill="#fff" fill-opacity=".2"/><path d="m41.964 16.555.744 1.153-12.5 3.646L25 20.796V5.246c3.646 3.608 12.723 5.654 16.964 11.31Z" fill="#898989"/><path d="m41.964 16.555.744 1.153-12.5 3.646L25 20.796V5.246c3.646 3.608 12.723 5.654 16.964 11.31Z" fill="#fff" fill-opacity=".4"/><path d="m7.292 17.708.744-1.153C12.276 10.9 21.354 8.855 25 5.245v15.588L7.292 17.708Z" fill="#898989"/><path d="m7.292 17.708.744-1.153C12.276 10.9 21.354 8.855 25 5.245v15.588L7.292 17.708Z" fill="#fff" fill-opacity=".6"/><path d="m42.708 17.708-4.166 5.209-11.459-1.563-2.083-.52c4.64-2.917 9.419-3.38 17.708-3.126Z" fill="#FAA21E"/><path d="m42.708 17.708-4.166 5.209-11.459-1.563-2.083-.52c4.64-2.917 9.419-3.38 17.708-3.126Z" fill="#fff" fill-opacity=".4"/><path d="m11.458 22.917-4.166-5.209c8.427-.046 13.153.311 17.708 3.125l-13.542 2.084Z" fill="#FAA21E"/><path d="m11.458 22.917-4.166-5.209c8.427-.046 13.153.311 17.708 3.125l-13.542 2.084Z" fill="#fff" fill-opacity=".6"/><path d="M20.313 33.333 22.395 25h5.208l2.084 8.333L25 36.458l-4.688-3.125Z" fill="#FAA21E"/><path d="M20.313 33.333 22.395 25h5.208l2.084 8.333L25 36.458l-4.688-3.125Z" fill="#000" fill-opacity=".4"/><path d="m20.833 31.25 2.084-9.896 2.083-.52 2.083.52 2.084 9.896L25 34.375l-4.167-3.125Z" fill="#FAA21E"/><path d="m20.833 31.25 2.084-9.896 2.083-.52v13.541l-4.167-3.125Z" fill="#FAA21E"/><path d="m20.833 31.25 2.084-9.896 2.083-.52v13.541l-4.167-3.125Z" fill="#fff" fill-opacity=".4"/><path d="m9.822 35.315-2.01-8.232 8.855 6.25V50l-3.274-13.16-3.571-1.525Z" fill="#898989"/><path d="m9.822 35.315-2.01-8.232 8.855 6.25V50l-3.274-13.16-3.571-1.525Z" fill="#fff" fill-opacity=".6"/><path d="m20.833 31.25-4.166 2.083V50l4.166-18.75Z" fill="#898989"/><path d="m20.833 31.25-4.166 2.083V50l4.166-18.75Z" fill="#fff" fill-opacity=".2"/><path d="m40.178 35.315 2.01-8.232-8.855 6.25V50l3.274-13.16 3.571-1.525Z" fill="#898989"/><path d="m40.178 35.315 2.01-8.232-8.855 6.25V50l3.274-13.16 3.571-1.525Z" fill="#000" fill-opacity=".2"/><path d="m29.167 31.25 4.166 2.083V50l-4.166-18.75Z" fill="#898989"/><g clip-path="url(#ajjb)"><path d="m31.141 5.739-11.858 6.847" stroke="#898989" stroke-width="1.437"/><path d="m31.141 5.739-11.858 6.847" stroke="#fff" stroke-opacity=".95" stroke-width="1.437"/><circle cx=".769" cy=".769" r=".59" transform="scale(-1 1) rotate(-15 5.924 125.698)" fill="#898989"/><circle cx=".769" cy=".769" r=".59" transform="scale(-1 1) rotate(-15 5.924 125.698)" fill="#fff" fill-opacity=".95"/><circle cx=".769" cy=".769" r=".59" transform="scale(-1 1) rotate(-15 5.924 125.698)" stroke="#898989" stroke-width=".359"/><circle cx=".769" cy=".769" r=".59" transform="scale(-1 1) rotate(-15 5.924 125.698)" stroke="#fff" stroke-opacity=".95" stroke-width=".359"/><circle cx=".769" cy=".769" r=".59" transform="scale(-1 1) rotate(-15 1.249 122.109)" fill="#898989"/><circle cx=".769" cy=".769" r=".59" transform="scale(-1 1) rotate(-15 1.249 122.109)" fill="#fff" fill-opacity=".95"/><circle cx=".769" cy=".769" r=".59" transform="scale(-1 1) rotate(-15 1.249 122.109)" stroke="#898989" stroke-width=".359"/><circle cx=".769" cy=".769" r=".59" transform="scale(-1 1) rotate(-15 1.249 122.109)" stroke="#fff" stroke-opacity=".95" stroke-width=".359"/><circle cx=".769" cy=".769" r=".59" transform="scale(1 -1) rotate(75 19.257 6.006)" fill="#898989"/><circle cx=".769" cy=".769" r=".59" transform="scale(1 -1) rotate(75 19.257 6.006)" fill="#fff" fill-opacity=".95"/><circle cx=".769" cy=".769" r=".59" transform="scale(1 -1) rotate(75 19.257 6.006)" stroke="#898989" stroke-width=".359"/><circle cx=".769" cy=".769" r=".59" transform="scale(1 -1) rotate(75 19.257 6.006)" stroke="#fff" stroke-opacity=".95" stroke-width=".359"/><circle cx=".769" cy=".769" r=".59" transform="scale(1 -1) rotate(75 18.004 6.171)" fill="#898989"/><circle cx=".769" cy=".769" r=".59" transform="scale(1 -1) rotate(75 18.004 6.171)" fill="#fff" fill-opacity=".95"/><circle cx=".769" cy=".769" r=".59" transform="scale(1 -1) rotate(75 18.004 6.171)" stroke="#898989" stroke-width=".359"/><circle cx=".769" cy=".769" r=".59" transform="scale(1 -1) rotate(75 18.004 6.171)" stroke="#fff" stroke-opacity=".95" stroke-width=".359"/><path d="m19.005 5.7 11.86 6.846" stroke="#898989" stroke-width="1.437"/><path d="m19.005 5.7 11.86 6.846" stroke="#fff" stroke-opacity=".95" stroke-width="1.437"/><path d="M18.811 5.18a.59.59 0 1 0 1.14-.306.59.59 0 0 0-1.14.307Z" fill="#898989"/><path d="M18.811 5.18a.59.59 0 1 0 1.14-.306.59.59 0 0 0-1.14.307Z" fill="#fff" fill-opacity=".95"/><path d="M18.811 5.18a.59.59 0 1 0 1.14-.306.59.59 0 0 0-1.14.307Z" stroke="#898989" stroke-width=".359"/><path d="M18.811 5.18a.59.59 0 1 0 1.14-.306.59.59 0 0 0-1.14.307Z" stroke="#fff" stroke-opacity=".95" stroke-width=".359"/><path d="M18.042 6.513a.59.59 0 1 0 1.14-.306.59.59 0 0 0-1.14.306Z" fill="#898989"/><path d="M18.042 6.513a.59.59 0 1 0 1.14-.306.59.59 0 0 0-1.14.306Z" fill="#fff" fill-opacity=".95"/><path d="M18.042 6.513a.59.59 0 1 0 1.14-.306.59.59 0 0 0-1.14.306Z" stroke="#898989" stroke-width=".359"/><path d="M18.042 6.513a.59.59 0 1 0 1.14-.306.59.59 0 0 0-1.14.306Z" stroke="#fff" stroke-opacity=".95" stroke-width=".359"/><circle cx=".769" cy=".769" r=".59" transform="scale(-1 1) rotate(15 -57.412 -115.242)" fill="#898989"/><circle cx=".769" cy=".769" r=".59" transform="scale(-1 1) rotate(15 -57.412 -115.242)" fill="#fff" fill-opacity=".95"/><circle cx=".769" cy=".769" r=".59" transform="scale(-1 1) rotate(15 -57.412 -115.242)" stroke="#898989" stroke-width=".359"/><circle cx=".769" cy=".769" r=".59" transform="scale(-1 1) rotate(15 -57.412 -115.242)" stroke="#fff" stroke-opacity=".95" stroke-width=".359"/><circle cx=".769" cy=".769" r=".59" transform="scale(-1 1) rotate(15 -62.087 -111.655)" fill="#898989"/><circle cx=".769" cy=".769" r=".59" transform="scale(-1 1) rotate(15 -62.087 -111.655)" fill="#fff" fill-opacity=".95"/><circle cx=".769" cy=".769" r=".59" transform="scale(-1 1) rotate(15 -62.087 -111.655)" stroke="#898989" stroke-width=".359"/><circle cx=".769" cy=".769" r=".59" transform="scale(-1 1) rotate(15 -62.087 -111.655)" stroke="#fff" stroke-opacity=".95" stroke-width=".359"/><path d="m29.11 9.666-3.527 4.562V9.666h3.526Z" fill="#1D8CE0" stroke="#898989" stroke-width="1.167"/><path d="M24.417 9.666v4.562L20.89 9.666h3.526Z" fill="#1D8CE0"/><path d="M24.417 9.666v4.562L20.89 9.666h3.526Z" stroke="#898989" stroke-width="1.167"/><path d="M24.417 9.666v4.562L20.89 9.666h3.526Z" stroke="#fff" stroke-opacity=".2" stroke-width="1.167"/><path d="M29.22 9.083 25 14.546l-4.22-5.463L25 3.62l4.22 5.463Z" fill="#1D8CE0"/><path d="M29.22 9.083 25 14.546l-4.22-5.463L25 3.62l4.22 5.463Z" stroke="#898989" stroke-width="1.167"/><path d="M29.22 9.083 25 14.546l-4.22-5.463L25 3.62l4.22 5.463Z" stroke="#fff" stroke-opacity=".6" stroke-width="1.167"/><path d="M29.22 9.083 25 14.546l-4.22-5.463L25 3.62l4.22 5.463Z" fill="#1D8CE0"/><path d="M29.22 9.083 25 14.546l-4.22-5.463L25 3.62l4.22 5.463Z" stroke="#898989" stroke-width="1.167"/><path d="M29.22 9.083 25 14.546l-4.22-5.463L25 3.62l4.22 5.463Z" stroke="#fff" stroke-opacity=".6" stroke-width="1.167"/><path d="M25.004 13.59 28.5 9.092l-.994-1.284c0 .432-.23 1.38-.94 2.09-.617.616-1.562 1.42-3.266 1.49l1.704 2.202Z" fill="#1D8CE0"/><path d="M25.004 13.59 28.5 9.092l-.994-1.284c0 .432-.23 1.38-.94 2.09-.617.616-1.562 1.42-3.266 1.49l1.704 2.202Z" fill="#000" fill-opacity=".2"/><path d="M25.875 5.693 25 4.563 22.96 7.188c.729-.803 1.848-1.551 2.041-1.605.199-.055.584-.146.875.11Z" fill="#1D8CE0"/><path d="M25.875 5.693 25 4.563 22.96 7.188c.729-.803 1.848-1.551 2.041-1.605.199-.055.584-.146.875.11Z" fill="#fff" fill-opacity=".95"/><path d="m23.422 4.708-3.38 4.375 1.896 2.454c-.39-.672-1.167-2.104-1.167-2.454 0-.35 1.768-3.062 2.651-4.375Z" fill="#FEFEFE"/></g><g clip-path="url(#ajjc)" fill="#152242"><path d="M39.029 28.446a1 1 0 0 1 1.742 0l3.507 6.22a1 1 0 0 0 .673.49l7 1.412a1 1 0 0 1 .538 1.657l-4.833 5.258a1 1 0 0 0-.257.791l.82 7.094a1 1 0 0 1-1.41 1.024l-6.493-2.972a1 1 0 0 0-.832 0l-6.494 2.972a1 1 0 0 1-1.41-1.024l.82-7.094a1 1 0 0 0-.257-.791l-4.833-5.258a1 1 0 0 1 .539-1.657l7-1.412a1 1 0 0 0 .673-.49l3.507-6.22Z"/><path d="m41.935 37.532.339.602.675.135 4.062.82-2.804 3.05-.467.508.08.686.474 4.115-3.766-1.724-.627-.287-.627.288-3.769 1.723.476-4.115.079-.686-.467-.508-2.805-3.05 4.063-.82.676-.135.338-.602 2.035-3.611 2.035 3.611Z" stroke="#FAA21E" stroke-width="3.013"/></g></g><defs><clipPath id="ajja"><path fill="#fff" transform="matrix(-1 0 0 1 50 0)" d="M0 0h50v50H0z"/></clipPath><clipPath id="ajjb"><path fill="#fff" transform="matrix(-1 0 0 1 32.292 2.083)" d="M0 0h14.583v14.583H0z"/></clipPath><clipPath id="ajjc"><path fill="#fff" transform="matrix(1 0 0 -1 0 50)" d="M0 0h50v50H0z"/></clipPath></defs></svg>