<?xml version="1.0" encoding="utf-8"?><svg fill="none" viewBox="0 0 50 50" width="50" height="50" xmlns="http://www.w3.org/2000/svg"><g clip-path="url(#ahra)"><path d="M46.055 12.534 5.397 36.008" stroke="#898989" stroke-width="4.928"/><path d="M46.055 12.534 5.397 36.008" stroke="#fff" stroke-opacity=".95" stroke-width="4.928"/><circle cx="2.638" cy="2.638" r="2.022" transform="scale(-1 1) rotate(-15 23.54 196.806)" fill="#898989"/><circle cx="2.638" cy="2.638" r="2.022" transform="scale(-1 1) rotate(-15 23.54 196.806)" fill="#fff" fill-opacity=".95"/><circle cx="2.638" cy="2.638" r="2.022" transform="scale(-1 1) rotate(-15 23.54 196.806)" stroke="#898989" stroke-width="1.232"/><circle cx="2.638" cy="2.638" r="2.022" transform="scale(-1 1) rotate(-15 23.54 196.806)" stroke="#fff" stroke-opacity=".95" stroke-width="1.232"/><circle cx="2.638" cy="2.638" r="2.022" transform="scale(-1 1) rotate(-15 7.512 184.502)" fill="#898989"/><circle cx="2.638" cy="2.638" r="2.022" transform="scale(-1 1) rotate(-15 7.512 184.502)" fill="#fff" fill-opacity=".95"/><circle cx="2.638" cy="2.638" r="2.022" transform="scale(-1 1) rotate(-15 7.512 184.502)" stroke="#898989" stroke-width="1.232"/><circle cx="2.638" cy="2.638" r="2.022" transform="scale(-1 1) rotate(-15 7.512 184.502)" stroke="#fff" stroke-opacity=".95" stroke-width="1.232"/><circle cx="2.638" cy="2.638" r="2.022" transform="scale(1 -1) rotate(75 31.011 -15.398)" fill="#898989"/><circle cx="2.638" cy="2.638" r="2.022" transform="scale(1 -1) rotate(75 31.011 -15.398)" fill="#fff" fill-opacity=".95"/><circle cx="2.638" cy="2.638" r="2.022" transform="scale(1 -1) rotate(75 31.011 -15.398)" stroke="#898989" stroke-width="1.232"/><circle cx="2.638" cy="2.638" r="2.022" transform="scale(1 -1) rotate(75 31.011 -15.398)" stroke="#fff" stroke-opacity=".95" stroke-width="1.232"/><circle cx="2.638" cy="2.638" r="2.022" transform="scale(1 -1) rotate(75 26.716 -14.833)" fill="#898989"/><circle cx="2.638" cy="2.638" r="2.022" transform="scale(1 -1) rotate(75 26.716 -14.833)" fill="#fff" fill-opacity=".95"/><circle cx="2.638" cy="2.638" r="2.022" transform="scale(1 -1) rotate(75 26.716 -14.833)" stroke="#898989" stroke-width="1.232"/><circle cx="2.638" cy="2.638" r="2.022" transform="scale(1 -1) rotate(75 26.716 -14.833)" stroke="#fff" stroke-opacity=".95" stroke-width="1.232"/><path d="m4.447 12.398 40.658 23.474" stroke="#898989" stroke-width="4.928"/><path d="m4.447 12.398 40.658 23.474" stroke="#fff" stroke-opacity=".95" stroke-width="4.928"/><path d="M6.256 12.048A2.022 2.022 0 1 0 5.21 8.143a2.022 2.022 0 0 0 1.046 3.905Z" fill="#898989"/><path d="M6.256 12.048A2.022 2.022 0 1 0 5.21 8.143a2.022 2.022 0 0 0 1.046 3.905Z" fill="#fff" fill-opacity=".95"/><path d="M6.256 12.048A2.022 2.022 0 1 0 5.21 8.143a2.022 2.022 0 0 0 1.046 3.905Z" stroke="#898989" stroke-width="1.232"/><path d="M6.256 12.048A2.022 2.022 0 1 0 5.21 8.143a2.022 2.022 0 0 0 1.046 3.905Z" stroke="#fff" stroke-opacity=".95" stroke-width="1.232"/><path d="M3.619 16.616a2.022 2.022 0 1 0-1.046-3.905 2.022 2.022 0 0 0 1.046 3.905Z" fill="#898989"/><path d="M3.619 16.616a2.022 2.022 0 1 0-1.046-3.905 2.022 2.022 0 0 0 1.046 3.905Z" fill="#fff" fill-opacity=".95"/><path d="M3.619 16.616a2.022 2.022 0 1 0-1.046-3.905 2.022 2.022 0 0 0 1.046 3.905Z" stroke="#898989" stroke-width="1.232"/><path d="M3.619 16.616a2.022 2.022 0 1 0-1.046-3.905 2.022 2.022 0 0 0 1.046 3.905Z" stroke="#fff" stroke-opacity=".95" stroke-width="1.232"/><circle cx="2.638" cy="2.638" r="2.022" transform="scale(-1 1) rotate(15 -139.354 -168.098)" fill="#898989"/><circle cx="2.638" cy="2.638" r="2.022" transform="scale(-1 1) rotate(15 -139.354 -168.098)" fill="#fff" fill-opacity=".95"/><circle cx="2.638" cy="2.638" r="2.022" transform="scale(-1 1) rotate(15 -139.354 -168.098)" stroke="#898989" stroke-width="1.232"/><circle cx="2.638" cy="2.638" r="2.022" transform="scale(-1 1) rotate(15 -139.354 -168.098)" stroke="#fff" stroke-opacity=".95" stroke-width="1.232"/><circle cx="2.638" cy="2.638" r="2.022" transform="scale(-1 1) rotate(15 -155.385 -155.801)" fill="#898989"/><circle cx="2.638" cy="2.638" r="2.022" transform="scale(-1 1) rotate(15 -155.385 -155.801)" fill="#fff" fill-opacity=".95"/><circle cx="2.638" cy="2.638" r="2.022" transform="scale(-1 1) rotate(15 -155.385 -155.801)" stroke="#898989" stroke-width="1.232"/><circle cx="2.638" cy="2.638" r="2.022" transform="scale(-1 1) rotate(15 -155.385 -155.801)" stroke="#fff" stroke-opacity=".95" stroke-width="1.232"/><path d="M39.086 26 27 41.64V26h12.086Z" fill="#1D8CE0" stroke="#898989" stroke-width="4"/><path d="M23 26v15.64L10.914 26H23Z" fill="#1D8CE0"/><path d="M23 26v15.64L10.914 26H23Z" stroke="#898989" stroke-width="4"/><path d="M23 26v15.64L10.914 26H23Z" stroke="#fff" stroke-opacity=".2" stroke-width="4"/><path d="M10.527 24 25 5.27 39.472 24 25 42.73 10.527 24Z" fill="#1D8CE0"/><path d="M10.527 24 25 5.27 39.472 24 25 42.73 10.527 24Z" stroke="#898989" stroke-width="4"/><path d="M10.527 24 25 5.27 39.472 24 25 42.73 10.527 24Z" stroke="#fff" stroke-opacity=".6" stroke-width="4"/><path d="M10.527 24 25 5.27 39.472 24 25 42.73 10.527 24Z" fill="#1D8CE0"/><path d="M10.527 24 25 5.27 39.472 24 25 42.73 10.527 24Z" stroke="#898989" stroke-width="4"/><path d="M10.527 24 25 5.27 39.472 24 25 42.73 10.527 24Z" stroke="#fff" stroke-opacity=".6" stroke-width="4"/><path d="M25.013 39.45 37 24.03l-3.408-4.403c0 1.48-.788 4.729-3.223 7.163-2.116 2.116-5.356 4.87-11.199 5.113l5.843 7.547Z" fill="#1D8CE0"/><path d="M25.013 39.45 37 24.03l-3.408-4.403c0 1.48-.788 4.729-3.223 7.163-2.116 2.116-5.356 4.87-11.199 5.113l5.843 7.547Z" fill="#000" fill-opacity=".2"/><path d="M28 12.375 25 8.5l-7 9c2.5-2.75 6.336-5.317 7-5.5.682-.188 2-.5 3 .375Z" fill="#1D8CE0"/><path d="M28 12.375 25 8.5l-7 9c2.5-2.75 6.336-5.317 7-5.5.682-.188 2-.5 3 .375Z" fill="#fff" fill-opacity=".95"/><path d="M19.59 9 8 24l6.5 8.412c-1.333-2.304-4-7.212-4-8.412 0-1.2 6.06-10.5 9.09-15Z" fill="#FEFEFE"/></g><defs><clipPath id="ahra"><path fill="#fff" transform="matrix(-1 0 0 1 50 0)" d="M0 0h50v50H0z"/></clipPath></defs></svg>