<svg width="50" height="50" viewBox="0 0 50 50" fill="none" xmlns="http://www.w3.org/2000/svg">
<g clip-path="url(#clip0_2152_18104)">
<circle cx="26" cy="25" r="4" fill="#FAA21E"/>
<circle cx="26" cy="25" r="4" fill="black" fill-opacity="0.6"/>
<path d="M41.8497 25.7176C39.8929 25.5743 30.354 25.0971 26.7297 23.9558C27.3316 20.2041 30.97 13.3974 32.5306 10.6308C34.4814 7.17245 38.8105 7.19367 41.2261 8.63951C44.0052 10.3029 46.5239 14.3804 47.271 18.4255C47.9247 21.9651 44.2958 25.8966 41.8497 25.7176Z" fill="#FEFEFE"/>
<path d="M12.5621 15.5552C14.1516 16.7054 22.0163 22.1244 24.5 25C22.0163 27.8756 15.3438 31.7545 12.5621 33.2881C9.08497 35.2052 5.41299 32.9121 4.11766 30.4125C2.62746 27.5369 2.62743 22.7442 4.11766 18.9101C5.42162 15.5552 10.5752 14.1174 12.5621 15.5552Z" fill="#FEFEFE"/>
<path d="M30.9998 9.89776C30.3128 11.7356 27.176 20.7566 25.0629 23.9146C21.6311 22.2834 16.1201 16.8799 13.9031 14.6051C11.1317 11.7617 12.3678 7.6127 14.4339 5.70031C16.8107 3.50021 21.4315 2.22792 25.5236 2.64688C29.1043 3.01347 31.8586 7.60044 30.9998 9.89776Z" fill="#FEFEFE"/>
<path d="M31.008 40.9432C30.3914 39.0806 27.1812 30.0854 26.8484 26.3003C30.5448 25.4203 38.2257 26.1764 41.3791 26.5592C45.3207 27.0377 46.9581 31.0453 46.5469 33.8304C46.0739 37.0345 43.271 40.9221 39.8198 43.1606C36.8 45.1193 31.7788 43.2715 31.008 40.9432Z" fill="#FEFEFE"/>
<path d="M12.8531 34.3829C14.4852 33.2939 22.3055 27.8111 25.8664 26.4854C27.6961 29.8156 29.0061 37.4216 29.4741 40.5634C30.0591 44.4907 26.6299 47.1332 23.8356 47.4761C20.6209 47.8706 16.1287 46.2002 13.0544 43.4671C10.3644 41.0756 10.8129 35.7441 12.8531 34.3829Z" fill="#FEFEFE"/>
<path d="M27.5 15.5C28.3 13.5 31.5 9.33333 33 7.5C32.3333 9.83333 30.8 15 30 17C29.2 19 27.3333 23.1667 26.5 25L25 24.5C25.5 22.3333 26.7 17.5 27.5 15.5Z" fill="#FAA21E"/>
<path d="M27.5 15.5C28.3 13.5 31.5 9.33333 33 7.5C32.3333 9.83333 30.8 15 30 17C29.2 19 27.3333 23.1667 26.5 25L25 24.5C25.5 22.3333 26.7 17.5 27.5 15.5Z" fill="black" fill-opacity="0.6"/>
<path d="M35.8585 23.8416C38.002 24.0539 42.8942 25.9691 45.0723 26.9002C42.6456 26.9086 37.2563 26.8724 35.1128 26.6601C32.9692 26.4477 28.4478 25.8132 26.455 25.5225L26.5182 23.9427C28.7385 23.8205 33.7149 23.6292 35.8585 23.8416Z" fill="#FAA21E"/>
<path d="M35.8585 23.8416C38.002 24.0539 42.8942 25.9691 45.0723 26.9002C42.6456 26.9086 37.2563 26.8724 35.1128 26.6601C32.9692 26.4477 28.4478 25.8132 26.455 25.5225L26.5182 23.9427C28.7385 23.8205 33.7149 23.6292 35.8585 23.8416Z" fill="black" fill-opacity="0.6"/>
<path d="M29.9972 34.1837C30.5086 36.2762 31.155 42.6363 31 45C30.1863 42.7138 27.6024 36.5086 27.091 34.4161C26.5795 32.3236 25.6768 27.8481 25.2893 25.8719L26.8006 25.4069C27.653 27.4606 29.4857 32.0912 29.9972 34.1837Z" fill="#FAA21E"/>
<path d="M29.9972 34.1837C30.5086 36.2762 31.155 42.6363 31 45C30.1863 42.7138 27.6024 36.5086 27.091 34.4161C26.5795 32.3236 25.6768 27.8481 25.2893 25.8719L26.8006 25.4069C27.653 27.4606 29.4857 32.0912 29.9972 34.1837Z" fill="black" fill-opacity="0.6"/>
<path d="M19.0355 31.8732C17.188 32.9807 11.3037 35.4796 8.99996 36.0308C10.9432 34.5772 16.1063 30.2733 17.9538 29.1658C19.8013 28.0583 23.8095 25.872 25.5827 24.9173L26.4739 26.2233C24.7642 27.6451 20.8831 30.7656 19.0355 31.8732Z" fill="#FAA21E"/>
<path d="M19.0355 31.8732C17.188 32.9807 11.3037 35.4796 8.99996 36.0308C10.9432 34.5772 16.1063 30.2733 17.9538 29.1658C19.8013 28.0583 23.8095 25.872 25.5827 24.9173L26.4739 26.2233C24.7642 27.6451 20.8831 30.7656 19.0355 31.8732Z" fill="black" fill-opacity="0.6"/>
<path d="M16.6913 20.1835C15.052 18.7862 10.8056 14.0073 9.54795 12C11.5457 13.3776 17.2725 16.8969 18.9118 18.2942C20.5511 19.6916 23.9024 22.7923 25.3732 24.1679L24.4199 25.4294C22.5268 24.263 18.3306 21.5809 16.6913 20.1835Z" fill="#FAA21E"/>
<path d="M16.6913 20.1835C15.052 18.7862 10.8056 14.0073 9.54795 12C11.5457 13.3776 17.2725 16.8969 18.9118 18.2942C20.5511 19.6916 23.9024 22.7923 25.3732 24.1679L24.4199 25.4294C22.5268 24.263 18.3306 21.5809 16.6913 20.1835Z" fill="black" fill-opacity="0.6"/>
</g>
<defs>
<clipPath id="clip0_2152_18104">
<rect width="50" height="50" fill="white"/>
</clipPath>
</defs>
</svg>
