<svg width="50" height="50" viewBox="0 0 50 50" fill="none" xmlns="http://www.w3.org/2000/svg">
<path d="M7.14398 46.9374C4.58058 46.3736 2.6051 44.664 1.72808 43.5604L7.87665 25.7864C7.6101 24.4527 6.96236 22.3066 7.11616 19.0616C7.28578 15.483 8.49468 5.15674 9.02872 5.2742C10.6308 5.62656 8.91124 13.4453 9.97932 13.6802C11.0474 13.9151 11.7772 0.414056 13.3794 0.766415C14.9815 1.11878 11.6961 13.5113 12.7642 13.7462C13.8323 13.9811 15.7448 0.193728 17.3469 0.546087C18.9491 0.898447 14.9003 14.216 15.9684 14.451C17.0365 14.6859 19.2538 2.0584 20.8559 2.41076C22.4581 2.76312 17.1875 19.0908 18.7896 19.4431C20.3917 19.7955 23.98 13.6628 24.9716 14.2452C25.9633 14.8276 23.0619 20.3828 20.0086 24.0829C17.566 27.0431 15.8108 27.8957 15.2386 27.952L15.0791 46.4967C12.3959 46.8173 9.70737 47.5011 7.14398 46.9374Z" fill="#898989"/>
<path d="M7.14398 46.9374C4.58058 46.3736 2.6051 44.664 1.72808 43.5604L7.87665 25.7864C7.6101 24.4527 6.96236 22.3066 7.11616 19.0616C7.28578 15.483 8.49468 5.15674 9.02872 5.2742C10.6308 5.62656 8.91124 13.4453 9.97932 13.6802C11.0474 13.9151 11.7772 0.414056 13.3794 0.766415C14.9815 1.11878 11.6961 13.5113 12.7642 13.7462C13.8323 13.9811 15.7448 0.193728 17.3469 0.546087C18.9491 0.898447 14.9003 14.216 15.9684 14.451C17.0365 14.6859 19.2538 2.0584 20.8559 2.41076C22.4581 2.76312 17.1875 19.0908 18.7896 19.4431C20.3917 19.7955 23.98 13.6628 24.9716 14.2452C25.9633 14.8276 23.0619 20.3828 20.0086 24.0829C17.566 27.0431 15.8108 27.8957 15.2386 27.952L15.0791 46.4967C12.3959 46.8173 9.70737 47.5011 7.14398 46.9374Z" fill="white" fill-opacity="0.95"/>
<path d="M23.3824 48.0255C25.6923 49.2718 28.3048 49.2664 29.6896 49.0029L36.6348 31.5248C37.7074 30.6885 39.5991 29.4856 41.6009 26.9271C43.8085 24.1054 49.6338 15.4939 49.1526 15.2342C47.7089 14.4552 43.9074 21.5007 42.945 20.9814C41.9825 20.4621 50.2432 9.75827 48.7995 8.97931C47.3559 8.20036 41.7547 19.7328 40.7923 19.2135C39.8298 18.6942 47.3815 7.00131 45.9378 6.22236C44.4942 5.44341 38.8674 18.1749 37.9049 17.6556C36.9425 17.1363 43.5061 6.12315 42.0624 5.3442C40.6187 4.56525 33.9526 20.3745 32.5089 19.5956C31.0652 18.8166 32.3505 11.8285 31.2191 11.6224C30.0877 11.4162 28.6591 17.5184 28.5566 22.3146C28.4745 26.1515 29.2475 27.9432 29.6442 28.3594L17.659 42.5116C19.4823 44.5061 21.0725 46.7792 23.3824 48.0255Z" fill="#898989"/>
<path d="M23.3824 48.0255C25.6923 49.2718 28.3048 49.2664 29.6896 49.0029L36.6348 31.5248C37.7074 30.6885 39.5991 29.4856 41.6009 26.9271C43.8085 24.1054 49.6338 15.4939 49.1526 15.2342C47.7089 14.4552 43.9074 21.5007 42.945 20.9814C41.9825 20.4621 50.2432 9.75827 48.7995 8.97931C47.3559 8.20036 41.7547 19.7328 40.7923 19.2135C39.8298 18.6942 47.3815 7.00131 45.9378 6.22236C44.4942 5.44341 38.8674 18.1749 37.9049 17.6556C36.9425 17.1363 43.5061 6.12315 42.0624 5.3442C40.6187 4.56525 33.9526 20.3745 32.5089 19.5956C31.0652 18.8166 32.3505 11.8285 31.2191 11.6224C30.0877 11.4162 28.6591 17.5184 28.5566 22.3146C28.4745 26.1515 29.2475 27.9432 29.6442 28.3594L17.659 42.5116C19.4823 44.5061 21.0725 46.7792 23.3824 48.0255Z" fill="white" fill-opacity="0.95"/>
<circle cx="13" cy="31" r="1" fill="#898989"/>
<circle cx="13" cy="31" r="1" fill="white" fill-opacity="0.2"/>
<circle cx="13" cy="35" r="1" fill="#898989"/>
<circle cx="13" cy="35" r="1" fill="white" fill-opacity="0.2"/>
<circle cx="13" cy="39" r="1" fill="#898989"/>
<circle cx="13" cy="39" r="1" fill="white" fill-opacity="0.2"/>
<circle cx="13" cy="43" r="1" fill="#898989"/>
<circle cx="13" cy="43" r="1" fill="white" fill-opacity="0.2"/>
<circle cx="28.4916" cy="32.3977" r="1" transform="rotate(36.2394 28.4916 32.3977)" fill="#898989"/>
<circle cx="28.4916" cy="32.3977" r="1" transform="rotate(36.2394 28.4916 32.3977)" fill="white" fill-opacity="0.2"/>
<circle cx="26.127" cy="35.6239" r="1" transform="rotate(36.2394 26.127 35.6239)" fill="#898989"/>
<circle cx="26.127" cy="35.6239" r="1" transform="rotate(36.2394 26.127 35.6239)" fill="white" fill-opacity="0.2"/>
<circle cx="23.7624" cy="38.8502" r="1" transform="rotate(36.2394 23.7624 38.8502)" fill="#898989"/>
<circle cx="23.7624" cy="38.8502" r="1" transform="rotate(36.2394 23.7624 38.8502)" fill="white" fill-opacity="0.2"/>
<circle cx="21.3977" cy="42.0764" r="1" transform="rotate(36.2394 21.3977 42.0764)" fill="#898989"/>
<circle cx="21.3977" cy="42.0764" r="1" transform="rotate(36.2394 21.3977 42.0764)" fill="white" fill-opacity="0.2"/>
</svg>
