<svg width="50" height="50" viewBox="0 0 50 50" fill="none" xmlns="http://www.w3.org/2000/svg">
<path d="M43 7L39 11L37.5 29L36.5 48.5L49.5 45.5L42.5 26.5L43 7Z" fill="#898989"/>
<path d="M43 7L39 11L37.5 29L36.5 48.5L49.5 45.5L42.5 26.5L43 7Z" fill="white" fill-opacity="0.6"/>
<path d="M27.5 3C24.3 3 20.8333 1.33333 19.5 0.5C19.5 2.66667 21.3 7.1 28.5 7.5C35.7 7.9 34.8333 3 33.5 0.5C32.8333 1.33333 30.7 3 27.5 3Z" fill="#898989"/>
<path d="M27.5 3C24.3 3 20.8333 1.33333 19.5 0.5C19.5 2.66667 21.3 7.1 28.5 7.5C35.7 7.9 34.8333 3 33.5 0.5C32.8333 1.33333 30.7 3 27.5 3Z" fill="white" fill-opacity="0.2"/>
<path d="M42 7H6C8 12.1667 11.6 24.1 12 26.5C12.4 28.9 10 41 9 49C24.59 50.0513 32.6052 50.358 42 49C41.1667 44 38.5 35.1 38.5 27.5C38.5 19.9 40.5 11 42 7Z" fill="#898989"/>
<path d="M42 7H6C8 12.1667 11.6 24.1 12 26.5C12.4 28.9 10 41 9 49C24.59 50.0513 32.6052 50.358 42 49C41.1667 44 38.5 35.1 38.5 27.5C38.5 19.9 40.5 11 42 7Z" fill="white" fill-opacity="0.95"/>
<path d="M2 27.5L6.5 7L12.5 12.5L11 27.5L18.5 47L3.5 50L2 27.5Z" fill="#898989"/>
<path d="M2 27.5L6.5 7L12.5 12.5L11 27.5L18.5 47L3.5 50L2 27.5Z" fill="white" fill-opacity="0.6"/>
<path d="M28 7C23 7 20.3333 1.83333 19 0C17.8333 0.333333 12.4 1.6 10 2C7.6 2.4 6.33333 6.83333 4.5 8.5C14 13.5 24 22 29 28.5C31.5 23 38.5 12.5 44.5 8C44.5 8 42.5 3 41.5 2.5C40.5 2 33.5 0 33.5 0L33.4962 0.0138201C32.993 1.85915 31.591 7 28 7Z" fill="#898989"/>
<path d="M28 7C23 7 20.3333 1.83333 19 0C17.8333 0.333333 12.4 1.6 10 2C7.6 2.4 6.33333 6.83333 4.5 8.5C14 13.5 24 22 29 28.5C31.5 23 38.5 12.5 44.5 8C44.5 8 42.5 3 41.5 2.5C40.5 2 33.5 0 33.5 0L33.4962 0.0138201C32.993 1.85915 31.591 7 28 7Z" fill="white" fill-opacity="0.8"/>
</svg>
