<svg width="50" height="50" viewBox="0 0 50 50" fill="none" xmlns="http://www.w3.org/2000/svg">
<path d="M23.2989 44.2655C15.8851 43.3615 10.9425 41.3389 6 38.466C9.85587 28.4473 17.7983 10.5428 21.5 12C25.9483 13.7512 29.6085 14.0699 35.1609 14.5253C39.6029 14.8896 46.0345 15.9617 49 19.3134L37.1379 49C36.0583 47.482 30.7126 45.1694 23.2989 44.2655Z" fill="#898989"/>
<path d="M23.2989 44.2655C15.8851 43.3615 10.9425 41.3389 6 38.466C9.85587 28.4473 17.7983 10.5428 21.5 12C25.9483 13.7512 29.6085 14.0699 35.1609 14.5253C39.6029 14.8896 46.0345 15.9617 49 19.3134L37.1379 49C36.0583 47.482 30.7126 45.1694 23.2989 44.2655Z" fill="white" fill-opacity="0.6"/>
<path d="M18.0947 3.4391L2.5 27.5L16 34.5L29.7999 9.65562C30.2876 7.58345 30.19 3.05654 25.8981 1.52631C21.6062 -0.0039134 18.9075 2.16391 18.0947 3.4391Z" fill="#898989"/>
<path d="M18.0947 3.4391L2.5 27.5L16 34.5L29.7999 9.65562C30.2876 7.58345 30.19 3.05654 25.8981 1.52631C21.6062 -0.0039134 18.9075 2.16391 18.0947 3.4391Z" fill="white" fill-opacity="0.95"/>
<ellipse cx="9" cy="31.5" rx="8" ry="7.5" transform="rotate(-90 9 31.5)" fill="#898989"/>
<ellipse cx="9" cy="31.5" rx="8" ry="7.5" transform="rotate(-90 9 31.5)" fill="white" fill-opacity="0.4"/>
<ellipse cx="9.00002" cy="31.5" rx="5.07692" ry="5.5" fill="#898989"/>
<ellipse cx="9.00002" cy="31.5" rx="5.07692" ry="5.5" fill="white" fill-opacity="0.95"/>
</svg>
