<svg width="51" height="51" viewBox="0 0 51 51" fill="none" xmlns="http://www.w3.org/2000/svg">
<path d="M8.50743 12.31C6.4906 8.77495 6.18808 4.83594 9.01165 3.21992C12.3782 1.29313 15.5664 3.72496 17.5832 7.25996" stroke="#FEFEFE" stroke-width="2"/>
<ellipse rx="11.5367" ry="3.02882" transform="matrix(0.865685 -0.500589 0.499411 0.866365 13.8776 11.1464)" fill="#898989"/>
<ellipse rx="11.5367" ry="3.02882" transform="matrix(0.865685 -0.500589 0.499411 0.866365 13.8776 11.1464)" fill="white" fill-opacity="0.8"/>
<path d="M12.558 48.155L4 17L23.5 5L46.8441 27.955L12.558 48.155Z" fill="#898989"/>
<path d="M12.558 48.155L4 17L23.5 5L46.8441 27.955L12.558 48.155Z" fill="white" fill-opacity="0.8"/>
<ellipse rx="19.9166" ry="6.46451" transform="matrix(0.865685 -0.500589 0.499411 0.866365 29.7227 38.0007)" fill="#FEFEFE"/>
<ellipse rx="17.6542" ry="4.9422" transform="matrix(0.865685 -0.500589 0.499411 0.866365 29.7755 38.0923)" fill="#898989"/>
<ellipse rx="17.6542" ry="4.9422" transform="matrix(0.865685 -0.500589 0.499411 0.866365 29.7755 38.0923)" fill="white" fill-opacity="0.4"/>
<ellipse cx="30.7094" cy="38.56" rx="3.02525" ry="3.03001" fill="#898989"/>
<ellipse cx="30.7094" cy="38.56" rx="3.02525" ry="3.03001" fill="white" fill-opacity="0.8"/>
<path d="M27.6842 33.51L30.2052 37.55" stroke="#898989" stroke-width="2"/>
<path d="M27.6842 33.51L30.2052 37.55" stroke="white" stroke-opacity="0.8" stroke-width="2"/>
<path d="M30.1111 21.4341C29.9107 22.7665 28.4409 22.8165 27.7639 24.1768C27.087 25.5371 27.1417 26.2264 27.5055 27.1757C27.8858 28.1681 29.2614 29.2961 30.5408 29.0858C32.3532 28.7879 33.6295 28.3867 35.4918 26.3082C36.0416 25.5287 37.3349 23.125 36.6988 21.3541C36.0627 19.5832 34.8553 18.4601 34.1046 18.0142C33.5991 17.8392 32.9361 17.2708 31.944 17.2939C30.7039 17.3228 29.5839 18.2031 29.5315 19.124C29.4719 20.1739 30.2643 20.4151 30.1111 21.4341Z" fill="#898989"/>
<path d="M30.1111 21.4341C29.9107 22.7665 28.4409 22.8165 27.7639 24.1768C27.087 25.5371 27.1417 26.2264 27.5055 27.1757C27.8858 28.1681 29.2614 29.2961 30.5408 29.0858C32.3532 28.7879 33.6295 28.3867 35.4918 26.3082C36.0416 25.5287 37.3349 23.125 36.6988 21.3541C36.0627 19.5832 34.8553 18.4601 34.1046 18.0142C33.5991 17.8392 32.9361 17.2708 31.944 17.2939C30.7039 17.3228 29.5839 18.2031 29.5315 19.124C29.4719 20.1739 30.2643 20.4151 30.1111 21.4341Z" fill="white" fill-opacity="0.2"/>
<path d="M17.5636 5.98141C16.654 6.3754 14.0506 7.48698 14.0506 7.63572C14.0506 8.99256 14.5618 11.5407 17.0618 11.5407C19.1056 11.5407 17.1434 13.8816 19.5711 16.0574C21.9987 18.2332 24.5897 17.4788 25.5934 16.0574C26.5992 14.6366 25.9144 12.9942 25.0915 12.5444C24.0784 11.9905 25.4175 10.9271 25.5874 9.83824C25.7555 8.74752 25.8719 7.51241 24.6256 6.3754C23.7934 5.61657 22.3713 4.8411 21.0766 4.97771C20.2448 5.06549 18.5936 5.53529 17.5636 5.98141Z" fill="#898989"/>
<path d="M17.5636 5.98141C16.654 6.3754 14.0506 7.48698 14.0506 7.63572C14.0506 8.99256 14.5618 11.5407 17.0618 11.5407C19.1056 11.5407 17.1434 13.8816 19.5711 16.0574C21.9987 18.2332 24.5897 17.4788 25.5934 16.0574C26.5992 14.6366 25.9144 12.9942 25.0915 12.5444C24.0784 11.9905 25.4175 10.9271 25.5874 9.83824C25.7555 8.74752 25.8719 7.51241 24.6256 6.3754C23.7934 5.61657 22.3713 4.8411 21.0766 4.97771C20.2448 5.06549 18.5936 5.53529 17.5636 5.98141Z" fill="white" fill-opacity="0.2"/>
<path d="M8.67117 17.3754C6.68606 17.7407 5.01717 19.5705 5.01716 20.5157L8.02831 31.6151C8.02831 31.6151 10.4971 33.4283 13.0165 34.0575C15.5359 34.6866 21.5165 35.644 21.5165 32.5575C21.5165 31.4253 19.6501 31.0817 19.3949 30.2649C19.1398 29.4482 21.1657 29.0771 22.3028 27.4685C22.9603 26.5385 23.0135 23.9125 20.4957 23.2666C17.7765 22.569 15.5719 24.7736 14.861 23.8298C14.15 22.886 15.2339 22.2535 14.6628 20.5157C13.9427 18.3245 12.221 16.7223 8.67117 17.3754Z" fill="#898989"/>
<path d="M8.67117 17.3754C6.68606 17.7407 5.01717 19.5705 5.01716 20.5157L8.02831 31.6151C8.02831 31.6151 10.4971 33.4283 13.0165 34.0575C15.5359 34.6866 21.5165 35.644 21.5165 32.5575C21.5165 31.4253 19.6501 31.0817 19.3949 30.2649C19.1398 29.4482 21.1657 29.0771 22.3028 27.4685C22.9603 26.5385 23.0135 23.9125 20.4957 23.2666C17.7765 22.569 15.5719 24.7736 14.861 23.8298C14.15 22.886 15.2339 22.2535 14.6628 20.5157C13.9427 18.3245 12.221 16.7223 8.67117 17.3754Z" fill="white" fill-opacity="0.2"/>
</svg>
