<svg width="50" height="50" viewBox="0 0 50 50" fill="none" xmlns="http://www.w3.org/2000/svg">
<path d="M5.96801 26.9831C3.77516 30.8224 2.6571 35.7823 2.37218 37.7822C2.37257 38.7537 2.47639 41.1082 2.88851 42.7542C3.30062 44.4001 4.57668 46.0823 5.46181 47.0411C6.34694 48 8.30818 48.2766 10.0912 48.4145C12.32 48.5869 17.8906 45.9318 20.8044 44.3901C23.7183 42.8483 30 39 33 36C35.5933 33.4067 39.485 29.1396 41.027 26.7401C42.6875 24.1562 48 16.5 48.25 13.3709C48.3118 12.5972 47.7361 10.6012 46.5 11C46.5 11.5 46.3 12.3524 45.5 13.3709C44.5 14.644 41.5 15.5 37.5 17.5C33.5 19.5 32.5 20 30.7813 20.905C30.7813 20.905 30 21.5 29 21.5C28 21.5 26.7611 21.2484 25.5952 20.905C24.1378 20.4758 19.7649 17.4739 19.2504 16.9594L16.935 14.644C16.3066 14.9295 15.5 15.5 14.5 16.5C13.5 17.5 8.16086 23.1438 5.96801 26.9831Z" fill="#D0333D"/>
<path d="M5.96801 26.9831C3.77516 30.8224 2.6571 35.7823 2.37218 37.7822C2.37257 38.7537 2.47639 41.1082 2.88851 42.7542C3.30062 44.4001 4.57668 46.0823 5.46181 47.0411C6.34694 48 8.30818 48.2766 10.0912 48.4145C12.32 48.5869 17.8906 45.9318 20.8044 44.3901C23.7183 42.8483 30 39 33 36C35.5933 33.4067 39.485 29.1396 41.027 26.7401C42.6875 24.1562 48 16.5 48.25 13.3709C48.3118 12.5972 47.7361 10.6012 46.5 11C46.5 11.5 46.3 12.3524 45.5 13.3709C44.5 14.644 41.5 15.5 37.5 17.5C33.5 19.5 32.5 20 30.7813 20.905C30.7813 20.905 30 21.5 29 21.5C28 21.5 26.7611 21.2484 25.5952 20.905C24.1378 20.4758 19.7649 17.4739 19.2504 16.9594L16.935 14.644C16.3066 14.9295 15.5 15.5 14.5 16.5C13.5 17.5 8.16086 23.1438 5.96801 26.9831Z" fill="white" fill-opacity="0.4"/>
<path d="M21.1958 11.2871C20.0306 12.8653 19.5844 14.6699 19.5 15.5C20.5139 16.7211 24.2331 19.0568 24.9898 19.5391C25.7464 20.0215 28.5 20 28.5 20C30.4011 16.4237 30.7242 13.6575 32 11.2871C33.5 8.5 37.7329 3.5849 38.6165 3.33113C39.5 3.07736 40.5574 3.28311 40.7632 3.07736C41.0204 2.82016 40.2463 2.21755 39.7303 1.87307C39.2144 1.52858 37.0664 1.09526 35.0918 1.52111C33.1172 1.94697 29.9417 3.22952 27.9686 4.51426C25.9955 5.79899 22.6523 9.3143 21.1958 11.2871Z" fill="#D0333D"/>
<path d="M22 40C28 36.5 33.0971 31.8459 37 26.5C30 31.5 25 34 19.5 36.5C14 39 9.49999 41.5 5.99999 39.5C6.99999 48.5 16.8263 43.018 22 40Z" fill="#D0333D"/>
<path d="M22 40C28 36.5 33.0971 31.8459 37 26.5C30 31.5 25 34 19.5 36.5C14 39 9.49999 41.5 5.99999 39.5C6.99999 48.5 16.8263 43.018 22 40Z" fill="white" fill-opacity="0.6"/>
</svg>
