<svg width="40" height="40" viewBox="0 0 40 40" fill="none" xmlns="http://www.w3.org/2000/svg">
<path d="M12.1739 29.4058L11.5942 26.5073L0 31.7247L11.0145 30.5652L12.1739 29.4058Z" fill="#FEFEFE"/>
<path d="M19.861 32.1297L17.9709 27.6667L26.8492 25.1414L31.2963 27.6826L39.9999 39.2609L19.861 32.1297Z" fill="#FEFEFE"/>
<path d="M26.6666 24.1884L22.6086 20.7101L29.3905 1L26.6666 24.1884Z" fill="#FEFEFE"/>
<path d="M17.9551 26.4119L19.7101 19.5507L25.5787 24.506L17.9551 26.4119Z" fill="#FEFEFE"/>
<path d="M15.6522 36.3623L17.3914 28.8261L19.1305 32.8841L22.029 34.0435L15.6522 36.3623Z" fill="#FEFEFE"/>
<path d="M11.0145 7.95654L8.11597 6.21741L14.4928 36.3623L16.6846 27.6825L17.971 22.4493L11.0145 7.95654Z" fill="#FEFEFE"/>
<path d="M8.06036 10.466L7.26623 6.21741L1.15942 14.3333L8.06036 10.466Z" fill="#FEFEFE"/>
</svg>
