<svg width="50" height="50" viewBox="0 0 50 50" fill="none" xmlns="http://www.w3.org/2000/svg">
<path d="M11.5 12C11.9298 8.12202 12.2154 3.01978 12.9317 1C15.5849 1.49875 22.7022 2 27 2C31.2978 2 34.3989 1.40397 36.906 1.00001C37.4432 2.21188 37.5 6.5 38 10.5C38.5515 14.9123 40.4316 44.2684 40.7898 47.5C36.97 49.5 31.2898 49 27.4832 48.2629C27.3041 45.8391 26.4298 16 26 16C25.5702 16 23.1854 45.8391 23.1854 48.2629C19.3054 48.8464 18.2914 49.046 15.9612 49C13.6311 48.954 11.4099 48.5 9.5 48C9.5 47.3941 11.0702 15.878 11.5 12Z" fill="#7445B8"/>
<path d="M11.5 12C11.9298 8.12202 12.2154 3.01978 12.9317 1C15.5849 1.49875 22.7022 2 27 2C31.2978 2 34.3989 1.40397 36.906 1.00001C37.4432 2.21188 37.5 6.5 38 10.5C38.5515 14.9123 40.4316 44.2684 40.7898 47.5C36.97 49.5 31.2898 49 27.4832 48.2629C27.3041 45.8391 26.4298 16 26 16C25.5702 16 23.1854 45.8391 23.1854 48.2629C19.3054 48.8464 18.2914 49.046 15.9612 49C13.6311 48.954 11.4099 48.5 9.5 48C9.5 47.3941 11.0702 15.878 11.5 12Z" fill="black" fill-opacity="0.2"/>
<path d="M12.6715 2.5C20.5 4 31.5 4 37.1695 2.5" stroke="#7445B8" stroke-width="0.6"/>
<path d="M23.8978 3.30444C23.8978 6.28601 23.8618 8.72218 24.7826 9.93842C25.6855 11.131 26.438 11.131 26.5884 11.131V3.37898" stroke="#7445B8" stroke-width="0.6"/>
<path d="M16.5541 11.26L11.9023 10.8706C11.6271 10.8475 11.3854 11.0519 11.3623 11.3271L10.6533 19.7975C10.6302 20.0727 10.8346 20.3144 11.1098 20.3375L15.7616 20.7269C16.0368 20.7499 16.2786 20.5455 16.3016 20.2703L17.0107 11.8C17.0337 11.5248 16.8293 11.283 16.5541 11.26Z" fill="#7445B8"/>
<path d="M16.5541 11.26L11.9023 10.8706C11.6271 10.8475 11.3854 11.0519 11.3623 11.3271L10.6533 19.7975C10.6302 20.0727 10.8346 20.3144 11.1098 20.3375L15.7616 20.7269C16.0368 20.7499 16.2786 20.5455 16.3016 20.2703L17.0107 11.8C17.0337 11.5248 16.8293 11.283 16.5541 11.26Z" fill="white" fill-opacity="0.2"/>
<path d="M37.9955 10.8433L35.0752 11.1493C34.8005 11.1781 34.6012 11.4241 34.63 11.6987L35.5158 20.1524C35.5446 20.4271 35.7905 20.6264 36.0652 20.5976L38.9855 20.2916C39.2601 20.2628 39.4594 20.0168 39.4306 19.7422L38.5448 11.2885C38.5161 11.0138 38.2701 10.8145 37.9955 10.8433Z" fill="#7445B8"/>
<path d="M37.9955 10.8433L35.0752 11.1493C34.8005 11.1781 34.6012 11.4241 34.63 11.6987L35.5158 20.1524C35.5446 20.4271 35.7905 20.6264 36.0652 20.5976L38.9855 20.2916C39.2601 20.2628 39.4594 20.0168 39.4306 19.7422L38.5448 11.2885C38.5161 11.0138 38.2701 10.8145 37.9955 10.8433Z" fill="white" fill-opacity="0.2"/>
<path d="M15.1536 29.4445L10.7907 29.0793C10.5156 29.0563 10.2738 29.2607 10.2508 29.5359L9.54168 38.0062C9.51865 38.2814 9.72305 38.5232 9.99823 38.5462L14.3611 38.9114C14.6363 38.9345 14.8781 38.7301 14.9011 38.4549L15.6102 29.9845C15.6332 29.7093 15.4288 29.4676 15.1536 29.4445Z" fill="#7445B8"/>
<path d="M15.1536 29.4445L10.7907 29.0793C10.5156 29.0563 10.2738 29.2607 10.2508 29.5359L9.54168 38.0062C9.51865 38.2814 9.72305 38.5232 9.99823 38.5462L14.3611 38.9114C14.6363 38.9345 14.8781 38.7301 14.9011 38.4549L15.6102 29.9845C15.6332 29.7093 15.4288 29.4676 15.1536 29.4445Z" fill="white" fill-opacity="0.2"/>
<path d="M39.3838 29.0521L36.4923 29.3551C36.2177 29.3839 36.0184 29.6299 36.0472 29.9045L36.933 38.3582C36.9617 38.6329 37.2077 38.8322 37.4823 38.8034L40.3739 38.5004C40.6485 38.4716 40.8478 38.2257 40.819 37.951L39.9332 29.4973C39.9044 29.2227 39.6585 29.0234 39.3838 29.0521Z" fill="#7445B8"/>
<path d="M39.3838 29.0521L36.4923 29.3551C36.2177 29.3839 36.0184 29.6299 36.0472 29.9045L36.933 38.3582C36.9617 38.6329 37.2077 38.8322 37.4823 38.8034L40.3739 38.5004C40.6485 38.4716 40.8478 38.2257 40.819 37.951L39.9332 29.4973C39.9044 29.2227 39.6585 29.0234 39.3838 29.0521Z" fill="white" fill-opacity="0.2"/>
<path d="M11.4512 13.8599L17 14.1402" stroke="#7445B8" stroke-width="0.6"/>
<path d="M10.1 32L15.6487 32.2803" stroke="#7445B8" stroke-width="0.6"/>
<path d="M38.9344 13.4138L35 13.8751" stroke="#7445B8" stroke-width="0.570991"/>
<path d="M40.15 31.6255L36.2266 32.1948" stroke="#7445B8" stroke-width="0.570991"/>
</svg>
