<svg width="50" height="50" viewBox="0 0 50 50" fill="none" xmlns="http://www.w3.org/2000/svg">
<path d="M25.9643 2.5C22.5357 2.5 20.0714 1.5 19 1L26.5 18L31.5 1L31.4781 1.01531C30.7574 1.52011 29.3582 2.5 25.9643 2.5Z" fill="#898989"/>
<path d="M7.5 36L2.5 35C2.5 21.1918 7.66179 6.12381 8.5 4.94521C9.33821 3.76661 18 1.5 19 1C20.0156 2.33561 24.3368 2.71097 25 3.63014C25.5 4.32313 25.5 8.5 26.5 11.5C27 9 26.5799 4.28767 27 3.63014C27.8403 2.31507 30.5096 2.30249 31.5 1C32.5 1.5 39.5 3.63014 40.5 4.94521C41.5 6.26027 47.5 24 46.5 35L42 36C38.5 28.5 38 18 38 18C38 24.5 38.1496 29.9091 38.5 33.7273C38.9964 39.137 39 43 40 46.3699C37 48.3425 31.5 49 25 49C17.5 49 11.5 47.5485 9 46.3699C10.5 43 11.4286 38.0909 12 33.7273C12.5 29.9091 12 24.5 12 18C12 18 11 29 7.5 36Z" fill="#898989"/>
<path d="M7.5 36L2.5 35C2.5 21.1918 7.66179 6.12381 8.5 4.94521C9.33821 3.76661 18 1.5 19 1C20.0156 2.33561 24.3368 2.71097 25 3.63014C25.5 4.32313 25.5 8.5 26.5 11.5C27 9 26.5799 4.28767 27 3.63014C27.8403 2.31507 30.5096 2.30249 31.5 1C32.5 1.5 39.5 3.63014 40.5 4.94521C41.5 6.26027 47.5 24 46.5 35L42 36C38.5 28.5 38 18 38 18C38 24.5 38.1496 29.9091 38.5 33.7273C38.9964 39.137 39 43 40 46.3699C37 48.3425 31.5 49 25 49C17.5 49 11.5 47.5485 9 46.3699C10.5 43 11.4286 38.0909 12 33.7273C12.5 29.9091 12 24.5 12 18C12 18 11 29 7.5 36Z" fill="white" fill-opacity="0.8"/>
<path d="M8.5 37C5.53743 36.7696 4.00862 36.4297 1.5 35.5L2 31.5C4.9156 32.4254 6.5539 32.8563 9.5 33L8.5 37Z" fill="#898989"/>
<path d="M8.5 37C5.53743 36.7696 4.00862 36.4297 1.5 35.5L2 31.5C4.9156 32.4254 6.5539 32.8563 9.5 33L8.5 37Z" fill="white" fill-opacity="0.6"/>
<path d="M41.5 36.9999C44.3348 36.8343 45.8941 36.6902 48 35.2856L47.0714 31.2856C44.7002 32.4669 43.2316 32.7637 40.5 33L41.5 36.9999Z" fill="#898989"/>
<path d="M41.5 36.9999C44.3348 36.8343 45.8941 36.6902 48 35.2856L47.0714 31.2856C44.7002 32.4669 43.2316 32.7637 40.5 33L41.5 36.9999Z" fill="white" fill-opacity="0.6"/>
<path d="M11 20.0938C12.8529 15.9183 10.8472 8.50027 10 3.5L15.794 2C16.9607 9.09502 24.0879 17.3101 24.7055 20.0938C25.3232 22.8774 25.3232 36.0998 24.7055 39.5793C24.1241 42.8549 18.1468 43.5877 9.5 41.5C10 38 11 32.9296 11 30.8266V20.0938Z" fill="#7445B8"/>
<path d="M11 20.0938C12.8529 15.9183 10.8472 8.50027 10 3.5L15.794 2C16.9607 9.09502 24.0879 17.3101 24.7055 20.0938C25.3232 22.8774 25.3232 36.0998 24.7055 39.5793C24.1241 42.8549 18.1468 43.5877 9.5 41.5C10 38 11 32.9296 11 30.8266V20.0938Z" fill="white" fill-opacity="0.4"/>
<path d="M28.4113 39.5793C27.7937 37.4916 27.7937 22.1815 28.4113 20.0938C29.029 18.006 33.6537 9.24806 35 2L39.0303 3.5C38.3668 8.39897 37.1774 15.9183 39.0303 20.0938C39.2361 22.8774 39.5 29.4171 39.5 31.5C39.5 35.0371 40.0882 39.6803 40.5 42C35 43.5 29.7516 44.1097 28.4113 39.5793Z" fill="#7445B8"/>
<path d="M28.4113 39.5793C27.7937 37.4916 27.7937 22.1815 28.4113 20.0938C29.029 18.006 33.6537 9.24806 35 2L39.0303 3.5C38.3668 8.39897 37.1774 15.9183 39.0303 20.0938C39.2361 22.8774 39.5 29.4171 39.5 31.5C39.5 35.0371 40.0882 39.6803 40.5 42C35 43.5 29.7516 44.1097 28.4113 39.5793Z" fill="white" fill-opacity="0.4"/>
<path d="M14 23.5V17C14 16.7239 14.2239 16.5 14.5 16.5H20.5C20.7761 16.5 21 16.7239 21 17V23.5C21 23.7761 20.7761 24 20.5 24H14.5C14.2239 24 14 23.7761 14 23.5Z" fill="#7445B8"/>
<path d="M21 30H13C12.7239 30 12.5 30.2239 12.5 30.5V39C12.5 39.2761 12.7239 39.5 13 39.5H21C21.2761 39.5 21.5 39.2761 21.5 39V30.5C21.5 30.2239 21.2761 30 21 30Z" fill="#7445B8"/>
<path d="M38 30H30.5C30.2239 30 30 30.2239 30 30.5V39C30 39.2761 30.2239 39.5 30.5 39.5H38C38.2761 39.5 38.5 39.2761 38.5 39V30.5C38.5 30.2239 38.2761 30 38 30Z" fill="#7445B8"/>
<path d="M33 16.5H31.5C31.2239 16.5 31 16.7239 31 17V23.5C31 23.7761 31.2239 24 31.5 24H33C33.2761 24 33.5 23.7761 33.5 23.5V17C33.5 16.7239 33.2761 16.5 33 16.5Z" fill="#7445B8"/>
<path d="M34.5 23.5V17C34.5 16.7239 34.7239 16.5 35 16.5H36.5C36.7761 16.5 37 16.7239 37 17V23.5C37 23.7761 36.7761 24 36.5 24H35C34.7239 24 34.5 23.7761 34.5 23.5Z" fill="#7445B8"/>
<path d="M14.329 13.3473L13.0949 6.96552C13.0425 6.6944 13.2198 6.43211 13.4909 6.37968L14.9636 6.0949C15.2347 6.04247 15.497 6.21975 15.5495 6.49087L16.7835 12.8727C16.836 13.1438 16.6587 13.4061 16.3875 13.4585L14.9148 13.7433C14.6437 13.7957 14.3814 13.6184 14.329 13.3473Z" fill="#7445B8"/>
<path d="M14 19H21M12.5 33H21.5M30 33H38.5M31 19H33.5M34.5 19H37" stroke="#898989" stroke-width="0.6"/>
<path d="M14 19H21M12.5 33H21.5M30 33H38.5M31 19H33.5M34.5 19H37" stroke="black" stroke-opacity="0.2" stroke-width="0.6"/>
</svg>
