<svg width="50" height="50" viewBox="0 0 50 50" fill="none" xmlns="http://www.w3.org/2000/svg">
<circle cx="25.0667" cy="25.0665" r="22.4167" stroke="#1D8CE0" stroke-width="0.996296"/>
<circle cx="25.0667" cy="25.0665" r="22.4167" stroke="white" stroke-opacity="0.95" stroke-width="0.996296"/>
<path d="M37.5 37.5001C43 33.0454 45 21.5 38.5745 13.0016C39.2992 19.1626 37.6992 26.8689 32.5142 32.0453C27.3291 37.2217 15.4045 38.4225 11 37.5001C22.5965 45.5482 31.1158 42.671 37.5 37.5001Z" fill="#FEFEFE" fill-opacity="0.15"/>
<path d="M19.1304 32.0543L18.6957 29.8804L10 34L18.2609 32.9239L19.1304 32.0543Z" fill="#FEFEFE"/>
<path d="M24.8958 34.0973L23.4783 30.75L30.137 28.8561L33.4723 30.762L40.0001 40L24.8958 34.0973Z" fill="#FEFEFE"/>
<path d="M30 28.1413L26.9565 25.5326L32.0429 10.75L30 28.1413Z" fill="#FEFEFE"/>
<path d="M23.4663 29.8089L24.7826 24.663L29.184 28.3795L23.4663 29.8089Z" fill="#FEFEFE"/>
<path d="M21.7391 37.2717L23.0435 31.6196L24.3478 34.663L26.5217 35.5326L21.7391 37.2717Z" fill="#FEFEFE"/>
<path d="M18.2608 15.9674L16.0869 14.6631L20.8695 37.2717L22.5134 30.7619L23.4782 26.837L18.2608 15.9674Z" fill="#FEFEFE"/>
<path d="M16.0453 17.8495L15.4497 14.6631L10.8696 20.75L16.0453 17.8495Z" fill="#FEFEFE"/>
<path d="M14.6055 9.12572C11.7649 11.6271 10.6203 15.1035 10.6203 18.0924C11.106 16.033 14.2018 11.8587 17.0962 10.122C19.5595 8.64405 21.5796 7.13312 25.0666 6.63497C21.5796 6.13682 17.4461 6.62428 14.6055 9.12572Z" fill="#FEFEFE"/>
<path d="M34.5 40C37.5 38.5 40.5 35.5 42 30C40 34 37.0518 37.1895 34 39C30.9482 40.8105 27 42.5 21 42C27.5 43.5 30.6529 41.9235 34.5 40Z" fill="#FEFEFE"/>
</svg>
