<svg width="50" height="50" viewBox="0 0 50 50" fill="none" xmlns="http://www.w3.org/2000/svg">
<path d="M22.9148 44.3352C17.4664 44.3352 13.9481 42.3426 13.45 41.3463C12.9518 40.35 12.9518 36.7936 12.9518 36.7936H32.8778C32.8778 38.9191 33.0013 40.3459 32.3796 41.3463C31.389 42.9404 27.8679 44.3352 22.9148 44.3352Z" fill="#898989"/>
<path d="M22.9148 44.3352C17.4664 44.3352 13.9481 42.3426 13.45 41.3463C12.9518 40.35 12.9518 36.7936 12.9518 36.7936H32.8778C32.8778 38.9191 33.0013 40.3459 32.3796 41.3463C31.389 42.9404 27.8679 44.3352 22.9148 44.3352Z" fill="white" fill-opacity="0.6"/>
<path d="M40.2341 22.1313C39.4248 22.0953 38.2497 21.1691 38.732 19.4428C39.2142 17.7164 41.2956 16.4981 43.7233 16.6062C46.1511 16.7142 47.3068 18.0764 48.4819 19.0026C48.4431 19.8748 48.6925 23.3816 46.5335 26.3442C44.3746 29.3068 41.9827 30.4779 39.422 31.2712C37.7776 31.7807 37.3212 32.9256 37.2824 33.7978C37.2436 34.6699 38.0141 35.5781 38.8233 35.6141" stroke="#FEFEFE" stroke-width="2.49074" stroke-linecap="round"/>
<path d="M41.8444 11.0499H3.98517C5.60926 14.8394 6.69198 15.3808 7.7747 19.7117C8.31607 21.8771 7.77471 28.7639 8.85743 32.5535C10.2286 37.3525 13.0428 39.863 15.8951 41.2153C18.7355 42.5618 26.6024 42.5618 29.9706 41.2153C32.9017 40.0434 35.6795 37.4257 37.0083 32.5535C38.5424 26.9283 37.4452 22.9407 38.091 19.7117C38.6324 17.0049 39.679 15.3808 41.8444 11.0499Z" fill="#898989"/>
<path d="M41.8444 11.0499H3.98517C5.60926 14.8394 6.69198 15.3808 7.7747 19.7117C8.31607 21.8771 7.77471 28.7639 8.85743 32.5535C10.2286 37.3525 13.0428 39.863 15.8951 41.2153C18.7355 42.5618 26.6024 42.5618 29.9706 41.2153C32.9017 40.0434 35.6795 37.4257 37.0083 32.5535C38.5424 26.9283 37.4452 22.9407 38.091 19.7117C38.6324 17.0049 39.679 15.3808 41.8444 11.0499Z" fill="white" fill-opacity="0.95"/>
<path d="M41.8444 10.8454C41.8444 13.5337 33.5969 15.802 23.1424 15.802C12.6878 15.802 3.98517 13.5337 3.98517 10.8454C3.98517 8.15709 12.6878 5.97778 23.1424 5.97778C33.5969 5.97778 41.8444 8.15709 41.8444 10.8454Z" fill="#898989"/>
<path d="M41.8444 10.8454C41.8444 13.5337 33.5969 15.802 23.1424 15.802C12.6878 15.802 3.98517 13.5337 3.98517 10.8454C3.98517 8.15709 12.6878 5.97778 23.1424 5.97778C33.5969 5.97778 41.8444 8.15709 41.8444 10.8454Z" fill="white" fill-opacity="0.6"/>
<path d="M41.8444 10.8454C41.8444 13.5337 33.5969 15.802 23.1424 15.802C12.6878 15.802 3.98517 13.5337 3.98517 10.8454C3.98517 8.15709 12.6878 5.97778 23.1424 5.97778C33.5969 5.97778 41.8444 8.15709 41.8444 10.8454Z" stroke="#FEFEFE" stroke-width="1.49444"/>
<path d="M37 13.4304C37 13.0805 29.3513 11.9305 23 11.9305C16.6487 11.9305 9 13.0805 9 13.4304C9 13.7804 15 15.2305 23 15.2305C32 15.2305 37 13.7804 37 13.4304Z" fill="#FAA21E"/>
<path d="M37 13.4304C37 13.0805 29.3513 11.9305 23 11.9305C16.6487 11.9305 9 13.0805 9 13.4304C9 13.7804 15 15.2305 23 15.2305C32 15.2305 37 13.7804 37 13.4304Z" fill="white" fill-opacity="0.4"/>
<path d="M19.087 31.7029L18.7971 30.2537L13 33L18.5072 32.2826L19.087 31.7029Z" fill="#898989"/>
<path d="M19.087 31.7029L18.7971 30.2537L13 33L18.5072 32.2826L19.087 31.7029Z" fill="white" fill-opacity="0.2"/>
<path d="M22.9305 33.0648L21.9855 30.8333L26.4246 29.5707L28.6482 30.8413L33 37L22.9305 33.0648Z" fill="#898989"/>
<path d="M22.9305 33.0648L21.9855 30.8333L26.4246 29.5707L28.6482 30.8413L33 37L22.9305 33.0648Z" fill="white" fill-opacity="0.2"/>
<path d="M26.3333 29.0942L24.3043 27.3551L27.6952 17.5L26.3333 29.0942Z" fill="#898989"/>
<path d="M26.3333 29.0942L24.3043 27.3551L27.6952 17.5L26.3333 29.0942Z" fill="white" fill-opacity="0.2"/>
<path d="M21.9775 30.206L22.855 26.7754L25.7893 29.253L21.9775 30.206Z" fill="#898989"/>
<path d="M21.9775 30.206L22.855 26.7754L25.7893 29.253L21.9775 30.206Z" fill="white" fill-opacity="0.2"/>
<path d="M20.8261 35.1812L21.6956 31.4131L22.5652 33.4421L24.0145 34.0218L20.8261 35.1812Z" fill="#898989"/>
<path d="M20.8261 35.1812L21.6956 31.4131L22.5652 33.4421L24.0145 34.0218L20.8261 35.1812Z" fill="white" fill-opacity="0.2"/>
<path d="M18.5073 20.9783L17.058 20.1087L20.2464 35.1812L21.3423 30.8413L21.9855 28.2246L18.5073 20.9783Z" fill="#898989"/>
<path d="M18.5073 20.9783L17.058 20.1087L20.2464 35.1812L21.3423 30.8413L21.9855 28.2246L18.5073 20.9783Z" fill="white" fill-opacity="0.2"/>
<path d="M17.0302 22.233L16.6331 20.1087L13.5797 24.1667L17.0302 22.233Z" fill="#898989"/>
<path d="M17.0302 22.233L16.6331 20.1087L13.5797 24.1667L17.0302 22.233Z" fill="white" fill-opacity="0.2"/>
</svg>
