<svg width="50" height="50" viewBox="0 0 50 50" fill="none" xmlns="http://www.w3.org/2000/svg">
<g clip-path="url(#clip0_1383_8369)">
<path d="M38 6L33.8325 7.35008C34.8283 11.2594 35.0383 15.7617 37 17.5C38.9915 19.2647 43.5 21 42.5 17.5L38 6Z" fill="#D0333D"/>
<path d="M17.6325 20.7695C19.397 17.7617 20.1724 12.6492 20.9076 8.3881L16.2289 7.91189L9.5 6.5L7 22C7.5 30 15.868 23.7774 17.6325 20.7695Z" fill="#D0333D"/>
<path d="M20 21L22.7096 8.89234H25.5059C25.5059 8.89234 26 9.5 28 9.5C30 9.5 31 8.5 31 8.5L32.4966 7.95361L34.8268 18.7489L29.2731 28.8323L20 21Z" fill="#D0333D"/>
<path d="M20 46.5002C16.9385 46.5357 15.9275 48.3988 12.848 50.1204C12.848 50.1204 9.19361 40.7439 8.50001 37.5005C7.8064 34.257 7 26 7 26C8 27.5005 9.40387 28.0996 11.5 27.5005C15 26.5 18.4759 23.1636 18.7141 22.5775L28.5 30.5005C28.5 30.5005 27.1132 35.7648 26.5 39.5005C25.8868 43.2362 24.0734 49.9903 24.0734 49.9903C22.4087 48.3273 22.348 46.473 20 46.5002Z" fill="#D0333D"/>
<path d="M40.2161 44C38.0706 44.6977 37 46.5 35.0567 47.8868C35.0567 47.8868 33.0189 43.8108 32.0001 39.7356C30.9812 35.6603 30.4718 30.566 30.4718 30.566L36.5 19C36.8434 19.3841 37.7839 20.435 40 21C41.8839 21.4803 42.5787 21.1141 43.3663 21.1303C43.3663 21.1303 44.4039 26.8245 44.3229 30.7623C44.2419 34.7 43.2209 44.934 43.2209 44.934C42.8203 44.2917 41.2131 43.6758 40.2161 44Z" fill="#D0333D"/>
<path d="M16.5 6.5C14.7721 6.06801 11.5404 5.53442 9.5 5L10 0.5C13.0665 1.82563 15.6771 2.23542 17 2.5C19.5 3 23 3 23 3C22.5 4.5 22.7578 5.27344 23 6C23.2422 6.72656 24 7.5 24 7.5C22.5 7.5 18.5 7 16.5 6.5Z" fill="#D0333D"/>
<path d="M16.5 6.5C14.7721 6.06801 11.5404 5.53442 9.5 5L10 0.5C13.0665 1.82563 15.6771 2.23542 17 2.5C19.5 3 23 3 23 3C22.5 4.5 22.7578 5.27344 23 6C23.2422 6.72656 24 7.5 24 7.5C22.5 7.5 18.5 7 16.5 6.5Z" fill="white" fill-opacity="0.8"/>
<path d="M32.5 4.5C32.5 3.7 32 2.5 31.5 2C32.1667 1.83333 33.6515 1.78284 34.5 1.5C36 1 36.5 1 37.5 0L38 4.5C38 4.5 35.8375 5.33125 35.5 5.5C35.1625 5.66875 31.5 7 31.5 7C31.6667 6.66667 32.5 6 32.5 4.5Z" fill="#D0333D"/>
<path d="M32.5 4.5C32.5 3.7 32 2.5 31.5 2C32.1667 1.83333 33.6515 1.78284 34.5 1.5C36 1 36.5 1 37.5 0L38 4.5C38 4.5 35.8375 5.33125 35.5 5.5C35.1625 5.66875 31.5 7 31.5 7C31.6667 6.66667 32.5 6 32.5 4.5Z" fill="white" fill-opacity="0.8"/>
<path d="M31 4.5C31 6.433 29.433 8 27.5 8C25.567 8 24 6.433 24 4.5C24 2.567 25.567 1 27.5 1C29.433 1 31 2.567 31 4.5Z" fill="#D0333D"/>
<path d="M31 4.5C31 6.433 29.433 8 27.5 8C25.567 8 24 6.433 24 4.5C24 2.567 25.567 1 27.5 1C29.433 1 31 2.567 31 4.5Z" fill="white" fill-opacity="0.8"/>
</g>
<defs>
<clipPath id="clip0_1383_8369">
<rect width="50" height="50" fill="white"/>
</clipPath>
</defs>
</svg>
