<svg width="50" height="50" viewBox="0 0 50 50" fill="none" xmlns="http://www.w3.org/2000/svg">
<path d="M46.2438 0.847732C47.3381 0.565197 49 0.499958 49 0.499958L11 38L9.50003 34.5L44.055 1.97788C44.3286 1.69534 45.161 1.12726 46.2438 0.847732Z" fill="#D0333D"/>
<path d="M46.2438 0.847732C47.3381 0.565197 49 0.499958 49 0.499958L11 38L9.50003 34.5L44.055 1.97788C44.3286 1.69534 45.161 1.12726 46.2438 0.847732Z" fill="white" fill-opacity="0.6"/>
<path d="M15.5 40.5L12 39L49.5 0.999985C49.5 0.999985 49.3383 2.59418 49.1691 3.79708C49 4.99998 48.3383 5.74082 48.3383 5.74082L15.5 40.5Z" fill="#D0333D"/>
<path d="M15.5 40.5L12 39L49.5 0.999985C49.5 0.999985 49.3383 2.59418 49.1691 3.79708C49 4.99998 48.3383 5.74082 48.3383 5.74082L15.5 40.5Z" fill="white" fill-opacity="0.6"/>
<path d="M12.2449 37.7551C13.7697 39.2809 17.063 40.6453 18.5151 41.0086C18.7874 41.0994 19.6075 41.8162 19.3319 42.6434C19.0597 43.4608 18.2429 43.4608 17.9706 43.4608L12.7551 41.3265L6.48916 46.7304L5.99021 50L3.2674 50L2.88961e-05 46.7304L2.91343e-05 44.0057L3.2674 43.4608L8.44074 37.194L6.80705 32.0171C6.71629 31.6539 6.7526 30.8728 7.6239 30.6548C8.4952 30.4368 8.89454 31.1089 8.9853 31.4722C9.4391 33.0162 10.7201 36.2293 12.2449 37.7551Z" fill="#D0333D"/>
<path d="M12.2449 37.7551C13.7697 39.2809 17.063 40.6453 18.5151 41.0086C18.7874 41.0994 19.6075 41.8162 19.3319 42.6434C19.0597 43.4608 18.2429 43.4608 17.9706 43.4608L12.7551 41.3265L6.48916 46.7304L5.99021 50L3.2674 50L2.88961e-05 46.7304L2.91343e-05 44.0057L3.2674 43.4608L8.44074 37.194L6.80705 32.0171C6.71629 31.6539 6.7526 30.8728 7.6239 30.6548C8.4952 30.4368 8.89454 31.1089 8.9853 31.4722C9.4391 33.0162 10.7201 36.2293 12.2449 37.7551Z" fill="black" fill-opacity="0.2"/>
</svg>
