<svg width="50" height="50" viewBox="0 0 50 50" fill="none" xmlns="http://www.w3.org/2000/svg">
<path d="M9.73684 2.01379H40V5.01379L41 7.01379H45V48.0138H11.3158C10.7895 48.0138 8.15789 48.0138 6.57895 46.4456C5 44.8774 5 43.3092 5 42.7865V6.71834C5 5.67288 5.73684 4.41834 6.57895 3.58198C7.42105 2.74561 8.68421 2.01379 9.73684 2.01379Z" fill="#D0333D"/>
<path d="M9.73684 2.01379H40V5.01379L41 7.01379H45V48.0138H11.3158C10.7895 48.0138 8.15789 48.0138 6.57895 46.4456C5 44.8774 5 43.3092 5 42.7865V6.71834C5 5.67288 5.73684 4.41834 6.57895 3.58198C7.42105 2.74561 8.68421 2.01379 9.73684 2.01379Z" fill="black" fill-opacity="0.2"/>
<path d="M43 9L40 5V40.0312H38L43 46V9Z" fill="#898989"/>
<path d="M43 9L40 5V40.0312H38L43 46V9Z" fill="white" fill-opacity="0.2"/>
<path d="M10.093 40H38.0001L43.0001 46H10.093C9.58856 46 6.97412 45.0823 6.97412 42.8406C6.97412 40.599 9.58856 40 10.093 40Z" fill="#898989"/>
<path d="M10.093 40H38.0001L43.0001 46H10.093C9.58856 46 6.97412 45.0823 6.97412 42.8406C6.97412 40.599 9.58856 40 10.093 40Z" fill="white" fill-opacity="0.6"/>
<g clip-path="url(#clip0_4815_8341)">
<rect x="11.0796" y="35.9032" width="1.35982" height="10.0555" rx="0.679912" transform="rotate(-141.413 11.0796 35.9032)" fill="#FEFEFE"/>
<rect x="14.5117" y="26.6964" width="1.43649" height="4.75938" rx="0.718247" transform="rotate(-51.4135 14.5117 26.6964)" fill="#FEFEFE"/>
<path d="M30.5956 14.2609C28.033 19.1077 20.1671 25.6955 18.1095 27.7292L16.5151 26.457C19.2864 24.0739 25.5579 16.2139 26.4691 12.3466C28.5267 10.3129 29.7142 8.20219 30.8653 5.74683C30.9905 7.22505 32.4748 10.7065 30.5956 14.2609Z" fill="#FEFEFE"/>
<path d="M30.5642 14.236C28.0043 19.085 20.1233 25.6608 18.0648 27.6937L17.5333 27.2697C20.2629 24.3939 31.796 14.3001 29.1122 8.9426C29.5602 8.38117 30.1904 7.04628 30.8206 5.71138C30.9485 7.19172 32.4415 10.6801 30.5642 14.236Z" fill="#FEFEFE"/>
<path d="M32.1105 28.8433L29.9405 29.5582L26.1106 24.7087L26.9541 23.8785L27.0529 22.7419L32.1105 28.8433Z" fill="#FEFEFE"/>
<path d="M33.8385 26.2833L32.7602 28.2975L27.7076 22.1372L28.6302 21.9162L28.4735 20.254L33.8385 26.2833Z" fill="#FEFEFE"/>
<path d="M32.0288 28.0866C33.02 27.2543 34.0065 25.3566 34.2991 24.5074C34.3675 24.3494 34.8386 23.8964 35.3187 24.1041C35.7931 24.3093 35.7507 24.7975 35.7366 24.9603L34.1901 27.967L37.0949 31.993L39.0234 32.461L38.8821 34.0886L36.758 35.8719L35.1293 35.7304L34.9732 33.7491L31.4959 30.3314L28.3166 31.0391C28.0947 31.0745 27.6297 31.0123 27.5447 30.4801C27.4596 29.948 27.8821 29.7442 28.1039 29.7088C29.0504 29.5177 31.0375 28.9188 32.0288 28.0866Z" fill="#FEFEFE"/>
<path d="M9.82347 11.2419C9.46062 10.7289 9.09869 9.87793 9.09869 9.87793L21.8881 15.6787L21.0342 16.2292L21.0342 17.0983L10.8429 12.1565C10.642 12.0701 10.1825 11.7495 9.82347 11.2419Z" fill="#FEFEFE"/>
<path d="M10.7791 9.13925C11.4377 8.98974 11.9534 9.18747 11.9534 9.18747L22.5338 13.4492L22.1113 14.0052L22.1113 15.1248L9.2599 9.51935C9.2599 9.51935 10.1205 9.28875 10.7791 9.13925Z" fill="#FEFEFE"/>
</g>
<defs>
<clipPath id="clip0_4815_8341">
<rect width="30" height="30" fill="white" transform="translate(9 6)"/>
</clipPath>
</defs>
</svg>
