<svg width="50" height="50" viewBox="0 0 50 50" fill="none" xmlns="http://www.w3.org/2000/svg">
<path d="M36.9999 14.8182V18.4546C37.619 17.697 39.1357 15.7273 42.1071 15.7273C45.8214 15.7273 47.2142 19.8182 47.2142 23C47.2142 26.1818 45.3571 30.2728 42.1071 30.2728C39.5071 30.2728 37.4642 28 36.9999 27.5455V31.1818C37.4642 31.1818 38.3928 33 42.1071 33C46.7499 33 49.9999 28.9091 49.9999 23C49.9999 17.0909 46.7499 13 42.1071 13C38.8571 13 37.4642 14.8182 36.9999 14.8182Z" fill="#898989"/>
<path d="M36.9999 14.8182V18.4546C37.619 17.697 39.1357 15.7273 42.1071 15.7273C45.8214 15.7273 47.2142 19.8182 47.2142 23C47.2142 26.1818 45.3571 30.2728 42.1071 30.2728C39.5071 30.2728 37.4642 28 36.9999 27.5455V31.1818C37.4642 31.1818 38.3928 33 42.1071 33C46.7499 33 49.9999 28.9091 49.9999 23C49.9999 17.0909 46.7499 13 42.1071 13C38.8571 13 37.4642 14.8182 36.9999 14.8182Z" fill="white" fill-opacity="0.95"/>
<path d="M4.99994 7.00003H37.9999V43.5C37.9999 43.5 34.9999 48.5 21.5 48.5C7.99997 48.5 4.99994 43.5 4.99994 43.5V7.00003Z" fill="#898989"/>
<path d="M4.99994 7.00003H37.9999V43.5C37.9999 43.5 34.9999 48.5 21.5 48.5C7.99997 48.5 4.99994 43.5 4.99994 43.5V7.00003Z" fill="white" fill-opacity="0.85"/>
<ellipse cx="21.4999" cy="6.50003" rx="16.5" ry="4.5" fill="#FEFEFE"/>
<ellipse cx="21.4999" cy="6.50003" rx="14.5" ry="3.5" fill="#898989"/>
<ellipse cx="21.4999" cy="6.50003" rx="14.5" ry="3.5" fill="white" fill-opacity="0.4"/>
<path d="M32.9999 8.50003C32.9999 8.00003 27.8512 7.00003 21.4999 7.00003C15.1487 7.00003 9.99994 8.00003 9.99994 8.50003C9.99994 9.00003 15.1487 10 21.4999 10C27.8512 10 32.9999 9.00003 32.9999 8.50003Z" fill="#FAA21E"/>
<path d="M32.9999 8.50003C32.9999 8.00003 27.8512 7.00003 21.4999 7.00003C15.1487 7.00003 9.99994 8.00003 9.99994 8.50003C9.99994 9.00003 15.1487 10 21.4999 10C27.8512 10 32.9999 9.00003 32.9999 8.50003Z" fill="black" fill-opacity="0.6"/>
<path d="M20.8296 15.1593L23.516 21.6737L30.022 18.9669L27.3152 25.4729L33.8296 28.1593L27.3152 30.8457L30.022 37.3517L23.516 34.6449L20.8296 41.1593L18.1432 34.6449L11.6372 37.3517L14.344 30.8457L7.82959 28.1593L14.344 25.4729L11.6372 18.9669L18.1432 21.6737L20.8296 15.1593Z" fill="#FAA21E"/>
<path d="M20.8296 15.1593L23.516 21.6737L30.022 18.9669L27.3152 25.4729L33.8296 28.1593L27.3152 30.8457L30.022 37.3517L23.516 34.6449L20.8296 41.1593L18.1432 34.6449L11.6372 37.3517L14.344 30.8457L7.82959 28.1593L14.344 25.4729L11.6372 18.9669L18.1432 21.6737L20.8296 15.1593Z" fill="white" fill-opacity="0.2"/>
<ellipse cx="21.8455" cy="25.5308" rx="2.50786" ry="8.07686" transform="rotate(22.5 21.8455 25.5308)" fill="#D0333D"/>
<circle cx="17.2069" cy="36.5367" r="2.5" transform="rotate(22.5 17.2069 36.5367)" fill="#D0333D"/>
</svg>
