<svg width="50" height="50" viewBox="0 0 50 50" fill="none" xmlns="http://www.w3.org/2000/svg">
<g clip-path="url(#clip0_4539_6671)">
<path d="M9.73684 2.01379H40V5.01379L41 7.01379H45V48.0138H11.3158C10.7895 48.0138 8.15789 48.0138 6.57895 46.4456C5 44.8774 5 43.3092 5 42.7865V6.71834C5 5.67288 5.73684 4.41834 6.57895 3.58198C7.42105 2.74561 8.68421 2.01379 9.73684 2.01379Z" fill="#1D8CE0"/>
<path d="M43 9L40 5V40.0312H38L43 46V9Z" fill="#898989"/>
<path d="M43 9L40 5V40.0312H38L43 46V9Z" fill="white" fill-opacity="0.2"/>
<path d="M10.093 40H38.0001L43.0001 46H10.093C9.58856 46 6.97412 45.0823 6.97412 42.8406C6.97412 40.599 9.58856 40 10.093 40Z" fill="#898989"/>
<path d="M10.093 40H38.0001L43.0001 46H10.093C9.58856 46 6.97412 45.0823 6.97412 42.8406C6.97412 40.599 9.58856 40 10.093 40Z" fill="white" fill-opacity="0.6"/>
<g clip-path="url(#clip1_4539_6671)">
<path d="M21.72 9.16003C21.72 8.20003 22.5733 6.81336 23 6.28003C23.4266 6.81336 24.28 8.20003 24.28 9.16003C24.28 10.12 23.4266 10.5467 23 10.76C22.5733 10.5467 21.72 10.12 21.72 9.16003Z" fill="#FEFEFE"/>
<path d="M24.28 32.84C24.28 33.8 23.4267 35.1866 23 35.72C22.5734 35.1866 21.72 33.8 21.72 32.84C21.72 31.88 22.5734 31.4533 23 31.24C23.4267 31.4533 24.28 31.88 24.28 32.84Z" fill="#FEFEFE"/>
<path d="M34.84 19.72C35.8 19.72 37.1866 20.5733 37.72 21C37.1866 21.4266 35.8 22.28 34.84 22.28C33.88 22.28 33.4533 21.4266 33.24 21C33.4533 20.5733 33.88 19.72 34.84 19.72Z" fill="#FEFEFE"/>
<path d="M11.16 22.28C10.2 22.28 8.81336 21.4267 8.28003 21C8.81336 20.5734 10.2 19.72 11.16 19.72C12.12 19.72 12.5467 20.5734 12.76 21C12.5467 21.4267 12.12 22.28 11.16 22.28Z" fill="#FEFEFE"/>
<path d="M27.8115 10.1062C28.2915 9.27483 29.7238 8.50061 30.36 8.25206C30.4628 8.92727 30.5085 10.5548 30.0285 11.3862C29.5485 12.2176 28.5961 12.1604 28.12 12.1319C27.8571 11.7338 27.3315 10.9376 27.8115 10.1062Z" fill="#FEFEFE"/>
<path d="M18.1885 31.8938C17.7085 32.7252 16.2762 33.4994 15.64 33.7479C15.5372 33.0727 15.4915 31.4452 15.9715 30.6138C16.4515 29.7824 17.4039 29.8396 17.88 29.8681C18.1429 30.2662 18.6685 31.0624 18.1885 31.8938Z" fill="#FEFEFE"/>
<path d="M33.8938 25.8115C34.7252 26.2915 35.4994 27.7238 35.7479 28.36C35.0727 28.4628 33.4452 28.5085 32.6138 28.0285C31.7824 27.5485 31.8396 26.5961 31.8681 26.12C32.2662 25.8571 33.0624 25.3315 33.8938 25.8115Z" fill="#FEFEFE"/>
<path d="M12.1062 16.1885C11.2748 15.7085 10.5006 14.2762 10.2521 13.64C10.9273 13.5372 12.5548 13.4915 13.3862 13.9715C14.2176 14.4515 14.1604 15.4039 14.1319 15.88C13.7338 16.1429 12.9376 16.6685 12.1062 16.1885Z" fill="#FEFEFE"/>
<path d="M15.9715 11.3862C15.4915 10.5549 15.5372 8.9273 15.64 8.25209C16.2762 8.50064 17.7085 9.27486 18.1885 10.1062C18.6685 10.9376 18.1428 11.7338 17.88 12.1319C17.4038 12.1605 16.4515 12.2176 15.9715 11.3862Z" fill="#FEFEFE"/>
<path d="M30.0285 30.6138C30.5085 31.4451 30.4628 33.0727 30.36 33.7479C29.7238 33.4994 28.2915 32.7251 27.8115 31.8938C27.3315 31.0624 27.8572 30.2662 28.12 29.8681C28.5962 29.8395 29.5485 29.7824 30.0285 30.6138Z" fill="#FEFEFE"/>
<path d="M32.6138 13.9715C33.4451 13.4915 35.0727 13.5372 35.7479 13.64C35.4994 14.2762 34.7251 15.7085 33.8938 16.1885C33.0624 16.6685 32.2662 16.1428 31.8681 15.88C31.8395 15.4038 31.7824 14.4515 32.6138 13.9715Z" fill="#FEFEFE"/>
<path d="M13.3862 28.0285C12.5549 28.5085 10.9273 28.4628 10.2521 28.36C10.5006 27.7238 11.2749 26.2915 12.1062 25.8115C12.9376 25.3315 13.7338 25.8572 14.1319 26.12C14.1605 26.5962 14.2176 27.5485 13.3862 28.0285Z" fill="#FEFEFE"/>
<circle cx="26.0644" cy="9.56343" r="0.32" transform="rotate(15 26.0644 9.56343)" fill="#FEFEFE"/>
<circle cx="19.9356" cy="32.4365" r="0.32" transform="rotate(15 19.9356 32.4365)" fill="#FEFEFE"/>
<circle cx="34.4366" cy="24.0644" r="0.32" transform="rotate(105 34.4366 24.0644)" fill="#FEFEFE"/>
<circle cx="11.5635" cy="17.9356" r="0.32" transform="rotate(105 11.5635 17.9356)" fill="#FEFEFE"/>
<circle cx="31.3721" cy="12.6278" r="0.32" transform="rotate(45 31.3721 12.6278)" fill="#FEFEFE"/>
<circle cx="14.6279" cy="29.3721" r="0.32" transform="rotate(45 14.6279 29.3721)" fill="#FEFEFE"/>
<circle cx="31.3722" cy="29.3721" r="0.32" transform="rotate(135 31.3722 29.3721)" fill="#FEFEFE"/>
<circle cx="14.6279" cy="12.6278" r="0.32" transform="rotate(135 14.6279 12.6278)" fill="#FEFEFE"/>
<circle cx="19.9356" cy="9.56343" r="0.32" transform="rotate(-15 19.9356 9.56343)" fill="#FEFEFE"/>
<circle cx="26.0644" cy="32.4365" r="0.32" transform="rotate(-15 26.0644 32.4365)" fill="#FEFEFE"/>
<circle cx="34.4366" cy="17.9355" r="0.32" transform="rotate(75 34.4366 17.9355)" fill="#FEFEFE"/>
<circle cx="11.5634" cy="24.0644" r="0.32" transform="rotate(75 11.5634 24.0644)" fill="#FEFEFE"/>
<circle cx="12.12" cy="10.12" r="0.64" fill="#FEFEFE"/>
<circle cx="33.88" cy="10.12" r="0.64" fill="#FEFEFE"/>
<circle cx="12.12" cy="31.88" r="0.64" fill="#FEFEFE"/>
<circle cx="33.88" cy="31.88" r="0.64" fill="#FEFEFE"/>
<circle cx="19.0176" cy="6.13756" r="0.64" transform="rotate(30 19.0176 6.13756)" fill="#FEFEFE"/>
<circle cx="37.8624" cy="17.0176" r="0.64" transform="rotate(30 37.8624 17.0176)" fill="#FEFEFE"/>
<circle cx="8.13758" cy="24.9823" r="0.64" transform="rotate(30 8.13758 24.9823)" fill="#FEFEFE"/>
<circle cx="26.9824" cy="35.8623" r="0.64" transform="rotate(30 26.9824 35.8623)" fill="#FEFEFE"/>
<circle cx="8.13756" cy="17.0176" r="0.64" transform="rotate(-30 8.13756 17.0176)" fill="#FEFEFE"/>
<circle cx="26.9824" cy="6.13758" r="0.64" transform="rotate(-30 26.9824 6.13758)" fill="#FEFEFE"/>
<circle cx="19.0176" cy="35.8623" r="0.64" transform="rotate(-30 19.0176 35.8623)" fill="#FEFEFE"/>
<circle cx="37.8624" cy="24.9823" r="0.64" transform="rotate(-30 37.8624 24.9823)" fill="#FEFEFE"/>
<path d="M23.0001 12.6801L24.7194 16.8492L28.8832 15.1169L27.1509 19.2807L31.3201 21.0001L27.1509 22.7194L28.8832 26.8832L24.7194 25.1509L23.0001 29.3201L21.2807 25.1509L17.1169 26.8832L18.8492 22.7194L14.6801 21.0001L18.8492 19.2807L17.1169 15.1169L21.2807 16.8492L23.0001 12.6801Z" fill="#1D8CE0"/>
<path d="M23.0001 12.6801L24.7194 16.8492L28.8832 15.1169L27.1509 19.2807L31.3201 21.0001L27.1509 22.7194L28.8832 26.8832L24.7194 25.1509L23.0001 29.3201L21.2807 25.1509L17.1169 26.8832L18.8492 22.7194L14.6801 21.0001L18.8492 19.2807L17.1169 15.1169L21.2807 16.8492L23.0001 12.6801Z" fill="white" fill-opacity="0.4"/>
<ellipse cx="23.6502" cy="19.3178" rx="1.60503" ry="5.16919" transform="rotate(22.5 23.6502 19.3178)" fill="#1D8CE0"/>
<ellipse cx="23.6502" cy="19.3178" rx="1.60503" ry="5.16919" transform="rotate(22.5 23.6502 19.3178)" fill="white" fill-opacity="0.95"/>
<circle cx="20.6816" cy="26.3615" r="1.6" transform="rotate(22.5 20.6816 26.3615)" fill="#1D8CE0"/>
<circle cx="20.6816" cy="26.3615" r="1.6" transform="rotate(22.5 20.6816 26.3615)" fill="white" fill-opacity="0.95"/>
</g>
</g>
<defs>
<clipPath id="clip0_4539_6671">
<rect width="50" height="50" fill="white" transform="matrix(-1 0 0 1 50 0)"/>
</clipPath>
<clipPath id="clip1_4539_6671">
<rect width="32" height="32" fill="white" transform="matrix(-1 0 0 1 39 5)"/>
</clipPath>
</defs>
</svg>
