<svg width="50" height="50" viewBox="0 0 50 50" fill="none" xmlns="http://www.w3.org/2000/svg">
<g clip-path="url(#clip0_5954_9643)">
<path d="M6.87003 40.5157L3.82456 30.5641L17.912 40.5491L6.87003 40.5157Z" fill="#CE4317"/>
<path d="M6.87003 40.5157L3.82456 30.5641L17.912 40.5491L6.87003 40.5157Z" fill="black" fill-opacity="0.3"/>
<path d="M25.8002 41.6663L23.8275 31.5438L17.912 40.5492L22.7461 48.7422L25.8002 41.6663Z" fill="#CE4317"/>
<path d="M25.8002 41.6663L23.8275 31.5438L17.912 40.5492L22.7461 48.7422L25.8002 41.6663Z" fill="white" fill-opacity="0.15"/>
<path d="M17.9119 40.5489L6.86993 40.5155L22.746 48.742L17.9119 40.5489Z" fill="#CE4317"/>
<path d="M17.9119 40.5489L6.86993 40.5155L22.746 48.742L17.9119 40.5489Z" fill="black" fill-opacity="0.5"/>
<path d="M9.83243 26.4105L3.82441 30.5638L17.9118 40.5488L23.8275 31.5437L9.83243 26.4105Z" fill="#CE4317"/>
<path d="M9.83243 26.4105L3.82441 30.5638L17.9118 40.5488L23.8275 31.5437L9.83243 26.4105Z" fill="black" fill-opacity="0.15"/>
<path d="M33.3908 44.6531L41.4166 33.0391L37.7453 29.1571L30.3996 31.7333L33.3908 44.6531Z" fill="#CE4317"/>
<path d="M33.3908 44.6531L41.4166 33.0391L37.7453 29.1571L30.3996 31.7333L33.3908 44.6531Z" fill="white" fill-opacity="0.15"/>
<path d="M42.7957 37.2848L33.3908 44.6529L41.4166 33.0389L46.7575 28.196L42.7957 37.2848Z" fill="#CE4317"/>
<path d="M42.7957 37.2848L33.3908 44.6529L41.4166 33.0389L46.7575 28.196L42.7957 37.2848Z" fill="black" fill-opacity="0.3"/>
<path d="M30.3996 31.7332L37.7454 29.1569L39.9897 15.1709L30.3996 31.7332Z" fill="#CE4317"/>
<path d="M41.4166 33.039L46.7575 28.1961L39.9896 15.171L37.7453 29.157L41.4166 33.039Z" fill="#CE4317"/>
<path d="M41.4166 33.039L46.7575 28.1961L39.9896 15.171L37.7453 29.157L41.4166 33.039Z" fill="black" fill-opacity="0.15"/>
<path d="M14.3937 15.793L18.507 2.32713L21.6649 17.6984L17.1905 22.4397L14.3937 15.793Z" fill="#CE4317"/>
<path d="M14.3937 15.793L18.507 2.32713L21.6649 17.6984L17.1905 22.4397L14.3937 15.793Z" fill="black" fill-opacity="0.15"/>
<path d="M26.7992 9.51995L18.5068 2.32711L21.6648 17.6984L25.8954 19.5291L28.8967 14.505L26.7992 9.51995Z" fill="#CE4317"/>
<path d="M26.7992 9.51995L18.5068 2.32711L21.6648 17.6984L25.8954 19.5291L28.8967 14.505L26.7992 9.51995Z" fill="black" fill-opacity="0.3"/>
<path d="M21.6647 17.6984L17.1903 22.4397L26.2566 28.2537L25.8954 19.5291L21.6647 17.6984Z" fill="#CE4317"/>
<path d="M21.6647 17.6984L17.1903 22.4397L26.2566 28.2537L25.8954 19.5291L21.6647 17.6984Z" fill="white" fill-opacity="0.15"/>
<path d="M28.8967 14.505L25.8953 19.5291L26.2565 28.2538L28.8967 14.505Z" fill="#CE4317"/>
<path d="M18 18C20.625 17.6 20.625 17.2 21 14C21.375 17.2 21.375 17.6 24 18C21.375 18.4 21.375 18.8 21 22C20.625 18.8 20.625 18.4 18 18Z" fill="#CE4317"/>
<path d="M18 18C20.625 17.6 20.625 17.2 21 14C21.375 17.2 21.375 17.6 24 18C21.375 18.4 21.375 18.8 21 22C20.625 18.8 20.625 18.4 18 18Z" fill="white" fill-opacity="0.8"/>
<path d="M32 30C38 29.5 37.5 29.5 38 23C38.5 29.5 38 29.5 44 30C38 30.5 38.5 30.5 38 37C37.5 30.5 38 30.5 32 30Z" fill="#FEFEFE"/>
<path d="M15 41C17.625 40.6 17.625 40.2 18 37C18.375 40.2 18.375 40.6 21 41C18.375 41.4 18.375 41.8 18 45C17.625 41.8 17.625 41.4 15 41Z" fill="#CE4317"/>
<path d="M15 41C17.625 40.6 17.625 40.2 18 37C18.375 40.2 18.375 40.6 21 41C18.375 41.4 18.375 41.8 18 45C17.625 41.8 17.625 41.4 15 41Z" fill="white" fill-opacity="0.8"/>
</g>
<defs>
<clipPath id="clip0_5954_9643">
<rect width="50" height="50" fill="white"/>
</clipPath>
</defs>
</svg>
