<svg width="50" height="50" viewBox="0 0 50 50" fill="none" xmlns="http://www.w3.org/2000/svg">
<path d="M28.2325 27.9576L23.3928 35.0045L31.7605 40.6548L36.2284 30.1892L28.2325 27.9576Z" fill="#D0333D"/>
<path d="M28.2325 27.9576L23.3928 35.0045L31.7605 40.6548L36.2284 30.1892L28.2325 27.9576Z" fill="white" fill-opacity="0.4"/>
<path d="M23.3928 35.0046L24.3176 42.7765L35.5032 45.4564L31.7605 40.6549L23.3928 35.0046Z" fill="#D0333D"/>
<path d="M35.5032 45.4565L31.7605 40.655L36.2284 30.1894L45.0823 38.8484L35.5032 45.4565Z" fill="#D0333D"/>
<path d="M35.5032 45.4565L31.7605 40.655L36.2284 30.1894L45.0823 38.8484L35.5032 45.4565Z" fill="black" fill-opacity="0.2"/>
<path d="M4.55735 26.7865L7.91909 19.1279L12.3268 30.8121L4.55735 26.7865Z" fill="#D0333D"/>
<path d="M17.5081 38.9552L21.0126 27.6558L12.3268 30.8122L11.2002 37.9612L17.5081 38.9552Z" fill="#D0333D"/>
<path d="M17.5081 38.9552L21.0126 27.6558L12.3268 30.8122L11.2002 37.9612L17.5081 38.9552Z" fill="white" fill-opacity="0.4"/>
<path d="M12.3268 30.812L4.55731 26.7864L11.2002 37.961L12.3268 30.812Z" fill="#D0333D"/>
<path d="M12.3268 30.812L4.55731 26.7864L11.2002 37.961L12.3268 30.812Z" fill="black" fill-opacity="0.2"/>
<path d="M17.9887 18.1289L7.91906 19.1279L12.3268 30.8122L21.0126 27.6558L17.9887 18.1289Z" fill="#D0333D"/>
<path d="M17.9887 18.1289L7.91906 19.1279L12.3268 30.8122L21.0126 27.6558L17.9887 18.1289Z" fill="white" fill-opacity="0.2"/>
<path d="M28.4645 3.88715L21.0603 12.4095L28.8591 23.9326L34.9033 19.5823L28.4645 3.88715Z" fill="#D0333D"/>
<path d="M28.4645 3.88715L21.0603 12.4095L28.8591 23.9326L34.9033 19.5823L28.4645 3.88715Z" fill="white" fill-opacity="0.6"/>
<path d="M28.8592 23.9324L34.9034 19.5821L38.652 23.5407L28.8592 23.9324Z" fill="#D0333D"/>
<path d="M28.8592 23.9324L34.9034 19.5821L38.652 23.5407L28.8592 23.9324Z" fill="white" fill-opacity="0.2"/>
<path d="M39.9217 13.1816L28.4645 3.88684L34.9033 19.582L39.9217 13.1816Z" fill="#D0333D"/>
<path d="M34.9034 19.5822L39.9218 13.1818L38.652 23.5408L34.9034 19.5822Z" fill="#D0333D"/>
<path d="M34.9034 19.5822L39.9218 13.1818L38.652 23.5408L34.9034 19.5822Z" fill="black" fill-opacity="0.2"/>
</svg>
