<svg width="50" height="50" viewBox="0 0 50 50" fill="none" xmlns="http://www.w3.org/2000/svg">
        <g clip-path="url(#alva)">
            <path
                d="M26.5 6.5c-2.712 0-5.532-.237-6.5-1L7 46c1.937-.953 11.01-2 18-2 7.123 0 15.079 1.856 17.5 3L32 5.5c-.968.763-2.788 1-5.5 1Z"
                fill="#7445B8" />
            <path
                d="M26.5 6.5c-2.712 0-5.532-.237-6.5-1L7 46c1.937-.953 11.01-2 18-2 7.123 0 15.079 1.856 17.5 3L32 5.5c-.968.763-2.788 1-5.5 1Z"
                fill="#000" fill-opacity=".4" />
            <path d="m29.5 5.5 1.5-5c-4.075-.645-6.238-.587-10 0l2 5h6.5Z" fill="#7445B8" />
            <path d="m29.5 5.5 1.5-5c-4.075-.645-6.238-.587-10 0l2 5h6.5Z" fill="#000" fill-opacity=".4" />
            <path
                d="M14.5 8.5c.5-1 1.206-1.834 2.5-2l4-1c.507 7.333.82 18.965.078 24.166C20.27 35.333 16.054 48.625 12 50c-7.601 0-12-4.557-12-4.557C5.547 41.005 9.725 32.877 11.5 26.5c2.219-7.972 2.333-16.666 3-18Z"
                fill="#546DDB" />
            <path
                d="M14.5 8.5c.5-1 1.206-1.834 2.5-2l4-1c.507 7.333.82 18.965.078 24.166C20.27 35.333 16.054 48.625 12 50c-7.601 0-12-4.557-12-4.557C5.547 41.005 9.725 32.877 11.5 26.5c2.219-7.972 2.333-16.666 3-18Z"
                fill="#000" fill-opacity=".2" />
            <path
                d="M14.736 39.873c1.42-.854 3.988-3.636 5.764-7.373-.5 2.5-1.266 5.878-2.213 8.441C17.301 43.611 16.5 49 12 50c2.736-1.257 1.552-3.72.96-4.788-.67-1.208-2.368-2.67-2.96-3.203 2.368-.534 3.315-1.282 4.736-2.136Z"
                fill="#7445B8" />
            <path
                d="M14.736 39.873c1.42-.854 3.988-3.636 5.764-7.373-.5 2.5-1.266 5.878-2.213 8.441C17.301 43.611 16.5 49 12 50c2.736-1.257 1.552-3.72.96-4.788-.67-1.208-2.368-2.67-2.96-3.203 2.368-.534 3.315-1.282 4.736-2.136Z"
                fill="#000" fill-opacity=".2" />
            <path
                d="M37 7.5c-.57-.856-3.051-.834-4-1l-3-1c0 4.5-.04 18.956.382 24.156.571 7.033 3.123 19.867 6.92 20.317C41.1 50.423 48 47.5 50 44.945c-6.362-5.377-8.768-11.77-10.5-18.445C37.465 18.658 38 9 37 7.5Z"
                fill="#546DDB" />
            <path
                d="M37 7.5c-.57-.856-3.051-.834-4-1l-3-1c0 4.5-.04 18.956.382 24.156.571 7.033 3.123 19.867 6.92 20.317C41.1 50.423 48 47.5 50 44.945c-6.362-5.377-8.768-11.77-10.5-18.445C37.465 18.658 38 9 37 7.5Z"
                fill="#000" fill-opacity=".2" />
            <path
                d="M35 39.5c-1.004-.938-3.245-4.397-4.5-8.5.444 3 .83 9.186 1.5 12 .697 2.931 2 7 6 7-3-.5-1.918-3.328-1.5-4.5.549-1.538 1.611-2.5 2.5-3.5-1.673-.586-2.996-1.562-4-2.5Z"
                fill="#7445B8" />
            <path
                d="M35 39.5c-1.004-.938-3.245-4.397-4.5-8.5.444 3 .83 9.186 1.5 12 .697 2.931 2 7 6 7-3-.5-1.918-3.328-1.5-4.5.549-1.538 1.611-2.5 2.5-3.5-1.673-.586-2.996-1.562-4-2.5Z"
                fill="#000" fill-opacity=".2" />
            <path
                d="M21 .5c.167.875.268 1.338.5 2 0 .667.2 2.1 1 2.5.8.4 2.667.5 3.5.5-.167-.833-.41-2.829-1-3.5-.439-.499-2.867-1.073-4-1.5Z"
                fill="#546DDB" />
            <path
                d="M21 .5c.167.875.268 1.338.5 2 0 .667.2 2.1 1 2.5.8.4 2.667.5 3.5.5-.167-.833-.41-2.829-1-3.5-.439-.499-2.867-1.073-4-1.5Z"
                fill="#000" fill-opacity=".2" />
            <path
                d="M31 .5c-.167.875-.268 1.338-.5 2 0 .667-.2 2.1-1 2.5-.8.4-2.667.5-3.5.5.167-.833.4-2.836 1-3.5.471-.522 2.892-1.106 4-1.5Z"
                fill="#546DDB" />
            <path
                d="M31 .5c-.167.875-.268 1.338-.5 2 0 .667-.2 2.1-1 2.5-.8.4-2.667.5-3.5.5.167-.833.4-2.836 1-3.5.471-.522 2.892-1.106 4-1.5Z"
                fill="#000" fill-opacity=".2" />
            <path
                d="M26 5.5c-3-.5-4-1-4.5-3-1.06.297-4.775 1.053-5.5 1.5-1.5 1-3.5 5.5-6 7 .5 1.5 2.158 2.947 3.5 2.5C15 13 15.317 16.894 18 16c1.5-.5 3.5 3 6 1.5 0-4 .014-8.996 2-12Z"
                fill="#546DDB" />
            <path
                d="M26 5.5c-3-.5-4-1-4.5-3-1.06.297-4.775 1.053-5.5 1.5-1.5 1-3.5 5.5-6 7 .5 1.5 2.158 2.947 3.5 2.5C15 13 15.317 16.894 18 16c1.5-.5 3.5 3 6 1.5 0-4 .014-8.996 2-12Z"
                fill="#fff" fill-opacity=".4" />
            <path
                d="M26 5.5c3-.5 4-1 4.5-3 1.035.29 4.432 1.098 5.14 1.535 1.465.976 3.919 5 6.36 6.465-.488 1.465-2.608 3.249-3.918 2.812-1.465-.488-1.774 3.315-4.395 2.441-1.464-.488-3.746 3.212-6.187 1.747 0-3.5.44-9.066-1.5-12Z"
                fill="#546DDB" />
            <path
                d="M26 5.5c3-.5 4-1 4.5-3 1.035.29 4.432 1.098 5.14 1.535 1.465.976 3.919 5 6.36 6.465-.488 1.465-2.608 3.249-3.918 2.812-1.465-.488-1.774 3.315-4.395 2.441-1.464-.488-3.746 3.212-6.187 1.747 0-3.5.44-9.066-1.5-12Z"
                fill="#fff" fill-opacity=".4" />
            <path
                d="M26 5.5c-3-.455-4-1.179-4.5-3-1.06.27-4.775.959-5.5 1.366-1.5.91-3.5 4.552-6 5.918.5 1.366 2.158 3.138 3.5 2.731 1.5-.455 1.817 3.09 4.5 2.276 1.5-.455 3 2.732 5.5 1.366.367-3.764.514-7.922 2.5-10.657Z"
                fill="#546DDB" />
            <path
                d="M26 5.5c-3-.455-4-1.179-4.5-3-1.06.27-4.775.959-5.5 1.366-1.5.91-3.5 4.552-6 5.918.5 1.366 2.158 3.138 3.5 2.731 1.5-.455 1.817 3.09 4.5 2.276 1.5-.455 3 2.732 5.5 1.366.367-3.764.514-7.922 2.5-10.657Z"
                fill="#fff" fill-opacity=".8" />
            <path
                d="M26 5.5c3-.455 4-1.179 4.5-3 1.035.264 4.432 1 5.14 1.397 1.465.89 3.419 4.446 5.86 5.78-.488 1.333-2.108 3.065-3.418 2.667-1.465-.444-1.774 3.018-4.395 2.223-1.464-.445-3.246 2.924-5.687 1.59-.359-3.676-.06-7.986-2-10.657Z"
                fill="#546DDB" />
            <path
                d="M26 5.5c3-.455 4-1.179 4.5-3 1.035.264 4.432 1 5.14 1.397 1.465.89 3.419 4.446 5.86 5.78-.488 1.333-2.108 3.065-3.418 2.667-1.465-.444-1.774 3.018-4.395 2.223-1.464-.445-3.246 2.924-5.687 1.59-.359-3.676-.06-7.986-2-10.657Z"
                fill="#fff" fill-opacity=".8" />
            <path
                d="M17 7c-1.195 2.357-1.922 3.611-3.5 5.515.466-.141.819.104 1.163.485 1.139-2.202 1.59-3.554 2.337-6Z"
                fill="#546DDB" />
            <path
                d="M17 7c-1.195 2.357-1.922 3.611-3.5 5.515.466-.141.819.104 1.163.485 1.139-2.202 1.59-3.554 2.337-6Z"
                fill="#fff" fill-opacity=".4" />
            <path d="M20 8.5c-.56 2.586-.918 4.01-2 6.291.43-.13.861.04 1.316.315.571-2.438.612-3.935.684-6.606Z"
                fill="#546DDB" />
            <path d="M20 8.5c-.56 2.586-.918 4.01-2 6.291.43-.13.861.04 1.316.315.571-2.438.612-3.935.684-6.606Z"
                fill="#fff" fill-opacity=".4" />
            <path
                d="M33.688 14.567c-.315-.096-.645-.015-.993.157-.562-2.17-.683-3.433-.695-5.724.444 2.232.784 3.46 1.688 5.567Z"
                fill="#546DDB" />
            <path
                d="M33.688 14.567c-.315-.096-.645-.015-.993.157-.562-2.17-.683-3.433-.695-5.724.444 2.232.784 3.46 1.688 5.567Z"
                fill="#fff" fill-opacity=".4" />
            <path
                d="M38.082 12.344c-.379-.115-.68.031-.964.297C36.016 10.545 35.568 9.336 35 7c.986 2.215 1.64 3.394 3.082 5.344Z"
                fill="#546DDB" />
            <path
                d="M38.082 12.344c-.379-.115-.68.031-.964.297C36.016 10.545 35.568 9.336 35 7c.986 2.215 1.64 3.394 3.082 5.344Z"
                fill="#fff" fill-opacity=".4" />
            <path d="M27.5 6c0 1.105-.395 2-1.5 2s-1.5-.895-1.5-2 .395-2 1.5-2 1.5.895 1.5 2Z" fill="#A272E4" />
            <path d="M27.5 6c0 1.105-.395 2-1.5 2s-1.5-.895-1.5-2 .395-2 1.5-2 1.5.895 1.5 2Z" stroke="#898989" />
            <path d="M27.5 6c0 1.105-.395 2-1.5 2s-1.5-.895-1.5-2 .395-2 1.5-2 1.5.895 1.5 2Z" stroke="#fff"
                stroke-opacity=".6" />
            <g clip-path="url(#alvb)" fill="#152242">
                <path
                    d="M39.029 28.446a1 1 0 0 1 1.742 0l3.507 6.22a1 1 0 0 0 .673.49l7 1.412a1 1 0 0 1 .538 1.657l-4.833 5.258a1 1 0 0 0-.257.791l.82 7.094a1 1 0 0 1-1.41 1.024l-6.493-2.972a1 1 0 0 0-.832 0l-6.494 2.972a1 1 0 0 1-1.41-1.024l.82-7.094a1 1 0 0 0-.257-.791l-4.833-5.258a1 1 0 0 1 .539-1.657l7-1.412a1 1 0 0 0 .673-.49l3.507-6.22Z" />
                <path
                    d="m41.935 37.532.339.602.675.135 4.062.82-2.804 3.05-.467.508.08.686.474 4.115-3.766-1.724-.627-.287-.627.288-3.769 1.723.476-4.115.079-.686-.467-.508-2.805-3.05 4.063-.82.676-.135.338-.602 2.035-3.611 2.035 3.611Z"
                    stroke="#FAA21E" stroke-width="3.013" />
            </g>
        </g>
        <defs>
            <clipPath id="alva">
                <path fill="#fff" transform="matrix(-1 0 0 1 50 0)" d="M0 0h50v50H0z" />
            </clipPath>
            <clipPath id="alvb">
                <path fill="#fff" transform="matrix(1 0 0 -1 0 50)" d="M0 0h50v50H0z" />
            </clipPath>
        </defs>
    </svg>