<svg width="50" height="50" viewBox="0 0 50 50" fill="none" xmlns="http://www.w3.org/2000/svg">
<ellipse cx="25.5" cy="23.5" rx="20.5" ry="17.5" fill="#D0333D"/>
<ellipse cx="25.5" cy="23.5" rx="20.5" ry="17.5" fill="white" fill-opacity="0.9"/>
<path d="M4.07033 23.9812C2.88606 24.3736 2.91896 26.107 3.08344 26.9246L8.51132 45.0755C9 46 9.31573 46.3509 10.5 47.5283C11.6843 48.7057 13.4458 49 13.9392 49H37.1311C37.6246 48.8365 39 48.5 40.0918 47.5283C41.1531 46.5837 41.9011 45.566 42.0656 45.0755L47 25.9434C47 25.2893 46.7039 23.8831 45.5197 23.4906C44.0393 22.9999 42.0656 26.434 39.5983 26.434C37.1311 26.434 34.6639 23 31.7032 23C28.7425 23 27.7557 26.434 25.2884 26.434C22.8212 26.434 20.354 23 17.3933 23C14.4327 23 11.9654 26.434 9.99165 26.434C8.01787 26.434 5.55066 23.4906 4.07033 23.9812Z" fill="#CE4317"/>
<path d="M4.07033 23.9812C2.88606 24.3736 2.91896 26.107 3.08344 26.9246L8.51132 45.0755C9 46 9.31573 46.3509 10.5 47.5283C11.6843 48.7057 13.4458 49 13.9392 49H37.1311C37.6246 48.8365 39 48.5 40.0918 47.5283C41.1531 46.5837 41.9011 45.566 42.0656 45.0755L47 25.9434C47 25.2893 46.7039 23.8831 45.5197 23.4906C44.0393 22.9999 42.0656 26.434 39.5983 26.434C37.1311 26.434 34.6639 23 31.7032 23C28.7425 23 27.7557 26.434 25.2884 26.434C22.8212 26.434 20.354 23 17.3933 23C14.4327 23 11.9654 26.434 9.99165 26.434C8.01787 26.434 5.55066 23.4906 4.07033 23.9812Z" fill="white" fill-opacity="0.6"/>
<circle cx="32" cy="9" r="7" fill="#D0333D"/>
<circle cx="32" cy="9" r="7" fill="black" fill-opacity="0.2"/>
<path d="M38 2C37.6 2.74074 37.4 3.33333 36.2 4.66667C35.4469 5.50343 35.2 5.85185 35 6" stroke="#2FC4A7" stroke-linecap="round"/>
</svg>
