<svg width="50" height="50" viewBox="0 0 50 50" fill="none" xmlns="http://www.w3.org/2000/svg">
<g clip-path="url(#clip0_4746_7115)">
<circle cx="25" cy="25" r="25" transform="matrix(-1 0 0 1 50 0)" fill="#D0333D"/>
<circle cx="25" cy="25" r="25" transform="matrix(-1 0 0 1 50 0)" fill="black" fill-opacity="0.6"/>
<path fill-rule="evenodd" clip-rule="evenodd" d="M0 25C0 38.8071 11.1929 50 25 50C38.8071 50 50 38.8071 50 25C50 11.1929 38.8071 0 25 0C11.1929 0 0 11.1929 0 25ZM13.0136 6.50682C18.1506 5.82189 21.5753 11.9863 22.6027 17.4658C23.7586 23.6301 15.4109 30.8219 13.0137 30.8219C10.6164 30.8219 7.19168 23.9726 6.50675 19.178C5.82182 14.3835 7.87661 7.19175 13.0136 6.50682ZM30.2289 19.9619C33.6882 15.4935 40.1779 13.0002 44.8631 16.0959C49.5482 19.1916 46.9748 26.3318 44.1559 30.3448C41.337 34.3578 32.5342 37.9992 29.1096 36.3014C26.7796 35.1463 25.7983 25.685 30.2289 19.9619ZM24.3151 31.5068C23.7671 30.411 24.0868 26.2557 24.3151 24.3151C23.6301 24.3151 21.5753 26.7123 20.5479 28.0822C19.726 29.1781 18.8356 31.7352 18.4932 32.8767H21.5753L25 35.274C25 34.4749 24.863 32.6027 24.3151 31.5068ZM4.08404 24.7574C4.74028 24.045 3.88723 19.9669 3.18882 19.6529C2.49041 19.3388 1.03256 25.5683 1.71692 25.5402C2.2644 25.5177 3.52312 25.009 4.08404 24.7574ZM6.33391 29.4635C6.68431 30.0978 7.73037 30.857 8.73985 31.5896C9.86398 32.4054 10.9427 33.1882 10.965 33.7291C10.796 34.3152 9.86257 34.824 9.02339 35.2815C8.37275 35.6361 7.77876 35.9599 7.6416 36.2649C7.49796 36.5844 7.73867 37.5333 7.97672 38.4717C8.25917 39.5852 8.53788 40.6839 8.16652 40.6992C7.48217 40.7273 3.4933 35.4071 3.06678 33.3681C2.64025 31.3291 2.11533 26.8948 3.46997 26.4964C4.62093 26.1579 5.3489 27.5688 5.99603 28.8229L5.99606 28.823C6.11058 29.0449 6.22256 29.262 6.33391 29.4635ZM44.9248 34.3904C44.5248 35.7779 43.468 38.9747 42.4405 40.6621C41.1561 42.7714 38.8452 44.9229 38.1468 44.6088C37.4484 44.2947 36.1859 40.1984 36.5 39.5C36.6626 39.1384 37.2214 39.0456 37.8612 38.9393C38.4571 38.8403 39.1232 38.7297 39.6046 38.3793C39.8857 38.1748 40.3194 37.7196 40.8287 37.1851C42.1286 35.8206 43.9212 33.9391 44.9248 34.3904ZM35 39C36.0406 39.3 35.4606 45.8504 35 46C34.1922 46.2623 30.1232 41.5 30.5 40.6621C31.2474 39 33.85 38.8187 35 39ZM28.069 41.2525C28.7534 41.2244 32.3058 44.8944 31.8058 46.3382C31.4509 47.363 28.3361 47.7539 27.2955 47.4539C26.2549 47.1539 27.3847 41.2806 28.069 41.2525ZM24.8629 38.2995C25.9176 38.9416 26.0019 40.9947 26.0581 42.3634C26.1144 43.7321 25.5847 47.5242 24.9003 47.5523C24.2159 47.5804 21.1223 47.3648 21.0801 46.3382C21.0379 45.3117 23.8364 38.3416 24.8629 38.2995ZM16.5896 45.4944C15.8631 44.496 19.2756 35.787 20.6584 36.0729C21.1812 36.0514 21.5371 36.8369 21.8411 37.5078C21.935 37.7151 22.024 37.9115 22.1114 38.0697C22.4817 38.74 20.3676 45.682 19.3692 46.4085C18.3708 47.135 17.3162 46.4929 16.5896 45.4944ZM17.5226 34.8307C16.796 33.8323 10.379 36.1525 10.065 36.8509C9.75089 37.5493 9.9477 42.3397 11.7148 43.6382C13.4819 44.9366 14.1663 44.9085 14.5085 44.8944C14.8506 44.8804 18.6194 36.4994 17.5226 34.8307Z" fill="#D0333D"/>
</g>
<defs>
<clipPath id="clip0_4746_7115">
<rect width="50" height="50" fill="white" transform="matrix(-1 0 0 1 50 0)"/>
</clipPath>
</defs>
</svg>
