<svg width="50" height="50" viewBox="0 0 50 50" fill="none" xmlns="http://www.w3.org/2000/svg">
<g clip-path="url(#clip0_4755_7262)">
<path d="M46.9998 3L2.99976 47" stroke="#FAA21E" stroke-linecap="round"/>
<path d="M46.9998 3L2.99976 47" stroke="black" stroke-opacity="0.1" stroke-linecap="round"/>
<path d="M1.99438 45.7203C1.19663 47.1079 0.332396 48.7676 -6.96059e-07 49.924C0.498594 49.3458 1.52964 48.4209 2.99157 48.033C5 47.5 5.98314 47.4548 7.47892 48.033C8.97471 48.6111 11.5028 50.5021 12.5 49.924C13.4972 49.3458 13.4621 49.6112 14.4592 45.5638C15.4564 41.5165 19.4452 41.5165 20.941 42.0947C22.4368 42.6729 28.0042 45.2346 29.5 43.5C30.6966 42.1123 30.0819 36.5055 29.9157 34C29.5833 35.5418 28.0955 37.6123 26.5 39C24.5056 40.7346 16.4536 39.2037 14.9578 40.3601C13.4621 41.5165 11.9972 44.5639 11 45.7203C10.0028 46.8766 2.99157 43.9857 1.99438 45.7203Z" fill="#FAA21E"/>
<path d="M45.6964 1.99438C47.0813 1.19663 48.7376 0.332397 49.8916 0C49.3146 0.498595 48.3916 1.52964 48.0045 2.99157C47.4726 5 47.4275 5.98314 48.0045 7.47892C48.5814 8.97471 50.4686 11.5028 49.8916 12.5C49.3146 13.4972 49.5795 13.4621 45.5403 14.4592C41.5012 15.4564 41.5012 19.4452 42.0782 20.941C42.6553 22.4368 45.7311 28.0042 44 29.5C42.6152 30.6966 36.5004 30.0819 34 29.9157C35.5387 29.5833 37.605 28.0955 38.9898 26.5C40.7209 24.5056 39.1931 16.4536 40.3472 14.9578C41.5012 13.4621 44.5424 11.9972 45.6964 11C46.8505 10.0028 43.9654 2.99157 45.6964 1.99438Z" fill="#FAA21E"/>
<path d="M45.5 2C46.7 1.2 49 0.333333 50 0C49.5 0.5 48.3 1.8 47.5 3C46.5 4.49993 47 5.99986 47.4999 7.49979L47.5 7.5C48 9 50.5 11.5 50 12.5C49.5001 13.5 48 13.5 44.5 14.5C41 15.5 41 19.5 41.5 21C42 22.5 44 27.5 42.5 29C41.3 30.2 36.6667 30.1667 34.5 30C35.8333 29.6667 38.8 28.6 40 27C41.5 25 39 16.5 40 15C41 13.5 46 12.5 47 11.5C48 10.5 44 3 45.5 2Z" fill="#FEFEFE"/>
<path d="M1.99438 45.3069C1.19663 46.5404 0.332396 48.9045 -6.96429e-07 49.9324C0.498594 49.4185 1.79494 48.185 2.99157 47.3627C4.48728 46.3348 5.983 46.8487 7.47871 47.3626L7.47892 47.3627C8.97471 47.8766 11.4677 50.4463 12.4649 49.9324C13.4621 49.4185 13.4621 47.8766 14.4592 44.279C15.4564 40.6813 19.4452 40.6813 20.941 41.1953C22.4368 41.7092 27.4227 43.765 28.9185 42.2232C30.1151 40.9897 30.0819 36.2271 29.9157 34C29.5833 35.3705 28.5196 38.4199 26.9241 39.6534C24.9297 41.1953 16.4536 38.6255 14.9578 39.6534C13.4621 40.6813 12.4649 45.8208 11.4677 46.8487C10.4705 47.8766 2.99157 43.7651 1.99438 45.3069Z" fill="#FEFEFE"/>
<circle cx="6.50006" cy="6.50006" r="6.50006" transform="matrix(-1 -8.74228e-08 -8.74228e-08 1 41 28)" fill="#D0333D"/>
<circle cx="6.50006" cy="6.50006" r="6.50006" transform="matrix(-1 -8.74228e-08 -8.74228e-08 1 41 28)" fill="black" fill-opacity="0.6"/>
<path fill-rule="evenodd" clip-rule="evenodd" d="M27.9999 34.5001C27.9999 38.0899 30.9101 41.0001 34.4999 41.0001C38.0898 41.0001 41 38.0899 41 34.5001C41 30.9102 38.0898 28 34.4999 28C30.9101 28 27.9999 30.9102 27.9999 34.5001ZM31.3834 29.6917C32.719 29.5137 33.6094 31.1164 33.8766 32.5411C34.1771 34.1439 32.0067 36.0137 31.3834 36.0137C30.7601 36.0137 29.8697 34.2329 29.6916 32.9863C29.5135 31.7397 30.0478 29.8698 31.3834 29.6917ZM35.8594 33.1902C36.7589 32.0284 38.4462 31.3801 39.6643 32.185C40.8825 32.9899 40.2134 34.8464 39.4805 35.8898C38.7476 36.9332 36.4588 37.88 35.5684 37.4385C34.9626 37.1382 34.7075 34.6782 35.8594 33.1902ZM34.3217 36.1919C34.1792 35.9069 34.2623 34.8265 34.3217 34.322C34.1436 34.322 33.6094 34.9453 33.3422 35.3014C33.1285 35.5864 32.897 36.2512 32.808 36.548L33.6094 36.548L34.4998 37.1713C34.4998 36.9635 34.4642 36.4768 34.3217 36.1919ZM29.0617 34.437C29.2324 34.2517 29.0106 33.1915 28.829 33.1098C28.6474 33.0281 28.2683 34.6478 28.4463 34.6405C28.5886 34.6347 28.9159 34.5024 29.0617 34.437ZM29.6467 35.6606C29.7378 35.8255 30.0098 36.0229 30.2722 36.2134C30.5645 36.4255 30.845 36.629 30.8508 36.7697C30.8068 36.922 30.5642 37.0543 30.346 37.1733L30.346 37.1733C30.1768 37.2655 30.0224 37.3497 29.9867 37.429C29.9494 37.512 30.0119 37.7587 30.0738 38.0027L30.0738 38.0027C30.1473 38.2922 30.2197 38.5779 30.1232 38.5819C29.9452 38.5892 28.9081 37.2059 28.7972 36.6758C28.6863 36.1456 28.5499 34.9927 28.9021 34.8891C29.2013 34.8011 29.3906 35.168 29.5588 35.494L29.5589 35.4941C29.5886 35.5518 29.6178 35.6082 29.6467 35.6606ZM39.6804 36.9416C39.5764 37.3023 39.3016 38.1335 39.0345 38.5722C38.7006 39.1207 38.0997 39.6801 37.9181 39.5984C37.7365 39.5167 37.4083 38.4517 37.49 38.2701C37.5322 38.1761 37.6775 38.1519 37.8439 38.1243C37.9988 38.0986 38.172 38.0698 38.2972 37.9787C38.3702 37.9256 38.483 37.8072 38.6154 37.6682L38.6154 37.6682L38.6154 37.6682C38.9534 37.3134 39.4195 36.8243 39.6804 36.9416ZM37.1 38.1401C37.3705 38.2181 37.2197 39.9212 37.1 39.9601C36.8899 40.0283 35.832 38.7901 35.9299 38.5722C36.1243 38.1401 36.801 38.093 37.1 38.1401ZM35.2979 38.7258C35.4758 38.7184 36.3994 39.6727 36.2694 40.0481C36.1772 40.3145 35.3673 40.4161 35.0968 40.3381C34.8262 40.2601 35.1199 38.7331 35.2979 38.7258ZM34.4643 37.958C34.7385 38.1249 34.7604 38.6587 34.775 39.0146C34.7897 39.3705 34.6519 40.3564 34.474 40.3637C34.2961 40.371 33.4917 40.315 33.4807 40.0481C33.4698 39.7812 34.1974 37.9689 34.4643 37.958ZM32.3132 39.8287C32.1243 39.5691 33.0116 37.3047 33.3711 37.379C33.507 37.3735 33.5996 37.5777 33.6786 37.7521C33.703 37.806 33.7262 37.8571 33.7489 37.8982C33.8452 38.0725 33.2955 39.8774 33.0359 40.0663C32.7763 40.2552 32.5021 40.0883 32.3132 39.8287ZM32.5558 37.0561C32.3669 36.7965 30.6984 37.3997 30.6168 37.5813C30.5351 37.7629 30.5863 39.0084 31.0457 39.346C31.5052 39.6836 31.6831 39.6763 31.7721 39.6727C31.8611 39.669 32.841 37.4899 32.5558 37.0561Z" fill="#D0333D"/>
</g>
<defs>
<clipPath id="clip0_4755_7262">
<rect width="50" height="50" fill="white" transform="matrix(-1 0 0 1 50 0)"/>
</clipPath>
</defs>
</svg>
