<?xml version="1.0" encoding="utf-8"?><svg fill="none" viewBox="0 0 50 50" xmlns="http://www.w3.org/2000/svg" width="50" height="50"><g clip-path="url(#alha)"><path d="M47 3 3 47" stroke="#FAA21E" stroke-linecap="round"/><path d="M47 3 3 47" stroke="#000" stroke-opacity=".1" stroke-linecap="round"/><path d="M1.994 45.72C1.197 47.108.332 48.768 0 49.924c.499-.578 1.53-1.503 2.992-1.891 2.008-.533 2.991-.578 4.487 0s4.024 2.47 5.021 1.891c.997-.578.962-.313 1.96-4.36.996-4.047 4.985-4.047 6.481-3.47 1.496.579 7.063 3.14 8.559 1.406 1.197-1.388.582-6.995.416-9.5-.333 1.542-1.82 3.612-3.416 5-1.994 1.735-10.046.204-11.542 1.36-1.496 1.157-2.96 4.204-3.958 5.36-.997 1.157-8.008-1.734-9.006 0ZM45.696 1.994C47.081 1.197 48.738.332 49.892 0c-.577.499-1.5 1.53-1.888 2.992-.531 2.008-.576 2.991 0 4.487.577 1.496 2.465 4.024 1.888 5.021-.577.997-.313.962-4.352 1.96-4.039.996-4.039 4.985-3.462 6.481.577 1.496 3.653 7.063 1.922 8.559-1.385 1.197-7.5.582-10 .416 1.539-.333 3.605-1.82 4.99-3.416 1.73-1.994.203-10.046 1.357-11.542 1.154-1.496 4.195-2.96 5.35-3.958 1.153-.997-1.732-8.008 0-9.006Z" fill="#FAA21E"/><path d="M45.5 2C46.7 1.2 49 .333 50 0c-.5.5-1.7 1.8-2.5 3-1 1.5-.5 3 0 4.5s3 4 2.5 5-2 1-5.5 2-3.5 5-3 6.5 2.5 6.5 1 8c-1.2 1.2-5.833 1.167-8 1 1.333-.333 4.3-1.4 5.5-3 1.5-2-1-10.5 0-12s6-2.5 7-3.5S44 3 45.5 2ZM1.994 45.307C1.197 46.54.332 48.904 0 49.932c.499-.514 1.795-1.747 2.992-2.57 1.495-1.027 2.991-.513 4.487 0 1.496.515 3.989 3.084 4.986 2.57.997-.514.997-2.055 1.994-5.653.997-3.598 4.986-3.598 6.482-3.084 1.496.514 6.482 2.57 7.978 1.028 1.196-1.233 1.163-5.996.997-8.223-.333 1.37-1.396 4.42-2.992 5.653-1.994 1.542-10.47-1.027-11.966 0-1.496 1.028-2.493 6.168-3.49 7.196-.998 1.028-8.476-3.084-9.474-1.542Z" fill="#FEFEFE"/><circle cx="6.5" cy="6.5" r="6.5" transform="matrix(-1 0 0 1 41 28)" fill="#D0333D"/><circle cx="6.5" cy="6.5" r="6.5" transform="matrix(-1 0 0 1 41 28)" fill="#000" fill-opacity=".6"/><path d="M34.5 28a6.5 6.5 0 1 0 0 13 6.5 6.5 0 0 0 0-13Zm.798 10.726c.178-.008 1.101.946.971 1.322-.092.266-.902.368-1.172.29-.27-.079.023-1.605.2-1.612Zm-.834-.768c.274.167.297.7.311 1.057.015.356-.123 1.341-.301 1.348-.179.008-.983-.048-.993-.315-.011-.268.716-2.077.983-2.09Zm-1.093-.58c.178-.006.282.346.378.52.096.176-.453 1.98-.713 2.168-.26.19-.534.023-.723-.237-.188-.26.699-2.524 1.058-2.45Zm2.559 1.194c.194-.432.87-.48 1.17-.432.27.078.12 1.781 0 1.82-.211.067-1.268-1.17-1.17-1.388Zm-5.313-.99c.084-.183 1.749-.785 1.939-.526.285.433-.692 2.608-.783 2.617-.09.003-.268.01-.727-.327-.46-.338-.51-1.583-.429-1.765Zm9.064-.64c-.104.36-.38 1.191-.647 1.63-.334.549-.934 1.108-1.116 1.027-.182-.082-.509-1.146-.428-1.328.082-.182.547-.104.807-.293.26-.188 1.02-1.2 1.384-1.037Zm-10.779-2.053c.352-.103.552.423.744.771.193.349 1.193.843 1.205 1.11-.078.27-.783.477-.865.659-.081.181.315 1.146.137 1.153-.178.007-1.215-1.376-1.326-1.906-.111-.53-.247-1.684.105-1.787Zm6.957-1.699c.9-1.161 2.587-1.81 3.805-1.005 1.218.804.55 2.661-.184 3.705-.732 1.043-3.021 1.99-3.912 1.548-.605-.3-.86-2.76.291-4.248Zm-1.538 1.132c-.059.505-.142 1.584 0 1.87.143.284.179.77.179.979l-.89-.623h-.802c.089-.297.32-.961.534-1.246.267-.356.8-.979.98-.98Zm-2.937-4.63c1.335-.178 2.226 1.424 2.493 2.849.3 1.602-1.87 3.472-2.493 3.473-.623 0-1.515-1.781-1.693-3.028-.178-1.246.357-3.116 1.693-3.295Zm-2.555 3.417c.182.082.403 1.142.232 1.328-.145.065-.472.198-.615.204-.178.007.201-1.613.383-1.532Z" fill="#D0333D"/><g clip-path="url(#alhb)" fill="#152242"><path d="M39.029 28.446a1 1 0 0 1 1.742 0l3.507 6.22a1 1 0 0 0 .673.49l7 1.412a1 1 0 0 1 .538 1.657l-4.833 5.258a1 1 0 0 0-.257.791l.82 7.094a1 1 0 0 1-1.41 1.024l-6.493-2.972a1 1 0 0 0-.832 0l-6.494 2.972a1 1 0 0 1-1.41-1.024l.82-7.094a1 1 0 0 0-.257-.791l-4.833-5.258a1 1 0 0 1 .539-1.657l7-1.412a1 1 0 0 0 .673-.49l3.507-6.22Z"/><path d="m41.935 37.532.339.602.675.135 4.062.82-2.804 3.05-.467.508.08.686.474 4.115-3.766-1.724-.627-.287-.627.288-3.769 1.723.476-4.115.079-.686-.467-.508-2.805-3.05 4.063-.82.676-.135.338-.602 2.035-3.611 2.035 3.611Z" stroke="#FAA21E" stroke-width="3.013"/></g></g><defs><clipPath id="alha"><path fill="#fff" transform="matrix(-1 0 0 1 50 0)" d="M0 0h50v50H0z"/></clipPath><clipPath id="alhb"><path fill="#fff" transform="matrix(1 0 0 -1 0 50)" d="M0 0h50v50H0z"/></clipPath></defs></svg>