<svg width="50" height="50" viewBox="0 0 50 50" fill="none" xmlns="http://www.w3.org/2000/svg">
<path d="M34.0076 25.616L34.7022 6.75209L40 3.00012L41 23.5001C41 23.5001 49.3001 34.437 48.9999 35.4999C48.8594 35.9974 47.2408 38.2356 44.8577 39.5372C42.1488 41.0168 38.9958 41.2794 38.4601 41.0981C37.4532 40.7572 34.0076 25.616 34.0076 25.616Z" fill="#898989"/>
<path d="M34.0076 25.616L34.7022 6.75209L40 3.00012L41 23.5001C41 23.5001 49.3001 34.437 48.9999 35.4999C48.8594 35.9974 47.2408 38.2356 44.8577 39.5372C42.1488 41.0168 38.9958 41.2794 38.4601 41.0981C37.4532 40.7572 34.0076 25.616 34.0076 25.616Z" fill="white" fill-opacity="0.8"/>
<path d="M46 38C44.6174 39.0041 42.9634 39.5604 41.142 40.008L43.9533 45.5C45.3861 45.3892 46.8654 44.95 48.0058 44.0463L46 38Z" fill="#898989"/>
<path d="M46 38C44.6174 39.0041 42.9634 39.5604 41.142 40.008L43.9533 45.5C45.3861 45.3892 46.8654 44.95 48.0058 44.0463L46 38Z" fill="white" fill-opacity="0.4"/>
<path d="M25.6007 3.75568C20.4272 3.75568 16.547 1.91856 15.2536 1C13.9602 2.83712 17.5817 17.626 26.8941 17.9934C36.2066 18.3608 35.7323 3.2964 34.0078 1C33.1455 1.76547 29.7396 3.75568 25.6007 3.75568Z" fill="#1D8CE0"/>
<path d="M25.6007 3.75568C20.4272 3.75568 16.547 1.91856 15.2536 1C13.9602 2.83712 17.5817 17.626 26.8941 17.9934C36.2066 18.3608 35.7323 3.2964 34.0078 1C33.1455 1.76547 29.7396 3.75568 25.6007 3.75568Z" fill="black" fill-opacity="0.4"/>
<path d="M36.5 27C37 19.5 38.5 7 40 3L34 1C33.5 7.5 33 10 24.5 10C18 10 16 9 14.5 1L7 3C11 15.5 11.6 24.1 12 26.5C12.4 28.9 9 39 8 47C19.5 49.5 31.5 49.5 41 47C40 42 35.9945 34.5832 36.5 27Z" fill="#1D8CE0"/>
<path d="M36.5 27C37 19.5 38.5 7 40 3L34 1C33.5 7.5 33 10 24.5 10C18 10 16 9 14.5 1L7 3C11 15.5 11.6 24.1 12 26.5C12.4 28.9 9 39 8 47C19.5 49.5 31.5 49.5 41 47C40 42 35.9945 34.5832 36.5 27Z" fill="white" fill-opacity="0.2"/>
<path d="M0.999756 26.5L7 3C8 3 9.5 4.5 9.99976 8.5C10.4995 12.5 10.5 15 10.5 15L9.99976 26.5C9.99976 26.5 15.9999 37.5 15.5 38.5C15.266 38.968 12.7321 41.1031 9.99976 42C6.89402 43.0195 3.53196 42.766 2.99996 42.5C1.99991 42 0.999756 26.5 0.999756 26.5Z" fill="#FEFEFE"/>
<path d="M12.5 40C10.7772 40.9139 9.16668 41.7215 7 42L9.73333 48C11.4095 48.0362 12.8035 47.3338 14.2333 46.5L12.5 40Z" fill="#898989"/>
<path d="M12.5 40C10.7772 40.9139 9.16668 41.7215 7 42L9.73333 48C11.4095 48.0362 12.8035 47.3338 14.2333 46.5L12.5 40Z" fill="white" fill-opacity="0.6"/>
<path d="M15 1C15.6129 4.36591 15.9071 6.45278 16.8387 7.73182C18.7796 10.3965 22.4355 10 25.5 10C28.5645 10 30.7291 10 32.5 7.73182C33.5227 6.42202 33.3871 4.36591 34 1" stroke="#FEFEFE"/>
<circle cx="25.5" cy="13" r="1" fill="#FEFEFE"/>
<circle cx="25.5" cy="17" r="1" fill="#FEFEFE"/>
<path d="M28.5 10V18.5C28.5 19.3284 27.8284 20 27 20H24C23.1716 20 22.5 19.3284 22.5 18.5V10" stroke="#FEFEFE"/>
</svg>
