<svg width="50" height="50" viewBox="0 0 50 50" fill="none" xmlns="http://www.w3.org/2000/svg">
<g clip-path="url(#clip0_6204_11240)">
<path d="M9 10.241C10.5 5.42169 11.5 2.49569 12.5 0C14.6667 0.707589 20.6 2 25 2C29.4 2 34.6667 1.31 37 0.60241C37.8333 2.25345 38.8021 5.42169 40.3021 10.241C41.8021 15.0602 47 40.5 50 45.7831C44.5 49 33.5 50 26 50C18.5 50 8.5 48.5 0 45.7831C2.5 41.5 7.64844 14.5833 9 10.241Z" fill="#1D8CE0"/>
<path d="M9 10.241C10.5 5.42169 11.5 2.49569 12.5 0C14.6667 0.707589 20.6 2 25 2C29.4 2 34.6667 1.31 37 0.60241C37.8333 2.25345 38.8021 5.42169 40.3021 10.241C41.8021 15.0602 47 40.5 50 45.7831C44.5 49 33.5 50 26 50C18.5 50 8.5 48.5 0 45.7831C2.5 41.5 7.64844 14.5833 9 10.241Z" fill="white" fill-opacity="0.2"/>
<path d="M17.5 3C23.9437 3.43107 27.0564 3.47005 33.5 3C34.7597 3.59755 35.0877 4.57956 34.4144 6C35.6709 6.69657 36.0639 7.71458 35.3031 9.19494C36.8729 10.0033 37.086 11.1153 36.1145 12.5C37.6313 13.1919 37.8974 14.2161 36.7714 15.603C38.3299 16.4583 38.4796 17.596 37.3842 19C38.9152 19.8702 39.2075 21.0087 37.9224 22.5C39.175 23.2809 39.6103 24.2669 38.3486 25.6448C39.5954 26.6803 39.735 27.4026 38.7645 29C39.1153 31.4283 38.3424 31.8985 36 31.8548C35.3214 33.5359 34.1107 33.6645 32.5 32.6337C31.7044 34.3554 30.4597 34.1818 29 33.1001C27.8601 34.5029 26.5241 34.4222 25 33.1868C23.393 34.4894 22.0956 34.2652 21 32.8173C19.6078 34.105 18.4605 33.8322 17.5 32.1983C16.0683 33.3923 15.1084 33.1532 14.5 31.5C12.7019 31.3403 12.3286 30.7726 12.6685 29C11.6645 27.5446 12.0021 26.4873 13 25.6448C11.9988 24.3986 12.2923 23.3763 13.3783 22.5C12.5124 21.0029 12.7531 19.8592 13.893 19C13.0727 17.6565 13.2724 16.531 14.5 15.603C13.7803 14.0939 14.0188 13.0828 15.148 12.5C14.4816 11.0963 14.6918 9.98983 15.9212 9.19494C15.3084 7.74412 15.4724 6.63405 16.7234 6C16.2107 4.79659 16.1504 3.70101 17.5 3Z" fill="#1D8CE0"/>
<path d="M18.5 2C24.9437 2.43107 28.0564 2.47005 34.5 2C35.7597 2.59755 36.0877 3.57956 35.4144 5C36.6709 5.69657 37.0639 6.71458 36.3031 8.19494C37.8729 9.00328 38.086 10.1153 37.1145 11.5C38.6313 12.1919 38.8974 13.2161 37.7714 14.603C39.3299 15.4583 39.4796 16.596 38.3842 18C39.9152 18.8702 40.2075 20.0087 38.9224 21.5C40.175 22.2809 40.6103 23.2669 39.3486 24.6448C40.5954 25.6803 40.735 26.4026 39.7645 28C40.1153 30.4283 39.3424 30.8985 37 30.8548C36.3214 32.5359 35.1107 32.6645 33.5 31.6337C32.7044 33.3554 31.4597 33.1818 30 32.1001C28.8601 33.5029 27.5241 33.4222 26 32.1868C24.393 33.4894 23.0956 33.2652 22 31.8173C20.6078 33.105 19.4605 32.8322 18.5 31.1983C17.0683 32.3923 16.1084 32.1532 15.5 30.5C13.7019 30.3403 13.3286 29.7726 13.6685 28C12.6645 26.5446 13.0021 25.4873 14 24.6448C12.9988 23.3986 13.2923 22.3763 14.3783 21.5C13.5124 20.0029 13.7531 18.8592 14.893 18C14.0727 16.6565 14.2724 15.531 15.5 14.603C14.7803 13.0939 15.0188 12.0828 16.148 11.5C15.4816 10.0963 15.6918 8.98983 16.9212 8.19494C16.3084 6.74412 16.4724 5.63405 17.7234 5C17.2107 3.79659 17.1504 2.70101 18.5 2Z" fill="#898989"/>
<path d="M18.5 2C24.9437 2.43107 28.0564 2.47005 34.5 2C35.7597 2.59755 36.0877 3.57956 35.4144 5C36.6709 5.69657 37.0639 6.71458 36.3031 8.19494C37.8729 9.00328 38.086 10.1153 37.1145 11.5C38.6313 12.1919 38.8974 13.2161 37.7714 14.603C39.3299 15.4583 39.4796 16.596 38.3842 18C39.9152 18.8702 40.2075 20.0087 38.9224 21.5C40.175 22.2809 40.6103 23.2669 39.3486 24.6448C40.5954 25.6803 40.735 26.4026 39.7645 28C40.1153 30.4283 39.3424 30.8985 37 30.8548C36.3214 32.5359 35.1107 32.6645 33.5 31.6337C32.7044 33.3554 31.4597 33.1818 30 32.1001C28.8601 33.5029 27.5241 33.4222 26 32.1868C24.393 33.4894 23.0956 33.2652 22 31.8173C20.6078 33.105 19.4605 32.8322 18.5 31.1983C17.0683 32.3923 16.1084 32.1532 15.5 30.5C13.7019 30.3403 13.3286 29.7726 13.6685 28C12.6645 26.5446 13.0021 25.4873 14 24.6448C12.9988 23.3986 13.2923 22.3763 14.3783 21.5C13.5124 20.0029 13.7531 18.8592 14.893 18C14.0727 16.6565 14.2724 15.531 15.5 14.603C14.7803 13.0939 15.0188 12.0828 16.148 11.5C15.4816 10.0963 15.6918 8.98983 16.9212 8.19494C16.3084 6.74412 16.4724 5.63405 17.7234 5C17.2107 3.79659 17.1504 2.70101 18.5 2Z" fill="white" fill-opacity="0.8"/>
<path d="M16 28C16.6098 17.1896 17.9264 11.5007 20 2C25.2034 2.48514 28.0435 2.4602 33 2C35.783 11.2719 36.7038 17.3971 37.5 28C29.4351 31.1521 24.6957 30.8484 16 28Z" fill="#FEFEFE" stroke="#FEFEFE"/>
<path d="M12.1999 0.800049C14.0332 1.46672 19.4 2.30005 25 2.30005C30.6 2.30005 35.9462 1.30005 37.2462 0.800049" stroke="#1D8CE0" stroke-width="1.5"/>
<path d="M12.1999 0.800049C14.0332 1.46672 19.4 2.30005 25 2.30005C30.6 2.30005 35.9462 1.30005 37.2462 0.800049" stroke="white" stroke-opacity="0.95" stroke-width="1.5"/>
</g>
<defs>
<clipPath id="clip0_6204_11240">
<rect width="50" height="50" fill="white" transform="matrix(-1 0 0 1 50 0)"/>
</clipPath>
</defs>
</svg>
