<?xml version="1.0" encoding="utf-8"?><svg fill="none" viewBox="0 0 50 50" width="50" height="50" xmlns="http://www.w3.org/2000/svg"><g clip-path="url(#ajsa)"><path d="M7.697 41.63c-1.482-4.078-1.931-6.443-2.267-10.764 3.927 2.039 5.844 3.404 8.499 6.386-1.294-.034-1.97.037-2.936.618 2.884 3.992 9.106 6.843 12.103 4.094 1.736-1.592 1.03-4.816.824-5.794l3.914-.824c.206.978.962 4.284 3.09 4.97 3.838 1.235 7.834-3.866 9.373-8.617 1.091-3.37 1.533-5.272 2.318-8.663 1.614 4.05 1.954 6.44 2.267 10.764-.642-.815-1.127-1.186-2.396-1.54-.021 1.538-1.06 5.333-3.424 7.875-2.955 3.177-6.605 4.967-7.493 5.666-.711.558-2.317 2.702-2.807 3.656-.833-.676-2.77-2.073-4.043-2.214-1.59-.176-5.202-.437-9.142-2.163-2.984-1.306-5.47-4.298-6.309-5.824-1.313 1.162-1.37 1.586-1.57 2.374Z" fill="#898989"/><path d="M7.697 41.63c-1.482-4.078-1.931-6.443-2.267-10.764 3.206 1.664 5.071 2.88 7.093 4.892L11.5 36.5l-.507 1.37c2.884 3.992 9.106 6.843 12.103 4.094 1.736-1.592 1.03-4.816.824-5.794l1.957-.412 2.885 13.7c-.833-.677-2.77-2.074-4.043-2.215-1.59-.176-5.202-.437-9.142-2.163-2.984-1.306-5.47-4.298-6.309-5.824-1.313 1.162-1.37 1.586-1.57 2.374Z" fill="#898989"/><path d="M7.697 41.63c-1.482-4.078-1.931-6.443-2.267-10.764 3.206 1.664 5.071 2.88 7.093 4.892L11.5 36.5l-.507 1.37c2.884 3.992 9.106 6.843 12.103 4.094 1.736-1.592 1.03-4.816.824-5.794l1.957-.412 2.885 13.7c-.833-.677-2.77-2.074-4.043-2.215-1.59-.176-5.202-.437-9.142-2.163-2.984-1.306-5.47-4.298-6.309-5.824-1.313 1.162-1.37 1.586-1.57 2.374Z" fill="#fff" fill-opacity=".4"/><path d="M7.697 41.63c-1.482-4.078-1.931-6.443-2.267-10.764.867 1.691 3.019 5.599 4.688 7.7 2.085 2.626 4.069 4.764 8.395 5.896 3.46.906 7.588.446 9.219.103l1.03 4.892c-.833-.676-2.77-2.073-4.043-2.214-1.59-.176-5.202-.437-9.142-2.163-2.984-1.306-5.47-4.298-6.309-5.824-1.313 1.162-1.37 1.586-1.57 2.374Z" fill="#898989"/><path d="M7.697 41.63c-1.482-4.078-1.931-6.443-2.267-10.764.867 1.691 3.019 5.599 4.688 7.7 2.085 2.626 4.069 4.764 8.395 5.896 3.46.906 7.588.446 9.219.103l1.03 4.892c-.833-.676-2.77-2.073-4.043-2.214-1.59-.176-5.202-.437-9.142-2.163-2.984-1.306-5.47-4.298-6.309-5.824-1.313 1.162-1.37 1.586-1.57 2.374Z" fill="#fff" fill-opacity=".2"/><path d="M7.697 41.63c-1.482-4.078-1.931-6.443-2.267-10.764.584 2.773 1.87 8.395 2.344 8.704.474.31 1.194-.08 1.494-.314-1.313 1.162-1.37 1.586-1.57 2.374Z" fill="#FEFEFE"/><path d="M44.892 33.797c-.29-4.33-.832-6.675-2.267-10.763-.112 1.896-.505 6.34-1.184 8.935-.85 3.245-1.803 6-5.305 8.782-2.801 2.225-6.763 3.468-8.394 3.812l1.03 4.892c.49-.954 1.7-3.015 2.807-3.657 1.384-.802 4.583-2.498 7.493-5.665 2.204-2.4 3.272-6.14 3.424-7.875 1.67.534 1.893.9 2.395 1.54Z" fill="#898989"/><path d="M44.892 33.797c-.29-4.33-.832-6.675-2.267-10.763-.112 1.896-.505 6.34-1.184 8.935-.85 3.245-1.803 6-5.305 8.782-2.801 2.225-6.763 3.468-8.394 3.812l1.03 4.892c.49-.954 1.7-3.015 2.807-3.657 1.384-.802 4.583-2.498 7.493-5.665 2.204-2.4 3.272-6.14 3.424-7.875 1.67.534 1.893.9 2.395 1.54Z" fill="#000" fill-opacity=".2"/><path d="m22.064 7.947 1.03 4.892-1.545 2.37 2.37 1.545L25.76 25.5l-.261 2 1.419 3.5 2.358 11.196-1.957.412-5.77-27.4-1.443-6.85 1.957-.411Z" fill="#898989"/><path d="m18.15 8.771 1.03 4.893 2.37 1.545-1.546 2.369.363 1.72 1.182 1.202L21.5 22l-.354 1 4.422 20.998 1.958-.412-5.977-28.377-1.442-6.85-1.957.412Z" fill="#898989"/><path d="m18.15 8.771 1.03 4.893 2.37 1.545-1.546 2.369.363 1.72 1.182 1.202L21.5 22l-.354 1 4.422 20.998 1.958-.412-5.977-28.377-1.442-6.85-1.957.412Z" fill="#fff" fill-opacity=".4"/><path fill-rule="evenodd" clip-rule="evenodd" d="M18.87 2.487a3 3 0 1 0 1.237 5.872 3 3 0 0 0-1.236-5.872Zm-4.274 3.966a5 5 0 1 1 9.785-2.06 5 5 0 0 1-9.785 2.06Z" fill="#898989"/><path fill-rule="evenodd" clip-rule="evenodd" d="M18.87 2.487a3 3 0 1 0 1.237 5.872 3 3 0 0 0-1.236-5.872Zm-4.274 3.966a5 5 0 1 1 9.785-2.06 5 5 0 0 1-9.785 2.06Z" fill="#fff" fill-opacity=".4"/><path d="M14.596 6.453A5 5 0 0 1 18.46.53c-3.22 1.7-4.275 3.966-3.043 7.795a4.983 4.983 0 0 1-.82-1.872Z" fill="#FEFEFE"/><path d="m21.55 15.209-1.546 2.369L15 18.632 14.5 18l-.668-.614-.11-.529 7.827-1.648Z" fill="#898989"/><path d="m13.31 14.9 5.87-1.236 2.37 1.545-7.829 1.648-.412-1.957Z" fill="#898989"/><path d="m13.31 14.9 5.87-1.236 2.37 1.545-7.829 1.648-.412-1.957Z" fill="#fff" fill-opacity=".2"/><path d="m29.79 15.517-5.871 1.236-2.37-1.544 7.829-1.649.412 1.957Z" fill="#898989"/><path d="m29.79 15.517-5.871 1.236-2.37-1.544 7.829-1.649.412 1.957Z" fill="#000" fill-opacity=".4"/><path d="m21.55 15.209 1.545-2.37 2.935-.618.97.618 2.378.721-7.828 1.649Z" fill="#898989"/><path d="m21.55 15.209 1.545-2.37 2.935-.618.97.618 2.378.721-7.828 1.649Z" fill="#000" fill-opacity=".2"/><path d="M20.107 8.359a3 3 0 1 0-1.237-5.871L18.458.53a5 5 0 0 1 2.061 9.785l-.412-1.957Z" fill="#898989"/><path d="M20.107 8.359a3 3 0 1 0-1.237-5.871L18.458.53a5 5 0 0 1 2.061 9.785l-.412-1.957Z" fill="#fff" fill-opacity=".2"/><path d="m21.55 15.209-2.37-1.545c.395.257 1.108.89.799 1.364-.31.474-4.3 1.417-6.257 1.83l7.828-1.65ZM27.732 44.565l-1.855-8.807c.25 1.991 1.288 7.087.67 8.034-.618.948-6.963.905-6.963.905.487.181 5.389.563 8.148-.132Z" fill="#FEFEFE"/></g><defs><clipPath id="ajsa"><path fill="#fff" transform="matrix(-1 0 0 1 50 0)" d="M0 0h50v50H0z"/></clipPath></defs></svg>