<svg width="51" height="51" viewBox="0 0 51 51" fill="none" xmlns="http://www.w3.org/2000/svg">
<g clip-path="url(#clip0_1633_8511)">
<g clip-path="url(#clip1_1633_8511)">
<path d="M37.4444 15.3374V18.9603C38.0612 18.2056 39.5722 16.2432 42.5326 16.2432C46.2332 16.2432 47.6209 20.3189 47.6209 23.489C47.6209 26.659 45.7706 30.7348 42.5326 30.7348C39.9423 30.7348 37.907 28.4704 37.4444 28.0176V31.6405C37.907 31.6405 38.8321 33.4519 42.5326 33.4519C47.1583 33.4519 50.3962 29.3762 50.3962 23.489C50.3962 17.6018 47.1583 13.526 42.5326 13.526C39.2947 13.526 37.907 15.3374 37.4444 15.3374Z" fill="#898989"/>
<path d="M37.4444 15.3374V18.9603C38.0612 18.2056 39.5722 16.2432 42.5326 16.2432C46.2332 16.2432 47.6209 20.3189 47.6209 23.489C47.6209 26.659 45.7706 30.7348 42.5326 30.7348C39.9423 30.7348 37.907 28.4704 37.4444 28.0176V31.6405C37.907 31.6405 38.8321 33.4519 42.5326 33.4519C47.1583 33.4519 50.3962 29.3762 50.3962 23.489C50.3962 17.6018 47.1583 13.526 42.5326 13.526C39.2947 13.526 37.907 15.3374 37.4444 15.3374Z" fill="white" fill-opacity="0.95"/>
<path d="M5.56293 7.54822H38.4407V43.913C38.4407 43.913 35.4518 48.8945 22.0018 48.8945C8.55184 48.8945 5.56293 43.913 5.56293 43.913V7.54822Z" fill="#898989"/>
<path d="M5.56293 7.54822H38.4407V43.913C38.4407 43.913 35.4518 48.8945 22.0018 48.8945C8.55184 48.8945 5.56293 43.913 5.56293 43.913V7.54822Z" fill="white" fill-opacity="0.85"/>
<ellipse cx="22.0018" cy="7.05007" rx="16.4389" ry="4.48333" fill="#FEFEFE"/>
<ellipse cx="22.0018" cy="7.05007" rx="14.4463" ry="3.48704" fill="#898989"/>
<ellipse cx="22.0018" cy="7.05007" rx="14.4463" ry="3.48704" fill="white" fill-opacity="0.4"/>
<path d="M33.4592 9.04267C33.4592 8.54452 28.3295 7.54822 22.0018 7.54822C15.674 7.54822 10.5444 8.54452 10.5444 9.04267C10.5444 9.54081 15.674 10.5371 22.0018 10.5371C28.3295 10.5371 33.4592 9.54081 33.4592 9.04267Z" fill="#FAA21E"/>
<path d="M33.4592 9.04267C33.4592 8.54452 28.3295 7.54822 22.0018 7.54822C15.674 7.54822 10.5444 8.54452 10.5444 9.04267C10.5444 9.54081 15.674 10.5371 22.0018 10.5371C28.3295 10.5371 33.4592 9.54081 33.4592 9.04267Z" fill="black" fill-opacity="0.6"/>
</g>
<path d="M16.7563 18.6289C15.1119 19.303 12.6751 19.6822 11.6623 19.7876V29.9C11.6623 31.7961 11.7582 33.3301 13.8071 35.9043C15.8561 38.4785 21.9854 41.3818 21.9854 41.3818C21.9854 41.3818 28.1147 38.4785 30.1347 35.9043C32.1546 33.3301 32.3362 31.0938 32.3064 29.9V19.7876C31.0255 19.612 28.1597 19.1345 26.9443 18.6289C25.7289 18.1232 23.1767 16.3817 21.9851 15.5741C20.9722 16.3114 18.4007 17.9547 16.7563 18.6289Z" fill="#546DDB"/>
<path d="M16.7563 18.6289C15.1119 19.303 12.6751 19.6822 11.6623 19.7876V29.9C11.6623 31.7961 11.7582 33.3301 13.8071 35.9043C15.8561 38.4785 21.9854 41.3818 21.9854 41.3818C21.9854 41.3818 28.1147 38.4785 30.1347 35.9043C32.1546 33.3301 32.3362 31.0938 32.3064 29.9V19.7876C31.0255 19.612 28.1597 19.1345 26.9443 18.6289C25.7289 18.1232 23.1767 16.3817 21.9851 15.5741C20.9722 16.3114 18.4007 17.9547 16.7563 18.6289Z" fill="white" fill-opacity="0.2"/>
<path d="M18.0637 20.5987C16.8303 21.138 15.0027 21.4414 14.243 21.5257V29.6156V29.6395C14.243 31.1447 14.243 32.3063 15.8517 34.419C17.469 36.5429 21.9854 38.8011 21.9854 38.8011C21.9854 38.8011 25.8565 36.8655 27.9839 34.419C30.1112 31.9725 29.749 30.5707 29.7266 29.6156V21.5257C28.7659 21.3852 26.6165 21.0032 25.7049 20.5987C24.7933 20.1942 22.8791 18.8009 21.9854 18.1548C21.2257 18.7447 19.297 20.0594 18.0637 20.5987Z" fill="#FEFEFE"/>
<path d="M19.4046 22.5685C18.5824 22.973 17.3302 23.2532 16.8238 23.3164V29.3312C16.8238 30.4688 17.469 32.0265 18.1142 32.9943C18.7594 33.9621 21.9853 36.2203 21.9853 36.2203C21.9853 36.2203 24.8887 34.2847 25.8565 32.9943C26.8243 31.7039 27.1611 30.0475 27.1462 29.3312V23.3164C26.5057 23.2111 25.1738 22.8719 24.5661 22.5685C23.9584 22.2651 22.5812 21.2202 21.9853 20.7356C21.4789 21.178 20.2268 22.164 19.4046 22.5685Z" fill="#546DDB"/>
<path d="M19.4046 22.5685C18.5824 22.973 17.3302 23.2532 16.8238 23.3164V29.3312C16.8238 30.4688 17.469 32.0265 18.1142 32.9943C18.7594 33.9621 21.9853 36.2203 21.9853 36.2203C21.9853 36.2203 24.8887 34.2847 25.8565 32.9943C26.8243 31.7039 27.1611 30.0475 27.1462 29.3312V23.3164C26.5057 23.2111 25.1738 22.8719 24.5661 22.5685C23.9584 22.2651 22.5812 21.2202 21.9853 20.7356C21.4789 21.178 20.2268 22.164 19.4046 22.5685Z" fill="white" fill-opacity="0.2"/>
</g>
<defs>
<clipPath id="clip0_1633_8511">
<rect width="50" height="50" fill="white" transform="translate(0.581482 0.574097)"/>
</clipPath>
<clipPath id="clip1_1633_8511">
<rect width="49.8148" height="49.8148" fill="white" transform="translate(0.581482 0.574097)"/>
</clipPath>
</defs>
</svg>
