<svg width="40" height="40" viewBox="0 0 40 40" fill="none" xmlns="http://www.w3.org/2000/svg">
<path d="M11.8953 4.73469C9.34665 5.77959 5.56983 6.36735 4 6.53061V22.2041C4 25.1429 4.14868 27.5204 7.32434 31.5102C10.5 35.5 20 40 20 40C20 40 29.5 35.5 32.6307 31.5102C35.7614 27.5204 36.043 24.0544 35.9968 22.2041V6.53061C34.0114 6.2585 29.5697 5.51837 27.6859 4.73469C25.8021 3.95102 21.8464 1.2517 19.9995 0C18.4297 1.14286 14.444 3.6898 11.8953 4.73469Z" fill="#546DDB"/>
<path d="M11.8953 4.73469C9.34665 5.77959 5.56983 6.36735 4 6.53061V22.2041C4 25.1429 4.14868 27.5204 7.32434 31.5102C10.5 35.5 20 40 20 40C20 40 29.5 35.5 32.6307 31.5102C35.7614 27.5204 36.043 24.0544 35.9968 22.2041V6.53061C34.0114 6.2585 29.5697 5.51837 27.6859 4.73469C25.8021 3.95102 21.8464 1.2517 19.9995 0C18.4297 1.14286 14.444 3.6898 11.8953 4.73469Z" fill="white" fill-opacity="0.2"/>
<path d="M13.9217 7.78776C12.0101 8.62367 9.17741 9.09388 8 9.22449V21.7633V21.8004C7.99993 24.1333 7.99988 25.9337 10.4933 29.2082C13 32.5 20 36 20 36C20 36 26 33 29.2972 29.2082C32.5944 25.4163 32.033 23.2435 31.9983 21.7633V9.22449C30.5093 9.0068 27.1779 8.41469 25.765 7.78776C24.3521 7.16082 21.3852 5.00136 20 4C18.8226 4.91429 15.8332 6.95184 13.9217 7.78776Z" fill="#FEFEFE"/>
<path d="M16 10.8408C14.7256 11.4678 12.7849 11.902 12 12V21.3224C12 23.0857 13 25.5 14 27C15 28.5 20 32 20 32C20 32 24.5 29 26 27C27.5 25 28.022 22.4327 27.9989 21.3224V12C27.0062 11.8367 24.9419 11.311 24 10.8408C23.0581 10.3706 20.9235 8.75102 20 8C19.2151 8.68571 17.2744 10.2139 16 10.8408Z" fill="#546DDB"/>
<path d="M16 10.8408C14.7256 11.4678 12.7849 11.902 12 12V21.3224C12 23.0857 13 25.5 14 27C15 28.5 20 32 20 32C20 32 24.5 29 26 27C27.5 25 28.022 22.4327 27.9989 21.3224V12C27.0062 11.8367 24.9419 11.311 24 10.8408C23.0581 10.3706 20.9235 8.75102 20 8C19.2151 8.68571 17.2744 10.2139 16 10.8408Z" fill="white" fill-opacity="0.2"/>
</svg>
