<svg width="50" height="50" viewBox="0 0 50 50" fill="none" xmlns="http://www.w3.org/2000/svg">
<path d="M7.96296 46L5 24.3607L25 16L45 23.377L42.037 46L36 48L30.1852 46L25 16L20.8025 46L14 48L7.96296 46Z" fill="#898989"/>
<path d="M7.96296 46L5 24.3607L25 16L45 23.377L42.037 46L36 48L30.1852 46L25 16L20.8025 46L14 48L7.96296 46Z" fill="black" fill-opacity="0.4"/>
<path d="M25 16L20.8025 46L14 48L12 21.1048L25 16L37.5 21.1048L36.5 48L30.1852 46L25 16Z" fill="#898989"/>
<path d="M25 16L20.8025 46L14 48L12 21.1048L25 16L37.5 21.1048L36.5 48L30.1852 46L25 16Z" fill="black" fill-opacity="0.2"/>
<path d="M37 8L12.9259 8.52727L12 30.1455L24.963 37L38 30.1455L37 8Z" fill="#898989"/>
<path d="M0 34L3.5 26.5L13 30V39.5L2 41L0 34Z" fill="#D0333D"/>
<path d="M0 34L3.5 26.5L13 30V39.5L2 41L0 34Z" fill="black" fill-opacity="0.6"/>
<path d="M3 25.7241L6.65217 18L15 21.8621V30.069L5.6087 32L3 25.7241Z" fill="#D0333D"/>
<path d="M3 25.7241L6.65217 18L15 21.8621V30.069L5.6087 32L3 25.7241Z" fill="black" fill-opacity="0.4"/>
<path d="M5 16.7586L9.17391 9L17 12.6207V21.4138L9.17391 24L5 16.7586Z" fill="#D0333D"/>
<path d="M5 16.7586L9.17391 9L17 12.6207V21.4138L9.17391 24L5 16.7586Z" fill="black" fill-opacity="0.2"/>
<path d="M50 33.7586L46.5 26L37 29.6207V39.4483L48 41L50 33.7586Z" fill="#D0333D"/>
<path d="M50 33.7586L46.5 26L37 29.6207V39.4483L48 41L50 33.7586Z" fill="black" fill-opacity="0.6"/>
<path d="M47 25.2759L43.3478 17L35 21.1379V29.931L44.3913 32L47 25.2759Z" fill="#D0333D"/>
<path d="M47 25.2759L43.3478 17L35 21.1379V29.931L44.3913 32L47 25.2759Z" fill="black" fill-opacity="0.4"/>
<path d="M45 16.7586L40.8261 9L33 12.6207V21.4138L40.8261 24L45 16.7586Z" fill="#D0333D"/>
<path d="M45 16.7586L40.8261 9L33 12.6207V21.4138L40.8261 24L45 16.7586Z" fill="black" fill-opacity="0.2"/>
<path d="M25.4324 6L13.3243 3L9 9L12.4595 17.5L20.2432 12H30.1892L37.1081 18L41 9L37.1081 3L25.4324 6Z" fill="#898989"/>
<path d="M25.4324 6L13.3243 3L9 9L12.4595 17.5L20.2432 12H30.1892L37.1081 18L41 9L37.1081 3L25.4324 6Z" fill="white" fill-opacity="0.2"/>
</svg>
