<svg width="50" height="50" viewBox="0 0 50 50" fill="none" xmlns="http://www.w3.org/2000/svg">
<path d="M0 18.8571L2.24 16L14 20.5714L5.6 24L0 18.8571Z" fill="#898989"/>
<path d="M0 18.8571L2.24 16L14 20.5714L5.6 24L0 18.8571Z" fill="black" fill-opacity="0.2"/>
<path d="M50 18.8571L47.76 16L36 20.5714L44.4 24L50 18.8571Z" fill="#898989"/>
<path d="M50 18.8571L47.76 16L36 20.5714L44.4 24L50 18.8571Z" fill="black" fill-opacity="0.2"/>
<path d="M0 12.3799C0 7.25608 1.5 2.5 2 0C2.40381 3.26515 2.59257 9.08881 5.5 11.5C6.21455 12.0926 10.5808 11.8307 11.5 12.3799L12.5 21C6 21.5 0 17.5036 0 12.3799Z" fill="#D0333D"/>
<path d="M0 12.3799C0 7.25608 1.5 2.5 2 0C2.40381 3.26515 2.59257 9.08881 5.5 11.5C6.21455 12.0926 10.5808 11.8307 11.5 12.3799L12.5 21C6 21.5 0 17.5036 0 12.3799Z" fill="black" fill-opacity="0.2"/>
<path d="M50 12.1791C50 7.30746 48.9985 2.02985 48.1356 0C47.7658 3.10448 46.3967 9.88657 43.7341 12.1791C43.016 12.7974 39.359 12.5262 38.5 13L37 21C44 21.5 50 17.0507 50 12.1791Z" fill="#D0333D"/>
<path d="M50 12.1791C50 7.30746 48.9985 2.02985 48.1356 0C47.7658 3.10448 46.3967 9.88657 43.7341 12.1791C43.016 12.7974 39.359 12.5262 38.5 13L37 21C44 21.5 50 17.0507 50 12.1791Z" fill="black" fill-opacity="0.2"/>
<path d="M24.5 8L19 7L24.5 17L30 7L24.5 8Z" fill="#898989"/>
<path d="M24.5 8L19 7L24.5 17L30 7L24.5 8Z" fill="black" fill-opacity="0.4"/>
<path d="M17.5 12L19 7L24.5 16.5L30 7L31.5 12L24.5 16.5L17.5 12Z" fill="#898989"/>
<path d="M31.5 22.5L18.5 23L18 43.5L25 50L31.5 43.5V22.5Z" fill="#D0333D"/>
<path d="M31.5 22.5L18.5 23L18 43.5L25 50L31.5 43.5V22.5Z" fill="black" fill-opacity="0.2"/>
<path d="M17.5 12L12.5 12.5L14 20L24.5 26L35 20L36.5 12.5L31.5 12L24.5 16.5L17.5 12Z" fill="#D0333D"/>
<path d="M17.5 12L12.5 12.5L14 20L24.5 26L35 20L36.5 12.5L31.5 12L24.5 16.5L17.5 12Z" fill="black" fill-opacity="0.4"/>
<path d="M15 33C15 29 13 23.5 12 21L18.5 22C18.8333 23.8333 19.5 28.6 19.5 33C19.5 37.4 18.1667 46.1667 17.5 50H12.5L11 46L12 44.5C13 42 15 36.2249 15 33Z" fill="#D0333D"/>
<path d="M15 33C15 29 13 23.5 12 21L18.5 22C18.8333 23.8333 19.5 28.6 19.5 33C19.5 37.4 18.1667 46.1667 17.5 50H12.5L11 46L12 44.5C13 42 15 36.2249 15 33Z" fill="black" fill-opacity="0.4"/>
<path d="M34.5 33C34.5 29 36.5 23.5 37.5 21L31 22C30.6667 23.8333 30 28.6 30 33C30 37.4 31.3333 46.1667 32 50H37L38.5 46L37.5 44.5C36.5 42 34.5 36.2249 34.5 33Z" fill="#D0333D"/>
<path d="M34.5 33C34.5 29 36.5 23.5 37.5 21L31 22C30.6667 23.8333 30 28.6 30 33C30 37.4 31.3333 46.1667 32 50H37L38.5 46L37.5 44.5C36.5 42 34.5 36.2249 34.5 33Z" fill="black" fill-opacity="0.4"/>
<path d="M9.5 11.5L12.5 12.5L14 18.5L20.5 21.5L24.4892 25.9878L24.5034 25.9957L28 21.5L35 18.5L36.3125 12.5L39.5 11.5L37 21L28.5 23.5L24.5034 25.9957L24.5 26L24.4892 25.9878L20 23.5L12.5 21L9.5 11.5Z" fill="#898989"/>
<path d="M9.5 11.5L12.5 12.5L14 18.5L20.5 21.5L24.4892 25.9878L24.5034 25.9957L28 21.5L35 18.5L36.3125 12.5L39.5 11.5L37 21L28.5 23.5L24.5034 25.9957L24.5 26L24.4892 25.9878L20 23.5L12.5 21L9.5 11.5Z" fill="white" fill-opacity="0.2"/>
<path d="M14.5 29.5L13.5 25L23.5 29L14.5 29.5Z" fill="#898989"/>
<path d="M14.5 29.5L13.5 25L23.5 29L14.5 29.5Z" fill="white" fill-opacity="0.2"/>
<path d="M36 25L26 29L34.5 29.5L36 25Z" fill="#898989"/>
<path d="M36 25L26 29L34.5 29.5L36 25Z" fill="white" fill-opacity="0.2"/>
<path d="M23.5 31.5L15 33L14.5 36.5L23.5 31.5Z" fill="#898989"/>
<path d="M23.5 31.5L15 33L14.5 36.5L23.5 31.5Z" fill="white" fill-opacity="0.2"/>
<path d="M34.5 33L26 31.5L35 36.5L34.5 33Z" fill="#898989"/>
<path d="M34.5 33L26 31.5L35 36.5L34.5 33Z" fill="white" fill-opacity="0.2"/>
<path d="M12 44.5L13.5 40.5L23.5 35L12 44.5Z" fill="#898989"/>
<path d="M12 44.5L13.5 40.5L23.5 35L12 44.5Z" fill="white" fill-opacity="0.2"/>
<path d="M36 40.5L26 35L37.5 44.5L36 40.5Z" fill="#898989"/>
<path d="M36 40.5L26 35L37.5 44.5L36 40.5Z" fill="white" fill-opacity="0.2"/>
</svg>
