<svg width="50" height="50" viewBox="0 0 50 50" fill="none" xmlns="http://www.w3.org/2000/svg">
<path d="M0 15.3957C0 10.0584 1.60489 4.72386 2.5 2.5C2.88362 5.9012 3.23795 11.9883 6 14.5C6.67883 15.1173 8.12673 15.428 9 16C8.11336 20.3836 8 22.5 9 27.5C5.29169 25.407 0 20.7329 0 15.3957Z" fill="#D0333D"/>
<path d="M0 15.3957C0 10.0584 1.60489 4.72386 2.5 2.5C2.88362 5.9012 3.23795 11.9883 6 14.5C6.67883 15.1173 8.12673 15.428 9 16C8.11336 20.3836 8 22.5 9 27.5C5.29169 25.407 0 20.7329 0 15.3957Z" fill="black" fill-opacity="0.4"/>
<path d="M50 15.3432C50 10.0059 48.961 4.22386 48.0659 2C47.6823 5.4012 46.2621 12.8315 43.5 15.3432C42.7551 16.0206 40.5174 16.6181 39.6263 17.1371C40.5321 21.494 40.4034 23.937 39.6263 28.2939C43.3346 26.2008 50 20.6804 50 15.3432Z" fill="#D0333D"/>
<path d="M50 15.3432C50 10.0059 48.961 4.22386 48.0659 2C47.6823 5.4012 46.2621 12.8315 43.5 15.3432C42.7551 16.0206 40.5174 16.6181 39.6263 17.1371C40.5321 21.494 40.4034 23.937 39.6263 28.2939C43.3346 26.2008 50 20.6804 50 15.3432Z" fill="black" fill-opacity="0.4"/>
<path fill-rule="evenodd" clip-rule="evenodd" d="M35.3107 14.7608L29.6769 10.8605L31.753 7.53866C32.035 7.52273 32.3217 7.5143 32.6128 7.5143C34.5733 7.5143 36.1492 8.77282 37.3537 10.6746L35.3107 14.7608ZM37.9483 11.7215C39.0785 13.935 39.8013 16.7405 40.1316 19.4245L36.1084 15.4013L37.9483 11.7215ZM40.2811 20.9882C40.307 21.3704 40.3245 21.747 40.3337 22.1158L37.3524 26.8007L30.7272 22.3838L35.545 16.2521L40.2811 20.9882ZM40.3132 24.0106C40.2504 25.4595 40.0838 26.9186 39.8255 28.3638L38.1925 27.3432L40.3132 24.0106ZM39.621 29.4152C39.0211 32.2691 38.0717 35.0447 36.8689 37.553L32.2524 34.86L37.6125 28.1599L39.621 29.4152ZM36.4221 38.45C35.0776 41.0494 33.4589 43.3199 31.6822 45.0331L23.9569 41.3977L31.5376 35.6007L36.4221 38.45ZM30.8788 45.7602C28.9129 47.4251 26.7829 48.401 24.6349 48.401C22.3569 48.401 20.0382 47.2627 17.8878 45.3459L23.0362 42.0696L30.8788 45.7602ZM17.4844 44.9753C15.2219 42.8353 13.1644 39.8412 11.563 36.4253L14.4488 34.6216L22.1708 41.4351L17.2316 44.5782L17.4844 44.9753ZM11.1474 35.5058C9.97366 32.8103 9.08567 29.8856 8.59933 26.9315L9.06593 27.7481L9.08289 27.7778L9.10374 27.8049L13.7677 33.8681L11.1474 35.5058ZM8.28025 24.3576C8.21449 23.5597 8.18047 22.764 8.18047 21.9742C8.18047 20.721 8.24832 19.541 8.3786 18.4375L12.3159 15.2877L15.3854 21.8652L9.63594 26.73L8.28025 24.3576ZM8.59367 16.9848C9.08072 14.275 9.98017 12.1012 11.1946 10.5223L11.9501 14.2997L8.59367 16.9848ZM12.0262 9.58147C13.3253 8.30893 14.8981 7.60225 16.657 7.5143C16.7799 7.50816 16.9011 7.50397 17.0207 7.50165C17.041 7.62015 17.0686 7.74703 17.1003 7.87654C17.191 8.24777 17.3262 8.68466 17.4632 9.09562C17.6009 9.5086 17.7434 9.90458 17.8513 10.1967L17.8961 10.3173C17.7951 10.3892 17.6723 10.4766 17.5314 10.5763C17.1134 10.8723 16.5371 11.2773 15.904 11.7132C14.8825 12.4165 13.7294 13.189 12.8535 13.718L12.0262 9.58147ZM18.0456 7.52813C19.5558 7.63781 20.7643 8.04871 21.7092 8.52657L18.7812 9.82791C18.6766 9.54433 18.5416 9.16862 18.4119 8.77939C18.278 8.37785 18.1528 7.97099 18.0717 7.63909C18.0623 7.60049 18.0536 7.56348 18.0456 7.52813ZM22.7681 9.15027C23.2426 9.47111 23.6121 9.77838 23.887 10.0074C24.0806 9.89119 24.3237 9.7509 24.6118 9.59682L28.0625 11.1305L23.0675 15.2929L19.3021 10.6907L22.7681 9.15027ZM25.784 9.02349C27.0019 8.48077 28.618 7.91913 30.4975 7.66062L28.8062 10.3667L25.784 9.02349ZM16.7051 22.0542L22.9867 16.67L29.2381 22.4748L22.0627 28.3048L16.7051 22.0542ZM23.7567 16.0203L29.9424 21.7641L34.7787 15.6088L29.0281 11.6275L23.7567 16.0203ZM22.8557 28.949L30.0293 23.1205L36.7689 27.6135L31.389 34.3385L22.8557 28.949ZM22.0074 29.596L30.6257 35.0392L23.0227 40.8532L15.3185 34.0553L22.0074 29.596ZM21.2532 28.897L14.6115 33.3248L10.1873 27.5734L15.9438 22.7026L21.2532 28.897ZM22.3036 15.9384L16.1747 21.1918L13.1482 14.7065C14.0861 14.1548 15.3736 13.2925 16.4711 12.5368C17.1088 12.0978 17.6888 11.6902 18.1093 11.3924C18.2214 11.3131 18.3222 11.2415 18.4097 11.1792L22.3036 15.9384Z" fill="#D0333D"/>
<path fill-rule="evenodd" clip-rule="evenodd" d="M35.3107 14.7608L29.6769 10.8605L31.753 7.53866C32.035 7.52273 32.3217 7.5143 32.6128 7.5143C34.5733 7.5143 36.1492 8.77282 37.3537 10.6746L35.3107 14.7608ZM37.9483 11.7215C39.0785 13.935 39.8013 16.7405 40.1316 19.4245L36.1084 15.4013L37.9483 11.7215ZM40.2811 20.9882C40.307 21.3704 40.3245 21.747 40.3337 22.1158L37.3524 26.8007L30.7272 22.3838L35.545 16.2521L40.2811 20.9882ZM40.3132 24.0106C40.2504 25.4595 40.0838 26.9186 39.8255 28.3638L38.1925 27.3432L40.3132 24.0106ZM39.621 29.4152C39.0211 32.2691 38.0717 35.0447 36.8689 37.553L32.2524 34.86L37.6125 28.1599L39.621 29.4152ZM36.4221 38.45C35.0776 41.0494 33.4589 43.3199 31.6822 45.0331L23.9569 41.3977L31.5376 35.6007L36.4221 38.45ZM30.8788 45.7602C28.9129 47.4251 26.7829 48.401 24.6349 48.401C22.3569 48.401 20.0382 47.2627 17.8878 45.3459L23.0362 42.0696L30.8788 45.7602ZM17.4844 44.9753C15.2219 42.8353 13.1644 39.8412 11.563 36.4253L14.4488 34.6216L22.1708 41.4351L17.2316 44.5782L17.4844 44.9753ZM11.1474 35.5058C9.97366 32.8103 9.08567 29.8856 8.59933 26.9315L9.06593 27.7481L9.08289 27.7778L9.10374 27.8049L13.7677 33.8681L11.1474 35.5058ZM8.28025 24.3576C8.21449 23.5597 8.18047 22.764 8.18047 21.9742C8.18047 20.721 8.24832 19.541 8.3786 18.4375L12.3159 15.2877L15.3854 21.8652L9.63594 26.73L8.28025 24.3576ZM8.59367 16.9848C9.08072 14.275 9.98017 12.1012 11.1946 10.5223L11.9501 14.2997L8.59367 16.9848ZM12.0262 9.58147C13.3253 8.30893 14.8981 7.60225 16.657 7.5143C16.7799 7.50816 16.9011 7.50397 17.0207 7.50165C17.041 7.62015 17.0686 7.74703 17.1003 7.87654C17.191 8.24777 17.3262 8.68466 17.4632 9.09562C17.6009 9.5086 17.7434 9.90458 17.8513 10.1967L17.8961 10.3173C17.7951 10.3892 17.6723 10.4766 17.5314 10.5763C17.1134 10.8723 16.5371 11.2773 15.904 11.7132C14.8825 12.4165 13.7294 13.189 12.8535 13.718L12.0262 9.58147ZM18.0456 7.52813C19.5558 7.63781 20.7643 8.04871 21.7092 8.52657L18.7812 9.82791C18.6766 9.54433 18.5416 9.16862 18.4119 8.77939C18.278 8.37785 18.1528 7.97099 18.0717 7.63909C18.0623 7.60049 18.0536 7.56348 18.0456 7.52813ZM22.7681 9.15027C23.2426 9.47111 23.6121 9.77838 23.887 10.0074C24.0806 9.89119 24.3237 9.7509 24.6118 9.59682L28.0625 11.1305L23.0675 15.2929L19.3021 10.6907L22.7681 9.15027ZM25.784 9.02349C27.0019 8.48077 28.618 7.91913 30.4975 7.66062L28.8062 10.3667L25.784 9.02349ZM16.7051 22.0542L22.9867 16.67L29.2381 22.4748L22.0627 28.3048L16.7051 22.0542ZM23.7567 16.0203L29.9424 21.7641L34.7787 15.6088L29.0281 11.6275L23.7567 16.0203ZM22.8557 28.949L30.0293 23.1205L36.7689 27.6135L31.389 34.3385L22.8557 28.949ZM22.0074 29.596L30.6257 35.0392L23.0227 40.8532L15.3185 34.0553L22.0074 29.596ZM21.2532 28.897L14.6115 33.3248L10.1873 27.5734L15.9438 22.7026L21.2532 28.897ZM22.3036 15.9384L16.1747 21.1918L13.1482 14.7065C14.0861 14.1548 15.3736 13.2925 16.4711 12.5368C17.1088 12.0978 17.6888 11.6902 18.1093 11.3924C18.2214 11.3131 18.3222 11.2415 18.4097 11.1792L22.3036 15.9384Z" fill="black" fill-opacity="0.2"/>
<path d="M35.3106 14.7607L29.6768 10.8604L31.753 7.53864C32.035 7.52271 32.3217 7.51428 32.6127 7.51428C34.5732 7.51428 36.1492 8.7728 37.3537 10.6746L35.3106 14.7607Z" fill="#D0333D"/>
<path d="M39.621 29.4152C39.0211 32.269 38.0716 35.0446 36.8689 37.553L32.2523 34.86L37.6124 28.1599L39.621 29.4152Z" fill="#D0333D"/>
<path d="M30.8787 45.7602C28.9128 47.425 26.7829 48.401 24.6348 48.401C22.3568 48.401 20.0381 47.2627 17.8877 45.3459L23.0362 42.0696L30.8787 45.7602Z" fill="#D0333D"/>
<path d="M18.0456 7.52811C19.6991 7.64821 20.9911 8.12944 21.9712 8.66429L18.7917 9.85659L18.7893 9.85018C18.6837 9.56416 18.545 9.17889 18.4118 8.77937C18.278 8.37783 18.1528 7.97097 18.0716 7.63907C18.0622 7.60047 18.0535 7.56346 18.0456 7.52811Z" fill="#D0333D"/>
<path d="M23.7567 16.0203L29.9423 21.7641L34.7787 15.6087L29.028 11.6275L23.7567 16.0203Z" fill="#D0333D"/>
<path d="M22.0074 29.596L30.6257 35.0392L23.0227 40.8532L15.3184 34.0553L22.0074 29.596Z" fill="#D0333D"/>
<path d="M8.28039 24.3598C8.2145 23.5612 8.18042 22.7647 8.18042 21.9742C8.18042 20.721 8.24827 19.541 8.37856 18.4375L12.3158 15.2876L15.3853 21.8651L9.6627 26.7073L8.28039 24.3598Z" fill="#D0333D"/>
</svg>
