<svg width="50" height="50" viewBox="0 0 50 50" fill="none" xmlns="http://www.w3.org/2000/svg">
<g clip-path="url(#clip0_4698_7815)">
<path d="M15.9999 40C13.4999 38.5 11.9999 36 10.9999 33.5M39.9999 4.5C38.9999 4.20343 37.9999 2.5 37.9999 1.5M39.1953 7.70343C37.6953 6.70343 35.9999 5 35.4999 3M38.4999 11C35.9999 9.5 34.6806 8.20343 33.4999 5M37.4999 14C34.4999 12 32.4999 10 31.6547 7.70343M35.4999 16.5C32.9999 15 30.9999 13.5 29.9999 10.5M33.9999 19.5C31.4999 18 28.9999 16 27.9999 13.5M32.4999 22.5C29.9999 21 28.4999 19.5 26.4999 16.5M30.4999 24.4999C28.4999 23.5 26.4999 22 24.9999 19.5M28.9999 27C27 26.5 24.4999 24.5 23.4999 22M24.9999 32C22.9999 31 19.9998 27.4999 19.4999 26M22.9999 34.5C20.4999 33 17.9998 29.4999 17.4999 28M20.4999 36.5C18.4999 35 15.9999 32.5 14.9999 29.5M18.4999 38.5C15.9999 37 13.4999 33.5 12.9999 31.5M13.4999 41.5C11.9999 40.5 10.1667 37.801 9.49989 36M10.9999 43C9.49989 41.5 8.49989 40.5 7.99989 39M27.4999 29.5C24.4999 29 22.4999 26 21.4999 24" stroke="#FAA21E" stroke-width="2" stroke-linecap="round" stroke-linejoin="round"/>
<path d="M15.9999 40C13.4999 38.5 11.9999 36 10.9999 33.5M39.9999 4.5C38.9999 4.20343 37.9999 2.5 37.9999 1.5M39.1953 7.70343C37.6953 6.70343 35.9999 5 35.4999 3M38.4999 11C35.9999 9.5 34.6806 8.20343 33.4999 5M37.4999 14C34.4999 12 32.4999 10 31.6547 7.70343M35.4999 16.5C32.9999 15 30.9999 13.5 29.9999 10.5M33.9999 19.5C31.4999 18 28.9999 16 27.9999 13.5M32.4999 22.5C29.9999 21 28.4999 19.5 26.4999 16.5M30.4999 24.4999C28.4999 23.5 26.4999 22 24.9999 19.5M28.9999 27C27 26.5 24.4999 24.5 23.4999 22M24.9999 32C22.9999 31 19.9998 27.4999 19.4999 26M22.9999 34.5C20.4999 33 17.9998 29.4999 17.4999 28M20.4999 36.5C18.4999 35 15.9999 32.5 14.9999 29.5M18.4999 38.5C15.9999 37 13.4999 33.5 12.9999 31.5M13.4999 41.5C11.9999 40.5 10.1667 37.801 9.49989 36M10.9999 43C9.49989 41.5 8.49989 40.5 7.99989 39M27.4999 29.5C24.4999 29 22.4999 26 21.4999 24" stroke="white" stroke-opacity="0.8" stroke-width="2" stroke-linecap="round" stroke-linejoin="round"/>
<path d="M11.5002 43.5C12.8336 45.7967 15.0001 48 18.5001 49M14.0001 42C16.5001 45 19.0001 47 24.5001 48.5M16.5001 40.5C18.8337 42.7966 23.5001 46 30.0001 46M19.0001 39C22.5001 42 27.5001 43.2033 34.0001 43M21.0001 37C25.5001 40 31.0001 41 37.1666 40M23.5001 35C28.0001 37.5 34.5001 38.5 39.5001 37M25.5001 32.5C30.0001 35 37.0001 35.5 42.0001 34M28.0001 30C32.5001 32 39.0001 32.5 44.0001 31M30.0001 27.5C35.5001 29 40.5001 29.5 46.0001 27M31.5001 25C36.5001 26.5 42.5001 26 47.5001 23.5M33.0001 22.5C38.5001 23.5 44.0001 22.5 48.5001 20M34.5001 20C39.5001 20 44.0001 20 48.5001 16.5M36.5001 17C41.0001 17 45.5001 16 48.5001 12.5M38.0001 14C41.5001 14 44.7305 12.7602 47.5001 9.49998M39.0001 11C42.5001 10.5 43.8721 9.23363 46.1376 6.49998M40.0001 7.49999C42.0001 7.49999 43.5001 5.99998 44.7305 3.80094M40.5001 4.49998C41.5001 3.99998 42.1295 3.18794 43.0001 1.5" stroke="#FAA21E" stroke-width="2" stroke-linecap="round" stroke-linejoin="round"/>
<path d="M11.5002 43.5C12.8336 45.7967 15.0001 48 18.5001 49M14.0001 42C16.5001 45 19.0001 47 24.5001 48.5M16.5001 40.5C18.8337 42.7966 23.5001 46 30.0001 46M19.0001 39C22.5001 42 27.5001 43.2033 34.0001 43M21.0001 37C25.5001 40 31.0001 41 37.1666 40M23.5001 35C28.0001 37.5 34.5001 38.5 39.5001 37M25.5001 32.5C30.0001 35 37.0001 35.5 42.0001 34M28.0001 30C32.5001 32 39.0001 32.5 44.0001 31M30.0001 27.5C35.5001 29 40.5001 29.5 46.0001 27M31.5001 25C36.5001 26.5 42.5001 26 47.5001 23.5M33.0001 22.5C38.5001 23.5 44.0001 22.5 48.5001 20M34.5001 20C39.5001 20 44.0001 20 48.5001 16.5M36.5001 17C41.0001 17 45.5001 16 48.5001 12.5M38.0001 14C41.5001 14 44.7305 12.7602 47.5001 9.49998M39.0001 11C42.5001 10.5 43.8721 9.23363 46.1376 6.49998M40.0001 7.49999C42.0001 7.49999 43.5001 5.99998 44.7305 3.80094M40.5001 4.49998C41.5001 3.99998 42.1295 3.18794 43.0001 1.5" stroke="white" stroke-opacity="0.4" stroke-width="2" stroke-linecap="round" stroke-linejoin="round"/>
<path d="M1.49995 47.5001C5.7922 46.0447 15.5391 41.5686 21.4999 36.0001C28.3777 29.5748 33.4999 21.5 37 14.5001C39.5 9.50014 40.4487 1.39256 40.4999 0.500001" stroke="#FAA21E" stroke-width="1.5" stroke-linecap="round" stroke-linejoin="round"/>
<path d="M1.49995 47.5001C5.7922 46.0447 15.5391 41.5686 21.4999 36.0001C28.3777 29.5748 33.4999 21.5 37 14.5001C39.5 9.50014 40.4487 1.39256 40.4999 0.500001" stroke="white" stroke-opacity="0.6" stroke-width="1.5" stroke-linecap="round" stroke-linejoin="round"/>
</g>
<defs>
<clipPath id="clip0_4698_7815">
<rect width="50" height="50" fill="white" transform="matrix(-1 0 0 1 50 0)"/>
</clipPath>
</defs>
</svg>
