<svg width="50" height="50" viewBox="0 0 50 50" fill="none" xmlns="http://www.w3.org/2000/svg">
<g clip-path="url(#clip0_4698_7824)">
<path fill-rule="evenodd" clip-rule="evenodd" d="M25.0291 13.3599C24.894 13.5341 24.756 13.7119 24.6144 13.8918C23.175 15.7211 21.5407 15.916 21.1374 15.6497C20.7341 15.3835 23.8931 10.682 25.5909 9.06644C27.0344 7.69291 26.3526 4.8852 25.2219 3.79117C24.0911 2.69714 19.5904 -0.30599 14.9503 1.5565C10.3101 3.419 9.05731 8.77406 7.82834 15.7224C6.84517 21.2811 6.51838 24.5475 6.47788 25.4859C7.9241 26.1899 10.8756 27.6136 12.8831 28.1515C14.8906 28.6894 18.5125 29.1853 20.1662 29.3119C20.5221 27.9834 21.5367 25.8505 22.9475 24.8363C23.1158 24.7153 23.2931 24.5823 23.4773 24.4387C22.9764 23.0748 22.2121 20.076 23.0001 18.5C24.0001 16.5 25.5 15.5 27.5 16C28.382 16.2205 29.0006 17.0082 29.4062 17.7266C29.5048 17.5387 29.6028 17.3435 29.6983 17.1428C29.1927 16.4527 28.5886 15.1456 29 13.5C29.2915 12.334 29.7778 11.8053 30.1492 11.6043C29.8184 11.1987 29.3276 10.8831 28.6346 10.6974C27.268 10.4738 26.2677 11.7632 25.0291 13.3599Z" fill="#FAA21E"/>
<path fill-rule="evenodd" clip-rule="evenodd" d="M25.0291 13.3599C24.894 13.5341 24.756 13.7119 24.6144 13.8918C23.175 15.7211 21.5407 15.916 21.1374 15.6497C20.7341 15.3835 23.8931 10.682 25.5909 9.06644C27.0344 7.69291 26.3526 4.8852 25.2219 3.79117C24.0911 2.69714 19.5904 -0.30599 14.9503 1.5565C10.3101 3.419 9.05731 8.77406 7.82834 15.7224C6.84517 21.2811 6.51838 24.5475 6.47788 25.4859C7.9241 26.1899 10.8756 27.6136 12.8831 28.1515C14.8906 28.6894 18.5125 29.1853 20.1662 29.3119C20.5221 27.9834 21.5367 25.8505 22.9475 24.8363C23.1158 24.7153 23.2931 24.5823 23.4773 24.4387C22.9764 23.0748 22.2121 20.076 23.0001 18.5C24.0001 16.5 25.5 15.5 27.5 16C28.382 16.2205 29.0006 17.0082 29.4062 17.7266C29.5048 17.5387 29.6028 17.3435 29.6983 17.1428C29.1927 16.4527 28.5886 15.1456 29 13.5C29.2915 12.334 29.7778 11.8053 30.1492 11.6043C29.8184 11.1987 29.3276 10.8831 28.6346 10.6974C27.268 10.4738 26.2677 11.7632 25.0291 13.3599Z" fill="black" fill-opacity="0.1"/>
<path d="M21.2231 29.1599C19.59 28.1614 19.0422 28.8412 18.4586 29.2457C18.4758 27.3929 15.9651 25.7914 13.6864 27.1404C12.5037 24.3995 9.31706 24.01 7.78285 26.1194C7.52647 25.3029 6.7939 24.8449 5.26305 24.8834C3.7322 24.9219 3.06905 25.9781 2.92883 26.5014C2.29098 26.5175 1.15549 26.0263 0.291491 27.4774C-0.364234 28.5788 0.912841 29.8874 1.50395 30.0458C1.06818 30.4899 0.406533 31.6588 1.24618 32.7812C2.08583 33.9036 3.61818 33.9777 4.34952 33.6127C4.11582 34.4849 4.0266 35.8819 4.97843 36.5856C5.93025 37.2894 7.5374 37.0844 8.22199 36.8939C8.37733 37.4964 9.04267 38.7964 10.4613 39.1766C11.88 39.5567 13.1997 38.4146 13.6822 37.7961C13.9386 38.6126 14.8341 40.2361 16.3649 40.1975C17.8958 40.159 18.5589 39.1028 18.6991 38.5795C19.3913 38.9519 20.554 39.6373 21.6396 38.2456C22.1313 37.6152 22.041 36.2485 21.4022 35.5644C22.2739 36.0209 23.4521 35.5785 23.9511 34.9388C24.6749 34.0109 24.4332 32.7652 23.7656 32.0846C23.0192 31.3238 22.529 31.3794 22.1324 31.0862C22.3737 30.7769 21.9317 29.5931 21.2231 29.1599Z" fill="#FAA21E"/>
<path d="M21.2231 29.1599C19.59 28.1614 19.0422 28.8412 18.4586 29.2457C18.4758 27.3929 15.9651 25.7914 13.6864 27.1404C12.5037 24.3995 9.31706 24.01 7.78285 26.1194C7.52647 25.3029 6.7939 24.8449 5.26305 24.8834C3.7322 24.9219 3.06905 25.9781 2.92883 26.5014C2.29098 26.5175 1.15549 26.0263 0.291491 27.4774C-0.364234 28.5788 0.912841 29.8874 1.50395 30.0458C1.06818 30.4899 0.406533 31.6588 1.24618 32.7812C2.08583 33.9036 3.61818 33.9777 4.34952 33.6127C4.11582 34.4849 4.0266 35.8819 4.97843 36.5856C5.93025 37.2894 7.5374 37.0844 8.22199 36.8939C8.37733 37.4964 9.04267 38.7964 10.4613 39.1766C11.88 39.5567 13.1997 38.4146 13.6822 37.7961C13.9386 38.6126 14.8341 40.2361 16.3649 40.1975C17.8958 40.159 18.5589 39.1028 18.6991 38.5795C19.3913 38.9519 20.554 39.6373 21.6396 38.2456C22.1313 37.6152 22.041 36.2485 21.4022 35.5644C22.2739 36.0209 23.4521 35.5785 23.9511 34.9388C24.6749 34.0109 24.4332 32.7652 23.7656 32.0846C23.0192 31.3238 22.529 31.3794 22.1324 31.0862C22.3737 30.7769 21.9317 29.5931 21.2231 29.1599Z" fill="white" fill-opacity="0.4"/>
<path d="M20.8048 30.7211C19.153 29.7921 18.6327 30.3695 18.0677 30.7046C18.0233 29.0817 15.4817 27.5952 13.2681 28.7016C12.0049 26.2608 8.83372 25.8138 7.38312 27.6112C7.10194 26.8872 6.36068 26.4616 4.84472 26.4446C3.32875 26.4276 2.70653 27.3311 2.58492 27.7849C1.95327 27.7778 0.811582 27.3098 0.00339415 28.5526C-0.60997 29.4959 0.699164 30.6849 1.29028 30.8433C0.873104 31.2179 0.256112 32.2201 1.12553 33.2314C1.99495 34.2427 3.51614 34.3585 4.22887 34.063C4.02617 34.8195 3.98409 36.0405 4.9508 36.6887C5.91751 37.3369 7.50357 37.2106 8.17576 37.0664C8.3497 37.5995 9.05225 38.7606 10.4709 39.1408C11.8896 39.5209 13.1597 38.564 13.6174 38.038C13.8986 38.762 14.8399 40.2142 16.3559 40.2312C17.8719 40.2482 18.4941 39.3447 18.6157 38.8908C19.314 39.2401 20.4892 39.8793 21.5189 38.6959C21.9854 38.1598 21.8505 36.9593 21.1947 36.3387C22.0739 36.7676 23.2268 36.419 23.7002 35.8751C24.3868 35.0861 24.1059 33.9866 23.4217 33.3681C22.6567 32.6767 22.1727 32.7092 21.7699 32.4391C21.9988 32.1761 21.5214 31.1241 20.8048 30.7211Z" fill="#FAA21E"/>
<path d="M20.8048 30.7211C19.153 29.7921 18.6327 30.3695 18.0677 30.7046C18.0233 29.0817 15.4817 27.5952 13.2681 28.7016C12.0049 26.2608 8.83372 25.8138 7.38312 27.6112C7.10194 26.8872 6.36068 26.4616 4.84472 26.4446C3.32875 26.4276 2.70653 27.3311 2.58492 27.7849C1.95327 27.7778 0.811582 27.3098 0.00339415 28.5526C-0.60997 29.4959 0.699164 30.6849 1.29028 30.8433C0.873104 31.2179 0.256112 32.2201 1.12553 33.2314C1.99495 34.2427 3.51614 34.3585 4.22887 34.063C4.02617 34.8195 3.98409 36.0405 4.9508 36.6887C5.91751 37.3369 7.50357 37.2106 8.17576 37.0664C8.3497 37.5995 9.05225 38.7606 10.4709 39.1408C11.8896 39.5209 13.1597 38.564 13.6174 38.038C13.8986 38.762 14.8399 40.2142 16.3559 40.2312C17.8719 40.2482 18.4941 39.3447 18.6157 38.8908C19.314 39.2401 20.4892 39.8793 21.5189 38.6959C21.9854 38.1598 21.8505 36.9593 21.1947 36.3387C22.0739 36.7676 23.2268 36.419 23.7002 35.8751C24.3868 35.0861 24.1059 33.9866 23.4217 33.3681C22.6567 32.6767 22.1727 32.7092 21.7699 32.4391C21.9988 32.1761 21.5214 31.1241 20.8048 30.7211Z" fill="white" fill-opacity="0.8"/>
<path d="M24.6144 13.8918C26.0538 12.0625 27.1189 10.4494 28.6346 10.6973C29.1837 10.8445 29.6059 11.0732 29.9221 11.3636C29.6086 11.2458 28.9815 11.0102 28.3692 11.3637C27.1444 12.0708 25.7291 15.3151 23.4355 16.2534C22.4174 16.67 21.2448 16.7017 21.1374 15.6497C21.5407 15.916 23.175 15.721 24.6144 13.8918Z" fill="#FAA21E"/>
<path d="M24.6144 13.8918C26.0538 12.0625 27.1189 10.4494 28.6346 10.6973C29.1837 10.8445 29.6059 11.0732 29.9221 11.3636C29.6086 11.2458 28.9815 11.0102 28.3692 11.3637C27.1444 12.0708 25.7291 15.3151 23.4355 16.2534C22.4174 16.67 21.2448 16.7017 21.1374 15.6497C21.5407 15.916 23.175 15.721 24.6144 13.8918Z" fill="black" fill-opacity="0.4"/>
<path d="M29.9725 21.1106C29.0556 18.9712 28.4443 17.1373 26.9161 16.9845C23.0957 16.9845 23.8598 22.0275 24.6239 24.6255C25.388 27.2234 27.3746 30.4326 28.75 32.1136C29.8503 33.4584 30.2782 35.7812 30.2782 37.1566C31.9082 37.4622 35.5351 37.9207 37.6135 37.9207C39.6918 37.9207 42.9112 37.3094 44.4903 37.0038C44.694 36.0868 45.2238 32.8471 45.7128 27.2234C46.3241 20.1937 46.5 14.6969 42.5 11.6969C38.5 8.69689 33.3754 10.4328 32 11.1969C30.6246 11.961 29.2394 14.4966 30.2782 16.1969C31.5 18.1969 33.3345 23.5557 32.8761 23.7085C32.4176 23.8614 30.8894 23.2501 29.9725 21.1106Z" fill="#FAA21E"/>
<path d="M29.2964 36.7362C31.1323 36.1944 31.4855 36.9928 31.9444 37.5346C32.4074 35.7404 35.2471 34.8433 37.0989 36.7362C38.9508 34.3948 42.1296 34.8433 43.0656 37.2779C43.5246 36.5555 44.3507 36.3027 45.8194 36.7362C47.2882 37.1696 47.6553 38.3615 47.6553 38.9032C48.2673 39.0838 49.4912 38.9032 49.9502 40.5286C50.2985 41.7621 48.7263 42.6956 48.1143 42.6956C48.4203 43.2374 48.7569 44.5377 47.6553 45.4045C46.5538 46.2713 45.0545 45.9463 44.4425 45.4045C44.4425 46.3075 44.1671 47.6799 43.0656 48.1134C41.9641 48.5468 40.4648 47.9328 39.8528 47.5716C39.5468 48.1134 38.5677 49.1969 37.0989 49.1969C35.6302 49.1969 34.6511 47.7522 34.3451 47.0298C33.8861 47.7522 32.601 49.0885 31.1323 48.6551C29.6636 48.2217 29.2964 47.0298 29.2964 46.488C28.5314 46.6686 27.2309 47.0298 26.5425 45.4045C26.2307 44.6683 26.6717 43.3715 27.4658 42.8761C26.5056 43.0914 25.4821 42.3592 25.1657 41.6121C24.7067 40.5285 25.2625 39.3879 26.0836 38.9032C27.0014 38.3615 27.4605 38.5421 27.9195 38.3615C27.7665 38.0003 28.4999 36.9712 29.2964 36.7362Z" fill="#FAA21E"/>
<path d="M29.2964 36.7362C31.1323 36.1944 31.4855 36.9928 31.9444 37.5346C32.4074 35.7404 35.2471 34.8433 37.0989 36.7362C38.9508 34.3948 42.1296 34.8433 43.0656 37.2779C43.5246 36.5555 44.3507 36.3027 45.8194 36.7362C47.2882 37.1696 47.6553 38.3615 47.6553 38.9032C48.2673 39.0838 49.4912 38.9032 49.9502 40.5286C50.2985 41.7621 48.7263 42.6956 48.1143 42.6956C48.4203 43.2374 48.7569 44.5377 47.6553 45.4045C46.5538 46.2713 45.0545 45.9463 44.4425 45.4045C44.4425 46.3075 44.1671 47.6799 43.0656 48.1134C41.9641 48.5468 40.4648 47.9328 39.8528 47.5716C39.5468 48.1134 38.5677 49.1969 37.0989 49.1969C35.6302 49.1969 34.6511 47.7522 34.3451 47.0298C33.8861 47.7522 32.601 49.0885 31.1323 48.6551C29.6636 48.2217 29.2964 47.0298 29.2964 46.488C28.5314 46.6686 27.2309 47.0298 26.5425 45.4045C26.2307 44.6683 26.6717 43.3715 27.4658 42.8761C26.5056 43.0914 25.4821 42.3592 25.1657 41.6121C24.7067 40.5285 25.2625 39.3879 26.0836 38.9032C27.0014 38.3615 27.4605 38.5421 27.9195 38.3615C27.7665 38.0003 28.4999 36.9712 29.2964 36.7362Z" fill="white" fill-opacity="0.6"/>
<path d="M29.2964 38.3194C31.1323 37.855 31.4855 38.5394 31.9444 39.0037C32.4074 37.4659 35.2471 36.6969 37.0989 38.3194C38.9508 36.3125 42.1296 36.6969 43.0656 38.7837C43.5246 38.1646 44.3507 37.9479 45.8194 38.3194C47.2882 38.6909 47.6553 39.7125 47.6553 40.1769C48.2673 40.3316 49.4912 40.1769 49.9502 41.57C50.2985 42.6273 48.7263 43.4275 48.1143 43.4275C48.4203 43.8919 48.7569 45.0064 47.6553 45.7494C46.5538 46.4924 45.0545 46.2138 44.4425 45.7494C44.4425 46.5234 44.1671 47.6997 43.0656 48.0712C41.9641 48.4427 40.4648 47.9165 39.8528 47.6069C39.5468 48.0712 38.5677 49 37.0989 49C35.6302 49 34.6511 47.7617 34.3451 47.1425C33.8861 47.7617 32.601 48.9071 31.1323 48.5356C29.6636 48.1641 29.2964 47.1425 29.2964 46.6781C28.5314 46.8329 27.2309 47.1425 26.5425 45.7494C26.2307 45.1183 26.6717 44.0068 27.4658 43.5822C26.5056 43.7667 25.4821 43.1391 25.1657 42.4987C24.7067 41.57 25.2625 40.5923 26.0836 40.1769C27.0014 39.7125 27.4605 39.8673 27.9195 39.7125C27.7665 39.4029 28.4999 38.5208 29.2964 38.3194Z" fill="#FAA21E"/>
<path d="M29.2964 38.3194C31.1323 37.855 31.4855 38.5394 31.9444 39.0037C32.4074 37.4659 35.2471 36.6969 37.0989 38.3194C38.9508 36.3125 42.1296 36.6969 43.0656 38.7837C43.5246 38.1646 44.3507 37.9479 45.8194 38.3194C47.2882 38.6909 47.6553 39.7125 47.6553 40.1769C48.2673 40.3316 49.4912 40.1769 49.9502 41.57C50.2985 42.6273 48.7263 43.4275 48.1143 43.4275C48.4203 43.8919 48.7569 45.0064 47.6553 45.7494C46.5538 46.4924 45.0545 46.2138 44.4425 45.7494C44.4425 46.5234 44.1671 47.6997 43.0656 48.0712C41.9641 48.4427 40.4648 47.9165 39.8528 47.6069C39.5468 48.0712 38.5677 49 37.0989 49C35.6302 49 34.6511 47.7617 34.3451 47.1425C33.8861 47.7617 32.601 48.9071 31.1323 48.5356C29.6636 48.1641 29.2964 47.1425 29.2964 46.6781C28.5314 46.8329 27.2309 47.1425 26.5425 45.7494C26.2307 45.1183 26.6717 44.0068 27.4658 43.5822C26.5056 43.7667 25.4821 43.1391 25.1657 42.4987C24.7067 41.57 25.2625 40.5923 26.0836 40.1769C27.0014 39.7125 27.4605 39.8673 27.9195 39.7125C27.7665 39.4029 28.4999 38.5208 29.2964 38.3194Z" fill="white" fill-opacity="0.95"/>
<path d="M29.9725 21.1106C29.0556 18.9711 28.4443 17.1373 26.9161 16.9845C26.3476 16.9845 25.8806 17.0962 25.5 17.2949C25.8333 17.2622 26.5 17.1969 27 17.6969C28 18.6969 28.5275 22.1969 30.5 23.6969C31.3756 24.3628 32.5 24.6969 32.8761 23.7085C32.4176 23.8613 30.8894 23.2501 29.9725 21.1106Z" fill="#C57A09"/>
</g>
<defs>
<clipPath id="clip0_4698_7824">
<rect width="50" height="50" fill="white" transform="matrix(-1 0 0 1 50 0)"/>
</clipPath>
</defs>
</svg>
