<svg width="50" height="50" viewBox="0 0 50 50" fill="none" xmlns="http://www.w3.org/2000/svg">
<rect x="4" y="4" width="42" height="2" fill="#FEFEFE"/>
<path d="M44 7H6L8 41C8 41.5132 8.5 42.5789 9 43C9.85519 43.7202 10.8311 44 11 44C14.04 44.6842 19 46 25 46C31 46 35.2978 44.6316 38 43.9474C38.3378 43.7763 39.3049 43.5853 40 43C40.5 42.5789 41 42.1316 41 41L44 7Z" fill="#FEFEFE"/>
<rect x="6" y="6" width="38" height="2" fill="#898989"/>
<rect x="6" y="6" width="38" height="2" fill="white" fill-opacity="0.6"/>
<g clip-path="url(#clip0_1337_8254)">
<path d="M19.332 24.5458C19.7206 24.3145 19.17 23.7427 18.8462 23.4857C19.6234 21.9436 20.6921 20.9799 22.2466 19.1487C23.8011 17.3176 23.5097 15.2295 23.5097 14.1372C23.8983 14.7155 24.6561 16.1804 24.5784 17.414C24.4812 18.956 24.0926 19.727 24.4812 19.9198C24.8699 20.1125 24.967 19.727 25.1613 19.2451C25.3168 18.8596 25.4204 18.3777 25.4528 18.185C25.55 18.6026 25.7637 19.5343 25.8414 19.9198C25.9386 20.4016 26.4244 20.9799 26.813 20.6908C27.2016 20.4016 26.3272 18.956 26.3272 17.414C26.3272 16.1804 26.6511 15.2295 26.9102 15.0046C26.9749 15.5507 26.9879 16.6815 27.2988 17.6067C27.6874 18.7632 28.4647 19.6306 29.6305 20.9799C30.9984 22.5629 32.0595 24.1603 32.6424 26.6661C33.0684 28.4972 33.1282 29.9428 32.9339 31.774C32.7784 33.2389 32.5452 33.8621 32.4481 34.087C31.8975 34.4083 30.8353 35.1086 30.9907 35.3399C31.185 35.629 31.9623 35.2435 32.6424 34.7616C33.1865 34.3761 33.9702 33.573 34.2941 33.2196C34.1321 33.83 33.6723 35.1857 33.1282 35.7254C32.5841 36.2651 31.6061 36.7213 31.185 36.8819C31.1527 37.3317 30.5244 38.4817 28.2703 39.484C25.4528 40.7369 22.2466 40.0623 20.3035 38.5203C18.3604 36.9783 17.6803 34.3761 17.3888 31.0993C17.1556 28.4779 17.8098 26.2163 18.1661 25.4132C17.8746 25.2204 17.2722 24.6229 17.1945 23.7748C17.1168 22.9267 17.486 22.1364 17.6803 21.8473C17.7127 22.3934 17.8552 23.582 18.1661 23.9675C18.5547 24.4494 18.8462 24.8349 19.332 24.5458Z" fill="#7445B8"/>
<path d="M19.332 24.5458C19.7206 24.3145 19.17 23.7427 18.8462 23.4857C19.6234 21.9436 20.6921 20.9799 22.2466 19.1487C23.8011 17.3176 23.5097 15.2295 23.5097 14.1372C23.8983 14.7155 24.6561 16.1804 24.5784 17.414C24.4812 18.956 24.0926 19.727 24.4812 19.9198C24.8699 20.1125 24.967 19.727 25.1613 19.2451C25.3168 18.8596 25.4204 18.3777 25.4528 18.185C25.55 18.6026 25.7637 19.5343 25.8414 19.9198C25.9386 20.4016 26.4244 20.9799 26.813 20.6908C27.2016 20.4016 26.3272 18.956 26.3272 17.414C26.3272 16.1804 26.6511 15.2295 26.9102 15.0046C26.9749 15.5507 26.9879 16.6815 27.2988 17.6067C27.6874 18.7632 28.4647 19.6306 29.6305 20.9799C30.9984 22.5629 32.0595 24.1603 32.6424 26.6661C33.0684 28.4972 33.1282 29.9428 32.9339 31.774C32.7784 33.2389 32.5452 33.8621 32.4481 34.087C31.8975 34.4083 30.8353 35.1086 30.9907 35.3399C31.185 35.629 31.9623 35.2435 32.6424 34.7616C33.1865 34.3761 33.9702 33.573 34.2941 33.2196C34.1321 33.83 33.6723 35.1857 33.1282 35.7254C32.5841 36.2651 31.6061 36.7213 31.185 36.8819C31.1527 37.3317 30.5244 38.4817 28.2703 39.484C25.4528 40.7369 22.2466 40.0623 20.3035 38.5203C18.3604 36.9783 17.6803 34.3761 17.3888 31.0993C17.1556 28.4779 17.8098 26.2163 18.1661 25.4132C17.8746 25.2204 17.2722 24.6229 17.1945 23.7748C17.1168 22.9267 17.486 22.1364 17.6803 21.8473C17.7127 22.3934 17.8552 23.582 18.1661 23.9675C18.5547 24.4494 18.8462 24.8349 19.332 24.5458Z" fill="white" fill-opacity="0.2"/>
<path d="M33.5168 27.6298L33.3225 26.4733C33.3873 26.4733 33.5751 26.3962 33.8083 26.0878C34.0414 25.7794 34.1645 24.9955 34.1969 24.6422C34.2941 25.0598 34.4495 26.0107 34.2941 26.4733C34.1386 26.9359 33.7111 27.4371 33.5168 27.6298Z" fill="#7445B8"/>
<path d="M33.5168 27.6298L33.3225 26.4733C33.3873 26.4733 33.5751 26.3962 33.8083 26.0878C34.0414 25.7794 34.1645 24.9955 34.1969 24.6422C34.2941 25.0598 34.4495 26.0107 34.2941 26.4733C34.1386 26.9359 33.7111 27.4371 33.5168 27.6298Z" fill="white" fill-opacity="0.2"/>
<path d="M16.5144 34.087C16.2035 33.8557 15.8019 33.4124 15.64 33.2196C15.7372 33.6051 16.0092 34.4532 16.3201 34.7616C16.631 35.07 17.2269 35.3399 17.486 35.4363L17.3888 34.4725C17.2269 34.4404 16.8253 34.3183 16.5144 34.087Z" fill="#7445B8"/>
<path d="M16.5144 34.087C16.2035 33.8557 15.8019 33.4124 15.64 33.2196C15.7372 33.6051 16.0092 34.4532 16.3201 34.7616C16.631 35.07 17.2269 35.3399 17.486 35.4363L17.3888 34.4725C17.2269 34.4404 16.8253 34.3183 16.5144 34.087Z" fill="white" fill-opacity="0.2"/>
<path d="M25.78 19.3372C25.702 18.7715 25.6145 18.0911 25.52 18.0372C25.4035 18.3152 25.1842 19.0378 25 19.5972C24.9001 19.9005 25.0804 20.608 25.52 20.6371C25.9596 20.6662 25.8794 20.0582 25.78 19.3372Z" fill="#D0333D"/>
<path d="M33.58 27.7801L33.06 25.9098C33.1574 25.9098 33.8521 25.4159 34.1 24.9201C34.3479 24.4243 34.3113 23.5921 34.36 23.1001C34.5061 23.6816 35.14 24.6601 34.88 25.7001C34.7138 26.3649 33.8722 27.5117 33.58 27.7801Z" fill="#D0333D"/>
<path d="M16.0779 33.421C15.5524 33.0955 14.6137 31.9515 14.34 31.6802C14.5042 32.2228 14.6 33.2402 15.7495 34.3706C16.2354 34.8485 17.2821 35.4445 17.72 35.5802L17.2 33.7602C16.9263 33.715 16.6034 33.7466 16.0779 33.421Z" fill="#D0333D"/>
<path d="M25.78 24.7971C25.984 23.7772 26.3867 23.0637 26.56 22.9771C26.7333 23.4971 26.82 24.7971 27.08 25.8371C27.221 26.4011 27.08 27.3971 26.3 27.3971C25.52 27.3971 25.52 26.0971 25.78 24.7971Z" fill="#D0333D"/>
<path d="M17.98 23.0998C17.7328 22.5388 17.72 21.2272 17.72 20.7598C17.102 21.461 16.5819 22.6948 16.7352 23.5646C17.0443 25.3176 18.2803 25.6682 18.5893 25.3176C19.2074 24.6164 18.289 23.801 17.98 23.0998Z" fill="#D0333D"/>
<path d="M23.44 16.7372C23.6161 16.209 23.7 15.1772 23.44 14.1372C24.22 15.1771 24.74 16.2173 24.74 17.2572C24.74 19.3372 23.6124 20.0302 23.18 19.8572C21.88 19.3372 22.92 18.2972 23.44 16.7372Z" fill="#D0333D"/>
<path d="M32.28 34.9372C32.9858 34.5843 34.1 33.3772 34.36 33.1172C34.1 33.8972 33.84 34.6772 33.58 35.1972C32.9462 36.4647 31.24 37.2772 30.98 36.7572C30.5571 35.9114 31.24 35.4572 32.28 34.9372Z" fill="#D0333D"/>
<path d="M19.54 29.9972C19.48 28.9589 19.6541 28.3048 19.8 28.1772C20.0989 28.6367 20.896 30.0161 21.41 30.9569C21.6887 31.4671 21.8036 32.4664 21.0488 32.6632C20.2941 32.86 19.6164 31.3207 19.54 29.9972Z" fill="#D0333D"/>
<path d="M28.8237 33.2905C28.8024 32.2477 28.5629 31.6016 28.3967 31.4812C28.1155 31.9565 27.3782 33.3783 26.9069 34.3465C26.6514 34.8715 26.6109 35.8781 27.4325 36.0369C28.2542 36.1957 28.8509 34.6199 28.8237 33.2905Z" fill="#D0333D"/>
<path d="M27.6 18.037C27.3783 17.4548 26.828 15.2318 26.82 14.917C26.5331 15.6334 26.3 16.9414 26.3 17.517C26.3 18.819 27.08 20.897 27.86 20.637C28.9631 20.2693 27.9266 18.8949 27.6 18.037Z" fill="#D0333D"/>
</g>
<defs>
<clipPath id="clip0_1337_8254">
<rect width="26" height="26" fill="white" transform="translate(12 14)"/>
</clipPath>
</defs>
</svg>
