<svg width="50" height="50" viewBox="0 0 50 50" fill="none" xmlns="http://www.w3.org/2000/svg">
<g clip-path="url(#clip0_1314_8058)">
<path d="M14.0999 20.2802C14.8473 19.8354 13.7885 18.7357 13.1657 18.2415C14.6604 15.2761 16.7157 13.4227 19.7051 9.90125C22.6945 6.37983 22.134 2.36417 22.134 0.263672C22.8814 1.3757 24.3387 4.19284 24.1892 6.56517C24.0024 9.53058 23.255 11.0133 24.0024 11.384C24.7498 11.7546 24.9366 11.0133 25.3103 10.0866C25.6092 9.34524 25.8085 8.41855 25.8708 8.04787C26.0576 8.851 26.4687 10.6426 26.6181 11.384C26.805 12.3106 27.7392 13.4227 28.4865 12.8667C29.2339 12.3106 27.5523 9.53058 27.5523 6.56517C27.5523 4.19284 28.1751 2.36417 28.6734 1.93171C28.7979 2.98196 28.8228 5.1566 29.4207 6.93584C30.1681 9.1599 31.6628 10.8279 33.9049 13.4227C36.5354 16.4669 38.5759 19.5388 39.6969 24.3576C40.5161 27.879 40.6311 30.6591 40.2574 34.1805C39.9585 36.9977 39.5101 38.1962 39.3232 38.6287C38.2645 39.2465 36.2217 40.5932 36.5206 41.0381C36.8943 41.5941 38.389 40.8527 39.6969 39.926C40.7432 39.1847 42.2504 37.6402 42.8732 36.9606C42.5618 38.1344 41.6774 40.7415 40.6311 41.7794C39.5848 42.8173 37.704 43.6946 36.8943 44.0035C36.832 44.8684 35.6238 47.0801 31.2891 49.0076C25.8708 51.417 19.7051 50.1196 15.9683 47.1542C12.2315 44.1888 10.9236 39.1847 10.3631 32.8832C9.91468 27.842 11.1728 23.4927 11.8578 21.9482C11.2973 21.5776 10.1389 20.4285 9.98945 18.7975C9.83998 17.1665 10.55 15.6467 10.9236 15.0907C10.9859 16.141 11.26 18.4268 11.8578 19.1682C12.6052 20.0948 13.1657 20.8362 14.0999 20.2802Z" fill="#7445B8"/>
<path d="M14.0999 20.2802C14.8473 19.8354 13.7885 18.7357 13.1657 18.2415C14.6604 15.2761 16.7157 13.4227 19.7051 9.90125C22.6945 6.37983 22.134 2.36417 22.134 0.263672C22.8814 1.3757 24.3387 4.19284 24.1892 6.56517C24.0024 9.53058 23.255 11.0133 24.0024 11.384C24.7498 11.7546 24.9366 11.0133 25.3103 10.0866C25.6092 9.34524 25.8085 8.41855 25.8708 8.04787C26.0576 8.851 26.4687 10.6426 26.6181 11.384C26.805 12.3106 27.7392 13.4227 28.4865 12.8667C29.2339 12.3106 27.5523 9.53058 27.5523 6.56517C27.5523 4.19284 28.1751 2.36417 28.6734 1.93171C28.7979 2.98196 28.8228 5.1566 29.4207 6.93584C30.1681 9.1599 31.6628 10.8279 33.9049 13.4227C36.5354 16.4669 38.5759 19.5388 39.6969 24.3576C40.5161 27.879 40.6311 30.6591 40.2574 34.1805C39.9585 36.9977 39.5101 38.1962 39.3232 38.6287C38.2645 39.2465 36.2217 40.5932 36.5206 41.0381C36.8943 41.5941 38.389 40.8527 39.6969 39.926C40.7432 39.1847 42.2504 37.6402 42.8732 36.9606C42.5618 38.1344 41.6774 40.7415 40.6311 41.7794C39.5848 42.8173 37.704 43.6946 36.8943 44.0035C36.832 44.8684 35.6238 47.0801 31.2891 49.0076C25.8708 51.417 19.7051 50.1196 15.9683 47.1542C12.2315 44.1888 10.9236 39.1847 10.3631 32.8832C9.91468 27.842 11.1728 23.4927 11.8578 21.9482C11.2973 21.5776 10.1389 20.4285 9.98945 18.7975C9.83998 17.1665 10.55 15.6467 10.9236 15.0907C10.9859 16.141 11.26 18.4268 11.8578 19.1682C12.6052 20.0948 13.1657 20.8362 14.0999 20.2802Z" fill="white" fill-opacity="0.2"/>
<path d="M41.3785 26.211L41.0048 23.9869C41.1293 23.9869 41.4906 23.8387 41.939 23.2456C42.3874 22.6525 42.6241 21.1451 42.6863 20.4655C42.8732 21.2687 43.1721 23.0973 42.8732 23.9869C42.5742 24.8766 41.7521 25.8403 41.3785 26.211Z" fill="#7445B8"/>
<path d="M41.3785 26.211L41.0048 23.9869C41.1293 23.9869 41.4906 23.8387 41.939 23.2456C42.3874 22.6525 42.6241 21.1451 42.6863 20.4655C42.8732 21.2687 43.1721 23.0973 42.8732 23.9869C42.5742 24.8766 41.7521 25.8403 41.3785 26.211Z" fill="white" fill-opacity="0.2"/>
<path d="M8.68156 38.6287C8.08367 38.1838 7.3114 37.3313 7 36.9606C7.18684 37.702 7.70999 39.3329 8.30788 39.926C8.90576 40.5191 10.0517 41.0381 10.55 41.2234L10.3631 39.37C10.0517 39.3082 9.27944 39.0735 8.68156 38.6287Z" fill="#7445B8"/>
<path d="M8.68156 38.6287C8.08367 38.1838 7.3114 37.3313 7 36.9606C7.18684 37.702 7.70999 39.3329 8.30788 39.926C8.90576 40.5191 10.0517 41.0381 10.55 41.2234L10.3631 39.37C10.0517 39.3082 9.27944 39.0735 8.68156 38.6287Z" fill="white" fill-opacity="0.2"/>
<path d="M26.5 10.2638C26.3501 9.17601 26.1818 7.86742 26 7.76378C25.7759 8.29852 25.3543 9.68806 25 10.7638C24.8079 11.3472 25.1547 12.7077 26 12.7637C26.8453 12.8197 26.6912 11.6504 26.5 10.2638Z" fill="#D0333D"/>
<path d="M41.5 26.5L40.5 22.9032C40.6873 22.9032 42.0232 21.9535 42.5 21C42.9768 20.0465 42.9064 18.4462 43 17.5C43.2809 18.6183 44.5 20.5 44 22.5C43.6804 23.7784 42.0619 25.9839 41.5 26.5Z" fill="#D0333D"/>
<path d="M7.84211 37.3478C6.83158 36.7217 5.02632 34.5217 4.5 34C4.81579 35.0435 5 37 7.21053 39.1739C8.14506 40.093 10.1579 41.2391 11 41.5L10 38C9.47368 37.913 8.85263 37.9739 7.84211 37.3478Z" fill="#D0333D"/>
<path d="M26.5 20.7637C26.8922 18.8025 27.6667 17.4303 28 17.2637C28.3334 18.2637 28.5 20.7637 29 22.7637C29.2712 23.8483 29 25.7637 27.5 25.7637C26 25.7637 26 23.2637 26.5 20.7637Z" fill="#D0333D"/>
<path d="M11.5 17.5C11.0246 16.4212 11 13.899 11 13C9.81146 14.3485 8.81137 16.7213 9.10623 18.3939C9.70054 21.7651 12.0775 22.4393 12.6718 21.7651C13.8603 20.4166 12.0943 18.8485 11.5 17.5Z" fill="#D0333D"/>
<path d="M22 5.26384C22.3386 4.24802 22.5 2.26383 22 0.263809C23.5 2.26367 24.5 4.26411 24.5 6.26383C24.5 10.2638 22.3316 11.5965 21.5 11.2638C19 10.2638 21 8.26383 22 5.26384Z" fill="#D0333D"/>
<path d="M39 40.2637C40.3574 39.585 42.5 37.2637 43 36.7637C42.5 38.2637 42 39.7637 41.5 40.7637C40.2812 43.2012 37 44.7637 36.5 43.7637C35.6867 42.1371 37 41.2637 39 40.2637Z" fill="#D0333D"/>
<path d="M14.4999 30.7635C14.3847 28.7669 14.7195 27.509 15 27.2637C15.5749 28.1472 17.1077 30.8 18.0961 32.6091C18.6322 33.5903 18.853 35.5121 17.4016 35.8906C15.9501 36.269 14.6469 33.3088 14.4999 30.7635Z" fill="#D0333D"/>
<path d="M32.3533 37.0976C32.3123 35.0922 31.8517 33.8496 31.5322 33.6181C30.9913 34.5321 29.5734 37.2664 28.6672 39.1283C28.1757 40.138 28.0979 42.0737 29.6779 42.3791C31.258 42.6845 32.4056 39.654 32.3533 37.0976Z" fill="#D0333D"/>
<path d="M30 7.76367C29.5737 6.64399 28.5153 2.36917 28.5 1.76367C27.9483 3.1414 27.5 5.65682 27.5 6.76367C27.5 9.2676 29 13.2637 30.5 12.7637C32.6213 12.0566 30.6281 9.41342 30 7.76367Z" fill="#D0333D"/>
</g>
<defs>
<clipPath id="clip0_1314_8058">
<rect width="50" height="50" fill="white"/>
</clipPath>
</defs>
</svg>
