<svg width="50" height="51" viewBox="0 0 50 51" fill="none" xmlns="http://www.w3.org/2000/svg">
<path d="M22 14.3441C21.8333 14.5222 21.2 14.7717 20 14.3441C18.5 13.8095 18.5 11.1369 16 10.6024C13.5 10.0679 11 11.6715 11 14.3441C11 16.4822 13.6667 18.4421 15 19.1548V24.5" stroke="#898989" stroke-width="1.5" stroke-linecap="round" stroke-linejoin="round"/>
<path d="M22 14.3441C21.8333 14.5222 21.2 14.7717 20 14.3441C18.5 13.8095 18.5 11.1369 16 10.6024C13.5 10.0679 11 11.6715 11 14.3441C11 16.4822 13.6667 18.4421 15 19.1548V24.5" stroke="white" stroke-opacity="0.6" stroke-width="1.5" stroke-linecap="round" stroke-linejoin="round"/>
<path d="M42 8.34407C41.8333 8.52224 41.2 8.77168 40 8.34407C38.5 7.80954 38.5 5.13694 36 4.60242C33.5 4.06789 31 5.67146 31 8.34407C31 10.4822 33.6667 12.4421 35 13.1548V18.5" stroke="#898989" stroke-width="1.5" stroke-linecap="round" stroke-linejoin="round"/>
<path d="M42 8.34407C41.8333 8.52224 41.2 8.77168 40 8.34407C38.5 7.80954 38.5 5.13694 36 4.60242C33.5 4.06789 31 5.67146 31 8.34407C31 10.4822 33.6667 12.4421 35 13.1548V18.5" stroke="white" stroke-opacity="0.6" stroke-width="1.5" stroke-linecap="round" stroke-linejoin="round"/>
<circle cx="15" cy="28" r="1.5" fill="#898989"/>
<circle cx="15" cy="28" r="1.5" fill="white" fill-opacity="0.6"/>
<circle cx="35" cy="22" r="1.5" fill="#898989"/>
<circle cx="35" cy="22" r="1.5" fill="white" fill-opacity="0.6"/>
<path d="M12.12 37.0801L17.88 37.0801L15 30.3601L12.12 37.0801Z" fill="#7445B8"/>
<path d="M17.88 37.08L22.2 39L15 30.36L17.88 37.08Z" fill="#7445B8"/>
<path d="M17.88 37.08L22.2 39L15 30.36L17.88 37.08Z" fill="white" fill-opacity="0.6"/>
<path d="M12.12 37.08L7.80005 39L15 30.36L12.12 37.08Z" fill="#7445B8"/>
<path d="M12.12 37.08L7.80005 39L15 30.36L12.12 37.08Z" fill="white" fill-opacity="0.2"/>
<path d="M22.2 38.9999L15 47.6399L17.88 37.0799L22.2 38.9999Z" fill="#7445B8"/>
<path d="M7.80005 38.9999L15 47.6399L12.12 37.0799L7.80005 38.9999Z" fill="#7445B8"/>
<path d="M7.80005 38.9999L15 47.6399L12.12 37.0799L7.80005 38.9999Z" fill="white" fill-opacity="0.4"/>
<path d="M12.12 37.0799L17.88 37.0799L15 47.6399L12.12 37.0799Z" fill="#7445B8"/>
<path d="M12.12 37.0799L17.88 37.0799L15 47.6399L12.12 37.0799Z" fill="white" fill-opacity="0.2"/>
<path d="M7.80008 39L15 30.36C14.28 31.32 9.48005 37.29 9.48005 37.56C9.48005 37.8 10.68 37.32 12.1201 37.08L7.80008 39Z" fill="#7445B8"/>
<path d="M7.80008 39L15 30.36C14.28 31.32 9.48005 37.29 9.48005 37.56C9.48005 37.8 10.68 37.32 12.1201 37.08L7.80008 39Z" fill="white" fill-opacity="0.95"/>
<path d="M32.12 31.08L37.8799 31.08L35 24.36L32.12 31.08Z" fill="#7445B8"/>
<path d="M37.88 31.08L42.2 33L35 24.36L37.88 31.08Z" fill="#7445B8"/>
<path d="M37.88 31.08L42.2 33L35 24.36L37.88 31.08Z" fill="white" fill-opacity="0.6"/>
<path d="M32.12 31.08L27.8 33L35 24.36L32.12 31.08Z" fill="#7445B8"/>
<path d="M32.12 31.08L27.8 33L35 24.36L32.12 31.08Z" fill="white" fill-opacity="0.2"/>
<path d="M42.2 32.9999L35 41.6399L37.88 31.0799L42.2 32.9999Z" fill="#7445B8"/>
<path d="M27.8 32.9999L35 41.6399L32.12 31.0799L27.8 32.9999Z" fill="#7445B8"/>
<path d="M27.8 32.9999L35 41.6399L32.12 31.0799L27.8 32.9999Z" fill="white" fill-opacity="0.4"/>
<path d="M32.12 31.0799L37.8799 31.0799L35 41.6399L32.12 31.0799Z" fill="#7445B8"/>
<path d="M32.12 31.0799L37.8799 31.0799L35 41.6399L32.12 31.0799Z" fill="white" fill-opacity="0.2"/>
<path d="M27.8 33L35 24.36C34.28 25.32 29.48 31.29 29.48 31.56C29.48 31.8 30.68 31.32 32.12 31.08L27.8 33Z" fill="#7445B8"/>
<path d="M27.8 33L35 24.36C34.28 25.32 29.48 31.29 29.48 31.56C29.48 31.8 30.68 31.32 32.12 31.08L27.8 33Z" fill="white" fill-opacity="0.95"/>
</svg>
