<svg width="50" height="51" viewBox="0 0 50 51" fill="none" xmlns="http://www.w3.org/2000/svg">
<path d="M22 14.3441C21.8333 14.5222 21.2 14.7717 20 14.3441C18.5 13.8095 18.5 11.1369 16 10.6024C13.5 10.0679 11 11.6715 11 14.3441C11 16.4822 13.6667 18.4421 15 19.1548V24.5" stroke="#898989" stroke-width="1.5" stroke-linecap="round" stroke-linejoin="round"/>
<path d="M22 14.3441C21.8333 14.5222 21.2 14.7717 20 14.3441C18.5 13.8095 18.5 11.1369 16 10.6024C13.5 10.0679 11 11.6715 11 14.3441C11 16.4822 13.6667 18.4421 15 19.1548V24.5" stroke="white" stroke-opacity="0.6" stroke-width="1.5" stroke-linecap="round" stroke-linejoin="round"/>
<path d="M42 8.34407C41.8333 8.52224 41.2 8.77168 40 8.34407C38.5 7.80954 38.5 5.13694 36 4.60242C33.5 4.06789 31 5.67146 31 8.34407C31 10.4822 33.6667 12.4421 35 13.1548V18.5" stroke="#898989" stroke-width="1.5" stroke-linecap="round" stroke-linejoin="round"/>
<path d="M42 8.34407C41.8333 8.52224 41.2 8.77168 40 8.34407C38.5 7.80954 38.5 5.13694 36 4.60242C33.5 4.06789 31 5.67146 31 8.34407C31 10.4822 33.6667 12.4421 35 13.1548V18.5" stroke="white" stroke-opacity="0.6" stroke-width="1.5" stroke-linecap="round" stroke-linejoin="round"/>
<circle cx="15" cy="28" r="1.5" fill="#898989"/>
<circle cx="15" cy="28" r="1.5" fill="white" fill-opacity="0.6"/>
<circle cx="35" cy="22" r="1.5" fill="#898989"/>
<circle cx="35" cy="22" r="1.5" fill="white" fill-opacity="0.6"/>
<ellipse cx="15" cy="39" rx="6.72" ry="8.64" fill="#2FC4A7"/>
<ellipse cx="15" cy="39" rx="6.72" ry="8.64" fill="black" fill-opacity="0.2"/>
<path d="M15 30.36C11.2886 30.36 8.28 34.2282 8.28 39C8.28 39.7458 8.3535 40.4696 8.49171 41.16C9.24 43.32 11.688 45.24 13.8 45.24C17.16 45.24 19.56 42.12 19.56 37.8C19.56 34.344 18.6 32.28 16.2 30.4973C15.8106 30.4071 15.4096 30.36 15 30.36Z" fill="#2FC4A7"/>
<path d="M13.08 42.36C10.44 42.36 8.4917 40.44 8.4917 36.84C9.14011 33.6009 11.2127 31.097 13.8 30.4973C16.92 30.4973 17.4 34.392 17.4 36.12C17.4 38.28 16.688 42.36 13.08 42.36Z" fill="#2FC4A7"/>
<path d="M13.08 42.36C10.44 42.36 8.4917 40.44 8.4917 36.84C9.14011 33.6009 11.2127 31.097 13.8 30.4973C16.92 30.4973 17.4 34.392 17.4 36.12C17.4 38.28 16.688 42.36 13.08 42.36Z" fill="white" fill-opacity="0.2"/>
<path d="M13.08 42.36C10.44 42.36 8.4917 40.44 8.4917 36.84C9.14011 33.6009 11.2127 31.097 13.8 30.4973C16.92 30.4973 17.4 34.392 17.4 36.12C17.4 38.28 16.688 42.36 13.08 42.36Z" fill="#2FC4A7"/>
<path d="M13.08 42.36C10.44 42.36 8.4917 40.44 8.4917 36.84C9.14011 33.6009 11.2127 31.097 13.8 30.4973C16.92 30.4973 17.4 34.392 17.4 36.12C17.4 38.28 16.688 42.36 13.08 42.36Z" fill="white" fill-opacity="0.4"/>
<ellipse cx="13.1971" cy="33.3558" rx="1.68" ry="1.2" transform="rotate(-44.8931 13.1971 33.3558)" fill="#FEFEFE"/>
<circle cx="11.1356" cy="36.0954" r="0.72" transform="rotate(-21.7566 11.1356 36.0954)" fill="#FEFEFE"/>
<ellipse cx="35" cy="33" rx="6.71998" ry="8.63998" fill="#2FC4A7"/>
<ellipse cx="35" cy="33" rx="6.71998" ry="8.63998" fill="black" fill-opacity="0.2"/>
<path d="M35 24.36C31.2887 24.36 28.2801 28.2282 28.2801 33C28.2801 33.7458 28.3536 34.4696 28.4918 35.16C29.2401 37.32 31.6881 39.2399 33.8 39.2399C37.16 39.2399 39.56 36.12 39.56 31.8C39.56 28.344 38.6 26.28 36.2 24.4973C35.8107 24.4071 35.4096 24.36 35 24.36Z" fill="#2FC4A7"/>
<path d="M33.08 36.3599C30.44 36.3599 28.4918 34.4399 28.4918 30.8399C29.1402 27.6009 31.2127 25.097 33.8 24.4973C36.92 24.4973 37.4 28.392 37.4 30.12C37.4 32.28 36.688 36.3599 33.08 36.3599Z" fill="#2FC4A7"/>
<path d="M33.08 36.3599C30.44 36.3599 28.4918 34.4399 28.4918 30.8399C29.1402 27.6009 31.2127 25.097 33.8 24.4973C36.92 24.4973 37.4 28.392 37.4 30.12C37.4 32.28 36.688 36.3599 33.08 36.3599Z" fill="white" fill-opacity="0.2"/>
<path d="M33.08 36.3599C30.44 36.3599 28.4918 34.4399 28.4918 30.8399C29.1402 27.6009 31.2127 25.097 33.8 24.4973C36.92 24.4973 37.4 28.392 37.4 30.12C37.4 32.28 36.688 36.3599 33.08 36.3599Z" fill="#2FC4A7"/>
<path d="M33.08 36.3599C30.44 36.3599 28.4918 34.4399 28.4918 30.8399C29.1402 27.6009 31.2127 25.097 33.8 24.4973C36.92 24.4973 37.4 28.392 37.4 30.12C37.4 32.28 36.688 36.3599 33.08 36.3599Z" fill="white" fill-opacity="0.4"/>
<ellipse cx="33.1971" cy="27.3558" rx="1.68" ry="1.2" transform="rotate(-44.8931 33.1971 27.3558)" fill="#FEFEFE"/>
<circle cx="31.1356" cy="30.0954" r="0.719998" transform="rotate(-21.7566 31.1356 30.0954)" fill="#FEFEFE"/>
</svg>
