<svg width="50" height="50" viewBox="0 0 50 50" fill="none" xmlns="http://www.w3.org/2000/svg">
<g clip-path="url(#clip0_2644_11565)">
<path d="M22 14.3441C21.8333 14.5222 21.2 14.7717 20 14.3441C18.5 13.8095 18.5 11.1369 16 10.6024C13.5 10.0679 11 11.6715 11 14.3441C11 16.4822 13.6667 18.4421 15 19.1548V24.5" stroke="#898989" stroke-width="1.5" stroke-linecap="round" stroke-linejoin="round"/>
<path d="M22 14.3441C21.8333 14.5222 21.2 14.7717 20 14.3441C18.5 13.8095 18.5 11.1369 16 10.6024C13.5 10.0679 11 11.6715 11 14.3441C11 16.4822 13.6667 18.4421 15 19.1548V24.5" stroke="white" stroke-opacity="0.6" stroke-width="1.5" stroke-linecap="round" stroke-linejoin="round"/>
<path d="M42 8.34407C41.8333 8.52224 41.2 8.77168 40 8.34407C38.5 7.80954 38.5 5.13694 36 4.60242C33.5 4.06789 31 5.67146 31 8.34407C31 10.4822 33.6667 12.4421 35 13.1548V18.5" stroke="#898989" stroke-width="1.5" stroke-linecap="round" stroke-linejoin="round"/>
<path d="M42 8.34407C41.8333 8.52224 41.2 8.77168 40 8.34407C38.5 7.80954 38.5 5.13694 36 4.60242C33.5 4.06789 31 5.67146 31 8.34407C31 10.4822 33.6667 12.4421 35 13.1548V18.5" stroke="white" stroke-opacity="0.6" stroke-width="1.5" stroke-linecap="round" stroke-linejoin="round"/>
<circle cx="15" cy="28" r="1.5" fill="#898989"/>
<circle cx="15" cy="28" r="1.5" fill="white" fill-opacity="0.6"/>
<circle cx="35" cy="22" r="1.5" fill="#898989"/>
<circle cx="35" cy="22" r="1.5" fill="white" fill-opacity="0.6"/>
<path d="M14.5333 30.0695C14.7238 29.682 15.2762 29.682 15.4667 30.0695L16.451 32.0724C16.5898 32.3548 16.9457 32.4502 17.2072 32.275L19.0611 31.0327C19.4198 30.7923 19.8982 31.0685 19.8694 31.4993L19.7204 33.726C19.6994 34.04 19.96 34.3006 20.274 34.2796L22.5007 34.1306C22.9315 34.1018 23.2077 34.5802 22.9673 34.9389L21.725 36.7928C21.5498 37.0542 21.6452 37.4102 21.9276 37.549L23.9304 38.5333C24.318 38.7238 24.318 39.2762 23.9304 39.4667L21.9276 40.451C21.6452 40.5898 21.5498 40.9457 21.725 41.2072L22.9673 43.0611C23.2077 43.4198 22.9315 43.8982 22.5007 43.8694L20.274 43.7204C19.96 43.6994 19.6994 43.96 19.7204 44.274L19.8694 46.5007C19.8982 46.9315 19.4198 47.2077 19.0611 46.9673L17.2072 45.725C16.9457 45.5498 16.5898 45.6452 16.451 45.9276L15.4667 47.9304C15.2762 48.318 14.7238 48.318 14.5333 47.9304L13.549 45.9276C13.4102 45.6452 13.0542 45.5498 12.7928 45.725L10.9389 46.9673C10.5802 47.2077 10.1018 46.9315 10.1306 46.5007L10.2796 44.274C10.3006 43.96 10.04 43.6994 9.726 43.7204L7.49933 43.8694C7.06851 43.8982 6.79228 43.4198 7.03265 43.0611L8.27498 41.2072C8.45017 40.9457 8.3548 40.5898 8.07236 40.451L6.06954 39.4667C5.68203 39.2762 5.68203 38.7238 6.06954 38.5333L8.07236 37.549C8.3548 37.4102 8.45017 37.0542 8.27497 36.7928L7.03265 34.9389C6.79228 34.5802 7.06851 34.1018 7.49933 34.1306L9.726 34.2796C10.04 34.3006 10.3006 34.04 10.2796 33.726L10.1306 31.4993C10.1018 31.0685 10.5802 30.7923 10.9389 31.0327L12.7928 32.275C13.0542 32.4502 13.4102 32.3548 13.549 32.0724L14.5333 30.0695Z" fill="#FAA21E"/>
<path d="M14.5333 30.0695C14.7238 29.682 15.2762 29.682 15.4667 30.0695L16.451 32.0724C16.5898 32.3548 16.9457 32.4502 17.2072 32.275L19.0611 31.0327C19.4198 30.7923 19.8982 31.0685 19.8694 31.4993L19.7204 33.726C19.6994 34.04 19.96 34.3006 20.274 34.2796L22.5007 34.1306C22.9315 34.1018 23.2077 34.5802 22.9673 34.9389L21.725 36.7928C21.5498 37.0542 21.6452 37.4102 21.9276 37.549L23.9304 38.5333C24.318 38.7238 24.318 39.2762 23.9304 39.4667L21.9276 40.451C21.6452 40.5898 21.5498 40.9457 21.725 41.2072L22.9673 43.0611C23.2077 43.4198 22.9315 43.8982 22.5007 43.8694L20.274 43.7204C19.96 43.6994 19.6994 43.96 19.7204 44.274L19.8694 46.5007C19.8982 46.9315 19.4198 47.2077 19.0611 46.9673L17.2072 45.725C16.9457 45.5498 16.5898 45.6452 16.451 45.9276L15.4667 47.9304C15.2762 48.318 14.7238 48.318 14.5333 47.9304L13.549 45.9276C13.4102 45.6452 13.0542 45.5498 12.7928 45.725L10.9389 46.9673C10.5802 47.2077 10.1018 46.9315 10.1306 46.5007L10.2796 44.274C10.3006 43.96 10.04 43.6994 9.726 43.7204L7.49933 43.8694C7.06851 43.8982 6.79228 43.4198 7.03265 43.0611L8.27498 41.2072C8.45017 40.9457 8.3548 40.5898 8.07236 40.451L6.06954 39.4667C5.68203 39.2762 5.68203 38.7238 6.06954 38.5333L8.07236 37.549C8.3548 37.4102 8.45017 37.0542 8.27497 36.7928L7.03265 34.9389C6.79228 34.5802 7.06851 34.1018 7.49933 34.1306L9.726 34.2796C10.04 34.3006 10.3006 34.04 10.2796 33.726L10.1306 31.4993C10.1018 31.0685 10.5802 30.7923 10.9389 31.0327L12.7928 32.275C13.0542 32.4502 13.4102 32.3548 13.549 32.0724L14.5333 30.0695Z" fill="white" fill-opacity="0.6"/>
<path d="M19.2169 31.0908L16.6532 33.3852C16.565 33.4641 16.5934 33.6087 16.7049 33.6484L17.7373 34.0163C17.8084 34.0416 17.8873 34.0125 17.9249 33.9471L19.4562 31.2848C19.5446 31.1312 19.349 30.9726 19.2169 31.0908Z" fill="#FAA21E"/>
<path d="M19.2169 31.0908L16.6532 33.3852C16.565 33.4641 16.5934 33.6087 16.7049 33.6484L17.7373 34.0163C17.8084 34.0416 17.8873 34.0125 17.9249 33.9471L19.4562 31.2848C19.5446 31.1312 19.349 30.9726 19.2169 31.0908Z" fill="white" fill-opacity="0.4"/>
<path d="M22.5124 34.2786L19.3323 34.9445C19.199 34.9725 19.1629 35.1458 19.2741 35.2245L20.1208 35.8239C20.1693 35.8583 20.2331 35.8621 20.2853 35.8337L22.6187 34.5684C22.7768 34.4827 22.6883 34.2418 22.5124 34.2786Z" fill="#FAA21E"/>
<path d="M22.5124 34.2786L19.3323 34.9445C19.199 34.9725 19.1629 35.1458 19.2741 35.2245L20.1208 35.8239C20.1693 35.8583 20.2331 35.8621 20.2853 35.8337L22.6187 34.5684C22.7768 34.4827 22.6883 34.2418 22.5124 34.2786Z" fill="white" fill-opacity="0.4"/>
<path d="M23.9532 38.6958L20.6916 37.6251C20.5786 37.588 20.4673 37.686 20.4898 37.8028L20.6957 38.8735C20.7098 38.9469 20.7741 39 20.8489 39H23.9046C24.082 39 24.1218 38.7511 23.9532 38.6958Z" fill="#FAA21E"/>
<path d="M23.9532 38.6958L20.6916 37.6251C20.5786 37.588 20.4673 37.686 20.4898 37.8028L20.6957 38.8735C20.7098 38.9469 20.7741 39 20.8489 39H23.9046C24.082 39 24.1218 38.7511 23.9532 38.6958Z" fill="white" fill-opacity="0.4"/>
<path d="M22.8337 43.1326L20.6553 40.6984C20.5682 40.6011 20.4072 40.6475 20.3852 40.7762L20.2177 41.7564C20.207 41.819 20.2353 41.8819 20.2893 41.9153L22.6353 43.3692C22.7885 43.4641 22.9539 43.2669 22.8337 43.1326Z" fill="#FAA21E"/>
<path d="M22.8337 43.1326L20.6553 40.6984C20.5682 40.6011 20.4072 40.6475 20.3852 40.7762L20.2177 41.7564C20.207 41.819 20.2353 41.8819 20.2893 41.9153L22.6353 43.3692C22.7885 43.4641 22.9539 43.2669 22.8337 43.1326Z" fill="white" fill-opacity="0.4"/>
<path d="M19.739 46.5966L19.036 43.2396C19.0118 43.1236 18.8722 43.076 18.7821 43.1529L17.9585 43.8559C17.9014 43.9046 17.8871 43.9872 17.9246 44.0523L19.4511 46.7063C19.5396 46.8602 19.7754 46.7703 19.739 46.5966Z" fill="#FAA21E"/>
<path d="M19.739 46.5966L19.036 43.2396C19.0118 43.1236 18.8722 43.076 18.7821 43.1529L17.9585 43.8559C17.9014 43.9046 17.8871 43.9872 17.9246 44.0523L19.4511 46.7063C19.5396 46.8602 19.7754 46.7703 19.739 46.5966Z" fill="white" fill-opacity="0.4"/>
<path d="M15.3042 47.9532L16.3567 44.7471C16.3974 44.623 16.2767 44.5067 16.1542 44.5521L15.1018 44.9423C15.0406 44.9649 15 45.0233 15 45.0885V47.9046C15 48.082 15.2489 48.1218 15.3042 47.9532Z" fill="#FAA21E"/>
<path d="M15.3042 47.9532L16.3567 44.7471C16.3974 44.623 16.2767 44.5067 16.1542 44.5521L15.1018 44.9423C15.0406 44.9649 15 45.0233 15 45.0885V47.9046C15 48.082 15.2489 48.1218 15.3042 47.9532Z" fill="white" fill-opacity="0.4"/>
<path d="M10.9767 46.7359L13.2382 44.7119C13.3449 44.6165 13.2774 44.4397 13.1342 44.4397H12.2234C12.1713 44.4397 12.1226 44.4657 12.0937 44.5091L10.7429 46.5331C10.6411 46.6855 10.8401 46.8582 10.9767 46.7359Z" fill="#FAA21E"/>
<path d="M10.9767 46.7359L13.2382 44.7119C13.3449 44.6165 13.2774 44.4397 13.1342 44.4397H12.2234C12.1713 44.4397 12.1226 44.4657 12.0937 44.5091L10.7429 46.5331C10.6411 46.6855 10.8401 46.8582 10.9767 46.7359Z" fill="white" fill-opacity="0.4"/>
<path d="M7.48762 43.7214L10.6677 43.0555C10.801 43.0275 10.8371 42.8541 10.7259 42.7754L9.87919 42.1761C9.8307 42.1417 9.76692 42.1379 9.71469 42.1662L7.38129 43.4316C7.22324 43.5173 7.31165 43.7582 7.48762 43.7214Z" fill="#FAA21E"/>
<path d="M7.48762 43.7214L10.6677 43.0555C10.801 43.0275 10.8371 42.8541 10.7259 42.7754L9.87919 42.1761C9.8307 42.1417 9.76692 42.1379 9.71469 42.1662L7.38129 43.4316C7.22324 43.5173 7.31165 43.7582 7.48762 43.7214Z" fill="white" fill-opacity="0.4"/>
<path d="M6.04676 39.3042L9.25292 40.3567C9.37702 40.3974 9.49325 40.2767 9.44785 40.1542L9.05772 39.1018C9.03505 39.0406 8.97669 39 8.91145 39H6.09541C5.91804 39 5.87823 39.2489 6.04676 39.3042Z" fill="#FAA21E"/>
<path d="M6.04676 39.3042L9.25292 40.3567C9.37702 40.3974 9.49325 40.2767 9.44785 40.1542L9.05772 39.1018C9.03505 39.0406 8.97669 39 8.91145 39H6.09541C5.91804 39 5.87823 39.2489 6.04676 39.3042Z" fill="white" fill-opacity="0.4"/>
<path d="M7.04272 34.7294L9.33735 37.2933C9.42569 37.392 9.58909 37.3427 9.608 37.2116L9.78448 35.9876C9.7938 35.9229 9.76186 35.8593 9.70444 35.8282L7.23333 34.4882C7.0795 34.4048 6.92602 34.599 7.04272 34.7294Z" fill="#FAA21E"/>
<path d="M7.04272 34.7294L9.33735 37.2933C9.42569 37.392 9.58909 37.3427 9.608 37.2116L9.78448 35.9876C9.7938 35.9229 9.76186 35.8593 9.70444 35.8282L7.23333 34.4882C7.0795 34.4048 6.92602 34.599 7.04272 34.7294Z" fill="white" fill-opacity="0.4"/>
<path d="M10.2786 31.4876L10.9445 34.6677C10.9725 34.801 11.1458 34.8371 11.2245 34.7259L11.8239 33.8792C11.8583 33.8307 11.8621 33.7669 11.8337 33.7147L10.5684 31.3813C10.4827 31.2232 10.2418 31.3116 10.2786 31.4876Z" fill="#FAA21E"/>
<path d="M10.2786 31.4876L10.9445 34.6677C10.9725 34.801 11.1458 34.8371 11.2245 34.7259L11.8239 33.8792C11.8583 33.8307 11.8621 33.7669 11.8337 33.7147L10.5684 31.3813C10.4827 31.2232 10.2418 31.3116 10.2786 31.4876Z" fill="white" fill-opacity="0.4"/>
<path d="M14.6958 30.0468L13.6433 33.2529C13.6026 33.377 13.7233 33.4932 13.8458 33.4478L14.8982 33.0577C14.9594 33.035 15 32.9767 15 32.9114V30.0954C15 29.918 14.7511 29.8782 14.6958 30.0468Z" fill="#FAA21E"/>
<path d="M14.6958 30.0468L13.6433 33.2529C13.6026 33.377 13.7233 33.4932 13.8458 33.4478L14.8982 33.0577C14.9594 33.035 15 32.9767 15 32.9114V30.0954C15 29.918 14.7511 29.8782 14.6958 30.0468Z" fill="white" fill-opacity="0.4"/>
<circle cx="15" cy="39" r="6.24" fill="#FAA21E"/>
<ellipse cx="14.3337" cy="38.5406" rx="4.63463" ry="5.2" transform="rotate(30 14.3337 38.5406)" fill="#FAA21E"/>
<ellipse cx="14.3337" cy="38.5406" rx="4.63463" ry="5.2" transform="rotate(30 14.3337 38.5406)" fill="white" fill-opacity="0.2"/>
<ellipse cx="13.4397" cy="38.1531" rx="2.85184" ry="3.38" transform="rotate(30 13.4397 38.1531)" fill="#FAA21E"/>
<ellipse cx="13.4397" cy="38.1531" rx="2.85184" ry="3.38" transform="rotate(30 13.4397 38.1531)" fill="white" fill-opacity="0.4"/>
<ellipse cx="13.4207" cy="35.6382" rx="1.82" ry="1.3" transform="rotate(-31.3035 13.4207 35.6382)" fill="#FEFEFE"/>
<circle cx="10.8429" cy="38.5432" r="0.78" transform="rotate(-8.16705 10.8429 38.5432)" fill="#FEFEFE"/>
<path d="M34.5333 24.0695C34.7238 23.682 35.2762 23.682 35.4667 24.0695L36.451 26.0724C36.5898 26.3548 36.9457 26.4502 37.2072 26.275L39.0611 25.0327C39.4198 24.7923 39.8982 25.0685 39.8694 25.4993L39.7204 27.726C39.6994 28.04 39.96 28.3006 40.274 28.2796L42.5007 28.1306C42.9315 28.1018 43.2077 28.5802 42.9673 28.9389L41.725 30.7928C41.5498 31.0542 41.6452 31.4102 41.9276 31.549L43.9304 32.5333C44.318 32.7238 44.318 33.2762 43.9304 33.4667L41.9276 34.451C41.6452 34.5898 41.5498 34.9457 41.725 35.2072L42.9673 37.0611C43.2077 37.4198 42.9315 37.8982 42.5007 37.8694L40.274 37.7204C39.96 37.6994 39.6994 37.96 39.7204 38.274L39.8694 40.5007C39.8982 40.9315 39.4198 41.2077 39.0611 40.9673L37.2072 39.725C36.9457 39.5498 36.5898 39.6452 36.451 39.9276L35.4667 41.9304C35.2762 42.318 34.7238 42.318 34.5333 41.9304L33.549 39.9276C33.4102 39.6452 33.0542 39.5498 32.7928 39.725L30.9389 40.9673C30.5802 41.2077 30.1018 40.9315 30.1306 40.5007L30.2796 38.274C30.3006 37.96 30.04 37.6994 29.726 37.7204L27.4993 37.8694C27.0685 37.8982 26.7923 37.4198 27.0327 37.0611L28.275 35.2072C28.4502 34.9457 28.3548 34.5898 28.0724 34.451L26.0695 33.4667C25.682 33.2762 25.682 32.7238 26.0695 32.5333L28.0724 31.549C28.3548 31.4102 28.4502 31.0542 28.275 30.7928L27.0327 28.9389C26.7923 28.5802 27.0685 28.1018 27.4993 28.1306L29.726 28.2796C30.04 28.3006 30.3006 28.04 30.2796 27.726L30.1306 25.4993C30.1018 25.0685 30.5802 24.7923 30.9389 25.0327L32.7928 26.275C33.0542 26.4502 33.4102 26.3548 33.549 26.0724L34.5333 24.0695Z" fill="#FAA21E"/>
<path d="M34.5333 24.0695C34.7238 23.682 35.2762 23.682 35.4667 24.0695L36.451 26.0724C36.5898 26.3548 36.9457 26.4502 37.2072 26.275L39.0611 25.0327C39.4198 24.7923 39.8982 25.0685 39.8694 25.4993L39.7204 27.726C39.6994 28.04 39.96 28.3006 40.274 28.2796L42.5007 28.1306C42.9315 28.1018 43.2077 28.5802 42.9673 28.9389L41.725 30.7928C41.5498 31.0542 41.6452 31.4102 41.9276 31.549L43.9304 32.5333C44.318 32.7238 44.318 33.2762 43.9304 33.4667L41.9276 34.451C41.6452 34.5898 41.5498 34.9457 41.725 35.2072L42.9673 37.0611C43.2077 37.4198 42.9315 37.8982 42.5007 37.8694L40.274 37.7204C39.96 37.6994 39.6994 37.96 39.7204 38.274L39.8694 40.5007C39.8982 40.9315 39.4198 41.2077 39.0611 40.9673L37.2072 39.725C36.9457 39.5498 36.5898 39.6452 36.451 39.9276L35.4667 41.9304C35.2762 42.318 34.7238 42.318 34.5333 41.9304L33.549 39.9276C33.4102 39.6452 33.0542 39.5498 32.7928 39.725L30.9389 40.9673C30.5802 41.2077 30.1018 40.9315 30.1306 40.5007L30.2796 38.274C30.3006 37.96 30.04 37.6994 29.726 37.7204L27.4993 37.8694C27.0685 37.8982 26.7923 37.4198 27.0327 37.0611L28.275 35.2072C28.4502 34.9457 28.3548 34.5898 28.0724 34.451L26.0695 33.4667C25.682 33.2762 25.682 32.7238 26.0695 32.5333L28.0724 31.549C28.3548 31.4102 28.4502 31.0542 28.275 30.7928L27.0327 28.9389C26.7923 28.5802 27.0685 28.1018 27.4993 28.1306L29.726 28.2796C30.04 28.3006 30.3006 28.04 30.2796 27.726L30.1306 25.4993C30.1018 25.0685 30.5802 24.7923 30.9389 25.0327L32.7928 26.275C33.0542 26.4502 33.4102 26.3548 33.549 26.0724L34.5333 24.0695Z" fill="white" fill-opacity="0.6"/>
<path d="M39.2169 25.0908L36.6532 27.3852C36.565 27.4641 36.5934 27.6087 36.7049 27.6484L37.7373 28.0163C37.8084 28.0416 37.8873 28.0125 37.9249 27.9471L39.4562 25.2848C39.5446 25.1312 39.349 24.9726 39.2169 25.0908Z" fill="#FAA21E"/>
<path d="M39.2169 25.0908L36.6532 27.3852C36.565 27.4641 36.5934 27.6087 36.7049 27.6484L37.7373 28.0163C37.8084 28.0416 37.8873 28.0125 37.9249 27.9471L39.4562 25.2848C39.5446 25.1312 39.349 24.9726 39.2169 25.0908Z" fill="white" fill-opacity="0.4"/>
<path d="M42.5124 28.2786L39.3323 28.9445C39.199 28.9725 39.1629 29.1458 39.2741 29.2245L40.1208 29.8239C40.1693 29.8583 40.2331 29.8621 40.2853 29.8337L42.6187 28.5684C42.7768 28.4827 42.6883 28.2418 42.5124 28.2786Z" fill="#FAA21E"/>
<path d="M42.5124 28.2786L39.3323 28.9445C39.199 28.9725 39.1629 29.1458 39.2741 29.2245L40.1208 29.8239C40.1693 29.8583 40.2331 29.8621 40.2853 29.8337L42.6187 28.5684C42.7768 28.4827 42.6883 28.2418 42.5124 28.2786Z" fill="white" fill-opacity="0.4"/>
<path d="M43.9532 32.6958L40.6916 31.6251C40.5786 31.588 40.4673 31.686 40.4898 31.8028L40.6957 32.8735C40.7098 32.9469 40.7741 33 40.8489 33H43.9046C44.082 33 44.1218 32.7511 43.9532 32.6958Z" fill="#FAA21E"/>
<path d="M43.9532 32.6958L40.6916 31.6251C40.5786 31.588 40.4673 31.686 40.4898 31.8028L40.6957 32.8735C40.7098 32.9469 40.7741 33 40.8489 33H43.9046C44.082 33 44.1218 32.7511 43.9532 32.6958Z" fill="white" fill-opacity="0.4"/>
<path d="M42.8337 37.1326L40.6553 34.6984C40.5682 34.6011 40.4072 34.6475 40.3852 34.7762L40.2177 35.7564C40.207 35.819 40.2353 35.8819 40.2893 35.9153L42.6353 37.3692C42.7885 37.4641 42.9539 37.2669 42.8337 37.1326Z" fill="#FAA21E"/>
<path d="M42.8337 37.1326L40.6553 34.6984C40.5682 34.6011 40.4072 34.6475 40.3852 34.7762L40.2177 35.7564C40.207 35.819 40.2353 35.8819 40.2893 35.9153L42.6353 37.3692C42.7885 37.4641 42.9539 37.2669 42.8337 37.1326Z" fill="white" fill-opacity="0.4"/>
<path d="M39.739 40.5966L39.036 37.2396C39.0118 37.1236 38.8722 37.076 38.7821 37.1529L37.9585 37.8559C37.9014 37.9046 37.8871 37.9872 37.9246 38.0523L39.4511 40.7063C39.5396 40.8602 39.7754 40.7703 39.739 40.5966Z" fill="#FAA21E"/>
<path d="M39.739 40.5966L39.036 37.2396C39.0118 37.1236 38.8722 37.076 38.7821 37.1529L37.9585 37.8559C37.9014 37.9046 37.8871 37.9872 37.9246 38.0523L39.4511 40.7063C39.5396 40.8602 39.7754 40.7703 39.739 40.5966Z" fill="white" fill-opacity="0.4"/>
<path d="M35.3042 41.9532L36.3567 38.7471C36.3974 38.623 36.2767 38.5067 36.1542 38.5521L35.1018 38.9423C35.0406 38.9649 35 39.0233 35 39.0885V41.9046C35 42.082 35.2489 42.1218 35.3042 41.9532Z" fill="#FAA21E"/>
<path d="M35.3042 41.9532L36.3567 38.7471C36.3974 38.623 36.2767 38.5067 36.1542 38.5521L35.1018 38.9423C35.0406 38.9649 35 39.0233 35 39.0885V41.9046C35 42.082 35.2489 42.1218 35.3042 41.9532Z" fill="white" fill-opacity="0.4"/>
<path d="M30.9767 40.7359L33.2382 38.7119C33.3449 38.6165 33.2774 38.4397 33.1342 38.4397H32.2234C32.1713 38.4397 32.1226 38.4657 32.0937 38.5091L30.7429 40.5331C30.6411 40.6855 30.8401 40.8582 30.9767 40.7359Z" fill="#FAA21E"/>
<path d="M30.9767 40.7359L33.2382 38.7119C33.3449 38.6165 33.2774 38.4397 33.1342 38.4397H32.2234C32.1713 38.4397 32.1226 38.4657 32.0937 38.5091L30.7429 40.5331C30.6411 40.6855 30.8401 40.8582 30.9767 40.7359Z" fill="white" fill-opacity="0.4"/>
<path d="M27.4876 37.7214L30.6677 37.0555C30.801 37.0275 30.8371 36.8541 30.7259 36.7754L29.8792 36.1761C29.8307 36.1417 29.7669 36.1379 29.7147 36.1662L27.3813 37.4316C27.2232 37.5173 27.3116 37.7582 27.4876 37.7214Z" fill="#FAA21E"/>
<path d="M27.4876 37.7214L30.6677 37.0555C30.801 37.0275 30.8371 36.8541 30.7259 36.7754L29.8792 36.1761C29.8307 36.1417 29.7669 36.1379 29.7147 36.1662L27.3813 37.4316C27.2232 37.5173 27.3116 37.7582 27.4876 37.7214Z" fill="white" fill-opacity="0.4"/>
<path d="M26.0468 33.3042L29.2529 34.3567C29.377 34.3974 29.4932 34.2767 29.4478 34.1542L29.0577 33.1018C29.035 33.0406 28.9767 33 28.9114 33H26.0954C25.918 33 25.8782 33.2489 26.0468 33.3042Z" fill="#FAA21E"/>
<path d="M26.0468 33.3042L29.2529 34.3567C29.377 34.3974 29.4932 34.2767 29.4478 34.1542L29.0577 33.1018C29.035 33.0406 28.9767 33 28.9114 33H26.0954C25.918 33 25.8782 33.2489 26.0468 33.3042Z" fill="white" fill-opacity="0.4"/>
<path d="M27.0427 28.7294L29.3373 31.2933C29.4257 31.392 29.5891 31.3427 29.608 31.2116L29.7845 29.9876C29.7938 29.9229 29.7619 29.8593 29.7044 29.8282L27.2333 28.4882C27.0795 28.4048 26.926 28.599 27.0427 28.7294Z" fill="#FAA21E"/>
<path d="M27.0427 28.7294L29.3373 31.2933C29.4257 31.392 29.5891 31.3427 29.608 31.2116L29.7845 29.9876C29.7938 29.9229 29.7619 29.8593 29.7044 29.8282L27.2333 28.4882C27.0795 28.4048 26.926 28.599 27.0427 28.7294Z" fill="white" fill-opacity="0.4"/>
<path d="M30.2786 25.4876L30.9445 28.6677C30.9725 28.801 31.1458 28.8371 31.2245 28.7259L31.8239 27.8792C31.8583 27.8307 31.8621 27.7669 31.8337 27.7147L30.5684 25.3813C30.4827 25.2232 30.2418 25.3116 30.2786 25.4876Z" fill="#FAA21E"/>
<path d="M30.2786 25.4876L30.9445 28.6677C30.9725 28.801 31.1458 28.8371 31.2245 28.7259L31.8239 27.8792C31.8583 27.8307 31.8621 27.7669 31.8337 27.7147L30.5684 25.3813C30.4827 25.2232 30.2418 25.3116 30.2786 25.4876Z" fill="white" fill-opacity="0.4"/>
<path d="M34.6958 24.0468L33.6433 27.2529C33.6026 27.377 33.7233 27.4932 33.8458 27.4478L34.8982 27.0577C34.9594 27.035 35 26.9767 35 26.9114V24.0954C35 23.918 34.7511 23.8782 34.6958 24.0468Z" fill="#FAA21E"/>
<path d="M34.6958 24.0468L33.6433 27.2529C33.6026 27.377 33.7233 27.4932 33.8458 27.4478L34.8982 27.0577C34.9594 27.035 35 26.9767 35 26.9114V24.0954C35 23.918 34.7511 23.8782 34.6958 24.0468Z" fill="white" fill-opacity="0.4"/>
<circle cx="35" cy="33" r="6.24" fill="#FAA21E"/>
<ellipse cx="34.3337" cy="32.5406" rx="4.63463" ry="5.2" transform="rotate(30 34.3337 32.5406)" fill="#FAA21E"/>
<ellipse cx="34.3337" cy="32.5406" rx="4.63463" ry="5.2" transform="rotate(30 34.3337 32.5406)" fill="white" fill-opacity="0.2"/>
<ellipse cx="33.4397" cy="32.1531" rx="2.85184" ry="3.38" transform="rotate(30 33.4397 32.1531)" fill="#FAA21E"/>
<ellipse cx="33.4397" cy="32.1531" rx="2.85184" ry="3.38" transform="rotate(30 33.4397 32.1531)" fill="white" fill-opacity="0.4"/>
<ellipse cx="33.4207" cy="29.6382" rx="1.82" ry="1.3" transform="rotate(-31.3035 33.4207 29.6382)" fill="#FEFEFE"/>
<circle cx="30.8429" cy="32.5432" r="0.78" transform="rotate(-8.16705 30.8429 32.5432)" fill="#FEFEFE"/>
</g>
<defs>
<clipPath id="clip0_2644_11565">
<rect width="50" height="50" fill="white"/>
</clipPath>
</defs>
</svg>
