<svg width="51" height="54" viewBox="0 0 51 54" fill="none" xmlns="http://www.w3.org/2000/svg">
<path d="M23 14.3441C22.8333 14.5222 22.2 14.7717 21 14.3441C19.5 13.8095 19.5 11.1369 17 10.6024C14.5 10.0679 12 11.6715 12 14.3441C12 16.4822 14.6667 18.4421 16 19.1548V24.5" stroke="#898989" stroke-width="1.5" stroke-linecap="round" stroke-linejoin="round"/>
<path d="M23 14.3441C22.8333 14.5222 22.2 14.7717 21 14.3441C19.5 13.8095 19.5 11.1369 17 10.6024C14.5 10.0679 12 11.6715 12 14.3441C12 16.4822 14.6667 18.4421 16 19.1548V24.5" stroke="white" stroke-opacity="0.6" stroke-width="1.5" stroke-linecap="round" stroke-linejoin="round"/>
<path d="M43 8.34407C42.8333 8.52224 42.2 8.77168 41 8.34407C39.5 7.80954 39.5 5.13694 37 4.60242C34.5 4.06789 32 5.67146 32 8.34407C32 10.4822 34.6667 12.4421 36 13.1548V18.5" stroke="#898989" stroke-width="1.5" stroke-linecap="round" stroke-linejoin="round"/>
<path d="M43 8.34407C42.8333 8.52224 42.2 8.77168 41 8.34407C39.5 7.80954 39.5 5.13694 37 4.60242C34.5 4.06789 32 5.67146 32 8.34407C32 10.4822 34.6667 12.4421 36 13.1548V18.5" stroke="white" stroke-opacity="0.6" stroke-width="1.5" stroke-linecap="round" stroke-linejoin="round"/>
<circle cx="16" cy="28" r="1.5" fill="#898989"/>
<circle cx="16" cy="28" r="1.5" fill="white" fill-opacity="0.6"/>
<circle cx="36" cy="22" r="1.5" fill="#898989"/>
<circle cx="36" cy="22" r="1.5" fill="white" fill-opacity="0.6"/>
<path d="M16.3407 46.5918C20.7951 45.3982 23.4822 40.9828 22.3426 36.7297C21.5059 33.607 18.8389 31.44 15.7173 30.981C14.9232 30.8643 14.768 31.2338 15.248 32.0762C15.6431 32.7696 17.7593 36.3788 16.2919 39.4423C14.716 42.7326 9.36355 43.9889 8.88911 44.116C8.4515 44.2333 8.37718 44.7128 8.96791 45.1686C10.9494 46.6976 13.6596 47.3101 16.3407 46.5918Z" fill="#1D8CE0"/>
<path d="M16.3407 46.5918C20.7951 45.3982 23.4822 40.9828 22.3426 36.7297C21.5059 33.607 18.8389 31.44 15.7173 30.981C14.9232 30.8643 14.768 31.2338 15.248 32.0762C15.6431 32.7696 17.7593 36.3788 16.2919 39.4423C14.716 42.7326 9.36355 43.9889 8.88911 44.116C8.4515 44.2333 8.37718 44.7128 8.96791 45.1686C10.9494 46.6976 13.6596 47.3101 16.3407 46.5918Z" fill="white" fill-opacity="0.4"/>
<path d="M19.7274 36.2425C18.6583 33.6128 15.9969 31.9483 15.4714 32.4136C16.0252 33.6715 17.6732 36.6991 16.1758 39.6788C14.6396 42.7356 10.4002 43.5163 9.84225 43.8606C10.2604 44.4939 11.6225 45.8682 15.3317 44.8744C19.0409 43.8805 21.1849 39.8274 19.7274 36.2425Z" fill="#1D8CE0"/>
<path d="M19.7274 36.2425C18.6583 33.6128 15.9969 31.9483 15.4714 32.4136C16.0252 33.6715 17.6732 36.6991 16.1758 39.6788C14.6396 42.7356 10.4002 43.5163 9.84225 43.8606C10.2604 44.4939 11.6225 45.8682 15.3317 44.8744C19.0409 43.8805 21.1849 39.8274 19.7274 36.2425Z" fill="white" fill-opacity="0.2"/>
<path d="M18.2289 37.1409C17.9017 34.9924 16.4774 33.3863 16.0759 33.7423C16.4996 34.7055 17.3195 37.3983 16.1758 39.6788C15.0026 42.0182 11.6347 43.1317 11.2083 43.395C11.3326 43.8587 13.3304 43.8685 15.2984 42.8954C17.2664 41.9224 18.5925 39.5281 18.2289 37.1409Z" fill="#1D8CE0"/>
<path d="M20.4017 34.1301C21.0237 34.8176 21.3283 35.68 21.1183 35.8699C20.9084 36.0598 20.4403 35.415 19.8183 34.7274C19.1964 34.0398 18.6854 33.419 18.8953 33.229C19.1053 33.0391 19.7797 33.4425 20.4017 34.1301Z" fill="#FEFEFE"/>
<ellipse cx="21.5257" cy="37.0105" rx="0.389037" ry="0.607596" transform="rotate(-14.7808 21.5257 37.0105)" fill="#FEFEFE"/>
<ellipse cx="9.87791" cy="44.8858" rx="0.397773" ry="0.585213" transform="rotate(117.305 9.87791 44.8858)" fill="#FEFEFE"/>
<path d="M37.0376 40.2887C41.492 39.0951 44.1792 34.6797 43.0396 30.4266C42.2028 27.3039 39.5358 25.1369 36.4142 24.6779C35.6202 24.5612 35.465 24.9307 35.9449 25.7731C36.34 26.4665 38.4563 30.0757 36.9889 33.1392C35.4129 36.4295 30.0605 37.6858 29.5861 37.8129C29.1485 37.9302 29.0741 38.4097 29.6649 38.8655C31.6464 40.3945 34.3566 41.007 37.0376 40.2887Z" fill="#1D8CE0"/>
<path d="M37.0376 40.2887C41.492 39.0951 44.1792 34.6797 43.0396 30.4266C42.2028 27.3039 39.5358 25.1369 36.4142 24.6779C35.6202 24.5612 35.465 24.9307 35.9449 25.7731C36.34 26.4665 38.4563 30.0757 36.9889 33.1392C35.4129 36.4295 30.0605 37.6858 29.5861 37.8129C29.1485 37.9302 29.0741 38.4097 29.6649 38.8655C31.6464 40.3945 34.3566 41.007 37.0376 40.2887Z" fill="white" fill-opacity="0.4"/>
<path d="M40.4244 29.9395C39.3552 27.3098 36.6938 25.6453 36.1683 26.1106C36.7221 27.3685 38.3702 30.3961 36.8727 33.3759C35.3366 36.4326 31.0972 37.2134 30.5392 37.5576C30.9574 38.191 32.3195 39.5653 36.0287 38.5714C39.7378 37.5775 41.8819 33.5245 40.4244 29.9395Z" fill="#1D8CE0"/>
<path d="M40.4244 29.9395C39.3552 27.3098 36.6938 25.6453 36.1683 26.1106C36.7221 27.3685 38.3702 30.3961 36.8727 33.3759C35.3366 36.4326 31.0972 37.2134 30.5392 37.5576C30.9574 38.191 32.3195 39.5653 36.0287 38.5714C39.7378 37.5775 41.8819 33.5245 40.4244 29.9395Z" fill="white" fill-opacity="0.2"/>
<path d="M38.9259 30.8381C38.5986 28.6895 37.1744 27.0834 36.7729 27.4395C37.1966 28.4026 38.0164 31.0954 36.8727 33.3759C35.6995 35.7154 32.3317 36.8289 31.9053 37.0922C32.0295 37.5559 34.0274 37.5657 35.9954 36.5926C37.9634 35.6195 39.2894 33.2253 38.9259 30.8381Z" fill="#1D8CE0"/>
<path d="M41.0987 27.827C41.7206 28.5145 42.0253 29.3768 41.8153 29.5668C41.6053 29.7567 41.1373 29.1119 40.5153 28.4243C39.8934 27.7367 39.3823 27.1159 39.5923 26.9259C39.8023 26.736 40.4767 27.1394 41.0987 27.827Z" fill="#FEFEFE"/>
<ellipse cx="42.2227" cy="30.7075" rx="0.389037" ry="0.607596" transform="rotate(-14.7808 42.2227 30.7075)" fill="#FEFEFE"/>
<ellipse cx="30.5749" cy="38.5826" rx="0.397773" ry="0.585213" transform="rotate(117.305 30.5749 38.5826)" fill="#FEFEFE"/>
</svg>
