<svg width="50" height="52" viewBox="0 0 50 52" fill="none" xmlns="http://www.w3.org/2000/svg">
<path d="M22 14.3441C21.8333 14.5222 21.2 14.7717 20 14.3441C18.5 13.8095 18.5 11.1369 16 10.6024C13.5 10.0679 11 11.6715 11 14.3441C11 16.4822 13.6667 18.4421 15 19.1548V24.5" stroke="#898989" stroke-width="1.5" stroke-linecap="round" stroke-linejoin="round"/>
<path d="M22 14.3441C21.8333 14.5222 21.2 14.7717 20 14.3441C18.5 13.8095 18.5 11.1369 16 10.6024C13.5 10.0679 11 11.6715 11 14.3441C11 16.4822 13.6667 18.4421 15 19.1548V24.5" stroke="white" stroke-opacity="0.6" stroke-width="1.5" stroke-linecap="round" stroke-linejoin="round"/>
<path d="M42 8.34407C41.8333 8.52224 41.2 8.77168 40 8.34407C38.5 7.80954 38.5 5.13694 36 4.60242C33.5 4.06789 31 5.67146 31 8.34407C31 10.4822 33.6667 12.4421 35 13.1548V18.5" stroke="#898989" stroke-width="1.5" stroke-linecap="round" stroke-linejoin="round"/>
<path d="M42 8.34407C41.8333 8.52224 41.2 8.77168 40 8.34407C38.5 7.80954 38.5 5.13694 36 4.60242C33.5 4.06789 31 5.67146 31 8.34407C31 10.4822 33.6667 12.4421 35 13.1548V18.5" stroke="white" stroke-opacity="0.6" stroke-width="1.5" stroke-linecap="round" stroke-linejoin="round"/>
<circle cx="15" cy="28" r="1.5" fill="#898989"/>
<circle cx="15" cy="28" r="1.5" fill="white" fill-opacity="0.6"/>
<circle cx="35" cy="22" r="1.5" fill="#898989"/>
<circle cx="35" cy="22" r="1.5" fill="white" fill-opacity="0.6"/>
<circle cx="15" cy="38.5" r="7.8" fill="#D0333D"/>
<circle cx="15" cy="38.5" r="7.8" fill="white" fill-opacity="0.6"/>
<path d="M15 30.7C10.6922 30.7 7.20001 34.1921 7.20001 38.5C7.98001 42.66 13.18 44.896 17.34 42.4C21.5 39.904 22.02 34.08 18.64 31.5996C17.5534 31.0252 16.3147 30.7 15 30.7Z" fill="#FEFEFE" fill-opacity="0.15"/>
<path d="M15 30.7C10.6922 30.7 7.20001 34.1921 7.20001 38.5C7.98001 42.66 13.18 44.896 17.34 42.4C21.5 39.904 22.02 34.08 18.64 31.5996C17.5534 31.0252 16.3147 30.7 15 30.7Z" fill="#FEFEFE" fill-opacity="0.15"/>
<ellipse cx="13.1783" cy="35.5096" rx="5.70809" ry="4.34664" transform="rotate(-31.2916 13.1783 35.5096)" fill="#FEFEFE" fill-opacity="0.15"/>
<ellipse cx="13.1783" cy="35.5096" rx="5.70809" ry="4.34664" transform="rotate(-31.2916 13.1783 35.5096)" fill="#FEFEFE" fill-opacity="0.15"/>
<ellipse cx="12.3063" cy="33.6764" rx="1.82" ry="1.3" transform="rotate(-24.0465 12.3063 33.6764)" fill="#FEFEFE"/>
<circle cx="9.38213" cy="36.2326" r="0.78" transform="rotate(-0.909971 9.38213 36.2326)" fill="#FEFEFE"/>
<circle cx="35" cy="32.5" r="7.8" fill="#D0333D"/>
<circle cx="35" cy="32.5" r="7.8" fill="white" fill-opacity="0.6"/>
<path d="M35 24.7C30.6922 24.7 27.2 28.1921 27.2 32.5C27.98 36.66 33.18 38.896 37.34 36.4C41.5 33.904 42.02 28.08 38.64 25.5996C37.5534 25.0252 36.3147 24.7 35 24.7Z" fill="#FEFEFE" fill-opacity="0.15"/>
<path d="M35 24.7C30.6922 24.7 27.2 28.1921 27.2 32.5C27.98 36.66 33.18 38.896 37.34 36.4C41.5 33.904 42.02 28.08 38.64 25.5996C37.5534 25.0252 36.3147 24.7 35 24.7Z" fill="#FEFEFE" fill-opacity="0.15"/>
<ellipse cx="33.1783" cy="29.5096" rx="5.70809" ry="4.34664" transform="rotate(-31.2916 33.1783 29.5096)" fill="#FEFEFE" fill-opacity="0.15"/>
<ellipse cx="33.1783" cy="29.5096" rx="5.70809" ry="4.34664" transform="rotate(-31.2916 33.1783 29.5096)" fill="#FEFEFE" fill-opacity="0.15"/>
<ellipse cx="32.3063" cy="27.6764" rx="1.82" ry="1.3" transform="rotate(-24.0465 32.3063 27.6764)" fill="#FEFEFE"/>
<circle cx="29.3821" cy="30.2325" r="0.78" transform="rotate(-0.909971 29.3821 30.2325)" fill="#FEFEFE"/>
</svg>
