<svg width="50" height="51" viewBox="0 0 50 51" fill="none" xmlns="http://www.w3.org/2000/svg">
<path d="M15 36.8679V30.8199L23.64 45.9399L18.456 42.9159L15 36.8679Z" fill="#D0333D"/>
<path d="M15 36.8679V30.8199L23.64 45.9399L18.456 42.9159L15 36.8679Z" fill="white" fill-opacity="0.2"/>
<path d="M15 36.8679V30.8199L14.7531 31.2519L6.60684 45.5079L6.35999 45.9399L11.544 42.9159L15 36.8679Z" fill="#D0333D"/>
<path d="M15 36.8679V30.8199L14.7531 31.2519L6.60684 45.5079L6.35999 45.9399L11.544 42.9159L15 36.8679Z" fill="white" fill-opacity="0.4"/>
<path d="M6.35999 45.94L11.544 42.916H18.456L23.64 45.94H6.35999Z" fill="#D0333D"/>
<path d="M11.544 42.9162L15 36.8682L18.456 42.9162H11.544Z" fill="#D0333D"/>
<path d="M11.544 42.9162L15 36.8682L18.456 42.9162H11.544Z" fill="white" fill-opacity="0.6"/>
<path d="M11.544 42.9161L15 36.8201C14.36 38.4201 12.84 41.3801 13.32 42.1001C13.7019 42.673 16.12 42.8361 17.4 42.9161H11.544Z" fill="#D0333D"/>
<path d="M11.544 42.9161L15 36.8201C14.36 38.4201 12.84 41.3801 13.32 42.1001C13.7019 42.673 16.12 42.8361 17.4 42.9161H11.544Z" fill="white" fill-opacity="0.9"/>
<path d="M35 30.8679V24.8199L43.64 39.9399L38.456 36.9159L35 30.8679Z" fill="#D0333D"/>
<path d="M35 30.8679V24.8199L43.64 39.9399L38.456 36.9159L35 30.8679Z" fill="white" fill-opacity="0.2"/>
<path d="M35 30.8679V24.8199L34.7531 25.2519L26.6068 39.5079L26.36 39.9399L31.544 36.9159L35 30.8679Z" fill="#D0333D"/>
<path d="M35 30.8679V24.8199L34.7531 25.2519L26.6068 39.5079L26.36 39.9399L31.544 36.9159L35 30.8679Z" fill="white" fill-opacity="0.4"/>
<path d="M26.36 39.94L31.544 36.916H38.456L43.64 39.94H26.36Z" fill="#D0333D"/>
<path d="M31.544 36.916L35 30.868L38.456 36.916H31.544Z" fill="#D0333D"/>
<path d="M31.544 36.916L35 30.868L38.456 36.916H31.544Z" fill="white" fill-opacity="0.6"/>
<path d="M31.544 36.9159L35 30.8199C34.36 32.4199 32.84 35.3799 33.32 36.0999C33.7019 36.6728 36.12 36.8359 37.4 36.9159H31.544Z" fill="#D0333D"/>
<path d="M31.544 36.9159L35 30.8199C34.36 32.4199 32.84 35.3799 33.32 36.0999C33.7019 36.6728 36.12 36.8359 37.4 36.9159H31.544Z" fill="white" fill-opacity="0.9"/>
<path d="M22 14.3441C21.8333 14.5222 21.2 14.7717 20 14.3441C18.5 13.8095 18.5 11.1369 16 10.6024C13.5 10.0679 11 11.6715 11 14.3441C11 16.4822 13.6667 18.4421 15 19.1548V24.5" stroke="#898989" stroke-width="1.5" stroke-linecap="round" stroke-linejoin="round"/>
<path d="M22 14.3441C21.8333 14.5222 21.2 14.7717 20 14.3441C18.5 13.8095 18.5 11.1369 16 10.6024C13.5 10.0679 11 11.6715 11 14.3441C11 16.4822 13.6667 18.4421 15 19.1548V24.5" stroke="white" stroke-opacity="0.6" stroke-width="1.5" stroke-linecap="round" stroke-linejoin="round"/>
<path d="M42 8.34407C41.8333 8.52224 41.2 8.77168 40 8.34407C38.5 7.80954 38.5 5.13694 36 4.60242C33.5 4.06789 31 5.67146 31 8.34407C31 10.4822 33.6667 12.4421 35 13.1548V18.5" stroke="#898989" stroke-width="1.5" stroke-linecap="round" stroke-linejoin="round"/>
<path d="M42 8.34407C41.8333 8.52224 41.2 8.77168 40 8.34407C38.5 7.80954 38.5 5.13694 36 4.60242C33.5 4.06789 31 5.67146 31 8.34407C31 10.4822 33.6667 12.4421 35 13.1548V18.5" stroke="white" stroke-opacity="0.6" stroke-width="1.5" stroke-linecap="round" stroke-linejoin="round"/>
<circle cx="15" cy="28" r="1.5" fill="#898989"/>
<circle cx="15" cy="28" r="1.5" fill="white" fill-opacity="0.6"/>
<circle cx="35" cy="22" r="1.5" fill="#898989"/>
<circle cx="35" cy="22" r="1.5" fill="white" fill-opacity="0.6"/>
</svg>
