<svg width="50" height="52" viewBox="0 0 50 52" fill="none" xmlns="http://www.w3.org/2000/svg">
<path d="M22 14.3441C21.8333 14.5222 21.2 14.7717 20 14.3441C18.5 13.8095 18.5 11.1369 16 10.6024C13.5 10.0679 11 11.6715 11 14.3441C11 16.4822 13.6667 18.4421 15 19.1548V24.5" stroke="#898989" stroke-width="1.5" stroke-linecap="round" stroke-linejoin="round"/>
<path d="M22 14.3441C21.8333 14.5222 21.2 14.7717 20 14.3441C18.5 13.8095 18.5 11.1369 16 10.6024C13.5 10.0679 11 11.6715 11 14.3441C11 16.4822 13.6667 18.4421 15 19.1548V24.5" stroke="white" stroke-opacity="0.6" stroke-width="1.5" stroke-linecap="round" stroke-linejoin="round"/>
<path d="M42 8.34407C41.8333 8.52224 41.2 8.77168 40 8.34407C38.5 7.80954 38.5 5.13694 36 4.60242C33.5 4.06789 31 5.67146 31 8.34407C31 10.4822 33.6667 12.4421 35 13.1548V18.5" stroke="#898989" stroke-width="1.5" stroke-linecap="round" stroke-linejoin="round"/>
<path d="M42 8.34407C41.8333 8.52224 41.2 8.77168 40 8.34407C38.5 7.80954 38.5 5.13694 36 4.60242C33.5 4.06789 31 5.67146 31 8.34407C31 10.4822 33.6667 12.4421 35 13.1548V18.5" stroke="white" stroke-opacity="0.6" stroke-width="1.5" stroke-linecap="round" stroke-linejoin="round"/>
<circle cx="15" cy="28" r="1.5" fill="#898989"/>
<circle cx="15" cy="28" r="1.5" fill="white" fill-opacity="0.6"/>
<circle cx="35" cy="22" r="1.5" fill="#898989"/>
<circle cx="35" cy="22" r="1.5" fill="white" fill-opacity="0.6"/>
<path d="M21.72 41.42C21.72 45.1313 18.7114 48.14 15 48.14C11.2886 48.14 8.28 45.1313 8.28 41.42C8.28 37.7086 14.04 30.86 15 30.86C15.96 30.86 21.72 37.7086 21.72 41.42Z" fill="#FAA21E"/>
<path d="M21.72 41.42C21.72 45.1313 18.7114 48.14 15 48.14C11.2886 48.14 8.28 45.1313 8.28 41.42C8.28 37.7086 14.04 30.86 15 30.86C15.96 30.86 21.72 37.7086 21.72 41.42Z" fill="black" fill-opacity="0.1"/>
<path d="M19.8 39.3667C19.8 42.3564 17.3286 44.78 14.28 44.78C11.2314 44.78 9.23999 42.3564 9.23999 39.3667C9.23999 36.377 14.2114 30.86 15 30.86C15.7886 30.86 19.8 36.377 19.8 39.3667Z" fill="#FAA21E"/>
<path d="M19.8 39.3667C19.8 42.3564 17.3286 44.78 14.28 44.78C11.2314 44.78 9.23999 42.3564 9.23999 39.3667C9.23999 36.377 14.2114 30.86 15 30.86C15.7886 30.86 19.8 36.377 19.8 39.3667Z" fill="#FEFEFE" fill-opacity="0.15"/>
<path d="M18.12 37.1C18.12 39.2649 16.1608 40.94 14.04 40.94C11.9192 40.94 10.68 39.0249 10.68 36.86C10.68 34.695 14.4514 30.86 15 30.86C15.5486 30.86 18.12 34.935 18.12 37.1Z" fill="#FAA21E"/>
<path d="M18.12 37.1C18.12 39.2649 16.1608 40.94 14.04 40.94C11.9192 40.94 10.68 39.0249 10.68 36.86C10.68 34.695 14.4514 30.86 15 30.86C15.5486 30.86 18.12 34.935 18.12 37.1Z" fill="white" fill-opacity="0.4"/>
<ellipse cx="14.122" cy="33.8773" rx="1.68" ry="1.2" transform="rotate(-49.6784 14.122 33.8773)" fill="#FEFEFE"/>
<circle cx="12.1259" cy="36.6259" r="0.72" transform="rotate(-26.5419 12.1259 36.6259)" fill="#FEFEFE"/>
<path d="M41.72 35.42C41.72 39.1313 38.7114 42.14 35 42.14C31.2886 42.14 28.28 39.1313 28.28 35.42C28.28 31.7086 34.04 24.86 35 24.86C35.96 24.86 41.72 31.7086 41.72 35.42Z" fill="#FAA21E"/>
<path d="M41.72 35.42C41.72 39.1313 38.7114 42.14 35 42.14C31.2886 42.14 28.28 39.1313 28.28 35.42C28.28 31.7086 34.04 24.86 35 24.86C35.96 24.86 41.72 31.7086 41.72 35.42Z" fill="black" fill-opacity="0.1"/>
<path d="M39.8 33.3667C39.8 36.3564 37.3286 38.78 34.28 38.78C31.2314 38.78 29.24 36.3564 29.24 33.3667C29.24 30.377 34.2114 24.86 35 24.86C35.7886 24.86 39.8 30.377 39.8 33.3667Z" fill="#FAA21E"/>
<path d="M39.8 33.3667C39.8 36.3564 37.3286 38.78 34.28 38.78C31.2314 38.78 29.24 36.3564 29.24 33.3667C29.24 30.377 34.2114 24.86 35 24.86C35.7886 24.86 39.8 30.377 39.8 33.3667Z" fill="#FEFEFE" fill-opacity="0.15"/>
<path d="M38.12 31.1C38.12 33.2649 36.1608 34.94 34.04 34.94C31.9192 34.94 30.68 33.0249 30.68 30.86C30.68 28.695 34.4514 24.86 35 24.86C35.5486 24.86 38.12 28.935 38.12 31.1Z" fill="#FAA21E"/>
<path d="M38.12 31.1C38.12 33.2649 36.1608 34.94 34.04 34.94C31.9192 34.94 30.68 33.0249 30.68 30.86C30.68 28.695 34.4514 24.86 35 24.86C35.5486 24.86 38.12 28.935 38.12 31.1Z" fill="white" fill-opacity="0.4"/>
<ellipse cx="34.122" cy="27.8773" rx="1.68" ry="1.2" transform="rotate(-49.6784 34.122 27.8773)" fill="#FEFEFE"/>
<circle cx="32.1259" cy="30.6259" r="0.72" transform="rotate(-26.5419 32.1259 30.6259)" fill="#FEFEFE"/>
</svg>
