<svg width="50" height="49" viewBox="0 0 50 49" fill="none" xmlns="http://www.w3.org/2000/svg">
<path d="M40 16C38 11.5 33.0001 2.00002 25 2C17 1.99998 11.5 11.5 10 16C8.15606 21.5317 6.50001 29.5 8.5 36C10.5 42.5 17.5 47.5 25 47.5C32.5001 47.5 39.5 42.5 41.5 36C43.5 29.5 42 20.5 40 16Z" fill="#CE4317"/>
<path d="M40 16C38 11.5 33.0001 2.00002 25 2C17 1.99998 11.5 11.5 10 16C8.15606 21.5317 6.50001 29.5 8.5 36C10.5 42.5 17.5 47.5 25 47.5C32.5001 47.5 39.5 42.5 41.5 36C43.5 29.5 42 20.5 40 16Z" fill="white" fill-opacity="0.6"/>
<path d="M20.7518 12.2287C21.78 10.8018 23.4488 9.53161 21.7175 8.26911C19.9862 7.00668 18.1305 9.07026 17.1018 10.497C15.8009 12.3015 14.6586 14.9345 16.3877 16.1964C18.6928 17.8787 19.7237 13.6556 20.7518 12.2287Z" fill="#FEFEFE"/>
<path d="M16.5378 18.9588C15.8829 18.2941 14.5681 17.6248 13.9035 18.2797C13.238 18.9347 12.6989 20.3827 13.2233 20.914C13.8791 21.5785 14.9168 22.5185 15.8575 21.5931C16.5233 20.9382 17.0009 19.4287 16.5378 18.9588Z" fill="#FEFEFE"/>
</svg>
