<svg width="50" height="50" viewBox="0 0 50 50" fill="none" xmlns="http://www.w3.org/2000/svg">
<path d="M9.66483 1.98511H39.7042V4.96293L40.6968 6.94814H44.6673V47.645H11.2321C10.7097 47.645 8.09756 47.645 6.53029 46.0884C4.96301 44.5318 4.96301 42.9752 4.96301 42.4564V6.65487C4.96301 5.61714 5.69441 4.37187 6.53029 3.54169C7.36616 2.71151 8.61998 1.98511 9.66483 1.98511Z" fill="#FAA21E"/>
<path d="M9.66483 1.98511H39.7042V4.96293L40.6968 6.94814H44.6673V47.645H11.2321C10.7097 47.645 8.09756 47.645 6.53029 46.0884C4.96301 44.5318 4.96301 42.9752 4.96301 42.4564V6.65487C4.96301 5.61714 5.69441 4.37187 6.53029 3.54169C7.36616 2.71151 8.61998 1.98511 9.66483 1.98511Z" fill="black" fill-opacity="0.1"/>
<path d="M42.682 9.03264L39.7042 4.96295V39.7042H37.719L42.682 45.6598V9.03264Z" fill="#898989"/>
<path d="M42.682 9.03264L39.7042 4.96295V39.7042H37.719L42.682 45.6598V9.03264Z" fill="white" fill-opacity="0.2"/>
<path d="M10.0555 39.7042H37.719L42.6821 45.6598H10.0555C9.55299 45.6598 6.94824 44.9153 6.94824 42.682C6.94824 40.4486 9.55299 39.7042 10.0555 39.7042Z" fill="#898989"/>
<path d="M10.0555 39.7042H37.719L42.6821 45.6598H10.0555C9.55299 45.6598 6.94824 44.9153 6.94824 42.682C6.94824 40.4486 9.55299 39.7042 10.0555 39.7042Z" fill="white" fill-opacity="0.6"/>
<path d="M30.5643 35.571C34.1206 34.0932 36.5789 31.8482 36.947 28.4331C35.2039 29.973 32.8828 30.1221 32.8828 30.1221C34.8449 27.6755 36.5881 26.1357 36.1591 22.2361C34.197 24.6827 32.3838 24.6206 30.5707 24.5585C31.2978 23.4408 32.5329 22.1121 32.4629 20.5101C30.4308 21.3546 26.8668 22.4279 24.8347 23.2724C22.2945 24.328 20.715 28.2466 22.16 31.7238C23.605 35.201 27.9739 36.6476 30.5643 35.571Z" fill="#FEFEFE"/>
<path d="M29.3683 34.9263C32.4396 33.65 34.5711 31.7311 34.9112 28.8351C33.4002 30.1517 31.4011 30.2938 31.4011 30.2938C33.1068 28.2076 34.6178 26.891 34.275 23.59C32.5694 25.6763 31.009 25.636 29.4487 25.5957C30.0822 24.6438 31.1544 23.5096 31.1051 22.1527C29.3501 22.882 26.2749 23.8157 24.5198 24.545C22.326 25.4567 20.9397 28.7875 22.1599 31.7238C23.3802 34.6601 27.1311 35.856 29.3683 34.9263Z" fill="#FEFEFE"/>
<path d="M27.4659 33.5966C29.4057 32.7904 30.7422 31.5554 30.9313 29.6645C29.9835 30.5115 28.7145 30.5857 28.7145 30.5857C29.7789 29.2372 30.7268 28.3903 30.4782 26.2281C29.4138 27.5767 28.4219 27.5358 27.43 27.4949C27.8237 26.8782 28.4944 26.1464 28.4504 25.2586C27.342 25.7192 25.3966 26.3011 24.2881 26.7618C22.9026 27.3375 22.0527 29.503 22.8555 31.4348C23.6583 33.3666 26.0529 34.1837 27.4659 33.5966Z" fill="#898989"/>
<path d="M27.4659 33.5966C29.4057 32.7904 30.7422 31.5554 30.9313 29.6645C29.9835 30.5115 28.7145 30.5857 28.7145 30.5857C29.7789 29.2372 30.7268 28.3903 30.4782 26.2281C29.4138 27.5767 28.4219 27.5358 27.43 27.4949C27.8237 26.8782 28.4944 26.1464 28.4504 25.2586C27.342 25.7192 25.3966 26.3011 24.2881 26.7618C22.9026 27.3375 22.0527 29.503 22.8555 31.4348C23.6583 33.3666 26.0529 34.1837 27.4659 33.5966Z" fill="white" fill-opacity="0.8"/>
<path d="M31.457 7.16865C34.1867 8.60651 35.91 11.9549 33.8974 15.7757C31.8848 19.5965 26.9677 20.0227 24.5092 18.1519C20.9136 15.4157 20.2874 9.82687 18.0609 7.43379C21.2938 7.91645 26.9726 4.80643 31.457 7.16865Z" fill="#FEFEFE"/>
<path d="M23.7296 10.9225C23.3136 9.92555 23.186 8.65129 21.9668 9.12484C20.7477 9.59843 21.2306 11.2295 21.6464 12.2266C22.1724 13.4877 23.1834 14.9398 24.4016 14.4672C26.0254 13.8372 24.1457 11.9194 23.7296 10.9225Z" fill="#898989"/>
<path d="M23.7296 10.9225C23.3136 9.92555 23.186 8.65129 21.9668 9.12484C20.7477 9.59843 21.2306 11.2295 21.6464 12.2266C22.1724 13.4877 23.1834 14.9398 24.4016 14.4672C26.0254 13.8372 24.1457 11.9194 23.7296 10.9225Z" fill="white" fill-opacity="0.8"/>
<path d="M25.9335 14.7097C25.3849 14.8693 24.6473 15.3814 24.8179 15.9265C24.9883 16.4722 25.6283 17.1786 26.0671 17.0505C26.616 16.8904 27.4234 16.6049 27.1828 15.8337C27.0125 15.288 26.3215 14.5968 25.9335 14.7097Z" fill="#898989"/>
<path d="M25.9335 14.7097C25.3849 14.8693 24.6473 15.3814 24.8179 15.9265C24.9883 16.4722 25.6283 17.1786 26.0671 17.0505C26.616 16.8904 27.4234 16.6049 27.1828 15.8337C27.0125 15.288 26.3215 14.5968 25.9335 14.7097Z" fill="white" fill-opacity="0.8"/>
<path d="M32.8032 15.2343C31.7415 17.2499 28.8109 17.576 27.4784 17.4871C28.2743 17.14 30.0935 16.014 31.0036 14.2864C31.9136 12.5587 32.0532 10.5479 32.0093 9.75847C32.7163 10.7439 33.8649 13.2187 32.8032 15.2343Z" fill="#FEFEFE" fill-opacity="0.15"/>
<path d="M32.8032 15.2343C31.7415 17.2499 28.8109 17.576 27.4784 17.4871C28.2743 17.14 30.0935 16.014 31.0036 14.2864C31.9136 12.5587 32.0532 10.5479 32.0093 9.75847C32.7163 10.7439 33.8649 13.2187 32.8032 15.2343Z" fill="#FEFEFE" fill-opacity="0.15"/>
<path d="M32.8032 15.2343C31.7415 17.2499 28.8109 17.576 27.4784 17.4871C28.2743 17.14 30.0935 16.014 31.0036 14.2864C31.9136 12.5587 32.0532 10.5479 32.0093 9.75847C32.7163 10.7439 33.8649 13.2187 32.8032 15.2343Z" fill="#FEFEFE" fill-opacity="0.15"/>
<path d="M20.4196 18.2809C19.5489 13.0996 15.4177 10.3919 13.0223 9.51622C11.0074 11.9891 8.00687 16.0085 9.24726 21.2196C10.4876 26.4307 13.9661 29.2317 18.6534 30.5488C18.3928 26.8287 21.1701 22.7466 20.4196 18.2809Z" fill="#898989"/>
<path d="M20.4196 18.2809C19.5489 13.0996 15.4177 10.3919 13.0223 9.51622C11.0074 11.9891 8.00687 16.0085 9.24726 21.2196C10.4876 26.4307 13.9661 29.2317 18.6534 30.5488C18.3928 26.8287 21.1701 22.7466 20.4196 18.2809Z" fill="white" fill-opacity="0.8"/>
<path fill-rule="evenodd" clip-rule="evenodd" d="M14.752 23.1014C14.5618 22.3271 14.4928 20.9479 14.4901 20.0648C15.2571 20.09 16.3519 20.2172 17.4733 20.5533C18.5011 20.8614 19.5266 21.3374 20.3461 22.0508C20.1505 23.1751 19.8404 24.273 19.5377 25.3448C19.4747 25.5677 19.412 25.7896 19.3508 26.0103C18.841 25.6965 18.2362 25.4896 17.6595 25.3526C16.8617 25.1631 16.0499 25.0919 15.4569 25.0833C15.1582 24.4307 14.9289 23.8212 14.752 23.1014ZM19.1345 26.8149C18.7192 26.4973 18.1295 26.2653 17.4721 26.1092C16.9059 25.9747 16.3275 25.9054 15.8451 25.8775C16.6549 27.4318 17.713 28.9022 18.6363 30.0178C18.6397 28.9782 18.8523 27.9107 19.1345 26.8149ZM17.8358 30.2998C16.8856 29.1294 15.8231 27.6212 15.0172 26.0305C14.7235 26.253 14.4205 26.6104 14.1663 27.0463C13.9375 27.4384 13.7741 27.8499 13.6949 28.2117C14.9025 29.1087 16.2962 29.7927 17.8358 30.2998ZM12.9996 27.6534C11.8961 26.6957 10.9769 25.5289 10.279 24.1196C10.3116 24.014 10.3524 23.9026 10.402 23.7857C10.6101 23.2954 10.9508 22.7584 11.3722 22.2411C12.058 21.3993 12.9116 20.6642 13.6732 20.2688C13.6854 21.1785 13.7597 22.4743 13.9549 23.2688C14.138 24.0138 14.3732 24.6471 14.6684 25.3011C14.182 25.613 13.7585 26.1299 13.4492 26.66C13.2669 26.9726 13.1105 27.3132 12.9996 27.6534ZM9.82749 23.0938C10.062 22.6444 10.3714 22.1887 10.7226 21.7575C11.5438 20.7495 12.6521 19.8061 13.6768 19.3972C13.6843 17.9523 13.6586 16.2686 13.4953 14.7016C12.3329 15.0874 11.1997 15.8067 10.2722 16.6454C9.75962 17.1089 9.32154 17.5983 8.98021 18.0739C8.91229 19.0669 8.98482 20.1166 9.24739 21.2197C9.40522 21.8828 9.5993 22.5069 9.82749 23.0938ZM9.1938 16.5685C9.3565 16.4008 9.52701 16.2362 9.70405 16.0761C10.7373 15.1418 12.0357 14.3208 13.4002 13.9062C13.2034 12.3893 12.9662 10.9606 12.7565 9.84501C11.4295 11.4993 9.79616 13.7707 9.1938 16.5685ZM13.5655 9.73441C13.7728 10.8391 14.0058 12.2413 14.2012 13.7321C15.0231 13.6172 16.153 13.5885 17.3166 13.8091C17.8409 13.9084 18.3772 14.0596 18.8974 14.2791C17.4045 11.915 15.2129 10.4533 13.5655 9.73441ZM19.5838 15.5455C18.8563 15.0351 18.0118 14.7339 17.1678 14.5739C16.0877 14.3692 15.0359 14.4016 14.2966 14.5087C14.4712 16.1074 14.5017 17.8221 14.4961 19.285C15.3298 19.3116 16.5036 19.4483 17.7089 19.8096C18.6488 20.0913 19.6259 20.5151 20.476 21.1434C20.5793 20.2073 20.5831 19.2532 20.4197 18.281C20.2512 17.278 19.9604 16.3677 19.5838 15.5455Z" fill="#FEFEFE"/>
</svg>
