<svg width="50" height="50" viewBox="0 0 50 50" fill="none" xmlns="http://www.w3.org/2000/svg">
<g clip-path="url(#clip0_3640_30043)">
<path d="M9.70074 1.99249H39.8518V4.98138L40.8481 6.97397H44.8333V47.8221H11.2738C10.7495 47.8221 8.12764 47.8221 6.55454 46.2597C4.98145 44.6974 4.98145 43.135 4.98145 42.6142V6.67961C4.98145 5.63803 5.71556 4.38813 6.55454 3.55487C7.39353 2.7216 8.65201 1.99249 9.70074 1.99249Z" fill="#FAA21E"/>
<path d="M9.70074 1.99249H39.8518V4.98138L40.8481 6.97397H44.8333V47.8221H11.2738C10.7495 47.8221 8.12764 47.8221 6.55454 46.2597C4.98145 44.6974 4.98145 43.135 4.98145 42.6142V6.67961C4.98145 5.63803 5.71556 4.38813 6.55454 3.55487C7.39353 2.7216 8.65201 1.99249 9.70074 1.99249Z" fill="black" fill-opacity="0.1"/>
<path d="M42.8407 9.0662L39.8518 4.98138V39.8518H37.8593L42.8407 45.8295V9.0662Z" fill="#898989"/>
<path d="M42.8407 9.0662L39.8518 4.98138V39.8518H37.8593L42.8407 45.8295V9.0662Z" fill="white" fill-opacity="0.2"/>
<path d="M10.093 39.8517H37.8593L42.8408 45.8295H10.093C9.58856 45.8295 6.97412 45.0823 6.97412 42.8406C6.97412 40.599 9.58856 39.8517 10.093 39.8517Z" fill="#898989"/>
<path d="M10.093 39.8517H37.8593L42.8408 45.8295H10.093C9.58856 45.8295 6.97412 45.0823 6.97412 42.8406C6.97412 40.599 9.58856 39.8517 10.093 39.8517Z" fill="white" fill-opacity="0.6"/>
<path d="M25.6378 15.26V14.463H24.8408C24.2562 14.463 23.3828 14.1134 22.6382 13.3698C21.9144 12.6469 21.3761 11.6116 21.3761 10.3337C21.3761 9.10957 21.6519 8.10003 22.2654 7.40202C22.8617 6.72357 23.8973 6.20445 25.7209 6.20445C27.5449 6.20445 28.7029 6.72522 29.4059 7.43624C30.1135 8.15179 30.4611 9.16184 30.4611 10.3337C30.4611 11.4652 30.0375 12.5196 29.407 13.2847C28.7678 14.0604 27.986 14.463 27.3025 14.463H26.5055V15.26V17.9127V18.7097H27.3025C27.8968 18.7097 28.8366 18.7105 29.8152 18.8445C30.7814 18.9767 31.6865 19.227 32.3165 19.6558C32.3411 19.7055 32.3751 19.7925 32.4131 19.9283C32.4914 20.2088 32.5624 20.6092 32.6225 21.1236C32.7421 22.147 32.807 23.5134 32.839 25.0381C32.8824 27.108 32.8646 29.4135 32.8486 31.4789C32.8433 32.1539 32.8383 32.8033 32.8357 33.4104H19.3989C19.4041 31.0472 19.4354 28.0622 19.5611 25.4531C19.6313 23.9952 19.7303 22.671 19.8679 21.6446C19.9368 21.1303 20.0132 20.7078 20.0955 20.3882C20.1365 20.2287 20.1761 20.1063 20.2121 20.0168C20.2437 19.9383 20.2648 19.9048 20.2684 19.8989C20.2692 19.8977 20.2692 19.8977 20.2684 19.8987C20.5629 19.5225 21.228 19.1975 22.1792 18.9828C23.0878 18.7776 24.088 18.7097 24.8408 18.7097H25.6378V17.9127V15.26ZM32.2986 19.6236C32.2986 19.6235 32.2995 19.6248 32.3013 19.6276C32.2994 19.6251 32.2985 19.6236 32.2986 19.6236Z" stroke="#FEFEFE" stroke-width="1.59407"/>
<path d="M12.5791 11.9337C12.5791 14.9653 15.3477 16.86 16.534 16.86V19.5127C14.9523 19.5127 11.9463 19.8158 10.9971 21.0285C10.0478 22.2411 10.6011 30.8811 10.6009 35.8074H25.6308C25.6308 30.7548 25.7895 21.559 24.8402 20.6495C23.891 19.74 20.4896 19.5127 19.3025 19.5127V16.86C21.2805 16.86 23.2581 14.5864 23.2581 11.9337C23.2581 9.2811 21.6761 7.00742 17.7208 7.00742C13.7656 7.00742 12.5791 9.2811 12.5791 11.9337Z" fill="#FEFEFE"/>
</g>
<defs>
<clipPath id="clip0_3640_30043">
<rect width="50" height="50" fill="white" transform="matrix(-1 0 0 1 50 0)"/>
</clipPath>
</defs>
</svg>
