<svg width="50" height="50" viewBox="0 0 50 50" fill="none" xmlns="http://www.w3.org/2000/svg">
<path d="M41.383 6.58824C41.0036 7.70588 38.3244 14.5882 38.5 18.5C38.7021 23.0021 37.9682 27.2647 35.6917 31.7353C33.8705 35.3118 33.4152 36 32.5 39.5M36.2608 32.8529C37.9682 32.1078 41.9522 29.9471 44.2287 27.2647C47.0743 23.9118 48.7817 21.1176 47.6435 14.4118C46.7328 9.04706 44.9875 3.23529 44.2287 1C41.9522 1.93137 36.6023 4.57647 33.4152 7.70588C29.4313 11.6176 27.1547 15.5294 28.293 21.6765C29.2036 26.5941 32.4667 30.8039 33.9844 32.2941" stroke="#FEFEFE"/>
<path d="M6.5 16C7.88095 18.2535 10.5 25.5 15.5 30C20.5 34.5 23.6135 37.5 25.5 42.1127C26.6809 45 27.375 46.5 30 49.5M26.8571 42.1127C27.2024 40.6103 27.7893 36.3662 27.375 31.4085C26.8571 25.2113 23.5 19.5 18.5714 16.7606C13.4685 13.9242 6.66071 11.3146 4.07143 10C3.38095 12.6291 2 19.0141 2 23.5211C2 29.1549 3.55357 35.3521 8.73214 39.8592C12.875 43.4648 21.1607 43.9906 24.7857 43.8028" stroke="#FEFEFE"/>
</svg>
