<svg width="50" height="50" viewBox="0 0 50 50" fill="none" xmlns="http://www.w3.org/2000/svg">
<g clip-path="url(#clip0_4833_16047)">
<path d="M28.4055 2.25171L44.1698 10.4355L44.0913 26.6501L28.2484 34.6809L12.4841 26.497L12.5627 10.2825L28.4055 2.25171Z" fill="#898989"/>
<path d="M28.4055 2.25171L44.1698 10.4355L44.0913 26.6501L28.2484 34.6809L12.4841 26.497L12.5627 10.2825L28.4055 2.25171Z" fill="white" fill-opacity="0.2"/>
<path d="M28.416 0.0883826L44.1828 7.7583L44.1092 22.945L28.2689 30.4619L12.5021 22.792L12.5756 7.60521L28.416 0.0883826Z" fill="#898989"/>
<path d="M28.416 0.0883826L44.1828 7.7583L44.1092 22.945L28.2689 30.4619L12.5021 22.792L12.5756 7.60521L28.416 0.0883826Z" fill="white" fill-opacity="0.8"/>
<path d="M28.4044 2.45765L41.7114 8.93098L41.6494 21.7484L28.2803 28.0925L14.9733 21.6192L15.0354 8.80177L28.4044 2.45765Z" fill="#A272E4"/>
<path d="M28.3999 30.4568L12.5531 22.8735L12.5023 26.6692L28.4 34.7L28.3999 30.4568Z" fill="#898989"/>
<path d="M15 12V9.5L40.5 22L40 24L15 12Z" fill="#7445B8"/>
<path d="M15 12V9.5L40.5 22L40 24L15 12Z" fill="black" fill-opacity="0.2"/>
<path d="M29 4.5V2L41 8L40.5 10L29 4.5Z" fill="#7445B8"/>
<path d="M29 4.5V2L41 8L40.5 10L29 4.5Z" fill="black" fill-opacity="0.2"/>
<path d="M17.6684 9.64637L16 8.00007L27.8683 2.46371L28.8579 4.20283L17.6684 9.64637Z" fill="#7445B8"/>
<path d="M16.6018 23.9099L14.6201 22.3194L27.7252 16.325L29 18L16.6018 23.9099Z" fill="#7445B8"/>
<path d="M31.0182 17.0293L29.1698 15.6138L42 9.49996L43.1416 11L31.0182 17.0293Z" fill="#7445B8"/>
<path fill-rule="evenodd" clip-rule="evenodd" d="M44.1828 7.75829L28.416 0.0883789L12.5756 7.60521L12.5021 22.792L28.2689 30.4619L44.1092 22.945L44.1828 7.75829ZM41.7114 8.93105L28.4044 2.45772L15.0354 8.80184L14.9733 21.6193L28.2803 28.0926L41.6494 21.7485L41.7114 8.93105Z" fill="#898989"/>
<path fill-rule="evenodd" clip-rule="evenodd" d="M44.1828 7.75829L28.416 0.0883789L12.5756 7.60521L12.5021 22.792L28.2689 30.4619L44.1092 22.945L44.1828 7.75829ZM41.7114 8.93105L28.4044 2.45772L15.0354 8.80184L14.9733 21.6193L28.2803 28.0926L41.6494 21.7485L41.7114 8.93105Z" fill="white" fill-opacity="0.8"/>
<path d="M28.3 2V29M14.5 8.5L42 22M14 22L42.5 8.5" stroke="#898989" stroke-width="2"/>
<path d="M28.3 2V29M14.5 8.5L42 22M14 22L42.5 8.5" stroke="white" stroke-opacity="0.8" stroke-width="2"/>
<path d="M23 30.75L17.5 28L5 46.5L6 50L11.5 49.25L23 30.75Z" fill="#898989"/>
<path d="M23 28.75L17.5 26L5 44.5L6 48L11.5 47.25L23 28.75Z" fill="#898989"/>
<path d="M23 28.75L17.5 26L5 44.5L6 48L11.5 47.25L23 28.75Z" fill="white" fill-opacity="0.8"/>
<path d="M21.5 28L19 26.75L7.69333 43.3144L7.99997 45L10.2538 44.9268L21.5 28Z" fill="#898989"/>
<path d="M21.5 28L19 26.75L7.69333 43.3144L7.99997 45L10.2538 44.9268L21.5 28Z" fill="white" fill-opacity="0.4"/>
<path d="M11.5 49.2331L11.5 47.2646L23 28.7646L23 30.7331L11.5 49.2331Z" fill="#898989"/>
<path d="M11.5 49.2331L11.5 47.2646L23 28.7646L23 30.7331L11.5 49.2331Z" fill="white" fill-opacity="0.4"/>
<path d="M6 50V48L5 44.5V46.5L6 50Z" fill="#898989"/>
<path d="M6 50V48L5 44.5V46.5L6 50Z" fill="white" fill-opacity="0.2"/>
<path d="M20.0333 42.1333L17.7 37L13.5 44L20.0333 42.1333Z" fill="#898989"/>
<path d="M20.0333 42.1333L17.7 37L13.5 44L20.0333 42.1333Z" fill="white" fill-opacity="0.8"/>
<path d="M13.5 46.0001V44.0001L20 42V44L13.5 46.0001Z" fill="#898989"/>
<path d="M13.5 46.0001V44.0001L20 42V44L13.5 46.0001Z" fill="white" fill-opacity="0.2"/>
</g>
<defs>
<clipPath id="clip0_4833_16047">
<rect width="50" height="50" fill="white"/>
</clipPath>
</defs>
</svg>
