<svg width="50" height="50" viewBox="0 0 50 50" fill="none" xmlns="http://www.w3.org/2000/svg">
<path d="M4.25569 20.8249C5.82189 20.5321 7.77972 21.0754 8.75008 21.803C7.79501 19.1789 6.11765 13.2509 7.04874 10.5319C8.21261 7.13308 9.88897 5.2292 14.2667 4.41125C18.6444 3.5933 20.4611 5.98072 21.9749 7.97024C23.186 9.56185 24.1416 15.746 24.468 18.6391L27.0541 28.6088L10.6377 31.6761L10.4279 30.5791C8.02145 29.0593 3.04544 25.6412 2.39322 24.1269C1.57795 22.2341 3.16132 21.0294 4.25569 20.8249Z" fill="#546DDB"/>
<path d="M4.25569 20.8249C5.82189 20.5321 7.77972 21.0754 8.75008 21.803C7.79501 19.1789 6.11765 13.2509 7.04874 10.5319C8.21261 7.13308 9.88897 5.2292 14.2667 4.41125C18.6444 3.5933 20.4611 5.98072 21.9749 7.97024C23.186 9.56185 24.1416 15.746 24.468 18.6391L27.0541 28.6088L10.6377 31.6761L10.4279 30.5791C8.02145 29.0593 3.04544 25.6412 2.39322 24.1269C1.57795 22.2341 3.16132 21.0294 4.25569 20.8249Z" fill="white" fill-opacity="0.6"/>
<path d="M11.6864 37.1613L28 34L26.8793 28.0019L10.4793 31.0019L11.6864 37.1613Z" fill="#546DDB"/>
<path d="M11.6864 37.1613L28 34L26.8793 28.0019L10.4793 31.0019L11.6864 37.1613Z" fill="white" fill-opacity="0.6"/>
<circle cx="18.0461" cy="22.616" r="4.8" transform="rotate(-12.4266 18.0461 22.616)" fill="#546DDB"/>
<circle cx="18.0461" cy="22.616" r="4.8" transform="rotate(-12.4266 18.0461 22.616)" fill="white" fill-opacity="0.2"/>
<path fill-rule="evenodd" clip-rule="evenodd" d="M16.6309 21.4262C16.7236 21.3148 16.8891 21.2995 17.0006 21.3922L18.2117 22.3991C18.3231 22.4918 18.3384 22.6573 18.2457 22.7688C18.153 22.8803 17.9875 22.8955 17.876 22.8028L16.6649 21.7959C16.5535 21.7032 16.5382 21.5377 16.6309 21.4262Z" fill="#152242"/>
<path fill-rule="evenodd" clip-rule="evenodd" d="M17.888 22.8255C17.7723 22.7381 17.7493 22.5735 17.8367 22.4578L19.6855 20.0102C19.7728 19.8945 19.9375 19.8715 20.0531 19.9589C20.1688 20.0463 20.1918 20.2109 20.1044 20.3266L18.2556 22.7743C18.1683 22.8899 18.0036 22.9129 17.888 22.8255Z" fill="#152242"/>
<path fill-rule="evenodd" clip-rule="evenodd" d="M17.1424 18.5144C17.284 18.4832 17.424 18.5727 17.4552 18.7143L17.6812 19.7397C17.7124 19.8813 17.6229 20.0214 17.4813 20.0525C17.3397 20.0837 17.1997 19.9943 17.1685 19.8527L16.9425 18.8273C16.9113 18.6857 17.0008 18.5456 17.1424 18.5144Z" fill="#152242"/>
<path fill-rule="evenodd" clip-rule="evenodd" d="M18.611 25.1796C18.7526 25.1484 18.8927 25.2378 18.9239 25.3794L19.1498 26.4048C19.181 26.5464 19.0915 26.6865 18.95 26.7177C18.8084 26.7489 18.6683 26.6594 18.6371 26.5178L18.4112 25.4924C18.38 25.3508 18.4695 25.2108 18.611 25.1796Z" fill="#152242"/>
<path fill-rule="evenodd" clip-rule="evenodd" d="M22.1478 21.7123C22.179 21.8538 22.0895 21.9939 21.9479 22.0251L20.9225 22.251C20.7809 22.2822 20.6409 22.1928 20.6097 22.0512C20.5785 21.9096 20.668 21.7695 20.8095 21.7383L21.8349 21.5124C21.9765 21.4812 22.1166 21.5707 22.1478 21.7123Z" fill="#152242"/>
<path fill-rule="evenodd" clip-rule="evenodd" d="M15.4827 23.1809C15.5139 23.3225 15.4244 23.4626 15.2828 23.4938L14.2574 23.7197C14.1158 23.7509 13.9758 23.6614 13.9446 23.5198C13.9134 23.3783 14.0028 23.2382 14.1444 23.207L15.1698 22.9811C15.3114 22.9499 15.4515 23.0393 15.4827 23.1809Z" fill="#152242"/>
<path d="M18.5589 22.5031C18.6213 22.7862 18.4423 23.0664 18.1591 23.1288C17.876 23.1912 17.5959 23.0122 17.5335 22.729C17.4711 22.4459 17.65 22.1657 17.9332 22.1034C18.2164 22.041 18.4965 22.2199 18.5589 22.5031Z" fill="#152242"/>
<line x1="11.705" y1="20.327" x2="12.8769" y2="20.0687" stroke="#546DDB" stroke-width="0.6" stroke-linecap="round"/>
<line x1="11.705" y1="20.327" x2="12.8769" y2="20.0687" stroke="white" stroke-opacity="0.2" stroke-width="0.6" stroke-linecap="round"/>
<line x1="10.985" y1="22.636" x2="12.1569" y2="22.3778" stroke="#546DDB" stroke-width="0.6" stroke-linecap="round"/>
<line x1="10.985" y1="22.636" x2="12.1569" y2="22.3778" stroke="white" stroke-opacity="0.2" stroke-width="0.6" stroke-linecap="round"/>
<line x1="11.5014" y1="24.9798" x2="12.6733" y2="24.7215" stroke="#546DDB" stroke-width="0.6" stroke-linecap="round"/>
<line x1="11.5014" y1="24.9798" x2="12.6733" y2="24.7215" stroke="white" stroke-opacity="0.2" stroke-width="0.6" stroke-linecap="round"/>
<line x1="13.1251" y1="26.7723" x2="14.297" y2="26.5141" stroke="#546DDB" stroke-width="0.6" stroke-linecap="round"/>
<line x1="13.1251" y1="26.7723" x2="14.297" y2="26.5141" stroke="white" stroke-opacity="0.2" stroke-width="0.6" stroke-linecap="round"/>
<path d="M22.584 41.086L39.1225 43.5966L39.8793 38.3167L40.2562 36.9185C42.2043 35.6455 45.9748 32.4415 46.6825 31.4003C47.5673 30.0988 48.0298 29.0218 47.5436 27.6036C47.0312 26.1088 45.9369 26.3132 44.8425 26.5177C43.6679 26.7371 42.0326 28.0273 41.3729 28.5293C41.8539 26.6973 42.8111 22.5342 42.7923 20.538C42.7686 18.0428 41.8367 14.3539 39.6242 12.2677C37.4117 10.1815 32.2187 9.10659 28.9591 12.2153C27.7136 13.4031 26.9497 14.7117 26.5 15.8852L29.7772 35.4679L23.1432 36.6114L22.584 41.086Z" fill="#546DDB"/>
<path d="M22.584 41.086L39.1225 43.5966L39.8793 38.3167L40.2562 36.9185C42.2043 35.6455 45.9748 32.4415 46.6825 31.4003C47.5673 30.0988 48.0298 29.0218 47.5436 27.6036C47.0312 26.1088 45.9369 26.3132 44.8425 26.5177C43.6679 26.7371 42.0326 28.0273 41.3729 28.5293C41.8539 26.6973 42.8111 22.5342 42.7923 20.538C42.7686 18.0428 41.8367 14.3539 39.6242 12.2677C37.4117 10.1815 32.2187 9.10659 28.9591 12.2153C27.7136 13.4031 26.9497 14.7117 26.5 15.8852L29.7772 35.4679L23.1432 36.6114L22.584 41.086Z" fill="white" fill-opacity="0.4"/>
<circle cx="33.3398" cy="29.3118" r="4.8" transform="rotate(7.72185 33.3398 29.3118)" fill="#546DDB"/>
<path fill-rule="evenodd" clip-rule="evenodd" d="M32.421 27.7073C32.5464 27.6346 32.707 27.6773 32.7797 27.8027L33.5699 29.1652C33.6426 29.2906 33.5999 29.4512 33.4745 29.5239C33.3491 29.5967 33.1884 29.554 33.1157 29.4286L32.3256 28.0661C32.2528 27.9407 32.2955 27.7801 32.421 27.7073Z" fill="#152242"/>
<path fill-rule="evenodd" clip-rule="evenodd" d="M33.1191 29.454C33.0406 29.3321 33.0758 29.1696 33.1976 29.0911L35.7764 27.4301C35.8982 27.3515 36.0607 27.3867 36.1392 27.5086C36.2177 27.6305 36.1825 27.7929 36.0607 27.8714L33.4819 29.5325C33.3601 29.611 33.1976 29.5758 33.1191 29.454Z" fill="#152242"/>
<path fill-rule="evenodd" clip-rule="evenodd" d="M33.9041 25.1499C34.0478 25.1694 34.1484 25.3016 34.129 25.4453L33.9879 26.4858C33.9684 26.6294 33.8361 26.7301 33.6925 26.7106C33.5488 26.6911 33.4482 26.5589 33.4676 26.4152L33.6087 25.3748C33.6282 25.2311 33.7604 25.1304 33.9041 25.1499Z" fill="#152242"/>
<path fill-rule="evenodd" clip-rule="evenodd" d="M32.9871 31.913C33.1307 31.9325 33.2314 32.0648 33.2119 32.2084L33.0708 33.2489C33.0514 33.3926 32.9191 33.4932 32.7754 33.4737C32.6318 33.4543 32.5311 33.322 32.5506 33.1784L32.6917 32.1379C32.7112 31.9942 32.8434 31.8935 32.9871 31.913Z" fill="#152242"/>
<path fill-rule="evenodd" clip-rule="evenodd" d="M37.5017 29.8762C37.4822 30.0198 37.35 30.1205 37.2063 30.101L36.1658 29.9599C36.0222 29.9404 35.9215 29.8082 35.941 29.6645C35.9605 29.5209 36.0927 29.4202 36.2364 29.4397L37.2768 29.5808C37.4205 29.6002 37.5212 29.7325 37.5017 29.8762Z" fill="#152242"/>
<path fill-rule="evenodd" clip-rule="evenodd" d="M30.7386 28.9591C30.7191 29.1028 30.5868 29.2034 30.4432 29.184L29.4027 29.0429C29.259 29.0234 29.1584 28.8912 29.1779 28.7475C29.1973 28.6038 29.3296 28.5032 29.4732 28.5226L30.5137 28.6637C30.6574 28.6832 30.7581 28.8155 30.7386 28.9591Z" fill="#152242"/>
<path d="M33.86 29.3824C33.8211 29.6697 33.5566 29.871 33.2692 29.8321C32.9819 29.7931 32.7806 29.5286 32.8195 29.2413C32.8585 28.954 33.123 28.7526 33.4103 28.7916C33.6976 28.8305 33.899 29.095 33.86 29.3824Z" fill="#152242"/>
<line x1="28.1752" y1="24.9786" x2="29.3644" y2="25.1398" stroke="#546DDB" stroke-width="0.6" stroke-linecap="round"/>
<line x1="26.7038" y1="26.8983" x2="27.8929" y2="27.0595" stroke="#546DDB" stroke-width="0.6" stroke-linecap="round"/>
<line x1="26.3813" y1="29.2766" x2="27.5704" y2="29.4378" stroke="#546DDB" stroke-width="0.6" stroke-linecap="round"/>
<line x1="27.2883" y1="31.5187" x2="28.4774" y2="31.68" stroke="#546DDB" stroke-width="0.6" stroke-linecap="round"/>
<path d="M20 10C19.6 8 18 5.5 15.5 4.3C17.5 4 19.2909 4.79093 21.5 7C24.5 10 27 26.5 28 34L20 35.5C21 34.8333 23.2 32.8 24 30C24.8 27.2 21.6667 15.5 20 10Z" fill="#546DDB"/>
<path d="M20 10C19.6 8 18 5.5 15.5 4.3C17.5 4 19.2909 4.79093 21.5 7C24.5 10 27 26.5 28 34L20 35.5C21 34.8333 23.2 32.8 24 30C24.8 27.2 21.6667 15.5 20 10Z" fill="white" fill-opacity="0.4"/>
<path d="M27.5 22L26.5 24L28.5 35.5L29.5 34L27.5 22Z" fill="#152242"/>
</svg>
