<?xml version="1.0" encoding="utf-8"?><svg fill="none" viewBox="0 0 50 50" xmlns="http://www.w3.org/2000/svg" width="50" height="50"><g clip-path="url(#amma)"><path d="M24.27 7.845c-2.712 0-5.302-.082-6.27-.845l-8 38.31c1.937-.953 8.01-1.981 15-1.981 7.123 0 13.579 1.527 16 2.671L32 7c-.968.763-5.018.845-7.73.845Z" fill="#7445B8"/><path d="M24.27 7.845c-2.712 0-5.302-.082-6.27-.845l-8 38.31c1.937-.953 8.01-1.981 15-1.981 7.123 0 13.579 1.527 16 2.671L32 7c-.968.763-5.018.845-7.73.845Z" fill="#000" fill-opacity=".4"/><path d="M25.5 1c-1.6 0-6.167-.167-8-1L22 8h7l4-8c-2 .833-5.9 1-7.5 1Z" fill="#7445B8"/><path d="M25.5 1c-1.6 0-6.167-.167-8-1L22 8h7l4-8c-2 .833-5.9 1-7.5 1Z" fill="#000" fill-opacity=".4"/><path d="M14.5 8.5c.5-1 1.206-1.834 2.5-2l5-1c.507 7.333-.18 18.965-.922 24.166C20.27 35.333 16.054 48.625 12 50c-7.601 0-12-4.557-12-4.557 5.547-4.438 8.866-12.44 10.641-18.818C12.861 18.653 13.833 9.834 14.5 8.5Z" fill="#7445B8"/><path d="M14.5 8.5c.5-1 1.206-1.834 2.5-2l5-1c.507 7.333-.18 18.965-.922 24.166C20.27 35.333 16.054 48.625 12 50c-7.601 0-12-4.557-12-4.557 5.547-4.438 8.866-12.44 10.641-18.818C12.861 18.653 13.833 9.834 14.5 8.5Z" fill="#fff" fill-opacity=".2"/><path d="M14.736 39.873c1.42-.854 3.988-3.636 5.764-7.373-.5 2.5-1.266 5.878-2.213 8.441C17.301 43.611 16.5 49 12 50c2.736-1.257 1.552-3.72.96-4.788-.67-1.208-2.368-2.67-2.96-3.203 2.368-.534 3.315-1.282 4.736-2.136Z" fill="#7445B8"/><path d="M14.736 39.873c1.42-.854 3.988-3.636 5.764-7.373-.5 2.5-1.266 5.878-2.213 8.441C17.301 43.611 16.5 49 12 50c2.736-1.257 1.552-3.72.96-4.788-.67-1.208-2.368-2.67-2.96-3.203 2.368-.534 3.315-1.282 4.736-2.136Z" fill="#fff" fill-opacity=".4"/><path d="M36 8c-.57-.856-2.051-1.334-3-1.5l-4.5-1c0 4.5 1.46 18.956 1.882 24.156.571 7.033 3.502 19.859 6.92 20.317C40.721 50.43 50 44.945 50 44.945c-6.362-5.377-9.296-11.252-11.028-17.927C36.937 19.177 37 9.5 36 8Z" fill="#7445B8"/><path d="M36 8c-.57-.856-2.051-1.334-3-1.5l-4.5-1c0 4.5 1.46 18.956 1.882 24.156.571 7.033 3.502 19.859 6.92 20.317C40.721 50.43 50 44.945 50 44.945c-6.362-5.377-9.296-11.252-11.028-17.927C36.937 19.177 37 9.5 36 8Z" fill="#fff" fill-opacity=".2"/><path d="M19 6c-.033-2.566-.48-3.831-1.5-6 .5.667 1.7 1.6 2.5 2 1 .5 1.7 1.187 3 1.5-1 2.5-.8 6.5-.8 6.5-1.7-1.48-2.447-2.347-3.2-4ZM31.5 6.5c.13-2.639.558-4.04 1.5-6.5-.5.667-1.7 2.1-2.5 2.5-.8.4-2 1-3 1 .838.83 1.2 5.803 1.2 6.5 1.892-1.397 2.317-2.166 2.8-3.5ZM35 39.5c-1.004-.938-3.245-4.397-4.5-8.5.444 3 .83 9.186 1.5 12 .697 2.931 2 7 6 7-3-.5-1.918-3.328-1.5-4.5.549-1.538 1.611-2.5 2.5-3.5-1.673-.586-2.996-1.562-4-2.5Z" fill="#7445B8"/><path d="M35 39.5c-1.004-.938-3.245-4.397-4.5-8.5.444 3 .83 9.186 1.5 12 .697 2.931 2 7 6 7-3-.5-1.918-3.328-1.5-4.5.549-1.538 1.611-2.5 2.5-3.5-1.673-.586-2.996-1.562-4-2.5Z" fill="#fff" fill-opacity=".4"/><path d="M21 11c.34 1.333 1.718 4 4.5 4s4.16-2.667 4.5-4" stroke="#FAA21E" stroke-width=".5"/><circle cx="21" cy="11" r="1" fill="#FAA21E"/><circle cx="30" cy="11" r="1" fill="#FAA21E"/><g clip-path="url(#ammb)" fill="#152242"><path d="M39.029 28.446a1 1 0 0 1 1.742 0l3.507 6.22a1 1 0 0 0 .673.49l7 1.412a1 1 0 0 1 .538 1.657l-4.833 5.258a1 1 0 0 0-.257.791l.82 7.094a1 1 0 0 1-1.41 1.024l-6.493-2.972a1 1 0 0 0-.832 0l-6.494 2.972a1 1 0 0 1-1.41-1.024l.82-7.094a1 1 0 0 0-.257-.791l-4.833-5.258a1 1 0 0 1 .539-1.657l7-1.412a1 1 0 0 0 .673-.49l3.507-6.22Z"/><path d="m41.935 37.532.339.602.675.135 4.062.82-2.804 3.05-.467.508.08.686.474 4.115-3.766-1.724-.627-.287-.627.288-3.769 1.723.476-4.115.079-.686-.467-.508-2.805-3.05 4.063-.82.676-.135.338-.602 2.035-3.611 2.035 3.611Z" stroke="#FAA21E" stroke-width="3.013"/></g></g><defs><clipPath id="amma"><path fill="#fff" transform="matrix(-1 0 0 1 50 0)" d="M0 0h50v50H0z"/></clipPath><clipPath id="ammb"><path fill="#fff" transform="matrix(1 0 0 -1 0 50)" d="M0 0h50v50H0z"/></clipPath></defs></svg>