<svg width="50" height="50" viewBox="0 0 50 50" fill="none" xmlns="http://www.w3.org/2000/svg">
<g clip-path="url(#clip0_4994_67550)">
<path d="M18.9547 46.3067C14.0973 45.5669 9.23753 42.356 6.75352 38.0536L4.54553 34.2292L14.9999 28.1934C14.9999 28.1934 19.4999 35 28.4999 30.5C37.4999 26 32.9999 17.8011 32.9999 17.8011L43.5859 11.6892L45.7939 15.5136C48.8299 20.7721 48.127 26.9145 46.8407 30.2067C44.9114 35.145 41.8625 39.4548 36.0561 42.8072C29.2838 46.7171 24.1961 47.105 18.9547 46.3067Z" fill="#7445B8"/>
<path d="M18.9547 46.3067C14.0973 45.5669 9.23753 42.356 6.75352 38.0536L4.54553 34.2292L14.9999 28.1934C14.9999 28.1934 19.4999 35 28.4999 30.5C37.4999 26 32.9999 17.8011 32.9999 17.8011L43.5859 11.6892L45.7939 15.5136C48.8299 20.7721 48.127 26.9145 46.8407 30.2067C44.9114 35.145 41.8625 39.4548 36.0561 42.8072C29.2838 46.7171 24.1961 47.105 18.9547 46.3067Z" fill="black" fill-opacity="0.2"/>
<path fill-rule="evenodd" clip-rule="evenodd" d="M4.31708 33.5033C9.39405 42.3016 22.218 44.4101 32.9602 38.2127C43.7023 32.0153 48.2949 19.859 43.2179 11.0607C38.1409 2.26236 25.317 0.153893 14.5748 6.35126C3.83266 12.5486 -0.759892 24.705 4.31708 33.5033ZM32.3101 21.5989L28.6087 15.1879L15.0641 23.0079L18.7655 29.4189L32.3101 21.5989Z" fill="#7445B8"/>
<path fill-rule="evenodd" clip-rule="evenodd" d="M4.31708 33.5033C9.39405 42.3016 22.218 44.4101 32.9602 38.2127C43.7023 32.0153 48.2949 19.859 43.2179 11.0607C38.1409 2.26236 25.317 0.153893 14.5748 6.35126C3.83266 12.5486 -0.759892 24.705 4.31708 33.5033ZM32.3101 21.5989L28.6087 15.1879L15.0641 23.0079L18.7655 29.4189L32.3101 21.5989Z" fill="white" fill-opacity="0.2"/>
<path fill-rule="evenodd" clip-rule="evenodd" d="M6.89362 30.5148C10.8222 37.323 21.2828 38.6446 30.2581 33.4666C39.2333 28.2886 43.3244 18.5719 39.3958 11.7637C35.4672 4.9555 25.0066 3.63395 16.0314 8.81194C7.05612 13.9899 2.96502 23.7066 6.89362 30.5148ZM32.3102 21.5988L28.6088 15.1878L15.0642 23.0078L18.7656 29.4188L32.3102 21.5988Z" fill="#898989"/>
<path fill-rule="evenodd" clip-rule="evenodd" d="M6.89362 30.5148C10.8222 37.323 21.2828 38.6446 30.2581 33.4666C39.2333 28.2886 43.3244 18.5719 39.3958 11.7637C35.4672 4.9555 25.0066 3.63395 16.0314 8.81194C7.05612 13.9899 2.96502 23.7066 6.89362 30.5148ZM32.3102 21.5988L28.6088 15.1878L15.0642 23.0078L18.7656 29.4188L32.3102 21.5988Z" fill="white" fill-opacity="0.6"/>
<path fill-rule="evenodd" clip-rule="evenodd" d="M27.4349 3.60864L21.4689 18.3247L6.38771 16.2767L5.8925 19.9232L17.6431 21.519L26.1317 16.618L30.8453 4.99124L27.4349 3.60864ZM31.1814 19.6437L43.6477 21.3367L43.1525 24.9832L29.6293 23.1467L32.3102 21.5989L31.1814 19.6437ZM21.6073 27.7782L17.0453 39.0312L13.6349 37.6486L17.7115 27.5931L18.7656 29.4189L21.6073 27.7782Z" fill="#7445B8"/>
<path fill-rule="evenodd" clip-rule="evenodd" d="M27.4349 3.60864L21.4689 18.3247L6.38771 16.2767L5.8925 19.9232L17.6431 21.519L26.1317 16.618L30.8453 4.99124L27.4349 3.60864ZM31.1814 19.6437L43.6477 21.3367L43.1525 24.9832L29.6293 23.1467L32.3102 21.5989L31.1814 19.6437ZM21.6073 27.7782L17.0453 39.0312L13.6349 37.6486L17.7115 27.5931L18.7656 29.4189L21.6073 27.7782Z" fill="white" fill-opacity="0.2"/>
<rect x="26.8352" y="9.3561" width="14.72" height="18.4" transform="rotate(60 26.8352 9.3561)" stroke="#7445B8" stroke-width="2.76"/>
<rect x="26.8352" y="9.3561" width="14.72" height="18.4" transform="rotate(60 26.8352 9.3561)" stroke="white" stroke-opacity="0.2" stroke-width="2.76"/>
<path d="M26.3301 11.2412L28.6301 15.2249L15.0854 23.0449L12.7854 19.0612L26.3301 11.2412Z" fill="#7445B8"/>
<path d="M26.3301 11.2412L28.6301 15.2249L15.0854 23.0449L12.7854 19.0612L26.3301 11.2412Z" fill="black" fill-opacity="0.2"/>
</g>
<defs>
<clipPath id="clip0_4994_67550">
<rect width="50" height="50" fill="white" transform="matrix(-1 0 0 1 50 0)"/>
</clipPath>
</defs>
</svg>
