<svg width="50" height="50" viewBox="0 0 50 50" fill="none" xmlns="http://www.w3.org/2000/svg">
<circle cx="24.9075" cy="24.9074" r="22.4167" stroke="#1D8CE0" stroke-width="0.996296"/>
<circle cx="24.9075" cy="24.9074" r="22.4167" stroke="white" stroke-opacity="0.95" stroke-width="0.996296"/>
<path d="M40.3501 31.8815C43.5383 24.3096 40.3501 15.4426 35.3687 10.9592C36.365 15.4426 35.6675 22.1177 32.8779 28.8926C30.0883 35.6674 23.7452 40.0179 20.9224 41.3463C26.402 42.8407 37.162 39.4533 40.3501 31.8815Z" fill="#FEFEFE" fill-opacity="0.15"/>
<path d="M14.4463 8.96666C11.6057 11.4681 10.4611 14.9444 10.4611 17.9333C10.9468 15.8739 14.0426 11.6996 16.937 9.96295C19.4003 8.48499 21.4204 6.97407 24.9074 6.47591C21.4204 5.97777 17.2869 6.46523 14.4463 8.96666Z" fill="#FEFEFE"/>
<path d="M29.5093 13.1911C29.3826 11.1588 23.2864 11.2542 26.6117 9.64008C23.714 10.2857 21.4603 11.2542 22.7482 12.8683C23.906 14.3194 18.7949 15.7658 20.4944 16.7421C23.1101 18.2446 17.5884 18.7641 16.3216 19.558C15.0549 20.3518 16.0049 21.7808 16.0049 22.7334C16.0049 23.686 12.0462 26.2263 12.2046 27.6553C12.3629 29.0842 13.7881 30.1956 13.7881 31.307C13.7881 32.4184 12.6796 34.1648 13.7881 37.1815C14.8965 40.1981 22.6555 40.1981 23.6056 39.563C24.5557 38.9279 26.9309 41.1507 27.881 40.9919C28.8311 40.8332 29.6228 38.9279 31.8397 39.563C34.0566 40.1981 36.5901 34.9587 37.0652 33.5297C37.5402 32.1008 36.1151 27.9728 35.3234 26.7026C34.5316 25.4325 35.0067 23.8124 35.3234 21.9072C35.6401 20.0019 33.2648 19.8755 31.2063 19.558C29.1478 19.2405 28.5144 17.6841 27.881 16.0964C27.2476 14.5087 29.6677 15.7314 29.5093 13.1911Z" fill="#546DDB"/>
<path d="M21.709 9.9697C22.2105 8.95227 26.9271 9.42393 27.7629 9C27.5017 9.84786 24.5192 9.65704 24.8953 10.2929C25.3654 11.0878 28.4001 11.2891 28.4001 12.8788C28.4001 14.4685 26.3342 15.1206 26.6476 15.9154C26.961 16.7103 31.6622 17.0283 32.9158 17.6642C34.1695 18.3 33.0725 20.3667 33.386 21.1616C33.6994 21.9564 33.8561 21.4795 35.5798 21.6385C37.3036 21.7975 35.5798 24.1821 35.5798 24.818C35.5798 25.4539 36.5201 26.4077 36.5201 27.3615C36.5201 28.3154 35.7366 29.2692 35.5798 30.2231C35.4231 31.1769 36.5201 34.3564 36.05 35.1512C35.5798 35.9461 33.2292 36.264 32.6024 36.741C31.9756 37.2179 32.289 39.2845 31.3488 39.9204C30.4085 40.5563 27.1177 39.9204 26.3342 39.9204C25.5506 39.9204 24.7671 41.6691 23.6701 40.7153C22.5732 39.7615 22.1031 39.9204 20.3793 39.9204C18.6555 39.9204 17.4019 38.1717 16.4616 37.3769C15.5214 36.582 15.6781 34.6743 15.0513 33.8794C14.4245 33.0846 13.1708 32.2897 13.3275 31.0179C13.4842 29.7461 13.0141 29.4282 12.8574 27.9974C12.7007 26.5667 13.6409 23.2282 14.4244 22.1154C15.208 21.0026 20.5965 19.3276 20.7532 18.3737C20.9099 17.4199 18.0527 17.2028 18.5228 14.8182C18.9929 12.4336 22.9887 13.6631 23.3021 12.2323C23.6156 10.8016 21.0822 11.2415 21.709 9.9697Z" fill="#7445B8"/>
<path d="M21.709 9.9697C22.2105 8.95227 26.9271 9.42393 27.7629 9C27.5017 9.84786 24.5192 9.65704 24.8953 10.2929C25.3654 11.0878 28.4001 11.2891 28.4001 12.8788C28.4001 14.4685 26.3342 15.1206 26.6476 15.9154C26.961 16.7103 31.6622 17.0283 32.9158 17.6642C34.1695 18.3 33.0725 20.3667 33.386 21.1616C33.6994 21.9564 33.8561 21.4795 35.5798 21.6385C37.3036 21.7975 35.5798 24.1821 35.5798 24.818C35.5798 25.4539 36.5201 26.4077 36.5201 27.3615C36.5201 28.3154 35.7366 29.2692 35.5798 30.2231C35.4231 31.1769 36.5201 34.3564 36.05 35.1512C35.5798 35.9461 33.2292 36.264 32.6024 36.741C31.9756 37.2179 32.289 39.2845 31.3488 39.9204C30.4085 40.5563 27.1177 39.9204 26.3342 39.9204C25.5506 39.9204 24.7671 41.6691 23.6701 40.7153C22.5732 39.7615 22.1031 39.9204 20.3793 39.9204C18.6555 39.9204 17.4019 38.1717 16.4616 37.3769C15.5214 36.582 15.6781 34.6743 15.0513 33.8794C14.4245 33.0846 13.1708 32.2897 13.3275 31.0179C13.4842 29.7461 13.0141 29.4282 12.8574 27.9974C12.7007 26.5667 13.6409 23.2282 14.4244 22.1154C15.208 21.0026 20.5965 19.3276 20.7532 18.3737C20.9099 17.4199 18.0527 17.2028 18.5228 14.8182C18.9929 12.4336 22.9887 13.6631 23.3021 12.2323C23.6156 10.8016 21.0822 11.2415 21.709 9.9697Z" fill="white" fill-opacity="0.2"/>
<path d="M23.0799 13.16C23.7199 12.52 24.967 12.84 25.9599 11.56C25.7373 12.2722 24.0196 13.7795 25 14.76C25.9599 15.72 27.24 15.9846 27.24 17.32C27.24 18.6554 24.8876 19.3648 25.64 20.52C26.6 21.9939 29.6917 19.3458 30.76 19.88C31.8283 20.4141 31.7728 21.7723 32.0399 22.44C32.307 23.1077 33.3087 23.3228 34.7776 23.4563C36.2465 23.5899 33.9599 25.7458 33.9599 26.28C33.9599 26.8141 35.2399 27.0788 35.2399 27.88C35.2399 28.6812 34.7422 29.5726 34.2799 30.44C33.8978 31.1568 35.1782 33.2923 34.7776 33.96C34.377 34.6277 32.7994 35.2976 31.7199 35.56C31.0711 35.7177 31.2411 37.9058 30.4399 38.44C29.6387 38.9741 27.5665 38.8132 26.8988 38.8132C26.2311 38.8132 25.5635 40.2821 24.6287 39.4809C23.6939 38.6796 23.2933 38.8132 21.8244 38.8132C20.3555 38.8132 19.2872 37.3443 18.486 36.6766C17.6847 36.0089 17.8183 34.4064 17.2841 33.7387C16.75 33.071 15.16 32.36 15.4 30.44C15.5336 29.3717 16.8136 28.1218 16.68 26.92C16.5465 25.7182 16.0402 22.76 16.68 22.12C17.8964 20.9033 22.3064 22.2812 22.44 21.48C22.5735 20.6788 20.264 19.56 20.52 18.28C20.9206 16.2769 23.1329 17.5618 23.4 16.36C23.667 15.1582 22.2735 13.9663 23.0799 13.16Z" fill="#546DDB"/>
<path d="M23.0799 13.16C23.7199 12.52 24.967 12.84 25.9599 11.56C25.7373 12.2722 24.0196 13.7795 25 14.76C25.9599 15.72 27.24 15.9846 27.24 17.32C27.24 18.6554 24.8876 19.3648 25.64 20.52C26.6 21.9939 29.6917 19.3458 30.76 19.88C31.8283 20.4141 31.7728 21.7723 32.0399 22.44C32.307 23.1077 33.3087 23.3228 34.7776 23.4563C36.2465 23.5899 33.9599 25.7458 33.9599 26.28C33.9599 26.8141 35.2399 27.0788 35.2399 27.88C35.2399 28.6812 34.7422 29.5726 34.2799 30.44C33.8978 31.1568 35.1782 33.2923 34.7776 33.96C34.377 34.6277 32.7994 35.2976 31.7199 35.56C31.0711 35.7177 31.2411 37.9058 30.4399 38.44C29.6387 38.9741 27.5665 38.8132 26.8988 38.8132C26.2311 38.8132 25.5635 40.2821 24.6287 39.4809C23.6939 38.6796 23.2933 38.8132 21.8244 38.8132C20.3555 38.8132 19.2872 37.3443 18.486 36.6766C17.6847 36.0089 17.8183 34.4064 17.2841 33.7387C16.75 33.071 15.16 32.36 15.4 30.44C15.5336 29.3717 16.8136 28.1218 16.68 26.92C16.5465 25.7182 16.0402 22.76 16.68 22.12C17.8964 20.9033 22.3064 22.2812 22.44 21.48C22.5735 20.6788 20.264 19.56 20.52 18.28C20.9206 16.2769 23.1329 17.5618 23.4 16.36C23.667 15.1582 22.2735 13.9663 23.0799 13.16Z" fill="white" fill-opacity="0.6"/>
<circle cx="25.0001" cy="30.12" r="7.68" fill="#7445B8"/>
<circle cx="25.0001" cy="30.12" r="7.68" fill="white" fill-opacity="0.95"/>
<circle cx="24.9999" cy="30.12" r="6.4" fill="#7445B8"/>
<circle cx="24.9999" cy="30.12" r="6.4" fill="white" fill-opacity="0.6"/>
<circle cx="25.0001" cy="30.12" r="5.12" fill="#7445B8"/>
<circle cx="25.0001" cy="30.12" r="5.12" fill="white" fill-opacity="0.4"/>
<path d="M33.874 39.8519C37.3611 37.8592 40.8481 32.8778 40.8481 29.8889C40.1079 32.8778 36.163 36.7039 33.3759 38.3574C30.3241 40.1679 24.4092 41.8444 20.9222 41.8444C24.4092 42.8407 29.8889 42.1291 33.874 39.8519Z" fill="#FEFEFE"/>
</svg>
