<svg width="50" height="50" viewBox="0 0 50 50" fill="none" xmlns="http://www.w3.org/2000/svg">
<g clip-path="url(#clip0_4790_7220)">
<path d="M24.2698 7.84486C21.558 7.84486 18.9685 7.76281 18 7L10 45.3105C11.937 44.357 18.0096 43.3288 25 43.3288C32.1232 43.3288 38.5787 44.8558 41 46L32 7C31.0315 7.76281 26.9817 7.84486 24.2698 7.84486Z" fill="#7445B8"/>
<path d="M24.2698 7.84486C21.558 7.84486 18.9685 7.76281 18 7L10 45.3105C11.937 44.357 18.0096 43.3288 25 43.3288C32.1232 43.3288 38.5787 44.8558 41 46L32 7C31.0315 7.76281 26.9817 7.84486 24.2698 7.84486Z" fill="black" fill-opacity="0.4"/>
<path d="M25.5 1C23.9 1 19.3333 0.833333 17.5 0L22 8H29L33 0C31 0.833333 27.1 1 25.5 1Z" fill="#7445B8"/>
<path d="M25.5 1C23.9 1 19.3333 0.833333 17.5 0L22 8H29L33 0C31 0.833333 27.1 1 25.5 1Z" fill="black" fill-opacity="0.4"/>
<path d="M14.5 8.5C15 7.5 15.7057 6.66608 17 6.5L22 5.5C22.5067 12.8333 21.8206 24.4655 21.0783 29.6657C20.2693 35.3333 16.0539 48.625 12 50C4.399 50 0 45.4428 0 45.4428C5.54693 41.0055 8.86638 33.0023 10.6414 26.625C12.8602 18.6534 13.8331 9.83376 14.5 8.5Z" fill="#7445B8"/>
<path d="M14.5 8.5C15 7.5 15.7057 6.66608 17 6.5L22 5.5C22.5067 12.8333 21.8206 24.4655 21.0783 29.6657C20.2693 35.3333 16.0539 48.625 12 50C4.399 50 0 45.4428 0 45.4428C5.54693 41.0055 8.86638 33.0023 10.6414 26.625C12.8602 18.6534 13.8331 9.83376 14.5 8.5Z" fill="white" fill-opacity="0.2"/>
<path d="M14.7355 39.8732C16.1561 39.0189 18.7242 36.2375 20.5 32.5C20 35 19.2342 38.3782 18.2871 40.941C17.3005 43.6107 16.5 49 12 50C14.7355 48.7434 13.5516 46.2803 12.9597 45.2125C12.29 44.0043 10.5919 42.5428 10 42.0089C12.3677 41.475 13.3148 40.7275 14.7355 39.8732Z" fill="#7445B8"/>
<path d="M14.7355 39.8732C16.1561 39.0189 18.7242 36.2375 20.5 32.5C20 35 19.2342 38.3782 18.2871 40.941C17.3005 43.6107 16.5 49 12 50C14.7355 48.7434 13.5516 46.2803 12.9597 45.2125C12.29 44.0043 10.5919 42.5428 10 42.0089C12.3677 41.475 13.3148 40.7275 14.7355 39.8732Z" fill="white" fill-opacity="0.4"/>
<path d="M36 8C35.4295 7.14418 33.9485 6.66601 33 6.5L28.5 5.5C28.5 10 29.96 24.4557 30.3823 29.6558C30.9535 36.6894 33.8837 49.5148 37.3023 49.9728C40.7209 50.4309 50 44.945 50 44.945C43.6375 39.5682 40.7037 33.6925 38.9717 27.0185C36.9365 19.1761 37 9.5 36 8Z" fill="#7445B8"/>
<path d="M36 8C35.4295 7.14418 33.9485 6.66601 33 6.5L28.5 5.5C28.5 10 29.96 24.4557 30.3823 29.6558C30.9535 36.6894 33.8837 49.5148 37.3023 49.9728C40.7209 50.4309 50 44.945 50 44.945C43.6375 39.5682 40.7037 33.6925 38.9717 27.0185C36.9365 19.1761 37 9.5 36 8Z" fill="white" fill-opacity="0.2"/>
<path d="M19 6C18.9666 3.43401 18.5191 2.16877 17.5 0C18 0.666667 19.2 1.6 20 2C21 2.5 21.7 3.18722 23 3.5C22 6 22.2 10 22.2 10C20.4993 8.52084 19.7532 7.6534 19 6Z" fill="#7445B8"/>
<path d="M31.5 6.5C31.6306 3.86098 32.0582 2.45962 33 0C32.5 0.666667 31.3 2.1 30.5 2.5C29.7 2.9 28.5 3.5 27.5 3.5C28.338 4.32961 28.7 9.30257 28.7 10C30.5916 8.60271 31.0171 7.83444 31.5 6.5Z" fill="#7445B8"/>
<path d="M35 39.5C33.9961 38.5621 31.7549 35.1034 30.5 31C30.9444 34 31.3307 40.1862 32 43C32.6972 45.931 34 50 38 50C35 49.5 36.0817 46.6724 36.5 45.5C37.0488 43.9618 38.1111 43 39 42C37.3268 41.4138 36.0039 40.4379 35 39.5Z" fill="#7445B8"/>
<path d="M35 39.5C33.9961 38.5621 31.7549 35.1034 30.5 31C30.9444 34 31.3307 40.1862 32 43C32.6972 45.931 34 50 38 50C35 49.5 36.0817 46.6724 36.5 45.5C37.0488 43.9618 38.1111 43 39 42C37.3268 41.4138 36.0039 40.4379 35 39.5Z" fill="white" fill-opacity="0.4"/>
<path d="M21 11C21.3409 12.3333 22.7182 15 25.5 15C28.2818 15 29.6591 12.3333 30 11" stroke="#FAA21E" stroke-width="0.5"/>
<circle cx="21" cy="11" r="1" fill="#FAA21E"/>
<circle cx="30" cy="11" r="1" fill="#FAA21E"/>
</g>
<defs>
<clipPath id="clip0_4790_7220">
<rect width="50" height="50" fill="white" transform="matrix(-1 0 0 1 50 0)"/>
</clipPath>
</defs>
</svg>
