<svg width="40" height="40" viewBox="0 0 40 40" fill="none" xmlns="http://www.w3.org/2000/svg">
<path d="M14.6741 23.2317C14.422 20.8088 15.3591 18.9213 15.8463 18.5721L12.1206 18.8763L9.50728 23.3057C9.56491 23.8364 10.9511 26.2789 12.3754 27.89C14.2391 29.9983 16.0794 31.5579 16.9187 32.1605L18.1785 31.1364C16.7061 29.0309 14.8776 25.1869 14.6741 23.2317Z" fill="#898989"/>
<path d="M14.6741 23.2317C14.422 20.8088 15.3591 18.9213 15.8463 18.5721L12.1206 18.8763L9.50728 23.3057C9.56491 23.8364 10.9511 26.2789 12.3754 27.89C14.2391 29.9983 16.0794 31.5579 16.9187 32.1605L18.1785 31.1364C16.7061 29.0309 14.8776 25.1869 14.6741 23.2317Z" fill="white" fill-opacity="0.2"/>
<path d="M19.5 14.1626H9.42424C9.42424 14.1626 6.58333 16.8627 4.5 20.3921C2.41667 23.9215 2 31.3725 2 39.9999H10.75C10.6616 38.6108 9.42424 34.2441 9.42424 30.0651C9.42424 25.4902 9.83576 22.9508 11.5833 21.1764C13.3011 19.4324 16.5833 19.6078 19.5 19.6078V14.1626Z" fill="#898989"/>
<path d="M19.5 14.1626H9.42424C9.42424 14.1626 6.58333 16.8627 4.5 20.3921C2.41667 23.9215 2 31.3725 2 39.9999H10.75C10.6616 38.6108 9.42424 34.2441 9.42424 30.0651C9.42424 25.4902 9.83576 22.9508 11.5833 21.1764C13.3011 19.4324 16.5833 19.6078 19.5 19.6078V14.1626Z" fill="white" fill-opacity="0.8"/>
<path d="M30.75 0L19.5 14.1177V19.6079L30.75 32.9412C30.1944 31.2419 28.6667 25.3334 28.6667 16.8628C28.6667 8.39217 30.1944 2.09151 30.75 0Z" fill="#898989"/>
<path d="M30.75 0L19.5 14.1177V19.6079L30.75 32.9412C30.1944 31.2419 28.6667 25.3334 28.6667 16.8628C28.6667 8.39217 30.1944 2.09151 30.75 0Z" fill="white" fill-opacity="0.8"/>
<ellipse cx="31.1667" cy="16.4706" rx="2.5" ry="16.4706" fill="#898989"/>
<rect x="29" y="16" width="6" height="2" fill="#D0333D"/>
<rect x="29" y="16" width="6" height="2" fill="black" fill-opacity="0.2"/>
<circle cx="35" cy="17" r="3" fill="#D0333D"/>
<circle cx="35" cy="17" r="3" fill="black" fill-opacity="0.2"/>
</svg>
