<svg width="50" height="50" viewBox="0 0 50 50" fill="none" xmlns="http://www.w3.org/2000/svg">
<circle cx="25.0667" cy="25.0665" r="22.4167" stroke="#1D8CE0" stroke-width="0.996296"/>
<circle cx="25.0667" cy="25.0665" r="22.4167" stroke="white" stroke-opacity="0.95" stroke-width="0.996296"/>
<path d="M37.5 37.5001C43 33.0454 45 21.5 38.5745 13.0016C39.2992 19.1626 37.6992 26.8689 32.5142 32.0453C27.3291 37.2217 15.4045 38.4225 11 37.5001C22.5965 45.5482 31.1158 42.671 37.5 37.5001Z" fill="#FEFEFE" fill-opacity="0.15"/>
<path d="M21.0056 27.4238C20.8165 25.6066 21.5193 24.191 21.8847 23.9291L19.0905 24.1572L17.1305 27.4793C17.1737 27.8773 18.2134 29.7092 19.2816 30.9175C20.6794 32.4987 22.0596 33.6684 22.6891 34.1204L23.6339 33.3523C22.5296 31.7732 21.1582 28.8902 21.0056 27.4238Z" fill="#898989"/>
<path d="M21.0056 27.4238C20.8165 25.6066 21.5193 24.191 21.8847 23.9291L19.0905 24.1572L17.1305 27.4793C17.1737 27.8773 18.2134 29.7092 19.2816 30.9175C20.6794 32.4987 22.0596 33.6684 22.6891 34.1204L23.6339 33.3523C22.5296 31.7732 21.1582 28.8902 21.0056 27.4238Z" fill="white" fill-opacity="0.2"/>
<path d="M24.625 20.6219H17.0682C17.0682 20.6219 14.9375 22.647 13.375 25.2941C11.8125 27.9411 11.5 33.5294 11.5 40H18.0625C17.9962 38.9581 17.0682 35.6831 17.0682 32.5489C17.0682 29.1176 17.3768 27.2131 18.6875 25.8823C19.9758 24.5743 22.4375 24.7059 24.625 24.7059V20.6219Z" fill="#898989"/>
<path d="M24.625 20.6219H17.0682C17.0682 20.6219 14.9375 22.647 13.375 25.2941C11.8125 27.9411 11.5 33.5294 11.5 40H18.0625C17.9962 38.9581 17.0682 35.6831 17.0682 32.5489C17.0682 29.1176 17.3768 27.2131 18.6875 25.8823C19.9758 24.5743 22.4375 24.7059 24.625 24.7059V20.6219Z" fill="white" fill-opacity="0.8"/>
<path d="M33.0625 10L24.625 20.5882V24.7059L33.0625 34.7059C32.6458 33.4314 31.5 29 31.5 22.6471C31.5 16.2941 32.6458 11.5686 33.0625 10Z" fill="#898989"/>
<path d="M33.0625 10L24.625 20.5882V24.7059L33.0625 34.7059C32.6458 33.4314 31.5 29 31.5 22.6471C31.5 16.2941 32.6458 11.5686 33.0625 10Z" fill="white" fill-opacity="0.8"/>
<ellipse cx="33.375" cy="22.353" rx="1.875" ry="12.353" fill="#898989"/>
<rect x="31.75" y="22" width="4.5" height="1.5" fill="#D0333D"/>
<rect x="31.75" y="22" width="4.5" height="1.5" fill="black" fill-opacity="0.2"/>
<circle cx="36.25" cy="22.75" r="2.25" fill="#D0333D"/>
<circle cx="36.25" cy="22.75" r="2.25" fill="black" fill-opacity="0.2"/>
<path d="M14.6055 9.12572C11.7649 11.6271 10.6203 15.1035 10.6203 18.0924C11.106 16.033 14.2018 11.8587 17.0962 10.122C19.5595 8.64405 21.5796 7.13312 25.0666 6.63497C21.5796 6.13682 17.4461 6.62428 14.6055 9.12572Z" fill="#FEFEFE"/>
<path d="M34.5 40C37.5 38.5 40.5 35.5 42 30C40 34 37.0518 37.1895 34 39C30.9482 40.8105 27 42.5 21 42C27.5 43.5 30.6529 41.9235 34.5 40Z" fill="#FEFEFE"/>
</svg>
