<svg width="50" height="50" viewBox="0 0 50 50" fill="none" xmlns="http://www.w3.org/2000/svg">
<path d="M11.5 12C11.9298 8.12202 12.2154 3.01978 12.9317 1C15.5849 1.49875 20.7022 2 25 2C29.2978 2 34.3989 1.40397 36.906 1.00001C37.4432 2.21188 37.5 6.5 38 10.5C38.5515 14.9123 40.4316 44.2684 40.7898 47.5C36.97 49.5 31.2898 49 27.4832 48.2629C27.3041 45.8391 25.4298 16 25 16C24.5702 16 23.1854 45.8391 23.1854 48.2629C19.3054 48.8464 18.2914 49.046 15.9612 49C13.6311 48.954 11.4099 48.5 9.5 48C9.5 47.3941 11.0702 15.878 11.5 12Z" fill="#898989"/>
<path d="M11.5 12C11.9298 8.12202 12.2154 3.01978 12.9317 1C15.5849 1.49875 20.7022 2 25 2C29.2978 2 34.3989 1.40397 36.906 1.00001C37.4432 2.21188 37.5 6.5 38 10.5C38.5515 14.9123 40.4316 44.2684 40.7898 47.5C36.97 49.5 31.2898 49 27.4832 48.2629C27.3041 45.8391 25.4298 16 25 16C24.5702 16 23.1854 45.8391 23.1854 48.2629C19.3054 48.8464 18.2914 49.046 15.9612 49C13.6311 48.954 11.4099 48.5 9.5 48C9.5 47.3941 11.0702 15.878 11.5 12Z" fill="black" fill-opacity="0.2"/>
<path d="M12.8235 1C11.0235 12.7143 7 40.5 7 40.5C9.29731 40.8961 11.4064 41.2294 13.3868 41.5L16 12V41.8286C25.1181 42.8677 31.8361 42.4248 43 40.5C43 40.5 38.9765 11.1863 37.1765 1C34.0848 1.67909 28.24 2 25 2C21.76 2 16.2269 1.67909 12.8235 1Z" fill="#546DDB"/>
<path d="M12.8235 1C11.0235 12.7143 7 40.5 7 40.5C9.29731 40.8961 11.4064 41.2294 13.3868 41.5L16 12V41.8286C25.1181 42.8677 31.8361 42.4248 43 40.5C43 40.5 38.9765 11.1863 37.1765 1C34.0848 1.67909 28.24 2 25 2C21.76 2 16.2269 1.67909 12.8235 1Z" fill="black" fill-opacity="0.2"/>
<path d="M12 4.5L12.444 2C15.9959 2.66667 20.2405 3 25.1244 3C30.0082 3 33.9064 2.66667 37.4583 2L38 4.5C34.4481 5.16667 29.7561 5.5 25.1244 5.5C20.4927 5.5 15.9959 5.16667 12 4.5Z" fill="#546DDB"/>
<path d="M12 4.5L12.444 2C15.9959 2.66667 20.2405 3 25.1244 3C30.0082 3 33.9064 2.66667 37.4583 2L38 4.5C34.4481 5.16667 29.7561 5.5 25.1244 5.5C20.4927 5.5 15.9959 5.16667 12 4.5Z" fill="black" fill-opacity="0.55"/>
<path d="M12.5 4C13.1667 5 15.6 7.1 20 7.5C24.4 7.9 34 6 37.5 4" stroke="#546DDB"/>
<path d="M12.5 4C13.1667 5 15.6 7.1 20 7.5C24.4 7.9 34 6 37.5 4" stroke="black" stroke-opacity="0.55"/>
<path d="M12.5 4C13.1667 5.96977 15.5211 10.5521 20 11C27 11.7 34 7.93953 37.5 4" stroke="#546DDB"/>
<path d="M12.5 4C13.1667 5.96977 15.5211 10.5521 20 11C27 11.7 34 7.93953 37.5 4" stroke="black" stroke-opacity="0.55"/>
</svg>
