<svg width="50" height="50" viewBox="0 0 50 50" fill="none" xmlns="http://www.w3.org/2000/svg">
<g clip-path="url(#clip0_1880_9315)">
<g clip-path="url(#clip1_1880_9315)">
<path d="M22.8299 44.171C17.4017 44.171 13.8965 42.1857 13.4002 41.1931C12.9039 40.2005 12.9039 36.6573 12.9039 36.6573H32.756C32.756 38.7749 32.8791 40.1965 32.2597 41.1931C31.2727 42.7813 27.7647 44.171 22.8299 44.171Z" fill="#898989"/>
<path d="M22.8299 44.171C17.4017 44.171 13.8965 42.1857 13.4002 41.1931C12.9039 40.2005 12.9039 36.6573 12.9039 36.6573H32.756C32.756 38.7749 32.8791 40.1965 32.2597 41.1931C31.2727 42.7813 27.7647 44.171 22.8299 44.171Z" fill="white" fill-opacity="0.6"/>
<path d="M40.0851 22.0494C39.2788 22.0135 38.1081 21.0907 38.5886 19.3708C39.069 17.6508 41.1427 16.4371 43.5614 16.5447C45.9802 16.6523 47.1316 18.0095 48.3024 18.9323C48.2637 19.8012 48.5122 23.295 46.3612 26.2466C44.2102 29.1983 41.8272 30.365 39.276 31.1554C37.6377 31.663 37.183 32.8037 37.1444 33.6726C37.1057 34.5416 37.8733 35.4464 38.6796 35.4823" stroke="#FEFEFE" stroke-width="2.48152" stroke-linecap="round"/>
<path d="M41.6894 11.0089H3.9704C5.58847 14.7844 6.66718 15.3238 7.7459 19.6386C8.28526 21.7961 7.7459 28.6574 8.82461 32.4329C10.1907 37.2142 12.9945 39.7154 15.8363 41.0626C18.6661 42.4042 26.5039 42.4042 29.8595 41.0626C32.7798 39.8951 35.5473 37.2871 36.8712 32.4329C38.3997 26.8285 37.3065 22.8557 37.9499 19.6386C38.4893 16.9418 39.532 15.3238 41.6894 11.0089Z" fill="#898989"/>
<path d="M41.6894 11.0089H3.9704C5.58847 14.7844 6.66718 15.3238 7.7459 19.6386C8.28526 21.7961 7.7459 28.6574 8.82461 32.4329C10.1907 37.2142 12.9945 39.7154 15.8363 41.0626C18.6661 42.4042 26.5039 42.4042 29.8595 41.0626C32.7798 39.8951 35.5473 37.2871 36.8712 32.4329C38.3997 26.8285 37.3065 22.8557 37.9499 19.6386C38.4893 16.9418 39.532 15.3238 41.6894 11.0089Z" fill="white" fill-opacity="0.95"/>
<path d="M41.6894 10.8052C41.6894 13.4836 33.4725 15.7434 23.0566 15.7434C12.6408 15.7434 3.9704 13.4836 3.9704 10.8052C3.9704 8.12686 12.6408 5.95563 23.0566 5.95563C33.4725 5.95563 41.6894 8.12686 41.6894 10.8052Z" fill="#898989"/>
<path d="M41.6894 10.8052C41.6894 13.4836 33.4725 15.7434 23.0566 15.7434C12.6408 15.7434 3.9704 13.4836 3.9704 10.8052C3.9704 8.12686 12.6408 5.95563 23.0566 5.95563C33.4725 5.95563 41.6894 8.12686 41.6894 10.8052Z" fill="white" fill-opacity="0.6"/>
<path d="M41.6894 10.8052C41.6894 13.4836 33.4725 15.7434 23.0566 15.7434C12.6408 15.7434 3.9704 13.4836 3.9704 10.8052C3.9704 8.12686 12.6408 5.95563 23.0566 5.95563C33.4725 5.95563 41.6894 8.12686 41.6894 10.8052Z" stroke="#FEFEFE" stroke-width="1.48891"/>
<path d="M36.863 13.3807C36.863 13.032 29.2426 11.8863 22.9148 11.8863C16.5871 11.8863 8.96667 13.032 8.96667 13.3807C8.96667 13.7293 14.9445 15.1741 22.9148 15.1741C31.8815 15.1741 36.863 13.7293 36.863 13.3807Z" fill="#FAA21E"/>
<path d="M36.863 13.3807C36.863 13.032 29.2426 11.8863 22.9148 11.8863C16.5871 11.8863 8.96667 13.032 8.96667 13.3807C8.96667 13.7293 14.9445 15.1741 22.9148 15.1741C31.8815 15.1741 36.863 13.7293 36.863 13.3807Z" fill="white" fill-opacity="0.4"/>
</g>
<path d="M20.3371 29.6159C20.211 28.4045 20.6796 27.4607 20.9232 27.2861L19.0603 27.4382L17.7537 29.6529C17.7825 29.9183 18.4756 31.1395 19.1877 31.9451C20.1196 32.9992 21.0397 33.779 21.4594 34.0803L22.0893 33.5683C21.3531 32.5155 20.4388 30.5935 20.3371 29.6159Z" fill="#898989"/>
<path d="M20.3371 29.6159C20.211 28.4045 20.6796 27.4607 20.9232 27.2861L19.0603 27.4382L17.7537 29.6529C17.7825 29.9183 18.4756 31.1395 19.1877 31.9451C20.1196 32.9992 21.0397 33.779 21.4594 34.0803L22.0893 33.5683C21.3531 32.5155 20.4388 30.5935 20.3371 29.6159Z" fill="white" fill-opacity="0.2"/>
<path d="M22.75 25.0814H17.7121C17.7121 25.0814 16.2917 26.4314 15.25 28.1961C14.2083 29.9608 14 33.6863 14 38H18.375C18.3308 37.3055 17.7121 35.1221 17.7121 33.0326C17.7121 30.7451 17.9179 29.4754 18.7917 28.5883C19.6505 27.7163 21.2917 27.804 22.75 27.804V25.0814Z" fill="#898989"/>
<path d="M22.75 25.0814H17.7121C17.7121 25.0814 16.2917 26.4314 15.25 28.1961C14.2083 29.9608 14 33.6863 14 38H18.375C18.3308 37.3055 17.7121 35.1221 17.7121 33.0326C17.7121 30.7451 17.9179 29.4754 18.7917 28.5883C19.6505 27.7163 21.2917 27.804 22.75 27.804V25.0814Z" fill="white" fill-opacity="0.6"/>
<path d="M28.375 18L22.75 25.0588V27.8039L28.375 34.4706C28.0972 33.6209 27.3333 30.6667 27.3333 26.4314C27.3333 22.1961 28.0972 19.0458 28.375 18Z" fill="#898989"/>
<path d="M28.375 18L22.75 25.0588V27.8039L28.375 34.4706C28.0972 33.6209 27.3333 30.6667 27.3333 26.4314C27.3333 22.1961 28.0972 19.0458 28.375 18Z" fill="white" fill-opacity="0.6"/>
<ellipse cx="28.5834" cy="26.2353" rx="1.25" ry="8.2353" fill="#898989"/>
<rect x="27.5" y="26.0001" width="3" height="1" fill="#D0333D"/>
<rect x="27.5" y="26.0001" width="3" height="1" fill="black" fill-opacity="0.2"/>
<ellipse cx="30.5" cy="26.5" rx="1.5" ry="1.5" fill="#D0333D"/>
<ellipse cx="30.5" cy="26.5" rx="1.5" ry="1.5" fill="black" fill-opacity="0.2"/>
</g>
<defs>
<clipPath id="clip0_1880_9315">
<rect width="50" height="50" fill="white"/>
</clipPath>
<clipPath id="clip1_1880_9315">
<rect width="49.8148" height="49.8148" fill="white"/>
</clipPath>
</defs>
</svg>
