<svg width="50" height="50" viewBox="0 0 50 50" fill="none" xmlns="http://www.w3.org/2000/svg">
<path d="M34.5075 25.6159L35.2022 6.75201L40.5 3.00004L41.5 23.5C41.5 23.5 43.9575 28.8726 44.5 30.5001C45.0425 32.1277 46.3831 37.6985 44 39.0001C41.2911 40.4797 37 33.0001 36.5 32.0001C36 31.0002 34.5075 25.6159 34.5075 25.6159Z" fill="#898989"/>
<path d="M34.5075 25.6159L35.2022 6.75201L40.5 3.00004L41.5 23.5C41.5 23.5 43.9575 28.8726 44.5 30.5001C45.0425 32.1277 46.3831 37.6985 44 39.0001C41.2911 40.4797 37 33.0001 36.5 32.0001C36 31.0002 34.5075 25.6159 34.5075 25.6159Z" fill="white" fill-opacity="0.4"/>
<path d="M44.9758 32.7721C43.0203 34.4285 41.7147 35.0515 39.1161 35.7588L43.8945 46.4469C45.945 46.2972 47.0032 45.8671 48.6143 44.3735L44.9758 32.7721Z" fill="#898989"/>
<path fill-rule="evenodd" clip-rule="evenodd" d="M45.4494 34.2819L45.0074 32.8726L43.0672 36.9954L39.2484 35.7225C39.2046 35.7345 39.1605 35.7466 39.1161 35.7587L39.6276 36.903L42.6384 37.9066L41.3245 40.6985L41.9918 42.191L44.8664 43.1492L43.5749 45.7321L43.8945 46.4468C44.054 46.4352 44.2075 46.4218 44.3558 46.4064L45.8247 43.4687L48.5943 44.3919C48.601 44.3857 48.6076 44.3796 48.6143 44.3734L48.2539 43.2243L46.2764 42.5652L47.3646 40.3888L46.6778 38.199L44.0225 37.3139L45.4494 34.2819ZM42.192 41.2037L43.5938 38.225L46.7949 39.2921L45.3181 42.2457L42.192 41.2037Z" fill="#898989"/>
<path fill-rule="evenodd" clip-rule="evenodd" d="M45.4494 34.2819L45.0074 32.8726L43.0672 36.9954L39.2484 35.7225C39.2046 35.7345 39.1605 35.7466 39.1161 35.7587L39.6276 36.903L42.6384 37.9066L41.3245 40.6985L41.9918 42.191L44.8664 43.1492L43.5749 45.7321L43.8945 46.4468C44.054 46.4352 44.2075 46.4218 44.3558 46.4064L45.8247 43.4687L48.5943 44.3919C48.601 44.3857 48.6076 44.3796 48.6143 44.3734L48.2539 43.2243L46.2764 42.5652L47.3646 40.3888L46.6778 38.199L44.0225 37.3139L45.4494 34.2819ZM42.192 41.2037L43.5938 38.225L46.7949 39.2921L45.3181 42.2457L42.192 41.2037Z" fill="black" fill-opacity="0.2"/>
<path d="M25.4506 3.75569C21.5704 3.75569 18.4701 1.91856 17.5 1C16.53 2.83712 12.5 49 27 49C41.5 49 32.2934 3.2964 31 1C30.3533 1.76547 28.5547 3.75569 25.4506 3.75569Z" fill="#546DDB"/>
<path d="M25.4506 3.75569C21.5704 3.75569 18.4701 1.91856 17.5 1C16.53 2.83712 12.5 49 27 49C41.5 49 32.2934 3.2964 31 1C30.3533 1.76547 28.5547 3.75569 25.4506 3.75569Z" fill="black" fill-opacity="0.55"/>
<path d="M37 27.0679C37.5 19.5483 39 7.01567 40.5 3.00522L31 1C30 8.51958 26 10.0235 26 10.0235C26 10.0235 20.5 8.51958 17.5 1L7.5 3.00522C11.5 15.5379 12.1 24.1603 12.5 26.5666C12.9 28.9728 9.5 39.0992 8.5 47.1201C13.9949 48.3178 19.604 48.9432 25 48.9963L27 34L29 48.9289C33.4416 48.7326 37.6736 48.1297 41.5 47.1201C40.5 42.1071 36.4945 34.6709 37 27.0679Z" fill="#546DDB"/>
<path d="M37 27.0679C37.5 19.5483 39 7.01567 40.5 3.00522L31 1C30 8.51958 26 10.0235 26 10.0235C26 10.0235 20.5 8.51958 17.5 1L7.5 3.00522C11.5 15.5379 12.1 24.1603 12.5 26.5666C12.9 28.9728 9.5 39.0992 8.5 47.1201C13.9949 48.3178 19.604 48.9432 25 48.9963L27 34L29 48.9289C33.4416 48.7326 37.6736 48.1297 41.5 47.1201C40.5 42.1071 36.4945 34.6709 37 27.0679Z" fill="black" fill-opacity="0.2"/>
<path d="M26 10L26.8269 31.5M29 49L26.8269 31.5M26.8269 31.5L25 49" stroke="#546DDB" stroke-width="2"/>
<path d="M26 10L26.8269 31.5M29 49L26.8269 31.5M26.8269 31.5L25 49" stroke="black" stroke-opacity="0.8" stroke-width="2"/>
<path d="M27 29C21.5 29 15.5 28.5 12.5 27.5C12.2248 29.7077 11.9889 30.6262 11.5 32C15.1667 32.6667 21.5 33.5 27 33.5C30.6 33.5 35.3667 32.6667 37.2 32C37.0397 30.3218 36.9734 28.9143 37 27.5C35.5 28 31.4 29 27 29Z" fill="#546DDB"/>
<path d="M27 29C21.5 29 15.5 28.5 12.5 27.5C12.2248 29.7077 11.9889 30.6262 11.5 32C15.1667 32.6667 21.5 33.5 27 33.5C30.6 33.5 35.3667 32.6667 37.2 32C37.0397 30.3218 36.9734 28.9143 37 27.5C35.5 28 31.4 29 27 29Z" fill="black" fill-opacity="0.55"/>
<path d="M21.5 9.5L19.5 11.5L21.5 13.5C22 13 22.7 12.5 23.5 12.5H27.5C28.3 12.5 29 13 29.5 13.5L31.5 11.5L29.5 9.5C29.3333 10 28.3 10.5 27.5 10.5H23.5C22.3 10.5 21.8333 10 21.5 9.5Z" fill="#546DDB"/>
<path d="M21.5 9.5L19.5 11.5L21.5 13.5C22 13 22.7 12.5 23.5 12.5H27.5C28.3 12.5 29 13 29.5 13.5L31.5 11.5L29.5 9.5C29.3333 10 28.3 10.5 27.5 10.5H23.5C22.3 10.5 21.8333 10 21.5 9.5Z" fill="black" fill-opacity="0.8"/>
<path d="M22 19.5L20 21.5L22 23.5C22.5 23 23.2 22.5 24 22.5H28C28.8 22.5 29.5 23 30 23.5L32 21.5L30 19.5C29.8333 20 28.8 20.5 28 20.5H24C22.8 20.5 22.3333 20 22 19.5Z" fill="#546DDB"/>
<path d="M22 19.5L20 21.5L22 23.5C22.5 23 23.2 22.5 24 22.5H28C28.8 22.5 29.5 23 30 23.5L32 21.5L30 19.5C29.8333 20 28.8 20.5 28 20.5H24C22.8 20.5 22.3333 20 22 19.5Z" fill="black" fill-opacity="0.8"/>
<path d="M1.49976 26.5L7.5 3C8.5 3 10 4.5 10.4998 8.5C10.9995 12.5 11 15 11 15L10.4998 26.5C10.4998 26.5 12 32 12 33.5C12 35 12.7323 37.6031 10 38.5C6.89426 39.5195 4.5 36.5 3.5 35C2.5 33.5 1.49976 26.5 1.49976 26.5Z" fill="#898989"/>
<path d="M1.49976 26.5L7.5 3C8.5 3 10 4.5 10.4998 8.5C10.9995 12.5 11 15 11 15L10.4998 26.5C10.4998 26.5 12 32 12 33.5C12 35 12.7323 37.6031 10 38.5C6.89426 39.5195 4.5 36.5 3.5 35C2.5 33.5 1.49976 26.5 1.49976 26.5Z" fill="white" fill-opacity="0.4"/>
<path d="M11.9286 35C9.7136 36.5046 8.28573 36.5415 5.5 37L9.35714 48.9935C11.5122 49.053 12.6616 48.7198 14.5 47.3472L11.9286 35Z" fill="#898989"/>
<path fill-rule="evenodd" clip-rule="evenodd" d="M12.2968 36.7682L12.0021 35.353L9.64079 39.1311L5.56922 37.2151L5.98804 38.5174L9.10703 39.9852L7.35936 42.7814L7.81515 44.1987L10.5358 45.4683L9.03038 47.9773L9.35713 48.9933C9.43403 48.9954 9.50966 48.9971 9.58408 48.9982L11.4469 45.8935L14.4933 47.3152L14.2388 46.0928L11.9642 45.0313L13.4886 42.4906L13.131 40.7736L10.552 39.56L12.2968 36.7682ZM8.22345 43.2857L10.0183 40.414L12.7867 41.7168L11.0531 44.6062L8.22345 43.2857Z" fill="#898989"/>
<path fill-rule="evenodd" clip-rule="evenodd" d="M12.2968 36.7682L12.0021 35.353L9.64079 39.1311L5.56922 37.2151L5.98804 38.5174L9.10703 39.9852L7.35936 42.7814L7.81515 44.1987L10.5358 45.4683L9.03038 47.9773L9.35713 48.9933C9.43403 48.9954 9.50966 48.9971 9.58408 48.9982L11.4469 45.8935L14.4933 47.3152L14.2388 46.0928L11.9642 45.0313L13.4886 42.4906L13.131 40.7736L10.552 39.56L12.2968 36.7682ZM8.22345 43.2857L10.0183 40.414L12.7867 41.7168L11.0531 44.6062L8.22345 43.2857Z" fill="black" fill-opacity="0.2"/>
<path d="M10 2.5L6 3C6.66667 3.83333 8.7 6 9.5 8C10.3 10 10.8333 14.5 11 16.5C11.1667 15.1667 11.5 11.9 11.5 9.5C11.5 7.1 10.6667 3.83333 10 2.5Z" fill="#546DDB"/>
<path d="M10 2.5L6 3C6.66667 3.83333 8.7 6 9.5 8C10.3 10 10.8333 14.5 11 16.5C11.1667 15.1667 11.5 11.9 11.5 9.5C11.5 7.1 10.6667 3.83333 10 2.5Z" fill="black" fill-opacity="0.4"/>
<path d="M38 8.5C38 6 38.3333 3.33333 38.5 2.5L42 3C41 4 40.0664 6.01777 39.5 8C38.5 11.5 38.5 13.5 38 17V8.5Z" fill="#546DDB"/>
<path d="M38 8.5C38 6 38.3333 3.33333 38.5 2.5L42 3C41 4 40.0664 6.01777 39.5 8C38.5 11.5 38.5 13.5 38 17V8.5Z" fill="black" fill-opacity="0.4"/>
</svg>
