<svg width="50" height="50" viewBox="0 0 50 50" fill="none" xmlns="http://www.w3.org/2000/svg">
<path d="M9.70074 1.99249H39.8518V4.98138L40.8481 6.97397H44.8333V47.8221H11.2738C10.7495 47.8221 8.12764 47.8221 6.55454 46.2597C4.98145 44.6974 4.98145 43.135 4.98145 42.6142V6.67961C4.98145 5.63803 5.71556 4.38813 6.55454 3.55487C7.39353 2.7216 8.65201 1.99249 9.70074 1.99249Z" fill="#7445B8"/>
<path d="M42.8407 9.0662L39.8518 4.98138V39.8518H37.8593L42.8407 45.8295V9.0662Z" fill="#898989"/>
<path d="M42.8407 9.0662L39.8518 4.98138V39.8518H37.8593L42.8407 45.8295V9.0662Z" fill="white" fill-opacity="0.2"/>
<path d="M10.093 39.8517H37.8593L42.8408 45.8295H10.093C9.58856 45.8295 6.97412 45.0823 6.97412 42.8406C6.97412 40.599 9.58856 39.8517 10.093 39.8517Z" fill="#898989"/>
<path d="M10.093 39.8517H37.8593L42.8408 45.8295H10.093C9.58856 45.8295 6.97412 45.0823 6.97412 42.8406C6.97412 40.599 9.58856 39.8517 10.093 39.8517Z" fill="white" fill-opacity="0.6"/>
<path d="M12.2256 8.43366C12.4867 9.18172 12.5319 10.653 12.5304 10.9003L13.5885 9.94734C13.5907 9.57646 13.3823 8.64408 12.9266 8.05148C12.4171 7.38893 11.7292 7.01176 10.8627 6.91998C11.4805 7.35119 12.0601 7.9597 12.2256 8.43366Z" fill="#898989"/>
<path d="M12.2256 8.43366C12.4867 9.18172 12.5319 10.653 12.5304 10.9003L13.5885 9.94734C13.5907 9.57646 13.3823 8.64408 12.9266 8.05148C12.4171 7.38893 11.7292 7.01176 10.8627 6.91998C11.4805 7.35119 12.0601 7.9597 12.2256 8.43366Z" fill="white" fill-opacity="0.95"/>
<path d="M11.5617 15.621C10.8601 15.8693 9.74288 16.9693 9.60643 17.1447L9.57619 15.9187C9.78087 15.6556 10.4748 15.1151 11.1868 14.9544C11.9828 14.7749 12.7696 14.8978 13.5472 15.3233C12.7891 15.2782 12.2915 15.3628 11.5617 15.621Z" fill="#898989"/>
<path d="M11.5617 15.621C10.8601 15.8693 9.74288 16.9693 9.60643 17.1447L9.57619 15.9187C9.78087 15.6556 10.4748 15.1151 11.1868 14.9544C11.9828 14.7749 12.7696 14.8978 13.5472 15.3233C12.7891 15.2782 12.2915 15.3628 11.5617 15.621Z" fill="white" fill-opacity="0.95"/>
<path d="M10.0392 25.3517C10.567 24.7607 11.8321 24.0081 12.049 23.8896L10.7027 23.4259C10.3772 23.6038 9.66266 24.2379 9.36514 24.9237C9.03252 25.6905 9.03604 26.475 9.3757 27.2775C9.45343 26.528 9.70481 25.7261 10.0392 25.3517Z" fill="#898989"/>
<path d="M10.0392 25.3517C10.567 24.7607 11.8321 24.0081 12.049 23.8896L10.7027 23.4259C10.3772 23.6038 9.66266 24.2379 9.36514 24.9237C9.03252 25.6905 9.03604 26.475 9.3757 27.2775C9.45343 26.528 9.70481 25.7261 10.0392 25.3517Z" fill="white" fill-opacity="0.95"/>
<path d="M24.4968 14.0193C24.1684 13.2983 23.9891 11.8372 23.968 11.5908L23.0014 12.6364C23.033 13.0059 23.3257 13.9154 23.8335 14.4639C24.4013 15.0772 25.1209 15.39 25.9921 15.4023C25.3375 15.0293 24.7048 14.4762 24.4968 14.0193Z" fill="#898989"/>
<path d="M24.4968 14.0193C24.1684 13.2983 23.9891 11.8372 23.968 11.5908L23.0014 12.6364C23.033 13.0059 23.3257 13.9154 23.8335 14.4639C24.4013 15.0772 25.1209 15.39 25.9921 15.4023C25.3375 15.0293 24.7048 14.4762 24.4968 14.0193Z" fill="white" fill-opacity="0.95"/>
<path d="M19.7182 10.0386C19.6022 10.7947 18.9745 12.0698 18.8613 12.28L20.1951 11.9465C20.3649 11.6312 20.6093 10.7417 20.4891 10.0301C20.3546 9.23439 19.9387 8.60124 19.2414 8.13063C19.573 8.77812 19.7917 9.55945 19.7182 10.0386Z" fill="#898989"/>
<path d="M19.7182 10.0386C19.6022 10.7947 18.9745 12.0698 18.8613 12.28L20.1951 11.9465C20.3649 11.6312 20.6093 10.7417 20.4891 10.0301C20.3546 9.23439 19.9387 8.60124 19.2414 8.13063C19.573 8.77812 19.7917 9.55945 19.7182 10.0386Z" fill="white" fill-opacity="0.95"/>
<path d="M17.9368 15.9161C17.2287 16.067 16.0247 16.8039 15.826 16.9362L16.168 15.4375C16.4661 15.239 17.3015 14.941 17.9626 15.0552C18.7017 15.1828 19.2827 15.6294 19.7056 16.3948C19.1093 16.0427 18.3855 15.8206 17.9368 15.9161Z" fill="#898989"/>
<path d="M17.9368 15.9161C17.2287 16.067 16.0247 16.8039 15.826 16.9362L16.168 15.4375C16.4661 15.239 17.3015 14.941 17.9626 15.0552C18.7017 15.1828 19.2827 15.6294 19.7056 16.3948C19.1093 16.0427 18.3855 15.8206 17.9368 15.9161Z" fill="white" fill-opacity="0.95"/>
<path d="M12.8688 20.7874C13.0319 21.2478 12.9481 22.0769 12.9262 22.2148L13.9195 21.8548C13.9524 21.648 13.8502 21.0933 13.5062 20.6881C13.1215 20.2351 12.5588 19.9124 11.8181 19.72C12.3157 20.0615 12.7655 20.4957 12.8688 20.7874Z" fill="#898989"/>
<path d="M12.8688 20.7874C13.0319 21.2478 12.9481 22.0769 12.9262 22.2148L13.9195 21.8548C13.9524 21.648 13.8502 21.0933 13.5062 20.6881C13.1215 20.2351 12.5588 19.9124 11.8181 19.72C12.3157 20.0615 12.7655 20.4957 12.8688 20.7874Z" fill="white" fill-opacity="0.95"/>
<path d="M12.9715 27.8844C12.451 28.1504 11.7773 29.0146 11.6709 29.1664L11.2943 27.8151C11.4539 27.5873 12.0152 27.1706 12.6136 27.141C13.2827 27.108 13.9611 27.3789 14.6488 27.9538C13.9993 27.7668 13.3014 27.7159 12.9715 27.8844Z" fill="#898989"/>
<path d="M12.9715 27.8844C12.451 28.1504 11.7773 29.0146 11.6709 29.1664L11.2943 27.8151C11.4539 27.5873 12.0152 27.1706 12.6136 27.141C13.2827 27.108 13.9611 27.3789 14.6488 27.9538C13.9993 27.7668 13.3014 27.7159 12.9715 27.8844Z" fill="white" fill-opacity="0.95"/>
<path d="M19.3081 28.2398C19.8922 28.2631 20.9029 27.8399 21.0701 27.7597L20.7362 29.1222C20.4854 29.2425 19.7919 29.3307 19.2558 29.0632C18.6564 28.7641 18.1978 28.1956 17.88 27.3574C18.3545 27.8386 18.938 28.2251 19.3081 28.2398Z" fill="#898989"/>
<path d="M19.3081 28.2398C19.8922 28.2631 20.9029 27.8399 21.0701 27.7597L20.7362 29.1222C20.4854 29.2425 19.7919 29.3307 19.2558 29.0632C18.6564 28.7641 18.1978 28.1956 17.88 27.3574C18.3545 27.8386 18.938 28.2251 19.3081 28.2398Z" fill="white" fill-opacity="0.95"/>
<path d="M26.9071 20.7118C27.4102 20.7208 28.272 20.3377 28.4144 20.2655L28.1526 21.4443C27.9391 21.5525 27.3439 21.6414 26.8776 21.4213C26.3561 21.1752 25.9508 20.6946 25.6616 19.9793C26.079 20.3845 26.5884 20.706 26.9071 20.7118Z" fill="#898989"/>
<path d="M26.9071 20.7118C27.4102 20.7208 28.272 20.3377 28.4144 20.2655L28.1526 21.4443C27.9391 21.5525 27.3439 21.6414 26.8776 21.4213C26.3561 21.1752 25.9508 20.6946 25.6616 19.9793C26.079 20.3845 26.5884 20.706 26.9071 20.7118Z" fill="white" fill-opacity="0.95"/>
<path d="M24.6798 17.432C25.31 17.5731 26.3226 18.1905 26.4884 18.3009L26.3595 17.1119C26.1108 16.9464 25.382 16.6856 24.7622 16.7544C24.0691 16.8313 23.4817 17.1638 23 17.7521C23.5898 17.4943 24.2804 17.3426 24.6798 17.432Z" fill="#898989"/>
<path d="M24.6798 17.432C25.31 17.5731 26.3226 18.1905 26.4884 18.3009L26.3595 17.1119C26.1108 16.9464 25.382 16.6856 24.7622 16.7544C24.0691 16.8313 23.4817 17.1638 23 17.7521C23.5898 17.4943 24.2804 17.3426 24.6798 17.432Z" fill="white" fill-opacity="0.95"/>
<path d="M21.1551 22.9482C21.7813 22.79 22.9635 22.8847 23.1612 22.9085L22.5102 21.9053C22.2136 21.8696 21.4455 21.9654 20.9232 22.3062C20.3392 22.6872 19.9648 23.2489 19.8 23.9911C20.2103 23.4951 20.7584 23.0484 21.1551 22.9482Z" fill="#898989"/>
<path d="M21.1551 22.9482C21.7813 22.79 22.9635 22.8847 23.1612 22.9085L22.5102 21.9053C22.2136 21.8696 21.4455 21.9654 20.9232 22.3062C20.3392 22.6872 19.9648 23.2489 19.8 23.9911C20.2103 23.4951 20.7584 23.0484 21.1551 22.9482Z" fill="white" fill-opacity="0.95"/>
<path d="M20.4919 33.0332C20.9858 32.6171 21.3929 32.1918 21.7129 32.1885L21.383 31.2318C21.1007 31.3295 20.3232 32.0223 20.0025 32.5573C19.644 33.1553 19.553 33.8242 19.7293 34.5637C19.8813 33.9383 20.1789 33.2969 20.4919 33.0332Z" fill="#898989"/>
<path d="M20.4919 33.0332C20.9858 32.6171 21.3929 32.1918 21.7129 32.1885L21.383 31.2318C21.1007 31.3295 20.3232 32.0223 20.0025 32.5573C19.644 33.1553 19.553 33.8242 19.7293 34.5637C19.8813 33.9383 20.1789 33.2969 20.4919 33.0332Z" fill="white" fill-opacity="0.95"/>
<path d="M29.3567 34.1578C28.917 33.6847 28.4724 33.2988 28.4535 32.9794L27.5141 33.3554C27.6253 33.6326 28.3552 34.3755 28.9051 34.6697C29.5199 34.9987 30.1924 35.0572 30.9225 34.845C30.2904 34.7236 29.6352 34.4576 29.3567 34.1578Z" fill="#898989"/>
<path d="M29.3567 34.1578C28.917 33.6847 28.4724 33.2988 28.4535 32.9794L27.5141 33.3554C27.6253 33.6326 28.3552 34.3755 28.9051 34.6697C29.5199 34.9987 30.1924 35.0572 30.9225 34.845C30.2904 34.7236 29.6352 34.4576 29.3567 34.1578Z" fill="white" fill-opacity="0.95"/>
<path d="M35.0075 24.9837C34.3711 25.094 33.8051 25.2561 33.5271 25.0977L33.3297 26.0901C33.6227 26.1481 34.6435 25.9418 35.1901 25.6415C35.8012 25.3057 36.2171 24.774 36.4377 24.0464C35.991 24.5099 35.4107 24.9138 35.0075 24.9837Z" fill="#898989"/>
<path d="M35.0075 24.9837C34.3711 25.094 33.8051 25.2561 33.5271 25.0977L33.3297 26.0901C33.6227 26.1481 34.6435 25.9418 35.1901 25.6415C35.8012 25.3057 36.2171 24.774 36.4377 24.0464C35.991 24.5099 35.4107 24.9138 35.0075 24.9837Z" fill="white" fill-opacity="0.95"/>
<path d="M36.1586 17.9262C36.496 17.3754 36.748 16.8434 37.0506 16.7392L36.4356 15.9356C36.1985 16.1174 35.6795 17.0202 35.5441 17.629C35.3926 18.3097 35.5173 18.9731 35.9181 19.6192C35.865 18.9777 35.9448 18.2752 36.1586 17.9262Z" fill="#898989"/>
<path d="M36.1586 17.9262C36.496 17.3754 36.748 16.8434 37.0506 16.7392L36.4356 15.9356C36.1985 16.1174 35.6795 17.0202 35.5441 17.629C35.3926 18.3097 35.5173 18.9731 35.9181 19.6192C35.865 18.9777 35.9448 18.2752 36.1586 17.9262Z" fill="white" fill-opacity="0.95"/>
<path d="M15.5105 33.3984C15.8079 32.8507 16.6621 32.1489 16.8108 32.0382L15.6327 31.6219C15.4096 31.788 14.9716 32.3767 14.879 33.0098C14.7755 33.7176 14.9453 34.4393 15.3884 35.1748C15.2912 34.4848 15.3221 33.7453 15.5105 33.3984Z" fill="#898989"/>
<path d="M15.5105 33.3984C15.8079 32.8507 16.6621 32.1489 16.8108 32.0382L15.6327 31.6219C15.4096 31.788 14.9716 32.3767 14.879 33.0098C14.7755 33.7176 14.9453 34.4393 15.3884 35.1748C15.2912 34.4848 15.3221 33.7453 15.5105 33.3984Z" fill="white" fill-opacity="0.95"/>
<path d="M25.8672 25.8619C25.8222 25.2404 26.1628 24.1887 26.2283 24.0152L25.0117 24.3002C24.9134 24.5604 24.8623 25.2924 25.1258 25.8754C25.4204 26.5272 25.9527 27.0433 26.7226 27.4236C26.2686 26.8951 25.8957 26.2557 25.8672 25.8619Z" fill="#898989"/>
<path d="M25.8672 25.8619C25.8222 25.2404 26.1628 24.1887 26.2283 24.0152L25.0117 24.3002C24.9134 24.5604 24.8623 25.2924 25.1258 25.8754C25.4204 26.5272 25.9527 27.0433 26.7226 27.4236C26.2686 26.8951 25.8957 26.2557 25.8672 25.8619Z" fill="white" fill-opacity="0.95"/>
<path d="M24.3904 32.8776C23.9296 33.2971 22.8922 33.6792 22.7153 33.7349L23.6912 34.5152C23.9565 34.4317 24.5636 34.0196 24.8591 33.4521C25.1895 32.8177 25.2663 32.0803 25.0895 31.24C24.9546 31.9236 24.6824 32.6118 24.3904 32.8776Z" fill="#898989"/>
<path d="M24.3904 32.8776C23.9296 33.2971 22.8922 33.6792 22.7153 33.7349L23.6912 34.5152C23.9565 34.4317 24.5636 34.0196 24.8591 33.4521C25.1895 32.8177 25.2663 32.0803 25.0895 31.24C24.9546 31.9236 24.6824 32.6118 24.3904 32.8776Z" fill="white" fill-opacity="0.95"/>
<path d="M30.1506 27.8721C30.4313 28.4285 30.5217 29.5303 30.528 29.7156L31.5412 28.9843C31.5318 28.7063 31.2973 28.011 30.8296 27.5744C30.3068 27.0861 29.6169 26.8147 28.76 26.76C29.3825 27.0731 29.9727 27.5197 30.1506 27.8721Z" fill="#898989"/>
<path d="M30.1506 27.8721C30.4313 28.4285 30.5217 29.5303 30.528 29.7156L31.5412 28.9843C31.5318 28.7063 31.2973 28.011 30.8296 27.5744C30.3068 27.0861 29.6169 26.8147 28.76 26.76C29.3825 27.0731 29.9727 27.5197 30.1506 27.8721Z" fill="white" fill-opacity="0.95"/>
<path d="M33.3506 15.0721C33.88 15.56 34.0234 16.3347 34.0296 16.52L34.84 15.56C34.8306 15.282 34.6676 15.0367 34.2 14.6C33.6772 14.1118 32.8169 14.0147 31.96 13.96C32.5825 14.2731 33.0577 14.8022 33.3506 15.0721Z" fill="#898989"/>
<path d="M33.3506 15.0721C33.88 15.56 34.0234 16.3347 34.0296 16.52L34.84 15.56C34.8306 15.282 34.6676 15.0367 34.2 14.6C33.6772 14.1118 32.8169 14.0147 31.96 13.96C32.5825 14.2731 33.0577 14.8022 33.3506 15.0721Z" fill="white" fill-opacity="0.95"/>
<path d="M31.2831 18.3122C30.9777 17.8734 30.7299 16.9361 30.6951 16.7772L30.0368 17.5567C30.0891 17.7951 30.3815 18.3605 30.8108 18.6687C31.2907 19.0132 31.8636 19.1462 32.5294 19.0677C32.0014 18.8889 31.4766 18.5902 31.2831 18.3122Z" fill="#898989"/>
<path d="M31.2831 18.3122C30.9777 17.8734 30.7299 16.9361 30.6951 16.7772L30.0368 17.5567C30.0891 17.7951 30.3815 18.3605 30.8108 18.6687C31.2907 19.0132 31.8636 19.1462 32.5294 19.0677C32.0014 18.8889 31.4766 18.5902 31.2831 18.3122Z" fill="white" fill-opacity="0.95"/>
<path d="M17.9666 18.3455C18.6922 18.1799 19.929 17.2164 20.0848 17.0579L19.9732 18.2792C19.7395 18.517 18.9878 18.9736 18.262 19.0509C17.4505 19.1373 16.6832 18.9243 15.96 18.4117C16.7078 18.5442 17.2118 18.5177 17.9666 18.3455Z" fill="#898989"/>
<path d="M17.9666 18.3455C18.6922 18.1799 19.929 17.2164 20.0848 17.0579L19.9732 18.2792C19.7395 18.517 18.9878 18.9736 18.262 19.0509C17.4505 19.1373 16.6832 18.9243 15.96 18.4117C16.7078 18.5442 17.2118 18.5177 17.9666 18.3455Z" fill="white" fill-opacity="0.95"/>
<path fill-rule="evenodd" clip-rule="evenodd" d="M20.44 6.28003C18.2 5.96003 15 7.88005 12.76 9.80004C10.52 11.72 8.9512 15.2181 8.59993 17.48C8.20997 19.991 8.35003 22.92 10.27 23.88C10.7791 24.1346 11.3478 24.209 11.9511 24.1448C10.6806 27.6872 10.1503 31.1652 12.12 32.569C13.8697 33.8161 17.1712 32.3432 20.5201 29.825C20.5145 32.349 21.3218 34.4328 23.39 35.08C27.48 36.36 32.0076 30.92 33.24 26.489C33.676 24.9215 33.8543 22.8553 34.0177 20.9623C34.2636 18.1145 34.4756 15.6584 35.48 15.88C36.1641 16.031 36.6343 17.79 37.0945 19.5116C37.299 20.2766 37.5015 21.0342 37.72 21.64L37.72 21.6395C37.65 19.6701 37.4698 14.6 35.16 14.6C33.5653 14.6 33.2123 17.9527 32.8635 21.2665C32.6523 23.2724 32.4426 25.2639 31.96 26.489C30.2439 30.8448 26.403 34.7161 23.96 33.8C22.5465 33.27 21.8585 31.1789 21.8912 28.7389C27.381 24.1737 32.4425 17.3946 30.36 15.88C28.056 13.96 23.8729 19.038 22.36 22.28C21.5678 23.9775 20.9599 25.9171 20.6835 27.7713C17.3781 30.5923 14.1792 32.6495 13.08 31.88C11.5182 30.7868 11.9944 27.4621 13.3726 23.7774C15.7134 22.8621 18.2618 20.518 19.8 18.76C22.04 16.2 25.56 11.08 23.39 9.80004C21.8492 8.8912 18.2587 11.9422 16.28 15.24C15.4229 16.6686 13.7093 19.7101 12.4286 22.8921C11.8462 23.0078 11.3085 22.9763 10.84 22.76C7.31999 21.1354 10.5201 13.64 13.72 10.44C15.1999 8.95999 17.88 6.92003 20.44 6.28003ZM13.72 22.6C14.1467 21.2133 16.024 17.288 17.56 15.24C19.48 12.68 21.4 10.44 22.68 11.08C23.96 11.72 22.36 14.28 20.44 16.52C18.904 18.312 15.96 21.32 13.72 22.6ZM22.04 26.76C22.2533 25.6933 23.384 22.408 24.92 20.36C26.84 17.8 28.44 16.2 29.4 16.84C30.36 17.48 27.8 21 26.52 22.28C26.2192 22.5808 25.7914 23.0178 25.3127 23.5068L25.3126 23.5069C24.162 24.6823 22.718 26.1574 22.04 26.76Z" fill="#898989"/>
<path fill-rule="evenodd" clip-rule="evenodd" d="M20.44 6.28003C18.2 5.96003 15 7.88005 12.76 9.80004C10.52 11.72 8.9512 15.2181 8.59993 17.48C8.20997 19.991 8.35003 22.92 10.27 23.88C10.7791 24.1346 11.3478 24.209 11.9511 24.1448C10.6806 27.6872 10.1503 31.1652 12.12 32.569C13.8697 33.8161 17.1712 32.3432 20.5201 29.825C20.5145 32.349 21.3218 34.4328 23.39 35.08C27.48 36.36 32.0076 30.92 33.24 26.489C33.676 24.9215 33.8543 22.8553 34.0177 20.9623C34.2636 18.1145 34.4756 15.6584 35.48 15.88C36.1641 16.031 36.6343 17.79 37.0945 19.5116C37.299 20.2766 37.5015 21.0342 37.72 21.64L37.72 21.6395C37.65 19.6701 37.4698 14.6 35.16 14.6C33.5653 14.6 33.2123 17.9527 32.8635 21.2665C32.6523 23.2724 32.4426 25.2639 31.96 26.489C30.2439 30.8448 26.403 34.7161 23.96 33.8C22.5465 33.27 21.8585 31.1789 21.8912 28.7389C27.381 24.1737 32.4425 17.3946 30.36 15.88C28.056 13.96 23.8729 19.038 22.36 22.28C21.5678 23.9775 20.9599 25.9171 20.6835 27.7713C17.3781 30.5923 14.1792 32.6495 13.08 31.88C11.5182 30.7868 11.9944 27.4621 13.3726 23.7774C15.7134 22.8621 18.2618 20.518 19.8 18.76C22.04 16.2 25.56 11.08 23.39 9.80004C21.8492 8.8912 18.2587 11.9422 16.28 15.24C15.4229 16.6686 13.7093 19.7101 12.4286 22.8921C11.8462 23.0078 11.3085 22.9763 10.84 22.76C7.31999 21.1354 10.5201 13.64 13.72 10.44C15.1999 8.95999 17.88 6.92003 20.44 6.28003ZM13.72 22.6C14.1467 21.2133 16.024 17.288 17.56 15.24C19.48 12.68 21.4 10.44 22.68 11.08C23.96 11.72 22.36 14.28 20.44 16.52C18.904 18.312 15.96 21.32 13.72 22.6ZM22.04 26.76C22.2533 25.6933 23.384 22.408 24.92 20.36C26.84 17.8 28.44 16.2 29.4 16.84C30.36 17.48 27.8 21 26.52 22.28C26.2192 22.5808 25.7914 23.0178 25.3127 23.5068L25.3126 23.5069C24.162 24.6823 22.718 26.1574 22.04 26.76Z" fill="white" fill-opacity="0.95"/>
</svg>
