<?xml version="1.0" encoding="utf-8"?><svg fill="none" viewBox="0 0 50 50" xmlns="http://www.w3.org/2000/svg" width="50" height="50"><g clip-path="url(#anla)"><rect x="3.491" y="27.5" width="30.355" height="30.355" rx="8.37" transform="rotate(-45 3.491 27.5)" fill="#7445B8" stroke="#A272E4" stroke-width="5"/><rect x="1.37" y="27.5" width="33.355" height="33.355" rx="9.87" transform="rotate(-45 1.37 27.5)" stroke="#7445B8" stroke-width="2"/><rect x="1.37" y="27.5" width="33.355" height="33.355" rx="9.87" transform="rotate(-45 1.37 27.5)" stroke="#fff" stroke-opacity=".6" stroke-width="2"/><circle cx="24.991" cy="11.972" r="2" fill="#080B16"/><path d="M27.016 4.343c.162.703.178 1.705-.039 2.82l-.007.033c.75.14 1.174.27 1.93.548l.04-.2c.258-1.323.264-2.615.026-3.65-.119-.515-.309-1.014-.6-1.423-.294-.415-.73-.783-1.32-.898-.59-.115-1.132.063-1.56.337-.424.27-.787.662-1.09 1.095-.609.87-1.088 2.07-1.345 3.394-.258 1.324-.264 2.616-.026 3.65.118.516.309 1.015.6 1.424.294.414.73.783 1.32.897.59.115 1.132-.063 1.56-.336.162-.104.315-.225.46-.36-.142-.831-.41-1.151-1.257-1.57a1.475 1.475 0 0 1-.279.244.466.466 0 0 1-.1.05.467.467 0 0 1-.075-.084c-.091-.13-.198-.36-.28-.713-.161-.703-.177-1.705.04-2.82.217-1.115.607-2.038 1.02-2.629.208-.297.394-.47.528-.556a.48.48 0 0 1 .1-.051c.016.014.042.04.074.085.092.13.2.36.28.713Z" fill="#7445B8"/><path d="M27.016 4.343c.162.703.178 1.705-.039 2.82l-.007.033c.75.14 1.174.27 1.93.548l.04-.2c.258-1.323.264-2.615.026-3.65-.119-.515-.309-1.014-.6-1.423-.294-.415-.73-.783-1.32-.898-.59-.115-1.132.063-1.56.337-.424.27-.787.662-1.09 1.095-.609.87-1.088 2.07-1.345 3.394-.258 1.324-.264 2.616-.026 3.65.118.516.309 1.015.6 1.424.294.414.73.783 1.32.897.59.115 1.132-.063 1.56-.336.162-.104.315-.225.46-.36-.142-.831-.41-1.151-1.257-1.57a1.475 1.475 0 0 1-.279.244.466.466 0 0 1-.1.05.467.467 0 0 1-.075-.084c-.091-.13-.198-.36-.28-.713-.161-.703-.177-1.705.04-2.82.217-1.115.607-2.038 1.02-2.629.208-.297.394-.47.528-.556a.48.48 0 0 1 .1-.051c.016.014.042.04.074.085.092.13.2.36.28.713Z" fill="#fff" fill-opacity=".2"/><path d="M27.015 4.33c.161.707.177 1.713-.04 2.834l-.006.032c.302.058.471.094.778.177.332-1.5.283-2.83-.053-3.415-.45-.783-.762-.568-1.034-.43.016.015.042.04.074.086.092.13.2.362.28.717Z" fill="#7445B8"/><path d="M27.015 4.33c.161.707.177 1.713-.04 2.834l-.006.032c.302.058.471.094.778.177.332-1.5.283-2.83-.053-3.415-.45-.783-.762-.568-1.034-.43.016.015.042.04.074.086.092.13.2.362.28.717Z" fill="#000" fill-opacity=".2"/><path d="M25.426 10.364a.47.47 0 0 1-.1.05c.136.204.667.577 1.086.117-.277-.232-.672-.434-.708-.43 0 0-.2.213-.278.263Z" fill="#7445B8"/><path d="M25.426 10.364a.47.47 0 0 1-.1.05c.136.204.667.577 1.086.117-.277-.232-.672-.434-.708-.43 0 0-.2.213-.278.263Z" fill="#000" fill-opacity=".2"/><path d="M22 18c1 0 2.75.25 4 .75s4 1.75 5 2.75.75 3.5.75 4.5-1.25 3.25-1.5 4-.75 2-1 3.25c-.2 1-.167 2.75-.25 3.5-.75.25-1.75.75-4 .75s-3.417-.333-4.25-.5c.333-1 1-3.25 1-4.25s-.167-1.75-.25-2c-.333-.417-1.15-1.5-1.75-2.5-.6-1-1.25-1.75-1.25-2.75 0-1.5.363-3.363 1-4 .5-.5 1.46-1 2.25-1 .75 0 2.5.5 3 1s.25 1.25-.5 1.5-1.75-.25-2.25.25c-.395.395-.395 1.355 0 1.75.5.5.75.75 1.75 1.25l.018.008.03.024c.19.163.355.331.432.487.1.201.144.423.165.653.01.114.014.229.017.343.003.111.005.229.01.336a.25.25 0 0 0 .264.235.25.25 0 0 0 .235-.263c-.005-.097-.008-.202-.01-.321a5.911 5.911 0 0 0-.02-.375 2.317 2.317 0 0 0-.216-.83 1.243 1.243 0 0 0-.045-.08c1.52.21 4.196.12 4.87-.217.5-.25 1-1 1.2-1.75.125-.469-.185-.477-.45-.25-.25.25-.35.85-.75 1.25-.5.5-4.632.559-5.75 0-1-.5-1.75-1-1.5-1.75.167-.5 1.25.25 2.25-.1.973-.34 1.5-1.65 1-2.4s-3-1.5-3.75-1.5-1.417.417-1.75.5c.25-.667 1.2-2.25 2-2.25Z" fill="#7445B8"/><path d="M22 18c1 0 2.75.25 4 .75s4 1.75 5 2.75.75 3.5.75 4.5-1.25 3.25-1.5 4-.75 2-1 3.25c-.2 1-.167 2.75-.25 3.5-.75.25-1.75.75-4 .75s-3.417-.333-4.25-.5c.333-1 1-3.25 1-4.25s-.167-1.75-.25-2c-.333-.417-1.15-1.5-1.75-2.5-.6-1-1.25-1.75-1.25-2.75 0-1.5.363-3.363 1-4 .5-.5 1.46-1 2.25-1 .75 0 2.5.5 3 1s.25 1.25-.5 1.5-1.75-.25-2.25.25c-.395.395-.395 1.355 0 1.75.5.5.75.75 1.75 1.25l.018.008.03.024c.19.163.355.331.432.487.1.201.144.423.165.653.01.114.014.229.017.343.003.111.005.229.01.336a.25.25 0 0 0 .264.235.25.25 0 0 0 .235-.263c-.005-.097-.008-.202-.01-.321a5.911 5.911 0 0 0-.02-.375 2.317 2.317 0 0 0-.216-.83 1.243 1.243 0 0 0-.045-.08c1.52.21 4.196.12 4.87-.217.5-.25 1-1 1.2-1.75.125-.469-.185-.477-.45-.25-.25.25-.35.85-.75 1.25-.5.5-4.632.559-5.75 0-1-.5-1.75-1-1.5-1.75.167-.5 1.25.25 2.25-.1.973-.34 1.5-1.65 1-2.4s-3-1.5-3.75-1.5-1.417.417-1.75.5c.25-.667 1.2-2.25 2-2.25Z" fill="#fff" fill-opacity=".8"/></g><defs><clipPath id="anla"><path fill="#fff" transform="matrix(-1 0 0 1 50 0)" d="M0 0h50v50H0z"/></clipPath></defs></svg>