<?xml version="1.0" encoding="utf-8"?><svg fill="none" viewBox="0 0 50 50" xmlns="http://www.w3.org/2000/svg" width="50" height="50"><g clip-path="url(#anga)"><rect x="3.491" y="27.5" width="30.355" height="30.355" rx="8.37" transform="rotate(-45 3.491 27.5)" fill="#7445B8" stroke="#A272E4" stroke-width="5"/><rect x="1.37" y="27.5" width="33.355" height="33.355" rx="9.87" transform="rotate(-45 1.37 27.5)" stroke="#7445B8" stroke-width="2"/><rect x="1.37" y="27.5" width="33.355" height="33.355" rx="9.87" transform="rotate(-45 1.37 27.5)" stroke="#fff" stroke-opacity=".6" stroke-width="2"/><circle cx="24.991" cy="11.972" r="2" fill="#080B16"/><path d="M27.016 4.343c.162.703.178 1.705-.039 2.82l-.007.033c.75.14 1.174.27 1.93.548l.04-.2c.258-1.323.264-2.615.026-3.65-.119-.515-.309-1.014-.6-1.423-.294-.415-.73-.783-1.32-.898-.59-.115-1.132.063-1.56.337-.424.27-.787.662-1.09 1.095-.609.87-1.088 2.07-1.345 3.394-.258 1.324-.264 2.616-.026 3.65.118.516.309 1.015.6 1.424.294.414.73.783 1.32.897.59.115 1.132-.063 1.56-.336.162-.104.315-.225.46-.36-.142-.831-.41-1.151-1.257-1.57a1.475 1.475 0 0 1-.279.244.466.466 0 0 1-.1.05.467.467 0 0 1-.075-.084c-.091-.13-.198-.36-.28-.713-.161-.703-.177-1.705.04-2.82.217-1.115.607-2.038 1.02-2.629.208-.297.394-.47.528-.556a.48.48 0 0 1 .1-.051c.016.014.042.04.074.085.092.13.2.36.28.713Z" fill="#7445B8"/><path d="M27.016 4.343c.162.703.178 1.705-.039 2.82l-.007.033c.75.14 1.174.27 1.93.548l.04-.2c.258-1.323.264-2.615.026-3.65-.119-.515-.309-1.014-.6-1.423-.294-.415-.73-.783-1.32-.898-.59-.115-1.132.063-1.56.337-.424.27-.787.662-1.09 1.095-.609.87-1.088 2.07-1.345 3.394-.258 1.324-.264 2.616-.026 3.65.118.516.309 1.015.6 1.424.294.414.73.783 1.32.897.59.115 1.132-.063 1.56-.336.162-.104.315-.225.46-.36-.142-.831-.41-1.151-1.257-1.57a1.475 1.475 0 0 1-.279.244.466.466 0 0 1-.1.05.467.467 0 0 1-.075-.084c-.091-.13-.198-.36-.28-.713-.161-.703-.177-1.705.04-2.82.217-1.115.607-2.038 1.02-2.629.208-.297.394-.47.528-.556a.48.48 0 0 1 .1-.051c.016.014.042.04.074.085.092.13.2.36.28.713Z" fill="#fff" fill-opacity=".2"/><path d="M27.015 4.33c.161.707.177 1.713-.04 2.834l-.006.032c.302.058.471.094.778.177.332-1.5.283-2.83-.053-3.415-.45-.783-.762-.568-1.034-.43.016.015.042.04.074.086.092.13.2.362.28.717Z" fill="#7445B8"/><path d="M27.015 4.33c.161.707.177 1.713-.04 2.834l-.006.032c.302.058.471.094.778.177.332-1.5.283-2.83-.053-3.415-.45-.783-.762-.568-1.034-.43.016.015.042.04.074.086.092.13.2.362.28.717Z" fill="#000" fill-opacity=".2"/><path d="M25.426 10.364a.47.47 0 0 1-.1.05c.136.204.667.577 1.086.117-.277-.232-.672-.434-.708-.43 0 0-.2.213-.278.263Z" fill="#7445B8"/><path d="M25.426 10.364a.47.47 0 0 1-.1.05c.136.204.667.577 1.086.117-.277-.232-.672-.434-.708-.43 0 0-.2.213-.278.263Z" fill="#000" fill-opacity=".2"/><path d="M20.926 19.859c-1.27.52-3.151.813-3.933.894v7.808c0 1.464.074 2.648 1.656 4.636 1.582 1.987 6.314 4.229 6.314 4.229s4.732-2.242 6.292-4.23c1.56-1.987 1.7-3.713 1.677-4.635v-7.808c-.99-.135-3.202-.504-4.14-.894-.939-.39-2.91-1.736-3.83-2.359-.781.57-2.767 1.838-4.036 2.359Z" fill="#7445B8"/><path d="M20.926 19.859c-1.27.52-3.151.813-3.933.894v7.808c0 1.464.074 2.648 1.656 4.636 1.582 1.987 6.314 4.229 6.314 4.229s4.732-2.242 6.292-4.23c1.56-1.987 1.7-3.713 1.677-4.635v-7.808c-.99-.135-3.202-.504-4.14-.894-.939-.39-2.91-1.736-3.83-2.359-.781.57-2.767 1.838-4.036 2.359Z" fill="#fff" fill-opacity=".8"/><path d="M21.935 21.38c-.952.416-2.363.65-2.95.715V28.36c0 1.162 0 2.059 1.242 3.69 1.249 1.64 4.736 3.383 4.736 3.383s2.989-1.494 4.631-3.383c1.643-1.889 1.363-2.971 1.346-3.709v-6.246c-.742-.108-2.401-.403-3.105-.715-.704-.313-2.182-1.389-2.872-1.887-.587.455-2.076 1.47-3.028 1.887Z" fill="#7445B8"/><path d="M21.935 21.38c-.952.416-2.363.65-2.95.715V28.36c0 1.162 0 2.059 1.242 3.69 1.249 1.64 4.736 3.383 4.736 3.383s2.989-1.494 4.631-3.383c1.643-1.889 1.363-2.971 1.346-3.709v-6.246c-.742-.108-2.401-.403-3.105-.715-.704-.313-2.182-1.389-2.872-1.887-.587.455-2.076 1.47-3.028 1.887Z" fill="#fff" fill-opacity=".8"/><path d="M22.97 22.9c-.634.313-1.601.53-1.992.578v4.644c0 .878.498 2.08.996 2.828.498.747 2.989 2.49 2.989 2.49s2.242-1.493 2.989-2.49c.747-.996 1.007-2.275.996-2.828v-4.644c-.495-.081-1.523-.343-1.992-.578-.47-.234-1.533-1.04-1.993-1.415-.391.342-1.358 1.103-1.993 1.416Z" fill="#7445B8"/><path d="M22.97 22.9c-.634.313-1.601.53-1.992.578v4.644c0 .878.498 2.08.996 2.828.498.747 2.989 2.49 2.989 2.49s2.242-1.493 2.989-2.49c.747-.996 1.007-2.275.996-2.828v-4.644c-.495-.081-1.523-.343-1.992-.578-.47-.234-1.533-1.04-1.993-1.415-.391.342-1.358 1.103-1.993 1.416Z" fill="#fff" fill-opacity=".8"/></g><defs><clipPath id="anga"><path fill="#fff" transform="matrix(-1 0 0 1 50 0)" d="M0 0h50v50H0z"/></clipPath></defs></svg>