<?xml version="1.0" encoding="utf-8"?><svg fill="none" viewBox="0 0 50 50" xmlns="http://www.w3.org/2000/svg" width="50" height="50"><g clip-path="url(#anha)"><rect x="3.491" y="27.5" width="30.355" height="30.355" rx="8.37" transform="rotate(-45 3.491 27.5)" fill="#7445B8" stroke="#A272E4" stroke-width="5"/><rect x="1.37" y="27.5" width="33.355" height="33.355" rx="9.87" transform="rotate(-45 1.37 27.5)" stroke="#7445B8" stroke-width="2"/><rect x="1.37" y="27.5" width="33.355" height="33.355" rx="9.87" transform="rotate(-45 1.37 27.5)" stroke="#fff" stroke-opacity=".6" stroke-width="2"/><circle cx="24.991" cy="11.972" r="2" fill="#080B16"/><path d="M27.016 4.343c.162.703.178 1.705-.039 2.82l-.007.033c.75.14 1.174.27 1.93.548l.04-.2c.258-1.323.264-2.615.026-3.65-.119-.515-.309-1.014-.6-1.423-.294-.415-.73-.783-1.32-.898-.59-.115-1.132.063-1.56.337-.424.27-.787.662-1.09 1.095-.609.87-1.088 2.07-1.345 3.394-.258 1.324-.264 2.616-.026 3.65.118.516.309 1.015.6 1.424.294.414.73.783 1.32.897.59.115 1.132-.063 1.56-.336.162-.104.315-.225.46-.36-.142-.831-.41-1.151-1.257-1.57a1.475 1.475 0 0 1-.279.244.466.466 0 0 1-.1.05.467.467 0 0 1-.075-.084c-.091-.13-.198-.36-.28-.713-.161-.703-.177-1.705.04-2.82.217-1.115.607-2.038 1.02-2.629.208-.297.394-.47.528-.556a.48.48 0 0 1 .1-.051c.016.014.042.04.074.085.092.13.2.36.28.713Z" fill="#7445B8"/><path d="M27.016 4.343c.162.703.178 1.705-.039 2.82l-.007.033c.75.14 1.174.27 1.93.548l.04-.2c.258-1.323.264-2.615.026-3.65-.119-.515-.309-1.014-.6-1.423-.294-.415-.73-.783-1.32-.898-.59-.115-1.132.063-1.56.337-.424.27-.787.662-1.09 1.095-.609.87-1.088 2.07-1.345 3.394-.258 1.324-.264 2.616-.026 3.65.118.516.309 1.015.6 1.424.294.414.73.783 1.32.897.59.115 1.132-.063 1.56-.336.162-.104.315-.225.46-.36-.142-.831-.41-1.151-1.257-1.57a1.475 1.475 0 0 1-.279.244.466.466 0 0 1-.1.05.467.467 0 0 1-.075-.084c-.091-.13-.198-.36-.28-.713-.161-.703-.177-1.705.04-2.82.217-1.115.607-2.038 1.02-2.629.208-.297.394-.47.528-.556a.48.48 0 0 1 .1-.051c.016.014.042.04.074.085.092.13.2.36.28.713Z" fill="#fff" fill-opacity=".2"/><path d="M27.015 4.33c.161.707.177 1.713-.04 2.834l-.006.032c.302.058.471.094.778.177.332-1.5.283-2.83-.053-3.415-.45-.783-.762-.568-1.034-.43.016.015.042.04.074.086.092.13.2.362.28.717Z" fill="#7445B8"/><path d="M27.015 4.33c.161.707.177 1.713-.04 2.834l-.006.032c.302.058.471.094.778.177.332-1.5.283-2.83-.053-3.415-.45-.783-.762-.568-1.034-.43.016.015.042.04.074.086.092.13.2.362.28.717Z" fill="#000" fill-opacity=".2"/><path d="M25.426 10.364a.47.47 0 0 1-.1.05c.136.204.667.577 1.086.117-.277-.232-.672-.434-.708-.43 0 0-.2.213-.278.263Z" fill="#7445B8"/><path d="M25.426 10.364a.47.47 0 0 1-.1.05c.136.204.667.577 1.086.117-.277-.232-.672-.434-.708-.43 0 0-.2.213-.278.263Z" fill="#000" fill-opacity=".2"/><path d="M23.337 29.116c-.126-1.212.343-2.155.586-2.33l-1.863.152-1.306 2.215c.028.265.722 1.487 1.434 2.292.932 1.054 1.852 1.834 2.271 2.135l.63-.512c-.736-1.052-1.65-2.974-1.752-3.952Z" fill="#7445B8"/><path d="M23.337 29.116c-.126-1.212.343-2.155.586-2.33l-1.863.152-1.306 2.215c.028.265.722 1.487 1.434 2.292.932 1.054 1.852 1.834 2.271 2.135l.63-.512c-.736-1.052-1.65-2.974-1.752-3.952Z" fill="#fff" fill-opacity=".8"/><path d="M25.75 24.581h-5.038s-1.42 1.35-2.462 3.115C17.208 29.461 17 33.186 17 37.5h4.375c-.044-.695-.663-2.878-.663-4.967 0-2.288.206-3.558 1.08-4.445.858-.872 2.5-.784 3.958-.784V24.58Z" fill="#7445B8"/><path d="M25.75 24.581h-5.038s-1.42 1.35-2.462 3.115C17.208 29.461 17 33.186 17 37.5h4.375c-.044-.695-.663-2.878-.663-4.967 0-2.288.206-3.558 1.08-4.445.858-.872 2.5-.784 3.958-.784V24.58Z" fill="#fff" fill-opacity=".8"/><path d="m31.375 17.5-5.625 7.059v2.745l5.625 6.667c-.278-.85-1.042-3.804-1.042-8.04 0-4.235.764-7.385 1.042-8.431Z" fill="#7445B8"/><path d="m31.375 17.5-5.625 7.059v2.745l5.625 6.667c-.278-.85-1.042-3.804-1.042-8.04 0-4.235.764-7.385 1.042-8.431Z" fill="#fff" fill-opacity=".8"/><ellipse cx="31.583" cy="25.735" rx="1.25" ry="8.235" fill="#7445B8"/><ellipse cx="31.583" cy="25.735" rx="1.25" ry="8.235" fill="#fff" fill-opacity=".8"/><path fill="#7445B8" d="M30.5 25.5h3v1h-3z"/><path fill="#fff" fill-opacity=".8" d="M30.5 25.5h3v1h-3z"/><circle cx="33.5" cy="26" r="1.5" fill="#7445B8"/><circle cx="33.5" cy="26" r="1.5" fill="#fff" fill-opacity=".8"/></g><defs><clipPath id="anha"><path fill="#fff" transform="matrix(-1 0 0 1 50 0)" d="M0 0h50v50H0z"/></clipPath></defs></svg>