<svg width="50" height="50" viewBox="0 0 50 50" fill="none" xmlns="http://www.w3.org/2000/svg">
        <g clip-path="url(#aooa)">
            <path
                d="M43.951 4.191c2.237 0 4.58.453 4.871-3.729 2.784 4.461-.57 9.493-3.925 9.493s-4.357 3.47-2.796 5.032c.84.838 2.571 1.391 4.635-2.277.677 7.029-4.521 5.076-4.962 7.077-.79 3.586-4.784 4.989-6.382 5.263-1.932.332-4.787.223-6.387-1.377 0 0-1.546.152-3.25-1.55-1.703-1.704-3.978-6.666-1.588-11.214 1.626-3.093 4.287-5.589 7.292-5.765-.921.353-2.392 2.467-1.327 3.001 1.656.83 3.057-3.761 5.82-5.458 2.21-1.358 3.779.983 5.629-.867-1.614 4.12-4.087 2.969-4.366 4.366-.111.556.414 1.533 1.532.973 2.058-.38 3.68-2.968 5.204-2.968Z"
                fill="#7445B8" />
            <path
                d="M35.595 23.353c3.111-1.683 4.207-5.307 4.366-6.909-1.83 1.7-3.905 1.631-4.535.529-.787-1.378 1.003-4.263 2.612-5.616 1.287-1.082 2.614-1.333 3.117-1.323-.546-.526-2.151-1.677-4.207-2.075-2.569-.497-5.127.03-7.084 1.57-1.957 1.539-2.547 3.306-3.363 2.646-.653-.529.256-1.562.792-2.013-.554.176-1.648.411-2.515 1.458-1.96 2.363-2.256 7.59.018 10.157 2.782 3.536 6.91 3.68 10.8 1.576Z"
                fill="#7445B8" />
            <path
                d="M35.595 23.353c3.111-1.683 4.207-5.307 4.366-6.909-1.83 1.7-3.905 1.631-4.535.529-.787-1.378 1.003-4.263 2.612-5.616 1.287-1.082 2.614-1.333 3.117-1.323-.546-.526-2.151-1.677-4.207-2.075-2.569-.497-5.127.03-7.084 1.57-1.957 1.539-2.547 3.306-3.363 2.646-.653-.529.256-1.562.792-2.013-.554.176-1.648.411-2.515 1.458-1.96 2.363-2.256 7.59.018 10.157 2.782 3.536 6.91 3.68 10.8 1.576Z"
                fill="#fff" fill-opacity=".8" />
            <path
                d="m28.365 16.122 3.673 3.44L3.656 49.858l-3.672-3.44 13.94-16.196c-1.25-2.774-1.667-5.156-.598-8.037 1.12-.067 1.745-.146 2.834-.465.06 1.714.629 3.71 1.785 4.669 3.198-3.216 5.243-4.825 10.42-10.268Z"
                fill="#7445B8" />
            <path
                d="M9.354 35.533a45.502 45.502 0 0 1-.666 2.184c-.612 1.833-1.34 3.547-2.079 4.47-.856 1.07-1.797 3.186-2.614 5.322a73.287 73.287 0 0 0-.724 1.988l.385.362.883-.942c.127-.35.257-.702.39-1.05.825-2.156 1.718-4.125 2.462-5.054.86-1.077 1.633-2.947 2.246-4.78a49.666 49.666 0 0 0 1.187-4.209l-1.47 1.71Zm-4.24 4.927a45.932 45.932 0 0 1-.822 2.002c-.787 1.794-1.723 3.574-2.676 4.718-.124.15-.245.291-.363.426l.73.684c.13-.149.264-.305.4-.47 1.048-1.256 2.03-3.143 2.825-4.957a47.336 47.336 0 0 0 1.693-4.481L5.113 40.46Zm10.35-18.554c-.618.147-1.128.21-1.818.257a11.658 11.658 0 0 0-.144 3.321c.194 2.07.85 3.923 1.434 5.076a19.01 19.01 0 0 0-.433 2.384c-.19 1.702-1.108 3.924-2.22 6.05a48.404 48.404 0 0 1-2.542 4.27 60.57 60.57 0 0 0 1.023-2.05c1.194-2.514 2.203-5.033 2.71-6.556.578-1.733.536-3.253.325-4.29l-.873 1.014a7.73 7.73 0 0 1-.4 2.96c-.493 1.477-1.484 3.958-2.665 6.443-1.185 2.495-2.538 4.946-3.745 6.395l.029.023 6.71-7.164c.105-.193.21-.386.313-.582 1.12-2.141 2.118-4.503 2.33-6.401.088-.802.248-1.624.452-2.434.26-1.028.59-2.032.935-2.945a31.37 31.37 0 0 1 .683-1.662 4.586 4.586 0 0 1-.641-.996c-.18.383-.375.811-.569 1.275-.42-.974-.706-2.118-.829-3.248-.042-.39-.063-.772-.065-1.14Zm5.513 1.546c-.539.51-1.067 1.012-1.613 1.54-.567 1.656-1.14 3.515-1.575 5.303-.374 1.54-.65 3.044-.729 4.326-.02.325-.026.643-.018.95l1.034-1.105c.09-1.154.34-2.512.685-3.936.598-2.463 1.468-5.075 2.216-7.078Zm2.475-2.36c-.57.553-1.1 1.057-1.61 1.539-.303.895-.599 1.82-.872 2.754-.752 2.569-1.353 5.251-1.527 7.622l1.13-1.205c.25-1.928.744-4.044 1.357-6.137.464-1.585.994-3.14 1.522-4.572Zm-8.917 2.062c.167 1.54.62 3.145 1.331 4.396a30.09 30.09 0 0 0-.507 1.49c-.382-1-.733-2.274-.862-3.65-.073-.779-.074-1.584.026-2.386l.012.15Zm11.66-4.785c-.477.486-.924.934-1.346 1.354a86.762 86.762 0 0 0-.426 1.965c-.496 2.44-.886 4.957-.957 7.025l1.07-1.143c.144-1.725.465-3.706.866-5.683.245-1.203.517-2.396.792-3.518Z"
                fill="#7445B8" />
            <path
                d="M9.354 35.533a45.502 45.502 0 0 1-.666 2.184c-.612 1.833-1.34 3.547-2.079 4.47-.856 1.07-1.797 3.186-2.614 5.322a73.287 73.287 0 0 0-.724 1.988l.385.362.883-.942c.127-.35.257-.702.39-1.05.825-2.156 1.718-4.125 2.462-5.054.86-1.077 1.633-2.947 2.246-4.78a49.666 49.666 0 0 0 1.187-4.209l-1.47 1.71Zm-4.24 4.927a45.932 45.932 0 0 1-.822 2.002c-.787 1.794-1.723 3.574-2.676 4.718-.124.15-.245.291-.363.426l.73.684c.13-.149.264-.305.4-.47 1.048-1.256 2.03-3.143 2.825-4.957a47.336 47.336 0 0 0 1.693-4.481L5.113 40.46Zm10.35-18.554c-.618.147-1.128.21-1.818.257a11.658 11.658 0 0 0-.144 3.321c.194 2.07.85 3.923 1.434 5.076a19.01 19.01 0 0 0-.433 2.384c-.19 1.702-1.108 3.924-2.22 6.05a48.404 48.404 0 0 1-2.542 4.27 60.57 60.57 0 0 0 1.023-2.05c1.194-2.514 2.203-5.033 2.71-6.556.578-1.733.536-3.253.325-4.29l-.873 1.014a7.73 7.73 0 0 1-.4 2.96c-.493 1.477-1.484 3.958-2.665 6.443-1.185 2.495-2.538 4.946-3.745 6.395l.029.023 6.71-7.164c.105-.193.21-.386.313-.582 1.12-2.141 2.118-4.503 2.33-6.401.088-.802.248-1.624.452-2.434.26-1.028.59-2.032.935-2.945a31.37 31.37 0 0 1 .683-1.662 4.586 4.586 0 0 1-.641-.996c-.18.383-.375.811-.569 1.275-.42-.974-.706-2.118-.829-3.248-.042-.39-.063-.772-.065-1.14Zm5.513 1.546c-.539.51-1.067 1.012-1.613 1.54-.567 1.656-1.14 3.515-1.575 5.303-.374 1.54-.65 3.044-.729 4.326-.02.325-.026.643-.018.95l1.034-1.105c.09-1.154.34-2.512.685-3.936.598-2.463 1.468-5.075 2.216-7.078Zm2.475-2.36c-.57.553-1.1 1.057-1.61 1.539-.303.895-.599 1.82-.872 2.754-.752 2.569-1.353 5.251-1.527 7.622l1.13-1.205c.25-1.928.744-4.044 1.357-6.137.464-1.585.994-3.14 1.522-4.572Zm-8.917 2.062c.167 1.54.62 3.145 1.331 4.396a30.09 30.09 0 0 0-.507 1.49c-.382-1-.733-2.274-.862-3.65-.073-.779-.074-1.584.026-2.386l.012.15Zm11.66-4.785c-.477.486-.924.934-1.346 1.354a86.762 86.762 0 0 0-.426 1.965c-.496 2.44-.886 4.957-.957 7.025l1.07-1.143c.144-1.725.465-3.706.866-5.683.245-1.203.517-2.396.792-3.518Z"
                fill="#000" fill-opacity=".4" />
            <path
                d="M32.449 21.246c1.81-1.932 2.71-6.533.857-9.478-.201.416-1.006 2.433-2.716 2.899-1.5.409-2.733-.14-3.94 1.148-2.414 2.577-1.201 4.922-.295 5.772.907.849 3.679 2.237 6.094-.34Z"
                fill="#A272E4" />
        </g>
        <defs>
            <clipPath id="aooa">
                <path fill="#fff" transform="matrix(-1 0 0 1 50 0)" d="M0 0h50v50H0z" />
            </clipPath>
        </defs>
    </svg>