<svg width="50" height="50" viewBox="0 0 50 50" fill="none" xmlns="http://www.w3.org/2000/svg">
        <g clip-path="url(#aoca)">
            <path d="m38.214 4.5 7.379 6H4.407l7.38-6h26.427Z" fill="#7445B8" />
            <path d="m38.214 4.5 7.379 6H4.407l7.38-6h26.427Z" fill="#fff" fill-opacity=".6" />
            <path d="m38.214 4.5 7.379 6H4.407l7.38-6h26.427Z" stroke="#7445B8" />
            <path d="m38.214 4.5 7.379 6H4.407l7.38-6h26.427Z" stroke="#fff" stroke-opacity=".6" />
            <path d="M47 11v35H3V11h44Z" fill="#7445B8" />
            <path d="M47 11v35H3V11h44Z" fill="#000" fill-opacity=".2" />
            <path d="M47 12v7H3v-7h44Z" fill="#7445B8" />
            <path d="M47 12v7H3v-7h44Z" fill="#fff" fill-opacity=".2" />
            <path d="M47 21v7H3v-7h44Z" fill="#7445B8" />
            <path d="M47 21v7H3v-7h44Z" fill="#fff" fill-opacity=".2" />
            <path d="M47 30v7H3v-7h44Z" fill="#7445B8" />
            <path d="M47 30v7H3v-7h44Z" fill="#fff" fill-opacity=".2" />
            <path d="M47 39v7H3v-7h44Z" fill="#7445B8" />
            <path d="M47 39v7H3v-7h44Z" fill="#fff" fill-opacity=".2" />
            <circle cx="5.25" cy="40.75" r=".75" fill="#7445B8" />
            <circle cx="5.25" cy="40.75" r=".75" fill="#000" fill-opacity=".2" />
            <circle cx="5.25" cy="44.25" r=".75" fill="#7445B8" />
            <circle cx="5.25" cy="44.25" r=".75" fill="#000" fill-opacity=".2" />
            <circle cx="44.75" cy="40.75" r=".75" fill="#7445B8" />
            <circle cx="44.75" cy="40.75" r=".75" fill="#000" fill-opacity=".2" />
            <circle cx="44.75" cy="44.25" r=".75" fill="#7445B8" />
            <circle cx="44.75" cy="44.25" r=".75" fill="#000" fill-opacity=".2" />
            <circle cx="5.25" cy="31.75" r=".75" fill="#7445B8" />
            <circle cx="5.25" cy="31.75" r=".75" fill="#000" fill-opacity=".2" />
            <circle cx="5.25" cy="35.25" r=".75" fill="#7445B8" />
            <circle cx="5.25" cy="35.25" r=".75" fill="#000" fill-opacity=".2" />
            <circle cx="44.75" cy="31.75" r=".75" fill="#7445B8" />
            <circle cx="44.75" cy="31.75" r=".75" fill="#000" fill-opacity=".2" />
            <circle cx="44.75" cy="35.25" r=".75" fill="#7445B8" />
            <circle cx="44.75" cy="35.25" r=".75" fill="#000" fill-opacity=".2" />
            <circle cx="5.25" cy="22.75" r=".75" fill="#7445B8" />
            <circle cx="5.25" cy="22.75" r=".75" fill="#000" fill-opacity=".2" />
            <circle cx="5.25" cy="26.25" r=".75" fill="#7445B8" />
            <circle cx="5.25" cy="26.25" r=".75" fill="#000" fill-opacity=".2" />
            <circle cx="44.75" cy="22.75" r=".75" fill="#7445B8" />
            <circle cx="44.75" cy="22.75" r=".75" fill="#000" fill-opacity=".2" />
            <circle cx="44.75" cy="26.25" r=".75" fill="#7445B8" />
            <circle cx="44.75" cy="26.25" r=".75" fill="#000" fill-opacity=".2" />
            <circle cx="5.25" cy="13.75" r=".75" fill="#7445B8" />
            <circle cx="5.25" cy="13.75" r=".75" fill="#000" fill-opacity=".2" />
            <circle cx="5.25" cy="17.25" r=".75" fill="#7445B8" />
            <circle cx="5.25" cy="17.25" r=".75" fill="#000" fill-opacity=".2" />
            <circle cx="44.75" cy="13.75" r=".75" fill="#7445B8" />
            <circle cx="44.75" cy="13.75" r=".75" fill="#000" fill-opacity=".2" />
            <circle cx="44.75" cy="17.25" r=".75" fill="#7445B8" />
            <circle cx="44.75" cy="17.25" r=".75" fill="#000" fill-opacity=".2" />
            <ellipse cx="12.25" cy="5" rx=".75" ry=".5" fill="#7445B8" />
            <ellipse cx="12.25" cy="5" rx=".75" ry=".5" fill="#fff" fill-opacity=".2" />
            <ellipse cx="6.75" cy="9.5" rx=".75" ry=".5" fill="#7445B8" />
            <ellipse cx="6.75" cy="9.5" rx=".75" ry=".5" fill="#fff" fill-opacity=".2" />
            <ellipse cx="37.75" cy="5" rx=".75" ry=".5" fill="#7445B8" />
            <ellipse cx="37.75" cy="5" rx=".75" ry=".5" fill="#fff" fill-opacity=".2" />
            <ellipse cx="43.25" cy="9.5" rx=".75" ry=".5" fill="#7445B8" />
            <ellipse cx="43.25" cy="9.5" rx=".75" ry=".5" fill="#fff" fill-opacity=".2" />
            <path fill="#7445B8" d="m11.963 14.97 26-.007.007 26-26 .007z" />
            <path fill="#000" fill-opacity=".4" d="m11.963 14.97 26-.007.007 26-26 .007z" />
            <ellipse cx="25.172" cy="27.162" rx="10.212" ry="8.718" transform="rotate(-.015 25.172 27.162)"
                fill="#D0333D" />
            <ellipse cx="25.172" cy="27.162" rx="10.212" ry="8.718" transform="rotate(-.015 25.172 27.162)" fill="#fff"
                fill-opacity=".9" />
            <path
                d="M14.497 27.405c-.59.195-.574 1.059-.492 1.466l2.707 9.041c.243.46.4.635.99 1.222.59.586 1.468.733 1.714.732l11.553-.003c.246-.081.931-.249 1.475-.733.528-.47.9-.978.983-1.222l2.455-9.532c0-.325-.148-1.026-.737-1.221-.738-.244-1.72 1.466-2.95 1.467-1.229 0-2.458-1.71-3.933-1.71-1.475 0-1.966 1.711-3.195 1.712-1.23 0-2.459-1.71-3.934-1.71-1.474 0-2.703 1.711-3.686 1.712-.983 0-2.213-1.466-2.95-1.221Z"
                fill="#CE4317" />
            <path
                d="M14.497 27.405c-.59.195-.574 1.059-.492 1.466l2.707 9.041c.243.46.4.635.99 1.222.59.586 1.468.733 1.714.732l11.553-.003c.246-.081.931-.249 1.475-.733.528-.47.9-.978.983-1.222l2.455-9.532c0-.325-.148-1.026-.737-1.221-.738-.244-1.72 1.466-2.95 1.467-1.229 0-2.458-1.71-3.933-1.71-1.475 0-1.966 1.711-3.195 1.712-1.23 0-2.459-1.71-3.934-1.71-1.474 0-2.703 1.711-3.686 1.712-.983 0-2.213-1.466-2.95-1.221Z"
                fill="#fff" fill-opacity=".6" />
            <circle cx="28.408" cy="19.938" r="3.487" transform="rotate(-.015 28.408 19.938)" fill="#D0333D" />
            <circle cx="28.408" cy="19.938" r="3.487" transform="rotate(-.015 28.408 19.938)" fill="#000"
                fill-opacity=".2" />
            <path d="M31.396 16.45c-.2.37-.299.665-.896 1.329-.375.417-.498.59-.598.664" stroke="#2FC4A7"
                stroke-width=".498" stroke-linecap="round" />
        </g>
        <defs>
            <clipPath id="aoca">
                <path fill="#fff" transform="matrix(-1 0 0 1 50 0)" d="M0 0h50v50H0z" />
            </clipPath>
        </defs>
    </svg>