<?xml version="1.0" encoding="utf-8"?><svg fill="none" viewBox="0 0 50 50" xmlns="http://www.w3.org/2000/svg" width="50" height="50"><g clip-path="url(#ania)"><rect x="3.491" y="27.5" width="30.355" height="30.355" rx="8.37" transform="rotate(-45 3.491 27.5)" fill="#7445B8" stroke="#A272E4" stroke-width="5"/><rect x="1.37" y="27.5" width="33.355" height="33.355" rx="9.87" transform="rotate(-45 1.37 27.5)" stroke="#7445B8" stroke-width="2"/><rect x="1.37" y="27.5" width="33.355" height="33.355" rx="9.87" transform="rotate(-45 1.37 27.5)" stroke="#fff" stroke-opacity=".6" stroke-width="2"/><circle cx="24.991" cy="11.972" r="2" fill="#080B16"/><path d="M27.016 4.343c.162.703.178 1.705-.039 2.82l-.007.033c.75.14 1.174.27 1.93.548l.04-.2c.258-1.323.264-2.615.026-3.65-.119-.515-.309-1.014-.6-1.423-.294-.415-.73-.783-1.32-.898-.59-.115-1.132.063-1.56.337-.424.27-.787.662-1.09 1.095-.609.87-1.088 2.07-1.345 3.394-.258 1.324-.264 2.616-.026 3.65.118.516.309 1.015.6 1.424.294.414.73.783 1.32.897.59.115 1.132-.063 1.56-.336.162-.104.315-.225.46-.36-.142-.831-.41-1.151-1.257-1.57a1.475 1.475 0 0 1-.279.244.466.466 0 0 1-.1.05.467.467 0 0 1-.075-.084c-.091-.13-.198-.36-.28-.713-.161-.703-.177-1.705.04-2.82.217-1.115.607-2.038 1.02-2.629.208-.297.394-.47.528-.556a.48.48 0 0 1 .1-.051c.016.014.042.04.074.085.092.13.2.36.28.713Z" fill="#7445B8"/><path d="M27.016 4.343c.162.703.178 1.705-.039 2.82l-.007.033c.75.14 1.174.27 1.93.548l.04-.2c.258-1.323.264-2.615.026-3.65-.119-.515-.309-1.014-.6-1.423-.294-.415-.73-.783-1.32-.898-.59-.115-1.132.063-1.56.337-.424.27-.787.662-1.09 1.095-.609.87-1.088 2.07-1.345 3.394-.258 1.324-.264 2.616-.026 3.65.118.516.309 1.015.6 1.424.294.414.73.783 1.32.897.59.115 1.132-.063 1.56-.336.162-.104.315-.225.46-.36-.142-.831-.41-1.151-1.257-1.57a1.475 1.475 0 0 1-.279.244.466.466 0 0 1-.1.05.467.467 0 0 1-.075-.084c-.091-.13-.198-.36-.28-.713-.161-.703-.177-1.705.04-2.82.217-1.115.607-2.038 1.02-2.629.208-.297.394-.47.528-.556a.48.48 0 0 1 .1-.051c.016.014.042.04.074.085.092.13.2.36.28.713Z" fill="#fff" fill-opacity=".2"/><path d="M27.015 4.33c.161.707.177 1.713-.04 2.834l-.006.032c.302.058.471.094.778.177.332-1.5.283-2.83-.053-3.415-.45-.783-.762-.568-1.034-.43.016.015.042.04.074.086.092.13.2.362.28.717Z" fill="#7445B8"/><path d="M27.015 4.33c.161.707.177 1.713-.04 2.834l-.006.032c.302.058.471.094.778.177.332-1.5.283-2.83-.053-3.415-.45-.783-.762-.568-1.034-.43.016.015.042.04.074.086.092.13.2.362.28.717Z" fill="#000" fill-opacity=".2"/><path d="M25.426 10.364a.47.47 0 0 1-.1.05c.136.204.667.577 1.086.117-.277-.232-.672-.434-.708-.43 0 0-.2.213-.278.263Z" fill="#7445B8"/><path d="M25.426 10.364a.47.47 0 0 1-.1.05c.136.204.667.577 1.086.117-.277-.232-.672-.434-.708-.43 0 0-.2.213-.278.263Z" fill="#000" fill-opacity=".2"/><path d="M29 34.349C29 35.864 28.595 37 24.952 37c-1.484 0-4.452-.53-4.452-2.651 0-2.652 1.214-9.849 4.452-9.849S29 32.833 29 34.349Z" fill="#7445B8"/><path d="M29 34.349C29 35.864 28.595 37 24.952 37c-1.484 0-4.452-.53-4.452-2.651 0-2.652 1.214-9.849 4.452-9.849S29 32.833 29 34.349Z" fill="#fff" fill-opacity=".8"/><path d="M34.937 26.75c.738-1.964-5.165-8.25-9.962-8.25-5.902 0-10.256 6.679-9.96 8.25.368 1.964 5.902 2.75 9.96 2.75 4.059 0 9.224-.786 9.962-2.75Z" fill="#7445B8"/><path d="M34.937 26.75c.738-1.964-5.165-8.25-9.962-8.25-5.902 0-10.256 6.679-9.96 8.25.368 1.964 5.902 2.75 9.96 2.75 4.059 0 9.224-.786 9.962-2.75Z" fill="#fff" fill-opacity=".8"/><path d="M22.883 22.119c.597-.462 1.497-.778.73-1.521-.767-.743-1.81-.122-2.407.34-.755.584-1.485 1.531-.72 2.274 1.021.99 1.8-.632 2.397-1.093Z" fill="#7445B8"/><path d="M22.883 22.119c.597-.462 1.497-.778.73-1.521-.767-.743-1.81-.122-2.407.34-.755.584-1.485 1.531-.72 2.274 1.021.99 1.8-.632 2.397-1.093Z" fill="#fff" fill-opacity=".8"/><path d="M20.186 24.654c-.218-.425-.756-.953-1.181-.735-.425.218-.91.842-.735 1.181.218.425.58 1.042 1.181.735.425-.218.89-.881.735-1.181Z" fill="#7445B8"/><path d="M20.186 24.654c-.218-.425-.756-.953-1.181-.735-.425.218-.91.842-.735 1.181.218.425.58 1.042 1.181.735.425-.218.89-.881.735-1.181Z" fill="#fff" fill-opacity=".8"/></g><defs><clipPath id="ania"><path fill="#fff" transform="matrix(-1 0 0 1 50 0)" d="M0 0h50v50H0z"/></clipPath></defs></svg>