<svg width="50" height="50" viewBox="0 0 50 50" fill="none" xmlns="http://www.w3.org/2000/svg">
<ellipse cx="25.2242" cy="24.7471" rx="20.8297" ry="20.8297" fill="#546DDB"/>
<ellipse cx="25.2242" cy="24.7471" rx="20.8297" ry="20.8297" fill="white" fill-opacity="0.95"/>
<path d="M4.39453 24.7471C4.39453 36.251 13.7203 45.5767 25.2242 45.5767C33.2872 45.5767 40.2801 40.9955 43.7421 34.294C39.1106 39.0675 30.4316 45.1428 18.7149 38.6335C6.99824 32.1242 6.99824 21.7094 7.86614 13.229C5.67261 16.5281 4.39453 20.4883 4.39453 24.7471Z" fill="#546DDB"/>
<path d="M4.39453 24.7471C4.39453 36.251 13.7203 45.5767 25.2242 45.5767C33.2872 45.5767 40.2801 40.9955 43.7421 34.294C39.1106 39.0675 30.4316 45.1428 18.7149 38.6335C6.99824 32.1242 6.99824 21.7094 7.86614 13.229C5.67261 16.5281 4.39453 20.4883 4.39453 24.7471Z" fill="white" fill-opacity="0.6"/>
<path d="M7.43228 35.1619C7.5785 34.3694 7.76301 33.9839 8.30018 33.4261M8.30018 33.4261C7.75362 32.1388 7.51955 31.3932 7.43228 29.9545C7.43225 28.9374 7.43232 29.2361 7.43228 28.2187M8.30018 33.4261C9.24767 33.322 9.81117 33.3127 10.9039 33.4261M7.43228 28.2187C9.37324 27.8284 10.0519 26.4871 10.4699 25.181M7.43228 28.2187L6.13042 26.4829C5.69647 26.0489 6.13042 24.3131 6.99832 23.8791M6.99832 23.8791C7.0067 23.8124 6.13042 23.0112 4.65503 23.8791M6.99832 23.8791C8.01088 22.7219 9.94919 19.7132 9.60203 16.9359M10.9039 33.4261C10.9265 35.2368 11.3034 36.2922 12.6397 38.1995C14.1739 39.9616 15.2968 40.8288 17.8471 42.1051M10.9039 33.4261C12.8331 33.7157 13.7908 34.0785 15.2434 35.1619M17.8471 42.1051C19.1219 42.867 19.5989 43.4359 20.0169 44.7088M17.8471 42.1051C19.2559 41.5104 20.0992 41.3723 21.7527 41.6711M21.7527 41.6711C22.9603 42.297 23.6258 42.4023 24.7903 42.1051M21.7527 41.6711C21.7527 41.6711 23.0545 40.8032 23.4885 39.9353C23.9224 39.0674 23.4885 37.3316 23.4885 37.3316M15.2434 35.1619C16.7686 34.8523 17.6237 34.8167 19.149 35.1619M15.2434 35.1619C16.0527 36.0279 16.3342 36.5028 16.5453 37.3316M33.0354 40.3693C33.4694 42.1051 33.4694 42.7665 33.4694 43.8409C32.8543 43.6871 31.8386 43.329 30.8657 42.7665M33.0354 40.3693C32.7026 39.038 31.7336 37.7656 29.9977 36.8977M33.0354 40.3693C33.9033 39.9353 34.858 38.8071 35.2052 37.7656M35.2052 37.7656C35.6391 36.4637 35.6391 36.0298 35.6391 34.7279M35.2052 37.7656C35.7838 37.7656 37.1145 37.6788 37.8089 37.3316M30.8657 42.7665C30.0082 42.2708 29.1838 41.6164 28.6959 40.8032M30.8657 42.7665C30.4317 43.1247 29.2166 43.7541 27.828 43.407M9.60203 16.9359C9.25487 14.1586 8.58948 12.8857 8.30018 12.5964M9.60203 16.9359C9.8838 16.5133 10.3645 15.8848 10.9039 15.3512M12.6397 14.3322C12.1054 14.3322 11.4721 14.7891 10.9039 15.3512M10.9039 15.3512C11.0485 15.8794 11.5982 17.1095 12.6397 17.8038M12.6397 17.8038C13.6812 18.4981 13.9415 19.2503 13.9415 19.5396M12.6397 17.8038C12.495 18.961 12.4661 21.449 13.5076 22.1433" stroke="#D0333D" stroke-width="0.433951" stroke-linecap="round" stroke-linejoin="round"/>
<path d="M7.43228 35.1619C7.5785 34.3694 7.76301 33.9839 8.30018 33.4261M8.30018 33.4261C7.75362 32.1388 7.51955 31.3932 7.43228 29.9545C7.43225 28.9374 7.43232 29.2361 7.43228 28.2187M8.30018 33.4261C9.24767 33.322 9.81117 33.3127 10.9039 33.4261M7.43228 28.2187C9.37324 27.8284 10.0519 26.4871 10.4699 25.181M7.43228 28.2187L6.13042 26.4829C5.69647 26.0489 6.13042 24.3131 6.99832 23.8791M6.99832 23.8791C7.0067 23.8124 6.13042 23.0112 4.65503 23.8791M6.99832 23.8791C8.01088 22.7219 9.94919 19.7132 9.60203 16.9359M10.9039 33.4261C10.9265 35.2368 11.3034 36.2922 12.6397 38.1995C14.1739 39.9616 15.2968 40.8288 17.8471 42.1051M10.9039 33.4261C12.8331 33.7157 13.7908 34.0785 15.2434 35.1619M17.8471 42.1051C19.1219 42.867 19.5989 43.4359 20.0169 44.7088M17.8471 42.1051C19.2559 41.5104 20.0992 41.3723 21.7527 41.6711M21.7527 41.6711C22.9603 42.297 23.6258 42.4023 24.7903 42.1051M21.7527 41.6711C21.7527 41.6711 23.0545 40.8032 23.4885 39.9353C23.9224 39.0674 23.4885 37.3316 23.4885 37.3316M15.2434 35.1619C16.7686 34.8523 17.6237 34.8167 19.149 35.1619M15.2434 35.1619C16.0527 36.0279 16.3342 36.5028 16.5453 37.3316M33.0354 40.3693C33.4694 42.1051 33.4694 42.7665 33.4694 43.8409C32.8543 43.6871 31.8386 43.329 30.8657 42.7665M33.0354 40.3693C32.7026 39.038 31.7336 37.7656 29.9977 36.8977M33.0354 40.3693C33.9033 39.9353 34.858 38.8071 35.2052 37.7656M35.2052 37.7656C35.6391 36.4637 35.6391 36.0298 35.6391 34.7279M35.2052 37.7656C35.7838 37.7656 37.1145 37.6788 37.8089 37.3316M30.8657 42.7665C30.0082 42.2708 29.1838 41.6164 28.6959 40.8032M30.8657 42.7665C30.4317 43.1247 29.2166 43.7541 27.828 43.407M9.60203 16.9359C9.25487 14.1586 8.58948 12.8857 8.30018 12.5964M9.60203 16.9359C9.8838 16.5133 10.3645 15.8848 10.9039 15.3512M12.6397 14.3322C12.1054 14.3322 11.4721 14.7891 10.9039 15.3512M10.9039 15.3512C11.0485 15.8794 11.5982 17.1095 12.6397 17.8038M12.6397 17.8038C13.6812 18.4981 13.9415 19.2503 13.9415 19.5396M12.6397 17.8038C12.495 18.961 12.4661 21.449 13.5076 22.1433" stroke="white" stroke-opacity="0.4" stroke-width="0.433951" stroke-linecap="round" stroke-linejoin="round"/>
<ellipse cx="29.5636" cy="20.4075" rx="12.1506" ry="13.0185" transform="rotate(-34.2042 29.5636 20.4075)" fill="#D0333D"/>
<path d="M27.4495 17.2972L23.2211 11.0763M35.9062 29.7389L31.6778 23.518M32.4348 18.456L38.1771 14.5529M20.9502 26.2622L26.6925 22.3591M33.0888 21.227L40.1392 22.8659M18.9882 17.9492L26.0385 19.5881M30.0989 16.8282L31.1695 9.66953M27.9579 31.1456L29.0284 23.9869M31.452 17.4459L35.2285 11.5226M23.8988 29.2925L27.6754 23.3692M33.0145 19.7502L39.9162 18.4353M19.2112 22.3798L26.1128 21.065M28.683 16.7918L26.9218 9.56036M32.2056 31.2548L30.4443 24.0233M32.6272 22.5155L38.7543 26.7314M20.373 14.0838L26.5001 18.2997" stroke="#D0333D" stroke-width="0.857647" stroke-linecap="round"/>
<path d="M27.4495 17.2972L23.2211 11.0763M35.9062 29.7389L31.6778 23.518M32.4348 18.456L38.1771 14.5529M20.9502 26.2622L26.6925 22.3591M33.0888 21.227L40.1392 22.8659M18.9882 17.9492L26.0385 19.5881M30.0989 16.8282L31.1695 9.66953M27.9579 31.1456L29.0284 23.9869M31.452 17.4459L35.2285 11.5226M23.8988 29.2925L27.6754 23.3692M33.0145 19.7502L39.9162 18.4353M19.2112 22.3798L26.1128 21.065M28.683 16.7918L26.9218 9.56036M32.2056 31.2548L30.4443 24.0233M32.6272 22.5155L38.7543 26.7314M20.373 14.0838L26.5001 18.2997" stroke="white" stroke-opacity="0.4" stroke-width="0.857647" stroke-linecap="round"/>
<ellipse cx="29.7009" cy="19.5722" rx="4.72752" ry="5.20742" transform="rotate(-34.2042 29.7009 19.5722)" fill="#D0333D"/>
<ellipse cx="29.7009" cy="19.5722" rx="4.72752" ry="5.20742" transform="rotate(-34.2042 29.7009 19.5722)" fill="black" fill-opacity="0.8"/>
<ellipse cx="1.99202" cy="3.43642" rx="1.99202" ry="3.43642" transform="matrix(0.999076 -0.0429867 0.102545 0.994728 17.7263 16.6477)" fill="#FEFEFE"/>
</svg>
