<svg width="50" height="50" viewBox="0 0 50 50" fill="none" xmlns="http://www.w3.org/2000/svg">
<path d="M24 10V14H28V10H24Z" fill="#FAA21E"/>
<path d="M34.0001 6C38.0001 6.5 42.5001 8.64286 45.5001 12.5C48.5001 16.3571 48.9999 22 48 26C46.9385 30.2466 39.5001 37.5 33.0001 36C27.1365 34.6469 23.5001 26 18.0001 23.5C13.0765 21.262 4.00011 25 2.00009 31.5C7.17044e-05 38 3.5001 43 5.0001 44" stroke="#FAA21E" stroke-width="2"/>
<ellipse cx="32" cy="5.6" rx="2" ry="1.6" stroke="#FAA21E" stroke-width="0.8"/>
<ellipse cx="32" cy="5.6" rx="2" ry="1.6" stroke="black" stroke-opacity="0.1" stroke-width="0.8"/>
<path d="M31.5 5C31.5 5.88538 30.9617 6.74814 29.9653 7.4124C28.9724 8.07434 27.5719 8.5 26 8.5C24.4281 8.5 23.0276 8.07434 22.0347 7.4124C21.0383 6.74814 20.5 5.88538 20.5 5C20.5 4.11462 21.0383 3.25186 22.0347 2.5876C23.0276 1.92566 24.4281 1.5 26 1.5C27.5719 1.5 28.9724 1.92566 29.9653 2.5876C30.9617 3.25186 31.5 4.11462 31.5 5Z" stroke="#FAA21E"/>
<path d="M34 5.59998C34 6.48363 33.1046 7.19998 32 7.19998C30.8954 7.19998 30 6.48363 30 5.59998" stroke="#FAA21E" stroke-width="0.8"/>
<path d="M34 5.59998C34 6.48363 33.1046 7.19998 32 7.19998C30.8954 7.19998 30 6.48363 30 5.59998" stroke="black" stroke-opacity="0.1" stroke-width="0.8"/>
<ellipse cx="26" cy="8.5" rx="4" ry="2.5" fill="#FAA21E"/>
<ellipse cx="26" cy="8.5" rx="4" ry="2.5" fill="black" fill-opacity="0.1"/>
<circle cx="25.5" cy="30.5" r="17.5" fill="#C57A09"/>
<circle cx="25.446" cy="30.4459" r="16.5" fill="#FAA21E"/>
<ellipse cx="25.6569" cy="30.3229" rx="14.5808" ry="14.5808" fill="#546DDB"/>
<ellipse cx="25.6569" cy="30.3229" rx="14.5808" ry="14.5808" fill="white" fill-opacity="0.95"/>
<path d="M11.0762 30.3229C11.0762 38.3757 17.6042 44.9037 25.6569 44.9037C31.301 44.9037 36.1961 41.6968 38.6195 37.0058C35.3774 40.3472 29.3021 44.5999 21.1004 40.0435C12.8988 35.487 12.8988 28.1966 13.5063 22.2603C11.9708 24.5696 11.0762 27.3418 11.0762 30.3229Z" fill="#546DDB"/>
<path d="M11.0762 30.3229C11.0762 38.3757 17.6042 44.9037 25.6569 44.9037C31.301 44.9037 36.1961 41.6968 38.6195 37.0058C35.3774 40.3472 29.3021 44.5999 21.1004 40.0435C12.8988 35.487 12.8988 28.1966 13.5063 22.2603C11.9708 24.5696 11.0762 27.3418 11.0762 30.3229Z" fill="white" fill-opacity="0.6"/>
<path d="M13.2026 37.6133C13.305 37.0586 13.4341 36.7887 13.8101 36.3982M13.8101 36.3982C13.4276 35.4971 13.2637 34.9752 13.2026 33.9681C13.2026 33.2562 13.2027 33.4653 13.2026 32.7531M13.8101 36.3982C14.4734 36.3254 14.8678 36.3189 15.6327 36.3982M13.2026 32.7531C14.5613 32.4799 15.0363 31.5409 15.329 30.6267M13.2026 32.7531L12.2913 31.538C11.9876 31.2342 12.2913 30.0192 12.8989 29.7154M12.8989 29.7154C12.9047 29.6687 12.2913 29.1079 11.2585 29.7154M12.8989 29.7154C13.6076 28.9054 14.9645 26.7992 14.7214 24.8551M15.6327 36.3982C15.6485 37.6658 15.9124 38.4046 16.8478 39.7397C17.9218 40.9731 18.7078 41.5802 20.493 42.4736M15.6327 36.3982C16.9832 36.601 17.6536 36.8549 18.6704 37.6133M20.493 42.4736C21.3854 43.0069 21.7193 43.4051 22.0118 44.2962M20.493 42.4736C21.4792 42.0573 22.0695 41.9606 23.2269 42.1698M23.2269 42.1698C24.0723 42.6079 24.5381 42.6816 25.3533 42.4736M23.2269 42.1698C23.2269 42.1698 24.1382 41.5623 24.442 40.9547C24.7457 40.3472 24.442 39.1321 24.442 39.1321M18.6704 37.6133C19.7381 37.3966 20.3366 37.3717 21.4043 37.6133M18.6704 37.6133C19.2369 38.2195 19.4339 38.5519 19.5817 39.1321M31.1248 41.2585C31.4286 42.4736 31.4286 42.9366 31.4286 43.6886C30.998 43.581 30.2871 43.3303 29.606 42.9366M31.1248 41.2585C30.8918 40.3266 30.2135 39.4359 28.9984 38.8284M31.1248 41.2585C31.7323 40.9547 32.4006 40.1649 32.6436 39.4359M32.6436 39.4359C32.9474 38.5246 32.9474 38.2208 32.9474 37.3095M32.6436 39.4359C33.0487 39.4359 33.9802 39.3752 34.4662 39.1321M29.606 42.9366C29.0057 42.5896 28.4287 42.1315 28.0871 41.5623M29.606 42.9366C29.3022 43.1873 28.4517 43.6279 27.4796 43.3849M14.7214 24.8551C14.4784 22.911 14.0127 22.02 13.8101 21.8175M14.7214 24.8551C14.9187 24.5593 15.2552 24.1194 15.6327 23.7458M16.8478 23.0325C16.4738 23.0325 16.0305 23.3523 15.6327 23.7458M15.6327 23.7458C15.734 24.1156 16.1188 24.9766 16.8478 25.4627M16.8478 25.4627C17.5768 25.9487 17.7591 26.4752 17.7591 26.6777M16.8478 25.4627C16.7466 26.2727 16.7263 28.0143 17.4553 28.5003" stroke="#D0333D" stroke-width="0.303766" stroke-linecap="round" stroke-linejoin="round"/>
<path d="M13.2026 37.6133C13.305 37.0586 13.4341 36.7887 13.8101 36.3982M13.8101 36.3982C13.4276 35.4971 13.2637 34.9752 13.2026 33.9681C13.2026 33.2562 13.2027 33.4653 13.2026 32.7531M13.8101 36.3982C14.4734 36.3254 14.8678 36.3189 15.6327 36.3982M13.2026 32.7531C14.5613 32.4799 15.0363 31.5409 15.329 30.6267M13.2026 32.7531L12.2913 31.538C11.9876 31.2342 12.2913 30.0192 12.8989 29.7154M12.8989 29.7154C12.9047 29.6687 12.2913 29.1079 11.2585 29.7154M12.8989 29.7154C13.6076 28.9054 14.9645 26.7992 14.7214 24.8551M15.6327 36.3982C15.6485 37.6658 15.9124 38.4046 16.8478 39.7397C17.9218 40.9731 18.7078 41.5802 20.493 42.4736M15.6327 36.3982C16.9832 36.601 17.6536 36.8549 18.6704 37.6133M20.493 42.4736C21.3854 43.0069 21.7193 43.4051 22.0118 44.2962M20.493 42.4736C21.4792 42.0573 22.0695 41.9606 23.2269 42.1698M23.2269 42.1698C24.0723 42.6079 24.5381 42.6816 25.3533 42.4736M23.2269 42.1698C23.2269 42.1698 24.1382 41.5623 24.442 40.9547C24.7457 40.3472 24.442 39.1321 24.442 39.1321M18.6704 37.6133C19.7381 37.3966 20.3366 37.3717 21.4043 37.6133M18.6704 37.6133C19.2369 38.2195 19.4339 38.5519 19.5817 39.1321M31.1248 41.2585C31.4286 42.4736 31.4286 42.9366 31.4286 43.6886C30.998 43.581 30.2871 43.3303 29.606 42.9366M31.1248 41.2585C30.8918 40.3266 30.2135 39.4359 28.9984 38.8284M31.1248 41.2585C31.7323 40.9547 32.4006 40.1649 32.6436 39.4359M32.6436 39.4359C32.9474 38.5246 32.9474 38.2208 32.9474 37.3095M32.6436 39.4359C33.0487 39.4359 33.9802 39.3752 34.4662 39.1321M29.606 42.9366C29.0057 42.5896 28.4287 42.1315 28.0871 41.5623M29.606 42.9366C29.3022 43.1873 28.4517 43.6279 27.4796 43.3849M14.7214 24.8551C14.4784 22.911 14.0127 22.02 13.8101 21.8175M14.7214 24.8551C14.9187 24.5593 15.2552 24.1194 15.6327 23.7458M16.8478 23.0325C16.4738 23.0325 16.0305 23.3523 15.6327 23.7458M15.6327 23.7458C15.734 24.1156 16.1188 24.9766 16.8478 25.4627M16.8478 25.4627C17.5768 25.9487 17.7591 26.4752 17.7591 26.6777M16.8478 25.4627C16.7466 26.2727 16.7263 28.0143 17.4553 28.5003" stroke="white" stroke-opacity="0.4" stroke-width="0.303766" stroke-linecap="round" stroke-linejoin="round"/>
<ellipse cx="28.6945" cy="27.2852" rx="8.50545" ry="9.11298" transform="rotate(-34.2042 28.6945 27.2852)" fill="#D0333D"/>
<path d="M27.2146 25.108L24.2548 20.7534M33.1343 33.8172L30.1745 29.4626M30.7044 25.9192L34.724 23.1871M22.6651 31.3836L26.6847 28.6514M31.1622 27.8589L36.0974 29.0062M21.2917 25.5645L26.2269 26.7117M29.0692 24.7798L29.8186 19.7687M27.5705 34.8019L28.3199 29.7909M30.0163 25.2121L32.6599 21.0658M24.7291 33.5048L27.3727 29.3585M31.1101 26.8251L35.9413 25.9047M21.4478 28.6659L26.279 27.7455M28.0781 24.7543L26.8452 19.6923M30.5439 34.8784L29.311 29.8163M30.839 28.7609L35.128 31.712M22.2611 22.8587L26.5501 25.8098" stroke="#D0333D" stroke-width="0.600353" stroke-linecap="round"/>
<path d="M27.2146 25.108L24.2548 20.7534M33.1343 33.8172L30.1745 29.4626M30.7044 25.9192L34.724 23.1871M22.6651 31.3836L26.6847 28.6514M31.1622 27.8589L36.0974 29.0062M21.2917 25.5645L26.2269 26.7117M29.0692 24.7798L29.8186 19.7687M27.5705 34.8019L28.3199 29.7909M30.0163 25.2121L32.6599 21.0658M24.7291 33.5048L27.3727 29.3585M31.1101 26.8251L35.9413 25.9047M21.4478 28.6659L26.279 27.7455M28.0781 24.7543L26.8452 19.6923M30.5439 34.8784L29.311 29.8163M30.839 28.7609L35.128 31.712M22.2611 22.8587L26.5501 25.8098" stroke="white" stroke-opacity="0.4" stroke-width="0.600353" stroke-linecap="round"/>
<ellipse cx="28.7907" cy="26.7005" rx="3.30927" ry="3.64519" transform="rotate(-34.2042 28.7907 26.7005)" fill="#D0333D"/>
<ellipse cx="28.7907" cy="26.7005" rx="3.30927" ry="3.64519" transform="rotate(-34.2042 28.7907 26.7005)" fill="black" fill-opacity="0.8"/>
<ellipse cx="1.39441" cy="2.40549" rx="1.39441" ry="2.40549" transform="matrix(0.999076 -0.0429867 0.102545 0.994728 20.4084 24.6534)" fill="#FEFEFE"/>
<path d="M2.36598 47.3653L8.27793 41.2786" stroke="#FAA21E" stroke-width="2" stroke-linecap="round"/>
</svg>
