<svg width="50" height="50" viewBox="0 0 50 50" fill="none" xmlns="http://www.w3.org/2000/svg">
<circle cx="25" cy="25" r="22.5" stroke="#1D8CE0"/>
<circle cx="25" cy="25" r="22.5" stroke="white" stroke-opacity="0.95"/>
<path d="M40.5 32C43.7 24.4 40.5 15.5 35.5 11C36.5 15.5 35.8 22.2 33 29C30.2 35.8 23.8333 40.1667 21 41.5C26.5 43 37.3 39.6 40.5 32Z" fill="#FEFEFE" fill-opacity="0.15"/>
<circle cx="12.8824" cy="25.4706" r="5.88235" fill="#FAA21E"/>
<circle cx="12.8824" cy="25.4706" r="5.88235" fill="white" fill-opacity="0.95"/>
<circle cx="12.8823" cy="25.4706" r="3.52941" fill="#1D8CE0"/>
<circle cx="12.8823" cy="25.4706" r="3.52941" fill="black" fill-opacity="0.2"/>
<circle cx="10.5294" cy="25.4707" r="1.17647" fill="#FEFEFE"/>
<circle cx="26.8824" cy="32.8824" r="5.88235" fill="#FAA21E"/>
<circle cx="26.8824" cy="32.8824" r="5.88235" fill="white" fill-opacity="0.95"/>
<circle cx="26.8823" cy="30.8823" r="3.52941" fill="#FAA21E"/>
<circle cx="26.8823" cy="30.8823" r="3.52941" fill="black" fill-opacity="0.4"/>
<circle cx="28.0588" cy="29.0588" r="1.17647" fill="#FEFEFE"/>
<circle cx="30.8824" cy="14.8824" r="5.88235" fill="#FAA21E"/>
<circle cx="30.8824" cy="14.8824" r="5.88235" fill="white" fill-opacity="0.95"/>
<circle cx="33.2353" cy="14.8824" r="3.52941" fill="#2FC4A7"/>
<circle cx="33.2353" cy="14.8824" r="3.52941" fill="black" fill-opacity="0.2"/>
<circle cx="35.4118" cy="15.7059" r="1.17647" fill="#FEFEFE"/>
<path d="M14.5 9.00006C11.6489 11.5108 10.5 15 10.5 18C10.9875 15.933 14.0949 11.7432 17 10.0001C19.4724 8.5166 21.5 7.00006 25 6.50006C21.5 6.00006 17.3512 6.48933 14.5 9.00006Z" fill="#FEFEFE"/>
<path d="M34 40.0001C37.5 38.0001 41 33.0001 41 30.0001C40.2571 33.0001 36.2975 36.8405 33.5 38.5001C30.4369 40.3173 24.5 42.0001 21 42.0001C24.5 43.0001 30 42.2858 34 40.0001Z" fill="#FEFEFE"/>
</svg>
