<svg width="50" height="50" viewBox="0 0 50 50" fill="none" xmlns="http://www.w3.org/2000/svg">
<g clip-path="url(#clip0_2644_11522)">
<path d="M39.7367 5.32922C38.1358 2.13648 33.5229 -0.223472 21.0952 1.62743C16.2623 2.61458 6.45826 5.47733 5.90592 9.03105C5.2155 13.4732 15.1493 7.54097 16.1274 11.6223C17.1056 15.7036 1.4552 19.3326 3.14423 24.2084C4.42935 27.9182 15.5718 27.1698 20.4048 27.9102L20.4792 27.9216C25.2822 28.6573 29.5832 29.3162 32.142 30.5015C36.6686 32.5982 35.2014 26.2111 32.142 24.2084C29.6192 22.557 25.4199 21.298 24.4417 17.8588C23.4636 14.4196 28.6899 13.8434 33.5229 11.6223C38.3558 9.40123 40.6453 7.14131 39.7367 5.32922Z" stroke="#898989" stroke-width="2" stroke-linecap="round"/>
<path d="M39.7367 5.32922C38.1358 2.13648 33.5229 -0.223472 21.0952 1.62743C16.2623 2.61458 6.45826 5.47733 5.90592 9.03105C5.2155 13.4732 15.1493 7.54097 16.1274 11.6223C17.1056 15.7036 1.4552 19.3326 3.14423 24.2084C4.42935 27.9182 15.5718 27.1698 20.4048 27.9102L20.4792 27.9216C25.2822 28.6573 29.5832 29.3162 32.142 30.5015C36.6686 32.5982 35.2014 26.2111 32.142 24.2084C29.6192 22.557 25.4199 21.298 24.4417 17.8588C23.4636 14.4196 28.6899 13.8434 33.5229 11.6223C38.3558 9.40123 40.6453 7.14131 39.7367 5.32922Z" stroke="white" stroke-opacity="0.6" stroke-width="2" stroke-linecap="round"/>
<path d="M35.9823 36.8793L34.1094 29.8899L48.7764 44.6881L41.849 42.7986L35.9823 36.8793Z" fill="#D0333D"/>
<path d="M35.9823 36.8793L34.1094 29.8899L48.7764 44.6881L41.849 42.7986L35.9823 36.8793Z" fill="white" fill-opacity="0.2"/>
<path d="M35.9822 36.8793L34.1094 29.8899L33.9579 30.4655L28.9581 49.4632L28.8066 50.0389L33.8611 44.9389L35.9822 36.8793Z" fill="#D0333D"/>
<path d="M35.9822 36.8793L34.1094 29.8899L33.9579 30.4655L28.9581 49.4632L28.8066 50.0389L33.8611 44.9389L35.9822 36.8793Z" fill="white" fill-opacity="0.4"/>
<path d="M28.8065 50.0389L33.8611 44.9389L41.849 42.7986L48.7764 44.688L28.8065 50.0389Z" fill="#D0333D"/>
<path d="M33.8611 44.9389L35.9822 36.8793L41.849 42.7985L33.8611 44.9389Z" fill="#D0333D"/>
<path d="M33.8611 44.9389L35.9822 36.8793L41.849 42.7985L33.8611 44.9389Z" fill="white" fill-opacity="0.6"/>
<path d="M33.8611 44.9388L35.9674 36.8237C35.7232 38.871 34.8832 42.7624 35.6609 43.4459C36.2796 43.9897 39.1246 43.4294 40.6287 43.1255L33.8611 44.9388Z" fill="#D0333D"/>
<path d="M33.8611 44.9388L35.9674 36.8237C35.7232 38.871 34.8832 42.7624 35.6609 43.4459C36.2796 43.9897 39.1246 43.4294 40.6287 43.1255L33.8611 44.9388Z" fill="white" fill-opacity="0.9"/>
</g>
<defs>
<clipPath id="clip0_2644_11522">
<rect width="50" height="50" fill="white"/>
</clipPath>
</defs>
</svg>
