<svg width="50" height="50" viewBox="0 0 50 50" fill="none" xmlns="http://www.w3.org/2000/svg">
<path d="M9.70074 1.99249H39.8518V4.98138L40.8481 6.97397H44.8333V47.8221H11.2738C10.7495 47.8221 8.12764 47.8221 6.55454 46.2597C4.98145 44.6974 4.98145 43.135 4.98145 42.6142V6.67961C4.98145 5.63803 5.71556 4.38813 6.55454 3.55487C7.39353 2.7216 8.65201 1.99249 9.70074 1.99249Z" fill="#7445B8"/>
<path d="M42.8407 9.0662L39.8518 4.98138V39.8518H37.8593L42.8407 45.8295V9.0662Z" fill="#898989"/>
<path d="M42.8407 9.0662L39.8518 4.98138V39.8518H37.8593L42.8407 45.8295V9.0662Z" fill="white" fill-opacity="0.2"/>
<path d="M10.093 39.8517H37.8593L42.8408 45.8295H10.093C9.58856 45.8295 6.97412 45.0823 6.97412 42.8406C6.97412 40.599 9.58856 39.8517 10.093 39.8517Z" fill="#898989"/>
<path d="M10.093 39.8517H37.8593L42.8408 45.8295H10.093C9.58856 45.8295 6.97412 45.0823 6.97412 42.8406C6.97412 40.599 9.58856 39.8517 10.093 39.8517Z" fill="white" fill-opacity="0.6"/>
<path d="M27.2909 35.6012C28.9165 35.9263 31.1922 35.6012 32.2366 35.3237C33.281 35.0461 35.3881 33.5952 36.0689 32.3501C37.2105 30.262 38.1188 27.963 37.5135 24.9367C37.1884 23.3112 36.226 17.7843 31.0114 17.0985C29.8044 16.9397 28.4105 16.4839 27.7603 15.5086C27.8642 16.0547 27.7515 16.5496 28.6253 17.0985C29.4276 17.6025 30.234 17.5123 30.8849 18.5904C31.417 19.4719 31.3918 20.262 30.3931 19.55C29.5942 18.9804 28.8817 18.9593 28.6253 19.0199C29.16 19.249 30.0659 19.8644 29.4113 20.4932C28.593 21.2792 28.3647 19.4239 26.7849 18.4345C25.2052 17.4452 26.4537 17.4592 25.4845 16.1588C24.9999 15.5086 24.1841 15.5086 23.5338 15.5086C24.4614 16.0547 25.1726 17.1781 24.1841 17.4592C22.9483 17.8106 22.9142 14.9602 22.1037 13.7889C21.4553 12.8519 20.7804 12.7389 20.524 12.7996C20.8105 12.9886 21.187 13.5553 20.4015 14.3099C19.4197 15.2531 18.7239 14.5288 18.126 12.5962C17.5281 10.6636 16.6686 10.0965 15.621 9.98861C14.5734 9.88075 13.4374 10.9333 12.8318 10.958C12.1617 10.9853 11.4915 10.2879 11.4915 9.61777C11.1565 10.2879 11.3985 11.8166 11.9551 12.396C12.6509 13.1203 14.3041 13.2035 14.6971 13.9402C15.0901 14.6769 15.3195 15.5707 14.5258 16.0547C13.8908 16.4418 13.4262 15.3468 13.2733 14.7509C13.2243 15.355 13.2934 16.7371 13.9614 17.4325C14.7963 18.3017 18.0783 18.7701 18.6594 19.0475C19.2406 19.3249 19.7972 19.9044 19.1426 20.5332C18.619 21.0362 17.8549 20.2846 17.5384 19.8459C17.4675 20.0997 17.4426 21.0128 17.7766 21.3605C18.1941 21.7951 18.6594 22.0107 19.1426 22.661C19.5267 23.1778 19.9576 23.6363 19.9576 24.2865C19.9576 25.09 18.9693 24.668 18.3321 24.5679C18.7496 25.0025 19.1426 25.789 19.9576 26.2372C20.6617 26.6243 21.6787 26.5287 21.9325 27.1205C22.1864 27.7123 22.2276 29.0654 21.3436 28.8004C20.6365 28.5883 19.2663 28.0819 18.8162 28.05C19.0945 28.3398 19.8461 29.4033 19.4533 29.7806C19.0691 30.1497 17.4124 29.0069 16.7175 28.5128C16.7006 28.4979 16.6857 28.4871 16.6729 28.481C16.6873 28.4913 16.7022 28.5019 16.7175 28.5128C16.9574 28.7246 17.5869 29.7774 17.7766 30.2197C18.0304 30.8115 19.4924 32.8702 20.933 33.7147C22.3736 34.5592 25.697 35.2824 27.2909 35.6012Z" fill="#898989"/>
<path d="M27.2909 35.6012C28.9165 35.9263 31.1922 35.6012 32.2366 35.3237C33.281 35.0461 35.3881 33.5952 36.0689 32.3501C37.2105 30.262 38.1188 27.963 37.5135 24.9367C37.1884 23.3112 36.226 17.7843 31.0114 17.0985C29.8044 16.9397 28.4105 16.4839 27.7603 15.5086C27.8642 16.0547 27.7515 16.5496 28.6253 17.0985C29.4276 17.6025 30.234 17.5123 30.8849 18.5904C31.417 19.4719 31.3918 20.262 30.3931 19.55C29.5942 18.9804 28.8817 18.9593 28.6253 19.0199C29.16 19.249 30.0659 19.8644 29.4113 20.4932C28.593 21.2792 28.3647 19.4239 26.7849 18.4345C25.2052 17.4452 26.4537 17.4592 25.4845 16.1588C24.9999 15.5086 24.1841 15.5086 23.5338 15.5086C24.4614 16.0547 25.1726 17.1781 24.1841 17.4592C22.9483 17.8106 22.9142 14.9602 22.1037 13.7889C21.4553 12.8519 20.7804 12.7389 20.524 12.7996C20.8105 12.9886 21.187 13.5553 20.4015 14.3099C19.4197 15.2531 18.7239 14.5288 18.126 12.5962C17.5281 10.6636 16.6686 10.0965 15.621 9.98861C14.5734 9.88075 13.4374 10.9333 12.8318 10.958C12.1617 10.9853 11.4915 10.2879 11.4915 9.61777C11.1565 10.2879 11.3985 11.8166 11.9551 12.396C12.6509 13.1203 14.3041 13.2035 14.6971 13.9402C15.0901 14.6769 15.3195 15.5707 14.5258 16.0547C13.8908 16.4418 13.4262 15.3468 13.2733 14.7509C13.2243 15.355 13.2934 16.7371 13.9614 17.4325C14.7963 18.3017 18.0783 18.7701 18.6594 19.0475C19.2406 19.3249 19.7972 19.9044 19.1426 20.5332C18.619 21.0362 17.8549 20.2846 17.5384 19.8459C17.4675 20.0997 17.4426 21.0128 17.7766 21.3605C18.1941 21.7951 18.6594 22.0107 19.1426 22.661C19.5267 23.1778 19.9576 23.6363 19.9576 24.2865C19.9576 25.09 18.9693 24.668 18.3321 24.5679C18.7496 25.0025 19.1426 25.789 19.9576 26.2372C20.6617 26.6243 21.6787 26.5287 21.9325 27.1205C22.1864 27.7123 22.2276 29.0654 21.3436 28.8004C20.6365 28.5883 19.2663 28.0819 18.8162 28.05C19.0945 28.3398 19.8461 29.4033 19.4533 29.7806C19.0691 30.1497 17.4124 29.0069 16.7175 28.5128C16.7006 28.4979 16.6857 28.4871 16.6729 28.481C16.6873 28.4913 16.7022 28.5019 16.7175 28.5128C16.9574 28.7246 17.5869 29.7774 17.7766 30.2197C18.0304 30.8115 19.4924 32.8702 20.933 33.7147C22.3736 34.5592 25.697 35.2824 27.2909 35.6012Z" fill="white" fill-opacity="0.95"/>
<path d="M11.6217 8.35727C11.834 8.60337 11.7938 9.10289 11.7472 9.32189C12.5574 8.62313 12.3355 7.95625 12.2294 7.8332C12.0967 7.67939 11.6988 7.21797 10.6932 7.28061C9.88867 7.33073 9.02191 6.84448 8.68909 6.59509L9.48499 7.51795C9.88295 7.97937 11.3564 8.04965 11.6217 8.35727Z" fill="#898989"/>
<path d="M11.6217 8.35727C11.834 8.60337 11.7938 9.10289 11.7472 9.32189C12.5574 8.62313 12.3355 7.95625 12.2294 7.8332C12.0967 7.67939 11.6988 7.21797 10.6932 7.28061C9.88867 7.33073 9.02191 6.84448 8.68909 6.59509L9.48499 7.51795C9.88295 7.97937 11.3564 8.04965 11.6217 8.35727Z" fill="white" fill-opacity="0.95"/>
<circle cx="30.04" cy="28.68" r="5.76" fill="#898989"/>
<circle cx="30.04" cy="28.68" r="5.76" fill="white" fill-opacity="0.6"/>
<circle cx="30.68" cy="29.32" r="3.84" fill="#898989"/>
<circle cx="30.68" cy="29.32" r="3.84" fill="white" fill-opacity="0.95"/>
</svg>
