<svg width="50" height="50" viewBox="0 0 50 50" fill="none" xmlns="http://www.w3.org/2000/svg">
<g clip-path="url(#clip0_3645_29720)">
<path d="M9.70074 1.99249H39.8518V4.98138L40.8481 6.97397H44.8333V47.8221H11.2738C10.7495 47.8221 8.12764 47.8221 6.55454 46.2597C4.98145 44.6974 4.98145 43.135 4.98145 42.6142V6.67961C4.98145 5.63803 5.71556 4.38813 6.55454 3.55487C7.39353 2.7216 8.65201 1.99249 9.70074 1.99249Z" fill="#7445B8"/>
<path d="M42.8407 9.0662L39.8518 4.98138V39.8518H37.8593L42.8407 45.8295V9.0662Z" fill="#898989"/>
<path d="M42.8407 9.0662L39.8518 4.98138V39.8518H37.8593L42.8407 45.8295V9.0662Z" fill="white" fill-opacity="0.2"/>
<path d="M10.093 39.8517H37.8593L42.8408 45.8295H10.093C9.58856 45.8295 6.97412 45.0823 6.97412 42.8406C6.97412 40.599 9.58856 39.8517 10.093 39.8517Z" fill="#898989"/>
<path d="M10.093 39.8517H37.8593L42.8408 45.8295H10.093C9.58856 45.8295 6.97412 45.0823 6.97412 42.8406C6.97412 40.599 9.58856 39.8517 10.093 39.8517Z" fill="white" fill-opacity="0.6"/>
<path d="M25.2648 31.5485C25.4598 33.1935 26.9709 34.4615 27.7021 34.8898C29.6518 35.918 31.8324 36.1611 34.2827 34.6328C35.3316 33.9786 36.72 32.0625 36.72 29.7493C36.72 27.8987 35.9075 25.8938 35.5013 25.1228C35.5826 25.4655 35.6475 26.3051 35.2576 26.922C34.8676 27.5388 34.4452 27.693 34.2827 27.693C34.2827 27.179 34.1852 25.8938 33.7952 24.8657C33.3078 23.5806 31.8454 22.5525 31.3579 21.2673C30.968 20.2392 31.1955 18.9541 31.3579 18.44C30.9517 18.5257 30.0418 18.8512 29.6518 19.4681C29.1644 20.2392 28.6769 20.7533 28.6769 23.0665C28.6769 24.9171 28.027 25.8938 27.7021 26.1509C27.3025 25.4032 26.9359 25.0618 25.996 24.6087C26.1584 24.9514 26.3859 25.8424 25.996 26.6649C25.5085 27.693 25.0211 29.4922 25.2648 31.5485Z" fill="#898989"/>
<path d="M25.2648 31.5485C25.4598 33.1935 26.9709 34.4615 27.7021 34.8898C29.6518 35.918 31.8324 36.1611 34.2827 34.6328C35.3316 33.9786 36.72 32.0625 36.72 29.7493C36.72 27.8987 35.9075 25.8938 35.5013 25.1228C35.5826 25.4655 35.6475 26.3051 35.2576 26.922C34.8676 27.5388 34.4452 27.693 34.2827 27.693C34.2827 27.179 34.1852 25.8938 33.7952 24.8657C33.3078 23.5806 31.8454 22.5525 31.3579 21.2673C30.968 20.2392 31.1955 18.9541 31.3579 18.44C30.9517 18.5257 30.0418 18.8512 29.6518 19.4681C29.1644 20.2392 28.6769 20.7533 28.6769 23.0665C28.6769 24.9171 28.027 25.8938 27.7021 26.1509C27.3025 25.4032 26.9359 25.0618 25.996 24.6087C26.1584 24.9514 26.3859 25.8424 25.996 26.6649C25.5085 27.693 25.0211 29.4922 25.2648 31.5485Z" fill="white" fill-opacity="0.95"/>
<path d="M28.4317 33.866C28.527 34.5971 29.2658 35.1607 29.6233 35.351C30.5765 35.808 31.6426 35.9161 32.8405 35.2368C33.3533 34.946 34.032 34.0945 34.032 33.0663C34.032 32.2439 33.6348 31.3528 33.4362 31.0101C33.476 31.1624 33.5077 31.5356 33.3171 31.8098C33.1264 32.0839 32.9199 32.1525 32.8405 32.1525C32.8405 31.924 32.7928 31.3528 32.6022 30.8959C32.3638 30.3247 31.6489 29.8678 31.4106 29.2966C31.2199 28.8397 31.3312 28.2685 31.4106 28.04C31.212 28.0781 30.7672 28.2228 30.5765 28.4969C30.3382 28.8397 30.0999 29.0681 30.0999 30.0962C30.0999 30.9187 29.7821 31.3528 29.6233 31.4671C29.4279 31.1348 29.2487 30.983 28.7892 30.7816C28.8686 30.934 28.9798 31.33 28.7892 31.6955C28.5509 32.1525 28.3126 32.9521 28.4317 33.866Z" fill="#7445B8"/>
<path d="M28.4317 33.866C28.527 34.5971 29.2658 35.1607 29.6233 35.351C30.5765 35.808 31.6426 35.9161 32.8405 35.2368C33.3533 34.946 34.032 34.0945 34.032 33.0663C34.032 32.2439 33.6348 31.3528 33.4362 31.0101C33.476 31.1624 33.5077 31.5356 33.3171 31.8098C33.1264 32.0839 32.9199 32.1525 32.8405 32.1525C32.8405 31.924 32.7928 31.3528 32.6022 30.8959C32.3638 30.3247 31.6489 29.8678 31.4106 29.2966C31.2199 28.8397 31.3312 28.2685 31.4106 28.04C31.212 28.0781 30.7672 28.2228 30.5765 28.4969C30.3382 28.8397 30.0999 29.0681 30.0999 30.0962C30.0999 30.9187 29.7821 31.3528 29.6233 31.4671C29.4279 31.1348 29.2487 30.983 28.7892 30.7816C28.8686 30.934 28.9798 31.33 28.7892 31.6955C28.5509 32.1525 28.3126 32.9521 28.4317 33.866Z" fill="white" fill-opacity="0.6"/>
<path d="M7.35926 31.085C7.59758 32.9127 9.44449 34.3216 10.3382 34.7976C12.7212 35.9399 15.3864 36.2101 18.3811 34.512C19.6631 33.7851 21.36 31.6561 21.36 29.0858C21.36 27.0296 20.3671 24.802 19.8706 23.9453C19.9699 24.326 20.0493 25.259 19.5727 25.9444C19.0961 26.6298 18.5797 26.8011 18.3811 26.8011C18.3811 26.23 18.262 24.802 17.7854 23.6597C17.1896 22.2317 15.4022 21.0894 14.8065 19.6615C14.3298 18.5191 14.6079 17.0912 14.8065 16.52C14.31 16.6152 13.1979 16.9769 12.7212 17.6623C12.1255 18.5191 11.5297 19.0903 11.5297 21.6606C11.5297 23.7168 10.7353 24.802 10.3382 25.0876C9.84977 24.2569 9.40172 23.8775 8.25293 23.3741C8.45152 23.7549 8.72956 24.7449 8.25293 25.6588C7.65715 26.8011 7.06137 28.8003 7.35926 31.085Z" fill="#898989"/>
<path d="M7.35926 31.085C7.59758 32.9127 9.44449 34.3216 10.3382 34.7976C12.7212 35.9399 15.3864 36.2101 18.3811 34.512C19.6631 33.7851 21.36 31.6561 21.36 29.0858C21.36 27.0296 20.3671 24.802 19.8706 23.9453C19.9699 24.326 20.0493 25.259 19.5727 25.9444C19.0961 26.6298 18.5797 26.8011 18.3811 26.8011C18.3811 26.23 18.262 24.802 17.7854 23.6597C17.1896 22.2317 15.4022 21.0894 14.8065 19.6615C14.3298 18.5191 14.6079 17.0912 14.8065 16.52C14.31 16.6152 13.1979 16.9769 12.7212 17.6623C12.1255 18.5191 11.5297 19.0903 11.5297 21.6606C11.5297 23.7168 10.7353 24.802 10.3382 25.0876C9.84977 24.2569 9.40172 23.8775 8.25293 23.3741C8.45152 23.7549 8.72956 24.7449 8.25293 25.6588C7.65715 26.8011 7.06137 28.8003 7.35926 31.085Z" fill="white" fill-opacity="0.95"/>
<path d="M11.157 33.557C11.2682 34.4099 12.1301 35.0674 12.5471 35.2896C13.6592 35.8227 14.9029 35.9487 16.3005 35.1563C16.8988 34.817 17.6907 33.8235 17.6907 32.6241C17.6907 31.6645 17.2273 30.625 16.9956 30.2251C17.0419 30.4028 17.079 30.8382 16.8566 31.1581C16.6341 31.4779 16.3932 31.5579 16.3005 31.5579C16.3005 31.2913 16.2449 30.625 16.0225 30.0919C15.7445 29.4255 14.9104 28.8924 14.6323 28.226C14.4099 27.6929 14.5397 27.0266 14.6323 26.76C14.4006 26.8044 13.8816 26.9732 13.6592 27.2931C13.3812 27.6929 13.1032 27.9595 13.1032 29.1589C13.1032 30.1185 12.7325 30.625 12.5471 30.7582C12.3192 30.3706 12.1101 30.1935 11.574 29.9586C11.6667 30.1363 11.7964 30.5983 11.574 31.0248C11.296 31.5579 11.018 32.4908 11.157 33.557Z" fill="#7445B8"/>
<path d="M11.157 33.557C11.2682 34.4099 12.1301 35.0674 12.5471 35.2896C13.6592 35.8227 14.9029 35.9487 16.3005 35.1563C16.8988 34.817 17.6907 33.8235 17.6907 32.6241C17.6907 31.6645 17.2273 30.625 16.9956 30.2251C17.0419 30.4028 17.079 30.8382 16.8566 31.1581C16.6341 31.4779 16.3932 31.5579 16.3005 31.5579C16.3005 31.2913 16.2449 30.625 16.0225 30.0919C15.7445 29.4255 14.9104 28.8924 14.6323 28.226C14.4099 27.6929 14.5397 27.0266 14.6323 26.76C14.4006 26.8044 13.8816 26.9732 13.6592 27.2931C13.3812 27.6929 13.1032 27.9595 13.1032 29.1589C13.1032 30.1185 12.7325 30.625 12.5471 30.7582C12.3192 30.3706 12.1101 30.1935 11.574 29.9586C11.6667 30.1363 11.7964 30.5983 11.574 31.0248C11.296 31.5579 11.018 32.4908 11.157 33.557Z" fill="white" fill-opacity="0.6"/>
<path d="M18.8524 16.3099C19.0097 17.5686 20.229 18.5388 20.819 18.8666C22.3923 19.6532 24.1518 19.8393 26.1289 18.6699C26.9753 18.1693 28.0956 16.7033 28.0956 14.9333C28.0956 13.5173 27.4401 11.9833 27.1123 11.3933C27.1778 11.6555 27.2303 12.298 26.9156 12.7699C26.6009 13.2419 26.2601 13.3599 26.1289 13.3599C26.1289 12.9666 26.0503 11.9833 25.7356 11.1966C25.3423 10.2133 24.1623 9.42664 23.769 8.44332C23.4543 7.65666 23.6379 6.67333 23.769 6.28C23.4412 6.34555 22.707 6.59466 22.3923 7.06666C21.999 7.65666 21.6056 8.04999 21.6056 9.81997C21.6056 11.236 21.0812 11.9833 20.819 12.18C20.4966 11.6079 20.2008 11.3466 19.4424 11C19.5735 11.2622 19.757 11.944 19.4424 12.5733C19.049 13.3599 18.6557 14.7366 18.8524 16.3099Z" fill="#7445B8"/>
<path d="M18.8524 16.3099C19.0097 17.5686 20.229 18.5388 20.819 18.8666C22.3923 19.6532 24.1518 19.8393 26.1289 18.6699C26.9753 18.1693 28.0956 16.7033 28.0956 14.9333C28.0956 13.5173 27.4401 11.9833 27.1123 11.3933C27.1778 11.6555 27.2303 12.298 26.9156 12.7699C26.6009 13.2419 26.2601 13.3599 26.1289 13.3599C26.1289 12.9666 26.0503 11.9833 25.7356 11.1966C25.3423 10.2133 24.1623 9.42664 23.769 8.44332C23.4543 7.65666 23.6379 6.67333 23.769 6.28C23.4412 6.34555 22.707 6.59466 22.3923 7.06666C21.999 7.65666 21.6056 8.04999 21.6056 9.81997C21.6056 11.236 21.0812 11.9833 20.819 12.18C20.4966 11.6079 20.2008 11.3466 19.4424 11C19.5735 11.2622 19.757 11.944 19.4424 12.5733C19.049 13.3599 18.6557 14.7366 18.8524 16.3099Z" fill="white" fill-opacity="0.6"/>
<path d="M20.7488 17.9763C20.8354 18.641 21.507 19.1533 21.832 19.3264C22.6986 19.7418 23.6677 19.84 24.7567 19.2225C25.2229 18.9582 25.84 18.184 25.84 17.2494C25.84 16.5017 25.4789 15.6916 25.2984 15.3801C25.3345 15.5186 25.3633 15.8578 25.19 16.107C25.0167 16.3563 24.829 16.4186 24.7567 16.4186C24.7567 16.2109 24.7134 15.6916 24.5401 15.2762C24.3234 14.757 23.6735 14.3416 23.4569 13.8223C23.2835 13.4069 23.3846 12.8877 23.4569 12.68C23.2763 12.7146 22.8719 12.8462 22.6986 13.0954C22.4819 13.4069 22.2653 13.6146 22.2653 14.5493C22.2653 15.297 21.9764 15.6916 21.832 15.7955C21.6544 15.4934 21.4915 15.3554 21.0738 15.1724C21.146 15.3109 21.2471 15.6709 21.0738 16.0032C20.8571 16.4186 20.6405 17.1455 20.7488 17.9763Z" fill="#898989"/>
<path d="M20.7488 17.9763C20.8354 18.641 21.507 19.1533 21.832 19.3264C22.6986 19.7418 23.6677 19.84 24.7567 19.2225C25.2229 18.9582 25.84 18.184 25.84 17.2494C25.84 16.5017 25.4789 15.6916 25.2984 15.3801C25.3345 15.5186 25.3633 15.8578 25.19 16.107C25.0167 16.3563 24.829 16.4186 24.7567 16.4186C24.7567 16.2109 24.7134 15.6916 24.5401 15.2762C24.3234 14.757 23.6735 14.3416 23.4569 13.8223C23.2835 13.4069 23.3846 12.8877 23.4569 12.68C23.2763 12.7146 22.8719 12.8462 22.6986 13.0954C22.4819 13.4069 22.2653 13.6146 22.2653 14.5493C22.2653 15.297 21.9764 15.6916 21.832 15.7955C21.6544 15.4934 21.4915 15.3554 21.0738 15.1724C21.146 15.3109 21.2471 15.6709 21.0738 16.0032C20.8571 16.4186 20.6405 17.1455 20.7488 17.9763Z" fill="white" fill-opacity="0.95"/>
</g>
<defs>
<clipPath id="clip0_3645_29720">
<rect width="50" height="50" fill="white"/>
</clipPath>
</defs>
</svg>
