<svg width="50" height="50" viewBox="0 0 50 50" fill="none" xmlns="http://www.w3.org/2000/svg">
<path d="M9.70074 1.99249H39.8518V4.98138L40.8481 6.97397H44.8333V47.8221H11.2738C10.7495 47.8221 8.12764 47.8221 6.55454 46.2597C4.98145 44.6974 4.98145 43.135 4.98145 42.6142V6.67961C4.98145 5.63803 5.71556 4.38813 6.55454 3.55487C7.39353 2.7216 8.65201 1.99249 9.70074 1.99249Z" fill="#7445B8"/>
<path d="M42.8407 9.0662L39.8518 4.98138V39.8518H37.8593L42.8407 45.8295V9.0662Z" fill="#898989"/>
<path d="M42.8407 9.0662L39.8518 4.98138V39.8518H37.8593L42.8407 45.8295V9.0662Z" fill="white" fill-opacity="0.2"/>
<path d="M10.093 39.8517H37.8593L42.8408 45.8295H10.093C9.58856 45.8295 6.97412 45.0823 6.97412 42.8406C6.97412 40.599 9.58856 39.8517 10.093 39.8517Z" fill="#898989"/>
<path d="M10.093 39.8517H37.8593L42.8408 45.8295H10.093C9.58856 45.8295 6.97412 45.0823 6.97412 42.8406C6.97412 40.599 9.58856 39.8517 10.093 39.8517Z" fill="white" fill-opacity="0.6"/>
<path d="M10.84 24.0073L16.92 24.957L9.56003 30.6551L18.2 27.1729L14.68 35.0869L21.4 29.3888L23 35.72L25.56 29.7054L31 35.0869L28.12 28.1226L35.8 30.6551L30.36 25.2736L37.4 24.6405L30.68 21.4749L37.72 19.5755L29.4 18.3093L34.52 11.6615L26.84 15.6185V6.28003L22.68 15.1437L17.24 8.49594L18.52 16.7265L11.16 13.2443L16.92 19.259L8.28003 20.8417L15.64 22.4245L10.84 24.0073Z" fill="#898989"/>
<path d="M10.84 24.0073L16.92 24.957L9.56003 30.6551L18.2 27.1729L14.68 35.0869L21.4 29.3888L23 35.72L25.56 29.7054L31 35.0869L28.12 28.1226L35.8 30.6551L30.36 25.2736L37.4 24.6405L30.68 21.4749L37.72 19.5755L29.4 18.3093L34.52 11.6615L26.84 15.6185V6.28003L22.68 15.1437L17.24 8.49594L18.52 16.7265L11.16 13.2443L16.92 19.259L8.28003 20.8417L15.64 22.4245L10.84 24.0073Z" fill="white" fill-opacity="0.95"/>
<path d="M15.5983 23.4705L19.2992 24.0486L14.8192 27.517L20.0783 25.3974L17.9357 30.2146L22.0261 26.7462L23 30.6L24.5583 26.9389L27.8696 30.2146L26.1166 25.9755L30.7913 27.517L27.48 24.2413L31.7653 23.8559L27.6748 21.929L31.96 20.7729L26.8957 20.0021L30.0122 15.9557L25.3374 18.3643V12.68L22.8053 18.0753L19.494 14.0288L20.2731 19.0387L15.7931 16.9191L19.2992 20.5802L14.04 21.5436L18.52 22.5071L15.5983 23.4705Z" fill="#898989"/>
<path d="M15.5983 23.4705L19.2992 24.0486L14.8192 27.517L20.0783 25.3974L17.9357 30.2146L22.0261 26.7462L23 30.6L24.5583 26.9389L27.8696 30.2146L26.1166 25.9755L30.7913 27.517L27.48 24.2413L31.7653 23.8559L27.6748 21.929L31.96 20.7729L26.8957 20.0021L30.0122 15.9557L25.3374 18.3643V12.68L22.8053 18.0753L19.494 14.0288L20.2731 19.0387L15.7931 16.9191L19.2992 20.5802L14.04 21.5436L18.52 22.5071L15.5983 23.4705Z" fill="white" fill-opacity="0.6"/>
<path d="M26.2 23.0524C26.2 21.5648 25.7733 20.3551 24.6355 19.7176C24.9199 20.5676 24.6355 21.4177 24.6355 21.4177C24.0666 20.3551 23.7822 19.505 22.3599 19.08C22.9288 20.1426 22.6444 20.7801 22.3599 21.4177C22.0755 20.9927 21.7911 20.3551 21.2222 20.1426C21.2222 20.9927 21.08 22.4231 21.08 23.2731C21.08 24.3357 22.2177 25.48 23.64 25.48C25.0622 25.48 26.2 24.1361 26.2 23.0524Z" fill="#898989"/>
<path d="M26.2 23.0524C26.2 21.5648 25.7733 20.3551 24.6355 19.7176C24.9199 20.5676 24.6355 21.4177 24.6355 21.4177C24.0666 20.3551 23.7822 19.505 22.3599 19.08C22.9288 20.1426 22.6444 20.7801 22.3599 21.4177C22.0755 20.9927 21.7911 20.3551 21.2222 20.1426C21.2222 20.9927 21.08 22.4231 21.08 23.2731C21.08 24.3357 22.2177 25.48 23.64 25.48C25.0622 25.48 26.2 24.1361 26.2 23.0524Z" fill="white" fill-opacity="0.95"/>
</svg>
