<svg width="50" height="51" viewBox="0 0 50 51" fill="none" xmlns="http://www.w3.org/2000/svg">
<path d="M39.8846 5.83428L36.3106 10.4666L36.2898 28.9706L36.8666 48.9675L49.0967 44.8818L40.8877 26.0242L39.8846 5.83428Z" fill="#FAA21E"/>
<path d="M39.8846 5.83428L36.3106 10.4666L36.2898 28.9706L36.8666 48.9675L49.0967 44.8818L40.8877 26.0242L39.8846 5.83428Z" fill="white" fill-opacity="0.2"/>
<path d="M33.012 0.925218C28.1136 -0.366794 25.3113 -0.248604 20.2485 0.925218L27.5466 49.0338H30.2957L33.012 0.925218Z" fill="#D0333D"/>
<path d="M33.012 0.925218C28.1136 -0.366794 25.3113 -0.248604 20.2485 0.925218L27.5466 49.0338H30.2957L33.012 0.925218Z" fill="black" fill-opacity="0.4"/>
<path d="M20.2484 0.925293C20.2484 0.925293 20.567 2.65644 19.7575 3.87071C18.948 5.08499 9.93945 6.87564 9.93945 6.87564C11.1831 13.6524 14.603 26.611 14.603 28.1977C14.603 29.7845 13.5149 43.0736 12.2712 49.0239L27.612 50.0156V3.87071L20.2484 0.925293Z" fill="#CE4317"/>
<path d="M20.2484 0.925293C20.2484 0.925293 20.567 2.65644 19.7575 3.87071C18.948 5.08499 9.93945 6.87564 9.93945 6.87564C11.1831 13.6524 14.603 26.611 14.603 28.1977C14.603 29.7845 13.5149 43.0736 12.2712 49.0239L27.612 50.0156V3.87071L20.2484 0.925293Z" fill="black" fill-opacity="0.15"/>
<path d="M33.012 0.925293L28.5939 4.39633V50.0156L41.5 48L37.8143 28.1977L39.8847 5.83433C39.8847 5.83433 34.2623 4.63008 33.5029 3.87071C32.7435 3.11135 33.012 0.925293 33.012 0.925293Z" fill="#CE4317"/>
<path d="M33.012 0.925293L28.5939 4.39633V50.0156L41.5 48L37.8143 28.1977L39.8847 5.83433C39.8847 5.83433 34.2623 4.63008 33.5029 3.87071C32.7435 3.11135 33.012 0.925293 33.012 0.925293Z" fill="black" fill-opacity="0.15"/>
<path d="M27.6121 3.87071L20.2485 0.925293V2.398L26.6303 4.85252V50.0156H27.6121V3.87071Z" fill="#FAA21E"/>
<path d="M27.6121 3.87071L20.2485 0.925293V2.398L26.6303 4.85252V50.0156H27.6121V3.87071Z" fill="white" fill-opacity="0.2"/>
<path d="M33.012 0.925293L28.5939 3.90047V50.0156H29.5757V4.85252L33.012 2.398V0.925293Z" fill="#FAA21E"/>
<path d="M33.012 0.925293L28.5939 3.90047V50.0156H29.5757V4.85252L33.012 2.398V0.925293Z" fill="white" fill-opacity="0.2"/>
<path d="M3.21936 26.6921L9.9342 6.8341C12.3513 8.39317 13.082 11.3217 13.4434 18.3461L11.8088 27.7974L16.61 47.9051L1.93162 49.0147L3.21936 26.6921Z" fill="#FAA21E"/>
<path d="M3.21936 26.6921L9.9342 6.8341C12.3513 8.39317 13.082 11.3217 13.4434 18.3461L11.8088 27.7974L16.61 47.9051L1.93162 49.0147L3.21936 26.6921Z" fill="white" fill-opacity="0.2"/>
<path d="M27 4.50951V15.5071C26.6667 15.119 26 14.3428 26 12.0142C26 10.8499 25 10.2677 24.5 10.2677C24 10.2677 23.5 11.1909 23.5 12.0142C23.5 13.1785 24.5 14.3428 24.5 15.5071C24.5 17.5082 23.1667 18.6119 22.5 19C23 17.8357 23 17.2536 23 15.5071V15.5071C23 14.3428 22.5 12.5963 21.5 12.5963C20.5 12.5963 20 14.3428 20 14.9249C20 16.2712 20.6667 16.2833 21 16.6714C20.5 17.0595 19.3 17.4864 18.5 16.0892C17.5 14.3428 19 12.5963 18.5 11.432C18 10.2677 17 9.10346 16 9.6856C15.1056 10.2063 15.5 12.0142 16 12.5964C16.5 13.1785 17 14.3428 16.5 15.5071C16.1 16.4385 15.3334 16.6714 15 16.6714C15.5 14.925 15 13.7607 14 13.1785C13.3676 12.8103 10.6 11.3744 10.6 14.3428C10.6 15.5071 9.90002 8.88349 9.90002 6.90416C13.4 6.00852 18 4.99999 20 3.51017C20.1762 2.8059 20.4 1.5 20.4 1.5C21.9133 1.72611 25.3632 4.15696 27 4.50951Z" fill="#FAA21E"/>
<path d="M27 4.50951V15.5071C26.6667 15.119 26 14.3428 26 12.0142C26 10.8499 25 10.2677 24.5 10.2677C24 10.2677 23.5 11.1909 23.5 12.0142C23.5 13.1785 24.5 14.3428 24.5 15.5071C24.5 17.5082 23.1667 18.6119 22.5 19C23 17.8357 23 17.2536 23 15.5071V15.5071C23 14.3428 22.5 12.5963 21.5 12.5963C20.5 12.5963 20 14.3428 20 14.9249C20 16.2712 20.6667 16.2833 21 16.6714C20.5 17.0595 19.3 17.4864 18.5 16.0892C17.5 14.3428 19 12.5963 18.5 11.432C18 10.2677 17 9.10346 16 9.6856C15.1056 10.2063 15.5 12.0142 16 12.5964C16.5 13.1785 17 14.3428 16.5 15.5071C16.1 16.4385 15.3334 16.6714 15 16.6714C15.5 14.925 15 13.7607 14 13.1785C13.3676 12.8103 10.6 11.3744 10.6 14.3428C10.6 15.5071 9.90002 8.88349 9.90002 6.90416C13.4 6.00852 18 4.99999 20 3.51017C20.1762 2.8059 20.4 1.5 20.4 1.5C21.9133 1.72611 25.3632 4.15696 27 4.50951Z" fill="white" fill-opacity="0.2"/>
<path d="M31.2332 15.0279C31.2332 14.4335 30.3905 12.5 29.5 12.5V4.5L33 2C32.9643 2.5 33.1143 3.6 33.6 4C34.0857 4.4 37.4 5.3 39.9 5.8C39.5 9 39.6314 17.5967 38.9286 12.8414C38.2405 11.0581 36.2116 12.6503 36.1307 13.8391C36.0092 15.6224 36.25 16.2805 37.3215 17.4269C37.0246 17.4269 35.3212 16.8112 34.6331 15.6224C33.9863 14.5048 34.3498 13.8391 34.795 13.2447C35.2402 12.6503 35.5469 9.40222 34.1072 9.40222C33.5715 9.40222 32.7344 10.2726 32.5689 11.4614C32.3925 12.7282 33.3905 13.3509 32.5 15.1341C31.7877 16.5607 31.2332 16.8112 30.3572 17.4269C30.654 17.0306 31.2332 15.5035 31.2332 15.0279Z" fill="#FAA21E"/>
<path d="M31.2332 15.0279C31.2332 14.4335 30.3905 12.5 29.5 12.5V4.5L33 2C32.9643 2.5 33.1143 3.6 33.6 4C34.0857 4.4 37.4 5.3 39.9 5.8C39.5 9 39.6314 17.5967 38.9286 12.8414C38.2405 11.0581 36.2116 12.6503 36.1307 13.8391C36.0092 15.6224 36.25 16.2805 37.3215 17.4269C37.0246 17.4269 35.3212 16.8112 34.6331 15.6224C33.9863 14.5048 34.3498 13.8391 34.795 13.2447C35.2402 12.6503 35.5469 9.40222 34.1072 9.40222C33.5715 9.40222 32.7344 10.2726 32.5689 11.4614C32.3925 12.7282 33.3905 13.3509 32.5 15.1341C31.7877 16.5607 31.2332 16.8112 30.3572 17.4269C30.654 17.0306 31.2332 15.5035 31.2332 15.0279Z" fill="white" fill-opacity="0.2"/>
</svg>
