<svg width="51" height="50" viewBox="0 0 51 50" fill="none" xmlns="http://www.w3.org/2000/svg">
<path d="M10.66 1.99249H40.811V4.98138L41.8073 6.97397H45.7925V47.8221H12.2331C11.7087 47.8221 9.08687 47.8221 7.51377 46.2597C5.94067 44.6974 5.94067 43.135 5.94067 42.6142V6.67961C5.94067 5.63803 6.67479 4.38813 7.51377 3.55487C8.35276 2.7216 9.61124 1.99249 10.66 1.99249Z" fill="#2FC4A7"/>
<path d="M10.66 1.99249H40.811V4.98138L41.8073 6.97397H45.7925V47.8221H12.2331C11.7087 47.8221 9.08687 47.8221 7.51377 46.2597C5.94067 44.6974 5.94067 43.135 5.94067 42.6142V6.67961C5.94067 5.63803 6.67479 4.38813 7.51377 3.55487C8.35276 2.7216 9.61124 1.99249 10.66 1.99249Z" fill="black" fill-opacity="0.4"/>
<path d="M43.8 9.0662L40.8111 4.98138V39.8518H38.8185L43.8 45.8295V9.0662Z" fill="#898989"/>
<path d="M43.8 9.0662L40.8111 4.98138V39.8518H38.8185L43.8 45.8295V9.0662Z" fill="white" fill-opacity="0.2"/>
<path d="M11.0522 39.8517H38.8185L43.8 45.8295H11.0522C10.5478 45.8295 7.93335 45.0823 7.93335 42.8406C7.93335 40.599 10.5478 39.8517 11.0522 39.8517Z" fill="#898989"/>
<path d="M11.0522 39.8517H38.8185L43.8 45.8295H11.0522C10.5478 45.8295 7.93335 45.0823 7.93335 42.8406C7.93335 40.599 10.5478 39.8517 11.0522 39.8517Z" fill="white" fill-opacity="0.4"/>
<path d="M37.6175 30.6275C37.7997 31.7429 39.9382 34.7376 39.1552 35.5526C38.5288 36.2047 36.8227 35.6315 35.7896 35.1406C34.4983 34.527 32.5806 34.5655 31.4588 34.4282C30.3369 34.2909 28.3935 33.0509 27.115 33.0766C25.8366 33.1022 20.2783 31.8762 19.4793 28.68C19.1593 27.4 18.5775 26.0588 18.1993 25.8C18.3776 25.7964 19.1593 26.12 19.7993 27.08C20.387 27.9615 19.8909 28.2417 21.0793 29C22.0509 29.62 22.8894 29.6442 22.0679 28.5416C21.4107 27.6595 21.3423 26.9041 21.3902 26.6367C21.6683 27.2173 22.3811 28.2156 23.0075 27.5635C23.7905 26.7484 22.0166 25.9847 20.8626 24.2492C19.7087 22.5138 18.9128 22.6896 17.2891 21.4433C15.9901 20.4462 15.7612 19.6621 15.8091 19.3946C16.2438 19.8122 17.172 20.3905 17.4072 19.3625C17.7011 18.0777 14.505 18.1418 13.2072 17.2087C12.1691 16.4621 12.0054 15.7406 12.0533 15.4732C12.2728 15.7886 12.8997 16.2236 13.6514 15.4411C14.591 14.463 13.7759 13.68 11.6823 12.9227C9.58878 12.1654 8.9303 11.2194 8.74803 10.1039C8.56576 8.98847 9.81214 7.36471 9.7993 6.72548C9.78903 6.2141 9.14295 5.88601 8.8212 5.78588C9.29955 5.72299 10.4193 5.7538 11.0713 6.3802C11.8864 7.16319 12.0815 8.91788 12.8902 9.38126C13.6989 9.84464 14.6641 10.145 15.1275 9.33634C15.4982 8.6894 14.3039 8.12718 13.6604 7.92694C14.2996 7.9141 15.7737 8.07635 16.5562 8.82803C17.5343 9.76763 18.2441 13.2706 18.5766 13.9034C18.909 14.5362 19.5611 15.1626 20.1875 14.5105C20.6886 13.9889 19.84 13.132 19.3531 12.7687C19.6184 12.7101 20.2468 12.6868 20.638 13.0626C21.1271 13.5324 21.629 14.6415 22.2746 14.9483C22.9203 15.255 23.8727 14.9162 24.5248 15.5426C25.1768 16.169 25.5093 16.8018 25.9983 17.2716C26.4874 17.7414 27.2832 17.5655 27.9353 18.1919C28.5874 18.8183 28.9262 19.7708 29.5719 20.0775C30.2175 20.3843 31.659 20.5152 31.3201 19.5628C31.049 18.8009 30.4221 17.3183 30.3593 16.84C30.6853 17.1532 31.8646 18.0171 32.2405 17.6259C32.6082 17.2431 31.2861 15.4163 30.7159 14.6492C30.6989 14.6303 30.6865 14.6138 30.6793 14.6C30.6911 14.6158 30.7033 14.6322 30.7159 14.6492C30.9566 14.9167 32.1167 15.6507 32.5992 15.88C33.2449 16.1868 33.8257 16.9545 34.8167 18.5334C35.8076 20.1122 35.2454 23.9604 35.9103 25.2261C36.5752 26.4917 37.4352 29.512 37.6175 30.6275Z" fill="#898989"/>
<path d="M37.6175 30.6275C37.7997 31.7429 39.9382 34.7376 39.1552 35.5526C38.5288 36.2047 36.8227 35.6315 35.7896 35.1406C34.4983 34.527 32.5806 34.5655 31.4588 34.4282C30.3369 34.2909 28.3935 33.0509 27.115 33.0766C25.8366 33.1022 20.2783 31.8762 19.4793 28.68C19.1593 27.4 18.5775 26.0588 18.1993 25.8C18.3776 25.7964 19.1593 26.12 19.7993 27.08C20.387 27.9615 19.8909 28.2417 21.0793 29C22.0509 29.62 22.8894 29.6442 22.0679 28.5416C21.4107 27.6595 21.3423 26.9041 21.3902 26.6367C21.6683 27.2173 22.3811 28.2156 23.0075 27.5635C23.7905 26.7484 22.0166 25.9847 20.8626 24.2492C19.7087 22.5138 18.9128 22.6896 17.2891 21.4433C15.9901 20.4462 15.7612 19.6621 15.8091 19.3946C16.2438 19.8122 17.172 20.3905 17.4072 19.3625C17.7011 18.0777 14.505 18.1418 13.2072 17.2087C12.1691 16.4621 12.0054 15.7406 12.0533 15.4732C12.2728 15.7886 12.8997 16.2236 13.6514 15.4411C14.591 14.463 13.7759 13.68 11.6823 12.9227C9.58878 12.1654 8.9303 11.2194 8.74803 10.1039C8.56576 8.98847 9.81214 7.36471 9.7993 6.72548C9.78903 6.2141 9.14295 5.88601 8.8212 5.78588C9.29955 5.72299 10.4193 5.7538 11.0713 6.3802C11.8864 7.16319 12.0815 8.91788 12.8902 9.38126C13.6989 9.84464 14.6641 10.145 15.1275 9.33634C15.4982 8.6894 14.3039 8.12718 13.6604 7.92694C14.2996 7.9141 15.7737 8.07635 16.5562 8.82803C17.5343 9.76763 18.2441 13.2706 18.5766 13.9034C18.909 14.5362 19.5611 15.1626 20.1875 14.5105C20.6886 13.9889 19.84 13.132 19.3531 12.7687C19.6184 12.7101 20.2468 12.6868 20.638 13.0626C21.1271 13.5324 21.629 14.6415 22.2746 14.9483C22.9203 15.255 23.8727 14.9162 24.5248 15.5426C25.1768 16.169 25.5093 16.8018 25.9983 17.2716C26.4874 17.7414 27.2832 17.5655 27.9353 18.1919C28.5874 18.8183 28.9262 19.7708 29.5719 20.0775C30.2175 20.3843 31.659 20.5152 31.3201 19.5628C31.049 18.8009 30.4221 17.3183 30.3593 16.84C30.6853 17.1532 31.8646 18.0171 32.2405 17.6259C32.6082 17.2431 31.2861 15.4163 30.7159 14.6492C30.6989 14.6303 30.6865 14.6138 30.6793 14.6C30.6911 14.6158 30.7033 14.6322 30.7159 14.6492C30.9566 14.9167 32.1167 15.6507 32.5992 15.88C33.2449 16.1868 33.8257 16.9545 34.8167 18.5334C35.8076 20.1122 35.2454 23.9604 35.9103 25.2261C36.5752 26.4917 37.4352 29.512 37.6175 30.6275Z" fill="white" fill-opacity="0.4"/>
<path d="M36.8673 31.3466C36.9832 32.0554 38.3422 33.9585 37.8446 34.4765C37.4465 34.8909 36.3622 34.5266 35.7057 34.2146C34.8851 33.8247 33.6664 33.8492 32.9535 33.7619C32.2406 33.6746 31.0056 32.8866 30.1931 32.903C29.3806 32.9193 26.931 32.3589 26.4049 31.455C25.984 30.732 25.398 30.2222 25.1577 30.0577C25.3608 30.0536 25.8905 30.1243 26.3845 30.4395C27.002 30.8335 27.5078 30.7217 26.9857 30.021C26.568 29.4604 26.5245 28.9804 26.555 28.8105C26.7317 29.1795 27.1847 29.8138 27.5828 29.3994C28.0804 28.8815 26.9531 28.3961 26.2197 27.2932C25.4864 26.1904 24.9807 26.3021 23.9488 25.5101C23.1233 24.8764 22.9778 24.3781 23.0082 24.2082C23.2845 24.4736 23.8744 24.841 24.0238 24.1878C24.2106 23.3713 22.1795 23.412 21.3548 22.819C20.695 22.3446 20.591 21.8861 20.6215 21.7162C20.7609 21.9165 21.1593 22.193 21.637 21.6958C22.2341 21.0742 21.7162 20.5766 20.3857 20.0953C19.0553 19.614 18.6368 19.0129 18.521 18.304C18.4051 17.5951 19.1972 16.5632 19.1891 16.157C19.1825 15.832 18.772 15.6235 18.5675 15.5599C18.8715 15.5199 19.5831 15.5395 19.9974 15.9376C20.5154 16.4352 20.6394 17.5503 21.1533 17.8447C21.6672 18.1392 22.2806 18.3301 22.5751 17.8162C22.8107 17.4051 22.0517 17.0478 21.6427 16.9205C22.049 16.9124 22.9857 17.0155 23.483 17.4932C24.1046 18.0903 24.5557 20.3164 24.7669 20.7185C24.9782 21.1207 25.3926 21.5188 25.7907 21.1044C26.1091 20.7729 25.5699 20.2283 25.2605 19.9974C25.429 19.9602 25.8284 19.9454 26.077 20.1842C26.3878 20.4828 26.7067 21.1876 27.117 21.3825C27.5273 21.5775 28.1326 21.3621 28.547 21.7602C28.9614 22.1583 29.1727 22.5604 29.4834 22.859C29.7942 23.1575 30.3 23.0458 30.7144 23.4439C31.1287 23.8419 31.3441 24.4472 31.7544 24.6422C32.1647 24.8371 33.0808 24.9203 32.8654 24.3151C32.6931 23.8308 32.5701 23.1018 32.5302 22.7978C32.7373 22.9969 33.2114 23.3328 33.4503 23.0841C33.652 22.8741 33.2293 22.1305 32.8834 21.6231C32.7967 21.5242 32.7358 21.4312 32.7047 21.3719C32.7588 21.4445 32.8198 21.5298 32.8834 21.6231C32.9927 21.7479 33.1431 21.882 33.3263 21.969C33.7366 22.164 34.4577 22.6575 35.0874 23.6608C35.7172 24.6642 35.3599 27.1097 35.7824 27.914C36.205 28.7183 36.7515 30.6377 36.8673 31.3466Z" fill="#898989"/>
<path d="M36.8673 31.3466C36.9832 32.0554 38.3422 33.9585 37.8446 34.4765C37.4465 34.8909 36.3622 34.5266 35.7057 34.2146C34.8851 33.8247 33.6664 33.8492 32.9535 33.7619C32.2406 33.6746 31.0056 32.8866 30.1931 32.903C29.3806 32.9193 26.931 32.3589 26.4049 31.455C25.984 30.732 25.398 30.2222 25.1577 30.0577C25.3608 30.0536 25.8905 30.1243 26.3845 30.4395C27.002 30.8335 27.5078 30.7217 26.9857 30.021C26.568 29.4604 26.5245 28.9804 26.555 28.8105C26.7317 29.1795 27.1847 29.8138 27.5828 29.3994C28.0804 28.8815 26.9531 28.3961 26.2197 27.2932C25.4864 26.1904 24.9807 26.3021 23.9488 25.5101C23.1233 24.8764 22.9778 24.3781 23.0082 24.2082C23.2845 24.4736 23.8744 24.841 24.0238 24.1878C24.2106 23.3713 22.1795 23.412 21.3548 22.819C20.695 22.3446 20.591 21.8861 20.6215 21.7162C20.7609 21.9165 21.1593 22.193 21.637 21.6958C22.2341 21.0742 21.7162 20.5766 20.3857 20.0953C19.0553 19.614 18.6368 19.0129 18.521 18.304C18.4051 17.5951 19.1972 16.5632 19.1891 16.157C19.1825 15.832 18.772 15.6235 18.5675 15.5599C18.8715 15.5199 19.5831 15.5395 19.9974 15.9376C20.5154 16.4352 20.6394 17.5503 21.1533 17.8447C21.6672 18.1392 22.2806 18.3301 22.5751 17.8162C22.8107 17.4051 22.0517 17.0478 21.6427 16.9205C22.049 16.9124 22.9857 17.0155 23.483 17.4932C24.1046 18.0903 24.5557 20.3164 24.7669 20.7185C24.9782 21.1207 25.3926 21.5188 25.7907 21.1044C26.1091 20.7729 25.5699 20.2283 25.2605 19.9974C25.429 19.9602 25.8284 19.9454 26.077 20.1842C26.3878 20.4828 26.7067 21.1876 27.117 21.3825C27.5273 21.5775 28.1326 21.3621 28.547 21.7602C28.9614 22.1583 29.1727 22.5604 29.4834 22.859C29.7942 23.1575 30.3 23.0458 30.7144 23.4439C31.1287 23.8419 31.3441 24.4472 31.7544 24.6422C32.1647 24.8371 33.0808 24.9203 32.8654 24.3151C32.6931 23.8308 32.5701 23.1018 32.5302 22.7978C32.7373 22.9969 33.2114 23.3328 33.4503 23.0841C33.652 22.8741 33.2293 22.1305 32.8834 21.6231C32.7967 21.5242 32.7358 21.4312 32.7047 21.3719C32.7588 21.4445 32.8198 21.5298 32.8834 21.6231C32.9927 21.7479 33.1431 21.882 33.3263 21.969C33.7366 22.164 34.4577 22.6575 35.0874 23.6608C35.7172 24.6642 35.3599 27.1097 35.7824 27.914C36.205 28.7183 36.7515 30.6377 36.8673 31.3466Z" fill="white" fill-opacity="0.4"/>
<path d="M33.3054 33.9666L38.2666 35.3074L36.9257 30.3462L36.2301 32.3659L25.1483 21.284L25.1427 18.5631L19.2596 12.68L19.2596 16.3004L15.6392 16.3004L21.5223 22.1835L24.2295 22.2028L35.3113 33.2847L33.3054 33.9666Z" fill="#898989"/>
<path d="M33.3054 33.9666L38.2666 35.3074L36.9257 30.3462L36.2301 32.3659L25.1483 21.284L25.1427 18.5631L19.2596 12.68L19.2596 16.3004L15.6392 16.3004L21.5223 22.1835L24.2295 22.2028L35.3113 33.2847L33.3054 33.9666Z" fill="white" fill-opacity="0.95"/>
<path d="M29.4081 15.8808C29.7249 16.0973 29.948 16.5077 30.02 16.6858C30.3804 16.1584 29.8369 15.5935 29.6785 15.4852C29.4804 15.3499 28.8864 14.9439 28.0219 14.9335C27.3304 14.9252 26.3054 14.4697 25.8793 14.243L27.0674 15.055C27.6615 15.461 29.0121 15.6101 29.4081 15.8808Z" fill="#898989"/>
<path d="M29.4081 15.8808C29.7249 16.0973 29.948 16.5077 30.02 16.6858C30.3804 16.1584 29.8369 15.5935 29.6785 15.4852C29.4804 15.3499 28.8864 14.9439 28.0219 14.9335C27.3304 14.9252 26.3054 14.4697 25.8793 14.243L27.0674 15.055C27.6615 15.461 29.0121 15.6101 29.4081 15.8808Z" fill="white" fill-opacity="0.95"/>
</svg>
