<svg width="50" height="50" viewBox="0 0 50 50" fill="none" xmlns="http://www.w3.org/2000/svg">
<path d="M27.85 1.5C22.91 1.5 15.975 0.701754 13.125 0C12.65 1.57895 12.175 5.78947 10.75 11.0526C9.36882 16.154 6.95 38 6 48C10.75 49.5 21.58 50 28.8 50C36.02 50 41.9417 48.8772 44 48C43.2083 39.7544 41.245 20.7368 39.725 13.1579C38.205 5.57895 37.1917 1.22807 36.875 0C35.7667 0.701754 32.79 1.5 27.85 1.5Z" fill="#CE4317"/>
<path d="M27.85 1.5C22.91 1.5 15.975 0.701754 13.125 0C12.65 1.57895 12.175 5.78947 10.75 11.0526C9.36882 16.154 6.95 38 6 48C10.75 49.5 21.58 50 28.8 50C36.02 50 41.9417 48.8772 44 48C43.2083 39.7544 41.245 20.7368 39.725 13.1579C38.205 5.57895 37.1917 1.22807 36.875 0C35.7667 0.701754 32.79 1.5 27.85 1.5Z" fill="black" fill-opacity="0.3"/>
<path d="M12.9781 0C13.9928 0.333333 16.247 1.1 18.4609 1.5C20.0764 1.79186 24.9071 1.65781 26.4328 1.56399C26.4338 1.54261 26.4349 1.52128 26.4359 1.5C27.1097 1.5 26.9981 1.52923 26.4328 1.56399C26.1685 7.07003 27.3681 16.0847 26.4359 24.5C25.4391 33.5 24.9406 44.5 23.4453 50C21.6004 50 13.7488 49.9 11.5349 49.5C9.32091 49.1 6.92248 48.3333 6 48C6.83023 36 10.0431 11.8 10.4859 9C10.9287 6.2 12.7936 1.66667 12.9781 0Z" fill="#CE4317"/>
<path d="M12.9781 0C13.9928 0.333333 16.247 1.1 18.4609 1.5C20.0764 1.79186 24.9071 1.65781 26.4328 1.56399C26.4338 1.54261 26.4349 1.52128 26.4359 1.5C27.1097 1.5 26.9981 1.52923 26.4328 1.56399C26.1685 7.07003 27.3681 16.0847 26.4359 24.5C25.4391 33.5 24.9406 44.5 23.4453 50C21.6004 50 13.7488 49.9 11.5349 49.5C9.32091 49.1 6.92248 48.3333 6 48C6.83023 36 10.0431 11.8 10.4859 9C10.9287 6.2 12.7936 1.66667 12.9781 0Z" fill="black" fill-opacity="0.15"/>
<path d="M37.3406 0C36.5104 0.333333 34.6661 1.1 32.8547 1.5C31.533 1.79186 27.5806 1.65781 26.3323 1.564C26.3314 1.54262 26.3306 1.52129 26.3297 1.5C25.7784 1.5 25.8697 1.52924 26.3323 1.564C26.5529 7.06619 26.1374 15.5847 26.9 24C27.7156 33 28.5266 44.5 29.75 50C31.2595 50 36.7101 49.9 38.5215 49.5C40.3329 49.1 43.2452 48.3333 44 48C43.3207 36 39.742 11.8 39.3797 9C39.0174 6.2 37.4916 1.66667 37.3406 0Z" fill="#CE4317"/>
<path d="M37.3406 0C36.5104 0.333333 34.6661 1.1 32.8547 1.5C31.533 1.79186 27.5806 1.65781 26.3323 1.564C26.3314 1.54262 26.3306 1.52129 26.3297 1.5C25.7784 1.5 25.8697 1.52924 26.3323 1.564C26.5529 7.06619 26.1374 15.5847 26.9 24C27.7156 33 28.5266 44.5 29.75 50C31.2595 50 36.7101 49.9 38.5215 49.5C40.3329 49.1 43.2452 48.3333 44 48C43.3207 36 39.742 11.8 39.3797 9C39.0174 6.2 37.4916 1.66667 37.3406 0Z" fill="black" fill-opacity="0.15"/>
<path d="M28.325 1.5H25C24.8417 9 25.38 17 25 21C24.62 25 22.6333 43.8333 22 48.5C21.05 48.6667 18.42 48.9 15 48.5C11.58 48.1 7.425 47 6 46.5V48C7.9 48.6667 12.46 50 15.5 50H23.575C23.8917 48 24.62 43 25 39C25.38 35 26.425 25.6667 26.9 21.5C27.0583 24.8333 27.47 32.4 27.85 36C28.23 39.6 29.275 46.8333 29.75 50C31.65 50 35.925 49.9 37.825 49.5C39.725 49.1 42.7333 48.5 44 48V46C43.2083 46.3333 40.105 47.6 37.825 48C35.545 48.4 32.425 48 31 48C30.6833 44.3333 28.8 27 28.325 21C27.85 15 28.4833 8.5 28.325 1.5Z" fill="#FAA21E"/>
<path d="M28.325 1.5H25C24.8417 9 25.38 17 25 21C24.62 25 22.6333 43.8333 22 48.5C21.05 48.6667 18.42 48.9 15 48.5C11.58 48.1 7.425 47 6 46.5V48C7.9 48.6667 12.46 50 15.5 50H23.575C23.8917 48 24.62 43 25 39C25.38 35 26.425 25.6667 26.9 21.5C27.0583 24.8333 27.47 32.4 27.85 36C28.23 39.6 29.275 46.8333 29.75 50C31.65 50 35.925 49.9 37.825 49.5C39.725 49.1 42.7333 48.5 44 48V46C43.2083 46.3333 40.105 47.6 37.825 48C35.545 48.4 32.425 48 31 48C30.6833 44.3333 28.8 27 28.325 21C27.85 15 28.4833 8.5 28.325 1.5Z" fill="white" fill-opacity="0.2"/>
<path d="M23 40V48.5C16.3023 49.739 12.5876 49.1138 6 46.7C6 45 7 35.5 7 37C7 39.5495 7.5 42.5 10 42C11.0963 41.7807 11.5 40.5 11 39C11.3333 39 12.1 39.2 12.5 40C13 41 12.5 42 12 42.5C11.5 43 11.1056 44.5528 12 45C13 45.5 14 44.5 14.5 43.5C15 42.5 13.5 41 14.5 39.5C15.3 38.3 16.5 38.6667 17 39C16.6667 39.3333 16 39.3438 16 40.5C16 41 16.5 42.5 17.5 42.5C18.5 42.5 19 41 19 40C19 38.5 19 38 18.5 37C19.1667 37.3333 20.5 38.2812 20.5 40C20.5 41 19.5 42 19.5 43C19.5 43.7071 20 44.5 20.5 44.5C21 44.5 22 44 22 43C22 41 22.6667 40.3333 23 40Z" fill="#FAA21E"/>
<path d="M23 40V48.5C16.3023 49.739 12.5876 49.1138 6 46.7C6 45 7 35.5 7 37C7 39.5495 7.5 42.5 10 42C11.0963 41.7807 11.5 40.5 11 39C11.3333 39 12.1 39.2 12.5 40C13 41 12.5 42 12 42.5C11.5 43 11.1056 44.5528 12 45C13 45.5 14 44.5 14.5 43.5C15 42.5 13.5 41 14.5 39.5C15.3 38.3 16.5 38.6667 17 39C16.6667 39.3333 16 39.3438 16 40.5C16 41 16.5 42.5 17.5 42.5C18.5 42.5 19 41 19 40C19 38.5 19 38 18.5 37C19.1667 37.3333 20.5 38.2812 20.5 40C20.5 41 19.5 42 19.5 43C19.5 43.7071 20 44.5 20.5 44.5C21 44.5 22 44 22 43C22 41 22.6667 40.3333 23 40Z" fill="white" fill-opacity="0.2"/>
<path d="M30 40.1111L30.5 48.5C36.4248 50.0545 38.9376 48.9135 44 46.5408C43.4864 43.7408 43.6559 37.3519 43 41.5C42.3578 43.0556 40.4642 41.6667 40.3886 40.6296C40.2753 39.0741 40.5 38.5 41.5 37.5C41.223 37.5 39.6331 38.0371 38.9909 39.0741C38.3871 40.049 38.7264 40.6296 39.142 41.1482C39.5575 41.6667 39.8438 44.5 38.5 44.5C38 44.5 37.2188 43.7408 37.0643 42.7037C36.8996 41.5987 37.8311 41.0556 37 39.5C36.3351 38.2556 35.8176 38.0371 35 37.5C35.277 37.8457 35.8176 39.1778 35.8176 39.5926C35.8176 40.1111 35.4021 41.6667 34.571 41.6667C33.7399 41.6667 33.3244 40.1111 33.3244 39.0741C33.3244 38.2445 33.6014 37.3457 33.7399 37C33.1858 37.3457 32.0777 38.2445 32.0777 39.0741C32.0777 40.1111 32.4933 41.1482 32.9088 41.6667C33.3244 42.1852 32.9088 43.5 32.0777 43.7408C31.6786 43.8564 30.8311 43.2222 30.8311 42.1852C30.8311 41.3556 30.277 40.4568 30 40.1111Z" fill="#FAA21E"/>
<path d="M30 40.1111L30.5 48.5C36.4248 50.0545 38.9376 48.9135 44 46.5408C43.4864 43.7408 43.6559 37.3519 43 41.5C42.3578 43.0556 40.4642 41.6667 40.3886 40.6296C40.2753 39.0741 40.5 38.5 41.5 37.5C41.223 37.5 39.6331 38.0371 38.9909 39.0741C38.3871 40.049 38.7264 40.6296 39.142 41.1482C39.5575 41.6667 39.8438 44.5 38.5 44.5C38 44.5 37.2188 43.7408 37.0643 42.7037C36.8996 41.5987 37.8311 41.0556 37 39.5C36.3351 38.2556 35.8176 38.0371 35 37.5C35.277 37.8457 35.8176 39.1778 35.8176 39.5926C35.8176 40.1111 35.4021 41.6667 34.571 41.6667C33.7399 41.6667 33.3244 40.1111 33.3244 39.0741C33.3244 38.2445 33.6014 37.3457 33.7399 37C33.1858 37.3457 32.0777 38.2445 32.0777 39.0741C32.0777 40.1111 32.4933 41.1482 32.9088 41.6667C33.3244 42.1852 32.9088 43.5 32.0777 43.7408C31.6786 43.8564 30.8311 43.2222 30.8311 42.1852C30.8311 41.3556 30.277 40.4568 30 40.1111Z" fill="white" fill-opacity="0.2"/>
</svg>
