<svg width="50" height="50" viewBox="0 0 50 50" fill="none" xmlns="http://www.w3.org/2000/svg">
<path d="M11.6162 4.5L0 19C1.51515 17.5 7.57576 15 11.6162 16.5C18.2535 18.9641 15.6566 28 18.6869 35.5C21.1065 41.4885 29.4613 47.5 34.8485 49L50 20C45.9596 20 37.3737 18.4 35.3535 12C32.8283 4 28.2828 1 22.2222 1C17.3737 1 13.1313 3.33333 11.6162 4.5Z" fill="#CE4317"/>
<path d="M11.6162 4.5L0 19C1.51515 17.5 7.57576 15 11.6162 16.5C18.2535 18.9641 15.6566 28 18.6869 35.5C21.1065 41.4885 29.4613 47.5 34.8485 49L50 20C45.9596 20 37.3737 18.4 35.3535 12C32.8283 4 28.2828 1 22.2222 1C17.3737 1 13.1313 3.33333 11.6162 4.5Z" fill="black" fill-opacity="0.15"/>
<path fill-rule="evenodd" clip-rule="evenodd" d="M0 19L11.6162 4.5C13.1313 3.33333 17.3737 1 22.2222 1C28.2828 1 32.8283 4 35.3535 12C37.3737 18.4 45.9596 20 50 20L34.8485 49C29.4613 47.5 21.1065 41.4885 18.6869 35.5C17.5746 32.7471 17.2205 29.7873 16.8895 27.0215C16.3189 22.2521 15.8173 18.0597 11.6162 16.5C7.57576 15 1.51515 17.5 0 19ZM15 5.49998C15.8 5.49998 16.3333 6.16665 16.5 6.49998C15.6667 6.33332 13.9 6.2 13.5 7C13.1 7.8 14 9.66667 14.5 10.5C14 10 12.8 8.9 12 8.5C11 8 9.5 8.5 9.5 9.5C9.5 10.3 10.1667 10.8333 10.5 11C10 11.1667 8.60002 11.6 7.00002 12C5.40002 12.4 5.33336 14.1667 5.50002 15C6.66669 14.6667 9.40002 13.7 11 12.5C12.5266 11.3551 14.4779 11.6363 15.3776 11.954C14.9655 11.8395 14.0767 11.9233 13 13C11.5 14.5 13.5 17 14 17C14.0854 17 14.2 17.0146 14.3313 17.0313C14.9687 17.1125 16 17.2438 16 16C16 14.8 17.3333 14.1667 18 14C17.8333 14.5 17.5 15.8 17.5 17C17.5 17.8258 17.1969 18.1969 16.9245 18.5306C16.702 18.8031 16.5 19.0505 16.5 19.5C16.5 20.5 17.5 21.5 18.5 21.5C19.3 21.5 20.5 22.5 21 23C20.6667 23 19.8 23.1 19 23.5C18 24 17.5 26.5 18 27.5C18.25 28 18.75 28 19.25 28C19.75 28 20.25 28 20.5 28.5C20.8112 29.1225 20.3475 29.5512 19.8324 30.0275C19.52 30.3163 19.1887 30.6225 19 31C18.5 32 19 32.5 20 33C20.8 33.4 22 33.1667 22.5 33C22 33.5 21 34.7 21 35.5C21 36.5 21.5 37.5 23 38C23.8687 38.2896 24.0666 38.076 24.3707 37.7479C24.5917 37.5094 24.8687 37.2104 25.5 37C26.7 36.6 29 37.5 30 38C29.5 38 28.3 38.1 27.5 38.5C26.5 39 26.5 41.5 28 42.5C28.75 43 29.125 42.875 29.5 42.75C29.875 42.625 30.25 42.5 31 43C31.6175 43.4117 31.8961 44.0776 32.1496 44.6837C32.512 45.5499 32.8233 46.2942 34 46C35.6457 45.5886 35.5987 44.8386 35.5304 43.75C35.5157 43.5157 35.5 43.2657 35.5 43C35.5 41.8 32.8333 41.5 31.5 41.5C32 41.5 33.2 41.4 34 41C35 40.5 35.5 40.5 37 40.5C38.5 40.5 38.5 38 38 36.5C37.6 35.3 36.8333 34 36.5 33.5C37.1667 33.6667 38.9 34 40.5 34C42.5 34 42 31 40.5 31.5C39.3 31.9 37.6667 31.6667 37 31.5C37.5 31.3333 38.7 30.8 39.5 30C40.3119 29.1881 41.783 29.365 42.5753 29.4602C42.7588 29.4823 42.906 29.5 43 29.5C43.5 29.5 44 27.5 43 27.5C42.2 27.5 42 26.1667 42 25.5C42.5 25.5 43.8 25.4 45 25C46.5 24.5 46.5 22 46 21.5C45.5 21 43.5 20.5 43.5 22C43.5 22.8531 43.1765 22.7358 42.7136 22.568C42.3625 22.4407 41.9313 22.2844 41.5 22.5C40.7 22.9 40.1667 23.6667 40 24C39.8333 23.3333 39.7 21.9 40.5 21.5C41.3 21.1 40.1667 19.6667 39.5 19C38.8333 19 37.4 18.8 37 18C36.6 17.2 36.1667 16 36 15.5C36 15.6667 35.7 16 34.5 16C33.3 16 32.6667 15 32.5 14.5C32.8333 14.6667 33.6 14.8 34 14C34.4 13.2 33.5 11.3333 33 10.5C32.3333 10.6667 31 10.6 31 9C31 7 31 6 30 5C29 4 28 4.5 27.5 5.5C27.1 6.3 27.3333 7.5 27.5 8C27.1667 7.66667 26.4 6.8 26 6C25.6 5.2 25.8333 3.99997 26 3.49995C25.5 3.16662 24.2 2.69995 23 3.49995C22.0613 4.12574 20.731 3.77249 19.8668 3.54302C19.3501 3.4058 19 3.31284 19 3.49995C19 3.89995 18.3333 5.33328 18 5.99995C18 5.66663 17.8 4.79998 17 3.99998C16.2 3.19998 14.6667 3.99998 14 4.49998C14 4.83332 14.2 5.49998 15 5.49998Z" fill="#FAA21E"/>
<path fill-rule="evenodd" clip-rule="evenodd" d="M0 19L11.6162 4.5C13.1313 3.33333 17.3737 1 22.2222 1C28.2828 1 32.8283 4 35.3535 12C37.3737 18.4 45.9596 20 50 20L34.8485 49C29.4613 47.5 21.1065 41.4885 18.6869 35.5C17.5746 32.7471 17.2205 29.7873 16.8895 27.0215C16.3189 22.2521 15.8173 18.0597 11.6162 16.5C7.57576 15 1.51515 17.5 0 19ZM15 5.49998C15.8 5.49998 16.3333 6.16665 16.5 6.49998C15.6667 6.33332 13.9 6.2 13.5 7C13.1 7.8 14 9.66667 14.5 10.5C14 10 12.8 8.9 12 8.5C11 8 9.5 8.5 9.5 9.5C9.5 10.3 10.1667 10.8333 10.5 11C10 11.1667 8.60002 11.6 7.00002 12C5.40002 12.4 5.33336 14.1667 5.50002 15C6.66669 14.6667 9.40002 13.7 11 12.5C12.5266 11.3551 14.4779 11.6363 15.3776 11.954C14.9655 11.8395 14.0767 11.9233 13 13C11.5 14.5 13.5 17 14 17C14.0854 17 14.2 17.0146 14.3313 17.0313C14.9687 17.1125 16 17.2438 16 16C16 14.8 17.3333 14.1667 18 14C17.8333 14.5 17.5 15.8 17.5 17C17.5 17.8258 17.1969 18.1969 16.9245 18.5306C16.702 18.8031 16.5 19.0505 16.5 19.5C16.5 20.5 17.5 21.5 18.5 21.5C19.3 21.5 20.5 22.5 21 23C20.6667 23 19.8 23.1 19 23.5C18 24 17.5 26.5 18 27.5C18.25 28 18.75 28 19.25 28C19.75 28 20.25 28 20.5 28.5C20.8112 29.1225 20.3475 29.5512 19.8324 30.0275C19.52 30.3163 19.1887 30.6225 19 31C18.5 32 19 32.5 20 33C20.8 33.4 22 33.1667 22.5 33C22 33.5 21 34.7 21 35.5C21 36.5 21.5 37.5 23 38C23.8687 38.2896 24.0666 38.076 24.3707 37.7479C24.5917 37.5094 24.8687 37.2104 25.5 37C26.7 36.6 29 37.5 30 38C29.5 38 28.3 38.1 27.5 38.5C26.5 39 26.5 41.5 28 42.5C28.75 43 29.125 42.875 29.5 42.75C29.875 42.625 30.25 42.5 31 43C31.6175 43.4117 31.8961 44.0776 32.1496 44.6837C32.512 45.5499 32.8233 46.2942 34 46C35.6457 45.5886 35.5987 44.8386 35.5304 43.75C35.5157 43.5157 35.5 43.2657 35.5 43C35.5 41.8 32.8333 41.5 31.5 41.5C32 41.5 33.2 41.4 34 41C35 40.5 35.5 40.5 37 40.5C38.5 40.5 38.5 38 38 36.5C37.6 35.3 36.8333 34 36.5 33.5C37.1667 33.6667 38.9 34 40.5 34C42.5 34 42 31 40.5 31.5C39.3 31.9 37.6667 31.6667 37 31.5C37.5 31.3333 38.7 30.8 39.5 30C40.3119 29.1881 41.783 29.365 42.5753 29.4602C42.7588 29.4823 42.906 29.5 43 29.5C43.5 29.5 44 27.5 43 27.5C42.2 27.5 42 26.1667 42 25.5C42.5 25.5 43.8 25.4 45 25C46.5 24.5 46.5 22 46 21.5C45.5 21 43.5 20.5 43.5 22C43.5 22.8531 43.1765 22.7358 42.7136 22.568C42.3625 22.4407 41.9313 22.2844 41.5 22.5C40.7 22.9 40.1667 23.6667 40 24C39.8333 23.3333 39.7 21.9 40.5 21.5C41.3 21.1 40.1667 19.6667 39.5 19C38.8333 19 37.4 18.8 37 18C36.6 17.2 36.1667 16 36 15.5C36 15.6667 35.7 16 34.5 16C33.3 16 32.6667 15 32.5 14.5C32.8333 14.6667 33.6 14.8 34 14C34.4 13.2 33.5 11.3333 33 10.5C32.3333 10.6667 31 10.6 31 9C31 7 31 6 30 5C29 4 28 4.5 27.5 5.5C27.1 6.3 27.3333 7.5 27.5 8C27.1667 7.66667 26.4 6.8 26 6C25.6 5.2 25.8333 3.99997 26 3.49995C25.5 3.16662 24.2 2.69995 23 3.49995C22.0613 4.12574 20.731 3.77249 19.8668 3.54302C19.3501 3.4058 19 3.31284 19 3.49995C19 3.89995 18.3333 5.33328 18 5.99995C18 5.66663 17.8 4.79998 17 3.99998C16.2 3.19998 14.6667 3.99998 14 4.49998C14 4.83332 14.2 5.49998 15 5.49998Z" fill="white" fill-opacity="0.2"/>
</svg>
