<svg width="50" height="50" viewBox="0 0 50 50" fill="none" xmlns="http://www.w3.org/2000/svg">
<g clip-path="url(#clip0_2153_18118)">
<path d="M13 12.5L17.275 30.5M22.5 52.5L17.275 30.5M19.5 10.5C20.3047 27.5248 23.5 53 23 53M22.5 23.5C22.4706 29.3845 23.0741 31.8303 24.2903 36M25 15C25.5029 20.5039 25.0868 23.5619 23.9892 29M33 14.5C33 14.5 31.1588 28.3214 27.9588 36M37 10.5C31.9316 27.1546 30.4914 36.4054 30 53M42 16.5L35.5 33M27.5 51.5C29.9541 46.0104 31.16 43.281 34 37M30.5 9L27.4412 41.5L27.3941 42M26.5 51.5L27.3941 42M23 6L25 52.5M8.5 18C10.7575 23.4202 12.5923 27.4011 14.9964 32M19.65 40.5C17.8159 37.2506 16.3199 34.5317 14.9964 32M26.5 7.5C26.7523 15.0693 27.3076 19.2186 28.8529 26.5M18 18.5C17.5753 23.7949 18.9867 28.1909 21.1465 32M38 23.5C36.9376 26.1943 36.8072 27.444 36.8788 29.5M36.5 17C34.8205 25.4382 34.2222 29.8627 34 37M34 37L35.5 33M35.5 33C37.0897 31.1369 38.3542 29.6013 39.5 28.0626M44 21C42.3774 23.9023 41.0468 25.9853 39.5 28.0626M13.5 22C14.5505 25.6916 15.4116 27.5224 17.275 30.5M14.9964 32C11.9678 28.7011 10.2218 27.2542 7 25.5M39.5 28.0626L44 26M27.3941 42C26.6306 35.249 26.3754 31.4302 26.5 24.5" stroke="#2FC4A7"/>
<path d="M13 12.5L17.275 30.5M22.5 52.5L17.275 30.5M19.5 10.5C20.3047 27.5248 23.5 53 23 53M22.5 23.5C22.4706 29.3845 23.0741 31.8303 24.2903 36M25 15C25.5029 20.5039 25.0868 23.5619 23.9892 29M33 14.5C33 14.5 31.1588 28.3214 27.9588 36M37 10.5C31.9316 27.1546 30.4914 36.4054 30 53M42 16.5L35.5 33M27.5 51.5C29.9541 46.0104 31.16 43.281 34 37M30.5 9L27.4412 41.5L27.3941 42M26.5 51.5L27.3941 42M23 6L25 52.5M8.5 18C10.7575 23.4202 12.5923 27.4011 14.9964 32M19.65 40.5C17.8159 37.2506 16.3199 34.5317 14.9964 32M26.5 7.5C26.7523 15.0693 27.3076 19.2186 28.8529 26.5M18 18.5C17.5753 23.7949 18.9867 28.1909 21.1465 32M38 23.5C36.9376 26.1943 36.8072 27.444 36.8788 29.5M36.5 17C34.8205 25.4382 34.2222 29.8627 34 37M34 37L35.5 33M35.5 33C37.0897 31.1369 38.3542 29.6013 39.5 28.0626M44 21C42.3774 23.9023 41.0468 25.9853 39.5 28.0626M13.5 22C14.5505 25.6916 15.4116 27.5224 17.275 30.5M14.9964 32C11.9678 28.7011 10.2218 27.2542 7 25.5M39.5 28.0626L44 26M27.3941 42C26.6306 35.249 26.3754 31.4302 26.5 24.5" stroke="black" stroke-opacity="0.4"/>
<path d="M9.3797 10.5934C9.11614 8.93713 10.8659 7.20662 11.7313 6.28136C12.8411 6.89232 15.0378 7.97022 15.3051 9.65047C15.6718 11.9548 14.3127 12.9587 12.8313 13.1944C11.35 13.4301 9.74638 12.8977 9.3797 10.5934Z" fill="#FAA21E"/>
<path d="M9.3797 10.5934C9.11614 8.93713 10.8659 7.20662 11.7313 6.28136C12.8411 6.89232 15.0378 7.97022 15.3051 9.65047C15.6718 11.9548 14.3127 12.9587 12.8313 13.1944C11.35 13.4301 9.74638 12.8977 9.3797 10.5934Z" fill="white" fill-opacity="0.6"/>
<path d="M20 3.88889C20 2.21181 22 0.777778 23 0C24 0.777778 26 2.1875 26 3.88889C26 6.22222 24.5 7 23 7C21.5 7 20 6.22222 20 3.88889Z" fill="#FAA21E"/>
<path d="M20 3.88889C20 2.21181 22 0.777778 23 0C24 0.777778 26 2.1875 26 3.88889C26 6.22222 24.5 7 23 7C21.5 7 20 6.22222 20 3.88889Z" fill="white" fill-opacity="0.6"/>
<path d="M22 12.8889C22 11.2118 24 9.77778 25 9C26 9.77778 28 11.1875 28 12.8889C28 15.2222 26.5 16 25 16C23.5 16 22 15.2222 22 12.8889Z" fill="#FAA21E"/>
<path d="M22 12.8889C22 11.2118 24 9.77778 25 9C26 9.77778 28 11.1875 28 12.8889C28 15.2222 26.5 16 25 16C23.5 16 22 15.2222 22 12.8889Z" fill="white" fill-opacity="0.6"/>
<path d="M27.2837 18.8727C27.4367 17.2026 29.5591 15.9569 30.6259 15.2736C31.5508 16.1393 33.4139 17.7255 33.2587 19.4198C33.0459 21.7435 31.4813 22.3812 29.9875 22.2444C28.4938 22.1076 27.0709 21.1963 27.2837 18.8727Z" fill="#FAA21E"/>
<path d="M27.2837 18.8727C27.4367 17.2026 29.5591 15.9569 30.6259 15.2736C31.5508 16.1393 33.4139 17.7255 33.2587 19.4198C33.0459 21.7435 31.4813 22.3812 29.9875 22.2444C28.4938 22.1076 27.0709 21.1963 27.2837 18.8727Z" fill="white" fill-opacity="0.6"/>
<path d="M28.3155 8.74963C28.4856 7.56385 29.9509 6.73926 30.6897 6.284C31.2707 6.92859 32.4476 8.11466 32.275 9.31763C32.0383 10.9674 30.9696 11.3753 29.9797 11.2333C28.9898 11.0913 28.0789 10.3994 28.3155 8.74963Z" fill="#FAA21E"/>
<path d="M28.3155 8.74963C28.4856 7.56385 29.9509 6.73926 30.6897 6.284C31.2707 6.92859 32.4476 8.11466 32.275 9.31763C32.0383 10.9674 30.9696 11.3753 29.9797 11.2333C28.9898 11.0913 28.0789 10.3994 28.3155 8.74963Z" fill="white" fill-opacity="0.4"/>
<path d="M20.1286 22.96C20.0731 21.7633 21.3576 20.6784 21.9979 20.0926C22.6895 20.6167 24.068 21.5609 24.1243 22.7748C24.2014 24.4397 23.2282 25.041 22.2293 25.0873C21.2304 25.1335 20.2057 24.6249 20.1286 22.96Z" fill="#FAA21E"/>
<path d="M20.1286 22.96C20.0731 21.7633 21.3576 20.6784 21.9979 20.0926C22.6895 20.6167 24.068 21.5609 24.1243 22.7748C24.2014 24.4397 23.2282 25.041 22.2293 25.0873C21.2304 25.1335 20.2057 24.6249 20.1286 22.96Z" fill="white" fill-opacity="0.6"/>
<path d="M10.8475 21.2563C10.482 19.9471 11.6267 18.4208 12.1858 17.6102C13.0839 18.014 14.8484 18.7077 15.2192 20.0359C15.7277 21.8574 14.8043 22.7697 13.7114 23.0748C12.6185 23.3799 11.3561 23.0779 10.8475 21.2563Z" fill="#FAA21E"/>
<path d="M10.8475 21.2563C10.482 19.9471 11.6267 18.4208 12.1858 17.6102C13.0839 18.014 14.8484 18.7077 15.2192 20.0359C15.7277 21.8574 14.8043 22.7697 13.7114 23.0748C12.6185 23.3799 11.3561 23.0779 10.8475 21.2563Z" fill="white" fill-opacity="0.6"/>
<path d="M17.1744 10.0234C17.0992 8.82784 18.3656 7.72186 18.9961 7.12555C19.6963 7.63816 21.0902 8.55941 21.1665 9.77229C21.2711 11.4357 20.308 12.0529 19.3099 12.1157C18.3119 12.1785 17.279 11.6868 17.1744 10.0234Z" fill="#FAA21E"/>
<path d="M17.1744 10.0234C17.0992 8.82784 18.3656 7.72186 18.9961 7.12555C19.6963 7.63816 21.0902 8.55941 21.1665 9.77229C21.2711 11.4357 20.308 12.0529 19.3099 12.1157C18.3119 12.1785 17.279 11.6868 17.1744 10.0234Z" fill="white" fill-opacity="0.4"/>
<path d="M5.4918 17.8848C4.84846 16.7516 5.62357 15.0303 5.98782 14.1286C6.94879 14.278 8.81478 14.4781 9.46744 15.6276C10.3625 17.2042 9.66697 18.294 8.67306 18.8583C7.67915 19.4226 6.38688 19.4613 5.4918 17.8848Z" fill="#FAA21E"/>
<path d="M5.4918 17.8848C4.84846 16.7516 5.62357 15.0303 5.98782 14.1286C6.94879 14.278 8.81478 14.4781 9.46744 15.6276C10.3625 17.2042 9.66697 18.294 8.67306 18.8583C7.67915 19.4226 6.38688 19.4613 5.4918 17.8848Z" fill="white" fill-opacity="0.4"/>
<path d="M40.417 14.2597C40.7895 12.8539 42.6726 12.0666 43.6277 11.6219C44.2373 12.4812 45.4888 14.0774 45.1109 15.5035C44.5926 17.4593 43.2463 17.8003 42.0729 17.4893C40.8994 17.1783 39.8987 16.2154 40.417 14.2597Z" fill="#FAA21E"/>
<path d="M40.417 14.2597C40.7895 12.8539 42.6726 12.0666 43.6277 11.6219C44.2373 12.4812 45.4888 14.0774 45.1109 15.5035C44.5926 17.4593 43.2463 17.8003 42.0729 17.4893C40.8994 17.1783 39.8987 16.2154 40.417 14.2597Z" fill="white" fill-opacity="0.6"/>
<path d="M34.9065 15.4464C35.1861 14.3914 36.5994 13.8005 37.3162 13.4668C37.7737 14.1116 38.7129 15.3096 38.4293 16.3799C38.0403 17.8477 37.03 18.1036 36.1493 17.8702C35.2686 17.6369 34.5175 16.9142 34.9065 15.4464Z" fill="#FAA21E"/>
<path d="M34.9065 15.4464C35.1861 14.3914 36.5994 13.8005 37.3162 13.4668C37.7737 14.1116 38.7129 15.3096 38.4293 16.3799C38.0403 17.8477 37.03 18.1036 36.1493 17.8702C35.2686 17.6369 34.5175 16.9142 34.9065 15.4464Z" fill="white" fill-opacity="0.4"/>
<path d="M36.5186 21.4464C36.7982 20.3914 38.2115 19.8005 38.9283 19.4668C39.3858 20.1116 40.325 21.3096 40.0414 22.3799C39.6524 23.8477 38.6421 24.1036 37.7614 23.8702C36.8807 23.6369 36.1297 22.9142 36.5186 21.4464Z" fill="#FAA21E"/>
<path d="M36.5186 21.4464C36.7982 20.3914 38.2115 19.8005 38.9283 19.4668C39.3858 20.1116 40.325 21.3096 40.0414 22.3799C39.6524 23.8477 38.6421 24.1036 37.7614 23.8702C36.8807 23.6369 36.1297 22.9142 36.5186 21.4464Z" fill="white" fill-opacity="0.4"/>
<path d="M16.1877 17.0417C16.1067 15.8465 17.3678 14.7345 17.9954 14.1351C18.6981 14.6444 20.0964 15.5589 20.1785 16.7714C20.2911 18.4343 19.331 19.0561 18.3332 19.1237C17.3355 19.1913 16.3003 18.7046 16.1877 17.0417Z" fill="#FAA21E"/>
<path d="M16.1877 17.0417C16.1067 15.8465 17.3678 14.7345 17.9954 14.1351C18.6981 14.6444 20.0964 15.5589 20.1785 16.7714C20.2911 18.4343 19.331 19.0561 18.3332 19.1237C17.3355 19.1913 16.3003 18.7046 16.1877 17.0417Z" fill="white" fill-opacity="0.4"/>
<path d="M34.3631 8.42709C34.7857 6.80413 37.0825 5.92036 38.2463 5.41967C39.018 6.42434 40.5982 8.29256 40.1695 9.93904C39.5815 12.1971 37.9339 12.5718 36.4823 12.1938C35.0307 11.8158 33.7751 10.6851 34.3631 8.42709Z" fill="#FAA21E"/>
<path d="M34.3631 8.42709C34.7857 6.80413 37.0825 5.92036 38.2463 5.41967C39.018 6.42434 40.5982 8.29256 40.1695 9.93904C39.5815 12.1971 37.9339 12.5718 36.4823 12.1938C35.0307 11.8158 33.7751 10.6851 34.3631 8.42709Z" fill="white" fill-opacity="0.6"/>
</g>
<defs>
<clipPath id="clip0_2153_18118">
<rect width="50" height="50" fill="white"/>
</clipPath>
</defs>
</svg>
