<svg width="50" height="50" viewBox="0 0 50 50" fill="none" xmlns="http://www.w3.org/2000/svg">
<path d="M10.7912 12.6088C6.51148 17.422 6.16536 26.9187 6.15444 32.5848C9.56773 35.2504 19.2079 40.2262 27.6457 38.0293C36.0836 35.8323 41.2356 28.1404 42.7569 24.5691C41.407 19.3048 35.5001 8.71595 28.0001 7.60003C21.0506 6.566 14.5315 8.40224 10.7912 12.6088Z" fill="#CE4317"/>
<path d="M10.7912 12.6088C6.51148 17.422 6.16536 26.9187 6.15444 32.5848C9.56773 35.2504 19.2079 40.2262 27.6457 38.0293C36.0836 35.8323 41.2356 28.1404 42.7569 24.5691C41.407 19.3048 35.5001 8.71595 28.0001 7.60003C21.0506 6.566 14.5315 8.40224 10.7912 12.6088Z" fill="black" fill-opacity="0.15"/>
<path d="M42.7568 24.5691C41.4069 19.3048 36 5.00003 21 7.50004C33 9.63974 36.0857 21.7993 35 31C43.4379 28.8031 41.2355 28.1404 42.7568 24.5691Z" fill="#CE4317"/>
<path d="M42.7568 24.5691C41.4069 19.3048 36 5.00003 21 7.50004C33 9.63974 36.0857 21.7993 35 31C43.4379 28.8031 41.2355 28.1404 42.7568 24.5691Z" fill="black" fill-opacity="0.3"/>
<path d="M0.563224 33.4695C-0.137056 27.3618 6.61104 23.6107 6.61248 25.1375C6.61353 26.2454 6.23778 29.2085 6.61779 30.7356C6.99781 32.2627 8.75187 35.4419 16.3579 33.4846C23.4856 31.6504 25.666 21.1288 32.0755 17.9532C37.4166 15.3068 44.2174 15.5441 47.4634 19.2398C51.3587 23.6747 50.4008 30.0899 44.2906 35.8754C38.1804 41.6609 21.639 45.0829 12.437 43.5955C5.64702 42.4979 1.2635 39.5772 0.563224 33.4695Z" fill="#CE4317"/>
<path d="M0.563224 33.4695C-0.137056 27.3618 6.61104 23.6107 6.61248 25.1375C6.61353 26.2454 6.23778 29.2085 6.61779 30.7356C6.99781 32.2627 8.75187 35.4419 16.3579 33.4846C23.4856 31.6504 25.666 21.1288 32.0755 17.9532C37.4166 15.3068 44.2174 15.5441 47.4634 19.2398C51.3587 23.6747 50.4008 30.0899 44.2906 35.8754C38.1804 41.6609 21.639 45.0829 12.437 43.5955C5.64702 42.4979 1.2635 39.5772 0.563224 33.4695Z" fill="white" fill-opacity="0.15"/>
<path d="M12.4372 43.5954C5.64714 42.4979 1.26362 39.5771 0.563342 33.4694C0.563342 33.4694 2.50003 36 4.50003 37.5C6.50003 39 9.64618 40 17.5 40C24.5 40 33.7151 37.2072 39.5 33C45 29 48.5 26 47.4635 19.2398C51.3588 23.6746 50.401 30.0899 44.2908 35.8754C38.1806 41.6609 21.6391 45.0829 12.4372 43.5954Z" fill="#CE4317"/>
<path fill-rule="evenodd" clip-rule="evenodd" d="M27.1852 22.3828C27.8683 21.4885 28.5825 20.6474 29.3561 19.9091L33.804 19.0195C34.2006 18.9402 34.6059 19.1076 34.831 19.4436C35.056 19.7797 35.0565 20.2182 34.8321 20.5548L32.9921 23.3148L36.4096 23.0042C36.7708 22.9713 37.1216 23.1367 37.3261 23.4363C37.5306 23.7359 37.5568 24.1228 37.3945 24.4473L36.7059 25.8245L39.9006 25.505C40.3091 25.4642 40.701 25.6771 40.889 26.042C41.077 26.4069 41.023 26.8496 40.7527 27.1586L38.5135 29.7176L41.1105 30.0062C41.5046 30.05 41.8355 30.3224 41.9542 30.7006C42.0729 31.0789 41.957 31.4916 41.6586 31.7526L39.1448 33.9523L41.717 34.5239C42.0461 34.597 42.3161 34.831 42.4354 35.1462C42.5547 35.4615 42.5071 35.8156 42.3088 36.0882L40.5528 38.5028C39.4165 39.125 38.161 39.7033 36.8217 40.2326L39.7943 36.1454L36.7832 35.4762C36.4152 35.3945 36.1245 35.1127 36.0312 34.7475C35.9379 34.3823 36.0579 33.9957 36.3416 33.7475L38.6323 31.7431L36.3897 31.4939C36.0195 31.4528 35.7029 31.2094 35.568 30.8623C35.4331 30.5152 35.5023 30.1218 35.7475 29.8416L37.5802 27.747L35.0996 27.9951C34.737 28.0314 34.3835 27.8675 34.1767 27.5675C33.9699 27.2675 33.9427 26.8787 34.1057 26.5528L34.8029 25.1585L31.0906 25.496C30.7071 25.5308 30.3376 25.3423 30.1407 25.0114C29.9438 24.6804 29.9544 24.2658 30.168 23.9454L31.8289 21.4541L27.1852 22.3828ZM21.599 30.0172C22.1203 29.439 22.6172 28.8178 23.1001 28.1717L26.1105 28.5062C26.4574 28.5447 26.7591 28.7613 26.9065 29.0777C27.0539 29.394 27.0257 29.7644 26.8321 30.0548L25.8686 31.5001H28.5001C28.8566 31.5001 29.1861 31.6898 29.365 31.9981C29.5439 32.3064 29.5452 32.6867 29.3683 32.9962L28.1237 35.1743L31.1105 35.5062C31.5046 35.55 31.8355 35.8224 31.9542 36.2006C32.0729 36.5789 31.957 36.9916 31.6586 37.2526L28.9721 39.6033L30.3163 40.0514C30.6731 40.1703 30.9331 40.4794 30.989 40.8514C31.0449 41.2233 30.8874 41.5952 30.5813 41.8138L29.7445 42.4115C28.354 42.7373 26.9415 43.015 25.5342 43.2409C25.5921 43.0247 25.7225 42.8266 25.9189 42.6863L27.8209 41.3277L26.6839 40.9487C26.3438 40.8354 26.0904 40.5487 26.0197 40.1973C25.949 39.8459 26.0718 39.4835 26.3416 39.2475L28.6323 37.2431L26.3897 36.9939C26.0549 36.9567 25.7614 36.7536 25.6088 36.4534C25.4561 36.1532 25.4648 35.7963 25.6319 35.5039L26.7769 33.5001H24.0001C23.6313 33.5001 23.2924 33.2971 23.1184 32.9719C22.9444 32.6468 22.9635 32.2522 23.168 31.9454L24.2566 30.3125L21.599 30.0172ZM14.105 33.9459C14.7922 33.8457 15.5415 33.6948 16.3581 33.4847C16.7007 33.3965 17.0318 33.2883 17.3526 33.1618L20.2874 34.0422C20.6489 34.1507 20.9186 34.4534 20.9846 34.8249C21.0507 35.1965 20.902 35.5736 20.6001 35.8001L18.0605 37.7047L20.3512 38.5637C20.775 38.7226 21.0392 39.1463 20.9954 39.5967C20.9517 40.0471 20.6109 40.4121 20.1645 40.4865L16.9341 41.0249L17.9962 41.6318C18.3294 41.8222 18.5243 42.1865 18.4977 42.5693C18.4711 42.9522 18.2278 43.286 17.8715 43.4285L16.5998 43.9372C15.1044 43.9116 13.7016 43.7999 12.4372 43.5955C12.35 43.5815 12.2632 43.5671 12.1768 43.5524L15.2058 42.3408L13.504 41.3683C13.1367 41.1585 12.9413 40.7403 13.0157 40.324C13.0902 39.9077 13.4185 39.5832 13.8357 39.5137L16.1568 39.1268L15.649 38.9364C15.3069 38.8081 15.062 38.5035 15.0102 38.1419C14.9584 37.7803 15.1079 37.4192 15.4001 37.2001L17.8153 35.3887L14.7128 34.4579C14.4373 34.3752 14.2239 34.1845 14.105 33.9459ZM8.54173 33.2863C9.34475 33.7599 10.4627 34.0935 12.0171 34.1029L12.2072 34.2929C12.475 34.5608 12.5686 34.957 12.4488 35.3163C12.329 35.6756 12.0165 35.9364 11.6415 35.99L9.87461 36.2424L10.781 37.3754C11.0336 37.6912 11.0712 38.1281 10.8761 38.4824C10.681 38.8367 10.2917 39.0386 9.88967 38.9939L6.94302 38.6665L7.44878 40.1838C7.56856 40.5432 7.47504 40.9393 7.2072 41.2072C6.93937 41.475 6.54321 41.5685 6.18387 41.4487L5.21885 41.1271C3.91188 40.296 2.85011 39.2651 2.06422 38.0019C2.14816 38.0073 2.23278 38.0235 2.31633 38.0514L4.91896 38.9189L4.55141 37.8163C4.44357 37.4928 4.50804 37.1366 4.72243 36.8714C4.93683 36.6062 5.27159 36.4685 5.61053 36.5062L7.71108 36.7396L7.21923 36.1248C6.99502 35.8445 6.9382 35.4656 7.07035 35.1319C7.20251 34.7981 7.50337 34.5609 7.85868 34.5101L9.37878 34.2929L8.79299 33.7072C8.67134 33.5855 8.58759 33.4403 8.54173 33.2863ZM6.48541 29.864C6.51199 30.1845 6.55441 30.4802 6.61798 30.7357C6.7329 31.1974 6.97345 31.8103 7.46346 32.3865C7.13277 32.5591 6.71842 32.5388 6.4001 32.3001L6.0001 32.0001V33.5001C6.0001 33.9045 5.75646 34.2692 5.38278 34.4239C5.00911 34.5787 4.57899 34.4932 4.29299 34.2072L2.93711 32.8513L2.44878 34.3163C2.32529 34.6868 1.99741 34.9515 1.60922 34.9941C1.28535 35.0296 0.968932 34.9052 0.756282 34.6685C0.675322 34.2832 0.610899 33.8837 0.563413 33.4695C0.454775 32.522 0.525399 31.6312 0.722283 30.808C0.772851 30.8609 0.818366 30.9202 0.857591 30.9856L1.23896 31.6212L1.55141 30.6838C1.66101 30.355 1.93304 30.1064 2.27035 30.0268C2.60765 29.9472 2.96214 30.0479 3.20721 30.293L4.0001 31.0858V30.0001C4.0001 29.6213 4.2141 29.275 4.55288 29.1056C4.89167 28.9362 5.29708 28.9728 5.6001 29.2001L6.48541 29.864ZM47.183 32.5767C47.0678 32.4137 47.0001 32.2148 47.0001 32.0001V27.6805L45.1645 27.9865C44.8186 28.0441 44.4677 27.9163 44.2398 27.6497C44.012 27.3831 43.9405 27.0166 44.0514 26.6838L44.9422 24.0115L41.7874 24.9579C41.3738 25.082 40.9273 24.9265 40.6801 24.5724C40.4329 24.2183 40.441 23.7455 40.7001 23.4001L42.3339 21.2217L39.5996 21.4951C39.2148 21.5336 38.8423 21.3467 38.643 21.0152C38.4438 20.6838 38.4535 20.2671 38.668 19.9454L39.9185 18.0696L36.2127 16.9579C36.0165 16.899 35.8517 16.7852 35.7302 16.6384C37.4175 16.2386 39.1363 16.0988 40.7592 16.2338L41.7874 16.5422C42.0911 16.6333 42.3335 16.863 42.4409 17.1612C42.5484 17.4595 42.508 17.791 42.3321 18.0548L41.5056 19.2945L44.4006 19.005C44.7954 18.9655 45.1762 19.1632 45.3711 19.5088C45.566 19.8545 45.5382 20.2826 45.3001 20.6001L44.1234 22.1691L46.2127 21.5422C46.5703 21.435 46.9579 21.5358 47.2178 21.8037C47.4778 22.0717 47.5668 22.4621 47.4488 22.8163L46.474 25.7406L47.8357 25.5137C48.1257 25.4653 48.4222 25.547 48.6465 25.737C48.8708 25.927 49.0001 26.2061 49.0001 26.5001V29.2563C48.5709 30.3567 47.9658 31.4692 47.183 32.5767Z" fill="#CE4317"/>
<path fill-rule="evenodd" clip-rule="evenodd" d="M27.1852 22.3828C27.8683 21.4885 28.5825 20.6474 29.3561 19.9091L33.804 19.0195C34.2006 18.9402 34.6059 19.1076 34.831 19.4436C35.056 19.7797 35.0565 20.2182 34.8321 20.5548L32.9921 23.3148L36.4096 23.0042C36.7708 22.9713 37.1216 23.1367 37.3261 23.4363C37.5306 23.7359 37.5568 24.1228 37.3945 24.4473L36.7059 25.8245L39.9006 25.505C40.3091 25.4642 40.701 25.6771 40.889 26.042C41.077 26.4069 41.023 26.8496 40.7527 27.1586L38.5135 29.7176L41.1105 30.0062C41.5046 30.05 41.8355 30.3224 41.9542 30.7006C42.0729 31.0789 41.957 31.4916 41.6586 31.7526L39.1448 33.9523L41.717 34.5239C42.0461 34.597 42.3161 34.831 42.4354 35.1462C42.5547 35.4615 42.5071 35.8156 42.3088 36.0882L40.5528 38.5028C39.4165 39.125 38.161 39.7033 36.8217 40.2326L39.7943 36.1454L36.7832 35.4762C36.4152 35.3945 36.1245 35.1127 36.0312 34.7475C35.9379 34.3823 36.0579 33.9957 36.3416 33.7475L38.6323 31.7431L36.3897 31.4939C36.0195 31.4528 35.7029 31.2094 35.568 30.8623C35.4331 30.5152 35.5023 30.1218 35.7475 29.8416L37.5802 27.747L35.0996 27.9951C34.737 28.0314 34.3835 27.8675 34.1767 27.5675C33.9699 27.2675 33.9427 26.8787 34.1057 26.5528L34.8029 25.1585L31.0906 25.496C30.7071 25.5308 30.3376 25.3423 30.1407 25.0114C29.9438 24.6804 29.9544 24.2658 30.168 23.9454L31.8289 21.4541L27.1852 22.3828ZM21.599 30.0172C22.1203 29.439 22.6172 28.8178 23.1001 28.1717L26.1105 28.5062C26.4574 28.5447 26.7591 28.7613 26.9065 29.0777C27.0539 29.394 27.0257 29.7644 26.8321 30.0548L25.8686 31.5001H28.5001C28.8566 31.5001 29.1861 31.6898 29.365 31.9981C29.5439 32.3064 29.5452 32.6867 29.3683 32.9962L28.1237 35.1743L31.1105 35.5062C31.5046 35.55 31.8355 35.8224 31.9542 36.2006C32.0729 36.5789 31.957 36.9916 31.6586 37.2526L28.9721 39.6033L30.3163 40.0514C30.6731 40.1703 30.9331 40.4794 30.989 40.8514C31.0449 41.2233 30.8874 41.5952 30.5813 41.8138L29.7445 42.4115C28.354 42.7373 26.9415 43.015 25.5342 43.2409C25.5921 43.0247 25.7225 42.8266 25.9189 42.6863L27.8209 41.3277L26.6839 40.9487C26.3438 40.8354 26.0904 40.5487 26.0197 40.1973C25.949 39.8459 26.0718 39.4835 26.3416 39.2475L28.6323 37.2431L26.3897 36.9939C26.0549 36.9567 25.7614 36.7536 25.6088 36.4534C25.4561 36.1532 25.4648 35.7963 25.6319 35.5039L26.7769 33.5001H24.0001C23.6313 33.5001 23.2924 33.2971 23.1184 32.9719C22.9444 32.6468 22.9635 32.2522 23.168 31.9454L24.2566 30.3125L21.599 30.0172ZM14.105 33.9459C14.7922 33.8457 15.5415 33.6948 16.3581 33.4847C16.7007 33.3965 17.0318 33.2883 17.3526 33.1618L20.2874 34.0422C20.6489 34.1507 20.9186 34.4534 20.9846 34.8249C21.0507 35.1965 20.902 35.5736 20.6001 35.8001L18.0605 37.7047L20.3512 38.5637C20.775 38.7226 21.0392 39.1463 20.9954 39.5967C20.9517 40.0471 20.6109 40.4121 20.1645 40.4865L16.9341 41.0249L17.9962 41.6318C18.3294 41.8222 18.5243 42.1865 18.4977 42.5693C18.4711 42.9522 18.2278 43.286 17.8715 43.4285L16.5998 43.9372C15.1044 43.9116 13.7016 43.7999 12.4372 43.5955C12.35 43.5815 12.2632 43.5671 12.1768 43.5524L15.2058 42.3408L13.504 41.3683C13.1367 41.1585 12.9413 40.7403 13.0157 40.324C13.0902 39.9077 13.4185 39.5832 13.8357 39.5137L16.1568 39.1268L15.649 38.9364C15.3069 38.8081 15.062 38.5035 15.0102 38.1419C14.9584 37.7803 15.1079 37.4192 15.4001 37.2001L17.8153 35.3887L14.7128 34.4579C14.4373 34.3752 14.2239 34.1845 14.105 33.9459ZM8.54173 33.2863C9.34475 33.7599 10.4627 34.0935 12.0171 34.1029L12.2072 34.2929C12.475 34.5608 12.5686 34.957 12.4488 35.3163C12.329 35.6756 12.0165 35.9364 11.6415 35.99L9.87461 36.2424L10.781 37.3754C11.0336 37.6912 11.0712 38.1281 10.8761 38.4824C10.681 38.8367 10.2917 39.0386 9.88967 38.9939L6.94302 38.6665L7.44878 40.1838C7.56856 40.5432 7.47504 40.9393 7.2072 41.2072C6.93937 41.475 6.54321 41.5685 6.18387 41.4487L5.21885 41.1271C3.91188 40.296 2.85011 39.2651 2.06422 38.0019C2.14816 38.0073 2.23278 38.0235 2.31633 38.0514L4.91896 38.9189L4.55141 37.8163C4.44357 37.4928 4.50804 37.1366 4.72243 36.8714C4.93683 36.6062 5.27159 36.4685 5.61053 36.5062L7.71108 36.7396L7.21923 36.1248C6.99502 35.8445 6.9382 35.4656 7.07035 35.1319C7.20251 34.7981 7.50337 34.5609 7.85868 34.5101L9.37878 34.2929L8.79299 33.7072C8.67134 33.5855 8.58759 33.4403 8.54173 33.2863ZM6.48541 29.864C6.51199 30.1845 6.55441 30.4802 6.61798 30.7357C6.7329 31.1974 6.97345 31.8103 7.46346 32.3865C7.13277 32.5591 6.71842 32.5388 6.4001 32.3001L6.0001 32.0001V33.5001C6.0001 33.9045 5.75646 34.2692 5.38278 34.4239C5.00911 34.5787 4.57899 34.4932 4.29299 34.2072L2.93711 32.8513L2.44878 34.3163C2.32529 34.6868 1.99741 34.9515 1.60922 34.9941C1.28535 35.0296 0.968932 34.9052 0.756282 34.6685C0.675322 34.2832 0.610899 33.8837 0.563413 33.4695C0.454775 32.522 0.525399 31.6312 0.722283 30.808C0.772851 30.8609 0.818366 30.9202 0.857591 30.9856L1.23896 31.6212L1.55141 30.6838C1.66101 30.355 1.93304 30.1064 2.27035 30.0268C2.60765 29.9472 2.96214 30.0479 3.20721 30.293L4.0001 31.0858V30.0001C4.0001 29.6213 4.2141 29.275 4.55288 29.1056C4.89167 28.9362 5.29708 28.9728 5.6001 29.2001L6.48541 29.864ZM47.183 32.5767C47.0678 32.4137 47.0001 32.2148 47.0001 32.0001V27.6805L45.1645 27.9865C44.8186 28.0441 44.4677 27.9163 44.2398 27.6497C44.012 27.3831 43.9405 27.0166 44.0514 26.6838L44.9422 24.0115L41.7874 24.9579C41.3738 25.082 40.9273 24.9265 40.6801 24.5724C40.4329 24.2183 40.441 23.7455 40.7001 23.4001L42.3339 21.2217L39.5996 21.4951C39.2148 21.5336 38.8423 21.3467 38.643 21.0152C38.4438 20.6838 38.4535 20.2671 38.668 19.9454L39.9185 18.0696L36.2127 16.9579C36.0165 16.899 35.8517 16.7852 35.7302 16.6384C37.4175 16.2386 39.1363 16.0988 40.7592 16.2338L41.7874 16.5422C42.0911 16.6333 42.3335 16.863 42.4409 17.1612C42.5484 17.4595 42.508 17.791 42.3321 18.0548L41.5056 19.2945L44.4006 19.005C44.7954 18.9655 45.1762 19.1632 45.3711 19.5088C45.566 19.8545 45.5382 20.2826 45.3001 20.6001L44.1234 22.1691L46.2127 21.5422C46.5703 21.435 46.9579 21.5358 47.2178 21.8037C47.4778 22.0717 47.5668 22.4621 47.4488 22.8163L46.474 25.7406L47.8357 25.5137C48.1257 25.4653 48.4222 25.547 48.6465 25.737C48.8708 25.927 49.0001 26.2061 49.0001 26.5001V29.2563C48.5709 30.3567 47.9658 31.4692 47.183 32.5767Z" fill="white" fill-opacity="0.6"/>
<path fill-rule="evenodd" clip-rule="evenodd" d="M36.1789 35.0709C37.3707 34.4288 38.4878 33.7361 39.4999 33C40.3861 32.3555 41.2204 31.7369 41.9922 31.1244C41.9622 31.363 41.8466 31.5879 41.6584 31.7526L39.1446 33.9522L41.7169 34.5238C42.0459 34.5969 42.316 34.8309 42.4352 35.1462C42.5545 35.4614 42.5069 35.8156 42.3087 36.0882L40.5527 38.5027C39.4164 39.1249 38.1609 39.7032 36.8216 40.2325L39.7941 36.1453L36.783 35.4762C36.5337 35.4208 36.3199 35.2736 36.1789 35.0709ZM27.0448 38.6319C28.659 38.2015 30.267 37.6777 31.8198 37.0726C31.7742 37.138 31.7202 37.1985 31.6584 37.2526L28.9719 39.6033L30.3161 40.0513C30.673 40.1703 30.9329 40.4794 30.9888 40.8513C31.0447 41.2233 30.8872 41.5951 30.5812 41.8137L29.7445 42.4114C28.3539 42.7372 26.9414 43.0149 25.5341 43.2408C25.5919 43.0247 25.7224 42.8265 25.9187 42.6863L27.8207 41.3277L26.6837 40.9487C26.3436 40.8353 26.0903 40.5487 26.0196 40.1972C25.9489 39.8458 26.0717 39.4835 26.3414 39.2474L27.0448 38.6319ZM13.2175 39.8773C14.4662 39.9576 15.8833 40 17.4999 40C18.6039 40 19.7629 39.9305 20.9549 39.797C20.8445 40.1521 20.5423 40.4234 20.1643 40.4864L16.9339 41.0248L17.9961 41.6318C18.3293 41.8222 18.5241 42.1864 18.4975 42.5693C18.4709 42.9521 18.2276 43.286 17.8713 43.4285L16.5997 43.9371C15.1043 43.9115 13.7014 43.7998 12.437 43.5955C12.3499 43.5814 12.2631 43.567 12.1767 43.5523L15.2056 42.3407L13.5038 41.3682C13.1366 41.1584 12.9411 40.7403 13.0155 40.3239C13.0455 40.1567 13.1163 40.0043 13.2175 39.8773ZM4.49991 37.5C4.49991 37.5 4.49992 37.5 4.49992 37.5C5.16141 37.9961 5.94829 38.4376 6.98941 38.8062L7.4486 40.1838C7.56838 40.5431 7.47486 40.9393 7.20703 41.2071C6.93919 41.4749 6.54303 41.5685 6.18369 41.4487L5.21881 41.1271C3.91179 40.296 2.84998 39.2651 2.06407 38.0018C2.148 38.0073 2.23261 38.0235 2.31615 38.0513L4.91878 38.9189L4.55124 37.8162C4.51676 37.7128 4.4999 37.6061 4.49991 37.5ZM0.756112 34.6685C0.675147 34.2832 0.61072 33.8836 0.563232 33.4695C0.563232 33.4695 1.05895 34.1172 1.80779 34.9515C1.74394 34.9721 1.67742 34.9865 1.60904 34.994C1.28517 35.0296 0.968761 34.9051 0.756112 34.6685ZM47.1828 32.5766C47.0676 32.4137 46.9999 32.2147 46.9999 32V27.6805L45.331 27.9586C45.9119 27.2452 46.3955 26.4984 46.7678 25.6916L47.8355 25.5136C48.1255 25.4653 48.422 25.547 48.6463 25.737C48.8706 25.927 48.9999 26.2061 48.9999 26.5V29.2562C48.5707 30.3566 47.9656 31.4691 47.1828 32.5766Z" fill="#CE4317"/>
<path fill-rule="evenodd" clip-rule="evenodd" d="M36.1789 35.0709C37.3707 34.4288 38.4878 33.7361 39.4999 33C40.3861 32.3555 41.2204 31.7369 41.9922 31.1244C41.9622 31.363 41.8466 31.5879 41.6584 31.7526L39.1446 33.9522L41.7169 34.5238C42.0459 34.5969 42.316 34.8309 42.4352 35.1462C42.5545 35.4614 42.5069 35.8156 42.3087 36.0882L40.5527 38.5027C39.4164 39.1249 38.1609 39.7032 36.8216 40.2325L39.7941 36.1453L36.783 35.4762C36.5337 35.4208 36.3199 35.2736 36.1789 35.0709ZM27.0448 38.6319C28.659 38.2015 30.267 37.6777 31.8198 37.0726C31.7742 37.138 31.7202 37.1985 31.6584 37.2526L28.9719 39.6033L30.3161 40.0513C30.673 40.1703 30.9329 40.4794 30.9888 40.8513C31.0447 41.2233 30.8872 41.5951 30.5812 41.8137L29.7445 42.4114C28.3539 42.7372 26.9414 43.0149 25.5341 43.2408C25.5919 43.0247 25.7224 42.8265 25.9187 42.6863L27.8207 41.3277L26.6837 40.9487C26.3436 40.8353 26.0903 40.5487 26.0196 40.1972C25.9489 39.8458 26.0717 39.4835 26.3414 39.2474L27.0448 38.6319ZM13.2175 39.8773C14.4662 39.9576 15.8833 40 17.4999 40C18.6039 40 19.7629 39.9305 20.9549 39.797C20.8445 40.1521 20.5423 40.4234 20.1643 40.4864L16.9339 41.0248L17.9961 41.6318C18.3293 41.8222 18.5241 42.1864 18.4975 42.5693C18.4709 42.9521 18.2276 43.286 17.8713 43.4285L16.5997 43.9371C15.1043 43.9115 13.7014 43.7998 12.437 43.5955C12.3499 43.5814 12.2631 43.567 12.1767 43.5523L15.2056 42.3407L13.5038 41.3682C13.1366 41.1584 12.9411 40.7403 13.0155 40.3239C13.0455 40.1567 13.1163 40.0043 13.2175 39.8773ZM4.49991 37.5C4.49991 37.5 4.49992 37.5 4.49992 37.5C5.16141 37.9961 5.94829 38.4376 6.98941 38.8062L7.4486 40.1838C7.56838 40.5431 7.47486 40.9393 7.20703 41.2071C6.93919 41.4749 6.54303 41.5685 6.18369 41.4487L5.21881 41.1271C3.91179 40.296 2.84998 39.2651 2.06407 38.0018C2.148 38.0073 2.23261 38.0235 2.31615 38.0513L4.91878 38.9189L4.55124 37.8162C4.51676 37.7128 4.4999 37.6061 4.49991 37.5ZM0.756112 34.6685C0.675147 34.2832 0.61072 33.8836 0.563232 33.4695C0.563232 33.4695 1.05895 34.1172 1.80779 34.9515C1.74394 34.9721 1.67742 34.9865 1.60904 34.994C1.28517 35.0296 0.968761 34.9051 0.756112 34.6685ZM47.1828 32.5766C47.0676 32.4137 46.9999 32.2147 46.9999 32V27.6805L45.331 27.9586C45.9119 27.2452 46.3955 26.4984 46.7678 25.6916L47.8355 25.5136C48.1255 25.4653 48.422 25.547 48.6463 25.737C48.8706 25.927 48.9999 26.2061 48.9999 26.5V29.2562C48.5707 30.3566 47.9656 31.4691 47.1828 32.5766Z" fill="white" fill-opacity="0.3"/>
</svg>
