<svg width="40" height="40" viewBox="0 0 40 40" fill="none" xmlns="http://www.w3.org/2000/svg">
<path d="M28 33.697C28 36.7273 27.1905 39 19.9048 39C16.9365 39 11 37.9394 11 33.697C11 28.3939 13.4286 14 19.9048 14C26.381 14 28 30.6667 28 33.697Z" fill="#7445B8"/>
<path d="M28 33.697C28 36.7273 27.1905 39 19.9048 39C16.9365 39 11 37.9394 11 33.697C11 28.3939 13.4286 14 19.9048 14C26.381 14 28 30.6667 28 33.697Z" fill="white" fill-opacity="0.95"/>
<path d="M39.8742 18.5C41.35 14.5714 29.5435 2 19.9506 2C8.14508 2 -0.561991 15.3571 0.028311 18.5C0.766189 22.4286 11.834 24 19.9506 24C28.0673 24 38.3985 22.4286 39.8742 18.5Z" fill="#7445B8"/>
<path d="M39.8742 18.5C41.35 14.5714 29.5435 2 19.9506 2C8.14508 2 -0.561991 15.3571 0.028311 18.5C0.766189 22.4286 11.834 24 19.9506 24C28.0673 24 38.3985 22.4286 39.8742 18.5Z" fill="white" fill-opacity="0.4"/>
<path d="M15.7661 9.23703C16.9591 8.31337 18.7599 7.68206 17.2261 6.19559C15.6922 4.70919 13.6053 5.95157 12.4119 6.87501C10.9025 8.04291 9.44126 9.93864 10.973 11.4241C13.0149 13.4043 14.5731 10.1607 15.7661 9.23703Z" fill="#FEFEFE"/>
<path d="M10.3726 14.3071C9.93699 13.4581 8.85907 12.4025 8.01006 12.8381C7.16016 13.2734 6.19083 14.5212 6.5398 15.2001C6.97629 16.0494 7.70104 17.2843 8.90228 16.6693C9.75237 16.2341 10.6806 14.9075 10.3726 14.3071Z" fill="#FEFEFE"/>
</svg>
