<svg width="50" height="50" viewBox="0 0 50 50" fill="none" xmlns="http://www.w3.org/2000/svg">
<g clip-path="url(#clip0_6268_12332)">
<path d="M26.5 3C22.8077 3 19.1538 1.52941 18 1L28.9615 19L33 1C32.2308 1.52941 30.1923 3 26.5 3Z" fill="#898989"/>
<path d="M26.5 3C22.8077 3 19.1538 1.52941 18 1L28.9615 19L33 1C32.2308 1.52941 30.1923 3 26.5 3Z" fill="black" fill-opacity="0.4"/>
<path d="M12.5 15L11 31L8 36C5.85663 36.6623 4.77838 36.2233 3 34.5L2.5 28.5C4.42 26.2985 8.2 6.68997 10.12 5.06427C12.8495 2.75314 14.8 2.69344 18 1C18 1 21.5 6 27 5.5C32.5 5 33 1 33 1C35.56 1.84672 38.248 2.62571 41.32 5.06427C42.6 6.08033 46.56 23.8615 48 28.9418L47.5 35C45.9866 36.5242 44.8261 36.5732 42.5 36L40 31L38.5 15.5C38.5 24.8072 37.5 26.5 37.5 31C37.5 35.5277 39.5 39.5 41 46.5C40.2 46.8387 39.3424 48 36.8424 48.2471C33.8032 48.5475 31.32 47.231 27 48.2471C22.68 49.2632 20.34 47.492 16.5 48C13.428 48.4064 10.46 46.3387 9.5 46C11.5 38 14.053 36.5834 13.5 30.5C13 25 12.5 23.8072 12.5 15Z" fill="#2FC4A7"/>
<path d="M12.5 15L11 31L8 36C5.85663 36.6623 4.77838 36.2233 3 34.5L2.5 28.5C4.42 26.2985 8.2 6.68997 10.12 5.06427C12.8495 2.75314 14.8 2.69344 18 1C18 1 21.5 6 27 5.5C32.5 5 33 1 33 1C35.56 1.84672 38.248 2.62571 41.32 5.06427C42.6 6.08033 46.56 23.8615 48 28.9418L47.5 35C45.9866 36.5242 44.8261 36.5732 42.5 36L40 31L38.5 15.5C38.5 24.8072 37.5 26.5 37.5 31C37.5 35.5277 39.5 39.5 41 46.5C40.2 46.8387 39.3424 48 36.8424 48.2471C33.8032 48.5475 31.32 47.231 27 48.2471C22.68 49.2632 20.34 47.492 16.5 48C13.428 48.4064 10.46 46.3387 9.5 46C11.5 38 14.053 36.5834 13.5 30.5C13 25 12.5 23.8072 12.5 15Z" fill="black" fill-opacity="0.6"/>
<path d="M8 36C5.94234 35.7658 4.854 35.4133 3 34.5L1 45C2.42629 45.8416 3.29189 46.0914 5 46L8 36Z" fill="#FAA21E"/>
<path d="M8 36C5.94234 35.7658 4.854 35.4133 3 34.5L1 45C2.42629 45.8416 3.29189 46.0914 5 46L8 36Z" fill="black" fill-opacity="0.6"/>
<path d="M7.05763 39.1412C5.17812 38.6163 4.25231 37.858 2.65513 36.3105L2.27607 38.3006C3.88289 39.8483 4.79351 40.5581 6.45891 41.1369L7.05763 39.1412Z" fill="#FAA21E"/>
<path d="M7.05763 39.1412C5.17812 38.6163 4.25231 37.858 2.65513 36.3105L2.27607 38.3006C3.88289 39.8483 4.79351 40.5581 6.45891 41.1369L7.05763 39.1412Z" fill="black" fill-opacity="0.8"/>
<path d="M1.4762 42.5C2.62066 43.8326 3.44088 44.4215 5.25758 45.1414L5.8118 43.294C4.03159 42.5788 3.22333 41.8541 1.87613 40.4003L1.4762 42.5Z" fill="#FAA21E"/>
<path d="M1.4762 42.5C2.62066 43.8326 3.44088 44.4215 5.25758 45.1414L5.8118 43.294C4.03159 42.5788 3.22333 41.8541 1.87613 40.4003L1.4762 42.5Z" fill="black" fill-opacity="0.8"/>
<path d="M47.5 35C45.7661 35.9432 44.646 36.0991 42.5 36L45.5 47C47.3093 47.0856 48.1352 46.9287 49 46L47.5 35Z" fill="#FAA21E"/>
<path d="M47.5 35C45.7661 35.9432 44.646 36.0991 42.5 36L45.5 47C47.3093 47.0856 48.1352 46.9287 49 46L47.5 35Z" fill="black" fill-opacity="0.6"/>
<path d="M43.3182 39.0001C45.5987 38.504 46.4656 37.8778 47.7045 36.5001L48 38.6667C46.6544 39.9378 45.7019 40.3862 43.8636 41.0001L43.3182 39.0001Z" fill="#FAA21E"/>
<path d="M43.3182 39.0001C45.5987 38.504 46.4656 37.8778 47.7045 36.5001L48 38.6667C46.6544 39.9378 45.7019 40.3862 43.8636 41.0001L43.3182 39.0001Z" fill="black" fill-opacity="0.8"/>
<path d="M48.4545 42.0001C47.2674 43.2636 46.4078 43.646 44.6818 44L45.2272 46C46.9713 45.5051 47.8368 45.142 48.7273 44L48.4545 42.0001Z" fill="#FAA21E"/>
<path d="M48.4545 42.0001C47.2674 43.2636 46.4078 43.646 44.6818 44L45.2272 46C46.9713 45.5051 47.8368 45.142 48.7273 44L48.4545 42.0001Z" fill="black" fill-opacity="0.8"/>
<path d="M26.6725 23.5744C20 18.5 13.0449 9.79969 11.0602 4.34169L12.9398 3.6582C14.788 8.74077 22 16.5 27.9419 22.0083C30.0965 19.3567 31.0206 16.8438 33 13.5C35 9.5 35.8358 5.83035 36.5513 3.68372L38.4487 4.31617C37.6642 6.66955 37 10.5 35 14.5C33.25 18 31.609 20.6994 29.3169 23.4863C32.5 28.5 35.6045 31.5365 37.5785 32.4425L37.6385 33.1676L37.8 34.7C34.719 33.7372 31 30 28.0412 25.0583C25.8128 27.7302 23.1603 29.8324 20.5 31.5C17.8397 33.1676 16 34 13.44 34.6C13.44 34.6 13.5 34 13.5236 33.5505L13.5766 32.3455C16.5 31.5 17.5 31 20 29.5C22.5 28 24.5876 26.1346 26.6725 23.5744Z" fill="#2FC4A7"/>
<path d="M26.6725 23.5744C20 18.5 13.0449 9.79969 11.0602 4.34169L12.9398 3.6582C14.788 8.74077 22 16.5 27.9419 22.0083C30.0965 19.3567 31.0206 16.8438 33 13.5C35 9.5 35.8358 5.83035 36.5513 3.68372L38.4487 4.31617C37.6642 6.66955 37 10.5 35 14.5C33.25 18 31.609 20.6994 29.3169 23.4863C32.5 28.5 35.6045 31.5365 37.5785 32.4425L37.6385 33.1676L37.8 34.7C34.719 33.7372 31 30 28.0412 25.0583C25.8128 27.7302 23.1603 29.8324 20.5 31.5C17.8397 33.1676 16 34 13.44 34.6C13.44 34.6 13.5 34 13.5236 33.5505L13.5766 32.3455C16.5 31.5 17.5 31 20 29.5C22.5 28 24.5876 26.1346 26.6725 23.5744Z" fill="black" fill-opacity="0.8"/>
<path d="M18 1C19 4 23 11 28 14C31.5 10.5 32.5 3.5 33 1C34.5 1.5 39.5 3 41 4.5C41.9587 5.4587 43 7.5 43.5 10C41.5 8 38.5 6.5 36.5 7.5C34.6757 8.41214 31.5 13.5 28 14C29.1667 15.3333 31.6 21.5 32 23.5C32.4 25.5 29.8333 30.6667 28.5 33C28.8333 31 29.4 26.7 29 25.5C28.6 24.3 28.1667 16.3333 28 14C27.8333 16 27.3 23.3 26.5 24.5C25.7 25.7 25.8333 28.6667 26 30C25.1667 28 23.6 23.6 24 22C24.4 20.4 26.8333 15 28 14C23.5 14 16.5 9 14.5 8C13.0249 7.26244 9 9 7.5 10.5C8.5 7.5 9 6 10.5 4.5C11.5 3.5 17.1667 1.33333 18 1Z" fill="#FAA21E"/>
<path d="M18 1C19 4 23 11 28 14C31.5 10.5 32.5 3.5 33 1C34.5 1.5 39.5 3 41 4.5C41.9587 5.4587 43 7.5 43.5 10C41.5 8 38.5 6.5 36.5 7.5C34.6757 8.41214 31.5 13.5 28 14C29.1667 15.3333 31.6 21.5 32 23.5C32.4 25.5 29.8333 30.6667 28.5 33C28.8333 31 29.4 26.7 29 25.5C28.6 24.3 28.1667 16.3333 28 14C27.8333 16 27.3 23.3 26.5 24.5C25.7 25.7 25.8333 28.6667 26 30C25.1667 28 23.6 23.6 24 22C24.4 20.4 26.8333 15 28 14C23.5 14 16.5 9 14.5 8C13.0249 7.26244 9 9 7.5 10.5C8.5 7.5 9 6 10.5 4.5C11.5 3.5 17.1667 1.33333 18 1Z" fill="black" fill-opacity="0.4"/>
</g>
<defs>
<clipPath id="clip0_6268_12332">
<rect width="50" height="50" fill="white" transform="matrix(-1 0 0 1 50 0)"/>
</clipPath>
</defs>
</svg>
