<svg width="50" height="50" viewBox="0 0 50 50" fill="none" xmlns="http://www.w3.org/2000/svg">
<path d="M9.68684 12.4714C10.1144 8.59338 10.7339 3.01978 11.4465 1C14.086 1.49875 22.2244 2.5 26.5 2.5C30.7756 2.5 35.7871 1.40397 38.2811 1.00001C38.8156 2.21188 39.0883 6.4863 39.8807 10.5294C40.7359 14.8921 43.6437 44.2684 44 47.5C39.25 49.5 35.4478 49.4747 28.5 48.2629C28.3219 45.8391 26.9276 16 26.5 16C26.0724 16 23.6367 45.8391 23.6367 48.2629C19.7768 48.8464 17.4037 48.9148 15.0856 48.8688C11.3445 48.8688 9.74113 48.8688 6 47.6569C6 47.051 9.25929 16.3493 9.68684 12.4714Z" fill="#FAA21E"/>
<path d="M9.68684 12.4714C10.1144 8.59338 10.7339 3.01978 11.4465 1C14.086 1.49875 22.2244 2.5 26.5 2.5C30.7756 2.5 35.7871 1.40397 38.2811 1.00001C38.8156 2.21188 39.0883 6.4863 39.8807 10.5294C40.7359 14.8921 43.6437 44.2684 44 47.5C39.25 49.5 35.4478 49.4747 28.5 48.2629C28.3219 45.8391 26.9276 16 26.5 16C26.0724 16 23.6367 45.8391 23.6367 48.2629C19.7768 48.8464 17.4037 48.9148 15.0856 48.8688C11.3445 48.8688 9.74113 48.8688 6 47.6569C6 47.051 9.25929 16.3493 9.68684 12.4714Z" fill="black" fill-opacity="0.6"/>
<path d="M9.68684 12.4714C10.1144 8.59338 10.7339 3.01978 11.4465 1C12.1034 1.12412 13.9381 1.27913 15 1.44197C14.356 7.12798 12.9287 20.1 12.3715 26.5C11.8143 32.9 10.3544 43.9004 10 48.6C8.92853 48.4246 7.4735 48.1343 6 47.6569C6 47.051 9.25929 16.3493 9.68684 12.4714Z" fill="#FAA21E"/>
<path d="M9.68684 12.4714C10.1144 8.59338 10.7339 3.01978 11.4465 1C12.1034 1.12412 13.9381 1.27913 15 1.44197C14.356 7.12798 12.9287 20.1 12.3715 26.5C11.8143 32.9 10.3544 43.9004 10 48.6C8.92853 48.4246 7.4735 48.1343 6 47.6569C6 47.051 9.25929 16.3493 9.68684 12.4714Z" fill="black" fill-opacity="0.8"/>
<path d="M39.8807 10.5294C40.7359 14.8921 43.6437 44.2684 44 47.5C43.0433 47.9028 42.4513 48.1297 41.5 48.375C40.8667 43.5521 40.2307 33.9062 39.125 25.9062C38.2479 19.5605 36.7167 6.91978 35.925 1.37967C36.8774 1.23024 37.6898 1.09578 38.2811 1.00001C38.8156 2.21188 39.0883 6.4863 39.8807 10.5294Z" fill="#FAA21E"/>
<path d="M39.8807 10.5294C40.7359 14.8921 43.6437 44.2684 44 47.5C43.0433 47.9028 42.4513 48.1297 41.5 48.375C40.8667 43.5521 40.2307 33.9062 39.125 25.9062C38.2479 19.5605 36.7167 6.91978 35.925 1.37967C36.8774 1.23024 37.6898 1.09578 38.2811 1.00001C38.8156 2.21188 39.0883 6.4863 39.8807 10.5294Z" fill="black" fill-opacity="0.8"/>
<path d="M10.9985 2.5C10.8564 3.07337 10.7579 3.84084 10.56 4.64286C13.7139 5.11712 15.9179 4.57643 18.3032 4.78828C20.2287 4.95931 23.5878 5.5 26.3446 5.5C32.5163 5.5 36.4948 5.16353 39.06 4.64286C38.8293 3.84126 38.7702 3.07389 38.6215 2.5C32.9789 3.5708 29.2362 3.82071 25.0292 3.78571C22.7479 3.76673 20.5667 3.75691 18.3032 3.5496C16.0153 3.34007 13.6433 2.93086 10.9985 2.5Z" fill="#2FC4A7"/>
<path d="M10.9985 2.5C10.8564 3.07337 10.7579 3.84084 10.56 4.64286C13.7139 5.11712 15.9179 4.57643 18.3032 4.78828C20.2287 4.95931 23.5878 5.5 26.3446 5.5C32.5163 5.5 36.4948 5.16353 39.06 4.64286C38.8293 3.84126 38.7702 3.07389 38.6215 2.5C32.9789 3.5708 29.2362 3.82071 25.0292 3.78571C22.7479 3.76673 20.5667 3.75691 18.3032 3.5496C16.0153 3.34007 13.6433 2.93086 10.9985 2.5Z" fill="black" fill-opacity="0.8"/>
<path d="M11.225 14.0352C11.8295 10.5764 13.6432 5.14105 15.4568 3.65872C17.2704 2.17639 17.875 3.49988 17.875 3.49988C16.6281 4.84106 16.1873 5.53517 15.3812 8.49991C14.5752 11.4646 14.4492 15.0234 14.2477 16.9999L11.225 14.0352Z" fill="#2FC4A7"/>
<path d="M11.225 14.0352C11.8295 10.5764 13.6432 5.14105 15.4568 3.65872C17.2704 2.17639 17.875 3.49988 17.875 3.49988C16.6281 4.84106 16.1873 5.53517 15.3812 8.49991C14.5752 11.4646 14.4492 15.0234 14.2477 16.9999L11.225 14.0352Z" fill="black" fill-opacity="0.6"/>
<path d="M19.2321 21.9999C19.2321 12.9999 19.2321 7.99986 17.875 3.49986C18.3274 2.90671 19.4873 3.49988 20.25 5.49984C21.2034 7.99984 22.4214 13.0513 23.1 17.4999L19.2321 21.9999Z" fill="#2FC4A7"/>
<path d="M19.2321 21.9999C19.2321 12.9999 19.2321 7.99986 17.875 3.49986C18.3274 2.90671 19.4873 3.49988 20.25 5.49984C21.2034 7.99984 22.4214 13.0513 23.1 17.4999L19.2321 21.9999Z" fill="black" fill-opacity="0.6"/>
</svg>
