<svg width="50" height="50" viewBox="0 0 50 50" fill="none" xmlns="http://www.w3.org/2000/svg">
<g clip-path="url(#clip0_1880_9313)">
<g clip-path="url(#clip1_1880_9313)">
<path d="M22.8299 44.171C17.4017 44.171 13.8965 42.1857 13.4002 41.1931C12.9039 40.2005 12.9039 36.6573 12.9039 36.6573H32.756C32.756 38.7749 32.8791 40.1965 32.2597 41.1931C31.2727 42.7813 27.7647 44.171 22.8299 44.171Z" fill="#898989"/>
<path d="M22.8299 44.171C17.4017 44.171 13.8965 42.1857 13.4002 41.1931C12.9039 40.2005 12.9039 36.6573 12.9039 36.6573H32.756C32.756 38.7749 32.8791 40.1965 32.2597 41.1931C31.2727 42.7813 27.7647 44.171 22.8299 44.171Z" fill="white" fill-opacity="0.6"/>
<path d="M40.0851 22.0494C39.2788 22.0135 38.1081 21.0907 38.5886 19.3708C39.069 17.6508 41.1427 16.4371 43.5614 16.5447C45.9802 16.6523 47.1316 18.0095 48.3024 18.9323C48.2637 19.8012 48.5122 23.295 46.3612 26.2466C44.2102 29.1983 41.8272 30.365 39.276 31.1554C37.6377 31.663 37.183 32.8037 37.1444 33.6726C37.1057 34.5416 37.8733 35.4464 38.6796 35.4823" stroke="#FEFEFE" stroke-width="2.48152" stroke-linecap="round"/>
<path d="M41.6894 11.0089H3.9704C5.58847 14.7844 6.66718 15.3238 7.7459 19.6386C8.28526 21.7961 7.7459 28.6574 8.82461 32.4329C10.1907 37.2142 12.9945 39.7154 15.8363 41.0626C18.6661 42.4042 26.5039 42.4042 29.8595 41.0626C32.7798 39.8951 35.5473 37.2871 36.8712 32.4329C38.3997 26.8285 37.3065 22.8557 37.9499 19.6386C38.4893 16.9418 39.532 15.3238 41.6894 11.0089Z" fill="#898989"/>
<path d="M41.6894 11.0089H3.9704C5.58847 14.7844 6.66718 15.3238 7.7459 19.6386C8.28526 21.7961 7.7459 28.6574 8.82461 32.4329C10.1907 37.2142 12.9945 39.7154 15.8363 41.0626C18.6661 42.4042 26.5039 42.4042 29.8595 41.0626C32.7798 39.8951 35.5473 37.2871 36.8712 32.4329C38.3997 26.8285 37.3065 22.8557 37.9499 19.6386C38.4893 16.9418 39.532 15.3238 41.6894 11.0089Z" fill="white" fill-opacity="0.95"/>
<path d="M41.6894 10.8052C41.6894 13.4836 33.4725 15.7434 23.0566 15.7434C12.6408 15.7434 3.9704 13.4836 3.9704 10.8052C3.9704 8.12686 12.6408 5.95563 23.0566 5.95563C33.4725 5.95563 41.6894 8.12686 41.6894 10.8052Z" fill="#898989"/>
<path d="M41.6894 10.8052C41.6894 13.4836 33.4725 15.7434 23.0566 15.7434C12.6408 15.7434 3.9704 13.4836 3.9704 10.8052C3.9704 8.12686 12.6408 5.95563 23.0566 5.95563C33.4725 5.95563 41.6894 8.12686 41.6894 10.8052Z" fill="white" fill-opacity="0.6"/>
<path d="M41.6894 10.8052C41.6894 13.4836 33.4725 15.7434 23.0566 15.7434C12.6408 15.7434 3.9704 13.4836 3.9704 10.8052C3.9704 8.12686 12.6408 5.95563 23.0566 5.95563C33.4725 5.95563 41.6894 8.12686 41.6894 10.8052Z" stroke="#FEFEFE" stroke-width="1.48891"/>
<path d="M36.863 13.3807C36.863 13.032 29.2426 11.8863 22.9148 11.8863C16.5871 11.8863 8.96667 13.032 8.96667 13.3807C8.96667 13.7293 14.9445 15.1741 22.9148 15.1741C31.8815 15.1741 36.863 13.7293 36.863 13.3807Z" fill="#FAA21E"/>
<path d="M36.863 13.3807C36.863 13.032 29.2426 11.8863 22.9148 11.8863C16.5871 11.8863 8.96667 13.032 8.96667 13.3807C8.96667 13.7293 14.9445 15.1741 22.9148 15.1741C31.8815 15.1741 36.863 13.7293 36.863 13.3807Z" fill="white" fill-opacity="0.4"/>
</g>
<path d="M27 34.8485C27 36.3636 26.5952 37.5 22.9524 37.5C21.4683 37.5 18.5 36.9697 18.5 34.8485C18.5 32.197 19.7143 25 22.9524 25C26.1905 25 27 33.3333 27 34.8485Z" fill="#546DDB"/>
<path d="M27 34.8485C27 36.3636 26.5952 37.5 22.9524 37.5C21.4683 37.5 18.5 36.9697 18.5 34.8485C18.5 32.197 19.7143 25 22.9524 25C26.1905 25 27 33.3333 27 34.8485Z" fill="white" fill-opacity="0.6"/>
<path d="M32.9371 27.2499C33.675 25.2857 27.7718 18.9999 22.9753 18.9999C17.0725 18.9999 12.719 25.6785 13.0142 27.2499C13.3831 29.2142 18.917 29.9999 22.9753 29.9999C27.0336 29.9999 32.1992 29.2142 32.9371 27.2499Z" fill="#7445B8"/>
<path d="M32.9371 27.2499C33.675 25.2857 27.7718 18.9999 22.9753 18.9999C17.0725 18.9999 12.719 25.6785 13.0142 27.2499C13.3831 29.2142 18.917 29.9999 22.9753 29.9999C27.0336 29.9999 32.1992 29.2142 32.9371 27.2499Z" fill="white" fill-opacity="0.4"/>
<path d="M20.883 22.6185C21.4795 22.1567 22.3799 21.841 21.613 21.0978C20.8461 20.3546 19.8026 20.9758 19.2059 21.4375C18.4512 22.0215 17.7206 22.9693 18.4865 23.712C19.5074 24.7021 20.2865 23.0803 20.883 22.6185Z" fill="#FEFEFE"/>
<path d="M18.1863 25.1536C17.9685 24.729 17.4295 24.2012 17.005 24.419C16.5801 24.6367 16.0954 25.2606 16.2699 25.6001C16.4881 26.0247 16.8505 26.6421 17.4511 26.3347C17.8762 26.1171 18.3403 25.4537 18.1863 25.1536Z" fill="#FEFEFE"/>
</g>
<defs>
<clipPath id="clip0_1880_9313">
<rect width="50" height="50" fill="white"/>
</clipPath>
<clipPath id="clip1_1880_9313">
<rect width="49.8148" height="49.8148" fill="white"/>
</clipPath>
</defs>
</svg>
