<svg width="50" height="50" viewBox="0 0 50 50" fill="none" xmlns="http://www.w3.org/2000/svg">
<circle cx="25.0667" cy="25.0665" r="22.4167" stroke="#1D8CE0" stroke-width="0.996296"/>
<circle cx="25.0667" cy="25.0665" r="22.4167" stroke="white" stroke-opacity="0.95" stroke-width="0.996296"/>
<path d="M37.5 37.5001C43 33.0454 45 21.5 38.5745 13.0016C39.2991 19.1626 37.6992 26.8689 32.5141 32.0453C27.329 37.2217 15.4044 38.4225 11 37.5001C22.5964 45.5482 31.1157 42.671 37.5 37.5001Z" fill="#FEFEFE" fill-opacity="0.15"/>
<path d="M31 35.2727C31 37.5455 30.3929 39.25 24.9286 39.25C22.7024 39.25 18.25 38.4545 18.25 35.2727C18.25 31.2955 20.0714 20.5 24.9286 20.5C29.7857 20.5 31 33 31 35.2727Z" fill="#7445B8"/>
<path d="M31 35.2727C31 37.5455 30.3929 39.25 24.9286 39.25C22.7024 39.25 18.25 38.4545 18.25 35.2727C18.25 31.2955 20.0714 20.5 24.9286 20.5C29.7857 20.5 31 33 31 35.2727Z" fill="white" fill-opacity="0.95"/>
<path d="M39.9057 23.875C41.0125 20.9286 32.1577 11.5 24.963 11.5C16.1088 11.5 9.57851 21.5179 10.0212 23.875C10.5746 26.8214 18.8755 28 24.963 28C31.0505 28 38.7989 26.8214 39.9057 23.875Z" fill="#7445B8"/>
<path d="M39.9057 23.875C41.0125 20.9286 32.1577 11.5 24.963 11.5C16.1088 11.5 9.57851 21.5179 10.0212 23.875C10.5746 26.8214 18.8755 28 24.963 28C31.0505 28 38.7989 26.8214 39.9057 23.875Z" fill="white" fill-opacity="0.4"/>
<path d="M21.8245 16.9278C22.7193 16.235 24.0699 15.7615 22.9195 14.6467C21.7692 13.5319 20.204 14.4637 19.3089 15.1563C18.1769 16.0322 17.0809 17.454 18.2297 18.5681C19.7612 20.0532 20.9298 17.6205 21.8245 16.9278Z" fill="#FEFEFE"/>
<path d="M17.7794 20.7303C17.4527 20.0936 16.6443 19.3019 16.0075 19.6285C15.3701 19.955 14.6431 20.8909 14.9049 21.4001C15.2322 22.037 15.7758 22.9632 16.6767 22.502C17.3143 22.1756 18.0104 21.1806 17.7794 20.7303Z" fill="#FEFEFE"/>
<path d="M14.6055 9.12572C11.765 11.6271 10.6204 15.1035 10.6204 18.0924C11.1061 16.033 14.2019 11.8587 17.0963 10.122C19.5596 8.64405 21.5796 7.13312 25.0667 6.63497C21.5796 6.13682 17.4461 6.62428 14.6055 9.12572Z" fill="#FEFEFE"/>
<path d="M34.5 40C37.5 38.5 40.5 35.5 42 30C40 34 37.0518 37.1895 34 39C30.9482 40.8105 27 42.5 21 42C27.5 43.5 30.6529 41.9235 34.5 40Z" fill="#FEFEFE"/>
</svg>
