<?xml version="1.0" encoding="utf-8"?><svg fill="none" viewBox="0 0 50 50" width="50" height="50" xmlns="http://www.w3.org/2000/svg"><g clip-path="url(#alya)"><path d="M9.7 2.006h30.152v2.99l.996 1.992h3.985v40.848h-33.56c-.524 0-3.145 0-4.718-1.562C4.98 44.71 4.98 43.149 4.98 42.628V6.693c0-1.041.735-2.291 1.574-3.124.839-.834 2.097-1.563 3.146-1.563Z" fill="#D0333D"/><path d="M9.7 2.006h30.152v2.99l.996 1.992h3.985v40.848h-33.56c-.524 0-3.145 0-4.718-1.562C4.98 44.71 4.98 43.149 4.98 42.628V6.693c0-1.041.735-2.291 1.574-3.124.839-.834 2.097-1.563 3.146-1.563Z" fill="#000" fill-opacity=".2"/><path d="M42.84 8.967 39.853 4.98v34.902h-1.993l4.982 5.947V8.967Z" fill="#898989"/><path d="M10.056 39.852h27.803l4.982 5.978H10.056c-.503 0-3.108-.915-3.108-3.148s2.605-2.83 3.107-2.83Z" fill="#898989"/><path d="M10.056 39.852h27.803l4.982 5.978H10.056c-.503 0-3.108-.915-3.108-3.148s2.605-2.83 3.107-2.83Z" fill="#fff" fill-opacity=".4"/><g clip-path="url(#alyb)" fill="#FEFEFE"><path d="m20.38 27.608.82-4.808-1.55 3.9-3.357-.683.042 2.308-3.591-.48-1.792 3.14 4.375 1.191-1.55 1.6L8.6 34.961l5.032-.634 3.003-2.21-4.612-1.521 1.599-1.908 3.069.13.171-2.012 3.517.802Z" stroke="#FEFEFE" stroke-width=".511"/><path d="m18.2 20.036.3 3.317 2.7-.553-3.3 1.382-.3-3.317-3.035.83-2.965-1.659 2.026-2.018L11.6 16.9l-3 1.118 3-2.018 2.966 1.663L12.8 19.76l1.8 1.381 3.6-1.105Z" stroke="#FEFEFE" stroke-width=".397"/><path d="m29.6 34.96-1.8-6.11-4.2.583-3-4.146.3-.829 3.3 4.146 4.2-.83 1.8 5.805 2.67-1.48 4.53 2.862-4.701-2.163-3.099 2.163Z" stroke="#FEFEFE" stroke-width=".551"/><path d="m33.5 19.207 3.9-2.488-3.9 1.659-2.829-1.106v2.797l-3.771-.862-.9 4.146-4.8-.553 6 1.658.3-4.146 4.23.972v-2.906l1.77.829Z" stroke="#FEFEFE" stroke-width=".479"/><rect x="21.633" y="14.97" width="17.317" height="1.979" rx=".99" transform="rotate(-31.747 21.633 14.97)"/><path d="m19.03 10.763-3.366 2.083a.99.99 0 0 0-.321 1.362l5.207 8.415a.99.99 0 0 0 1.362.32l3.366-2.082a.99.99 0 0 0 .32-1.362l-5.206-8.415a.99.99 0 0 0-1.362-.32Z"/><rect x="19.087" y="21.2" width="6.927" height=".99" rx=".495" transform="rotate(-31.747 19.087 21.2)"/><rect x="15.443" y="15.31" width="6.927" height=".99" rx=".495" transform="rotate(-31.747 15.443 15.31)"/></g></g><defs><clipPath id="alya"><path fill="#fff" transform="matrix(-1 0 0 1 50 0)" d="M0 0h50v50H0z"/></clipPath><clipPath id="alyb"><path fill="#fff" transform="matrix(-1 0 0 1 38 5.5)" d="M0 0h30v30H0z"/></clipPath></defs></svg>