<svg width="50" height="50" viewBox="0 0 50 50" fill="none" xmlns="http://www.w3.org/2000/svg">
<path d="M9.73684 2H40V5L41 7H45V48H11.3158C10.7895 48 8.15789 48 6.57895 46.4318C5 44.8636 5 43.2955 5 42.7727V6.70455C5 5.65909 5.73684 4.40455 6.57895 3.56818C7.42105 2.73182 8.68421 2 9.73684 2Z" fill="#FAA21E"/>
<path d="M9.73684 2H40V5L41 7H45V48H11.3158C10.7895 48 8.15789 48 6.57895 46.4318C5 44.8636 5 43.2955 5 42.7727V6.70455C5 5.65909 5.73684 4.40455 6.57895 3.56818C7.42105 2.73182 8.68421 2 9.73684 2Z" fill="black" fill-opacity="0.1"/>
<path d="M43 9.1L40 5V40H38L43 46V9.1Z" fill="#898989"/>
<path d="M43 9.1L40 5V40H38L43 46V9.1Z" fill="white" fill-opacity="0.2"/>
<path d="M10.1304 40H38L43 46H10.1304C9.62415 46 7 45.25 7 43C7 40.75 9.62415 40 10.1304 40Z" fill="#898989"/>
<path d="M10.1304 40H38L43 46H10.1304C9.62415 46 7 45.25 7 43C7 40.75 9.62415 40 10.1304 40Z" fill="white" fill-opacity="0.6"/>
<path d="M34.2 13.9601L31.64 12.3601L36.12 7.56006L34.84 11.7201L37.72 13.0001L30.68 19.0801L34.2 13.9601Z" fill="#FEFEFE"/>
<path d="M34.167 30.3494L31.5736 28.0643L35.7938 23.0343L34.7353 27.2561L38.3022 29.5371L32.7027 35.1146L34.167 30.3494Z" fill="#FEFEFE"/>
<path d="M10.9133 14.2218L8.53144 11.7169L13.1786 7.07857L11.7521 11.1906L15.104 13.7771L9.03461 18.8393L10.9133 14.2218Z" fill="#FEFEFE"/>
<path d="M23.96 24.5198L15 17.1598L21.8398 6.27979L30.6549 6.27979L23 15.8798L31.96 22.6725L19.2353 35.7198L23.96 24.5198Z" fill="#FEFEFE"/>
<path d="M12.12 30.9202L8.0812 28.2307L15 21.96L13.08 27.08L16.92 29.9602L10.156 36.1013L12.12 30.9202Z" fill="#FEFEFE"/>
</svg>
