<svg width="50" height="50" viewBox="0 0 50 50" fill="none" xmlns="http://www.w3.org/2000/svg">
<path d="M32.5625 19.4376L30.5625 17.4375L4.69396 43.306L3.50003 44.5L5.50003 46.5L6.69396 45.306L32.5625 19.4376Z" fill="#1D8CE0"/>
<path d="M32.5625 19.4376L30.5625 17.4375L4.69396 43.306L3.50003 44.5L5.50003 46.5L6.69396 45.306L32.5625 19.4376Z" fill="white" fill-opacity="0.4"/>
<ellipse cx="2.51556" cy="47.5156" rx="2.09924" ry="2.10485" transform="rotate(45 2.51556 47.5156)" fill="#1D8CE0"/>
<ellipse cx="2.51556" cy="47.5156" rx="2.09924" ry="2.10485" transform="rotate(45 2.51556 47.5156)" fill="white" fill-opacity="0.4"/>
<circle cx="39" cy="11" r="10.5" stroke="#1D8CE0"/>
<circle cx="39" cy="11" r="10.5" stroke="white" stroke-opacity="0.4"/>
<path d="M48.8627 13.6051L43.2544 12.4978C41.6893 12.1887 40.3111 13.5669 40.6202 15.132L41.7275 20.7403L39.8824 15.3297C39.3674 13.8197 37.4848 13.3153 36.2839 14.3655L31.9806 18.1286L35.7438 13.8254C36.794 12.6244 36.2896 10.7419 34.7795 10.2269L29.369 8.38177L34.9772 9.48912C36.5424 9.79816 37.9206 8.42002 37.6115 6.85484L36.5042 1.24657L38.3493 6.65715C38.8643 8.16715 40.7468 8.67159 41.9478 7.62136L46.251 3.85824L42.4879 8.16147C41.4377 9.36243 41.9421 11.245 43.4521 11.76L48.8627 13.6051Z" fill="#FEFEFE"/>
<circle cx="45.6139" cy="12.7345" r="1.12119" transform="rotate(105 45.6139 12.7345)" fill="#FEFEFE"/>
<circle cx="32.618" cy="9.25239" r="1.12119" transform="rotate(105 32.618 9.25239)" fill="#FEFEFE"/>
<circle cx="40.8571" cy="17.4916" r="1.12119" transform="rotate(165 40.8571 17.4916)" fill="#FEFEFE"/>
<circle cx="37.3746" cy="4.49562" r="1.12119" transform="rotate(165 37.3746 4.49562)" fill="#FEFEFE"/>
<circle cx="34.3594" cy="15.7505" r="1.12119" transform="rotate(-135 34.3594 15.7505)" fill="#FEFEFE"/>
<circle cx="43.8733" cy="6.23677" r="1.12119" transform="rotate(-135 43.8733 6.23677)" fill="#FEFEFE"/>
</svg>
