<svg width="50" height="50" viewBox="0 0 50 50" fill="none" xmlns="http://www.w3.org/2000/svg">
<g clip-path="url(#clip0_3645_29939)">
<path d="M9.70074 1.99249H39.8518V4.98138L40.8481 6.97397H44.8333V47.8221H11.2738C10.7495 47.8221 8.12764 47.8221 6.55454 46.2597C4.98145 44.6974 4.98145 43.135 4.98145 42.6142V6.67961C4.98145 5.63803 5.71556 4.38813 6.55454 3.55487C7.39353 2.7216 8.65201 1.99249 9.70074 1.99249Z" fill="#7445B8"/>
<path d="M42.8407 9.0662L39.8518 4.98138V39.8518H37.8593L42.8407 45.8295V9.0662Z" fill="#898989"/>
<path d="M42.8407 9.0662L39.8518 4.98138V39.8518H37.8593L42.8407 45.8295V9.0662Z" fill="white" fill-opacity="0.2"/>
<path d="M10.093 39.8517H37.8593L42.8408 45.8295H10.093C9.58856 45.8295 6.97412 45.0823 6.97412 42.8406C6.97412 40.599 9.58856 39.8517 10.093 39.8517Z" fill="#898989"/>
<path d="M10.093 39.8517H37.8593L42.8408 45.8295H10.093C9.58856 45.8295 6.97412 45.0823 6.97412 42.8406C6.97412 40.599 9.58856 39.8517 10.093 39.8517Z" fill="white" fill-opacity="0.6"/>
<g clip-path="url(#clip1_3645_29939)">
<path d="M27.5105 17.5594C27.9485 13.5054 12.0808 5.30053 3.82198 1.70805C15.4956 4.06317 37.8395 10.5959 35.9882 17.8603C33.6741 26.9408 17.5128 24.6818 17.3213 28.3523C17.168 31.2887 22.5747 38.1716 27.9293 40.726C15.282 39.2134 6.75901 28.9335 7.54227 25.8601C8.52133 22.0183 26.9629 22.6269 27.5105 17.5594Z" fill="#7445B8"/>
<path d="M27.5105 17.5594C27.9485 13.5054 12.0808 5.30053 3.82198 1.70805C15.4956 4.06317 37.8395 10.5959 35.9882 17.8603C33.6741 26.9408 17.5128 24.6818 17.3213 28.3523C17.168 31.2887 22.5747 38.1716 27.9293 40.726C15.282 39.2134 6.75901 28.9335 7.54227 25.8601C8.52133 22.0183 26.9629 22.6269 27.5105 17.5594Z" fill="white" fill-opacity="0.6"/>
<path d="M31.6037 17.6826C32.0418 13.6286 15.6292 5.18077 5.66605 2.10636C17.3396 4.46147 40.2239 10.9878 38.3726 18.2522C36.0585 27.3327 19.8972 25.0737 19.7057 28.7442C19.5524 31.6806 25.7001 37.4771 32.2982 39.5607C19.4492 38.8662 11.1872 29.8217 11.8092 26.7116C12.851 21.5026 31.0561 22.7501 31.6037 17.6826Z" fill="#7445B8"/>
<path d="M31.6037 17.6826C32.0418 13.6286 15.6292 5.18077 5.66605 2.10636C17.3396 4.46147 40.2239 10.9878 38.3726 18.2522C36.0585 27.3327 19.8972 25.0737 19.7057 28.7442C19.5524 31.6806 25.7001 37.4771 32.2982 39.5607C19.4492 38.8662 11.1872 29.8217 11.8092 26.7116C12.851 21.5026 31.0561 22.7501 31.6037 17.6826Z" fill="white" fill-opacity="0.95"/>
<path d="M34.4741 29.32L31.8708 28.0408C31.1443 27.6838 30.2879 28.1782 30.2338 28.9859L30.04 31.88L29.8462 28.9859C29.7921 28.1782 28.9357 27.6838 28.2092 28.0408L25.6059 29.32L28.0154 27.7051C28.6878 27.2545 28.6878 26.2656 28.0154 25.8149L25.6059 24.2L28.2092 25.4792C28.9357 25.8362 29.7921 25.3418 29.8462 24.5341L30.04 21.64L30.2338 24.5341C30.2879 25.3418 31.1443 25.8362 31.8708 25.4792L34.4741 24.2L32.0646 25.8149C31.3921 26.2656 31.3921 27.2545 32.0646 27.7051L34.4741 29.32Z" fill="#7445B8"/>
<path d="M34.4741 29.32L31.8708 28.0408C31.1443 27.6838 30.2879 28.1782 30.2338 28.9859L30.04 31.88L29.8462 28.9859C29.7921 28.1782 28.9357 27.6838 28.2092 28.0408L25.6059 29.32L28.0154 27.7051C28.6878 27.2545 28.6878 26.2656 28.0154 25.8149L25.6059 24.2L28.2092 25.4792C28.9357 25.8362 29.7921 25.3418 29.8462 24.5341L30.04 21.64L30.2338 24.5341C30.2879 25.3418 31.1443 25.8362 31.8708 25.4792L34.4741 24.2L32.0646 25.8149C31.3921 26.2656 31.3921 27.2545 32.0646 27.7051L34.4741 29.32Z" fill="white" fill-opacity="0.6"/>
<circle cx="32.996" cy="28.4666" r="0.56889" transform="rotate(120 32.996 28.4666)" fill="#7445B8"/>
<circle cx="32.996" cy="28.4666" r="0.56889" transform="rotate(120 32.996 28.4666)" fill="white" fill-opacity="0.6"/>
<circle cx="27.0838" cy="25.0534" r="0.56889" transform="rotate(120 27.0838 25.0534)" fill="#7445B8"/>
<circle cx="27.0838" cy="25.0534" r="0.56889" transform="rotate(120 27.0838 25.0534)" fill="white" fill-opacity="0.6"/>
<circle cx="30.04" cy="30.1735" r="0.56889" transform="rotate(-180 30.04 30.1735)" fill="#7445B8"/>
<circle cx="30.04" cy="30.1735" r="0.56889" transform="rotate(-180 30.04 30.1735)" fill="white" fill-opacity="0.6"/>
<circle cx="30.04" cy="23.3468" r="0.56889" transform="rotate(-180 30.04 23.3468)" fill="#7445B8"/>
<circle cx="30.04" cy="23.3468" r="0.56889" transform="rotate(-180 30.04 23.3468)" fill="white" fill-opacity="0.6"/>
<circle cx="27.084" cy="28.4669" r="0.56889" transform="rotate(-120 27.084 28.4669)" fill="#7445B8"/>
<circle cx="27.084" cy="28.4669" r="0.56889" transform="rotate(-120 27.084 28.4669)" fill="white" fill-opacity="0.6"/>
<circle cx="32.9962" cy="25.0535" r="0.56889" transform="rotate(-120 32.9962 25.0535)" fill="#7445B8"/>
<circle cx="32.9962" cy="25.0535" r="0.56889" transform="rotate(-120 32.9962 25.0535)" fill="white" fill-opacity="0.6"/>
<path d="M37.72 17.8L36.2729 17.8969C35.8691 17.9239 35.6219 18.3521 35.8004 18.7154L36.44 20.017L35.6325 18.8123C35.4072 18.4761 34.9127 18.4761 34.6874 18.8123L33.88 20.017L34.5196 18.7154C34.6981 18.3521 34.4509 17.9239 34.047 17.8969L32.6 17.8L34.047 17.7031C34.4509 17.6761 34.6981 17.2478 34.5196 16.8846L33.88 15.583L34.6874 16.7877C34.9127 17.1239 35.4072 17.1239 35.6325 16.7877L36.44 15.583L35.8004 16.8846C35.6219 17.2478 35.8691 17.6761 36.2729 17.7031L37.72 17.8Z" fill="#7445B8"/>
<path d="M37.72 17.8L36.2729 17.8969C35.8691 17.9239 35.6219 18.3521 35.8004 18.7154L36.44 20.017L35.6325 18.8123C35.4072 18.4761 34.9127 18.4761 34.6874 18.8123L33.88 20.017L34.5196 18.7154C34.6981 18.3521 34.4509 17.9239 34.047 17.8969L32.6 17.8L34.047 17.7031C34.4509 17.6761 34.6981 17.2478 34.5196 16.8846L33.88 15.583L34.6874 16.7877C34.9127 17.1239 35.4072 17.1239 35.6325 16.7877L36.44 15.583L35.8004 16.8846C35.6219 17.2478 35.8691 17.6761 36.2729 17.7031L37.72 17.8Z" fill="white" fill-opacity="0.2"/>
<circle cx="36.8667" cy="17.8" r="0.284444" transform="rotate(90 36.8667 17.8)" fill="#7445B8"/>
<circle cx="36.8667" cy="17.8" r="0.284444" transform="rotate(90 36.8667 17.8)" fill="white" fill-opacity="0.2"/>
<circle cx="33.4534" cy="17.8" r="0.284444" transform="rotate(90 33.4534 17.8)" fill="#7445B8"/>
<circle cx="33.4534" cy="17.8" r="0.284444" transform="rotate(90 33.4534 17.8)" fill="white" fill-opacity="0.2"/>
<circle cx="36.0133" cy="19.2781" r="0.284444" transform="rotate(150 36.0133 19.2781)" fill="#7445B8"/>
<circle cx="36.0133" cy="19.2781" r="0.284444" transform="rotate(150 36.0133 19.2781)" fill="white" fill-opacity="0.2"/>
<circle cx="34.3066" cy="16.3221" r="0.284444" transform="rotate(150 34.3066 16.3221)" fill="#7445B8"/>
<circle cx="34.3066" cy="16.3221" r="0.284444" transform="rotate(150 34.3066 16.3221)" fill="white" fill-opacity="0.2"/>
<circle cx="34.3068" cy="19.2781" r="0.284444" transform="rotate(-150 34.3068 19.2781)" fill="#7445B8"/>
<circle cx="34.3068" cy="19.2781" r="0.284444" transform="rotate(-150 34.3068 19.2781)" fill="white" fill-opacity="0.2"/>
<circle cx="36.0134" cy="16.322" r="0.284444" transform="rotate(-150 36.0134 16.322)" fill="#7445B8"/>
<circle cx="36.0134" cy="16.322" r="0.284444" transform="rotate(-150 36.0134 16.322)" fill="white" fill-opacity="0.2"/>
<path d="M17.88 15.88L15.3477 16.0496C14.6409 16.0969 14.2083 16.8463 14.5207 17.482L15.64 19.7598L14.227 17.6515C13.8326 17.0631 12.9673 17.0631 12.573 17.6515L11.16 19.7598L12.2793 17.482C12.5917 16.8463 12.159 16.0969 11.4523 16.0496L8.91998 15.88L11.4523 15.7104C12.159 15.6631 12.5917 14.9138 12.2793 14.278L11.16 12.0002L12.573 14.1085C12.9673 14.6969 13.8326 14.6969 14.227 14.1085L15.64 12.0002L14.5207 14.278C14.2083 14.9138 14.6409 15.6631 15.3477 15.7104L17.88 15.88Z" fill="#7445B8"/>
<path d="M17.88 15.88L15.3477 16.0496C14.6409 16.0969 14.2083 16.8463 14.5207 17.482L15.64 19.7598L14.227 17.6515C13.8326 17.0631 12.9673 17.0631 12.573 17.6515L11.16 19.7598L12.2793 17.482C12.5917 16.8463 12.159 16.0969 11.4523 16.0496L8.91998 15.88L11.4523 15.7104C12.159 15.6631 12.5917 14.9138 12.2793 14.278L11.16 12.0002L12.573 14.1085C12.9673 14.6969 13.8326 14.6969 14.227 14.1085L15.64 12.0002L14.5207 14.278C14.2083 14.9138 14.6409 15.6631 15.3477 15.7104L17.88 15.88Z" fill="white" fill-opacity="0.6"/>
<circle cx="16.3865" cy="15.88" r="0.497779" transform="rotate(90 16.3865 15.88)" fill="#7445B8"/>
<circle cx="16.3865" cy="15.88" r="0.497779" transform="rotate(90 16.3865 15.88)" fill="white" fill-opacity="0.6"/>
<circle cx="10.4132" cy="15.8801" r="0.497779" transform="rotate(90 10.4132 15.8801)" fill="#7445B8"/>
<circle cx="10.4132" cy="15.8801" r="0.497779" transform="rotate(90 10.4132 15.8801)" fill="white" fill-opacity="0.6"/>
<circle cx="14.8933" cy="18.4667" r="0.497779" transform="rotate(150 14.8933 18.4667)" fill="#7445B8"/>
<circle cx="14.8933" cy="18.4667" r="0.497779" transform="rotate(150 14.8933 18.4667)" fill="white" fill-opacity="0.6"/>
<circle cx="11.9067" cy="13.2936" r="0.497779" transform="rotate(150 11.9067 13.2936)" fill="#7445B8"/>
<circle cx="11.9067" cy="13.2936" r="0.497779" transform="rotate(150 11.9067 13.2936)" fill="white" fill-opacity="0.6"/>
<circle cx="11.9068" cy="18.4667" r="0.497779" transform="rotate(-150 11.9068 18.4667)" fill="#7445B8"/>
<circle cx="11.9068" cy="18.4667" r="0.497779" transform="rotate(-150 11.9068 18.4667)" fill="white" fill-opacity="0.6"/>
<circle cx="14.8935" cy="13.2936" r="0.497779" transform="rotate(-150 14.8935 13.2936)" fill="#7445B8"/>
<circle cx="14.8935" cy="13.2936" r="0.497779" transform="rotate(-150 14.8935 13.2936)" fill="white" fill-opacity="0.6"/>
<path d="M20.5656 31.88L18.6132 30.9206C18.0683 30.6528 17.4259 31.0237 17.3854 31.6295L17.24 33.8L17.0947 31.6295C17.0541 31.0237 16.4118 30.6528 15.8669 30.9206L13.9145 31.88L15.7216 30.6689C16.2259 30.3309 16.2259 29.5892 15.7216 29.2512L13.9145 28.04L15.8669 28.9994C16.4118 29.2672 17.0541 28.8963 17.0947 28.2906L17.24 26.12L17.3854 28.2906C17.4259 28.8963 18.0683 29.2672 18.6131 28.9994L20.5656 28.04L18.7585 29.2512C18.2542 29.5892 18.2542 30.3309 18.7585 30.6689L20.5656 31.88Z" fill="#7445B8"/>
<path d="M20.5656 31.88L18.6132 30.9206C18.0683 30.6528 17.4259 31.0237 17.3854 31.6295L17.24 33.8L17.0947 31.6295C17.0541 31.0237 16.4118 30.6528 15.8669 30.9206L13.9145 31.88L15.7216 30.6689C16.2259 30.3309 16.2259 29.5892 15.7216 29.2512L13.9145 28.04L15.8669 28.9994C16.4118 29.2672 17.0541 28.8963 17.0947 28.2906L17.24 26.12L17.3854 28.2906C17.4259 28.8963 18.0683 29.2672 18.6131 28.9994L20.5656 28.04L18.7585 29.2512C18.2542 29.5892 18.2542 30.3309 18.7585 30.6689L20.5656 31.88Z" fill="white" fill-opacity="0.2"/>
<circle cx="19.457" cy="31.24" r="0.426668" transform="rotate(120 19.457 31.24)" fill="#7445B8"/>
<circle cx="19.457" cy="31.24" r="0.426668" transform="rotate(120 19.457 31.24)" fill="white" fill-opacity="0.2"/>
<circle cx="15.0228" cy="28.68" r="0.426668" transform="rotate(120 15.0228 28.68)" fill="#7445B8"/>
<circle cx="15.0228" cy="28.68" r="0.426668" transform="rotate(120 15.0228 28.68)" fill="white" fill-opacity="0.2"/>
<circle cx="17.2398" cy="32.5201" r="0.426668" transform="rotate(-180 17.2398 32.5201)" fill="#7445B8"/>
<circle cx="17.2398" cy="32.5201" r="0.426668" transform="rotate(-180 17.2398 32.5201)" fill="white" fill-opacity="0.2"/>
<circle cx="17.2398" cy="27.4001" r="0.426668" transform="rotate(-180 17.2398 27.4001)" fill="#7445B8"/>
<circle cx="17.2398" cy="27.4001" r="0.426668" transform="rotate(-180 17.2398 27.4001)" fill="white" fill-opacity="0.2"/>
<circle cx="15.0229" cy="31.2402" r="0.426668" transform="rotate(-120 15.0229 31.2402)" fill="#7445B8"/>
<circle cx="15.0229" cy="31.2402" r="0.426668" transform="rotate(-120 15.0229 31.2402)" fill="white" fill-opacity="0.2"/>
<circle cx="19.4572" cy="28.6802" r="0.426668" transform="rotate(-120 19.4572 28.6802)" fill="#7445B8"/>
<circle cx="19.4572" cy="28.6802" r="0.426668" transform="rotate(-120 19.4572 28.6802)" fill="white" fill-opacity="0.2"/>
<path d="M26.4112 11.72L24.7842 10.9205C24.3301 10.6974 23.7949 11.0064 23.7611 11.5112L23.6399 13.32L23.5188 11.5112C23.485 11.0064 22.9498 10.6974 22.4957 10.9205L20.8686 11.72L22.3746 10.7107C22.7948 10.429 22.7948 9.81098 22.3746 9.5293L20.8686 8.52001L22.4957 9.31953C22.9498 9.54266 23.485 9.23362 23.5188 8.72881L23.6399 6.92001L23.7611 8.72881C23.7949 9.23362 24.3301 9.54266 24.7842 9.31953L26.4112 8.52001L24.9053 9.5293C24.485 9.81098 24.485 10.429 24.9053 10.7107L26.4112 11.72Z" fill="#7445B8"/>
<path d="M26.4112 11.72L24.7842 10.9205C24.3301 10.6974 23.7949 11.0064 23.7611 11.5112L23.6399 13.32L23.5188 11.5112C23.485 11.0064 22.9498 10.6974 22.4957 10.9205L20.8686 11.72L22.3746 10.7107C22.7948 10.429 22.7948 9.81098 22.3746 9.5293L20.8686 8.52001L22.4957 9.31953C22.9498 9.54266 23.485 9.23362 23.5188 8.72881L23.6399 6.92001L23.7611 8.72881C23.7949 9.23362 24.3301 9.54266 24.7842 9.31953L26.4112 8.52001L24.9053 9.5293C24.485 9.81098 24.485 10.429 24.9053 10.7107L26.4112 11.72Z" fill="white" fill-opacity="0.2"/>
<circle cx="25.4874" cy="11.1867" r="0.355557" transform="rotate(120 25.4874 11.1867)" fill="#7445B8"/>
<circle cx="25.4874" cy="11.1867" r="0.355557" transform="rotate(120 25.4874 11.1867)" fill="white" fill-opacity="0.2"/>
<circle cx="21.7924" cy="9.05336" r="0.355557" transform="rotate(120 21.7924 9.05336)" fill="#7445B8"/>
<circle cx="21.7924" cy="9.05336" r="0.355557" transform="rotate(120 21.7924 9.05336)" fill="white" fill-opacity="0.2"/>
<circle cx="23.6399" cy="12.2534" r="0.355557" transform="rotate(-180 23.6399 12.2534)" fill="#7445B8"/>
<circle cx="23.6399" cy="12.2534" r="0.355557" transform="rotate(-180 23.6399 12.2534)" fill="white" fill-opacity="0.2"/>
<circle cx="23.6399" cy="7.98676" r="0.355557" transform="rotate(-180 23.6399 7.98676)" fill="#7445B8"/>
<circle cx="23.6399" cy="7.98676" r="0.355557" transform="rotate(-180 23.6399 7.98676)" fill="white" fill-opacity="0.2"/>
<circle cx="21.7924" cy="11.1868" r="0.355557" transform="rotate(-120 21.7924 11.1868)" fill="#7445B8"/>
<circle cx="21.7924" cy="11.1868" r="0.355557" transform="rotate(-120 21.7924 11.1868)" fill="white" fill-opacity="0.2"/>
<circle cx="25.4876" cy="9.05345" r="0.355557" transform="rotate(-120 25.4876 9.05345)" fill="#7445B8"/>
<circle cx="25.4876" cy="9.05345" r="0.355557" transform="rotate(-120 25.4876 9.05345)" fill="white" fill-opacity="0.2"/>
</g>
</g>
<defs>
<clipPath id="clip0_3645_29939">
<rect width="50" height="50" fill="white" transform="matrix(-1 0 0 1 50 0)"/>
</clipPath>
<clipPath id="clip1_3645_29939">
<rect width="32" height="32" fill="white" transform="matrix(-1 0 0 1 39 5)"/>
</clipPath>
</defs>
</svg>
