<?xml version="1.0" encoding="utf-8"?><svg fill="none" viewBox="0 0 50 50" width="50" height="50" xmlns="http://www.w3.org/2000/svg"><g clip-path="url(#amda)"><path d="m28.5 20 1.5 1.5L1.993 50.022H0V48l28.5-28Z" fill="#FAA21E"/><path d="M40.706 18.379c-.03-1.147.908-1.79 1.38-1.97-.18.378-.64 1.12-.622 1.807.023.86.608 1.822 0 2.429-.607.607-1.214.607-2.27.13.105.384-.3.686-.765.477-.812-.365-.901-1.136-.911-1.518.303.91 1.243.943 1.219.026-.03-1.147-2.787-2.508-4.322-.973-1.229 1.229-.153 3.29.538 4.168-.877-.691-2.939-1.767-4.167-.539-.895.894-.59 2.231-.25 2.479-.522.13-1.518-.91-3.036 0-.896.537-2.282.147-2.429 0l7.67-7.604 6.598-.593H40.554h-.005c-.292.008-1.224 1.423-.96 2.797.332 1.728 1.154.317 1.117-1.116Z" fill="#898989"/><path d="M40.706 18.379c-.03-1.147.908-1.79 1.38-1.97-.18.378-.64 1.12-.622 1.807.023.86.608 1.822 0 2.429-.607.607-1.214.607-2.27.13.105.384-.3.686-.765.477-.812-.365-.901-1.136-.911-1.518.303.91 1.243.943 1.219.026-.03-1.147-2.787-2.508-4.322-.973-1.229 1.229-.153 3.29.538 4.168-.877-.691-2.939-1.767-4.167-.539-.895.894-.59 2.231-.25 2.479-.522.13-1.518-.91-3.036 0-.896.537-2.282.147-2.429 0l7.67-7.604 6.598-.593H40.554h-.005c-.292.008-1.224 1.423-.96 2.797.332 1.728 1.154.317 1.117-1.116Z" fill="#fff" fill-opacity=".4"/><path d="M31.587 9.26c1.147.03 1.79-.908 1.97-1.38-.378.18-1.119.64-1.807.622-.86-.023-1.822-.607-2.429 0-.607.607-.607 1.214-.129 2.271-.385-.105-.687.3-.478.765.365.811 1.136.9 1.518.91-.91-.303-.943-1.243-.025-1.219 1.146.03 2.507 2.787.972 4.323-1.228 1.228-3.29.152-4.168-.54.692.878 1.767 2.94.54 4.168-.895.895-2.232.591-2.48.25-.13.522.911 1.518 0 3.036-.537.896-.147 2.282 0 2.429l7.67-7.604.527-6.664V9.413v.004c-.008.292-1.423 1.224-2.797.96-1.728-.332-.317-1.154 1.116-1.117Z" fill="#898989"/><path d="M31.587 9.26c1.147.03 1.79-.908 1.97-1.38-.378.18-1.119.64-1.807.622-.86-.023-1.822-.607-2.429 0-.607.607-.607 1.214-.129 2.271-.385-.105-.687.3-.478.765.365.811 1.136.9 1.518.91-.91-.303-.943-1.243-.025-1.219 1.146.03 2.507 2.787.972 4.323-1.228 1.228-3.29.152-4.168-.54.692.878 1.767 2.94.54 4.168-.895.895-2.232.591-2.48.25-.13.522.911 1.518 0 3.036-.537.896-.147 2.282 0 2.429l7.67-7.604.527-6.664V9.413v.004c-.008.292-1.423 1.224-2.797.96-1.728-.332-.317-1.154 1.116-1.117Z" fill="#fff" fill-opacity=".95"/><path d="M31.75 18.216 49.965 0c-1.075 1.75-3.93 5.954-6.754 8.778-2.824 2.824-3.793 6.491-3.871 7.919l-7.59 1.518Z" fill="#898989"/><path d="M31.75 18.216 49.965 0c-1.075 1.75-3.93 5.954-6.754 8.778-2.824 2.824-3.793 6.491-3.871 7.919l-7.59 1.518Z" fill="#fff" fill-opacity=".4"/><path d="M31.75 18.216 49.965 0c-1.75 1.075-5.954 3.93-8.778 6.754-2.824 2.824-6.491 3.793-7.919 3.872l-1.518 7.589Z" fill="#898989"/><path d="M31.75 18.216 49.965 0c-1.75 1.075-5.954 3.93-8.778 6.754-2.824 2.824-6.491 3.793-7.919 3.872l-1.518 7.589Z" fill="#fff" fill-opacity=".95"/><g clip-path="url(#amdb)"><path d="m31.447 17.034.364-1.092 2.186 2.185-1.093.364-1.457-1.457Z" fill="#FAA21E"/><path d="m31.447 17.034.364-1.092 2.186 2.185-1.093.364-1.457-1.457Z" fill="#000" fill-opacity=".1"/><path d="m32.904 18.491 1.093-.364-.729 3.157-.91-.91.546-1.883Z" fill="#FAA21E"/><path d="m31.447 17.034.364-1.092-3.157.728.91.91 1.883-.546ZM28.42 21.518l3.938-1.144.91.91-6.435 1.822 1.588-1.588Z" fill="#C57A09"/><path d="m30.475 20.92 1.883-.546.789.789c-.364-.243-.563-.39-.85-.486-.288-.096-1.295.162-1.822.243Z" fill="#FAA21E"/><path d="m30.475 20.92 1.883-.546.789.789c-.364-.243-.563-.39-.85-.486-.288-.096-1.295.162-1.822.243Z" fill="#fff" fill-opacity=".95"/><path d="m29.564 17.58-.91-.91-1.822 6.436 1.588-1.588 1.144-3.937Z" fill="#FAA21E"/><path d="m29.564 17.58-.91-.91-1.822 6.436 1.588-1.588 1.144-3.937Z" fill="#fff" fill-opacity=".2"/><path d="m32.904 18.491-1.457-1.457-1.883.547-1.153 3.946 3.946-1.153.547-1.883Z" fill="#FAA21E"/><path d="m32.904 18.491-1.457-1.457-1.883.547-1.153 3.946 3.946-1.153.547-1.883Z" fill="#fff" fill-opacity=".4"/><path d="m31.447 17.034-1.883.547c.419-.122 1.356-.328 1.761-.182.405.145 1.221.789 1.579 1.092l-1.457-1.457Z" fill="#FAA21E"/><path d="m31.447 17.034-1.883.547c.419-.122 1.356-.328 1.761-.182.405.145 1.221.789 1.579 1.092l-1.457-1.457Z" fill="#fff" fill-opacity=".95"/></g><g clip-path="url(#amdc)"><path d="m34.354 17.036-.364 1.093-2.186-2.186 1.093-.364 1.457 1.457ZM32.897 15.579l-1.093.364.729-3.157.91.91-.546 1.883Z" fill="#546DDB"/><path d="m32.897 15.579-1.093.364.729-3.157.91.91-.546 1.883Z" fill="#fff" fill-opacity=".2"/><path d="m34.354 17.036-.364 1.093 3.157-.729-.911-.91-1.882.546Z" fill="#546DDB"/><path d="m34.354 17.036-.364 1.093 3.157-.729-.911-.91-1.882.546Z" fill="#000" fill-opacity=".2"/><path d="m37.38 12.553-3.937 1.144-.91-.91 6.435-1.822-1.588 1.588Z" fill="#546DDB"/><path d="m37.38 12.553-3.937 1.144-.91-.91 6.435-1.822-1.588 1.588Z" fill="#000" fill-opacity=".2"/><path d="m35.325 13.15-1.882.547-.79-.79c.365.243.563.39.85.486.289.096 1.296-.162 1.822-.243Z" fill="#FEFEFE"/><path d="m36.236 16.49.911.91 1.821-6.435-1.588 1.588-1.144 3.937Z" fill="#546DDB"/><path d="m36.236 16.49.911.91 1.821-6.435-1.588 1.588-1.144 3.937Z" fill="#fff" fill-opacity=".4"/><path d="m32.897 15.58 1.457 1.456 1.882-.546 1.154-3.947-3.947 1.154-.546 1.882Z" fill="#546DDB"/><path d="m32.897 15.58 1.457 1.456 1.882-.546 1.154-3.947-3.947 1.154-.546 1.882Z" fill="#fff" fill-opacity=".6"/><path d="m34.354 17.036 1.882-.546c-.418.121-1.355.328-1.76.182-.405-.146-1.222-.79-1.579-1.093l1.457 1.457Z" fill="#FEFEFE"/></g><path d="M43.59 7.59c1.04-1.04 2.052-2.861 2.428-3.642-.78.376-2.602 1.388-3.643 2.429-1.04 1.04-2.197 3.006-2.429 3.642.636-.23 2.602-1.387 3.643-2.428Z" fill="#546DDB"/><path d="M43.59 7.59c1.04-1.04 2.052-2.861 2.428-3.642-.78.376-2.602 1.388-3.643 2.429-1.04 1.04-2.197 3.006-2.429 3.642.636-.23 2.602-1.387 3.643-2.428Z" fill="#000" fill-opacity=".2"/><path d="M42.375 6.377c-1.04 1.04-2.197 3.006-2.429 3.642l6.072-6.071c-.78.376-2.602 1.388-3.643 2.429Z" fill="#546DDB"/><path d="M42.375 6.377c-1.04 1.04-2.197 3.006-2.429 3.642l6.072-6.071c-.78.376-2.602 1.388-3.643 2.429Z" fill="#fff" fill-opacity=".2"/></g><defs><clipPath id="amda"><path fill="#fff" transform="matrix(-1 0 0 1 50 0)" d="M0 0h50v50H0z"/></clipPath><clipPath id="amdb"><path fill="#fff" transform="scale(-1 1) rotate(-15 46.17 144.703)" d="M0 0h8.586v8.586H0z"/></clipPath><clipPath id="amdc"><path fill="#fff" transform="scale(1 -1) rotate(-15 -50.325 -122.236)" d="M0 0h8.586v8.586H0z"/></clipPath></defs></svg>