<svg width="50" height="50" viewBox="0 0 50 50" fill="none" xmlns="http://www.w3.org/2000/svg">
<path d="M25 21.6V9L43 40.5L32.2 34.2L25 21.6Z" fill="#D0333D"/>
<path d="M25 21.6V9L43 40.5L32.2 34.2L25 21.6Z" fill="white" fill-opacity="0.2"/>
<path d="M25 21.6V9L24.4857 9.9L7.51429 39.6L7 40.5L17.8 34.2L25 21.6Z" fill="#D0333D"/>
<path d="M25 21.6V9L24.4857 9.9L7.51429 39.6L7 40.5L17.8 34.2L25 21.6Z" fill="white" fill-opacity="0.4"/>
<path d="M7 40.4999L17.8 34.2H32.2L43 40.4999H7Z" fill="#D0333D"/>
<path d="M17.8 34.2L25 21.6L32.2 34.2H17.8Z" fill="#D0333D"/>
<path d="M17.8 34.2L25 21.6L32.2 34.2H17.8Z" fill="white" fill-opacity="0.6"/>
<path d="M17.8 34.2L25 21.5C23.6667 24.8333 20.5 31 21.5 32.5C22.2957 33.6935 27.3333 34.0333 30 34.2H17.8Z" fill="#D0333D"/>
<path d="M17.8 34.2L25 21.5C23.6667 24.8333 20.5 31 21.5 32.5C22.2957 33.6935 27.3333 34.0333 30 34.2H17.8Z" fill="white" fill-opacity="0.9"/>
</svg>
