<svg width="50" height="50" viewBox="0 0 50 50" fill="none" xmlns="http://www.w3.org/2000/svg">
<g clip-path="url(#clip0_1880_9328)">
<g clip-path="url(#clip1_1880_9328)">
<path d="M22.8299 44.171C17.4017 44.171 13.8965 42.1857 13.4002 41.1931C12.9039 40.2005 12.9039 36.6573 12.9039 36.6573H32.756C32.756 38.7749 32.8791 40.1965 32.2597 41.1931C31.2727 42.7813 27.7647 44.171 22.8299 44.171Z" fill="#898989"/>
<path d="M22.8299 44.171C17.4017 44.171 13.8965 42.1857 13.4002 41.1931C12.9039 40.2005 12.9039 36.6573 12.9039 36.6573H32.756C32.756 38.7749 32.8791 40.1965 32.2597 41.1931C31.2727 42.7813 27.7647 44.171 22.8299 44.171Z" fill="white" fill-opacity="0.6"/>
<path d="M40.0851 22.0494C39.2788 22.0135 38.1081 21.0907 38.5886 19.3708C39.069 17.6508 41.1427 16.4371 43.5614 16.5447C45.9802 16.6523 47.1316 18.0095 48.3024 18.9323C48.2637 19.8012 48.5122 23.295 46.3612 26.2466C44.2102 29.1983 41.8272 30.365 39.276 31.1554C37.6377 31.663 37.183 32.8037 37.1444 33.6726C37.1057 34.5416 37.8733 35.4464 38.6796 35.4823" stroke="#FEFEFE" stroke-width="2.48152" stroke-linecap="round"/>
<path d="M41.6894 11.0089H3.9704C5.58847 14.7844 6.66718 15.3238 7.7459 19.6386C8.28526 21.7961 7.7459 28.6574 8.82461 32.4329C10.1907 37.2142 12.9945 39.7154 15.8363 41.0626C18.6661 42.4042 26.5039 42.4042 29.8595 41.0626C32.7798 39.8951 35.5473 37.2871 36.8712 32.4329C38.3997 26.8285 37.3065 22.8557 37.9499 19.6386C38.4893 16.9418 39.532 15.3238 41.6894 11.0089Z" fill="#898989"/>
<path d="M41.6894 11.0089H3.9704C5.58847 14.7844 6.66718 15.3238 7.7459 19.6386C8.28526 21.7961 7.7459 28.6574 8.82461 32.4329C10.1907 37.2142 12.9945 39.7154 15.8363 41.0626C18.6661 42.4042 26.5039 42.4042 29.8595 41.0626C32.7798 39.8951 35.5473 37.2871 36.8712 32.4329C38.3997 26.8285 37.3065 22.8557 37.9499 19.6386C38.4893 16.9418 39.532 15.3238 41.6894 11.0089Z" fill="white" fill-opacity="0.95"/>
<path d="M41.6894 10.8052C41.6894 13.4836 33.4725 15.7434 23.0566 15.7434C12.6408 15.7434 3.9704 13.4836 3.9704 10.8052C3.9704 8.12686 12.6408 5.95563 23.0566 5.95563C33.4725 5.95563 41.6894 8.12686 41.6894 10.8052Z" fill="#898989"/>
<path d="M41.6894 10.8052C41.6894 13.4836 33.4725 15.7434 23.0566 15.7434C12.6408 15.7434 3.9704 13.4836 3.9704 10.8052C3.9704 8.12686 12.6408 5.95563 23.0566 5.95563C33.4725 5.95563 41.6894 8.12686 41.6894 10.8052Z" fill="white" fill-opacity="0.6"/>
<path d="M41.6894 10.8052C41.6894 13.4836 33.4725 15.7434 23.0566 15.7434C12.6408 15.7434 3.9704 13.4836 3.9704 10.8052C3.9704 8.12686 12.6408 5.95563 23.0566 5.95563C33.4725 5.95563 41.6894 8.12686 41.6894 10.8052Z" stroke="#FEFEFE" stroke-width="1.48891"/>
<path d="M36.863 13.3807C36.863 13.032 29.2426 11.8863 22.9148 11.8863C16.5871 11.8863 8.96667 13.032 8.96667 13.3807C8.96667 13.7293 14.9445 15.1741 22.9148 15.1741C31.8815 15.1741 36.863 13.7293 36.863 13.3807Z" fill="#FAA21E"/>
<path d="M36.863 13.3807C36.863 13.032 29.2426 11.8863 22.9148 11.8863C16.5871 11.8863 8.96667 13.032 8.96667 13.3807C8.96667 13.7293 14.9445 15.1741 22.9148 15.1741C31.8815 15.1741 36.863 13.7293 36.863 13.3807Z" fill="white" fill-opacity="0.4"/>
</g>
<path d="M19.5303 26.4841C18.309 26.7158 15.8581 27.335 14.7925 27.6541C16.3147 27.92 19.713 28.5157 21.1286 28.771C22.8982 29.09 26.4373 29.8878 28.3781 29.7814C30.3189 29.675 31.2322 29.3028 31.6888 28.771C32.1455 28.2391 32.0231 27.8883 30.6835 27.1026C29.6028 26.4689 27.9804 25.9836 25.8506 25.8419C23.1441 25.6618 21.0176 26.2021 19.5303 26.4841Z" fill="#FAA21E"/>
<path d="M19.5303 26.4841C18.309 26.7158 15.8581 27.335 14.7925 27.6541C16.3147 27.92 19.713 28.5157 21.1286 28.771C22.8982 29.09 26.4373 29.8878 28.3781 29.7814C30.3189 29.675 31.2322 29.3028 31.6888 28.771C32.1455 28.2391 32.0231 27.8883 30.6835 27.1026C29.6028 26.4689 27.9804 25.9836 25.8506 25.8419C23.1441 25.6618 21.0176 26.2021 19.5303 26.4841Z" fill="black" fill-opacity="0.4"/>
<path d="M16.6437 27.0327C14.5483 26.8382 13.5784 27.6064 13.5972 27.7787C13.9909 28.5257 15.0886 30.4998 15.3936 31.0537C16.0722 32.2865 17.422 34.9033 17.647 35.1906C17.9771 35.789 21.787 36.1673 24.228 36.1673C26.1201 36.1673 27.1529 35.746 27.4342 35.4779C28.0529 34.367 29.4366 31.9271 30.0215 31.0537C30.7528 29.9621 31.6527 29.2726 31.8777 28.7555C32.1027 28.2384 31.5021 27.4219 31.6527 27.7787C31.8431 28.2295 31.3715 29.3875 29.2903 29.5024C27.2092 29.6173 23.2229 29.0113 21.5965 28.5894C19.6422 28.0824 18.3511 27.1913 16.6437 27.0327Z" fill="#C57A09"/>
<path d="M16.9432 23.9093C16.4534 25.3224 16.3689 27.4605 16.3893 28.2149L17.582 28.5955C17.5616 27.7123 17.5677 25.3114 17.8616 24.2957C18.2289 23.0261 19.0249 21.7565 19.9433 20.8181C20.8617 19.8797 21.5573 19.4606 22.5512 19.2703C23.2177 19.1427 24.278 19.4491 25.1352 20.2219C25.9924 20.9947 26.3278 21.554 26.6782 22.9709C26.9688 24.1463 27.013 24.9617 26.8142 25.9132L27.9315 26.1048C27.9723 25.516 27.9272 23.832 27.5353 22.4189C27.0455 20.6525 25.672 19.4417 24.1413 18.8897C22.6107 18.3377 21.5742 18.7125 20.166 19.6509C18.7578 20.5893 17.5555 22.1429 16.9432 23.9093Z" fill="#FAA21E"/>
<path d="M16.9432 23.9093C16.4534 25.3224 16.3689 27.4605 16.3893 28.2149L17.582 28.5955C17.5616 27.7123 17.5677 25.3114 17.8616 24.2957C18.2289 23.0261 19.0249 21.7565 19.9433 20.8181C20.8617 19.8797 21.5573 19.4606 22.5512 19.2703C23.2177 19.1427 24.278 19.4491 25.1352 20.2219C25.9924 20.9947 26.3278 21.554 26.6782 22.9709C26.9688 24.1463 27.013 24.9617 26.8142 25.9132L27.9315 26.1048C27.9723 25.516 27.9272 23.832 27.5353 22.4189C27.0455 20.6525 25.672 19.4417 24.1413 18.8897C22.6107 18.3377 21.5742 18.7125 20.166 19.6509C18.7578 20.5893 17.5555 22.1429 16.9432 23.9093Z" fill="black" fill-opacity="0.6"/>
<ellipse cx="16.977" cy="28.8256" rx="1.31057" ry="0.748895" transform="rotate(13.4102 16.977 28.8256)" fill="#FAA21E"/>
<ellipse cx="16.977" cy="28.8256" rx="1.31057" ry="0.748895" transform="rotate(13.4102 16.977 28.8256)" fill="black" fill-opacity="0.6"/>
</g>
<defs>
<clipPath id="clip0_1880_9328">
<rect width="50" height="50" fill="white"/>
</clipPath>
<clipPath id="clip1_1880_9328">
<rect width="49.8148" height="49.8148" fill="white"/>
</clipPath>
</defs>
</svg>
