<svg width="50" height="50" viewBox="0 0 50 50" fill="none" xmlns="http://www.w3.org/2000/svg">
<path d="M24.5178 3.19249C22.8823 3.19249 20.6564 2.3975 19.7478 2L16 3.19249V23.124H33.5466V3.19249L30.3098 2C29.0606 2.3975 26.1532 3.19249 24.5178 3.19249Z" fill="#FAA21E"/>
<path d="M24.5178 3.19249C22.8823 3.19249 20.6564 2.3975 19.7478 2L16 3.19249V23.124H33.5466V3.19249L30.3098 2C29.0606 2.3975 26.1532 3.19249 24.5178 3.19249Z" fill="black" fill-opacity="0.6"/>
<path d="M24.5178 3.19249C22.8823 3.19249 20.6564 2.3975 19.7478 2L16 3.19249V23.124H33.5466V3.19249L30.3098 2C29.0606 2.3975 26.1532 3.19249 24.5178 3.19249Z" stroke="#FAA21E" stroke-width="2"/>
<path d="M24.5178 3.19249C22.8823 3.19249 20.6564 2.3975 19.7478 2L16 3.19249V23.124H33.5466V3.19249L30.3098 2C29.0606 2.3975 26.1532 3.19249 24.5178 3.19249Z" stroke="black" stroke-opacity="0.4" stroke-width="2"/>
<path d="M18.5 2.5L10.4809 4.72568C10.707 6.99708 11.0236 12.1872 10.4809 14.7766C9.80257 18.0134 6.41085 17.6727 7.0892 18.6948C7.63187 19.5125 7.99365 35.0489 7.76753 42.7149L21.504 48.3366L26.7612 45.7813V21.4205C25.461 20.2848 22.0854 14.3168 21 12C19.9146 9.68317 18.3869 3.91963 18.5 2.5Z" fill="#FAA21E"/>
<path d="M18.5 2.5L10.4809 4.72568C10.707 6.99708 11.0236 12.1872 10.4809 14.7766C9.80257 18.0134 6.41085 17.6727 7.0892 18.6948C7.63187 19.5125 7.99365 35.0489 7.76753 42.7149L21.504 48.3366L26.7612 45.7813V21.4205C25.461 20.2848 22.0854 14.3168 21 12C19.9146 9.68317 18.3869 3.91963 18.5 2.5Z" fill="white" fill-opacity="0.4"/>
<path d="M18.5 2.5L10.4809 4.72568C10.707 6.99708 11.0236 12.1872 10.4809 14.7766C9.80257 18.0134 6.41085 17.6727 7.0892 18.6948C7.63187 19.5125 7.99365 35.0489 7.76753 42.7149L21.504 48.3366L26.7612 45.7813V21.4205C25.461 20.2848 22.0854 14.3168 21 12C19.9146 9.68317 18.3869 3.91963 18.5 2.5Z" stroke="#FAA21E" stroke-width="2"/>
<path d="M18.5 2.5L10.4809 4.72568C10.707 6.99708 11.0236 12.1872 10.4809 14.7766C9.80257 18.0134 6.41085 17.6727 7.0892 18.6948C7.63187 19.5125 7.99365 35.0489 7.76753 42.7149L21.504 48.3366L26.7612 45.7813V21.4205C25.461 20.2848 22.0854 14.3168 21 12C19.9146 9.68317 18.3869 3.91963 18.5 2.5Z" stroke="black" stroke-opacity="0.4" stroke-width="2"/>
<path d="M31 2.5L39.2803 4.72568C39.0542 6.99708 38.7376 12.1872 39.2803 14.7766C39.9587 18.0134 43.3504 17.6727 42.672 18.6948C42.1294 19.5125 41.7676 35.0489 41.9937 42.7149L28.2572 48.3366L23 45.7813V20.7391C24.3002 19.6034 27.1719 14.3168 28.2572 12C29.3426 9.68317 31.1131 3.91963 31 2.5Z" fill="#FAA21E"/>
<path d="M31 2.5L39.2803 4.72568C39.0542 6.99708 38.7376 12.1872 39.2803 14.7766C39.9587 18.0134 43.3504 17.6727 42.672 18.6948C42.1294 19.5125 41.7676 35.0489 41.9937 42.7149L28.2572 48.3366L23 45.7813V20.7391C24.3002 19.6034 27.1719 14.3168 28.2572 12C29.3426 9.68317 31.1131 3.91963 31 2.5Z" fill="white" fill-opacity="0.4"/>
<path d="M31 2.5L39.2803 4.72568C39.0542 6.99708 38.7376 12.1872 39.2803 14.7766C39.9587 18.0134 43.3504 17.6727 42.672 18.6948C42.1294 19.5125 41.7676 35.0489 41.9937 42.7149L28.2572 48.3366L23 45.7813V20.7391C24.3002 19.6034 27.1719 14.3168 28.2572 12C29.3426 9.68317 31.1131 3.91963 31 2.5Z" stroke="#FAA21E" stroke-width="2"/>
<path d="M31 2.5L39.2803 4.72568C39.0542 6.99708 38.7376 12.1872 39.2803 14.7766C39.9587 18.0134 43.3504 17.6727 42.672 18.6948C42.1294 19.5125 41.7676 35.0489 41.9937 42.7149L28.2572 48.3366L23 45.7813V20.7391C24.3002 19.6034 27.1719 14.3168 28.2572 12C29.3426 9.68317 31.1131 3.91963 31 2.5Z" stroke="black" stroke-opacity="0.4" stroke-width="2"/>
<path d="M16.9702 31.9825C16.8566 32.6072 16.391 33.9587 15.437 34.3675C14.483 34.7764 10.156 35.4464 8.11169 35.7304" stroke="#FAA21E" stroke-width="2" stroke-linecap="round"/>
<path d="M16.9702 31.9825C16.8566 32.6072 16.391 33.9587 15.437 34.3675C14.483 34.7764 10.156 35.4464 8.11169 35.7304" stroke="black" stroke-opacity="0.4" stroke-width="2" stroke-linecap="round"/>
<path d="M32.6872 31.9825C32.8008 32.6072 33.2664 33.9587 34.2204 34.3675C35.1744 34.7764 39.5014 35.4464 41.5457 35.7304" stroke="#FAA21E" stroke-width="2" stroke-linecap="round"/>
<path d="M32.6872 31.9825C32.8008 32.6072 33.2664 33.9587 34.2204 34.3675C35.1744 34.7764 39.5014 35.4464 41.5457 35.7304" stroke="black" stroke-opacity="0.4" stroke-width="2" stroke-linecap="round"/>
<circle cx="27.3508" cy="23.6019" r="1.5" fill="#FAA21E"/>
<circle cx="27.3508" cy="23.6019" r="1.5" fill="black" fill-opacity="0.4"/>
<circle cx="27.3508" cy="40.6374" r="1.5" fill="#FAA21E"/>
<circle cx="27.3508" cy="40.6374" r="1.5" fill="black" fill-opacity="0.4"/>
<circle cx="27.3508" cy="32.1196" r="1.5" fill="#FAA21E"/>
<circle cx="27.3508" cy="32.1196" r="1.5" fill="black" fill-opacity="0.4"/>
</svg>
