<svg width="50" height="50" viewBox="0 0 50 50" fill="none" xmlns="http://www.w3.org/2000/svg">
<path d="M21.8363 3.61253L17.9219 2.49414L16.2443 7.52689L19.0403 8.64527L21.8363 3.61253Z" fill="#7445B8"/>
<path d="M21.8363 3.61253L17.9219 2.49414L16.2443 7.52689L19.0403 8.64527L21.8363 3.61253Z" fill="white" fill-opacity="0.8"/>
<path d="M36.3753 10.8818C33.0201 8.08568 27.4282 5.28989 21.8363 3.6123L19.0403 8.64505C21.2771 13.1186 19.5995 14.237 16.2443 17.033C11.5977 20.9052 3.38287 23.1841 3.38287 34.9272C3.38287 42.1967 11.2116 48.3478 24.6322 48.3478C43.0856 48.3478 47 39.6603 47 29.8944C47 21.5 42.1546 15.6982 36.3753 10.8818Z" fill="#7445B8"/>
<path d="M36.3753 10.8818C33.0201 8.08568 27.4282 5.28989 21.8363 3.6123L19.0403 8.64505C21.2771 13.1186 19.5995 14.237 16.2443 17.033C11.5977 20.9052 3.38287 23.1841 3.38287 34.9272C3.38287 42.1967 11.2116 48.3478 24.6322 48.3478C43.0856 48.3478 47 39.6603 47 29.8944C47 21.5 42.1546 15.6982 36.3753 10.8818Z" fill="white" fill-opacity="0.2"/>
<path d="M10.6524 2.49386C12.8892 1.74851 16.2443 1.93466 17.9219 2.49383L16.2443 7.52658C14.0076 7.52658 12.33 7.99632 10.6524 10.3225C9.1896 12.3509 8.18711 15.9283 7.85643 17.592L4.03225 13.1756L5.25358 10.971L3.38289 7.5266C4.66153 6.01869 7.29718 3.61192 10.6524 2.49386Z" fill="#7445B8"/>
<path d="M10.6524 2.49386C12.8892 1.74851 16.2443 1.93466 17.9219 2.49383L16.2443 7.52658C14.0076 7.52658 12.33 7.99632 10.6524 10.3225C9.1896 12.3509 8.18711 15.9283 7.85643 17.592L4.03225 13.1756L5.25358 10.971L3.38289 7.5266C4.66153 6.01869 7.29718 3.61192 10.6524 2.49386Z" fill="white" fill-opacity="0.2"/>
<path d="M8.41564 31.0125C9.28364 27.5405 13.8212 23.1838 17.9219 22.0654C16.9899 25.7934 14.5668 31.5717 17.3627 35.4861C21.7355 41.6079 36.9345 39.4004 41.4081 37.7229C35.8161 43.874 21.5008 44.545 15.6852 42.7556C8.41565 40.5188 7.29723 35.4861 8.41564 31.0125Z" fill="#7445B8"/>
</svg>
