<svg width="50" height="50" viewBox="0 0 50 50" fill="none" xmlns="http://www.w3.org/2000/svg">
<circle cx="43" cy="7" r="7" fill="#2FC4A7"/>
<path d="M43.1818 4.08522C44.1668 3.68435 45.509 3.59718 44.7495 2.2973C43.9901 0.99746 42.3378 1.44522 41.3526 1.84585C40.1065 2.35254 38.7551 3.36245 39.5134 4.66125C40.5241 6.39262 42.1968 4.48608 43.1818 4.08522Z" fill="#FEFEFE"/>
<path d="M39.9072 6.5577C39.4411 6.18493 38.5385 5.84434 38.132 6.28132C37.7248 6.71835 37.4408 7.63499 37.814 7.93294C38.2807 8.30561 39.0137 8.8269 39.5893 8.20939C39.9966 7.7724 40.2368 6.82129 39.9072 6.5577Z" fill="#FEFEFE"/>
<path d="M37.4811 15.7657C37.8358 16.1204 38.4109 16.1204 38.7656 15.7657C39.1203 15.411 39.1203 14.8359 38.7656 14.4811L35.6127 11.3282C35.258 10.9735 34.6828 10.9735 34.3281 11.3282C33.9734 11.6829 33.9734 12.258 34.3281 12.6127L37.4811 15.7657Z" fill="#C57A09"/>
<path d="M36.0156 15.9845L34.0156 13.9844L4.84631 43.1537L3.50003 44.5L5.50003 46.5L6.84631 45.1537L36.0156 15.9845Z" fill="#C57A09"/>
<ellipse cx="2.51562" cy="47.5156" rx="2.09924" ry="2.10485" transform="rotate(45 2.51562 47.5156)" fill="#C57A09"/>
</svg>
