<svg width="50" height="50" viewBox="0 0 50 50" fill="none" xmlns="http://www.w3.org/2000/svg">
<g clip-path="url(#clip0_6073_9993)">
<path d="M15.0486 7.63623C10.4172 10.2726 9.56783 14.3272 7.50004 18C4.93479 22.5564 -2.15391 31.8272 5.12408 39.9259C12.4021 48.0247 37.6502 48.0988 44.5 40C52.1923 30.9053 44.4861 22.3272 42.5 18.5C40.3997 14.4527 39.6315 10.2937 35 7.63623C30.4051 4.99971 28.3143 4.99984 25.6971 5L25.6347 5.00001L25.6344 5.00001C23.6494 5.00001 19.6798 5.00001 15.0486 7.63623Z" fill="#FAA21E"/>
<path d="M15.0486 7.63623C10.4172 10.2726 9.56783 14.3272 7.50004 18C4.93479 22.5564 -2.15391 31.8272 5.12408 39.9259C12.4021 48.0247 37.6502 48.0988 44.5 40C52.1923 30.9053 44.4861 22.3272 42.5 18.5C40.3997 14.4527 39.6315 10.2937 35 7.63623C30.4051 4.99971 28.3143 4.99984 25.6971 5L25.6347 5.00001L25.6344 5.00001C23.6494 5.00001 19.6798 5.00001 15.0486 7.63623Z" fill="white" fill-opacity="0.2"/>
<path d="M5.69995 40.5C14 48 38.177 48 44.8869 40C48.5471 35.6361 49 30 46 24.5C46.5 31.5 42.3347 35.6494 36 38.5C26 43 13.4773 43 5.69995 40.5Z" fill="#FAA21E"/>
<path d="M5.69995 40.5C14 48 38.177 48 44.8869 40C48.5471 35.6361 49 30 46 24.5C46.5 31.5 42.3347 35.6494 36 38.5C26 43 13.4773 43 5.69995 40.5Z" fill="black" fill-opacity="0.1"/>
<path d="M33.5443 6.472C29.2801 4.79817 22.3509 4.24022 17.0207 6.472C14.0003 7.95984 8.97246 11.134 11 16C13.5 22 20.1432 25.5 25.5 25.5C31.8962 25.5 36.3886 21.7783 38.5 16.5C40.5 11.5 37.8084 8.14583 33.5443 6.472Z" fill="#FAA21E"/>
<path d="M33.5443 6.472C29.2801 4.79817 22.3509 4.24022 17.0207 6.472C14.0003 7.95984 8.97246 11.134 11 16C13.5 22 20.1432 25.5 25.5 25.5C31.8962 25.5 36.3886 21.7783 38.5 16.5C40.5 11.5 37.8084 8.14583 33.5443 6.472Z" fill="black" fill-opacity="0.4"/>
<path d="M33.5443 5.40191C29.2802 3.80778 22.3509 3.2764 17.0208 5.40191C14.0003 6.81889 8.06606 10.2905 10.6245 14.9666C13.8226 20.8117 20.1923 24 25.549 24C31.9452 24 36.5222 19.749 39.1873 14.9666C41.7498 10.3683 37.8084 6.99603 33.5443 5.40191Z" fill="#FAA21E"/>
<path d="M33.5443 5.40191C29.2802 3.80778 22.3509 3.2764 17.0208 5.40191C14.0003 6.81889 8.06606 10.2905 10.6245 14.9666C13.8226 20.8117 20.1923 24 25.549 24C31.9452 24 36.5222 19.749 39.1873 14.9666C41.7498 10.3683 37.8084 6.99603 33.5443 5.40191Z" fill="black" fill-opacity="0.1"/>
<path d="M25.5491 24C31.9453 24 36.5222 19.749 39.1873 14.9666C41.1937 11.3663 39.2129 8.51756 36.2119 6.68547C36.8079 7.29031 37.9 9.2 37.5 12C37 15.5 31 19.5 27 20.5C23.8 21.3 16.5 20 12.5 17.7C15.5 21.5 20 24 25.5491 24Z" fill="#C57A09"/>
<circle cx="25" cy="18" r="4" fill="#FAA21E"/>
<circle cx="25" cy="18" r="4" fill="white" fill-opacity="0.8"/>
<path d="M25 22C27.2092 22 29 20.2091 29 18C29 17.2969 28.8186 16.6361 28.5 16.062C28.5 16.8747 28 19 26 20C24 21 22.3605 20.1667 21.2908 19.5C21.8842 20.9659 23.3213 22 25 22Z" fill="#FAA21E"/>
<path d="M25 22C27.2092 22 29 20.2091 29 18C29 17.2969 28.8186 16.6361 28.5 16.062C28.5 16.8747 28 19 26 20C24 21 22.3605 20.1667 21.2908 19.5C21.8842 20.9659 23.3213 22 25 22Z" fill="white" fill-opacity="0.6"/>
<circle cx="0.5" cy="0.5" r="0.5" transform="matrix(1 0 0 -1 23.5 17.5)" fill="#FAA21E"/>
<circle cx="0.5" cy="0.5" r="0.5" transform="matrix(1 0 0 -1 23.5 17.5)" fill="black" fill-opacity="0.6"/>
<circle cx="0.5" cy="0.5" r="0.5" transform="matrix(1 0 0 -1 25.5 17.5)" fill="#FAA21E"/>
<circle cx="0.5" cy="0.5" r="0.5" transform="matrix(1 0 0 -1 25.5 17.5)" fill="black" fill-opacity="0.6"/>
<circle cx="0.5" cy="0.5" r="0.5" transform="matrix(1 0 0 -1 23.5 19.5)" fill="#FAA21E"/>
<circle cx="0.5" cy="0.5" r="0.5" transform="matrix(1 0 0 -1 23.5 19.5)" fill="black" fill-opacity="0.6"/>
<circle cx="0.5" cy="0.5" r="0.5" transform="matrix(1 0 0 -1 25.5 19.5)" fill="#FAA21E"/>
<circle cx="0.5" cy="0.5" r="0.5" transform="matrix(1 0 0 -1 25.5 19.5)" fill="black" fill-opacity="0.6"/>
<path d="M31.0506 24.2806C30.0573 25.9637 29.1776 28.3143 28.862 29.2792C28.7287 29.6865 28.9733 29.9898 29.4035 30.1782C29.8337 30.3665 30.4744 30.1501 30.5969 29.7079C30.7195 29.2657 31.294 27.7627 31.683 26.8741C32.0721 25.9854 32.5671 24.6799 33.1668 24.0423C33.3866 24.0282 33.949 23.895 34.6164 24.1872C35.0466 24.3755 35.3506 24.9499 35.4488 25.2135L32.8954 31.0452C32.7884 31.2896 32.8884 31.704 33.3187 31.8924C33.7489 32.0808 34.1589 31.819 34.2399 31.6339L36.7933 25.8022C37.266 25.6782 37.6914 25.6527 38.1216 25.841C38.5518 26.0294 39.0233 26.558 39.1215 26.8216C38.968 27.4162 38.518 28.8077 38.1289 29.6964C37.7399 30.585 37.1144 31.8996 36.7816 32.4158C36.66 32.6935 36.5782 33.3195 37.2235 33.6021C37.8689 33.8847 38.1269 33.627 38.2734 33.3999C38.6062 32.8837 39.5975 31.2527 40.4523 28.7148C41.6006 25.3059 40.9538 23.2952 40.6592 22.5043C40.4235 21.8716 39.8291 21.0642 39.3724 20.6436C40.6631 18.6716 43.6826 13.64 45.6692 10.2739C48.1524 6.06613 48.1544 2.89599 46.2783 2.0746C44.606 1.34243 42.052 4.27723 40.8875 8.4005C39.956 11.6991 38.2344 17.3876 37.4901 19.8195C37.3108 19.741 36.6642 19.6564 35.5119 19.9462C34.0716 20.3083 32.2922 22.1767 31.0506 24.2806Z" fill="#898989"/>
<path d="M31.0506 24.2806C30.0573 25.9637 29.1776 28.3143 28.862 29.2792C28.7287 29.6865 28.9733 29.9898 29.4035 30.1782C29.8337 30.3665 30.4744 30.1501 30.5969 29.7079C30.7195 29.2657 31.294 27.7627 31.683 26.8741C32.0721 25.9854 32.5671 24.6799 33.1668 24.0423C33.3866 24.0282 33.949 23.895 34.6164 24.1872C35.0466 24.3755 35.3506 24.9499 35.4488 25.2135L32.8954 31.0452C32.7884 31.2896 32.8884 31.704 33.3187 31.8924C33.7489 32.0808 34.1589 31.819 34.2399 31.6339L36.7933 25.8022C37.266 25.6782 37.6914 25.6527 38.1216 25.841C38.5518 26.0294 39.0233 26.558 39.1215 26.8216C38.968 27.4162 38.518 28.8077 38.1289 29.6964C37.7399 30.585 37.1144 31.8996 36.7816 32.4158C36.66 32.6935 36.5782 33.3195 37.2235 33.6021C37.8689 33.8847 38.1269 33.627 38.2734 33.3999C38.6062 32.8837 39.5975 31.2527 40.4523 28.7148C41.6006 25.3059 40.9538 23.2952 40.6592 22.5043C40.4235 21.8716 39.8291 21.0642 39.3724 20.6436C40.6631 18.6716 43.6826 13.64 45.6692 10.2739C48.1524 6.06613 48.1544 2.89599 46.2783 2.0746C44.606 1.34243 42.052 4.27723 40.8875 8.4005C39.956 11.6991 38.2344 17.3876 37.4901 19.8195C37.3108 19.741 36.6642 19.6564 35.5119 19.9462C34.0716 20.3083 32.2922 22.1767 31.0506 24.2806Z" fill="white" fill-opacity="0.95"/>
</g>
<defs>
<clipPath id="clip0_6073_9993">
<rect width="50" height="50" fill="white" transform="matrix(-1 0 0 1 50 0)"/>
</clipPath>
</defs>
</svg>
