<svg width="50" height="50" viewBox="0 0 50 50" fill="none" xmlns="http://www.w3.org/2000/svg">
<path d="M27.5 1.5C23.5 1.5 16.1667 0.833333 13 0.5C12.1667 3.16667 10.2 10.1 9 16.5C7.8 22.9 6.83333 40.5 6.5 48.5L24 50L27.5 20L29 50L43 48.5C42.6667 39.5 41.9 20.8 41.5 18C41.1 15.2 38.6667 5.16667 37.5 0.5C35.8333 0.833333 31.5 1.5 27.5 1.5Z" fill="#546DDB"/>
<path d="M27.5 1.5C23.5 1.5 16.1667 0.833333 13 0.5C12.1667 3.16667 10.2 10.1 9 16.5C7.8 22.9 6.83333 40.5 6.5 48.5L24 50L27.5 20L29 50L43 48.5C42.6667 39.5 41.9 20.8 41.5 18C41.1 15.2 38.6667 5.16667 37.5 0.5C35.8333 0.833333 31.5 1.5 27.5 1.5Z" fill="white" fill-opacity="0.2"/>
<path d="M13.5 7C12.3333 10.3333 12 13.5 11 19.5C9.88015 26.2191 9.5 41.6667 9 48.5" stroke="#546DDB"/>
<path d="M13.5 7C12.3333 10.3333 12 13.5 11 19.5C9.88015 26.2191 9.5 41.6667 9 48.5" stroke="black" stroke-opacity="0.4"/>
<path d="M6.5 49V45.5L24.5 47L24 50L6.5 49Z" fill="#546DDB"/>
<path d="M6.5 49V45.5L24.5 47L24 50L6.5 49Z" fill="black" fill-opacity="0.4"/>
<path d="M43 45.5L29 47V50L43 48.5V45.5Z" fill="#546DDB"/>
<path d="M43 45.5L29 47V50L43 48.5V45.5Z" fill="black" fill-opacity="0.4"/>
<path d="M13.3991 23.3992L8.63098 23L8.48272 24.771L13.1786 25.1641L14.7554 24.4044L13.3991 23.3992Z" fill="#546DDB"/>
<path d="M13.3991 23.3992L8.63098 23L8.48272 24.771L13.1786 25.1641L14.7554 24.4044L13.3991 23.3992Z" fill="black" fill-opacity="0.4"/>
<path d="M12.8801 29.5976L8.11206 29.1985L7.9638 30.9695L12.6596 31.3626L14.2364 30.6029L12.8801 29.5976Z" fill="#546DDB"/>
<path d="M12.8801 29.5976L8.11206 29.1985L7.9638 30.9695L12.6596 31.3626L14.2364 30.6029L12.8801 29.5976Z" fill="black" fill-opacity="0.4"/>
<path d="M11.9164 41.1092L7.14832 40.7101L7.00006 42.4811L11.6959 42.8742L13.2727 42.1145L11.9164 41.1092Z" fill="#546DDB"/>
<path d="M11.9164 41.1092L7.14832 40.7101L7.00006 42.4811L11.6959 42.8742L13.2727 42.1145L11.9164 41.1092Z" fill="black" fill-opacity="0.4"/>
<path d="M13.7681 17.3992L9 17L8.85174 18.771L13.5476 19.1641L15.1244 18.4044L13.7681 17.3992Z" fill="#546DDB"/>
<path d="M13.7681 17.3992L9 17L8.85174 18.771L13.5476 19.1641L15.1244 18.4044L13.7681 17.3992Z" fill="black" fill-opacity="0.4"/>
<path d="M12.2681 35.3992L7.5 35L7.35174 36.771L12.0476 37.1641L13.6244 36.4044L12.2681 35.3992Z" fill="#546DDB"/>
<path d="M12.2681 35.3992L7.5 35L7.35174 36.771L12.0476 37.1641L13.6244 36.4044L12.2681 35.3992Z" fill="black" fill-opacity="0.4"/>
<path d="M28 2.5C23 2.5 19.7342 2.26894 12.5 1.5L12 3.5C17.9994 4.26894 23.6165 4.5 28 4.5C32.1875 4.5 36 4 38.5 3.5L38 1.5C35 2 33 2.5 28 2.5Z" fill="#546DDB"/>
<path d="M28 2.5C23 2.5 19.7342 2.26894 12.5 1.5L12 3.5C17.9994 4.26894 23.6165 4.5 28 4.5C32.1875 4.5 36 4 38.5 3.5L38 1.5C35 2 33 2.5 28 2.5Z" fill="black" fill-opacity="0.4"/>
<path d="M27.9418 6.44292C22.1359 6.44292 17.6515 5.98726 11.5 5.07593L11 7C16.1262 7.91133 23.3033 8.5 28 8.5C32.6967 8.5 36.5 8 39 7L38.5 5C36.5 5.5 33.7477 6.44292 27.9418 6.44292Z" fill="#546DDB"/>
<path d="M27.9418 6.44292C22.1359 6.44292 17.6515 5.98726 11.5 5.07593L11 7C16.1262 7.91133 23.3033 8.5 28 8.5C32.6967 8.5 36.5 8 39 7L38.5 5C36.5 5.5 33.7477 6.44292 27.9418 6.44292Z" fill="black" fill-opacity="0.4"/>
<circle cx="28.0252" cy="3.02525" r="1.02525" fill="#546DDB"/>
<circle cx="28.0252" cy="3.02525" r="1.02525" fill="white" fill-opacity="0.4"/>
<circle cx="28.0252" cy="7.02525" r="1.02525" fill="#546DDB"/>
<circle cx="28.0252" cy="7.02525" r="1.02525" fill="white" fill-opacity="0.4"/>
</svg>
