<svg width="50" height="50" viewBox="0 0 50 50" fill="none" xmlns="http://www.w3.org/2000/svg">
<path d="M39.8666 5.21633L38.3986 2L36.9999 5.74751L39.8666 5.21633Z" fill="#546DDB"/>
<path d="M39.8666 5.21633L38.3986 2L36.9999 5.74751L39.8666 5.21633Z" fill="white" fill-opacity="0.6"/>
<path d="M39.8666 5.21633L38.3986 2L36.9999 5.74751L39.8666 5.21633Z" stroke="#546DDB" stroke-width="1.17974"/>
<path d="M39.8666 5.21633L38.3986 2L36.9999 5.74751L39.8666 5.21633Z" stroke="white" stroke-opacity="0.6" stroke-width="1.17974"/>
<path d="M44.3331 10.1459L47.8411 11.4939L44.2859 13.3272L44.3331 10.1459Z" fill="#546DDB"/>
<path d="M44.3331 10.1459L47.8411 11.4939L44.2859 13.3272L44.3331 10.1459Z" fill="white" fill-opacity="0.6"/>
<path d="M44.3331 10.1459L47.8411 11.4939L44.2859 13.3272L44.3331 10.1459Z" stroke="#546DDB" stroke-width="1.17974"/>
<path d="M44.3331 10.1459L47.8411 11.4939L44.2859 13.3272L44.3331 10.1459Z" stroke="white" stroke-opacity="0.6" stroke-width="1.17974"/>
<path d="M27.9999 18.5L25.4999 15L24.9999 20L27.9999 18.5Z" fill="#546DDB"/>
<path d="M27.9999 18.5L25.4999 15L24.9999 20L27.9999 18.5Z" fill="white" fill-opacity="0.6"/>
<path d="M27.9999 18.5L25.4999 15L24.9999 20L27.9999 18.5Z" stroke="#546DDB" stroke-width="1.17974"/>
<path d="M27.9999 18.5L25.4999 15L24.9999 20L27.9999 18.5Z" stroke="white" stroke-opacity="0.6" stroke-width="1.17974"/>
<path d="M31.1697 22.0786L35.0759 24.1321L30.5891 24.6283L31.1697 22.0786Z" fill="#546DDB"/>
<path d="M31.1697 22.0786L35.0759 24.1321L30.5891 24.6283L31.1697 22.0786Z" fill="white" fill-opacity="0.6"/>
<path d="M31.1697 22.0786L35.0759 24.1321L30.5891 24.6283L31.1697 22.0786Z" stroke="#546DDB" stroke-width="1.17974"/>
<path d="M31.1697 22.0786L35.0759 24.1321L30.5891 24.6283L31.1697 22.0786Z" stroke="white" stroke-opacity="0.6" stroke-width="1.17974"/>
<path d="M44.3517 13.763C46.7597 11.355 50.667 4.66702 47.8863 1.88634C45.1057 -0.894331 38.3214 3.10927 36.0097 5.42095C33.698 7.73264 23.4155 21.7228 18.5631 28.4289C12.3023 34.6897 0.151429 47.5821 1.63446 49.0651C3.11748 50.5482 15.7009 38.0883 21.8072 31.673C28.5194 26.5057 42.4253 15.6894 44.3517 13.763Z" fill="#546DDB"/>
<path d="M34.4999 10.5L31.9999 7L31.4999 11.5L34.4999 10.5Z" fill="#546DDB"/>
<path d="M34.4999 10.5L31.9999 7L31.4999 11.5L34.4999 10.5Z" fill="white" fill-opacity="0.6"/>
<path d="M34.4999 10.5L31.9999 7L31.4999 11.5L34.4999 10.5Z" stroke="#546DDB" stroke-width="1.17974"/>
<path d="M34.4999 10.5L31.9999 7L31.4999 11.5L34.4999 10.5Z" stroke="white" stroke-opacity="0.6" stroke-width="1.17974"/>
<path d="M46.4999 4.50005L47.9999 2L44.9999 3.00005L46.4999 4.50005Z" fill="#546DDB"/>
<path d="M46.4999 4.50005L47.9999 2L44.9999 3.00005L46.4999 4.50005Z" fill="white" fill-opacity="0.6"/>
<path d="M46.4999 4.50005L47.9999 2L44.9999 3.00005L46.4999 4.50005Z" stroke="#546DDB"/>
<path d="M46.4999 4.50005L47.9999 2L44.9999 3.00005L46.4999 4.50005Z" stroke="white" stroke-opacity="0.6"/>
<path d="M41.0959 11.0619L42.4999 7.5L38.9999 9.03528L41.0959 11.0619Z" fill="#546DDB"/>
<path d="M41.0959 11.0619L42.4999 7.5L38.9999 9.03528L41.0959 11.0619Z" fill="white" fill-opacity="0.6"/>
<path d="M41.0959 11.0619L42.4999 7.5L38.9999 9.03528L41.0959 11.0619Z" stroke="#546DDB" stroke-width="1.17974"/>
<path d="M41.0959 11.0619L42.4999 7.5L38.9999 9.03528L41.0959 11.0619Z" stroke="white" stroke-opacity="0.6" stroke-width="1.17974"/>
<path d="M32.9999 19L34.6045 15.8159L30.9058 17.3389L32.9999 19Z" fill="#546DDB"/>
<path d="M32.9999 19L34.6045 15.8159L30.9058 17.3389L32.9999 19Z" fill="white" fill-opacity="0.6"/>
<path d="M32.9999 19L34.6045 15.8159L30.9058 17.3389L32.9999 19Z" stroke="#546DDB" stroke-width="1.17974"/>
<path d="M32.9999 19L34.6045 15.8159L30.9058 17.3389L32.9999 19Z" stroke="white" stroke-opacity="0.6" stroke-width="1.17974"/>
<path d="M24.4999 26.6816L25.9999 24.1814L23.4999 25.5L24.4999 26.6816Z" fill="#546DDB"/>
<path d="M24.4999 26.6816L25.9999 24.1814L23.4999 25.5L24.4999 26.6816Z" fill="white" fill-opacity="0.6"/>
<path d="M24.4999 26.6816L25.9999 24.1814L23.4999 25.5L24.4999 26.6816Z" stroke="#546DDB" stroke-width="1.17974"/>
<path d="M24.4999 26.6816L25.9999 24.1814L23.4999 25.5L24.4999 26.6816Z" stroke="white" stroke-opacity="0.6" stroke-width="1.17974"/>
<path d="M39.4999 15.5L43.7253 16.4158L38.9999 18L39.4999 15.5Z" fill="#546DDB"/>
<path d="M39.4999 15.5L43.7253 16.4158L38.9999 18L39.4999 15.5Z" fill="white" fill-opacity="0.6"/>
<path d="M39.4999 15.5L43.7253 16.4158L38.9999 18L39.4999 15.5Z" stroke="#546DDB" stroke-width="1.17974"/>
<path d="M39.4999 15.5L43.7253 16.4158L38.9999 18L39.4999 15.5Z" stroke="white" stroke-opacity="0.6" stroke-width="1.17974"/>
</svg>
