<svg width="50" height="50" viewBox="0 0 50 50" fill="none" xmlns="http://www.w3.org/2000/svg">
<path d="M-4.62108e-05 45.5C-0.00368997 47.0372 0.5 48.5 2.5 50C1.5 47.5 2.46356 45.1624 4.57499 46.1181C6.68642 47.0739 6.87357 49.1872 9.37478 47.8361C11.876 46.4851 11.8933 39.1832 14.7743 39.7529C17.079 40.2086 15.5952 44.6829 14.5652 46.8631C15.5271 46.4124 17.7975 45.1645 19.1843 43.7777C20.9178 42.0442 22.8448 39.7337 22.6613 36.0832C22.4778 32.4327 19.605 28.4043 16.1489 27.2596C12.6929 26.1149 10.0018 26.5055 6.72833 29.3956C4.10955 31.7077 1.58021 36.3973 0.999953 38C1.99995 36.5 3.99995 36 4.99995 37C5.99995 38 5.49995 39.7529 4.49995 41C3.50759 42.2376 0.00706548 42.5 -4.62108e-05 45.5Z" fill="#7445B8"/>
<path d="M-4.62108e-05 45.5C-0.00368997 47.0372 0.5 48.5 2.5 50C1.5 47.5 2.46356 45.1624 4.57499 46.1181C6.68642 47.0739 6.87357 49.1872 9.37478 47.8361C11.876 46.4851 11.8933 39.1832 14.7743 39.7529C17.079 40.2086 15.5952 44.6829 14.5652 46.8631C15.5271 46.4124 17.7975 45.1645 19.1843 43.7777C20.9178 42.0442 22.8448 39.7337 22.6613 36.0832C22.4778 32.4327 19.605 28.4043 16.1489 27.2596C12.6929 26.1149 10.0018 26.5055 6.72833 29.3956C4.10955 31.7077 1.58021 36.3973 0.999953 38C1.99995 36.5 3.99995 36 4.99995 37C5.99995 38 5.49995 39.7529 4.49995 41C3.50759 42.2376 0.00706548 42.5 -4.62108e-05 45.5Z" fill="white" fill-opacity="0.2"/>
<path d="M8.50004 37.5C8.1925 38.2397 7.54202 39.4161 7.00004 40.5C6.50002 41.5 7.50005 42.5 9 42.5C10.4999 42.5 10.5399 39.028 11.8077 37.7603C12.8077 36.7603 14.0543 36.1634 15.8076 36.7604C17.2762 37.2604 17.4572 40.3854 16.8076 41.7603C17.4142 41.4761 19.0046 40.4649 19.8077 39.2603C20.8076 37.7604 21.4991 36.3138 21.3834 34.0115C21.2676 31.7093 19.4559 29.1687 17.2762 28.4467C15.0966 27.7248 12.0414 27.8127 9.9769 29.6354C8.32532 31.0935 6.67353 33.7496 6.30758 34.7604C6.42905 34.6389 7.80758 34.7604 8.30758 35.2604C8.84821 35.801 8.68897 37.0456 8.50004 37.5Z" fill="#7445B8"/>
<path d="M8.50004 37.5C8.1925 38.2397 7.54202 39.4161 7.00004 40.5C6.50002 41.5 7.50005 42.5 9 42.5C10.4999 42.5 10.5399 39.028 11.8077 37.7603C12.8077 36.7603 14.0543 36.1634 15.8076 36.7604C17.2762 37.2604 17.4572 40.3854 16.8076 41.7603C17.4142 41.4761 19.0046 40.4649 19.8077 39.2603C20.8076 37.7604 21.4991 36.3138 21.3834 34.0115C21.2676 31.7093 19.4559 29.1687 17.2762 28.4467C15.0966 27.7248 12.0414 27.8127 9.9769 29.6354C8.32532 31.0935 6.67353 33.7496 6.30758 34.7604C6.42905 34.6389 7.80758 34.7604 8.30758 35.2604C8.84821 35.801 8.68897 37.0456 8.50004 37.5Z" fill="white" fill-opacity="0.6"/>
<path d="M20.4786 25.4474C20.0223 24.9911 19.2824 24.9911 18.8261 25.4474V25.4474C18.3698 25.9037 18.3698 26.6435 18.8261 27.0999L23.0909 31.3647C23.5472 31.821 24.2871 31.821 24.7434 31.3647V31.3647C25.1997 30.9084 25.1997 30.1685 24.7434 29.7122L20.4786 25.4474Z" fill="#546DDB"/>
<path d="M22.6759 25.176L24.6759 27.176L49.2402 3.61186L49.1019 2.25007L47.6019 0.750008L46.2402 0.611809L22.6759 25.176Z" fill="#546DDB"/>
</svg>
