<svg width="50" height="50" viewBox="0 0 50 50" fill="none" xmlns="http://www.w3.org/2000/svg">
<path d="M39.1366 18.8663C37.9921 17.7349 35.5599 16.7449 34.1293 13.9165C34.1293 13.9165 34.4869 15.6843 35.2023 16.3914C35.9176 17.0985 37.9206 18.3713 38.779 19.2198C39.852 20.2805 40.0817 21.4006 39.4943 22.7553C39.226 23.3741 38.0961 24.1374 36.6329 25.5838C35.1698 27.0301 34.5093 28.0365 33.7716 28.4122C32.3409 29.1193 31.4031 28.6127 30.1949 27.7051C29.382 27.0944 28.5041 25.1338 27.3336 24.1696C26.163 23.2053 24.8299 23.1089 24.8299 23.1089C26.9759 23.816 28.9431 27.1748 29.8373 28.0586C31.2679 29.4729 31.9833 29.4729 33.3133 29.2187C34.6434 28.9646 35.9176 27.7051 37.3483 26.2909C38.779 24.8767 39.9637 23.4319 40.2208 22.3907C40.5673 20.9876 40.5673 20.2805 39.1366 18.8663Z" fill="#546DDB"/>
<path d="M39.1366 18.8663C37.9921 17.7349 35.5599 16.7449 34.1293 13.9165C34.1293 13.9165 34.4869 15.6843 35.2023 16.3914C35.9176 17.0985 37.9206 18.3713 38.779 19.2198C39.852 20.2805 40.0817 21.4006 39.4943 22.7553C39.226 23.3741 38.0961 24.1374 36.6329 25.5838C35.1698 27.0301 34.5093 28.0365 33.7716 28.4122C32.3409 29.1193 31.4031 28.6127 30.1949 27.7051C29.382 27.0944 28.5041 25.1338 27.3336 24.1696C26.163 23.2053 24.8299 23.1089 24.8299 23.1089C26.9759 23.816 28.9431 27.1748 29.8373 28.0586C31.2679 29.4729 31.9833 29.4729 33.3133 29.2187C34.6434 28.9646 35.9176 27.7051 37.3483 26.2909C38.779 24.8767 39.9637 23.4319 40.2208 22.3907C40.5673 20.9876 40.5673 20.2805 39.1366 18.8663Z" fill="white" fill-opacity="0.6"/>
<path d="M39.1366 18.8663C37.9921 17.7349 35.5599 16.7449 34.1293 13.9165C34.1293 13.9165 34.4869 15.6843 35.2023 16.3914C35.9176 17.0985 37.9206 18.3713 38.779 19.2198C39.852 20.2805 40.0817 21.4006 39.4943 22.7553C39.226 23.3741 38.0961 24.1374 36.6329 25.5838C35.1698 27.0301 34.5093 28.0365 33.7716 28.4122C32.3409 29.1193 31.4031 28.6127 30.1949 27.7051C29.382 27.0944 28.5041 25.1338 27.3336 24.1696C26.163 23.2053 24.8299 23.1089 24.8299 23.1089C26.9759 23.816 28.9431 27.1748 29.8373 28.0586C31.2679 29.4729 31.9833 29.4729 33.3133 29.2187C34.6434 28.9646 35.9176 27.7051 37.3483 26.2909C38.779 24.8767 39.9637 23.4319 40.2208 22.3907C40.5673 20.9876 40.5673 20.2805 39.1366 18.8663Z" stroke="#546DDB" stroke-width="2" stroke-linejoin="round"/>
<path d="M39.1366 18.8663C37.9921 17.7349 35.5599 16.7449 34.1293 13.9165C34.1293 13.9165 34.4869 15.6843 35.2023 16.3914C35.9176 17.0985 37.9206 18.3713 38.779 19.2198C39.852 20.2805 40.0817 21.4006 39.4943 22.7553C39.226 23.3741 38.0961 24.1374 36.6329 25.5838C35.1698 27.0301 34.5093 28.0365 33.7716 28.4122C32.3409 29.1193 31.4031 28.6127 30.1949 27.7051C29.382 27.0944 28.5041 25.1338 27.3336 24.1696C26.163 23.2053 24.8299 23.1089 24.8299 23.1089C26.9759 23.816 28.9431 27.1748 29.8373 28.0586C31.2679 29.4729 31.9833 29.4729 33.3133 29.2187C34.6434 28.9646 35.9176 27.7051 37.3483 26.2909C38.779 24.8767 39.9637 23.4319 40.2208 22.3907C40.5673 20.9876 40.5673 20.2805 39.1366 18.8663Z" stroke="white" stroke-opacity="0.6" stroke-width="2" stroke-linejoin="round"/>
<path d="M16.2459 6.13815L37.706 27.3514L38.4214 26.6442L16.9613 5.43104L13.0269 2.24906L16.2459 6.13815Z" fill="#546DDB"/>
<path d="M16.2459 6.13815L37.706 27.3514L38.4214 26.6442L16.9613 5.43104L13.0269 2.24906L16.2459 6.13815Z" fill="white" fill-opacity="0.6"/>
<path d="M16.2459 6.13815L37.706 27.3514L38.4214 26.6442L16.9613 5.43104L13.0269 2.24906L16.2459 6.13815Z" stroke="#546DDB" stroke-width="2" stroke-linejoin="round"/>
<path d="M16.2459 6.13815L37.706 27.3514L38.4214 26.6442L16.9613 5.43104L13.0269 2.24906L16.2459 6.13815Z" stroke="white" stroke-opacity="0.6" stroke-width="2" stroke-linejoin="round"/>
<path d="M48.1262 35.566C47.6513 35.0966 39.7539 26.583 39.0386 27.2901L38.3233 27.9972C37.6079 28.7043 46.3597 36.6483 46.6955 36.9802C47.367 37.644 48.0605 37.6224 48.4181 37.2688C48.7758 36.9153 48.7977 36.2298 48.1262 35.566Z" fill="#546DDB" stroke="#546DDB" stroke-width="2"/>
<path d="M17.5656 34.6994C18.375 33.3137 18.7128 30.7353 21.1064 28.6372C21.1064 28.6372 19.4716 29.4362 18.9657 30.3023C18.4599 31.1683 17.7346 33.4102 17.1276 34.4494C16.3689 35.7484 15.3338 36.2577 13.8579 36.0475C13.1839 35.9515 12.1455 35.0702 10.3535 34.0475C8.56148 33.0247 7.4071 32.6546 6.8491 32.0475C5.78785 30.8644 6.04013 29.8378 6.61434 28.4494C7.00069 27.5152 8.68932 26.1695 9.32858 24.8023C9.96784 23.4351 9.71703 22.1372 9.71703 22.1372C9.58149 24.3693 6.80857 27.1169 6.17629 28.1994C5.16465 29.9314 5.3498 30.6144 5.94236 31.8187C6.53492 33.0229 8.09548 33.9135 9.84769 34.9135C11.5999 35.9135 13.3183 36.6708 14.4022 36.6468C15.863 36.6144 16.554 36.4314 17.5656 34.6994Z" fill="#546DDB"/>
<path d="M17.5656 34.6994C18.375 33.3137 18.7128 30.7353 21.1064 28.6372C21.1064 28.6372 19.4716 29.4362 18.9657 30.3023C18.4599 31.1683 17.7346 33.4102 17.1276 34.4494C16.3689 35.7484 15.3338 36.2577 13.8579 36.0475C13.1839 35.9515 12.1455 35.0702 10.3535 34.0475C8.56148 33.0247 7.4071 32.6546 6.8491 32.0475C5.78785 30.8644 6.04013 29.8378 6.61434 28.4494C7.00069 27.5152 8.68932 26.1695 9.32858 24.8023C9.96784 23.4351 9.71703 22.1372 9.71703 22.1372C9.58149 24.3693 6.80857 27.1169 6.17629 28.1994C5.16465 29.9314 5.3498 30.6144 5.94236 31.8187C6.53492 33.0229 8.09548 33.9135 9.84769 34.9135C11.5999 35.9135 13.3183 36.6708 14.4022 36.6468C15.863 36.6144 16.554 36.4314 17.5656 34.6994Z" fill="white" fill-opacity="0.6"/>
<path d="M17.5656 34.6994C18.375 33.3137 18.7128 30.7353 21.1064 28.6372C21.1064 28.6372 19.4716 29.4362 18.9657 30.3023C18.4599 31.1683 17.7346 33.4102 17.1276 34.4494C16.3689 35.7484 15.3338 36.2577 13.8579 36.0475C13.1839 35.9515 12.1455 35.0702 10.3535 34.0475C8.56148 33.0247 7.4071 32.6546 6.8491 32.0475C5.78785 30.8644 6.04013 29.8378 6.61434 28.4494C7.00069 27.5152 8.68932 26.1695 9.32858 24.8023C9.96784 23.4351 9.71703 22.1372 9.71703 22.1372C9.58149 24.3693 6.80857 27.1169 6.17629 28.1994C5.16465 29.9314 5.3498 30.6144 5.94236 31.8187C6.53492 33.0229 8.09548 33.9135 9.84769 34.9135C11.5999 35.9135 13.3183 36.6708 14.4022 36.6468C15.863 36.6144 16.554 36.4314 17.5656 34.6994Z" stroke="#546DDB" stroke-width="2" stroke-linejoin="round"/>
<path d="M17.5656 34.6994C18.375 33.3137 18.7128 30.7353 21.1064 28.6372C21.1064 28.6372 19.4716 29.4362 18.9657 30.3023C18.4599 31.1683 17.7346 33.4102 17.1276 34.4494C16.3689 35.7484 15.3338 36.2577 13.8579 36.0475C13.1839 35.9515 12.1455 35.0702 10.3535 34.0475C8.56148 33.0247 7.4071 32.6546 6.8491 32.0475C5.78785 30.8644 6.04013 29.8378 6.61434 28.4494C7.00069 27.5152 8.68932 26.1695 9.32858 24.8023C9.96784 23.4351 9.71703 22.1372 9.71703 22.1372C9.58149 24.3693 6.80857 27.1169 6.17629 28.1994C5.16465 29.9314 5.3498 30.6144 5.94236 31.8187C6.53492 33.0229 8.09548 33.9135 9.84769 34.9135C11.5999 35.9135 13.3183 36.6708 14.4022 36.6468C15.863 36.6144 16.554 36.4314 17.5656 34.6994Z" stroke="white" stroke-opacity="0.6" stroke-width="2" stroke-linejoin="round"/>
<path d="M24.0784 9.54888L8.90384 35.5296L9.77994 36.0296L24.9545 10.0489L27.0456 5.46875L24.0784 9.54888Z" fill="#546DDB"/>
<path d="M24.0784 9.54888L8.90384 35.5296L9.77994 36.0296L24.9545 10.0489L27.0456 5.46875L24.0784 9.54888Z" fill="white" fill-opacity="0.6"/>
<path d="M24.0784 9.54888L8.90384 35.5296L9.77994 36.0296L24.9545 10.0489L27.0456 5.46875L24.0784 9.54888Z" stroke="#546DDB" stroke-width="2" stroke-linejoin="round"/>
<path d="M24.0784 9.54888L8.90384 35.5296L9.77994 36.0296L24.9545 10.0489L27.0456 5.46875L24.0784 9.54888Z" stroke="white" stroke-opacity="0.6" stroke-width="2" stroke-linejoin="round"/>
<path d="M3.57885 47.597C3.9169 47.0182 10.232 37.2061 9.35585 36.7061L8.47974 36.2061C7.60364 35.7061 2.06568 46.1877 1.82664 46.597C1.34856 47.4155 1.54757 48.0748 1.98562 48.3248C2.42367 48.5748 3.10077 48.4155 3.57885 47.597Z" fill="#546DDB" stroke="#546DDB" stroke-width="2"/>
</svg>
