<svg width="50" height="50" viewBox="0 0 50 50" fill="none" xmlns="http://www.w3.org/2000/svg">
<circle cx="25" cy="25" r="22.5" stroke="#1D8CE0"/>
<circle cx="25" cy="25" r="22.5" stroke="white" stroke-opacity="0.95"/>
<path d="M40.5 32C43.7 24.4 40.5 15.5 35.5 11C36.5 15.5 35.8 22.2 33 29C30.2 35.8 23.8333 40.1667 21 41.5C26.5 43 37.3 39.6 40.5 32Z" fill="#FEFEFE" fill-opacity="0.15"/>
<path d="M12.8276 24.0456C15.5586 24.3806 16.7471 25.5807 17 26.1389V32L6 26.1389C7.13793 25.3016 10.0966 23.7107 12.8276 24.0456Z" fill="#546DDB"/>
<path d="M37.1724 24.0456C34.4414 24.3806 33.2529 25.5807 33 26.1389V32L44 26.1389C42.8621 25.3016 39.9034 23.7107 37.1724 24.0456Z" fill="#546DDB"/>
<path d="M34.9516 27.3214C34.5647 32.2389 32.5 35.3864 32 35.9091C31.5 36.4318 25.9703 38 24.9982 38C23.9887 38 18.5 36.4318 18 35.9091C17.5 35.3864 15.4193 32.297 15.0448 27.3214C14.5686 20.994 17.8886 15 24.9982 15C32.1078 15 35.4493 20.9962 34.9516 27.3214Z" fill="#546DDB"/>
<path d="M34.9516 27.3214C34.5647 32.2389 32.5 35.3864 32 35.9091C31.5 36.4318 25.9703 38 24.9982 38C23.9887 38 18.5 36.4318 18 35.9091C17.5 35.3864 15.4193 32.297 15.0448 27.3214C14.5686 20.994 17.8886 15 24.9982 15C32.1078 15 35.4493 20.9962 34.9516 27.3214Z" fill="white" fill-opacity="0.4"/>
<path d="M28.222 27.0368L27 28.5151C27.1358 28.8436 27.6517 29.5663 28.6294 29.8291C29.8514 30.1576 31.0734 29.9933 31.6844 29.5006C32.2954 29.0078 33.3138 26.3798 32.9065 26.0513C32.5806 25.7885 29.6477 26.5988 28.222 27.0368Z" fill="#546DDB"/>
<path d="M21.778 27.0368L23 28.5151C22.8642 28.8436 22.3483 29.5663 21.3706 29.8291C20.1486 30.1576 18.9266 29.9933 18.3156 29.5006C17.7046 29.0078 16.6862 26.3798 17.0935 26.0513C17.4194 25.7885 20.3523 26.5988 21.778 27.0368Z" fill="#546DDB"/>
<path d="M24.5 12C25.9353 11.1217 28.8039 11.8831 30 13.2947C27.7574 12.5105 27.0465 12.8726 26 13.5C24.9158 14.1499 25.0164 16.7452 25.2158 18C24 16.5 23.0647 12.8783 24.5 12Z" fill="#546DDB"/>
<path d="M14.5 9.00006C11.6489 11.5108 10.5 15 10.5 18C10.9875 15.933 14.0949 11.7432 17 10.0001C19.4724 8.5166 21.5 7.00006 25 6.50006C21.5 6.00006 17.3512 6.48933 14.5 9.00006Z" fill="#FEFEFE"/>
<path d="M34 40.0001C37.5 38.0001 41 33.0001 41 30.0001C40.2571 33.0001 36.2975 36.8405 33.5 38.5001C30.4369 40.3173 24.5 42.0001 21 42.0001C24.5 43.0001 30 42.2858 34 40.0001Z" fill="#FEFEFE"/>
</svg>
