<svg width="50" height="50" viewBox="0 0 50 50" fill="none" xmlns="http://www.w3.org/2000/svg">
<path d="M13 19.5L7 3.5L14 1.5L20 0.5C20.6667 1.66667 24 6 28 6C32 6 34.5 2.5 35 0.5L39.5 1.5L43 3L37.5 17.5V31.5L39.5 46.5L25.5 46L26 31.5L23.5 46L9 46.5L13.5 32L13 19.5Z" fill="#546DDB"/>
<path d="M13 19.5L7 3.5L14 1.5L20 0.5C20.6667 1.66667 24 6 28 6C32 6 34.5 2.5 35 0.5L39.5 1.5L43 3L37.5 17.5V31.5L39.5 46.5L25.5 46L26 31.5L23.5 46L9 46.5L13.5 32L13 19.5Z" fill="black" fill-opacity="0.4"/>
<path d="M30 15.3061C27.111 9.12434 26.1403 5.49732 20.5 0L14 1.53061C18.9735 5.84256 20.8018 9.87281 24.5 16.3265V32.1429L22.5 49.4898L29 50L30 32.1429V15.3061Z" fill="#546DDB"/>
<path d="M30 15.3061C27.111 9.12434 26.1403 5.49732 20.5 0L14 1.53061C18.9735 5.84256 20.8018 9.87281 24.5 16.3265V32.1429L22.5 49.4898L29 50L30 32.1429V15.3061Z" fill="white" fill-opacity="0.2"/>
<path d="M30.4 15.3061C31.7555 8.44575 32.2671 4.02113 34.7502 0L39.5 1.5C37.2041 6 35.7266 10.5 34.7502 16.3265C34.7502 16.3265 34.2668 28.0612 34.7502 33.1633C35.2335 38.2653 35.634 42.8029 36.2002 48.9796L30.8834 50C30.8834 50 30.4 37.2449 30.4 33.1633V15.3061Z" fill="#546DDB"/>
<path d="M30.4 15.3061C31.7555 8.44575 32.2671 4.02113 34.7502 0L39.5 1.5C37.2041 6 35.7266 10.5 34.7502 16.3265C34.7502 16.3265 34.2668 28.0612 34.7502 33.1633C35.2335 38.2653 35.634 42.8029 36.2002 48.9796L30.8834 50C30.8834 50 30.4 37.2449 30.4 33.1633V15.3061Z" fill="white" fill-opacity="0.2"/>
<path d="M13.5 1.69995L7 3.5C10.688 6.16833 12.775 8.57671 16.6578 17.3653C16.6578 17.3653 17.6744 25.9016 17.1661 31.4252C16.6578 36.9487 13.5 48.0999 13.5 48.0999L21 49.2999C21 49.2999 23.4917 38.5256 24 32.5C24.5083 26.4743 24 16.5 24 16.5C20.3503 9.28191 17.7357 5.02921 13.5 1.69995Z" fill="#546DDB"/>
<path d="M13.5 1.69995L7 3.5C10.688 6.16833 12.775 8.57671 16.6578 17.3653C16.6578 17.3653 17.6744 25.9016 17.1661 31.4252C16.6578 36.9487 13.5 48.0999 13.5 48.0999L21 49.2999C21 49.2999 23.4917 38.5256 24 32.5C24.5083 26.4743 24 16.5 24 16.5C20.3503 9.28191 17.7357 5.02921 13.5 1.69995Z" fill="white" fill-opacity="0.2"/>
<path d="M16.3333 17.5C14.25 18 12.6875 18 12.1667 17C12.1667 17 14.25 25 13.2083 30C12.1667 35 8 47 8 47L12.6875 48C12.6875 48 16.3333 38 16.8542 31C17.375 24 16.3333 17.5 16.3333 17.5Z" fill="#546DDB"/>
<path d="M16.3333 17.5C14.25 18 12.6875 18 12.1667 17C12.1667 17 14.25 25 13.2083 30C12.1667 35 8 47 8 47L12.6875 48C12.6875 48 16.3333 38 16.8542 31C17.375 24 16.3333 17.5 16.3333 17.5Z" fill="white" fill-opacity="0.2"/>
<path d="M43 3L40 1.69995C37 6.69995 36.5 10 35.2162 16.2073C35.2162 16.2073 34.7297 24.1555 35.2162 31.6069C35.7027 39.0584 37 48.5 37 48.5L40.0811 47.0065C40.0811 47.0065 38.6216 35.581 38.1351 31.1102C37.6486 26.6393 38.1351 16.7041 38.1351 16.7041C39.4784 11.6577 39.5946 7.9676 43 3Z" fill="#546DDB"/>
<path d="M43 3L40 1.69995C37 6.69995 36.5 10 35.2162 16.2073C35.2162 16.2073 34.7297 24.1555 35.2162 31.6069C35.7027 39.0584 37 48.5 37 48.5L40.0811 47.0065C40.0811 47.0065 38.6216 35.581 38.1351 31.1102C37.6486 26.6393 38.1351 16.7041 38.1351 16.7041C39.4784 11.6577 39.5946 7.9676 43 3Z" fill="white" fill-opacity="0.2"/>
<path d="M31.3846 15H26V17H31.303L33 16L31.3846 15Z" fill="#546DDB"/>
<path d="M31.3846 15H26V17H31.303L33 16L31.3846 15Z" fill="black" fill-opacity="0.4"/>
<path d="M31.3846 22H26V24H31.303L33 23L31.3846 22Z" fill="#546DDB"/>
<path d="M31.3846 22H26V24H31.303L33 23L31.3846 22Z" fill="black" fill-opacity="0.4"/>
<path d="M31.3846 35H26V37H31.303L33 36L31.3846 35Z" fill="#546DDB"/>
<path d="M31.3846 35H26V37H31.303L33 36L31.3846 35Z" fill="black" fill-opacity="0.4"/>
<path d="M37.9004 27C33.4578 28.7388 25.3506 28.9263 13.3984 27L13 30.8527C24.4542 32.2974 32.0544 32.4652 38 30.8527L37.9004 27Z" fill="#546DDB"/>
<path d="M37.9004 27C33.4578 28.7388 25.3506 28.9263 13.3984 27L13 30.8527C24.4542 32.2974 32.0544 32.4652 38 30.8527L37.9004 27Z" fill="black" fill-opacity="0.4"/>
</svg>
