<svg width="51" height="51" viewBox="0 0 51 51" fill="none" xmlns="http://www.w3.org/2000/svg">
<path d="M41.2835 4.56708C37.632 6.97858 33.3431 14.2089 30.5073 18.7462L33.0301 21.2689C35.6118 18.1791 40.1492 13.0745 44.6865 13.0745C42.1926 9.36805 45.9272 5.51118 50.9254 3.99978C49.267 3.66432 44.2699 2.59482 41.2835 4.56708Z" fill="#546DDB"/>
<path d="M41.2835 4.56708C37.632 6.97858 33.3431 14.2089 30.5073 18.7462L33.0301 21.2689C35.6118 18.1791 40.1492 13.0745 44.6865 13.0745C42.1926 9.36805 45.9272 5.51118 50.9254 3.99978C49.267 3.66432 44.2699 2.59482 41.2835 4.56708Z" fill="white" fill-opacity="0.8"/>
<path d="M41.5287 3.9501C36.825 6.82946 31.583 15.7424 29.8649 18.0686L31.0744 19.3136C32.7759 16.4777 39.7701 3.18955 46.388 6.26868C46.8935 5.76315 49.2238 4.56718 50.9254 3.9501C49.2549 3.79629 44.978 1.83856 41.5287 3.9501Z" fill="#546DDB"/>
<path d="M41.5287 3.9501C36.825 6.82946 31.583 15.7424 29.8649 18.0686L31.0744 19.3136C32.7759 16.4777 39.7701 3.18955 46.388 6.26868C46.8935 5.76315 49.2238 4.56718 50.9254 3.9501C49.2549 3.79629 44.978 1.83856 41.5287 3.9501Z" fill="white" fill-opacity="0.4"/>
<path d="M29.7982 25.0802C30.4284 25.7103 31.4501 25.7103 32.0803 25.0802C32.7105 24.45 32.7105 23.4283 32.0803 22.7981L28.4231 19.1409C27.7929 18.5107 26.7712 18.5107 26.141 19.1409C25.5108 19.7711 25.5108 20.7928 26.141 21.4229L29.7982 25.0802Z" fill="#546DDB"/>
<path d="M27.426 25.5742L25.426 23.5742L0.861703 47.1383L0.999992 48.5001L2.49996 50.0002L3.86175 50.1384L27.426 25.5742Z" fill="#546DDB"/>
</svg>
