<svg width="50" height="50" viewBox="0 0 50 50" fill="none" xmlns="http://www.w3.org/2000/svg">
<path d="M41.5 18L46.0711 20M42 16.5L47 19M42.5 15L47 17M43 13.5L48.4131 16M43.5 12L48.4131 14.1707M43.7991 10.5L49.5 12.5M44.5 8.99998L49.5 11M45 7.49998L49.5 8.99998M45.5 5.49998L49.5 6.49998M46.3384 4.34371L49.5 3.49998" stroke="#898989" stroke-width="0.681672" stroke-linecap="round"/>
<path d="M41.5 18L46.0711 20M42 16.5L47 19M42.5 15L47 17M43 13.5L48.4131 16M43.5 12L48.4131 14.1707M43.7991 10.5L49.5 12.5M44.5 8.99998L49.5 11M45 7.49998L49.5 8.99998M45.5 5.49998L49.5 6.49998M46.3384 4.34371L49.5 3.49998" stroke="black" stroke-opacity="0.2" stroke-width="0.681672" stroke-linecap="round"/>
<path d="M25 43C18.9371 31.538 14.0895 26.1722 2.5 18.5H22.5L47 3.5C41.9824 18.863 37.9308 27.9307 25 43Z" fill="#898989"/>
<path d="M25 43C18.9371 31.538 14.0895 26.1722 2.5 18.5H22.5L47 3.5C41.9824 18.863 37.9308 27.9307 25 43Z" fill="black" fill-opacity="0.2"/>
<path d="M3.91331 18.3798L0.574013 20.3675M4.97101 18.8919L2.0541 22.2695M5.92767 20.3581L1.84807 24.194M7.70294 20.722L3.11159 24.8058M8.63319 21.525L5.14093 24.7388M9.18303 22.6241L4.87193 26.8949M10.1133 23.4271L6.85902 27.4863M11.0435 24.2301L7.62048 29.6422M11.9316 25.3713L9.39594 29.1767M12.8618 26.1743L9.43879 31.5864M13.7499 27.3156L11.1299 31.7974M15.0183 28.1608L12.3983 32.6426M15.9064 29.302L13.7934 32.4732M16.8367 30.105L13.498 34.8407M17.4287 30.8658L15.0625 36.0663M18.3589 31.6689L16.4997 35.5586M19.247 32.8101L17.3456 37.0381M20.1772 33.6131L18.4024 36.8265M21.1497 34.0779L18.8679 38.6019M21.6441 35.781L19.7427 40.009M22.5744 36.584L20.5332 42.0924M23.0688 38.287L21.7172 43.6141M23.9991 40.09L23.3661 45.1633M24.7599 41.498L25.1838 46.3596M25.8167 41.2864L26.7476 44.8373" stroke="#898989" stroke-width="0.681672" stroke-linecap="round"/>
<path d="M3.91331 18.3798L0.574013 20.3675M4.97101 18.8919L2.0541 22.2695M5.92767 20.3581L1.84807 24.194M7.70294 20.722L3.11159 24.8058M8.63319 21.525L5.14093 24.7388M9.18303 22.6241L4.87193 26.8949M10.1133 23.4271L6.85902 27.4863M11.0435 24.2301L7.62048 29.6422M11.9316 25.3713L9.39594 29.1767M12.8618 26.1743L9.43879 31.5864M13.7499 27.3156L11.1299 31.7974M15.0183 28.1608L12.3983 32.6426M15.9064 29.302L13.7934 32.4732M16.8367 30.105L13.498 34.8407M17.4287 30.8658L15.0625 36.0663M18.3589 31.6689L16.4997 35.5586M19.247 32.8101L17.3456 37.0381M20.1772 33.6131L18.4024 36.8265M21.1497 34.0779L18.8679 38.6019M21.6441 35.781L19.7427 40.009M22.5744 36.584L20.5332 42.0924M23.0688 38.287L21.7172 43.6141M23.9991 40.09L23.3661 45.1633M24.7599 41.498L25.1838 46.3596M25.8167 41.2864L26.7476 44.8373" stroke="black" stroke-opacity="0.2" stroke-width="0.681672" stroke-linecap="round"/>
<path d="M25.8375 39.631L29.2747 43.9329M26.9451 38.5839L29.6312 42.7568M27.7266 37.6355L31.2928 41.1862M28.6304 36.6501L31.2244 39.7826M29.6157 35.64L33.4778 40.1694M30.7234 34.5929L33.8344 38.9934M31.4062 33.3182L34.6462 36.9676M32.1877 32.3698L35.5263 36.3454M32.8705 31.0951L36.9299 36.277M33.7506 30.4729L37.7416 34.2512M35.0277 29.2842L38.9783 32.453M35.7105 28.0095L39.4335 31.6032M36.3933 26.7348L40.0692 30.2208M37.1748 25.7864L42.1254 29.9551M37.8576 24.5117L43.5593 28.8094M38.2141 23.3357L42.6234 26.1418M38.8969 22.061L42.4934 24.5343M39.5797 20.7863L44.0563 22.6374M40.2625 19.5116L43.7906 20.5813" stroke="#898989" stroke-width="0.681672" stroke-linecap="round"/>
<path d="M25.8375 39.631L29.2747 43.9329M26.9451 38.5839L29.6312 42.7568M27.7266 37.6355L31.2928 41.1862M28.6304 36.6501L31.2244 39.7826M29.6157 35.64L33.4778 40.1694M30.7234 34.5929L33.8344 38.9934M31.4062 33.3182L34.6462 36.9676M32.1877 32.3698L35.5263 36.3454M32.8705 31.0951L36.9299 36.277M33.7506 30.4729L37.7416 34.2512M35.0277 29.2842L38.9783 32.453M35.7105 28.0095L39.4335 31.6032M36.3933 26.7348L40.0692 30.2208M37.1748 25.7864L42.1254 29.9551M37.8576 24.5117L43.5593 28.8094M38.2141 23.3357L42.6234 26.1418M38.8969 22.061L42.4934 24.5343M39.5797 20.7863L44.0563 22.6374M40.2625 19.5116L43.7906 20.5813" stroke="black" stroke-opacity="0.2" stroke-width="0.681672" stroke-linecap="round"/>
<path d="M3.32482 18.0652L1.18564 21.3095M4.5 18.0652L3.34672 22.3764M6 18.9678L4 24.1983M7.75641 18.5217L5.40385 24.1983M8.94364 18.839L7.20111 23.2535M9.91749 19.5886L7.89868 25.3113M11.1047 19.9059L9.94486 24.9776M12.2919 20.2232L11.5698 26.5861M13.5886 20.8633L12.9649 25.3934M14.7758 21.1806L14.0537 27.5435M16.0725 21.8207L15.6676 26.9964M17.5825 22.0286L17.1776 27.2043M18.8791 22.6688L18.3594 26.4438M20.0664 22.9861L19.1254 28.7034M20.9308 23.4128L21.0676 29.1246M22.118 23.7301L22.1399 28.0414M23.4147 24.3703L23.546 29.0043M24.6019 24.6876L24.405 28.3532M25.6797 24.6821L25.5977 29.7483M26.8669 25.9994L26.9983 30.6334M28.0542 26.3167L28.6177 32.1641M29.2414 27.6341L30.3466 33.0176M30.4286 27.9514L32.07 32.7933M30.8554 27.0869L33.3557 31.2778M31.7143 26.4359L34.0997 29.2261M32.4639 25.462L36.042 29.6474M33.5362 24.3788L36.3593 28.4602M34.2857 23.4049L37.9678 26.8353M35.1563 22.39L37.8529 25.4347M36.1076 21.3478L40.1179 25.7465M37.1799 20.2645L40.4352 24.5593M37.82 18.9678L41.1793 22.5076M38.5696 17.994L42.0383 21.8566M39.2097 16.6973L43.4389 21.7417M40.0687 16.0463L44.1829 19.69M40.7088 14.7496L45.3592 17.8517M41.3489 13.453L45.7859 16.9873M41.989 12.1563L45.3428 14.6183M42.7385 11.1825L47.389 14.2846M43.3786 9.88581L48.7841 13.0919M43.696 8.69859L48.1959 11.3568M44.3361 7.40194L48.0127 9.7545M44.9762 6.10529L49.5117 7.80678M45.6163 4.80864L49.178 5.7606" stroke="#CE4317" stroke-width="0.681672" stroke-linecap="round"/>
<path d="M3.32482 18.0652L1.18564 21.3095M4.5 18.0652L3.34672 22.3764M6 18.9678L4 24.1983M7.75641 18.5217L5.40385 24.1983M8.94364 18.839L7.20111 23.2535M9.91749 19.5886L7.89868 25.3113M11.1047 19.9059L9.94486 24.9776M12.2919 20.2232L11.5698 26.5861M13.5886 20.8633L12.9649 25.3934M14.7758 21.1806L14.0537 27.5435M16.0725 21.8207L15.6676 26.9964M17.5825 22.0286L17.1776 27.2043M18.8791 22.6688L18.3594 26.4438M20.0664 22.9861L19.1254 28.7034M20.9308 23.4128L21.0676 29.1246M22.118 23.7301L22.1399 28.0414M23.4147 24.3703L23.546 29.0043M24.6019 24.6876L24.405 28.3532M25.6797 24.6821L25.5977 29.7483M26.8669 25.9994L26.9983 30.6334M28.0542 26.3167L28.6177 32.1641M29.2414 27.6341L30.3466 33.0176M30.4286 27.9514L32.07 32.7933M30.8554 27.0869L33.3557 31.2778M31.7143 26.4359L34.0997 29.2261M32.4639 25.462L36.042 29.6474M33.5362 24.3788L36.3593 28.4602M34.2857 23.4049L37.9678 26.8353M35.1563 22.39L37.8529 25.4347M36.1076 21.3478L40.1179 25.7465M37.1799 20.2645L40.4352 24.5593M37.82 18.9678L41.1793 22.5076M38.5696 17.994L42.0383 21.8566M39.2097 16.6973L43.4389 21.7417M40.0687 16.0463L44.1829 19.69M40.7088 14.7496L45.3592 17.8517M41.3489 13.453L45.7859 16.9873M41.989 12.1563L45.3428 14.6183M42.7385 11.1825L47.389 14.2846M43.3786 9.88581L48.7841 13.0919M43.696 8.69859L48.1959 11.3568M44.3361 7.40194L48.0127 9.7545M44.9762 6.10529L49.5117 7.80678M45.6163 4.80864L49.178 5.7606" stroke="black" stroke-opacity="0.3" stroke-width="0.681672" stroke-linecap="round"/>
<path d="M30.5383 28.2741C39.4129 18.8907 42.6216 13.2139 47.2251 3.1836C43.4965 6.63626 30.1143 11.5107 18.6182 11.8086C7.12215 12.1065 2.03389 18.5028 2.03389 18.5028C12.6927 20.7274 19.5036 22.6447 30.5383 28.2741Z" fill="#CE4317"/>
<path d="M30.5383 28.2741C39.4129 18.8907 42.6216 13.2139 47.2251 3.1836C43.4965 6.63626 30.1143 11.5107 18.6182 11.8086C7.12215 12.1065 2.03389 18.5028 2.03389 18.5028C12.6927 20.7274 19.5036 22.6447 30.5383 28.2741Z" fill="black" fill-opacity="0.3"/>
</svg>
