<svg width="50" height="50" viewBox="0 0 50 50" fill="none" xmlns="http://www.w3.org/2000/svg">
<path d="M32 0H18C18.5 1.5 17.8 4.8 15 6C12.2 7.2 9.16667 5.5 8 4.5L4 12.5C6.83333 13.8333 12 18.1 12 24.5C12 30.9 6.66667 35.5 4 37L7.1875 43.5C8.29167 42.8333 12.125 42 17 43.5C22.2 45.1 24.5 48.5 25 50C25.5 48.5 28.5 45 33 43.5C36.6125 42.2958 41 42.8333 43 43.5L46 37C43.3333 35.8333 38 31.7 38 24.5C38 17.3 43.3333 13.5 46 12.5L41.5 4.5C40.8333 5.66667 38.375 7.5 35 6C32 4.66667 31.5 1.33333 32 0Z" fill="#546DDB"/>
<path d="M32 0H18C18.5 1.5 17.8 4.8 15 6C12.2 7.2 9.16667 5.5 8 4.5L4 12.5C6.83333 13.8333 12 18.1 12 24.5C12 30.9 6.66667 35.5 4 37L7.1875 43.5C8.29167 42.8333 12.125 42 17 43.5C22.2 45.1 24.5 48.5 25 50C25.5 48.5 28.5 45 33 43.5C36.6125 42.2958 41 42.8333 43 43.5L46 37C43.3333 35.8333 38 31.7 38 24.5C38 17.3 43.3333 13.5 46 12.5L41.5 4.5C40.8333 5.66667 38.375 7.5 35 6C32 4.66667 31.5 1.33333 32 0Z" fill="white" fill-opacity="0.2"/>
<path d="M22.3918 15.5062C21.8918 15.9537 21.3918 17.2963 21.3918 18.639C21.3918 19.9816 22.8918 21.3243 23.8918 21.3243C24.8918 21.3243 25.3918 19.9816 26.5793 18.639C27.7668 17.2963 26.8918 15.5062 25.3918 14.6111C23.8918 13.716 22.8918 15.0586 22.3918 15.5062Z" fill="#546DDB"/>
<path d="M28.3918 25.7997C27.3918 24.4571 26.3918 25.3522 24.8918 25.7997C23.8918 27.5899 25.3918 28.9325 26.5793 28.9325C27.7668 28.9325 28.8918 29.3801 29.8918 28.0374C30.8918 26.6948 29.3918 27.1423 28.3918 25.7997Z" fill="#546DDB"/>
<path d="M22.8918 30.2751C22.8918 28.485 22.1641 25.4942 19.0561 26.1054C15.948 26.7166 15.4698 30.6982 16.4698 34.2786C17.2698 37.1428 19.7032 37.8927 21.3918 37.4359C22.9256 35.9064 21.9945 34.2282 21.1945 33.1541C20.1945 31.8115 22.8918 32.0653 22.8918 30.2751Z" fill="#546DDB"/>
<path d="M30.8918 19.0865C29.3918 19.0865 28.8918 19.5341 28.8918 20.4292C28.8918 21.3243 30.3918 21.3243 30.8918 22.2193C31.3918 23.1144 31.3918 24.0095 31.8918 24.4571C32.3918 24.9046 34.3918 24.0095 34.3918 21.3243C34.3918 20.4292 32.3918 19.0865 30.8918 19.0865Z" fill="#546DDB"/>
<path d="M24 10.6167C23.3544 11.089 22.1945 10.8683 22.3918 9.1167C22.7441 5.98961 24.3918 5.45051 25.5 5.11663C26.6082 4.78275 28 5.18499 29.0539 6.077C30.1078 6.96901 30.5 9.61666 28.3918 11.6167C26.8962 13.0355 25.9735 9.33392 24.8918 9.61666C24.2782 9.77705 24.6699 10.1266 24 10.6167Z" fill="#546DDB"/>
<path d="M29.1976 41.3671C27.9644 42.6399 26.8595 42.4067 26.1117 41.7379C25.8349 41.3388 25.3734 40.1033 25.7425 38.354C26.2039 36.1674 29.2501 36.9756 29.9203 37.9425C30.5905 38.9095 30.4308 40.0943 29.1976 41.3671Z" fill="#546DDB"/>
</svg>
