<svg width="50" height="50" viewBox="0 0 50 50" fill="none" xmlns="http://www.w3.org/2000/svg">
<path d="M49.0192 5.01923C50.1344 3.90404 50.1344 2.09596 49.0192 0.980773C47.904 -0.134415 46.096 -0.134415 44.9808 0.980773L49.0192 5.01923ZM44.9808 0.980773L34.4808 11.4808L38.5192 15.5192L49.0192 5.01923L44.9808 0.980773Z" fill="#FAA21E"/>
<path d="M49.0192 5.01923C50.1344 3.90404 50.1344 2.09596 49.0192 0.980773C47.904 -0.134415 46.096 -0.134415 44.9808 0.980773L49.0192 5.01923ZM44.9808 0.980773L34.4808 11.4808L38.5192 15.5192L49.0192 5.01923L44.9808 0.980773Z" fill="black" fill-opacity="0.4"/>
<path d="M28.3173 11.6192L33.5001 12.5L37.5001 16.5L38.4134 21.7154L32.8606 21.2105L33.3654 26.7634L28.3173 25.7538L28.8221 30.2971L23.774 29.2875L24.2789 33.8307L19.7356 33.3259V37.3644L15.1923 36.8596V40.898L11.1539 40.898L11.1539 43.9268L8.12504 43.9268L7.62023 46.4509L0.0481334 49.9845L3.58178 42.4124L6.10581 41.9076L6.10581 38.8788L9.13465 38.8788L9.13465 34.8403L13.1731 34.8403L12.6683 30.2971L16.7068 30.2971L16.2019 25.7538L20.7452 26.2586L19.7356 21.2105L24.2789 21.7154L23.2692 16.6673L28.8221 17.1721L28.3173 11.6192Z" fill="#546DDB"/>
<path d="M28.3173 11.6192L33.5001 12.5L37.5001 16.5L38.4134 21.7154L32.8606 21.2105L33.3654 26.7634L28.3173 25.7538L28.8221 30.2971L23.774 29.2875L24.2789 33.8307L19.7356 33.3259V37.3644L15.1923 36.8596V40.898L11.1539 40.898L11.1539 43.9268L8.12504 43.9268L7.62023 46.4509L0.0481334 49.9845L3.58178 42.4124L6.10581 41.9076L6.10581 38.8788L9.13465 38.8788L9.13465 34.8403L13.1731 34.8403L12.6683 30.2971L16.7068 30.2971L16.2019 25.7538L20.7452 26.2586L19.7356 21.2105L24.2789 21.7154L23.2692 16.6673L28.8221 17.1721L28.3173 11.6192Z" fill="white" fill-opacity="0.6"/>
<path d="M31.346 14.6483L34.4999 13.5L36.4999 15.5L35.3844 18.6867L31.6489 19.9992L30.3364 23.7348L27.1056 24.5425L26.096 27.5713L22.8652 28.379L21.8556 31.4079L18.8268 32.4175L17.6152 35.2444L14.5864 36.254L13.3749 39.0809L10.5479 40.2925L9.63929 42.4127L7.5191 43.3213L6.40853 45.2396L-9.15101e-05 50L4.79315 43.6242L6.71141 42.5136L7.62006 40.3934L9.74025 39.4848L10.9518 36.6579L13.7787 35.4463L14.7883 32.4175L17.6152 31.2059L18.6248 28.1771L21.6537 27.1675L22.4614 23.9367L25.4902 22.9271L26.2979 19.6964L30.0335 18.3839L31.346 14.6483Z" fill="#546DDB"/>
<path d="M31.346 14.6483L34.4999 13.5L36.4999 15.5L35.3844 18.6867L31.6489 19.9992L30.3364 23.7348L27.1056 24.5425L26.096 27.5713L22.8652 28.379L21.8556 31.4079L18.8268 32.4175L17.6152 35.2444L14.5864 36.254L13.3749 39.0809L10.5479 40.2925L9.63929 42.4127L7.5191 43.3213L6.40853 45.2396L-9.15101e-05 50L4.79315 43.6242L6.71141 42.5136L7.62006 40.3934L9.74025 39.4848L10.9518 36.6579L13.7787 35.4463L14.7883 32.4175L17.6152 31.2059L18.6248 28.1771L21.6537 27.1675L22.4614 23.9367L25.4902 22.9271L26.2979 19.6964L30.0335 18.3839L31.346 14.6483Z" fill="black" fill-opacity="0.2"/>
<path d="M28 5L44.1538 21.1538" stroke="#C57A09" stroke-width="2.85562" stroke-linecap="round"/>
</svg>
