<svg width="50" height="50" viewBox="0 0 50 50" fill="none" xmlns="http://www.w3.org/2000/svg">
<path d="M40.787 39.4241C41.8082 39.4241 41.5019 37.9318 40.2763 37.9318L34.2558 39.4241L29.553 42.9062L22.9147 39.4241L12.1914 36.4394C11.5106 36.1078 9.8425 35.6436 8.61698 36.4395C7.39146 37.2354 7.76592 37.7659 8.10635 38.4292C6.74465 39.0924 3 40.2201 3 41.4139C3 42.9062 17.6953 50.0228 30.0636 48.8754C40.787 47.8806 45.8933 42.4087 44.872 40.9164C44.055 39.7226 42.3189 39.9215 40.787 39.4241Z" fill="#546DDB"/>
<path d="M40.787 39.4241C41.8082 39.4241 41.5019 37.9318 40.2763 37.9318L34.2558 39.4241L29.553 42.9062L22.9147 39.4241L12.1914 36.4394C11.5106 36.1078 9.8425 35.6436 8.61698 36.4395C7.39146 37.2354 7.76592 37.7659 8.10635 38.4292C6.74465 39.0924 3 40.2201 3 41.4139C3 42.9062 17.6953 50.0228 30.0636 48.8754C40.787 47.8806 45.8933 42.4087 44.872 40.9164C44.055 39.7226 42.3189 39.9215 40.787 39.4241Z" fill="white" fill-opacity="0.2"/>
<path d="M26 1.33939C31.6 0.539388 32.6667 1.33939 32.5 1.83939L21.5 17.8394L10 32.8394C9.5 32.3394 8.3 30.4394 7.5 26.8394C6.5 22.3394 8 15.3394 11 12.3394C14 9.33936 19 2.33939 26 1.33939Z" fill="#546DDB"/>
<path d="M26 1.33939C31.6 0.539388 32.6667 1.33939 32.5 1.83939L21.5 17.8394L10 32.8394C9.5 32.3394 8.3 30.4394 7.5 26.8394C6.5 22.3394 8 15.3394 11 12.3394C14 9.33936 19 2.33939 26 1.33939Z" fill="white" fill-opacity="0.2"/>
<path d="M40 10.8394C39 6.83935 37.5 2.33933 33 1.33935C28.5 0.339372 26.9 4.83939 24.5 10.8393C22.5 15.8393 16 22.3394 12.5 26.3394C9 30.3394 8 34.8394 11 38.3394C14 41.8394 16.5 40.3394 21 40.8394C24.6 41.2394 28.1667 43 29 44C31 42 35.6 39.1394 40 38.3394C45.5 37.3394 47 33.8394 47 30.3394C47 27.5394 44.3333 22.506 43 20.3394C41.6667 18.1727 40.7822 13.968 40 10.8394Z" fill="#546DDB"/>
<path d="M40 10.8394C39 6.83935 37.5 2.33933 33 1.33935C28.5 0.339372 26.9 4.83939 24.5 10.8393C22.5 15.8393 16 22.3394 12.5 26.3394C9 30.3394 8 34.8394 11 38.3394C14 41.8394 16.5 40.3394 21 40.8394C24.6 41.2394 28.1667 43 29 44C31 42 35.6 39.1394 40 38.3394C45.5 37.3394 47 33.8394 47 30.3394C47 27.5394 44.3333 22.506 43 20.3394C41.6667 18.1727 40.7822 13.968 40 10.8394Z" fill="black" fill-opacity="0.2"/>
<path d="M37.5 13.3393C36.5 8.83932 34.5 3.83937 31 4.83937C30 4.98015 28.5 10.3393 26.5 14.3393C24.9 17.5393 21.5 20.8394 19.5 23.3394C17.5 25.8394 15.6154 28.8394 15 32.8394C14.0769 38.8394 19.5 37.3394 23 38.3394C25.6922 39.1086 28.5 41.3333 29 42.5C29.5 40.5001 31.5 38.3394 35.5 36.8394C41.8677 34.4515 44 31.8393 43 27.8393C42 23.8393 38.5 17.8393 37.5 13.3393Z" fill="#546DDB"/>
<path d="M37.5 13.3393C36.5 8.83932 34.5 3.83937 31 4.83937C30 4.98015 28.5 10.3393 26.5 14.3393C24.9 17.5393 21.5 20.8394 19.5 23.3394C17.5 25.8394 15.6154 28.8394 15 32.8394C14.0769 38.8394 19.5 37.3394 23 38.3394C25.6922 39.1086 28.5 41.3333 29 42.5C29.5 40.5001 31.5 38.3394 35.5 36.8394C41.8677 34.4515 44 31.8393 43 27.8393C42 23.8393 38.5 17.8393 37.5 13.3393Z" fill="black" fill-opacity="0.55"/>
</svg>
