<svg width="50" height="50" viewBox="0 0 50 50" fill="none" xmlns="http://www.w3.org/2000/svg">
<path d="M40.9152 32.1411C43.5048 28.976 44.1522 23.8687 43.7925 21.351C44.0323 21.1112 44.5838 20.8474 44.8715 21.7106C45.2312 22.7896 45.2312 28.5444 41.2748 33.2201C38.1097 36.9606 33.2007 40.7607 27.6055 43.304L27.0969 42.2867C31.6747 40.2521 38.3255 35.3062 40.9152 32.1411Z" fill="#546DDB"/>
<path d="M40.9152 32.1411C43.5048 28.976 44.1522 23.8687 43.7925 21.351C44.0323 21.1112 44.5838 20.8474 44.8715 21.7106C45.2312 22.7896 45.2312 28.5444 41.2748 33.2201C38.1097 36.9606 33.2007 40.7607 27.6055 43.304L27.0969 42.2867C31.6747 40.2521 38.3255 35.3062 40.9152 32.1411Z" fill="white" fill-opacity="0.4"/>
<path d="M32.2831 9.12215C29.9812 5.66932 26.6482 4.44644 26.1687 4.44644C26.888 5.40556 30.7561 7.05237 32.2831 11.2802C33.7079 15.2252 33.92 18.4312 33.2007 23.4666C32.6252 27.4949 28.2068 34.7786 26.1687 36.8168L27.2477 37.8958C28.9261 35.9775 33.8634 27.7826 34.7266 23.4666C35.8056 18.0715 35.1604 13.4382 32.2831 9.12215Z" fill="#546DDB"/>
<path d="M32.2831 9.12215C29.9812 5.66932 26.6482 4.44644 26.1687 4.44644C26.888 5.40556 30.7561 7.05237 32.2831 11.2802C33.7079 15.2252 33.92 18.4312 33.2007 23.4666C32.6252 27.4949 28.2068 34.7786 26.1687 36.8168L27.2477 37.8958C28.9261 35.9775 33.8634 27.7826 34.7266 23.4666C35.8056 18.0715 35.1604 13.4382 32.2831 9.12215Z" fill="white" fill-opacity="0.4"/>
<path d="M17.8963 27.825C21.493 22.7896 22.572 10.2012 24.0107 1.56909C25.4493 0.84975 26.888 0.849748 28.3267 2.28843C26.888 9.48179 24.5005 21.2852 25.809 22.0703C27.6074 23.1493 37.8396 18.3615 43.7925 17.7542C45.098 17.6211 48.8279 19.9122 46.3102 21.7106C37.6781 22.4299 26.4663 25.8716 21.8526 31.062C17.2389 36.2524 7.82552 47.9665 7.82552 47.9665C6.98629 47.8466 5.49841 47.0781 4.58851 46.1682C3.5095 45.0892 2.43047 43.2908 2.79014 42.9311C2.79014 42.9311 14.2996 32.8604 17.8963 27.825Z" fill="#546DDB"/>
<path d="M22.572 4.44648C22.572 3.00778 28.3267 4.44648 28.3267 5.16582C28.3267 6.60448 22.572 5.81769 22.572 4.44648Z" fill="#546DDB"/>
<path d="M22.572 4.44648C22.572 3.00778 28.3267 4.44648 28.3267 5.16582C28.3267 6.60448 22.572 5.81769 22.572 4.44648Z" fill="white" fill-opacity="0.6"/>
<path d="M42.6191 17.0689C43.8774 16.3714 45.4092 22.102 44.7801 22.4508C43.5218 23.1483 41.4198 17.7338 42.6191 17.0689Z" fill="#546DDB"/>
<path d="M42.6191 17.0689C43.8774 16.3714 45.4092 22.102 44.7801 22.4508C43.5218 23.1483 41.4198 17.7338 42.6191 17.0689Z" fill="white" fill-opacity="0.6"/>
<path fill-rule="evenodd" clip-rule="evenodd" d="M25.809 39.3345C26.0488 39.5743 26.9632 40.2521 28.1142 40.2521C28.4147 40.2521 28.6692 40.2429 28.8904 40.2349C29.7284 40.2047 30.0883 40.1917 30.6574 40.7608C31.7757 41.8791 30.368 45.0892 28.6864 45.8085C25.8269 47.0317 25.0987 46.0606 24.3838 45.1071L24.3703 45.0892L23.2913 41.8522L25.809 39.3345ZM27.967 42.9312C28.3643 43.3285 29.0084 43.3285 29.4057 42.9312C29.803 42.5339 29.803 41.8898 29.4057 41.4925C29.0084 41.0952 28.3643 41.0952 27.967 41.4925C27.5697 41.8898 27.5697 42.5339 27.967 42.9312Z" fill="#546DDB"/>
<path fill-rule="evenodd" clip-rule="evenodd" d="M25.809 39.3345C26.0488 39.5743 26.9632 40.2521 28.1142 40.2521C28.4147 40.2521 28.6692 40.2429 28.8904 40.2349C29.7284 40.2047 30.0883 40.1917 30.6574 40.7608C31.7757 41.8791 30.368 45.0892 28.6864 45.8085C25.8269 47.0317 25.0987 46.0606 24.3838 45.1071L24.3703 45.0892L23.2913 41.8522L25.809 39.3345ZM27.967 42.9312C28.3643 43.3285 29.0084 43.3285 29.4057 42.9312C29.803 42.5339 29.803 41.8898 29.4057 41.4925C29.0084 41.0952 28.3643 41.0952 27.967 41.4925C27.5697 41.8898 27.5697 42.5339 27.967 42.9312Z" fill="black" fill-opacity="0.2"/>
<path fill-rule="evenodd" clip-rule="evenodd" d="M23.6511 36.4571C21.493 37.8958 20.0544 40.0538 21.1334 42.5715C22.2124 45.0892 25.0623 46.3559 26.0796 46.3559C26.0796 46.3559 24.0107 44.7295 24.0107 42.5715C24.0107 40.4135 26.5284 39.3345 27.6074 38.9748C28.6864 38.6151 30.8444 37.8958 30.4848 36.0974C30.378 35.5638 29.9546 35.2202 29.346 35.0478C29.434 35.419 29.2921 35.8514 29.0461 36.0974C28.6606 36.4829 28.0028 36.5802 27.6055 36.1829C27.2897 35.8671 27.1545 35.4105 27.3689 34.9819C26.1361 35.1565 24.7552 35.6685 23.6511 36.4571Z" fill="#546DDB"/>
<path fill-rule="evenodd" clip-rule="evenodd" d="M23.6511 36.4571C21.493 37.8958 20.0544 40.0538 21.1334 42.5715C22.2124 45.0892 25.0623 46.3559 26.0796 46.3559C26.0796 46.3559 24.0107 44.7295 24.0107 42.5715C24.0107 40.4135 26.5284 39.3345 27.6074 38.9748C28.6864 38.6151 30.8444 37.8958 30.4848 36.0974C30.378 35.5638 29.9546 35.2202 29.346 35.0478C29.434 35.419 29.2921 35.8514 29.0461 36.0974C28.6606 36.4829 28.0028 36.5802 27.6055 36.1829C27.2897 35.8671 27.1545 35.4105 27.3689 34.9819C26.1361 35.1565 24.7552 35.6685 23.6511 36.4571Z" fill="white" fill-opacity="0.2"/>
</svg>
