<svg width="51" height="50" viewBox="0 0 51 50" fill="none" xmlns="http://www.w3.org/2000/svg">
<path d="M8.5 22.5L2.5 25C1.5 19.5 2.96611 13.8702 4.50603 11.4227C5.91837 9.17788 8.8939 7.25939 12.2857 6.89655C15.7831 6.52242 21.462 7.49428 25.5102 7.49428C29.5584 7.49428 30.3374 7.3072 34.5783 5.24947C38.8193 3.19174 41.9036 4.12707 43.6386 4.87534C45.3735 5.62361 50 9.17788 50 18.1571C50 25.3404 41.1064 35.3788 39.5 37L38.5 28.5C39.0141 27.2529 45.5 24.5 46.9157 18.7183C47.3629 16.8917 47.494 13.6675 46.1446 10.6744C44.7952 7.68134 42.6747 6.55894 39.9759 6.37188C37.2771 6.18481 35.9277 7.86841 34 9.17788C32.0723 10.4873 27.0602 11.4227 20.6988 11.0486C14.3374 10.6744 11.7959 11.0486 9.71085 12.9192C7 15.3513 7.5 19.5 8.5 22.5Z" fill="#898989"/>
<path d="M8.5 22.5L2.5 25C1.5 19.5 2.96611 13.8702 4.50603 11.4227C5.91837 9.17788 8.8939 7.25939 12.2857 6.89655C15.7831 6.52242 21.462 7.49428 25.5102 7.49428C29.5584 7.49428 30.3374 7.3072 34.5783 5.24947C38.8193 3.19174 41.9036 4.12707 43.6386 4.87534C45.3735 5.62361 50 9.17788 50 18.1571C50 25.3404 41.1064 35.3788 39.5 37L38.5 28.5C39.0141 27.2529 45.5 24.5 46.9157 18.7183C47.3629 16.8917 47.494 13.6675 46.1446 10.6744C44.7952 7.68134 42.6747 6.55894 39.9759 6.37188C37.2771 6.18481 35.9277 7.86841 34 9.17788C32.0723 10.4873 27.0602 11.4227 20.6988 11.0486C14.3374 10.6744 11.7959 11.0486 9.71085 12.9192C7 15.3513 7.5 19.5 8.5 22.5Z" fill="white" fill-opacity="0.2"/>
<path d="M1.99999 27.888C1.99999 24.4595 2.5 23 4 22C5.5 21 8.97302 20.8335 15 22C25 23.9355 36.5 25.7761 39 27.888C41.5 30 41 32.8058 40.5 35C40 37.1942 38.5464 40.8954 33.0994 44.0582C25.5 48.4708 20.4205 45.6587 18.5 44.0582C15.5 41.5582 15 36.7222 13 36.5C11.6391 36.3488 11 38.5 8.5 39.5C6 40.5 4.24705 38.9439 3.46937 37.1942C2.83769 35.7729 1.99999 31.3166 1.99999 27.888Z" fill="#1D8CE0"/>
<path d="M25.439 26.862C23.4191 26.7372 18.8743 26.4564 17.6772 29.4239C16.48 32.3913 17.2763 34.7619 17.7453 36.5247C18.1567 38.0709 19.9998 41.0572 21.9782 41.8553L21.9782 41.8553C23.9565 42.6534 26.4294 43.651 30.089 41.8495C33.546 40.1478 35.6605 37.0952 36.0493 35.628C36.7103 33.1343 36.8039 31.6194 34.8776 29.9796C32.9513 28.3399 27.4589 26.9868 25.439 26.862Z" fill="#1D8CE0"/>
<path d="M25.439 26.862C23.4191 26.7372 18.8743 26.4564 17.6772 29.4239C16.48 32.3913 17.2763 34.7619 17.7453 36.5247C18.1567 38.0709 19.9998 41.0572 21.9782 41.8553L21.9782 41.8553C23.9565 42.6534 26.4294 43.651 30.089 41.8495C33.546 40.1478 35.6605 37.0952 36.0493 35.628C36.7103 33.1343 36.8039 31.6194 34.8776 29.9796C32.9513 28.3399 27.4589 26.9868 25.439 26.862Z" fill="white" fill-opacity="0.8"/>
<path d="M25.439 26.862C23.4191 26.7372 18.8743 26.4564 17.6772 29.4239C16.48 32.3913 17.2763 34.7619 17.7453 36.5247C18.1567 38.0709 19.9998 41.0572 21.9782 41.8553L21.9782 41.8553C23.9565 42.6534 26.4294 43.651 30.089 41.8495C33.546 40.1478 35.6605 37.0952 36.0493 35.628C36.7103 33.1343 36.8039 31.6194 34.8776 29.9796C32.9513 28.3399 27.4589 26.9868 25.439 26.862Z" stroke="#898989" stroke-width="2.02376"/>
<path d="M25.439 26.862C23.4191 26.7372 18.8743 26.4564 17.6772 29.4239C16.48 32.3913 17.2763 34.7619 17.7453 36.5247C18.1567 38.0709 19.9998 41.0572 21.9782 41.8553L21.9782 41.8553C23.9565 42.6534 26.4294 43.651 30.089 41.8495C33.546 40.1478 35.6605 37.0952 36.0493 35.628C36.7103 33.1343 36.8039 31.6194 34.8776 29.9796C32.9513 28.3399 27.4589 26.9868 25.439 26.862Z" stroke="white" stroke-opacity="0.4" stroke-width="2.02376"/>
<path d="M25.5719 42.6888L30.9903 28.8302L34.0202 29.0173L28.6018 42.876L25.5719 42.6888Z" fill="#1D8CE0"/>
<path d="M25.5719 42.6888L30.9903 28.8302L34.0202 29.0173L28.6018 42.876L25.5719 42.6888Z" fill="white" fill-opacity="0.6"/>
<path d="M23.0782 42.0279L28.4966 28.1693L29.5065 28.2317L24.0882 42.0903L23.0782 42.0279Z" fill="#1D8CE0"/>
<path d="M23.0782 42.0279L28.4966 28.1693L29.5065 28.2317L24.0882 42.0903L23.0782 42.0279Z" fill="white" fill-opacity="0.6"/>
<path d="M25.439 26.862C23.4191 26.7372 18.8743 26.4564 17.6772 29.4239C16.48 32.3913 17.2763 34.7619 17.7453 36.5247C18.1567 38.0709 19.9998 41.0572 21.9782 41.8553L21.9782 41.8553C23.9565 42.6534 26.4294 43.651 30.089 41.8495C33.546 40.1478 35.6605 37.0952 36.0493 35.628C36.7103 33.1343 36.8039 31.6194 34.8776 29.9796C32.9513 28.3399 27.4589 26.9868 25.439 26.862Z" stroke="#1D8CE0" stroke-width="2.02376"/>
<path d="M25.439 26.862C23.4191 26.7372 18.8743 26.4564 17.6772 29.4239C16.48 32.3913 17.2763 34.7619 17.7453 36.5247C18.1567 38.0709 19.9998 41.0572 21.9782 41.8553L21.9782 41.8553C23.9565 42.6534 26.4294 43.651 30.089 41.8495C33.546 40.1478 35.6605 37.0952 36.0493 35.628C36.7103 33.1343 36.8039 31.6194 34.8776 29.9796C32.9513 28.3399 27.4589 26.9868 25.439 26.862Z" stroke="white" stroke-opacity="0.4" stroke-width="2.02376"/>
<path d="M9.22755 23.8335C10.1798 24.1683 12.2391 25.5 11.9508 27.5004C11.6624 29.5008 10.4891 31.7636 9.73428 33.0427C9.07226 34.1645 7.31918 36.1069 6.17847 36.3078C5.03777 36.5087 3.29656 36.9273 2.51062 34.5664C1.76307 32.3209 1.45554 30.1873 1.59192 28.6003C1.77461 26.4741 2.62137 25.1228 3.9976 24.2521C5.37384 23.3814 8.27526 23.4986 9.22755 23.8335Z" fill="#1D8CE0"/>
<path d="M9.22755 23.8335C10.1798 24.1683 12.2391 25.5 11.9508 27.5004C11.6624 29.5008 10.4891 31.7636 9.73428 33.0427C9.07226 34.1645 7.31918 36.1069 6.17847 36.3078C5.03777 36.5087 3.29656 36.9273 2.51062 34.5664C1.76307 32.3209 1.45554 30.1873 1.59192 28.6003C1.77461 26.4741 2.62137 25.1228 3.9976 24.2521C5.37384 23.3814 8.27526 23.4986 9.22755 23.8335Z" fill="white" fill-opacity="0.8"/>
<path d="M9.22755 23.8335C10.1798 24.1683 12.2391 25.5 11.9508 27.5004C11.6624 29.5008 10.4891 31.7636 9.73428 33.0427C9.07226 34.1645 7.31918 36.1069 6.17847 36.3078C5.03777 36.5087 3.29656 36.9273 2.51062 34.5664C1.76307 32.3209 1.45554 30.1873 1.59192 28.6003C1.77461 26.4741 2.62137 25.1228 3.9976 24.2521C5.37384 23.3814 8.27526 23.4986 9.22755 23.8335Z" stroke="#1D8CE0" stroke-width="2.02376"/>
<path d="M9.22755 23.8335C10.1798 24.1683 12.2391 25.5 11.9508 27.5004C11.6624 29.5008 10.4891 31.7636 9.73428 33.0427C9.07226 34.1645 7.31918 36.1069 6.17847 36.3078C5.03777 36.5087 3.29656 36.9273 2.51062 34.5664C1.76307 32.3209 1.45554 30.1873 1.59192 28.6003C1.77461 26.4741 2.62137 25.1228 3.9976 24.2521C5.37384 23.3814 8.27526 23.4986 9.22755 23.8335Z" stroke="white" stroke-opacity="0.4" stroke-width="2.02376"/>
</svg>
