<svg width="50" height="50" viewBox="0 0 50 50" fill="none" xmlns="http://www.w3.org/2000/svg">
<circle cx="25" cy="25" r="22.5" stroke="#1D8CE0"/>
<circle cx="25" cy="25" r="22.5" stroke="white" stroke-opacity="0.95"/>
<path d="M40.5 32C43.7 24.4 40.5 15.5 35.5 11C36.5 15.5 35.8 22.2 33 29C30.2 35.8 23.8333 40.1667 21 41.5C26.5 43 37.3 39.6 40.5 32Z" fill="#FEFEFE" fill-opacity="0.15"/>
<path d="M35.6667 20.6667L35 15.3334L14.3333 17.3334L11.6667 24L12.3333 26.6667L11 30L12.3333 34.6667L17.6667 36L21 35.3334C23.8889 35.7778 29.9333 36 31 36C32.0667 36 34.5556 35.3334 35.6667 34.6667L39 26.6667L35.6667 20.6667Z" fill="#898989"/>
<path d="M35.6667 20.6667L35 15.3334L14.3333 17.3334L11.6667 24L12.3333 26.6667L11 30L12.3333 34.6667L17.6667 36L21 35.3334C23.8889 35.7778 29.9333 36 31 36C32.0667 36 34.5556 35.3334 35.6667 34.6667L39 26.6667L35.6667 20.6667Z" fill="white" fill-opacity="0.4"/>
<path d="M12.3333 26.6667L11 30L12.3333 34.6667L15 31.3334L13.6667 25.3334L12.3333 26.6667Z" fill="#898989"/>
<path d="M36.3333 22L39 26.6667L35.6667 34.6667L35 25.3334L36.3333 22Z" fill="#898989"/>
<path d="M15 20.6667L14.3333 17.3334L11.6667 24L13 23.3334L15 20.6667Z" fill="#898989"/>
<path d="M21 13.3333C19 12.6667 14.3334 16 14.3334 17.3333L21 19.3333C23.2223 18.6667 27.5334 16.8 29.6667 17.3333C32.3334 18 35.6667 16 35 15.3333C34.4667 14.8 32.5556 14.6667 31.6667 14.6667L29 12C27.2223 12.4444 22.012 13.6706 21 13.3333Z" fill="#898989"/>
<path d="M27.2222 26.6666L32.5555 24.8889C32.5555 26.6666 31.5955 29.3333 29.8889 29.3333C28.1822 29.3333 27.2222 27.2592 27.2222 26.6666Z" fill="#898989"/>
<path d="M27.2222 26.6666L32.5555 24.8889C32.5555 26.6666 31.5955 29.3333 29.8889 29.3333C28.1822 29.3333 27.2222 27.2592 27.2222 26.6666Z" fill="black" fill-opacity="0.8"/>
<path d="M21.4444 26.6666L16.1111 24.8889C16.1111 26.6666 17.0711 29.3333 18.7778 29.3333C20.4844 29.3333 21.4444 27.2592 21.4444 26.6666Z" fill="#898989"/>
<path d="M21.4444 26.6666L16.1111 24.8889C16.1111 26.6666 17.0711 29.3333 18.7778 29.3333C20.4844 29.3333 21.4444 27.2592 21.4444 26.6666Z" fill="black" fill-opacity="0.8"/>
<path d="M21.4445 27.5556V24.8889L14.4223 24.0111L21.4445 27.5556Z" fill="#898989"/>
<path d="M27.2223 27.5556V24.8889L34.2445 24.0111L27.2223 27.5556Z" fill="#898989"/>
<path d="M14.5 9.00006C11.6488 11.5108 10.5 15 10.5 18C10.9874 15.933 14.0948 11.7432 17 10.0001C19.4724 8.5166 21.5 7.00006 25 6.50006C21.5 6.00006 17.3511 6.48933 14.5 9.00006Z" fill="#FEFEFE"/>
<path d="M34 40.0001C37.5 38.0001 41 33.0001 41 30.0001C40.2571 33.0001 36.2975 36.8405 33.5 38.5001C30.4369 40.3173 24.5 42.0001 21 42.0001C24.5 43.0001 30 42.2858 34 40.0001Z" fill="#FEFEFE"/>
</svg>
