<svg width="50" height="50" viewBox="0 0 50 50" fill="none" xmlns="http://www.w3.org/2000/svg">
<g clip-path="url(#clip0_1880_9326)">
<g clip-path="url(#clip1_1880_9326)">
<path d="M22.8299 44.171C17.4017 44.171 13.8965 42.1857 13.4002 41.1931C12.9039 40.2005 12.9039 36.6573 12.9039 36.6573H32.756C32.756 38.7749 32.8791 40.1965 32.2597 41.1931C31.2727 42.7813 27.7647 44.171 22.8299 44.171Z" fill="#898989"/>
<path d="M22.8299 44.171C17.4017 44.171 13.8965 42.1857 13.4002 41.1931C12.9039 40.2005 12.9039 36.6573 12.9039 36.6573H32.756C32.756 38.7749 32.8791 40.1965 32.2597 41.1931C31.2727 42.7813 27.7647 44.171 22.8299 44.171Z" fill="white" fill-opacity="0.6"/>
<path d="M40.0851 22.0494C39.2788 22.0135 38.1081 21.0907 38.5886 19.3708C39.069 17.6508 41.1427 16.4371 43.5614 16.5447C45.9802 16.6523 47.1316 18.0095 48.3024 18.9323C48.2637 19.8012 48.5122 23.295 46.3612 26.2466C44.2102 29.1983 41.8272 30.365 39.276 31.1554C37.6377 31.663 37.183 32.8037 37.1444 33.6726C37.1057 34.5416 37.8733 35.4464 38.6796 35.4823" stroke="#FEFEFE" stroke-width="2.48152" stroke-linecap="round"/>
<path d="M41.6894 11.0089H3.9704C5.58847 14.7844 6.66718 15.3238 7.7459 19.6386C8.28526 21.7961 7.7459 28.6574 8.82461 32.4329C10.1907 37.2142 12.9945 39.7154 15.8363 41.0626C18.6661 42.4042 26.5039 42.4042 29.8595 41.0626C32.7798 39.8951 35.5473 37.2871 36.8712 32.4329C38.3997 26.8285 37.3065 22.8557 37.9499 19.6386C38.4893 16.9418 39.532 15.3238 41.6894 11.0089Z" fill="#898989"/>
<path d="M41.6894 11.0089H3.9704C5.58847 14.7844 6.66718 15.3238 7.7459 19.6386C8.28526 21.7961 7.7459 28.6574 8.82461 32.4329C10.1907 37.2142 12.9945 39.7154 15.8363 41.0626C18.6661 42.4042 26.5039 42.4042 29.8595 41.0626C32.7798 39.8951 35.5473 37.2871 36.8712 32.4329C38.3997 26.8285 37.3065 22.8557 37.9499 19.6386C38.4893 16.9418 39.532 15.3238 41.6894 11.0089Z" fill="white" fill-opacity="0.95"/>
<path d="M41.6894 10.8052C41.6894 13.4836 33.4725 15.7434 23.0566 15.7434C12.6408 15.7434 3.9704 13.4836 3.9704 10.8052C3.9704 8.12686 12.6408 5.95563 23.0566 5.95563C33.4725 5.95563 41.6894 8.12686 41.6894 10.8052Z" fill="#898989"/>
<path d="M41.6894 10.8052C41.6894 13.4836 33.4725 15.7434 23.0566 15.7434C12.6408 15.7434 3.9704 13.4836 3.9704 10.8052C3.9704 8.12686 12.6408 5.95563 23.0566 5.95563C33.4725 5.95563 41.6894 8.12686 41.6894 10.8052Z" fill="white" fill-opacity="0.6"/>
<path d="M41.6894 10.8052C41.6894 13.4836 33.4725 15.7434 23.0566 15.7434C12.6408 15.7434 3.9704 13.4836 3.9704 10.8052C3.9704 8.12686 12.6408 5.95563 23.0566 5.95563C33.4725 5.95563 41.6894 8.12686 41.6894 10.8052Z" stroke="#FEFEFE" stroke-width="1.48891"/>
<path d="M36.863 13.3807C36.863 13.032 29.2426 11.8863 22.9148 11.8863C16.5871 11.8863 8.96667 13.032 8.96667 13.3807C8.96667 13.7293 14.9445 15.1741 22.9148 15.1741C31.8815 15.1741 36.863 13.7293 36.863 13.3807Z" fill="#FAA21E"/>
<path d="M36.863 13.3807C36.863 13.032 29.2426 11.8863 22.9148 11.8863C16.5871 11.8863 8.96667 13.032 8.96667 13.3807C8.96667 13.7293 14.9445 15.1741 22.9148 15.1741C31.8815 15.1741 36.863 13.7293 36.863 13.3807Z" fill="white" fill-opacity="0.4"/>
</g>
<path d="M16.5714 33.2858L14.8571 32.1429H31.1428L29.4285 33.2858C28.9829 33.4996 27.7143 34.0001 25.8571 34.2858C23.6711 34.6221 22.3062 34.5948 20.1428 34.2858C18.1428 34.0001 17.1062 33.5579 16.5714 33.2858Z" fill="#898989"/>
<path d="M13.9938 29.4286C14.5714 29.1429 15.6713 28.9347 16 28.8572H30C30.254 28.9347 31.1325 29.0164 31.9938 29.4286C32.5652 29.7021 32.9925 30.0649 32.9925 30.5787C32.9925 31.4286 31.5711 32.0597 30.1367 32.5715L30.0799 32.5917C28.6567 33.0998 26.9351 33.7143 22.9938 33.7143C19 33.7143 17.3594 33.026 15.8509 32.5715C14.4286 32.1429 13 31.1429 13 30.5787C13 30.0144 13.5321 29.657 13.9938 29.4286Z" fill="#898989"/>
<path d="M13.9938 29.4286C14.5714 29.1429 15.6713 28.9347 16 28.8572H30C30.254 28.9347 31.1325 29.0164 31.9938 29.4286C32.5652 29.7021 32.9925 30.0649 32.9925 30.5787C32.9925 31.4286 31.5711 32.0597 30.1367 32.5715L30.0799 32.5917C28.6567 33.0998 26.9351 33.7143 22.9938 33.7143C19 33.7143 17.3594 33.026 15.8509 32.5715C14.4286 32.1429 13 31.1429 13 30.5787C13 30.0144 13.5321 29.657 13.9938 29.4286Z" fill="white" fill-opacity="0.4"/>
<ellipse cx="23" cy="30.4286" rx="8.28572" ry="1.57143" fill="#898989"/>
<path d="M15.9737 28C15.8413 29.2857 15.8572 30.4286 15.8572 30.5714C15.8572 30.7143 16 31.1429 16.1429 31.2857C16.2857 31.4286 19.5635 32.2857 22.9921 32.2857C26.4207 32.2857 29.7143 31.4286 29.8572 31.2857C30 31.1429 30.1429 30.7143 30.1429 30.5714C30.1429 30.4286 30.1429 29.1429 30.0105 28C29.878 26.8571 29.0007 25.3698 27.7593 24.4286C26.2043 23.2497 24.5394 23 23 23C21.411 23 19.5273 23.3877 18.2249 24.4286C16.9225 25.4695 16.1061 26.7143 15.9737 28Z" fill="#898989"/>
<path d="M15.9737 28C15.8413 29.2857 15.8572 30.4286 15.8572 30.5714C15.8572 30.7143 16 31.1429 16.1429 31.2857C16.2857 31.4286 19.5635 32.2857 22.9921 32.2857C26.4207 32.2857 29.7143 31.4286 29.8572 31.2857C30 31.1429 30.1429 30.7143 30.1429 30.5714C30.1429 30.4286 30.1429 29.1429 30.0105 28C29.878 26.8571 29.0007 25.3698 27.7593 24.4286C26.2043 23.2497 24.5394 23 23 23C21.411 23 19.5273 23.3877 18.2249 24.4286C16.9225 25.4695 16.1061 26.7143 15.9737 28Z" fill="white" fill-opacity="0.6"/>
<path d="M19 24.8572C19.7142 24.2857 20.5714 23.8572 21.4285 23.7143C20.7142 24.2857 20 25.1429 19.5714 25.8572C19.1556 26.5501 18.8571 28 18.8571 29C18.8571 29.8572 19 31.1429 19.2857 32L17.1428 31.5714C17.0476 31.1429 17.0285 29.9429 17.1428 28.5714C17.2857 26.8572 18.1287 25.5542 19 24.8572Z" fill="#FEFEFE"/>
<path d="M22.2857 23.1429C22.2857 22.9966 21.8571 22.1429 21.5714 21.7143H24.4286C24.1428 22.1429 23.7143 23 23.7143 23.1429C23.7143 23.2857 24.2857 23.5772 24.2857 23.7143C24.2857 23.8514 23.7834 24 23 24C22.2166 24 21.7143 23.8514 21.7143 23.7143C21.7143 23.5772 22.2857 23.2892 22.2857 23.1429Z" fill="#898989"/>
<path d="M22.2857 23.1429C22.2857 22.9966 21.8571 22.1429 21.5714 21.7143H24.4286C24.1428 22.1429 23.7143 23 23.7143 23.1429C23.7143 23.2857 24.2857 23.5772 24.2857 23.7143C24.2857 23.8514 23.7834 24 23 24C22.2166 24 21.7143 23.8514 21.7143 23.7143C21.7143 23.5772 22.2857 23.2892 22.2857 23.1429Z" fill="white" fill-opacity="0.4"/>
<ellipse cx="23" cy="21.7143" rx="1.42857" ry="0.285714" fill="#898989"/>
<ellipse cx="23" cy="21.7143" rx="1.42857" ry="0.285714" fill="white" fill-opacity="0.6"/>
</g>
<defs>
<clipPath id="clip0_1880_9326">
<rect width="50" height="50" fill="white"/>
</clipPath>
<clipPath id="clip1_1880_9326">
<rect width="49.8148" height="49.8148" fill="white"/>
</clipPath>
</defs>
</svg>
