<?xml version="1.0" encoding="utf-8"?><svg fill="none" viewBox="0 0 50 50" xmlns="http://www.w3.org/2000/svg" width="50" height="50"><path d="M16.643 11.565h16.592c.917 0 1.764.49 2.222 1.284l8.296 14.368a2.567 2.567 0 0 1 0 2.566l-8.296 14.368a2.566 2.566 0 0 1-2.222 1.284H16.643c-.916 0-1.763-.49-2.221-1.284L6.126 29.783a2.567 2.567 0 0 1 0-2.566l8.296-14.368a2.566 2.566 0 0 1 2.221-1.284Z" fill="#C57A09"/><path d="M16.643 11.565h16.592c.917 0 1.764.49 2.222 1.284l8.296 14.368a2.567 2.567 0 0 1 0 2.566l-8.296 14.368a2.566 2.566 0 0 1-2.222 1.284H16.643c-.916 0-1.763-.49-2.221-1.284L6.126 29.783a2.567 2.567 0 0 1 0-2.566l8.296-14.368a2.566 2.566 0 0 1 2.221-1.284Z" stroke="#FAA21E" stroke-width="5.132"/><path d="M16.643 11.565h16.592c.917 0 1.764.49 2.222 1.284l8.296 14.368a2.567 2.567 0 0 1 0 2.566l-8.296 14.368a2.566 2.566 0 0 1-2.222 1.284H16.643c-.916 0-1.763-.49-2.221-1.284L6.126 29.783a2.567 2.567 0 0 1 0-2.566l8.296-14.368a2.566 2.566 0 0 1 2.221-1.284Z" stroke="#fff" stroke-opacity=".2" stroke-width="5.132"/><path d="M16.643 10.026h16.592c1.467 0 2.822.783 3.555 2.053l8.296 14.368a4.106 4.106 0 0 1 0 4.106L36.79 44.92a4.105 4.105 0 0 1-3.555 2.053H16.643a4.105 4.105 0 0 1-3.554-2.053L4.793 30.553a4.106 4.106 0 0 1 0-4.106l8.296-14.368a4.105 4.105 0 0 1 3.554-2.053Z" stroke="#FAA21E" stroke-width="2.053"/><path d="M16.643 10.026h16.592c1.467 0 2.822.783 3.555 2.053l8.296 14.368a4.106 4.106 0 0 1 0 4.106L36.79 44.92a4.105 4.105 0 0 1-3.555 2.053H16.643a4.105 4.105 0 0 1-3.554-2.053L4.793 30.553a4.106 4.106 0 0 1 0-4.106l8.296-14.368a4.105 4.105 0 0 1 3.554-2.053Z" stroke="#fff" stroke-opacity=".6" stroke-width="2.053"/><circle cx="25" cy="12" r="2" fill="#080B16"/><path d="M27.024 4.359c.162.706.178 1.712-.04 2.833a8.301 8.301 0 0 1-.563 1.817h2.149c.154-.453.282-.934.379-1.433.258-1.33.263-2.629.026-3.668-.119-.518-.31-1.02-.6-1.43-.295-.417-.73-.787-1.322-.902-.59-.116-1.132.063-1.561.338-.423.272-.787.665-1.09 1.1-.609.874-1.088 2.08-1.346 3.41s-.264 2.629-.026 3.668c.119.518.309 1.02.6 1.43.295.417.73.787 1.321.902.59.116 1.133-.063 1.562-.338.163-.105.318-.228.463-.364-.056-.65-.526-1.314-1.263-1.574a1.48 1.48 0 0 1-.277.244.472.472 0 0 1-.1.05.468.468 0 0 1-.075-.084c-.092-.13-.199-.362-.28-.717-.162-.706-.178-1.712.04-2.833.216-1.12.607-2.047 1.02-2.641.208-.298.394-.473.528-.559a.479.479 0 0 1 .1-.051.48.48 0 0 1 .075.085c.092.13.199.362.28.717Z" fill="#FAA21E"/><path d="M26.985 7.192c.217-1.12.2-2.127.039-2.833-.081-.355-.188-.586-.28-.717a.484.484 0 0 0-.074-.085c.27-.138.583-.354 1.033.429.45.783.405 2.966-.405 5.023-.197.605-.494 1.136-.877 1.55-.419.46-.95.087-1.086-.117a.472.472 0 0 0 .1-.05c.078-.05.172-.129.278-.244.3.082.451.18.708.411.383-.414.68-.945.877-1.55h-.877c.23-.51.43-1.127.564-1.817Z" fill="#C57A09"/><path d="M28.163 19.988c0-.785-2.013-.988-3.163-.988s-3.163.22-3.163.988c0 .423.432.564.576.705.047.47.057 1.636-.288 2.539-.431 1.128-1.378 1.476-2.012 1.974-.72.565-.863 1.693-.863 2.257v9.027c.144.423 1.238 1.252 2.587 1.693 1.294.423 4.6.423 6.038 0 1.306-.385 2.875-1.27 2.875-1.693v-9.027c0-.611 0-1.749-.863-2.257-.862-.507-1.58-1.128-2.012-1.974-.345-.677-.335-1.928-.288-2.54.288-.14.576-.352.576-.704Z" fill="#FAA21E"/><path d="M28.163 19.988c0-.785-2.013-.988-3.163-.988s-3.163.22-3.163.988c0 .423.432.564.576.705.047.47.057 1.636-.288 2.539-.431 1.128-1.378 1.476-2.012 1.974-.72.565-.863 1.693-.863 2.257v9.027c.144.423 1.238 1.252 2.587 1.693 1.294.423 4.6.423 6.038 0 1.306-.385 2.875-1.27 2.875-1.693v-9.027c0-.611 0-1.749-.863-2.257-.862-.507-1.58-1.128-2.012-1.974-.345-.677-.335-1.928-.288-2.54.288-.14.576-.352.576-.704Z" fill="#fff" fill-opacity=".8"/><path d="M28.671 28.905c-.46.282-.855-.157-1.447-.014-.592.143-.79.337-.987.693-.207.373-.198 1.086.196 1.424.558.48 1.276.967 2.394 1.003 1.28.042 1.517-.686 1.923-1.003V29.25c-.076-.2-.073-.55-.335-.849-.329-.373-.888-.49-1.184-.269-.338.252-.208.558-.56.773Z" fill="#FAA21E"/><path d="M28.671 28.905c-.46.282-.855-.157-1.447-.014-.592.143-.79.337-.987.693-.207.373-.198 1.086.196 1.424.558.48 1.276.967 2.394 1.003 1.28.042 1.517-.686 1.923-1.003V29.25c-.076-.2-.073-.55-.335-.849-.329-.373-.888-.49-1.184-.269-.338.252-.208.558-.56.773Z" fill="#fff" fill-opacity=".8"/><path d="M21.7 24c-.418.486-1.002.734-1.25 1 .303.442.633.475 1.148.462.825-.021.362.467 1.528 1.057 1.165.59 2.154-.003 2.395-.658.242-.654-.461-1.066-.744-1.196-.282-.13.002-.485-.045-.924-.048-.44-.131-.93-.732-1.24-.4-.208-1.213-.188-1.7 0-.154.598-.227 1.066-.6 1.5Z" fill="#FAA21E"/><path d="M21.7 24c-.418.486-1.002.734-1.25 1 .303.442.633.475 1.148.462.825-.021.362.467 1.528 1.057 1.165.59 2.154-.003 2.395-.658.242-.654-.461-1.066-.744-1.196-.282-.13.002-.485-.045-.924-.048-.44-.131-.93-.732-1.24-.4-.208-1.213-.188-1.7 0-.154.598-.227 1.066-.6 1.5Z" fill="#fff" fill-opacity=".8"/><path d="M21 31.25c-.797-.14-1.75.396-1.75 1v4.25s.393.596 1 1c1.5 1 3.028 1 3.75 1 0-.5-.788-.568-.77-.91.018-.343.831-.2 1.483-.645.377-.258.763-1.237-.093-1.831-.924-.642-2.06-.121-2.195-.575-.136-.454.36-.54.388-1.273.035-.924-.388-1.766-1.813-2.016Z" fill="#FAA21E"/><path d="M21 31.25c-.797-.14-1.75.396-1.75 1v4.25s.393.596 1 1c1.5 1 3.028 1 3.75 1 0-.5-.788-.568-.77-.91.018-.343.831-.2 1.483-.645.377-.258.763-1.237-.093-1.831-.924-.642-2.06-.121-2.195-.575-.136-.454.36-.54.388-1.273.035-.924-.388-1.766-1.813-2.016Z" fill="#fff" fill-opacity=".8"/><ellipse cx="25.024" cy="19.887" rx="2.523" ry=".639" transform="rotate(-.057 25.024 19.887)" fill="#FAA21E"/><ellipse cx="25.024" cy="19.887" rx="2.523" ry=".639" transform="rotate(-.057 25.024 19.887)" fill="#fff" fill-opacity=".8"/></svg>