<?xml version="1.0" encoding="utf-8"?><svg fill="none" viewBox="0 0 50 50" xmlns="http://www.w3.org/2000/svg" width="50" height="50"><path d="M16.643 11.565h16.592c.917 0 1.764.49 2.222 1.284l8.296 14.368a2.567 2.567 0 0 1 0 2.566l-8.296 14.368a2.566 2.566 0 0 1-2.222 1.284H16.643c-.916 0-1.763-.49-2.221-1.284L6.126 29.783a2.567 2.567 0 0 1 0-2.566l8.296-14.368a2.566 2.566 0 0 1 2.221-1.284Z" fill="#C57A09"/><path d="M16.643 11.565h16.592c.917 0 1.764.49 2.222 1.284l8.296 14.368a2.567 2.567 0 0 1 0 2.566l-8.296 14.368a2.566 2.566 0 0 1-2.222 1.284H16.643c-.916 0-1.763-.49-2.221-1.284L6.126 29.783a2.567 2.567 0 0 1 0-2.566l8.296-14.368a2.566 2.566 0 0 1 2.221-1.284Z" stroke="#FAA21E" stroke-width="5.132"/><path d="M16.643 11.565h16.592c.917 0 1.764.49 2.222 1.284l8.296 14.368a2.567 2.567 0 0 1 0 2.566l-8.296 14.368a2.566 2.566 0 0 1-2.222 1.284H16.643c-.916 0-1.763-.49-2.221-1.284L6.126 29.783a2.567 2.567 0 0 1 0-2.566l8.296-14.368a2.566 2.566 0 0 1 2.221-1.284Z" stroke="#fff" stroke-opacity=".2" stroke-width="5.132"/><path d="M16.643 10.026h16.592c1.467 0 2.822.783 3.555 2.053l8.296 14.368a4.106 4.106 0 0 1 0 4.106L36.79 44.92a4.105 4.105 0 0 1-3.555 2.053H16.643a4.105 4.105 0 0 1-3.554-2.053L4.793 30.553a4.106 4.106 0 0 1 0-4.106l8.296-14.368a4.105 4.105 0 0 1 3.554-2.053Z" stroke="#FAA21E" stroke-width="2.053"/><path d="M16.643 10.026h16.592c1.467 0 2.822.783 3.555 2.053l8.296 14.368a4.106 4.106 0 0 1 0 4.106L36.79 44.92a4.105 4.105 0 0 1-3.555 2.053H16.643a4.105 4.105 0 0 1-3.554-2.053L4.793 30.553a4.106 4.106 0 0 1 0-4.106l8.296-14.368a4.105 4.105 0 0 1 3.554-2.053Z" stroke="#fff" stroke-opacity=".6" stroke-width="2.053"/><circle cx="25" cy="12" r="2" fill="#080B16"/><path d="M27.024 4.359c.162.706.178 1.712-.04 2.833a8.301 8.301 0 0 1-.563 1.817h2.149c.154-.453.282-.934.379-1.433.258-1.33.263-2.629.026-3.668-.119-.518-.31-1.02-.6-1.43-.295-.417-.73-.787-1.322-.902-.59-.116-1.132.063-1.561.338-.423.272-.787.665-1.09 1.1-.609.874-1.088 2.08-1.346 3.41s-.264 2.629-.026 3.668c.119.518.309 1.02.6 1.43.295.417.73.787 1.321.902.59.116 1.133-.063 1.562-.338.163-.105.318-.228.463-.364-.056-.65-.526-1.314-1.263-1.574a1.48 1.48 0 0 1-.277.244.472.472 0 0 1-.1.05.468.468 0 0 1-.075-.084c-.092-.13-.199-.362-.28-.717-.162-.706-.178-1.712.04-2.833.216-1.12.607-2.047 1.02-2.641.208-.298.394-.473.528-.559a.479.479 0 0 1 .1-.051.48.48 0 0 1 .075.085c.092.13.199.362.28.717Z" fill="#FAA21E"/><path d="M26.985 7.192c.217-1.12.2-2.127.039-2.833-.081-.355-.188-.586-.28-.717a.484.484 0 0 0-.074-.085c.27-.138.583-.354 1.033.429.45.783.405 2.966-.405 5.023-.197.605-.494 1.136-.877 1.55-.419.46-.95.087-1.086-.117a.472.472 0 0 0 .1-.05c.078-.05.172-.129.278-.244.3.082.451.18.708.411.383-.414.68-.945.877-1.55h-.877c.23-.51.43-1.127.564-1.817Z" fill="#C57A09"/><path d="m19.595 37.013-.242-5.55c-2.502-1.82-4.587-2.67-3.358-6.024.925-2.522 3.655-3.506 5.697-1.624-.397-1.872 1.338-4.72 4.45-4.554 3.114.166 4.888 3.466 3.874 5.671 1.356-.044 4.427.03 4.364 3.068-.057 2.685-2.236 3.922-4.804 4.038l-.82 5.228-9.16-.253Z" fill="#FAA21E"/><path d="m19.595 37.013-.242-5.55c-2.502-1.82-4.587-2.67-3.358-6.024.925-2.522 3.655-3.506 5.697-1.624-.397-1.872 1.338-4.72 4.45-4.554 3.114.166 4.888 3.466 3.874 5.671 1.356-.044 4.427.03 4.364 3.068-.057 2.685-2.236 3.922-4.804 4.038l-.82 5.228-9.16-.253Z" fill="#fff" fill-opacity=".8"/><path d="M21.922 31.73a.498.498 0 1 0-.997-.003l.499.002.498.001Zm-.498-.001-.499-.002-.015 5.288.498.002.498.001.016-5.288-.498-.001Z" fill="#FAA21E"/><path d="M21.922 31.73a.498.498 0 1 0-.997-.003l.499.002.498.001Zm-.498-.001-.499-.002-.015 5.288.498.002.498.001.016-5.288-.498-.001Z" fill="#fff" fill-opacity=".8"/><path d="M24.89 31.895a.498.498 0 0 0-.996-.046l.498.023.497.023Zm-.498-.023-.498-.023-.243 5.196.497.023.498.023.243-5.196-.497-.023Z" fill="#FAA21E"/><path d="M24.89 31.895a.498.498 0 0 0-.996-.046l.498.023.497.023Zm-.498-.023-.498-.023-.243 5.196.497.023.498.023.243-5.196-.497-.023Z" fill="#fff" fill-opacity=".8"/><path d="M27.777 32.152a.498.498 0 0 0-.992-.091l.496.046.496.045Zm-.496-.045-.496-.046-.47 5.104.495.046.496.046.471-5.105-.496-.045Z" fill="#FAA21E"/><path d="M27.777 32.152a.498.498 0 0 0-.992-.091l.496.046.496.045Zm-.496-.045-.496-.046-.47 5.104.495.046.496.046.471-5.105-.496-.045Z" fill="#fff" fill-opacity=".8"/></svg>