<?xml version="1.0" encoding="utf-8"?><svg fill="none" viewBox="0 0 50 50" xmlns="http://www.w3.org/2000/svg" width="50" height="50"><path d="M16.643 11.565h16.592c.917 0 1.764.49 2.222 1.284l8.296 14.368a2.567 2.567 0 0 1 0 2.566l-8.296 14.368a2.566 2.566 0 0 1-2.222 1.284H16.643c-.916 0-1.763-.49-2.221-1.284L6.126 29.783a2.567 2.567 0 0 1 0-2.566l8.296-14.368a2.566 2.566 0 0 1 2.221-1.284Z" fill="#C57A09"/><path d="M16.643 11.565h16.592c.917 0 1.764.49 2.222 1.284l8.296 14.368a2.567 2.567 0 0 1 0 2.566l-8.296 14.368a2.566 2.566 0 0 1-2.222 1.284H16.643c-.916 0-1.763-.49-2.221-1.284L6.126 29.783a2.567 2.567 0 0 1 0-2.566l8.296-14.368a2.566 2.566 0 0 1 2.221-1.284Z" stroke="#FAA21E" stroke-width="5.132"/><path d="M16.643 11.565h16.592c.917 0 1.764.49 2.222 1.284l8.296 14.368a2.567 2.567 0 0 1 0 2.566l-8.296 14.368a2.566 2.566 0 0 1-2.222 1.284H16.643c-.916 0-1.763-.49-2.221-1.284L6.126 29.783a2.567 2.567 0 0 1 0-2.566l8.296-14.368a2.566 2.566 0 0 1 2.221-1.284Z" stroke="#fff" stroke-opacity=".2" stroke-width="5.132"/><path d="M16.643 10.026h16.592c1.467 0 2.822.783 3.555 2.053l8.296 14.368a4.106 4.106 0 0 1 0 4.106L36.79 44.92a4.105 4.105 0 0 1-3.555 2.053H16.643a4.105 4.105 0 0 1-3.554-2.053L4.793 30.553a4.106 4.106 0 0 1 0-4.106l8.296-14.368a4.105 4.105 0 0 1 3.554-2.053Z" stroke="#FAA21E" stroke-width="2.053"/><path d="M16.643 10.026h16.592c1.467 0 2.822.783 3.555 2.053l8.296 14.368a4.106 4.106 0 0 1 0 4.106L36.79 44.92a4.105 4.105 0 0 1-3.555 2.053H16.643a4.105 4.105 0 0 1-3.554-2.053L4.793 30.553a4.106 4.106 0 0 1 0-4.106l8.296-14.368a4.105 4.105 0 0 1 3.554-2.053Z" stroke="#fff" stroke-opacity=".6" stroke-width="2.053"/><circle cx="25" cy="12" r="2" fill="#080B16"/><path d="M27.024 4.359c.162.706.178 1.712-.04 2.833a8.301 8.301 0 0 1-.563 1.817h2.149c.154-.453.282-.934.379-1.433.258-1.33.263-2.629.026-3.668-.119-.518-.31-1.02-.6-1.43-.295-.417-.73-.787-1.322-.902-.59-.116-1.132.063-1.561.338-.423.272-.787.665-1.09 1.1-.609.874-1.088 2.08-1.346 3.41s-.264 2.629-.026 3.668c.119.518.309 1.02.6 1.43.295.417.73.787 1.321.902.59.116 1.133-.063 1.562-.338.163-.105.318-.228.463-.364-.056-.65-.526-1.314-1.263-1.574a1.48 1.48 0 0 1-.277.244.472.472 0 0 1-.1.05.468.468 0 0 1-.075-.084c-.092-.13-.199-.362-.28-.717-.162-.706-.178-1.712.04-2.833.216-1.12.607-2.047 1.02-2.641.208-.298.394-.473.528-.559a.479.479 0 0 1 .1-.051.48.48 0 0 1 .075.085c.092.13.199.362.28.717Z" fill="#FAA21E"/><path d="M26.985 7.192c.217-1.12.2-2.127.039-2.833-.081-.355-.188-.586-.28-.717a.484.484 0 0 0-.074-.085c.27-.138.583-.354 1.033.429.45.783.405 2.966-.405 5.023-.197.605-.494 1.136-.877 1.55-.419.46-.95.087-1.086-.117a.472.472 0 0 0 .1-.05c.078-.05.172-.129.278-.244.3.082.451.18.708.411.383-.414.68-.945.877-1.55h-.877c.23-.51.43-1.127.564-1.817Z" fill="#C57A09"/><path d="M22 19c1 0 2.75.25 4 .75s4 1.75 5 2.75.75 3.5.75 4.5-1.25 3.25-1.5 4-.75 2-1 3.25c-.2 1-.167 2.75-.25 3.5-.75.25-1.75.75-4 .75s-3.417-.333-4.25-.5c.333-1 1-3.25 1-4.25s-.167-1.75-.25-2c-.333-.417-1.15-1.5-1.75-2.5-.6-1-1.25-1.75-1.25-2.75 0-1.5.363-3.363 1-4 .5-.5 1.46-1 2.25-1 .75 0 2.5.5 3 1s.25 1.25-.5 1.5-1.75-.25-2.25.25c-.395.395-.395 1.355 0 1.75.5.5.75.75 1.75 1.25l.018.008.03.024c.19.163.355.331.432.487.1.201.144.423.165.653.01.114.014.229.017.343.003.111.005.229.01.336a.25.25 0 0 0 .264.235.25.25 0 0 0 .235-.263c-.005-.097-.008-.202-.01-.321a5.911 5.911 0 0 0-.02-.375 2.317 2.317 0 0 0-.216-.83 1.243 1.243 0 0 0-.045-.08c1.52.21 4.196.12 4.87-.217.5-.25 1-1 1.2-1.75.125-.469-.185-.477-.45-.25-.25.25-.35.85-.75 1.25-.5.5-4.632.559-5.75 0-1-.5-1.75-1-1.5-1.75.167-.5 1.25.25 2.25-.1.973-.34 1.5-1.65 1-2.4s-3-1.5-3.75-1.5-1.417.417-1.75.5c.25-.667 1.2-2.25 2-2.25Z" fill="#FAA21E"/><path d="M22 19c1 0 2.75.25 4 .75s4 1.75 5 2.75.75 3.5.75 4.5-1.25 3.25-1.5 4-.75 2-1 3.25c-.2 1-.167 2.75-.25 3.5-.75.25-1.75.75-4 .75s-3.417-.333-4.25-.5c.333-1 1-3.25 1-4.25s-.167-1.75-.25-2c-.333-.417-1.15-1.5-1.75-2.5-.6-1-1.25-1.75-1.25-2.75 0-1.5.363-3.363 1-4 .5-.5 1.46-1 2.25-1 .75 0 2.5.5 3 1s.25 1.25-.5 1.5-1.75-.25-2.25.25c-.395.395-.395 1.355 0 1.75.5.5.75.75 1.75 1.25l.018.008.03.024c.19.163.355.331.432.487.1.201.144.423.165.653.01.114.014.229.017.343.003.111.005.229.01.336a.25.25 0 0 0 .264.235.25.25 0 0 0 .235-.263c-.005-.097-.008-.202-.01-.321a5.911 5.911 0 0 0-.02-.375 2.317 2.317 0 0 0-.216-.83 1.243 1.243 0 0 0-.045-.08c1.52.21 4.196.12 4.87-.217.5-.25 1-1 1.2-1.75.125-.469-.185-.477-.45-.25-.25.25-.35.85-.75 1.25-.5.5-4.632.559-5.75 0-1-.5-1.75-1-1.5-1.75.167-.5 1.25.25 2.25-.1.973-.34 1.5-1.65 1-2.4s-3-1.5-3.75-1.5-1.417.417-1.75.5c.25-.667 1.2-2.25 2-2.25Z" fill="#fff" fill-opacity=".8"/></svg>