<?xml version="1.0" encoding="utf-8"?><svg fill="none" viewBox="0 0 50 50" xmlns="http://www.w3.org/2000/svg" width="50" height="50"><path d="M16.643 11.565h16.592c.917 0 1.764.49 2.222 1.284l8.296 14.368a2.567 2.567 0 0 1 0 2.566l-8.296 14.368a2.566 2.566 0 0 1-2.222 1.284H16.643c-.916 0-1.763-.49-2.221-1.284L6.126 29.783a2.567 2.567 0 0 1 0-2.566l8.296-14.368a2.566 2.566 0 0 1 2.221-1.284Z" fill="#C57A09"/><path d="M16.643 11.565h16.592c.917 0 1.764.49 2.222 1.284l8.296 14.368a2.567 2.567 0 0 1 0 2.566l-8.296 14.368a2.566 2.566 0 0 1-2.222 1.284H16.643c-.916 0-1.763-.49-2.221-1.284L6.126 29.783a2.567 2.567 0 0 1 0-2.566l8.296-14.368a2.566 2.566 0 0 1 2.221-1.284Z" stroke="#FAA21E" stroke-width="5.132"/><path d="M16.643 11.565h16.592c.917 0 1.764.49 2.222 1.284l8.296 14.368a2.567 2.567 0 0 1 0 2.566l-8.296 14.368a2.566 2.566 0 0 1-2.222 1.284H16.643c-.916 0-1.763-.49-2.221-1.284L6.126 29.783a2.567 2.567 0 0 1 0-2.566l8.296-14.368a2.566 2.566 0 0 1 2.221-1.284Z" stroke="#fff" stroke-opacity=".2" stroke-width="5.132"/><path d="M16.643 10.026h16.592c1.467 0 2.822.783 3.555 2.053l8.296 14.368a4.106 4.106 0 0 1 0 4.106L36.79 44.92a4.105 4.105 0 0 1-3.555 2.053H16.643a4.105 4.105 0 0 1-3.554-2.053L4.793 30.553a4.106 4.106 0 0 1 0-4.106l8.296-14.368a4.105 4.105 0 0 1 3.554-2.053Z" stroke="#FAA21E" stroke-width="2.053"/><path d="M16.643 10.026h16.592c1.467 0 2.822.783 3.555 2.053l8.296 14.368a4.106 4.106 0 0 1 0 4.106L36.79 44.92a4.105 4.105 0 0 1-3.555 2.053H16.643a4.105 4.105 0 0 1-3.554-2.053L4.793 30.553a4.106 4.106 0 0 1 0-4.106l8.296-14.368a4.105 4.105 0 0 1 3.554-2.053Z" stroke="#fff" stroke-opacity=".6" stroke-width="2.053"/><circle cx="25" cy="12" r="2" fill="#080B16"/><path d="M27.024 4.359c.162.706.178 1.712-.04 2.833a8.301 8.301 0 0 1-.563 1.817h2.149c.154-.453.282-.934.379-1.433.258-1.33.263-2.629.026-3.668-.119-.518-.31-1.02-.6-1.43-.295-.417-.73-.787-1.322-.902-.59-.116-1.132.063-1.561.338-.423.272-.787.665-1.09 1.1-.609.874-1.088 2.08-1.346 3.41s-.264 2.629-.026 3.668c.119.518.309 1.02.6 1.43.295.417.73.787 1.321.902.59.116 1.133-.063 1.562-.338.163-.105.318-.228.463-.364-.056-.65-.526-1.314-1.263-1.574a1.48 1.48 0 0 1-.277.244.472.472 0 0 1-.1.05.468.468 0 0 1-.075-.084c-.092-.13-.199-.362-.28-.717-.162-.706-.178-1.712.04-2.833.216-1.12.607-2.047 1.02-2.641.208-.298.394-.473.528-.559a.479.479 0 0 1 .1-.051.48.48 0 0 1 .075.085c.092.13.199.362.28.717Z" fill="#FAA21E"/><path d="M26.985 7.192c.217-1.12.2-2.127.039-2.833-.081-.355-.188-.586-.28-.717a.484.484 0 0 0-.074-.085c.27-.138.583-.354 1.033.429.45.783.405 2.966-.405 5.023-.197.605-.494 1.136-.877 1.55-.419.46-.95.087-1.086-.117a.472.472 0 0 0 .1-.05c.078-.05.172-.129.278-.244.3.082.451.18.708.411.383-.414.68-.945.877-1.55h-.877c.23-.51.43-1.127.564-1.817Z" fill="#C57A09"/><g clip-path="url(#apza)"><circle cx="25" cy="28.5" r="9.5" stroke="#FAA21E"/><circle cx="25" cy="28.5" r="9.5" stroke="#fff" stroke-opacity=".8"/><path d="M25.057 20.722c.321 0 .668.15 1.03.507.363.359.714.902 1.02 1.614.609 1.422.998 3.422.998 5.657s-.39 4.234-.999 5.657c-.305.711-.656 1.256-1.02 1.615-.36.356-.708.506-1.029.506-.32 0-.668-.15-1.03-.506-.364-.36-.713-.904-1.019-1.615-.609-1.423-.999-3.422-.999-5.657s.39-4.235 1-5.657c.304-.711.654-1.255 1.018-1.614.361-.357.71-.507 1.03-.507Z" stroke="#FAA21E"/><path d="M25.057 20.722c.321 0 .668.15 1.03.507.363.359.714.902 1.02 1.614.609 1.422.998 3.422.998 5.657s-.39 4.234-.999 5.657c-.305.711-.656 1.256-1.02 1.615-.36.356-.708.506-1.029.506-.32 0-.668-.15-1.03-.506-.364-.36-.713-.904-1.019-1.615-.609-1.423-.999-3.422-.999-5.657s.39-4.235 1-5.657c.304-.711.654-1.255 1.018-1.614.361-.357.71-.507 1.03-.507Z" stroke="#fff" stroke-opacity=".8"/><path d="M31.793 24.611c.16.278.204.653.076 1.145-.13.494-.424 1.07-.888 1.69-.927 1.239-2.465 2.576-4.4 3.694-1.935 1.117-3.862 1.78-5.398 1.963-.77.091-1.416.06-1.909-.076-.49-.134-.792-.36-.952-.638-.16-.278-.206-.654-.078-1.145.13-.495.426-1.07.89-1.69.927-1.239 2.464-2.576 4.399-3.693 1.935-1.118 3.862-1.78 5.399-1.964.768-.091 1.415-.06 1.907.075.49.135.794.361.954.64Z" stroke="#FAA21E"/><path d="M31.793 24.611c.16.278.204.653.076 1.145-.13.494-.424 1.07-.888 1.69-.927 1.239-2.465 2.576-4.4 3.694-1.935 1.117-3.862 1.78-5.398 1.963-.77.091-1.416.06-1.909-.076-.49-.134-.792-.36-.952-.638-.16-.278-.206-.654-.078-1.145.13-.495.426-1.07.89-1.69.927-1.239 2.464-2.576 4.399-3.693 1.935-1.118 3.862-1.78 5.399-1.964.768-.091 1.415-.06 1.907.075.49.135.794.361.954.64Z" stroke="#fff" stroke-opacity=".8"/><path d="M31.793 32.39c-.16.277-.464.502-.953.637-.493.136-1.14.168-1.908.076-1.537-.183-3.464-.846-5.4-1.963-1.934-1.118-3.471-2.455-4.398-3.694-.464-.62-.76-1.196-.89-1.69-.127-.492-.083-.867.078-1.145.16-.277.463-.504.953-.639.492-.135 1.139-.166 1.908-.074 1.536.183 3.462.845 5.398 1.962 1.935 1.118 3.473 2.455 4.4 3.694.463.62.76 1.195.888 1.69.128.491.084.867-.076 1.145Z" stroke="#FAA21E"/><path d="M31.793 32.39c-.16.277-.464.502-.953.637-.493.136-1.14.168-1.908.076-1.537-.183-3.464-.846-5.4-1.963-1.934-1.118-3.471-2.455-4.398-3.694-.464-.62-.76-1.196-.89-1.69-.127-.492-.083-.867.078-1.145.16-.277.463-.504.953-.639.492-.135 1.139-.166 1.908-.074 1.536.183 3.462.845 5.398 1.962 1.935 1.118 3.473 2.455 4.4 3.694.463.62.76 1.195.888 1.69.128.491.084.867-.076 1.145Z" stroke="#fff" stroke-opacity=".8"/><circle cx="25" cy="28.5" r="1.5" fill="#FAA21E"/><circle cx="25" cy="28.5" r="1.5" fill="#fff" fill-opacity=".8"/><circle cx="20" cy="33" r="1" fill="#FAA21E"/><circle cx="20" cy="33" r="1" fill="#fff" fill-opacity=".8"/><circle cx="23.5" cy="22" r="1" fill="#FAA21E"/><circle cx="23.5" cy="22" r="1" fill="#fff" fill-opacity=".8"/><circle cx="31.5" cy="30.5" r="1" fill="#FAA21E"/><circle cx="31.5" cy="30.5" r="1" fill="#fff" fill-opacity=".8"/></g><defs><clipPath id="apza"><path fill="#fff" transform="matrix(-1 0 0 1 35 18.5)" d="M0 0h20v20H0z"/></clipPath></defs></svg>