<?xml version="1.0" encoding="utf-8"?><svg fill="none" viewBox="0 0 50 50" xmlns="http://www.w3.org/2000/svg" width="50" height="50"><path d="M16.643 11.565h16.592c.917 0 1.764.49 2.222 1.284l8.296 14.368a2.567 2.567 0 0 1 0 2.566l-8.296 14.368a2.566 2.566 0 0 1-2.222 1.284H16.643c-.916 0-1.763-.49-2.221-1.284L6.126 29.783a2.567 2.567 0 0 1 0-2.566l8.296-14.368a2.566 2.566 0 0 1 2.221-1.284Z" fill="#C57A09"/><path d="M16.643 11.565h16.592c.917 0 1.764.49 2.222 1.284l8.296 14.368a2.567 2.567 0 0 1 0 2.566l-8.296 14.368a2.566 2.566 0 0 1-2.222 1.284H16.643c-.916 0-1.763-.49-2.221-1.284L6.126 29.783a2.567 2.567 0 0 1 0-2.566l8.296-14.368a2.566 2.566 0 0 1 2.221-1.284Z" stroke="#FAA21E" stroke-width="5.132"/><path d="M16.643 11.565h16.592c.917 0 1.764.49 2.222 1.284l8.296 14.368a2.567 2.567 0 0 1 0 2.566l-8.296 14.368a2.566 2.566 0 0 1-2.222 1.284H16.643c-.916 0-1.763-.49-2.221-1.284L6.126 29.783a2.567 2.567 0 0 1 0-2.566l8.296-14.368a2.566 2.566 0 0 1 2.221-1.284Z" stroke="#fff" stroke-opacity=".2" stroke-width="5.132"/><path d="M16.643 10.026h16.592c1.467 0 2.822.783 3.555 2.053l8.296 14.368a4.106 4.106 0 0 1 0 4.106L36.79 44.92a4.105 4.105 0 0 1-3.555 2.053H16.643a4.105 4.105 0 0 1-3.554-2.053L4.793 30.553a4.106 4.106 0 0 1 0-4.106l8.296-14.368a4.105 4.105 0 0 1 3.554-2.053Z" stroke="#FAA21E" stroke-width="2.053"/><path d="M16.643 10.026h16.592c1.467 0 2.822.783 3.555 2.053l8.296 14.368a4.106 4.106 0 0 1 0 4.106L36.79 44.92a4.105 4.105 0 0 1-3.555 2.053H16.643a4.105 4.105 0 0 1-3.554-2.053L4.793 30.553a4.106 4.106 0 0 1 0-4.106l8.296-14.368a4.105 4.105 0 0 1 3.554-2.053Z" stroke="#fff" stroke-opacity=".6" stroke-width="2.053"/><circle cx="25" cy="12" r="2" fill="#080B16"/><path d="M27.024 4.359c.162.706.178 1.712-.04 2.833a8.301 8.301 0 0 1-.563 1.817h2.149c.154-.453.282-.934.379-1.433.258-1.33.263-2.629.026-3.668-.119-.518-.31-1.02-.6-1.43-.295-.417-.73-.787-1.322-.902-.59-.116-1.132.063-1.561.338-.423.272-.787.665-1.09 1.1-.609.874-1.088 2.08-1.346 3.41s-.264 2.629-.026 3.668c.119.518.309 1.02.6 1.43.295.417.73.787 1.321.902.59.116 1.133-.063 1.562-.338.163-.105.318-.228.463-.364-.056-.65-.526-1.314-1.263-1.574a1.48 1.48 0 0 1-.277.244.472.472 0 0 1-.1.05.468.468 0 0 1-.075-.084c-.092-.13-.199-.362-.28-.717-.162-.706-.178-1.712.04-2.833.216-1.12.607-2.047 1.02-2.641.208-.298.394-.473.528-.559a.479.479 0 0 1 .1-.051.48.48 0 0 1 .075.085c.092.13.199.362.28.717Z" fill="#FAA21E"/><path d="M26.985 7.192c.217-1.12.2-2.127.039-2.833-.081-.355-.188-.586-.28-.717a.484.484 0 0 0-.074-.085c.27-.138.583-.354 1.033.429.45.783.405 2.966-.405 5.023-.197.605-.494 1.136-.877 1.55-.419.46-.95.087-1.086-.117a.472.472 0 0 0 .1-.05c.078-.05.172-.129.278-.244.3.082.451.18.708.411.383-.414.68-.945.877-1.55h-.877c.23-.51.43-1.127.564-1.817Z" fill="#C57A09"/><path d="M28.83 33.358c.4-.152 1.194-1.775 1.335-1.997l-.388-.002s-.94 1.836-1.934 1.715c-.995-.12-.593-3.074-.593-3.074h-.448s.096 2.995 0 3.25c-.096.255-1.302.75-1.802.75-.338 0-1-.5-1-.5l1.25-3.14h-.5s-1.212 2.78-1.5 2.714c-.288-.065-1.156-2.444-1.156-2.444l-.671.124s1.444 2.35 1.077 2.496c-.158.063-1.25-.331-1.25-.331l-1-.87h-.5s.96 1.085 1.344 1.31c.384.223 1.926.717 2.156.891.44.334.5.5.442 1.377-.06.932-.06 1.289-.176 1.86L23.25 38.5h3.25s-.457-.777-.479-1.514c-.021-.736-.285-1.3.245-2.25.268-.48 1.545-.99 2.565-1.378Z" fill="#FAA21E"/><path d="M28.83 33.358c.4-.152 1.194-1.775 1.335-1.997l-.388-.002s-.94 1.836-1.934 1.715c-.995-.12-.593-3.074-.593-3.074h-.448s.096 2.995 0 3.25c-.096.255-1.302.75-1.802.75-.338 0-1-.5-1-.5l1.25-3.14h-.5s-1.212 2.78-1.5 2.714c-.288-.065-1.156-2.444-1.156-2.444l-.671.124s1.444 2.35 1.077 2.496c-.158.063-1.25-.331-1.25-.331l-1-.87h-.5s.96 1.085 1.344 1.31c.384.223 1.926.717 2.156.891.44.334.5.5.442 1.377-.06.932-.06 1.289-.176 1.86L23.25 38.5h3.25s-.457-.777-.479-1.514c-.021-.736-.285-1.3.245-2.25.268-.48 1.545-.99 2.565-1.378Z" fill="#fff" fill-opacity=".8"/><circle cx="20.5" cy="27.5" r="5.5" fill="#FAA21E"/><circle cx="20.5" cy="27.5" r="5.5" fill="#fff" fill-opacity=".8"/><circle cx="30.5" cy="29" r="4.5" fill="#FAA21E"/><circle cx="30.5" cy="29" r="4.5" fill="#fff" fill-opacity=".8"/><circle cx="26" cy="25" r="6.5" fill="#FAA21E"/><circle cx="26" cy="25" r="6.5" fill="#fff" fill-opacity=".8"/></svg>