<?xml version="1.0" encoding="utf-8"?><svg fill="none" viewBox="0 0 50 50" xmlns="http://www.w3.org/2000/svg" width="50" height="50"><path d="M16.643 11.565h16.592c.917 0 1.764.49 2.222 1.284l8.296 14.368a2.567 2.567 0 0 1 0 2.566l-8.296 14.368a2.566 2.566 0 0 1-2.222 1.284H16.643c-.916 0-1.763-.49-2.221-1.284L6.126 29.783a2.567 2.567 0 0 1 0-2.566l8.296-14.368a2.566 2.566 0 0 1 2.221-1.284Z" fill="#C57A09"/><path d="M16.643 11.565h16.592c.917 0 1.764.49 2.222 1.284l8.296 14.368a2.567 2.567 0 0 1 0 2.566l-8.296 14.368a2.566 2.566 0 0 1-2.222 1.284H16.643c-.916 0-1.763-.49-2.221-1.284L6.126 29.783a2.567 2.567 0 0 1 0-2.566l8.296-14.368a2.566 2.566 0 0 1 2.221-1.284Z" stroke="#FAA21E" stroke-width="5.132"/><path d="M16.643 11.565h16.592c.917 0 1.764.49 2.222 1.284l8.296 14.368a2.567 2.567 0 0 1 0 2.566l-8.296 14.368a2.566 2.566 0 0 1-2.222 1.284H16.643c-.916 0-1.763-.49-2.221-1.284L6.126 29.783a2.567 2.567 0 0 1 0-2.566l8.296-14.368a2.566 2.566 0 0 1 2.221-1.284Z" stroke="#fff" stroke-opacity=".2" stroke-width="5.132"/><path d="M16.643 10.026h16.592c1.467 0 2.822.783 3.555 2.053l8.296 14.368a4.106 4.106 0 0 1 0 4.106L36.79 44.92a4.105 4.105 0 0 1-3.555 2.053H16.643a4.105 4.105 0 0 1-3.554-2.053L4.793 30.553a4.106 4.106 0 0 1 0-4.106l8.296-14.368a4.105 4.105 0 0 1 3.554-2.053Z" stroke="#FAA21E" stroke-width="2.053"/><path d="M16.643 10.026h16.592c1.467 0 2.822.783 3.555 2.053l8.296 14.368a4.106 4.106 0 0 1 0 4.106L36.79 44.92a4.105 4.105 0 0 1-3.555 2.053H16.643a4.105 4.105 0 0 1-3.554-2.053L4.793 30.553a4.106 4.106 0 0 1 0-4.106l8.296-14.368a4.105 4.105 0 0 1 3.554-2.053Z" stroke="#fff" stroke-opacity=".6" stroke-width="2.053"/><circle cx="25" cy="12" r="2" fill="#080B16"/><path d="M27.024 4.359c.162.706.178 1.712-.04 2.833a8.301 8.301 0 0 1-.563 1.817h2.149c.154-.453.282-.934.379-1.433.258-1.33.263-2.629.026-3.668-.119-.518-.31-1.02-.6-1.43-.295-.417-.73-.787-1.322-.902-.59-.116-1.132.063-1.561.338-.423.272-.787.665-1.09 1.1-.609.874-1.088 2.08-1.346 3.41s-.264 2.629-.026 3.668c.119.518.309 1.02.6 1.43.295.417.73.787 1.321.902.59.116 1.133-.063 1.562-.338.163-.105.318-.228.463-.364-.056-.65-.526-1.314-1.263-1.574a1.48 1.48 0 0 1-.277.244.472.472 0 0 1-.1.05.468.468 0 0 1-.075-.084c-.092-.13-.199-.362-.28-.717-.162-.706-.178-1.712.04-2.833.216-1.12.607-2.047 1.02-2.641.208-.298.394-.473.528-.559a.479.479 0 0 1 .1-.051.48.48 0 0 1 .075.085c.092.13.199.362.28.717Z" fill="#FAA21E"/><path d="M26.985 7.192c.217-1.12.2-2.127.039-2.833-.081-.355-.188-.586-.28-.717a.484.484 0 0 0-.074-.085c.27-.138.583-.354 1.033.429.45.783.405 2.966-.405 5.023-.197.605-.494 1.136-.877 1.55-.419.46-.95.087-1.086-.117a.472.472 0 0 0 .1-.05c.078-.05.172-.129.278-.244.3.082.451.18.708.411.383-.414.68-.945.877-1.55h-.877c.23-.51.43-1.127.564-1.817Z" fill="#C57A09"/><path d="m21.087 32.703-.29-1.45L15 34l5.507-.717.58-.58Z" fill="#FAA21E"/><path d="m21.087 32.703-.29-1.45L15 34l5.507-.717.58-.58Z" fill="#fff" fill-opacity=".8"/><path d="m24.93 34.065-.945-2.232 4.44-1.262 2.223 1.27L35 38.001l-10.07-3.936Z" fill="#FAA21E"/><path d="m24.93 34.065-.945-2.232 4.44-1.262 2.223 1.27L35 38.001l-10.07-3.936Z" fill="#fff" fill-opacity=".8"/><path d="m28.333 30.094-2.029-1.739 3.391-9.855-1.362 11.594Z" fill="#FAA21E"/><path d="m28.333 30.094-2.029-1.739 3.391-9.855-1.362 11.594Z" fill="#fff" fill-opacity=".8"/><path d="m23.977 31.206.878-3.43 2.934 2.477-3.812.953Z" fill="#FAA21E"/><path d="m23.977 31.206.878-3.43 2.934 2.477-3.812.953Z" fill="#fff" fill-opacity=".8"/><path d="m22.826 36.181.87-3.768.87 2.03 1.449.579-3.189 1.16Z" fill="#FAA21E"/><path d="m22.826 36.181.87-3.768.87 2.03 1.449.579-3.189 1.16Z" fill="#fff" fill-opacity=".8"/><path d="m20.507 21.978-1.449-.87 3.188 15.073 1.096-4.34.643-2.616-3.478-7.247Z" fill="#FAA21E"/><path d="m20.507 21.978-1.449-.87 3.188 15.073 1.096-4.34.643-2.616-3.478-7.247Z" fill="#fff" fill-opacity=".8"/><path d="m19.03 23.233-.397-2.124-3.053 4.058 3.45-1.934Z" fill="#FAA21E"/><path d="m19.03 23.233-.397-2.124-3.053 4.058 3.45-1.934Z" fill="#fff" fill-opacity=".8"/></svg>