<?xml version="1.0" encoding="utf-8"?><svg fill="none" viewBox="0 0 50 50" xmlns="http://www.w3.org/2000/svg" width="50" height="50"><path d="M16.643 11.565h16.592c.917 0 1.764.49 2.222 1.284l8.296 14.368a2.567 2.567 0 0 1 0 2.566l-8.296 14.368a2.566 2.566 0 0 1-2.222 1.284H16.643c-.916 0-1.763-.49-2.221-1.284L6.126 29.783a2.567 2.567 0 0 1 0-2.566l8.296-14.368a2.566 2.566 0 0 1 2.221-1.284Z" fill="#C57A09"/><path d="M16.643 11.565h16.592c.917 0 1.764.49 2.222 1.284l8.296 14.368a2.567 2.567 0 0 1 0 2.566l-8.296 14.368a2.566 2.566 0 0 1-2.222 1.284H16.643c-.916 0-1.763-.49-2.221-1.284L6.126 29.783a2.567 2.567 0 0 1 0-2.566l8.296-14.368a2.566 2.566 0 0 1 2.221-1.284Z" stroke="#FAA21E" stroke-width="5.132"/><path d="M16.643 11.565h16.592c.917 0 1.764.49 2.222 1.284l8.296 14.368a2.567 2.567 0 0 1 0 2.566l-8.296 14.368a2.566 2.566 0 0 1-2.222 1.284H16.643c-.916 0-1.763-.49-2.221-1.284L6.126 29.783a2.567 2.567 0 0 1 0-2.566l8.296-14.368a2.566 2.566 0 0 1 2.221-1.284Z" stroke="#fff" stroke-opacity=".2" stroke-width="5.132"/><path d="M16.643 10.026h16.592c1.467 0 2.822.783 3.555 2.053l8.296 14.368a4.106 4.106 0 0 1 0 4.106L36.79 44.92a4.105 4.105 0 0 1-3.555 2.053H16.643a4.105 4.105 0 0 1-3.554-2.053L4.793 30.553a4.106 4.106 0 0 1 0-4.106l8.296-14.368a4.105 4.105 0 0 1 3.554-2.053Z" stroke="#FAA21E" stroke-width="2.053"/><path d="M16.643 10.026h16.592c1.467 0 2.822.783 3.555 2.053l8.296 14.368a4.106 4.106 0 0 1 0 4.106L36.79 44.92a4.105 4.105 0 0 1-3.555 2.053H16.643a4.105 4.105 0 0 1-3.554-2.053L4.793 30.553a4.106 4.106 0 0 1 0-4.106l8.296-14.368a4.105 4.105 0 0 1 3.554-2.053Z" stroke="#fff" stroke-opacity=".6" stroke-width="2.053"/><circle cx="25" cy="12" r="2" fill="#080B16"/><path d="M27.024 4.359c.162.706.178 1.712-.04 2.833a8.301 8.301 0 0 1-.563 1.817h2.149c.154-.453.282-.934.379-1.433.258-1.33.263-2.629.026-3.668-.119-.518-.31-1.02-.6-1.43-.295-.417-.73-.787-1.322-.902-.59-.116-1.132.063-1.561.338-.423.272-.787.665-1.09 1.1-.609.874-1.088 2.08-1.346 3.41s-.264 2.629-.026 3.668c.119.518.309 1.02.6 1.43.295.417.73.787 1.321.902.59.116 1.133-.063 1.562-.338.163-.105.318-.228.463-.364-.056-.65-.526-1.314-1.263-1.574a1.48 1.48 0 0 1-.277.244.472.472 0 0 1-.1.05.468.468 0 0 1-.075-.084c-.092-.13-.199-.362-.28-.717-.162-.706-.178-1.712.04-2.833.216-1.12.607-2.047 1.02-2.641.208-.298.394-.473.528-.559a.479.479 0 0 1 .1-.051.48.48 0 0 1 .075.085c.092.13.199.362.28.717Z" fill="#FAA21E"/><path d="M26.985 7.192c.217-1.12.2-2.127.039-2.833-.081-.355-.188-.586-.28-.717a.484.484 0 0 0-.074-.085c.27-.138.583-.354 1.033.429.45.783.405 2.966-.405 5.023-.197.605-.494 1.136-.877 1.55-.419.46-.95.087-1.086-.117a.472.472 0 0 0 .1-.05c.078-.05.172-.129.278-.244.3.082.451.18.708.411.383-.414.68-.945.877-1.55h-.877c.23-.51.43-1.127.564-1.817Z" fill="#C57A09"/><g clip-path="url(#aqma)"><path d="M16.25 21.551c.226-.226.905-.307 1.223-.307 1.358 0 4.345.181 5.432.905 1.358.906 8.284 7.325 9.054 9.055.536 1.204.453 3.848.453 4.98 0 .307 0 .844-.317 1.212" stroke="#FAA21E" stroke-width="1.494"/><path d="M16.25 21.551c.226-.226.905-.307 1.223-.307 1.358 0 4.345.181 5.432.905 1.358.906 8.284 7.325 9.054 9.055.536 1.204.453 3.848.453 4.98 0 .307 0 .844-.317 1.212" stroke="#fff" stroke-opacity=".8" stroke-width="1.494"/><path d="M20.969 32.532 32.75 20.75" stroke="#FAA21E" stroke-width=".996" stroke-linecap="round"/><path d="M20.969 32.532 32.75 20.75" stroke="#fff" stroke-opacity=".8" stroke-width=".996" stroke-linecap="round"/><path d="M32.75 24.75 28.5 20.5l5.5-1-1.25 5.25Z" fill="#FAA21E"/><path d="M32.75 24.75 28.5 20.5l5.5-1-1.25 5.25Z" fill="#fff" fill-opacity=".8"/><path d="M19.25 30.75h3.5v3.5l-3.5 3.5v-3.5h-3.5l3.5-3.5Z" fill="#FAA21E"/><path d="M19.25 30.75h3.5v3.5l-3.5 3.5v-3.5h-3.5l3.5-3.5Z" fill="#fff" fill-opacity=".8"/><path d="M19.25 30.75h3.5v3.5l-3.5 3.5v-3.5h-3.5l3.5-3.5Z" stroke="#FAA21E" stroke-width=".498"/><path d="M19.25 30.75h3.5v3.5l-3.5 3.5v-3.5h-3.5l3.5-3.5Z" stroke="#fff" stroke-opacity=".8" stroke-width=".498"/><path d="m17.155 21.419 14.94 14.94" stroke="#FAA21E" stroke-width=".498"/><path d="m17.155 21.419 14.94 14.94" stroke="#fff" stroke-opacity=".8" stroke-width=".498"/></g><defs><clipPath id="aqma"><path fill="#fff" transform="translate(15 18.5)" d="M0 0h20v20H0z"/></clipPath></defs></svg>