<svg width="50" height="50" viewBox="0 0 50 50" fill="none" xmlns="http://www.w3.org/2000/svg">
<path d="M14.3929 26.338C11.9071 24.0845 8.52381 19.0141 7.14286 16.7606C8.17857 19.0141 10.7679 24.0845 12.8393 26.338C15.4286 29.1549 22.1607 35.3521 23.7143 38.169C24.9571 40.4225 25.6131 42.8638 25.7857 43.8028C22.1607 43.9906 13.875 43.4648 9.73214 39.8592C4.55357 35.3521 3 29.1549 3 23.5211C3 19.0141 4.38095 12.6291 5.07143 10C7.66071 11.3146 14.1857 14.507 19.5714 16.7606C26.3036 19.5775 27.8571 25.2113 28.375 31.4085C28.7893 36.3662 28.2024 40.6103 27.8571 42.1127L32 47.1831L30.9643 50C29.5833 47.9343 26.6143 42.9014 25.7857 39.2958C24.75 34.7887 17.5 29.1549 14.3929 26.338Z" fill="#2FC4A7"/>
<path d="M14.3929 26.338C11.9071 24.0845 8.52381 19.0141 7.14286 16.7606C8.17857 19.0141 10.7679 24.0845 12.8393 26.338C15.4286 29.1549 22.1607 35.3521 23.7143 38.169C24.9571 40.4225 25.6131 42.8638 25.7857 43.8028C22.1607 43.9906 13.875 43.4648 9.73214 39.8592C4.55357 35.3521 3 29.1549 3 23.5211C3 19.0141 4.38095 12.6291 5.07143 10C7.66071 11.3146 14.1857 14.507 19.5714 16.7606C26.3036 19.5775 27.8571 25.2113 28.375 31.4085C28.7893 36.3662 28.2024 40.6103 27.8571 42.1127L32 47.1831L30.9643 50C29.5833 47.9343 26.6143 42.9014 25.7857 39.2958C24.75 34.7887 17.5 29.1549 14.3929 26.338Z" fill="black" fill-opacity="0.2"/>
<path d="M38.6756 13.4118C39.1309 9.83529 40.0036 6.70588 40.383 5.58824C39.6242 7.07843 37.9927 10.7294 37.5374 13.4118C36.9683 16.7647 36.9683 17.3235 35.83 22.3529C34.9356 26.3048 33.7432 29.9902 32.9844 31.2941C31.4667 29.8039 28.2036 25.5941 27.293 20.6765C26.1547 14.5294 28.4313 10.6176 32.4152 6.70588C35.6023 3.57647 40.9522 0.931373 43.2287 0C43.9875 2.23529 45.7328 8.04706 46.6435 13.4118C47.7817 20.1176 46.0743 22.9118 43.2287 26.2647C40.9522 28.9471 36.9682 31.1078 35.2608 31.8529L34.1226 37.4412L32.4152 38C32.4152 37.0686 32.8705 34.3118 34.6917 30.7353C36.9682 26.2647 38.1065 17.8824 38.6756 13.4118Z" fill="#2FC4A7"/>
<path d="M38.6756 13.4118C39.1309 9.83529 40.0036 6.70588 40.383 5.58824C39.6242 7.07843 37.9927 10.7294 37.5374 13.4118C36.9683 16.7647 36.9683 17.3235 35.83 22.3529C34.9356 26.3048 33.7432 29.9902 32.9844 31.2941C31.4667 29.8039 28.2036 25.5941 27.293 20.6765C26.1547 14.5294 28.4313 10.6176 32.4152 6.70588C35.6023 3.57647 40.9522 0.931373 43.2287 0C43.9875 2.23529 45.7328 8.04706 46.6435 13.4118C47.7817 20.1176 46.0743 22.9118 43.2287 26.2647C40.9522 28.9471 36.9682 31.1078 35.2608 31.8529L34.1226 37.4412L32.4152 38C32.4152 37.0686 32.8705 34.3118 34.6917 30.7353C36.9682 26.2647 38.1065 17.8824 38.6756 13.4118Z" fill="black" fill-opacity="0.4"/>
</svg>
