<svg width="50" height="50" viewBox="0 0 50 50" fill="none" xmlns="http://www.w3.org/2000/svg">
<g clip-path="url(#clip0_5540_10060)">
<path d="M13.2048 19.3385C2.93884 31.1587 3.74074 44.2011 5.42493 49.2447C4.25122 34.4526 15.0942 26.0561 24.7246 20.7906C34.3551 15.5251 41.3612 16.2193 43.6604 17.2246C44.6121 12.559 46.134 10.2533 50 6.5C41.6651 6.52392 23.4707 7.5182 13.2048 19.3385Z" fill="#FAA21E"/>
<path d="M13.2048 19.3385C2.93884 31.1587 3.74074 44.2011 5.42493 49.2447C4.25122 34.4526 15.0942 26.0561 24.7246 20.7906C34.3551 15.5251 41.3612 16.2193 43.6604 17.2246C44.6121 12.559 46.134 10.2533 50 6.5C41.6651 6.52392 23.4707 7.5182 13.2048 19.3385Z" fill="white" fill-opacity="0.2"/>
<path d="M1.89019 28.4492C-1.86429 38.278 2.89498 46.7765 5.74392 49.7971C3.56219 39.6386 6.04258 33.3447 8.617 28.617C11.835 22.7075 20.0254 13.9272 30.7677 9.56676C39.3615 6.07843 46.5322 6.66051 50 6.5L44.0588 0.0515375C40.683 0.158881 31.934 1.3795 23.944 5.40324C13.9564 10.4329 6.58329 16.1631 1.89019 28.4492Z" fill="#C57A09"/>
<path d="M23.944 5.40327C13.9564 10.4329 6.58327 16.1631 1.89018 28.4492C0.285327 32.6505 0.236048 36.6088 0.928214 40C1.51591e-05 30.5 5.32368 23.5954 9.00001 19C13 14 20.7147 7.93552 23.944 5.40327Z" fill="#FAA21E"/>
<path d="M23.944 5.40327C13.9564 10.4329 6.58327 16.1631 1.89018 28.4492C0.285327 32.6505 0.236048 36.6088 0.928214 40C1.51591e-05 30.5 5.32368 23.5954 9.00001 19C13 14 20.7147 7.93552 23.944 5.40327Z" fill="white" fill-opacity="0.6"/>
</g>
<defs>
<clipPath id="clip0_5540_10060">
<rect width="50" height="50" fill="white" transform="matrix(-1 0 0 1 50 0)"/>
</clipPath>
</defs>
</svg>
