<svg width="50" height="50" viewBox="0 0 50 50" fill="none" xmlns="http://www.w3.org/2000/svg">
<path d="M39.0016 24.9429L38.9984 25L39.0016 25.0571L39.9611 41.8477L26.3013 47.5H23.6987L10.0508 41.8526C10.4046 36.9996 11 27.3235 11 25C11 22.676 10.4042 13.0987 10.0506 8.16043L23.1257 3H26.8743L39.9604 8.16475L39.0016 24.9429Z" fill="#7445B8"/>
<path d="M39.0016 24.9429L38.9984 25L39.0016 25.0571L39.9611 41.8477L26.3013 47.5H23.6987L10.0508 41.8526C10.4046 36.9996 11 27.3235 11 25C11 22.676 10.4042 13.0987 10.0506 8.16043L23.1257 3H26.8743L39.9604 8.16475L39.0016 24.9429Z" fill="black" fill-opacity="0.4"/>
<path d="M39.0016 24.9429L38.9984 25L39.0016 25.0571L39.9611 41.8477L26.3013 47.5H23.6987L10.0508 41.8526C10.4046 36.9996 11 27.3235 11 25C11 22.676 10.4042 13.0987 10.0506 8.16043L23.1257 3H26.8743L39.9604 8.16475L39.0016 24.9429Z" stroke="#898989" stroke-width="2"/>
<path d="M39.0016 24.9429L38.9984 25L39.0016 25.0571L39.9611 41.8477L26.3013 47.5H23.6987L10.0508 41.8526C10.4046 36.9996 11 27.3235 11 25C11 22.676 10.4042 13.0987 10.0506 8.16043L23.1257 3H26.8743L39.9604 8.16475L39.0016 24.9429Z" stroke="white" stroke-opacity="0.8" stroke-width="2"/>
<path d="M13 10.5L24.5 6H25.5L37 10.5L36 25L37 39.5L25.5 44H24.5L13 39.5C13.2553 36.0146 14 26.8383 14 25C14 23.1617 13.5 14 13 10.5Z" fill="#7445B8"/>
<path d="M11.5 10L38.5 40M11.5 25H40M11.5 40L38.5 10M25 3V46.5" stroke="#898989" stroke-width="2"/>
<path d="M11.5 10L38.5 40M11.5 25H40M11.5 40L38.5 10M25 3V46.5" stroke="white" stroke-opacity="0.8" stroke-width="2"/>
<path d="M23 1.33333C24.0787 0.894516 24.5165 0.615757 25 0V8C23.9719 5.9562 23.5309 5.07611 23 1.33333Z" fill="#FAA21E"/>
<path d="M27 1.33333C25.9213 0.894516 25.4835 0.615757 25 0V8C26.0281 5.9562 26.4691 5.07611 27 1.33333Z" fill="#C57A09"/>
<path d="M15.1165 4.90037C15.9087 4.04678 16.1876 3.60914 16.3656 2.84672L19.7465 10.0972C17.951 8.67938 17.1794 8.06808 15.1165 4.90037Z" fill="#FAA21E"/>
<path d="M18.7417 3.20988C17.5786 3.26806 17.0641 3.20041 16.3656 2.8467L19.7466 10.0972C19.8146 7.81035 19.8423 6.82637 18.7417 3.20988Z" fill="#C57A09"/>
<path d="M18.7417 46.734C17.5786 46.6758 17.0641 46.7434 16.3656 47.0971L19.7466 39.8467C19.8146 42.1335 19.8423 43.1175 18.7417 46.734Z" fill="#FAA21E"/>
<path d="M15.1165 45.0435C15.9087 45.8971 16.1876 46.3347 16.3656 47.0971L19.7465 39.8467C17.951 41.2645 17.1794 41.8758 15.1165 45.0435Z" fill="#C57A09"/>
<path d="M31.2602 3.15635C32.4233 3.21453 32.9379 3.14689 33.6363 2.79317L30.2554 10.0436C30.1873 7.75682 30.1597 6.77284 31.2602 3.15635Z" fill="#FAA21E"/>
<path d="M34.8855 4.84684C34.0933 3.99325 33.8144 3.55561 33.6364 2.79319L30.2554 10.0437C32.051 8.62585 32.8225 8.01456 34.8855 4.84684Z" fill="#C57A09"/>
<path d="M34.8855 45.1011C34.0933 45.9547 33.8144 46.3923 33.6364 47.1547L30.2554 39.9043C32.051 41.3221 32.8225 41.9334 34.8855 45.1011Z" fill="#FAA21E"/>
<path d="M31.2602 46.7916C32.4233 46.7334 32.9379 46.8011 33.6363 47.1548L30.2554 39.9043C30.1873 42.1911 30.1597 43.1751 31.2602 46.7916Z" fill="#C57A09"/>
<path d="M9.33333 27C8.89452 25.9213 8.61576 25.4835 8 25H16C13.9562 26.0281 13.0761 26.4691 9.33333 27Z" fill="#FAA21E"/>
<path d="M9.33333 23C8.89452 24.0787 8.61576 24.5165 8 25H16C13.9562 23.9719 13.0761 23.5309 9.33333 23Z" fill="#C57A09"/>
<path d="M8.83333 35C8.39452 33.9213 8.11576 33.4835 7.5 33H15.5C13.4562 34.0281 12.5761 34.4691 8.83333 35Z" fill="#FAA21E"/>
<path d="M8.83333 31C8.39452 32.0787 8.11576 32.5165 7.5 33H15.5C13.4562 31.9719 12.5761 31.5309 8.83333 31Z" fill="#C57A09"/>
<path d="M8.83333 19C8.39452 17.9213 8.11576 17.4835 7.5 17H15.5C13.4562 18.0281 12.5761 18.4691 8.83333 19Z" fill="#FAA21E"/>
<path d="M8.83333 15C8.39452 16.0787 8.11576 16.5165 7.5 17H15.5C13.4562 15.9719 12.5761 15.5309 8.83333 15Z" fill="#C57A09"/>
<path d="M40.6667 23C41.1055 24.0787 41.3842 24.5165 42 25H34C36.0438 23.9719 36.9239 23.5309 40.6667 23Z" fill="#FAA21E"/>
<path d="M40.6667 27C41.1055 25.9213 41.3842 25.4835 42 25H34C36.0438 26.0281 36.9239 26.4691 40.6667 27Z" fill="#C57A09"/>
<path d="M41.1667 31C41.6055 32.0787 41.8842 32.5165 42.5 33H34.5C36.5438 31.9719 37.4239 31.5309 41.1667 31Z" fill="#FAA21E"/>
<path d="M41.1667 35C41.6055 33.9213 41.8842 33.4835 42.5 33H34.5C36.5438 34.0281 37.4239 34.4691 41.1667 35Z" fill="#C57A09"/>
<path d="M41.1667 15C41.6055 16.0787 41.8842 16.5165 42.5 17H34.5C36.5438 15.9719 37.4239 15.5309 41.1667 15Z" fill="#FAA21E"/>
<path d="M41.1667 19C41.6055 17.9213 41.8842 17.4835 42.5 17H34.5C36.5438 18.0281 37.4239 18.4691 41.1667 19Z" fill="#C57A09"/>
<path d="M7.94281 9.27124C8.39528 8.19818 8.50771 7.69154 8.41421 6.91422L14.0711 12.5711C11.8989 11.8529 10.9648 11.5423 7.94281 9.27124Z" fill="#FAA21E"/>
<path d="M10.7712 6.44281C9.69812 6.89528 9.19148 7.00771 8.41416 6.91421L14.071 12.5711C13.3528 10.3989 13.0423 9.46478 10.7712 6.44281Z" fill="#C57A09"/>
<path d="M10.7712 43.5425C9.69812 43.09 9.19148 42.9776 8.41416 43.0711L14.071 37.4142C13.3528 39.5864 13.0423 40.5205 10.7712 43.5425Z" fill="#FAA21E"/>
<path d="M7.94281 40.7141C8.39528 41.7871 8.50771 42.2938 8.41421 43.0711L14.0711 37.4142C11.8989 38.1324 10.9648 38.4429 7.94281 40.7141Z" fill="#C57A09"/>
<path d="M42.0848 40.7404C41.6323 41.8135 41.5199 42.3201 41.6134 43.0974L35.9565 37.4406C38.1287 38.1588 39.0628 38.4693 42.0848 40.7404Z" fill="#FAA21E"/>
<path d="M39.2564 43.5688C40.3295 43.1164 40.8361 43.004 41.6134 43.0974L35.9566 37.4406C36.6748 39.6128 36.9853 40.5469 39.2564 43.5688Z" fill="#C57A09"/>
<path d="M39.1378 6.40686C40.2108 6.85934 40.7175 6.97176 41.4948 6.87826L35.8379 12.5351C36.5561 10.3629 36.8667 9.42883 39.1378 6.40686Z" fill="#FAA21E"/>
<path d="M41.9661 9.23529C41.5137 8.16223 41.4012 7.65559 41.4947 6.87827L35.8379 12.5351C38.01 11.8169 38.9442 11.5064 41.9661 9.23529Z" fill="#C57A09"/>
<path d="M27 48.6667C25.9213 49.1055 25.4835 49.3842 25 50V42C26.0281 44.0438 26.4691 44.9239 27 48.6667Z" fill="#FAA21E"/>
<path d="M23 48.6667C24.0787 49.1055 24.5165 49.3842 25 50V42C23.9719 44.0438 23.5309 44.9239 23 48.6667Z" fill="#C57A09"/>
</svg>
