<svg width="50" height="50" viewBox="0 0 50 50" fill="none" xmlns="http://www.w3.org/2000/svg">
<path d="M31 0.5C25.3842 2.28399 24.3304 2.31905 18.5 0.5C19.0238 2 18.4333 4.8 15.5 6C12.5667 7.2 8.4127 5.5 7.19048 4.5L3 12.5C5.96825 13.8333 11.381 18.1 11.381 24.5C11.381 30.9 5.79365 35.5 3 37L6.33929 43.5C7.49603 42.8333 11.5119 42 16.619 43.5C22.0667 45.1 24.4762 48.5 25 50C25.5238 48.5 28.6667 45 33.381 43.5C37.1655 42.2958 41.7619 42.8333 43.8571 43.5L47 37C44.2063 35.8333 38.619 31.7 38.619 24.5C38.619 17.3 44.2063 13.5 47 12.5L42.2857 4.5C41.5873 5.66667 38.0357 7.5 34.5 6C31.3571 4.66667 30.4762 1.83333 31 0.5Z" fill="#7445B8"/>
<path d="M31 0.5C25.3842 2.28399 24.3304 2.31905 18.5 0.5C19.0238 2 18.4333 4.8 15.5 6C12.5667 7.2 8.4127 5.5 7.19048 4.5L3 12.5C5.96825 13.8333 11.381 18.1 11.381 24.5C11.381 30.9 5.79365 35.5 3 37L6.33929 43.5C7.49603 42.8333 11.5119 42 16.619 43.5C22.0667 45.1 24.4762 48.5 25 50C25.5238 48.5 28.6667 45 33.381 43.5C37.1655 42.2958 41.7619 42.8333 43.8571 43.5L47 37C44.2063 35.8333 38.619 31.7 38.619 24.5C38.619 17.3 44.2063 13.5 47 12.5L42.2857 4.5C41.5873 5.66667 38.0357 7.5 34.5 6C31.3571 4.66667 30.4762 1.83333 31 0.5Z" fill="white" fill-opacity="0.2"/>
<path d="M20 28C21.5 18 17.6667 15.3333 16.5 14L24.5 5.5L33.5 14C32.1667 15.3333 28.5 15.5 29.5 28C29.9147 33.1834 31.5 34.3333 32.5 36C31.3333 36.6667 28.7 38.6 27.5 41C26 44 24 44.6 22 41C20 37.4 17.5 36.1667 16.5 36C17.6667 34.3333 19.2286 33.1425 20 28Z" fill="#7445B8"/>
<path d="M24.795 2.33051C22.134 2.33051 20.4957 1.9435 18.4999 1.5C18.7217 2.38701 17.0645 4.06018 16 5.65679C14.6694 7.65256 9 9.64833 10.1595 11.6441C11.3644 13.7181 15.7033 10.7571 16.812 9.64833C15.4815 10.9788 13.4857 15.3031 14.8162 16.3009C16.812 17.7978 19.2513 13.8616 20.1383 11.6441C19.473 13.6399 19.473 18.9619 21.4688 18.9619C23.4646 18.9619 24.7951 14.0834 24.7951 12.3094C25.0168 14.3051 26.6578 19.4941 28.7866 18.9619C30.9154 18.4297 29.6736 13.4181 29.4519 11.6441C30.1171 13.4181 33.1773 16.8331 34.7739 16.3009C36.3705 15.7687 34.1087 11.4223 33.4434 9.64833C34.7739 10.7571 38.3663 12.7085 39.4307 11.6441C41.4264 9.64833 35.4393 6.99577 33.4434 5C32.1128 3.66949 30.4999 2.38701 30.4999 1.5C28.5042 1.9435 27.4561 2.33051 24.795 2.33051Z" fill="#7445B8"/>
<path d="M24.795 2.33051C22.134 2.33051 20.4957 1.9435 18.4999 1.5C18.7217 2.38701 17.0645 4.06018 16 5.65679C14.6694 7.65256 9 9.64833 10.1595 11.6441C11.3644 13.7181 15.7033 10.7571 16.812 9.64833C15.4815 10.9788 13.4857 15.3031 14.8162 16.3009C16.812 17.7978 19.2513 13.8616 20.1383 11.6441C19.473 13.6399 19.473 18.9619 21.4688 18.9619C23.4646 18.9619 24.7951 14.0834 24.7951 12.3094C25.0168 14.3051 26.6578 19.4941 28.7866 18.9619C30.9154 18.4297 29.6736 13.4181 29.4519 11.6441C30.1171 13.4181 33.1773 16.8331 34.7739 16.3009C36.3705 15.7687 34.1087 11.4223 33.4434 9.64833C34.7739 10.7571 38.3663 12.7085 39.4307 11.6441C41.4264 9.64833 35.4393 6.99577 33.4434 5C32.1128 3.66949 30.4999 2.38701 30.4999 1.5C28.5042 1.9435 27.4561 2.33051 24.795 2.33051Z" fill="white" fill-opacity="0.6"/>
<path d="M25 1C23 1 19.5 0.333333 18 0C18.1667 0.666667 17.8 2.8 17 4C15.9999 5.5 13.2156 6.82325 14 8C15 9.5 18.1667 7.33333 19 6.5C18 7.5 16.5 10.75 17.5 11.5C19 12.625 20.8334 9.66667 21.5 8C21 9.5 21 13.5 22.5 13.5C24 13.5 25 9.83333 25 8.5C25.1667 10 26.4 13.9 28 13.5C29.6 13.1 28.6667 9.33333 28.5 8C29 9.33333 31.3 11.9 32.5 11.5C33.7 11.1 32 7.83333 31.5 6.5C32.5 7.33333 35.2 8.8 36 8C36.8 7.2 34.5001 5.5 33 4C32 3.00004 32 0.666845 32 7.62848e-05V0C30.5 0.333333 27 1 25 1Z" fill="#FEFEFE"/>
</svg>
