<svg width="50" height="50" viewBox="0 0 50 50" fill="none" xmlns="http://www.w3.org/2000/svg">
<g clip-path="url(#clip0_4692_7663)">
<path d="M13 19.5L7 3.5L14 1.5L20 0.5C20.6667 1.66667 24 6 28 6C32 6 34.5 2.5 35 0.5L39.5 1.5L43 3L37.5 17.5V31.5L39.5 46.5L25.5 46L26 31.5L23.5 46L9 46.5L13.5 32L13 19.5Z" fill="#7445B8"/>
<path d="M13 19.5L7 3.5L14 1.5L20 0.5C20.6667 1.66667 24 6 28 6C32 6 34.5 2.5 35 0.5L39.5 1.5L43 3L37.5 17.5V31.5L39.5 46.5L25.5 46L26 31.5L23.5 46L9 46.5L13.5 32L13 19.5Z" fill="black" fill-opacity="0.2"/>
<path d="M16.3333 17.5C14.25 18 12.6875 18 12.1667 17C12.1667 17 14.25 25 13.2083 30C12.1667 35 8 47 8 47L12.6875 48C12.6875 48 16.3333 38 16.8542 31C17.375 24 16.3333 17.5 16.3333 17.5Z" fill="#7445B8"/>
<path d="M14 1.5C12.4 1.9 8.66667 3 7 3.5C8 4.16667 10.2 5.8 11 7C12 8.5 16 15 16.5 17C17 19 17.5 25 17.5 29.5C17.5 33.1 14.8333 43.3333 13.5 48C14.5 48.1667 17 48.6 19 49C21 49.4 26.5 49.8333 29 50L30 29C29.3333 25.5 27.8 17.8 27 15C26.2 12.2 22.3333 3.83333 20.5 0C19 0.333333 15.6 1.1 14 1.5Z" fill="#7445B8"/>
<path d="M14 1.5C12.4 1.9 8.66667 3 7 3.5C8 4.16667 10.2 5.8 11 7C12 8.5 16 15 16.5 17C17 19 17.5 25 17.5 29.5C17.5 33.1 14.8333 43.3333 13.5 48C14.5 48.1667 17 48.6 19 49C21 49.4 26.5 49.8333 29 50L30 29C29.3333 25.5 27.8 17.8 27 15C26.2 12.2 22.3333 3.83333 20.5 0C19 0.333333 15.6 1.1 14 1.5Z" fill="white" fill-opacity="0.2"/>
<path d="M32 14.5C31.6 17.7 30.5 25.5 30 29C30 31.8 30.6667 44.1667 31 50C32.3333 49.8333 35.3 49.4 36.5 49C37.7 48.6 39.6667 47.1667 40.5 46.5C39.5 41.8333 37.5 31.6 37.5 28C37.5 23.5 37.5 21 38 16.5C38.4 12.9 41.5 6 43 3C42.1667 2.66667 40.3 1.9 39.5 1.5C38.7 1.1 36.1667 0.333333 35 0C34.1667 3.5 32.4 11.3 32 14.5Z" fill="#7445B8"/>
<path d="M32 14.5C31.6 17.7 30.5 25.5 30 29C30 31.8 30.6667 44.1667 31 50C32.3333 49.8333 35.3 49.4 36.5 49C37.7 48.6 39.6667 47.1667 40.5 46.5C39.5 41.8333 37.5 31.6 37.5 28C37.5 23.5 37.5 21 38 16.5C38.4 12.9 41.5 6 43 3C42.1667 2.66667 40.3 1.9 39.5 1.5C38.7 1.1 36.1667 0.333333 35 0C34.1667 3.5 32.4 11.3 32 14.5Z" fill="white" fill-opacity="0.2"/>
<path d="M19.9999 3.22938e-08C22.0872 3.13302 23.6827 11.012 25.3715 14.8665C27.0602 18.721 29.1607 25.7282 29.9999 28.5C27.8437 27.738 22.9999 26.76 22.9999 24.5C22.9999 23.4941 25.4552 24.4776 27.5533 24.74C25.5864 24.1248 20.6741 22.4988 20.4999 21C20.3256 19.5012 22.3136 19.9159 25.9999 20.5C22.2555 19.4163 18.6742 18.4988 18.4999 17C18.3256 15.5012 20.9688 15.8979 24.4999 16.5C20.002 15.733 16.1742 14.9988 15.9999 13.5C15.8256 12.0012 19.6799 12.085 22.9999 12.5C18.9999 12 14.1741 11.4988 13.9999 10C13.7676 8.00158 18.0118 8.5 21.4999 8.5C18.0118 8 11.6742 7.99881 11.4999 6.5C11.3511 5.22026 13.5852 4.7375 16.5002 4.57428C12.506 4.67919 9.13995 4.70474 8.99991 3.50002C8.8257 2.00121 13.4998 0.999975 19.9999 3.22938e-08Z" fill="#7445B8"/>
<path d="M19.9999 3.22938e-08C22.0872 3.13302 23.6827 11.012 25.3715 14.8665C27.0602 18.721 29.1607 25.7282 29.9999 28.5C27.8437 27.738 22.9999 26.76 22.9999 24.5C22.9999 23.4941 25.4552 24.4776 27.5533 24.74C25.5864 24.1248 20.6741 22.4988 20.4999 21C20.3256 19.5012 22.3136 19.9159 25.9999 20.5C22.2555 19.4163 18.6742 18.4988 18.4999 17C18.3256 15.5012 20.9688 15.8979 24.4999 16.5C20.002 15.733 16.1742 14.9988 15.9999 13.5C15.8256 12.0012 19.6799 12.085 22.9999 12.5C18.9999 12 14.1741 11.4988 13.9999 10C13.7676 8.00158 18.0118 8.5 21.4999 8.5C18.0118 8 11.6742 7.99881 11.4999 6.5C11.3511 5.22026 13.5852 4.7375 16.5002 4.57428C12.506 4.67919 9.13995 4.70474 8.99991 3.50002C8.8257 2.00121 13.4998 0.999975 19.9999 3.22938e-08Z" fill="white" fill-opacity="0.6"/>
<path d="M27 15C25.8 11 22.1667 3.33333 20.5 0C16.8333 0.666667 13 1 13 2.5C13 4 16 4 21 4.5C17 4.5 15.5 4.30294 15.5 6C15.5 7.5 19 8 22.5 8.5C19.5 8.5 17.5001 8 17.5 10C17.4999 11.5 21 12 24.4999 12.5L24.5 12.5C21.5 12.5 19 12 19 13.5C19 15 21.7355 15.7262 26.0001 17C22.6522 16 21 16 21 17.5C21 19 23.5 19.5 27.0001 21C23.5 20 22.5 20 22.5 21.5C22.5 23 26.1666 24.1667 28 25C26.0001 24.5 24.5 24 24.5 25C24.5 26.5 28 27.5 30 28.5C29.5 25.6667 28.2 19 27 15Z" fill="#FEFEFE"/>
<path d="M32.467 14.8665C33.3671 11.012 33.8876 3.133 35.0001 -2.11471e-05C38.5001 1 41.0621 2 41.0001 2.99998C40.9072 4.49879 39.139 4.5934 36.3898 4.5C38.5644 4.9744 39.6052 4.80429 39.5001 6.5C39.4072 7.99881 36.9339 8.4155 35.0001 8.5C36.6311 8.8558 38.6239 8.00158 38.5001 10C38.4073 11.4988 35.9339 12.4155 34.0001 12.5C36.0001 12.5 37.593 12.0012 37.5001 13.5C37.4072 14.9988 35.3975 15.733 33.0001 16.5C34.8822 15.8979 36.4826 16.0012 36.3898 17.5C36.2969 18.9988 34.0912 19.778 32.0955 20.8617C34.0001 20 35.593 19.5012 35.5001 21C35.4072 22.4988 33.5001 24 31.3041 24.74C32.4224 24.4775 33.5407 24.2152 33.4788 25.2144C33.3859 26.7132 31.1494 27.738 30.0001 28.5C30.4474 25.7282 31.5669 18.721 32.467 14.8665Z" fill="#7445B8"/>
<path d="M32.467 14.8665C33.3671 11.012 33.8876 3.133 35.0001 -2.11471e-05C38.5001 1 41.0621 2 41.0001 2.99998C40.9072 4.49879 39.139 4.5934 36.3898 4.5C38.5644 4.9744 39.6052 4.80429 39.5001 6.5C39.4072 7.99881 36.9339 8.4155 35.0001 8.5C36.6311 8.8558 38.6239 8.00158 38.5001 10C38.4073 11.4988 35.9339 12.4155 34.0001 12.5C36.0001 12.5 37.593 12.0012 37.5001 13.5C37.4072 14.9988 35.3975 15.733 33.0001 16.5C34.8822 15.8979 36.4826 16.0012 36.3898 17.5C36.2969 18.9988 34.0912 19.778 32.0955 20.8617C34.0001 20 35.593 19.5012 35.5001 21C35.4072 22.4988 33.5001 24 31.3041 24.74C32.4224 24.4775 33.5407 24.2152 33.4788 25.2144C33.3859 26.7132 31.1494 27.738 30.0001 28.5C30.4474 25.7282 31.5669 18.721 32.467 14.8665Z" fill="white" fill-opacity="0.6"/>
<path d="M31.5882 15C32.2235 11 34.1471 3.33333 35.0294 0C36.9706 0.666667 39 1.71944 39 2.5C39 4 37.4118 4 34.7647 4.5C36.8824 4.5 38.2059 4.30294 38.2059 6C38.2059 7.5 35.8235 8 33.9706 8.5C35.5588 8.5 37.4117 8 37.4118 10C37.4118 11.5 34.7647 12 32.9118 12.5C34.5 12.5 36.3529 12 36.3529 13.5C36.3529 15 34.3753 15.7262 32.1176 17C33.89 16 35.5588 16 35.5588 17.5C35.5588 19 33.4412 19.5 31.5882 21C33.4412 20 34.7647 20 34.7647 21.5C34.7647 23 32.0294 24.1667 31.0588 25C32.1176 24.5 33.1765 24 33.1765 25C33.1765 26.5 31.0588 27.5 30 28.5C30.2647 25.6667 30.9529 19 31.5882 15Z" fill="#FEFEFE"/>
<path d="M37.5 27C33.0574 28.7388 25.3506 28.9263 13.3984 27L13 30.8527C24.4542 32.2974 31.7544 32.6125 37.7 31L37.5 27Z" fill="#7445B8"/>
<path d="M37.5 27C33.0574 28.7388 25.3506 28.9263 13.3984 27L13 30.8527C24.4542 32.2974 31.7544 32.6125 37.7 31L37.5 27Z" fill="black" fill-opacity="0.2"/>
</g>
<defs>
<clipPath id="clip0_4692_7663">
<rect width="50" height="50" fill="white"/>
</clipPath>
</defs>
</svg>
