<svg width="50" height="50" viewBox="0 0 50 50" fill="none" xmlns="http://www.w3.org/2000/svg">
<path d="M25.5 2C21.5 2 16.1667 0.833333 13 0.5C12.5 3 10.2 10.1 9 16.5C7.8 22.9 6.83333 40.5 6.5 48.5L24 50L27.5 20L29 50L43 48.5C42.6667 39.5 41.9 20.8 41.5 18C41.1 15.2 38.6667 5.16667 37.5 0.5C35.8333 0.833333 29.5 2 25.5 2Z" fill="#7445B8"/>
<path d="M25.5 2C21.5 2 16.1667 0.833333 13 0.5C12.5 3 10.2 10.1 9 16.5C7.8 22.9 6.83333 40.5 6.5 48.5L24 50L27.5 20L29 50L43 48.5C42.6667 39.5 41.9 20.8 41.5 18C41.1 15.2 38.6667 5.16667 37.5 0.5C35.8333 0.833333 29.5 2 25.5 2Z" fill="white" fill-opacity="0.2"/>
<path d="M13.5 7L12 5C10 9.5 8.4 19.2 8 24C7.6 28.8 6.83333 42.3333 6.5 48.5L9 48.7C9.16667 43.5333 9.7 31.2 10.5 24C11.3 16.8 12.8333 9.66667 13.5 7Z" fill="#7445B8"/>
<path d="M24.9346 6.96227C22.3332 6.96227 18.1708 6.48113 12.4475 6C12.4474 6.48113 11.797 7.92453 11.4069 9.36793C11.0168 10.8113 8.02433 13.8581 9.32571 14.6604C10.8866 15.6227 13.4881 12.7359 14.5286 11.2925C14.0084 12.7359 12.4475 16.1038 14.0083 16.5849C16.0299 17.2081 17.3916 13.9144 18.1707 12.2547C17.6505 14.1793 17.6506 17.1864 19.2114 17.5472C20.7722 17.908 21.8129 14.6604 22.3331 12.523C22.8535 14.6604 22.8534 18.0283 24.9346 17.9998C26.8532 17.9735 27.0158 14.6604 27.0158 12.523C27.5361 14.6604 29.2555 17.9455 30.6578 17.5472C32.0602 17.1489 31.7625 13.1013 31.1782 11.7736C32.1275 13.9306 33.7797 17.0661 35.8608 16.5849C37.5546 16.1933 35.3406 11.2925 35.3406 11.2925C35.3406 11.2925 38.4624 16.1038 40.5435 15.1415C42.0152 14.461 39.5029 10.3302 38.9826 8.8868L37.9421 6C36.1891 6.33193 27.2719 6.96227 24.9346 6.96227Z" fill="#7445B8"/>
<path d="M24.9346 6.96227C22.3332 6.96227 18.1708 6.48113 12.4475 6C12.4474 6.48113 11.797 7.92453 11.4069 9.36793C11.0168 10.8113 8.02433 13.8581 9.32571 14.6604C10.8866 15.6227 13.4881 12.7359 14.5286 11.2925C14.0084 12.7359 12.4475 16.1038 14.0083 16.5849C16.0299 17.2081 17.3916 13.9144 18.1707 12.2547C17.6505 14.1793 17.6506 17.1864 19.2114 17.5472C20.7722 17.908 21.8129 14.6604 22.3331 12.523C22.8535 14.6604 22.8534 18.0283 24.9346 17.9998C26.8532 17.9735 27.0158 14.6604 27.0158 12.523C27.5361 14.6604 29.2555 17.9455 30.6578 17.5472C32.0602 17.1489 31.7625 13.1013 31.1782 11.7736C32.1275 13.9306 33.7797 17.0661 35.8608 16.5849C37.5546 16.1933 35.3406 11.2925 35.3406 11.2925C35.3406 11.2925 38.4624 16.1038 40.5435 15.1415C42.0152 14.461 39.5029 10.3302 38.9826 8.8868L37.9421 6C36.1891 6.33193 27.2719 6.96227 24.9346 6.96227Z" fill="white" fill-opacity="0.6"/>
<path d="M25 1.5C22.5 1.5 18.5 1 13 0.5C12.9999 1 12.3749 2.5 12 4C11.6251 5.5 8.74941 8.66626 10 9.5C11.5 10.5 14 7.5 14.9999 6C14.5 7.5 13 11 14.4999 11.5C16.4426 12.1476 17.7512 8.72474 18.4999 7C18 9 18.0001 12.125 19.5 12.5C20.9999 12.875 22 9.5 22.4999 7.27874C23 9.5 22.9999 13 24.9999 12.9704C26.8437 12.9431 27 9.5 27 7.27874C27.5 9.5 29.1523 12.9139 30.4999 12.5C31.8476 12.0861 31.5615 7.87979 31 6.5C31.9122 8.74158 33.5 12 35.4999 11.5C37.1276 11.0931 35 6 35 6C35 6 38 11 39.9999 10C41.4142 9.29284 39 6 38.5 4.5C37.6938 2.08132 38 2 37.5 0.5C35.8154 0.844948 27.2461 1.5 25 1.5Z" fill="#FEFEFE"/>
</svg>
