<svg width="51" height="51" viewBox="0 0 51 51" fill="none" xmlns="http://www.w3.org/2000/svg">
<path d="M47.5672 23.2222L24.8292 23.8525V33.8011C23.6855 33.6105 20.4833 33.6867 16.8236 35.5166C13.1639 37.3464 12.7428 42.1316 14.6337 45.2831C17.6834 45.6643 19.8646 45.9134 27.8702 45.9134C35.5899 45.9134 42.2786 44.7849 45.5189 44.0225L47.5672 23.2222Z" fill="#FAA21E"/>
<path d="M47.5672 23.2222L24.8292 23.8525V33.8011C23.6855 33.6105 20.4833 33.6867 16.8236 35.5166C13.1639 37.3464 12.7428 42.1316 14.6337 45.2831C17.6834 45.6643 19.8646 45.9134 27.8702 45.9134C35.5899 45.9134 42.2786 44.7849 45.5189 44.0225L47.5672 23.2222Z" fill="black" fill-opacity="0.6"/>
<path d="M28.6814 47.174C22.0048 47.174 15.9159 46.4864 14.0034 46.1426V44.0225C16.0898 44.2517 22.4221 44.7674 28.6814 44.7674C34.9407 44.7674 42.9109 43.8506 45.5189 43.3922V46.1426C43.0847 46.4864 35.358 47.174 28.6814 47.174Z" fill="#FAA21E"/>
<path d="M28.6814 47.174C22.0048 47.174 15.9159 46.4864 14.0034 46.1426V44.0225C16.0898 44.2517 22.4221 44.7674 28.6814 44.7674C34.9407 44.7674 42.9109 43.8506 45.5189 43.3922V46.1426C43.0847 46.4864 35.358 47.174 28.6814 47.174Z" fill="black" fill-opacity="0.4"/>
<path d="M36.2216 27.0041C32.1372 27.0041 26.9561 27.5643 24.876 27.8445V35.1981L27.8963 32.2295L28.8926 36.2147L31.3833 33.2258L32.8778 37.211L34.3722 32.7277L36.3648 36.7129L38.3574 34.7203L40.35 36.7129L41.8445 33.7274L43.3389 37.7092L44.8333 32.7277L46.3278 37.211L47.5672 27.0041C45.4872 26.8173 40.306 27.0041 36.2216 27.0041Z" fill="#FAA21E"/>
<path d="M36.2216 27.0041C32.1372 27.0041 26.9561 27.5643 24.876 27.8445V35.1981L27.8963 32.2295L28.8926 36.2147L31.3833 33.2258L32.8778 37.211L34.3722 32.7277L36.3648 36.7129L38.3574 34.7203L40.35 36.7129L41.8445 33.7274L43.3389 37.7092L44.8333 32.7277L46.3278 37.211L47.5672 27.0041C45.4872 26.8173 40.306 27.0041 36.2216 27.0041Z" fill="black" fill-opacity="0.4"/>
<path d="M36.8519 19.4402C33.4188 19.4402 26.1367 20.0706 23.6154 21.4615L24.5909 29.7778L27.118 27.5097L29.8889 31.2332L30.8852 28.2443L32.8778 30.2369L34.8704 28.7425L36.3648 31.2332L38.3574 27.7462L39.8519 31.2332L41.8445 28.2443L43.837 30.2369L44.6258 27.0039L47.6273 29.7778L48.8279 20.7054C45.8264 19.4402 40.2851 19.4402 36.8519 19.4402Z" fill="#C57A09"/>
<path d="M35.1343 16.2888C30.6547 16.2888 24.4951 16.6888 23.6154 17.5493C22.7358 18.4099 23.4046 21.8683 23.6154 24.4828L25.9037 21.3312L27.3982 23.9457L29.3908 21.7974L30.8852 25.2554L32.8778 22.7647L34.3723 24.2591L35.8667 21.3312L38.3574 25.2554L40.35 21.2702L41.3463 24.7573L42.8408 22.2665L44.989 24.4828L46.3278 21.7974L48.8279 23.8525C48.8279 21.9616 49.4798 18.7615 48.1976 17.5494C46.9153 16.3373 39.614 16.2888 35.1343 16.2888Z" fill="#FAA21E"/>
<path d="M35.1343 16.2888C30.6547 16.2888 24.4951 16.6888 23.6154 17.5493C22.7358 18.4099 23.4046 21.8683 23.6154 24.4828L25.9037 21.3312L27.3982 23.9457L29.3908 21.7974L30.8852 25.2554L32.8778 22.7647L34.3723 24.2591L35.8667 21.3312L38.3574 25.2554L40.35 21.2702L41.3463 24.7573L42.8408 22.2665L44.989 24.4828L46.3278 21.7974L48.8279 23.8525C48.8279 21.9616 49.4798 18.7615 48.1976 17.5494C46.9153 16.3373 39.614 16.2888 35.1343 16.2888Z" fill="black" fill-opacity="0.1"/>
<path fill-rule="evenodd" clip-rule="evenodd" d="M36.2612 13.7921C31.5794 13.8372 23.0622 14.1488 21.4204 15.7906C19.132 18.079 22.4167 31.2332 22.4167 31.2332C19.0477 31.3147 17.149 31.794 15.4648 32.9586C8.6269 32.9296 6.53191 32.6885 3.67441 32.3313C1.78347 29.1797 2.2046 24.3946 5.86431 22.5647C9.52401 20.7349 12.7263 20.6587 13.8699 20.8493V10.9007L36.608 10.2704L36.2612 13.7921Z" fill="#FAA21E"/>
<path fill-rule="evenodd" clip-rule="evenodd" d="M36.2612 13.7921C31.5794 13.8372 23.0622 14.1488 21.4204 15.7906C19.132 18.079 22.4167 31.2332 22.4167 31.2332C19.0477 31.3147 17.149 31.794 15.4648 32.9586C8.6269 32.9296 6.53191 32.6885 3.67441 32.3313C1.78347 29.1797 2.2046 24.3946 5.86431 22.5647C9.52401 20.7349 12.7263 20.6587 13.8699 20.8493V10.9007L36.608 10.2704L36.2612 13.7921Z" fill="black" fill-opacity="0.6"/>
<path fill-rule="evenodd" clip-rule="evenodd" d="M17.8499 31.8154C16.339 32.2685 15.2182 33.0127 14.0193 34.1553C8.89067 33.9742 4.59476 33.4695 3.04413 33.1908V31.0706C5.13056 31.2998 11.4629 31.8155 17.7222 31.8155C17.7647 31.8155 17.8073 31.8155 17.8499 31.8154Z" fill="#FAA21E"/>
<path fill-rule="evenodd" clip-rule="evenodd" d="M17.8499 31.8154C16.339 32.2685 15.2182 33.0127 14.0193 34.1553C8.89067 33.9742 4.59476 33.4695 3.04413 33.1908V31.0706C5.13056 31.2998 11.4629 31.8155 17.7222 31.8155C17.7647 31.8155 17.8073 31.8155 17.8499 31.8154Z" fill="black" fill-opacity="0.4"/>
<path fill-rule="evenodd" clip-rule="evenodd" d="M30.064 14.0034C26.2392 14.247 22.4576 14.7533 21.4204 15.7906C20.6446 16.5663 20.5093 18.5908 20.6694 20.9281L20.4241 20.2739L17.9333 23.2628L16.937 19.2776L13.9167 22.2462V14.8926C15.9968 14.6124 21.1779 14.0522 25.2623 14.0522C26.6592 14.0522 28.1842 14.0303 29.6697 14.0091C29.8015 14.0072 29.9329 14.0053 30.064 14.0034Z" fill="#FAA21E"/>
<path fill-rule="evenodd" clip-rule="evenodd" d="M30.064 14.0034C26.2392 14.247 22.4576 14.7533 21.4204 15.7906C20.6446 16.5663 20.5093 18.5908 20.6694 20.9281L20.4241 20.2739L17.9333 23.2628L16.937 19.2776L13.9167 22.2462V14.8926C15.9968 14.6124 21.1779 14.0522 25.2623 14.0522C26.6592 14.0522 28.1842 14.0303 29.6697 14.0091C29.8015 14.0072 29.9329 14.0053 30.064 14.0034Z" fill="black" fill-opacity="0.4"/>
<path fill-rule="evenodd" clip-rule="evenodd" d="M37.0702 13.7867C32.6405 13.8042 23.162 14.049 21.4204 15.7906C21.3005 15.9104 21.196 16.0601 21.1054 16.2361L19.9259 15.2925L18.9296 18.2814L16.1587 14.5578L13.6316 16.8259L12.6561 8.50961C15.1774 7.11871 22.4595 6.4884 25.8927 6.4884C29.3258 6.4884 34.8671 6.4884 37.8686 7.75358L37.0702 13.7867Z" fill="#C57A09"/>
<path fill-rule="evenodd" clip-rule="evenodd" d="M12.6562 4.5975C13.5358 3.73698 19.6954 3.33691 24.175 3.33691C28.6547 3.33691 35.956 3.38543 37.2383 4.59754C38.2156 5.5214 38.0693 7.60019 37.9444 9.3739C37.9055 9.92728 37.8686 10.451 37.8686 10.9006L35.3685 8.84557L34.0297 11.531L31.8815 9.31469L30.387 11.8054L29.3907 8.3184L27.3982 12.3036L24.9074 8.3794L23.413 11.3073L21.9185 9.81284L19.9259 12.3036L18.4315 8.84557L16.4389 10.9939L14.9444 8.3794L12.6561 11.531C12.6089 10.9446 12.5386 10.3159 12.4678 9.68347C12.2232 7.49596 11.9737 5.26505 12.6562 4.5975Z" fill="#FAA21E"/>
<path fill-rule="evenodd" clip-rule="evenodd" d="M12.6562 4.5975C13.5358 3.73698 19.6954 3.33691 24.175 3.33691C28.6547 3.33691 35.956 3.38543 37.2383 4.59754C38.2156 5.5214 38.0693 7.60019 37.9444 9.3739C37.9055 9.92728 37.8686 10.451 37.8686 10.9006L35.3685 8.84557L34.0297 11.531L31.8815 9.31469L30.387 11.8054L29.3907 8.3184L27.3982 12.3036L24.9074 8.3794L23.413 11.3073L21.9185 9.81284L19.9259 12.3036L18.4315 8.84557L16.4389 10.9939L14.9444 8.3794L12.6561 11.531C12.6089 10.9446 12.5386 10.3159 12.4678 9.68347C12.2232 7.49596 11.9737 5.26505 12.6562 4.5975Z" fill="black" fill-opacity="0.1"/>
</svg>
