<?xml version="1.0" encoding="utf-8"?><svg fill="none" viewBox="0 0 50 50" xmlns="http://www.w3.org/2000/svg" width="50" height="50"><g clip-path="url(#arba)"><path d="M9.737 2.014H40v3l1 2h4v41H11.316c-.527 0-3.158 0-4.737-1.568C5 44.877 5 43.309 5 42.786V6.718c0-1.045.737-2.3 1.579-3.136.842-.836 2.105-1.568 3.158-1.568Z" fill="#1D8CE0"/><path d="m43 9-3-4v35.031h-2L43 46V9Z" fill="#898989"/><path d="m43 9-3-4v35.031h-2L43 46V9Z" fill="#fff" fill-opacity=".2"/><path d="M10.093 40H38l5 6H10.093c-.504 0-3.119-.918-3.119-3.16C6.974 40.6 9.59 40 10.093 40Z" fill="#898989"/><path d="M10.093 40H38l5 6H10.093c-.504 0-3.119-.918-3.119-3.16C6.974 40.6 9.59 40 10.093 40Z" fill="#fff" fill-opacity=".6"/><g clip-path="url(#arbb)"><path d="M21.72 9.16c0-.96.853-2.347 1.28-2.88.427.533 1.28 1.92 1.28 2.88s-.853 1.387-1.28 1.6c-.427-.213-1.28-.64-1.28-1.6ZM24.28 32.84c0 .96-.853 2.347-1.28 2.88-.427-.533-1.28-1.92-1.28-2.88s.853-1.387 1.28-1.6c.427.213 1.28.64 1.28 1.6ZM34.84 19.72c.96 0 2.347.853 2.88 1.28-.533.427-1.92 1.28-2.88 1.28s-1.387-.853-1.6-1.28c.213-.427.64-1.28 1.6-1.28ZM11.16 22.28c-.96 0-2.347-.853-2.88-1.28.533-.427 1.92-1.28 2.88-1.28s1.387.853 1.6 1.28c-.213.427-.64 1.28-1.6 1.28ZM27.811 10.106c.48-.831 1.913-1.605 2.549-1.854.103.675.149 2.303-.331 3.134-.48.832-1.433.774-1.909.746-.263-.398-.789-1.194-.309-2.026ZM18.189 31.894c-.48.831-1.913 1.605-2.549 1.854-.103-.675-.149-2.303.332-3.134.48-.832 1.432-.774 1.908-.746.263.398.789 1.194.309 2.026ZM33.894 25.811c.831.48 1.605 1.913 1.854 2.549-.675.103-2.303.149-3.134-.331-.832-.48-.774-1.433-.746-1.909.398-.263 1.194-.789 2.026-.309ZM12.106 16.189c-.831-.48-1.605-1.913-1.854-2.549.675-.103 2.303-.149 3.134.332.832.48.774 1.432.746 1.908-.398.263-1.194.789-2.026.309ZM15.972 11.386c-.48-.831-.435-2.459-.332-3.134.636.249 2.069 1.023 2.549 1.854.48.832-.046 1.628-.309 2.026-.476.029-1.428.086-1.908-.746ZM30.029 30.614c.48.831.434 2.459.331 3.134-.636-.249-2.069-1.023-2.549-1.854-.48-.832.046-1.628.309-2.026.476-.028 1.428-.086 1.909.746ZM32.614 13.972c.831-.48 2.459-.435 3.134-.332-.249.636-1.023 2.069-1.854 2.549-.832.48-1.628-.046-2.026-.309-.028-.476-.086-1.429.746-1.909ZM13.386 28.029c-.831.48-2.459.434-3.134.331.249-.636 1.023-2.069 1.854-2.549.832-.48 1.628.046 2.026.309.029.476.086 1.428-.746 1.909Z" fill="#FEFEFE"/><circle cx="26.064" cy="9.563" r=".32" transform="rotate(15 26.064 9.563)" fill="#FEFEFE"/><circle cx="19.936" cy="32.437" r=".32" transform="rotate(15 19.936 32.437)" fill="#FEFEFE"/><circle cx="34.437" cy="24.064" r=".32" transform="rotate(105 34.437 24.064)" fill="#FEFEFE"/><circle cx="11.563" cy="17.936" r=".32" transform="rotate(105 11.563 17.936)" fill="#FEFEFE"/><circle cx="31.372" cy="12.628" r=".32" transform="rotate(45 31.372 12.628)" fill="#FEFEFE"/><circle cx="14.628" cy="29.372" r=".32" transform="rotate(45 14.628 29.372)" fill="#FEFEFE"/><circle cx="31.372" cy="29.372" r=".32" transform="rotate(135 31.372 29.372)" fill="#FEFEFE"/><circle cx="14.628" cy="12.628" r=".32" transform="rotate(135 14.628 12.628)" fill="#FEFEFE"/><circle cx="19.936" cy="9.563" r=".32" transform="rotate(-15 19.936 9.563)" fill="#FEFEFE"/><circle cx="26.064" cy="32.437" r=".32" transform="rotate(-15 26.064 32.437)" fill="#FEFEFE"/><circle cx="34.437" cy="17.936" r=".32" transform="rotate(75 34.437 17.936)" fill="#FEFEFE"/><circle cx="11.563" cy="24.064" r=".32" transform="rotate(75 11.563 24.064)" fill="#FEFEFE"/><circle cx="12.12" cy="10.12" r=".64" fill="#FEFEFE"/><circle cx="33.88" cy="10.12" r=".64" fill="#FEFEFE"/><circle cx="12.12" cy="31.88" r=".64" fill="#FEFEFE"/><circle cx="33.88" cy="31.88" r=".64" fill="#FEFEFE"/><circle cx="19.018" cy="6.138" r=".64" transform="rotate(30 19.018 6.138)" fill="#FEFEFE"/><circle cx="37.862" cy="17.018" r=".64" transform="rotate(30 37.862 17.018)" fill="#FEFEFE"/><circle cx="8.138" cy="24.982" r=".64" transform="rotate(30 8.138 24.982)" fill="#FEFEFE"/><circle cx="26.982" cy="35.862" r=".64" transform="rotate(30 26.982 35.862)" fill="#FEFEFE"/><circle cx="8.138" cy="17.018" r=".64" transform="rotate(-30 8.138 17.018)" fill="#FEFEFE"/><circle cx="26.982" cy="6.138" r=".64" transform="rotate(-30 26.982 6.138)" fill="#FEFEFE"/><circle cx="19.018" cy="35.862" r=".64" transform="rotate(-30 19.018 35.862)" fill="#FEFEFE"/><circle cx="37.862" cy="24.982" r=".64" transform="rotate(-30 37.862 24.982)" fill="#FEFEFE"/><path d="M15.96 15.88c3.166-.223 4.718-1.095 7.04-2.56 2.502 1.54 4.043 2.752 7.04 2.88v5.44c-.72 4.31-2.94 5.717-7.04 7.68-4.88-2.04-6.367-3.94-7.04-7.68v-5.76Z" fill="#1D8CE0"/><path d="M15.96 15.88c3.166-.223 4.718-1.095 7.04-2.56 2.502 1.54 4.043 2.752 7.04 2.88v5.44c-.72 4.31-2.94 5.717-7.04 7.68-4.88-2.04-6.367-3.94-7.04-7.68v-5.76Z" fill="#fff" fill-opacity=".4"/><path d="m30.04 17.8-6.4.96v-5.048L23 13.32l-.64.392v5.048l-6.4-.96v1.28l6.4.96v9l.64.28.64-.304V20.04l6.4-.96V17.8Z" fill="#FEFEFE"/></g></g><defs><clipPath id="arba"><path fill="#fff" d="M0 0h50v50H0z"/></clipPath><clipPath id="arbb"><path fill="#fff" transform="matrix(-1 0 0 1 39 5)" d="M0 0h32v32H0z"/></clipPath></defs></svg>