<svg width="50" height="50" viewBox="0 0 50 50" fill="none" xmlns="http://www.w3.org/2000/svg">
<path d="M15.0486 7.63623C10.4172 10.2726 9.56783 14.3272 7.50004 18C4.93479 22.5564 -2.15391 31.8272 5.12408 39.9259C12.4021 48.0247 37.6502 48.0988 44.5 40C52.1923 30.9053 44.4861 22.3272 42.5 18.5C40.3997 14.4527 39.6315 10.2937 35 7.63623C30.4051 4.99971 28.3143 4.99984 25.6971 5L25.6347 5.00001L25.6344 5.00001C23.6494 5.00001 19.6798 5.00001 15.0486 7.63623Z" fill="#D0333D"/>
<path d="M15.0486 7.63623C10.4172 10.2726 9.56783 14.3272 7.50004 18C4.93479 22.5564 -2.15391 31.8272 5.12408 39.9259C12.4021 48.0247 37.6502 48.0988 44.5 40C52.1923 30.9053 44.4861 22.3272 42.5 18.5C40.3997 14.4527 39.6315 10.2937 35 7.63623C30.4051 4.99971 28.3143 4.99984 25.6971 5L25.6347 5.00001L25.6344 5.00001C23.6494 5.00001 19.6798 5.00001 15.0486 7.63623Z" fill="white" fill-opacity="0.4"/>
<path d="M5.69995 40.5C14 48 38.177 48 44.8869 40C48.5471 35.6361 49 30 46 24.5C46.5 31.5 42.3347 35.6494 36 38.5C26 43 13.4773 43 5.69995 40.5Z" fill="#D0333D"/>
<path d="M5.69995 40.5C14 48 38.177 48 44.8869 40C48.5471 35.6361 49 30 46 24.5C46.5 31.5 42.3347 35.6494 36 38.5C26 43 13.4773 43 5.69995 40.5Z" fill="white" fill-opacity="0.2"/>
<path d="M33.5443 6.472C29.2801 4.79817 22.3509 4.24022 17.0207 6.472C14.0003 7.95984 8.97246 11.134 11 16C13.5 22 20.1432 25.5 25.5 25.5C31.8962 25.5 36.3886 21.7783 38.5 16.5C40.5 11.5 37.8084 8.14583 33.5443 6.472Z" fill="#D0333D"/>
<path d="M33.5443 6.472C29.2801 4.79817 22.3509 4.24022 17.0207 6.472C14.0003 7.95984 8.97246 11.134 11 16C13.5 22 20.1432 25.5 25.5 25.5C31.8962 25.5 36.3886 21.7783 38.5 16.5C40.5 11.5 37.8084 8.14583 33.5443 6.472Z" fill="black" fill-opacity="0.4"/>
<path d="M33.5443 5.40191C29.2802 3.80778 22.3509 3.2764 17.0208 5.40191C14.0003 6.81889 8.06606 10.2905 10.6245 14.9666C13.8226 20.8117 20.1923 24 25.549 24C31.9452 24 36.5222 19.749 39.1873 14.9666C41.7498 10.3683 37.8084 6.99603 33.5443 5.40191Z" fill="#D0333D"/>
<path d="M25.5491 24C31.9453 24 36.5222 19.749 39.1873 14.9666C41.1937 11.3663 39.2129 8.51756 36.2119 6.68547C36.8079 7.29031 37.9 9.2 37.5 12C37 15.5 31 19.5 27 20.5C23.8 21.3 16.5 20 12.5 17.7C15.5 21.5 20 24 25.5491 24Z" fill="#D0333D"/>
<path d="M25.5491 24C31.9453 24 36.5222 19.749 39.1873 14.9666C41.1937 11.3663 39.2129 8.51756 36.2119 6.68547C36.8079 7.29031 37.9 9.2 37.5 12C37 15.5 31 19.5 27 20.5C23.8 21.3 16.5 20 12.5 17.7C15.5 21.5 20 24 25.5491 24Z" fill="black" fill-opacity="0.2"/>
<circle cx="25" cy="18" r="4" fill="#D0333D"/>
<circle cx="25" cy="18" r="4" fill="white" fill-opacity="0.8"/>
<path d="M25 22C27.2092 22 29 20.2091 29 18C29 17.2969 28.8186 16.6361 28.5 16.062C28.5 16.8747 28 19 26 20C24 21 22.3605 20.1667 21.2908 19.5C21.8842 20.9659 23.3213 22 25 22Z" fill="#D0333D"/>
<path d="M25 22C27.2092 22 29 20.2091 29 18C29 17.2969 28.8186 16.6361 28.5 16.062C28.5 16.8747 28 19 26 20C24 21 22.3605 20.1667 21.2908 19.5C21.8842 20.9659 23.3213 22 25 22Z" fill="white" fill-opacity="0.6"/>
<circle cx="0.5" cy="0.5" r="0.5" transform="matrix(1 0 0 -1 23.5 17.5)" fill="#D0333D"/>
<circle cx="0.5" cy="0.5" r="0.5" transform="matrix(1 0 0 -1 23.5 17.5)" fill="black" fill-opacity="0.4"/>
<circle cx="0.5" cy="0.5" r="0.5" transform="matrix(1 0 0 -1 25.5 17.5)" fill="#D0333D"/>
<circle cx="0.5" cy="0.5" r="0.5" transform="matrix(1 0 0 -1 25.5 17.5)" fill="black" fill-opacity="0.4"/>
<circle cx="0.5" cy="0.5" r="0.5" transform="matrix(1 0 0 -1 23.5 19.5)" fill="#D0333D"/>
<circle cx="0.5" cy="0.5" r="0.5" transform="matrix(1 0 0 -1 23.5 19.5)" fill="black" fill-opacity="0.4"/>
<circle cx="0.5" cy="0.5" r="0.5" transform="matrix(1 0 0 -1 25.5 19.5)" fill="#D0333D"/>
<circle cx="0.5" cy="0.5" r="0.5" transform="matrix(1 0 0 -1 25.5 19.5)" fill="black" fill-opacity="0.4"/>
<path fill-rule="evenodd" clip-rule="evenodd" d="M37.2093 10.8723L47.3105 5.91182C45.9432 5.48932 45.5881 4.92167 45.5483 3.48392L34.6494 9.02342L28 29.4931C28.4294 30.9479 29.9294 31.4479 30.8588 30.4027L37.2093 10.8723Z" fill="#898989"/>
<path fill-rule="evenodd" clip-rule="evenodd" d="M37.2093 10.8723L47.3105 5.91182C45.9432 5.48932 45.5881 4.92167 45.5483 3.48392L34.6494 9.02342L28 29.4931C28.4294 30.9479 29.9294 31.4479 30.8588 30.4027L37.2093 10.8723Z" fill="white" fill-opacity="0.95"/>
<ellipse cx="46.4174" cy="4.71444" rx="0.848747" ry="1.50384" transform="rotate(-26.3253 46.4174 4.71444)" fill="#898989"/>
<ellipse cx="46.4174" cy="4.71444" rx="0.848747" ry="1.50384" transform="rotate(-26.3253 46.4174 4.71444)" fill="white" fill-opacity="0.4"/>
</svg>
