<svg width="50" height="50" viewBox="0 0 50 50" fill="none" xmlns="http://www.w3.org/2000/svg">
<g clip-path="url(#clip0_6065_10032)">
<circle cx="30.1574" cy="25.2787" r="17.6862" fill="#D0333D"/>
<circle cx="30.1574" cy="25.2787" r="17.6862" fill="black" fill-opacity="0.2"/>
<ellipse cx="28.498" cy="23.7359" rx="15.0578" ry="13.4593" transform="rotate(-45 28.498 23.7359)" fill="#D0333D"/>
<ellipse cx="26.9307" cy="21.9803" rx="9.02094" ry="12.5628" transform="rotate(45 26.9307 21.9803)" fill="#D0333D"/>
<ellipse cx="26.9307" cy="21.9803" rx="9.02094" ry="12.5628" transform="rotate(45 26.9307 21.9803)" fill="white" fill-opacity="0.2"/>
<path d="M21.3142 25.7738L33.105 12.8983L30.1573 22.8026L39.0004 24.7834L27.2096 37.659L30.1573 27.7547L21.3142 25.7738Z" fill="#FEFEFE"/>
<circle cx="42.8572" cy="42.8572" r="7.14286" fill="#D0333D"/>
<circle cx="42.8572" cy="42.8572" r="7.14286" fill="white" fill-opacity="0.2"/>
<path d="M42.8572 50C46.8021 50 50.0001 46.802 50.0001 42.8571C50.0001 40.5205 48.8782 38.446 47.1437 37.1428C48.3334 39.2857 48.8096 41.6666 48.0953 43.8095C47.493 45.6165 45.2382 47.619 42.8572 48.0952C40.4763 48.5714 38.3334 47.619 36.7419 46.5502C37.9933 48.6179 40.2639 50 42.8572 50Z" fill="#D0333D"/>
<ellipse cx="39.6629" cy="38.6431" rx="1.66667" ry="1.19048" transform="rotate(-39.2587 39.6629 38.6431)" fill="#D0333D"/>
<ellipse cx="39.6629" cy="38.6431" rx="1.66667" ry="1.19048" transform="rotate(-39.2587 39.6629 38.6431)" fill="white" fill-opacity="0.8"/>
<circle cx="37.5512" cy="40.8845" r="0.714286" transform="rotate(-16.1222 37.5512 40.8845)" fill="#D0333D"/>
<circle cx="37.5512" cy="40.8845" r="0.714286" transform="rotate(-16.1222 37.5512 40.8845)" fill="white" fill-opacity="0.8"/>
<circle cx="5.95237" cy="38.0952" r="5.95237" fill="#D0333D"/>
<circle cx="5.95237" cy="38.0952" r="5.95237" fill="white" fill-opacity="0.2"/>
<path d="M5.9524 44.0475C9.23981 44.0475 11.9048 41.3826 11.9048 38.0952C11.9048 36.148 10.9698 34.4192 9.52441 33.3333C10.5159 35.119 10.9127 37.1031 10.3175 38.8888C9.81553 40.3946 7.93653 42.0634 5.9524 42.4602C3.96828 42.8571 2.18256 42.0634 0.856323 41.1727C1.89916 42.8958 3.79128 44.0475 5.9524 44.0475Z" fill="#D0333D"/>
<ellipse cx="3.29049" cy="34.5836" rx="1.38889" ry="0.992062" transform="rotate(-39.2587 3.29049 34.5836)" fill="#D0333D"/>
<ellipse cx="3.29049" cy="34.5836" rx="1.38889" ry="0.992062" transform="rotate(-39.2587 3.29049 34.5836)" fill="white" fill-opacity="0.8"/>
<circle cx="1.53082" cy="36.4513" r="0.595237" transform="rotate(-16.1222 1.53082 36.4513)" fill="#D0333D"/>
<circle cx="1.53082" cy="36.4513" r="0.595237" transform="rotate(-16.1222 1.53082 36.4513)" fill="white" fill-opacity="0.8"/>
<circle cx="14.2857" cy="4.7619" r="4.7619" fill="#D0333D"/>
<circle cx="14.2857" cy="4.7619" r="4.7619" fill="white" fill-opacity="0.2"/>
<path d="M14.2857 9.52381C16.9157 9.52381 19.0476 7.39184 19.0476 4.76191C19.0476 3.2042 18.2997 1.82118 17.1433 0.952393C17.9365 2.38096 18.254 3.96826 17.7778 5.39683C17.3762 6.60151 15.873 7.93651 14.2857 8.25397C12.6984 8.57143 11.2699 7.93651 10.2089 7.22394C11.0431 8.60245 12.5568 9.52381 14.2857 9.52381Z" fill="#D0333D"/>
<ellipse cx="12.1563" cy="1.95265" rx="1.11111" ry="0.79365" transform="rotate(-39.2587 12.1563 1.95265)" fill="#D0333D"/>
<ellipse cx="12.1563" cy="1.95265" rx="1.11111" ry="0.79365" transform="rotate(-39.2587 12.1563 1.95265)" fill="white" fill-opacity="0.8"/>
<circle cx="10.7484" cy="3.44693" r="0.47619" transform="rotate(-16.1222 10.7484 3.44693)" fill="#D0333D"/>
<circle cx="10.7484" cy="3.44693" r="0.47619" transform="rotate(-16.1222 10.7484 3.44693)" fill="white" fill-opacity="0.8"/>
</g>
<defs>
<clipPath id="clip0_6065_10032">
<rect width="50" height="50.0001" fill="white" transform="matrix(-1 0 0 1 50 0)"/>
</clipPath>
</defs>
</svg>
