<svg width="50" height="50" viewBox="0 0 50 50" fill="none" xmlns="http://www.w3.org/2000/svg">
<path d="M9.70074 1.99249H39.8518V4.98138L40.8481 6.97397H44.8333V47.8221H11.2738C10.7495 47.8221 8.12764 47.8221 6.55454 46.2597C4.98145 44.6974 4.98145 43.135 4.98145 42.6142V6.67961C4.98145 5.63803 5.71556 4.38813 6.55454 3.55487C7.39353 2.7216 8.65201 1.99249 9.70074 1.99249Z" fill="#7445B8"/>
<path d="M42.8407 9.0662L39.8518 4.98138V39.8518H37.8593L42.8407 45.8295V9.0662Z" fill="#898989"/>
<path d="M42.8407 9.0662L39.8518 4.98138V39.8518H37.8593L42.8407 45.8295V9.0662Z" fill="white" fill-opacity="0.2"/>
<path d="M10.093 39.8517H37.8593L42.8408 45.8295H10.093C9.58856 45.8295 6.97412 45.0823 6.97412 42.8406C6.97412 40.599 9.58856 39.8517 10.093 39.8517Z" fill="#898989"/>
<path d="M10.093 39.8517H37.8593L42.8408 45.8295H10.093C9.58856 45.8295 6.97412 45.0823 6.97412 42.8406C6.97412 40.599 9.58856 39.8517 10.093 39.8517Z" fill="white" fill-opacity="0.6"/>
<path d="M16.6 6.91998H12.76V10.76H8.92004V14.6H12.76V18.44H16.6V14.6H20.44V10.76H16.6V6.91998Z" fill="#898989"/>
<path d="M16.6 6.91998H12.76V10.76H8.92004V14.6H12.76V18.44H16.6V14.6H20.44V10.76H16.6V6.91998Z" fill="white" fill-opacity="0.95"/>
<path d="M14.4666 26.12H12.3333V28.2533H10.2V30.3867H12.3333V32.52H14.4666V30.3867H16.6V28.2533H14.4666V26.12Z" fill="#898989"/>
<path d="M14.4666 26.12H12.3333V28.2533H10.2V30.3867H12.3333V32.52H14.4666V30.3867H16.6V28.2533H14.4666V26.12Z" fill="white" fill-opacity="0.95"/>
<path d="M33.6667 8.20001H31.5334V10.3333H29.4V12.4667H31.5334V14.6H33.6667V12.4667H35.8V10.3333H33.6667V8.20001Z" fill="#898989"/>
<path d="M33.6667 8.20001H31.5334V10.3333H29.4V12.4667H31.5334V14.6H33.6667V12.4667H35.8V10.3333H33.6667V8.20001Z" fill="white" fill-opacity="0.95"/>
<path d="M34.9467 28.68H32.8134V30.8133H30.6801V32.9467H32.8134V35.08H34.9467V32.9467H37.0801V30.8133H34.9467V28.68Z" fill="#898989"/>
<path d="M34.9467 28.68H32.8134V30.8133H30.6801V32.9467H32.8134V35.08H34.9467V32.9467H37.0801V30.8133H34.9467V28.68Z" fill="white" fill-opacity="0.95"/>
<path d="M29.4 13.32H24.28V18.44H19.16V23.56H24.28V28.68H29.4V23.56H34.52V18.44H29.4V13.32Z" fill="#898989"/>
<path d="M29.4 13.32H24.28V18.44H19.16V23.56H24.28V28.68H29.4V23.56H34.52V18.44H29.4V13.32Z" fill="white" fill-opacity="0.95"/>
</svg>
