<svg width="50" height="50" viewBox="0 0 50 50" fill="none" xmlns="http://www.w3.org/2000/svg">
<path d="M46.0928 13.6186L23.866 14.0722L26.5877 35.3918C25.6804 35.2406 23.1402 35.3011 20.2371 36.7527C17.334 38.2042 16.6083 40.9863 16.6083 42.196C19.0275 42.4984 22.9588 43.1032 29.3093 43.1032C35.433 43.1032 39.8935 41.8935 42.464 41.2887L46.0928 13.6186Z" fill="#FAA21E"/>
<g clip-path="url(#clip0_1257_24776)">
<path d="M35.5 16C36.2803 16 36.94 16.48 37.26 16.8C37.0197 17.0174 36.3993 17.6696 36.06 18.4C35.7207 19.1304 35.66 19.7681 35.66 20H35.34C35.34 19.76 35.263 19.2278 34.94 18.4C34.6007 17.5304 33.9945 17.0029 33.74 16.8C34.06 16.48 34.7197 16 35.5 16Z" fill="#FAA21E"/>
<path d="M35.5 16C36.2803 16 36.94 16.48 37.26 16.8C37.0197 17.0174 36.3993 17.6696 36.06 18.4C35.7207 19.1304 35.66 19.7681 35.66 20H35.34C35.34 19.76 35.263 19.2278 34.94 18.4C34.6007 17.5304 33.9945 17.0029 33.74 16.8C34.06 16.48 34.7197 16 35.5 16Z" fill="white" fill-opacity="0.95"/>
<path d="M35.5 24C34.7197 24 34.06 23.52 33.74 23.2C33.9803 22.9826 34.6007 22.3304 34.94 21.6C35.2793 20.8696 35.34 20.2319 35.34 20L35.66 20C35.66 20.24 35.737 20.7722 36.06 21.6C36.3993 22.4696 37.0055 22.9971 37.26 23.2C36.94 23.52 36.2803 24 35.5 24Z" fill="#FAA21E"/>
<path d="M35.5 24C34.7197 24 34.06 23.52 33.74 23.2C33.9803 22.9826 34.6007 22.3304 34.94 21.6C35.2793 20.8696 35.34 20.2319 35.34 20L35.66 20C35.66 20.24 35.737 20.7722 36.06 21.6C36.3993 22.4696 37.0055 22.9971 37.26 23.2C36.94 23.52 36.2803 24 35.5 24Z" fill="white" fill-opacity="0.95"/>
<path d="M31.5 20C31.5 19.2197 31.98 18.56 32.3 18.24C32.5174 18.4803 33.1696 19.1007 33.9 19.44C34.6304 19.7793 35.2681 19.84 35.5 19.84L35.5 20.16C35.26 20.16 34.7278 20.237 33.9 20.56C33.0304 20.8993 32.5029 21.5055 32.3 21.76C31.98 21.44 31.5 20.7803 31.5 20Z" fill="#FAA21E"/>
<path d="M31.5 20C31.5 19.2197 31.98 18.56 32.3 18.24C32.5174 18.4803 33.1696 19.1007 33.9 19.44C34.6304 19.7793 35.2681 19.84 35.5 19.84L35.5 20.16C35.26 20.16 34.7278 20.237 33.9 20.56C33.0304 20.8993 32.5029 21.5055 32.3 21.76C31.98 21.44 31.5 20.7803 31.5 20Z" fill="white" fill-opacity="0.95"/>
<path d="M39.5 20C39.5 20.7803 39.02 21.44 38.7 21.76C38.4826 21.5197 37.8304 20.8993 37.1 20.56C36.3696 20.2207 35.7319 20.16 35.5 20.16L35.5 19.84C35.74 19.84 36.2722 19.763 37.1 19.44C37.9696 19.1007 38.4971 18.4945 38.7 18.24C39.02 18.56 39.5 19.2197 39.5 20Z" fill="#FAA21E"/>
<path d="M39.5 20C39.5 20.7803 39.02 21.44 38.7 21.76C38.4826 21.5197 37.8304 20.8993 37.1 20.56C36.3696 20.2207 35.7319 20.16 35.5 20.16L35.5 19.84C35.74 19.84 36.2722 19.763 37.1 19.44C37.9696 19.1007 38.4971 18.4945 38.7 18.24C39.02 18.56 39.5 19.2197 39.5 20Z" fill="white" fill-opacity="0.95"/>
</g>
<path d="M45.6625 13.1273L24.2936 13.5634L23.5399 8.66444L46.4155 8.23283L45.6625 13.1273Z" fill="#FEFEFE" stroke="#FAA21E"/>
<path d="M28.8557 46.2783C23.0495 46.2783 18.6632 45.4536 17 45V42C18.8144 42.3024 23.4124 43.103 28.8557 43.103C34.299 43.103 39.732 41.6048 42 41V45C39.8832 45.4536 34.6619 46.2783 28.8557 46.2783Z" fill="#FEFEFE" stroke="#FAA21E"/>
<path d="M21.6493 10.5915L10.6852 10.8407L9.93166 5.94273L32.8095 5.51107L32.6875 6.3245L21.5861 6.58674L21.0143 6.60025L21.1042 7.16516L21.6493 10.5915Z" fill="#FEFEFE" stroke="#FAA21E"/>
<path d="M12.8813 33.1604L13.5634 33.2968L13.4754 32.6068L10.824 11.8377L21.7946 11.5884L24.6666 33.8683C24.6446 33.8706 24.6222 33.873 24.5994 33.8753C23.5237 33.987 21.5707 34.1899 19.5263 35.4166C17.3673 36.712 15.9135 38.0663 15.3245 39.8814H12.9794C9.62038 39.8814 5.49897 39.4894 3.526 39.0808C3.59257 38.5442 3.78822 37.8818 4.12763 37.203C4.55315 36.3519 5.18739 35.5102 6.02165 34.8845C6.67805 34.3922 7.86128 33.8469 9.17633 33.482C10.4939 33.1164 11.8584 32.9558 12.8813 33.1604Z" fill="#FAA21E" stroke="#FAA21E"/>
<path d="M9.39691 40.1999C5.31443 39.9277 4.40722 39.6253 3.5 39.4741V42.1958C5.31443 42.6494 7.58803 43.0028 8.48969 43.103C12.5722 43.5566 13.9779 43.5 15.1875 43.5V40.1999C13.8267 40.1999 11.9572 40.3706 9.39691 40.1999Z" fill="#FEFEFE" stroke="#FAA21E"/>
<defs>
<clipPath id="clip0_1257_24776">
<rect width="8" height="8" fill="white" transform="translate(31.5 16)"/>
</clipPath>
</defs>
</svg>
