<svg width="50" height="50" viewBox="0 0 50 50" fill="none" xmlns="http://www.w3.org/2000/svg">
<g clip-path="url(#clip0_722_1293)">
<path d="M39.2211 6.09593C39.7213 4.22926 35.0137 2.45084 32.2498 1.71025C29.4859 0.969666 24.5086 0.197987 24.0196 2.02271C23.7499 3.02945 24.6964 3.64275 24.952 4.07091C24.7674 5.22037 24.0471 8.00068 22.6425 9.92622C20.8867 12.3331 18.3907 12.5514 16.5468 13.3283C14.4597 14.2078 13.3949 16.7999 13.0352 18.1422L7.28038 39.6194C7.35612 40.7187 9.4582 43.3935 12.4201 45.3127C15.2598 47.1526 23.206 49.2817 26.9306 49.2007C30.3151 49.1271 34.6497 48.032 34.9194 47.0252L40.6742 25.548C41.0639 24.0939 41.7892 21.3868 40.04 19.6233C38.2908 17.8598 36.959 15.9204 36.462 13.6291C36.0644 11.7962 36.8848 8.82687 37.3896 7.40354C38.1705 7.25311 38.9963 6.93488 39.2211 6.09593Z" fill="#FEFEFE" stroke="#FAA21E" stroke-width="0.992606"/>
<path d="M34.6968 27.8563C33.4093 28.2364 32.7452 26.9303 31.2319 26.8919C29.7186 26.8535 29.1192 27.1932 28.4153 27.9213C27.6793 28.6826 27.2401 30.3997 27.9687 31.4663C29.0009 32.9773 30.4121 34.6083 33.073 35.4147C36.1213 36.3384 37.1567 34.7428 38.335 34.244L39.4663 30.0221C39.4115 29.492 39.6455 28.654 39.2069 27.7679C38.6587 26.6603 37.3921 26.0198 36.5386 26.3602C35.5654 26.7485 35.6813 27.5655 34.6968 27.8563Z" fill="#FAA21E"/>
<path d="M21.1141 11.5937C19.7968 12.4914 18.237 12.7121 17.4694 13.1906C17.9114 14.4463 18.6832 14.7375 19.929 15.0375C21.9224 15.5173 20.4984 16.3914 22.9171 18.5592C25.3358 20.7269 28.0905 19.9366 29.0905 18.5205C30.0926 17.1049 28.6703 15.663 28.0753 15.1697C27.4803 14.6763 28.3907 14.0065 28.56 12.9217C28.7275 11.835 28.8434 10.6045 27.6017 9.4717C26.7726 8.71568 24.8097 8.24196 23.5198 8.37807C22.7657 9.71743 22.2893 10.793 21.1141 11.5937Z" fill="#FAA21E"/>
<path d="M14.7689 28.5512C12.9457 27.7028 10.3141 28.3765 9.92372 29.8263L7.28298 39.6228C7.28298 39.6228 7.28298 40.3783 8.96672 42.3426C12.0523 45.9424 15.7002 46.8611 17.4352 47.3241C17.7569 46.1236 15.7816 46.0181 16.0455 45.2074C16.3093 44.3968 18.1691 45.2639 20.0207 44.6131C21.0912 44.2368 22.6491 42.1343 20.9764 40.1573C19.1698 38.0221 16.1073 38.5414 16.0742 37.3646C16.0411 36.1879 17.2864 36.2992 17.8248 34.5581C18.5038 32.3628 18.0293 30.0682 14.7689 28.5512Z" fill="#FAA21E"/>
<ellipse cx="31.7414" cy="3.85563" rx="6.27215" ry="1.58895" transform="rotate(14.9427 31.7414 3.85563)" fill="#898989"/>
<ellipse cx="31.7414" cy="3.85563" rx="6.27215" ry="1.58895" transform="rotate(14.9427 31.7414 3.85563)" fill="white" fill-opacity="0.6"/>
<path d="M31.1626 6.55964C33.2044 7.10672 35.129 7.36527 36.5963 7.33148C37.3265 7.31466 37.9726 7.22497 38.4703 7.04378C38.95 6.86918 39.415 6.56111 39.5415 6.02401C39.668 5.48681 39.3948 4.98072 39.0494 4.58476C38.691 4.17396 38.1613 3.76907 37.5252 3.38608C36.2471 2.6165 34.4363 1.87414 32.3946 1.32706C30.3528 0.779974 28.4281 0.521418 26.9608 0.555364C26.2306 0.572257 25.5844 0.662065 25.0866 0.843451C24.6068 1.01828 24.1419 1.32663 24.0154 1.86383C23.889 2.40093 24.1624 2.90687 24.5078 3.30253C24.8662 3.71313 25.3959 4.11787 26.032 4.50078C27.3101 5.2702 29.1209 6.01255 31.1626 6.55964Z" fill="#FEFEFE" stroke="#FAA21E" stroke-width="0.996296"/>
<ellipse cx="31.7109" cy="4.57292" rx="6.47054" ry="1.61139" transform="matrix(0.965926 0.258566 -0.259073 0.965926 2.26524 -8.04354)" fill="#898989"/>
<ellipse cx="31.7109" cy="4.57292" rx="6.47054" ry="1.61139" transform="matrix(0.965926 0.258566 -0.259073 0.965926 2.26524 -8.04354)" fill="white" fill-opacity="0.8"/>
</g>
<defs>
<clipPath id="clip0_722_1293">
<rect width="50" height="50" fill="white"/>
</clipPath>
</defs>
</svg>
