<svg width="51" height="51" viewBox="0 0 51 51" fill="none" xmlns="http://www.w3.org/2000/svg">
<g clip-path="url(#clip0_723_1423)">
<path d="M1.07963 25.4797H50.0833V38.9963C50.0833 40.9222 48.5221 42.4834 46.5963 42.4834H4.56667C2.64083 42.4834 1.07963 40.9222 1.07963 38.9963V25.4797Z" fill="#FEFEFE" stroke="#FAA21E" stroke-width="0.996296"/>
<path d="M50.5815 24.9815H0.581482L34.0815 7.98151C36.5815 7.98151 41.4756 10.4629 45.0815 13.4815C49.0815 16.83 50.5815 21.9815 50.5815 24.9815Z" fill="#FAA21E"/>
<circle cx="7.08148" cy="35.4815" r="2.5" fill="#FAA21E"/>
<circle cx="15.0815" cy="26.4815" r="1.5" fill="#FAA21E"/>
<circle cx="47.0815" cy="39.4815" r="1.5" fill="#FAA21E"/>
<path d="M31.5815 25.4815C31.5815 26.8622 30.4622 27.9815 29.0815 27.9815C27.7008 27.9815 26.5815 26.8622 26.5815 25.4815C26.5815 24.1008 27.7008 24.9816 29.0815 24.9816C30.4622 24.9816 31.5815 24.1008 31.5815 25.4815Z" fill="#FAA21E"/>
<circle cx="34.0815" cy="40.4815" r="2.5" fill="#FAA21E"/>
<circle cx="22.5815" cy="32.9815" r="4" fill="#FAA21E"/>
<circle cx="42.5815" cy="30.9815" r="3" fill="#FAA21E"/>
</g>
<defs>
<clipPath id="clip0_723_1423">
<rect width="50" height="50" fill="white" transform="translate(0.581482 0.981445)"/>
</clipPath>
</defs>
</svg>
