<svg width="50" height="50" viewBox="0 0 50 50" fill="none" xmlns="http://www.w3.org/2000/svg">
<g clip-path="url(#clip0_1358_8374)">
<path d="M2.77509 41.8857L28.7736 18.8696L32.6571 22.7532L9.64102 48.7516C8.49008 49.2991 6.20354 49.4483 4.14098 47.3858C2.07842 45.3232 2.22763 43.0367 2.77509 41.8857Z" fill="#FEFEFE" stroke="#FAA21E" stroke-width="0.996296"/>
<path d="M32.583 3.7887L30.3098 6.06194L35.614 7.57743L44.3281 16.2915C44.3281 16.2915 46.2225 21.2169 46.6013 23.869C46.9802 26.5211 46.6013 32.2042 46.6013 32.2042C46.6013 32.2042 44.707 28.0366 42.8126 26.1422C40.9183 24.2479 38.9718 23.599 37.5084 23.1112C36.045 22.6234 34.8563 22.7324 33.3408 22.7324L28.7943 18.1859C28.7943 16.6704 29.0927 16.05 28.4154 14.0183C27.7382 11.9866 26.0159 11.1136 25.7633 10.6084L23.4901 12.8817L19.7014 9.09293L28.7943 -3.05176e-05L32.583 3.7887Z" fill="#FAA21E"/>
<g clip-path="url(#clip1_1358_8374)">
<path d="M37.3639 13.6213C37.7778 14.0351 37.873 14.6395 37.873 14.9789C37.6303 14.9668 36.9554 14.9836 36.3881 15.1911C35.8208 15.3985 35.4504 15.7045 35.3275 15.8275L35.1578 15.6578C35.285 15.5305 35.5264 15.2074 35.7942 14.5971C36.0754 13.956 36.0336 13.3547 36.0063 13.1122C36.3457 13.1122 36.9501 13.2075 37.3639 13.6213Z" fill="#FAA21E"/>
<path d="M37.3639 13.6213C37.7778 14.0351 37.873 14.6395 37.873 14.9789C37.6303 14.9668 36.9554 14.9836 36.3881 15.1911C35.8208 15.3985 35.4504 15.7045 35.3275 15.8275L35.1578 15.6578C35.285 15.5305 35.5264 15.2074 35.7942 14.5971C36.0754 13.956 36.0336 13.3547 36.0063 13.1122C36.3457 13.1122 36.9501 13.2075 37.3639 13.6213Z" fill="white" fill-opacity="0.95"/>
<path d="M33.1213 17.8639C32.7075 17.4501 32.6122 16.8457 32.6122 16.5063C32.8549 16.5184 33.5298 16.5016 34.0971 16.2941C34.6644 16.0867 35.0348 15.7807 35.1578 15.6578L35.3275 15.8275C35.2002 15.9547 34.9588 16.2778 34.6911 16.8881C34.4098 17.5292 34.4516 18.1305 34.4789 18.373C34.1395 18.373 33.5351 18.2778 33.1213 17.8639Z" fill="#FAA21E"/>
<path d="M33.1213 17.8639C32.7075 17.4501 32.6122 16.8457 32.6122 16.5063C32.8549 16.5184 33.5298 16.5016 34.0971 16.2941C34.6644 16.0867 35.0348 15.7807 35.1578 15.6578L35.3275 15.8275C35.2002 15.9547 34.9588 16.2778 34.6911 16.8881C34.4098 17.5292 34.4516 18.1305 34.4789 18.373C34.1395 18.373 33.5351 18.2778 33.1213 17.8639Z" fill="white" fill-opacity="0.95"/>
<path d="M33.1213 13.6213C33.5351 13.2075 34.1395 13.1122 34.4789 13.1122C34.4668 13.3549 34.4836 14.0298 34.6911 14.5971C34.8985 15.1644 35.2045 15.5348 35.3275 15.6578L35.1578 15.8275C35.0305 15.7002 34.7074 15.4588 34.0971 15.1911C33.456 14.9098 32.8547 14.9516 32.6122 14.9789C32.6122 14.6395 32.7075 14.0351 33.1213 13.6213Z" fill="#FAA21E"/>
<path d="M33.1213 13.6213C33.5351 13.2075 34.1395 13.1122 34.4789 13.1122C34.4668 13.3549 34.4836 14.0298 34.6911 14.5971C34.8985 15.1644 35.2045 15.5348 35.3275 15.6578L35.1578 15.8275C35.0305 15.7002 34.7074 15.4588 34.0971 15.1911C33.456 14.9098 32.8547 14.9516 32.6122 14.9789C32.6122 14.6395 32.7075 14.0351 33.1213 13.6213Z" fill="white" fill-opacity="0.95"/>
<path d="M37.3639 17.8639C36.9501 18.2778 36.3457 18.373 36.0063 18.373C36.0184 18.1303 36.0016 17.4554 35.7941 16.8881C35.5867 16.3208 35.2807 15.9504 35.1578 15.8275L35.3275 15.6578C35.4547 15.785 35.7778 16.0264 36.3881 16.2942C37.0292 16.5754 37.6305 16.5336 37.873 16.5063C37.873 16.8457 37.7778 17.4501 37.3639 17.8639Z" fill="#FAA21E"/>
<path d="M37.3639 17.8639C36.9501 18.2778 36.3457 18.373 36.0063 18.373C36.0184 18.1303 36.0016 17.4554 35.7941 16.8881C35.5867 16.3208 35.2807 15.9504 35.1578 15.8275L35.3275 15.6578C35.4547 15.785 35.7778 16.0264 36.3881 16.2942C37.0292 16.5754 37.6305 16.5336 37.873 16.5063C37.873 16.8457 37.7778 17.4501 37.3639 17.8639Z" fill="white" fill-opacity="0.95"/>
</g>
</g>
<defs>
<clipPath id="clip0_1358_8374">
<rect width="50" height="50" fill="white"/>
</clipPath>
<clipPath id="clip1_1358_8374">
<rect width="5.99996" height="5.99996" fill="white" transform="translate(35.2426 11.5) rotate(45)"/>
</clipPath>
</defs>
</svg>
