<svg width="50" height="50" viewBox="0 0 50 50" fill="none" xmlns="http://www.w3.org/2000/svg">
<g clip-path="url(#clip0_1257_7261)">
<line x1="42.3087" y1="7.19974" x2="48.7129" y2="13.6039" stroke="#FAA21E" stroke-width="2" stroke-linecap="round"/>
<line x1="42.3087" y1="7.19974" x2="48.7129" y2="13.6039" stroke="white" stroke-opacity="0.95" stroke-width="2" stroke-linecap="round"/>
<line x1="36.9206" y1="19.0911" x2="43.3247" y2="25.4953" stroke="#FAA21E" stroke-width="2" stroke-linecap="round"/>
<line x1="36.9206" y1="19.0911" x2="43.3247" y2="25.4953" stroke="white" stroke-opacity="0.95" stroke-width="2" stroke-linecap="round"/>
<line x1="23.2382" y1="28.8645" x2="29.6424" y2="35.2687" stroke="#FAA21E" stroke-width="2" stroke-linecap="round"/>
<line x1="23.2382" y1="28.8645" x2="29.6424" y2="35.2687" stroke="white" stroke-opacity="0.95" stroke-width="2" stroke-linecap="round"/>
<line x1="19.0428" y1="30.5329" x2="25.4469" y2="36.937" stroke="#FAA21E" stroke-width="2" stroke-linecap="round"/>
<line x1="19.0428" y1="30.5329" x2="25.4469" y2="36.937" stroke="white" stroke-opacity="0.95" stroke-width="2" stroke-linecap="round"/>
<line x1="27.1476" y1="26.9099" x2="33.5517" y2="33.314" stroke="#FAA21E" stroke-width="2" stroke-linecap="round"/>
<line x1="27.1476" y1="26.9099" x2="33.5517" y2="33.314" stroke="white" stroke-opacity="0.95" stroke-width="2" stroke-linecap="round"/>
<line x1="31.0567" y1="24.9551" x2="37.4609" y2="31.3593" stroke="#FAA21E" stroke-width="2" stroke-linecap="round"/>
<line x1="31.0567" y1="24.9551" x2="37.4609" y2="31.3593" stroke="white" stroke-opacity="0.95" stroke-width="2" stroke-linecap="round"/>
<line x1="33.9886" y1="22.0234" x2="40.3927" y2="28.4276" stroke="#FAA21E" stroke-width="2" stroke-linecap="round"/>
<line x1="33.9886" y1="22.0234" x2="40.3927" y2="28.4276" stroke="white" stroke-opacity="0.95" stroke-width="2" stroke-linecap="round"/>
<line x1="38.8751" y1="15.1827" x2="45.2793" y2="21.5869" stroke="#FAA21E" stroke-width="2" stroke-linecap="round"/>
<line x1="38.8751" y1="15.1827" x2="45.2793" y2="21.5869" stroke="white" stroke-opacity="0.95" stroke-width="2" stroke-linecap="round"/>
<line x1="40.8297" y1="11.273" x2="47.2339" y2="17.6772" stroke="#FAA21E" stroke-width="2" stroke-linecap="round"/>
<line x1="40.8297" y1="11.273" x2="47.2339" y2="17.6772" stroke="white" stroke-opacity="0.95" stroke-width="2" stroke-linecap="round"/>
<path d="M35.7386 24.2079C43.6725 16.274 46.3541 7.03975 43.4109 4.0966C40.4677 1.15345 32.2215 2.84701 23.2996 11.7689C14.3778 20.6908 14.0321 26.17 14.0411 30.0112C11.0072 33.045 2.78944 39.1896 1.25656 40.7225C0.298502 41.6806 -0.81661 44.1778 1.25655 46.2509C3.32972 48.3241 5.82694 47.209 6.78499 46.2509C8.31788 44.7181 14.6813 36.3997 17.5554 33.5255C21.8756 33.0554 26.6371 33.3094 35.7386 24.2079Z" fill="#FAA21E"/>
<g clip-path="url(#clip1_1257_7261)">
<path d="M32.4889 13.832C33.0414 14.3845 33.1686 15.1914 33.1686 15.6446C32.8446 15.6283 31.9436 15.6508 31.1862 15.9278C30.4288 16.2047 29.9343 16.6132 29.7702 16.7774L29.5436 16.5508C29.7135 16.3809 30.0358 15.9496 30.3932 15.1348C30.7687 14.2789 30.7129 13.4762 30.6764 13.1524C31.1295 13.1524 31.9364 13.2796 32.4889 13.832Z" fill="#FAA21E"/>
<path d="M32.4889 13.832C33.0414 14.3845 33.1686 15.1914 33.1686 15.6446C32.8446 15.6283 31.9436 15.6508 31.1862 15.9278C30.4288 16.2047 29.9343 16.6132 29.7702 16.7774L29.5436 16.5508C29.7135 16.3809 30.0358 15.9496 30.3932 15.1348C30.7687 14.2789 30.7129 13.4762 30.6764 13.1524C31.1295 13.1524 31.9364 13.2796 32.4889 13.832Z" fill="white" fill-opacity="0.95"/>
<path d="M26.8248 19.4962C26.2723 18.9437 26.1451 18.1368 26.1451 17.6837C26.4692 17.6999 27.3702 17.6774 28.1275 17.4005C28.8849 17.1235 29.3794 16.715 29.5436 16.5509L29.7701 16.7774C29.6002 16.9473 29.2779 17.3787 28.9205 18.1934C28.5451 19.0493 28.6008 19.8521 28.6373 20.1759C28.1842 20.1759 27.3773 20.0487 26.8248 19.4962Z" fill="#FAA21E"/>
<path d="M26.8248 19.4962C26.2723 18.9437 26.1451 18.1368 26.1451 17.6837C26.4692 17.6999 27.3702 17.6774 28.1275 17.4005C28.8849 17.1235 29.3794 16.715 29.5436 16.5509L29.7701 16.7774C29.6002 16.9473 29.2779 17.3787 28.9205 18.1934C28.5451 19.0493 28.6008 19.8521 28.6373 20.1759C28.1842 20.1759 27.3773 20.0487 26.8248 19.4962Z" fill="white" fill-opacity="0.95"/>
<path d="M26.8248 13.8321C27.3773 13.2796 28.1842 13.1524 28.6373 13.1524C28.6211 13.4764 28.6436 14.3775 28.9205 15.1348C29.1975 15.8922 29.606 16.3867 29.7702 16.5509L29.5436 16.7774C29.3737 16.6075 28.9423 16.2852 28.1276 15.9278C27.2717 15.5524 26.4689 15.6081 26.1451 15.6446C26.1451 15.1915 26.2723 14.3846 26.8248 13.8321Z" fill="#FAA21E"/>
<path d="M26.8248 13.8321C27.3773 13.2796 28.1842 13.1524 28.6373 13.1524C28.6211 13.4764 28.6436 14.3775 28.9205 15.1348C29.1975 15.8922 29.606 16.3867 29.7702 16.5509L29.5436 16.7774C29.3737 16.6075 28.9423 16.2852 28.1276 15.9278C27.2717 15.5524 26.4689 15.6081 26.1451 15.6446C26.1451 15.1915 26.2723 14.3846 26.8248 13.8321Z" fill="white" fill-opacity="0.95"/>
<path d="M32.4889 19.4962C31.9364 20.0487 31.1295 20.1759 30.6764 20.1759C30.6926 19.8518 30.6701 18.9508 30.3932 18.1935C30.1162 17.4361 29.7077 16.9416 29.5436 16.7774L29.7701 16.5509C29.94 16.7208 30.3714 17.0431 31.1862 17.4005C32.042 17.7759 32.8448 17.7202 33.1686 17.6837C33.1686 18.1368 33.0414 18.9437 32.4889 19.4962Z" fill="#FAA21E"/>
<path d="M32.4889 19.4962C31.9364 20.0487 31.1295 20.1759 30.6764 20.1759C30.6926 19.8518 30.6701 18.9508 30.3932 18.1935C30.1162 17.4361 29.7077 16.9416 29.5436 16.7774L29.7701 16.5509C29.94 16.7208 30.3714 17.0431 31.1862 17.4005C32.042 17.7759 32.8448 17.7202 33.1686 17.6837C33.1686 18.1368 33.0414 18.9437 32.4889 19.4962Z" fill="white" fill-opacity="0.95"/>
</g>
</g>
<defs>
<clipPath id="clip0_1257_7261">
<rect width="50" height="50" fill="white"/>
</clipPath>
<clipPath id="clip1_1257_7261">
<rect width="8" height="8" fill="white" transform="translate(29.6569 11) rotate(45)"/>
</clipPath>
</defs>
</svg>
