<svg width="50" height="50" viewBox="0 0 50 50" fill="none" xmlns="http://www.w3.org/2000/svg">
<g clip-path="url(#clip0_1358_8373)">
<path d="M1.08224 42.5752L19.0413 27.3115L22.5363 30.8064L7.27251 48.7655C6.48163 49.0129 4.72456 48.8871 2.84259 47.0051C0.960607 45.1232 0.834806 43.3661 1.08224 42.5752Z" fill="#FEFEFE" stroke="#FAA21E" stroke-width="0.996296"/>
<g clip-path="url(#clip1_1358_8373)">
<path d="M8.3787 41.3787C8.79253 41.7925 8.88781 42.3969 8.88781 42.7363C8.64507 42.7242 7.97019 42.741 7.4029 42.9485C6.8356 43.1559 6.46522 43.4619 6.34224 43.5849L6.17254 43.4152C6.29982 43.2879 6.54122 42.9648 6.80893 42.3545C7.09016 41.7134 7.0484 41.1121 7.02106 40.8696C7.36047 40.8696 7.96486 40.9649 8.3787 41.3787Z" fill="#FAA21E"/>
<path d="M4.13607 45.6213C3.72224 45.2075 3.62696 44.6031 3.62696 44.2637C3.8697 44.2758 4.54458 44.259 5.11187 44.0515C5.67917 43.8441 6.04955 43.5381 6.17253 43.4151L6.34223 43.5848C6.21495 43.7121 5.97355 44.0352 5.70584 44.6455C5.42461 45.2866 5.46637 45.8879 5.49371 46.1304C5.1543 46.1304 4.54991 46.0351 4.13607 45.6213Z" fill="#FAA21E"/>
<path d="M4.13608 41.3787C4.54992 40.9649 5.15431 40.8696 5.49372 40.8696C5.48156 41.1123 5.49841 41.7872 5.70585 42.3545C5.91329 42.9218 6.21927 43.2922 6.34224 43.4151L6.17254 43.5848C6.04526 43.4576 5.72216 43.2162 5.11188 42.9485C4.4708 42.6672 3.86952 42.709 3.62697 42.7363C3.62697 42.3969 3.72225 41.7925 4.13608 41.3787Z" fill="#FAA21E"/>
<path d="M8.37869 45.6213C7.96485 46.0351 7.36046 46.1304 7.02105 46.1304C7.03321 45.8877 7.01636 45.2128 6.80892 44.6455C6.60148 44.0782 6.2955 43.7078 6.17253 43.5849L6.34223 43.4152C6.46951 43.5424 6.79261 43.7838 7.40289 44.0515C8.04397 44.3328 8.64525 44.291 8.8878 44.2637C8.8878 44.6031 8.79252 45.2075 8.37869 45.6213Z" fill="#FAA21E"/>
</g>
<path d="M20.1049 11.0922L18.7234 26.9798L22.868 31.1244L38.7556 29.7429L48.9012 19.5972C49.1171 19.3814 49.4624 18.2071 49.4624 17.6545C49.4624 17.1019 49.1171 15.9276 48.7717 15.5822L34.2656 1.07608C33.9202 0.730699 32.8841 0.385316 32.1933 0.385316C31.3195 0.385316 30.4376 0.759481 30.2505 0.946564L20.1049 11.0922Z" fill="#FAA21E"/>
<path d="M32.5387 8.32918C31.986 7.77657 31.2722 7.75354 30.8117 7.9838L27.3579 11.4376C27.2428 11.783 27.1507 12.6119 27.7033 13.1645C28.2559 13.7172 29.0848 13.6251 29.4302 13.5099L32.884 10.0561C33.1143 9.59558 33.0913 8.88179 32.5387 8.32918Z" fill="#FAA21E"/>
<path d="M32.5387 8.32918C31.986 7.77657 31.2722 7.75354 30.8117 7.9838L27.3579 11.4376C27.2428 11.783 27.1507 12.6119 27.7033 13.1645C28.2559 13.7172 29.0848 13.6251 29.4302 13.5099L32.884 10.0561C33.1143 9.59558 33.0913 8.88179 32.5387 8.32918Z" fill="white" fill-opacity="0.95"/>
<path d="M37.0287 12.819C36.4761 12.2664 35.7623 12.2434 35.3018 12.4737L31.848 15.9275C31.7328 16.2729 31.6407 17.1018 32.1933 17.6544C32.746 18.207 33.5749 18.1149 33.9203 17.9998L37.3741 14.546C37.6043 14.0855 37.5813 13.3717 37.0287 12.819Z" fill="#FAA21E"/>
<path d="M37.0287 12.819C36.4761 12.2664 35.7623 12.2434 35.3018 12.4737L31.848 15.9275C31.7328 16.2729 31.6407 17.1018 32.1933 17.6544C32.746 18.207 33.5749 18.1149 33.9203 17.9998L37.3741 14.546C37.6043 14.0855 37.5813 13.3717 37.0287 12.819Z" fill="white" fill-opacity="0.95"/>
<path d="M41.5186 17.3092C40.966 16.7566 40.2522 16.7336 39.7917 16.9638L36.3379 20.4177C36.2228 20.7631 36.1307 21.592 36.6833 22.1446C37.2359 22.6972 38.0648 22.6051 38.4102 22.49L41.864 19.0361C42.0943 18.5756 42.0712 17.8618 41.5186 17.3092Z" fill="#FAA21E"/>
<path d="M41.5186 17.3092C40.966 16.7566 40.2522 16.7336 39.7917 16.9638L36.3379 20.4177C36.2228 20.7631 36.1307 21.592 36.6833 22.1446C37.2359 22.6972 38.0648 22.6051 38.4102 22.49L41.864 19.0361C42.0943 18.5756 42.0712 17.8618 41.5186 17.3092Z" fill="white" fill-opacity="0.95"/>
</g>
<defs>
<clipPath id="clip0_1358_8373">
<rect width="50" height="50" fill="white"/>
</clipPath>
<clipPath id="clip1_1358_8373">
<rect width="5.99996" height="5.99996" fill="white" transform="translate(6.25739 39.2574) rotate(45)"/>
</clipPath>
</defs>
</svg>
