<svg width="50" height="50" viewBox="0 0 50 50" fill="none" xmlns="http://www.w3.org/2000/svg">
<g clip-path="url(#clip0_1369_8325)">
<path d="M10.0833 37.037L25.6344 21.4858C25.9908 21.9449 26.4943 22.5534 26.8941 22.9531C27.3048 23.3638 27.9045 23.853 28.3646 24.2096L12.8103 39.764L10.0833 37.037Z" fill="#FEFEFE" stroke="#FAA21E" stroke-width="1.03994"/>
<path d="M45.0583 5.76656L40.8169 8.05037L42.7744 10.0079L45.0583 5.76656Z" fill="#FAA21E"/>
<path d="M35.1074 0.383286L36.9018 9.02915H33.3129L35.1074 0.383286Z" fill="#FAA21E"/>
<path d="M41.5 14.0862V17.8381L49.9985 15.5L41.5 14.0862Z" fill="#FAA21E"/>
<path d="M28.0928 17.8381L28.2559 14.0862L20.752 16.0437L28.0928 17.8381Z" fill="#FAA21E"/>
<path d="M32.9867 22.732H37.1235L35.1074 30.3991L32.9867 22.732Z" fill="#FAA21E"/>
<path d="M42.9376 21.5901L45.7108 25.9946L41.1431 23.3846L42.9376 21.5901Z" fill="#FAA21E"/>
<path d="M29.0716 7.72412L27.2771 9.51854L24.5039 4.78778L29.0716 7.72412Z" fill="#FAA21E"/>
<path fill-rule="evenodd" clip-rule="evenodd" d="M29.0716 9.35541C30.2461 8.18088 31.8529 7.77849 32.3422 7.72412C32.1247 8.26788 31.846 9.51854 32.4985 10.1711C33.3141 10.9867 36.5212 11.1498 37.5 10.1711C38.2507 9.42039 37.9794 8.20996 37.7461 7.6321L37.7174 7.56099C38.4243 7.94162 40.0665 8.93127 40.98 9.8448C41.8367 10.7015 42.4256 12.0076 42.7198 12.6602L42.7744 12.7811L42.7712 12.7805C42.2264 12.6715 41.1497 12.4562 40.4985 13.1074C39.6828 13.923 39.6667 17.6682 40.4985 18.5C41.3168 19.3183 41.8466 19.1472 42.3994 18.9687C42.5221 18.929 42.646 18.889 42.7744 18.8594C42.7551 18.9162 42.7357 18.9746 42.7158 19.0349C42.5056 19.6709 42.2307 20.5025 41.1431 21.5901C40.2839 22.4494 39.447 22.9747 38.7616 23.405C38.4973 23.5709 38.2555 23.7226 38.0437 23.8739C38.0437 23.7466 38.0511 23.5955 38.0593 23.4311C38.0928 22.7532 38.1375 21.8471 37.7174 21.427C37.0649 20.7745 32.9867 20.6114 32.171 21.427C31.5185 22.0795 31.6273 23.4389 31.8448 23.8739C31.301 23.7652 29.9198 23.254 28.7453 22.0795C27.5708 20.905 27.0596 19.5238 26.9509 18.9801C27.3859 19.0888 28.419 19.1432 29.0716 18.4907C29.8872 17.675 29.8872 13.7599 29.2347 13.1074C28.7127 12.5854 27.4946 12.6724 26.9509 12.7811C27.1684 12.1286 27.897 10.5299 29.0716 9.35541ZM33.478 17.5657C34.3185 18.4063 35.6813 18.4063 36.5218 17.5657C37.3623 16.7252 37.3623 15.3625 36.5218 14.522C35.6813 13.6814 34.3185 13.6814 33.478 14.522C32.6375 15.3625 32.6375 16.7252 33.478 17.5657Z" fill="#FAA21E"/>
<path d="M12.8555 41.8391L8.00818 36.9919L4.73246e-07 45L3.04659e-07 47L3 50H5L12.8555 41.8391Z" fill="#FAA21E"/>
<g clip-path="url(#clip1_1369_8325)">
<path d="M7.91422 42.0858C8.25889 42.4305 8.33824 42.9338 8.33824 43.2165C8.13608 43.2064 7.574 43.2204 7.10152 43.3932C6.62905 43.5659 6.32057 43.8208 6.21815 43.9232L6.07682 43.7819C6.18282 43.6759 6.38387 43.4068 6.60684 42.8985C6.84106 42.3646 6.80628 41.8638 6.78351 41.6618C7.06619 41.6618 7.56956 41.7411 7.91422 42.0858Z" fill="#FAA21E"/>
<path d="M7.91422 42.0858C8.25889 42.4305 8.33824 42.9338 8.33824 43.2165C8.13608 43.2064 7.574 43.2204 7.10152 43.3932C6.62905 43.5659 6.32057 43.8208 6.21815 43.9232L6.07682 43.7819C6.18282 43.6759 6.38387 43.4068 6.60684 42.8985C6.84106 42.3646 6.80628 41.8638 6.78351 41.6618C7.06619 41.6618 7.56956 41.7411 7.91422 42.0858Z" fill="white" fill-opacity="0.95"/>
<path d="M4.3807 45.6193C4.03603 45.2746 3.95668 44.7712 3.95668 44.4886C4.15884 44.4987 4.72092 44.4847 5.1934 44.3119C5.66587 44.1391 5.97435 43.8843 6.07677 43.7819L6.21811 43.9232C6.1121 44.0292 5.91105 44.2983 5.68808 44.8066C5.45386 45.3405 5.48864 45.8413 5.51141 46.0433C5.22873 46.0433 4.72536 45.9639 4.3807 45.6193Z" fill="#FAA21E"/>
<path d="M4.3807 45.6193C4.03603 45.2746 3.95668 44.7712 3.95668 44.4886C4.15884 44.4987 4.72092 44.4847 5.1934 44.3119C5.66587 44.1391 5.97435 43.8843 6.07677 43.7819L6.21811 43.9232C6.1121 44.0292 5.91105 44.2983 5.68808 44.8066C5.45386 45.3405 5.48864 45.8413 5.51141 46.0433C5.22873 46.0433 4.72536 45.9639 4.3807 45.6193Z" fill="white" fill-opacity="0.95"/>
<path d="M4.38072 42.0858C4.72538 41.7411 5.22875 41.6618 5.51143 41.6618C5.5013 41.864 5.51533 42.426 5.6881 42.8985C5.86087 43.371 6.1157 43.6795 6.21812 43.7819L6.07679 43.9232C5.97078 43.8172 5.70169 43.6162 5.19342 43.3932C4.65949 43.159 4.15871 43.1937 3.9567 43.2165C3.9567 42.9338 4.03605 42.4305 4.38072 42.0858Z" fill="#FAA21E"/>
<path d="M4.38072 42.0858C4.72538 41.7411 5.22875 41.6618 5.51143 41.6618C5.5013 41.864 5.51533 42.426 5.6881 42.8985C5.86087 43.371 6.1157 43.6795 6.21812 43.7819L6.07679 43.9232C5.97078 43.8172 5.70169 43.6162 5.19342 43.3932C4.65949 43.159 4.15871 43.1937 3.9567 43.2165C3.9567 42.9338 4.03605 42.4305 4.38072 42.0858Z" fill="white" fill-opacity="0.95"/>
<path d="M7.91421 45.6193C7.56954 45.9639 7.06617 46.0433 6.78349 46.0433C6.79362 45.8411 6.77959 45.279 6.60682 44.8066C6.43405 44.3341 6.17922 44.0256 6.0768 43.9232L6.21814 43.7819C6.32414 43.8879 6.59323 44.0889 7.10151 44.3119C7.63543 44.5461 8.13622 44.5113 8.33822 44.4886C8.33822 44.7712 8.25887 45.2746 7.91421 45.6193Z" fill="#FAA21E"/>
<path d="M7.91421 45.6193C7.56954 45.9639 7.06617 46.0433 6.78349 46.0433C6.79362 45.8411 6.77959 45.279 6.60682 44.8066C6.43405 44.3341 6.17922 44.0256 6.0768 43.9232L6.21814 43.7819C6.32414 43.8879 6.59323 44.0889 7.10151 44.3119C7.63543 44.5461 8.13622 44.5113 8.33822 44.4886C8.33822 44.7712 8.25887 45.2746 7.91421 45.6193Z" fill="white" fill-opacity="0.95"/>
</g>
</g>
<defs>
<clipPath id="clip0_1369_8325">
<rect width="50" height="50" fill="white"/>
</clipPath>
<clipPath id="clip1_1369_8325">
<rect width="4.99709" height="4.99709" fill="white" transform="translate(6.14746 40.3191) rotate(45)"/>
</clipPath>
</defs>
</svg>
