<svg width="50" height="50" viewBox="0 0 50 50" fill="none" xmlns="http://www.w3.org/2000/svg">
<path d="M43.8244 11.6002C43.3005 12.1122 42.0816 12.8802 41.5358 13.2002C41.645 13.7335 42.0381 15.0323 42.1907 16.0802C42.447 17.8402 42.447 18.3202 42.5182 19.2802C42.8456 19.4935 43.6969 19.8562 44.4828 19.6002C45.2687 19.3442 45.9017 18.0002 46.12 17.3602L46.12 13.5202C46.12 11.4722 45.6834 10.3202 45.4651 9.68021C45.1377 10.1069 44.3483 11.0882 43.8244 11.6002Z" fill="#FAA21E"/>
<path d="M10.1014 14.1604C8.23405 13.2052 6.1721 12.8804 5.18977 12.8804C4.79827 14.0002 4.53489 15.4404 4.20745 17.3604C3.98786 18.648 3.88 21.3071 3.88 22.4804C4.31659 22.8004 6.04112 23.5684 9.44652 24.0804C12.8519 24.5924 16.9777 23.6537 18.6149 23.1204C17.96 21.7337 16.7157 18.7044 15.6679 17.6804C14.3581 16.4004 12.6035 15.4402 10.1014 14.1604Z" fill="#FAA21E"/>
<path d="M18.8332 9.75935C18.1172 9.29284 15.8254 7.67129 14.8818 6.92843L15.6651 2.84568C16.551 3.52416 17.6939 4.43067 18.7715 5.34815C20.1364 6.5103 21.34 7.64349 21.8217 8.34952C22.2911 9.03769 22.5377 9.86732 22.6507 10.6448C22.7155 11.0905 22.7348 11.5084 22.7302 11.8567C20.7893 11.0079 19.5331 10.2154 18.8332 9.75935ZM20.8422 18.2597C20.2205 17.9571 19.5203 17.5334 18.8112 17.0841C18.5701 16.9313 18.3271 16.775 18.0869 16.6205C17.5485 16.2742 17.0238 15.9367 16.5647 15.6675C16.3492 15.5412 16.0787 15.3791 15.7672 15.1925C14.9153 14.6821 13.7573 13.9884 12.5834 13.3412C11.7798 12.8982 10.959 12.4715 10.211 12.1341C9.47238 11.8009 8.76992 11.5386 8.21361 11.448C7.6229 11.3518 7.15961 11.2817 6.79755 11.2317C7.61124 10.5195 8.58442 9.83353 9.329 9.4697C10.2973 8.99657 11.3752 8.57986 12.919 8.27211C13.7884 8.97044 15.5482 10.2218 16.7031 11.0316C18.6645 12.4069 21.1072 13.6322 22.6798 14.3137C22.6614 14.8174 22.5832 15.5448 22.2729 16.1937C21.8406 17.0977 21.4713 17.8374 20.8422 18.2597Z" fill="#FEFEFE" stroke="#FAA21E" stroke-width="0.956444"/>
<path d="M11.4056 40.7849L13.024 37.3581H15.8371C18.0596 38.9854 22.5626 41.0499 24.3562 41.8011C26.1357 42.5464 31.2454 44.0681 34.4058 44.9024L33.8737 46.982C33.5183 47.9873 31.6054 50.1957 26.5652 49.2106C23.4049 48.5929 20.8586 46.8906 18.7919 45.2274C18.276 44.8121 17.7919 44.401 17.3353 44.0103C17.2664 43.9514 17.198 43.8928 17.1303 43.8347C16.7506 43.5095 16.3885 43.1993 16.0478 42.9201C15.2643 42.2779 14.5158 41.7303 13.8319 41.5393C12.6334 41.2047 11.852 40.9471 11.4056 40.7849Z" fill="#FEFEFE" stroke="#FAA21E" stroke-width="0.956444"/>
<path d="M37.9085 44.8191C37.8002 44.649 37.6845 44.4671 37.5594 44.2846C38.366 43.412 39.5078 41.8936 39.9969 40.9377C40.3838 40.1815 40.9042 38.9396 41.2871 37.986L42.312 39.789C42.169 40.1676 42.0634 40.6635 41.9664 41.1671C41.9291 41.3612 41.8923 41.5607 41.855 41.7637C41.7662 42.246 41.6737 42.7484 41.56 43.2471C41.3988 43.9545 41.2045 44.6078 40.9454 45.1151C40.6836 45.6276 40.3926 45.9198 40.0742 46.0264C39.6579 46.1659 39.3701 46.1683 39.1596 46.1159C38.9505 46.0638 38.7665 45.9449 38.5785 45.7489C38.3844 45.5465 38.2054 45.2832 37.9996 44.962C37.9698 44.9155 37.9395 44.8678 37.9085 44.8191Z" fill="#FEFEFE" stroke="#FAA21E" stroke-width="0.956444"/>
<path d="M35.9693 9.67962C34.9215 9.93562 34.1858 10.1599 33.64 10.1599C34.2949 11.7599 35.1179 15.4396 35.6419 17.9996C36.2967 21.1996 36.9516 27.9196 36.9516 33.0396C36.9516 37.1356 36.7333 40.933 36.6242 42.3196C37.3882 41.3596 38.7092 39.2797 39.2331 37.9997C39.757 36.7197 40.6626 34.3196 40.8809 33.3596C40.9901 31.4396 41.2084 27.1516 41.2084 25.3596C41.2084 23.1196 41.2084 18.9596 40.5535 14.7996C40.0296 11.4716 38.8071 8.93295 38.2614 8.07962C37.9339 8.50629 37.0171 9.42362 35.9693 9.67962Z" fill="#FAA21E"/>
<path d="M12.7209 25.6799C8.01218 26.0001 4.97148 24.8268 3.88 24.0801C3.88 25.3601 4.46938 28.1759 5.51719 30.4799C6.82696 33.3599 8.79161 35.2799 12.7209 35.5999C15.8644 35.8559 17.96 35.2799 18.6149 34.9599L18.5722 24.5601C18.2447 24.8801 16.9105 25.3951 12.7209 25.6799Z" fill="#FAA21E"/>
<path d="M44.2835 21.1998C43.1506 21.4766 42.5561 20.8265 42.447 20.7198L42.5181 30.8C42.8456 30.8 44.2835 30.7998 45.2017 29.3598C45.8365 28.3644 46.12 26.2131 46.12 25.9998V24.0798V19.2798C45.9017 19.5998 45.3313 20.9438 44.2835 21.1998Z" fill="#FAA21E"/>
<path d="M34.3321 18.9604C33.8082 16.4004 32.964 12.0801 32.2 10.1601C29.4879 10.32 26.9369 10.0004 24.1814 9.36038C24.5088 10.427 24.9673 13.2004 24.1814 15.7604C23.1991 18.9604 21.5619 20.2404 20.907 20.2404C20.3831 20.2404 18.2874 18.747 17.3051 18.0004L19.9246 22.8004C20.0338 26.9604 19.9495 35.1203 19.9495 35.6003C19.9495 36.3501 18.0691 36.5604 17.6326 36.5604C24.2183 39.7954 28.1029 41.2088 35.3144 43.2804C35.4236 39.9737 35.6419 32.9124 35.6419 31.1204C35.6419 28.8804 34.987 22.1604 34.3321 18.9604Z" fill="#FAA21E"/>
<path d="M41.5912 11.152L40.9005 5.81088C41.1246 5.85521 41.4679 5.97045 41.9488 6.25243C42.9993 6.86841 43.7898 8.08361 44.1966 8.74409C44.1465 8.84465 44.1015 8.92697 44.022 9.03966C43.8883 9.22899 43.6569 9.49829 43.1662 9.97788C42.5987 10.5325 42.0589 10.8807 41.5912 11.152Z" fill="#FEFEFE" stroke="#FAA21E" stroke-width="0.956444"/>
<path d="M35.1009 5.35985L35.352 5.37736C35.352 5.37738 35.3521 5.3774 35.3521 5.37741C35.2882 5.37293 35.2061 5.36719 35.1009 5.35985ZM35.5526 5.53776C35.5599 5.50997 35.5652 5.48501 35.569 5.46363C35.8363 5.57162 36.1017 5.68563 36.3062 5.78787C36.7407 6.00499 36.9301 6.19478 37.019 6.33538C37.1028 6.46811 37.1283 6.60521 37.1283 6.79978C37.1283 6.84498 37.0973 6.96642 36.8946 7.15216C36.7004 7.33003 36.4029 7.51463 36.0223 7.68199C35.2623 8.01621 34.2635 8.24153 33.3497 8.24155C31.0253 8.24163 27.9286 8.24138 23.8729 7.64786C23.7594 7.40298 23.5919 7.13012 23.4217 6.88161C23.1619 6.50207 22.842 6.10217 22.551 5.81776C22.4042 5.67436 22.2109 5.49354 21.9932 5.29739C23.6314 5.70623 25.6978 6.14847 27.4093 6.31573C29.0589 6.47695 30.6256 6.55802 31.9083 6.55804C33.1665 6.55806 34.2169 6.4812 34.7899 6.29456C35.1228 6.1861 35.3294 5.98821 35.4465 5.78966C35.5024 5.69486 35.5343 5.6064 35.5526 5.53776Z" fill="#FEFEFE" stroke="#FAA21E" stroke-width="0.956444"/>
<path d="M36.7339 3.97237C35.8567 3.53381 35.7415 3.47869 34.7055 3.13149L35.3424 0.902457L37.1813 2.37354C38.2876 3.25865 38.7129 4.11799 38.932 5.1587C39.0063 5.51162 39.0569 5.88597 39.0999 6.29502C38.8553 5.86336 38.6202 5.51845 38.3901 5.23728C37.7853 4.49811 37.2316 4.22124 36.736 3.97343L36.7339 3.97237Z" fill="#FEFEFE" stroke="#FAA21E" stroke-width="0.956444"/>
<g clip-path="url(#clip0_1366_8482)">
<path d="M27.5 20.5C28.2803 20.5 28.94 20.98 29.26 21.3C29.0197 21.5174 28.3993 22.1696 28.06 22.9C27.7207 23.6304 27.66 24.2681 27.66 24.5H27.34C27.34 24.26 27.263 23.7278 26.94 22.9C26.6007 22.0304 25.9945 21.5029 25.74 21.3C26.06 20.98 26.7197 20.5 27.5 20.5Z" fill="#FAA21E"/>
<path d="M27.5 20.5C28.2803 20.5 28.94 20.98 29.26 21.3C29.0197 21.5174 28.3993 22.1696 28.06 22.9C27.7207 23.6304 27.66 24.2681 27.66 24.5H27.34C27.34 24.26 27.263 23.7278 26.94 22.9C26.6007 22.0304 25.9945 21.5029 25.74 21.3C26.06 20.98 26.7197 20.5 27.5 20.5Z" fill="white" fill-opacity="0.95"/>
<path d="M27.5 28.5C26.7197 28.5 26.06 28.02 25.74 27.7C25.9803 27.4826 26.6007 26.8304 26.94 26.1C27.2793 25.3696 27.34 24.7319 27.34 24.5L27.66 24.5C27.66 24.74 27.737 25.2722 28.06 26.1C28.3993 26.9696 29.0055 27.4971 29.26 27.7C28.94 28.02 28.2803 28.5 27.5 28.5Z" fill="#FAA21E"/>
<path d="M27.5 28.5C26.7197 28.5 26.06 28.02 25.74 27.7C25.9803 27.4826 26.6007 26.8304 26.94 26.1C27.2793 25.3696 27.34 24.7319 27.34 24.5L27.66 24.5C27.66 24.74 27.737 25.2722 28.06 26.1C28.3993 26.9696 29.0055 27.4971 29.26 27.7C28.94 28.02 28.2803 28.5 27.5 28.5Z" fill="white" fill-opacity="0.95"/>
<path d="M23.5 24.5C23.5 23.7197 23.98 23.06 24.3 22.74C24.5174 22.9803 25.1696 23.6007 25.9 23.94C26.6304 24.2793 27.2681 24.34 27.5 24.34L27.5 24.66C27.26 24.66 26.7278 24.737 25.9 25.06C25.0304 25.3993 24.5029 26.0055 24.3 26.26C23.98 25.94 23.5 25.2803 23.5 24.5Z" fill="#FAA21E"/>
<path d="M23.5 24.5C23.5 23.7197 23.98 23.06 24.3 22.74C24.5174 22.9803 25.1696 23.6007 25.9 23.94C26.6304 24.2793 27.2681 24.34 27.5 24.34L27.5 24.66C27.26 24.66 26.7278 24.737 25.9 25.06C25.0304 25.3993 24.5029 26.0055 24.3 26.26C23.98 25.94 23.5 25.2803 23.5 24.5Z" fill="white" fill-opacity="0.95"/>
<path d="M31.5 24.5C31.5 25.2803 31.02 25.94 30.7 26.26C30.4826 26.0197 29.8304 25.3993 29.1 25.06C28.3696 24.7207 27.7319 24.66 27.5 24.66L27.5 24.34C27.74 24.34 28.2722 24.263 29.1 23.94C29.9696 23.6007 30.4971 22.9945 30.7 22.74C31.02 23.06 31.5 23.7197 31.5 24.5Z" fill="#FAA21E"/>
<path d="M31.5 24.5C31.5 25.2803 31.02 25.94 30.7 26.26C30.4826 26.0197 29.8304 25.3993 29.1 25.06C28.3696 24.7207 27.7319 24.66 27.5 24.66L27.5 24.34C27.74 24.34 28.2722 24.263 29.1 23.94C29.9696 23.6007 30.4971 22.9945 30.7 22.74C31.02 23.06 31.5 23.7197 31.5 24.5Z" fill="white" fill-opacity="0.95"/>
</g>
<defs>
<clipPath id="clip0_1366_8482">
<rect width="8" height="8" fill="white" transform="translate(23.5 20.5)"/>
</clipPath>
</defs>
</svg>
