<svg width="50" height="50" viewBox="0 0 50 50" fill="none" xmlns="http://www.w3.org/2000/svg">
<g clip-path="url(#clip0_2148_17936)">
<path d="M5.99999 50L1.25341e-08 44C1.17801 42.2785 5.0289 37.6265 7 35.5C9.46388 32.8419 16.1165 29.3998 17.5 28C18.866 26.6178 21.6354 22.3688 22 22C22.4163 21.5788 23.873 20.6968 24.5 20.5C25.1043 20.6911 26.4505 21.5043 27.5 22.5C28.5495 23.4957 29.5318 24.9569 29.5 25.5C29.3148 26.0341 28.4406 27.6034 28 28C27.5594 28.3965 23.1963 31.289 22 32.5C20.3473 34.1728 17.3586 40.0361 14.4556 42.9733C11.9794 45.4787 7.59709 49.0037 5.99999 50Z" fill="#FAA21E"/>
<path d="M29.1646 25.3193C29.0666 25.0946 28.9501 24.8578 28.8193 24.6189C28.4397 23.9257 27.9189 23.1763 27.342 22.6353C26.7715 22.1004 26.0249 21.6249 25.3474 21.2621C25.0883 21.1234 24.8334 20.9981 24.5958 20.89L30.6564 16.9939C30.6771 16.9959 30.7029 16.9994 30.7342 17.0053C30.8306 17.0233 30.9572 17.0599 31.1059 17.1237C31.4027 17.2508 31.7718 17.4791 32.1464 17.8536C32.9517 18.6589 33.0453 19.0904 33.0242 19.3154L29.1646 25.3193Z" fill="#FEFEFE" stroke="#FAA21E"/>
<path d="M31.5 15.5C31.1877 15.8123 30.0351 16.7943 29.3939 17.219C29.8546 17.2461 30.6628 17.6628 31.5 18.5C32.2384 19.2384 32.833 20.342 32.7427 20.5679C33.0858 19.9716 34.174 18.7872 34.4863 18.4749C34.9569 18.0042 36.9295 18.8602 38 19L49 8L42 1L31 12C31.0996 12.9304 31.8916 15.1084 31.5 15.5Z" fill="#FAA21E"/>
<g clip-path="url(#clip1_2148_17936)">
<path d="M41.6213 8.37869C42.0351 8.79253 42.1304 9.39693 42.1304 9.73634C41.8877 9.72418 41.2128 9.74103 40.6455 9.94847C40.0782 10.1559 39.7078 10.4619 39.5848 10.5849L39.4151 10.4152C39.5424 10.2879 39.7838 9.96478 40.0515 9.3545C40.3328 8.71341 40.291 8.11212 40.2637 7.86958C40.6031 7.86958 41.2075 7.96486 41.6213 8.37869Z" fill="#FAA21E"/>
<path d="M41.6213 8.37869C42.0351 8.79253 42.1304 9.39693 42.1304 9.73634C41.8877 9.72418 41.2128 9.74103 40.6455 9.94847C40.0782 10.1559 39.7078 10.4619 39.5848 10.5849L39.4151 10.4152C39.5424 10.2879 39.7838 9.96478 40.0515 9.3545C40.3328 8.71341 40.291 8.11212 40.2637 7.86958C40.6031 7.86958 41.2075 7.96486 41.6213 8.37869Z" fill="white" fill-opacity="0.95"/>
<path d="M37.3787 12.6214C36.9649 12.2075 36.8696 11.6031 36.8696 11.2637C37.1123 11.2759 37.7872 11.259 38.3545 11.0516C38.9218 10.8441 39.2922 10.5382 39.4152 10.4152L39.5849 10.5849C39.4576 10.7122 39.2162 11.0353 38.9485 11.6456C38.6672 12.2866 38.709 12.8879 38.7363 13.1305C38.3969 13.1305 37.7925 13.0352 37.3787 12.6214Z" fill="#FAA21E"/>
<path d="M37.3787 12.6214C36.9649 12.2075 36.8696 11.6031 36.8696 11.2637C37.1123 11.2759 37.7872 11.259 38.3545 11.0516C38.9218 10.8441 39.2922 10.5382 39.4152 10.4152L39.5849 10.5849C39.4576 10.7122 39.2162 11.0353 38.9485 11.6456C38.6672 12.2866 38.709 12.8879 38.7363 13.1305C38.3969 13.1305 37.7925 13.0352 37.3787 12.6214Z" fill="white" fill-opacity="0.95"/>
<path d="M37.3786 8.37869C37.7925 7.96486 38.3969 7.86958 38.7363 7.86958C38.7241 8.11232 38.741 8.7872 38.9484 9.3545C39.1559 9.9218 39.4618 10.2922 39.5848 10.4152L39.4151 10.5849C39.2878 10.4576 38.9647 10.2162 38.3544 9.94847C37.7134 9.66724 37.1121 9.709 36.8695 9.73634C36.8695 9.39693 36.9648 8.79253 37.3786 8.37869Z" fill="#FAA21E"/>
<path d="M37.3786 8.37869C37.7925 7.96486 38.3969 7.86958 38.7363 7.86958C38.7241 8.11232 38.741 8.7872 38.9484 9.3545C39.1559 9.9218 39.4618 10.2922 39.5848 10.4152L39.4151 10.5849C39.2878 10.4576 38.9647 10.2162 38.3544 9.94847C37.7134 9.66724 37.1121 9.709 36.8695 9.73634C36.8695 9.39693 36.9648 8.79253 37.3786 8.37869Z" fill="white" fill-opacity="0.95"/>
<path d="M41.6214 12.6214C41.2075 13.0352 40.6031 13.1305 40.2637 13.1305C40.2759 12.8877 40.259 12.2129 40.0516 11.6456C39.8441 11.0783 39.5382 10.7079 39.4152 10.5849L39.5849 10.4152C39.7122 10.5425 40.0353 10.7839 40.6456 11.0516C41.2866 11.3328 41.8879 11.2911 42.1305 11.2637C42.1305 11.6031 42.0352 12.2075 41.6214 12.6214Z" fill="#FAA21E"/>
<path d="M41.6214 12.6214C41.2075 13.0352 40.6031 13.1305 40.2637 13.1305C40.2759 12.8877 40.259 12.2129 40.0516 11.6456C39.8441 11.0783 39.5382 10.7079 39.4152 10.5849L39.5849 10.4152C39.7122 10.5425 40.0353 10.7839 40.6456 11.0516C41.2866 11.3328 41.8879 11.2911 42.1305 11.2637C42.1305 11.6031 42.0352 12.2075 41.6214 12.6214Z" fill="white" fill-opacity="0.95"/>
</g>
<path d="M48 8.29293L41.7071 2.00003L43 0.707105L49.2929 7L48 8.29293Z" fill="#FEFEFE" stroke="#FAA21E"/>
</g>
<defs>
<clipPath id="clip0_2148_17936">
<rect width="50" height="50" fill="white"/>
</clipPath>
<clipPath id="clip1_2148_17936">
<rect width="6" height="6" fill="white" transform="translate(39.5 6.25739) rotate(45)"/>
</clipPath>
</defs>
</svg>
