<svg width="51" height="51" viewBox="0 0 51 51" fill="none" xmlns="http://www.w3.org/2000/svg">
<g clip-path="url(#clip0_1358_8375)">
<path d="M4.81177 35.8795L4.7945 35.8863L4.77779 35.8943C4.01458 36.2603 3.24676 36.1757 2.59676 35.888C1.9287 35.5922 1.44721 35.1086 1.27801 34.784C1.10963 34.461 0.99738 33.8087 1.14918 33.1292C1.29461 32.4782 1.67021 31.8525 2.41559 31.4865L16.5514 26.4019L16.9316 31.1432L4.81177 35.8795Z" fill="#FEFEFE" stroke="#FAA21E" stroke-width="0.992606"/>
<path d="M14.2919 45.6548L14.2844 45.6723L14.2755 45.6892C13.8828 46.4328 13.9524 47.1898 14.2345 47.8384C14.5246 48.5055 15.0142 48.997 15.352 49.1753C15.6898 49.3537 16.3718 49.481 17.0861 49.3444C17.7739 49.2129 18.4319 48.8495 18.826 48.1206L24.3969 34.21L19.4652 33.7204L14.2919 45.6548Z" fill="#FEFEFE" stroke="#FAA21E" stroke-width="0.992606"/>
<path d="M37.2794 2.27154L28.5572 23.2345L20.6185 24.284C21.3429 21.8842 22.972 16.5257 23.6934 14.2904C24.5952 11.4964 26.4579 7.35705 29.5625 5.19866C32.0461 3.47196 35.7419 2.52779 37.2794 2.27154Z" fill="#FAA21E"/>
<path d="M49.4156 14.4884L28.2756 22.7689L27.0593 30.6837C29.4737 30.0099 34.8648 28.4935 37.1146 27.8191C39.9268 26.9761 44.104 25.2006 46.3271 22.1421C48.1055 19.6953 49.1271 16.0201 49.4156 14.4884Z" fill="#FAA21E"/>
<circle cx="23.4114" cy="27.7004" r="7.44455" fill="#FEFEFE" stroke="#FAA21E" stroke-width="0.992606"/>
<g clip-path="url(#clip1_1358_8375)">
<path d="M26.6779 30.6861C26.0563 31.3076 25.1486 31.4507 24.6388 31.4507C24.6571 31.0862 24.6317 30.0725 24.3202 29.2205C24.0086 28.3684 23.5491 27.8122 23.3644 27.6275L23.6192 27.3726C23.8104 27.5637 24.2957 27.9263 25.2123 28.3284C26.1751 28.7508 27.0782 28.6881 27.4425 28.647C27.4425 29.1568 27.2994 30.0645 26.6779 30.6861Z" fill="#FAA21E"/>
<path d="M20.3057 24.3139C20.9273 23.6924 21.835 23.5493 22.3448 23.5493C22.3265 23.9138 22.3518 24.9275 22.6634 25.7795C22.975 26.6316 23.4345 27.1878 23.6192 27.3725L23.3643 27.6274C23.1732 27.4363 22.6879 27.0737 21.7713 26.6716C20.8084 26.2492 19.9053 26.3119 19.5411 26.353C19.5411 25.8432 19.6842 24.9355 20.3057 24.3139Z" fill="#FAA21E"/>
<path d="M26.6779 24.3139C27.2995 24.9355 27.4426 25.8432 27.4426 26.353C27.078 26.3347 26.0644 26.36 25.2123 26.6716C24.3603 26.9832 23.804 27.4427 23.6193 27.6274L23.3644 27.3725C23.5556 27.1814 23.9181 26.6961 24.3202 25.7795C24.7426 24.8166 24.6799 23.9136 24.6388 23.5493C25.1486 23.5493 26.0563 23.6924 26.6779 24.3139Z" fill="#FAA21E"/>
<path d="M20.3057 30.6861C19.6842 30.0645 19.5411 29.1568 19.5411 28.647C19.9057 28.6653 20.9193 28.64 21.7713 28.3284C22.6234 28.0168 23.1797 27.5573 23.3644 27.3726L23.6193 27.6275C23.4281 27.8186 23.0655 28.3039 22.6634 29.2205C22.241 30.1834 22.3038 31.0864 22.3448 31.4507C21.8351 31.4507 20.9273 31.3076 20.3057 30.6861Z" fill="#FAA21E"/>
</g>
</g>
<defs>
<clipPath id="clip0_1358_8375">
<rect width="50" height="50" fill="white" transform="translate(0.581482 0.900024)"/>
</clipPath>
<clipPath id="clip1_1358_8375">
<rect width="9" height="9" fill="white" transform="translate(29.864 27.5) rotate(135)"/>
</clipPath>
</defs>
</svg>
