<svg width="50" height="50" viewBox="0 0 50 50" fill="none" xmlns="http://www.w3.org/2000/svg">
<g clip-path="url(#clip0_1383_8448)">
<path d="M37.8593 5.97775L33.7072 7.32282C34.6993 11.2176 34.9085 15.7033 36.863 17.4352C38.8471 19.1933 43.3389 20.9222 42.3426 17.4352L37.8593 5.97775Z" fill="#FAA21E"/>
<path d="M17.5672 20.6926C19.3252 17.6959 20.0977 12.6024 20.8302 8.357L16.1688 7.88256L9.4648 6.47589L6.97406 21.9185C7.47221 29.8889 15.8092 23.6893 17.5672 20.6926Z" fill="#FAA21E"/>
<path d="M19.9259 20.9222L22.6255 8.85937H25.4114C25.4114 8.85937 25.9037 9.46478 27.8963 9.46478C29.8889 9.46478 30.8852 8.46849 30.8852 8.46849L32.3762 7.92412L34.6978 18.6795L29.1646 28.7255L19.9259 20.9222Z" fill="#FAA21E"/>
<g clip-path="url(#clip1_1383_8448)">
<path d="M27.6279 12.5173C28.4049 12.4448 29.1063 12.8613 29.4547 13.1502C29.2357 13.389 28.6786 14.096 28.4087 14.8548C28.1389 15.6137 28.1377 16.2542 28.1593 16.4851L27.8407 16.5149C27.8183 16.2759 27.6921 15.7532 27.2936 14.959C26.8749 14.1248 26.2222 13.6559 25.95 13.4776C26.2388 13.1292 26.851 12.5899 27.6279 12.5173Z" fill="#FAA21E"/>
<path d="M27.6279 12.5173C28.4049 12.4448 29.1063 12.8613 29.4547 13.1502C29.2357 13.389 28.6786 14.096 28.4087 14.8548C28.1389 15.6137 28.1377 16.2542 28.1593 16.4851L27.8407 16.5149C27.8183 16.2759 27.6921 15.7532 27.2936 14.959C26.8749 14.1248 26.2222 13.6559 25.95 13.4776C26.2388 13.1292 26.851 12.5899 27.6279 12.5173Z" fill="white" fill-opacity="0.95"/>
<path d="M28.372 20.4826C27.595 20.5552 26.8936 20.1386 26.5452 19.8498C26.7643 19.611 27.3213 18.9039 27.5912 18.1451C27.8611 17.3863 27.8622 16.7457 27.8407 16.5149L28.1593 16.4851C28.1816 16.7241 28.3078 17.2468 28.7064 18.041C29.125 18.8752 29.7777 19.3441 30.05 19.5224C29.7611 19.8708 29.1489 20.4101 28.372 20.4826Z" fill="#FAA21E"/>
<path d="M28.372 20.4826C27.595 20.5552 26.8936 20.1386 26.5452 19.8498C26.7643 19.611 27.3213 18.9039 27.5912 18.1451C27.8611 17.3863 27.8622 16.7457 27.8407 16.5149L28.1593 16.4851C28.1816 16.7241 28.3078 17.2468 28.7064 18.041C29.125 18.8752 29.7777 19.3441 30.05 19.5224C29.7611 19.8708 29.1489 20.4101 28.372 20.4826Z" fill="white" fill-opacity="0.95"/>
<path d="M24.0173 16.872C23.9447 16.095 24.3613 15.3936 24.6502 15.0452C24.889 15.2643 25.596 15.8213 26.3548 16.0912C27.1136 16.3611 27.7542 16.3622 27.9851 16.3407L28.0148 16.6593C27.7759 16.6816 27.2531 16.8078 26.459 17.2064C25.6248 17.625 25.1559 18.2777 24.9775 18.55C24.6292 18.2611 24.0899 17.6489 24.0173 16.872Z" fill="#FAA21E"/>
<path d="M24.0173 16.872C23.9447 16.095 24.3613 15.3936 24.6502 15.0452C24.889 15.2643 25.596 15.8213 26.3548 16.0912C27.1136 16.3611 27.7542 16.3622 27.9851 16.3407L28.0148 16.6593C27.7759 16.6816 27.2531 16.8078 26.459 17.2064C25.6248 17.625 25.1559 18.2777 24.9775 18.55C24.6292 18.2611 24.0899 17.6489 24.0173 16.872Z" fill="white" fill-opacity="0.95"/>
<path d="M31.9826 16.128C32.0552 16.9049 31.6386 17.6064 31.3498 17.9547C31.111 17.7357 30.4039 17.1786 29.6451 16.9087C28.8863 16.6389 28.2457 16.6377 28.0149 16.6593L27.9851 16.3407C28.224 16.3184 28.7468 16.1922 29.5409 15.7936C30.3752 15.3749 30.844 14.7222 31.0224 14.45C31.3708 14.7389 31.91 15.351 31.9826 16.128Z" fill="#FAA21E"/>
<path d="M31.9826 16.128C32.0552 16.9049 31.6386 17.6064 31.3498 17.9547C31.111 17.7357 30.4039 17.1786 29.6451 16.9087C28.8863 16.6389 28.2457 16.6377 28.0149 16.6593L27.9851 16.3407C28.224 16.3184 28.7468 16.1922 29.5409 15.7936C30.3752 15.3749 30.844 14.7222 31.0224 14.45C31.3708 14.7389 31.91 15.351 31.9826 16.128Z" fill="white" fill-opacity="0.95"/>
</g>
<path d="M19.9259 46.3277C16.8758 46.3631 15.8685 48.2193 12.8004 49.9345C12.8004 49.9345 9.15955 40.5928 8.46852 37.3613C7.77748 34.1299 6.97407 25.9035 6.97407 25.9035C7.97036 27.3984 9.36904 27.9953 11.4574 27.3984C14.9444 26.4016 18.4075 23.0776 18.6448 22.4936L28.3945 30.3872C28.3945 30.3872 27.0128 35.632 26.4019 39.3539C25.791 43.0758 23.9843 49.8049 23.9843 49.8049C22.3257 48.148 22.2652 46.3006 19.9259 46.3277Z" fill="#FAA21E"/>
<path d="M40.0671 43.837C37.9296 44.5322 36.8629 46.3277 34.9269 47.7094C34.9269 47.7094 32.8966 43.6485 31.8815 39.5884C30.8665 35.5282 30.3589 30.4527 30.3589 30.4527L36.3648 18.9296C36.7069 19.3122 37.6439 20.3593 39.8518 20.9222C41.7287 21.4007 42.421 21.0358 43.2057 21.052C43.2057 21.052 44.2394 26.7251 44.1587 30.6483C44.078 34.5715 43.0608 44.7676 43.0608 44.7676C42.6617 44.1276 41.0604 43.514 40.0671 43.837Z" fill="#FAA21E"/>
<path d="M22.2593 3.47752C22.1435 3.98382 22.114 4.41695 22.1406 4.80598C22.177 5.33946 22.3185 5.76371 22.4376 6.12099L22.4423 6.13503C22.5352 6.41373 22.6847 6.68612 22.8398 6.92346C21.0286 6.78608 18.1439 6.38842 16.5597 5.99238C15.7665 5.79406 14.6652 5.5756 13.5233 5.34907C13.4044 5.3255 13.2851 5.30184 13.1657 5.27811C12.0596 5.05826 10.9378 4.8314 10.0079 4.60454L10.3847 1.21338C12.8969 2.22289 15.0581 2.63669 16.3672 2.88733C16.5398 2.92037 16.6976 2.95058 16.8394 2.97894C18.1205 3.23516 19.6434 3.36115 20.8338 3.4238C21.3993 3.45357 21.8944 3.46925 22.2593 3.47752Z" fill="#FEFEFE" stroke="#FAA21E" stroke-width="0.996296"/>
<path d="M32.8778 4.4833C32.8778 3.99735 32.7302 3.43268 32.53 2.93869C32.4497 2.74061 32.3562 2.54245 32.2527 2.35582C32.3478 2.34407 32.4479 2.33212 32.5523 2.31967C32.6545 2.30748 32.7608 2.29481 32.8706 2.28133C33.4221 2.21363 34.0523 2.12614 34.5298 1.967C34.774 1.88558 35.0019 1.81476 35.2147 1.74865C35.6091 1.62608 35.9515 1.51967 36.2497 1.39187C36.5019 1.28377 36.7342 1.15745 36.9701 0.991513L37.3218 4.15688C37.1158 4.23669 36.8419 4.34318 36.5579 4.45473C35.9914 4.67724 35.3396 4.93715 35.1458 5.03404C35.1458 5.03404 35.1441 5.03486 35.1403 5.03662L35.1255 5.04335C35.1128 5.04899 35.0963 5.05608 35.0758 5.06468C35.0347 5.08192 34.9815 5.10349 34.917 5.12905C34.7884 5.18011 34.6208 5.24474 34.427 5.31838C34.0398 5.46555 33.5539 5.64647 33.0772 5.8226C32.9083 5.885 32.7407 5.94675 32.5793 6.00611C32.751 5.60285 32.8778 5.10256 32.8778 4.4833Z" fill="#FEFEFE" stroke="#FAA21E" stroke-width="0.996296"/>
<path d="M30.3871 4.4833C30.3871 6.13402 29.0489 7.47219 27.3982 7.47219C25.7475 7.47219 24.4093 6.13402 24.4093 4.4833C24.4093 2.83258 25.7475 1.49441 27.3982 1.49441C29.0489 1.49441 30.3871 2.83258 30.3871 4.4833Z" fill="#FEFEFE" stroke="#FAA21E" stroke-width="0.996296"/>
</g>
<defs>
<clipPath id="clip0_1383_8448">
<rect width="50" height="50" fill="white"/>
</clipPath>
<clipPath id="clip1_1383_8448">
<rect width="7.99996" height="7.99996" fill="white" transform="translate(23.6453 12.8893) rotate(-5.33642)"/>
</clipPath>
</defs>
</svg>
