<svg width="50" height="50" viewBox="0 0 50 50" fill="none" xmlns="http://www.w3.org/2000/svg">
<g clip-path="url(#clip0_1369_8336)">
<path d="M30.5 22.5L35.5 18.5L31.5 14.5L27.5 19.5L30.5 22.5Z" fill="#FAA21E"/>
<path d="M29.1149 22.8852L27.1149 20.8852L9.88689e-06 47L8.87537e-06 49.0001L1.00001 50.0001H3L29.1149 22.8852Z" fill="#FAA21E"/>
<g clip-path="url(#clip1_1369_8336)">
<path d="M32.925 17.025C33.2128 17.3128 33.279 17.733 33.279 17.969C33.1103 17.9606 32.641 17.9723 32.2465 18.1165C31.8521 18.2608 31.5945 18.4735 31.509 18.559L31.391 18.441C31.4795 18.3525 31.6474 18.1279 31.8335 17.7035C32.0291 17.2577 32 16.8397 31.981 16.671C32.217 16.671 32.6373 16.7373 32.925 17.025Z" fill="#FAA21E"/>
<path d="M32.925 17.025C33.2128 17.3128 33.279 17.733 33.279 17.969C33.1103 17.9606 32.641 17.9723 32.2465 18.1165C31.8521 18.2608 31.5945 18.4735 31.509 18.559L31.391 18.441C31.4795 18.3525 31.6474 18.1279 31.8335 17.7035C32.0291 17.2577 32 16.8397 31.981 16.671C32.217 16.671 32.6373 16.7373 32.925 17.025Z" fill="white" fill-opacity="0.95"/>
<path d="M29.975 19.975C29.6872 19.6872 29.621 19.267 29.621 19.031C29.7898 19.0394 30.259 19.0277 30.6535 18.8835C31.048 18.7392 31.3055 18.5265 31.391 18.441L31.509 18.559C31.4205 18.6475 31.2526 18.8721 31.0665 19.2965C30.871 19.7423 30.9 20.1603 30.919 20.329C30.683 20.329 30.2627 20.2627 29.975 19.975Z" fill="#FAA21E"/>
<path d="M29.975 19.975C29.6872 19.6872 29.621 19.267 29.621 19.031C29.7898 19.0394 30.259 19.0277 30.6535 18.8835C31.048 18.7392 31.3055 18.5265 31.391 18.441L31.509 18.559C31.4205 18.6475 31.2526 18.8721 31.0665 19.2965C30.871 19.7423 30.9 20.1603 30.919 20.329C30.683 20.329 30.2627 20.2627 29.975 19.975Z" fill="white" fill-opacity="0.95"/>
<path d="M29.975 17.025C30.2628 16.7373 30.683 16.671 30.919 16.671C30.9106 16.8398 30.9223 17.3091 31.0665 17.7035C31.2108 18.098 31.4235 18.3555 31.509 18.441L31.391 18.559C31.3025 18.4705 31.0779 18.3027 30.6535 18.1165C30.2078 17.921 29.7897 17.95 29.621 17.969C29.621 17.733 29.6873 17.3128 29.975 17.025Z" fill="#FAA21E"/>
<path d="M29.975 17.025C30.2628 16.7373 30.683 16.671 30.919 16.671C30.9106 16.8398 30.9223 17.3091 31.0665 17.7035C31.2108 18.098 31.4235 18.3555 31.509 18.441L31.391 18.559C31.3025 18.4705 31.0779 18.3027 30.6535 18.1165C30.2078 17.921 29.7897 17.95 29.621 17.969C29.621 17.733 29.6873 17.3128 29.975 17.025Z" fill="white" fill-opacity="0.95"/>
<path d="M32.925 19.975C32.6373 20.2628 32.217 20.329 31.981 20.329C31.9895 20.1602 31.9777 19.691 31.8335 19.2965C31.6893 18.9021 31.4765 18.6445 31.391 18.559L31.509 18.441C31.5975 18.5295 31.8222 18.6974 32.2465 18.8835C32.6923 19.0791 33.1104 19.05 33.279 19.031C33.279 19.267 33.2128 19.6873 32.925 19.975Z" fill="#FAA21E"/>
<path d="M32.925 19.975C32.6373 20.2628 32.217 20.329 31.981 20.329C31.9895 20.1602 31.9777 19.691 31.8335 19.2965C31.6893 18.9021 31.4765 18.6445 31.391 18.559L31.509 18.441C31.5975 18.5295 31.8222 18.6974 32.2465 18.8835C32.6923 19.0791 33.1104 19.05 33.279 19.031C33.279 19.267 33.2128 19.6873 32.925 19.975Z" fill="white" fill-opacity="0.95"/>
</g>
<path d="M50 0L41.6297 16.0475L38.687 16.1445C37.7061 16.1769 35.7317 16.7822 35.7317 16.7822L35.0732 16.1238L41.8884 8.20044L33.7563 14.8068L33.0976 14.1482C33.0976 14.1482 33.9119 12.3827 33.9443 11.4018L34.0413 8.4591L50 0Z" fill="#FAA21E"/>
</g>
<defs>
<clipPath id="clip0_1369_8336">
<rect width="50" height="50" fill="white"/>
</clipPath>
<clipPath id="clip1_1369_8336">
<rect width="4.17195" height="4.17195" fill="white" transform="translate(31.45 15.55) rotate(45)"/>
</clipPath>
</defs>
</svg>
