<svg width="50" height="50" viewBox="0 0 50 50" fill="none" xmlns="http://www.w3.org/2000/svg">
<g clip-path="url(#clip0_5917_9947)">
<ellipse cx="40.5" cy="33" rx="6.5" ry="1" fill="#C57A09"/>
<path d="M15.2009 10.7916C14.5009 11.0466 13.6509 11.0673 12.8255 10.794C13.1021 8.23084 14.7849 3.24875 19.7822 1.23918C22.7519 0.0449819 25.2468 0.0537129 27.4751 0.935115C29.7158 1.8214 31.7218 3.60364 33.6777 6.02362C35.9539 8.84001 38.4747 9.01967 40.813 9.18631C40.9735 9.19775 41.1331 9.20912 41.2916 9.22128C42.5309 9.3163 43.6974 9.45687 44.7946 10.0043C45.8831 10.5474 46.9316 11.5063 47.8927 13.2901C48.6402 14.6775 48.8282 16.4435 48.6101 18.4229C48.3924 20.3995 47.7728 22.5608 46.9372 24.7138C45.3291 28.8574 42.9374 32.9296 41.1479 35.526L40.655 35.0305C42.1644 32.1969 44.2988 28.1541 45.7109 24.244C46.4336 22.243 46.9725 20.2624 47.138 18.4868C47.3031 16.7157 47.1004 15.1083 46.2933 13.8912C44.7641 11.5852 42.2131 11.2653 39.6925 10.9492C39.5636 10.933 39.4347 10.9169 39.306 10.9004C36.6172 10.5574 33.9401 10.1084 32.0399 7.4817C30.8216 5.7976 29.3497 4.07578 27.5081 3.05161C25.6478 2.017 23.4286 1.70493 20.7643 2.80781C18.6206 3.6952 17.2287 5.32703 16.3754 6.93211C15.5893 8.41079 15.2478 9.89007 15.2009 10.7916Z" fill="#FAA21E"/>
<path d="M15.2009 10.7916C14.5009 11.0466 13.6509 11.0673 12.8255 10.794C13.1021 8.23084 14.7849 3.24875 19.7822 1.23918C22.7519 0.0449819 25.2468 0.0537129 27.4751 0.935115C29.7158 1.8214 31.7218 3.60364 33.6777 6.02362C35.9539 8.84001 38.4747 9.01967 40.813 9.18631C40.9735 9.19775 41.1331 9.20912 41.2916 9.22128C42.5309 9.3163 43.6974 9.45687 44.7946 10.0043C45.8831 10.5474 46.9316 11.5063 47.8927 13.2901C48.6402 14.6775 48.8282 16.4435 48.6101 18.4229C48.3924 20.3995 47.7728 22.5608 46.9372 24.7138C45.3291 28.8574 42.9374 32.9296 41.1479 35.526L40.655 35.0305C42.1644 32.1969 44.2988 28.1541 45.7109 24.244C46.4336 22.243 46.9725 20.2624 47.138 18.4868C47.3031 16.7157 47.1004 15.1083 46.2933 13.8912C44.7641 11.5852 42.2131 11.2653 39.6925 10.9492C39.5636 10.933 39.4347 10.9169 39.306 10.9004C36.6172 10.5574 33.9401 10.1084 32.0399 7.4817C30.8216 5.7976 29.3497 4.07578 27.5081 3.05161C25.6478 2.017 23.4286 1.70493 20.7643 2.80781C18.6206 3.6952 17.2287 5.32703 16.3754 6.93211C15.5893 8.41079 15.2478 9.89007 15.2009 10.7916Z" fill="white" fill-opacity="0.95"/>
<path d="M15.2009 10.7916C14.5009 11.0466 13.6509 11.0673 12.8255 10.794C13.1021 8.23084 14.7849 3.24875 19.7822 1.23918C22.7519 0.0449819 25.2468 0.0537129 27.4751 0.935115C29.7158 1.8214 31.7218 3.60364 33.6777 6.02362C35.9539 8.84001 38.4747 9.01967 40.813 9.18631C40.9735 9.19775 41.1331 9.20912 41.2916 9.22128C42.5309 9.3163 43.6974 9.45687 44.7946 10.0043C45.8831 10.5474 46.9316 11.5063 47.8927 13.2901C48.6402 14.6775 48.8282 16.4435 48.6101 18.4229C48.3924 20.3995 47.7728 22.5608 46.9372 24.7138C45.3291 28.8574 42.9374 32.9296 41.1479 35.526L40.655 35.0305C42.1644 32.1969 44.2988 28.1541 45.7109 24.244C46.4336 22.243 46.9725 20.2624 47.138 18.4868C47.3031 16.7157 47.1004 15.1083 46.2933 13.8912C44.7641 11.5852 42.2131 11.2653 39.6925 10.9492C39.5636 10.933 39.4347 10.9169 39.306 10.9004C36.6172 10.5574 33.9401 10.1084 32.0399 7.4817C30.8216 5.7976 29.3497 4.07578 27.5081 3.05161C25.6478 2.017 23.4286 1.70493 20.7643 2.80781C18.6206 3.6952 17.2287 5.32703 16.3754 6.93211C15.5893 8.41079 15.2478 9.89007 15.2009 10.7916Z" stroke="#FAA21E" stroke-width="0.609663"/>
<path d="M47 33C44.0019 34.3273 37.0015 34.338 34 33V48.5C38.8014 50.4581 42.3046 50.4588 47 48.5V33Z" fill="#FAA21E"/>
<path d="M47 48.5V37C46.8333 39.8333 46 45.8 44 47C40.7513 48.9492 38 49.5 36 49.2238C39.8346 50.4177 42.9805 50.1768 47 48.5Z" fill="#FAA21E"/>
<path d="M47 48.5V37C46.8333 39.8333 46 45.8 44 47C40.7513 48.9492 38 49.5 36 49.2238C39.8346 50.4177 42.9805 50.1768 47 48.5Z" fill="black" fill-opacity="0.1"/>
<path d="M1 39.1945C1 35.9734 2.54762 33.8259 3.47619 33H24.5238C25.7619 34.2389 27 35.7875 27 39.1945C27 44.1598 25.4876 47.0322 22 48.4864C17.0476 50.5512 10.3333 50.4573 6 48.4864C2.59524 46.9377 1 43.221 1 39.1945Z" fill="#FAA21E"/>
<path d="M22 48.4863C17.0476 50.5512 10.3333 50.4573 6 48.4863C12.5 49 18.4 47.5 22 45.5C25.6 43.5 26.8333 40.463 27 39.1945C27 44.1598 25.4876 47.0322 22 48.4863Z" fill="#FAA21E"/>
<path d="M22 48.4863C17.0476 50.5512 10.3333 50.4573 6 48.4863C12.5 49 18.4 47.5 22 45.5C25.6 43.5 26.8333 40.463 27 39.1945C27 44.1598 25.4876 47.0322 22 48.4863Z" fill="black" fill-opacity="0.1"/>
<path d="M2 35L2.5 34C11.9987 35.8403 16.2991 35.879 25.5 34L26 35C23.5 36 19.2364 37.3 14 37.3C8.76364 37.3 4 36.5 2 35Z" fill="#C57A09"/>
<path d="M14 29.5833C12.1268 29.5833 9.47561 29.1944 8.5 29C5.39909 30.5742 4.21707 31.7844 2 34.25C4 36 9.78537 36.5 14 36.5C18.2146 36.5 24 35.5 26 34.25C23.7853 31.8553 22.3333 30.6848 19.5 29C18.5244 29.1944 15.8732 29.5833 14 29.5833Z" fill="#FAA21E"/>
<path d="M14 36.5C18.2146 36.5 24 35.5 26 34.25C24.8994 33.0598 23.9871 32.1721 23 31.3733C23.1667 31.9155 22.6573 33.1224 19.5 34.25C16 35.5 11.5 36.0045 7 36.0045C9.26493 36.3685 11.8389 36.5 14 36.5Z" fill="#FAA21E"/>
<path d="M14 36.5C18.2146 36.5 24 35.5 26 34.25C24.8994 33.0598 23.9871 32.1721 23 31.3733C23.1667 31.9155 22.6573 33.1224 19.5 34.25C16 35.5 11.5 36.0045 7 36.0045C9.26493 36.3685 11.8389 36.5 14 36.5Z" fill="black" fill-opacity="0.1"/>
<path d="M10.1566 15.5238C11.857 14.2843 12.5 11.9048 12.5 11C13.0224 11.2187 15.022 11.2322 15.5 11C15.5 11.9048 15.9562 13.9858 17.84 15.5238C20.7952 17.9365 23.4548 20.0476 21.0907 23.3651C19.0221 26.2678 19.5 27.4868 19.5 29.0952C15.9887 29.9263 12.6723 29.9355 8.5 29.0952C8.5 27.8889 9.08824 26.0872 6.90593 23.3651C4.2463 20.0476 8.088 17.0317 10.1566 15.5238Z" fill="#FAA21E"/>
<path d="M12.5 11C12.5 11 12.9091 11.5 14 11.5C15.0909 11.5 15.5 11 15.5 11" stroke="#FAA21E" stroke-linecap="round"/>
<path d="M12.5 11C12.5 11 12.9091 11.5 14 11.5C15.0909 11.5 15.5 11 15.5 11" stroke="white" stroke-opacity="0.95" stroke-linecap="round"/>
<path d="M19.5 29.0952C15.9887 29.9263 12.6723 29.9355 8.5 29.0952C8.5 28.3304 8.88306 27.3263 8.5 26C11.5489 25.6667 16.7623 25.1189 19 24C20.6 23.2 21.8326 21.6667 21.9989 21C21.9793 21.7247 21.7041 22.5043 21.0907 23.3651C19.0221 26.2678 19.5 27.4868 19.5 29.0952Z" fill="#FAA21E"/>
<path d="M19.5 29.0952C15.9887 29.9263 12.6723 29.9355 8.5 29.0952C8.5 28.3304 8.88306 27.3263 8.5 26C11.5489 25.6667 16.7623 25.1189 19 24C20.6 23.2 21.8326 21.6667 21.9989 21C21.9793 21.7247 21.7041 22.5043 21.0907 23.3651C19.0221 26.2678 19.5 27.4868 19.5 29.0952Z" fill="black" fill-opacity="0.1"/>
<path d="M8.5 27V26C12.8536 26.9201 15.2829 26.9395 19.5 26V27C18.6667 27.1667 16.4 27.7 14 27.7C11.6 27.7 9.33333 27.1667 8.5 27Z" fill="#C57A09"/>
<path d="M8.5 26C8.5 26 11 26.7 14 26.7C17 26.7 19.5 26 19.5 26" stroke="#FAA21E" stroke-linecap="round"/>
<path d="M8.5 26C8.5 26 11 26.7 14 26.7C17 26.7 19.5 26 19.5 26" stroke="white" stroke-opacity="0.95" stroke-linecap="round"/>
<circle cx="23" cy="34" r="1" fill="#FAA21E"/>
<circle cx="23" cy="34" r="1" fill="white" fill-opacity="0.95"/>
<circle cx="14" cy="35" r="1" fill="#FAA21E"/>
<circle cx="14" cy="35" r="1" fill="white" fill-opacity="0.95"/>
<circle cx="5" cy="34" r="1" fill="#FAA21E"/>
<circle cx="5" cy="34" r="1" fill="white" fill-opacity="0.95"/>
<g clip-path="url(#clip1_5917_9947)">
<path d="M40.4999 38.5C41.0852 38.5 41.5799 38.86 41.8199 39.1C41.6397 39.263 41.1744 39.7522 40.9199 40.3C40.6655 40.8478 40.6199 41.3261 40.6199 41.5H40.3799C40.3799 41.32 40.3222 40.9208 40.0799 40.3C39.8255 39.6478 39.3708 39.2522 39.1799 39.1C39.4199 38.86 39.9147 38.5 40.4999 38.5Z" fill="#FAA21E"/>
<path d="M40.4999 38.5C41.0852 38.5 41.5799 38.86 41.8199 39.1C41.6397 39.263 41.1744 39.7522 40.9199 40.3C40.6655 40.8478 40.6199 41.3261 40.6199 41.5H40.3799C40.3799 41.32 40.3222 40.9208 40.0799 40.3C39.8255 39.6478 39.3708 39.2522 39.1799 39.1C39.4199 38.86 39.9147 38.5 40.4999 38.5Z" fill="white" fill-opacity="0.95"/>
<path d="M40.5001 44.5C39.9148 44.5 39.4201 44.14 39.1801 43.9C39.3603 43.737 39.8256 43.2478 40.0801 42.7C40.3345 42.1522 40.3801 41.6739 40.3801 41.5L40.6201 41.5C40.6201 41.68 40.6778 42.0792 40.9201 42.7C41.1745 43.3522 41.6292 43.7478 41.8201 43.9C41.5801 44.14 41.0853 44.5 40.5001 44.5Z" fill="#FAA21E"/>
<path d="M40.5001 44.5C39.9148 44.5 39.4201 44.14 39.1801 43.9C39.3603 43.737 39.8256 43.2478 40.0801 42.7C40.3345 42.1522 40.3801 41.6739 40.3801 41.5L40.6201 41.5C40.6201 41.68 40.6778 42.0792 40.9201 42.7C41.1745 43.3522 41.6292 43.7478 41.8201 43.9C41.5801 44.14 41.0853 44.5 40.5001 44.5Z" fill="white" fill-opacity="0.95"/>
<path d="M37.5 41.5C37.5 40.9147 37.86 40.42 38.1 40.18C38.263 40.3602 38.7522 40.8255 39.3 41.08C39.8478 41.3345 40.3261 41.38 40.5 41.38L40.5 41.62C40.32 41.62 39.9208 41.6778 39.3 41.92C38.6478 42.1745 38.2522 42.6291 38.1 42.82C37.86 42.58 37.5 42.0852 37.5 41.5Z" fill="#FAA21E"/>
<path d="M37.5 41.5C37.5 40.9147 37.86 40.42 38.1 40.18C38.263 40.3602 38.7522 40.8255 39.3 41.08C39.8478 41.3345 40.3261 41.38 40.5 41.38L40.5 41.62C40.32 41.62 39.9208 41.6778 39.3 41.92C38.6478 42.1745 38.2522 42.6291 38.1 42.82C37.86 42.58 37.5 42.0852 37.5 41.5Z" fill="white" fill-opacity="0.95"/>
<path d="M43.5 41.5C43.5 42.0853 43.14 42.58 42.9 42.82C42.737 42.6398 42.2478 42.1745 41.7 41.92C41.1522 41.6655 40.6739 41.62 40.5 41.62L40.5 41.38C40.68 41.38 41.0792 41.3222 41.7 41.08C42.3522 40.8255 42.7478 40.3709 42.9 40.18C43.14 40.42 43.5 40.9148 43.5 41.5Z" fill="#FAA21E"/>
<path d="M43.5 41.5C43.5 42.0853 43.14 42.58 42.9 42.82C42.737 42.6398 42.2478 42.1745 41.7 41.92C41.1522 41.6655 40.6739 41.62 40.5 41.62L40.5 41.38C40.68 41.38 41.0792 41.3222 41.7 41.08C42.3522 40.8255 42.7478 40.3709 42.9 40.18C43.14 40.42 43.5 40.9148 43.5 41.5Z" fill="white" fill-opacity="0.95"/>
</g>
</g>
<defs>
<clipPath id="clip0_5917_9947">
<rect width="50" height="50" fill="white"/>
</clipPath>
<clipPath id="clip1_5917_9947">
<rect width="6" height="6" fill="white" transform="translate(37.5 38.5)"/>
</clipPath>
</defs>
</svg>
