<svg width="50" height="50" viewBox="0 0 50 50" fill="none" xmlns="http://www.w3.org/2000/svg">
<g clip-path="url(#clip0_1249_12998)">
<path d="M39.5 15.7038V42.7048C39.3541 42.7817 39.1431 42.8881 38.8686 43.0148C38.2769 43.2879 37.3903 43.655 36.2244 44.0232C33.893 44.7595 30.4438 45.5 26 45.5C21.5562 45.5 18.107 44.7595 15.7756 44.0232C14.6097 43.655 13.7231 43.2879 13.1314 43.0148C12.8569 42.8881 12.6459 42.7817 12.5 42.7048V15.7038C12.584 15.7309 12.6757 15.7599 12.7748 15.7904C13.398 15.9821 14.3189 16.236 15.522 16.4893C17.9282 16.9959 21.4628 17.5 26 17.5C30.5372 17.5 34.0718 16.9959 36.478 16.4893C37.6811 16.236 38.602 15.9821 39.2252 15.7904C39.3243 15.7599 39.416 15.7309 39.5 15.7038Z" fill="#FAA21E" stroke="#FAA21E"/>
<g clip-path="url(#clip1_1249_12998)">
<path d="M26 24C27.1705 24 28.16 24.72 28.64 25.2C28.2795 25.5261 27.3489 26.5043 26.84 27.6C26.3311 28.6957 26.24 29.6522 26.24 30H25.76C25.76 29.64 25.6445 28.8417 25.16 27.6C24.6511 26.2957 23.7417 25.5043 23.36 25.2C23.84 24.72 24.8295 24 26 24Z" fill="#FEFEFE"/>
<path d="M26 36C24.8295 36 23.84 35.28 23.36 34.8C23.7205 34.4739 24.6511 33.4957 25.16 32.4C25.6689 31.3043 25.76 30.3478 25.76 30L26.24 30C26.24 30.36 26.3555 31.1583 26.84 32.4C27.3489 33.7043 28.2583 34.4957 28.64 34.8C28.16 35.28 27.1705 36 26 36Z" fill="#FEFEFE"/>
<path d="M20 30C20 28.8295 20.72 27.84 21.2 27.36C21.5261 27.7205 22.5043 28.6511 23.6 29.16C24.6957 29.6689 25.6522 29.76 26 29.76L26 30.24C25.64 30.24 24.8417 30.3555 23.6 30.84C22.2957 31.3489 21.5043 32.2583 21.2 32.64C20.72 32.16 20 31.1705 20 30Z" fill="#FEFEFE"/>
<path d="M32 30C32 31.1705 31.28 32.16 30.8 32.64C30.4739 32.2795 29.4957 31.3489 28.4 30.84C27.3043 30.3311 26.3478 30.24 26 30.24L26 29.76C26.36 29.76 27.1583 29.6445 28.4 29.16C29.7043 28.6511 30.4957 27.7417 30.8 27.36C31.28 27.84 32 28.8295 32 30Z" fill="#FEFEFE"/>
</g>
<path d="M40 20H46.4C46.6667 20 47.28 20.0789 47.6 20.3947C47.92 20.7105 48 21.3158 48 21.5789V33.4211C48 33.6842 47.92 34.2895 47.6 34.6053C47.28 34.9211 46.6667 35 46.4 35H40" stroke="#FAA21E" stroke-width="5"/>
<path d="M40 20H46.4C46.6667 20 47.28 20.0789 47.6 20.3947C47.92 20.7105 48 21.3158 48 21.5789V33.4211C48 33.6842 47.92 34.2895 47.6 34.6053C47.28 34.9211 46.6667 35 46.4 35H40" stroke="#FEFEFE" stroke-width="3"/>
<path d="M12.5 20.9112V31.4537L0.977878 15.5H6.31221L12.5 20.9112Z" fill="#FEFEFE" stroke="#FAA21E"/>
<path d="M12 12C12 12 17 14.7273 26 14.7273C35 14.7273 40 12 40 12V16C40 16 35 19 26 19C17 19 12 16 12 16V12Z" fill="#FEFEFE"/>
<path d="M39.5 12C39.5 13 33.4558 15 26 15C18.5442 15 12.5 13 12.5 12C12.5 11 18.5442 9 26 9C33.4558 9 39.5 11 39.5 12Z" fill="#FAA21E" stroke="#FAA21E"/>
<circle cx="26" cy="8.5" r="3" fill="#FEFEFE" stroke="#FAA21E"/>
</g>
<defs>
<clipPath id="clip0_1249_12998">
<rect width="50" height="50" fill="white"/>
</clipPath>
<clipPath id="clip1_1249_12998">
<rect width="12" height="12" fill="white" transform="translate(20 24)"/>
</clipPath>
</defs>
</svg>
