<svg width="50" height="50" viewBox="0 0 50 50" fill="none" xmlns="http://www.w3.org/2000/svg">
<g clip-path="url(#clip0_2148_17678)">
<path d="M30.578 1.66039L37.7981 6.62425C36.3679 8.62876 34.1874 11.5893 32.1414 14.2448C31.0454 15.6674 29.9907 16.9989 29.112 18.0477C28.2174 19.1154 27.5448 19.8414 27.2 20.1C26.6633 20.5025 25.825 21.3118 24.866 22.3098C23.8984 23.3167 22.7837 24.5415 21.6862 25.7957C19.5034 28.2903 17.348 30.9481 16.5712 32.2428C15.8059 33.5183 14.5464 36.0396 13.419 38.5448C12.2986 41.0346 11.2727 43.5867 11.0097 44.9019C10.7425 46.2377 10.8767 47.1833 11.0097 47.8481C11.0305 47.9522 11.0495 48.0422 11.0662 48.1215C11.1061 48.3105 11.1332 48.4392 11.1421 48.554C11.1464 48.6101 11.1435 48.6392 11.1414 48.6515C10.8232 48.9671 10.0417 49.5013 6.06199 49.0039C2.34194 48.5389 0.972141 47.2065 0.506872 46.388C0.521585 46.3381 0.545104 46.2696 0.580161 46.1799C0.676494 45.9336 0.836856 45.5859 1.05834 45.1439C1.49971 44.2631 2.16258 43.0494 2.98171 41.6062C4.61877 38.7218 6.86584 34.9454 9.17749 31.1343C13.81 23.4968 18.6688 15.775 19.4 14.8C20.5503 13.2662 27.2877 5.32616 30.578 1.66039Z" fill="#FEFEFE" stroke="#FAA21E"/>
<path d="M38 7.98608L50 17.9861C49.5556 19.0972 47.8847 21.6302 46 23.9861C43.3333 27.3194 39.3333 29.5416 37.3333 30.6528C36.6667 27.9861 35.0667 21.1861 34 17.9861C33.2164 15.6354 31.8042 14.7302 31.2572 14.3796L31.25 14.375C30 15.625 27.5812 16.3645 25.625 15C23.375 13.4305 23.75 11.25 24.375 9.99997L20 7.31942L26 0L38 7.98608Z" fill="#FAA21E"/>
<g clip-path="url(#clip1_2148_17678)">
<path d="M31.6493 6.4939C32.1382 6.81563 32.3536 7.38833 32.4221 7.72076C32.1819 7.75787 31.5243 7.91067 31.0106 8.22842C30.4969 8.54616 30.1959 8.92064 30.1003 9.06592L29.8998 8.93399C29.9988 8.78362 30.17 8.41842 30.3089 7.76664C30.4549 7.08196 30.2925 6.50149 30.2168 6.26946C30.5492 6.20091 31.1604 6.17216 31.6493 6.4939Z" fill="#FAA21E"/>
<path d="M31.6493 6.4939C32.1382 6.81563 32.3536 7.38833 32.4221 7.72076C32.1819 7.75787 31.5243 7.91067 31.0106 8.22842C30.4969 8.54616 30.1959 8.92064 30.1003 9.06592L29.8998 8.93399C29.9988 8.78362 30.17 8.41842 30.3089 7.76664C30.4549 7.08196 30.2925 6.50149 30.2168 6.26946C30.5492 6.20091 31.1604 6.17216 31.6493 6.4939Z" fill="white" fill-opacity="0.95"/>
<path d="M28.3508 11.506C27.8619 11.1843 27.6466 10.6116 27.578 10.2792C27.8182 10.2421 28.4758 10.0893 28.9895 9.77152C29.5032 9.45378 29.8042 9.0793 29.8998 8.93402L30.1003 9.06595C30.0013 9.21632 29.8301 9.58152 29.6912 10.2333C29.5452 10.918 29.7076 11.4984 29.7833 11.7305C29.4509 11.799 28.8397 11.8278 28.3508 11.506Z" fill="#FAA21E"/>
<path d="M28.3508 11.506C27.8619 11.1843 27.6466 10.6116 27.578 10.2792C27.8182 10.2421 28.4758 10.0893 28.9895 9.77152C29.5032 9.45378 29.8042 9.0793 29.8998 8.93402L30.1003 9.06595C30.0013 9.21632 29.8301 9.58152 29.6912 10.2333C29.5452 10.918 29.7076 11.4984 29.7833 11.7305C29.4509 11.799 28.8397 11.8278 28.3508 11.506Z" fill="white" fill-opacity="0.95"/>
<path d="M27.494 7.35077C27.8157 6.86188 28.3884 6.6465 28.7208 6.57795C28.7579 6.81814 28.9107 7.47572 29.2285 7.98944C29.5462 8.50316 29.9207 8.80412 30.066 8.89973L29.934 9.10021C29.7837 9.00126 29.4185 8.83009 28.7667 8.69114C28.082 8.54518 27.5016 8.70751 27.2695 8.78328C27.201 8.45086 27.1722 7.83967 27.494 7.35077Z" fill="#FAA21E"/>
<path d="M27.494 7.35077C27.8157 6.86188 28.3884 6.6465 28.7208 6.57795C28.7579 6.81814 28.9107 7.47572 29.2285 7.98944C29.5462 8.50316 29.9207 8.80412 30.066 8.89973L29.934 9.10021C29.7837 9.00126 29.4185 8.83009 28.7667 8.69114C28.082 8.54518 27.5016 8.70751 27.2695 8.78328C27.201 8.45086 27.1722 7.83967 27.494 7.35077Z" fill="white" fill-opacity="0.95"/>
<path d="M32.5062 10.6492C32.1844 11.1381 31.6117 11.3534 31.2793 11.422C31.2422 11.1818 31.0894 10.5242 30.7716 10.0105C30.4539 9.49677 30.0794 9.19582 29.9341 9.10021L30.0661 8.89972C30.2164 8.99868 30.5816 9.16985 31.2334 9.3088C31.9181 9.45476 32.4986 9.29243 32.7306 9.21666C32.7991 9.54908 32.8279 10.1603 32.5062 10.6492Z" fill="#FAA21E"/>
<path d="M32.5062 10.6492C32.1844 11.1381 31.6117 11.3534 31.2793 11.422C31.2422 11.1818 31.0894 10.5242 30.7716 10.0105C30.4539 9.49677 30.0794 9.19582 29.9341 9.10021L30.0661 8.89972C30.2164 8.99868 30.5816 9.16985 31.2334 9.3088C31.9181 9.45476 32.4986 9.29243 32.7306 9.21666C32.7991 9.54908 32.8279 10.1603 32.5062 10.6492Z" fill="white" fill-opacity="0.95"/>
</g>
<path d="M37.3694 28.7068C37.4756 29.1411 37.5736 29.5416 37.6612 29.8973C39.7759 28.709 43.2408 26.6348 45.6096 23.6738C46.5431 22.507 47.4232 21.2966 48.1237 20.2426C48.6964 19.3808 49.1352 18.644 49.3884 18.1274L45.6644 15.024C44.3149 17.1937 43.0931 18.8311 41.6676 20.2798C40.2023 21.769 38.5363 23.0439 36.3253 24.4912C36.7077 26.0022 37.0711 27.4877 37.3694 28.7068Z" fill="#FEFEFE" stroke="#FAA21E"/>
</g>
<defs>
<clipPath id="clip0_2148_17678">
<rect width="50" height="50" fill="white" transform="matrix(-1 0 0 1 50 0)"/>
</clipPath>
<clipPath id="clip1_2148_17678">
<rect width="6.00006" height="6.00006" fill="white" transform="translate(29.1432 4.84473) rotate(33.3483)"/>
</clipPath>
</defs>
</svg>
