<svg width="50" height="50" viewBox="0 0 50 50" fill="none" xmlns="http://www.w3.org/2000/svg">
<g clip-path="url(#clip0_1355_8220)">
<path d="M37.9338 35.9109C39.714 36.8312 40.4391 38.1419 41.02 39L41.6684 23.0396L43.52 19L41.2061 14.2381L26.481 13L17.02 17.1188L19.0118 23.2971L29.113 30.3334C30.3223 30.3334 31.0843 29.5729 33.52 31C34.7649 31.7294 35.0766 34.4277 35.1596 35.2857C35.1614 35.3047 36.1537 34.9906 37.9338 35.9109Z" fill="#FAA21E"/>
<path d="M37.9338 35.9109C39.714 36.8312 40.4391 38.1419 41.02 39L41.6684 23.0396L43.52 19L41.2061 14.2381L26.481 13L17.02 17.1188L19.0118 23.2971L29.113 30.3334C30.3223 30.3334 31.0843 29.5729 33.52 31C34.7649 31.7294 35.0766 34.4277 35.1596 35.2857C35.1614 35.3047 36.1537 34.9906 37.9338 35.9109Z" fill="black" fill-opacity="0.4"/>
<path d="M7.58662 10.2411C6.12227 13.3192 5.93051 23.3231 6.01768 27.9402C6.54066 27.9402 7.74352 27.9915 8.3711 28.1968C9.15558 28.4533 10.2015 29.7358 10.7245 31.2749C11.1429 32.5061 10.8988 36.063 10.7245 37.6876C12.2935 39.0556 16.5819 42.3561 21.1842 44.6133C25.7864 46.8706 31.9925 49.145 34.5202 50C33.8229 46.4944 32.2714 38.7136 31.6438 35.6355C31.0162 32.5574 30.162 26.6577 29.8134 24.0926C29.1161 24.1781 26.8847 24.0926 23.5376 23.0666C19.3537 21.784 18.0463 21.271 18.3078 18.9624C18.5693 16.6538 22.2301 15.1148 25.6295 14.8583C28.349 14.6531 31.6438 16.3118 32.9513 17.1669C33.1256 18.3639 33.4742 21.0658 33.4742 22.297V27.1707L36.3506 28.1968L37.6581 26.6577C37.3966 25.8882 36.8213 23.8361 36.6121 21.784C36.4029 19.7319 36.1763 17.8509 36.0891 17.1669C37.1351 16.2263 39.5408 14.4992 40.796 15.1148C42.3649 15.8843 42.8879 17.9364 42.6264 19.9885C42.4172 21.6301 40.796 23.0666 40.0115 23.5796L41.319 49.487L43.9339 45.1264C44.021 37.0891 44.0908 20.1424 43.6724 16.6538C43.1494 12.2932 40.273 6.64996 36.0891 3.57185C31.9053 0.493741 27.7214 -0.788805 20.6612 0.493741C13.6009 1.77629 9.41706 6.39345 7.58662 10.2411Z" fill="#FAA21E"/>
<g clip-path="url(#clip1_1355_8220)">
<path d="M33.4355 6.04004C34.208 5.92991 34.9288 6.31201 35.2908 6.58365C35.0835 6.83278 34.5614 7.56598 34.3286 8.33698C34.0958 9.10799 34.1257 9.74786 34.1584 9.97742L33.8416 10.0226C33.8077 9.78498 33.6563 9.26896 33.2198 8.49505C32.7612 7.68207 32.0865 7.24537 31.806 7.08041C32.0776 6.71845 32.6629 6.15016 33.4355 6.04004Z" fill="#FAA21E"/>
<path d="M33.4355 6.04004C34.208 5.92991 34.9288 6.31201 35.2908 6.58365C35.0835 6.83278 34.5614 7.56598 34.3286 8.33698C34.0958 9.10799 34.1257 9.74786 34.1584 9.97742L33.8416 10.0226C33.8077 9.78498 33.6563 9.26896 33.2198 8.49505C32.7612 7.68207 32.0865 7.24537 31.806 7.08041C32.0776 6.71845 32.6629 6.15016 33.4355 6.04004Z" fill="white" fill-opacity="0.95"/>
<path d="M34.5645 13.96C33.792 14.0701 33.0712 13.688 32.7092 13.4164C32.9165 13.1672 33.4386 12.434 33.6714 11.663C33.9042 10.892 33.8743 10.2521 33.8416 10.0226L34.1584 9.97742C34.1923 10.215 34.3437 10.731 34.7802 11.505C35.2388 12.3179 35.9135 12.7546 36.194 12.9196C35.9224 13.2815 35.3371 13.8498 34.5645 13.96Z" fill="#FAA21E"/>
<path d="M34.5645 13.96C33.792 14.0701 33.0712 13.688 32.7092 13.4164C32.9165 13.1672 33.4386 12.434 33.6714 11.663C33.9042 10.892 33.8743 10.2521 33.8416 10.0226L34.1584 9.97742C34.1923 10.215 34.3437 10.731 34.7802 11.505C35.2388 12.3179 35.9135 12.7546 36.194 12.9196C35.9224 13.2815 35.3371 13.8498 34.5645 13.96Z" fill="white" fill-opacity="0.95"/>
<path d="M30.04 10.5645C29.9299 9.79198 30.312 9.07118 30.5836 8.70922C30.8328 8.91646 31.566 9.43861 32.337 9.67141C33.108 9.90421 33.7478 9.87433 33.9774 9.8416L34.0226 10.1584C33.785 10.1923 33.2689 10.3436 32.495 10.7802C31.682 11.2388 31.2453 11.9134 31.0804 12.194C30.7184 11.9224 30.1501 11.337 30.04 10.5645Z" fill="#FAA21E"/>
<path d="M30.04 10.5645C29.9299 9.79198 30.312 9.07118 30.5836 8.70922C30.8328 8.91646 31.566 9.43861 32.337 9.67141C33.108 9.90421 33.7478 9.87433 33.9774 9.8416L34.0226 10.1584C33.785 10.1923 33.2689 10.3436 32.495 10.7802C31.682 11.2388 31.2453 11.9134 31.0804 12.194C30.7184 11.9224 30.1501 11.337 30.04 10.5645Z" fill="white" fill-opacity="0.95"/>
<path d="M37.96 9.43549C38.0701 10.208 37.688 10.9288 37.4164 11.2908C37.1672 11.0835 36.434 10.5614 35.663 10.3286C34.892 10.0958 34.2522 10.1257 34.0226 10.1584L33.9774 9.8416C34.215 9.80773 34.7311 9.65637 35.505 9.2198C36.318 8.7612 36.7547 8.08656 36.9196 7.80601C37.2816 8.07765 37.8499 8.66297 37.96 9.43549Z" fill="#FAA21E"/>
<path d="M37.96 9.43549C38.0701 10.208 37.688 10.9288 37.4164 11.2908C37.1672 11.0835 36.434 10.5614 35.663 10.3286C34.892 10.0958 34.2522 10.1257 34.0226 10.1584L33.9774 9.8416C34.215 9.80773 34.7311 9.65637 35.505 9.2198C36.318 8.7612 36.7547 8.08656 36.9196 7.80601C37.2816 8.07765 37.8499 8.66297 37.96 9.43549Z" fill="white" fill-opacity="0.95"/>
</g>
</g>
<defs>
<clipPath id="clip0_1355_8220">
<rect width="50" height="50" fill="white"/>
</clipPath>
<clipPath id="clip1_1355_8220">
<rect width="8" height="8" fill="white" transform="translate(29.4755 6.60454) rotate(-8.11306)"/>
</clipPath>
</defs>
</svg>
