<svg width="50" height="50" viewBox="0 0 50 50" fill="none" xmlns="http://www.w3.org/2000/svg">
<path d="M25 0.600006C18.3669 4.2394 15.2979 5.11416 8 6.99995C9 10.9999 11 19.9999 11 24.9999C11 29.9999 7 38.9999 7 38.9999C7 38.9999 9 42.9999 13.5 45.9999C18 48.9999 25 49.5 25 49.5C25 49.5 32.5 48.9999 36.5 45.9999C40.5 42.9999 43 38.9999 43 38.9999C43 38.9999 39 30.9999 39 24.9999C39 18.9999 40.5067 10.7918 42 6.99995C34.2416 4.66316 31.2376 3.80722 25 0.600006Z" fill="#FEFEFE" stroke="#FAA21E" stroke-width="0.996296"/>
<path d="M25 9.99994L22 4.99994C18.1244 6.99137 15.8373 7.82469 11.5 8.99994C11.5 8.99994 14 21.9999 14 24.9999C14 27.9999 12.1 34.4999 10.5 38.4999C12.5 41.4999 17.5 44.9999 25 45.9999C32.5 44.9999 37.5 41.4999 39.5 38.4999C38 35.4999 36 30.1999 36 24.9999C36 19.7999 37.8333 12.1666 38.5 8.99994C33.9197 7.94821 31.6465 7.04253 28 4.99994L25 9.99994Z" fill="#FAA21E"/>
<path d="M11.5 9L38 39.9998" stroke="#FAA21E" stroke-width="0.996296" stroke-linecap="square"/>
<path d="M11.5 9L38 39.9998" stroke="white" stroke-opacity="0.95" stroke-width="0.996296" stroke-linecap="square"/>
<path d="M38.5 9L12 39.9998" stroke="#FAA21E" stroke-width="0.996296" stroke-linecap="square"/>
<path d="M38.5 9L12 39.9998" stroke="white" stroke-opacity="0.95" stroke-width="0.996296" stroke-linecap="square"/>
<g clip-path="url(#clip0_1445_15169)">
<path d="M25 19.8C25.9754 19.8 26.8 20.4 27.2 20.8C26.8996 21.0717 26.1241 21.8869 25.7 22.8C25.2759 23.713 25.2 24.5101 25.2 24.8H24.8C24.8 24.5 24.7037 23.8347 24.3 22.8C23.8759 21.713 23.1181 21.0536 22.8 20.8C23.2 20.4 24.0246 19.8 25 19.8Z" fill="#FAA21E"/>
<path d="M25 19.8C25.9754 19.8 26.8 20.4 27.2 20.8C26.8996 21.0717 26.1241 21.8869 25.7 22.8C25.2759 23.713 25.2 24.5101 25.2 24.8H24.8C24.8 24.5 24.7037 23.8347 24.3 22.8C23.8759 21.713 23.1181 21.0536 22.8 20.8C23.2 20.4 24.0246 19.8 25 19.8Z" fill="white" fill-opacity="0.95"/>
<path d="M25 29.8C24.0246 29.8 23.2 29.2 22.8 28.8C23.1004 28.5282 23.8759 27.713 24.3 26.8C24.7241 25.8869 24.8 25.0898 24.8 24.8L25.2 24.8C25.2 25.1 25.2963 25.7653 25.7 26.8C26.1241 27.8869 26.8819 28.5464 27.2 28.8C26.8 29.2 25.9754 29.8 25 29.8Z" fill="#FAA21E"/>
<path d="M25 29.8C24.0246 29.8 23.2 29.2 22.8 28.8C23.1004 28.5282 23.8759 27.713 24.3 26.8C24.7241 25.8869 24.8 25.0898 24.8 24.8L25.2 24.8C25.2 25.1 25.2963 25.7653 25.7 26.8C26.1241 27.8869 26.8819 28.5464 27.2 28.8C26.8 29.2 25.9754 29.8 25 29.8Z" fill="white" fill-opacity="0.95"/>
<path d="M20 24.8C20 23.8246 20.6 23 21 22.6C21.2717 22.9004 22.087 23.6759 23 24.1C23.913 24.5241 24.7101 24.6 25 24.6L25 25C24.7 25 24.0347 25.0963 23 25.5C21.913 25.9241 21.2536 26.6819 21 27C20.6 26.6 20 25.7754 20 24.8Z" fill="#FAA21E"/>
<path d="M20 24.8C20 23.8246 20.6 23 21 22.6C21.2717 22.9004 22.087 23.6759 23 24.1C23.913 24.5241 24.7101 24.6 25 24.6L25 25C24.7 25 24.0347 25.0963 23 25.5C21.913 25.9241 21.2536 26.6819 21 27C20.6 26.6 20 25.7754 20 24.8Z" fill="white" fill-opacity="0.95"/>
<path d="M30 24.8C30 25.7754 29.4 26.6 29 27C28.7283 26.6996 27.913 25.9241 27 25.5C26.087 25.0759 25.2899 25 25 25L25 24.6C25.3 24.6 25.9653 24.5037 27 24.1C28.087 23.6759 28.7464 22.9181 29 22.6C29.4 23 30 23.8246 30 24.8Z" fill="#FAA21E"/>
<path d="M30 24.8C30 25.7754 29.4 26.6 29 27C28.7283 26.6996 27.913 25.9241 27 25.5C26.087 25.0759 25.2899 25 25 25L25 24.6C25.3 24.6 25.9653 24.5037 27 24.1C28.087 23.6759 28.7464 22.9181 29 22.6C29.4 23 30 23.8246 30 24.8Z" fill="white" fill-opacity="0.95"/>
</g>
<defs>
<clipPath id="clip0_1445_15169">
<rect width="10" height="10" fill="white" transform="translate(20 19.8)"/>
</clipPath>
</defs>
</svg>
