<svg width="50" height="50" viewBox="0 0 50 50" fill="none" xmlns="http://www.w3.org/2000/svg">
<path d="M18.3426 29.0396C18.0275 26.011 19.1988 23.6517 19.8079 23.2152L15.1507 23.5954L11.8841 29.1322C11.9562 29.7956 13.6889 32.8487 15.4692 34.8626C17.7989 37.4979 20.0993 39.4474 21.1484 40.2007L22.7231 38.9206C20.8826 36.2887 18.597 31.4837 18.3426 29.0396Z" fill="#FEFEFE" stroke="#FAA21E" stroke-width="0.996296"/>
<path d="M25.5 17.5002C25.5 17.5002 16.5208 17.2969 14.5 18C12.4792 18.7031 10.5 19.5002 7 24.0002C3.5 28.5002 2 37.0002 2 50H13.4375C13.327 48.2636 12.5 42.2237 12.5 37C12.5 31.2813 12.2947 28.6885 14.4792 26.4706C16.6263 24.2906 21.8542 24.5002 25.5 24.5002V17.5002Z" fill="#FAA21E"/>
<path d="M36 21.0001C36 10.4118 38.3056 3.61444 39 1.00006C36 1.00007 31.875 6.00006 30 8.50006C28.125 11.0001 24.375 17.6471 24.375 17.6471V24.5099C24.375 24.5099 27.5 30.5001 30 33.5001C32.5 36.5001 36 41.0001 39 41.0001C38.3056 38.8759 36 31.5883 36 21.0001Z" fill="#FAA21E"/>
<ellipse cx="39" cy="21.0001" rx="3" ry="20" fill="#FEFEFE" stroke="#FAA21E" stroke-width="0.996296"/>
<path d="M36.5 20.0001H43.5V22.4992H36.5V20.0001Z" fill="#FAA21E"/>
<path d="M36.5 20.0001H43.5V22.4992H36.5V20.0001Z" fill="black" fill-opacity="0.1"/>
<ellipse cx="45" cy="21.0001" rx="4" ry="4" fill="#FAA21E"/>
<g clip-path="url(#clip0_1424_8455)">
<path d="M30.5 17C31.2803 17 31.94 17.48 32.26 17.8C32.0197 18.0174 31.3993 18.6696 31.06 19.4C30.7207 20.1304 30.66 20.7681 30.66 21H30.34C30.34 20.76 30.263 20.2278 29.94 19.4C29.6007 18.5304 28.9945 18.0029 28.74 17.8C29.06 17.48 29.7197 17 30.5 17Z" fill="#FAA21E"/>
<path d="M30.5 17C31.2803 17 31.94 17.48 32.26 17.8C32.0197 18.0174 31.3993 18.6696 31.06 19.4C30.7207 20.1304 30.66 20.7681 30.66 21H30.34C30.34 20.76 30.263 20.2278 29.94 19.4C29.6007 18.5304 28.9945 18.0029 28.74 17.8C29.06 17.48 29.7197 17 30.5 17Z" fill="white" fill-opacity="0.95"/>
<path d="M30.5 25C29.7197 25 29.06 24.52 28.74 24.2C28.9803 23.9826 29.6007 23.3304 29.94 22.6C30.2793 21.8696 30.34 21.2319 30.34 21L30.66 21C30.66 21.24 30.737 21.7722 31.06 22.6C31.3993 23.4696 32.0055 23.9971 32.26 24.2C31.94 24.52 31.2803 25 30.5 25Z" fill="#FAA21E"/>
<path d="M30.5 25C29.7197 25 29.06 24.52 28.74 24.2C28.9803 23.9826 29.6007 23.3304 29.94 22.6C30.2793 21.8696 30.34 21.2319 30.34 21L30.66 21C30.66 21.24 30.737 21.7722 31.06 22.6C31.3993 23.4696 32.0055 23.9971 32.26 24.2C31.94 24.52 31.2803 25 30.5 25Z" fill="white" fill-opacity="0.95"/>
<path d="M26.5 21C26.5 20.2197 26.98 19.56 27.3 19.24C27.5174 19.4803 28.1696 20.1007 28.9 20.44C29.6304 20.7793 30.2681 20.84 30.5 20.84L30.5 21.16C30.26 21.16 29.7278 21.237 28.9 21.56C28.0304 21.8993 27.5029 22.5055 27.3 22.76C26.98 22.44 26.5 21.7803 26.5 21Z" fill="#FAA21E"/>
<path d="M26.5 21C26.5 20.2197 26.98 19.56 27.3 19.24C27.5174 19.4803 28.1696 20.1007 28.9 20.44C29.6304 20.7793 30.2681 20.84 30.5 20.84L30.5 21.16C30.26 21.16 29.7278 21.237 28.9 21.56C28.0304 21.8993 27.5029 22.5055 27.3 22.76C26.98 22.44 26.5 21.7803 26.5 21Z" fill="white" fill-opacity="0.95"/>
<path d="M34.5 21C34.5 21.7803 34.02 22.44 33.7 22.76C33.4826 22.5197 32.8304 21.8993 32.1 21.56C31.3696 21.2207 30.7319 21.16 30.5 21.16L30.5 20.84C30.74 20.84 31.2722 20.763 32.1 20.44C32.9696 20.1007 33.4971 19.4945 33.7 19.24C34.02 19.56 34.5 20.2197 34.5 21Z" fill="#FAA21E"/>
<path d="M34.5 21C34.5 21.7803 34.02 22.44 33.7 22.76C33.4826 22.5197 32.8304 21.8993 32.1 21.56C31.3696 21.2207 30.7319 21.16 30.5 21.16L30.5 20.84C30.74 20.84 31.2722 20.763 32.1 20.44C32.9696 20.1007 33.4971 19.4945 33.7 19.24C34.02 19.56 34.5 20.2197 34.5 21Z" fill="white" fill-opacity="0.95"/>
</g>
<defs>
<clipPath id="clip0_1424_8455">
<rect width="8" height="8" fill="white" transform="translate(26.5 17)"/>
</clipPath>
</defs>
</svg>
