<svg width="50" height="50" viewBox="0 0 50 50" fill="none" xmlns="http://www.w3.org/2000/svg">
<path d="M39.5 9.4999C38.0689 10.2153 36.8333 11.8332 36.5 12.9999C35.6667 10.3333 33.4 4.60001 31 3.00001C28 1.00001 25.5 0.500006 21.5 2.50001C17.5 4.50001 17.5 7.50001 17.5 10C17.5 12 20.5 17.5 22 20L26 29.5L41 22L40.5 21C41.5 18.3333 43.4 12.5999 43 10.9999C42.5 8.9999 40.5 9 39.5 9.4999Z" fill="#FAA21E"/>
<path d="M20.5 3C21.4303 2.37983 24 1.5 24 1.5C23.5 2.16667 22.5 3.5 22 4.5C21.3676 5.76491 20.5 7.91886 20.5 9.5C20.5 11 22.5 13.5 25 20C27 25.2 30.3333 30.8333 31.5 33L28.5 34.5L26.5 30.5L24.5 26L22 20C21 18 17.5 12.6406 17.5 9C17.5 6.5 18.5673 4.28846 20.5 3Z" fill="black" fill-opacity="0.1"/>
<path d="M42.8292 26.7764L28.7236 33.8292L26.6708 29.7236L40.7764 22.6708L42.8292 26.7764Z" fill="#FEFEFE" stroke="#FAA21E"/>
<path d="M33.8985 34.1097L36.4714 36.7241L25.4597 48.0281L22.18 44.8332L32.2939 34.9121L33.8985 34.1097Z" fill="#FEFEFE" stroke="#FAA21E"/>
<path d="M20.5 43.9999L21.5 44.9999L32 34.5L28 36.5L21 21C20.3333 20 18.1 17.8999 14.5 17.4999C9.99998 16.9999 6.49999 20.9999 5.99999 23.9999C5.49999 26.9999 6.99999 30.4999 8.49999 32.4999C9.69999 34.0999 13 36.8333 14.5 37.9999C13.6667 37.9999 11.5733 37.9633 10.5 38.5L10.4998 38.5001C9.49986 39.0001 8.50004 39.5001 8.99999 40.9999C9.47435 42.423 10.5 43 12 43.5C13.2 43.9 18.1667 44.1666 20.5 43.9999Z" fill="#FAA21E"/>
<g clip-path="url(#clip0_1257_24777)">
<path d="M27.1648 10.6029C27.8797 10.2902 28.6764 10.4656 29.0979 10.6306C28.9648 10.926 28.6577 11.7722 28.6396 12.5774C28.6214 13.3825 28.8213 13.9911 28.9143 14.2036L28.6211 14.3318C28.5249 14.1119 28.2411 13.6552 27.6134 13.0262C26.9541 12.3654 26.1873 12.125 25.8728 12.0411C26.0378 11.6197 26.4498 10.9156 27.1648 10.6029Z" fill="#FAA21E"/>
<path d="M27.1648 10.6029C27.8797 10.2902 28.6764 10.4656 29.0979 10.6306C28.9648 10.926 28.6577 11.7722 28.6396 12.5774C28.6214 13.3825 28.8213 13.9911 28.9143 14.2036L28.6211 14.3318C28.5249 14.1119 28.2411 13.6552 27.6134 13.0262C26.9541 12.3654 26.1873 12.125 25.8728 12.0411C26.0378 11.6197 26.4498 10.9156 27.1648 10.6029Z" fill="white" fill-opacity="0.95"/>
<path d="M30.3706 17.9325C29.6556 18.2452 28.8589 18.0697 28.4375 17.9048C28.5705 17.6093 28.8776 16.7632 28.8958 15.958C28.9139 15.1528 28.714 14.5443 28.6211 14.3318L28.9143 14.2036C29.0104 14.4235 29.2943 14.8802 29.9219 15.5092C30.5812 16.1699 31.3481 16.4103 31.6625 16.4943C31.4975 16.9157 31.0855 17.6198 30.3706 17.9325Z" fill="#FAA21E"/>
<path d="M30.3706 17.9325C29.6556 18.2452 28.8589 18.0697 28.4375 17.9048C28.5705 17.6093 28.8776 16.7632 28.8958 15.958C28.9139 15.1528 28.714 14.5443 28.6211 14.3318L28.9143 14.2036C29.0104 14.4235 29.2943 14.8802 29.9219 15.5092C30.5812 16.1699 31.3481 16.4103 31.6625 16.4943C31.4975 16.9157 31.0855 17.6198 30.3706 17.9325Z" fill="white" fill-opacity="0.95"/>
<path d="M25.1029 15.8706C24.7902 15.1556 24.9657 14.3589 25.1306 13.9375C25.4261 14.0706 26.2722 14.3776 27.0774 14.3958C27.8826 14.4139 28.4911 14.214 28.7036 14.1211L28.8318 14.4143C28.6119 14.5105 28.1552 14.7943 27.5262 15.4219C26.8655 16.0812 26.6251 16.8481 26.5411 17.1625C26.1197 16.9976 25.4156 16.5855 25.1029 15.8706Z" fill="#FAA21E"/>
<path d="M25.1029 15.8706C24.7902 15.1556 24.9657 14.3589 25.1306 13.9375C25.4261 14.0706 26.2722 14.3776 27.0774 14.3958C27.8826 14.4139 28.4911 14.214 28.7036 14.1211L28.8318 14.4143C28.6119 14.5105 28.1552 14.7943 27.5262 15.4219C26.8655 16.0812 26.6251 16.8481 26.5411 17.1625C26.1197 16.9976 25.4156 16.5855 25.1029 15.8706Z" fill="white" fill-opacity="0.95"/>
<path d="M32.4325 12.6648C32.7452 13.3797 32.5697 14.1765 32.4048 14.5979C32.1093 14.4648 31.2632 14.1577 30.458 14.1396C29.6528 14.1215 29.0443 14.3214 28.8318 14.4143L28.7036 14.1211C28.9235 14.0249 29.3802 13.7411 30.0092 13.1135C30.6699 12.4542 30.9103 11.6873 30.9943 11.3729C31.4157 11.5378 32.1198 11.9498 32.4325 12.6648Z" fill="#FAA21E"/>
<path d="M32.4325 12.6648C32.7452 13.3797 32.5697 14.1765 32.4048 14.5979C32.1093 14.4648 31.2632 14.1577 30.458 14.1396C29.6528 14.1215 29.0443 14.3214 28.8318 14.4143L28.7036 14.1211C28.9235 14.0249 29.3802 13.7411 30.0092 13.1135C30.6699 12.4542 30.9103 11.6873 30.9943 11.3729C31.4157 11.5378 32.1198 11.9498 32.4325 12.6648Z" fill="white" fill-opacity="0.95"/>
</g>
<g clip-path="url(#clip1_1257_24777)">
<path d="M15.6716 27.1716C16.2234 26.6198 17.0292 26.4927 17.4818 26.4927C17.4655 26.8164 17.488 27.7162 17.7646 28.4726C18.0412 29.229 18.4492 29.7229 18.6131 29.8869L18.3869 30.1131C18.2172 29.9434 17.7864 29.6216 16.9726 29.2646C16.1179 28.8896 15.3161 28.9453 14.9927 28.9818C14.9927 28.5292 15.1198 27.7234 15.6716 27.1716Z" fill="#FAA21E"/>
<path d="M15.6716 27.1716C16.2234 26.6198 17.0292 26.4927 17.4818 26.4927C17.4655 26.8164 17.488 27.7162 17.7646 28.4726C18.0412 29.229 18.4492 29.7229 18.6131 29.8869L18.3869 30.1131C18.2172 29.9434 17.7864 29.6216 16.9726 29.2646C16.1179 28.8896 15.3161 28.9453 14.9927 28.9818C14.9927 28.5292 15.1198 27.7234 15.6716 27.1716Z" fill="white" fill-opacity="0.95"/>
<path d="M21.3284 32.8284C20.7766 33.3802 19.9708 33.5073 19.5182 33.5073C19.5345 33.1836 19.512 32.2838 19.2354 31.5274C18.9588 30.771 18.5508 30.2771 18.3869 30.1131L18.6131 29.8869C18.7828 30.0566 19.2136 30.3784 20.0274 30.7354C20.8821 31.1104 21.6839 31.0547 22.0073 31.0182C22.0073 31.4708 21.8802 32.2766 21.3284 32.8284Z" fill="#FAA21E"/>
<path d="M21.3284 32.8284C20.7766 33.3802 19.9708 33.5073 19.5182 33.5073C19.5345 33.1836 19.512 32.2838 19.2354 31.5274C18.9588 30.771 18.5508 30.2771 18.3869 30.1131L18.6131 29.8869C18.7828 30.0566 19.2136 30.3784 20.0274 30.7354C20.8821 31.1104 21.6839 31.0547 22.0073 31.0182C22.0073 31.4708 21.8802 32.2766 21.3284 32.8284Z" fill="white" fill-opacity="0.95"/>
<path d="M15.6716 32.8284C15.1198 32.2766 14.9927 31.4708 14.9927 31.0182C15.3164 31.0344 16.2162 31.012 16.9726 30.7354C17.729 30.4588 18.2229 30.0508 18.3869 29.8869L18.6131 30.1131C18.4434 30.2828 18.1216 30.7136 17.7646 31.5273C17.3896 32.3821 17.4453 33.1838 17.4818 33.5072C17.0292 33.5072 16.2234 33.3802 15.6716 32.8284Z" fill="#FAA21E"/>
<path d="M15.6716 32.8284C15.1198 32.2766 14.9927 31.4708 14.9927 31.0182C15.3164 31.0344 16.2162 31.012 16.9726 30.7354C17.729 30.4588 18.2229 30.0508 18.3869 29.8869L18.6131 30.1131C18.4434 30.2828 18.1216 30.7136 17.7646 31.5273C17.3896 32.3821 17.4453 33.1838 17.4818 33.5072C17.0292 33.5072 16.2234 33.3802 15.6716 32.8284Z" fill="white" fill-opacity="0.95"/>
<path d="M21.3284 27.1716C21.8802 27.7234 22.0073 28.5292 22.0073 28.9818C21.6836 28.9655 20.7838 28.988 20.0274 29.2646C19.271 29.5412 18.7771 29.9492 18.6131 30.1131L18.3869 29.8869C18.5566 29.7172 18.8784 29.2864 19.2354 28.4726C19.6104 27.6179 19.5547 26.8161 19.5182 26.4927C19.9708 26.4927 20.7766 26.6198 21.3284 27.1716Z" fill="#FAA21E"/>
<path d="M21.3284 27.1716C21.8802 27.7234 22.0073 28.5292 22.0073 28.9818C21.6836 28.9655 20.7838 28.988 20.0274 29.2646C19.271 29.5412 18.7771 29.9492 18.6131 30.1131L18.3869 29.8869C18.5566 29.7172 18.8784 29.2864 19.2354 28.4726C19.6104 27.6179 19.5547 26.8161 19.5182 26.4927C19.9708 26.4927 20.7766 26.6198 21.3284 27.1716Z" fill="white" fill-opacity="0.95"/>
</g>
<defs>
<clipPath id="clip0_1257_24777">
<rect width="8" height="8" fill="white" transform="translate(23.5 12.2058) rotate(-23.6234)"/>
</clipPath>
<clipPath id="clip1_1257_24777">
<rect width="8" height="8" fill="white" transform="translate(12.8431 30) rotate(-45)"/>
</clipPath>
</defs>
</svg>
