<svg width="51" height="51" viewBox="0 0 51 51" fill="none" xmlns="http://www.w3.org/2000/svg">
<g clip-path="url(#clip0_1360_8505)">
<path d="M46.829 1.50341C47.9233 1.22088 49.5852 1.15564 49.5852 1.15564L11.5852 39.1557L10.0852 35.1557L44.6403 2.63356C44.9138 2.35102 45.7463 1.78294 46.829 1.50341Z" fill="#FAA21E"/>
<path d="M16.0852 41.1558L12.0852 39.6558L50.0852 1.65579C50.0852 1.65579 49.9235 3.24999 49.7544 4.45289C49.5852 5.65579 48.9235 6.39663 48.9235 6.39663L16.0852 41.1558Z" fill="#FAA21E"/>
<path d="M12.8301 38.4108C14.3549 39.9366 17.6482 41.301 19.1003 41.6643C19.3726 41.7551 20.1927 42.4719 19.9172 43.2991C19.6449 44.1165 18.8281 44.1165 18.5558 44.1165L13.3403 41.9822L7.07436 47.3861L6.5852 50.1557L4.0852 50.1557L1.08519 47.1557L1.08519 44.6557L3.85259 44.1165L9.02594 37.8497L7.39225 32.6728C7.30149 32.3095 7.33779 31.5285 8.20909 31.3105C9.08039 31.0925 9.47974 31.7646 9.5705 32.1279C10.0243 33.6719 11.3053 36.885 12.8301 38.4108Z" fill="#FEFEFE" stroke="#FAA21E" stroke-width="0.996296"/>
<g clip-path="url(#clip1_1360_8505)">
<path d="M17.5443 33.6198C17.9758 34.0514 18.0752 34.6817 18.0752 35.0356C17.822 35.0229 17.1182 35.0405 16.5266 35.2568C15.935 35.4732 15.5487 35.7923 15.4205 35.9205L15.2435 35.7435C15.3763 35.6108 15.628 35.2739 15.9072 34.6374C16.2005 33.9689 16.1569 33.3418 16.1284 33.0888C16.4824 33.0888 17.1127 33.1882 17.5443 33.6198Z" fill="#FAA21E"/>
<path d="M17.5443 33.6198C17.9758 34.0514 18.0752 34.6817 18.0752 35.0356C17.822 35.0229 17.1182 35.0405 16.5266 35.2568C15.935 35.4732 15.5487 35.7923 15.4205 35.9205L15.2435 35.7435C15.3763 35.6108 15.628 35.2739 15.9072 34.6374C16.2005 33.9689 16.1569 33.3418 16.1284 33.0888C16.4824 33.0888 17.1127 33.1882 17.5443 33.6198Z" fill="white" fill-opacity="0.95"/>
<path d="M13.1198 38.0443C12.6882 37.6127 12.5889 36.9824 12.5889 36.6284C12.842 36.6411 13.5458 36.6236 14.1374 36.4072C14.7291 36.1909 15.1153 35.8718 15.2436 35.7435L15.4205 35.9205C15.2878 36.0533 15.0361 36.3902 14.7569 37.0266C14.4636 37.6952 14.5071 38.3223 14.5356 38.5752C14.1817 38.5752 13.5514 38.4759 13.1198 38.0443Z" fill="#FAA21E"/>
<path d="M13.1198 38.0443C12.6882 37.6127 12.5889 36.9824 12.5889 36.6284C12.842 36.6411 13.5458 36.6236 14.1374 36.4072C14.7291 36.1909 15.1153 35.8718 15.2436 35.7435L15.4205 35.9205C15.2878 36.0533 15.0361 36.3902 14.7569 37.0266C14.4636 37.6952 14.5071 38.3223 14.5356 38.5752C14.1817 38.5752 13.5514 38.4759 13.1198 38.0443Z" fill="white" fill-opacity="0.95"/>
<path d="M13.1198 33.6198C13.5514 33.1882 14.1817 33.0889 14.5356 33.0889C14.523 33.342 14.5405 34.0458 14.7569 34.6374C14.9732 35.229 15.2923 35.6153 15.4205 35.7435L15.2436 35.9205C15.1108 35.7878 14.7739 35.536 14.1374 35.2569C13.4689 34.9636 12.8418 35.0071 12.5889 35.0356C12.5889 34.6817 12.6882 34.0514 13.1198 33.6198Z" fill="#FAA21E"/>
<path d="M13.1198 33.6198C13.5514 33.1882 14.1817 33.0889 14.5356 33.0889C14.523 33.342 14.5405 34.0458 14.7569 34.6374C14.9732 35.229 15.2923 35.6153 15.4205 35.7435L15.2436 35.9205C15.1108 35.7878 14.7739 35.536 14.1374 35.2569C13.4689 34.9636 12.8418 35.0071 12.5889 35.0356C12.5889 34.6817 12.6882 34.0514 13.1198 33.6198Z" fill="white" fill-opacity="0.95"/>
<path d="M17.5442 38.0443C17.1127 38.4758 16.4824 38.5752 16.1284 38.5752C16.1411 38.3221 16.1235 37.6183 15.9072 37.0266C15.6909 36.435 15.3718 36.0488 15.2435 35.9205L15.4205 35.7435C15.5532 35.8763 15.8902 36.128 16.5266 36.4072C17.1952 36.7005 17.8222 36.6569 18.0752 36.6284C18.0752 36.9824 17.9758 37.6127 17.5442 38.0443Z" fill="#FAA21E"/>
<path d="M17.5442 38.0443C17.1127 38.4758 16.4824 38.5752 16.1284 38.5752C16.1411 38.3221 16.1235 37.6183 15.9072 37.0266C15.6909 36.435 15.3718 36.0488 15.2435 35.9205L15.4205 35.7435C15.5532 35.8763 15.8902 36.128 16.5266 36.4072C17.1952 36.7005 17.8222 36.6569 18.0752 36.6284C18.0752 36.9824 17.9758 37.6127 17.5442 38.0443Z" fill="white" fill-opacity="0.95"/>
</g>
</g>
<defs>
<clipPath id="clip0_1360_8505">
<rect width="50" height="50" fill="white" transform="translate(0.585205 0.655762)"/>
</clipPath>
<clipPath id="clip1_1360_8505">
<rect width="6.25717" height="6.25717" fill="white" transform="translate(15.332 31.4075) rotate(45)"/>
</clipPath>
</defs>
</svg>
