<svg width="50" height="50" viewBox="0 0 50 50" fill="none" xmlns="http://www.w3.org/2000/svg">
<g clip-path="url(#clip0_2148_17863)">
<path fill-rule="evenodd" clip-rule="evenodd" d="M31.6567 6.0877C29.4356 5.74738 27.5458 5.60995 26.832 5.60995C26.7414 5.60995 26.6422 5.60974 26.5349 5.60951C24.2503 5.60466 18.289 5.59202 13.5666 7.43658C8.6008 9.37625 1.30297 15.2289 0.591505 24.9555C0.311873 28.7783 0.702742 32.7563 1.36188 36.1671C2.01896 39.5673 2.95412 42.4622 3.79694 44.1082L5.13209 43.4246C4.37881 41.9534 3.47784 39.2109 2.83463 35.8825C2.19349 32.5648 1.8199 28.7233 2.08751 25.0649C2.74413 16.0882 9.5016 10.6348 14.1124 8.83378C18.5579 7.09734 24.2647 7.10612 26.5608 7.10966L26.832 7.10995C27.4466 7.10995 29.1749 7.23356 31.2412 7.54188L31.6567 6.0877ZM33.7902 7.99539L34.2033 6.54954C34.5708 6.62752 34.9389 6.71105 35.3042 6.80037C37.0829 7.23531 38.8535 7.82092 40.1965 8.60554C41.5077 9.37159 42.631 10.4628 42.631 11.9709C42.631 13.3413 41.9011 14.5279 40.9313 15.5386C39.9576 16.5533 38.6564 17.48 37.3291 18.3356C36.672 18.7591 35.9971 19.1723 35.3418 19.5734L35.3418 19.5735L35.3106 19.5925C34.6426 20.0015 33.9965 20.3974 33.3949 20.7879C32.1725 21.5813 31.2169 22.3015 30.6752 22.9787C29.631 24.2839 28.7493 26.6113 28.8002 28.89C28.8501 31.1245 29.7832 33.22 32.2691 34.3248C32.3773 34.3729 32.4844 34.419 32.5904 34.4631C32.5703 32.1659 33.1479 29.9446 34.5096 28.2845C36.406 25.9727 38.5808 25.3128 40.389 25.8919C42.1458 26.4546 43.3395 28.1377 43.3395 30.0102C43.3395 31.796 42.3893 34.0831 40.4322 35.4947C38.9117 36.5914 36.8539 37.1136 34.291 36.5693C34.7305 39.0434 35.8688 41.4904 37.5132 43.2551C40.443 46.3992 44.5329 48.0102 50 48.0102V49.5102C44.217 49.5102 39.6911 47.7927 36.4158 44.2777C34.4235 42.1397 33.1274 39.1774 32.7243 36.2632C32.7214 36.242 32.7185 36.2207 32.7157 36.1995C32.7119 36.1713 32.7082 36.1431 32.7046 36.1149C32.3639 35.9931 32.0157 35.8537 31.6599 35.6955C28.5208 34.3004 27.3601 31.5913 27.3006 28.9235C27.242 26.2999 28.2353 23.6273 29.5039 22.0417C30.2121 21.1564 31.3554 20.3234 32.5783 19.5297C33.1993 19.1266 33.8625 18.7203 34.5274 18.3132L34.5518 18.2983L34.5518 18.2983C35.2118 17.8943 35.8741 17.4888 36.5164 17.0748C37.8244 16.2317 39.0023 15.3823 39.849 14.5001C40.6994 13.6138 41.131 12.7826 41.131 11.9709C41.131 11.2971 40.6297 10.5958 39.4398 9.9007C38.2818 9.22412 36.6749 8.67974 34.9479 8.25744C34.5637 8.16351 34.1765 8.07627 33.7902 7.99539ZM39.5547 34.2781C38.3459 35.15 36.5645 35.6407 34.1067 34.984C33.9862 32.7351 34.4943 30.6684 35.6694 29.2358C37.2949 27.2542 38.87 26.9805 39.9314 27.3204C41.0442 27.6768 41.8395 28.7654 41.8395 30.0102C41.8395 31.3416 41.0991 33.1642 39.5547 34.2781Z" fill="#FAA21E"/>
<path fill-rule="evenodd" clip-rule="evenodd" d="M31.6567 6.0877C29.4356 5.74738 27.5458 5.60995 26.832 5.60995C26.7414 5.60995 26.6422 5.60974 26.5349 5.60951C24.2503 5.60466 18.289 5.59202 13.5666 7.43658C8.6008 9.37625 1.30297 15.2289 0.591505 24.9555C0.311873 28.7783 0.702742 32.7563 1.36188 36.1671C2.01896 39.5673 2.95412 42.4622 3.79694 44.1082L5.13209 43.4246C4.37881 41.9534 3.47784 39.2109 2.83463 35.8825C2.19349 32.5648 1.8199 28.7233 2.08751 25.0649C2.74413 16.0882 9.5016 10.6348 14.1124 8.83378C18.5579 7.09734 24.2647 7.10612 26.5608 7.10966L26.832 7.10995C27.4466 7.10995 29.1749 7.23356 31.2412 7.54188L31.6567 6.0877ZM33.7902 7.99539L34.2033 6.54954C34.5708 6.62752 34.9389 6.71105 35.3042 6.80037C37.0829 7.23531 38.8535 7.82092 40.1965 8.60554C41.5077 9.37159 42.631 10.4628 42.631 11.9709C42.631 13.3413 41.9011 14.5279 40.9313 15.5386C39.9576 16.5533 38.6564 17.48 37.3291 18.3356C36.672 18.7591 35.9971 19.1723 35.3418 19.5734L35.3418 19.5735L35.3106 19.5925C34.6426 20.0015 33.9965 20.3974 33.3949 20.7879C32.1725 21.5813 31.2169 22.3015 30.6752 22.9787C29.631 24.2839 28.7493 26.6113 28.8002 28.89C28.8501 31.1245 29.7832 33.22 32.2691 34.3248C32.3773 34.3729 32.4844 34.419 32.5904 34.4631C32.5703 32.1659 33.1479 29.9446 34.5096 28.2845C36.406 25.9727 38.5808 25.3128 40.389 25.8919C42.1458 26.4546 43.3395 28.1377 43.3395 30.0102C43.3395 31.796 42.3893 34.0831 40.4322 35.4947C38.9117 36.5914 36.8539 37.1136 34.291 36.5693C34.7305 39.0434 35.8688 41.4904 37.5132 43.2551C40.443 46.3992 44.5329 48.0102 50 48.0102V49.5102C44.217 49.5102 39.6911 47.7927 36.4158 44.2777C34.4235 42.1397 33.1274 39.1774 32.7243 36.2632C32.7214 36.242 32.7185 36.2207 32.7157 36.1995C32.7119 36.1713 32.7082 36.1431 32.7046 36.1149C32.3639 35.9931 32.0157 35.8537 31.6599 35.6955C28.5208 34.3004 27.3601 31.5913 27.3006 28.9235C27.242 26.2999 28.2353 23.6273 29.5039 22.0417C30.2121 21.1564 31.3554 20.3234 32.5783 19.5297C33.1993 19.1266 33.8625 18.7203 34.5274 18.3132L34.5518 18.2983L34.5518 18.2983C35.2118 17.8943 35.8741 17.4888 36.5164 17.0748C37.8244 16.2317 39.0023 15.3823 39.849 14.5001C40.6994 13.6138 41.131 12.7826 41.131 11.9709C41.131 11.2971 40.6297 10.5958 39.4398 9.9007C38.2818 9.22412 36.6749 8.67974 34.9479 8.25744C34.5637 8.16351 34.1765 8.07627 33.7902 7.99539ZM39.5547 34.2781C38.3459 35.15 36.5645 35.6407 34.1067 34.984C33.9862 32.7351 34.4943 30.6684 35.6694 29.2358C37.2949 27.2542 38.87 26.9805 39.9314 27.3204C41.0442 27.6768 41.8395 28.7654 41.8395 30.0102C41.8395 31.3416 41.0991 33.1642 39.5547 34.2781Z" fill="white" fill-opacity="0.95"/>
<path fill-rule="evenodd" clip-rule="evenodd" d="M23.8395 10.6351C23.0808 13.417 21.3895 18.447 19.4423 24.2382C16.5772 32.7592 13.1579 42.9284 11.3395 50.0102C15.4558 43.0125 20.6565 31.9482 24.6778 23.3931C26.7622 18.9585 28.5298 15.1982 29.6651 13.0279C33.5798 5.54444 33.592 0.700382 30.9741 0.0515688C29.5044 -0.312672 27.9219 1.28709 26.5438 3.76007H28.53C29.0714 3.18307 29.623 2.9019 30.0895 3.13515C31.3395 3.76015 30.7145 6.88517 29.4645 9.38517C28.5806 11.1529 25.0895 17.5102 24.4645 17.5102C23.9623 17.008 25.0742 12.8741 25.8547 9.97202C25.9724 9.53448 26.0826 9.12494 26.1785 8.76007H24.4047C24.2002 9.37861 24.0109 10.0065 23.8395 10.6351Z" fill="#FAA21E"/>
<g clip-path="url(#clip1_2148_17863)">
<path d="M23.7947 19.1869C24.3399 19.3956 24.6725 19.9074 24.8105 20.2166C24.5844 20.3042 23.9765 20.5939 23.5441 21.0136C23.1117 21.4332 22.8987 21.8624 22.8367 22.0245L22.6131 21.9389C22.6773 21.7712 22.7659 21.3787 22.7616 20.714C22.7571 20.0157 22.4746 19.485 22.3511 19.2752C22.6603 19.1372 23.2495 18.9782 23.7947 19.1869Z" fill="#FAA21E"/>
<path d="M23.7947 19.1869C24.3399 19.3956 24.6725 19.9074 24.8105 20.2166C24.5844 20.3042 23.9765 20.5939 23.5441 21.0136C23.1117 21.4332 22.8987 21.8624 22.8367 22.0245L22.6131 21.9389C22.6773 21.7712 22.7659 21.3787 22.7616 20.714C22.7571 20.0157 22.4746 19.485 22.3511 19.2752C22.6603 19.1372 23.2495 18.9782 23.7947 19.1869Z" fill="white" fill-opacity="0.95"/>
<path d="M21.6551 24.7764C21.1099 24.5677 20.7774 24.0559 20.6394 23.7467C20.8654 23.6591 21.4733 23.3694 21.9057 22.9498C22.3381 22.5302 22.5511 22.1009 22.6131 21.9389L22.8367 22.0244C22.7725 22.1921 22.684 22.5846 22.6882 23.2493C22.6927 23.9476 22.9752 24.4783 23.0987 24.6881C22.7896 24.8261 22.2003 24.9851 21.6551 24.7764Z" fill="#FAA21E"/>
<path d="M21.6551 24.7764C21.1099 24.5677 20.7774 24.0559 20.6394 23.7467C20.8654 23.6591 21.4733 23.3694 21.9057 22.9498C22.3381 22.5302 22.5511 22.1009 22.6131 21.9389L22.8367 22.0244C22.7725 22.1921 22.684 22.5846 22.6882 23.2493C22.6927 23.9476 22.9752 24.4783 23.0987 24.6881C22.7896 24.8261 22.2003 24.9851 21.6551 24.7764Z" fill="white" fill-opacity="0.95"/>
<path d="M19.9302 20.9119C20.1389 20.3667 20.6507 20.0341 20.9598 19.8962C21.0474 20.1222 21.3372 20.7301 21.7568 21.1625C22.1764 21.5949 22.6057 21.8079 22.7677 21.8699L22.6821 22.0935C22.5144 22.0293 22.122 21.9408 21.4572 21.945C20.7589 21.9495 20.2282 22.232 20.0184 22.3555C19.8804 22.0464 19.7215 21.4571 19.9302 20.9119Z" fill="#FAA21E"/>
<path d="M19.9302 20.9119C20.1389 20.3667 20.6507 20.0341 20.9598 19.8962C21.0474 20.1222 21.3372 20.7301 21.7568 21.1625C22.1764 21.5949 22.6057 21.8079 22.7677 21.8699L22.6821 22.0935C22.5144 22.0293 22.122 21.9408 21.4572 21.945C20.7589 21.9495 20.2282 22.232 20.0184 22.3555C19.8804 22.0464 19.7215 21.4571 19.9302 20.9119Z" fill="white" fill-opacity="0.95"/>
<path d="M25.5197 23.0514C25.311 23.5967 24.7992 23.9292 24.49 24.0672C24.4024 23.8411 24.1127 23.2332 23.6931 22.8008C23.2735 22.3684 22.8442 22.1554 22.6821 22.0934L22.7677 21.8699C22.9354 21.934 23.3279 22.0226 23.9926 22.0183C24.6909 22.0138 25.2216 21.7313 25.4314 21.6078C25.5694 21.917 25.7284 22.5062 25.5197 23.0514Z" fill="#FAA21E"/>
<path d="M25.5197 23.0514C25.311 23.5967 24.7992 23.9292 24.49 24.0672C24.4024 23.8411 24.1127 23.2332 23.6931 22.8008C23.2735 22.3684 22.8442 22.1554 22.6821 22.0934L22.7677 21.8699C22.9354 21.934 23.3279 22.0226 23.9926 22.0183C24.6909 22.0138 25.2216 21.7313 25.4314 21.6078C25.5694 21.917 25.7284 22.5062 25.5197 23.0514Z" fill="white" fill-opacity="0.95"/>
</g>
</g>
<defs>
<clipPath id="clip0_2148_17863">
<rect width="50" height="50" fill="white"/>
</clipPath>
<clipPath id="clip1_2148_17863">
<rect width="6.05932" height="6.05932" fill="white" transform="translate(21 18.1171) rotate(20.9465)"/>
</clipPath>
</defs>
</svg>
