<svg width="50" height="50" viewBox="0 0 50 50" fill="none" xmlns="http://www.w3.org/2000/svg">
<path d="M21.6477 5.64774L21.2955 5.99998L21.6477 6.35222L24.6477 9.35222L24.7986 9.50311C16.399 9.61006 9.61006 16.399 9.50311 24.7986L9.35222 24.6477L6.35222 21.6477L5.99998 21.2955L5.64773 21.6477L2.64773 24.6477L2.49905 24.7964C2.553 18.7077 5.02519 13.1964 9.00183 9.17619V9.49998V13.5V13.9981H9.49998H13.5H13.9981V13.5V9.49998V9.00183H13.5H9.49998H9.17619C13.1964 5.02518 18.7077 2.55297 24.7965 2.49902L24.6477 2.64774L21.6477 5.64774ZM40.4968 24.7986C40.3899 16.399 33.6009 9.61006 25.2013 9.50311L25.3522 9.35222L28.3522 6.35222L28.7045 5.99998L28.3522 5.64774L25.3522 2.64774L25.2035 2.49902C31.2922 2.55296 36.8036 5.02517 40.8238 9.00183H40.5H36.5H36.0018V9.49998V13.5V13.9981H36.5H40.5H40.9981V13.5V9.49998V9.17615C44.9748 13.1963 47.447 18.7077 47.5009 24.7965L47.3522 24.6477L44.3522 21.6477L44 21.2955L43.6477 21.6477L40.6477 24.6477L40.4968 24.7986ZM47.3522 25.3522L47.5009 25.2035C47.447 31.2922 44.9748 36.8036 40.9981 40.8238V40.5V36.5V36.0018H40.5H36.5H36.0018V36.5V40.5V40.9981H36.5H40.5H40.8238C36.8036 44.9748 31.2922 47.447 25.2035 47.5009L25.3522 47.3522L28.3522 44.3522L28.7045 44L28.3522 43.6477L25.3522 40.6477L25.2013 40.4968C33.6009 40.3899 40.3899 33.6009 40.4968 25.2013L40.6477 25.3522L43.6477 28.3522L44 28.7045L44.3522 28.3522L47.3522 25.3522ZM24.6477 47.3522L24.7964 47.5009C18.7077 47.447 13.1964 44.9748 9.17622 40.9981H9.49998H13.5H13.9981V40.5V36.5V36.0018H13.5H9.49998H9.00183V36.5V40.5V40.8237C5.0252 36.8036 2.55301 31.2922 2.49905 25.2035L2.64773 25.3522L5.64773 28.3522L5.99998 28.7045L6.35222 28.3522L9.35222 25.3522L9.50311 25.2013C9.61006 33.6009 16.399 40.3899 24.7986 40.4968L24.6477 40.6477L21.6477 43.6477L21.2955 44L21.6477 44.3522L24.6477 47.3522Z" fill="#FEFEFE" stroke="#FAA21E" stroke-width="0.996296"/>
<circle cx="25" cy="25" r="13.4185" fill="#FAA21E"/>
<g clip-path="url(#clip0_1357_8146)">
<path d="M25 20C25.9754 20 26.8 20.6 27.2 21C26.8996 21.2717 26.1241 22.087 25.7 23C25.2759 23.913 25.2 24.7101 25.2 25H24.8C24.8 24.7 24.7037 24.0347 24.3 23C23.8759 21.913 23.1181 21.2536 22.8 21C23.2 20.6 24.0246 20 25 20Z" fill="#FAA21E"/>
<path d="M25 20C25.9754 20 26.8 20.6 27.2 21C26.8996 21.2717 26.1241 22.087 25.7 23C25.2759 23.913 25.2 24.7101 25.2 25H24.8C24.8 24.7 24.7037 24.0347 24.3 23C23.8759 21.913 23.1181 21.2536 22.8 21C23.2 20.6 24.0246 20 25 20Z" fill="white" fill-opacity="0.95"/>
<path d="M25 30C24.0246 30 23.2 29.4 22.8 29C23.1004 28.7283 23.8759 27.913 24.3 27C24.7241 26.087 24.8 25.2899 24.8 25L25.2 25C25.2 25.3 25.2963 25.9653 25.7 27C26.1241 28.087 26.8819 28.7464 27.2 29C26.8 29.4 25.9754 30 25 30Z" fill="#FAA21E"/>
<path d="M25 30C24.0246 30 23.2 29.4 22.8 29C23.1004 28.7283 23.8759 27.913 24.3 27C24.7241 26.087 24.8 25.2899 24.8 25L25.2 25C25.2 25.3 25.2963 25.9653 25.7 27C26.1241 28.087 26.8819 28.7464 27.2 29C26.8 29.4 25.9754 30 25 30Z" fill="white" fill-opacity="0.95"/>
<path d="M20 25C20 24.0246 20.6 23.2 21 22.8C21.2717 23.1004 22.087 23.8759 23 24.3C23.913 24.7241 24.7101 24.8 25 24.8L25 25.2C24.7 25.2 24.0347 25.2963 23 25.7C21.913 26.1241 21.2536 26.8819 21 27.2C20.6 26.8 20 25.9754 20 25Z" fill="#FAA21E"/>
<path d="M20 25C20 24.0246 20.6 23.2 21 22.8C21.2717 23.1004 22.087 23.8759 23 24.3C23.913 24.7241 24.7101 24.8 25 24.8L25 25.2C24.7 25.2 24.0347 25.2963 23 25.7C21.913 26.1241 21.2536 26.8819 21 27.2C20.6 26.8 20 25.9754 20 25Z" fill="white" fill-opacity="0.95"/>
<path d="M30 25C30 25.9754 29.4 26.8 29 27.2C28.7283 26.8996 27.913 26.1241 27 25.7C26.087 25.2759 25.2899 25.2 25 25.2L25 24.8C25.3 24.8 25.9653 24.7037 27 24.3C28.087 23.8759 28.7464 23.1181 29 22.8C29.4 23.2 30 24.0246 30 25Z" fill="#FAA21E"/>
<path d="M30 25C30 25.9754 29.4 26.8 29 27.2C28.7283 26.8996 27.913 26.1241 27 25.7C26.087 25.2759 25.2899 25.2 25 25.2L25 24.8C25.3 24.8 25.9653 24.7037 27 24.3C28.087 23.8759 28.7464 23.1181 29 22.8C29.4 23.2 30 24.0246 30 25Z" fill="white" fill-opacity="0.95"/>
</g>
<defs>
<clipPath id="clip0_1357_8146">
<rect width="10" height="10" fill="white" transform="translate(20 20)"/>
</clipPath>
</defs>
</svg>
