<svg width="50" height="50" viewBox="0 0 50 50" fill="none" xmlns="http://www.w3.org/2000/svg">
<path d="M9.70074 1.99249H39.8518V4.98138L40.8481 6.97397H44.8333V47.8221H11.2738C10.7495 47.8221 8.12764 47.8221 6.55454 46.2597C4.98145 44.6974 4.98145 43.135 4.98145 42.6142V6.67961C4.98145 5.63803 5.71556 4.38813 6.55454 3.55487C7.39353 2.7216 8.65201 1.99249 9.70074 1.99249Z" fill="#7445B8"/>
<path d="M42.8407 9.0662L39.8518 4.98138V39.8518H37.8593L42.8407 45.8295V9.0662Z" fill="#898989"/>
<path d="M42.8407 9.0662L39.8518 4.98138V39.8518H37.8593L42.8407 45.8295V9.0662Z" fill="white" fill-opacity="0.2"/>
<path d="M10.093 39.8517H37.8593L42.8408 45.8295H10.093C9.58856 45.8295 6.97412 45.0823 6.97412 42.8406C6.97412 40.599 9.58856 39.8517 10.093 39.8517Z" fill="#898989"/>
<path d="M10.093 39.8517H37.8593L42.8408 45.8295H10.093C9.58856 45.8295 6.97412 45.0823 6.97412 42.8406C6.97412 40.599 9.58856 39.8517 10.093 39.8517Z" fill="white" fill-opacity="0.6"/>
<path d="M30.6382 27.5322C29.9947 25.8881 21.7598 16.5747 17.4664 12.0394C16.257 14.3373 14.201 19.3684 15.6523 21.11C17.4664 23.2869 26.4835 29.5986 27.9327 30.3722C29.4289 31.171 35.7587 37.4505 36.2531 36.8148C36.8789 36.0102 31.5116 29.764 30.6382 27.5322Z" fill="#898989"/>
<path d="M30.6382 27.5322C29.9947 25.8881 21.7598 16.5747 17.4664 12.0394C16.257 14.3373 14.201 19.3684 15.6523 21.11C17.4664 23.2869 26.4835 29.5986 27.9327 30.3722C29.4289 31.171 35.7587 37.4505 36.2531 36.8148C36.8789 36.0102 31.5116 29.764 30.6382 27.5322Z" fill="white" fill-opacity="0.95"/>
<path d="M12.9744 7.5799C13.9903 6.564 18.9783 9.43925 19.462 9.31831C21.4939 11.3501 25.9929 18.026 27.807 22.0171C26.3557 20.9286 23.7071 19.0057 22.546 17.8446C21.0948 16.3933 17.6479 14.3978 17.2851 14.7606C16.9223 15.1235 17.4665 15.6677 18.555 16.7562C19.4258 17.6269 20.4901 19.5378 21.0948 20.7472C19.583 19.7192 16.9223 17.3004 16.7409 17.4818C16.5595 17.6632 24.3602 26.9152 27.6256 31.9947C23.2717 28.3665 15.9427 21.9082 15.6524 22.1985C15.3622 22.4888 18.3736 26.0081 19.4621 28.1851L10.0287 19.4773C9.90774 18.8726 10.1618 14.2178 11.4679 13.2019C13.1006 11.9321 11.7045 8.84978 12.9744 7.5799Z" fill="#898989"/>
<path d="M12.9744 7.5799C13.9903 6.564 18.9783 9.43925 19.462 9.31831C21.4939 11.3501 25.9929 18.026 27.807 22.0171C26.3557 20.9286 23.7071 19.0057 22.546 17.8446C21.0948 16.3933 17.6479 14.3978 17.2851 14.7606C16.9223 15.1235 17.4665 15.6677 18.555 16.7562C19.4258 17.6269 20.4901 19.5378 21.0948 20.7472C19.583 19.7192 16.9223 17.3004 16.7409 17.4818C16.5595 17.6632 24.3602 26.9152 27.6256 31.9947C23.2717 28.3665 15.9427 21.9082 15.6524 22.1985C15.3622 22.4888 18.3736 26.0081 19.4621 28.1851L10.0287 19.4773C9.90774 18.8726 10.1618 14.2178 11.4679 13.2019C13.1006 11.9321 11.7045 8.84978 12.9744 7.5799Z" fill="white" fill-opacity="0.95"/>
<path d="M14.4676 9.26363C15.5323 8.48038 17.9645 9.82849 18.4259 9.73361C20.4787 11.7863 20.7316 12.678 22.6627 16.6119C21.5742 15.5234 20.7444 14.7724 19.6609 13.9103C18.0278 12.611 16.5593 11.984 15.8337 12.7096C15.108 13.4352 15.5595 14.6117 16.6592 15.7113C17.2034 16.2556 17.0155 16.005 17.5597 16.912C15.927 15.6422 15.7923 15.6777 15.4585 16.0115C13.9576 16.912 17.5597 20.5141 20.2613 24.4164C16.9222 21.7148 14.5313 19.6403 13.9576 20.214C13.5948 20.5768 13.8447 21.1145 14.2578 21.7148L10.6654 18.6156C10.6326 17.9152 10.6775 15.2302 11.7761 14.4702C14.163 12.8191 12.8529 10.4514 14.4676 9.26363Z" fill="#898989"/>
<path d="M14.4676 9.26363C15.5323 8.48038 17.9645 9.82849 18.4259 9.73361C20.4787 11.7863 20.7316 12.678 22.6627 16.6119C21.5742 15.5234 20.7444 14.7724 19.6609 13.9103C18.0278 12.611 16.5593 11.984 15.8337 12.7096C15.108 13.4352 15.5595 14.6117 16.6592 15.7113C17.2034 16.2556 17.0155 16.005 17.5597 16.912C15.927 15.6422 15.7923 15.6777 15.4585 16.0115C13.9576 16.912 17.5597 20.5141 20.2613 24.4164C16.9222 21.7148 14.5313 19.6403 13.9576 20.214C13.5948 20.5768 13.8447 21.1145 14.2578 21.7148L10.6654 18.6156C10.6326 17.9152 10.6775 15.2302 11.7761 14.4702C14.163 12.8191 12.8529 10.4514 14.4676 9.26363Z" fill="white" fill-opacity="0.6"/>
<path d="M30.3643 11.8508L27.458 9.76428L28.9484 12.596L36.12 20.08L30.3643 11.8508Z" fill="#898989"/>
<path d="M30.3643 11.8508L27.458 9.76428L28.9484 12.596L36.12 20.08L30.3643 11.8508Z" fill="white" fill-opacity="0.95"/>
<path d="M12.12 28.08L10.2 27.12L11.48 28.72L15.96 31.92L12.12 28.08Z" fill="#898989"/>
<path d="M12.12 28.08L10.2 27.12L11.48 28.72L15.96 31.92L12.12 28.08Z" fill="white" fill-opacity="0.95"/>
</svg>
