<svg width="50" height="51" viewBox="0 0 50 51" fill="none" xmlns="http://www.w3.org/2000/svg">
<path d="M39.8846 5.83428L36.3106 10.4666L36.2898 28.9706L36.8666 48.9675L49.0967 44.8818L40.8877 26.0242L39.8846 5.83428Z" fill="#1D8CE0"/>
<path d="M39.8846 5.83428L36.3106 10.4666L36.2898 28.9706L36.8666 48.9675L49.0967 44.8818L40.8877 26.0242L39.8846 5.83428Z" fill="white" fill-opacity="0.8"/>
<path d="M33.012 0.925218C28.1136 -0.366794 25.3113 -0.248604 20.2485 0.925218L27.5466 49.0338H30.2957L33.012 0.925218Z" fill="#1D8CE0"/>
<path d="M20.2484 0.925293C20.2484 0.925293 20.567 2.65644 19.7575 3.87071C18.948 5.08499 9.93945 6.87564 9.93945 6.87564C11.1831 13.6524 14.603 26.611 14.603 28.1977C14.603 29.7845 13.5149 43.0736 12.2712 49.0239L27.612 50.0156V3.87071L20.2484 0.925293Z" fill="#1D8CE0"/>
<path d="M20.2484 0.925293C20.2484 0.925293 20.567 2.65644 19.7575 3.87071C18.948 5.08499 9.93945 6.87564 9.93945 6.87564C11.1831 13.6524 14.603 26.611 14.603 28.1977C14.603 29.7845 13.5149 43.0736 12.2712 49.0239L27.612 50.0156V3.87071L20.2484 0.925293Z" fill="white" fill-opacity="0.4"/>
<path d="M33.012 0.925293L28.5939 4.39633V50.0156L41.5 48L37.8143 28.1977L39.8847 5.83433C39.8847 5.83433 34.2623 4.63008 33.5029 3.87071C32.7435 3.11135 33.012 0.925293 33.012 0.925293Z" fill="#1D8CE0"/>
<path d="M33.012 0.925293L28.5939 4.39633V50.0156L41.5 48L37.8143 28.1977L39.8847 5.83433C39.8847 5.83433 34.2623 4.63008 33.5029 3.87071C32.7435 3.11135 33.012 0.925293 33.012 0.925293Z" fill="white" fill-opacity="0.4"/>
<path d="M27.6121 3.87071L20.2485 0.925293V2.398L26.6303 4.85252V50.0156H27.6121V3.87071Z" fill="#1D8CE0"/>
<path d="M27.6121 3.87071L20.2485 0.925293V2.398L26.6303 4.85252V50.0156H27.6121V3.87071Z" fill="white" fill-opacity="0.8"/>
<path d="M33.012 0.925293L28.5939 3.90047V50.0156H29.5757V4.85252L33.012 2.398V0.925293Z" fill="#1D8CE0"/>
<path d="M33.012 0.925293L28.5939 3.90047V50.0156H29.5757V4.85252L33.012 2.398V0.925293Z" fill="white" fill-opacity="0.8"/>
<path d="M3.21936 26.6921L9.9342 6.8341C12.3513 8.39317 13.082 11.3217 13.4434 18.3461L11.8088 27.7974L16.61 47.9051L1.93162 49.0147L3.21936 26.6921Z" fill="#1D8CE0"/>
<path d="M3.21936 26.6921L9.9342 6.8341C12.3513 8.39317 13.082 11.3217 13.4434 18.3461L11.8088 27.7974L16.61 47.9051L1.93162 49.0147L3.21936 26.6921Z" fill="white" fill-opacity="0.8"/>
<path d="M21.0579 12.7138L19.4264 20.5456M17.2236 13.958L23.2608 19.3014M16.4079 17.8739L24.0765 15.3855" stroke="#FEFEFE" stroke-linecap="round"/>
<path d="M37.569 37.6596L33.7757 41.7184M34.8449 37.0147L36.4998 42.3633M32.9483 39.0442L38.3964 40.3338" stroke="#FEFEFE" stroke-width="0.694434" stroke-linecap="round"/>
<circle cx="16" cy="9" r="1" fill="#FEFEFE"/>
<circle cx="33" cy="46" r="1" fill="#FEFEFE"/>
<circle cx="35" cy="31" r="1" fill="#FEFEFE"/>
<circle cx="23" cy="26" r="1" fill="#FEFEFE"/>
</svg>
