<svg width="50" height="50" viewBox="0 0 50 50" fill="none" xmlns="http://www.w3.org/2000/svg">
<path d="M11.6162 4.5L0 19C1.51515 17.5 7.57576 15 11.6162 16.5C18.2535 18.9641 15.6566 28 18.6869 35.5C21.1065 41.4885 29.4613 47.5 34.8485 49L50 20C45.9596 20 37.3737 18.4 35.3535 12C32.8283 4 28.2828 1 22.2222 1C17.3737 1 13.1313 3.33333 11.6162 4.5Z" fill="#1D8CE0"/>
<path d="M11.6162 4.5L0 19C1.51515 17.5 7.57576 15 11.6162 16.5C18.2535 18.9641 15.6566 28 18.6869 35.5C21.1065 41.4885 29.4613 47.5 34.8485 49L50 20C45.9596 20 37.3737 18.4 35.3535 12C32.8283 4 28.2828 1 22.2222 1C17.3737 1 13.1313 3.33333 11.6162 4.5Z" fill="white" fill-opacity="0.4"/>
<path d="M17 28.5L32 5.5L34 8.5C34.8 9.7 35.3333 11.6667 35.5 12.5L20 38C19.6667 37.5 18.8 35.9 18 33.5C17.2 31.1 17 29.1667 17 28.5Z" fill="#1D8CE0"/>
<path d="M17 28.5L32 5.5L34 8.5C34.8 9.7 35.3333 11.6667 35.5 12.5L20 38C19.6667 37.5 18.8 35.9 18 33.5C17.2 31.1 17 29.1667 17 28.5Z" fill="white" fill-opacity="0.6"/>
<path d="M32.8469 30.2982L31.2154 38.1301M29.0125 31.5424L35.0497 36.8859M28.1968 35.4583L35.8654 32.9699" stroke="#FEFEFE" stroke-linecap="round"/>
<path d="M23.5124 5.49567L22.3794 10.9344M20.8497 6.35968L25.0421 10.0704M20.2832 9.07904L25.6086 7.35101" stroke="#FEFEFE" stroke-width="0.694434" stroke-linecap="round"/>
<circle cx="16" cy="11" r="1" fill="#FEFEFE"/>
<circle cx="32" cy="17" r="1" fill="#FEFEFE"/>
<circle cx="38" cy="28" r="1" fill="#FEFEFE"/>
<circle cx="20" cy="21" r="1" fill="#FEFEFE"/>
</svg>
