<svg width="50" height="50" viewBox="0 0 50 50" fill="none" xmlns="http://www.w3.org/2000/svg">
<path d="M27.85 1.5C22.91 1.5 15.975 0.701754 13.125 0C12.65 1.57895 12.175 5.78947 10.75 11.0526C9.36882 16.154 6.95 38 6 48C10.75 49.5 21.58 50 28.8 50C36.02 50 41.9417 48.8772 44 48C43.2083 39.7544 41.245 20.7368 39.725 13.1579C38.205 5.57895 37.1917 1.22807 36.875 0C35.7667 0.701754 32.79 1.5 27.85 1.5Z" fill="#1D8CE0"/>
<path d="M12.9781 0C13.9928 0.333333 16.247 1.1 18.4609 1.5C20.0764 1.79186 24.9071 1.65781 26.4328 1.56399C26.4338 1.54261 26.4349 1.52128 26.4359 1.5C27.1097 1.5 26.9981 1.52923 26.4328 1.56399C26.1685 7.07003 27.3681 16.0847 26.4359 24.5C25.4391 33.5 24.9406 44.5 23.4453 50C21.6004 50 13.7488 49.9 11.5349 49.5C9.32091 49.1 6.92248 48.3333 6 48C6.83023 36 10.0431 11.8 10.4859 9C10.9287 6.2 12.7936 1.66667 12.9781 0Z" fill="#1D8CE0"/>
<path d="M12.9781 0C13.9928 0.333333 16.247 1.1 18.4609 1.5C20.0764 1.79186 24.9071 1.65781 26.4328 1.56399C26.4338 1.54261 26.4349 1.52128 26.4359 1.5C27.1097 1.5 26.9981 1.52923 26.4328 1.56399C26.1685 7.07003 27.3681 16.0847 26.4359 24.5C25.4391 33.5 24.9406 44.5 23.4453 50C21.6004 50 13.7488 49.9 11.5349 49.5C9.32091 49.1 6.92248 48.3333 6 48C6.83023 36 10.0431 11.8 10.4859 9C10.9287 6.2 12.7936 1.66667 12.9781 0Z" fill="white" fill-opacity="0.4"/>
<path d="M37.3406 0C36.5104 0.333333 34.6661 1.1 32.8547 1.5C31.533 1.79186 27.5806 1.65781 26.3323 1.564C26.3314 1.54262 26.3306 1.52129 26.3297 1.5C25.7784 1.5 25.8697 1.52924 26.3323 1.564C26.5529 7.06619 26.1374 15.5847 26.9 24C27.7156 33 28.5266 44.5 29.75 50C31.2595 50 36.7101 49.9 38.5215 49.5C40.3329 49.1 43.2452 48.3333 44 48C43.3207 36 39.742 11.8 39.3797 9C39.0174 6.2 37.4916 1.66667 37.3406 0Z" fill="#1D8CE0"/>
<path d="M37.3406 0C36.5104 0.333333 34.6661 1.1 32.8547 1.5C31.533 1.79186 27.5806 1.65781 26.3323 1.564C26.3314 1.54262 26.3306 1.52129 26.3297 1.5C25.7784 1.5 25.8697 1.52924 26.3323 1.564C26.5529 7.06619 26.1374 15.5847 26.9 24C27.7156 33 28.5266 44.5 29.75 50C31.2595 50 36.7101 49.9 38.5215 49.5C40.3329 49.1 43.2452 48.3333 44 48C43.3207 36 39.742 11.8 39.3797 9C39.0174 6.2 37.4916 1.66667 37.3406 0Z" fill="white" fill-opacity="0.4"/>
<path d="M28.325 1.5H25C24.8417 9 25.38 17 25 21C24.62 25 22.6333 43.8333 22 48.5C21.05 48.6667 18.42 48.9 15 48.5C11.58 48.1 7.425 47 6 46.5V48C7.9 48.6667 12.46 50 15.5 50H23.575C23.8917 48 24.62 43 25 39C25.38 35 26.425 25.6667 26.9 21.5C27.0583 24.8333 27.47 32.4 27.85 36C28.23 39.6 29.275 46.8333 29.75 50C31.65 50 35.925 49.9 37.825 49.5C39.725 49.1 42.7333 48.5 44 48V46C43.2083 46.3333 40.105 47.6 37.825 48C35.545 48.4 32.425 48 31 48C30.6833 44.3333 28.8 27 28.325 21C27.85 15 28.4833 8.5 28.325 1.5Z" fill="#1D8CE0"/>
<path d="M28.325 1.5H25C24.8417 9 25.38 17 25 21C24.62 25 22.6333 43.8333 22 48.5C21.05 48.6667 18.42 48.9 15 48.5C11.58 48.1 7.425 47 6 46.5V48C7.9 48.6667 12.46 50 15.5 50H23.575C23.8917 48 24.62 43 25 39C25.38 35 26.425 25.6667 26.9 21.5C27.0583 24.8333 27.47 32.4 27.85 36C28.23 39.6 29.275 46.8333 29.75 50C31.65 50 35.925 49.9 37.825 49.5C39.725 49.1 42.7333 48.5 44 48V46C43.2083 46.3333 40.105 47.6 37.825 48C35.545 48.4 32.425 48 31 48C30.6833 44.3333 28.8 27 28.325 21C27.85 15 28.4833 8.5 28.325 1.5Z" fill="white" fill-opacity="0.8"/>
<path d="M16.8779 11.8696L19.6065 19.3898M14.2699 14.9434L22.2145 16.316M15.6342 18.7036L20.8502 12.5559" stroke="#FEFEFE" stroke-linecap="round"/>
<path d="M40.569 38.6596L36.7757 42.7184M37.8449 38.0147L39.4998 43.3633M35.9483 40.0442L41.3964 41.3338" stroke="#FEFEFE" stroke-width="0.694434" stroke-linecap="round"/>
<circle cx="21" cy="7" r="1" fill="#FEFEFE"/>
<circle cx="34" cy="45" r="1" fill="#FEFEFE"/>
<circle cx="39" cy="33" r="1" fill="#FEFEFE"/>
<circle cx="12" cy="21" r="1" fill="#FEFEFE"/>
</svg>
