<svg width="50" height="50" viewBox="0 0 50 50" fill="none" xmlns="http://www.w3.org/2000/svg">
<path d="M9.73684 2H40V5L41 7H45V48H11.3158C10.7895 48 8.15789 48 6.57895 46.4318C5 44.8636 5 43.2955 5 42.7727V6.70455C5 5.65909 5.73684 4.40455 6.57895 3.56818C7.42105 2.73182 8.68421 2 9.73684 2Z" fill="#D0333D"/>
<path d="M9.73684 2H40V5L41 7H45V48H11.3158C10.7895 48 8.15789 48 6.57895 46.4318C5 44.8636 5 43.2955 5 42.7727V6.70455C5 5.65909 5.73684 4.40455 6.57895 3.56818C7.42105 2.73182 8.68421 2 9.73684 2Z" fill="black" fill-opacity="0.2"/>
<path d="M43 9.1L40 5V40H38L43 46V9.1Z" fill="#898989"/>
<path d="M10.1304 40H38L43 46H10.1304C9.62415 46 7 45.25 7 43C7 40.75 9.62415 40 10.1304 40Z" fill="#898989"/>
<path d="M10.1304 40H38L43 46H10.1304C9.62415 46 7 45.25 7 43C7 40.75 9.62415 40 10.1304 40Z" fill="white" fill-opacity="0.4"/>
<g clip-path="url(#clip0_1574_8385)">
<path d="M25.9224 18.1083L34.5989 3.08008L37.2906 4.63409L28.614 19.6624L25.9224 18.1083Z" fill="#FEFEFE"/>
<path d="M26.0519 17.8839L26.8289 16.5381L29.5205 18.0921L28.7435 19.4379L26.0519 17.8839Z" fill="#FEFEFE"/>
<path d="M28.7435 19.438L26.0638 17.8908C25.1719 18.5722 23.6247 20.4303 22.3057 22.3006C20.9566 24.2134 19.48 31.2401 18.52 34.1199C20.76 31.8799 25.7374 27.2267 26.7917 24.8906C27.8624 22.5181 28.493 20.3899 28.7435 19.438Z" fill="#FEFEFE"/>
<path d="M28.2949 19.1786L26.5005 18.1426C25.24 21.3198 22.04 27.3998 22.0557 27.9132C22.33 27.7188 26.1217 21.723 28.2949 19.1786Z" fill="#FEFEFE"/>
<path d="M17.56 8.2002L14.04 11.0802L17.24 30.6002L17.56 8.2002Z" fill="#FEFEFE"/>
<path d="M10.52 17.1602L8.28 21.3202L16.28 35.0802L10.52 17.1602Z" fill="#FEFEFE"/>
<path d="M36.44 27.4002L18.84 36.0402L34.84 32.2002L36.44 27.4002Z" fill="#FEFEFE"/>
</g>
<defs>
<clipPath id="clip0_1574_8385">
<rect width="32" height="32" fill="white" transform="translate(7 5)"/>
</clipPath>
</defs>
</svg>
