<svg width="50" height="50" viewBox="0 0 50 50" fill="none" xmlns="http://www.w3.org/2000/svg">
<path d="M18.2497 44.4444C20.3331 45.1389 22.9998 47 23.1108 50C24.4998 47.2222 24.4998 45.5 22.4164 44.4444C20.3331 43.3889 18.2497 43.0556 17.5553 39.5833C16.9998 36.8055 18.7127 32.8704 19.6386 31.25C19.4072 32.8704 19.222 36.6667 20.3331 38.8889C21.4442 41.1111 24.2683 42.1296 25.1942 42.3611C23.9998 41 23.9998 39 23.9998 39C25.1942 39.5833 27.2775 40.6944 27.2775 42.3611C27.2775 44.0278 26.3516 46.2963 25.8887 47.2222C27.0461 46.7593 29.7775 45.4167 31.4442 43.75C33.5275 41.6667 34.9164 39.5833 34.9164 36.1111C34.9164 33.3333 33.0646 31.25 32.1387 30.5555C32.3701 31.25 32.9998 33 31.4442 34.0278C30.1332 34.894 31.4442 36.8055 29.3609 38.1944C29.1294 37.2685 28.6664 35.1389 28.6664 34.0278C28.6664 32.6389 30.0553 31.25 30.0553 29.1666C30.0553 27.5 28.6664 26.1574 27.972 25.6944C28.435 26.8518 28.6664 29.1666 27.2775 30.5555C25.8611 31.9719 23.3053 33.5 23.1108 36.1111C22.6479 35.1852 21.9998 34 22.4164 31.25C22.8284 28.531 26.5831 25.6944 25.1942 22.2222C24.0831 19.4444 22.4164 17.3611 21.722 16.6666C22.6479 18.5185 23.8053 22.7777 21.0275 25C17.5553 27.7778 14.083 31.9444 13.3886 36.8055C12.7675 41.1535 16.1664 43.75 18.2497 44.4444Z" fill="#D0333D"/>
<path d="M18.2497 44.4444C20.3331 45.1389 22.9998 47 23.1108 50C24.4998 47.2222 24.4998 45.5 22.4164 44.4444C20.3331 43.3889 18.2497 43.0556 17.5553 39.5833C16.9998 36.8055 18.7127 32.8704 19.6386 31.25C19.4072 32.8704 19.222 36.6667 20.3331 38.8889C21.4442 41.1111 24.2683 42.1296 25.1942 42.3611C23.9998 41 23.9998 39 23.9998 39C25.1942 39.5833 27.2775 40.6944 27.2775 42.3611C27.2775 44.0278 26.3516 46.2963 25.8887 47.2222C27.0461 46.7593 29.7775 45.4167 31.4442 43.75C33.5275 41.6667 34.9164 39.5833 34.9164 36.1111C34.9164 33.3333 33.0646 31.25 32.1387 30.5555C32.3701 31.25 32.9998 33 31.4442 34.0278C30.1332 34.894 31.4442 36.8055 29.3609 38.1944C29.1294 37.2685 28.6664 35.1389 28.6664 34.0278C28.6664 32.6389 30.0553 31.25 30.0553 29.1666C30.0553 27.5 28.6664 26.1574 27.972 25.6944C28.435 26.8518 28.6664 29.1666 27.2775 30.5555C25.8611 31.9719 23.3053 33.5 23.1108 36.1111C22.6479 35.1852 21.9998 34 22.4164 31.25C22.8284 28.531 26.5831 25.6944 25.1942 22.2222C24.0831 19.4444 22.4164 17.3611 21.722 16.6666C22.6479 18.5185 23.8053 22.7777 21.0275 25C17.5553 27.7778 14.083 31.9444 13.3886 36.8055C12.7675 41.1535 16.1664 43.75 18.2497 44.4444Z" fill="black" fill-opacity="0.2"/>
<path d="M30.7235 25C29.4129 23.6783 29.9998 20 30.9998 18.5C30.7235 21.5 31.638 22.626 32.9998 24C34.6157 25.6304 36.3615 25.6522 37.9998 28C39.3103 29.8783 39.9998 33 37.2762 37.5C37.9998 33 37.4998 32 36.4998 30.5C35.2562 28.6346 32.3617 26.6522 30.7235 25Z" fill="#CE4317"/>
<path d="M30.7235 25C29.4129 23.6783 29.9998 20 30.9998 18.5C30.7235 21.5 31.638 22.626 32.9998 24C34.6157 25.6304 36.3615 25.6522 37.9998 28C39.3103 29.8783 39.9998 33 37.2762 37.5C37.9998 33 37.4998 32 36.4998 30.5C35.2562 28.6346 32.3617 26.6522 30.7235 25Z" fill="white" fill-opacity="0.15"/>
<path d="M41.5 28.4999C41 24.9999 46.3508 21.652 49.0001 21.5C44.8328 23.6487 43 27.9999 44.9999 32C46.454 34.9083 45.5 38.4999 43 41.4999C40.8502 44.0797 38.0215 45.9622 30.2552 46.7142C36.7089 43.8219 37.7094 42.472 39.046 40.1796C40.7083 37.3287 42.221 33.5477 41.5 28.4999Z" fill="#CE4317"/>
<path d="M8.11816 29.2727C8.11808 24 3.68529 19.9765 0.999848 19.5C5.20246 22.0945 5.49985 28 3.99985 32C2.68735 35.5 3.49799 39.2904 6 42.5C8.15149 45.2599 12.4998 47 20.4998 48C14.5 46 12.3023 44 10 41C7.93507 38.3092 8.11824 34.1244 8.11816 29.2727Z" fill="#CE4317"/>
<path d="M20.3337 19.4445C20.3337 17.2222 20 14.5834 18.0004 12C19 14.5834 18.556 17.3333 18.0004 19C17.306 21.0833 14.4686 22.5977 12.5004 25C10.6115 27.3055 10 31.5 11.0002 35C11.5002 30.5 13.8059 28.75 15.4725 27.0834L15.4725 27.0834C17.5559 25 20.3337 22.2223 20.3337 19.4445Z" fill="#CE4317"/>
<path d="M20.3337 19.4445C20.3337 17.2222 20 14.5834 18.0004 12C19 14.5834 18.556 17.3333 18.0004 19C17.306 21.0833 14.4686 22.5977 12.5004 25C10.6115 27.3055 10 31.5 11.0002 35C11.5002 30.5 13.8059 28.75 15.4725 27.0834L15.4725 27.0834C17.5559 25 20.3337 22.2223 20.3337 19.4445Z" fill="white" fill-opacity="0.3"/>
<path d="M21.5001 7.5C22.0834 4 24.0001 1.5 25.8893 0C25.1948 0.925927 23.5001 3.44717 23.5001 5C23.5001 6.55283 23.0001 10.5 27.0001 13C29.9897 14.8685 27.7241 18.5185 27.2782 20.1389C27.0001 18 26.5007 16.1667 24.5004 14.5834L24.4904 14.5754C22.4944 12.9955 20.8068 11.6597 21.5001 7.5Z" fill="#FAA21E"/>
<path d="M21.5001 7.5C22.0834 4 24.0001 1.5 25.8893 0C25.1948 0.925927 23.5001 3.44717 23.5001 5C23.5001 6.55283 23.0001 10.5 27.0001 13C29.9897 14.8685 27.7241 18.5185 27.2782 20.1389C27.0001 18 26.5007 16.1667 24.5004 14.5834L24.4904 14.5754C22.4944 12.9955 20.8068 11.6597 21.5001 7.5Z" fill="white" fill-opacity="0.2"/>
</svg>
