<svg width="50" height="50" viewBox="0 0 50 50" fill="none" xmlns="http://www.w3.org/2000/svg">
<g clip-path="url(#clip0_3623_29669)">
<path d="M29.209 21L2 48" stroke="#D0333D" stroke-width="3" stroke-linecap="round"/>
<path d="M29.209 21L2 48" stroke="black" stroke-opacity="0.4" stroke-width="3" stroke-linecap="round"/>
<path d="M30.2993 15.6767C30.8138 16.7058 31.1123 18.3834 30.042 19.536C31.5857 19.0214 32.2238 18.3834 31.843 17.2204C31.4622 16.0575 30.8138 15.1621 31.843 13.6183C32.6664 12.3834 34.759 11.56 35.7024 11.3027C35.0163 11.8173 33.5411 13.1552 33.1295 14.3902C32.7178 15.6252 33.3868 17.0489 33.6441 17.4777C33.7058 16.5309 34.4468 15.7899 34.4468 15.7899C34.6732 16.4485 35.0334 17.6321 34.4159 18.2496C33.7984 18.8671 32.6149 19.3645 32.1003 19.536C32.7007 19.7933 34.2101 20.3079 35.4451 20.3079C36.9888 20.3079 38.2753 20.0506 39.5617 18.7642C40.5909 17.735 40.6767 16.277 40.5909 15.6767C40.4194 16.0197 40.0043 16.9014 39.0472 16.7058C38.2405 16.541 38.018 17.735 36.7315 17.4777C36.9888 17.0489 37.6063 16.0883 38.018 15.6767C38.5326 15.1621 39.5617 15.1621 40.3336 14.3902C40.9511 13.7727 40.934 12.7607 40.8482 12.3319C40.5909 12.9322 39.819 13.8756 38.7899 13.8756C37.7403 13.8756 36.2272 13.4948 35.1878 14.3902C35.3593 13.8756 35.5583 13.1964 36.7315 12.3319C37.8915 11.4772 40.3336 11.8173 41.1055 10.0163C41.723 8.57544 41.8774 7.18607 41.8774 6.67149C41.5343 7.70065 40.3851 9.70752 38.5326 9.50169C36.217 9.2444 33.3867 9.50167 31.3284 11.0454C29.4874 12.4262 29.7847 14.6475 30.2993 15.6767Z" fill="#D0333D"/>
<path d="M30.2993 15.6767C30.8138 16.7058 31.1123 18.3834 30.042 19.536C31.5857 19.0214 32.2238 18.3834 31.843 17.2204C31.4622 16.0575 30.8138 15.1621 31.843 13.6183C32.6664 12.3834 34.759 11.56 35.7024 11.3027C35.0163 11.8173 33.5411 13.1552 33.1295 14.3902C32.7178 15.6252 33.3868 17.0489 33.6441 17.4777C33.7058 16.5309 34.4468 15.7899 34.4468 15.7899C34.6732 16.4485 35.0334 17.6321 34.4159 18.2496C33.7984 18.8671 32.6149 19.3645 32.1003 19.536C32.7007 19.7933 34.2101 20.3079 35.4451 20.3079C36.9888 20.3079 38.2753 20.0506 39.5617 18.7642C40.5909 17.735 40.6767 16.277 40.5909 15.6767C40.4194 16.0197 40.0043 16.9014 39.0472 16.7058C38.2405 16.541 38.018 17.735 36.7315 17.4777C36.9888 17.0489 37.6063 16.0883 38.018 15.6767C38.5326 15.1621 39.5617 15.1621 40.3336 14.3902C40.9511 13.7727 40.934 12.7607 40.8482 12.3319C40.5909 12.9322 39.819 13.8756 38.7899 13.8756C37.7403 13.8756 36.2272 13.4948 35.1878 14.3902C35.3593 13.8756 35.5583 13.1964 36.7315 12.3319C37.8915 11.4772 40.3336 11.8173 41.1055 10.0163C41.723 8.57544 41.8774 7.18607 41.8774 6.67149C41.5343 7.70065 40.3851 9.70752 38.5326 9.50169C36.217 9.2444 33.3867 9.50167 31.3284 11.0454C29.4874 12.4262 29.7847 14.6475 30.2993 15.6767Z" fill="black" fill-opacity="0.2"/>
<path d="M42.1248 13.0941C42.129 12.1188 43.7092 10.9734 44.6354 10.7882C43.4216 11.7973 43.3432 12.5533 43.3387 13.5669C43.3333 14.7697 43.9721 15.4246 43.7092 16.9014C43.4988 18.0829 42.5977 19.4949 39.9214 20.1531C41.8567 18.7539 42.0419 18.1982 42.2272 17.2719C42.4576 16.12 42.1197 14.3132 42.1248 13.0941Z" fill="#CE4317"/>
<path d="M42.1248 13.0941C42.129 12.1188 43.7092 10.9734 44.6354 10.7882C43.4216 11.7973 43.3432 12.5533 43.3387 13.5669C43.3333 14.7697 43.9721 15.4246 43.7092 16.9014C43.4988 18.0829 42.5977 19.4949 39.9214 20.1531C41.8567 18.7539 42.0419 18.1982 42.2272 17.2719C42.4576 16.12 42.1197 14.3132 42.1248 13.0941Z" fill="white" fill-opacity="0.15"/>
<path d="M44.8211 18.3834C45.9326 16.9014 49.1554 17.6435 50.1933 18.5687C47.8533 17.8209 45.5621 18.7539 44.821 20.9769C44.2822 22.5932 42.5981 23.5704 40.5603 23.7556C38.808 23.9149 37.0626 23.5644 33.9066 20.9656C37.3692 22.2851 38.2401 22.1556 39.5846 21.8015C41.2567 21.3612 43.218 20.5208 44.8211 18.3834Z" fill="#CE4317"/>
<path d="M32.1668 6.30189C34.1203 4.34832 33.9687 1.21527 33.1503 0.0437745C33.7461 2.56211 31.6683 4.86025 29.6305 5.78649C27.8475 6.59696 26.7435 8.30166 26.4813 10.4178C26.2559 12.2375 27.2222 14.4932 29.8157 17.8277C28.3338 14.8638 28.2606 13.3085 28.5191 11.344C28.7509 9.58206 30.3693 8.09946 32.1668 6.30189Z" fill="#CE4317"/>
<path d="M40.3338 7.18626C41.1571 6.36293 42.0112 5.26161 42.2275 3.56364C41.6407 4.89111 40.4573 5.74546 39.634 6.15713C38.6048 6.67171 36.9925 6.18154 35.3732 6.34238C33.8192 6.49674 32.0386 7.82421 31.1124 9.49152C32.9649 8.00953 34.4675 8.21543 35.7025 8.21543L35.7025 8.21543C37.2463 8.21542 39.3046 8.21542 40.3338 7.18626Z" fill="#CE4317"/>
<path d="M40.3338 7.18626C41.1571 6.36293 42.0112 5.26161 42.2275 3.56364C41.6407 4.89111 40.4573 5.74546 39.634 6.15713C38.6048 6.67171 36.9925 6.18154 35.3732 6.34238C33.8192 6.49674 32.0386 7.82421 31.1124 9.49152C32.9649 8.00953 34.4675 8.21543 35.7025 8.21543L35.7025 8.21543C37.2463 8.21542 39.3046 8.21542 40.3338 7.18626Z" fill="white" fill-opacity="0.3"/>
<path d="M45.1919 3.19311C46.7047 2.11249 48.3411 1.89637 49.5968 2.04058C48.9964 2.12634 47.4344 2.43254 46.8591 3.00786C46.2838 3.58318 44.6361 4.86035 45.1919 7.26859C45.6072 9.06851 43.4155 9.58146 42.6499 10.0166C43.3394 9.12108 43.8336 8.25685 43.6791 6.9291L43.6783 6.92245C43.5242 5.5976 43.3938 4.47742 45.1919 3.19311Z" fill="#FAA21E"/>
<path d="M45.1919 3.19311C46.7047 2.11249 48.3411 1.89637 49.5968 2.04058C48.9964 2.12634 47.4344 2.43254 46.8591 3.00786C46.2838 3.58318 44.6361 4.86035 45.1919 7.26859C45.6072 9.06851 43.4155 9.58146 42.6499 10.0166C43.3394 9.12108 43.8336 8.25685 43.6791 6.9291L43.6783 6.92245C43.5242 5.5976 43.3938 4.47742 45.1919 3.19311Z" fill="white" fill-opacity="0.2"/>
</g>
<defs>
<clipPath id="clip0_3623_29669">
<rect width="50" height="50" fill="white" transform="matrix(-1 0 0 1 50 0)"/>
</clipPath>
</defs>
</svg>
