<svg width="50" height="50" viewBox="0 0 50 50" fill="none" xmlns="http://www.w3.org/2000/svg">
<g clip-path="url(#clip0_4539_6785)">
<path d="M9.73684 2.01379H40V5.01379L41 7.01379H45V48.0138H11.3158C10.7895 48.0138 8.15789 48.0138 6.57895 46.4456C5 44.8774 5 43.3092 5 42.7865V6.71834C5 5.67288 5.73684 4.41834 6.57895 3.58198C7.42105 2.74561 8.68421 2.01379 9.73684 2.01379Z" fill="#1D8CE0"/>
<path d="M43 9L40 5V40.0312H38L43 46V9Z" fill="#898989"/>
<path d="M43 9L40 5V40.0312H38L43 46V9Z" fill="white" fill-opacity="0.2"/>
<path d="M10.093 40H38.0001L43.0001 46H10.093C9.58856 46 6.97412 45.0823 6.97412 42.8406C6.97412 40.599 9.58856 40 10.093 40Z" fill="#898989"/>
<path d="M10.093 40H38.0001L43.0001 46H10.093C9.58856 46 6.97412 45.0823 6.97412 42.8406C6.97412 40.599 9.58856 40 10.093 40Z" fill="white" fill-opacity="0.6"/>
<g clip-path="url(#clip1_4539_6785)">
<path d="M28.5046 32.4897L25.7504 33.0633L23.6008 35.3248L24.1455 35.6739L26.2356 34.1903L30.6615 33.5118L28.4823 30.4272L32.5578 29.7453L34.5613 27.0496L33.2632 23.5356L37.8574 21.2463L32.1031 22.857L33.2294 26.8694L31.2106 28.6828L26.8113 29.583L28.5046 32.4897Z" fill="#1D8CE0"/>
<path d="M28.5046 32.4897L25.7504 33.0633L23.6008 35.3248L24.1455 35.6739L26.2356 34.1903L30.6615 33.5118L28.4823 30.4272L32.5578 29.7453L34.5613 27.0496L33.2632 23.5356L37.8574 21.2463L32.1031 22.857L33.2294 26.8694L31.2106 28.6828L26.8113 29.583L28.5046 32.4897Z" fill="white" fill-opacity="0.8"/>
<path d="M24.2526 22.2646L17.6779 31.4698L24.1094 24.9116L26.205 28.2977L33.5719 20.3261L29.5045 17.9381L35.6594 13.4674L29.9935 10.4853L38.045 6.01226L27.3096 10.1871L33.8701 13.4674L27.6078 17.6422L31.1863 20.6243L26.3243 26.0919L24.2526 22.2646Z" fill="#1D8CE0"/>
<path d="M24.2526 22.2646L17.6779 31.4698L24.1094 24.9116L26.205 28.2977L33.5719 20.3261L29.5045 17.9381L35.6594 13.4674L29.9935 10.4853L38.045 6.01226L27.3096 10.1871L33.8701 13.4674L27.6078 17.6422L31.1863 20.6243L26.3243 26.0919L24.2526 22.2646Z" fill="white" fill-opacity="0.8"/>
<path d="M11.9521 16.4494L18.3635 14.9584L18.6617 14.2129L13.0704 15.3311L13.4432 10.4853L8.22458 8.24878L12.6976 11.2308L11.9521 16.4494Z" fill="#1D8CE0"/>
<path d="M11.9521 16.4494L18.3635 14.9584L18.6617 14.2129L13.0704 15.3311L13.4432 10.4853L8.22458 8.24878L12.6976 11.2308L11.9521 16.4494Z" fill="white" fill-opacity="0.8"/>
<path d="M21.3455 22.3709C21.6152 22.18 21.9214 20.5654 22.1141 19.687H24.924C24.924 19.687 23.9279 22.2624 24.4259 22.6148C24.924 22.9673 27.4437 23.3934 27.906 23.8619C29.4199 25.3956 30.7836 31.1055 31.3615 31.1055C31.8239 31.1055 34.6366 29.3488 35.9852 28.4705L36.8522 29.0561C35.3109 30.6176 31.9395 33.682 30.7836 33.4478C29.6276 33.2136 27.7974 29.6416 27.0268 27.8849C26.415 31.1055 24.701 32.5006 24.4259 35.7901H17.4904C17.9474 32.784 16.8725 31.1055 16.8725 27.1421C15.6202 28.5085 12.8089 31.9253 11.4218 31.6911C10.0346 31.4569 9.1099 27.1042 8.82092 24.9571L9.97685 24.3715C10.3622 26.1282 11.075 29.0561 11.9997 29.0561C13.1557 29.0561 16.276 23.2004 17.4904 23.2004C18.5366 23.2004 20.8475 22.7233 21.3455 22.3709Z" fill="#1D8CE0"/>
<path d="M21.3455 22.3709C21.6152 22.18 21.9214 20.5654 22.1141 19.687H24.924C24.924 19.687 23.9279 22.2624 24.4259 22.6148C24.924 22.9673 27.4437 23.3934 27.906 23.8619C29.4199 25.3956 30.7836 31.1055 31.3615 31.1055C31.8239 31.1055 34.6366 29.3488 35.9852 28.4705L36.8522 29.0561C35.3109 30.6176 31.9395 33.682 30.7836 33.4478C29.6276 33.2136 27.7974 29.6416 27.0268 27.8849C26.415 31.1055 24.701 32.5006 24.4259 35.7901H17.4904C17.9474 32.784 16.8725 31.1055 16.8725 27.1421C15.6202 28.5085 12.8089 31.9253 11.4218 31.6911C10.0346 31.4569 9.1099 27.1042 8.82092 24.9571L9.97685 24.3715C10.3622 26.1282 11.075 29.0561 11.9997 29.0561C13.1557 29.0561 16.276 23.2004 17.4904 23.2004C18.5366 23.2004 20.8475 22.7233 21.3455 22.3709Z" fill="white" fill-opacity="0.6"/>
<path d="M8.22461 22.3708L8.82102 25.0547L9.93815 25.6511L11.0805 23.4642C11.1757 22.6442 11.309 21.0041 11.0805 21.0041C10.852 21.0041 10.6045 22.2797 10.5093 22.9175C10.3189 22.7353 9.93815 22.2615 9.93815 21.8241C9.93815 21.3868 10.3189 19.8195 10.5093 19.0906L9.08138 20.184L8.22461 22.3708Z" fill="#1D8CE0"/>
<path d="M8.22461 22.3708L8.82102 25.0547L9.93815 25.6511L11.0805 23.4642C11.1757 22.6442 11.309 21.0041 11.0805 21.0041C10.852 21.0041 10.6045 22.2797 10.5093 22.9175C10.3189 22.7353 9.93815 22.2615 9.93815 21.8241C9.93815 21.3868 10.3189 19.8195 10.5093 19.0906L9.08138 20.184L8.22461 22.3708Z" fill="white" fill-opacity="0.6"/>
<path d="M37.7644 27.364L36.7191 29.2295L35.3819 30.2272L35.3217 27.7173C35.5396 26.8637 36.0165 25.1717 36.1814 25.2318C36.3462 25.2919 36.0791 26.6458 35.9249 27.3152C36.126 27.1812 36.5663 26.8027 36.7191 26.3609C36.8719 25.919 37.1448 24.2355 37.2621 23.4489L37.9104 24.9293L37.7644 27.364Z" fill="#1D8CE0"/>
<path d="M37.7644 27.364L36.7191 29.2295L35.3819 30.2272L35.3217 27.7173C35.5396 26.8637 36.0165 25.1717 36.1814 25.2318C36.3462 25.2919 36.0791 26.6458 35.9249 27.3152C36.126 27.1812 36.5663 26.8027 36.7191 26.3609C36.8719 25.919 37.1448 24.2355 37.2621 23.4489L37.9104 24.9293L37.7644 27.364Z" fill="white" fill-opacity="0.6"/>
<path d="M25.3234 14.8107C27.9061 15.8103 26.196 19.1985 25.4305 19.969C24.866 20.5847 23.5149 21.698 22.6265 21.2259C21.5159 20.6358 21.2859 19.7287 21.5437 17.9036C21.8015 16.0785 23.1716 13.9778 25.3234 14.8107Z" fill="#1D8CE0"/>
<path d="M25.3234 14.8107C27.9061 15.8103 26.196 19.1985 25.4305 19.969C24.866 20.5847 23.5149 21.698 22.6265 21.2259C21.5159 20.6358 21.2859 19.7287 21.5437 17.9036C21.8015 16.0785 23.1716 13.9778 25.3234 14.8107Z" fill="white" fill-opacity="0.6"/>
<path d="M20.9248 13.2272L17.9427 6.14484L19.2878 13.6L14.9607 16.582L18.6883 18.8186L14.5879 23.2916L17.9427 28.883L23.9068 24.0371L25.0251 27.7647L22.043 35.5926L25.7706 28.5102L25.0251 22.1734L18.3155 27.0192L16.7503 22.9189L19.8065 18.8186L16.7503 16.582L20.9248 13.2272Z" fill="#FEFEFE"/>
</g>
</g>
<defs>
<clipPath id="clip0_4539_6785">
<rect width="50" height="50" fill="white" transform="matrix(-1 0 0 1 50 0)"/>
</clipPath>
<clipPath id="clip1_4539_6785">
<rect width="32" height="32" fill="white" transform="matrix(-1 0 0 1 39 5)"/>
</clipPath>
</defs>
</svg>
