<svg width="51" height="51" viewBox="0 0 51 51" fill="none" xmlns="http://www.w3.org/2000/svg">
<g clip-path="url(#clip0_1338_7987)">
<g clip-path="url(#clip1_1338_7987)">
<path d="M37.6444 15.6078V19.2307C38.2612 18.476 39.7722 16.5136 42.7326 16.5136C46.4332 16.5136 47.8209 20.5893 47.8209 23.7593C47.8209 26.9294 45.9706 31.0051 42.7326 31.0051C40.1423 31.0051 38.107 28.7408 37.6444 28.288V31.9109C38.107 31.9109 39.0321 33.7223 42.7326 33.7223C47.3583 33.7223 50.5963 29.6466 50.5963 23.7593C50.5963 17.8721 47.3583 13.7964 42.7326 13.7964C39.4947 13.7964 38.107 15.6078 37.6444 15.6078Z" fill="#898989"/>
<path d="M37.6444 15.6078V19.2307C38.2612 18.476 39.7722 16.5136 42.7326 16.5136C46.4332 16.5136 47.8209 20.5893 47.8209 23.7593C47.8209 26.9294 45.9706 31.0051 42.7326 31.0051C40.1423 31.0051 38.107 28.7408 37.6444 28.288V31.9109C38.107 31.9109 39.0321 33.7223 42.7326 33.7223C47.3583 33.7223 50.5963 29.6466 50.5963 23.7593C50.5963 17.8721 47.3583 13.7964 42.7326 13.7964C39.4947 13.7964 38.107 15.6078 37.6444 15.6078Z" fill="white" fill-opacity="0.95"/>
<path d="M5.76294 7.8186H38.6407V44.1834C38.6407 44.1834 35.6518 49.1649 22.2018 49.1649C8.75185 49.1649 5.76294 44.1834 5.76294 44.1834V7.8186Z" fill="#898989"/>
<path d="M5.76294 7.8186H38.6407V44.1834C38.6407 44.1834 35.6518 49.1649 22.2018 49.1649C8.75185 49.1649 5.76294 44.1834 5.76294 44.1834V7.8186Z" fill="white" fill-opacity="0.85"/>
<ellipse cx="22.2018" cy="7.32046" rx="16.4389" ry="4.48333" fill="#FEFEFE"/>
<ellipse cx="22.2018" cy="7.32046" rx="14.4463" ry="3.48704" fill="#898989"/>
<ellipse cx="22.2018" cy="7.32046" rx="14.4463" ry="3.48704" fill="white" fill-opacity="0.4"/>
<path d="M33.6592 9.31305C33.6592 8.8149 28.5295 7.81861 22.2018 7.81861C15.874 7.81861 10.7444 8.8149 10.7444 9.31305C10.7444 9.8112 15.874 10.8075 22.2018 10.8075C28.5295 10.8075 33.6592 9.8112 33.6592 9.31305Z" fill="#FAA21E"/>
<path d="M33.6592 9.31305C33.6592 8.8149 28.5295 7.81861 22.2018 7.81861C15.874 7.81861 10.7444 8.8149 10.7444 9.31305C10.7444 9.8112 15.874 10.8075 22.2018 10.8075C28.5295 10.8075 33.6592 9.8112 33.6592 9.31305Z" fill="black" fill-opacity="0.6"/>
</g>
<path d="M9.28149 27.2947C9.28165 24.2614 11.6541 22.7215 12.3319 22.7215C12.2048 23.275 12.1927 23.6099 12.3319 24.2799C12.4409 24.805 12.5578 25.1732 12.6708 25.2848L13.6876 24.9499C13.3154 24.0614 13.2075 22.5979 13.6876 21.6001C14.3321 20.2602 15.0432 19.2552 17.4156 19.2552C19.9242 19.2552 20.4326 19.9252 21.1437 20.5952L22.1272 20.0417L21.1104 19.0368C21.6753 18.8134 23.3128 18.4513 25.2107 19.2552C27.0673 20.0417 27.2109 21.0466 27.8888 22.0516L28.5998 21.6001L27.922 20.2602C28.3739 20.316 29.4774 20.2602 30.9722 21.2651C32.2255 22.1076 32.6668 22.8842 32.6668 23.275C32.2149 23.275 31.1078 23.342 30.2944 23.6099C29.481 23.8779 28.8258 24.3916 28.5998 24.6149L29.2777 25.2848C29.9222 24.9499 30.0917 24.2799 31.989 24.2799C34.2222 24.2799 35.3781 26.7412 35.3781 28.9696C35.3781 31.7659 34.0225 33.3243 31.989 33.9943C30.3622 34.5302 28.5998 34.4409 27.922 34.3292C28.1479 34.7759 28.6344 35.5847 28.9055 36.1206C29.1766 36.6566 29.2444 37.1256 29.2777 37.679L27.2442 37.344C26.9053 36.8974 26.1942 35.7856 25.2107 34.9992C24.3164 34.2841 22.805 33.6641 22.4661 33.4408C22.805 33.4408 23.8012 32.9027 24.1607 32.7708C24.4784 32.6543 24.8385 32.4359 25.5496 31.9844L24.5329 31.3144C23.742 31.8727 21.6182 32.9223 19.4491 32.6543C16.7378 32.3194 16.06 30.761 16.06 29.179C16.06 28.0807 17.3824 26.8808 18.0602 26.4063L17.0767 25.9548C16.5118 26.2898 15.3143 27.3617 15.0432 28.9696C14.7721 30.5775 15.6081 31.6494 16.06 31.9844C15.2692 32.0961 13.1222 32.2516 11.9928 31.7659C10.943 31.3144 9.28134 30.426 9.28149 27.2947Z" fill="#CE4317"/>
<path d="M9.28149 27.2947C9.28165 24.2614 11.6541 22.7215 12.3319 22.7215C12.2048 23.275 12.1927 23.6099 12.3319 24.2799C12.4409 24.805 12.5578 25.1732 12.6708 25.2848L13.6876 24.9499C13.3154 24.0614 13.2075 22.5979 13.6876 21.6001C14.3321 20.2602 15.0432 19.2552 17.4156 19.2552C19.9242 19.2552 20.4326 19.9252 21.1437 20.5952L22.1272 20.0417L21.1104 19.0368C21.6753 18.8134 23.3128 18.4513 25.2107 19.2552C27.0673 20.0417 27.2109 21.0466 27.8888 22.0516L28.5998 21.6001L27.922 20.2602C28.3739 20.316 29.4774 20.2602 30.9722 21.2651C32.2255 22.1076 32.6668 22.8842 32.6668 23.275C32.2149 23.275 31.1078 23.342 30.2944 23.6099C29.481 23.8779 28.8258 24.3916 28.5998 24.6149L29.2777 25.2848C29.9222 24.9499 30.0917 24.2799 31.989 24.2799C34.2222 24.2799 35.3781 26.7412 35.3781 28.9696C35.3781 31.7659 34.0225 33.3243 31.989 33.9943C30.3622 34.5302 28.5998 34.4409 27.922 34.3292C28.1479 34.7759 28.6344 35.5847 28.9055 36.1206C29.1766 36.6566 29.2444 37.1256 29.2777 37.679L27.2442 37.344C26.9053 36.8974 26.1942 35.7856 25.2107 34.9992C24.3164 34.2841 22.805 33.6641 22.4661 33.4408C22.805 33.4408 23.8012 32.9027 24.1607 32.7708C24.4784 32.6543 24.8385 32.4359 25.5496 31.9844L24.5329 31.3144C23.742 31.8727 21.6182 32.9223 19.4491 32.6543C16.7378 32.3194 16.06 30.761 16.06 29.179C16.06 28.0807 17.3824 26.8808 18.0602 26.4063L17.0767 25.9548C16.5118 26.2898 15.3143 27.3617 15.0432 28.9696C14.7721 30.5775 15.6081 31.6494 16.06 31.9844C15.2692 32.0961 13.1222 32.2516 11.9928 31.7659C10.943 31.3144 9.28134 30.426 9.28149 27.2947Z" fill="white" fill-opacity="0.6"/>
</g>
<defs>
<clipPath id="clip0_1338_7987">
<rect width="50" height="50" fill="white" transform="translate(0.781494 0.844482)"/>
</clipPath>
<clipPath id="clip1_1338_7987">
<rect width="49.8148" height="49.8148" fill="white" transform="translate(0.781494 0.844482)"/>
</clipPath>
</defs>
</svg>
