<svg width="40" height="40" viewBox="0 0 40 40" fill="none" xmlns="http://www.w3.org/2000/svg">
<path d="M0 19.0833C0.000232892 14.4339 3.63658 12.0737 4.67554 12.0737C4.48073 12.922 4.46223 13.4354 4.67554 14.4624C4.8427 15.2672 5.02185 15.8316 5.19501 16.0027L6.75345 15.4893C6.183 14.1275 6.01767 11.8843 6.75345 10.3548C7.74143 8.30103 8.83136 6.7607 12.4677 6.7607C16.3128 6.7607 17.092 7.78766 18.1819 8.81454L19.6894 7.96616L18.131 6.42582C18.9968 6.08353 21.5066 5.52844 24.4157 6.7607C27.2615 7.96616 27.4816 9.50648 28.5205 11.0468L29.6104 10.3548L28.5715 8.30103C29.2641 8.3866 30.9556 8.30103 33.2468 9.84136C35.1677 11.1328 35.8442 12.323 35.8442 12.922C35.1515 12.922 33.4546 13.0247 32.2078 13.4354C30.9611 13.8462 29.9568 14.6335 29.6104 14.9758L30.6494 16.0027C31.6374 15.4893 31.8971 14.4624 34.8052 14.4624C38.2283 14.4624 40 18.235 40 21.6505C40 25.9366 37.9221 28.3253 34.8052 29.3521C32.3117 30.1736 29.6104 30.0367 28.5715 29.8656C28.9178 30.5502 29.6634 31.7898 30.079 32.6113C30.4945 33.4329 30.5984 34.1517 30.6494 35L27.5325 34.4866C27.0131 33.802 25.9231 32.0979 24.4157 30.8925C23.0449 29.7964 20.7284 28.8461 20.2089 28.5038C20.7284 28.5038 22.2552 27.679 22.8063 27.4769C23.2933 27.2984 23.8452 26.9635 24.9352 26.2715L23.3767 25.2446C22.1646 26.1003 18.9092 27.7091 15.5846 27.2984C11.4287 26.7849 10.3898 24.3963 10.3898 21.9714C10.3898 20.288 12.4167 18.4489 13.4557 17.7215L11.9482 17.0295C11.0824 17.543 9.24694 19.186 8.83136 21.6505C8.41577 24.115 9.69715 25.758 10.3898 26.2715C9.17767 26.4426 5.88696 26.6811 4.15582 25.9366C2.54666 25.2446 -0.000240378 23.8829 0 19.0833Z" fill="#CE4317"/>
<path d="M0 19.0833C0.000232892 14.4339 3.63658 12.0737 4.67554 12.0737C4.48073 12.922 4.46223 13.4354 4.67554 14.4624C4.8427 15.2672 5.02185 15.8316 5.19501 16.0027L6.75345 15.4893C6.183 14.1275 6.01767 11.8843 6.75345 10.3548C7.74143 8.30103 8.83136 6.7607 12.4677 6.7607C16.3128 6.7607 17.092 7.78766 18.1819 8.81454L19.6894 7.96616L18.131 6.42582C18.9968 6.08353 21.5066 5.52844 24.4157 6.7607C27.2615 7.96616 27.4816 9.50648 28.5205 11.0468L29.6104 10.3548L28.5715 8.30103C29.2641 8.3866 30.9556 8.30103 33.2468 9.84136C35.1677 11.1328 35.8442 12.323 35.8442 12.922C35.1515 12.922 33.4546 13.0247 32.2078 13.4354C30.9611 13.8462 29.9568 14.6335 29.6104 14.9758L30.6494 16.0027C31.6374 15.4893 31.8971 14.4624 34.8052 14.4624C38.2283 14.4624 40 18.235 40 21.6505C40 25.9366 37.9221 28.3253 34.8052 29.3521C32.3117 30.1736 29.6104 30.0367 28.5715 29.8656C28.9178 30.5502 29.6634 31.7898 30.079 32.6113C30.4945 33.4329 30.5984 34.1517 30.6494 35L27.5325 34.4866C27.0131 33.802 25.9231 32.0979 24.4157 30.8925C23.0449 29.7964 20.7284 28.8461 20.2089 28.5038C20.7284 28.5038 22.2552 27.679 22.8063 27.4769C23.2933 27.2984 23.8452 26.9635 24.9352 26.2715L23.3767 25.2446C22.1646 26.1003 18.9092 27.7091 15.5846 27.2984C11.4287 26.7849 10.3898 24.3963 10.3898 21.9714C10.3898 20.288 12.4167 18.4489 13.4557 17.7215L11.9482 17.0295C11.0824 17.543 9.24694 19.186 8.83136 21.6505C8.41577 24.115 9.69715 25.758 10.3898 26.2715C9.17767 26.4426 5.88696 26.6811 4.15582 25.9366C2.54666 25.2446 -0.000240378 23.8829 0 19.0833Z" fill="white" fill-opacity="0.6"/>
</svg>
