<svg width="50" height="50" viewBox="0 0 50 50" fill="none" xmlns="http://www.w3.org/2000/svg">
<g clip-path="url(#clip0_4539_6770)">
<path d="M9.73684 2.01379H40V5.01379L41 7.01379H45V48.0138H11.3158C10.7895 48.0138 8.15789 48.0138 6.57895 46.4456C5 44.8774 5 43.3092 5 42.7865V6.71834C5 5.67288 5.73684 4.41834 6.57895 3.58198C7.42105 2.74561 8.68421 2.01379 9.73684 2.01379Z" fill="#1D8CE0"/>
<path d="M43 9L40 5V40.0312H38L43 46V9Z" fill="#898989"/>
<path d="M43 9L40 5V40.0312H38L43 46V9Z" fill="white" fill-opacity="0.2"/>
<path d="M10.093 40H38.0001L43.0001 46H10.093C9.58856 46 6.97412 45.0823 6.97412 42.8406C6.97412 40.599 9.58856 40 10.093 40Z" fill="#898989"/>
<path d="M10.093 40H38.0001L43.0001 46H10.093C9.58856 46 6.97412 45.0823 6.97412 42.8406C6.97412 40.599 9.58856 40 10.093 40Z" fill="white" fill-opacity="0.6"/>
<path fill-rule="evenodd" clip-rule="evenodd" d="M19.303 9.04458C19.5117 8.43872 20.2902 8.2728 20.7278 8.74091L24.7057 12.9961C24.8629 13.1643 25.0816 13.2615 25.3118 13.2656L31.1359 13.3682C31.7766 13.3794 32.175 14.0686 31.865 14.6294L29.0473 19.7276C28.936 19.9291 28.9111 20.1671 28.9783 20.3873L30.6805 25.958C30.8678 26.5709 30.3355 27.1627 29.7063 27.0412L23.9869 25.9368C23.7609 25.8932 23.5268 25.9431 23.3382 26.0751L18.5661 29.4154C18.0412 29.7829 17.3138 29.4595 17.2349 28.8236L16.5179 23.0429C16.4895 22.8144 16.3698 22.6072 16.1859 22.4686L11.5344 18.9623C11.0227 18.5766 11.1055 17.7849 11.6859 17.5134L16.9621 15.0451C17.1706 14.9475 17.3307 14.7696 17.4057 14.5519L19.303 9.04458ZM20.4925 19.2884C20.7371 20.4365 20.3771 21.4861 19.6883 21.6329C18.9994 21.7797 18.2427 20.9681 17.998 19.82C17.7533 18.672 18.1134 17.6223 18.8022 17.4755C19.491 17.3287 20.2478 18.1404 20.4925 19.2884ZM25.5086 20.3925C26.1975 20.2457 26.5575 19.196 26.3128 18.0479C26.0682 16.8999 25.3114 16.0882 24.6226 16.2351C23.9338 16.3819 23.5737 17.4315 23.8184 18.5796C24.0631 19.7276 24.8198 20.5393 25.5086 20.3925Z" fill="#1D8CE0"/>
<path fill-rule="evenodd" clip-rule="evenodd" d="M19.303 9.04458C19.5117 8.43872 20.2902 8.2728 20.7278 8.74091L24.7057 12.9961C24.8629 13.1643 25.0816 13.2615 25.3118 13.2656L31.1359 13.3682C31.7766 13.3794 32.175 14.0686 31.865 14.6294L29.0473 19.7276C28.936 19.9291 28.9111 20.1671 28.9783 20.3873L30.6805 25.958C30.8678 26.5709 30.3355 27.1627 29.7063 27.0412L23.9869 25.9368C23.7609 25.8932 23.5268 25.9431 23.3382 26.0751L18.5661 29.4154C18.0412 29.7829 17.3138 29.4595 17.2349 28.8236L16.5179 23.0429C16.4895 22.8144 16.3698 22.6072 16.1859 22.4686L11.5344 18.9623C11.0227 18.5766 11.1055 17.7849 11.6859 17.5134L16.9621 15.0451C17.1706 14.9475 17.3307 14.7696 17.4057 14.5519L19.303 9.04458ZM20.4925 19.2884C20.7371 20.4365 20.3771 21.4861 19.6883 21.6329C18.9994 21.7797 18.2427 20.9681 17.998 19.82C17.7533 18.672 18.1134 17.6223 18.8022 17.4755C19.491 17.3287 20.2478 18.1404 20.4925 19.2884ZM25.5086 20.3925C26.1975 20.2457 26.5575 19.196 26.3128 18.0479C26.0682 16.8999 25.3114 16.0882 24.6226 16.2351C23.9338 16.3819 23.5737 17.4315 23.8184 18.5796C24.0631 19.7276 24.8198 20.5393 25.5086 20.3925Z" fill="white" fill-opacity="0.6"/>
<circle cx="19.1225" cy="23.0573" r="1.27523" transform="rotate(-12.031 19.1225 23.0573)" fill="#1D8CE0"/>
<circle cx="19.1225" cy="23.0573" r="1.27523" transform="rotate(-12.031 19.1225 23.0573)" fill="white" fill-opacity="0.8"/>
<circle cx="26.6061" cy="21.4624" r="1.27523" transform="rotate(-12.031 26.6061 21.4624)" fill="#1D8CE0"/>
<circle cx="26.6061" cy="21.4624" r="1.27523" transform="rotate(-12.031 26.6061 21.4624)" fill="white" fill-opacity="0.8"/>
<path d="M28.76 7.23999L26.84 10.76M33.56 8.51999L32.28 9.47999M36.44 28.04L34.52 27.08M32.92 33.16L29.592 29.32M23.64 35.08L23.5617 34.12M14.04 33.8L15.3625 31.7859M8.92004 27.72L9.56004 27.3418M8.92004 19.08L9.88004 19.1454M10.52 9.47999L13.72 12.04M22.36 7.23999V8.19999M11.16 26.3964L14.68 24.3164M23.4049 32.2L23.1176 28.68M37.08 18.12L31.512 19.08" stroke="#1D8CE0" stroke-width="1.28" stroke-linecap="round"/>
<path d="M28.76 7.23999L26.84 10.76M33.56 8.51999L32.28 9.47999M36.44 28.04L34.52 27.08M32.92 33.16L29.592 29.32M23.64 35.08L23.5617 34.12M14.04 33.8L15.3625 31.7859M8.92004 27.72L9.56004 27.3418M8.92004 19.08L9.88004 19.1454M10.52 9.47999L13.72 12.04M22.36 7.23999V8.19999M11.16 26.3964L14.68 24.3164M23.4049 32.2L23.1176 28.68M37.08 18.12L31.512 19.08" stroke="white" stroke-opacity="0.95" stroke-width="1.28" stroke-linecap="round"/>
</g>
<defs>
<clipPath id="clip0_4539_6770">
<rect width="50" height="50" fill="white" transform="matrix(-1 0 0 1 50 0)"/>
</clipPath>
</defs>
</svg>
