<svg width="50" height="50" viewBox="0 0 50 50" fill="none" xmlns="http://www.w3.org/2000/svg">
<g clip-path="url(#clip0_4665_6959)">
<path d="M35.9281 10.4146C35.166 7.3241 37.2905 0.545553 35.9833 1.03891C35.2452 1.31752 31.0577 9.26442 32.007 13.7135C32.9562 18.1626 36.649 20.5369 38.6164 17.7155C40.525 14.9782 36.6903 13.5051 35.9281 10.4146Z" fill="#7445B8"/>
<path d="M14.0461 33.5115C3.62273 38.051 -2.63024 46.5724 1.87943 48.519C8.64336 51.4385 10.2623 41.7185 20.665 37.3035C32.3679 32.3366 38.1013 26.9346 41.6152 20.3477C45.1291 13.7607 46.016 1.1824 44.8402 0.986587C43.8445 0.820789 42.0969 10.9319 38.8736 15.7741C35.6502 20.6164 31.4589 22.5793 27.8381 23.2574C20.2364 24.6808 14.6657 7.78256 14.0598 8.21045C13.454 8.63834 13.7289 20.9074 17.9961 24.3077C22.2634 27.708 21.1168 30.4321 14.0461 33.5115Z" fill="#7445B8"/>
<path d="M14.0461 33.5115C3.62273 38.051 -2.63024 46.5724 1.87943 48.519C8.64336 51.4385 10.2623 41.7185 20.665 37.3035C32.3679 32.3366 38.1013 26.9346 41.6152 20.3477C45.1291 13.7607 46.016 1.1824 44.8402 0.986587C43.8445 0.820789 42.0969 10.9319 38.8736 15.7741C35.6502 20.6164 31.4589 22.5793 27.8381 23.2574C20.2364 24.6808 14.6657 7.78256 14.0598 8.21045C13.454 8.63834 13.7289 20.9074 17.9961 24.3077C22.2634 27.708 21.1168 30.4321 14.0461 33.5115Z" fill="white" fill-opacity="0.2"/>
<path d="M34.7703 33.4444C41.0625 32.7595 49.1841 26.9792 49.8908 27.9013C50.5976 28.8235 44.4695 37.7734 35.6324 38.9009C26.7952 40.0285 18.7905 36.9052 20.5546 33.7331C23.2589 28.8707 28.478 34.1294 34.7703 33.4444Z" fill="#7445B8"/>
<path d="M34.7703 33.4444C41.0625 32.7595 49.1841 26.9792 49.8908 27.9013C50.5976 28.8235 44.4695 37.7734 35.6324 38.9009C26.7952 40.0285 18.7905 36.9052 20.5546 33.7331C23.2589 28.8707 28.478 34.1294 34.7703 33.4444Z" fill="white" fill-opacity="0.4"/>
</g>
<defs>
<clipPath id="clip0_4665_6959">
<rect width="50" height="50" fill="white" transform="matrix(-1 0 0 1 50 0)"/>
</clipPath>
</defs>
</svg>
