<svg width="50" height="50" viewBox="0 0 50 50" fill="none" xmlns="http://www.w3.org/2000/svg">
<g clip-path="url(#clip0_4665_7013)">
<path d="M44.6378 4.79093C44.414 3.13632 45.7836 0.0155698 45.1191 0.0883493C44.7439 0.129459 42.3068 3.56086 42.5564 5.92303C42.806 8.28521 44.5006 9.97252 45.6014 8.81861C46.6693 7.69916 44.8615 6.44554 44.6378 4.79093Z" fill="#7445B8"/>
<path d="M27.2935 25.5779C27.6482 25.9327 28.2233 25.9327 28.5781 25.5779C28.9328 25.2232 28.9328 24.6481 28.5781 24.2934L25.9269 21.6422C25.5722 21.2875 24.9971 21.2875 24.6424 21.6422C24.2876 21.997 24.2876 22.5721 24.6424 22.9268L27.2935 25.5779Z" fill="#2FC4A7"/>
<path d="M27.2935 25.5779C27.6482 25.9327 28.2233 25.9327 28.5781 25.5779C28.9328 25.2232 28.9328 24.6481 28.5781 24.2934L25.9269 21.6422C25.5722 21.2875 24.9971 21.2875 24.6424 21.6422C24.2876 21.997 24.2876 22.5721 24.6424 22.9268L27.2935 25.5779Z" fill="black" fill-opacity="0.2"/>
<path d="M26.2989 25.7011L24.2988 23.701L4.41751 43.5824L3.49991 44.5L5.49991 46.5L6.41751 45.5824L26.2989 25.7011Z" fill="#2FC4A7"/>
<path d="M26.2989 25.7011L24.2988 23.701L4.41751 43.5824L3.49991 44.5L5.49991 46.5L6.41751 45.5824L26.2989 25.7011Z" fill="black" fill-opacity="0.2"/>
<ellipse cx="2.51556" cy="47.5156" rx="2.09924" ry="2.10485" transform="rotate(45 2.51556 47.5156)" fill="#2FC4A7"/>
<ellipse cx="2.51556" cy="47.5156" rx="2.09924" ry="2.10485" transform="rotate(45 2.51556 47.5156)" fill="black" fill-opacity="0.2"/>
<path d="M34.2057 14.143C29.1649 15.8315 26.2336 20.9465 28.027 22.3812C30.6015 24.4408 32.2947 17.9112 36.7802 16.2026C42.3354 14.0863 45.1773 11.9214 47.0833 8.99685C48.9893 6.07227 49.9166 0.249508 49.3769 0.110237C48.9199 -0.00768883 47.6925 4.63065 45.9932 6.75443C44.2938 8.87821 42.2612 9.62122 40.547 9.78905C36.9479 10.1414 35.0438 2.04243 34.7441 2.21698C34.4444 2.39152 34.0709 8.1177 35.9196 9.876C37.7683 11.6343 37.6251 12.9976 34.2057 14.143Z" fill="#7445B8"/>
<path d="M34.2057 14.143C29.1649 15.8315 26.2336 20.9465 28.027 22.3812C30.6015 24.4408 32.2947 17.9112 36.7802 16.2026C42.3354 14.0863 45.1773 11.9214 47.0833 8.99685C48.9893 6.07227 49.9166 0.249508 49.3769 0.110237C48.9199 -0.00768883 47.6925 4.63065 45.9932 6.75443C44.2938 8.87821 42.2612 9.62122 40.547 9.78905C36.9479 10.1414 35.0438 2.04243 34.7441 2.21698C34.4444 2.39152 34.0709 8.1177 35.9196 9.876C37.7683 11.6343 37.6251 12.9976 34.2057 14.143Z" fill="white" fill-opacity="0.2"/>
<path d="M42.9294 15.1227C45.8027 15.0627 49.7058 12.7704 49.9889 13.2156C50.272 13.6608 47.1448 17.4658 43.1027 17.6251C39.0606 17.7843 35.5638 16.0539 36.4877 14.689C37.9039 12.5969 40.056 15.1828 42.9294 15.1227Z" fill="#7445B8"/>
<path d="M42.9294 15.1227C45.8027 15.0627 49.7058 12.7704 49.9889 13.2156C50.272 13.6608 47.1448 17.4658 43.1027 17.6251C39.0606 17.7843 35.5638 16.0539 36.4877 14.689C37.9039 12.5969 40.056 15.1828 42.9294 15.1227Z" fill="white" fill-opacity="0.4"/>
</g>
<defs>
<clipPath id="clip0_4665_7013">
<rect width="50" height="50" fill="white" transform="matrix(-1 0 0 1 50 0)"/>
</clipPath>
</defs>
</svg>
