<svg width="50" height="50" viewBox="0 0 50 50" fill="none" xmlns="http://www.w3.org/2000/svg">
<ellipse cx="25" cy="25" rx="14" ry="18" fill="#2FC4A7"/>
<ellipse cx="25" cy="25" rx="14" ry="18" fill="black" fill-opacity="0.2"/>
<path d="M25 7C17.268 7 11 15.0589 11 25C11 26.5538 11.1531 28.0617 11.4411 29.5C13 34 18.1 38 22.5 38C29.5 38 34.5 31.5 34.5 22.5C34.5 15.3 32.5 11 27.5 7.28616C26.6888 7.09816 25.8533 7 25 7Z" fill="#2FC4A7"/>
<path d="M21 32C15.5 32 11.441 28 11.441 20.5C12.7919 13.752 17.1097 8.53541 22.5 7.28613C29 7.28613 30 15.4 30 19C30 23.5 28.5166 32 21 32Z" fill="#2FC4A7"/>
<path d="M21 32C15.5 32 11.441 28 11.441 20.5C12.7919 13.752 17.1097 8.53541 22.5 7.28613C29 7.28613 30 15.4 30 19C30 23.5 28.5166 32 21 32Z" fill="white" fill-opacity="0.2"/>
<path d="M21 32C15.5 32 11.441 28 11.441 20.5C12.7919 13.752 17.1097 8.53541 22.5 7.28613C29 7.28613 30 15.4 30 19C30 23.5 28.5166 32 21 32Z" fill="#2FC4A7"/>
<path d="M21 32C15.5 32 11.441 28 11.441 20.5C12.7919 13.752 17.1097 8.53541 22.5 7.28613C29 7.28613 30 15.4 30 19C30 23.5 28.5166 32 21 32Z" fill="white" fill-opacity="0.4"/>
<ellipse cx="21.244" cy="13.2414" rx="3.5" ry="2.5" transform="rotate(-44.8931 21.244 13.2414)" fill="#FEFEFE"/>
<circle cx="16.9491" cy="18.9491" r="1.5" transform="rotate(-21.7566 16.9491 18.9491)" fill="#FEFEFE"/>
</svg>
