<svg width="50" height="50" viewBox="0 0 50 50" fill="none" xmlns="http://www.w3.org/2000/svg">
<circle cx="24.8667" cy="24.9074" r="22.4167" stroke="#1D8CE0" stroke-width="0.996296"/>
<circle cx="24.8667" cy="24.9074" r="22.4167" stroke="white" stroke-opacity="0.95" stroke-width="0.996296"/>
<path d="M40.3091 31.8815C43.4973 24.3096 40.3091 15.4426 35.3276 10.9592C36.3239 15.4426 35.6265 22.1177 32.8369 28.8926C30.0473 35.6674 23.7042 40.0179 20.8813 41.3463C26.361 42.8407 37.121 39.4533 40.3091 31.8815Z" fill="#FEFEFE" fill-opacity="0.15"/>
<path d="M19.5 28C18.7548 27.6274 16.7514 25.7728 16.1304 24.9966L17.0619 24.5308C17.6828 25.1518 19.2548 26.6274 20 27C20.7452 27.3726 22.9613 27.9463 24.048 28.2568C24.3585 27.6358 25.0726 26.6733 25.4452 25.9281C25.8178 25.1829 26.2214 23.2889 26.3767 22.6679L27.3082 23.1336L27.305 23.1594C27.2251 23.7985 27.0262 25.3899 26.8424 26.125C26.6561 26.8702 26.2329 28.0343 26 28.5C27.5525 28.1895 30.7547 27.2321 31.4999 26.8596C32.245 26.487 33.3628 25.4623 33.8286 24.9966L34.2943 25.4623L31.9656 27.791C31.4999 28.2568 27.9315 29.5343 27 30C26.0685 30.4657 26.3424 35.5 26.8424 36.5C27.259 37.3331 27.5343 37.5343 28 38C28.3726 38.3726 28.8448 39.0343 29 39.5L28.5 40C28.5 40 28.2397 38.5031 27.3082 38.0374C26.3767 37.5716 25 37 25 37C25.4026 37.8891 25.2596 38.9723 25.2344 39.9003H24.048C24.1599 38.9492 23.937 37.8729 23.5 37C21.9178 37.4284 21.2122 38.5654 20.5 39.5L20 39C20.4657 38.5343 21 37.5 22 36.5C22.5 35.5 22.5 31.346 22.5 30.5C22.0343 29.5685 20.4315 28.4657 19.5 28Z" fill="#FAA21E"/>
<path d="M19.5 28C18.7548 27.6274 16.7514 25.7728 16.1304 24.9966L17.0619 24.5308C17.6828 25.1518 19.2548 26.6274 20 27C20.7452 27.3726 22.9613 27.9463 24.048 28.2568C24.3585 27.6358 25.0726 26.6733 25.4452 25.9281C25.8178 25.1829 26.2214 23.2889 26.3767 22.6679L27.3082 23.1336L27.305 23.1594C27.2251 23.7985 27.0262 25.3899 26.8424 26.125C26.6561 26.8702 26.2329 28.0343 26 28.5C27.5525 28.1895 30.7547 27.2321 31.4999 26.8596C32.245 26.487 33.3628 25.4623 33.8286 24.9966L34.2943 25.4623L31.9656 27.791C31.4999 28.2568 27.9315 29.5343 27 30C26.0685 30.4657 26.3424 35.5 26.8424 36.5C27.259 37.3331 27.5343 37.5343 28 38C28.3726 38.3726 28.8448 39.0343 29 39.5L28.5 40C28.5 40 28.2397 38.5031 27.3082 38.0374C26.3767 37.5716 25 37 25 37C25.4026 37.8891 25.2596 38.9723 25.2344 39.9003H24.048C24.1599 38.9492 23.937 37.8729 23.5 37C21.9178 37.4284 21.2122 38.5654 20.5 39.5L20 39C20.4657 38.5343 21 37.5 22 36.5C22.5 35.5 22.5 31.346 22.5 30.5C22.0343 29.5685 20.4315 28.4657 19.5 28Z" fill="black" fill-opacity="0.4"/>
<path d="M13.9999 28.5C11.9999 31.5 15 34.5 13.5 36.5M15.4999 27.5C15.8332 29 16.9999 32 18.9999 32C20.9999 32 21.4999 26 21.4999 23M15.4999 26.5C16.1666 27.6667 19.7999 29.5 22.9999 29.5C26.1999 29.5 29.1666 27 29.9999 25.5M27.4999 24.5C27.8332 27.3333 29.0999 33 31.4999 33C33.8999 33 35.1666 29.3333 35.4999 27.5M25.9999 24C25.8332 25.6667 25.0999 28.9 25.4999 30.5C25.8999 32.1 24.4999 35 25.4999 37.5M33.4999 27.5C33.4999 28.6667 33.8999 31 35.4999 31C37.0999 31 37.8332 28.6667 37.9999 27.5C37.8332 28.5 37.5999 30.7 37.9999 31.5C38.3999 32.3 38.1666 33.8333 37.9999 34.5" stroke="#2FC4A7" stroke-linecap="round"/>
<path d="M13.9999 28.5C11.9999 31.5 15 34.5 13.5 36.5M15.4999 27.5C15.8332 29 16.9999 32 18.9999 32C20.9999 32 21.4999 26 21.4999 23M15.4999 26.5C16.1666 27.6667 19.7999 29.5 22.9999 29.5C26.1999 29.5 29.1666 27 29.9999 25.5M27.4999 24.5C27.8332 27.3333 29.0999 33 31.4999 33C33.8999 33 35.1666 29.3333 35.4999 27.5M25.9999 24C25.8332 25.6667 25.0999 28.9 25.4999 30.5C25.8999 32.1 24.4999 35 25.4999 37.5M33.4999 27.5C33.4999 28.6667 33.8999 31 35.4999 31C37.0999 31 37.8332 28.6667 37.9999 27.5C37.8332 28.5 37.5999 30.7 37.9999 31.5C38.3999 32.3 38.1666 33.8333 37.9999 34.5" stroke="black" stroke-opacity="0.2" stroke-linecap="round"/>
<path d="M10.0213 21.8361C8.25241 22.2661 9.13678 24.8462 10.0213 24.8462C9.13677 25.2762 9.31369 26.2223 10.0213 26.5663C10.9057 26.9963 11.0531 26.5663 11.3479 26.1363C11.3479 26.9963 11.967 28.7164 14.4435 28.7164C16.9199 28.7164 17.539 26.9963 17.539 26.1363C18.5709 26.1363 20.6346 25.7923 20.6346 24.4162C20.6346 23.0402 22.1087 23.2695 22.8457 23.5562C22.8457 24.1295 23.2879 25.3623 25.0568 25.7063C26.8257 26.0503 28.1524 25.2763 28.5946 24.8462C28.5946 25.2763 28.9484 26.1363 30.3635 26.1363C32.1324 26.1363 31.6902 26.5663 33.0168 27.8563C34.0782 28.8884 35.5227 28.573 36.1124 28.2864C36.2598 28.143 36.7315 28.0284 37.439 28.7164C38.3235 29.5764 40.5346 28.2864 40.0924 27.4263C39.6502 26.5663 40.5346 26.1363 41.419 25.7063C42.3035 25.2762 42.3035 22.2661 40.5346 21.4061C38.7657 20.5461 38.7657 21.4061 37.8813 20.5461C37.1737 19.858 37.2916 19.1127 37.439 18.826C37.7339 17.8226 37.8813 15.4719 36.1124 14.0958C34.7858 13.0638 33.0169 12.3758 31.6902 12.8058C30.3635 13.2358 29.9213 13.6658 29.0369 13.6658C28.3293 13.6658 27.7102 13.2358 27.7102 12.8058C27.7102 12.3758 27.5333 11.4297 26.8257 11.0857C26.1182 10.7417 25.3516 11.5157 25.0568 11.9458C24.4672 11.6591 21.675 11.0099 19.7502 11.9458C17.0969 13.2358 17.5391 15.8159 17.539 16.2459C16.6546 15.8159 14.4435 15.8159 12.6746 17.1059C10.552 18.654 11.3083 21.5232 10.0213 21.8361Z" fill="#2FC4A7"/>
<path d="M10.0213 21.8361C8.25241 22.2661 9.13678 24.8462 10.0213 24.8462C9.13677 25.2762 9.31369 26.2223 10.0213 26.5663C10.9057 26.9963 11.0531 26.5663 11.3479 26.1363C11.3479 26.9963 11.967 28.7164 14.4435 28.7164C16.9199 28.7164 17.539 26.9963 17.539 26.1363C18.5709 26.1363 20.6346 25.7923 20.6346 24.4162C20.6346 23.0402 22.1087 23.2695 22.8457 23.5562C22.8457 24.1295 23.2879 25.3623 25.0568 25.7063C26.8257 26.0503 28.1524 25.2763 28.5946 24.8462C28.5946 25.2763 28.9484 26.1363 30.3635 26.1363C32.1324 26.1363 31.6902 26.5663 33.0168 27.8563C34.0782 28.8884 35.5227 28.573 36.1124 28.2864C36.2598 28.143 36.7315 28.0284 37.439 28.7164C38.3235 29.5764 40.5346 28.2864 40.0924 27.4263C39.6502 26.5663 40.5346 26.1363 41.419 25.7063C42.3035 25.2762 42.3035 22.2661 40.5346 21.4061C38.7657 20.5461 38.7657 21.4061 37.8813 20.5461C37.1737 19.858 37.2916 19.1127 37.439 18.826C37.7339 17.8226 37.8813 15.4719 36.1124 14.0958C34.7858 13.0638 33.0169 12.3758 31.6902 12.8058C30.3635 13.2358 29.9213 13.6658 29.0369 13.6658C28.3293 13.6658 27.7102 13.2358 27.7102 12.8058C27.7102 12.3758 27.5333 11.4297 26.8257 11.0857C26.1182 10.7417 25.3516 11.5157 25.0568 11.9458C24.4672 11.6591 21.675 11.0099 19.7502 11.9458C17.0969 13.2358 17.5391 15.8159 17.539 16.2459C16.6546 15.8159 14.4435 15.8159 12.6746 17.1059C10.552 18.654 11.3083 21.5232 10.0213 21.8361Z" fill="white" fill-opacity="0.2"/>
<path d="M10.8975 19.0301C9.34303 19.3884 10.1202 21.5385 10.8975 21.5385C10.1202 21.8969 10.2757 22.6852 10.8975 22.9719C11.6747 23.3303 11.8042 22.9719 12.0633 22.6136C12.0633 23.3303 12.6074 24.7636 14.7837 24.7636C16.9599 24.7636 17.504 23.3303 17.504 22.6136C18.4108 22.6136 20.2243 22.3269 20.2243 21.1802C20.2243 20.0335 21.5197 20.2246 22.1674 20.4635C22.1674 20.9413 22.5561 21.9685 24.1105 22.2552C25.665 22.5419 26.8309 21.8969 27.2195 21.5385C27.2195 21.8969 27.5304 22.6136 28.774 22.6136C30.3285 22.6136 29.9398 22.9719 31.1057 24.047C32.0384 24.907 33.3079 24.6442 33.826 24.4053C33.9556 24.2859 34.3701 24.1903 34.9919 24.7636C35.7691 25.4803 37.7122 24.4053 37.3236 23.6886C36.935 22.9719 37.7122 22.6136 38.4895 22.2552C39.2667 21.8969 39.2667 19.3884 37.7122 18.6718C36.1577 17.9551 36.1577 18.6718 35.3805 17.9551C34.7587 17.3817 34.8624 16.7606 34.9919 16.5217C35.251 15.6855 35.3805 13.7266 33.826 12.5799C32.6602 11.7199 31.1057 11.1465 29.9399 11.5048C28.774 11.8632 28.3854 12.2215 27.6082 12.2215C26.9864 12.2215 26.4423 11.8632 26.4423 11.5048C26.4423 11.1465 26.2868 10.3581 25.665 10.0714C25.0432 9.78476 24.3696 10.4298 24.1105 10.7881C23.5924 10.5492 21.1386 10.0083 19.4471 10.7881C17.1155 11.8632 17.504 14.0132 17.504 14.3716C16.7268 14.0132 14.7837 14.0132 13.2292 15.0883C11.3639 16.3783 12.0285 18.7694 10.8975 19.0301Z" fill="#2FC4A7"/>
<path d="M10.8975 19.0301C9.34303 19.3884 10.1202 21.5385 10.8975 21.5385C10.1202 21.8969 10.2757 22.6852 10.8975 22.9719C11.6747 23.3303 11.8042 22.9719 12.0633 22.6136C12.0633 23.3303 12.6074 24.7636 14.7837 24.7636C16.9599 24.7636 17.504 23.3303 17.504 22.6136C18.4108 22.6136 20.2243 22.3269 20.2243 21.1802C20.2243 20.0335 21.5197 20.2246 22.1674 20.4635C22.1674 20.9413 22.5561 21.9685 24.1105 22.2552C25.665 22.5419 26.8309 21.8969 27.2195 21.5385C27.2195 21.8969 27.5304 22.6136 28.774 22.6136C30.3285 22.6136 29.9398 22.9719 31.1057 24.047C32.0384 24.907 33.3079 24.6442 33.826 24.4053C33.9556 24.2859 34.3701 24.1903 34.9919 24.7636C35.7691 25.4803 37.7122 24.4053 37.3236 23.6886C36.935 22.9719 37.7122 22.6136 38.4895 22.2552C39.2667 21.8969 39.2667 19.3884 37.7122 18.6718C36.1577 17.9551 36.1577 18.6718 35.3805 17.9551C34.7587 17.3817 34.8624 16.7606 34.9919 16.5217C35.251 15.6855 35.3805 13.7266 33.826 12.5799C32.6602 11.7199 31.1057 11.1465 29.9399 11.5048C28.774 11.8632 28.3854 12.2215 27.6082 12.2215C26.9864 12.2215 26.4423 11.8632 26.4423 11.5048C26.4423 11.1465 26.2868 10.3581 25.665 10.0714C25.0432 9.78476 24.3696 10.4298 24.1105 10.7881C23.5924 10.5492 21.1386 10.0083 19.4471 10.7881C17.1155 11.8632 17.504 14.0132 17.504 14.3716C16.7268 14.0132 14.7837 14.0132 13.2292 15.0883C11.3639 16.3783 12.0285 18.7694 10.8975 19.0301Z" fill="white" fill-opacity="0.6"/>
<path d="M14.4055 8.96672C11.5649 11.4682 10.4203 14.9445 10.4203 17.9334C10.906 15.874 14.0019 11.6997 16.8963 9.96301C19.3595 8.48505 21.3796 6.97413 24.8666 6.47598C21.3796 5.97783 17.2461 6.46529 14.4055 8.96672Z" fill="#FEFEFE"/>
<path d="M33.8333 39.8519C37.3203 37.8593 40.8073 32.8778 40.8073 29.889C40.0672 32.8778 36.1222 36.704 33.3351 38.3575C30.2833 40.168 24.3684 41.8445 20.8814 41.8445C24.3684 42.8408 29.8481 42.1292 33.8333 39.8519Z" fill="#FEFEFE"/>
</svg>
