<svg width="50" height="50" viewBox="0 0 50 50" fill="none" xmlns="http://www.w3.org/2000/svg">
<g clip-path="url(#clip0_4801_7581)">
<path d="M14.5959 6.56555C10.1515 8.18169 6.34679 7.91234 5 7.57564C5 9.93252 5 17.1715 6.01009 24.7472C7.28007 34.272 12.8142 41.1472 15.1009 43.4339C17.1211 45.454 21.3298 48.4843 23.1816 49.4944C24.5284 48.6527 28.6284 46.0679 31.2624 43.4339C34.2926 40.4036 38.838 33.333 40.3532 24.2421C41.4539 17.6376 41.3633 12.6261 40.8582 8.08069C39.3431 8.58573 35.2017 9.09078 30.7573 7.0706C26.3129 5.05041 23.5183 1.85179 22.6766 0.505005C21.8348 1.85179 19.0403 4.9494 14.5959 6.56555Z" fill="#898989"/>
<path d="M14.5959 6.56555C10.1515 8.18169 6.34679 7.91234 5 7.57564C5 9.93252 5 17.1715 6.01009 24.7472C7.28007 34.272 12.8142 41.1472 15.1009 43.4339C17.1211 45.454 21.3298 48.4843 23.1816 49.4944C24.5284 48.6527 28.6284 46.0679 31.2624 43.4339C34.2926 40.4036 38.838 33.333 40.3532 24.2421C41.4539 17.6376 41.3633 12.6261 40.8582 8.08069C39.3431 8.58573 35.2017 9.09078 30.7573 7.0706C26.3129 5.05041 23.5183 1.85179 22.6766 0.505005C21.8348 1.85179 19.0403 4.9494 14.5959 6.56555Z" fill="white" fill-opacity="0.6"/>
<path d="M26.2121 0.505045L22.6768 0C24.0235 1.85183 27.7272 5.95954 31.7676 7.57568C35.8079 9.19183 39.8483 8.04706 41.3634 7.37366C39.68 7.20531 35.5049 6.76761 32.2726 5.5555C29.0403 4.34339 26.8855 1.68348 26.2121 0.505045Z" fill="#898989"/>
<path d="M44.8986 7.37366L41.2623 7.37413C41.2623 10.7411 41.1613 18.9902 40.3532 24.2427C39.3431 30.8082 36.8179 36.8688 32.2725 42.4243C28.6361 46.8687 25.2018 48.4848 23.1816 50H27.727C28.7371 49.3266 30.9984 48.2432 33.7876 45.454C37.3229 41.9187 42.3734 34.3436 43.8885 25.2527C45.1006 17.9801 44.8986 10.6059 44.8986 7.37366Z" fill="#898989"/>
<path d="M44.8986 7.37366L41.2623 7.37413C41.2623 10.7411 41.1613 18.9902 40.3532 24.2427C39.3431 30.8082 36.8179 36.8688 32.2725 42.4243C28.6361 46.8687 25.2018 48.4848 23.1816 50H27.727C28.7371 49.3266 30.9984 48.2432 33.7876 45.454C37.3229 41.9187 42.3734 34.3436 43.8885 25.2527C45.1006 17.9801 44.8986 10.6059 44.8986 7.37366Z" fill="black" fill-opacity="0.2"/>
<path d="M23.1817 1.51514L14.5959 6.56559C14.7643 8.24908 15.202 12.2221 15.606 14.6463C16.1111 17.6766 17.6262 24.7472 20.6565 31.3128C23.0807 36.5653 27.7271 42.2555 29.7473 44.444C31.5991 42.4238 35.5048 37.8784 36.3129 35.8582C37.323 33.333 38.3331 30.8078 39.8482 24.7472C41.0603 19.8988 41.0267 11.9527 40.8583 8.58577C39.0065 8.58577 34.2927 8.28275 30.2524 7.07064C26.212 5.85853 23.8551 2.86192 23.1817 1.51514Z" fill="#FEFEFE" fill-opacity="0.15"/>
<path d="M23.1817 1.51514L14.5959 6.56559C14.7643 8.24908 15.202 12.2221 15.606 14.6463C16.1111 17.6766 17.6262 24.7472 20.6565 31.3128C23.0807 36.5653 27.7271 42.2555 29.7473 44.444C31.5991 42.4238 35.5048 37.8784 36.3129 35.8582C37.323 33.333 38.3331 30.8078 39.8482 24.7472C41.0603 19.8988 41.0267 11.9527 40.8583 8.58577C39.0065 8.58577 34.2927 8.28275 30.2524 7.07064C26.212 5.85853 23.8551 2.86192 23.1817 1.51514Z" fill="#FEFEFE" fill-opacity="0.15"/>
<path d="M10.0505 32.3229C9.04044 29.7977 6.9658 19.1918 8.5354 12.1211C9.06922 9.71639 11.0606 10.1009 16.1111 7.57572C20.6565 5.30302 22.4974 1.45828 22.6767 1.01013C22.6767 1.01013 18.6363 5.55554 14.5959 6.56563C10.5556 7.57572 5.50513 8.08077 5.50513 8.08077C5.50513 11.111 5.70715 18.8887 6.51522 25.7574C7.32329 32.626 13.4175 41.0771 15.606 43.4339C12.0707 37.8784 10.7216 34.0006 10.0505 32.3229Z" fill="#FEFEFE"/>
<path d="M23.6868 48.4844C28.2322 44.949 30.2524 42.9289 32.7776 39.3935C35.3028 35.8582 38.8381 29.2926 39.8482 24.2422C39.3432 28.2826 38.7371 30.6058 38.3331 31.8179C37.828 33.333 37.323 35.3532 34.7978 39.3935C32.7776 42.6258 26.212 47.4743 23.6868 48.4844Z" fill="#FEFEFE"/>
<path d="M14.5959 6.56555C10.1515 8.18169 6.34679 7.91234 5 7.57564C5 9.93252 5 17.1715 6.01009 24.7472C7.28007 34.272 12.8142 41.1472 15.1009 43.4339C17.1211 45.454 21.3298 48.4843 23.1816 49.4944C24.5284 48.6527 28.7371 46.4641 31.7674 42.9288C35.0355 39.116 38.838 33.333 40.3532 24.2421C41.4539 17.6376 41.3633 12.6261 40.8582 8.08069C39.3431 8.58573 35.2017 9.09078 30.7573 7.0706C26.3129 5.05041 23.5183 1.85179 22.6766 0.505005C21.8348 1.85179 19.0403 4.9494 14.5959 6.56555Z" stroke="#898989" stroke-width="1.01009"/>
<path d="M14.5959 6.56555C10.1515 8.18169 6.34679 7.91234 5 7.57564C5 9.93252 5 17.1715 6.01009 24.7472C7.28007 34.272 12.8142 41.1472 15.1009 43.4339C17.1211 45.454 21.3298 48.4843 23.1816 49.4944C24.5284 48.6527 28.7371 46.4641 31.7674 42.9288C35.0355 39.116 38.838 33.333 40.3532 24.2421C41.4539 17.6376 41.3633 12.6261 40.8582 8.08069C39.3431 8.58573 35.2017 9.09078 30.7573 7.0706C26.3129 5.05041 23.5183 1.85179 22.6766 0.505005C21.8348 1.85179 19.0403 4.9494 14.5959 6.56555Z" stroke="white" stroke-opacity="0.4" stroke-width="1.01009"/>
<path d="M18.0262 22.7234C17.2805 22.8006 16.8059 21.18 17.0771 20.717C17.2805 20.4083 18.772 19.3279 18.9753 18.5562C19.1381 17.9389 20.1731 17.0128 20.6702 16.627L19.8567 15.9325C20.1279 15.7009 20.7516 15.2071 21.077 15.0836C21.4024 14.9601 22.0261 14.6977 22.0261 14.6977L21.5 13C21.6808 13.1029 22.6363 13.3704 22.9074 13.6174C23.1786 13.8643 23.3368 14.2862 23.382 14.4662C23.9244 14.492 25.2667 14.744 26.2972 15.5466C27.5853 16.5498 28.5344 17.8617 28.9412 20.254C29.3479 22.6462 27.5 24.981 27.5 26.5C27.5 27.5 28 28 28.6451 28.6691L27.5 29C27.7039 29.6015 28 30.5 28 31L27.5 33C27.5 33 28.5 33.371 28.5 34V35.5C27.6865 35.9116 24.8993 36 23 36C20.5 36 18.3813 35.7315 17.5 35.5V34C17.5 33.4444 18.274 33.0514 18.5 33L18.0262 30.8263C18.0036 30.4147 18.2703 29.3582 18.9753 28C19.8567 26.3023 22.704 22.8778 23.1786 21.643C23.5583 20.6553 23.4724 20.2025 23.382 20.0996C23.3594 20.434 23.1922 21.1491 22.704 21.3344C22.2159 21.5196 20.9188 21.4115 20.3312 21.3344L19.5177 21.7974C19.2691 22.0803 18.6228 22.6617 18.0262 22.7234Z" fill="#898989"/>
<path d="M19.8552 22.7234C19.2337 22.8006 18.8383 21.18 19.0642 20.717C19.2337 20.4083 20.4767 19.3279 20.6462 18.5562C20.7818 17.9389 21.6443 17.0128 22.0586 16.627L21.3806 15.9325C21.6066 15.7009 22.1264 15.2071 22.3976 15.0836C22.6688 14.9601 23.1885 14.6977 23.1885 14.6977L22.7501 13C22.9008 13.1029 23.697 13.3704 23.923 13.6174C24.149 13.8643 24.2808 14.2862 24.3185 14.4662C24.7705 14.492 25.8891 14.744 26.7479 15.5466C27.8213 16.5498 28.6123 17.8617 28.9513 20.254C29.2902 22.6462 27.7503 24.981 27.7503 26.5C27.7503 27.5 28.1669 28 28.7045 28.6691L27.7503 29C27.9202 29.6015 28.1669 30.5 28.1669 31L27.7503 33C27.7503 33 28.5836 33.371 28.5836 34V35.5C27.9056 35.9116 25.5829 36 24.0001 36C21.9168 36 20.1511 35.7315 19.4167 35.5V34C19.4167 33.4444 20.0617 33.0514 20.25 33L19.8552 30.8263C19.8364 30.4147 20.0586 29.3582 20.6462 28C21.3806 26.3023 23.7535 22.8778 24.149 21.643C24.4654 20.6553 24.3938 20.2025 24.3185 20.0996C24.2997 20.434 24.1603 21.1491 23.7535 21.3344C23.3467 21.5196 22.2658 21.4115 21.7761 21.3344L21.0981 21.7974C20.891 22.0803 20.3524 22.6617 19.8552 22.7234Z" fill="#898989"/>
<path d="M19.8552 22.7234C19.2337 22.8006 18.8383 21.18 19.0642 20.717C19.2337 20.4083 20.4767 19.3279 20.6462 18.5562C20.7818 17.9389 21.6443 17.0128 22.0586 16.627L21.3806 15.9325C21.6066 15.7009 22.1264 15.2071 22.3976 15.0836C22.6688 14.9601 23.1885 14.6977 23.1885 14.6977L22.7501 13C22.9008 13.1029 23.697 13.3704 23.923 13.6174C24.149 13.8643 24.2808 14.2862 24.3185 14.4662C24.7705 14.492 25.8891 14.744 26.7479 15.5466C27.8213 16.5498 28.6123 17.8617 28.9513 20.254C29.2902 22.6462 27.7503 24.981 27.7503 26.5C27.7503 27.5 28.1669 28 28.7045 28.6691L27.7503 29C27.9202 29.6015 28.1669 30.5 28.1669 31L27.7503 33C27.7503 33 28.5836 33.371 28.5836 34V35.5C27.9056 35.9116 25.5829 36 24.0001 36C21.9168 36 20.1511 35.7315 19.4167 35.5V34C19.4167 33.4444 20.0617 33.0514 20.25 33L19.8552 30.8263C19.8364 30.4147 20.0586 29.3582 20.6462 28C21.3806 26.3023 23.7535 22.8778 24.149 21.643C24.4654 20.6553 24.3938 20.2025 24.3185 20.0996C24.2997 20.434 24.1603 21.1491 23.7535 21.3344C23.3467 21.5196 22.2658 21.4115 21.7761 21.3344L21.0981 21.7974C20.891 22.0803 20.3524 22.6617 19.8552 22.7234Z" fill="white" fill-opacity="0.4"/>
</g>
<defs>
<clipPath id="clip0_4801_7581">
<rect width="50" height="50" fill="white" transform="matrix(-1 0 0 1 50 0)"/>
</clipPath>
</defs>
</svg>
