<?xml version="1.0" encoding="utf-8"?><svg fill="none" viewBox="0 0 50 50" xmlns="http://www.w3.org/2000/svg" width="50" height="50"><g clip-path="url(#asqa)"><path d="M14.596 6.566C10.152 8.182 6.346 7.912 5 7.576c0 2.357 0 9.596 1.01 17.171 1.27 9.525 6.804 16.4 9.09 18.687 2.021 2.02 6.23 5.05 8.082 6.06 1.346-.841 5.446-3.426 8.08-6.06 3.03-3.03 7.576-10.101 9.091-19.192 1.1-6.604 1.01-11.616.505-16.161-1.515.505-5.656 1.01-10.1-1.01-4.445-2.02-7.24-5.22-8.081-6.566-.842 1.347-3.637 4.444-8.081 6.06Z" fill="#898989"/><path d="M14.596 6.566C10.152 8.182 6.346 7.912 5 7.576c0 2.357 0 9.596 1.01 17.171 1.27 9.525 6.804 16.4 9.09 18.687 2.021 2.02 6.23 5.05 8.082 6.06 1.346-.841 5.446-3.426 8.08-6.06 3.03-3.03 7.576-10.101 9.091-19.192 1.1-6.604 1.01-11.616.505-16.161-1.515.505-5.656 1.01-10.1-1.01-4.445-2.02-7.24-5.22-8.081-6.566-.842 1.347-3.637 4.444-8.081 6.06Z" fill="#fff" fill-opacity=".6"/><path d="M26.212.505 22.677 0c1.346 1.852 5.05 5.96 9.09 7.576 4.04 1.616 8.081.471 9.596-.202-1.683-.169-5.858-.606-9.09-1.818-3.233-1.213-5.388-3.873-6.06-5.051Z" fill="#898989"/><path d="M44.899 7.374h-3.637c0 3.367-.1 11.616-.909 16.869-1.01 6.565-3.535 12.626-8.08 18.181-3.637 4.445-7.071 6.06-9.091 7.576h4.545c1.01-.673 3.271-1.757 6.06-4.546 3.536-3.535 8.586-11.11 10.102-20.201 1.212-7.273 1.01-14.647 1.01-17.88Z" fill="#898989"/><path d="M44.899 7.374h-3.637c0 3.367-.1 11.616-.909 16.869-1.01 6.565-3.535 12.626-8.08 18.181-3.637 4.445-7.071 6.06-9.091 7.576h4.545c1.01-.673 3.271-1.757 6.06-4.546 3.536-3.535 8.586-11.11 10.102-20.201 1.212-7.273 1.01-14.647 1.01-17.88Z" fill="#000" fill-opacity=".2"/><path d="m23.182 1.515-8.586 5.05c.168 1.684.606 5.657 1.01 8.081.505 3.03 2.02 10.101 5.05 16.667 2.425 5.252 7.071 10.942 9.091 13.131 1.852-2.02 5.758-6.566 6.566-8.586 1.01-2.525 2.02-5.05 3.535-11.11 1.212-4.85 1.179-12.795 1.01-16.162-1.851 0-6.565-.303-10.606-1.515-4.04-1.212-6.397-4.21-7.07-5.556Z" fill="#FEFEFE" fill-opacity=".15"/><path d="m23.182 1.515-8.586 5.05c.168 1.684.606 5.657 1.01 8.081.505 3.03 2.02 10.101 5.05 16.667 2.425 5.252 7.071 10.942 9.091 13.131 1.852-2.02 5.758-6.566 6.566-8.586 1.01-2.525 2.02-5.05 3.535-11.11 1.212-4.85 1.179-12.795 1.01-16.162-1.851 0-6.565-.303-10.606-1.515-4.04-1.212-6.397-4.21-7.07-5.556Z" fill="#FEFEFE" fill-opacity=".15"/><path d="M10.05 32.323C9.04 29.798 6.966 19.192 8.535 12.12c.534-2.405 2.526-2.02 7.576-4.545 4.546-2.273 6.386-6.118 6.566-6.566 0 0-4.04 4.546-8.081 5.556-4.04 1.01-9.09 1.515-9.09 1.515 0 3.03.201 10.808 1.01 17.676.807 6.869 6.902 15.32 9.09 17.677-3.535-5.556-4.884-9.433-5.556-11.111ZM23.687 48.484c4.545-3.535 6.565-5.555 9.09-9.09 2.526-3.536 6.061-10.101 7.071-15.152-.505 4.04-1.11 6.364-1.515 7.576-.505 1.515-1.01 3.535-3.535 7.576-2.02 3.232-8.586 8.08-11.111 9.09Z" fill="#FEFEFE"/><path d="M14.596 6.566C10.152 8.182 6.346 7.912 5 7.576c0 2.357 0 9.596 1.01 17.171 1.27 9.525 6.804 16.4 9.09 18.687 2.021 2.02 6.23 5.05 8.082 6.06 1.346-.841 5.555-3.03 8.585-6.565 3.268-3.813 7.071-9.596 8.586-18.687 1.1-6.604 1.01-11.616.505-16.161-1.515.505-5.656 1.01-10.1-1.01-4.445-2.02-7.24-5.22-8.081-6.566-.842 1.347-3.637 4.444-8.081 6.06Z" stroke="#898989" stroke-width="1.01"/><path d="M14.596 6.566C10.152 8.182 6.346 7.912 5 7.576c0 2.357 0 9.596 1.01 17.171 1.27 9.525 6.804 16.4 9.09 18.687 2.021 2.02 6.23 5.05 8.082 6.06 1.346-.841 5.555-3.03 8.585-6.565 3.268-3.813 7.071-9.596 8.586-18.687 1.1-6.604 1.01-11.616.505-16.161-1.515.505-5.656 1.01-10.1-1.01-4.445-2.02-7.24-5.22-8.081-6.566-.842 1.347-3.637 4.444-8.081 6.06Z" stroke="#fff" stroke-opacity=".4" stroke-width="1.01"/><path d="M18.026 22.723c-.745.078-1.22-1.543-.949-2.006.203-.309 1.695-1.39 1.898-2.16.163-.618 1.198-1.544 1.695-1.93l-.813-.694c.27-.232.895-.726 1.22-.85.325-.123.95-.385.95-.385L21.5 13c.18.103 1.136.37 1.407.617.272.247.43.67.475.85.542.025 1.885.277 2.915 1.08 1.288 1.003 2.237 2.315 2.644 4.707.407 2.392-1.441 4.727-1.441 6.246 0 1 .5 1.5 1.145 2.17L27.5 29c.204.602.5 1.5.5 2l-.5 2s1 .371 1 1v1.5c-.814.412-3.6.5-5.5.5-2.5 0-4.619-.269-5.5-.5V34c0-.556.774-.949 1-1l-.474-2.174c-.022-.411.244-1.468.95-2.826.88-1.698 3.728-5.122 4.203-6.357.38-.988.293-1.44.203-1.543-.023.334-.19 1.05-.678 1.234-.488.186-1.785.078-2.373 0l-.813.463c-.249.283-.895.865-1.492.926Z" fill="#898989"/><path d="M19.855 22.723c-.621.078-1.017-1.543-.79-2.006.169-.309 1.412-1.39 1.581-2.16.136-.618.998-1.544 1.413-1.93l-.678-.694c.226-.232.745-.726 1.017-.85.27-.123.79-.385.79-.385L22.75 13c.15.103.947.37 1.173.617.226.247.358.67.396.85.451.025 1.57.277 2.429 1.08 1.073 1.003 1.864 2.315 2.203 4.707.34 2.392-1.2 4.727-1.2 6.246 0 1 .416 1.5.953 2.17l-.954.33c.17.602.417 1.5.417 2l-.417 2s.834.371.834 1v1.5c-.678.412-3.001.5-4.584.5-2.083 0-3.849-.269-4.583-.5V34c0-.556.645-.949.833-1l-.395-2.174c-.019-.411.204-1.468.791-2.826.735-1.698 3.107-5.122 3.503-6.357.316-.988.245-1.44.17-1.543-.02.334-.159 1.05-.566 1.234-.406.186-1.487.078-1.977 0l-.678.463c-.207.283-.746.865-1.243.926Z" fill="#898989"/><path d="M19.855 22.723c-.621.078-1.017-1.543-.79-2.006.169-.309 1.412-1.39 1.581-2.16.136-.618.998-1.544 1.413-1.93l-.678-.694c.226-.232.745-.726 1.017-.85.27-.123.79-.385.79-.385L22.75 13c.15.103.947.37 1.173.617.226.247.358.67.396.85.451.025 1.57.277 2.429 1.08 1.073 1.003 1.864 2.315 2.203 4.707.34 2.392-1.2 4.727-1.2 6.246 0 1 .416 1.5.953 2.17l-.954.33c.17.602.417 1.5.417 2l-.417 2s.834.371.834 1v1.5c-.678.412-3.001.5-4.584.5-2.083 0-3.849-.269-4.583-.5V34c0-.556.645-.949.833-1l-.395-2.174c-.019-.411.204-1.468.791-2.826.735-1.698 3.107-5.122 3.503-6.357.316-.988.245-1.44.17-1.543-.02.334-.159 1.05-.566 1.234-.406.186-1.487.078-1.977 0l-.678.463c-.207.283-.746.865-1.243.926Z" fill="#fff" fill-opacity=".4"/><g clip-path="url(#asqb)" fill="#152242"><path d="M39.029 28.446a1 1 0 0 1 1.742 0l3.507 6.22a1 1 0 0 0 .673.49l7 1.412a1 1 0 0 1 .538 1.657l-4.833 5.258a1 1 0 0 0-.257.791l.82 7.094a1 1 0 0 1-1.41 1.024l-6.493-2.972a1 1 0 0 0-.832 0l-6.494 2.972a1 1 0 0 1-1.41-1.024l.82-7.094a1 1 0 0 0-.257-.791l-4.833-5.258a1 1 0 0 1 .539-1.657l7-1.412a1 1 0 0 0 .673-.49l3.507-6.22Z"/><path d="m41.935 37.532.339.602.675.135 4.062.82-2.804 3.05-.467.508.08.686.474 4.115-3.766-1.724-.627-.287-.627.288-3.769 1.723.476-4.115.079-.686-.467-.508-2.805-3.05 4.063-.82.676-.135.338-.602 2.035-3.611 2.035 3.611Z" stroke="#FAA21E" stroke-width="3.013"/></g></g><defs><clipPath id="asqa"><path fill="#fff" transform="matrix(-1 0 0 1 50 0)" d="M0 0h50v50H0z"/></clipPath><clipPath id="asqb"><path fill="#fff" transform="matrix(1 0 0 -1 0 50)" d="M0 0h50v50H0z"/></clipPath></defs></svg>