<svg width="50" height="50" viewBox="0 0 50 50" fill="none" xmlns="http://www.w3.org/2000/svg">
<g clip-path="url(#clip0_4794_7403)">
<path d="M44.8412 13.3353L15.5647 29.6412L17.7882 41.5L50.0294 22.2294L44.8412 13.3353Z" fill="#898989"/>
<path d="M0 33.347L4.44706 24.8235L15.5647 29.6411L17.7882 41.5L0 33.347Z" fill="#898989"/>
<path d="M0 33.347L4.44706 24.8235L15.5647 29.6411L17.7882 41.5L0 33.347Z" fill="black" fill-opacity="0.2"/>
<path d="M35.5764 10L4.44702 24.8235L15.5647 29.6412L44.8411 13.3353L35.5764 10Z" fill="#898989"/>
<path d="M35.5764 10L4.44702 24.8235L15.5647 29.6412L44.8411 13.3353L35.5764 10Z" fill="white" fill-opacity="0.4"/>
<path d="M35.1684 11.4823L8.89404 24.0823L16.7954 27.047L41.1352 13.7058L35.1684 11.4823Z" fill="#898989"/>
<path d="M35.1684 11.4823L8.89404 24.0823L16.7954 27.047L41.1352 13.7058L35.1684 11.4823Z" fill="white" fill-opacity="0.2"/>
<path d="M10.5 24.7L16.7955 27.0471L40.3942 14.1122L35.5 12.5L10.5 24.7Z" fill="#898989"/>
<path d="M10.5 24.7L16.7955 27.0471L40.3942 14.1122L35.5 12.5L10.5 24.7Z" fill="white" fill-opacity="0.6"/>
<path d="M35.2058 12.6471V11.4823L41.1352 13.7058L39.8 14.4L35.2058 12.6471Z" fill="#898989"/>
</g>
<defs>
<clipPath id="clip0_4794_7403">
<rect width="50" height="50" fill="white" transform="matrix(-1 0 0 1 50 0)"/>
</clipPath>
</defs>
</svg>
