<?xml version="1.0" encoding="utf-8"?><svg fill="none" viewBox="0 0 50 50" width="50" height="50" xmlns="http://www.w3.org/2000/svg"><path d="m25 6-7.5-3L11 5.5l2 6.5 12 3 12-3 2-6-6.5-3L25 6Z" fill="#546DDB"/><path d="m25 6-7.5-3L11 5.5l2 6.5 12 3 12-3 2-6-6.5-3L25 6Z" fill="#000" fill-opacity=".2"/><path d="M25 27.524v-12.52L36.905 12 35.88 27.17 41 47.79c-3.844 1.157-7.467 1.575-14.625 2.21-.183-9.095-.44-14.05-1.375-22.476ZM25 27.524v-12.52L13.095 12l1.024 15.17L9 47.79c4.515 1.684 8.331 1.746 14.625 2.21.245-10.518.634-14.914 1.375-22.476Z" fill="#546DDB"/><path fill-rule="evenodd" clip-rule="evenodd" d="m24.398 14.853-1.703 1.699.4 2.426 1.784 2.475 5.067 4.32.023.02.02.023 3.217 3.867 3.393.97-.198.695-3.5-1-.108-.031-.071-.086-2.699-3.244-.152 2.847 2.355 1.884.156.125-.023.2-.227 1.93 2.1 1.75.174.145-.055.22-1 4-.702-.176.945-3.78-1.563-1.302-.172 1.462-.718-.084.25-2.125.226-1.926-2.343-1.875-.145-.116.01-.185.202-3.774-4.493-3.83-.358 1.845-.71-.138.446-2.3-1.499-2.08-4.663 5.403 2.286 8.802.027.104-.034.101-.709 2.127 1.203 3.13-.675.259-.888-2.31-.413 1.239v3.061l-.072.097-1.5 2-.578-.434 1.428-1.904v-2.938l.018-.055.75-2.25.546-1.638-3.384.786-2.861 2.012-.416-.592 2.534-1.781-2.559-2.146.465-.554 2.78 2.332 3.545-.823-2.24-8.627-.048-.184.124-.143 4.975-5.765-.353-2.141-4.703 1.156-.089.022-.088-.023-1.633-.427-1.536 1.657-.407-.377-.015-.231 1.574-1.699.148-.159.21.055 1.753.458 4.895-1.204 1.457-1.454.817.207Z" fill="#546DDB"/><path fill-rule="evenodd" clip-rule="evenodd" d="m24.398 14.853-1.703 1.699.4 2.426 1.784 2.475 5.067 4.32.023.02.02.023 3.217 3.867 3.393.97-.198.695-3.5-1-.108-.031-.071-.086-2.699-3.244-.152 2.847 2.355 1.884.156.125-.023.2-.227 1.93 2.1 1.75.174.145-.055.22-1 4-.702-.176.945-3.78-1.563-1.302-.172 1.462-.718-.084.25-2.125.226-1.926-2.343-1.875-.145-.116.01-.185.202-3.774-4.493-3.83-.358 1.845-.71-.138.446-2.3-1.499-2.08-4.663 5.403 2.286 8.802.027.104-.034.101-.709 2.127 1.203 3.13-.675.259-.888-2.31-.413 1.239v3.061l-.072.097-1.5 2-.578-.434 1.428-1.904v-2.938l.018-.055.75-2.25.546-1.638-3.384.786-2.861 2.012-.416-.592 2.534-1.781-2.559-2.146.465-.554 2.78 2.332 3.545-.823-2.24-8.627-.048-.184.124-.143 4.975-5.765-.353-2.141-4.703 1.156-.089.022-.088-.023-1.633-.427-1.536 1.657-.407-.377-.015-.231 1.574-1.699.148-.159.21.055 1.753.458 4.895-1.204 1.457-1.454.817.207Z" fill="#fff" fill-opacity=".2"/><ellipse cx="1.224" cy="1.223" rx="1.224" ry="1.223" transform="matrix(.68472 .72881 -.68896 .7248 20.686 45)" fill="#2FC4A7"/><ellipse cx="1.224" cy="1.223" rx="1.224" ry="1.223" transform="matrix(.68472 .72881 -.68896 .7248 20.686 45)" fill="#fff" fill-opacity=".2"/><circle cx=".75" cy=".75" transform="matrix(.99903 .04401 .0125 .99992 12 42)" fill="#2FC4A7" r=".75"/><circle cx=".75" cy=".75" transform="matrix(.99903 .04401 .0125 .99992 12 42)" fill="#fff" fill-opacity=".4" r=".75"/><circle cx=".5" cy=".5" transform="matrix(.99903 .04401 .0125 .99992 10 46)" fill="#2FC4A7" r=".5"/><circle cx=".5" cy=".5" transform="matrix(.99903 .04401 .0125 .99992 10 46)" fill="#fff" fill-opacity=".4" r=".5"/><circle cx=".75" cy=".75" transform="matrix(.99903 .04401 .0125 .99992 35 43)" fill="#2FC4A7" r=".75"/><circle cx=".75" cy=".75" transform="matrix(.99903 .04401 .0125 .99992 35 43)" fill="#fff" fill-opacity=".4" r=".75"/><circle cx=".5" cy=".5" transform="matrix(.99903 .04401 .0125 .99992 33 47)" fill="#2FC4A7" r=".5"/><circle cx=".5" cy=".5" transform="matrix(.99903 .04401 .0125 .99992 33 47)" fill="#fff" fill-opacity=".4" r=".5"/><circle cx=".75" cy=".75" transform="matrix(.4614 .8872 -.8597 .51079 39.563 44.97)" fill="#2FC4A7" r=".75"/><circle cx=".75" cy=".75" transform="matrix(.4614 .8872 -.8597 .51079 39.563 44.97)" fill="#fff" fill-opacity=".4" r=".75"/><circle cx=".5" cy=".5" transform="matrix(.4614 .8872 -.8597 .51079 29.86 45)" fill="#2FC4A7" r=".5"/><circle cx=".5" cy=".5" transform="matrix(.4614 .8872 -.8597 .51079 29.86 45)" fill="#fff" fill-opacity=".4" r=".5"/><path d="m37.174 1-2.913 5.322c-.291.444-.728 1.922 1.165 2.514 1.697.53 3.107-.345 3.496-.887L43 2.33 37.174 1Z" fill="#546DDB"/><path d="M32.607 0 30.13 4.33c-.146.723-.583 2.14 1.748 2.572 2.333.434 2.77-.676 3.353-1.353L38 .812 32.607 0Z" fill="#546DDB"/><path d="M32.607 0 30.13 4.33c-.146.723-.583 2.14 1.748 2.572 2.333.434 2.77-.676 3.353-1.353L38 .812 32.607 0Z" fill="#fff" fill-opacity=".2"/><path d="m12.826 1 2.913 5.322c.291.444.728 1.922-1.165 2.514-1.697.53-3.107-.345-3.496-.887L7 2.33 12.826 1Z" fill="#546DDB"/><path d="m17.393 0 2.477 4.33c.146.723.583 2.14-1.748 2.572-2.332.434-2.77-.676-3.353-1.353L12 .812 17.393 0Z" fill="#546DDB"/><path d="m17.393 0 2.477 4.33c.146.723.583 2.14-1.748 2.572-2.332.434-2.77-.676-3.353-1.353L12 .812 17.393 0Z" fill="#fff" fill-opacity=".2"/><path fill-rule="evenodd" clip-rule="evenodd" d="m13.738 21.532 8.142 1.108c.718.25 1.62.78 1.62 2.31 0 1.77-1.263 2.274-1.903 2.53l-.05.02-7.57.032-.239-6ZM21.75 25.5a.75.75 0 1 0 0-1.5.75.75 0 0 0 0 1.5Z" fill="#546DDB"/><path fill-rule="evenodd" clip-rule="evenodd" d="m13.738 21.532 8.142 1.108c.718.25 1.62.78 1.62 2.31 0 1.77-1.263 2.274-1.903 2.53l-.05.02-7.57.032-.239-6ZM21.75 25.5a.75.75 0 1 0 0-1.5.75.75 0 0 0 0 1.5Z" fill="#000" fill-opacity=".2"/><path fill-rule="evenodd" clip-rule="evenodd" d="M36.261 21.532 28.12 22.64c-.718.25-1.62.78-1.62 2.31 0 1.77 1.263 2.274 1.903 2.53l.05.02 7.57.032.238-6ZM28.25 25.5a.75.75 0 1 0 0-1.5.75.75 0 0 0 0 1.5Z" fill="#546DDB"/><path fill-rule="evenodd" clip-rule="evenodd" d="M36.261 21.532 28.12 22.64c-.718.25-1.62.78-1.62 2.31 0 1.77 1.263 2.274 1.903 2.53l.05.02 7.57.032.238-6ZM28.25 25.5a.75.75 0 1 0 0-1.5.75.75 0 0 0 0 1.5Z" fill="#000" fill-opacity=".2"/><path d="M26 34.5c0-3.5-.056-6.118-1.26-8.787-.186 1.333-.24 2.287-.587 3.719-.187.771-.656 3.359-.653 4.568" stroke="#546DDB" stroke-width=".601" stroke-linejoin="round"/><path d="M26 34.5c0-3.5-.056-6.118-1.26-8.787-.186 1.333-.24 2.287-.587 3.719-.187.771-.656 3.359-.653 4.568" stroke="#fff" stroke-opacity=".95" stroke-width=".601" stroke-linejoin="round"/><path d="M24.717 25.054C23.66 25.536 21 26.599 21 26.984c0 .483 1.058 1.449 1.763 1.449.564 0 1.954-2.172 1.954-3.38Zm0 0c.235 1.367 1.713 3.379 2.277 3.379.706 0 1.44-.869 1.44-1.352 0-.386-2.542-1.464-3.717-2.027Z" stroke="#546DDB" stroke-width=".676" stroke-linejoin="round"/><path d="M24.717 25.054C23.66 25.536 21 26.599 21 26.984c0 .483 1.058 1.449 1.763 1.449.564 0 1.954-2.172 1.954-3.38Zm0 0c.235 1.367 1.713 3.379 2.277 3.379.706 0 1.44-.869 1.44-1.352 0-.386-2.542-1.464-3.717-2.027Z" stroke="#fff" stroke-opacity=".95" stroke-width=".676" stroke-linejoin="round"/><path d="M22 24.8c2.267.348 3.582.344 6 0" stroke="#546DDB" stroke-width=".68"/><path d="M22 24.8c2.267.348 3.582.344 6 0" stroke="#fff" stroke-opacity=".95" stroke-width=".68"/><circle cx="17.5" cy="5" r="1" fill="#546DDB"/><circle cx="17.5" cy="5" r="1" fill="#fff" fill-opacity=".95"/><circle cx="32.5" cy="5" r="1" fill="#546DDB"/><circle cx="32.5" cy="5" r="1" fill="#fff" fill-opacity=".95"/><circle cx="13.5" cy="7" r="1" fill="#546DDB"/><circle cx="13.5" cy="7" r="1" fill="#fff" fill-opacity=".8"/><circle cx="36.5" cy="7" r="1" fill="#546DDB"/><circle cx="36.5" cy="7" r="1" fill="#fff" fill-opacity=".8"/></svg>