<?xml version="1.0" encoding="utf-8"?><svg fill="none" viewBox="0 0 50 50" width="50" height="50" xmlns="http://www.w3.org/2000/svg"><path d="M24.61 31.357C20.419 34.385 5.745 50.456 3.882 49.99c-3.26-.932 3.494-24.456 4.658-27.95C9.704 18.546 20.185 2.708 21.117 1.543c.932-1.164 3.494-2.795 12.577 0C42.778 4.338 44.41 14.587 46.04 18.546c1.304 3.168-.543 5.979-1.63 6.988 0 0-13.41 1.466-14.208 1.863-.8.397-2.236 1.537-5.59 3.96Z" fill="#898989"/><path d="M24.61 31.357C20.419 34.385 5.745 50.456 3.882 49.99c-3.26-.932 3.494-24.456 4.658-27.95C9.704 18.546 20.185 2.708 21.117 1.543c.932-1.164 3.494-2.795 12.577 0C42.778 4.338 44.41 14.587 46.04 18.546c1.304 3.168-.543 5.979-1.63 6.988 0 0-13.41 1.466-14.208 1.863-.8.397-2.236 1.537-5.59 3.96Z" fill="#fff" fill-opacity=".6"/><path d="M3.881 49.99c1.463.366 10.822-9.462 16.806-15.168a233.527 233.527 0 0 0 3.924-3.465c-.901.65-2.286 1.903-3.924 3.465-4.127 3.56-8.243 6.815-9.187 6.678-2.419-.351-1-7.5 3.5-17.5-9.657 9.333-6.037 7.49-11.807 20.5-.361 3.04-.26 5.22.688 5.49Z" fill="#D0333D"/><path d="M3.881 49.99c1.463.366 10.822-9.462 16.806-15.168a233.527 233.527 0 0 0 3.924-3.465c-.901.65-2.286 1.903-3.924 3.465-4.127 3.56-8.243 6.815-9.187 6.678-2.419-.351-1-7.5 3.5-17.5-9.657 9.333-6.037 7.49-11.807 20.5-.361 3.04-.26 5.22.688 5.49Z" fill="#000" fill-opacity=".2"/><path d="M31.543 21.814c-.571.254-1.61 1.01-4.03 2.604-1.632 1.075-5.512 4.715-8.942 7.78-1.952-.785 4.592-10.75 7.335-13.007 2.463-2.025 5.414-3.624 6.448-3.229.863.33 4.125 1.524 5.514 3.742-1.963.152-5.034 1.47-6.325 2.11Z" fill="#898989"/><path d="M31.543 21.814c-.571.254-1.61 1.01-4.03 2.604-1.632 1.075-5.512 4.715-8.942 7.78-1.952-.785 4.592-10.75 7.335-13.007 2.463-2.025 5.414-3.624 6.448-3.229.863.33 4.125 1.524 5.514 3.742-1.963.152-5.034 1.47-6.325 2.11Z" fill="#fff" fill-opacity=".8"/><path d="m44.5 25.5-14.373 1.893c1.37-1.116 5.245-3.374 8.373-4.393 3.128-1.019 6.667-1.305 7.9-1.363-.4 1.863-.94 3.151-1.9 3.863Z" fill="#898989"/><path d="m44.5 25.5-14.373 1.893c1.37-1.116 5.245-3.374 8.373-4.393 3.128-1.019 6.667-1.305 7.9-1.363-.4 1.863-.94 3.151-1.9 3.863Z" fill="#fff" fill-opacity=".4"/><path d="M42.5 16.5c1.6.4 3.54 2.046 3.54 2.046C46.27 17.305 41.964 7.23 41 7c0 0-1.096-.099-2.5-.5 1.889 2.719-1.032 5.343-4.212 5.95 2.917-.487 8.325-.997 8.712.55.4 1.6-2.5 3-4 3.5.5-.166 1.9-.4 3.5 0Z" fill="#898989"/><path d="M42.5 16.5c1.6.4 3.54 2.046 3.54 2.046C46.27 17.305 41.964 7.23 41 7c0 0-1.096-.099-2.5-.5 1.889 2.719-1.032 5.343-4.212 5.95 2.917-.487 8.325-.997 8.712.55.4 1.6-2.5 3-4 3.5.5-.166 1.9-.4 3.5 0Z" fill="#fff" fill-opacity=".2"/><path d="M21.117 1.543c.932-1.164 3.494-2.795 12.577 0 3.59 1.105 6.015 3.373 7.737 5.957-2.579-1.167-9.553-1.8-16.82 5-9.111 8.525-16.072 20-20.73 37.49-3.26-.932 3.494-24.456 4.658-27.95C9.704 18.546 20.185 2.708 21.117 1.543Z" fill="#898989"/><path d="M21.117 1.543c.932-1.164 3.494-2.795 12.577 0 3.59 1.105 6.015 3.373 7.737 5.957-2.579-1.167-9.553-1.8-16.82 5-9.111 8.525-16.072 20-20.73 37.49-3.26-.932 3.494-24.456 4.658-27.95C9.704 18.546 20.185 2.708 21.117 1.543Z" fill="#fff" fill-opacity=".2"/><path d="M21.117 1.543c.932-1.164 3.494-2.795 12.578 0C37.284 2.648 39.71 4.916 41.43 7.5c-2.431-1-4.631-.7-7.43-.3-2.8.4-8 3.8-10 5.8C26.832 9.667 31.5 4 30.5 3c-.717-.717-6.5 4-8 6 .333-1.333 1.2-3 0-3s-7.62 6-10.43 9.5c3.523-5.825 8.424-13.177 9.047-13.957Z" fill="#898989"/><path d="M21.117 1.543c.932-1.164 3.494-2.795 12.578 0C37.284 2.648 39.71 4.916 41.43 7.5c-2.431-1-4.631-.7-7.43-.3-2.8.4-8 3.8-10 5.8C26.832 9.667 31.5 4 30.5 3c-.717-.717-6.5 4-8 6 .333-1.333 1.2-3 0-3s-7.62 6-10.43 9.5c3.523-5.825 8.424-13.177 9.047-13.957Z" fill="#000" fill-opacity=".2"/><path d="M3.881 49.99c-.948-.27-1.05-2.45-.688-5.49C8.963 31.49 5.343 33.333 15 24c-5 8.5-8.04 14.525-11.119 25.99Z" fill="#D0333D"/><path d="M3.881 49.99c-.948-.27-1.05-2.45-.688-5.49C8.963 31.49 5.343 33.333 15 24c-5 8.5-8.04 14.525-11.119 25.99Z" fill="#000" fill-opacity=".4"/></svg>