<?xml version="1.0" encoding="utf-8"?><svg fill="none" viewBox="0 0 50 50" width="50" height="50" xmlns="http://www.w3.org/2000/svg"><g clip-path="url(#apma)"><path d="M17.582 4.585C9.331 10.75 11.24 14.953 3.432 18.422c.285.192.068 1.078.068 1.078 6 1 5.419 7.207 10.178 10.758 6.255 4.668 10.247 2.963 16.337 6.834 8.002 5.086 8.34 10.372 7.819 11.928 2.432-2.075 6.627-5.325 7.297-11.928.752-7.406-3.173-11.41-2.131-18.67 1.042-7.26 5.259-12.157 2.131-16.305-3.127-4.15-22.11-1.594-27.549 2.468Z" fill="#546DDB"/><path d="M17.582 4.585C9.331 10.75 11.24 14.953 3.432 18.422c.285.192.068 1.078.068 1.078 6 1 5.419 7.207 10.178 10.758 6.255 4.668 10.247 2.963 16.337 6.834 8.002 5.086 8.34 10.372 7.819 11.928 2.432-2.075 6.627-5.325 7.297-11.928.752-7.406-3.173-11.41-2.131-18.67 1.042-7.26 5.259-12.157 2.131-16.305-3.127-4.15-22.11-1.594-27.549 2.468Z" fill="#fff" fill-opacity=".6"/><path d="M17.582 5.566C9.331 11.73 11.24 15.934 3.432 19.403c5.855 3.936 5.242 8.102 10.246 11.836 6.255 4.667 10.247 2.962 16.337 6.833 8.002 5.087 8.34 10.372 7.819 11.928 2.432-2.074 6.627-5.325 7.297-11.928.752-7.406-1.754-11.409-.711-18.67C45.462 12.143 48.127 7.65 45 3.5c-3.5-5-21.98-1.997-27.418 2.066Z" fill="#546DDB"/><path d="M29.116 22.187 23.404 15.2l1.414-4.037m4.298 11.023.847 6.641-1.827 4.573m.98-11.214-4.451-.879m-3.553 2.382 3.553-2.382m.153-10.144 3.476 2.69m-3.476-2.69-1.847-3.14m10.698 8.279 4.229 6.692 3.795-.484m-8.024-6.208 6.228-.312m-6.228.312-5.374-2.449m0 0 .63 3.054m-5.954-8.883 1.535-3.089-.203-2.269M22.97 8.025l-5.451 2.623-2.432-.171-1.121 2.553m10.698 8.278-4.572-1.827" stroke="#546DDB"/><path d="M29.116 22.187 23.404 15.2l1.414-4.037m4.298 11.023.847 6.641-1.827 4.573m.98-11.214-4.451-.879m-3.553 2.382 3.553-2.382m.153-10.144 3.476 2.69m-3.476-2.69-1.847-3.14m10.698 8.279 4.229 6.692 3.795-.484m-8.024-6.208 6.228-.312m-6.228.312-5.374-2.449m0 0 .63 3.054m-5.954-8.883 1.535-3.089-.203-2.269M22.97 8.025l-5.451 2.623-2.432-.171-1.121 2.553m10.698 8.278-4.572-1.827" stroke="#fff" stroke-opacity=".4"/><circle cx="18" cy="11" r="2" fill="#2FC4A7"/><circle cx="18" cy="11" r="2" fill="#fff" fill-opacity=".2"/><circle cx="37.5" cy="25.5" r="2.5" fill="#2FC4A7"/><circle cx="12.5" cy="19.5" r="2.5" fill="#2FC4A7"/><circle cx="12.5" cy="19.5" r="2.5" fill="#fff" fill-opacity=".4"/><circle cx="20" cy="15.5" r="1.5" fill="#2FC4A7"/><circle cx="20" cy="15.5" r="1.5" fill="#fff" fill-opacity=".4"/><circle cx="15" cy="27.5" r="1.5" fill="#2FC4A7"/><circle cx="25" cy="34" r="1" fill="#2FC4A7"/><circle cx="25" cy="34" r="1" fill="#fff" fill-opacity=".4"/><circle cx="41.5" cy="4.5" r="1.5" fill="#2FC4A7"/><circle cx="41.5" cy="4.5" r="1.5" fill="#fff" fill-opacity=".2"/><circle cx="37.5" cy="32.5" r="1.5" fill="#2FC4A7"/><circle cx="37.5" cy="32.5" r="1.5" fill="#fff" fill-opacity=".4"/><circle cx="40.5" cy="40.5" r="2.5" fill="#2FC4A7"/><circle cx="40.5" cy="40.5" r="2.5" fill="#fff" fill-opacity=".4"/><path d="M40.196 6.863C42.647 5.883 46 5 44.5 1.5c1.55 1.772 1.587 3.22.5 5-3.633 4.032-9.895 2.483-18 1.85 0 0 .314-.9-.04-.997 3.269.49 10.463.619 13.236-.49Z" fill="#546DDB"/><path d="M40.196 6.863C42.647 5.883 46 5 44.5 1.5c1.55 1.772 1.587 3.22.5 5-3.633 4.032-9.895 2.483-18 1.85 0 0 .314-.9-.04-.997 3.269.49 10.463.619 13.236-.49Z" fill="#fff" fill-opacity=".6"/><path d="M44.42 19.402C45.462 12.143 48.826 7.15 45.7 3c.457 2.785-3.053 3.863-5.504 4.843-2.773 1.11-9.967.98-13.235.49 1.797.49 6.411 5.204 6.862 11.07.49 6.372 6.079 10.99 7.353 17.362.976 4.879-1.713 10.082-3.32 13.192l-.022.043c2.432-2.075 6.627-5.325 7.297-11.928.752-7.406-1.754-11.41-.712-18.67Z" fill="#546DDB"/><path d="M44.42 19.402C45.462 12.143 48.826 7.15 45.7 3c.457 2.785-3.053 3.863-5.504 4.843-2.773 1.11-9.967.98-13.235.49 1.797.49 6.411 5.204 6.862 11.07.49 6.372 6.079 10.99 7.353 17.362.976 4.879-1.713 10.082-3.32 13.192l-.022.043c2.432-2.075 6.627-5.325 7.297-11.928.752-7.406-1.754-11.41-.712-18.67Z" fill="#fff" fill-opacity=".2"/><path d="m44.56 18.264-3.312-.53m0 0 .008-4.3 1.863-1.74m-1.87 6.04-1.917-.758-1.978 1.043m6.8-.047-3.434 3.075m-2.5.054 2.5-.054m0 0-2.215 3.949.751 2.384" stroke="#546DDB"/><path d="m44.56 18.264-3.312-.53m0 0 .008-4.3 1.863-1.74m-1.87 6.04-1.917-.758-1.978 1.043m6.8-.047-3.434 3.075m-2.5.054 2.5-.054m0 0-2.215 3.949.751 2.384" stroke="#fff" stroke-opacity=".4"/></g><defs><clipPath id="apma"><path fill="#fff" d="M0 0h50v50H0z"/></clipPath></defs></svg>