<?xml version="1.0" encoding="utf-8"?><svg fill="none" viewBox="0 0 50 50" width="50" height="50" xmlns="http://www.w3.org/2000/svg"><g clip-path="url(#apka)"><path d="M39.799.053C28.172 2.38 21.654 2.383 10.2.053l-4.144 24-1.184 24.714L17.6 50 25 22.252 32.4 50l12.727-1.233-1.184-24.715L39.799.053Z" fill="#546DDB"/><path fill-rule="evenodd" clip-rule="evenodd" d="m44.129 27.939-.069-1.434-2.163-1.698-2.059-2.912-1.042-3.418 2.214-2.646.098-.117.023-.152.361-2.447-1.074-.159-.34 2.296-2.184 2.611-6.097 1.319-2.387-.755-.365-.115-.232.305-1.83 2.412.865.656 1.599-2.107 2.16.683.137.043.141-.03 5.932-1.283.935 3.064-2.38 3.692-.164.256.132.274 3.604 7.464-3.06-1.405-4.322-3.06-.627.887 3.523 2.494-3.39 1.256.378 1.018 4.144-1.535 3.917 1.798-.732 6.699-3.007 4.249.886.627 3.089-4.364.081-.115.015-.14.79-7.227.017-.154-.068-.14-4.128-8.55 1.915-2.972 1.603 2.266.274 4.381 1.084-.068-.208-3.326 2.01 1.579ZM5.557 34.496l-.064 1.323 4.052-2.551.1-.063.064-.097 2.74-4.144.597 4.172-1.6 5.863 1.048.286 1.63-5.972.029-.108-.016-.112-.785-5.493 1.615-2.442 1.89-1.77v6.579l.186.162 2.715 2.365.713-.819-2.529-2.202v-7.399l-.014-.06-.853-3.644 2.846 1.082.386-1.015-3.45-1.311v-4.293l-.133-.153-3.04-3.503 3.134-7.836-.517-.207a82.155 82.155 0 0 1-.538-.08L12.581 9.01l-2.937 3.739-2.095 2.666-.28 1.615.242.19 2.308-2.937 1.05 4.079-.513 2.2 1.058.246.542-2.33.03-.129-.033-.129-1.29-5.012 2.414-3.072 2.694 3.103V17.563l.014.06 1.014 4.332-2.497 2.338-2.41.355.158 1.075 1.376-.203-1.094 1.653-3.464 5.238-3.311 2.085ZM6.44 21.83l-.262 1.519 1.002 1.444.892-.619-1.628-2.346-.004.002Z" fill="#546DDB"/><path fill-rule="evenodd" clip-rule="evenodd" d="m44.129 27.939-.069-1.434-2.163-1.698-2.059-2.912-1.042-3.418 2.214-2.646.098-.117.023-.152.361-2.447-1.074-.159-.34 2.296-2.184 2.611-6.097 1.319-2.387-.755-.365-.115-.232.305-1.83 2.412.865.656 1.599-2.107 2.16.683.137.043.141-.03 5.932-1.283.935 3.064-2.38 3.692-.164.256.132.274 3.604 7.464-3.06-1.405-4.322-3.06-.627.887 3.523 2.494-3.39 1.256.378 1.018 4.144-1.535 3.917 1.798-.732 6.699-3.007 4.249.886.627 3.089-4.364.081-.115.015-.14.79-7.227.017-.154-.068-.14-4.128-8.55 1.915-2.972 1.603 2.266.274 4.381 1.084-.068-.208-3.326 2.01 1.579ZM5.557 34.496l-.064 1.323 4.052-2.551.1-.063.064-.097 2.74-4.144.597 4.172-1.6 5.863 1.048.286 1.63-5.972.029-.108-.016-.112-.785-5.493 1.615-2.442 1.89-1.77v6.579l.186.162 2.715 2.365.713-.819-2.529-2.202v-7.399l-.014-.06-.853-3.644 2.846 1.082.386-1.015-3.45-1.311v-4.293l-.133-.153-3.04-3.503 3.134-7.836-.517-.207a82.155 82.155 0 0 1-.538-.08L12.581 9.01l-2.937 3.739-2.095 2.666-.28 1.615.242.19 2.308-2.937 1.05 4.079-.513 2.2 1.058.246.542-2.33.03-.129-.033-.129-1.29-5.012 2.414-3.072 2.694 3.103V17.563l.014.06 1.014 4.332-2.497 2.338-2.41.355.158 1.075 1.376-.203-1.094 1.653-3.464 5.238-3.311 2.085ZM6.44 21.83l-.262 1.519 1.002 1.444.892-.619-1.628-2.346-.004.002Z" fill="#fff" fill-opacity=".2"/><path d="m32.4 50 12.727-1.233-1.184-24.715c-.705 3.583-2.113 10.747-4.285 14.004-1.737 2.606-6.721 4.705-8.996 5.43L32.4 50Z" fill="#546DDB"/><path d="m32.4 50 12.727-1.233-1.184-24.715c-.705 3.583-2.113 10.747-4.285 14.004-1.737 2.606-6.721 4.705-8.996 5.43L32.4 50Z" fill="#000" fill-opacity=".2"/><path d="M4.873 48.767 17.6 50l1.738-6.515c-2.094-.18-6.853-1.52-9.137-5.429-2.284-3.909-3.714-10.964-4.144-14.004L4.873 48.767Z" fill="#546DDB"/><path d="M4.873 48.767 17.6 50l1.738-6.515c-2.094-.18-6.853-1.52-9.137-5.429-2.284-3.909-3.714-10.964-4.144-14.004L4.873 48.767Z" fill="#000" fill-opacity=".2"/><path fill-rule="evenodd" clip-rule="evenodd" d="M20.657 2.55c.69.453 1.593 1.517 1.19 3.129-.465 1.863-1.928 2.063-2.67 2.164l-.057.008L9.048 6.568 10 .934l10.657 1.617Zm-.798 3.248a.814.814 0 1 0 .395-1.58.814.814 0 0 0-.395 1.58Z" fill="#546DDB"/><path fill-rule="evenodd" clip-rule="evenodd" d="M20.657 2.55c.69.453 1.593 1.517 1.19 3.129-.465 1.863-1.928 2.063-2.67 2.164l-.057.008L9.048 6.568 10 .934l10.657 1.617Zm-.798 3.248a.814.814 0 1 0 .395-1.58.814.814 0 0 0-.395 1.58Z" fill="#000" fill-opacity=".2"/><path fill-rule="evenodd" clip-rule="evenodd" d="M20.551 9.608c.69.453 1.593 1.516 1.19 3.128-.465 1.864-1.928 2.064-2.67 2.165l-.057.008-11.119-1.283.952-5.634 11.704 1.616Zm-.798 3.247a.814.814 0 1 0 .395-1.58.814.814 0 0 0-.395 1.58Z" fill="#546DDB"/><path fill-rule="evenodd" clip-rule="evenodd" d="M20.551 9.608c.69.453 1.593 1.516 1.19 3.128-.465 1.864-1.928 2.064-2.67 2.165l-.057.008-11.119-1.283.952-5.634 11.704 1.616Zm-.798 3.247a.814.814 0 1 0 .395-1.58.814.814 0 0 0-.395 1.58Z" fill="#000" fill-opacity=".2"/><path fill-rule="evenodd" clip-rule="evenodd" d="M30.409 2.704c-.685.449-1.581 1.505-1.182 3.105.462 1.85 1.914 2.048 2.65 2.148l.057.008 9.01-1.397L40 .976l-9.591 1.728Zm.792 3.223a.808.808 0 1 1-.392-1.568.808.808 0 0 1 .392 1.568Z" fill="#546DDB"/><path fill-rule="evenodd" clip-rule="evenodd" d="M30.409 2.704c-.685.449-1.581 1.505-1.182 3.105.462 1.85 1.914 2.048 2.65 2.148l.057.008 9.01-1.397L40 .976l-9.591 1.728Zm.792 3.223a.808.808 0 1 1-.392-1.568.808.808 0 0 1 .392 1.568Z" fill="#000" fill-opacity=".2"/><path fill-rule="evenodd" clip-rule="evenodd" d="M30.506 9.709c-.686.449-1.581 1.505-1.182 3.104.462 1.85 1.914 2.049 2.65 2.15l.057.007 10.048-1.695-.945-5.592-10.628 2.026Zm.791 3.223a.808.808 0 1 1-.391-1.569.808.808 0 0 1 .391 1.569Z" fill="#546DDB"/><path fill-rule="evenodd" clip-rule="evenodd" d="M30.506 9.709c-.686.449-1.581 1.505-1.182 3.104.462 1.85 1.914 2.049 2.65 2.15l.057.007 10.048-1.695-.945-5.592-10.628 2.026Zm.791 3.223a.808.808 0 1 1-.391-1.569.808.808 0 0 1 .391 1.569Z" fill="#000" fill-opacity=".2"/><path d="M20.114 12.54c2.221.403 7.969.367 10.858 0" stroke="#546DDB" stroke-width=".738"/><path d="M20.114 12.54c2.221.403 7.969.367 10.858 0" stroke="#fff" stroke-opacity=".6" stroke-width=".738"/><path d="M26.629 16.015c0-3.8-.061-6.644-1.368-9.54-.203 1.446-.26 2.482-.638 4.036-.203.838-.712 3.648-.709 4.96" stroke="#546DDB" stroke-width=".653" stroke-linejoin="round"/><path d="M26.629 16.015c0-3.8-.061-6.644-1.368-9.54-.203 1.446-.26 2.482-.638 4.036-.203.838-.712 3.648-.709 4.96" stroke="#fff" stroke-opacity=".8" stroke-width=".653" stroke-linejoin="round"/><path d="M25.236 5.758c-1.149.524-4.036 1.677-4.036 2.096 0 .525 1.148 1.573 1.914 1.573.613 0 2.122-2.359 2.122-3.67Zm0 0c.255 1.485 1.86 3.669 2.472 3.669.766 0 1.564-.944 1.564-1.468 0-.419-2.76-1.59-4.036-2.201Z" stroke="#546DDB" stroke-width=".734" stroke-linejoin="round"/><path d="M25.236 5.758c-1.149.524-4.036 1.677-4.036 2.096 0 .525 1.148 1.573 1.914 1.573.613 0 2.122-2.359 2.122-3.67Zm0 0c.255 1.485 1.86 3.669 2.472 3.669.766 0 1.564-.944 1.564-1.468 0-.419-2.76-1.59-4.036-2.201Z" stroke="#fff" stroke-opacity=".8" stroke-width=".734" stroke-linejoin="round"/><path d="M20.114 5.482c2.461.378 8.232.373 10.858 0" stroke="#546DDB" stroke-width=".738"/><path d="M20.114 5.482c2.461.378 8.232.373 10.858 0" stroke="#fff" stroke-opacity=".8" stroke-width=".738"/><ellipse cx=".815" cy=".814" rx=".815" ry=".814" transform="matrix(.77948 .62643 -.58139 .81363 17.26 39.142)" fill="#2FC4A7"/><ellipse cx=".815" cy=".814" rx=".815" ry=".814" transform="matrix(.77948 .62643 -.58139 .81363 17.26 39.142)" fill="#fff" fill-opacity=".4"/><ellipse cx="1.329" cy="1.328" rx="1.329" ry="1.328" transform="matrix(.68472 .72881 -.68896 .7248 38.83 33.315)" fill="#2FC4A7"/><ellipse cx="1.329" cy="1.328" rx="1.329" ry="1.328" transform="matrix(.68472 .72881 -.68896 .7248 38.83 33.315)" fill="#fff" fill-opacity=".2"/><circle cx=".543" cy=".543" transform="matrix(.99903 .04401 .0125 .99992 37 37.658)" fill="#2FC4A7" r=".543"/><circle cx=".543" cy=".543" transform="matrix(.99903 .04401 .0125 .99992 37 37.658)" fill="#fff" fill-opacity=".4" r=".543"/><circle cx=".543" cy=".543" transform="matrix(.99903 .04401 .0125 .99992 41.886 23)" fill="#2FC4A7" r=".543"/><circle cx=".543" cy=".543" transform="matrix(.99903 .04401 .0125 .99992 41.886 23)" fill="#fff" fill-opacity=".4" r=".543"/><circle cx=".543" cy=".543" transform="matrix(.77948 .62643 -.58139 .81363 8.258 26.112)" fill="#2FC4A7" r=".543"/><circle cx=".543" cy=".543" transform="matrix(.77948 .62643 -.58139 .81363 8.258 26.112)" fill="#fff" fill-opacity=".4" r=".543"/><circle cx=".543" cy=".543" transform="matrix(-.15277 .98826 -.99531 -.09668 8.874 20.788)" fill="#2FC4A7" r=".543"/><circle cx=".543" cy=".543" transform="matrix(-.15277 .98826 -.99531 -.09668 8.874 20.788)" fill="#fff" fill-opacity=".4" r=".543"/></g><defs><clipPath id="apka"><path fill="#fff" transform="matrix(-1 0 0 1 50 0)" d="M0 0h50v50H0z"/></clipPath></defs></svg>