<?xml version="1.0" encoding="utf-8"?><svg fill="none" viewBox="0 0 50 50" xmlns="http://www.w3.org/2000/svg" width="50" height="50"><g clip-path="url(#asta)"><path d="M39.799.053C28.172 2.38 21.654 2.383 10.2.053l-4.144 24-1.184 24.714L17.6 50 25 22.252 32.4 50l12.727-1.233-1.184-24.715L39.799.053Z" fill="#546DDB"/><path d="m40.12 15.27-2.202 2.632-6.123 1.324-2.399-.758-.335-.106-.214.28-1.83 2.412.398.303.4.302 1.617-2.13 2.187.69.127.04.13-.027 5.97-1.29.953 3.118-2.542 3.947.122.252 3.656 7.572-3.169-1.456-4.329-3.064-.289.41-.289.408 3.592 2.54-3.468 1.285.174.469.175.468 4.16-1.542 3.96 1.82-.735 6.74-3.013 4.258.407.289.408.288 3.089-4.364.075-.106.013-.128.806-7.37-.063-.129-4.138-8.57 1.963-3.046 1.646 2.326.276 4.395.498-.031.5-.032-.215-3.422 2.057 1.614-.063-1.32-2.195-1.722-2.067-2.923-1.053-3.448 2.23-2.665.09-.107.02-.14.361-2.448-.494-.072-.495-.074-.34 2.308ZM12.618 9.033l-2.94 3.74-2.144 2.728-.263 1.527.207.164 2.36-3.004 1.075 4.173-.515 2.21.974.226.543-2.329.027-.12-.03-.118-1.295-5.032 2.46-3.13 2.738 3.154v4.335l.012.057 1.02 4.357-2.526 2.362-2.423.358.146.99 1.472-.218-1.148 1.734L8.9 32.443l-3.344 2.105-.058 1.217 4.025-2.534.091-.056.06-.09 2.804-4.239.613 4.293-1.602 5.87.483.133.482.131 1.629-5.972.027-.1-.014-.102-.788-5.508 1.628-2.46 1.965-1.84v6.656l.171.15 2.715 2.365.328-.377.328-.378-2.54-2.213-.002-7.357v-.057l-.014-.057-.87-3.72 2.92 1.109.356-.934-3.479-1.323.002-4.12-.002-.186-.122-.141-3.056-3.523 3.143-7.86-.464-.186-.015-.006-.491-.074-3.19 7.974ZM6.19 23.289l1.027 1.48.41-.285.411-.285-1.605-2.316-.243 1.406Z" fill="#7445B8"/><path d="m40.12 15.27-2.202 2.632-6.123 1.324-2.399-.758-.335-.106-.214.28-1.83 2.412.398.303.4.302 1.617-2.13 2.187.69.127.04.13-.027 5.97-1.29.953 3.118-2.542 3.947.122.252 3.656 7.572-3.169-1.456-4.329-3.064-.289.41-.289.408 3.592 2.54-3.468 1.285.174.469.175.468 4.16-1.542 3.96 1.82-.735 6.74-3.013 4.258.407.289.408.288 3.089-4.364.075-.106.013-.128.806-7.37-.063-.129-4.138-8.57 1.963-3.046 1.646 2.326.276 4.395.498-.031.5-.032-.215-3.422 2.057 1.614-.063-1.32-2.195-1.722-2.067-2.923-1.053-3.448 2.23-2.665.09-.107.02-.14.361-2.448-.494-.072-.495-.074-.34 2.308ZM12.618 9.033l-2.94 3.74-2.144 2.728-.263 1.527.207.164 2.36-3.004 1.075 4.173-.515 2.21.974.226.543-2.329.027-.12-.03-.118-1.295-5.032 2.46-3.13 2.738 3.154v4.335l.012.057 1.02 4.357-2.526 2.362-2.423.358.146.99 1.472-.218-1.148 1.734L8.9 32.443l-3.344 2.105-.058 1.217 4.025-2.534.091-.056.06-.09 2.804-4.239.613 4.293-1.602 5.87.483.133.482.131 1.629-5.972.027-.1-.014-.102-.788-5.508 1.628-2.46 1.965-1.84v6.656l.171.15 2.715 2.365.328-.377.328-.378-2.54-2.213-.002-7.357v-.057l-.014-.057-.87-3.72 2.92 1.109.356-.934-3.479-1.323.002-4.12-.002-.186-.122-.141-3.056-3.523 3.143-7.86-.464-.186-.015-.006-.491-.074-3.19 7.974ZM6.19 23.289l1.027 1.48.41-.285.411-.285-1.605-2.316-.243 1.406Z" fill="#fff" fill-opacity=".4"/><path d="m32.4 50 12.727-1.233-1.184-24.715c-.705 3.583-2.113 10.747-4.285 14.004-1.737 2.606-6.721 4.705-8.996 5.43L32.4 50Z" fill="#546DDB"/><path d="m32.4 50 12.727-1.233-1.184-24.715c-.705 3.583-2.113 10.747-4.285 14.004-1.737 2.606-6.721 4.705-8.996 5.43L32.4 50Z" fill="#000" fill-opacity=".4"/><path d="M4.873 48.767 17.6 50l1.738-6.515c-2.094-.18-6.853-1.52-9.137-5.429-2.284-3.909-3.714-10.964-4.144-14.004L4.873 48.767Z" fill="#546DDB"/><path d="M4.873 48.767 17.6 50l1.738-6.515c-2.094-.18-6.853-1.52-9.137-5.429-2.284-3.909-3.714-10.964-4.144-14.004L4.873 48.767Z" fill="#000" fill-opacity=".4"/><path d="m10 .935-.952 5.633L19.12 7.851c.72-.1 2.25-.26 2.727-2.173.403-1.611-.5-2.675-1.19-3.127L10 .935Zm10.253 3.283a.814.814 0 1 1-.394 1.58.814.814 0 0 1 .394-1.58Z" fill="#546DDB"/><path d="m10 .935-.952 5.633L19.12 7.851c.72-.1 2.25-.26 2.727-2.173.403-1.611-.5-2.675-1.19-3.127L10 .935Zm10.253 3.283a.814.814 0 1 1-.394 1.58.814.814 0 0 1 .394-1.58Z" fill="#000" fill-opacity=".4"/><path d="m8.847 7.991-.952 5.635 11.12 1.283c.72-.1 2.25-.26 2.727-2.173.402-1.612-.5-2.676-1.191-3.128L8.847 7.991Zm11.3 3.284a.815.815 0 1 1-.394 1.58.815.815 0 0 1 .395-1.58Z" fill="#546DDB"/><path d="m8.847 7.991-.952 5.635 11.12 1.283c.72-.1 2.25-.26 2.727-2.173.402-1.612-.5-2.676-1.191-3.128L8.847 7.991Zm11.3 3.284a.815.815 0 1 1-.394 1.58.815.815 0 0 1 .395-1.58Z" fill="#000" fill-opacity=".4"/><path d="m40 .977.945 5.59-9.01 1.398c-.716-.1-2.234-.258-2.708-2.157-.4-1.6.497-2.655 1.182-3.104l9.59-1.727Zm-9.191 3.382a.808.808 0 1 0 .392 1.567.808.808 0 0 0-.392-1.567Z" fill="#546DDB"/><path d="m40 .977.945 5.59-9.01 1.398c-.716-.1-2.234-.258-2.708-2.157-.4-1.6.497-2.655 1.182-3.104l9.59-1.727Zm-9.191 3.382a.808.808 0 1 0 .392 1.567.808.808 0 0 0-.392-1.567Z" fill="#000" fill-opacity=".4"/><path d="m41.134 7.683.945 5.591-10.047 1.696c-.716-.1-2.234-.258-2.708-2.157-.4-1.6.496-2.655 1.182-3.104l10.628-2.026Zm-10.228 3.68a.808.808 0 1 0 .39 1.57.808.808 0 0 0-.39-1.57Z" fill="#546DDB"/><path d="m41.134 7.683.945 5.591-10.047 1.696c-.716-.1-2.234-.258-2.708-2.157-.4-1.6.496-2.655 1.182-3.104l10.628-2.026Zm-10.228 3.68a.808.808 0 1 0 .39 1.57.808.808 0 0 0-.39-1.57Z" fill="#000" fill-opacity=".4"/><path d="M20.114 12.54c2.221.403 7.969.367 10.858 0" stroke="#546DDB" stroke-width=".738"/><path d="M20.114 12.54c2.221.403 7.969.367 10.858 0" stroke="#fff" stroke-opacity=".6" stroke-width=".738"/><path d="M26.629 16.015c0-3.8-.061-6.644-1.368-9.54-.203 1.446-.26 2.482-.638 4.036-.203.838-.712 3.648-.709 4.96" stroke="#546DDB" stroke-width=".653" stroke-linejoin="round"/><path d="M26.629 16.015c0-3.8-.061-6.644-1.368-9.54-.203 1.446-.26 2.482-.638 4.036-.203.838-.712 3.648-.709 4.96" stroke="#fff" stroke-opacity=".8" stroke-width=".653" stroke-linejoin="round"/><path d="M25.236 5.758c-1.149.524-4.036 1.677-4.036 2.096 0 .525 1.148 1.573 1.914 1.573.613 0 2.122-2.359 2.122-3.67Zm0 0c.255 1.485 1.86 3.669 2.472 3.669.766 0 1.564-.944 1.564-1.468 0-.419-2.76-1.59-4.036-2.201Z" stroke="#546DDB" stroke-width=".734" stroke-linejoin="round"/><path d="M25.236 5.758c-1.149.524-4.036 1.677-4.036 2.096 0 .525 1.148 1.573 1.914 1.573.613 0 2.122-2.359 2.122-3.67Zm0 0c.255 1.485 1.86 3.669 2.472 3.669.766 0 1.564-.944 1.564-1.468 0-.419-2.76-1.59-4.036-2.201Z" stroke="#fff" stroke-opacity=".8" stroke-width=".734" stroke-linejoin="round"/><path d="M20.114 5.482c2.461.378 8.232.373 10.858 0" stroke="#546DDB" stroke-width=".738"/><path d="M20.114 5.482c2.461.378 8.232.373 10.858 0" stroke="#fff" stroke-opacity=".8" stroke-width=".738"/><circle cx="1.067" cy="1.067" transform="matrix(.77948 .62643 -.58139 .81363 17.357 38.572)" fill="#2FC4A7" r="1.067"/><circle cx="1.067" cy="1.067" transform="matrix(.77948 .62643 -.58139 .81363 17.357 38.572)" fill="#fff" fill-opacity=".2" r="1.067"/><ellipse cx="1.329" cy="1.328" rx="1.329" ry="1.328" transform="matrix(.68472 .72881 -.68896 .7248 38.83 33.315)" fill="#2FC4A7"/><ellipse cx="1.329" cy="1.328" rx="1.329" ry="1.328" transform="matrix(.68472 .72881 -.68896 .7248 38.83 33.315)" fill="#fff" fill-opacity=".2"/><ellipse cx="1.329" cy="1.328" rx="1.329" ry="1.328" transform="matrix(.68472 .72881 -.68896 .7248 31.83 38)" fill="#2FC4A7"/><ellipse cx="1.329" cy="1.328" rx="1.329" ry="1.328" transform="matrix(.68472 .72881 -.68896 .7248 31.83 38)" fill="#fff" fill-opacity=".2"/><circle cx=".847" cy=".847" transform="matrix(.99903 .04401 .0125 .99992 36.389 37.327)" fill="#2FC4A7" r=".847"/><circle cx=".847" cy=".847" transform="matrix(.99903 .04401 .0125 .99992 34 34)" fill="#2FC4A7" r=".847"/><ellipse cx="1.16" cy="1.159" rx="1.16" ry="1.159" transform="matrix(.99903 .04401 .0125 .99992 40.18 26.34)" fill="#2FC4A7"/><circle cx=".847" cy=".847" transform="matrix(.99903 .04401 .0125 .99992 15 36.5)" fill="#2FC4A7" r=".847"/><circle cx=".847" cy=".847" transform="matrix(.99903 .04401 .0125 .99992 10 35)" fill="#2FC4A7" r=".847"/><circle cx=".778" cy=".778" transform="matrix(.99903 .04401 .0125 .99992 40 20)" fill="#2FC4A7" r=".778"/><circle cx=".778" cy=".778" transform="matrix(.99903 .04401 .0125 .99992 40 20)" fill="#fff" fill-opacity=".2" r=".778"/><ellipse cx=".865" cy=".864" rx=".865" ry=".864" transform="matrix(.77948 .62643 -.58139 .81363 8.381 25.388)" fill="#2FC4A7"/><circle cx="1.041" cy="1.041" transform="matrix(-.15277 .98826 -.99531 -.09668 10.39 20.201)" fill="#2FC4A7" r="1.041"/><circle cx="1.041" cy="1.041" transform="matrix(-.15277 .98826 -.99531 -.09668 10.39 20.201)" fill="#fff" fill-opacity=".2" r="1.041"/><circle cx="1.53" cy="1.53" transform="matrix(.68472 .72881 -.68896 .7248 15.108 27)" fill="#2FC4A7" r="1.53"/><circle cx="1.53" cy="1.53" transform="matrix(.68472 .72881 -.68896 .7248 15.108 27)" fill="#fff" fill-opacity=".2" r="1.53"/><g clip-path="url(#astb)" fill="#152242"><path d="M39.029 28.446a1 1 0 0 1 1.742 0l3.507 6.22a1 1 0 0 0 .673.49l7 1.412a1 1 0 0 1 .538 1.657l-4.833 5.258a1 1 0 0 0-.257.791l.82 7.094a1 1 0 0 1-1.41 1.024l-6.493-2.972a1 1 0 0 0-.832 0l-6.494 2.972a1 1 0 0 1-1.41-1.024l.82-7.094a1 1 0 0 0-.257-.791l-4.833-5.258a1 1 0 0 1 .539-1.657l7-1.412a1 1 0 0 0 .673-.49l3.507-6.22Z"/><path d="m41.935 37.532.339.602.675.135 4.062.82-2.804 3.05-.467.508.08.686.474 4.115-3.766-1.724-.627-.287-.627.288-3.769 1.723.476-4.115.079-.686-.467-.508-2.805-3.05 4.063-.82.676-.135.338-.602 2.035-3.611 2.035 3.611Z" stroke="#FAA21E" stroke-width="3.013"/></g></g><defs><clipPath id="asta"><path fill="#fff" transform="matrix(-1 0 0 1 50 0)" d="M0 0h50v50H0z"/></clipPath><clipPath id="astb"><path fill="#fff" transform="matrix(1 0 0 -1 0 50)" d="M0 0h50v50H0z"/></clipPath></defs></svg>