<?xml version="1.0" encoding="utf-8"?><svg fill="none" viewBox="0 0 50 50" xmlns="http://www.w3.org/2000/svg" width="50" height="50"><g clip-path="url(#asxa)"><path d="m25 6-7.5-3L11 5.5l2 6.5 12 3 12-3 2-6-6.5-3L25 6Z" fill="#546DDB"/><path d="m25 6-7.5-3L11 5.5l2 6.5 12 3 12-3 2-6-6.5-3L25 6Z" fill="#000" fill-opacity=".4"/><path d="M25 27.524v-12.52L36.905 12 35.88 27.17 41 47.79c-3.844 1.157-7.467 1.575-14.625 2.21-.183-9.095-.44-14.05-1.375-22.476ZM25 27.524v-12.52L13.095 12l1.024 15.17L9 47.79c4.515 1.684 8.331 1.746 14.625 2.21.245-10.518.634-14.914 1.375-22.476Z" fill="#546DDB"/><path d="m22.053 15.976-4.823 1.186-1.72-.45-.29-.076-.203.22-1.485 1.602.028.423.14.13.368.34 1.48-1.596 1.551.406.123.032.123-.03 4.558-1.121.32 1.929-4.935 5.716-.171.199.066.254 2.204 8.49-3.337.774-2.73-2.287-.61.729-.012.052 2.402 2.015-2.388 1.678.576.818 2.837-1.995 3.119-.724-.468 1.402-.75 2.25-.026.077v2.915L16.6 43.2l.4.3.4.3 1.5-2 .1-.133v-3.084l.284-.852.75 1.949.932-.36-1.184-3.082.692-2.08.047-.14-.037-.143-2.267-8.732 4.5-5.215 1.362 1.89-.435 2.24.491.095.49.096.315-1.612 4.259 3.632L29 29.974l-.013.256.201.16 2.283 1.827-.218 1.85-.25 2.124.497.058.497.06.142-1.208 1.3 1.083-.924 3.695L33 40l.486.121 1-4 .076-.304-.241-.2-2.041-1.703.218-1.856.032-.275-.217-.174-2.298-1.838.13-2.423 2.47 2.971.1.12.149.041 3.5 1.001.136-.481.138-.48-3.351-.959-3.19-3.832-.028-.034-.032-.028-5.056-4.31-1.753-2.432-.384-2.325 1.71-1.708-1.127-.284-1.373 1.368Z" fill="#7445B8"/><path d="m22.053 15.976-4.823 1.186-1.72-.45-.29-.076-.203.22-1.485 1.602.028.423.14.13.368.34 1.48-1.596 1.551.406.123.032.123-.03 4.558-1.121.32 1.929-4.935 5.716-.171.199.066.254 2.204 8.49-3.337.774-2.73-2.287-.61.729-.012.052 2.402 2.015-2.388 1.678.576.818 2.837-1.995 3.119-.724-.468 1.402-.75 2.25-.026.077v2.915L16.6 43.2l.4.3.4.3 1.5-2 .1-.133v-3.084l.284-.852.75 1.949.932-.36-1.184-3.082.692-2.08.047-.14-.037-.143-2.267-8.732 4.5-5.215 1.362 1.89-.435 2.24.491.095.49.096.315-1.612 4.259 3.632L29 29.974l-.013.256.201.16 2.283 1.827-.218 1.85-.25 2.124.497.058.497.06.142-1.208 1.3 1.083-.924 3.695L33 40l.486.121 1-4 .076-.304-.241-.2-2.041-1.703.218-1.856.032-.275-.217-.174-2.298-1.838.13-2.423 2.47 2.971.1.12.149.041 3.5 1.001.136-.481.138-.48-3.351-.959-3.19-3.832-.028-.034-.032-.028-5.056-4.31-1.753-2.432-.384-2.325 1.71-1.708-1.127-.284-1.373 1.368Z" fill="#fff" fill-opacity=".4"/><circle cx="1.53" cy="1.53" transform="matrix(.68472 .72881 -.68896 .7248 21.108 44.556)" fill="#2FC4A7" r="1.53"/><circle cx="1.53" cy="1.53" transform="matrix(.68472 .72881 -.68896 .7248 21.108 44.556)" fill="#fff" fill-opacity=".2" r="1.53"/><circle cx="1.113" cy="1.113" transform="matrix(.99903 .04401 .0125 .99992 13 45)" fill="#2FC4A7" r="1.113"/><circle cx="1.113" cy="1.113" transform="matrix(.99903 .04401 .0125 .99992 16 47)" fill="#2FC4A7" r="1.113"/><circle cx=".836" cy=".836" transform="matrix(.99903 .04401 .0125 .99992 9.996 45.665)" fill="#2FC4A7" r=".836"/><circle cx=".836" cy=".836" transform="matrix(.99903 .04401 .0125 .99992 9.996 45.665)" fill="#fff" fill-opacity=".2" r=".836"/><circle cx=".836" cy=".836" transform="matrix(.99903 .04401 .0125 .99992 19 40)" fill="#2FC4A7" r=".836"/><circle cx=".836" cy=".836" transform="matrix(.99903 .04401 .0125 .99992 12.5 41)" fill="#2FC4A7" r=".836"/><circle cx=".836" cy=".836" transform="matrix(.99903 .04401 .0125 .99992 12.5 41)" fill="#fff" fill-opacity=".2" r=".836"/><circle cx="1.024" cy="1.024" transform="matrix(.99903 .04401 .0125 .99992 32 39)" fill="#2FC4A7" r="1.024"/><circle cx="1.024" cy="1.024" transform="matrix(.99903 .04401 .0125 .99992 27 47)" fill="#2FC4A7" r="1.024"/><circle cx=".989" cy=".989" transform="matrix(.99903 .04401 .0125 .99992 38 44)" fill="#2FC4A7" r=".989"/><circle cx=".989" cy=".989" transform="matrix(.99903 .04401 .0125 .99992 38 44)" fill="#fff" fill-opacity=".2" r=".989"/><circle cx="1.315" cy="1.315" transform="matrix(.99903 .04401 .0125 .99992 32.166 45.335)" fill="#2FC4A7" r="1.315"/><circle cx="1.315" cy="1.315" transform="matrix(.99903 .04401 .0125 .99992 32.166 45.335)" fill="#fff" fill-opacity=".2" r="1.315"/><circle cx=".883" cy=".883" transform="matrix(.4614 .8872 -.8597 .51079 37.517 46)" fill="#2FC4A7" r=".883"/><circle cx=".774" cy=".774" transform="matrix(.4614 .8872 -.8597 .51079 30.33 42)" fill="#2FC4A7" r=".774"/><path d="m37.174 1-2.913 5.322c-.291.444-.728 1.922 1.165 2.514 1.697.53 3.107-.345 3.496-.887L43 2.33 37.174 1Z" fill="#546DDB"/><path d="M32.607 0 30.13 4.33c-.146.723-.583 2.14 1.748 2.572 2.333.434 2.77-.676 3.353-1.353L38 .812 32.607 0Z" fill="#546DDB"/><path d="M32.607 0 30.13 4.33c-.146.723-.583 2.14 1.748 2.572 2.333.434 2.77-.676 3.353-1.353L38 .812 32.607 0Z" fill="#fff" fill-opacity=".2"/><path d="m12.826 1 2.913 5.322c.291.444.728 1.922-1.165 2.514-1.697.53-3.107-.345-3.496-.887L7 2.33 12.826 1Z" fill="#546DDB"/><path d="m17.393 0 2.477 4.33c.146.723.583 2.14-1.748 2.572-2.332.434-2.77-.676-3.353-1.353L12 .812 17.393 0Z" fill="#546DDB"/><path d="m17.393 0 2.477 4.33c.146.723.583 2.14-1.748 2.572-2.332.434-2.77-.676-3.353-1.353L12 .812 17.393 0Z" fill="#fff" fill-opacity=".2"/><path d="m13.977 27.532 7.57-.032c.623-.25 1.953-.734 1.953-2.55 0-1.53-.902-2.06-1.62-2.31l-8.142-1.108.239 6ZM21.75 24a.75.75 0 1 1 0 1.5.75.75 0 0 1 0-1.5Z" fill="#546DDB"/><path d="m13.977 27.532 7.57-.032c.623-.25 1.953-.734 1.953-2.55 0-1.53-.902-2.06-1.62-2.31l-8.142-1.108.239 6ZM21.75 24a.75.75 0 1 1 0 1.5.75.75 0 0 1 0-1.5Z" fill="#000" fill-opacity=".4"/><path d="M28.12 22.64c-.718.25-1.62.78-1.62 2.31 0 1.816 1.33 2.3 1.952 2.55l7.571.032.238-6-8.141 1.108Zm.13 1.36a.75.75 0 1 1 0 1.5.75.75 0 0 1 0-1.5Z" fill="#546DDB"/><path d="M28.12 22.64c-.718.25-1.62.78-1.62 2.31 0 1.816 1.33 2.3 1.952 2.55l7.571.032.238-6-8.141 1.108Zm.13 1.36a.75.75 0 1 1 0 1.5.75.75 0 0 1 0-1.5Z" fill="#000" fill-opacity=".4"/><path d="M26 34.5c0-3.5-.056-6.118-1.26-8.787-.186 1.333-.24 2.287-.587 3.719-.187.771-.656 3.359-.653 4.568" stroke="#546DDB" stroke-width=".601" stroke-linejoin="round"/><path d="M26 34.5c0-3.5-.056-6.118-1.26-8.787-.186 1.333-.24 2.287-.587 3.719-.187.771-.656 3.359-.653 4.568" stroke="#fff" stroke-opacity=".95" stroke-width=".601" stroke-linejoin="round"/><path d="M24.717 25.054C23.66 25.536 21 26.599 21 26.984c0 .483 1.058 1.449 1.763 1.449.564 0 1.954-2.172 1.954-3.38Zm0 0c.235 1.367 1.713 3.379 2.277 3.379.706 0 1.44-.869 1.44-1.352 0-.386-2.542-1.464-3.717-2.027Z" stroke="#546DDB" stroke-width=".676" stroke-linejoin="round"/><path d="M24.717 25.054C23.66 25.536 21 26.599 21 26.984c0 .483 1.058 1.449 1.763 1.449.564 0 1.954-2.172 1.954-3.38Zm0 0c.235 1.367 1.713 3.379 2.277 3.379.706 0 1.44-.869 1.44-1.352 0-.386-2.542-1.464-3.717-2.027Z" stroke="#fff" stroke-opacity=".95" stroke-width=".676" stroke-linejoin="round"/><path d="M22 24.8c2.267.348 3.582.344 6 0" stroke="#546DDB" stroke-width=".68"/><path d="M22 24.8c2.267.348 3.582.344 6 0" stroke="#fff" stroke-opacity=".95" stroke-width=".68"/><circle cx="17.5" cy="5" r="1" fill="#546DDB"/><circle cx="17.5" cy="5" r="1" fill="#fff" fill-opacity=".95"/><circle cx="32.5" cy="5" r="1" fill="#546DDB"/><circle cx="32.5" cy="5" r="1" fill="#fff" fill-opacity=".95"/><circle cx="13.5" cy="7" r="1" fill="#546DDB"/><circle cx="13.5" cy="7" r="1" fill="#fff" fill-opacity=".8"/><circle cx="36.5" cy="7" r="1" fill="#546DDB"/><circle cx="36.5" cy="7" r="1" fill="#fff" fill-opacity=".8"/><g clip-path="url(#asxb)" fill="#152242"><path d="M39.029 28.446a1 1 0 0 1 1.742 0l3.507 6.22a1 1 0 0 0 .673.49l7 1.412a1 1 0 0 1 .538 1.657l-4.833 5.258a1 1 0 0 0-.257.791l.82 7.094a1 1 0 0 1-1.41 1.024l-6.493-2.972a1 1 0 0 0-.832 0l-6.494 2.972a1 1 0 0 1-1.41-1.024l.82-7.094a1 1 0 0 0-.257-.791l-4.833-5.258a1 1 0 0 1 .539-1.657l7-1.412a1 1 0 0 0 .673-.49l3.507-6.22Z"/><path d="m41.935 37.532.339.602.675.135 4.062.82-2.804 3.05-.467.508.08.686.474 4.115-3.766-1.724-.627-.287-.627.288-3.769 1.723.476-4.115.079-.686-.467-.508-2.805-3.05 4.063-.82.676-.135.338-.602 2.035-3.611 2.035 3.611Z" stroke="#FAA21E" stroke-width="3.013"/></g></g><defs><clipPath id="asxa"><path fill="#fff" transform="matrix(-1 0 0 1 50 0)" d="M0 0h50v50H0z"/></clipPath><clipPath id="asxb"><path fill="#fff" transform="matrix(1 0 0 -1 0 50)" d="M0 0h50v50H0z"/></clipPath></defs></svg>