<svg width="50" height="50" viewBox="0 0 50 50" fill="none" xmlns="http://www.w3.org/2000/svg">
        <circle cx="24.907" cy="24.907" r="22.417" stroke="#1D8CE0" stroke-width=".996" />
        <circle cx="24.907" cy="24.907" r="22.417" stroke="#fff" stroke-opacity=".95" stroke-width=".996" />
        <path
            d="M40.35 31.881c3.188-7.571 0-16.438-4.981-20.922.996 4.484.298 11.159-2.491 17.934-2.79 6.774-9.133 11.125-11.956 12.453 5.48 1.495 16.24-1.893 19.428-9.464Z"
            fill="#FEFEFE" fill-opacity=".15" />
        <circle cx="25" cy="24.259" r="12.174" fill="#FEFEFE" />
        <circle cx="25" cy="24.259" r="12.174" stroke="#546DDB" stroke-width=".84" />
        <circle cx="25" cy="24.259" r="12.174" stroke="#000" stroke-opacity=".2" stroke-width=".84" />
        <circle cx="25" cy="24.259" r="10.741" stroke="#546DDB" stroke-width=".741" />
        <circle cx="25" cy="24.259" r="10.741" stroke="#000" stroke-opacity=".2" stroke-width=".741" />
        <path d="m36 14-8.2 11L36 36l-11-8.2L14 36l8.2-11L14 14l11 8.2L36 14Z" fill="#546DDB" />
        <path d="m36 14-8.2 11L36 36l-11-8.2L14 36l8.2-11L14 14l11 8.2L36 14Z" fill="#000" fill-opacity=".2" />
        <path d="m25 43.52 1.701-14.414-1.7-4.106v18.52Z" fill="#546DDB" />
        <path d="m25 43.52 1.701-14.414-1.7-4.106v18.52Z" fill="#fff" fill-opacity=".4" />
        <path d="M29.107 26.7 43.52 25H25l4.107 1.7Z" fill="#546DDB" />
        <path d="M29.107 26.7 43.52 25H25l4.107 1.7Z" fill="#fff" fill-opacity=".4" />
        <path d="m43.52 25-14.414-1.701-4.106 1.7h18.52Z" fill="#546DDB" />
        <path d="m43.52 25-14.414-1.701-4.106 1.7h18.52Z" fill="#fff" fill-opacity=".4" />
        <path d="m26.701 20.894-1.7-14.414V25l1.7-4.106Z" fill="#546DDB" />
        <path d="m26.701 20.894-1.7-14.414V25l1.7-4.106Z" fill="#fff" fill-opacity=".4" />
        <path d="m25 6.48-1.7 14.414L25 25V6.48Z" fill="#546DDB" />
        <path d="m25 6.48-1.7 14.414L25 25V6.48Z" fill="#fff" fill-opacity=".4" />
        <path d="m20.894 23.299-14.413 1.7H25l-4.107-1.7Z" fill="#546DDB" />
        <path d="m20.894 23.299-14.413 1.7H25l-4.107-1.7Z" fill="#fff" fill-opacity=".4" />
        <path d="m6.48 25 14.414 1.7L25 25H6.48Z" fill="#546DDB" />
        <path d="m6.48 25 14.414 1.7L25 25H6.48Z" fill="#fff" fill-opacity=".4" />
        <path d="M23.3 29.106 25 43.52V25l-1.7 4.107Z" fill="#546DDB" />
        <path d="M23.3 29.106 25 43.52V25l-1.7 4.107Z" fill="#fff" fill-opacity=".4" />
        <path d="M29.107 26.7 43.52 25H25l4.107 1.7Z" fill="#546DDB" />
        <path d="M29.107 26.7 43.52 25H25l4.107 1.7Z" fill="#000" fill-opacity=".2" />
        <path d="m26.701 20.894-1.7-14.414V25l1.7-4.106Z" fill="#546DDB" />
        <path d="m26.701 20.894-1.7-14.414V25l1.7-4.106Z" fill="#000" fill-opacity=".2" />
        <path d="m20.894 23.299-14.413 1.7H25l-4.107-1.7Z" fill="#546DDB" />
        <path d="m20.894 23.299-14.413 1.7H25l-4.107-1.7Z" fill="#000" fill-opacity=".2" />
        <path d="M23.3 29.106 25 43.52V25l-1.7 4.107Z" fill="#546DDB" />
        <path d="M23.3 29.106 25 43.52V25l-1.7 4.107Z" fill="#000" fill-opacity=".2" />
        <circle cx="25" cy="25" r="4.074" fill="#546DDB" />
        <circle cx="25" cy="25" r="4.074" fill="#000" fill-opacity=".2" />
        <circle cx="25" cy="25" r="4.074" stroke="#546DDB" stroke-width=".741" />
        <circle cx="25" cy="25" r="4.074" stroke="#fff" stroke-opacity=".4" stroke-width=".741" />
        <circle cx="25" cy="25" r="2.593" fill="#546DDB" />
        <circle cx="25" cy="25" r="2.593" fill="#000" fill-opacity=".2" />
        <circle cx="25" cy="25" r="2.593" stroke="#546DDB" stroke-width=".741" />
        <circle cx="25" cy="25" r="2.593" stroke="#fff" stroke-opacity=".95" stroke-width=".741" />
        <path
            d="M14.446 8.967c-2.84 2.501-3.985 5.977-3.985 8.966.486-2.06 3.582-6.233 6.476-7.97 2.463-1.478 4.483-2.989 7.97-3.487-3.487-.498-7.62-.01-10.46 2.49ZM33.874 39.852c3.487-1.993 6.974-6.974 6.974-9.963-.74 2.989-4.685 6.815-7.472 8.469-3.052 1.81-8.967 3.486-12.454 3.486 3.487.997 8.967.285 12.952-1.992Z"
            fill="#FEFEFE" />
    </svg>