<svg width="50" height="50" viewBox="0 0 50 50" fill="none" xmlns="http://www.w3.org/2000/svg">
        <g clip-path="url(#auca)">
            <path
                d="M27.582 46.175 47.417 29.58c.714-.597 1.07-1.379 1.07-2.161l.013-5H1.513v5c0 .782.356 1.564 1.07 2.16l19.834 16.597c1.427 1.194 3.74 1.194 5.165 0Z"
                fill="#546DDB" />
            <path
                d="M27.582 46.175 47.417 29.58c.714-.597 1.07-1.379 1.07-2.161l.013-5H1.513v5c0 .782.356 1.564 1.07 2.16l19.834 16.597c1.427 1.194 3.74 1.194 5.165 0Z"
                fill="#000" fill-opacity=".2" />
            <rect width="32.597" height="32.597" rx="3.367" transform="matrix(.76694 -.64172 .76694 .64172 0 22.418)"
                fill="#546DDB" />
            <rect width="32.597" height="32.597" rx="3.367" transform="matrix(.76694 -.64172 .76694 .64172 0 22.418)"
                fill="#fff" fill-opacity=".8" />
            <rect width="28.178" height="28.178" rx="2" transform="scale(1.08462 .90752) rotate(-45 31.38 8.58)"
                fill="#546DDB" />
            <path
                d="M23.466 5.62 4.923 21.133c-.689.577-.817 1.445-.385 2.13.05-.273.081-.428.462-.764L24.337 6.74c.523-.342.804-.365 1.326 0L45 22.5c.446.471.427.614.393.866v.001c.513-.7.408-1.627-.316-2.233L26.534 5.62c-.847-.709-2.22-.709-3.068 0Z"
                fill="#546DDB" />
            <path
                d="M23.466 5.62 4.923 21.133c-.689.577-.817 1.445-.385 2.13.05-.273.081-.428.462-.764L24.337 6.74c.523-.342.804-.365 1.326 0L45 22.5c.446.471.427.614.393.866v.001c.513-.7.408-1.627-.316-2.233L26.534 5.62c-.847-.709-2.22-.709-3.068 0Z"
                fill="#000" fill-opacity=".4" />
            <path
                d="M16.117 23.429c.466-.39 1.222-.39 1.688 0l2.206 1.846 1.683 1.408-1.687 1.412-3.046-2.548-2.203 1.843L25 35.959l2.202-1.843-3.305-2.766a.921.921 0 0 1-.35-.706v-.001a.92.92 0 0 1 .35-.705l.603-.505 2.702-2.26-2.786-2.332a.921.921 0 0 1-.35-.706.92.92 0 0 1 .35-.706l1.288-1.078 3.38-2.828 1.687 1.412-3.824 3.2L29 25.852l.734.614a.92.92 0 0 1 .35.706.92.92 0 0 1-.35.707l-3.306 2.765 2.462 2.06 6.35-5.314-3.564-2.983 1.688-1.412 3.564 2.983 4.084-3.417 1.688 1.413-16.856 14.103c-.466.39-1.222.39-1.688 0l-11.929-9.981a.92.92 0 0 1-.35-.706.92.92 0 0 1 .35-.707l3.89-3.254Zm8.04-13.67c.465-.39 1.22-.39 1.687 0L37 19.094l1.55 1.297-1.687 1.412L25 11.877l-6.351 5.315 2.46 2.058 3.825-3.199 1.687 1.413-4.668 3.905c-.466.39-1.222.389-1.688-.001l-3.303-2.764-7.974 6.671L7.3 23.863l1.317-1.102 15.54-13.002Z"
                fill="#546DDB" />
            <path
                d="M16.117 23.429c.466-.39 1.222-.39 1.688 0l2.206 1.846 1.683 1.408-1.687 1.412-3.046-2.548-2.203 1.843L25 35.959l2.202-1.843-3.305-2.766a.921.921 0 0 1-.35-.706v-.001a.92.92 0 0 1 .35-.705l.603-.505 2.702-2.26-2.786-2.332a.921.921 0 0 1-.35-.706.92.92 0 0 1 .35-.706l1.288-1.078 3.38-2.828 1.687 1.412-3.824 3.2L29 25.852l.734.614a.92.92 0 0 1 .35.706.92.92 0 0 1-.35.707l-3.306 2.765 2.462 2.06 6.35-5.314-3.564-2.983 1.688-1.412 3.564 2.983 4.084-3.417 1.688 1.413-16.856 14.103c-.466.39-1.222.39-1.688 0l-11.929-9.981a.92.92 0 0 1-.35-.706.92.92 0 0 1 .35-.707l3.89-3.254Zm8.04-13.67c.465-.39 1.22-.39 1.687 0L37 19.094l1.55 1.297-1.687 1.412L25 11.877l-6.351 5.315 2.46 2.058 3.825-3.199 1.687 1.413-4.668 3.905c-.466.39-1.222.389-1.688-.001l-3.303-2.764-7.974 6.671L7.3 23.863l1.317-1.102 15.54-13.002Z"
                fill="#000" fill-opacity=".4" />
            <path d="M7.3 21.803v2.06l1.317-1.102-1.317-.958Z" fill="#546DDB" />
            <path d="M7.3 21.803v2.06l1.317-1.102-1.317-.958Z" fill="#000" fill-opacity=".4" />
            <path d="m12.227 26.683.817-.683-1.166-.572v1.962a.92.92 0 0 1 .35-.707Z" fill="#546DDB" />
            <path d="m12.227 26.683.817-.683-1.166-.572v1.962a.92.92 0 0 1 .35-.707Z" fill="#000" fill-opacity=".4" />
            <path d="m24.934 16.051 1.687 1.413V15.5l-1.687.551Z" fill="#546DDB" />
            <path d="m24.934 16.051 1.687 1.413V15.5l-1.687.551Z" fill="#000" fill-opacity=".4" />
            <path d="m29.084 19.523 1.687 1.412v-2.001l-1.687.589Z" fill="#546DDB" />
            <path d="m29.084 19.523 1.687 1.412v-2.001l-1.687.589Z" fill="#000" fill-opacity=".4" />
            <path d="M38.55 20.392v-2.004l-1.55.706 1.55 1.297Z" fill="#546DDB" />
            <path d="M38.55 20.392v-2.004l-1.55.706 1.55 1.297Z" fill="#000" fill-opacity=".4" />
            <path d="m41.012 22.561 1.688 1.413V22l-1.688.561Z" fill="#546DDB" />
            <path d="m41.012 22.561 1.688 1.413V22l-1.688.561Z" fill="#000" fill-opacity=".4" />
            <path d="M29.734 26.466a.92.92 0 0 1 .35.706v-1.897L29 25.853l.734.613Z" fill="#546DDB" />
            <path d="M29.734 26.466a.92.92 0 0 1 .35.706v-1.897L29 25.853l.734.613Z" fill="#000" fill-opacity=".4" />
            <path d="M23.547 30.643a.92.92 0 0 1 .35-.705l.603-.505-.953-.933v2.143Z" fill="#546DDB" />
            <path d="M23.547 30.643a.92.92 0 0 1 .35-.705l.603-.505-.953-.933v2.143Z" fill="#000" fill-opacity=".4" />
            <path d="M21.694 26.683v-1.982l-1.683.574 1.683 1.408Z" fill="#546DDB" />
            <path d="M21.694 26.683v-1.982l-1.683.574 1.683 1.408Z" fill="#000" fill-opacity=".4" />
            <path d="M24.066 24.135a.92.92 0 0 1 .35-.706l1.288-1.078-1.638-.262v2.046Z" fill="#546DDB" />
            <path d="M24.066 24.135a.92.92 0 0 1 .35-.706l1.288-1.078-1.638-.262v2.046Z" fill="#000"
                fill-opacity=".4" />
            <path
                d="m8.144 22.569 8.817-7.377m20.746 3.905L25 8.465l-8.039 6.726m24.895 6.076-4.927 4.123M16.96 15.19l4.148 3.471 4.669-3.904M32.52 21.7l4.409 3.689m0 0L25 35.37l-11.929-9.98 3.89-3.255 3.89 3.255m9.076-7.16-4.668 3.905 3.63 3.038-4.148 3.471 4.149 3.472"
                stroke="#898989" stroke-width="2.2" stroke-linejoin="round" />
            <path
                d="m8.144 22.569 8.817-7.377m20.746 3.905L25 8.465l-8.039 6.726m24.895 6.076-4.927 4.123M16.96 15.19l4.148 3.471 4.669-3.904M32.52 21.7l4.409 3.689m0 0L25 35.37l-11.929-9.98 3.89-3.255 3.89 3.255m9.076-7.16-4.668 3.905 3.63 3.038-4.148 3.471 4.149 3.472"
                stroke="#fff" stroke-opacity=".95" stroke-width="2.2" stroke-linejoin="round" />
        </g>
        <defs>
            <clipPath id="auca">
                <path fill="#fff" transform="matrix(-1 0 0 1 50 0)" d="M0 0h50v50H0z" />
            </clipPath>
        </defs>
    </svg>