<svg width="50" height="50" viewBox="0 0 50 50" fill="none" xmlns="http://www.w3.org/2000/svg">
<path d="M21.5 15.5V8.5L28 7V16L21.5 15.5Z" fill="#1D8CE0"/>
<path d="M21.5 15.5V8.5L28 7V16L21.5 15.5Z" fill="white" fill-opacity="0.8"/>
<path d="M39.4507 28.1717C38.8605 24.2342 35.459 13 25.0047 13C13.3888 13 11.0563 24.7888 10.5493 28.1717C9.83442 32.9412 9.99962 39.1207 8.83803 42.6699C8.15064 44.7703 8.01408 45.0863 7 46.9718C9.90398 47.6479 13.8534 49 25.0047 49C36.156 49 41.2576 47.9859 43 46.9718C41.4789 45.5696 40.9293 44.2195 40.4648 42.6699C39.4507 39.287 40.1474 32.8203 39.4507 28.1717Z" fill="#1D8CE0"/>
<path d="M39.4507 28.1717C38.8605 24.2342 35.459 13 25.0047 13C13.3888 13 11.0563 24.7888 10.5493 28.1717C9.83442 32.9412 9.99962 39.1207 8.83803 42.6699C8.15064 44.7703 8.01408 45.0863 7 46.9718C9.90398 47.6479 13.8534 49 25.0047 49C36.156 49 41.2576 47.9859 43 46.9718C41.4789 45.5696 40.9293 44.2195 40.4648 42.6699C39.4507 39.287 40.1474 32.8203 39.4507 28.1717Z" fill="white" fill-opacity="0.4"/>
<path d="M18.7778 3C18.0667 3 17.2963 2.55556 17 2.33333L21.4444 11C23.8237 10.4451 25.5949 10.4878 28.0769 11L33 3C32.1111 3.22222 30.1556 3.66667 29.4444 3.66667C28.5556 3.66667 29.4444 2.33333 27.6667 1.66667C25.8889 1 25.8889 2.33333 24.1111 2.33333C22.3333 2.33333 23.2222 1 21.4444 1C19.6667 1 19.6667 3 18.7778 3Z" fill="#1D8CE0"/>
<path d="M18.7778 3C18.0667 3 17.2963 2.55556 17 2.33333L21.4444 11C23.8237 10.4451 25.5949 10.4878 28.0769 11L33 3C32.1111 3.22222 30.1556 3.66667 29.4444 3.66667C28.5556 3.66667 29.4444 2.33333 27.6667 1.66667C25.8889 1 25.8889 2.33333 24.1111 2.33333C22.3333 2.33333 23.2222 1 21.4444 1C19.6667 1 19.6667 3 18.7778 3Z" fill="white" fill-opacity="0.4"/>
<path d="M16.0645 32C11.7661 32 13.0991 40.3439 11.152 44.5715C9.83613 47.4286 17.2926 48 24.6613 48C34.5053 48 41.4711 46.0205 38.1704 45.1429C20.9769 40.5715 23.4331 32 16.0645 32Z" fill="#1D8CE0"/>
<path d="M16.0645 32C11.7661 32 13.0991 40.3439 11.152 44.5715C9.83613 47.4286 17.2926 48 24.6613 48C34.5053 48 41.4711 46.0205 38.1704 45.1429C20.9769 40.5715 23.4331 32 16.0645 32Z" fill="white" fill-opacity="0.2"/>
</svg>
