<svg width="50" height="50" viewBox="0 0 50 50" fill="none" xmlns="http://www.w3.org/2000/svg">
<path d="M33.3406 10.4638L4.32608 8.23193L5.44202 38.3624L32.7826 44.5L33.3406 10.4638Z" fill="#C57A09"/>
<path d="M30.7739 13.3994L7.11594 11.5796L8.02586 36.1475L30.3189 41.1521L30.7739 13.3994Z" fill="#1D8CE0"/>
<path d="M30.7739 13.3994L7.11594 11.5796L8.02586 36.1475L30.3189 41.1521L30.7739 13.3994Z" fill="black" fill-opacity="0.2"/>
<path d="M12.6957 12.1377L12.1377 36.6884M16.6015 37.8044L14.9276 12.1377M21.0652 12.6957L23.2971 38.9203M26.6449 39.4783L28.3189 13.2536" stroke="#1D8CE0" stroke-width="1.11594"/>
<path d="M46.1739 7.11597L33.3406 10.4638L32.7826 44.5L45.058 33.3406L46.1739 7.11597Z" fill="#FAA21E"/>
<path d="M46.1739 7.11597L33.3406 10.4638L32.7826 44.5L45.058 33.3406L46.1739 7.11597Z" fill="black" fill-opacity="0.4"/>
<path d="M45.0538 10.4639L34.9021 13.1121L34.4607 40.0363L44.1711 31.2087L45.0538 10.4639Z" fill="#1D8CE0"/>
<path d="M45.0538 10.4639L34.9021 13.1121L34.4607 40.0363L44.1711 31.2087L45.0538 10.4639Z" fill="black" fill-opacity="0.4"/>
<path d="M39.4783 35.0145L36.1304 12.6956M42.2681 11.0217L41.1522 33.3406" stroke="#1D8CE0" stroke-width="1.11594"/>
<path d="M39.4783 35.0145L36.1304 12.6956M42.2681 11.0217L41.1522 33.3406" stroke="black" stroke-opacity="0.2" stroke-width="1.11594"/>
<path d="M21.6232 6L4.32608 8.23188L33.3406 10.4638L46.1739 7.11594L21.6232 6Z" fill="#FAA21E"/>
<path d="M21.6232 6L4.32608 8.23188L33.3406 10.4638L46.1739 7.11594L21.6232 6Z" fill="black" fill-opacity="0.1"/>
<path d="M22.1812 6.55786L8.78986 8.23174L31.6146 9.98749L41.7101 7.35387L22.1812 6.55786Z" fill="#546DDB"/>
<path d="M22.1812 6.55786L8.78986 8.23174L31.6146 9.98749L41.7101 7.35387L22.1812 6.55786Z" fill="black" fill-opacity="0.55"/>
<path d="M9.34782 35.5723L8.00869 36.1303L7.11594 11.5796L8.45507 11.6912L9.34782 35.5723Z" fill="#FAA21E"/>
<path d="M9.34782 35.5723L8.00869 36.1303L7.11594 11.5796L8.45507 11.6912L9.34782 35.5723Z" fill="black" fill-opacity="0.4"/>
<path d="M30.3275 40.106L9.34782 35.5725L8.0087 36.1305L30.3275 41.1522V40.106Z" fill="#FAA21E"/>
<path d="M30.3275 40.106L9.34782 35.5725L8.0087 36.1305L30.3275 41.1522V40.106Z" fill="black" fill-opacity="0.6"/>
<path d="M22.1812 7.6738V6.55786L41.7101 7.39482L37.8043 8.39917L22.1812 7.6738Z" fill="#C57A09"/>
<path d="M44.221 31.1089L34.4565 40.0364V38.6973L43.1051 31.1089H44.221Z" fill="#FAA21E"/>
<path d="M44.221 31.1089L34.4565 40.0364V38.6973L43.1051 31.1089H44.221Z" fill="black" fill-opacity="0.8"/>
<path d="M43.942 10.7429L43.105 31.1088H44.221L45.0579 10.4639L43.942 10.7429Z" fill="#FAA21E"/>
<path d="M43.942 10.7429L43.105 31.1088H44.221L45.0579 10.4639L43.942 10.7429Z" fill="black" fill-opacity="0.6"/>
<path d="M22.1812 6.55786L8.78986 8.23177L13.2536 8.56656L22.1812 7.6738V6.55786Z" fill="#FAA21E"/>
<path d="M22.1812 6.55786L8.78986 8.23177L13.2536 8.56656L22.1812 7.6738V6.55786Z" fill="black" fill-opacity="0.4"/>
</svg>
