<?xml version="1.0" encoding="utf-8"?><svg fill="none" viewBox="0 0 50 50" width="50" height="50" xmlns="http://www.w3.org/2000/svg"><g clip-path="url(#apta)"><path d="M9.737 2.014H40v3l1 2h4v41H11.316c-.527 0-3.158 0-4.737-1.568C5 44.877 5 43.309 5 42.786V6.718c0-1.045.737-2.3 1.579-3.136.842-.836 2.105-1.568 3.158-1.568Z" fill="#7445B8"/><path d="m43 9-3-4v35.031h-2L43 46V9Z" fill="#898989"/><path d="m43 9-3-4v35.031h-2L43 46V9Z" fill="#fff" fill-opacity=".2"/><path d="M10.093 40H38l5 6H10.093c-.504 0-3.119-.918-3.119-3.16C6.974 40.6 9.59 40 10.093 40Z" fill="#898989"/><path d="M10.093 40H38l5 6H10.093c-.504 0-3.119-.918-3.119-3.16C6.974 40.6 9.59 40 10.093 40Z" fill="#fff" fill-opacity=".6"/><g clip-path="url(#aptb)"><path d="M13.443 8.51c3.352-5.737 7.658.172 9.392 3.844 1.671-4.162 6.335-9.187 9.853-4.125 3.519 5.063-4.197 13.951-9.482 17.041-4.651-3.196-13.116-11.022-9.763-16.76Z" fill="#7445B8"/><path d="M13.443 8.51c3.352-5.737 7.658.172 9.392 3.844 1.671-4.162 6.335-9.187 9.853-4.125 3.519 5.063-4.197 13.951-9.482 17.041-4.651-3.196-13.116-11.022-9.763-16.76Z" fill="#fff" fill-opacity=".95"/><path d="M17.564 10.307c.393-.845 1.202-1.702-.061-2.083-1.264-.38-2.056.893-2.45 1.739-.497 1.069-.76 2.524.501 2.904 1.682.508 1.618-1.714 2.01-2.56Z" fill="#7445B8"/><path d="M17.564 10.307c.393-.845 1.202-1.702-.061-2.083-1.264-.38-2.056.893-2.45 1.739-.497 1.069-.76 2.524.501 2.904 1.682.508 1.618-1.714 2.01-2.56Z" fill="#fff" fill-opacity=".6"/><path d="M17.626 14.346c-.552-.207-1.484-.24-1.69.312-.207.553-.13 1.526.312 1.69.553.207 1.398.469 1.69-.312.207-.553.079-1.545-.312-1.69Z" fill="#7445B8"/><path d="M17.626 14.346c-.552-.207-1.484-.24-1.69.312-.207.553-.13 1.526.312 1.69.553.207 1.398.469 1.69-.312.207-.553.079-1.545-.312-1.69Z" fill="#fff" fill-opacity=".6"/><path d="M18.315 22.42c.012-.637-.324-1.51-.493-1.868l1.575.828c-.092.175-.28.684-.292 1.32-.016.796.742 2.668.726 3.464a1.062 1.062 0 0 1-1.082 1.04c-.53-.011-1.05-.552-1.04-1.083.011-.53.59-2.906.606-3.702Z" fill="#7445B8"/><path d="M18.315 22.42c.012-.637-.324-1.51-.493-1.868l1.575.828c-.092.175-.28.684-.292 1.32-.016.796.742 2.668.726 3.464a1.062 1.062 0 0 1-1.082 1.04c-.53-.011-1.05-.552-1.04-1.083.011-.53.59-2.906.606-3.702Z" fill="#fff" fill-opacity=".95"/><path d="M22.569 25.547c-.366-.656-1.33-2.18-1.797-2.607L29.6 19.8c-1.2.9-1.01 5.14-2.352 5.201-.474.021-.776-2.317-2.988.806-.439.62-.325 3.578-.66 3.593-.335.015-.704-3.267-1.031-3.853Z" fill="#7445B8"/><path d="M22.569 25.547c-.366-.656-1.33-2.18-1.797-2.607L29.6 19.8c-1.2.9-1.01 5.14-2.352 5.201-.474.021-.776-2.317-2.988.806-.439.62-.325 3.578-.66 3.593-.335.015-.704-3.267-1.031-3.853Z" fill="#fff" fill-opacity=".95"/><path d="M13.766 17.035c.181-.792.25-.873.37-1.401.164.428.243.59.494 1.362.16.488.981 2.567-.315 2.625-1.296.058-.606-2.336-.549-2.586Z" fill="#7445B8"/><path d="M13.766 17.035c.181-.792.25-.873.37-1.401.164.428.243.59.494 1.362.16.488.981 2.567-.315 2.625-1.296.058-.606-2.336-.549-2.586Z" fill="#fff" fill-opacity=".95"/><path d="M31.498 13.234c.244-1.065.336-1.174.498-1.884.22.575.327.793.665 1.832.214.657 1.32 3.454-.424 3.532-1.745.079-.816-3.143-.739-3.48Z" fill="#7445B8"/><path d="M31.498 13.234c.244-1.065.336-1.174.498-1.884.22.575.327.793.665 1.832.214.657 1.32 3.454-.424 3.532-1.745.079-.816-3.143-.739-3.48Z" fill="#fff" fill-opacity=".95"/><path d="M31.766 20.263c.26-.942.347-1.036.52-1.663.174.523.26.721.52 1.663.165.595 1.041 3.137-.52 3.137-1.56 0-.602-2.84-.52-3.137Z" fill="#7445B8"/><path d="M31.766 20.263c.26-.942.347-1.036.52-1.663.174.523.26.721.52 1.663.165.595 1.041 3.137-.52 3.137-1.56 0-.602-2.84-.52-3.137Z" fill="#fff" fill-opacity=".95"/><path d="M22.888 32.47c.347-1.058.463-1.764.694-2.47.231.588.347 1.412.694 2.47.219.67 1.387 3.53-.694 3.53s-.803-3.195-.694-3.53Z" fill="#7445B8"/><path d="M22.888 32.47c.347-1.058.463-1.764.694-2.47.231.588.347 1.412.694 2.47.219.67 1.387 3.53-.694 3.53s-.803-3.195-.694-3.53Z" fill="#fff" fill-opacity=".95"/><path d="M13.72 25.455c.228-.824.304-.906.456-1.455.151.457.227.631.455 1.455.144.52.91 2.745-.455 2.745-1.366 0-.528-2.485-.456-2.745Z" fill="#7445B8"/><path d="M13.72 25.455c.228-.824.304-.906.456-1.455.151.457.227.631.455 1.455.144.52.91 2.745-.455 2.745-1.366 0-.528-2.485-.456-2.745Z" fill="#fff" fill-opacity=".95"/><path d="M26.6 28.392c0-.537.6-2.95.6-3.754 0-.306-.183-1.344-.3-2.949-.067-.919-1.995-1.42-2.1-1.608l5.4-2.681c-1.2 1.072-1.737 2.97-1.8 4.558-.062 1.56-.3 2.63-.3 2.948 0 .805.9 2.681.9 3.486 0 .645-.6 1.608-1.2 1.608s-1.2-1.072-1.2-1.608Z" fill="#7445B8"/><path d="M26.6 28.392c0-.537.6-2.95.6-3.754 0-.306-.183-1.344-.3-2.949-.067-.919-1.995-1.42-2.1-1.608l5.4-2.681c-1.2 1.072-1.737 2.97-1.8 4.558-.062 1.56-.3 2.63-.3 2.948 0 .805.9 2.681.9 3.486 0 .645-.6 1.608-1.2 1.608s-1.2-1.072-1.2-1.608Z" fill="#fff" fill-opacity=".95"/></g></g><defs><clipPath id="apta"><path fill="#fff" transform="matrix(-1 0 0 1 50 0)" d="M0 0h50v50H0z"/></clipPath><clipPath id="aptb"><path fill="#fff" transform="matrix(-1 0 0 1 38 6)" d="M0 0h30v30H0z"/></clipPath></defs></svg>