<svg width="51" height="50" viewBox="0 0 51 50" fill="none" xmlns="http://www.w3.org/2000/svg">
<path fill-rule="evenodd" clip-rule="evenodd" d="M36.5833 14.3601C34.8532 13.7421 33.4921 13.256 32.5 14C31.3154 14.8885 31.4259 17.5122 31.5151 19.6319C31.5557 20.5956 31.5919 21.4551 31.5 22C31.3836 22.69 31.0238 22.837 30.6857 22.9752C30.3306 23.1203 29.9995 23.2555 30 24C30.0006 24.9261 30.4487 25.4805 30.8173 25.9363C31.234 26.4517 31.5489 26.8413 31 27.5C29.3514 29.4783 30.0946 30.3695 30.6485 31.0338C30.9346 31.3769 31.1703 31.6594 31 32L30.5707 32.0964C30.0665 31.9019 29.4881 31.7126 28.6096 31.5662C26.925 31.2854 25.2403 31.793 23.29 32.3806C21.7673 32.8394 20.0826 33.3469 18.1096 33.5662C13.6096 34.0662 8.10962 34.0662 3.60962 33.5662C0.00961903 33.1662 -0.223714 31.3995 0.109619 30.5662C1.77629 30.5662 5.50962 30.0662 7.10962 28.0662C8.70962 26.0662 10.1096 25.8995 10.6096 26.0662C10.6096 25.2328 10.8096 23.5662 11.6096 23.5662C12.4096 23.5662 13.943 24.2328 14.6096 24.5662C14.6096 23.8995 14.7096 22.4662 15.1096 22.0662C15.5096 21.6662 17.2763 22.2328 18.1096 22.5662C17.7763 21.8995 17.3096 20.4662 18.1096 20.0662C18.9096 19.6662 20.1096 19.8995 20.6096 20.0662C21.443 20.3995 23.3096 20.5662 24.1096 18.5662C24.9096 16.5662 25.443 15.3995 25.6096 15.0662L24.1096 13.5662L26.1096 11.0662C25.6096 10.7328 24.6096 9.86616 24.6096 9.06616C24.6096 8.56616 24.9846 8.19116 25.3596 7.81616C25.7346 7.44116 26.1096 7.06616 26.1096 6.56616C26.1096 6.30962 26.0438 5.82271 25.9628 5.22363C25.7282 3.48756 25.3662 0.809534 26.1096 0.0661157C26.4756 0.0661157 27.1096 0.334065 27.9135 0.673811C29.3058 1.26227 31.2077 2.06612 33.1096 2.06612C34.6539 2.06612 36.1982 1.40365 37.5379 0.828948C38.8008 0.28723 39.8818 -0.176499 40.6096 0.0661157C41.702 0.430226 41.2034 2.65043 40.8517 4.21653C40.7204 4.80101 40.6096 5.29438 40.6096 5.56616C40.6096 6.01565 40.9127 6.36412 41.2464 6.74779C41.655 7.21769 42.1096 7.7404 42.1096 8.56616C42.1096 9.76616 41.1096 10.7328 40.6096 11.0662C41.1096 11.5662 42.1096 12.7662 42.1096 13.5662C42.1096 14.1438 41.5883 14.93 41.1102 15.5106C39.3927 15.3636 37.8838 14.8246 36.5833 14.3601Z" fill="#FAA21E"/>
<path fill-rule="evenodd" clip-rule="evenodd" d="M36.5833 14.3601C34.8532 13.7421 33.4921 13.256 32.5 14C31.3154 14.8885 31.4259 17.5122 31.5151 19.6319C31.5557 20.5956 31.5919 21.4551 31.5 22C31.3836 22.69 31.0238 22.837 30.6857 22.9752C30.3306 23.1203 29.9995 23.2555 30 24C30.0006 24.9261 30.4487 25.4805 30.8173 25.9363C31.234 26.4517 31.5489 26.8413 31 27.5C29.3514 29.4783 30.0946 30.3695 30.6485 31.0338C30.9346 31.3769 31.1703 31.6594 31 32L30.5707 32.0964C30.0665 31.9019 29.4881 31.7126 28.6096 31.5662C26.925 31.2854 25.2403 31.793 23.29 32.3806C21.7673 32.8394 20.0826 33.3469 18.1096 33.5662C13.6096 34.0662 8.10962 34.0662 3.60962 33.5662C0.00961903 33.1662 -0.223714 31.3995 0.109619 30.5662C1.77629 30.5662 5.50962 30.0662 7.10962 28.0662C8.70962 26.0662 10.1096 25.8995 10.6096 26.0662C10.6096 25.2328 10.8096 23.5662 11.6096 23.5662C12.4096 23.5662 13.943 24.2328 14.6096 24.5662C14.6096 23.8995 14.7096 22.4662 15.1096 22.0662C15.5096 21.6662 17.2763 22.2328 18.1096 22.5662C17.7763 21.8995 17.3096 20.4662 18.1096 20.0662C18.9096 19.6662 20.1096 19.8995 20.6096 20.0662C21.443 20.3995 23.3096 20.5662 24.1096 18.5662C24.9096 16.5662 25.443 15.3995 25.6096 15.0662L24.1096 13.5662L26.1096 11.0662C25.6096 10.7328 24.6096 9.86616 24.6096 9.06616C24.6096 8.56616 24.9846 8.19116 25.3596 7.81616C25.7346 7.44116 26.1096 7.06616 26.1096 6.56616C26.1096 6.30962 26.0438 5.82271 25.9628 5.22363C25.7282 3.48756 25.3662 0.809534 26.1096 0.0661157C26.4756 0.0661157 27.1096 0.334065 27.9135 0.673811C29.3058 1.26227 31.2077 2.06612 33.1096 2.06612C34.6539 2.06612 36.1982 1.40365 37.5379 0.828948C38.8008 0.28723 39.8818 -0.176499 40.6096 0.0661157C41.702 0.430226 41.2034 2.65043 40.8517 4.21653C40.7204 4.80101 40.6096 5.29438 40.6096 5.56616C40.6096 6.01565 40.9127 6.36412 41.2464 6.74779C41.655 7.21769 42.1096 7.7404 42.1096 8.56616C42.1096 9.76616 41.1096 10.7328 40.6096 11.0662C41.1096 11.5662 42.1096 12.7662 42.1096 13.5662C42.1096 14.1438 41.5883 14.93 41.1102 15.5106C39.3927 15.3636 37.8838 14.8246 36.5833 14.3601Z" fill="white" fill-opacity="0.4"/>
<path fill-rule="evenodd" clip-rule="evenodd" d="M31.4983 16.7143C29.7291 16.3645 27.8843 15.7662 26.5691 15.3397L26.5691 15.3397L26.5689 15.3396C26.1534 15.2048 25.7907 15.0872 25.5 15C26.6147 15.867 28.9995 17.1021 31.4644 17.6795C31.4663 17.3519 31.4762 17.0278 31.4983 16.7143ZM27.9868 11.2977C29.8524 11.599 32.3352 12 34 12C35.7122 12 37.696 11.5758 39.1159 11.2722C39.6863 11.1503 40.1657 11.0478 40.5 11C39.8333 11.8333 37.6 13 34 13C30.4 13 27 11.8333 26 11C26.4595 11.0511 27.163 11.1647 27.9868 11.2977L27.9868 11.2977Z" fill="#FAA21E"/>
<path fill-rule="evenodd" clip-rule="evenodd" d="M31.4983 16.7143C29.7291 16.3645 27.8843 15.7662 26.5691 15.3397L26.5691 15.3397L26.5689 15.3396C26.1534 15.2048 25.7907 15.0872 25.5 15C26.6147 15.867 28.9995 17.1021 31.4644 17.6795C31.4663 17.3519 31.4762 17.0278 31.4983 16.7143ZM27.9868 11.2977C29.8524 11.599 32.3352 12 34 12C35.7122 12 37.696 11.5758 39.1159 11.2722C39.6863 11.1503 40.1657 11.0478 40.5 11C39.8333 11.8333 37.6 13 34 13C30.4 13 27 11.8333 26 11C26.4595 11.0511 27.163 11.1647 27.9868 11.2977L27.9868 11.2977Z" fill="white" fill-opacity="0.8"/>
<path d="M20 24C18 22.8 17.8333 22.5 18 22.5V21.5C18.5 21.8333 19.7 22.7 20.5 23.5C21.3 24.3 23.8333 25.5 25 26C24.1667 25.8333 22 25.2 20 24Z" fill="#FAA21E"/>
<path d="M20 24C18 22.8 17.8333 22.5 18 22.5V21.5C18.5 21.8333 19.7 22.7 20.5 23.5C21.3 24.3 23.8333 25.5 25 26C24.1667 25.8333 22 25.2 20 24Z" fill="white" fill-opacity="0.8"/>
<path d="M14.5 23.5V24.5C14.6667 24.6667 15.4 25.2 17 26C18.6 26.8 20.3333 27 21 27C20.5 26.8333 19.1 26.3 17.5 25.5C15.9 24.7 14.8333 23.8333 14.5 23.5Z" fill="#FAA21E"/>
<path d="M14.5 23.5V24.5C14.6667 24.6667 15.4 25.2 17 26C18.6 26.8 20.3333 27 21 27C20.5 26.8333 19.1 26.3 17.5 25.5C15.9 24.7 14.8333 23.8333 14.5 23.5Z" fill="white" fill-opacity="0.8"/>
<path d="M13.5 27.5C12.3 27.1 11 26.3333 10.5 26V25.3125C11 25.5417 12.3 26.2 13.5 27C14.7 27.8 16.3333 28.3333 17 28.5C16.3333 28.3333 14.7 27.9 13.5 27.5Z" fill="#FAA21E"/>
<path d="M13.5 27.5C12.3 27.1 11 26.3333 10.5 26V25.3125C11 25.5417 12.3 26.2 13.5 27C14.7 27.8 16.3333 28.3333 17 28.5C16.3333 28.3333 14.7 27.9 13.5 27.5Z" fill="white" fill-opacity="0.8"/>
<path d="M41.1096 18.0661C38.1096 18.0661 35.1096 16.0661 34.1096 16.0661C33.1096 17.0661 34.1096 21.5662 34.1096 22.5662C34.1096 23.5662 32.6096 24.0662 32.6096 25.0662C32.6096 25.8662 33.6096 26.7328 34.1096 27.0662L32.1096 29.5662L33.6096 31.0662C33.443 31.3995 32.9096 32.5662 32.1096 34.5662C31.3096 36.5662 29.443 36.3995 28.6096 36.0662C28.1096 35.8995 26.9096 35.6662 26.1096 36.0662C25.3096 36.4662 25.7763 37.8995 26.1096 38.5662C25.2763 38.2328 23.5096 37.6662 23.1096 38.0662C22.7096 38.4662 22.6096 39.8995 22.6096 40.5662C21.943 40.2328 20.4096 39.5662 19.6096 39.5662C18.8096 39.5662 18.6096 41.2328 18.6096 42.0662C18.1096 41.8995 16.7096 42.0662 15.1096 44.0662C13.5096 46.0662 9.77629 46.5662 8.10962 46.5662C7.77629 47.3995 8.00962 49.1662 11.6096 49.5662C16.1096 50.0662 21.6096 50.0662 26.1096 49.5662C30.6096 49.0662 33.6096 47.0662 36.6096 47.5662C39.6096 48.0662 39.1096 49.0662 44.1096 49.0662C48.1096 49.0662 49.7763 47.3995 50.1096 46.5662C49.943 44.7328 49.4096 40.5662 48.6096 38.5662C47.8096 36.5662 48.2763 33.3995 48.6096 32.0662C49.1096 31.5662 50.1096 30.3662 50.1096 29.5662C50.1096 28.7662 49.1096 27.5662 48.6096 27.0662C49.1096 26.7328 50.1096 25.7662 50.1096 24.5662C50.1096 23.0662 48.6096 22.5662 48.6096 21.5662C48.6096 20.5662 50.1096 16.5661 48.6096 16.0661C47.1096 15.5661 44.1096 18.0661 41.1096 18.0661Z" fill="#FAA21E"/>
<path d="M41.1096 18.0661C38.1096 18.0661 35.1096 16.0661 34.1096 16.0661C33.1096 17.0661 34.1096 21.5662 34.1096 22.5662C34.1096 23.5662 32.6096 24.0662 32.6096 25.0662C32.6096 25.8662 33.6096 26.7328 34.1096 27.0662L32.1096 29.5662L33.6096 31.0662C33.443 31.3995 32.9096 32.5662 32.1096 34.5662C31.3096 36.5662 29.443 36.3995 28.6096 36.0662C28.1096 35.8995 26.9096 35.6662 26.1096 36.0662C25.3096 36.4662 25.7763 37.8995 26.1096 38.5662C25.2763 38.2328 23.5096 37.6662 23.1096 38.0662C22.7096 38.4662 22.6096 39.8995 22.6096 40.5662C21.943 40.2328 20.4096 39.5662 19.6096 39.5662C18.8096 39.5662 18.6096 41.2328 18.6096 42.0662C18.1096 41.8995 16.7096 42.0662 15.1096 44.0662C13.5096 46.0662 9.77629 46.5662 8.10962 46.5662C7.77629 47.3995 8.00962 49.1662 11.6096 49.5662C16.1096 50.0662 21.6096 50.0662 26.1096 49.5662C30.6096 49.0662 33.6096 47.0662 36.6096 47.5662C39.6096 48.0662 39.1096 49.0662 44.1096 49.0662C48.1096 49.0662 49.7763 47.3995 50.1096 46.5662C49.943 44.7328 49.4096 40.5662 48.6096 38.5662C47.8096 36.5662 48.2763 33.3995 48.6096 32.0662C49.1096 31.5662 50.1096 30.3662 50.1096 29.5662C50.1096 28.7662 49.1096 27.5662 48.6096 27.0662C49.1096 26.7328 50.1096 25.7662 50.1096 24.5662C50.1096 23.0662 48.6096 22.5662 48.6096 21.5662C48.6096 20.5662 50.1096 16.5661 48.6096 16.0661C47.1096 15.5661 44.1096 18.0661 41.1096 18.0661Z" fill="white" fill-opacity="0.4"/>
<path d="M42 28C39.6 28 35.5 27.1667 34 27C35 27.8333 38.4 29 42 29C45.6 29 47.8333 27.8333 48.5 27C47.3333 27.1667 44.4 28 42 28Z" fill="#FAA21E"/>
<path d="M42 28C39.6 28 35.5 27.1667 34 27C35 27.8333 38.4 29 42 29C45.6 29 47.8333 27.8333 48.5 27C47.3333 27.1667 44.4 28 42 28Z" fill="white" fill-opacity="0.8"/>
<path d="M42 33C39.2 33 35.1667 31.5 33.5 31C35 32.1667 38.8 34 42 34C45.2 34 47.6667 33 48.5 32C47.5 32.3333 44.8 33 42 33Z" fill="#FAA21E"/>
<path d="M42 33C39.2 33 35.1667 31.5 33.5 31C35 32.1667 38.8 34 42 34C45.2 34 47.6667 33 48.5 32C47.5 32.3333 44.8 33 42 33Z" fill="white" fill-opacity="0.8"/>
<path d="M28 40C26 38.8 25.8333 38.5 26 38.5V37.5C26.5 37.8333 27.7 38.7 28.5 39.5C29.3 40.3 31.8333 41.5 33 42C32.1667 41.8333 30 41.2 28 40Z" fill="#FAA21E"/>
<path d="M28 40C26 38.8 25.8333 38.5 26 38.5V37.5C26.5 37.8333 27.7 38.7 28.5 39.5C29.3 40.3 31.8333 41.5 33 42C32.1667 41.8333 30 41.2 28 40Z" fill="white" fill-opacity="0.8"/>
<path d="M22.5 39.5V40.5C22.6667 40.6667 23.4 41.2 25 42C26.6 42.8 28.3333 43 29 43C28.5 42.8333 27.1 42.3 25.5 41.5C23.9 40.7 22.8333 39.8333 22.5 39.5Z" fill="#FAA21E"/>
<path d="M22.5 39.5V40.5C22.6667 40.6667 23.4 41.2 25 42C26.6 42.8 28.3333 43 29 43C28.5 42.8333 27.1 42.3 25.5 41.5C23.9 40.7 22.8333 39.8333 22.5 39.5Z" fill="white" fill-opacity="0.8"/>
<path d="M21.5 43.5C20.3 43.1 19 42.3333 18.5 42V41.3125C19 41.5417 20.3 42.2 21.5 43C22.7 43.8 24.3333 44.3333 25 44.5C24.3333 44.3333 22.7 43.9 21.5 43.5Z" fill="#FAA21E"/>
<path d="M21.5 43.5C20.3 43.1 19 42.3333 18.5 42V41.3125C19 41.5417 20.3 42.2 21.5 43C22.7 43.8 24.3333 44.3333 25 44.5C24.3333 44.3333 22.7 43.9 21.5 43.5Z" fill="white" fill-opacity="0.8"/>
</svg>
