<svg width="50" height="50" viewBox="0 0 50 50" fill="none" xmlns="http://www.w3.org/2000/svg">
<path d="M23.5 4.5C22.5 4.5 19 6 15 7.5C13 8.25 10.9 10.7 10.5 11.5C10 12.5 5.5 18 5 19C4.6 19.8 5.16667 27.6667 5.5 31.5L11 37.5L22.5 46C23.5 46.1667 24.8 46.5 26 46.5C28 46 32.5 45 35 43.5C37.5 42 44 33 44.5 32C44.5 31 45.3333 24.3333 45.5 21C44.8333 19.8333 43.3 17.2 42.5 16C41.7 14.8 40.1667 11.5 39.5 10C38 8.5 34.8 5.5 34 5.5H31C30 5.5 24.5 4.5 23.5 4.5Z" fill="#898989"/>
<path d="M23.5 4.5C22.5 4.5 19 6 15 7.5C13 8.25 10.9 10.7 10.5 11.5C10 12.5 5.5 18 5 19C4.6 19.8 5.16667 27.6667 5.5 31.5L11 37.5L22.5 46C23.5 46.1667 24.8 46.5 26 46.5C28 46 32.5 45 35 43.5C37.5 42 44 33 44.5 32C44.5 31 45.3333 24.3333 45.5 21C44.8333 19.8333 43.3 17.2 42.5 16C41.7 14.8 40.1667 11.5 39.5 10C38 8.5 34.8 5.5 34 5.5H31C30 5.5 24.5 4.5 23.5 4.5Z" fill="white" fill-opacity="0.6"/>
<path d="M27.5 4.50004C25.9 4.10004 24.5 4.33337 24 4.50004C24.5 4.6667 25.8 5.20003 27 6.00003C28.2 6.80003 29.8333 8.33336 30.5 9.00003H33V5.50003C31.8333 5.33337 29.1 4.90004 27.5 4.50004Z" fill="#898989"/>
<path d="M37.5 17C36.7 16.2 34.1666 12.3333 33 10.5C32.755 8.54776 32.7444 7.45208 33 5.5H34C35 5.5 38.5437 8.0875 39.5 10C40.5 12 41.2596 14.1395 42.5 16L42.5 16.0001C43.5 17.5 44.5 19 45.5 21L45.4 22C44.7333 21.5 43.3 21.5 42.5 21.5C41.7 21.5 41 22.8333 40.5 23C40 21.8333 38.3 17.8 37.5 17Z" fill="#898989"/>
<path d="M28.5 32C26.5 31.6 22.8333 31.8334 22 32L34 38L37.5 37L34 34.5C32.5 33.8334 30.5 32.4 28.5 32Z" fill="#898989"/>
<path d="M28.5 32C26.5 31.6 22.8333 31.8334 22 32L34 38L37.5 37L34 34.5C32.5 33.8334 30.5 32.4 28.5 32Z" fill="white" fill-opacity="0.4"/>
<path d="M11 31.5H5.5L11 37.5L19.5 44C19.8333 43.8333 20.6 43.4 21 43C21.4 42.6 20.5 40.8333 20 40C19.6667 39.8333 18.4 39.1 16 37.5C13.6 35.9 11.6667 32.8333 11 31.5Z" fill="#898989"/>
<path d="M26 40H20L19.5 44L22 46C22.5 46.1667 23.9 46.5 25.5 46.5C27.1 46.5 31.5 45.1667 33.5 44.5C32.8333 44.3333 31.3 43.8 30.5 43L28 40.5L26 40Z" fill="#898989"/>
<path d="M26 40H20L19.5 44L22 46C22.5 46.1667 23.9 46.5 25.5 46.5C27.1 46.5 31.5 45.1667 33.5 44.5C32.8333 44.3333 31.3 43.8 30.5 43L28 40.5L26 40Z" fill="black" fill-opacity="0.2"/>
<path d="M32 45L27.5 40.5L35.5 37L43 34C42.3333 35.5 40 39.5 38 41.5C36 43.5 33.1667 44.6667 32 45Z" fill="#898989"/>
<path d="M41.5 21.5C42.7 20.7 44.6667 21.3333 45.5 21.5L44.5 32C44 33 42.9 34.6 42.5 35C42.1 35.4 40.3333 36.1666 39.5 36.5H36.5C35.6667 36 34 35.4 34 35C34 34.6 31.8333 33.6667 31 33C33.8333 30 40.3 22.3 41.5 21.5Z" fill="#898989"/>
<path d="M41.5 21.5C42.7 20.7 44.6667 21.3333 45.5 21.5L44.5 32C44 33 42.9 34.6 42.5 35C42.1 35.4 40.3333 36.1666 39.5 36.5H36.5C35.6667 36 34 35.4 34 35C34 34.6 31.8333 33.6667 31 33C33.8333 30 40.3 22.3 41.5 21.5Z" fill="white" fill-opacity="0.2"/>
<path d="M12.5 9C11.7 9.4 9.16667 13.1667 8 15V20C8 20.4 15.6667 26.5 19.5 29.5C20 30 21.5 31.1 23.5 31.5C25.5 31.9 29 31 31.5 31L39.5 22C38.8333 20.6667 37.2 17.7 36 16.5C34.5 15 32.5 13 32 12C31.6 11.2 31.5 10.3333 31.5 10H30C29.5 9.33333 28.3 7.8 27.5 7C26.7 6.2 24.8333 5 24 4.5C20.5 5.83333 13.3 8.6 12.5 9Z" fill="#898989"/>
<path d="M12.5 9C11.7 9.4 9.16667 13.1667 8 15V20C8 20.4 15.6667 26.5 19.5 29.5C20 30 21.5 31.1 23.5 31.5C25.5 31.9 29 31 31.5 31L39.5 22C38.8333 20.6667 37.2 17.7 36 16.5C34.5 15 32.5 13 32 12C31.6 11.2 31.5 10.3333 31.5 10H30C29.5 9.33333 28.3 7.8 27.5 7C26.7 6.2 24.8333 5 24 4.5C20.5 5.83333 13.3 8.6 12.5 9Z" fill="white" fill-opacity="0.6"/>
<path d="M5.00006 19C5.50007 18 7.50006 15.6 7.50006 15.6V25L11.0001 31.5C10.1667 31.6666 8.80006 32 8.00006 32C7.20006 32 6.00006 31.6666 5.50006 31.5L5.00006 25C5.00006 25 4.50005 20 5.00006 19Z" fill="#898989"/>
<path d="M5.00006 19C5.50007 18 7.50006 15.6 7.50006 15.6V25L11.0001 31.5C10.1667 31.6666 8.80006 32 8.00006 32C7.20006 32 6.00006 31.6666 5.50006 31.5L5.00006 25C5.00006 25 4.50005 20 5.00006 19Z" fill="white" fill-opacity="0.2"/>
<path d="M21.5 31.5C18.3 29.9 10.8333 23.8333 7.5 21V25C8.5 26.5 9.8 30.5 11 32.5C12.2 34.5 14 35.8333 15 37C16.3333 38.1667 20.8 41 22 41C23.5 41 25 39.5 27 40.5C28.6 41.3 30 40.8333 30.5 40.5L34 38L31 34.5C30.6667 34.6667 29.7 34.9 28.5 34.5C27 34 25.5 33.5 21.5 31.5Z" fill="#898989"/>
<path d="M21.5 31.5C18.3 29.9 10.8333 23.8333 7.5 21V25C8.5 26.5 9.8 30.5 11 32.5C12.2 34.5 14 35.8333 15 37C16.3333 38.1667 20.8 41 22 41C23.5 41 25 39.5 27 40.5C28.6 41.3 30 40.8333 30.5 40.5L34 38L31 34.5C30.6667 34.6667 29.7 34.9 28.5 34.5C27 34 25.5 33.5 21.5 31.5Z" fill="white" fill-opacity="0.4"/>
</svg>
