<svg width="50" height="50" viewBox="0 0 50 50" fill="none" xmlns="http://www.w3.org/2000/svg">
<path d="M37 14.8182V18.4545C37.619 17.697 39.1357 15.7273 42.1071 15.7273C45.8214 15.7273 47.2143 19.8182 47.2143 23C47.2143 26.1818 45.3571 30.2727 42.1071 30.2727C39.5071 30.2727 37.4643 28 37 27.5455V31.1818C37.4643 31.1818 38.3929 33 42.1071 33C46.75 33 50 28.9091 50 23C50 17.0909 46.75 13 42.1071 13C38.8571 13 37.4643 14.8182 37 14.8182Z" fill="#898989"/>
<path d="M37 14.8182V18.4545C37.619 17.697 39.1357 15.7273 42.1071 15.7273C45.8214 15.7273 47.2143 19.8182 47.2143 23C47.2143 26.1818 45.3571 30.2727 42.1071 30.2727C39.5071 30.2727 37.4643 28 37 27.5455V31.1818C37.4643 31.1818 38.3929 33 42.1071 33C46.75 33 50 28.9091 50 23C50 17.0909 46.75 13 42.1071 13C38.8571 13 37.4643 14.8182 37 14.8182Z" fill="white" fill-opacity="0.95"/>
<path d="M5 7H38V43.5C38 43.5 35 48.5 21.5 48.5C8.00003 48.5 5 43.5 5 43.5V7Z" fill="#898989"/>
<path d="M5 7H38V43.5C38 43.5 35 48.5 21.5 48.5C8.00003 48.5 5 43.5 5 43.5V7Z" fill="white" fill-opacity="0.85"/>
<ellipse cx="21.5" cy="6.5" rx="16.5" ry="4.5" fill="#FEFEFE"/>
<ellipse cx="21.5" cy="6.5" rx="14.5" ry="3.5" fill="#898989"/>
<ellipse cx="21.5" cy="6.5" rx="14.5" ry="3.5" fill="white" fill-opacity="0.4"/>
<path d="M33 8.5C33 8 27.8513 7 21.5 7C15.1487 7 10 8 10 8.5C10 9 15.1487 10 21.5 10C27.8513 10 33 9 33 8.5Z" fill="#FAA21E"/>
<path d="M33 8.5C33 8 27.8513 7 21.5 7C15.1487 7 10 8 10 8.5C10 9 15.1487 10 21.5 10C27.8513 10 33 9 33 8.5Z" fill="black" fill-opacity="0.6"/>
<path d="M22.8 28.8166H21.6711C21.3217 30.3333 20.3502 32.7166 17.275 35.3166C14.1998 37.9166 9.97831 40.0833 8.5 40.1916L10.0053 41.1666C12.514 40.1916 13.9395 39.8666 16.95 37.2666C20.3368 34.3416 21.7965 30.6583 22.8 28.8166Z" fill="#2FC4A7"/>
<path d="M22.8 28.8166H21.6711C21.3217 30.3333 20.3502 32.7166 17.275 35.3166C14.1998 37.9166 9.97831 40.0833 8.5 40.1916L10.0053 41.1666C12.514 40.1916 13.9395 39.8666 16.95 37.2666C20.3368 34.3416 21.7965 30.6583 22.8 28.8166Z" fill="black" fill-opacity="0.2"/>
<path d="M26.8601 20.3018C25.7235 21.3239 24.12 23.9375 23.5643 25.0758C23.8004 24.143 24.5495 21.8807 24.8257 20.6201C25.171 19.0444 25.2551 16.4909 22.7975 15.415C20.8313 14.5543 19.4458 16.2502 19.071 17.2374C18.2036 16.8577 16.0704 16.6146 15.2915 18.0005C14.5058 19.3985 14.3753 20.8805 16.0998 22.8442C17.4794 24.4152 20.1796 25.7239 21.2128 26.1186C20.4265 25.9471 17.779 24.9043 16.1248 24.7547C14.6334 24.6199 12.3099 24.8115 11.3583 26.9853C10.5971 28.7243 12.2227 30.1267 13.1712 30.7146C12.8929 31.744 12.7121 33.9673 14.2156 34.6255C16.095 35.4482 17.2619 34.7502 18.8906 33.391C20.1935 32.3036 21.5883 29.8519 22.1229 28.7619C21.6906 30.0118 20.7986 32.8102 20.6888 34.0055C20.5516 35.4996 20.7846 37.3285 22.8897 38.4227C24.5738 39.2981 26.1027 37.6419 26.6161 36.6003C27.9807 37.0249 29.9539 36.4988 30.586 35.4025C31.3015 34.1615 30.589 32.6408 29.1537 30.8037C28.0054 29.3339 25.6944 28.0805 24.6824 27.6375C25.6674 28.0111 27.9066 28.7726 28.9841 28.8299C30.331 28.9014 32.7533 29.2711 34.202 27.1423C35.361 25.4393 33.5609 23.7533 32.5159 23.1231C32.9881 21.2576 32.5774 19.8345 31.4716 19.2122C30.0894 18.4344 28.2807 19.0242 26.8601 20.3018Z" fill="#2FC4A7"/>
</svg>
