<svg width="50" height="50" viewBox="0 0 50 50" fill="none" xmlns="http://www.w3.org/2000/svg">
<path d="M23.0028 0.607403C21.1377 0.421051 20.2751 -0.263345 20.1197 0.109358C19.9643 1.0411 22.8473 4.33445 24.4016 5.26621C25.645 6.01161 27.4919 8.27473 27.6992 8.77167C27.8546 8.21261 27.7872 5.42907 28.7819 4.98183C30.0253 4.42278 29.4787 0.837182 29.3233 0.65083C29.1679 0.464479 24.8679 0.793754 23.0028 0.607403Z" fill="#D0333D"/>
<path d="M23.0028 0.607403C21.1377 0.421051 20.2751 -0.263345 20.1197 0.109358C19.9643 1.0411 22.8473 4.33445 24.4016 5.26621C25.645 6.01161 27.4919 8.27473 27.6992 8.77167C27.8546 8.21261 27.7872 5.42907 28.7819 4.98183C30.0253 4.42278 29.4787 0.837182 29.3233 0.65083C29.1679 0.464479 24.8679 0.793754 23.0028 0.607403Z" fill="black" fill-opacity="0.6"/>
<path d="M36.1752 16.4268C36.9903 11.8537 39.6018 7.24353 41.1644 7.77378C42.6956 8.03469 44.7556 20.5023 46.0902 26.7748C47.1734 31.8656 49.2705 42.403 48.5221 43.701L48.9794 47.6066L42.8957 48.1933L42.4384 44.2877C41.5545 43.1472 40.2484 36.56 39.0587 32.0837C37.7176 27.0376 35.9035 17.9512 36.1752 16.4268Z" fill="#D0333D"/>
<path d="M36.1752 16.4268C36.9903 11.8537 39.6018 7.24353 41.1644 7.77378C42.6956 8.03469 44.7556 20.5023 46.0902 26.7748C47.1734 31.8656 49.2705 42.403 48.5221 43.701L48.9794 47.6066L42.8957 48.1933L42.4384 44.2877C41.5545 43.1472 40.2484 36.56 39.0587 32.0837C37.7176 27.0376 35.9035 17.9512 36.1752 16.4268Z" fill="black" fill-opacity="0.4"/>
<path d="M10.1095 6.32659C11.4829 5.62802 17.8924 2.55433 18.6554 2.2749C20.8428 2.9269 24.833 3.76152 26.1331 5.3486C27.0488 6.4663 28.4222 10.9371 29.0327 15.408C29.6431 19.8788 29.3379 29.6587 29.4905 34.8281C29.6126 38.9636 29.6104 46.7969 29.8647 49.9172C25.7444 50.1034 17.8619 49.9172 17.1294 49.9172C16.2137 49.9172 13.1616 49.3583 12.3986 47.6817C11.7882 46.3405 11.6355 44.4218 11.6355 43.6301C12.6529 40.7892 14.5351 33.403 13.9246 26.585C13.1616 18.0625 11.4575 12.0199 10.3747 10.3957C9.70072 9.38473 8.51438 7.54908 8.20917 7.68879C8.56525 7.26965 9.01071 6.88544 10.1095 6.32659Z" fill="#D0333D"/>
<path d="M10.1095 6.32659C11.4829 5.62802 17.8924 2.55433 18.6554 2.2749C20.8428 2.9269 24.833 3.76152 26.1331 5.3486C27.0488 6.4663 28.4222 10.9371 29.0327 15.408C29.6431 19.8788 29.3379 29.6587 29.4905 34.8281C29.6126 38.9636 29.6104 46.7969 29.8647 49.9172C25.7444 50.1034 17.8619 49.9172 17.1294 49.9172C16.2137 49.9172 13.1616 49.3583 12.3986 47.6817C11.7882 46.3405 11.6355 44.4218 11.6355 43.6301C12.6529 40.7892 14.5351 33.403 13.9246 26.585C13.1616 18.0625 11.4575 12.0199 10.3747 10.3957C9.70072 9.38473 8.51438 7.54908 8.20917 7.68879C8.56525 7.26965 9.01071 6.88544 10.1095 6.32659Z" fill="black" fill-opacity="0.4"/>
<path d="M8.58224 6.07503C10.0872 5.37243 17.1103 2.28104 17.9464 2C20.3431 2.65575 24.5754 3.40378 26 5C26.3772 5.42259 26.9652 6.41315 27.4131 7.60973C27.4443 6.21321 28.2637 4.17802 29.0424 4.17802C30.8183 4.17802 30.923 2.77958 31.4153 2.5445C34.3687 4.00199 40.6201 6.92549 41.2764 7.60252C42.0968 8.4488 40.456 11.2697 39.6356 13.8086C38.8152 16.3474 37.4993 25.692 37.4993 28.3762C37.4993 33.2852 39.2375 41.3002 39.6356 42.9597C40.2387 45.4741 39.4715 48.7686 38.1588 48.9942C38.1588 48.9942 32.0207 50 29.2813 50C26.542 50 17.0328 49.9167 16.2742 49.9167C15.2709 49.9167 11.9266 49.3546 11.0905 47.6684C10.4216 46.3194 10.2544 44.3896 10.2544 43.5934C11.3692 40.7362 13.4315 33.3074 12.7627 26.4502C11.9266 17.8785 10.0593 11.8011 8.87288 10.1676C8.13435 9.15078 6.83443 7.30456 6.5 7.44508C6.89017 7.02352 7.37828 6.6371 8.58224 6.07503Z" fill="#D0333D"/>
<path d="M8.58224 6.07503C10.0872 5.37243 17.1103 2.28104 17.9464 2C20.3431 2.65575 24.5754 3.40378 26 5C26.3772 5.42259 26.9652 6.41315 27.4131 7.60973C27.4443 6.21321 28.2637 4.17802 29.0424 4.17802C30.8183 4.17802 30.923 2.77958 31.4153 2.5445C34.3687 4.00199 40.6201 6.92549 41.2764 7.60252C42.0968 8.4488 40.456 11.2697 39.6356 13.8086C38.8152 16.3474 37.4993 25.692 37.4993 28.3762C37.4993 33.2852 39.2375 41.3002 39.6356 42.9597C40.2387 45.4741 39.4715 48.7686 38.1588 48.9942C38.1588 48.9942 32.0207 50 29.2813 50C26.542 50 17.0328 49.9167 16.2742 49.9167C15.2709 49.9167 11.9266 49.3546 11.0905 47.6684C10.4216 46.3194 10.2544 44.3896 10.2544 43.5934C11.3692 40.7362 13.4315 33.3074 12.7627 26.4502C11.9266 17.8785 10.0593 11.8011 8.87288 10.1676C8.13435 9.15078 6.83443 7.30456 6.5 7.44508C6.89017 7.02352 7.37828 6.6371 8.58224 6.07503Z" fill="black" fill-opacity="0.4"/>
<path fill-rule="evenodd" clip-rule="evenodd" d="M9.00001 5.88275C9.70102 5.56362 10.8522 5.05055 12.1016 4.49985H15V3.23301C15.7703 2.89959 16.4686 2.60067 17 2.37842V4.49985H21V2.76733C21.6751 2.94212 22.3594 3.132 23 3.34115V4.49985H25.5088C25.7162 4.65804 25.8831 4.82445 26 4.99982C26.0174 5.02588 26.0358 5.05337 26.0551 5.08227C26.2683 5.40077 26.5954 5.88958 26.9143 6.49985H23V9.99985H27V6.66725C27.1457 6.95812 27.2874 7.27381 27.4131 7.60955C27.4437 6.23809 28.2271 4.25067 29 4.17979V4.49985H33V3.31719C33.2409 3.43392 33.4897 3.55429 33.744 3.67732C34.1517 3.87459 34.5736 4.07871 35 4.28567V4.49985H35.4408C37.7745 5.63527 40.1453 6.81408 41 7.38783V9.99985H41.0969C40.9266 10.4746 40.7179 10.9885 40.5021 11.52C40.1983 12.2679 39.8804 13.0507 39.6356 13.8084C39.3679 14.6369 39.0474 16.19 38.7371 17.9999H35V21.9999H38.1245C38.0312 22.6818 37.9446 23.3553 37.8673 23.9999H35L35 27.9999H37.5063C37.5017 28.1365 37.4993 28.2622 37.4993 28.376C37.4993 28.8872 37.5182 29.432 37.5524 29.9999H35V33.9999H37.9688C38.0617 34.6719 38.1637 35.3432 38.2702 35.9999H35V39.9999H38.9975C39.2755 41.3889 39.516 42.461 39.6356 42.9595C40.0936 44.869 39.7613 47.2284 39 48.352V47.9999H35V49.4628C34.3642 49.5494 33.6812 49.6373 33 49.7162V47.9999H29V49.9996C28.4805 49.9987 27.7907 49.9958 27 49.9914V47.9999H23V49.9652C22.3231 49.9603 21.6477 49.9553 21 49.9504V47.9999H17V49.9205C16.6286 49.918 16.3747 49.9165 16.2742 49.9165C15.9955 49.9165 15.5361 49.8731 15 49.7743V47.9999H11.2966C11.2171 47.8945 11.1479 47.784 11.0905 47.6682C10.4216 46.3192 10.2544 44.3895 10.2544 43.5932C10.5835 42.7497 10.9952 41.5078 11.3948 39.9999H15V35.9999H12.2714C12.3845 35.3512 12.4868 34.6827 12.5743 33.9999H15V29.9999H12.8844C12.8998 29.3345 12.8956 28.6663 12.8686 27.9999H15V23.9999H12.4883C12.4012 23.3133 12.308 22.6462 12.2095 21.9999H15V17.9999H11.4854C11.3354 17.2936 11.1807 16.626 11.0236 15.9999H15V11.9999H11V15.9062C10.3159 13.2022 9.5874 11.2815 9.00001 10.3554V5.88275ZM11 9.99985V6.49985H15V9.99985H11ZM17 9.99985V6.49985H21V9.99985H17ZM29 9.99985V6.49985H33V9.99985H29ZM35 9.99985V6.49985H39V9.99985H35ZM35 11.9999H39V15.9999H35V11.9999ZM35 41.9999H39V45.9999H35V41.9999ZM33 41.9999V45.9999H29V41.9999H33ZM27 41.9999V45.9999H23V41.9999H27ZM21 41.9999V45.9999H17V41.9999H21ZM15 41.9999V45.9999H11V41.9999H15ZM17 15.9999V11.9999H21V15.9999H17ZM23 15.9999V11.9999H27V15.9999H23ZM29 15.9999V11.9999H33V15.9999H29ZM29 17.9999H33V21.9999H29V17.9999ZM29 23.9999H33L33 27.9999H29L29 23.9999ZM29 29.9999H33V33.9999H29V29.9999ZM29 35.9999H33V39.9999H29V35.9999ZM27 35.9999V39.9999H23V35.9999H27ZM21 35.9999V39.9999H17V35.9999H21ZM21 33.9999H17V29.9999H21V33.9999ZM21 27.9999H17V23.9999H21V27.9999ZM21 21.9999H17V17.9999H21V21.9999ZM23 21.9999V17.9999H27V21.9999H23ZM23 23.9999H27L27 27.9999H23V23.9999ZM23 29.9999H27V33.9999H23V29.9999Z" fill="#D0333D"/>
<path fill-rule="evenodd" clip-rule="evenodd" d="M9.00001 5.88275C9.70102 5.56362 10.8522 5.05055 12.1016 4.49985H15V3.23301C15.7703 2.89959 16.4686 2.60067 17 2.37842V4.49985H21V2.76733C21.6751 2.94212 22.3594 3.132 23 3.34115V4.49985H25.5088C25.7162 4.65804 25.8831 4.82445 26 4.99982C26.0174 5.02588 26.0358 5.05337 26.0551 5.08227C26.2683 5.40077 26.5954 5.88958 26.9143 6.49985H23V9.99985H27V6.66725C27.1457 6.95812 27.2874 7.27381 27.4131 7.60955C27.4437 6.23809 28.2271 4.25067 29 4.17979V4.49985H33V3.31719C33.2409 3.43392 33.4897 3.55429 33.744 3.67732C34.1517 3.87459 34.5736 4.07871 35 4.28567V4.49985H35.4408C37.7745 5.63527 40.1453 6.81408 41 7.38783V9.99985H41.0969C40.9266 10.4746 40.7179 10.9885 40.5021 11.52C40.1983 12.2679 39.8804 13.0507 39.6356 13.8084C39.3679 14.6369 39.0474 16.19 38.7371 17.9999H35V21.9999H38.1245C38.0312 22.6818 37.9446 23.3553 37.8673 23.9999H35L35 27.9999H37.5063C37.5017 28.1365 37.4993 28.2622 37.4993 28.376C37.4993 28.8872 37.5182 29.432 37.5524 29.9999H35V33.9999H37.9688C38.0617 34.6719 38.1637 35.3432 38.2702 35.9999H35V39.9999H38.9975C39.2755 41.3889 39.516 42.461 39.6356 42.9595C40.0936 44.869 39.7613 47.2284 39 48.352V47.9999H35V49.4628C34.3642 49.5494 33.6812 49.6373 33 49.7162V47.9999H29V49.9996C28.4805 49.9987 27.7907 49.9958 27 49.9914V47.9999H23V49.9652C22.3231 49.9603 21.6477 49.9553 21 49.9504V47.9999H17V49.9205C16.6286 49.918 16.3747 49.9165 16.2742 49.9165C15.9955 49.9165 15.5361 49.8731 15 49.7743V47.9999H11.2966C11.2171 47.8945 11.1479 47.784 11.0905 47.6682C10.4216 46.3192 10.2544 44.3895 10.2544 43.5932C10.5835 42.7497 10.9952 41.5078 11.3948 39.9999H15V35.9999H12.2714C12.3845 35.3512 12.4868 34.6827 12.5743 33.9999H15V29.9999H12.8844C12.8998 29.3345 12.8956 28.6663 12.8686 27.9999H15V23.9999H12.4883C12.4012 23.3133 12.308 22.6462 12.2095 21.9999H15V17.9999H11.4854C11.3354 17.2936 11.1807 16.626 11.0236 15.9999H15V11.9999H11V15.9062C10.3159 13.2022 9.5874 11.2815 9.00001 10.3554V5.88275ZM11 9.99985V6.49985H15V9.99985H11ZM17 9.99985V6.49985H21V9.99985H17ZM29 9.99985V6.49985H33V9.99985H29ZM35 9.99985V6.49985H39V9.99985H35ZM35 11.9999H39V15.9999H35V11.9999ZM35 41.9999H39V45.9999H35V41.9999ZM33 41.9999V45.9999H29V41.9999H33ZM27 41.9999V45.9999H23V41.9999H27ZM21 41.9999V45.9999H17V41.9999H21ZM15 41.9999V45.9999H11V41.9999H15ZM17 15.9999V11.9999H21V15.9999H17ZM23 15.9999V11.9999H27V15.9999H23ZM29 15.9999V11.9999H33V15.9999H29ZM29 17.9999H33V21.9999H29V17.9999ZM29 23.9999H33L33 27.9999H29L29 23.9999ZM29 29.9999H33V33.9999H29V29.9999ZM29 35.9999H33V39.9999H29V35.9999ZM27 35.9999V39.9999H23V35.9999H27ZM21 35.9999V39.9999H17V35.9999H21ZM21 33.9999H17V29.9999H21V33.9999ZM21 27.9999H17V23.9999H21V27.9999ZM21 21.9999H17V17.9999H21V21.9999ZM23 21.9999V17.9999H27V21.9999H23ZM23 23.9999H27L27 27.9999H23V23.9999ZM23 29.9999H27V33.9999H23V29.9999Z" fill="black" fill-opacity="0.2"/>
<path d="M8.58224 6.07503C10.0872 5.37243 17.1103 2.28104 17.9464 2C19.0574 2.30396 20.5627 2.62775 22 3.04665C23.6634 3.53147 25.2357 4.14368 26 5C26.3772 5.42259 26.9652 6.41315 27.4131 7.60973C27.4443 6.21321 28.2637 4.17802 29.0424 4.17802C29.7504 4.17802 30.1928 3.95574 30.5 3.67353C30.9634 3.24787 31.1193 2.68586 31.4153 2.5445C34.3687 4.00199 40.6201 6.92549 41.2764 7.60252C41.6103 7.94689 41.5365 8.61826 41.2764 9.46454C38.6958 8.99564 37.3352 9.55484 35 10C33.8513 7.61984 32.8477 5.84974 30.5 3.67353C30.1928 3.95574 29.7504 4.17802 29.0424 4.17802C28.2637 4.17802 27.4443 6.21321 27.4131 7.60973C26.9652 6.41315 26.3772 5.42259 26 5C25.2357 4.14368 23.6634 3.53147 22 3.04665C19.6621 5.71754 18.5935 7.39445 17.5 11C16.3333 10.7225 13.6 10.1676 12 10.1676H8.87288C8.13435 9.15078 6.83443 7.30456 6.5 7.44508C6.89017 7.02352 7.37828 6.6371 8.58224 6.07503Z" fill="#D0333D"/>
<path d="M8.58224 6.07503C10.0872 5.37243 17.1103 2.28104 17.9464 2C19.0574 2.30396 20.5627 2.62775 22 3.04665C23.6634 3.53147 25.2357 4.14368 26 5C26.3772 5.42259 26.9652 6.41315 27.4131 7.60973C27.4443 6.21321 28.2637 4.17802 29.0424 4.17802C29.7504 4.17802 30.1928 3.95574 30.5 3.67353C30.9634 3.24787 31.1193 2.68586 31.4153 2.5445C34.3687 4.00199 40.6201 6.92549 41.2764 7.60252C41.6103 7.94689 41.5365 8.61826 41.2764 9.46454C38.6958 8.99564 37.3352 9.55484 35 10C33.8513 7.61984 32.8477 5.84974 30.5 3.67353C30.1928 3.95574 29.7504 4.17802 29.0424 4.17802C28.2637 4.17802 27.4443 6.21321 27.4131 7.60973C26.9652 6.41315 26.3772 5.42259 26 5C25.2357 4.14368 23.6634 3.53147 22 3.04665C19.6621 5.71754 18.5935 7.39445 17.5 11C16.3333 10.7225 13.6 10.1676 12 10.1676H8.87288C8.13435 9.15078 6.83443 7.30456 6.5 7.44508C6.89017 7.02352 7.37828 6.6371 8.58224 6.07503Z" fill="black" fill-opacity="0.6"/>
<path d="M28.4905 50C28.4905 47 28.6126 38.9636 28.4905 34.8281C28.3379 29.6587 28.6431 19.8788 28.0327 15.408C27.4222 10.9371 26.6964 7.79466 25.5 6C24.5 4.5 24 5.5 21.8402 3.5" stroke="#D0333D" stroke-width="2"/>
<path d="M28.4905 50C28.4905 47 28.6126 38.9636 28.4905 34.8281C28.3379 29.6587 28.6431 19.8788 28.0327 15.408C27.4222 10.9371 26.6964 7.79466 25.5 6C24.5 4.5 24 5.5 21.8402 3.5" stroke="black" stroke-opacity="0.2" stroke-width="2"/>
<path d="M12.044 15.78C10.9121 11.1697 8.18914 6.54683 6.64649 7.16021C5.11752 7.49828 3.6522 20.3313 2.72746 26.7715C1.97694 31.9984 0.569877 42.8106 1.41342 44.0945L1.21514 48.0868L7.39984 48.3939L7.59812 44.4017C8.41388 43.2002 9.28859 36.4415 10.1881 31.8341C11.2022 26.6404 12.4214 17.3168 12.044 15.78Z" fill="#D0333D"/>
<path d="M12.044 15.78C10.9121 11.1697 8.18914 6.54683 6.64649 7.16021C5.11752 7.49828 3.6522 20.3313 2.72746 26.7715C1.97694 31.9984 0.569877 42.8106 1.41342 44.0945L1.21514 48.0868L7.39984 48.3939L7.59812 44.4017C8.41388 43.2002 9.28859 36.4415 10.1881 31.8341C11.2022 26.6404 12.4214 17.3168 12.044 15.78Z" fill="black" fill-opacity="0.4"/>
<path d="M42.8956 48.1933L42.4384 44.2877C44.878 44.3638 46.2275 44.3191 48.5221 43.7009L48.9794 47.6065C46.6785 48.2983 45.3268 48.306 42.8956 48.1933Z" fill="#D0333D"/>
<path d="M7.39981 48.3941L7.59809 44.4019C4.81946 44.4141 3.59417 44.3 1.41339 44.0947L1.21511 48.087C3.37981 48.4675 4.64111 48.6331 7.39981 48.3941Z" fill="#D0333D"/>
<path d="M22.1703 2.49534C21.1048 1.42983 19.9675 0.261944 20.1197 0.109729C20.0621 0.0709411 18.8234 1.38231 18 2.00035C18.203 2.35552 18.8911 3.71304 19.5 4.77854C20.1089 5.84405 19.8153 7.84791 20.1197 8.00012C20.4241 8.15234 22.1703 5.88816 23.5 5.00012C24.0905 4.60577 25.0941 4.37266 25.5 4.47413C24.8911 4.1697 23.0227 3.34774 22.1703 2.49534Z" fill="#D0333D"/>
<path d="M29.3233 2.81668C29.3233 3.54731 28.7537 4.24642 28.5 4.50012C28.7537 4.50012 29.4767 4.53502 30.0855 4.77854C30.8466 5.08296 32.2909 6.53977 32.5 6.50012C32.5917 6.48274 32.1415 5.46618 32 4.50012C31.9268 4.00012 31.9775 3.12112 31.9268 2.81668C31.3279 2.22674 29.4365 0.640133 29.3244 0.651127C29.0215 0.680852 29.3233 1.7339 29.3233 2.81668Z" fill="#D0333D"/>
<circle cx="2.165" cy="46.165" r="0.665" fill="#D0333D"/>
<circle cx="2.165" cy="46.165" r="0.665" fill="black" fill-opacity="0.8"/>
<circle cx="47.665" cy="45.665" r="0.665" fill="#D0333D"/>
<circle cx="47.665" cy="45.665" r="0.665" fill="black" fill-opacity="0.8"/>
<circle cx="28.3334" cy="18.6667" r="0.333333" fill="#D0333D"/>
<circle cx="28.3334" cy="18.6667" r="0.333333" fill="black" fill-opacity="0.8"/>
<circle cx="28.3334" cy="18.6667" r="0.333333" stroke="black" stroke-width="0.666667"/>
<circle cx="27.6667" cy="10.6667" r="0.333333" fill="#D0333D"/>
<circle cx="27.6667" cy="10.6667" r="0.333333" fill="black" fill-opacity="0.8"/>
<circle cx="27.6667" cy="10.6667" r="0.333333" stroke="black" stroke-width="0.666667"/>
<circle cx="28.3333" cy="26.6667" r="0.333333" fill="#D0333D"/>
<circle cx="28.3333" cy="26.6667" r="0.333333" fill="black" fill-opacity="0.8"/>
<circle cx="28.3333" cy="26.6667" r="0.333333" stroke="black" stroke-width="0.666667"/>
<circle cx="28.3333" cy="42.6667" r="0.333333" fill="#D0333D"/>
<circle cx="28.3333" cy="42.6667" r="0.333333" fill="black" fill-opacity="0.8"/>
<circle cx="28.3333" cy="42.6667" r="0.333333" stroke="black" stroke-width="0.666667"/>
<circle cx="28.3334" cy="34.6667" r="0.333333" fill="#D0333D"/>
<circle cx="28.3334" cy="34.6667" r="0.333333" fill="black" fill-opacity="0.8"/>
<circle cx="28.3334" cy="34.6667" r="0.333333" stroke="black" stroke-width="0.666667"/>
</svg>
