<svg width="50" height="50" viewBox="0 0 50 50" fill="none" xmlns="http://www.w3.org/2000/svg">
<path d="M24.5 36L0 30.5V36.5L24.5 43V36Z" fill="#FAA21E"/>
<path d="M24.5 36L0 30.5V36.5L24.5 43V36Z" fill="black" fill-opacity="0.4"/>
<path d="M24.5 43V36L50 9V12L24.5 43Z" fill="#FAA21E"/>
<path d="M24.5 43V36L50 9V12L24.5 43Z" fill="black" fill-opacity="0.6"/>
<path d="M24.5 36L0 30.5L38 7L50 9L24.5 36Z" fill="#FAA21E"/>
<path d="M24.5 36L0 30.5L38 7L50 9L24.5 36Z" fill="black" fill-opacity="0.4"/>
<path fill-rule="evenodd" clip-rule="evenodd" d="M35.3202 8.65723L28.7353 12.7295C28.7144 12.8345 28.6971 12.9436 28.6843 13.0565C28.592 13.8684 28.7389 14.8186 29.4 15.7C29.6697 16.0597 30.2131 16.2812 31.0762 16.3559C31.9203 16.429 32.9361 16.3514 33.9946 16.2477C34.1682 16.2306 34.3432 16.2129 34.5185 16.1951C35.3903 16.1067 36.2703 16.0175 37.0295 16.0139C37.4882 16.0117 37.9285 16.04 38.3154 16.1269C38.6993 16.213 39.0733 16.3662 39.3535 16.6464C40.0453 17.3382 40.3293 18.2619 40.3944 19.1706L41.8325 17.6479C41.9221 17.2637 41.9945 16.8707 42.0147 16.4915C42.0357 16.0976 41.9952 15.7692 41.8854 15.5167C41.7826 15.2806 41.6108 15.0887 41.3065 14.9611C40.8188 14.7564 40.1799 14.6333 39.4524 14.5599C38.7294 14.4869 37.9547 14.4659 37.2041 14.449L37.0568 14.4457C36.3683 14.4304 35.6967 14.4154 35.1444 14.3587C34.8476 14.3282 34.5658 14.2839 34.3223 14.2142C34.088 14.1472 33.8346 14.0417 33.6464 13.8536C33.3326 13.5397 33.119 13.1905 33.0585 12.8012C32.9969 12.4054 33.1046 12.0391 33.3 11.7176C33.6697 11.1092 34.4104 10.5706 35.2427 10.0713C35.5015 9.91598 35.8741 9.7692 36.3011 9.63007C36.7368 9.48813 37.2608 9.34418 37.842 9.20185C39.0049 8.91707 40.4176 8.63365 41.8512 8.3825C42.6024 8.2509 43.3637 8.12741 44.1013 8.01689L41.2465 7.54109C40.2851 7.63074 38.9838 7.85667 37.7255 8.1148C36.8308 8.29833 35.9812 8.49313 35.3202 8.65723ZM38.1092 7.0182L38 7L37.9059 7.05821C37.9735 7.04478 38.0413 7.03144 38.1092 7.0182ZM47.5373 8.58955C46.0849 8.72781 44.0385 9.01455 42.0238 9.3675C40.6032 9.61635 39.2139 9.89543 38.0799 10.1731C37.5126 10.3121 37.0145 10.4494 36.611 10.5809C36.1988 10.7152 35.9151 10.834 35.7572 10.9287C34.9229 11.4294 34.3833 11.8605 34.1545 12.2369C34.0507 12.4078 34.0295 12.5377 34.0466 12.6476C34.0647 12.764 34.1371 12.93 34.3535 13.1464C34.3646 13.1575 34.4255 13.2036 34.5975 13.2528C34.7603 13.2994 34.9766 13.3362 35.2466 13.3639C35.7572 13.4164 36.3901 13.4305 37.0953 13.4463L37.2267 13.4493C37.9737 13.4661 38.7856 13.4875 39.5528 13.5649C40.3154 13.6419 41.0699 13.7773 41.6935 14.0389C42.2412 14.2688 42.5995 14.6515 42.8024 15.1178C42.9772 15.5197 43.0282 15.963 43.0191 16.3916L44.992 14.3026C44.9634 13.9597 44.8588 13.6616 44.6784 13.4451C44.4775 13.2041 44.1298 13 43.5 13C43.3798 13 43.2534 13.0009 43.1229 13.0018C42.4747 13.0063 41.7234 13.0116 41.1083 12.913C40.7381 12.8536 40.3536 12.7484 40.0512 12.5389C39.7209 12.3101 39.5 11.9615 39.5 11.5C39.5 11.1064 39.718 10.814 39.9815 10.6176C40.2346 10.429 40.5663 10.2974 40.9196 10.1983C41.6313 9.99856 42.597 9.88688 43.6529 9.8137C44.6493 9.74464 45.7595 9.70804 46.8632 9.67166L47.085 9.66434C47.8988 9.63739 48.7049 9.60938 49.4639 9.56768L50 9L47.5373 8.58955ZM48.4745 10.6152C48.0263 10.6333 47.5714 10.6488 47.1181 10.6638L46.9017 10.6709C45.7924 10.7075 44.6996 10.7436 43.7221 10.8113C42.6738 10.884 41.7958 10.991 41.1898 11.1611C40.8842 11.2469 40.6885 11.3379 40.579 11.4195C40.5274 11.458 40.5081 11.4847 40.5023 11.4944C40.4996 11.4991 40.4997 11.4994 40.4999 11.4997C40.5 11.4998 40.5 11.4999 40.5 11.5C40.5 11.5976 40.5291 11.6535 40.6207 11.7169C40.7402 11.7997 40.9494 11.8747 41.2667 11.9256C41.791 12.0097 42.4366 12.0057 43.0857 12.0017C43.224 12.0009 43.3625 12 43.5 12C44.3702 12 45.0224 12.2959 45.4466 12.8049C45.6072 12.9976 45.7267 13.2108 45.8129 13.4335L48.4745 10.6152ZM39.3744 20.2507C39.4036 19.9751 39.416 19.6969 39.4065 19.4235C39.3777 18.5883 39.1491 17.8562 38.6464 17.3536C38.5517 17.2588 38.3824 17.1668 38.0964 17.1026C37.8134 17.0391 37.4572 17.0118 37.0343 17.0138C36.328 17.0172 35.5076 17.1003 34.6355 17.1885C34.4563 17.2066 34.275 17.225 34.0921 17.2429C33.04 17.346 31.938 17.4342 30.99 17.3522C30.061 17.2718 29.138 17.0174 28.6 16.3C27.8814 15.3418 27.6415 14.3119 27.6604 13.3942L25.616 14.6585C25.6535 14.7368 25.6951 14.8215 25.7406 14.914L25.7407 14.9141L25.8164 15.0685C25.9664 15.3754 26.1374 15.7365 26.2822 16.1333C26.5717 16.9266 26.7704 17.8999 26.482 18.9455C26.177 20.0511 25.1944 21.1818 23.8574 22.2005C22.5023 23.2331 20.7129 24.2042 18.6756 24.9682C15.5338 26.1463 5.21618 28.8305 0.976758 29.896L0 30.5L4.38705 31.4848C6.83476 30.8233 10.6751 29.7479 12.8419 29.0257C13.5817 28.779 14.4101 28.5251 15.2852 28.2568L15.7955 28.1002C16.862 27.7723 17.9898 27.4203 19.1256 27.0275C21.402 26.2402 23.684 25.2979 25.5383 24.0819C26.8119 23.2467 27.8388 22.3193 28.8182 21.4347C29.2837 21.0143 29.7385 20.6035 30.204 20.2169C31.6151 19.045 33.0915 18.1401 35.0445 18.3145C35.8034 18.3822 36.351 18.7583 36.7317 19.2764C37.0987 19.7757 37.3086 20.4016 37.4462 20.9991C37.5299 21.3628 37.5909 21.7358 37.6414 22.0856L39.3744 20.2507ZM36.7606 23.0182C36.7534 22.9677 36.7463 22.9169 36.7393 22.8657L36.7112 22.6598C36.6478 22.1913 36.581 21.6984 36.4717 21.2235C36.3456 20.6758 36.1736 20.2056 35.9259 19.8686C35.6919 19.5502 35.3918 19.3495 34.9555 19.3105C33.4085 19.1724 32.1974 19.8612 30.8429 20.9862C30.4358 21.3243 30.0116 21.707 29.5628 22.1118L29.5627 22.1119L29.5627 22.1119C28.5554 23.0207 27.4243 24.041 26.0867 24.9181C24.1285 26.2021 21.7543 27.1765 19.4525 27.9725C18.2992 28.3714 17.1575 28.7277 16.0893 29.0561L15.5751 29.2138C14.6997 29.4822 13.8853 29.7319 13.1581 29.9743C11.4556 30.5418 8.74646 31.3208 6.46802 31.952L10.809 32.9265C12.5873 32.3749 15.0664 31.5883 17.4864 30.7976C19.2585 30.2186 20.9959 29.6384 22.4007 29.1475C23.8202 28.6515 24.8639 28.259 25.2764 28.0528C26.4069 27.4875 27.6072 26.6314 28.7753 25.7982L28.7753 25.7982C29.1127 25.5575 29.4474 25.3188 29.777 25.0895C30.4972 24.5885 31.1975 24.1306 31.8227 23.8305C32.4183 23.5446 33.0806 23.3332 33.6581 23.5257C34.113 23.6773 34.4399 24.0191 34.6723 24.3905C34.7783 24.5597 34.8702 24.7437 34.9501 24.9352L36.7606 23.0182ZM34.1796 25.751C34.0828 25.4292 33.9644 25.1441 33.8247 24.9211C33.6617 24.6606 33.4964 24.5259 33.3419 24.4743C33.1694 24.4168 32.8317 24.4554 32.2554 24.732C31.7087 24.9944 31.0653 25.4115 30.348 25.9105C30.0432 26.1225 29.7256 26.3492 29.3993 26.5821L29.3992 26.5821C28.222 27.4223 26.9316 28.3432 25.7236 28.9472C25.2416 29.1882 24.1298 29.6026 22.7306 30.0915C21.3166 30.5856 19.5721 31.1682 17.797 31.7482C16.0558 32.3171 14.2823 32.8845 12.7592 33.3643L18.0534 34.5528C18.1313 34.5225 18.2118 34.4912 18.2944 34.459C19.0166 34.178 19.9156 33.8265 20.8336 33.4605C22.6868 32.7218 24.5676 31.9434 25.2585 31.5622C25.6397 31.3519 26.1637 30.9956 26.7805 30.5763L26.7806 30.5762L27.0073 30.4222C27.7084 29.9464 28.4968 29.4189 29.2492 29.0005C29.9837 28.592 30.757 28.2443 31.414 28.1966C31.5588 28.1861 31.7074 28.1895 31.8538 28.2136L34.1796 25.751ZM30.7464 29.3862C30.4468 29.5025 30.1068 29.6678 29.7352 29.8745C29.0266 30.2686 28.2721 30.7724 27.5689 31.2496L27.3379 31.4066L27.3379 31.4067C26.734 31.8174 26.1668 32.2031 25.7415 32.4378C24.9824 32.8566 23.0298 33.6616 21.2039 34.3895C20.7228 34.5812 20.247 34.769 19.7993 34.9447L24.5 36L30.7464 29.3862ZM3.81842 28.1386C8.72582 26.8702 15.8483 24.9604 18.3244 24.0318C20.2871 23.2958 21.9869 22.3686 23.2513 21.4051C24.5339 20.4279 25.3014 19.4648 25.518 18.6795C25.7296 17.9126 25.595 17.1672 25.3428 16.4761C25.2167 16.1307 25.0649 15.8082 24.918 15.5076L24.8497 15.3686C24.8199 15.308 24.79 15.2474 24.7608 15.1874L21.0563 17.4783C21.2657 17.9211 21.3213 18.3917 21.2234 18.8604C21.1097 19.4048 20.7975 19.9096 20.3535 20.3536C20.1777 20.5294 19.9083 20.7053 19.6082 20.8748C19.2975 21.0503 18.9146 21.2404 18.4819 21.4388C17.6159 21.8361 16.526 22.2781 15.3644 22.7176C13.2698 23.5102 10.9188 24.3033 9.18237 24.8214L3.81842 28.1386ZM12.7911 22.5897C13.537 22.3284 14.289 22.0554 15.0105 21.7824C16.1615 21.3469 17.2279 20.9139 18.065 20.5299C18.4838 20.3378 18.8392 20.1607 19.1164 20.0041C19.4041 19.8416 19.5723 19.7206 19.6464 19.6464C19.9931 19.2998 20.1808 18.9609 20.2445 18.656C20.2891 18.4424 20.2771 18.2273 20.1964 18.0101L12.7911 22.5897Z" fill="#FAA21E"/>
<path fill-rule="evenodd" clip-rule="evenodd" d="M35.3202 8.65723L28.7353 12.7295C28.7144 12.8345 28.6971 12.9436 28.6843 13.0565C28.592 13.8684 28.7389 14.8186 29.4 15.7C29.6697 16.0597 30.2131 16.2812 31.0762 16.3559C31.9203 16.429 32.9361 16.3514 33.9946 16.2477C34.1682 16.2306 34.3432 16.2129 34.5185 16.1951C35.3903 16.1067 36.2703 16.0175 37.0295 16.0139C37.4882 16.0117 37.9285 16.04 38.3154 16.1269C38.6993 16.213 39.0733 16.3662 39.3535 16.6464C40.0453 17.3382 40.3293 18.2619 40.3944 19.1706L41.8325 17.6479C41.9221 17.2637 41.9945 16.8707 42.0147 16.4915C42.0357 16.0976 41.9952 15.7692 41.8854 15.5167C41.7826 15.2806 41.6108 15.0887 41.3065 14.9611C40.8188 14.7564 40.1799 14.6333 39.4524 14.5599C38.7294 14.4869 37.9547 14.4659 37.2041 14.449L37.0568 14.4457C36.3683 14.4304 35.6967 14.4154 35.1444 14.3587C34.8476 14.3282 34.5658 14.2839 34.3223 14.2142C34.088 14.1472 33.8346 14.0417 33.6464 13.8536C33.3326 13.5397 33.119 13.1905 33.0585 12.8012C32.9969 12.4054 33.1046 12.0391 33.3 11.7176C33.6697 11.1092 34.4104 10.5706 35.2427 10.0713C35.5015 9.91598 35.8741 9.7692 36.3011 9.63007C36.7368 9.48813 37.2608 9.34418 37.842 9.20185C39.0049 8.91707 40.4176 8.63365 41.8512 8.3825C42.6024 8.2509 43.3637 8.12741 44.1013 8.01689L41.2465 7.54109C40.2851 7.63074 38.9838 7.85667 37.7255 8.1148C36.8308 8.29833 35.9812 8.49313 35.3202 8.65723ZM38.1092 7.0182L38 7L37.9059 7.05821C37.9735 7.04478 38.0413 7.03144 38.1092 7.0182ZM47.5373 8.58955C46.0849 8.72781 44.0385 9.01455 42.0238 9.3675C40.6032 9.61635 39.2139 9.89543 38.0799 10.1731C37.5126 10.3121 37.0145 10.4494 36.611 10.5809C36.1988 10.7152 35.9151 10.834 35.7572 10.9287C34.9229 11.4294 34.3833 11.8605 34.1545 12.2369C34.0507 12.4078 34.0295 12.5377 34.0466 12.6476C34.0647 12.764 34.1371 12.93 34.3535 13.1464C34.3646 13.1575 34.4255 13.2036 34.5975 13.2528C34.7603 13.2994 34.9766 13.3362 35.2466 13.3639C35.7572 13.4164 36.3901 13.4305 37.0953 13.4463L37.2267 13.4493C37.9737 13.4661 38.7856 13.4875 39.5528 13.5649C40.3154 13.6419 41.0699 13.7773 41.6935 14.0389C42.2412 14.2688 42.5995 14.6515 42.8024 15.1178C42.9772 15.5197 43.0282 15.963 43.0191 16.3916L44.992 14.3026C44.9634 13.9597 44.8588 13.6616 44.6784 13.4451C44.4775 13.2041 44.1298 13 43.5 13C43.3798 13 43.2534 13.0009 43.1229 13.0018C42.4747 13.0063 41.7234 13.0116 41.1083 12.913C40.7381 12.8536 40.3536 12.7484 40.0512 12.5389C39.7209 12.3101 39.5 11.9615 39.5 11.5C39.5 11.1064 39.718 10.814 39.9815 10.6176C40.2346 10.429 40.5663 10.2974 40.9196 10.1983C41.6313 9.99856 42.597 9.88688 43.6529 9.8137C44.6493 9.74464 45.7595 9.70804 46.8632 9.67166L47.085 9.66434C47.8988 9.63739 48.7049 9.60938 49.4639 9.56768L50 9L47.5373 8.58955ZM48.4745 10.6152C48.0263 10.6333 47.5714 10.6488 47.1181 10.6638L46.9017 10.6709C45.7924 10.7075 44.6996 10.7436 43.7221 10.8113C42.6738 10.884 41.7958 10.991 41.1898 11.1611C40.8842 11.2469 40.6885 11.3379 40.579 11.4195C40.5274 11.458 40.5081 11.4847 40.5023 11.4944C40.4996 11.4991 40.4997 11.4994 40.4999 11.4997C40.5 11.4998 40.5 11.4999 40.5 11.5C40.5 11.5976 40.5291 11.6535 40.6207 11.7169C40.7402 11.7997 40.9494 11.8747 41.2667 11.9256C41.791 12.0097 42.4366 12.0057 43.0857 12.0017C43.224 12.0009 43.3625 12 43.5 12C44.3702 12 45.0224 12.2959 45.4466 12.8049C45.6072 12.9976 45.7267 13.2108 45.8129 13.4335L48.4745 10.6152ZM39.3744 20.2507C39.4036 19.9751 39.416 19.6969 39.4065 19.4235C39.3777 18.5883 39.1491 17.8562 38.6464 17.3536C38.5517 17.2588 38.3824 17.1668 38.0964 17.1026C37.8134 17.0391 37.4572 17.0118 37.0343 17.0138C36.328 17.0172 35.5076 17.1003 34.6355 17.1885C34.4563 17.2066 34.275 17.225 34.0921 17.2429C33.04 17.346 31.938 17.4342 30.99 17.3522C30.061 17.2718 29.138 17.0174 28.6 16.3C27.8814 15.3418 27.6415 14.3119 27.6604 13.3942L25.616 14.6585C25.6535 14.7368 25.6951 14.8215 25.7406 14.914L25.7407 14.9141L25.8164 15.0685C25.9664 15.3754 26.1374 15.7365 26.2822 16.1333C26.5717 16.9266 26.7704 17.8999 26.482 18.9455C26.177 20.0511 25.1944 21.1818 23.8574 22.2005C22.5023 23.2331 20.7129 24.2042 18.6756 24.9682C15.5338 26.1463 5.21618 28.8305 0.976758 29.896L0 30.5L4.38705 31.4848C6.83476 30.8233 10.6751 29.7479 12.8419 29.0257C13.5817 28.779 14.4101 28.5251 15.2852 28.2568L15.7955 28.1002C16.862 27.7723 17.9898 27.4203 19.1256 27.0275C21.402 26.2402 23.684 25.2979 25.5383 24.0819C26.8119 23.2467 27.8388 22.3193 28.8182 21.4347C29.2837 21.0143 29.7385 20.6035 30.204 20.2169C31.6151 19.045 33.0915 18.1401 35.0445 18.3145C35.8034 18.3822 36.351 18.7583 36.7317 19.2764C37.0987 19.7757 37.3086 20.4016 37.4462 20.9991C37.5299 21.3628 37.5909 21.7358 37.6414 22.0856L39.3744 20.2507ZM36.7606 23.0182C36.7534 22.9677 36.7463 22.9169 36.7393 22.8657L36.7112 22.6598C36.6478 22.1913 36.581 21.6984 36.4717 21.2235C36.3456 20.6758 36.1736 20.2056 35.9259 19.8686C35.6919 19.5502 35.3918 19.3495 34.9555 19.3105C33.4085 19.1724 32.1974 19.8612 30.8429 20.9862C30.4358 21.3243 30.0116 21.707 29.5628 22.1118L29.5627 22.1119L29.5627 22.1119C28.5554 23.0207 27.4243 24.041 26.0867 24.9181C24.1285 26.2021 21.7543 27.1765 19.4525 27.9725C18.2992 28.3714 17.1575 28.7277 16.0893 29.0561L15.5751 29.2138C14.6997 29.4822 13.8853 29.7319 13.1581 29.9743C11.4556 30.5418 8.74646 31.3208 6.46802 31.952L10.809 32.9265C12.5873 32.3749 15.0664 31.5883 17.4864 30.7976C19.2585 30.2186 20.9959 29.6384 22.4007 29.1475C23.8202 28.6515 24.8639 28.259 25.2764 28.0528C26.4069 27.4875 27.6072 26.6314 28.7753 25.7982L28.7753 25.7982C29.1127 25.5575 29.4474 25.3188 29.777 25.0895C30.4972 24.5885 31.1975 24.1306 31.8227 23.8305C32.4183 23.5446 33.0806 23.3332 33.6581 23.5257C34.113 23.6773 34.4399 24.0191 34.6723 24.3905C34.7783 24.5597 34.8702 24.7437 34.9501 24.9352L36.7606 23.0182ZM34.1796 25.751C34.0828 25.4292 33.9644 25.1441 33.8247 24.9211C33.6617 24.6606 33.4964 24.5259 33.3419 24.4743C33.1694 24.4168 32.8317 24.4554 32.2554 24.732C31.7087 24.9944 31.0653 25.4115 30.348 25.9105C30.0432 26.1225 29.7256 26.3492 29.3993 26.5821L29.3992 26.5821C28.222 27.4223 26.9316 28.3432 25.7236 28.9472C25.2416 29.1882 24.1298 29.6026 22.7306 30.0915C21.3166 30.5856 19.5721 31.1682 17.797 31.7482C16.0558 32.3171 14.2823 32.8845 12.7592 33.3643L18.0534 34.5528C18.1313 34.5225 18.2118 34.4912 18.2944 34.459C19.0166 34.178 19.9156 33.8265 20.8336 33.4605C22.6868 32.7218 24.5676 31.9434 25.2585 31.5622C25.6397 31.3519 26.1637 30.9956 26.7805 30.5763L26.7806 30.5762L27.0073 30.4222C27.7084 29.9464 28.4968 29.4189 29.2492 29.0005C29.9837 28.592 30.757 28.2443 31.414 28.1966C31.5588 28.1861 31.7074 28.1895 31.8538 28.2136L34.1796 25.751ZM30.7464 29.3862C30.4468 29.5025 30.1068 29.6678 29.7352 29.8745C29.0266 30.2686 28.2721 30.7724 27.5689 31.2496L27.3379 31.4066L27.3379 31.4067C26.734 31.8174 26.1668 32.2031 25.7415 32.4378C24.9824 32.8566 23.0298 33.6616 21.2039 34.3895C20.7228 34.5812 20.247 34.769 19.7993 34.9447L24.5 36L30.7464 29.3862ZM3.81842 28.1386C8.72582 26.8702 15.8483 24.9604 18.3244 24.0318C20.2871 23.2958 21.9869 22.3686 23.2513 21.4051C24.5339 20.4279 25.3014 19.4648 25.518 18.6795C25.7296 17.9126 25.595 17.1672 25.3428 16.4761C25.2167 16.1307 25.0649 15.8082 24.918 15.5076L24.8497 15.3686C24.8199 15.308 24.79 15.2474 24.7608 15.1874L21.0563 17.4783C21.2657 17.9211 21.3213 18.3917 21.2234 18.8604C21.1097 19.4048 20.7975 19.9096 20.3535 20.3536C20.1777 20.5294 19.9083 20.7053 19.6082 20.8748C19.2975 21.0503 18.9146 21.2404 18.4819 21.4388C17.6159 21.8361 16.526 22.2781 15.3644 22.7176C13.2698 23.5102 10.9188 24.3033 9.18237 24.8214L3.81842 28.1386ZM12.7911 22.5897C13.537 22.3284 14.289 22.0554 15.0105 21.7824C16.1615 21.3469 17.2279 20.9139 18.065 20.5299C18.4838 20.3378 18.8392 20.1607 19.1164 20.0041C19.4041 19.8416 19.5723 19.7206 19.6464 19.6464C19.9931 19.2998 20.1808 18.9609 20.2445 18.656C20.2891 18.4424 20.2771 18.2273 20.1964 18.0101L12.7911 22.5897Z" fill="black" fill-opacity="0.1"/>
</svg>
