<svg width="50" height="50" viewBox="0 0 50 50" fill="none" xmlns="http://www.w3.org/2000/svg">
<path d="M10.1537 12.4699C10.5593 8.59239 11.147 3.01953 11.8229 1.00002C14.3268 1.4987 20.6241 1.99988 24.6799 1.99988C28.7358 1.99988 35.1167 1.37578 37.4826 0.971881C38 2.5 38.5 6.5 39 10.5C39.5503 14.9027 40.662 44.2688 41 47.5C37.3953 49.4998 32.0923 48.9937 28.5 48.2566C28.5 43 26.4056 16 26 16C25.5944 16 23.3867 45.8332 23.3867 48.2566C19.7252 48.8401 18.7683 49.0397 16.5693 48.9937C14.3704 48.9476 11.3024 48.7566 9.5 48.2566C9.5 47.6508 9.74812 16.3473 10.1537 12.4699Z" fill="#546DDB"/>
<path d="M10.1537 12.4699C10.5593 8.59239 11.147 3.01953 11.8229 1.00002C14.3268 1.4987 20.6241 1.99988 24.6799 1.99988C28.7358 1.99988 35.1167 1.37578 37.4826 0.971881C38 2.5 38.5 6.5 39 10.5C39.5503 14.9027 40.662 44.2688 41 47.5C37.3953 49.4998 32.0923 48.9937 28.5 48.2566C28.5 43 26.4056 16 26 16C25.5944 16 23.3867 45.8332 23.3867 48.2566C19.7252 48.8401 18.7683 49.0397 16.5693 48.9937C14.3704 48.9476 11.3024 48.7566 9.5 48.2566C9.5 47.6508 9.74812 16.3473 10.1537 12.4699Z" fill="black" fill-opacity="0.4"/>
<path d="M11.3 3.5C18.1644 4.76097 28.5903 4.90378 38 3.5" stroke="#546DDB"/>
<path d="M11.3 3.5C18.1644 4.76097 28.5903 4.90378 38 3.5" stroke="black" stroke-opacity="0.2"/>
<path d="M16.5781 4.5C16.5781 5.92105 13.3806 10.0684 10.5 9.5M34.7569 4.5C35.1881 6.86842 38 9.5 38.8 9.5M23.2977 4.97368C23.2977 8.2218 23.2604 10.8758 24.2166 12.2008C25.1542 13.5 25.9356 13.5 26.0918 13.5V4.5" stroke="#546DDB"/>
<path d="M16.5781 4.5C16.5781 5.92105 13.3806 10.0684 10.5 9.5M34.7569 4.5C35.1881 6.86842 38 9.5 38.8 9.5M23.2977 4.97368C23.2977 8.2218 23.2604 10.8758 24.2166 12.2008C25.1542 13.5 25.9356 13.5 26.0918 13.5V4.5" stroke="black" stroke-opacity="0.2"/>
<path d="M9.42792 46.0856V45.0705C14.3671 45.981 18.0497 45.9772 23.4554 45.0546L23.4349 46.0711C18.0855 46.9707 14.3459 46.9769 9.42792 46.0856Z" fill="#546DDB"/>
<path d="M9.42792 46.0856V45.0705C14.3671 45.981 18.0497 45.9772 23.4554 45.0546L23.4349 46.0711C18.0855 46.9707 14.3459 46.9769 9.42792 46.0856Z" fill="black" fill-opacity="0.2"/>
<path d="M40.8577 45.5363L40.8262 44.5254C35.9518 45.4798 33.0607 45.4958 28.4615 45.0293L28.5333 46.0411C33.0853 46.4931 36.0013 46.4728 40.8577 45.5363Z" fill="#546DDB"/>
<path d="M40.8577 45.5363L40.8262 44.5254C35.9518 45.4798 33.0607 45.4958 28.4615 45.0293L28.5333 46.0411C33.0853 46.4931 36.0013 46.4728 40.8577 45.5363Z" fill="black" fill-opacity="0.2"/>
<path d="M10.1537 12.4699C10.5593 8.59239 11.147 3.01953 11.8229 1.00002C14.3268 1.4987 20.6241 1.99988 24.6799 1.99988C28.7358 1.99988 35.1167 1.37578 37.4826 0.971881C38 2.5 38.5 6.5 39 10.5C39.5503 14.9027 40.662 44.2688 41 47.5C37.3953 49.4998 32.0923 48.9937 28.5 48.2566C28.5 43 26.4056 16 26 16C25.5944 16 23.3867 45.8332 23.3867 48.2566C19.7252 48.8401 18.7683 49.0397 16.5693 48.9937C14.3704 48.9476 11.3024 48.7566 9.5 48.2566C9.5 47.6508 9.74812 16.3473 10.1537 12.4699Z" fill="#546DDB"/>
<path d="M10.1537 12.4699C10.5593 8.59239 11.147 3.01953 11.8229 1.00002C14.3268 1.4987 20.6241 1.99988 24.6799 1.99988C28.7358 1.99988 35.1167 1.37578 37.4826 0.971881C38 2.5 38.5 6.5 39 10.5C39.5503 14.9027 40.662 44.2688 41 47.5C37.3953 49.4998 32.0923 48.9937 28.5 48.2566C28.5 43 26.4056 16 26 16C25.5944 16 23.3867 45.8332 23.3867 48.2566C19.7252 48.8401 18.7683 49.0397 16.5693 48.9937C14.3704 48.9476 11.3024 48.7566 9.5 48.2566C9.5 47.6508 9.74812 16.3473 10.1537 12.4699Z" fill="black" fill-opacity="0.4"/>
<path d="M11.3 3.5C18.1644 4.76097 28.5903 4.90378 38 3.5" stroke="#546DDB"/>
<path d="M11.3 3.5C18.1644 4.76097 28.5903 4.90378 38 3.5" stroke="black" stroke-opacity="0.2"/>
<path d="M16.5781 4.5C16.5781 5.92105 13.3806 10.0684 10.5 9.5M34.7569 4.5C35.1881 6.86842 38 9.5 38.8 9.5M23.2977 4.97368C23.2977 8.2218 23.2604 10.8758 24.2166 12.2008C25.1542 13.5 25.9356 13.5 26.0918 13.5V4.5" stroke="#546DDB"/>
<path d="M16.5781 4.5C16.5781 5.92105 13.3806 10.0684 10.5 9.5M34.7569 4.5C35.1881 6.86842 38 9.5 38.8 9.5M23.2977 4.97368C23.2977 8.2218 23.2604 10.8758 24.2166 12.2008C25.1542 13.5 25.9356 13.5 26.0918 13.5V4.5" stroke="black" stroke-opacity="0.2"/>
<path d="M9.42792 46.0856V45.0705C14.3671 45.981 18.0497 45.9772 23.4554 45.0546L23.4349 46.0711C18.0855 46.9707 14.3459 46.9769 9.42792 46.0856Z" fill="#546DDB"/>
<path d="M9.42792 46.0856V45.0705C14.3671 45.981 18.0497 45.9772 23.4554 45.0546L23.4349 46.0711C18.0855 46.9707 14.3459 46.9769 9.42792 46.0856Z" fill="black" fill-opacity="0.2"/>
<path d="M40.8577 45.5363L40.8262 44.5254C35.9518 45.4798 33.0607 45.4958 28.4615 45.0293L28.5333 46.0411C33.0853 46.4931 36.0013 46.4728 40.8577 45.5363Z" fill="#546DDB"/>
<path d="M40.8577 45.5363L40.8262 44.5254C35.9518 45.4798 33.0607 45.4958 28.4615 45.0293L28.5333 46.0411C33.0853 46.4931 36.0013 46.4728 40.8577 45.5363Z" fill="black" fill-opacity="0.2"/>
<path d="M11.056 4.5L11.5 2C15.0519 2.66667 21.8162 3.5 26.7 3.5C31.5838 3.5 34.2417 3 37.7 2L38.2417 4.5C34.7417 5.5 30.7 6 26.7 6C22.7 6 15.0519 5.16667 11.056 4.5Z" fill="#D0333D"/>
<path d="M11.056 4.5L11.5 2C15.0519 2.66667 21.8162 3.5 26.7 3.5C31.5838 3.5 34.2417 3 37.7 2L38.2417 4.5C34.7417 5.5 30.7 6 26.7 6C22.7 6 15.0519 5.16667 11.056 4.5Z" fill="black" fill-opacity="0.6"/>
<path d="M23 2.80005C22.7239 2.80005 22.5 3.02391 22.5 3.30005V6.10005C22.5 6.37619 22.7239 6.60005 23 6.60005H28C28.2761 6.60005 28.5 6.37619 28.5 6.10005V3.30005C28.5 3.02391 28.2761 2.80005 28 2.80005L23 2.80005Z" stroke="#898989" stroke-linejoin="round"/>
<path d="M23 2.80005C22.7239 2.80005 22.5 3.02391 22.5 3.30005V6.10005C22.5 6.37619 22.7239 6.60005 23 6.60005H28C28.2761 6.60005 28.5 6.37619 28.5 6.10005V3.30005C28.5 3.02391 28.2761 2.80005 28 2.80005L23 2.80005Z" stroke="white" stroke-opacity="0.4" stroke-linejoin="round"/>
</svg>
