<svg width="50" height="50" viewBox="0 0 50 50" fill="none" xmlns="http://www.w3.org/2000/svg">
<path d="M25.5 1.50001C22 1.50001 16 1.00003 13 3.18587e-05C10.5 5 9 20.5 8 27C7 33.5 6 46 6 46C7 46.5 8.90625 46.8247 10.1164 45.237C9.59009 46.8247 12.2217 47.8831 12.2217 47.8831C12.2217 47.8831 14.8532 48.9416 15.9059 46.8247C15.3796 48.9416 18.5375 49.4708 18.5375 49.4708C18.5375 49.4708 21.169 50 21.6953 47.8831C21.6953 50 24.3269 50 24.3269 50C24.3269 50 26.4322 50 26.9585 47.8831C27.4848 50 29.5901 50 29.5901 50C29.5901 50 31.6954 50 32.2217 47.8831C32.748 50 34.8532 49.4708 34.8532 49.4708C34.8532 49.4708 36.9585 49.4708 36.9585 47.3539C38.2085 48.9416 40.1164 47.8831 40.1164 47.8831C40.1164 47.8831 41.6954 46.8247 41.169 45.237C42.5 46.5 43 46.263 44 46C44 46 43 36 42 27.5C41 19 39.5 3.5 37.5 0C32 1.50001 28.1377 1.50001 25.5 1.50001Z" fill="#A272E4"/>
<path d="M25.5 1.47001C22 1.47001 16 0.980031 13 3.12215e-05C10.5 4.9 9 20.09 8 26.46C7 32.83 6 45.08 6 45.08C7 45.57 8.90625 45.8881 10.1164 44.3323C9.59009 45.8881 12.2217 46.9254 12.2217 46.9254C12.2217 46.9254 14.8532 47.9627 15.9059 45.8881C15.3796 47.9627 18.5375 48.4814 18.5375 48.4814C18.5375 48.4814 21.169 49 21.6954 46.9254C21.6954 49 24.3269 49 24.3269 49C24.3269 49 26.4322 49 26.9585 46.9254C27.4848 49 29.5901 49 29.5901 49C29.5901 49 31.6954 49 32.2217 46.9254C32.748 49 34.8533 48.4814 34.8533 48.4814C34.8533 48.4814 36.9585 48.4814 36.9585 46.4068C38.2085 47.9627 40.1164 46.9254 40.1164 46.9254C40.1164 46.9254 41.6954 45.8881 41.169 44.3322C42.5 45.57 43 45.3377 44 45.08C44 45.08 43 35.28 42 26.95C41 18.62 39.5 3.43 37.5 0C32 1.47001 28.1377 1.47001 25.5 1.47001Z" fill="#2FC4A7"/>
<path d="M25.5 1.47001C22 1.47001 16 0.980031 13 3.12215e-05C10.5 4.9 9 20.09 8 26.46C7 32.83 6 45.08 6 45.08C7 45.57 8.90625 45.8881 10.1164 44.3323C9.59009 45.8881 12.2217 46.9254 12.2217 46.9254C12.2217 46.9254 14.8532 47.9627 15.9059 45.8881C15.3796 47.9627 18.5375 48.4814 18.5375 48.4814C18.5375 48.4814 21.169 49 21.6954 46.9254C21.6954 49 24.3269 49 24.3269 49C24.3269 49 26.4322 49 26.9585 46.9254C27.4848 49 29.5901 49 29.5901 49C29.5901 49 31.6954 49 32.2217 46.9254C32.748 49 34.8533 48.4814 34.8533 48.4814C34.8533 48.4814 36.9585 48.4814 36.9585 46.4068C38.2085 47.9627 40.1164 46.9254 40.1164 46.9254C40.1164 46.9254 41.6954 45.8881 41.169 44.3322C42.5 45.57 43 45.3377 44 45.08C44 45.08 43 35.28 42 26.95C41 18.62 39.5 3.43 37.5 0C32 1.47001 28.1377 1.47001 25.5 1.47001Z" fill="white" fill-opacity="0.6"/>
<path d="M25.5 1.14001C22 1.14001 16 0.760024 13 2.42126e-05C10.5 3.8 9 15.58 8 20.52C7 25.46 6 34.96 6 34.96C7 35.34 8.90625 35.5867 10.1164 34.3801C9.59009 35.5867 12.2217 36.3911 12.2217 36.3911C12.2217 36.3911 14.8532 37.1956 15.9059 35.5867C15.3796 37.1956 18.5375 37.5978 18.5375 37.5978C18.5375 37.5978 21.169 38 21.6954 36.3911C21.6954 38 24.3269 38 24.3269 38C24.3269 38 26.4322 38 26.9585 36.3911C27.4848 38 29.5901 38 29.5901 38C29.5901 38 31.6954 38 32.2217 36.3911C32.748 38 34.8533 37.5978 34.8533 37.5978C34.8533 37.5978 36.9585 37.5978 36.9585 35.9889C38.2085 37.1956 40.1164 36.3911 40.1164 36.3911C40.1164 36.3911 41.6954 35.5867 41.169 34.3801C42.5 35.34 43 35.1598 44 34.96C44 34.96 43 27.36 42 20.9C41 14.44 39.5 2.66 37.5 0C32 1.14001 28.1377 1.14001 25.5 1.14001Z" fill="#2FC4A7"/>
<path d="M25.5 1.14001C22 1.14001 16 0.760024 13 2.42126e-05C10.5 3.8 9 15.58 8 20.52C7 25.46 6 34.96 6 34.96C7 35.34 8.90625 35.5867 10.1164 34.3801C9.59009 35.5867 12.2217 36.3911 12.2217 36.3911C12.2217 36.3911 14.8532 37.1956 15.9059 35.5867C15.3796 37.1956 18.5375 37.5978 18.5375 37.5978C18.5375 37.5978 21.169 38 21.6954 36.3911C21.6954 38 24.3269 38 24.3269 38C24.3269 38 26.4322 38 26.9585 36.3911C27.4848 38 29.5901 38 29.5901 38C29.5901 38 31.6954 38 32.2217 36.3911C32.748 38 34.8533 37.5978 34.8533 37.5978C34.8533 37.5978 36.9585 37.5978 36.9585 35.9889C38.2085 37.1956 40.1164 36.3911 40.1164 36.3911C40.1164 36.3911 41.6954 35.5867 41.169 34.3801C42.5 35.34 43 35.1598 44 34.96C44 34.96 43 27.36 42 20.9C41 14.44 39.5 2.66 37.5 0C32 1.14001 28.1377 1.14001 25.5 1.14001Z" fill="white" fill-opacity="0.4"/>
<circle cx="16" cy="42.6718" r="1.5" fill="#FEFEFE"/>
<circle cx="16" cy="42.6718" r="1.5" stroke="#FAA21E"/>
<circle cx="16" cy="42.6718" r="1.5" stroke="white" stroke-opacity="0.4"/>
<path d="M18 42.6008C18 41.5354 17.1363 40.6718 16.071 40.6718C15.3569 40.6718 14.7335 41.0597 14.4 41.6363C14.8927 41.4434 16.071 41.2119 16.8426 41.8292C17.6142 42.4465 17.2927 43.7148 17.0355 44.2718C17.6121 43.9382 18 43.3148 18 42.6008Z" fill="#7445B8"/>
<path d="M18 42.6008C18 41.5354 17.1363 40.6718 16.071 40.6718C15.3569 40.6718 14.7335 41.0597 14.4 41.6363C14.8927 41.4434 16.071 41.2119 16.8426 41.8292C17.6142 42.4465 17.2927 43.7148 17.0355 44.2718C17.6121 43.9382 18 43.3148 18 42.6008Z" fill="white" fill-opacity="0.4"/>
<circle cx="9.99998" cy="41.0001" r="1.5" transform="rotate(46.7663 9.99998 41.0001)" fill="#FEFEFE"/>
<circle cx="9.99998" cy="41.0001" r="1.5" transform="rotate(46.7663 9.99998 41.0001)" stroke="#FAA21E"/>
<circle cx="9.99998" cy="41.0001" r="1.5" transform="rotate(46.7663 9.99998 41.0001)" stroke="white" stroke-opacity="0.4"/>
<path d="M11.4217 42.4085C12.1979 41.6787 12.2356 40.4579 11.5058 39.6817C11.0167 39.1615 10.3071 38.973 9.65852 39.125C10.1365 39.3518 11.1123 40.0517 11.1911 41.0367C11.2699 42.0217 10.1256 42.6562 9.54364 42.8504C10.1816 43.042 10.9015 42.8976 11.4217 42.4085Z" fill="#7445B8"/>
<path d="M11.4217 42.4085C12.1979 41.6787 12.2356 40.4579 11.5058 39.6817C11.0167 39.1615 10.3071 38.973 9.65852 39.125C10.1365 39.3518 11.1123 40.0517 11.1911 41.0367C11.2699 42.0217 10.1256 42.6562 9.54364 42.8504C10.1816 43.042 10.9015 42.8976 11.4217 42.4085Z" fill="white" fill-opacity="0.4"/>
<circle cx="22" cy="43.6718" r="1.5" fill="#FEFEFE"/>
<circle cx="22" cy="43.6718" r="1.5" stroke="#FAA21E"/>
<circle cx="22" cy="43.6718" r="1.5" stroke="white" stroke-opacity="0.4"/>
<path d="M24 43.6008C24 42.5354 23.1363 41.6718 22.071 41.6718C21.3569 41.6718 20.7335 42.0597 20.4 42.6363C20.8927 42.4434 22.071 42.2119 22.8426 42.8292C23.6142 43.4465 23.2927 44.7148 23.0355 45.2718C23.6121 44.9382 24 44.3148 24 43.6008Z" fill="#7445B8"/>
<path d="M24 43.6008C24 42.5354 23.1363 41.6718 22.071 41.6718C21.3569 41.6718 20.7335 42.0597 20.4 42.6363C20.8927 42.4434 22.071 42.2119 22.8426 42.8292C23.6142 43.4465 23.2927 44.7148 23.0355 45.2718C23.6121 44.9382 24 44.3148 24 43.6008Z" fill="white" fill-opacity="0.4"/>
<circle cx="28" cy="43.6718" r="1.5" fill="#FEFEFE"/>
<circle cx="28" cy="43.6718" r="1.5" stroke="#FAA21E"/>
<circle cx="28" cy="43.6718" r="1.5" stroke="white" stroke-opacity="0.4"/>
<path d="M28.0707 41.6495C27.0099 41.5514 26.0703 42.3318 25.9722 43.3926C25.9064 44.1036 26.2352 44.7601 26.7786 45.1454C26.6319 44.637 26.51 43.4424 27.1958 42.7309C27.8815 42.0195 29.1148 42.4565 29.6457 42.7639C29.3667 42.159 28.7817 41.7153 28.0707 41.6495Z" fill="#7445B8"/>
<path d="M28.0707 41.6495C27.0099 41.5514 26.0703 42.3318 25.9722 43.3926C25.9064 44.1036 26.2352 44.7601 26.7786 45.1454C26.6319 44.637 26.51 43.4424 27.1958 42.7309C27.8815 42.0195 29.1148 42.4565 29.6457 42.7639C29.3667 42.159 28.7817 41.7153 28.0707 41.6495Z" fill="white" fill-opacity="0.4"/>
<circle cx="34.0001" cy="42.6718" r="1.5" transform="rotate(-115.84 34.0001 42.6718)" fill="#FEFEFE"/>
<circle cx="34.0001" cy="42.6718" r="1.5" transform="rotate(-115.84 34.0001 42.6718)" stroke="#FAA21E"/>
<circle cx="34.0001" cy="42.6718" r="1.5" transform="rotate(-115.84 34.0001 42.6718)" stroke="white" stroke-opacity="0.4"/>
<path d="M32.6129 41.1638C31.8269 41.883 31.7727 43.1031 32.4918 43.8892C32.9738 44.416 33.6808 44.6141 34.3314 44.4709C33.8565 44.2377 32.8903 43.5246 32.8249 42.5386C32.7595 41.5526 33.9123 40.9337 34.4968 40.7475C33.8615 40.5472 33.1397 40.6818 32.6129 41.1638Z" fill="#7445B8"/>
<path d="M32.6129 41.1638C31.8269 41.883 31.7727 43.1031 32.4918 43.8892C32.9738 44.416 33.6808 44.6141 34.3314 44.4709C33.8565 44.2377 32.8903 43.5246 32.8249 42.5386C32.7595 41.5526 33.9123 40.9337 34.4968 40.7475C33.8615 40.5472 33.1397 40.6818 32.6129 41.1638Z" fill="white" fill-opacity="0.4"/>
<circle cx="39.8051" cy="40.6456" r="1.5" transform="rotate(-138.04 39.8051 40.6456)" fill="#FEFEFE"/>
<circle cx="39.8051" cy="40.6456" r="1.5" transform="rotate(-138.04 39.8051 40.6456)" stroke="#FAA21E"/>
<circle cx="39.8051" cy="40.6456" r="1.5" transform="rotate(-138.04 39.8051 40.6456)" stroke="white" stroke-opacity="0.4"/>
<path d="M37.9512 39.7735C37.4952 40.7363 37.906 41.8865 38.8689 42.3426C39.5142 42.6482 40.2436 42.5645 40.7919 42.1861C40.264 42.1496 39.1001 41.8544 38.6669 40.9663C38.2338 40.0781 39.0673 39.0695 39.5381 38.6762C38.8743 38.7308 38.2568 39.1282 37.9512 39.7735Z" fill="#7445B8"/>
<path d="M37.9512 39.7735C37.4952 40.7363 37.906 41.8865 38.8689 42.3426C39.5142 42.6482 40.2436 42.5645 40.7919 42.1861C40.264 42.1496 39.1001 41.8544 38.6669 40.9663C38.2338 40.0781 39.0673 39.0695 39.5381 38.6762C38.8743 38.7308 38.2568 39.1282 37.9512 39.7735Z" fill="white" fill-opacity="0.4"/>
</svg>
