<svg width="50" height="51" viewBox="0 0 50 51" fill="none" xmlns="http://www.w3.org/2000/svg">
<path d="M6.31579 22.1692C7.57895 18.7821 8.94737 11.0554 9.47368 7.35082L16.3158 25.3446L13.1579 40.1629C11.9298 39.1045 8.84211 37.0934 6.31579 37.5168C3.78947 37.9402 1.05263 35.2235 0 33.8122C1.57895 31.3425 5.05263 25.5563 6.31579 22.1692Z" fill="#2FC4A7"/>
<path d="M6.31579 22.1692C7.57895 18.7821 8.94737 11.0554 9.47368 7.35082L16.3158 25.3446L13.1579 40.1629C11.9298 39.1045 8.84211 37.0934 6.31579 37.5168C3.78947 37.9402 1.05263 35.2235 0 33.8122C1.57895 31.3425 5.05263 25.5563 6.31579 22.1692Z" fill="white" fill-opacity="0.2"/>
<path d="M44.2105 22.1692C42.9474 19.6289 41.2281 10.879 40.5263 6.82159L35.7895 25.3446L36.8421 40.1629C38.0702 39.2809 41.2632 37.5168 44.2105 37.5168C47.1579 37.5168 49.2982 35.0471 50 33.8122L44.2105 22.1692Z" fill="#2FC4A7"/>
<path d="M44.2105 22.1692C42.9474 19.6289 41.2281 10.879 40.5263 6.82159L35.7895 25.3446L36.8421 40.1629C38.0702 39.2809 41.2632 37.5168 44.2105 37.5168C47.1579 37.5168 49.2982 35.0471 50 33.8122L44.2105 22.1692Z" fill="white" fill-opacity="0.2"/>
<path d="M19.0638 1.78185C18.0112 3.36953 14.0942 3.92272 11.579 4.70459C12.1053 9.46764 13.8007 25.5971 13.8007 28.7725C13.8007 31.3128 11.6399 41.6416 10.1165 46.237C9.59015 47.8246 12.2217 48.8831 12.2217 48.8831C12.2217 48.8831 14.8533 49.9415 15.9059 47.8246C15.3796 49.9415 18.5375 50.4708 18.5375 50.4708C18.5375 50.4708 21.1691 51 21.6954 48.8831C21.6954 51 24.327 51 24.327 51C24.327 51 26.4323 51 26.9586 48.8831C27.4849 51 29.5902 51 29.5902 51C29.5902 51 31.6954 51 32.2217 48.8831C32.748 51 34.8533 50.4708 34.8533 50.4708C34.8533 50.4708 36.9586 50.4708 36.9586 48.3539C38.2086 49.9415 40.1165 48.8831 40.1165 48.8831C40.1165 48.8831 41.6954 47.8246 41.1691 46.2369C40.569 44.4267 38.0112 30.8894 38.0112 28.7725C38.0112 26.6556 38.9474 7.35075 38.9474 4.70459C37.3685 4.17537 33.8007 2.31106 32.748 1.2526C31.5712 0.0692028 32.748 3.36951 31.6954 4.42799C30.6428 5.48646 29.0638 7.60333 28.5375 9.72024L27.4849 13.9541C27.3095 13.2484 26.6823 11.2816 25.9059 9.72024C24.8533 7.60334 22.748 5.48644 21.1691 4.42799C19.5902 3.36953 20.1165 0.194167 19.0638 1.78185Z" fill="#A272E4"/>
<path d="M19 2.00006C18.246 3.12283 14.0175 3.86427 11.5208 4.6305C12.0433 9.29829 13.7812 25.1052 13.7812 28.217C13.7812 30.7065 11.856 40.8287 10.3437 45.3322C9.82126 46.8881 12.1588 47.9254 12.1588 47.9254C12.1588 47.9254 14.7711 48.9627 15.8159 46.8881C15.2935 48.9627 18.4282 49.4814 18.4282 49.4814C18.4282 49.4814 21.0404 50 21.5628 47.9254C21.5628 50 24.1751 50 24.1751 50C24.1751 50 26.2649 50 26.7873 47.9254C27.3097 50 29.3995 50 29.3995 50C29.3995 50 31.4893 50 32.0118 47.9254C32.5342 50 34.624 49.4814 34.624 49.4814C34.624 49.4814 36.7138 49.4814 36.7138 47.4068C37.9546 48.9627 39.8484 47.9254 39.8484 47.9254C39.8484 47.9254 41.4158 46.8881 40.8933 45.3322C40.2977 43.5582 38 30.2916 38 28.217C38 26.1425 39 7.22374 39 4.6305C37.4326 4.11186 33.5448 2.03725 32.5 0.999951C31.9657 0.469578 32.5449 3.96275 31.5 5.00006C30.4551 6.03737 29.5224 7.47127 29 9.54584C28.582 11.2055 27.6741 13.8085 27.5 14.5C27.3258 13.8085 26.5131 11.076 25.7424 9.54584C24.6975 7.47128 22.6077 5.39672 21.0404 4.35943C19.4731 3.32214 20.0449 0.444132 19 2.00006Z" fill="#2FC4A7"/>
<path d="M19 2.00006C18.246 3.12283 14.0175 3.86427 11.5208 4.6305C12.0433 9.29829 13.7812 25.1052 13.7812 28.217C13.7812 30.7065 11.856 40.8287 10.3437 45.3322C9.82126 46.8881 12.1588 47.9254 12.1588 47.9254C12.1588 47.9254 14.7711 48.9627 15.8159 46.8881C15.2935 48.9627 18.4282 49.4814 18.4282 49.4814C18.4282 49.4814 21.0404 50 21.5628 47.9254C21.5628 50 24.1751 50 24.1751 50C24.1751 50 26.2649 50 26.7873 47.9254C27.3097 50 29.3995 50 29.3995 50C29.3995 50 31.4893 50 32.0118 47.9254C32.5342 50 34.624 49.4814 34.624 49.4814C34.624 49.4814 36.7138 49.4814 36.7138 47.4068C37.9546 48.9627 39.8484 47.9254 39.8484 47.9254C39.8484 47.9254 41.4158 46.8881 40.8933 45.3322C40.2977 43.5582 38 30.2916 38 28.217C38 26.1425 39 7.22374 39 4.6305C37.4326 4.11186 33.5448 2.03725 32.5 0.999951C31.9657 0.469578 32.5449 3.96275 31.5 5.00006C30.4551 6.03737 29.5224 7.47127 29 9.54584C28.582 11.2055 27.6741 13.8085 27.5 14.5C27.3258 13.8085 26.5131 11.076 25.7424 9.54584C24.6975 7.47128 22.6077 5.39672 21.0404 4.35943C19.4731 3.32214 20.0449 0.444132 19 2.00006Z" fill="white" fill-opacity="0.6"/>
<path d="M17.4818 43.5908C17.4818 44.4704 16.7735 45.1785 15.9058 45.1785C15.0381 45.1785 14.3298 44.4704 14.3298 43.5908C14.3298 42.7112 15.0381 42.0031 15.9058 42.0031C16.7735 42.0031 17.4818 42.7112 17.4818 43.5908Z" fill="#FEFEFE"/>
<path d="M17.4818 43.5908C17.4818 44.4704 16.7735 45.1785 15.9058 45.1785C15.0381 45.1785 14.3298 44.4704 14.3298 43.5908C14.3298 42.7112 15.0381 42.0031 15.9058 42.0031C16.7735 42.0031 17.4818 42.7112 17.4818 43.5908Z" stroke="#FAA21E" stroke-width="1.05846"/>
<path d="M17.4818 43.5908C17.4818 44.4704 16.7735 45.1785 15.9058 45.1785C15.0381 45.1785 14.3298 44.4704 14.3298 43.5908C14.3298 42.7112 15.0381 42.0031 15.9058 42.0031C16.7735 42.0031 17.4818 42.7112 17.4818 43.5908Z" stroke="white" stroke-opacity="0.4" stroke-width="1.05846"/>
<path d="M18.0112 43.5157C18.0112 42.3881 17.1021 41.4739 15.9807 41.4739C15.2291 41.4739 14.5729 41.8845 14.2218 42.4948C14.7404 42.2906 15.9807 42.0456 16.7929 42.699C17.6051 43.3524 17.2667 44.6948 16.9959 45.2843C17.6029 44.9313 18.0112 44.2715 18.0112 43.5157Z" fill="#A272E4"/>
<path d="M23.7978 44.6493C23.7978 45.5289 23.0894 46.2369 22.2217 46.2369C21.354 46.2369 20.6457 45.5289 20.6457 44.6493C20.6457 43.7696 21.354 43.0616 22.2217 43.0616C23.0894 43.0616 23.7978 43.7696 23.7978 44.6493Z" fill="#FEFEFE"/>
<path d="M23.7978 44.6493C23.7978 45.5289 23.0894 46.2369 22.2217 46.2369C21.354 46.2369 20.6457 45.5289 20.6457 44.6493C20.6457 43.7696 21.354 43.0616 22.2217 43.0616C23.0894 43.0616 23.7978 43.7696 23.7978 44.6493Z" stroke="#FAA21E" stroke-width="1.05846"/>
<path d="M23.7978 44.6493C23.7978 45.5289 23.0894 46.2369 22.2217 46.2369C21.354 46.2369 20.6457 45.5289 20.6457 44.6493C20.6457 43.7696 21.354 43.0616 22.2217 43.0616C23.0894 43.0616 23.7978 43.7696 23.7978 44.6493Z" stroke="white" stroke-opacity="0.4" stroke-width="1.05846"/>
<path d="M24.3269 44.5741C24.3269 43.4465 23.4178 42.5323 22.2963 42.5323C21.5447 42.5323 20.8885 42.943 20.5374 43.5532C21.056 43.3491 22.2963 43.1041 23.1086 43.7574C23.9208 44.4108 23.5824 45.7532 23.3116 46.3428C23.9186 45.9898 24.3269 45.3299 24.3269 44.5741Z" fill="#A272E4"/>
<path d="M31.1662 44.6493C31.1662 45.5289 30.4578 46.2369 29.5901 46.2369C28.7225 46.2369 28.0141 45.5289 28.0141 44.6493C28.0141 43.7696 28.7225 43.0616 29.5901 43.0616C30.4578 43.0616 31.1662 43.7696 31.1662 44.6493Z" fill="#FEFEFE"/>
<path d="M31.1662 44.6493C31.1662 45.5289 30.4578 46.2369 29.5901 46.2369C28.7225 46.2369 28.0141 45.5289 28.0141 44.6493C28.0141 43.7696 28.7225 43.0616 29.5901 43.0616C30.4578 43.0616 31.1662 43.7696 31.1662 44.6493Z" stroke="#FAA21E" stroke-width="1.05846"/>
<path d="M31.1662 44.6493C31.1662 45.5289 30.4578 46.2369 29.5901 46.2369C28.7225 46.2369 28.0141 45.5289 28.0141 44.6493C28.0141 43.7696 28.7225 43.0616 29.5901 43.0616C30.4578 43.0616 31.1662 43.7696 31.1662 44.6493Z" stroke="white" stroke-opacity="0.4" stroke-width="1.05846"/>
<path d="M29.6647 42.5089C28.5481 42.405 27.5591 43.231 27.4557 44.3539C27.3865 45.1064 27.7326 45.8013 28.3046 46.209C28.1502 45.671 28.0219 44.4065 28.7437 43.6535C29.4656 42.9004 30.7638 43.363 31.3226 43.6884C31.029 43.0481 30.4131 42.5785 29.6647 42.5089Z" fill="#A272E4"/>
<path d="M35.2179 42.1624C36.0001 41.7815 36.9442 42.1094 37.3248 42.8998C37.7055 43.6903 37.376 44.6384 36.5938 45.0193C35.8117 45.4001 34.8676 45.0722 34.4869 44.2818C34.1062 43.4913 34.4358 42.5432 35.2179 42.1624Z" fill="#FEFEFE"/>
<path d="M35.2179 42.1624C36.0001 41.7815 36.9442 42.1094 37.3248 42.8998C37.7055 43.6903 37.376 44.6384 36.5938 45.0193C35.8117 45.4001 34.8676 45.0722 34.4869 44.2818C34.1062 43.4913 34.4358 42.5432 35.2179 42.1624Z" stroke="#FAA21E" stroke-width="1.05846"/>
<path d="M35.2179 42.1624C36.0001 41.7815 36.9442 42.1094 37.3248 42.8998C37.7055 43.6903 37.376 44.6384 36.5938 45.0193C35.8117 45.4001 34.8676 45.0722 34.4869 44.2818C34.1062 43.4913 34.4358 42.5432 35.2179 42.1624Z" stroke="white" stroke-opacity="0.4" stroke-width="1.05846"/>
<path d="M34.4459 41.9947C33.6185 42.7559 33.5614 44.0474 34.3184 44.8794C34.8258 45.4369 35.57 45.6466 36.2548 45.4951C35.7549 45.2482 34.7379 44.4934 34.669 43.4498C34.6002 42.4062 35.8136 41.7511 36.429 41.554C35.7602 41.342 35.0004 41.4845 34.4459 41.9947Z" fill="#A272E4"/>
<path d="M19.0637 1.78185C17.7783 3.72064 23.7519 5.83821 21.9999 9C24.7519 7.33821 26.4321 12.8956 27.4848 17.1294C28.0111 12.8956 29.4324 7.5 31.6953 9C29.9999 6 34.2118 2.72452 32.7479 1.2526C31.5711 0.0692028 32.7479 3.36951 31.6953 4.42799C30.6427 5.48647 29.0637 7.60333 28.5374 9.72024L27.4848 13.9541C27.3093 13.2484 26.6822 11.2816 25.9058 9.72024C24.8532 7.60334 22.7479 5.48644 21.169 4.42799C19.59 3.36953 20.1164 0.194166 19.0637 1.78185Z" fill="#A272E4"/>
<path d="M9.99995 5.23382C10.2302 5.00228 11.0526 4.70459 11.5789 4.70459L13.1578 18.9937L9.47363 7.35073C9.47363 6.99791 9.5789 5.6572 9.99995 5.23382Z" fill="#A272E4"/>
<path d="M40 5.23382C39.5789 4.81044 39.1228 4.881 38.9473 4.70459L38.421 16.8768L40.5263 6.8215C40.5263 6.46868 40.421 5.6572 40 5.23382Z" fill="#A272E4"/>
</svg>
