<svg width="50" height="50" viewBox="0 0 50 50" fill="none" xmlns="http://www.w3.org/2000/svg">
<path d="M29.3258 23.0894C34.4071 24.8412 42.8516 29.3614 46.4386 31.4025C45.5277 33.4484 43.0047 38.2048 40.2002 40.8636C36.6945 44.1871 29.6673 47.6911 27.6102 48.135C25.5532 48.579 21.7025 48.0024 18.3295 45.4183C15.1303 42.9672 11.8417 37.7378 10.202 35.0003C9.38489 34.1554 7.40177 32.0773 6.00657 30.5236C4.26256 28.5815 3.76908 27.446 3.6541 26.1459C3.53913 24.8459 4.34567 23.5954 8.72334 21.2429C13.101 18.8904 22.9742 20.8997 29.3258 23.0894Z" fill="#2FC4A7"/>
<path d="M29.3258 23.0894C34.4071 24.8412 42.8516 29.3614 46.4386 31.4025C45.5277 33.4484 43.0047 38.2048 40.2002 40.8636C36.6945 44.1871 29.6673 47.6911 27.6102 48.135C25.5532 48.579 21.7025 48.0024 18.3295 45.4183C15.1303 42.9672 11.8417 37.7378 10.202 35.0003C9.38489 34.1554 7.40177 32.0773 6.00657 30.5236C4.26256 28.5815 3.76908 27.446 3.6541 26.1459C3.53913 24.8459 4.34567 23.5954 8.72334 21.2429C13.101 18.8904 22.9742 20.8997 29.3258 23.0894Z" fill="white" fill-opacity="0.4"/>
<path d="M11.5199 20.4299C7.49135 21.1006 5.0138 23.4073 4.27859 24.4768C8.11325 21.9103 11.7863 21.6641 16.078 21.599C21.4426 21.5176 30.4311 25.64 34.9774 27.8105C38.9521 29.708 41.808 31.68 45.6091 33.1781L46.4301 31.3833C42.1356 28.7496 35.1023 25.3502 30.4034 23.4983C24.4303 21.1441 16.5555 19.5915 11.5199 20.4299Z" fill="#7445B8"/>
<path d="M11.5199 20.4299C7.49135 21.1006 5.0138 23.4073 4.27859 24.4768C8.11325 21.9103 11.7863 21.6641 16.078 21.599C21.4426 21.5176 30.4311 25.64 34.9774 27.8105C38.9521 29.708 41.808 31.68 45.6091 33.1781L46.4301 31.3833C42.1356 28.7496 35.1023 25.3502 30.4034 23.4983C24.4303 21.1441 16.5555 19.5915 11.5199 20.4299Z" fill="white" fill-opacity="0.2"/>
<circle cx="25.729" cy="36.9815" r="3.24992" transform="rotate(54.2291 25.729 36.9815)" fill="#FEFEFE"/>
<circle cx="25.729" cy="36.9815" r="3.24992" transform="rotate(54.2291 25.729 36.9815)" stroke="#FAA21E" stroke-width="1.62496"/>
<circle cx="25.729" cy="36.9815" r="3.24992" transform="rotate(54.2291 25.729 36.9815)" stroke="white" stroke-opacity="0.4" stroke-width="1.62496"/>
<path d="M28.2205 40.1935C29.9763 38.9285 30.3742 36.4797 29.1093 34.724C28.2615 33.5472 26.882 32.9804 25.5357 33.1153C26.4386 33.6983 28.2191 35.3653 28.1179 37.3698C28.0168 39.3744 25.5449 40.3505 24.3215 40.5879C25.5558 41.1421 27.0438 41.0413 28.2205 40.1935Z" fill="#7445B8"/>
<path d="M28.2205 40.1935C29.9763 38.9285 30.3742 36.4797 29.1093 34.724C28.2615 33.5472 26.882 32.9804 25.5357 33.1153C26.4386 33.6983 28.2191 35.3653 28.1179 37.3698C28.0168 39.3744 25.5449 40.3505 24.3215 40.5879C25.5558 41.1421 27.0438 41.0413 28.2205 40.1935Z" fill="white" fill-opacity="0.4"/>
<path d="M36.5997 15.3844C40.0684 19.49 45.0095 27.6953 47.0464 31.2847C45.2168 32.5761 40.6149 35.371 36.8447 36.2198C32.132 37.2808 24.3015 36.6943 22.3071 36.0229C20.3126 35.3515 17.2997 32.8853 15.7246 28.9389C14.2306 25.1959 14.0819 19.0201 14.0743 15.8292C13.8047 14.6851 13.1647 11.8848 12.7613 9.83592C12.257 7.27487 12.4142 6.04676 12.9808 4.87105C13.5474 3.69535 14.8804 3.03384 19.8452 3.2534C24.8101 3.47296 32.2638 10.2524 36.5997 15.3844Z" fill="#2FC4A7"/>
<path d="M36.5997 15.3844C40.0684 19.49 45.0095 27.6953 47.0464 31.2847C45.2168 32.5761 40.6149 35.371 36.8447 36.2198C32.132 37.2808 24.3015 36.6943 22.3071 36.0229C20.3126 35.3515 17.2997 32.8853 15.7246 28.9389C14.2306 25.1959 14.0819 19.0201 14.0743 15.8292C13.8047 14.6851 13.1647 11.8848 12.7613 9.83592C12.257 7.27487 12.4142 6.04676 12.9808 4.87105C13.5474 3.69535 14.8804 3.03384 19.8452 3.2534C24.8101 3.47296 32.2638 10.2524 36.5997 15.3844Z" fill="white" fill-opacity="0.6"/>
<path d="M22.664 3.98619C18.8599 2.50055 15.5508 3.21419 14.3718 3.75671C18.9797 3.51449 22.2612 5.18285 25.9815 7.32348C30.6319 9.99926 36.244 18.1413 39.0388 22.3328C41.4822 25.9972 42.9265 29.153 45.4252 32.3855L47.0492 31.2638C44.7077 26.8033 40.4053 20.2831 37.3163 16.2871C33.3898 11.2075 27.4192 5.84323 22.664 3.98619Z" fill="#7445B8"/>
<path d="M22.664 3.98619C18.8599 2.50055 15.5508 3.21419 14.3718 3.75671C18.9797 3.51449 22.2612 5.18285 25.9815 7.32348C30.6319 9.99926 36.244 18.1413 39.0388 22.3328C41.4822 25.9972 42.9265 29.153 45.4252 32.3855L47.0492 31.2638C44.7077 26.8033 40.4053 20.2831 37.3163 16.2871C33.3898 11.2075 27.4192 5.84323 22.664 3.98619Z" fill="white" fill-opacity="0.2"/>
<path d="M32.0623 14.2926C29.6773 13.9872 27.4964 15.6731 27.191 18.0581C26.9864 19.6565 27.6761 21.1633 28.8713 22.0752C28.5807 20.9169 29.2641 19.3305 30.8671 17.7801C32.4701 16.2296 34.3533 16.1953 35.5265 16.9307C34.9451 15.5443 33.6607 14.4972 32.0623 14.2926Z" fill="#FAA21E"/>
<path d="M32.0623 14.2926C29.6773 13.9872 27.4964 15.6731 27.191 18.0581C26.9864 19.6565 27.6761 21.1633 28.8713 22.0752C28.5807 20.9169 29.2641 19.3305 30.8671 17.7801C32.4701 16.2296 34.3533 16.1953 35.5265 16.9307C34.9451 15.5443 33.6607 14.4972 32.0623 14.2926Z" fill="white" fill-opacity="0.4"/>
<path d="M32.0623 14.2926C29.6773 13.9872 27.4964 15.6731 27.191 18.0581C26.9864 19.6565 27.6761 21.1633 28.8713 22.0752C28.5807 20.9169 28.4002 18.2129 30.0032 16.6625C31.6062 15.112 34.3533 16.1953 35.5265 16.9307C34.9451 15.5443 33.6607 14.4972 32.0623 14.2926Z" fill="#7445B8"/>
<path d="M32.0623 14.2926C29.6773 13.9872 27.4964 15.6731 27.191 18.0581C26.9864 19.6565 27.6761 21.1633 28.8713 22.0752C28.5807 20.9169 28.4002 18.2129 30.0032 16.6625C31.6062 15.112 34.3533 16.1953 35.5265 16.9307C34.9451 15.5443 33.6607 14.4972 32.0623 14.2926Z" fill="white" fill-opacity="0.2"/>
</svg>
