<?xml version="1.0" encoding="utf-8"?><svg fill="none" viewBox="0 0 50 50" width="50" height="50" xmlns="http://www.w3.org/2000/svg"><g clip-path="url(#aqka)"><path d="m31.5 39.5-6.5-22-6.5 22-5-.506-6.653-.673 1.062-19.56L11.625-.235c2.618.622 4.948 1.088 7.136 1.398 4.424.625 8.269.61 12.739-.06C33.553.796 35.737.35 38.17-.234l3.717 18.994 1.062 19.561-6.537.673-4.912.506Z" fill="#1D8CE0"/><path d="m31.5 39.5-6.5-22-6.5 22-5-.506-6.653-.673 1.062-19.56L11.625-.235c2.618.622 4.948 1.088 7.136 1.398 4.424.625 8.269.61 12.739-.06C33.553.796 35.737.35 38.17-.234l3.717 18.994 1.062 19.561-6.537.673-4.912.506Z" fill="#fff" fill-opacity=".2"/><path d="m25 17.5 6.5 22 4.912-.506L31.5 1.104c-4.47.67-8.315.685-12.739.06L13.5 38.994l5 .506 6.5-22Z" fill="#1D8CE0"/><path d="m25 17.5 6.5 22 4.912-.506L31.5 1.104c-4.47.67-8.315.685-12.739.06L13.5 38.994l5 .506 6.5-22Z" fill="#fff" fill-opacity=".4"/><path fill-rule="evenodd" clip-rule="evenodd" d="m29.913 6.75-.125-2.726 1.857-1.802-.145-1.118c-2.718.407-5.204.573-7.73.5l.803 1.214 2.561 1.979 2.78 1.953ZM22 1.513l2.459 3.602-.362 1.87-2.592 2.136-2.27-.643-1.416-.54.869-6.246.234-.028.279-.44c.954.127 1.883.223 2.799.29Zm-4.363 7.734 1.681 1.048.125 2.725-.85 1.014-.362 1.87-1.67 1.075 1.076-7.732Zm-1.35 9.709.753.287 2.145-2.082.55 2.218 1.846 1.15.975 1.711 1.004.135-2.478 8.387-3.583-1.526-2.585-.405 1.373-9.875Zm7.732 1.864-.188-.102-1.887-2.059-.913-.348-.125-2.725-.933-.802 2.953-4.006 2.104-2.99 2.23-.266 2.716.59.996 2.165.912.348.509 1.31.538.205.789 6.087-.569.468-1.783.212-1.679 2.484-1.233 2.43-1.429.54L25 17.5l-.98 3.32Zm3.384 4.813 2.454-.608 3.266 2.808.53 1.764 1.606.5.966 7.45-.818.975-3.245-2.354-1.552.318-3.207-10.853Zm7.602 2.509-.524-.014-.508-1.31-4.18-3.156 2.996-3.097 1.164-.542 1.052 8.119Zm-3.133-24.17.686 5.29-.778-.908-.188-4.088.28-.295Z" fill="#546DDB"/><path fill-rule="evenodd" clip-rule="evenodd" d="m29.913 6.75-.125-2.726 1.857-1.802-.145-1.118c-2.718.407-5.204.573-7.73.5l.803 1.214 2.561 1.979 2.78 1.953ZM22 1.513l2.459 3.602-.362 1.87-2.592 2.136-2.27-.643-1.416-.54.869-6.246.234-.028.279-.44c.954.127 1.883.223 2.799.29Zm-4.363 7.734 1.681 1.048.125 2.725-.85 1.014-.362 1.87-1.67 1.075 1.076-7.732Zm-1.35 9.709.753.287 2.145-2.082.55 2.218 1.846 1.15.975 1.711 1.004.135-2.478 8.387-3.583-1.526-2.585-.405 1.373-9.875Zm7.732 1.864-.188-.102-1.887-2.059-.913-.348-.125-2.725-.933-.802 2.953-4.006 2.104-2.99 2.23-.266 2.716.59.996 2.165.912.348.509 1.31.538.205.789 6.087-.569.468-1.783.212-1.679 2.484-1.233 2.43-1.429.54L25 17.5l-.98 3.32Zm3.384 4.813 2.454-.608 3.266 2.808.53 1.764 1.606.5.966 7.45-.818.975-3.245-2.354-1.552.318-3.207-10.853Zm7.602 2.509-.524-.014-.508-1.31-4.18-3.156 2.996-3.097 1.164-.542 1.052 8.119Zm-3.133-24.17.686 5.29-.778-.908-.188-4.088.28-.295Z" fill="#000" fill-opacity=".4"/><path fill-rule="evenodd" clip-rule="evenodd" d="M31.645 2.222 31.5 1.104c.278-.042.558-.086.842-.133l-.408.97-.289.281Zm8.025 5.207-1.5-7.663-.439.104-2.719.792-3.14 3.31.686 5.29.643.75 2.166-1.628 4.303-.955Zm2.854 23.075L42 20.833l-.315-1.784-3.712-2.754-3.866 3.657-.153.071 1.052 8.119 2.618.069.975 1.71.55 2.218.104 2.271 3.272-3.906Zm-7.265-.407.966 7.45 2.157-2.576-1.463-2.566-.083-1.817-1.577-.491ZM32.93 12.14l.789 6.087.727-.6-.104-2.27.787-2.378-2.2-.839ZM18.688 1.692l-.869 6.246-1.322-.505.389-1.295-1.427-1.778-2.8-2.407-.083-1.817 4.116 1.794 1.996-.238ZM16.562 16.98l1.075-7.732-.165-.103-1.783.212-1.846-1.15-1.1-4.436-1.627-1.399-3.207 16.39-.079 1.446.315.552.933.802.55 2.218 3.483-2.241 1.108-5.156.933.802 1.338-.159.072-.046ZM14.913 28.83l1.374-9.875-1.072-.409-1.17 3.793-3.909 2.749 2.397 3.368 2.38.374ZM7.7 22.605l-.343 6.317.864 3.245 2.187-1.173.829-1.47-2.438-4.276-1.017-2.62-.082-.023Zm33.434-5.774-3.246-2.353-2.124 2.536-.105-2.271.788-2.377-.126-2.726 3.1-.825 1.017 2.619-.383 1.416 1.08 3.981Z" fill="#546DDB"/><path fill-rule="evenodd" clip-rule="evenodd" d="M31.645 2.222 31.5 1.104c.278-.042.558-.086.842-.133l-.408.97-.289.281Zm8.025 5.207-1.5-7.663-.439.104-2.719.792-3.14 3.31.686 5.29.643.75 2.166-1.628 4.303-.955Zm2.854 23.075L42 20.833l-.315-1.784-3.712-2.754-3.866 3.657-.153.071 1.052 8.119 2.618.069.975 1.71.55 2.218.104 2.271 3.272-3.906Zm-7.265-.407.966 7.45 2.157-2.576-1.463-2.566-.083-1.817-1.577-.491ZM32.93 12.14l.789 6.087.727-.6-.104-2.27.787-2.378-2.2-.839ZM18.688 1.692l-.869 6.246-1.322-.505.389-1.295-1.427-1.778-2.8-2.407-.083-1.817 4.116 1.794 1.996-.238ZM16.562 16.98l1.075-7.732-.165-.103-1.783.212-1.846-1.15-1.1-4.436-1.627-1.399-3.207 16.39-.079 1.446.315.552.933.802.55 2.218 3.483-2.241 1.108-5.156.933.802 1.338-.159.072-.046ZM14.913 28.83l1.374-9.875-1.072-.409-1.17 3.793-3.909 2.749 2.397 3.368 2.38.374ZM7.7 22.605l-.343 6.317.864 3.245 2.187-1.173.829-1.47-2.438-4.276-1.017-2.62-.082-.023Zm33.434-5.774-3.246-2.353-2.124 2.536-.105-2.271.788-2.377-.126-2.726 3.1-.825 1.017 2.619-.383 1.416 1.08 3.981Z" fill="#000" fill-opacity=".4"/><path d="M18.859 1.19c-2.375 13.14-3.15 22.221-4.686 37.951" stroke="#1D8CE0" stroke-width=".328"/><path d="M18.859 1.19c-2.375 13.14-3.15 22.221-4.686 37.951" stroke="#000" stroke-opacity=".8" stroke-width=".328"/><path d="M31.076 1.19c2.404 13.303 3.189 22.496 4.743 38.42" stroke="#1D8CE0" stroke-width=".335"/><path d="M31.076 1.19c2.404 13.303 3.189 22.496 4.743 38.42" stroke="#000" stroke-opacity=".8" stroke-width=".335"/><path d="m11.5-.234-.55 3.69 6.916 1.31h14.436l6.647-1.254-.55-3.746-6.652 1.344H18.42L11.5-.234Z" fill="#1D8CE0"/><path d="m11.5-.234-.55 3.69 6.916 1.31h14.436l6.647-1.254-.55-3.746-6.652 1.344H18.42L11.5-.234Z" fill="#fff" fill-opacity=".4"/><path d="m11.5-.234-.55 3.69 6.916 1.31h14.436l6.647-1.254-.55-3.746-6.652 1.344H18.42L11.5-.234Z" stroke="#1D8CE0" stroke-width=".347"/><path d="m11.5-.234-.55 3.69 6.916 1.31h14.436l6.647-1.254-.55-3.746-6.652 1.344H18.42L11.5-.234Z" stroke="#000" stroke-opacity=".8" stroke-width=".347"/><path d="m7 26.5.128 5.682 13.064 2.054L22 29.5c1.402-4.127-3.929-6.61-5.976-10.197C12.968 21.962 7.849 22.54 7 26.5Z" fill="#1D8CE0"/><path d="m7 26.5.128 5.682 13.064 2.054L22 29.5c1.402-4.127-3.929-6.61-5.976-10.197C12.968 21.962 7.849 22.54 7 26.5Z" fill="#000" fill-opacity=".2"/><path d="m7 26.5.128 5.682 13.064 2.054L22 29.5c1.402-4.127-3.929-6.61-5.976-10.197C12.968 21.962 7.849 22.54 7 26.5Z" stroke="#1D8CE0" stroke-width=".441"/><path d="m7 26.5.128 5.682 13.064 2.054L22 29.5c1.402-4.127-3.929-6.61-5.976-10.197C12.968 21.962 7.849 22.54 7 26.5Z" stroke="#000" stroke-opacity=".8" stroke-width=".441"/><path d="m7 30.5.02 2.969 12.976 1.967L21 33c.825-3.677-3.227-6.609-5.275-9.952C12.704 25.506 7 26.5 7 30.5Z" fill="#1D8CE0"/><path d="m7 30.5.02 2.969 12.976 1.967L21 33c.825-3.677-3.227-6.609-5.275-9.952C12.704 25.506 7 26.5 7 30.5Z" fill="#fff" fill-opacity=".2"/><path d="m7 30.5.02 2.969 12.976 1.967L21 33c.825-3.677-3.227-6.609-5.275-9.952C12.704 25.506 7 26.5 7 30.5Z" stroke="#1D8CE0" stroke-width=".426"/><path d="m7 30.5.02 2.969 12.976 1.967L21 33c.825-3.677-3.227-6.609-5.275-9.952C12.704 25.506 7 26.5 7 30.5Z" stroke="#000" stroke-opacity=".8" stroke-width=".426"/><path d="m20 42-.467-4.782-13.035-2.225-1.471 3.902C3.57 43.003 8.47 46.367 10.47 49.98 13.56 47.361 19.1 45.95 20 42Z" fill="#1D8CE0"/><path d="m20 42-.467-4.782-13.035-2.225-1.471 3.902C3.57 43.003 8.47 46.367 10.47 49.98 13.56 47.361 19.1 45.95 20 42Z" fill="#000" fill-opacity=".2"/><path d="m20 42-.467-4.782-13.035-2.225-1.471 3.902C3.57 43.003 8.47 46.367 10.47 49.98 13.56 47.361 19.1 45.95 20 42Z" stroke="#1D8CE0" stroke-width=".441"/><path d="m20 42-.467-4.782-13.035-2.225-1.471 3.902C3.57 43.003 8.47 46.367 10.47 49.98 13.56 47.361 19.1 45.95 20 42Z" stroke="#000" stroke-opacity=".8" stroke-width=".441"/><path d="m20 38.5-.174-2.768L7 33.5 6 36c-.837 3.669 3.535 5.893 5.394 9.25 2.87-2.433 7.77-3.081 8.606-6.75Z" fill="#1D8CE0"/><path d="m20 38.5-.174-2.768L7 33.5 6 36c-.837 3.669 3.535 5.893 5.394 9.25 2.87-2.433 7.77-3.081 8.606-6.75Z" fill="#fff" fill-opacity=".2"/><path d="m20 38.5-.174-2.768L7 33.5 6 36c-.837 3.669 3.535 5.893 5.394 9.25 2.87-2.433 7.77-3.081 8.606-6.75Z" stroke="#1D8CE0" stroke-width=".426"/><path d="m20 38.5-.174-2.768L7 33.5 6 36c-.837 3.669 3.535 5.893 5.394 9.25 2.87-2.433 7.77-3.081 8.606-6.75Z" stroke="#000" stroke-opacity=".8" stroke-width=".426"/><path d="M14.762 27.816C13.058 29.298 8.277 30.184 7 33.5c.943 2.53 2.21 5.134 5.285 6.947C15.5 40 18.223 38.044 20 35.5c-.84-3.259-4.324-5.486-5.238-7.684Z" fill="#1D8CE0"/><path d="M14.762 27.816C13.058 29.298 8.277 30.184 7 33.5c.943 2.53 2.21 5.134 5.285 6.947C15.5 40 18.223 38.044 20 35.5c-.84-3.259-4.324-5.486-5.238-7.684Z" fill="#fff" fill-opacity=".8"/><path d="M14.762 27.816C13.058 29.298 8.277 30.184 7 33.5c.943 2.53 2.21 5.134 5.285 6.947C15.5 40 18.223 38.044 20 35.5c-.84-3.259-4.324-5.486-5.238-7.684Z" stroke="#1D8CE0" stroke-width=".426"/><path d="M14.762 27.816C13.058 29.298 8.277 30.184 7 33.5c.943 2.53 2.21 5.134 5.285 6.947C15.5 40 18.223 38.044 20 35.5c-.84-3.259-4.324-5.486-5.238-7.684Z" stroke="#000" stroke-opacity=".8" stroke-width=".426"/><path d="m27.592 28.673 1.963 5.333 13.024-2.289.176-5.066c-.01-4.359-5.859-4.981-8.958-7.711-2.029 3.505-6.685 5.711-6.205 9.733Z" fill="#1D8CE0"/><path d="m27.592 28.673 1.963 5.333 13.024-2.289.176-5.066c-.01-4.359-5.859-4.981-8.958-7.711-2.029 3.505-6.685 5.711-6.205 9.733Z" fill="#000" fill-opacity=".2"/><path d="m27.592 28.673 1.963 5.333 13.024-2.289.176-5.066c-.01-4.359-5.859-4.981-8.958-7.711-2.029 3.505-6.685 5.711-6.205 9.733Z" stroke="#1D8CE0" stroke-width=".441"/><path d="m27.592 28.673 1.963 5.333 13.024-2.289.176-5.066c-.01-4.359-5.859-4.981-8.958-7.711-2.029 3.505-6.685 5.711-6.205 9.733Z" stroke="#000" stroke-opacity=".8" stroke-width=".441"/><path d="m28.888 32.457.982 2.802 12.912-2.343.161-2.63c-.41-3.746-5.194-5.207-8.215-7.706-2.062 3.304-7.136 6.093-5.84 9.877Z" fill="#1D8CE0"/><path d="m28.888 32.457.982 2.802 12.912-2.343.161-2.63c-.41-3.746-5.194-5.207-8.215-7.706-2.062 3.304-7.136 6.093-5.84 9.877Z" fill="#fff" fill-opacity=".2"/><path d="m28.888 32.457.982 2.802 12.912-2.343.161-2.63c-.41-3.746-5.194-5.207-8.215-7.706-2.062 3.304-7.136 6.093-5.84 9.877Z" stroke="#1D8CE0" stroke-width=".426"/><path d="m28.888 32.457.982 2.802 12.912-2.343.161-2.63c-.41-3.746-5.194-5.207-8.215-7.706-2.062 3.304-7.136 6.093-5.84 9.877Z" stroke="#000" stroke-opacity=".8" stroke-width=".426"/><path d="m44.913 39.124-1.991-4.372-13.053 2.118-.128 4.168c-.047 4.359 5.678 5.953 8.742 8.724 2.074-3.479 6.857-6.61 6.43-10.638Z" fill="#1D8CE0"/><path d="m44.913 39.124-1.991-4.372-13.053 2.118-.128 4.168c-.047 4.359 5.678 5.953 8.742 8.724 2.074-3.479 6.857-6.61 6.43-10.638Z" fill="#000" fill-opacity=".2"/><path d="m44.913 39.124-1.991-4.372-13.053 2.118-.128 4.168c-.047 4.359 5.678 5.953 8.742 8.724 2.074-3.479 6.857-6.61 6.43-10.638Z" stroke="#1D8CE0" stroke-width=".441"/><path d="m44.913 39.124-1.991-4.372-13.053 2.118-.128 4.168c-.047 4.359 5.678 5.953 8.742 8.724 2.074-3.479 6.857-6.61 6.43-10.638Z" stroke="#000" stroke-opacity=".8" stroke-width=".441"/><path d="m43.779 35.813-1.062-2.562-12.857 2.044-.136 2.69c.397 3.741 5.254 4.429 8.1 7.003 1.928-3.232 6.352-5.433 5.955-9.175Z" fill="#1D8CE0"/><path d="m43.779 35.813-1.062-2.562-12.857 2.044-.136 2.69c.397 3.741 5.254 4.429 8.1 7.003 1.928-3.232 6.352-5.433 5.955-9.175Z" fill="#fff" fill-opacity=".2"/><path d="m43.779 35.813-1.062-2.562-12.857 2.044-.136 2.69c.397 3.741 5.254 4.429 8.1 7.003 1.928-3.232 6.352-5.433 5.955-9.175Z" stroke="#1D8CE0" stroke-width=".426"/><path d="m43.779 35.813-1.062-2.562-12.857 2.044-.136 2.69c.397 3.741 5.254 4.429 8.1 7.003 1.928-3.232 6.352-5.433 5.955-9.175Z" stroke="#000" stroke-opacity=".8" stroke-width=".426"/><path d="M35.361 27.403c-1.13 1.954-5.367 4.342-5.501 7.892 1.712 2.088 3.755 4.14 7.251 4.86 2.897-1.465 4.84-4.198 5.696-7.18-1.852-2.81-5.868-3.79-7.446-5.572Z" fill="#1D8CE0"/><path d="M35.361 27.403c-1.13 1.954-5.367 4.342-5.501 7.892 1.712 2.088 3.755 4.14 7.251 4.86 2.897-1.465 4.84-4.198 5.696-7.18-1.852-2.81-5.868-3.79-7.446-5.572Z" fill="#fff" fill-opacity=".8"/><path d="M35.361 27.403c-1.13 1.954-5.367 4.342-5.501 7.892 1.712 2.088 3.755 4.14 7.251 4.86 2.897-1.465 4.84-4.198 5.696-7.18-1.852-2.81-5.868-3.79-7.446-5.572Z" stroke="#1D8CE0" stroke-width=".426"/><path d="M35.361 27.403c-1.13 1.954-5.367 4.342-5.501 7.892 1.712 2.088 3.755 4.14 7.251 4.86 2.897-1.465 4.84-4.198 5.696-7.18-1.852-2.81-5.868-3.79-7.446-5.572Z" stroke="#000" stroke-opacity=".8" stroke-width=".426"/></g><defs><clipPath id="aqka"><path fill="#fff" transform="matrix(-1 0 0 1 50 0)" d="M0 0h50v50H0z"/></clipPath></defs></svg>