<?xml version="1.0" encoding="utf-8"?><svg fill="none" viewBox="0 0 50 50" xmlns="http://www.w3.org/2000/svg" width="50" height="50"><g clip-path="url(#atwa)"><path d="m31.5 39.5-6.5-22-6.5 22-5-.506-6.653-.673 1.062-19.56L11.625-.235c2.618.622 4.948 1.088 7.136 1.398 4.424.625 8.269.61 12.739-.06C33.553.796 35.737.35 38.17-.234l3.717 18.994 1.062 19.561-6.537.673-4.912.506Z" fill="#1D8CE0"/><path d="m31.5 39.5-6.5-22-6.5 22-5-.506-6.653-.673 1.062-19.56L11.625-.235c2.618.622 4.948 1.088 7.136 1.398 4.424.625 8.269.61 12.739-.06C33.553.796 35.737.35 38.17-.234l3.717 18.994 1.062 19.561-6.537.673-4.912.506Z" fill="#fff" fill-opacity=".2"/><path d="m25 17.5 6.5 22 4.912-.506L31.5 1.104c-4.47.67-8.315.685-12.739.06L13.5 38.994l5 .506 6.5-22Z" fill="#1D8CE0"/><path d="m25 17.5 6.5 22 4.912-.506L31.5 1.104c-4.47.67-8.315.685-12.739.06L13.5 38.994l5 .506 6.5-22Z" fill="#fff" fill-opacity=".4"/><path d="m27.403 25.632 3.207 10.854 1.552-.318 3.245 2.354.818-.977-.965-7.448-1.608-.5-.53-1.764-3.266-2.808-2.453.607ZM17.04 19.243l-.753-.288-1.373 9.875 2.585.407 3.583 1.525 2.478-8.388-1.004-.134-.975-1.71-1.846-1.151-.55-2.218-2.145 2.082Zm15.749 1.323-2.995 3.096 4.18 3.157.507 1.31.526.013-1.053-8.118-1.165.542ZM25.03 7.787l-2.104 2.991-2.954 4.005.934.803.125 2.726.913.347 1.888 2.059.187.102.98-3.32 2.028 6.861 1.43-.54 1.232-2.43 1.679-2.484 1.783-.212.57-.468-.79-6.087-.539-.205-.508-1.31-.913-.348-.996-2.165-2.716-.59-2.229.265Zm-8.468 9.192 1.67-1.075.361-1.87.85-1.014-.125-2.725-1.68-1.048-1.076 7.732Zm15.03-12.713.188 4.089.778.906-.686-5.291-.28.296Zm-12.67-2.602-.234.028-.868 6.246 1.414.54 2.272.643 2.59-2.136.363-1.87-2.46-3.602a46.655 46.655 0 0 1-2.797-.291l-.28.442Zm12.578-.56c-2.718.407-5.205.571-7.732.498l.805 1.216 2.561 1.979 2.779 1.952-.125-2.724 1.857-1.804-.145-1.117Z" fill="#546DDB"/><path d="m27.403 25.632 3.207 10.854 1.552-.318 3.245 2.354.818-.977-.965-7.448-1.608-.5-.53-1.764-3.266-2.808-2.453.607ZM17.04 19.243l-.753-.288-1.373 9.875 2.585.407 3.583 1.525 2.478-8.388-1.004-.134-.975-1.71-1.846-1.151-.55-2.218-2.145 2.082Zm15.749 1.323-2.995 3.096 4.18 3.157.507 1.31.526.013-1.053-8.118-1.165.542ZM25.03 7.787l-2.104 2.991-2.954 4.005.934.803.125 2.726.913.347 1.888 2.059.187.102.98-3.32 2.028 6.861 1.43-.54 1.232-2.43 1.679-2.484 1.783-.212.57-.468-.79-6.087-.539-.205-.508-1.31-.913-.348-.996-2.165-2.716-.59-2.229.265Zm-8.468 9.192 1.67-1.075.361-1.87.85-1.014-.125-2.725-1.68-1.048-1.076 7.732Zm15.03-12.713.188 4.089.778.906-.686-5.291-.28.296Zm-12.67-2.602-.234.028-.868 6.246 1.414.54 2.272.643 2.59-2.136.363-1.87-2.46-3.602a46.655 46.655 0 0 1-2.797-.291l-.28.442Zm12.578-.56c-2.718.407-5.205.571-7.732.498l.805 1.216 2.561 1.979 2.779 1.952-.125-2.724 1.857-1.804-.145-1.117Z" fill="#000" fill-opacity=".4"/><path d="m36.225 37.546 2.157-2.575-1.463-2.567-.083-1.816-1.577-.491.966 7.449Zm-2.12-17.594-.152.07 1.053 8.12 2.617.068.975 1.711.55 2.219.105 2.27 3.271-3.906L42 20.829l-.314-1.78-3.713-2.754-3.867 3.657ZM7.357 28.921l.864 3.246 2.187-1.174.83-1.468-2.44-4.277-1.016-2.619-.08-.023-.345 6.315Zm6.687-6.581-3.907 2.749 2.395 3.368 2.382.373 1.373-9.875-1.072-.408-1.171 3.793Zm-6.135-3.58-.078 1.447.314.552.933.803.55 2.217 3.483-2.24 1.108-5.157.933.803 1.337-.16.072-.046 1.077-7.733-.165-.101-1.783.212-1.847-1.15-1.1-4.437-1.627-1.4L7.91 18.76Zm25.812-.533.726-.599-.104-2.271.787-2.377-2.198-.84.789 6.087Zm2.6-8.586.125 2.724-.787 2.378.105 2.27 2.125-2.535 3.245 2.353-1.08-3.981.383-1.416-1.016-2.62-3.1.827Zm1.423-9.775-2.732.796-3.14 3.308.687 5.292.641.75 2.167-1.628 4.303-.956-1.5-7.662-.426.1ZM12.66 1.953l2.8 2.407 1.427 1.778-.389 1.296 1.322.504.869-6.246-1.996.238L12.576.136l.083 1.817ZM32.342.97c-.283.047-.564.092-.842.134l.145 1.117.289-.28.408-.971Z" fill="#546DDB"/><path d="m36.225 37.546 2.157-2.575-1.463-2.567-.083-1.816-1.577-.491.966 7.449Zm-2.12-17.594-.152.07 1.053 8.12 2.617.068.975 1.711.55 2.219.105 2.27 3.271-3.906L42 20.829l-.314-1.78-3.713-2.754-3.867 3.657ZM7.357 28.921l.864 3.246 2.187-1.174.83-1.468-2.44-4.277-1.016-2.619-.08-.023-.345 6.315Zm6.687-6.581-3.907 2.749 2.395 3.368 2.382.373 1.373-9.875-1.072-.408-1.171 3.793Zm-6.135-3.58-.078 1.447.314.552.933.803.55 2.217 3.483-2.24 1.108-5.157.933.803 1.337-.16.072-.046 1.077-7.733-.165-.101-1.783.212-1.847-1.15-1.1-4.437-1.627-1.4L7.91 18.76Zm25.812-.533.726-.599-.104-2.271.787-2.377-2.198-.84.789 6.087Zm2.6-8.586.125 2.724-.787 2.378.105 2.27 2.125-2.535 3.245 2.353-1.08-3.981.383-1.416-1.016-2.62-3.1.827Zm1.423-9.775-2.732.796-3.14 3.308.687 5.292.641.75 2.167-1.628 4.303-.956-1.5-7.662-.426.1ZM12.66 1.953l2.8 2.407 1.427 1.778-.389 1.296 1.322.504.869-6.246-1.996.238L12.576.136l.083 1.817ZM32.342.97c-.283.047-.564.092-.842.134l.145 1.117.289-.28.408-.971Z" fill="#000" fill-opacity=".4"/><path d="M18.859 1.19c-2.375 13.14-3.15 22.221-4.686 37.951" stroke="#1D8CE0" stroke-width=".328"/><path d="M18.859 1.19c-2.375 13.14-3.15 22.221-4.686 37.951" stroke="#000" stroke-opacity=".8" stroke-width=".328"/><path d="M31.076 1.19c2.404 13.303 3.189 22.496 4.743 38.42" stroke="#1D8CE0" stroke-width=".335"/><path d="M31.076 1.19c2.404 13.303 3.189 22.496 4.743 38.42" stroke="#000" stroke-opacity=".8" stroke-width=".335"/><path d="m11.5-.234-.55 3.69 6.916 1.31h14.436l6.647-1.254-.55-3.746-6.652 1.344H18.42L11.5-.234Z" fill="#1D8CE0"/><path d="m11.5-.234-.55 3.69 6.916 1.31h14.436l6.647-1.254-.55-3.746-6.652 1.344H18.42L11.5-.234Z" fill="#fff" fill-opacity=".4"/><path d="m11.5-.234-.55 3.69 6.916 1.31h14.436l6.647-1.254-.55-3.746-6.652 1.344H18.42L11.5-.234Z" stroke="#1D8CE0" stroke-width=".347"/><path d="m11.5-.234-.55 3.69 6.916 1.31h14.436l6.647-1.254-.55-3.746-6.652 1.344H18.42L11.5-.234Z" stroke="#000" stroke-opacity=".8" stroke-width=".347"/><path d="m7 26.5.128 5.682 13.064 2.054L22 29.5c1.402-4.127-3.929-6.61-5.976-10.197C12.968 21.962 7.849 22.54 7 26.5Z" fill="#1D8CE0"/><path d="m7 26.5.128 5.682 13.064 2.054L22 29.5c1.402-4.127-3.929-6.61-5.976-10.197C12.968 21.962 7.849 22.54 7 26.5Z" fill="#000" fill-opacity=".2"/><path d="m7 26.5.128 5.682 13.064 2.054L22 29.5c1.402-4.127-3.929-6.61-5.976-10.197C12.968 21.962 7.849 22.54 7 26.5Z" stroke="#1D8CE0" stroke-width=".441"/><path d="m7 26.5.128 5.682 13.064 2.054L22 29.5c1.402-4.127-3.929-6.61-5.976-10.197C12.968 21.962 7.849 22.54 7 26.5Z" stroke="#000" stroke-opacity=".8" stroke-width=".441"/><path d="m7 30.5.02 2.969 12.976 1.967L21 33c.825-3.677-3.227-6.609-5.275-9.952C12.704 25.506 7 26.5 7 30.5Z" fill="#1D8CE0"/><path d="m7 30.5.02 2.969 12.976 1.967L21 33c.825-3.677-3.227-6.609-5.275-9.952C12.704 25.506 7 26.5 7 30.5Z" fill="#fff" fill-opacity=".2"/><path d="m7 30.5.02 2.969 12.976 1.967L21 33c.825-3.677-3.227-6.609-5.275-9.952C12.704 25.506 7 26.5 7 30.5Z" stroke="#1D8CE0" stroke-width=".426"/><path d="m7 30.5.02 2.969 12.976 1.967L21 33c.825-3.677-3.227-6.609-5.275-9.952C12.704 25.506 7 26.5 7 30.5Z" stroke="#000" stroke-opacity=".8" stroke-width=".426"/><path d="m20 42-.467-4.782-13.035-2.225-1.471 3.902C3.57 43.003 8.47 46.367 10.47 49.98 13.56 47.361 19.1 45.95 20 42Z" fill="#1D8CE0"/><path d="m20 42-.467-4.782-13.035-2.225-1.471 3.902C3.57 43.003 8.47 46.367 10.47 49.98 13.56 47.361 19.1 45.95 20 42Z" fill="#000" fill-opacity=".2"/><path d="m20 42-.467-4.782-13.035-2.225-1.471 3.902C3.57 43.003 8.47 46.367 10.47 49.98 13.56 47.361 19.1 45.95 20 42Z" stroke="#1D8CE0" stroke-width=".441"/><path d="m20 42-.467-4.782-13.035-2.225-1.471 3.902C3.57 43.003 8.47 46.367 10.47 49.98 13.56 47.361 19.1 45.95 20 42Z" stroke="#000" stroke-opacity=".8" stroke-width=".441"/><path d="m20 38.5-.174-2.768L7 33.5 6 36c-.837 3.669 3.535 5.893 5.394 9.25 2.87-2.433 7.77-3.081 8.606-6.75Z" fill="#1D8CE0"/><path d="m20 38.5-.174-2.768L7 33.5 6 36c-.837 3.669 3.535 5.893 5.394 9.25 2.87-2.433 7.77-3.081 8.606-6.75Z" fill="#fff" fill-opacity=".2"/><path d="m20 38.5-.174-2.768L7 33.5 6 36c-.837 3.669 3.535 5.893 5.394 9.25 2.87-2.433 7.77-3.081 8.606-6.75Z" stroke="#1D8CE0" stroke-width=".426"/><path d="m20 38.5-.174-2.768L7 33.5 6 36c-.837 3.669 3.535 5.893 5.394 9.25 2.87-2.433 7.77-3.081 8.606-6.75Z" stroke="#000" stroke-opacity=".8" stroke-width=".426"/><path d="M14.762 27.816C13.058 29.298 8.277 30.184 7 33.5c.943 2.53 2.21 5.134 5.285 6.947C15.5 40 18.223 38.044 20 35.5c-.84-3.259-4.324-5.486-5.238-7.684Z" fill="#1D8CE0"/><path d="M14.762 27.816C13.058 29.298 8.277 30.184 7 33.5c.943 2.53 2.21 5.134 5.285 6.947C15.5 40 18.223 38.044 20 35.5c-.84-3.259-4.324-5.486-5.238-7.684Z" fill="#fff" fill-opacity=".8"/><path d="M14.762 27.816C13.058 29.298 8.277 30.184 7 33.5c.943 2.53 2.21 5.134 5.285 6.947C15.5 40 18.223 38.044 20 35.5c-.84-3.259-4.324-5.486-5.238-7.684Z" stroke="#1D8CE0" stroke-width=".426"/><path d="M14.762 27.816C13.058 29.298 8.277 30.184 7 33.5c.943 2.53 2.21 5.134 5.285 6.947C15.5 40 18.223 38.044 20 35.5c-.84-3.259-4.324-5.486-5.238-7.684Z" stroke="#000" stroke-opacity=".8" stroke-width=".426"/><path d="m27.592 28.673 1.963 5.333 13.024-2.289.176-5.066c-.01-4.359-5.859-4.981-8.958-7.711-2.029 3.505-6.685 5.711-6.205 9.733Z" fill="#1D8CE0"/><path d="m27.592 28.673 1.963 5.333 13.024-2.289.176-5.066c-.01-4.359-5.859-4.981-8.958-7.711-2.029 3.505-6.685 5.711-6.205 9.733Z" fill="#000" fill-opacity=".2"/><path d="m27.592 28.673 1.963 5.333 13.024-2.289.176-5.066c-.01-4.359-5.859-4.981-8.958-7.711-2.029 3.505-6.685 5.711-6.205 9.733Z" stroke="#1D8CE0" stroke-width=".441"/><path d="m27.592 28.673 1.963 5.333 13.024-2.289.176-5.066c-.01-4.359-5.859-4.981-8.958-7.711-2.029 3.505-6.685 5.711-6.205 9.733Z" stroke="#000" stroke-opacity=".8" stroke-width=".441"/><path d="m28.888 32.457.982 2.802 12.912-2.343.161-2.63c-.41-3.746-5.194-5.207-8.215-7.706-2.062 3.304-7.136 6.093-5.84 9.877Z" fill="#1D8CE0"/><path d="m28.888 32.457.982 2.802 12.912-2.343.161-2.63c-.41-3.746-5.194-5.207-8.215-7.706-2.062 3.304-7.136 6.093-5.84 9.877Z" fill="#fff" fill-opacity=".2"/><path d="m28.888 32.457.982 2.802 12.912-2.343.161-2.63c-.41-3.746-5.194-5.207-8.215-7.706-2.062 3.304-7.136 6.093-5.84 9.877Z" stroke="#1D8CE0" stroke-width=".426"/><path d="m28.888 32.457.982 2.802 12.912-2.343.161-2.63c-.41-3.746-5.194-5.207-8.215-7.706-2.062 3.304-7.136 6.093-5.84 9.877Z" stroke="#000" stroke-opacity=".8" stroke-width=".426"/><path d="m44.913 39.124-1.991-4.372-13.053 2.118-.128 4.168c-.047 4.359 5.678 5.953 8.742 8.724 2.074-3.479 6.857-6.61 6.43-10.638Z" fill="#1D8CE0"/><path d="m44.913 39.124-1.991-4.372-13.053 2.118-.128 4.168c-.047 4.359 5.678 5.953 8.742 8.724 2.074-3.479 6.857-6.61 6.43-10.638Z" fill="#000" fill-opacity=".2"/><path d="m44.913 39.124-1.991-4.372-13.053 2.118-.128 4.168c-.047 4.359 5.678 5.953 8.742 8.724 2.074-3.479 6.857-6.61 6.43-10.638Z" stroke="#1D8CE0" stroke-width=".441"/><path d="m44.913 39.124-1.991-4.372-13.053 2.118-.128 4.168c-.047 4.359 5.678 5.953 8.742 8.724 2.074-3.479 6.857-6.61 6.43-10.638Z" stroke="#000" stroke-opacity=".8" stroke-width=".441"/><path d="m43.779 35.813-1.062-2.562-12.857 2.044-.136 2.69c.397 3.741 5.254 4.429 8.1 7.003 1.928-3.232 6.352-5.433 5.955-9.175Z" fill="#1D8CE0"/><path d="m43.779 35.813-1.062-2.562-12.857 2.044-.136 2.69c.397 3.741 5.254 4.429 8.1 7.003 1.928-3.232 6.352-5.433 5.955-9.175Z" fill="#fff" fill-opacity=".2"/><path d="m43.779 35.813-1.062-2.562-12.857 2.044-.136 2.69c.397 3.741 5.254 4.429 8.1 7.003 1.928-3.232 6.352-5.433 5.955-9.175Z" stroke="#1D8CE0" stroke-width=".426"/><path d="m43.779 35.813-1.062-2.562-12.857 2.044-.136 2.69c.397 3.741 5.254 4.429 8.1 7.003 1.928-3.232 6.352-5.433 5.955-9.175Z" stroke="#000" stroke-opacity=".8" stroke-width=".426"/><path d="M35.361 27.403c-1.13 1.954-5.367 4.342-5.501 7.892 1.712 2.088 3.755 4.14 7.251 4.86 2.897-1.465 4.84-4.198 5.696-7.18-1.852-2.81-5.868-3.79-7.446-5.572Z" fill="#1D8CE0"/><path d="M35.361 27.403c-1.13 1.954-5.367 4.342-5.501 7.892 1.712 2.088 3.755 4.14 7.251 4.86 2.897-1.465 4.84-4.198 5.696-7.18-1.852-2.81-5.868-3.79-7.446-5.572Z" fill="#fff" fill-opacity=".8"/><path d="M35.361 27.403c-1.13 1.954-5.367 4.342-5.501 7.892 1.712 2.088 3.755 4.14 7.251 4.86 2.897-1.465 4.84-4.198 5.696-7.18-1.852-2.81-5.868-3.79-7.446-5.572Z" stroke="#1D8CE0" stroke-width=".426"/><path d="M35.361 27.403c-1.13 1.954-5.367 4.342-5.501 7.892 1.712 2.088 3.755 4.14 7.251 4.86 2.897-1.465 4.84-4.198 5.696-7.18-1.852-2.81-5.868-3.79-7.446-5.572Z" stroke="#000" stroke-opacity=".8" stroke-width=".426"/><g clip-path="url(#atwb)" fill="#152242"><path d="M39.029 28.446a1 1 0 0 1 1.742 0l3.507 6.22a1 1 0 0 0 .673.49l7 1.412a1 1 0 0 1 .538 1.657l-4.833 5.258a1 1 0 0 0-.257.791l.82 7.094a1 1 0 0 1-1.41 1.024l-6.493-2.972a1 1 0 0 0-.832 0l-6.494 2.972a1 1 0 0 1-1.41-1.024l.82-7.094a1 1 0 0 0-.257-.791l-4.833-5.258a1 1 0 0 1 .539-1.657l7-1.412a1 1 0 0 0 .673-.49l3.507-6.22Z"/><path d="m41.935 37.532.339.602.675.135 4.062.82-2.804 3.05-.467.508.08.686.474 4.115-3.766-1.724-.627-.287-.627.288-3.769 1.723.476-4.115.079-.686-.467-.508-2.805-3.05 4.063-.82.676-.135.338-.602 2.035-3.611 2.035 3.611Z" stroke="#FAA21E" stroke-width="3.013"/></g></g><defs><clipPath id="atwa"><path fill="#fff" transform="matrix(-1 0 0 1 50 0)" d="M0 0h50v50H0z"/></clipPath><clipPath id="atwb"><path fill="#fff" transform="matrix(1 0 0 -1 0 50)" d="M0 0h50v50H0z"/></clipPath></defs></svg>