<?xml version="1.0" encoding="utf-8"?><svg fill="none" viewBox="0 0 50 50" width="50" height="50" xmlns="http://www.w3.org/2000/svg"><path d="M9.086 27.155 6.5 10.775V9l35.776 29.5v3.31l-3.448 3.449-7.759-3.88-1.293 3.88C29.43 46.293 22.16 48.85 18.569 50l-3.88-9.483-6.465 1.293v-2.586l-3.448-4.31v-1.725l4.31-6.034Z" fill="#1D8CE0"/><path d="M9.086 27.155 6.5 10.775V9l35.776 29.5v3.31l-3.448 3.449-7.759-3.88-1.293 3.88C29.43 46.293 22.16 48.85 18.569 50l-3.88-9.483-6.465 1.293v-2.586l-3.448-4.31v-1.725l4.31-6.034Z" fill="#fff" fill-opacity=".95"/><path d="M8.224 41.81v-2.586L14.69 38v2.517L8.224 41.81Z" fill="#1D8CE0"/><path d="M8.224 41.81v-2.586L14.69 38v2.517L8.224 41.81Z" fill="#fff" fill-opacity=".8"/><path d="M29.776 45.259C29.43 46.293 22.16 48.85 18.569 50v-3.5L29.776 43v2.259Z" fill="#1D8CE0"/><path d="M29.776 45.259C29.43 46.293 22.16 48.85 18.569 50v-3.5L29.776 43v2.259Z" fill="#fff" fill-opacity=".8"/><path d="m38.828 45.259-7.76-3.88v-2.155L38.829 43v2.259Z" fill="#1D8CE0"/><path d="m38.828 45.259-7.76-3.88v-2.155L38.829 43v2.259Z" fill="#fff" fill-opacity=".8"/><path d="M6.5 9.052 15.983 0l3.448 3.017 5.604-.43 1.724 4.74 6.896 4.31 3.88.863 1.293-2.155 3.879-1.293 3.017 13.793-3.017 10.776-.431 6.465-3.448 3.449-7.759-3.88-1.293 3.88c-.345 1.034-7.615 3.591-11.207 4.74l-3.88-9.482-6.465 1.293V37.5l-3.448-4.31 4.31-7.759L6.5 9.051Z" fill="#1D8CE0"/><path d="M6.5 9.052 15.983 0l3.448 3.017 5.604-.43 1.724 4.74 6.896 4.31 3.88.863 1.293-2.155 3.879-1.293 3.017 13.793-3.017 10.776-.431 6.465-3.448 3.449-7.759-3.88-1.293 3.88c-.345 1.034-7.615 3.591-11.207 4.74l-3.88-9.482-6.465 1.293V37.5l-3.448-4.31 4.31-7.759L6.5 9.051Z" fill="#fff" fill-opacity=".4"/><path d="m28.052 31.034 2.155.863 2.586 1.293-.43 1.178 1.292 1.839 2.587 2.586v1.724l-3.88-2.155h-2.155l-1.293 1.724-1.293-1.293-2.586-4.31.43-1.724 2.587-1.725Z" fill="#546DDB"/><path d="m28.052 31.034 2.155.863 2.586 1.293-.43 1.178 1.292 1.839 2.587 2.586v1.724l-3.88-2.155h-2.155l-1.293 1.724-1.293-1.293-2.586-4.31.43-1.724 2.587-1.725Z" fill="#000" fill-opacity=".4"/><path d="M19.862 34.914v-2.586l2.586 2.155 2.375 2.155 1.504 2.586-.43 1.293 1.292 3.449-7.758 2.155-3.017-6.897 1.293-2.586 2.155-1.724Z" fill="#546DDB"/><path d="M19.862 34.914v-2.586l2.586 2.155 2.375 2.155 1.504 2.586-.43 1.293 1.292 3.449-7.758 2.155-3.017-6.897 1.293-2.586 2.155-1.724Z" fill="#000" fill-opacity=".4"/><path d="m6.5 32.759 2.586-5.173 1.293 3.017 4.31-.43 2.156-1.294 1.293 1.724v3.88L14.69 37.5l-5.173.862v-1.724L6.5 32.758Z" fill="#546DDB"/><path d="m6.5 32.759 2.586-5.173 1.293 3.017 4.31-.43 2.156-1.294 1.293 1.724v3.88L14.69 37.5l-5.173.862v-1.724L6.5 32.758Z" fill="#000" fill-opacity=".4"/><path d="m12.534 24.138-3.017-2.586.862 3.88-.43 1.292.861 2.586 3.017-.43v-2.587l.863-2.155v-2.155l-2.156 2.155Z" fill="#546DDB"/><path d="m12.534 24.138-3.017-2.586.862 3.88-.43 1.292.861 2.586 3.017-.43v-2.587l.863-2.155v-2.155l-2.156 2.155Z" fill="#000" fill-opacity=".4"/><path d="m36.672 20.259 3.449-1.725.43 2.156.863.862 1.293 2.586L44 25.43l-2.155 6.465-.862 1.725.43 1.724v3.88l-3.447-.432-1.724-1.724-.863-4.31-1.724-1.294h-1.724l-1.724-1.293v-2.586l.862-.862L31.5 25l1.724-.862h1.293l.862.862 1.294-4.741Z" fill="#546DDB"/><path d="m36.672 20.259 3.449-1.725.43 2.156.863.862 1.293 2.586L44 25.43l-2.155 6.465-.862 1.725.43 1.724v3.88l-3.447-.432-1.724-1.724-.863-4.31-1.724-1.294h-1.724l-1.724-1.293v-2.586l.862-.862L31.5 25l1.724-.862h1.293l.862.862 1.294-4.741Z" fill="#000" fill-opacity=".4"/><path d="m12.965 4.741 3.018-3.017L19 4.31l5.172-.43 1.293 4.31 1.724.862-3.017 5.603-3.448.431-3.017-3.017-.431-1.724-3.018-1.293V7.328L12.965 4.74Z" fill="#546DDB"/><path d="m12.965 4.741 3.018-3.017L19 4.31l5.172-.43 1.293 4.31 1.724.862-3.017 5.603-3.448.431-3.017-3.017-.431-1.724-3.018-1.293V7.328L12.965 4.74Z" fill="#000" fill-opacity=".4"/><path d="m25.035 15.517 3.017-5.603 4.741 2.586 4.742 1.293 2.155 3.448-3.88 2.156-1.293 3.448-1.724-.862-2.155 1.724-.43-2.155-1.725-1.293-.862-1.724-1.724-.431-.862-2.587Z" fill="#546DDB"/><path d="m25.035 15.517 3.017-5.603 4.741 2.586 4.742 1.293 2.155 3.448-3.88 2.156-1.293 3.448-1.724-.862-2.155 1.724-.43-2.155-1.725-1.293-.862-1.724-1.724-.431-.862-2.587Z" fill="#000" fill-opacity=".4"/><path d="m39.69 11.638-.862 1.293 2.155 4.31.862 2.587L44 20.69l-2.155-9.914-2.155.862Z" fill="#546DDB"/><path d="m39.69 11.638-.862 1.293 2.155 4.31.862 2.587L44 20.69l-2.155-9.914-2.155.862Z" fill="#000" fill-opacity=".4"/><path d="m7.793 9.483 4.31-4.31v2.155l.431 2.155.862 1.724 3.018.43.43 1.294 3.88 3.448-3.017 2.586-1.293.431-3.88 3.018-3.448-3.018-1.293-9.913Z" fill="#546DDB"/><path d="m7.793 9.483 4.31-4.31v2.155l.431 2.155.862 1.724 3.018.43.43 1.294 3.88 3.448-3.017 2.586-1.293.431-3.88 3.018-3.448-3.018-1.293-9.913Z" fill="#000" fill-opacity=".4"/><path d="m23.741 15.948-1.724.431-1.293 2.155L19 20.69h-1.724l-1.293.862v2.155l-.862 2.155 2.586 1.293.43 1.293.863.431.862 2.155 2.586.863h2.155l2.155-2.587 3.018-3.448-.862-.862v-2.586l-.862-.431-1.724-2.155-1.294-.863-1.293-3.017Z" fill="#546DDB"/><path d="m23.741 15.948-1.724.431-1.293 2.155L19 20.69h-1.724l-1.293.862v2.155l-.862 2.155 2.586 1.293.43 1.293.863.431.862 2.155 2.586.863h2.155l2.155-2.587 3.018-3.448-.862-.862v-2.586l-.862-.431-1.724-2.155-1.294-.863-1.293-3.017Z" fill="#000" fill-opacity=".4"/></svg>