<?xml version="1.0" encoding="utf-8"?><svg fill="none" viewBox="0 0 50 50" width="50" height="50" xmlns="http://www.w3.org/2000/svg"><g clip-path="url(#aqja)"><path d="M25 35.158V19.482l6.51-5.606c-1.044 6.596-.916 17.545-.723 24.899L25 35.158Z" fill="#1D8CE0"/><path d="M25 35.158V19.482l6.51-5.606c-1.044 6.596-.916 17.545-.723 24.899L25 35.158Z" fill="#fff" fill-opacity=".4"/><path d="M25 35.158V19.482l6.51-5.606c-1.044 6.596-.916 17.545-.723 24.899L25 35.158Z" stroke="#1D8CE0" stroke-width=".362"/><path d="M25 35.158V19.482l6.51-5.606c-1.044 6.596-.916 17.545-.723 24.899L25 35.158Z" stroke="#000" stroke-opacity=".8" stroke-width=".362"/><path d="m36.755 35.17-5.968 3.437c-.299-7.38-.272-17.876.723-24.55l8.79.748-2.279 6.124c-.18.542-.615 1.88-.904 2.893-.29 1.013-.362 10.143-.362 11.349Z" fill="#1D8CE0"/><path d="m36.755 35.17-5.968 3.437c-.299-7.38-.272-17.876.723-24.55l8.79.748-2.279 6.124c-.18.542-.615 1.88-.904 2.893-.29 1.013-.362 10.143-.362 11.349Z" fill="#fff" fill-opacity=".2"/><path d="m36.755 35.17-5.968 3.437c-.299-7.38-.272-17.876.723-24.55l8.79.748-2.279 6.124c-.18.542-.615 1.88-.904 2.893-.29 1.013-.362 10.143-.362 11.349Z" stroke="#1D8CE0" stroke-width=".362"/><path d="m36.755 35.17-5.968 3.437c-.299-7.38-.272-17.876.723-24.55l8.79.748-2.279 6.124c-.18.542-.615 1.88-.904 2.893-.29 1.013-.362 10.143-.362 11.349Z" stroke="#000" stroke-opacity=".8" stroke-width=".362"/><path d="M25 35.158V19.482l-6.51-5.606c1.044 6.596.916 17.545.723 24.899L25 35.158Z" fill="#1D8CE0"/><path d="M25 35.158V19.482l-6.51-5.606c1.044 6.596.916 17.545.723 24.899L25 35.158Z" fill="#fff" fill-opacity=".4"/><path d="M25 35.158V19.482l-6.51-5.606c1.044 6.596.916 17.545.723 24.899L25 35.158Z" stroke="#1D8CE0" stroke-width=".362"/><path d="M25 35.158V19.482l-6.51-5.606c1.044 6.596.916 17.545.723 24.899L25 35.158Z" stroke="#000" stroke-opacity=".8" stroke-width=".362"/><path d="m13.245 35.205 5.968 3.436c.298-7.379.271-17.91-.724-24.585l-9.3-1.291 2.79 8.164c.18.542.614 1.88.904 2.894.29 1.012.362 10.176.362 11.382Z" fill="#1D8CE0"/><path d="m13.245 35.205 5.968 3.436c.298-7.379.271-17.91-.724-24.585l-9.3-1.291 2.79 8.164c.18.542.614 1.88.904 2.894.29 1.012.362 10.176.362 11.382Z" fill="#fff" fill-opacity=".2"/><path d="m13.245 35.205 5.968 3.436c.298-7.379.271-17.91-.724-24.585l-9.3-1.291 2.79 8.164c.18.542.614 1.88.904 2.894.29 1.012.362 10.176.362 11.382Z" stroke="#1D8CE0" stroke-width=".362"/><path d="m13.245 35.205 5.968 3.436c.298-7.379.271-17.91-.724-24.585l-9.3-1.291 2.79 8.164c.18.542.614 1.88.904 2.894.29 1.012.362 10.176.362 11.382Z" stroke="#000" stroke-opacity=".8" stroke-width=".362"/><path fill-rule="evenodd" clip-rule="evenodd" d="m16.84 13.696 1.474.18.08.557-1.554-.666v-.07Zm1.987.923a44.443 44.443 0 0 0-.1-.743l4.885 4.442-1.672.21-2.38-2.38-.34-1.36-.393-.169Zm10.739.835-4.122 3.724.576 1.73 1.36.34.68 1.36 1.36 1.02.34 1.7.763-.61c.068-3.018.215-5.947.483-8.478l-1.44-.786Zm8.422 4.978c.23-.638.445-1.186.594-1.565.093-.238.16-.408.188-.492l.355-.83-.525-2.418-1.7.68-.68 1.02 1.7 3.4.068.205ZM35.13 36.818l1.6-.593c-.184-.846-.084-4.794-.008-7.77v-.001c.032-1.254.059-2.335.059-2.939 0-.964.284-2.2.638-3.374l-.18-.894-2.72 1.36-1.02 3.74-.68-.68H31.8l-1.003.502c-.03 1.767-.035 3.545-.019 5.277l.002.001h1.36l1.36 1.02.68 3.4.95.95Zm-2.481.919 1.489-.552-1.998-1.998-1.02-1.45.34-.93-.67-.335c.02 1.532.056 3.017.103 4.415h.227l1.529.85Zm-3.868.003.639-.853h1.144c-.033-1.44-.06-2.978-.077-4.566l-1.067-.534-1.7-.68-2.04 1.36-.34 1.36 1.785 2.976 1.656.937Zm-15.493-8.12c-.003 1.628-.02 3.247-.032 4.344-.007.593-.011 1.034-.011 1.241l2.341 1.268 1.594-.266 2.02-1.767c.028-1.47.042-3.002.038-4.556l-.358-.477-1.7 1.02-3.4.34-.492-1.148ZM9.78 14.391l2.368 6.533c.05.15.123.36.21.606l3.122 2.776 3.06-2.38.493-.164a98.128 98.128 0 0 0-.455-5.84l-.038-.116-2.38-.34-.68-1.36-.118-.59-3.66-.446-1.922 1.321Zm9.636 8.555h1.164l1.36-1.7 1.02-1.7 1.36-.34.476 1.111v11.47H23.3l-2.04-.68-.68-1.7-.68-.34-.34-1.02-.048-.025a196.131 196.131 0 0 0-.096-5.076Zm-.049-1.296.193-.064 2.38-2.04-2.861-2.543c.127 1.456.22 3.022.288 4.647Zm-.145 6.227a170.506 170.506 0 0 0-.13-4.845l-.892.594v1.7l-.68 1.7 1.702.851Zm.295 2.38.383.51v3.06l-.416.363c.019-1.274.031-2.594.033-3.934Zm-.058 5.471.1-.202 1.7-1.36v-2.04l2.04 1.7 1.497 1.358v.53l-5.406 3.06c.025-.96.049-1.982.069-3.046Zm5.745-.149v.135l.117.066-.117-.2Zm0-4.038 1.496-1.795 2.38-2.72-.68-.68v-2.04l-.68-.34-1.36-1.7-1.02-.68-.136-.317v10.272Zm-6.05 4.796-.614 1.23.29.661.254.138c.026-.654.05-1.332.07-2.029Zm11.324-5.117-1.058-.794v-2.04l.68-.68.34-1.36.053-.026a239.57 239.57 0 0 0-.015 4.9Zm.356-6.753.626-.5 1.36.68 1.02-2.72 3.06-1.7-1.7-2.72-3.74-1.02-.152-.084c-.248 2.45-.397 5.22-.474 8.064Zm-17.734-.84 2.38 2.04 1.7-1.7v1.7l-.68 1.7v2.04l-2.38.34-.68-2.04.34-1.02-.68-3.06Z" fill="#546DDB"/><path fill-rule="evenodd" clip-rule="evenodd" d="m16.84 13.696 1.474.18.08.557-1.554-.666v-.07Zm1.987.923a44.443 44.443 0 0 0-.1-.743l4.885 4.442-1.672.21-2.38-2.38-.34-1.36-.393-.169Zm10.739.835-4.122 3.724.576 1.73 1.36.34.68 1.36 1.36 1.02.34 1.7.763-.61c.068-3.018.215-5.947.483-8.478l-1.44-.786Zm8.422 4.978c.23-.638.445-1.186.594-1.565.093-.238.16-.408.188-.492l.355-.83-.525-2.418-1.7.68-.68 1.02 1.7 3.4.068.205ZM35.13 36.818l1.6-.593c-.184-.846-.084-4.794-.008-7.77v-.001c.032-1.254.059-2.335.059-2.939 0-.964.284-2.2.638-3.374l-.18-.894-2.72 1.36-1.02 3.74-.68-.68H31.8l-1.003.502c-.03 1.767-.035 3.545-.019 5.277l.002.001h1.36l1.36 1.02.68 3.4.95.95Zm-2.481.919 1.489-.552-1.998-1.998-1.02-1.45.34-.93-.67-.335c.02 1.532.056 3.017.103 4.415h.227l1.529.85Zm-3.868.003.639-.853h1.144c-.033-1.44-.06-2.978-.077-4.566l-1.067-.534-1.7-.68-2.04 1.36-.34 1.36 1.785 2.976 1.656.937Zm-15.493-8.12c-.003 1.628-.02 3.247-.032 4.344-.007.593-.011 1.034-.011 1.241l2.341 1.268 1.594-.266 2.02-1.767c.028-1.47.042-3.002.038-4.556l-.358-.477-1.7 1.02-3.4.34-.492-1.148ZM9.78 14.391l2.368 6.533c.05.15.123.36.21.606l3.122 2.776 3.06-2.38.493-.164a98.128 98.128 0 0 0-.455-5.84l-.038-.116-2.38-.34-.68-1.36-.118-.59-3.66-.446-1.922 1.321Zm9.636 8.555h1.164l1.36-1.7 1.02-1.7 1.36-.34.476 1.111v11.47H23.3l-2.04-.68-.68-1.7-.68-.34-.34-1.02-.048-.025a196.131 196.131 0 0 0-.096-5.076Zm-.049-1.296.193-.064 2.38-2.04-2.861-2.543c.127 1.456.22 3.022.288 4.647Zm-.145 6.227a170.506 170.506 0 0 0-.13-4.845l-.892.594v1.7l-.68 1.7 1.702.851Zm.295 2.38.383.51v3.06l-.416.363c.019-1.274.031-2.594.033-3.934Zm-.058 5.471.1-.202 1.7-1.36v-2.04l2.04 1.7 1.497 1.358v.53l-5.406 3.06c.025-.96.049-1.982.069-3.046Zm5.745-.149v.135l.117.066-.117-.2Zm0-4.038 1.496-1.795 2.38-2.72-.68-.68v-2.04l-.68-.34-1.36-1.7-1.02-.68-.136-.317v10.272Zm-6.05 4.796-.614 1.23.29.661.254.138c.026-.654.05-1.332.07-2.029Zm11.324-5.117-1.058-.794v-2.04l.68-.68.34-1.36.053-.026a239.57 239.57 0 0 0-.015 4.9Zm.356-6.753.626-.5 1.36.68 1.02-2.72 3.06-1.7-1.7-2.72-3.74-1.02-.152-.084c-.248 2.45-.397 5.22-.474 8.064Zm-17.734-.84 2.38 2.04 1.7-1.7v1.7l-.68 1.7v2.04l-2.38.34-.68-2.04.34-1.02-.68-3.06Z" fill="#000" fill-opacity=".4"/><path d="M25 45.405v-10.25l5.787 3.255 2.373 10.055-8.16-3.06Z" fill="#1D8CE0"/><path d="M25 45.405v-10.25l5.787 3.255 2.373 10.055-8.16-3.06Z" fill="#fff" fill-opacity=".6"/><path d="M25 45.405v-10.25l5.787 3.255 2.373 10.055-8.16-3.06Z" stroke="#1D8CE0" stroke-width=".362"/><path d="M25 45.405v-10.25l5.787 3.255 2.373 10.055-8.16-3.06Z" stroke="#000" stroke-opacity=".8" stroke-width=".362"/><path d="M33.16 48.465 30.787 38.41l6.15-3.075 4.383 8.54-8.16 4.59Z" fill="#1D8CE0"/><path d="M33.16 48.465 30.787 38.41l6.15-3.075 4.383 8.54-8.16 4.59Z" fill="#fff" fill-opacity=".8"/><path d="M33.16 48.465 30.787 38.41l6.15-3.075 4.383 8.54-8.16 4.59Z" stroke="#1D8CE0" stroke-width=".362"/><path d="M33.16 48.465 30.787 38.41l6.15-3.075 4.383 8.54-8.16 4.59Z" stroke="#000" stroke-opacity=".8" stroke-width=".362"/><path d="M25 45.506V35.154l-5.788 3.256-2.372 10.055L25 45.506Z" fill="#1D8CE0"/><path d="M25 45.506V35.154l-5.788 3.256-2.372 10.055L25 45.506Z" fill="#fff" fill-opacity=".6"/><path d="M25 45.506V35.154l-5.788 3.256-2.372 10.055L25 45.506Z" stroke="#1D8CE0" stroke-width=".362"/><path d="M25 45.506V35.154l-5.788 3.256-2.372 10.055L25 45.506Z" stroke="#000" stroke-opacity=".8" stroke-width=".362"/><path d="m16.84 48.465 2.373-10.055-6.15-3.075-4.658 8.79 8.435 4.34Z" fill="#1D8CE0"/><path d="m16.84 48.465 2.373-10.055-6.15-3.075-4.658 8.79 8.435 4.34Z" fill="#fff" fill-opacity=".8"/><path d="m16.84 48.465 2.373-10.055-6.15-3.075-4.658 8.79 8.435 4.34Z" stroke="#1D8CE0" stroke-width=".362"/><path d="m16.84 48.465 2.373-10.055-6.15-3.075-4.658 8.79 8.435 4.34Z" stroke="#000" stroke-opacity=".8" stroke-width=".362"/><path d="M25 20.929v-9.585c1.628-.362 3.13-1.841 3.979-3.256 1.085-1.808 1.085-4.16 1.627-4.883.434-.578 3.195-1.688 4.522-2.17.12.543.615 1.88 1.627 2.894a22.852 22.852 0 0 0 2.532 2.17L25 20.929Z" fill="#1D8CE0"/><path d="M25 20.929v-9.585c1.628-.362 3.13-1.841 3.979-3.256 1.085-1.808 1.085-4.16 1.627-4.883.434-.578 3.195-1.688 4.522-2.17.12.543.615 1.88 1.627 2.894a22.852 22.852 0 0 0 2.532 2.17L25 20.929Z" fill="#fff" fill-opacity=".4"/><path d="M25 20.929v-9.585c1.628-.362 3.13-1.841 3.979-3.256 1.085-1.808 1.085-4.16 1.627-4.883.434-.578 3.195-1.688 4.522-2.17.12.543.615 1.88 1.627 2.894a22.852 22.852 0 0 0 2.532 2.17L25 20.929Z" stroke="#1D8CE0" stroke-width=".362"/><path d="M25 20.929v-9.585c1.628-.362 3.13-1.841 3.979-3.256 1.085-1.808 1.085-4.16 1.627-4.883.434-.578 3.195-1.688 4.522-2.17.12.543.615 1.88 1.627 2.894a22.852 22.852 0 0 0 2.532 2.17L25 20.929Z" stroke="#000" stroke-opacity=".8" stroke-width=".362"/><path d="M46.521 10.982 31.15 14.599c7.27 1.378 11.263 2.5 19.351.362-.663-.06-2.242-.362-3.255-1.085-1.013-.724-.904-2.23-.724-2.894Z" fill="#1D8CE0"/><path d="M46.521 10.982 31.15 14.599c7.27 1.378 11.263 2.5 19.351.362-.663-.06-2.242-.362-3.255-1.085-1.013-.724-.904-2.23-.724-2.894Z" fill="#000" fill-opacity=".2"/><path d="M46.521 10.982 31.15 14.599c7.27 1.378 11.263 2.5 19.351.362-.663-.06-2.242-.362-3.255-1.085-1.013-.724-.904-2.23-.724-2.894Z" stroke="#1D8CE0" stroke-width=".362"/><path d="M46.521 10.982 31.15 14.599c7.27 1.378 11.263 2.5 19.351.362-.663-.06-2.242-.362-3.255-1.085-1.013-.724-.904-2.23-.724-2.894Z" stroke="#000" stroke-opacity=".8" stroke-width=".362"/><path d="m43.085 6.099-11.936 8.5c10.3-1.318 14.865-2.288 17.543-5.064-.905.06-2.93.036-3.798-.542-.868-.58-1.568-2.17-1.809-2.894Z" fill="#1D8CE0"/><path d="m43.085 6.099-11.936 8.5c10.3-1.318 14.865-2.288 17.543-5.064-.905.06-2.93.036-3.798-.542-.868-.58-1.568-2.17-1.809-2.894Z" fill="#fff" fill-opacity=".2"/><path d="m43.085 6.099-11.936 8.5c10.3-1.318 14.865-2.288 17.543-5.064-.905.06-2.93.036-3.798-.542-.868-.58-1.568-2.17-1.809-2.894Z" stroke="#1D8CE0" stroke-width=".362"/><path d="m43.085 6.099-11.936 8.5c10.3-1.318 14.865-2.288 17.543-5.064-.905.06-2.93.036-3.798-.542-.868-.58-1.568-2.17-1.809-2.894Z" stroke="#000" stroke-opacity=".8" stroke-width=".362"/><path d="M35.308 7.003c.868-.723 1.628-2.05 1.99-2.713.844.422 2.749.905 3.617.905.868 0 3.074-.724 3.074-.724-1.205 3.264-5.343 5.723-12.84 10.128-.06-.723-.073-2.423.361-3.436.543-1.266 2.713-3.256 3.798-4.16Z" fill="#1D8CE0"/><path d="M35.308 7.003c.868-.723 1.628-2.05 1.99-2.713.844.422 2.749.905 3.617.905.868 0 3.074-.724 3.074-.724-1.205 3.264-5.343 5.723-12.84 10.128-.06-.723-.073-2.423.361-3.436.543-1.266 2.713-3.256 3.798-4.16Z" fill="#fff" fill-opacity=".8"/><path d="M35.308 7.003c.868-.723 1.628-2.05 1.99-2.713.844.422 2.749.905 3.617.905.868 0 3.074-.724 3.074-.724-1.205 3.264-5.343 5.723-12.84 10.128-.06-.723-.073-2.423.361-3.436.543-1.266 2.713-3.256 3.798-4.16Z" stroke="#1D8CE0" stroke-width=".362"/><path d="M35.308 7.003c.868-.723 1.628-2.05 1.99-2.713.844.422 2.749.905 3.617.905.868 0 3.074-.724 3.074-.724-1.205 3.264-5.343 5.723-12.84 10.128-.06-.723-.073-2.423.361-3.436.543-1.266 2.713-3.256 3.798-4.16Z" stroke="#000" stroke-opacity=".8" stroke-width=".362"/><path d="M25 20.929v-9.585c-1.628-.362-3.13-1.841-3.979-3.256-1.085-1.808-1.085-4.16-1.627-4.883-.434-.578-3.195-1.688-4.522-2.17-.12.543-.615 1.88-1.627 2.894a22.852 22.852 0 0 1-2.532 2.17L25 20.929Z" fill="#1D8CE0"/><path d="M25 20.929v-9.585c-1.628-.362-3.13-1.841-3.979-3.256-1.085-1.808-1.085-4.16-1.627-4.883-.434-.578-3.195-1.688-4.522-2.17-.12.543-.615 1.88-1.627 2.894a22.852 22.852 0 0 1-2.532 2.17L25 20.929Z" fill="#fff" fill-opacity=".4"/><path d="M25 20.929v-9.585c-1.628-.362-3.13-1.841-3.979-3.256-1.085-1.808-1.085-4.16-1.627-4.883-.434-.578-3.195-1.688-4.522-2.17-.12.543-.615 1.88-1.627 2.894a22.852 22.852 0 0 1-2.532 2.17L25 20.929Z" stroke="#1D8CE0" stroke-width=".362"/><path d="M25 20.929v-9.585c-1.628-.362-3.13-1.841-3.979-3.256-1.085-1.808-1.085-4.16-1.627-4.883-.434-.578-3.195-1.688-4.522-2.17-.12.543-.615 1.88-1.627 2.894a22.852 22.852 0 0 1-2.532 2.17L25 20.929Z" stroke="#000" stroke-opacity=".8" stroke-width=".362"/><path d="m3.479 10.982 15.372 3.617c-7.27 1.377-11.263 2.5-19.351.362.663-.06 2.242-.362 3.255-1.086 1.013-.723.905-2.23.724-2.893Z" fill="#1D8CE0"/><path d="m3.479 10.982 15.372 3.617c-7.27 1.377-11.263 2.5-19.351.362.663-.06 2.242-.362 3.255-1.086 1.013-.723.905-2.23.724-2.893Z" fill="#000" fill-opacity=".2"/><path d="m3.479 10.982 15.372 3.617c-7.27 1.377-11.263 2.5-19.351.362.663-.06 2.242-.362 3.255-1.086 1.013-.723.905-2.23.724-2.893Z" stroke="#1D8CE0" stroke-width=".362"/><path d="m3.479 10.982 15.372 3.617c-7.27 1.377-11.263 2.5-19.351.362.663-.06 2.242-.362 3.255-1.086 1.013-.723.905-2.23.724-2.893Z" stroke="#000" stroke-opacity=".8" stroke-width=".362"/><path d="m6.915 6.099 11.936 8.5C8.551 13.28 3.986 12.31 1.308 9.535c.905.06 2.93.036 3.798-.542.868-.58 1.568-2.17 1.809-2.894Z" fill="#1D8CE0"/><path d="m6.915 6.099 11.936 8.5C8.551 13.28 3.986 12.31 1.308 9.535c.905.06 2.93.036 3.798-.542.868-.58 1.568-2.17 1.809-2.894Z" fill="#fff" fill-opacity=".2"/><path d="m6.915 6.099 11.936 8.5C8.551 13.28 3.986 12.31 1.308 9.535c.905.06 2.93.036 3.798-.542.868-.58 1.568-2.17 1.809-2.894Z" stroke="#1D8CE0" stroke-width=".362"/><path d="m6.915 6.099 11.936 8.5C8.551 13.28 3.986 12.31 1.308 9.535c.905.06 2.93.036 3.798-.542.868-.58 1.568-2.17 1.809-2.894Z" stroke="#000" stroke-opacity=".8" stroke-width=".362"/><path d="M14.69 7.003c-.867-.723-1.627-2.05-1.988-2.713-.844.422-2.75.905-3.617.905-.869 0-3.075-.724-3.075-.724 1.205 3.264 5.343 5.723 12.84 10.128.06-.723.073-2.423-.361-3.436-.543-1.266-2.713-3.256-3.798-4.16Z" fill="#1D8CE0"/><path d="M14.69 7.003c-.867-.723-1.627-2.05-1.988-2.713-.844.422-2.75.905-3.617.905-.869 0-3.075-.724-3.075-.724 1.205 3.264 5.343 5.723 12.84 10.128.06-.723.073-2.423-.361-3.436-.543-1.266-2.713-3.256-3.798-4.16Z" fill="#fff" fill-opacity=".8"/><path d="M14.69 7.003c-.867-.723-1.627-2.05-1.988-2.713-.844.422-2.75.905-3.617.905-.869 0-3.075-.724-3.075-.724 1.205 3.264 5.343 5.723 12.84 10.128.06-.723.073-2.423-.361-3.436-.543-1.266-2.713-3.256-3.798-4.16Z" stroke="#1D8CE0" stroke-width=".362"/><path d="M14.69 7.003c-.867-.723-1.627-2.05-1.988-2.713-.844.422-2.75.905-3.617.905-.869 0-3.075-.724-3.075-.724 1.205 3.264 5.343 5.723 12.84 10.128.06-.723.073-2.423-.361-3.436-.543-1.266-2.713-3.256-3.798-4.16Z" stroke="#000" stroke-opacity=".8" stroke-width=".362"/></g><defs><clipPath id="aqja"><path fill="#fff" transform="matrix(-1 0 0 1 50 0)" d="M0 0h50v50H0z"/></clipPath></defs></svg>