<?xml version="1.0" encoding="utf-8"?><svg fill="none" viewBox="0 0 50 50" xmlns="http://www.w3.org/2000/svg" width="50" height="50"><g clip-path="url(#atua)"><path d="M25 35.158V19.482l6.51-5.606c-1.044 6.596-.916 17.545-.723 24.899L25 35.158Z" fill="#1D8CE0"/><path d="M25 35.158V19.482l6.51-5.606c-1.044 6.596-.916 17.545-.723 24.899L25 35.158Z" fill="#fff" fill-opacity=".4"/><path d="M25 35.158V19.482l6.51-5.606c-1.044 6.596-.916 17.545-.723 24.899L25 35.158Z" stroke="#1D8CE0" stroke-width=".362"/><path d="M25 35.158V19.482l6.51-5.606c-1.044 6.596-.916 17.545-.723 24.899L25 35.158Z" stroke="#000" stroke-opacity=".8" stroke-width=".362"/><path d="m36.755 35.17-5.968 3.437c-.299-7.38-.272-17.876.723-24.55l8.79.748-2.279 6.124c-.18.542-.615 1.88-.904 2.893-.29 1.013-.362 10.143-.362 11.349Z" fill="#1D8CE0"/><path d="m36.755 35.17-5.968 3.437c-.299-7.38-.272-17.876.723-24.55l8.79.748-2.279 6.124c-.18.542-.615 1.88-.904 2.893-.29 1.013-.362 10.143-.362 11.349Z" fill="#fff" fill-opacity=".2"/><path d="m36.755 35.17-5.968 3.437c-.299-7.38-.272-17.876.723-24.55l8.79.748-2.279 6.124c-.18.542-.615 1.88-.904 2.893-.29 1.013-.362 10.143-.362 11.349Z" stroke="#1D8CE0" stroke-width=".362"/><path d="m36.755 35.17-5.968 3.437c-.299-7.38-.272-17.876.723-24.55l8.79.748-2.279 6.124c-.18.542-.615 1.88-.904 2.893-.29 1.013-.362 10.143-.362 11.349Z" stroke="#000" stroke-opacity=".8" stroke-width=".362"/><path d="M25 35.158V19.482l-6.51-5.606c1.044 6.596.916 17.545.723 24.899L25 35.158Z" fill="#1D8CE0"/><path d="M25 35.158V19.482l-6.51-5.606c1.044 6.596.916 17.545.723 24.899L25 35.158Z" fill="#fff" fill-opacity=".4"/><path d="M25 35.158V19.482l-6.51-5.606c1.044 6.596.916 17.545.723 24.899L25 35.158Z" stroke="#1D8CE0" stroke-width=".362"/><path d="M25 35.158V19.482l-6.51-5.606c1.044 6.596.916 17.545.723 24.899L25 35.158Z" stroke="#000" stroke-opacity=".8" stroke-width=".362"/><path d="m13.245 35.205 5.968 3.436c.298-7.379.271-17.91-.724-24.585l-9.3-1.291 2.79 8.164c.18.542.614 1.88.904 2.894.29 1.012.362 10.176.362 11.382Z" fill="#1D8CE0"/><path d="m13.245 35.205 5.968 3.436c.298-7.379.271-17.91-.724-24.585l-9.3-1.291 2.79 8.164c.18.542.614 1.88.904 2.894.29 1.012.362 10.176.362 11.382Z" fill="#fff" fill-opacity=".2"/><path d="m13.245 35.205 5.968 3.436c.298-7.379.271-17.91-.724-24.585l-9.3-1.291 2.79 8.164c.18.542.614 1.88.904 2.894.29 1.012.362 10.176.362 11.382Z" stroke="#1D8CE0" stroke-width=".362"/><path d="m13.245 35.205 5.968 3.436c.298-7.379.271-17.91-.724-24.585l-9.3-1.291 2.79 8.164c.18.542.614 1.88.904 2.894.29 1.012.362 10.176.362 11.382Z" stroke="#000" stroke-opacity=".8" stroke-width=".362"/><path d="m21.26 34.167-1.7 1.36-.1.202a403.99 403.99 0 0 1-.07 3.046l5.406-3.06v-.53L23.3 33.828l-2.04-1.7v2.04Zm-2.72 3.4.29.661.254.139c.026-.653.049-1.33.069-2.026l-.613 1.226Zm7.14-5.1-.34 1.36 1.787 2.976 1.655.937.638-.853h1.146c-.032-1.44-.061-2.978-.077-4.566l-1.069-.533-1.7-.681-2.04 1.36Zm5.11.004c.021 1.532.056 3.018.103 4.416h.227l1.529.849 1.49-.552-1.999-1.997-1.02-1.45.34-.93-.67-.336Zm3.73-9.864-1.02 3.74-.68-.68H31.8l-1.002.5c-.03 1.769-.034 3.548-.018 5.28h1.36l1.36 1.02.68 3.4.95.95 1.6-.592c-.261-1.203.05-8.67.05-10.71 0-.963.286-2.197.64-3.371l-.18-.896-2.72 1.359Zm-17.34 7.82-3.4.34-.491-1.15c-.006 2.51-.044 4.998-.044 5.588l2.342 1.267 1.593-.264 2.02-1.767c.028-1.471.04-3.004.036-4.56l-.356-.473-1.7 1.02Zm8.024 5.288.119.067-.12-.203v.136Zm-5.687-5.46a311.262 311.262 0 0 1-.036 3.939l.419-.366v-3.06l-.383-.513Zm3.442-10.708-1.02 1.7-1.36 1.7h-1.164c.054 1.665.085 3.374.097 5.076l.048.024.34 1.02.68.34.68 1.7 2.04.68h1.496V20.32l-.476-1.113-1.36.34Zm2.245 11.995 1.496-1.794 2.38-2.721-.68-.68v-2.04l-.68-.34-1.36-1.7-1.02-.68-.136-.317v10.273Zm5.236-5.195-.34 1.36-.68.68v2.04l1.059.793c-.01-1.61-.007-3.26.016-4.9l-.055.027Zm-16.66.34-.34 1.02.68 2.04 2.38-.34v-2.04l.68-1.7v-1.7l-1.7 1.7-2.38-2.04.68 3.06Zm4.42-3.06v1.7l-.68 1.7 1.701.85a170.002 170.002 0 0 0-.13-4.843l-.891.593Zm7.244-4.45.576 1.73 1.36.34.68 1.36 1.36 1.02.34 1.7.764-.61c.069-3.018.215-5.946.483-8.477l-1.441-.786-4.122 3.723Zm5.864-2.773c-.247 2.45-.396 5.219-.473 8.063l.625-.5 1.36.68 1.02-2.72 3.06-1.7-1.7-2.72-3.74-1.02-.152-.083ZM9.781 14.392l2.367 6.533c.05.15.125.36.212.608l3.12 2.774 3.06-2.38.492-.164a97.94 97.94 0 0 0-.458-5.854l-.034-.102-2.38-.34-.68-1.36-.117-.59-3.66-.446-1.922 1.321Zm9.296 2.61c.127 1.456.22 3.024.289 4.65l.194-.065 2.38-2.04-2.863-2.546ZM36.9 15.806l-.68 1.02 1.7 3.4.07.208c.374-1.039.707-1.841.78-2.06l.355-.83-.525-2.418-1.7.68Zm-18.173-1.931c.035.242.069.49.1.743l.393.169.34 1.359 2.38 2.38 1.673-.21-4.886-4.441Zm-1.888-.109 1.555.666a48.493 48.493 0 0 0-.08-.557l-1.475-.18v.071Z" fill="#546DDB"/><path d="m21.26 34.167-1.7 1.36-.1.202a403.99 403.99 0 0 1-.07 3.046l5.406-3.06v-.53L23.3 33.828l-2.04-1.7v2.04Zm-2.72 3.4.29.661.254.139c.026-.653.049-1.33.069-2.026l-.613 1.226Zm7.14-5.1-.34 1.36 1.787 2.976 1.655.937.638-.853h1.146c-.032-1.44-.061-2.978-.077-4.566l-1.069-.533-1.7-.681-2.04 1.36Zm5.11.004c.021 1.532.056 3.018.103 4.416h.227l1.529.849 1.49-.552-1.999-1.997-1.02-1.45.34-.93-.67-.336Zm3.73-9.864-1.02 3.74-.68-.68H31.8l-1.002.5c-.03 1.769-.034 3.548-.018 5.28h1.36l1.36 1.02.68 3.4.95.95 1.6-.592c-.261-1.203.05-8.67.05-10.71 0-.963.286-2.197.64-3.371l-.18-.896-2.72 1.359Zm-17.34 7.82-3.4.34-.491-1.15c-.006 2.51-.044 4.998-.044 5.588l2.342 1.267 1.593-.264 2.02-1.767c.028-1.471.04-3.004.036-4.56l-.356-.473-1.7 1.02Zm8.024 5.288.119.067-.12-.203v.136Zm-5.687-5.46a311.262 311.262 0 0 1-.036 3.939l.419-.366v-3.06l-.383-.513Zm3.442-10.708-1.02 1.7-1.36 1.7h-1.164c.054 1.665.085 3.374.097 5.076l.048.024.34 1.02.68.34.68 1.7 2.04.68h1.496V20.32l-.476-1.113-1.36.34Zm2.245 11.995 1.496-1.794 2.38-2.721-.68-.68v-2.04l-.68-.34-1.36-1.7-1.02-.68-.136-.317v10.273Zm5.236-5.195-.34 1.36-.68.68v2.04l1.059.793c-.01-1.61-.007-3.26.016-4.9l-.055.027Zm-16.66.34-.34 1.02.68 2.04 2.38-.34v-2.04l.68-1.7v-1.7l-1.7 1.7-2.38-2.04.68 3.06Zm4.42-3.06v1.7l-.68 1.7 1.701.85a170.002 170.002 0 0 0-.13-4.843l-.891.593Zm7.244-4.45.576 1.73 1.36.34.68 1.36 1.36 1.02.34 1.7.764-.61c.069-3.018.215-5.946.483-8.477l-1.441-.786-4.122 3.723Zm5.864-2.773c-.247 2.45-.396 5.219-.473 8.063l.625-.5 1.36.68 1.02-2.72 3.06-1.7-1.7-2.72-3.74-1.02-.152-.083ZM9.781 14.392l2.367 6.533c.05.15.125.36.212.608l3.12 2.774 3.06-2.38.492-.164a97.94 97.94 0 0 0-.458-5.854l-.034-.102-2.38-.34-.68-1.36-.117-.59-3.66-.446-1.922 1.321Zm9.296 2.61c.127 1.456.22 3.024.289 4.65l.194-.065 2.38-2.04-2.863-2.546ZM36.9 15.806l-.68 1.02 1.7 3.4.07.208c.374-1.039.707-1.841.78-2.06l.355-.83-.525-2.418-1.7.68Zm-18.173-1.931c.035.242.069.49.1.743l.393.169.34 1.359 2.38 2.38 1.673-.21-4.886-4.441Zm-1.888-.109 1.555.666a48.493 48.493 0 0 0-.08-.557l-1.475-.18v.071Z" fill="#000" fill-opacity=".4"/><path d="M25 45.405v-10.25l5.787 3.255 2.373 10.055-8.16-3.06Z" fill="#1D8CE0"/><path d="M25 45.405v-10.25l5.787 3.255 2.373 10.055-8.16-3.06Z" fill="#fff" fill-opacity=".6"/><path d="M25 45.405v-10.25l5.787 3.255 2.373 10.055-8.16-3.06Z" stroke="#1D8CE0" stroke-width=".362"/><path d="M25 45.405v-10.25l5.787 3.255 2.373 10.055-8.16-3.06Z" stroke="#000" stroke-opacity=".8" stroke-width=".362"/><path d="M33.16 48.465 30.787 38.41l6.15-3.075 4.383 8.54-8.16 4.59Z" fill="#1D8CE0"/><path d="M33.16 48.465 30.787 38.41l6.15-3.075 4.383 8.54-8.16 4.59Z" fill="#fff" fill-opacity=".8"/><path d="M33.16 48.465 30.787 38.41l6.15-3.075 4.383 8.54-8.16 4.59Z" stroke="#1D8CE0" stroke-width=".362"/><path d="M33.16 48.465 30.787 38.41l6.15-3.075 4.383 8.54-8.16 4.59Z" stroke="#000" stroke-opacity=".8" stroke-width=".362"/><path d="M25 45.506V35.154l-5.788 3.256-2.372 10.055L25 45.506Z" fill="#1D8CE0"/><path d="M25 45.506V35.154l-5.788 3.256-2.372 10.055L25 45.506Z" fill="#fff" fill-opacity=".6"/><path d="M25 45.506V35.154l-5.788 3.256-2.372 10.055L25 45.506Z" stroke="#1D8CE0" stroke-width=".362"/><path d="M25 45.506V35.154l-5.788 3.256-2.372 10.055L25 45.506Z" stroke="#000" stroke-opacity=".8" stroke-width=".362"/><path d="m16.84 48.465 2.373-10.055-6.15-3.075-4.658 8.79 8.435 4.34Z" fill="#1D8CE0"/><path d="m16.84 48.465 2.373-10.055-6.15-3.075-4.658 8.79 8.435 4.34Z" fill="#fff" fill-opacity=".8"/><path d="m16.84 48.465 2.373-10.055-6.15-3.075-4.658 8.79 8.435 4.34Z" stroke="#1D8CE0" stroke-width=".362"/><path d="m16.84 48.465 2.373-10.055-6.15-3.075-4.658 8.79 8.435 4.34Z" stroke="#000" stroke-opacity=".8" stroke-width=".362"/><path d="M25 20.929v-9.585c1.628-.362 3.13-1.841 3.979-3.256 1.085-1.808 1.085-4.16 1.627-4.883.434-.578 3.195-1.688 4.522-2.17.12.543.615 1.88 1.627 2.894a22.852 22.852 0 0 0 2.532 2.17L25 20.929Z" fill="#1D8CE0"/><path d="M25 20.929v-9.585c1.628-.362 3.13-1.841 3.979-3.256 1.085-1.808 1.085-4.16 1.627-4.883.434-.578 3.195-1.688 4.522-2.17.12.543.615 1.88 1.627 2.894a22.852 22.852 0 0 0 2.532 2.17L25 20.929Z" fill="#fff" fill-opacity=".4"/><path d="M25 20.929v-9.585c1.628-.362 3.13-1.841 3.979-3.256 1.085-1.808 1.085-4.16 1.627-4.883.434-.578 3.195-1.688 4.522-2.17.12.543.615 1.88 1.627 2.894a22.852 22.852 0 0 0 2.532 2.17L25 20.929Z" stroke="#1D8CE0" stroke-width=".362"/><path d="M25 20.929v-9.585c1.628-.362 3.13-1.841 3.979-3.256 1.085-1.808 1.085-4.16 1.627-4.883.434-.578 3.195-1.688 4.522-2.17.12.543.615 1.88 1.627 2.894a22.852 22.852 0 0 0 2.532 2.17L25 20.929Z" stroke="#000" stroke-opacity=".8" stroke-width=".362"/><path d="M46.521 10.982 31.15 14.599c7.27 1.378 11.263 2.5 19.351.362-.663-.06-2.242-.362-3.255-1.085-1.013-.724-.904-2.23-.724-2.894Z" fill="#1D8CE0"/><path d="M46.521 10.982 31.15 14.599c7.27 1.378 11.263 2.5 19.351.362-.663-.06-2.242-.362-3.255-1.085-1.013-.724-.904-2.23-.724-2.894Z" fill="#000" fill-opacity=".2"/><path d="M46.521 10.982 31.15 14.599c7.27 1.378 11.263 2.5 19.351.362-.663-.06-2.242-.362-3.255-1.085-1.013-.724-.904-2.23-.724-2.894Z" stroke="#1D8CE0" stroke-width=".362"/><path d="M46.521 10.982 31.15 14.599c7.27 1.378 11.263 2.5 19.351.362-.663-.06-2.242-.362-3.255-1.085-1.013-.724-.904-2.23-.724-2.894Z" stroke="#000" stroke-opacity=".8" stroke-width=".362"/><path d="m43.085 6.099-11.936 8.5c10.3-1.318 14.865-2.288 17.543-5.064-.905.06-2.93.036-3.798-.542-.868-.58-1.568-2.17-1.809-2.894Z" fill="#1D8CE0"/><path d="m43.085 6.099-11.936 8.5c10.3-1.318 14.865-2.288 17.543-5.064-.905.06-2.93.036-3.798-.542-.868-.58-1.568-2.17-1.809-2.894Z" fill="#fff" fill-opacity=".2"/><path d="m43.085 6.099-11.936 8.5c10.3-1.318 14.865-2.288 17.543-5.064-.905.06-2.93.036-3.798-.542-.868-.58-1.568-2.17-1.809-2.894Z" stroke="#1D8CE0" stroke-width=".362"/><path d="m43.085 6.099-11.936 8.5c10.3-1.318 14.865-2.288 17.543-5.064-.905.06-2.93.036-3.798-.542-.868-.58-1.568-2.17-1.809-2.894Z" stroke="#000" stroke-opacity=".8" stroke-width=".362"/><path d="M35.308 7.003c.868-.723 1.628-2.05 1.99-2.713.844.422 2.749.905 3.617.905.868 0 3.074-.724 3.074-.724-1.205 3.264-5.343 5.723-12.84 10.128-.06-.723-.073-2.423.361-3.436.543-1.266 2.713-3.256 3.798-4.16Z" fill="#1D8CE0"/><path d="M35.308 7.003c.868-.723 1.628-2.05 1.99-2.713.844.422 2.749.905 3.617.905.868 0 3.074-.724 3.074-.724-1.205 3.264-5.343 5.723-12.84 10.128-.06-.723-.073-2.423.361-3.436.543-1.266 2.713-3.256 3.798-4.16Z" fill="#fff" fill-opacity=".8"/><path d="M35.308 7.003c.868-.723 1.628-2.05 1.99-2.713.844.422 2.749.905 3.617.905.868 0 3.074-.724 3.074-.724-1.205 3.264-5.343 5.723-12.84 10.128-.06-.723-.073-2.423.361-3.436.543-1.266 2.713-3.256 3.798-4.16Z" stroke="#1D8CE0" stroke-width=".362"/><path d="M35.308 7.003c.868-.723 1.628-2.05 1.99-2.713.844.422 2.749.905 3.617.905.868 0 3.074-.724 3.074-.724-1.205 3.264-5.343 5.723-12.84 10.128-.06-.723-.073-2.423.361-3.436.543-1.266 2.713-3.256 3.798-4.16Z" stroke="#000" stroke-opacity=".8" stroke-width=".362"/><path d="M25 20.929v-9.585c-1.628-.362-3.13-1.841-3.979-3.256-1.085-1.808-1.085-4.16-1.627-4.883-.434-.578-3.195-1.688-4.522-2.17-.12.543-.615 1.88-1.627 2.894a22.852 22.852 0 0 1-2.532 2.17L25 20.929Z" fill="#1D8CE0"/><path d="M25 20.929v-9.585c-1.628-.362-3.13-1.841-3.979-3.256-1.085-1.808-1.085-4.16-1.627-4.883-.434-.578-3.195-1.688-4.522-2.17-.12.543-.615 1.88-1.627 2.894a22.852 22.852 0 0 1-2.532 2.17L25 20.929Z" fill="#fff" fill-opacity=".4"/><path d="M25 20.929v-9.585c-1.628-.362-3.13-1.841-3.979-3.256-1.085-1.808-1.085-4.16-1.627-4.883-.434-.578-3.195-1.688-4.522-2.17-.12.543-.615 1.88-1.627 2.894a22.852 22.852 0 0 1-2.532 2.17L25 20.929Z" stroke="#1D8CE0" stroke-width=".362"/><path d="M25 20.929v-9.585c-1.628-.362-3.13-1.841-3.979-3.256-1.085-1.808-1.085-4.16-1.627-4.883-.434-.578-3.195-1.688-4.522-2.17-.12.543-.615 1.88-1.627 2.894a22.852 22.852 0 0 1-2.532 2.17L25 20.929Z" stroke="#000" stroke-opacity=".8" stroke-width=".362"/><path d="m3.479 10.982 15.372 3.617c-7.27 1.377-11.263 2.5-19.351.362.663-.06 2.242-.362 3.255-1.086 1.013-.723.905-2.23.724-2.893Z" fill="#1D8CE0"/><path d="m3.479 10.982 15.372 3.617c-7.27 1.377-11.263 2.5-19.351.362.663-.06 2.242-.362 3.255-1.086 1.013-.723.905-2.23.724-2.893Z" fill="#000" fill-opacity=".2"/><path d="m3.479 10.982 15.372 3.617c-7.27 1.377-11.263 2.5-19.351.362.663-.06 2.242-.362 3.255-1.086 1.013-.723.905-2.23.724-2.893Z" stroke="#1D8CE0" stroke-width=".362"/><path d="m3.479 10.982 15.372 3.617c-7.27 1.377-11.263 2.5-19.351.362.663-.06 2.242-.362 3.255-1.086 1.013-.723.905-2.23.724-2.893Z" stroke="#000" stroke-opacity=".8" stroke-width=".362"/><path d="m6.915 6.099 11.936 8.5C8.551 13.28 3.986 12.31 1.308 9.535c.905.06 2.93.036 3.798-.542.868-.58 1.568-2.17 1.809-2.894Z" fill="#1D8CE0"/><path d="m6.915 6.099 11.936 8.5C8.551 13.28 3.986 12.31 1.308 9.535c.905.06 2.93.036 3.798-.542.868-.58 1.568-2.17 1.809-2.894Z" fill="#fff" fill-opacity=".2"/><path d="m6.915 6.099 11.936 8.5C8.551 13.28 3.986 12.31 1.308 9.535c.905.06 2.93.036 3.798-.542.868-.58 1.568-2.17 1.809-2.894Z" stroke="#1D8CE0" stroke-width=".362"/><path d="m6.915 6.099 11.936 8.5C8.551 13.28 3.986 12.31 1.308 9.535c.905.06 2.93.036 3.798-.542.868-.58 1.568-2.17 1.809-2.894Z" stroke="#000" stroke-opacity=".8" stroke-width=".362"/><path d="M14.69 7.003c-.867-.723-1.627-2.05-1.988-2.713-.844.422-2.75.905-3.617.905-.869 0-3.075-.724-3.075-.724 1.205 3.264 5.343 5.723 12.84 10.128.06-.723.073-2.423-.361-3.436-.543-1.266-2.713-3.256-3.798-4.16Z" fill="#1D8CE0"/><path d="M14.69 7.003c-.867-.723-1.627-2.05-1.988-2.713-.844.422-2.75.905-3.617.905-.869 0-3.075-.724-3.075-.724 1.205 3.264 5.343 5.723 12.84 10.128.06-.723.073-2.423-.361-3.436-.543-1.266-2.713-3.256-3.798-4.16Z" fill="#fff" fill-opacity=".8"/><path d="M14.69 7.003c-.867-.723-1.627-2.05-1.988-2.713-.844.422-2.75.905-3.617.905-.869 0-3.075-.724-3.075-.724 1.205 3.264 5.343 5.723 12.84 10.128.06-.723.073-2.423-.361-3.436-.543-1.266-2.713-3.256-3.798-4.16Z" stroke="#1D8CE0" stroke-width=".362"/><path d="M14.69 7.003c-.867-.723-1.627-2.05-1.988-2.713-.844.422-2.75.905-3.617.905-.869 0-3.075-.724-3.075-.724 1.205 3.264 5.343 5.723 12.84 10.128.06-.723.073-2.423-.361-3.436-.543-1.266-2.713-3.256-3.798-4.16Z" stroke="#000" stroke-opacity=".8" stroke-width=".362"/><g clip-path="url(#atub)" fill="#152242"><path d="M39.029 28.446a1 1 0 0 1 1.742 0l3.507 6.22a1 1 0 0 0 .673.49l7 1.412a1 1 0 0 1 .538 1.657l-4.833 5.258a1 1 0 0 0-.257.791l.82 7.094a1 1 0 0 1-1.41 1.024l-6.493-2.972a1 1 0 0 0-.832 0l-6.494 2.972a1 1 0 0 1-1.41-1.024l.82-7.094a1 1 0 0 0-.257-.791l-4.833-5.258a1 1 0 0 1 .539-1.657l7-1.412a1 1 0 0 0 .673-.49l3.507-6.22Z"/><path d="m41.935 37.532.339.602.675.135 4.062.82-2.804 3.05-.467.508.08.686.474 4.115-3.766-1.724-.627-.287-.627.288-3.769 1.723.476-4.115.079-.686-.467-.508-2.805-3.05 4.063-.82.676-.135.338-.602 2.035-3.611 2.035 3.611Z" stroke="#FAA21E" stroke-width="3.013"/></g></g><defs><clipPath id="atua"><path fill="#fff" transform="matrix(-1 0 0 1 50 0)" d="M0 0h50v50H0z"/></clipPath><clipPath id="atub"><path fill="#fff" transform="matrix(1 0 0 -1 0 50)" d="M0 0h50v50H0z"/></clipPath></defs></svg>