<svg width="50" height="50" viewBox="0 0 50 50" fill="none" xmlns="http://www.w3.org/2000/svg">
<g clip-path="url(#clip0_4774_7591)">
<path d="M3.6316 20.6036C2.48482 21.4636 0 23.8529 0 25.9554C3.58506e-05 27.1022 4.58729 32.8363 8.02776 35.13C11.0827 37.1666 14.4418 39.7173 17.5 42.5843C20.5582 45.4514 22.9266 50.1911 23.5 50C24.0734 49.8089 26.2583 44.8616 28.4794 42.5843C31 40 33.6401 37.997 36.316 37.0413C38.992 36.0857 42 34 40.1388 32.0718C38.2521 30.1172 29.244 33.6009 27.1415 33.6009C25.4595 33.6009 14.5901 23.1521 9.17454 18.1188C6.49862 18.8833 4.77839 19.7435 3.6316 20.6036Z" fill="#D0333D"/>
<path d="M3.6316 20.6036C2.48482 21.4636 0 23.8529 0 25.9554C3.58506e-05 27.1022 4.58729 32.8363 8.02776 35.13C11.0827 37.1666 14.4418 39.7173 17.5 42.5843C20.5582 45.4514 22.9266 50.1911 23.5 50C24.0734 49.8089 26.2583 44.8616 28.4794 42.5843C31 40 33.6401 37.997 36.316 37.0413C38.992 36.0857 42 34 40.1388 32.0718C38.2521 30.1172 29.244 33.6009 27.1415 33.6009C25.4595 33.6009 14.5901 23.1521 9.17454 18.1188C6.49862 18.8833 4.77839 19.7435 3.6316 20.6036Z" fill="black" fill-opacity="0.2"/>
<path d="M27.1708 38.5622C25.0232 38.2163 24.0049 38.6959 22.3847 40.2699C23.2791 38.4059 23.2278 37.3318 22.1364 35.3817C24.38 35.654 25.3164 35.131 26.6575 33.5065C26.0836 35.6293 26.115 36.7507 27.1708 38.5622Z" stroke="#898989" stroke-linecap="round" stroke-linejoin="round"/>
<path d="M27.1708 38.5622C25.0232 38.2163 24.0049 38.6959 22.3847 40.2699C23.2791 38.4059 23.2278 37.3318 22.1364 35.3817C24.38 35.654 25.3164 35.131 26.6575 33.5065C26.0836 35.6293 26.115 36.7507 27.1708 38.5622Z" stroke="white" stroke-opacity="0.6" stroke-linecap="round" stroke-linejoin="round"/>
<path fill-rule="evenodd" clip-rule="evenodd" d="M11.5673 22.1948C11.8826 22.1814 12.1491 22.4261 12.1625 22.7414L12.2478 24.7396C12.2612 25.0549 12.0165 25.3214 11.7012 25.3348C11.3859 25.3483 11.1194 25.1036 11.106 24.7883L11.0207 22.7901C11.0073 22.4748 11.252 22.2083 11.5673 22.1948ZM7.19483 26.9569C7.18138 26.6416 7.42608 26.3751 7.74139 26.3617L9.73957 26.2764C10.0549 26.263 10.3214 26.5077 10.3348 26.823C10.3483 27.1383 10.1036 27.4048 9.78828 27.4182L7.79009 27.5035C7.47479 27.5169 7.20828 27.2722 7.19483 26.9569ZM13.1894 26.7012C13.1759 26.3859 13.4206 26.1194 13.7359 26.1059L15.7341 26.0207C16.0494 26.0073 16.3159 26.252 16.3294 26.5673C16.3428 26.8826 16.0981 27.1491 15.7828 27.1625L13.7846 27.2478C13.4693 27.2612 13.2028 27.0165 13.1894 26.7012ZM11.823 28.1894C12.1383 28.1759 12.4048 28.4206 12.4183 28.7359L12.5035 30.7341C12.5169 31.0494 12.2722 31.3159 11.9569 31.3294C11.6416 31.3428 11.3751 31.0981 11.3617 30.7828L11.2764 28.7846C11.263 28.4693 11.5077 28.2028 11.823 28.1894Z" fill="#898989"/>
<path fill-rule="evenodd" clip-rule="evenodd" d="M11.5673 22.1948C11.8826 22.1814 12.1491 22.4261 12.1625 22.7414L12.2478 24.7396C12.2612 25.0549 12.0165 25.3214 11.7012 25.3348C11.3859 25.3483 11.1194 25.1036 11.106 24.7883L11.0207 22.7901C11.0073 22.4748 11.252 22.2083 11.5673 22.1948ZM7.19483 26.9569C7.18138 26.6416 7.42608 26.3751 7.74139 26.3617L9.73957 26.2764C10.0549 26.263 10.3214 26.5077 10.3348 26.823C10.3483 27.1383 10.1036 27.4048 9.78828 27.4182L7.79009 27.5035C7.47479 27.5169 7.20828 27.2722 7.19483 26.9569ZM13.1894 26.7012C13.1759 26.3859 13.4206 26.1194 13.7359 26.1059L15.7341 26.0207C16.0494 26.0073 16.3159 26.252 16.3294 26.5673C16.3428 26.8826 16.0981 27.1491 15.7828 27.1625L13.7846 27.2478C13.4693 27.2612 13.2028 27.0165 13.1894 26.7012ZM11.823 28.1894C12.1383 28.1759 12.4048 28.4206 12.4183 28.7359L12.5035 30.7341C12.5169 31.0494 12.2722 31.3159 11.9569 31.3294C11.6416 31.3428 11.3751 31.0981 11.3617 30.7828L11.2764 28.7846C11.263 28.4693 11.5077 28.2028 11.823 28.1894Z" fill="white" fill-opacity="0.6"/>
<path d="M12.2617 26.7408C12.2734 27.0167 12.0593 27.2499 11.7834 27.2616C11.5075 27.2734 11.2743 27.0593 11.2626 26.7834C11.2508 26.5075 11.4649 26.2743 11.7408 26.2625C12.0167 26.2508 12.2499 26.4649 12.2617 26.7408Z" fill="#898989"/>
<path d="M12.2617 26.7408C12.2734 27.0167 12.0593 27.2499 11.7834 27.2616C11.5075 27.2734 11.2743 27.0593 11.2626 26.7834C11.2508 26.5075 11.4649 26.2743 11.7408 26.2625C12.0167 26.2508 12.2499 26.4649 12.2617 26.7408Z" fill="white" fill-opacity="0.6"/>
<path d="M36.3161 28.344C34.5322 28.9811 30.6584 30.523 29.4352 31.5933C28.7343 33.1224 26.7592 35.2249 27.7149 36.5629C28.0292 37.0028 29.4352 36.9452 30.1997 36.3717C30.9643 35.7983 31.92 34.4604 35.1693 32.9313C37.7687 31.708 39.5 31.5 40.5 32.5C40.1177 31.9266 38.992 30.6376 38.2275 29.8731C37.4629 29.1085 36.6347 28.5351 36.3161 28.344Z" fill="#D0333D"/>
<path d="M36.3161 28.344C34.5322 28.9811 30.6584 30.523 29.4352 31.5933C28.7343 33.1224 26.7592 35.2249 27.7149 36.5629C28.0292 37.0028 29.4352 36.9452 30.1997 36.3717C30.9643 35.7983 31.92 34.4604 35.1693 32.9313C37.7687 31.708 39.5 31.5 40.5 32.5C40.1177 31.9266 38.992 30.6376 38.2275 29.8731C37.4629 29.1085 36.6347 28.5351 36.3161 28.344Z" fill="black" fill-opacity="0.4"/>
<path d="M35.1692 9.42133C31.7288 6.55427 25.6124 -0.708475 25.039 0.0560293C24.4655 0.820582 21.4838 2.9231 14.1441 5.21674C6.80448 7.51039 3.5 11.5 4.20502 15.1555C5.99994 18 10.8593 23.0122 13 25C15.6759 27.4848 28.4999 38 27.4999 36C26.9999 34 30.7731 30.2557 39.1831 28.3443C47.5931 26.4329 50.6513 20.5079 49.8868 20.1254C48.3577 19.3605 38.6097 12.2884 35.1692 9.42133Z" fill="#D0333D"/>
<path d="M35.1692 9.42133C31.7288 6.55427 25.6124 -0.708475 25.039 0.0560293C24.4655 0.820582 21.4838 2.9231 14.1441 5.21674C6.80448 7.51039 3.5 11.5 4.20502 15.1555C5.99994 18 10.8593 23.0122 13 25C15.6759 27.4848 28.4999 38 27.4999 36C26.9999 34 30.7731 30.2557 39.1831 28.3443C47.5931 26.4329 50.6513 20.5079 49.8868 20.1254C48.3577 19.3605 38.6097 12.2884 35.1692 9.42133Z" fill="white" fill-opacity="0.2"/>
<path d="M11.9567 17.533C11.3579 15.7461 10.4933 15.1045 8.38629 14.3427C10.4471 14.4452 11.3943 14.0621 12.6906 12.5871C13.3965 14.4254 14.2655 14.9892 16.2996 15.5171C14.1413 15.7473 13.143 16.1301 11.9567 17.533Z" stroke="#FEFEFE" stroke-linecap="round" stroke-linejoin="round"/>
<path d="M38.9507 22.5643C38.3695 20.7716 37.5113 20.1216 35.4118 19.3392C37.4715 19.4619 38.4225 19.0881 39.7332 17.6259C40.4209 19.471 41.2844 20.0434 43.3133 20.5911C41.1528 20.8001 40.1508 21.1732 38.9507 22.5643Z" stroke="#FEFEFE" stroke-linecap="round" stroke-linejoin="round"/>
<path fill-rule="evenodd" clip-rule="evenodd" d="M26.0365 22.2356C26.3517 22.2518 26.594 22.5205 26.5778 22.8357L26.4747 24.833C26.4585 25.1482 26.1898 25.3905 25.8746 25.3742C25.5594 25.358 25.3171 25.0893 25.3334 24.7741L25.4364 22.7768C25.4527 22.4616 25.7214 22.2193 26.0365 22.2356ZM21.2356 26.5654C21.2519 26.2502 21.5206 26.0079 21.8358 26.0241L23.8331 26.1272C24.1483 26.1434 24.3906 26.4121 24.3743 26.7273C24.3581 27.0425 24.0894 27.2848 23.7742 27.2685L21.7769 27.1655C21.4617 27.1492 21.2194 26.8805 21.2356 26.5654ZM27.2277 26.8745C27.2439 26.5593 27.5126 26.317 27.8278 26.3333L29.8251 26.4364C30.1403 26.4526 30.3826 26.7213 30.3663 27.0365C30.3501 27.3516 30.0814 27.594 29.7662 27.5777L27.7689 27.4746C27.4537 27.4584 27.2114 27.1897 27.2277 26.8745ZM25.7274 28.2276C26.0426 28.2438 26.2849 28.5125 26.2686 28.8277L26.1656 30.825C26.1493 31.1402 25.8806 31.3825 25.5654 31.3663C25.2503 31.35 25.008 31.0813 25.0242 30.7662L25.1273 28.7688C25.1435 28.4536 25.4122 28.2113 25.7274 28.2276Z" fill="#FEFEFE"/>
<path d="M26.3003 26.8267C26.2861 27.1024 26.051 27.3145 25.7752 27.3002C25.4995 27.286 25.2874 27.0509 25.3017 26.7751C25.3159 26.4994 25.551 26.2873 25.8268 26.3016C26.1025 26.3158 26.3146 26.5509 26.3003 26.8267Z" fill="#FEFEFE"/>
<path fill-rule="evenodd" clip-rule="evenodd" d="M25.288 3.36559C25.6026 3.39083 25.8371 3.66631 25.8119 3.98089L25.6519 5.97448C25.6267 6.28906 25.3512 6.52362 25.0366 6.49838C24.7221 6.47314 24.4875 6.19767 24.5127 5.88308L24.6727 3.88949C24.6979 3.57491 24.9734 3.34035 25.288 3.36559ZM20.3656 7.55679C20.3908 7.24221 20.6663 7.00765 20.9809 7.03289L22.9745 7.19283C23.2891 7.21807 23.5236 7.49355 23.4984 7.80813C23.4732 8.12271 23.1977 8.35727 22.8831 8.33203L20.8895 8.17208C20.5749 8.14684 20.3404 7.87137 20.3656 7.55679ZM26.3464 8.03662C26.3716 7.72204 26.6471 7.48749 26.9617 7.51273L28.9553 7.67267C29.2699 7.69791 29.5044 7.97339 29.4792 8.28797C29.4539 8.60255 29.1785 8.83711 28.8639 8.81187L26.8703 8.65192C26.5557 8.62668 26.3212 8.35121 26.3464 8.03662ZM24.8081 9.34637C25.1227 9.37161 25.3573 9.64709 25.332 9.96167L25.1721 11.9553C25.1469 12.2698 24.8714 12.5044 24.5568 12.4792C24.2422 12.4539 24.0077 12.1784 24.0329 11.8639L24.1929 9.87027C24.2181 9.55569 24.4936 9.32113 24.8081 9.34637Z" fill="#FEFEFE"/>
<path d="M25.4208 7.96236C25.3987 8.23762 25.1577 8.44286 24.8824 8.42078C24.6072 8.39869 24.4019 8.15765 24.424 7.88239C24.4461 7.60713 24.6871 7.4019 24.9624 7.42398C25.2376 7.44606 25.4429 7.68711 25.4208 7.96236Z" fill="#FEFEFE"/>
</g>
<defs>
<clipPath id="clip0_4774_7591">
<rect width="50" height="50" fill="white" transform="matrix(-1 0 0 1 50 0)"/>
</clipPath>
</defs>
</svg>
