<svg width="40" height="40" viewBox="0 0 40 40" fill="none" xmlns="http://www.w3.org/2000/svg">
<path d="M24.5 1V7" stroke="#FAA21E" stroke-width="2"/>
<path d="M24.5 1V7" stroke="white" stroke-opacity="0.4" stroke-width="2"/>
<path d="M28 25V31" stroke="#FAA21E" stroke-width="2"/>
<path d="M28 25V31" stroke="white" stroke-opacity="0.4" stroke-width="2"/>
<path d="M39 16L33 16" stroke="#FAA21E" stroke-width="2"/>
<path d="M39 16L33 16" stroke="white" stroke-opacity="0.4" stroke-width="2"/>
<path d="M15 12L9 12" stroke="#FAA21E" stroke-width="2"/>
<path d="M15 12L9 12" stroke="white" stroke-opacity="0.4" stroke-width="2"/>
<path d="M20.2422 20L1.24219 39" stroke="#FAA21E" stroke-width="2"/>
<path d="M20.2422 20L1.24219 39" stroke="white" stroke-opacity="0.4" stroke-width="2"/>
<path d="M30.5 14.9999C30.5 14.9999 33.5 8.5 32.5 7.49991C31.5 6.49982 24.5 9.99991 24.5 9.99991C24.5 9.99991 19 4.49991 18 4.99991C17 5.49991 18 13.4999 18 13.4999C18 13.4999 11 17.4998 11.5 18.4999C12 19.5 19 20.4999 19 20.4999C19 20.4999 20.5 28.4998 22 28.4999C23.5 28.5 27 21.9999 27 21.9999C27 21.9999 35 22.9999 35.5 21.9999C36 20.9999 30.5 14.9999 30.5 14.9999Z" fill="#FAA21E"/>
</svg>
