<?xml version="1.0" encoding="utf-8"?><svg fill="none" viewBox="0 0 50 50" xmlns="http://www.w3.org/2000/svg" width="50" height="50"><g clip-path="url(#auba)"><path d="M34.903 35.94c.753-4.278 2.858-10.853 3.597-11.44-3.151.763-6.064.708-11.668-.162C19.479 23.196 10.773 19.489 8.5 17.5c1.017 1.93.32 6.997-.5 10.5-.796 3.395-2.521 8.235-4 10.5 1.63 1.635 7.43 6.152 15.23 7.703 7.8 1.55 13.008.756 15.168 0a40.98 40.98 0 0 1 .505-10.263Z" fill="#D0333D"/><path d="M34.903 35.94c.753-4.278 2.858-10.853 3.597-11.44-3.151.763-6.064.708-11.668-.162C19.479 23.196 10.773 19.489 8.5 17.5c1.017 1.93.32 6.997-.5 10.5-.796 3.395-2.521 8.235-4 10.5 1.63 1.635 7.43 6.152 15.23 7.703 7.8 1.55 13.008.756 15.168 0a40.98 40.98 0 0 1 .505-10.263Z" fill="#fff" fill-opacity=".2"/><path d="M14.787 27.283c-1.056-.85-1.828-.902-3.399-.545 1.287-.738 1.712-1.337 1.924-2.733 1.14.838 1.885.842 3.32.372-1.216.977-1.672 1.596-1.845 2.906Z" stroke="#FEFEFE" stroke-width=".719" stroke-linecap="round" stroke-linejoin="round"/><path d="M30.592 40.478c-.625 1.393-.463 2.25.372 3.862-1.17-1.194-1.945-1.486-3.528-1.32.59-1.483.383-2.297-.538-3.73 1.412 1.05 2.217 1.371 3.694 1.188Z" stroke="#FEFEFE" stroke-width=".81" stroke-linecap="round" stroke-linejoin="round"/><path fill-rule="evenodd" clip-rule="evenodd" d="M10.076 34.633a.315.315 0 0 1 .39.213l.312 1.056a.315.315 0 0 1-.604.177l-.31-1.056a.315.315 0 0 1 .212-.39Zm-1.703 3.124a.315.315 0 0 1 .213-.39l1.056-.311a.314.314 0 1 1 .178.603l-1.056.311a.315.315 0 0 1-.391-.213Zm3.168-.932a.315.315 0 0 1 .213-.391l1.056-.31a.315.315 0 0 1 .178.603l-1.056.31a.315.315 0 0 1-.39-.212Zm-.532.976a.315.315 0 0 1 .39.213l.311 1.056a.315.315 0 0 1-.603.177l-.311-1.056a.315.315 0 0 1 .213-.39Z" fill="#FEFEFE"/><path d="M11.05 36.969a.275.275 0 1 1-.527.155.275.275 0 0 1 .528-.155Z" fill="#FEFEFE"/><path fill-rule="evenodd" clip-rule="evenodd" d="M33.306 28.65a.343.343 0 0 1-.156.46l-1.077.53a.343.343 0 1 1-.304-.616l1.078-.53a.343.343 0 0 1 .459.156ZM29.63 27.4a.343.343 0 0 1 .46.157l.53 1.077a.343.343 0 1 1-.615.304l-.531-1.078a.343.343 0 0 1 .156-.46Zm1.593 3.233a.343.343 0 0 1 .46.156l.53 1.077a.343.343 0 1 1-.615.303l-.531-1.077a.343.343 0 0 1 .156-.46Zm-1.149-.39a.343.343 0 0 1-.156.459l-1.077.53a.343.343 0 1 1-.304-.615l1.078-.53a.343.343 0 0 1 .46.155Z" fill="#FEFEFE"/><path d="M30.976 30.133a.3.3 0 1 1-.265-.54.3.3 0 0 1 .265.54Z" fill="#FEFEFE"/><path fill-rule="evenodd" clip-rule="evenodd" d="M23.601 35.58a.343.343 0 0 1-.453.172l-1.096-.49a.343.343 0 1 1 .28-.627l1.096.491c.173.078.25.28.173.454Zm-1.382-3.628c.173.077.25.28.173.453l-.491 1.096a.343.343 0 1 1-.627-.28l.491-1.097a.343.343 0 0 1 .454-.172Zm-1.474 3.287c.173.078.25.281.173.454l-.491 1.096a.343.343 0 1 1-.627-.28l.492-1.097a.343.343 0 0 1 .453-.172Zm-.432-1.133a.343.343 0 0 1-.453.173l-1.096-.492a.343.343 0 0 1 .28-.626l1.096.491c.173.078.25.28.173.454Z" fill="#FEFEFE"/><path d="M20.973 34.73a.3.3 0 1 1 .246-.547.3.3 0 0 1-.246.548Z" fill="#FEFEFE"/><path d="M.034 12.104c.802-3.551 12.626-3.907 26.409-.793 13.783 3.113 24.306 8.517 23.504 12.069-.802 3.551-12.664 4.117-26.447 1.003C9.717 21.27-.767 15.657.034 12.105Z" fill="#D0333D"/><path d="M.034 12.104c.802-3.551 12.626-3.907 26.409-.793 13.783 3.113 24.306 8.517 23.504 12.069-.802 3.551-12.664 4.117-26.447 1.003C9.717 21.27-.767 15.657.034 12.105Z" fill="#000" fill-opacity=".2"/><ellipse cx="24.821" cy="16.671" rx="15.828" ry="4.089" transform="rotate(-167.878 24.821 16.671)" fill="#D0333D"/><ellipse cx="24.821" cy="16.671" rx="15.828" ry="4.089" transform="rotate(-167.878 24.821 16.671)" fill="#000" fill-opacity=".6"/><path d="M24.31 10.213c0-4.54-1.514-9.08-4.54-8.07-2.019.504-1.01 6.557-.505 10.593.403 3.228-.337 5.549-.505 6.557l3.531 1.01c.841-2.355 2.018-6.458 2.018-10.09Z" fill="#898989"/><path d="M24.31 10.213c0-4.54-1.514-9.08-4.54-8.07-2.019.504-1.01 6.557-.505 10.593.403 3.228-.337 5.549-.505 6.557l3.531 1.01c.841-2.355 2.018-6.458 2.018-10.09Z" fill="#fff" fill-opacity=".8"/><path d="M33.338 13.22c1.37-4.328 1.298-9.113-1.893-9.065-2.075-.128-2.94 5.948-3.678 9.947-.59 3.2-2.449 5.696-2.953 6.705l3.531.655c1.512-1.99 3.897-4.78 4.993-8.242Z" fill="#898989"/><path d="M33.338 13.22c1.37-4.328 1.298-9.113-1.893-9.065-2.075-.128-2.94 5.948-3.678 9.947-.59 3.2-2.449 5.696-2.953 6.705l3.531.655c1.512-1.99 3.897-4.78 4.993-8.242Z" fill="#fff" fill-opacity=".8"/><g clip-path="url(#aubb)" fill="#152242"><path d="M39.029 28.446a1 1 0 0 1 1.742 0l3.507 6.22a1 1 0 0 0 .673.49l7 1.412a1 1 0 0 1 .538 1.657l-4.833 5.258a1 1 0 0 0-.257.791l.82 7.094a1 1 0 0 1-1.41 1.024l-6.493-2.972a1 1 0 0 0-.832 0l-6.494 2.972a1 1 0 0 1-1.41-1.024l.82-7.094a1 1 0 0 0-.257-.791l-4.833-5.258a1 1 0 0 1 .539-1.657l7-1.412a1 1 0 0 0 .673-.49l3.507-6.22Z"/><path d="m41.935 37.532.339.602.675.135 4.062.82-2.804 3.05-.467.508.08.686.474 4.115-3.766-1.724-.627-.287-.627.288-3.769 1.723.476-4.115.079-.686-.467-.508-2.805-3.05 4.063-.82.676-.135.338-.602 2.035-3.611 2.035 3.611Z" stroke="#FAA21E" stroke-width="3.013"/></g></g><defs><clipPath id="auba"><path fill="#fff" transform="matrix(-1 0 0 1 50 0)" d="M0 0h50v50H0z"/></clipPath><clipPath id="aubb"><path fill="#fff" transform="matrix(1 0 0 -1 0 50)" d="M0 0h50v50H0z"/></clipPath></defs></svg>