<svg width="50" height="50" viewBox="0 0 50 50" fill="none" xmlns="http://www.w3.org/2000/svg">
<g clip-path="url(#clip0_4706_7958)">
<path d="M34.9029 35.9403C35.6556 31.6619 37.7605 25.0873 38.5 24.5001C35.3489 25.2633 32.4364 25.2081 26.8317 24.3379C19.479 23.1963 10.773 19.4894 8.5 17.5001C9.51677 19.4294 8.8209 24.4971 8 28.0001C7.20426 31.3956 5.47894 36.2351 4 38.5001C5.62938 40.1348 11.4299 44.6518 19.2302 46.2026C27.0305 47.7534 32.2382 46.959 34.3985 46.2026C34.2136 43.7699 34.1503 40.2187 34.9029 35.9403Z" fill="#D0333D"/>
<path d="M34.9029 35.9403C35.6556 31.6619 37.7605 25.0873 38.5 24.5001C35.3489 25.2633 32.4364 25.2081 26.8317 24.3379C19.479 23.1963 10.773 19.4894 8.5 17.5001C9.51677 19.4294 8.8209 24.4971 8 28.0001C7.20426 31.3956 5.47894 36.2351 4 38.5001C5.62938 40.1348 11.4299 44.6518 19.2302 46.2026C27.0305 47.7534 32.2382 46.959 34.3985 46.2026C34.2136 43.7699 34.1503 40.2187 34.9029 35.9403Z" fill="white" fill-opacity="0.2"/>
<path d="M14.7871 27.2826C13.7312 26.4338 12.959 26.3811 11.3884 26.738C12.6752 26.0001 13.0997 25.4006 13.3115 24.0049C14.4522 24.8433 15.1969 24.8472 16.6326 24.377C15.416 25.3541 14.9605 25.9732 14.7871 27.2826Z" stroke="#FEFEFE" stroke-width="0.718897" stroke-linecap="round" stroke-linejoin="round"/>
<path d="M30.5924 40.478C29.9666 41.8712 30.1286 42.7285 30.9645 44.3403C29.7937 43.1464 29.0191 42.8538 27.4364 43.0194C28.0267 41.5368 27.8193 40.7234 26.8982 39.2908C28.3099 40.3403 29.1148 40.6611 30.5924 40.478Z" stroke="#FEFEFE" stroke-width="0.8104" stroke-linecap="round" stroke-linejoin="round"/>
<path fill-rule="evenodd" clip-rule="evenodd" d="M10.0764 34.6328C10.243 34.5838 10.4179 34.6791 10.4669 34.8457L10.7777 35.9018C10.8268 36.0684 10.7314 36.2432 10.5648 36.2923C10.3982 36.3413 10.2233 36.246 10.1743 36.0794L9.86346 35.0233C9.81441 34.8567 9.90974 34.6819 10.0764 34.6328ZM8.37305 37.757C8.324 37.5904 8.41933 37.4156 8.58596 37.3665L9.64199 37.0557C9.80863 37.0066 9.98347 37.102 10.0325 37.2686C10.0816 37.4352 9.98624 37.6101 9.8196 37.6591L8.76358 37.97C8.59694 38.019 8.42209 37.9237 8.37305 37.757ZM11.5411 36.8246C11.4921 36.6579 11.5874 36.4831 11.754 36.434L12.8101 36.1232C12.9767 36.0742 13.1516 36.1695 13.2006 36.3361C13.2496 36.5028 13.1543 36.6776 12.9877 36.7267L11.9317 37.0375C11.765 37.0865 11.5902 36.9912 11.5411 36.8246ZM11.0088 37.8009C11.1755 37.7518 11.3503 37.8472 11.3994 38.0138L11.7102 39.0698C11.7592 39.2365 11.6639 39.4113 11.4973 39.4604C11.3306 39.5094 11.1558 39.4141 11.1067 39.2474L10.7959 38.1914C10.7469 38.0248 10.8422 37.8499 11.0088 37.8009Z" fill="#FEFEFE"/>
<path d="M11.0508 36.9689C11.0937 37.1147 11.0103 37.2677 10.8645 37.3106C10.7187 37.3535 10.5657 37.2701 10.5228 37.1243C10.4799 36.9785 10.5633 36.8255 10.7091 36.7826C10.8549 36.7397 11.0079 36.8231 11.0508 36.9689Z" fill="#FEFEFE"/>
<path fill-rule="evenodd" clip-rule="evenodd" d="M33.3061 28.6495C33.3899 28.8195 33.32 29.0252 33.15 29.109L32.0727 29.64C31.9027 29.7237 31.697 29.6539 31.6132 29.4839C31.5294 29.3139 31.5993 29.1081 31.7693 29.0244L32.8466 28.4934C33.0166 28.4096 33.2223 28.4795 33.3061 28.6495ZM29.6301 27.4007C29.8001 27.3169 30.0058 27.3868 30.0896 27.5568L30.6205 28.6341C30.7043 28.8041 30.6344 29.0098 30.4644 29.0936C30.2944 29.1774 30.0887 29.1075 30.0049 28.9375L29.474 27.8602C29.3902 27.6902 29.4601 27.4845 29.6301 27.4007ZM31.2229 30.6326C31.3929 30.5488 31.5987 30.6187 31.6824 30.7887L32.2134 31.866C32.2972 32.036 32.2273 32.2418 32.0573 32.3256C31.8873 32.4093 31.6816 32.3394 31.5978 32.1694L31.0668 31.0921C30.9831 30.9221 31.0529 30.7164 31.2229 30.6326ZM30.0742 30.2424C30.158 30.4124 30.0881 30.6181 29.9181 30.7019L28.8408 31.2328C28.6708 31.3166 28.465 31.2467 28.3813 31.0767C28.2975 30.9067 28.3674 30.701 28.5374 30.6172L29.6147 30.0863C29.7847 30.0025 29.9904 30.0724 30.0742 30.2424Z" fill="#FEFEFE"/>
<path d="M30.9764 30.1324C30.8277 30.2058 30.6477 30.1446 30.5744 29.9959C30.5011 29.8471 30.5622 29.6671 30.711 29.5938C30.8597 29.5205 31.0397 29.5816 31.113 29.7304C31.1863 29.8791 31.1252 30.0591 30.9764 30.1324Z" fill="#FEFEFE"/>
<path fill-rule="evenodd" clip-rule="evenodd" d="M23.6012 35.5796C23.5237 35.7525 23.3207 35.8299 23.1477 35.7524L22.0518 35.2611C21.8788 35.1836 21.8015 34.9805 21.879 34.8076C21.9565 34.6347 22.1595 34.5573 22.3325 34.6348L23.4285 35.1261C23.6014 35.2036 23.6788 35.4066 23.6012 35.5796ZM22.219 31.9516C22.392 32.0291 22.4693 32.2321 22.3918 32.4051L21.9005 33.5011C21.823 33.674 21.62 33.7514 21.447 33.6738C21.2741 33.5963 21.1967 33.3933 21.2743 33.2203L21.7655 32.1244C21.843 31.9514 22.0461 31.8741 22.219 31.9516ZM20.7452 35.2395C20.9182 35.3171 20.9955 35.5201 20.918 35.693L20.4267 36.789C20.3492 36.962 20.1462 37.0393 19.9733 36.9618C19.8003 36.8843 19.723 36.6812 19.8005 36.5083L20.2917 35.4123C20.3693 35.2394 20.5723 35.162 20.7452 35.2395ZM20.3133 34.1058C20.2358 34.2787 20.0327 34.3561 19.8598 34.2786L18.7638 33.7873C18.5909 33.7098 18.5135 33.5068 18.591 33.3338C18.6685 33.1609 18.8716 33.0835 19.0445 33.161L20.1405 33.6523C20.3134 33.7298 20.3908 33.9329 20.3133 34.1058Z" fill="#FEFEFE"/>
<path d="M20.9733 34.7307C20.822 34.6629 20.7543 34.4852 20.8221 34.3339C20.89 34.1826 21.0676 34.1149 21.2189 34.1827C21.3703 34.2505 21.438 34.4282 21.3701 34.5795C21.3023 34.7308 21.1246 34.7985 20.9733 34.7307Z" fill="#FEFEFE"/>
<path d="M0.0344503 12.1045C0.836401 8.55258 12.6599 8.19713 26.443 11.3106C40.2261 14.4241 50.7494 19.8275 49.9474 23.3795C49.1455 26.9314 37.2835 27.4965 23.5004 24.383C9.71733 21.2695 -0.7675 15.6565 0.0344503 12.1045Z" fill="#D0333D"/>
<path d="M0.0344503 12.1045C0.836401 8.55258 12.6599 8.19713 26.443 11.3106C40.2261 14.4241 50.7494 19.8275 49.9474 23.3795C49.1455 26.9314 37.2835 27.4965 23.5004 24.383C9.71733 21.2695 -0.7675 15.6565 0.0344503 12.1045Z" fill="black" fill-opacity="0.2"/>
<ellipse cx="24.8213" cy="16.6715" rx="15.8279" ry="4.08864" transform="rotate(-167.878 24.8213 16.6715)" fill="#D0333D"/>
<ellipse cx="24.8213" cy="16.6715" rx="15.8279" ry="4.08864" transform="rotate(-167.878 24.8213 16.6715)" fill="black" fill-opacity="0.6"/>
<path d="M24.3092 10.2132C24.3092 5.67319 22.7958 1.13316 19.7691 2.14206C17.7513 2.6465 18.7602 8.69992 19.2646 12.7355C19.6682 15.964 18.9284 18.2845 18.7603 19.2934L22.2914 20.3023C23.1322 17.9482 24.3092 13.8453 24.3092 10.2132Z" fill="#898989"/>
<path d="M24.3092 10.2132C24.3092 5.67319 22.7958 1.13316 19.7691 2.14206C17.7513 2.6465 18.7602 8.69992 19.2646 12.7355C19.6682 15.964 18.9284 18.2845 18.7603 19.2934L22.2914 20.3023C23.1322 17.9482 24.3092 13.8453 24.3092 10.2132Z" fill="white" fill-opacity="0.8"/>
<path d="M33.338 13.2201C34.7082 8.89173 34.6356 4.10667 31.4455 4.15508C29.3696 4.02702 28.5044 10.1027 27.7674 14.1023C27.1778 17.3021 25.3184 19.7978 24.814 20.8067L28.3451 21.4624C29.8571 19.4718 32.2418 16.6828 33.338 13.2201Z" fill="#898989"/>
<path d="M33.338 13.2201C34.7082 8.89173 34.6356 4.10667 31.4455 4.15508C29.3696 4.02702 28.5044 10.1027 27.7674 14.1023C27.1778 17.3021 25.3184 19.7978 24.814 20.8067L28.3451 21.4624C29.8571 19.4718 32.2418 16.6828 33.338 13.2201Z" fill="white" fill-opacity="0.8"/>
</g>
<defs>
<clipPath id="clip0_4706_7958">
<rect width="50" height="50" fill="white" transform="matrix(-1 0 0 1 50 0)"/>
</clipPath>
</defs>
</svg>
