<svg width="50" height="50" viewBox="0 0 50 50" fill="none" xmlns="http://www.w3.org/2000/svg">
<g clip-path="url(#clip0_1338_8116)">
<g clip-path="url(#clip1_1338_8116)">
<path d="M36.8629 14.7634V18.3862C37.4797 17.6315 38.9907 15.6691 41.9511 15.6691C45.6517 15.6691 47.0394 19.7448 47.0394 22.9149C47.0394 26.0849 45.1891 30.1607 41.9511 30.1607C39.3608 30.1607 37.3255 27.8963 36.8629 27.4435V31.0664C37.3255 31.0664 38.2506 32.8778 41.9511 32.8778C46.5768 32.8778 49.8148 28.8021 49.8148 22.9149C49.8148 17.0277 46.5768 12.9519 41.9511 12.9519C38.7132 12.9519 37.3255 14.7634 36.8629 14.7634Z" fill="#898989"/>
<path d="M36.8629 14.7634V18.3862C37.4797 17.6315 38.9907 15.6691 41.9511 15.6691C45.6517 15.6691 47.0394 19.7448 47.0394 22.9149C47.0394 26.0849 45.1891 30.1607 41.9511 30.1607C39.3608 30.1607 37.3255 27.8963 36.8629 27.4435V31.0664C37.3255 31.0664 38.2506 32.8778 41.9511 32.8778C46.5768 32.8778 49.8148 28.8021 49.8148 22.9149C49.8148 17.0277 46.5768 12.9519 41.9511 12.9519C38.7132 12.9519 37.3255 14.7634 36.8629 14.7634Z" fill="white" fill-opacity="0.95"/>
<path d="M4.98145 6.97412H37.8592V43.3389C37.8592 43.3389 34.8703 48.3204 21.4203 48.3204C7.97036 48.3204 4.98145 43.3389 4.98145 43.3389V6.97412Z" fill="#898989"/>
<path d="M4.98145 6.97412H37.8592V43.3389C37.8592 43.3389 34.8703 48.3204 21.4203 48.3204C7.97036 48.3204 4.98145 43.3389 4.98145 43.3389V6.97412Z" fill="white" fill-opacity="0.85"/>
<ellipse cx="21.4203" cy="6.47598" rx="16.4389" ry="4.48333" fill="#FEFEFE"/>
<ellipse cx="21.4204" cy="6.47597" rx="14.4463" ry="3.48704" fill="#898989"/>
<ellipse cx="21.4204" cy="6.47597" rx="14.4463" ry="3.48704" fill="white" fill-opacity="0.4"/>
<path d="M32.8778 8.46857C32.8778 7.97042 27.7482 6.97412 21.4204 6.97412C15.0927 6.97412 9.96301 7.97042 9.96301 8.46857C9.96301 8.96672 15.0927 9.96301 21.4204 9.96301C27.7482 9.96301 32.8778 8.96672 32.8778 8.46857Z" fill="#FAA21E"/>
<path d="M32.8778 8.46857C32.8778 7.97042 27.7482 6.97412 21.4204 6.97412C15.0927 6.97412 9.96301 7.97042 9.96301 8.46857C9.96301 8.96672 15.0927 9.96301 21.4204 9.96301C27.7482 9.96301 32.8778 8.96672 32.8778 8.46857Z" fill="black" fill-opacity="0.6"/>
</g>
<path d="M24.425 15.65V19.55" stroke="#FAA21E" stroke-width="1.98521"/>
<path d="M24.425 15.65V19.55" stroke="white" stroke-opacity="0.4" stroke-width="1.98521"/>
<path d="M26.7001 31.25V35.15" stroke="#FAA21E" stroke-width="1.98521"/>
<path d="M26.7001 31.25V35.15" stroke="white" stroke-opacity="0.4" stroke-width="1.98521"/>
<path d="M33.85 25.4L29.95 25.4" stroke="#FAA21E" stroke-width="1.98521"/>
<path d="M33.85 25.4L29.95 25.4" stroke="white" stroke-opacity="0.4" stroke-width="1.98521"/>
<path d="M18.25 22.8L14.35 22.8" stroke="#FAA21E" stroke-width="1.98521"/>
<path d="M18.25 22.8L14.35 22.8" stroke="white" stroke-opacity="0.4" stroke-width="1.98521"/>
<path d="M21.6573 28L9.30735 40.35" stroke="#FAA21E" stroke-width="1.98521"/>
<path d="M21.6573 28L9.30735 40.35" stroke="white" stroke-opacity="0.4" stroke-width="1.98521"/>
<path d="M28.325 24.7499C28.325 24.7499 30.275 20.525 29.625 19.8749C28.975 19.2249 24.425 21.4999 24.425 21.4999C24.425 21.4999 20.85 17.9249 20.2 18.2499C19.55 18.5749 20.2 23.7749 20.2 23.7749C20.2 23.7749 15.65 26.3749 15.975 27.0249C16.3 27.675 20.85 28.3249 20.85 28.3249C20.85 28.3249 21.825 33.5249 22.8 33.5249C23.775 33.525 26.05 29.2999 26.05 29.2999C26.05 29.2999 31.25 29.9499 31.575 29.2999C31.9 28.6499 28.325 24.7499 28.325 24.7499Z" fill="#FAA21E"/>
</g>
<defs>
<clipPath id="clip0_1338_8116">
<rect width="50" height="50" fill="white"/>
</clipPath>
<clipPath id="clip1_1338_8116">
<rect width="49.8148" height="49.8148" fill="white"/>
</clipPath>
</defs>
</svg>
