<svg width="50" height="50" viewBox="0 0 50 50" fill="none" xmlns="http://www.w3.org/2000/svg">
<path d="M7.09094 34.6818V27.7273L21 27.8208V34.6818C21 34.6818 18.8026 37 14.0455 37C9.40912 37 7.09094 34.6818 7.09094 34.6818Z" fill="#898989"/>
<path d="M7.09094 34.6818V27.7273L21 27.8208V34.6818C21 34.6818 18.8026 37 14.0455 37C9.40912 37 7.09094 34.6818 7.09094 34.6818Z" fill="white" fill-opacity="0.4"/>
<path d="M16.3636 3L7.09087 6.09091V28.5C9.66663 28.2424 12.5 29.9682 14.8181 29.2727C21 27.4182 22.5454 23.3485 22.5454 21.5454V7.63636C22.5454 3.92727 18.6818 3 16.3636 3Z" fill="#D0333D"/>
<path d="M16.3636 3L7.09087 6.09091V28.5C9.66663 28.2424 12.5 29.9682 14.8181 29.2727C21 27.4182 22.5454 23.3485 22.5454 21.5454V7.63636C22.5454 3.92727 18.6818 3 16.3636 3Z" fill="white" fill-opacity="0.2"/>
<path d="M21 13.0454L18.6819 13.8181L17.9091 31.5909C17.9091 31.5909 20.4809 31.3373 21.7728 30.0454C23.0647 28.7535 24.0909 26.1818 24.0909 24.6363V15.3636C24.0909 14.1321 23.1075 13.0454 21 13.0454Z" fill="#1D8CE0"/>
<path d="M21 13.0454L18.6819 13.8181L17.9091 31.5909C17.9091 31.5909 20.4809 31.3373 21.7728 30.0454C23.0647 28.7535 24.0909 26.1818 24.0909 24.6363V15.3636C24.0909 14.1321 23.1075 13.0454 21 13.0454Z" fill="white" fill-opacity="0.2"/>
<path d="M7.86363 6.09094C4.77273 6.09094 4 8.40912 4 9.95458V24.6364C4 27.7273 5.54545 32.3637 13.2727 32.3637C21 32.3637 22.5454 27.7273 22.5454 24.6364V16.9091C22.5454 15.8788 21.9273 13.8182 19.4545 13.8182C16.9818 13.8182 16.3636 15.8788 16.3636 16.9091V20C16.3636 21.0303 16.3636 23.0909 14.0455 23.0909C11.7273 23.0909 11.7273 21.0303 11.7273 20V9.95458C11.7273 8.40912 10.9545 6.09094 7.86363 6.09094Z" fill="#1D8CE0"/>
<path d="M7.86363 6.09094C4.77273 6.09094 4 8.40912 4 9.95458V24.6364C4 27.7273 5.54545 32.3637 13.2727 32.3637C21 32.3637 22.5454 27.7273 22.5454 24.6364V16.9091C22.5454 15.8788 21.9273 13.8182 19.4545 13.8182C16.9818 13.8182 16.3636 15.8788 16.3636 16.9091V20C16.3636 21.0303 16.3636 23.0909 14.0455 23.0909C11.7273 23.0909 11.7273 21.0303 11.7273 20V9.95458C11.7273 8.40912 10.9545 6.09094 7.86363 6.09094Z" fill="black" fill-opacity="0.2"/>
<path d="M7.86363 6.09094C4.77273 6.09094 4 8.40912 4 9.95458V24.6364C4 28.5 5.54545 32.3637 14.0454 32.3637V23.0909C11.7273 23.0909 11.7273 21.0303 11.7273 20V9.95458C11.7273 8.40912 10.9545 6.09094 7.86363 6.09094Z" fill="#D0333D"/>
<path d="M7.86363 6.09094C4.77273 6.09094 4 8.40912 4 9.95458V24.6364C4 28.5 5.54545 32.3637 14.0454 32.3637V23.0909C11.7273 23.0909 11.7273 21.0303 11.7273 20V9.95458C11.7273 8.40912 10.9545 6.09094 7.86363 6.09094Z" fill="black" fill-opacity="0.2"/>
<path d="M43.0356 44.7484V37.7792L29.0973 37.8729V44.7484C29.0973 44.7484 31.2994 47.0714 36.0665 47.0714C40.7126 47.0714 43.0356 44.7484 43.0356 44.7484Z" fill="#898989"/>
<path d="M43.0356 44.7484V37.7792L29.0973 37.8729V44.7484C29.0973 44.7484 31.2994 47.0714 36.0665 47.0714C40.7126 47.0714 43.0356 44.7484 43.0356 44.7484Z" fill="white" fill-opacity="0.4"/>
<path d="M33.7435 13L43.0357 16.0779V38.3927C40.4545 38.1362 37.6153 39.8547 35.2922 39.1622C29.0974 37.3155 27.5487 33.2629 27.5487 31.4674V17.6169C27.5487 13.9234 31.4205 13 33.7435 13Z" fill="#1D8CE0"/>
<path d="M33.7435 13L43.0357 16.0779V38.3927C40.4545 38.1362 37.6153 39.8547 35.2922 39.1622C29.0974 37.3155 27.5487 33.2629 27.5487 31.4674V17.6169C27.5487 13.9234 31.4205 13 33.7435 13Z" fill="white" fill-opacity="0.2"/>
<path d="M29.0974 23.0665L31.4205 23.8409L32.1948 41.6509C32.1948 41.6509 29.6177 41.3969 28.3231 40.1022C27.0284 38.8076 26 36.2305 26 34.6818V25.3896C26 24.1555 26.9855 23.0665 29.0974 23.0665Z" fill="#D0333D"/>
<path d="M29.0974 23.0665L31.4205 23.8409L32.1948 41.6509C32.1948 41.6509 29.6177 41.3969 28.3231 40.1022C27.0284 38.8076 26 36.2305 26 34.6818V25.3896C26 24.1555 26.9855 23.0665 29.0974 23.0665Z" fill="white" fill-opacity="0.2"/>
<path d="M42.2613 16.0974C45.3587 16.0974 46.1331 18.4205 46.1331 19.9692V34.6818C46.1331 37.7792 44.5844 42.4253 36.8408 42.4253C29.0973 42.4253 27.5486 37.7792 27.5486 34.6818V26.9383C27.5486 25.9059 28.1681 23.8409 30.646 23.8409C33.124 23.8409 33.7434 25.9059 33.7434 26.9383V30.0357C33.7434 31.0682 33.7434 33.1331 36.0665 33.1331C38.3896 33.1331 38.3896 31.0682 38.3896 30.0357V19.9692C38.3896 18.4205 39.1639 16.0974 42.2613 16.0974Z" fill="#D0333D"/>
<path d="M42.2613 16.0974C45.3587 16.0974 46.1331 18.4205 46.1331 19.9692V34.6818C46.1331 37.7792 44.5844 42.4253 36.8408 42.4253C29.0973 42.4253 27.5486 37.7792 27.5486 34.6818V26.9383C27.5486 25.9059 28.1681 23.8409 30.646 23.8409C33.124 23.8409 33.7434 25.9059 33.7434 26.9383V30.0357C33.7434 31.0682 33.7434 33.1331 36.0665 33.1331C38.3896 33.1331 38.3896 31.0682 38.3896 30.0357V19.9692C38.3896 18.4205 39.1639 16.0974 42.2613 16.0974Z" fill="black" fill-opacity="0.2"/>
<path d="M42.2613 16.0974C45.3587 16.0974 46.1331 18.4205 46.1331 19.9692V34.6818C46.1331 38.5536 44.5844 42.4253 36.0665 42.4253V33.1331C38.3896 33.1331 38.3896 31.0682 38.3896 30.0357V19.9692C38.3896 18.4205 39.1639 16.0974 42.2613 16.0974Z" fill="#1D8CE0"/>
<path d="M42.2613 16.0974C45.3587 16.0974 46.1331 18.4205 46.1331 19.9692V34.6818C46.1331 38.5536 44.5844 42.4253 36.0665 42.4253V33.1331C38.3896 33.1331 38.3896 31.0682 38.3896 30.0357V19.9692C38.3896 18.4205 39.1639 16.0974 42.2613 16.0974Z" fill="black" fill-opacity="0.2"/>
</svg>
