<svg width="50" height="50" viewBox="0 0 50 50" fill="none" xmlns="http://www.w3.org/2000/svg">
<path d="M0 34.5V26.5L19 32.5V41.5L0 34.5Z" fill="#1D8CE0"/>
<path d="M0 34.5V26.5L19 32.5V41.5L0 34.5Z" fill="white" fill-opacity="0.4"/>
<path d="M19 32.5V41.5L50 20.5V13.5L19 32.5Z" fill="#1D8CE0"/>
<path d="M19 32.5V41.5L50 20.5V13.5L19 32.5Z" fill="black" fill-opacity="0.2"/>
<path d="M50 20.5V13.5L37 21.5V29.3L50 20.5Z" fill="#D0333D"/>
<path d="M50 20.5V13.5L37 21.5V29.3L50 20.5Z" fill="black" fill-opacity="0.2"/>
<path d="M37 21.5L19 17.5L34 10.5L50 13.5L37 21.5Z" fill="#D0333D"/>
<path d="M37 21.5L19 17.5L34 10.5L50 13.5L37 21.5Z" fill="white" fill-opacity="0.2"/>
<path d="M19 32.5L0 26.5L19 17.5L37 21.5L19 32.5Z" fill="#1D8CE0"/>
<path d="M19 32.5L0 26.5L19 17.5L37 21.5L19 32.5Z" fill="white" fill-opacity="0.2"/>
</svg>
