<svg width="51" height="51" viewBox="0 0 51 51" fill="none" xmlns="http://www.w3.org/2000/svg">
<path d="M13.0842 21.7594L45.2059 8.3844L47.3895 13.6287C48.8908 17.2342 47.497 21.276 46.0762 23.406C43.9452 26.6009 41.0742 29.3348 36.2968 31.324C30.7247 33.6442 26.901 33.6979 23.1322 32.9596C19.6395 32.2753 16.4962 29.9537 15.2679 27.0037L13.0842 21.7594Z" fill="#FAA21E"/>
<path d="M13.0842 21.7594L45.2059 8.3844L47.3895 13.6287C48.8908 17.2342 47.497 21.276 46.0762 23.406C43.9452 26.6009 41.0742 29.3348 36.2968 31.324C30.7247 33.6442 26.901 33.6979 23.1322 32.9596C19.6395 32.2753 16.4962 29.9537 15.2679 27.0037L13.0842 21.7594Z" fill="black" fill-opacity="0.1"/>
<ellipse cx="29.1497" cy="15.0894" rx="12.0944" ry="17.3965" transform="rotate(67.4096 29.1497 15.0894)" fill="#FAA21E"/>
<ellipse cx="29.1497" cy="15.0894" rx="12.0944" ry="17.3965" transform="rotate(67.4096 29.1497 15.0894)" fill="white" fill-opacity="0.2"/>
<ellipse cx="28.8437" cy="14.2901" rx="9.35874" ry="14.535" transform="rotate(67.4096 28.8437 14.2901)" fill="#1D8CE0"/>
<ellipse cx="28.8437" cy="14.2901" rx="9.35874" ry="14.535" transform="rotate(67.4096 28.8437 14.2901)" fill="white" fill-opacity="0.8"/>
<path fill-rule="evenodd" clip-rule="evenodd" d="M40.9754 16.3046L30.6738 23.5812C27.08 24.7377 23.5466 24.8658 20.7405 24.0853L42.5236 9.46918C43.1044 11.6272 42.4938 14.0424 40.9754 16.3046Z" fill="#1D8CE0"/>
<path fill-rule="evenodd" clip-rule="evenodd" d="M40.9754 16.3046L30.6738 23.5812C27.08 24.7377 23.5466 24.8658 20.7405 24.0853L42.5236 9.46918C43.1044 11.6272 42.4938 14.0424 40.9754 16.3046Z" fill="white" fill-opacity="0.6"/>
<path fill-rule="evenodd" clip-rule="evenodd" d="M42.2242 8.61421L19.391 23.6155C18.4706 23.2238 17.6601 22.7156 16.9912 22.0967L40.4354 6.25363C41.2141 6.90681 41.8246 7.69623 42.2242 8.61421Z" fill="#1D8CE0"/>
<path fill-rule="evenodd" clip-rule="evenodd" d="M42.2242 8.61421L19.391 23.6155C18.4706 23.2238 17.6601 22.7156 16.9912 22.0967L40.4354 6.25363C41.2141 6.90681 41.8246 7.69623 42.2242 8.61421Z" fill="white" fill-opacity="0.6"/>
<path d="M2.41533 43.9188C2.41533 43.9188 15.7956 30.2229 16.7919 29.2266C18.2863 27.234 22.7697 27.234 22.7697 30.721C21.814 31.9712 9.78531 46.5813 9.78531 46.5813C8.82968 47.8315 6.60469 49.1017 3.75226 47.9117C1.76579 47.1941 1.4597 45.169 2.41533 43.9188Z" fill="#FAA21E"/>
<path d="M2.41533 43.9188C2.41533 43.9188 15.7956 30.2229 16.7919 29.2266C18.2863 27.234 22.7697 27.234 22.7697 30.721C21.814 31.9712 9.78531 46.5813 9.78531 46.5813C8.82968 47.8315 6.60469 49.1017 3.75226 47.9117C1.76579 47.1941 1.4597 45.169 2.41533 43.9188Z" fill="black" fill-opacity="0.4"/>
<ellipse cx="5.8326" cy="45.4662" rx="3.98519" ry="2.98889" fill="#FAA21E"/>
<ellipse cx="5.8326" cy="45.4662" rx="3.98519" ry="2.98889" fill="black" fill-opacity="0.6"/>
</svg>
