<svg width="50" height="50" viewBox="0 0 50 50" fill="none" xmlns="http://www.w3.org/2000/svg">
<path d="M9.73684 2H40V5L41 7H45V48H11.3158C10.7895 48 8.15789 48 6.57895 46.4318C5 44.8636 5 43.2955 5 42.7727V6.70455C5 5.65909 5.73684 4.40455 6.57895 3.56818C7.42105 2.73182 8.68421 2 9.73684 2Z" fill="#D0333D"/>
<path d="M9.73684 2H40V5L41 7H45V48H11.3158C10.7895 48 8.15789 48 6.57895 46.4318C5 44.8636 5 43.2955 5 42.7727V6.70455C5 5.65909 5.73684 4.40455 6.57895 3.56818C7.42105 2.73182 8.68421 2 9.73684 2Z" fill="black" fill-opacity="0.2"/>
<path d="M43 9.1L40 5V40H38L43 46V9.1Z" fill="#898989"/>
<path d="M10.1304 40H38L43 46H10.1304C9.62415 46 7 45.25 7 43C7 40.75 9.62415 40 10.1304 40Z" fill="#898989"/>
<path d="M10.1304 40H38L43 46H10.1304C9.62415 46 7 45.25 7 43C7 40.75 9.62415 40 10.1304 40Z" fill="white" fill-opacity="0.4"/>
<rect x="11.1985" y="36.5103" width="1.348" height="9.43601" rx="0.674001" transform="rotate(-150 11.1985 36.5103)" fill="#FEFEFE"/>
<rect x="12.9529" y="27.4058" width="1.348" height="4.718" rx="0.674001" transform="rotate(-60 12.9529 27.4058)" fill="#FEFEFE"/>
<path d="M26.3553 13.741C24.7033 18.6243 18.2342 25.7851 16.5943 27.9514L14.8432 26.9404C17.1119 24.3589 21.8299 16.1871 22.0557 12.426C23.6955 10.2597 24.4839 8.12458 25.179 5.66832C25.549 7.04936 27.5667 10.1599 26.3553 13.741Z" fill="#FEFEFE"/>
<path d="M26.3209 13.7216C24.6719 18.6066 18.1862 25.7578 16.5454 27.9236L15.9617 27.5866C18.107 24.5447 27.5188 13.635 24.0287 8.89602C24.3657 8.31232 24.7479 6.97642 25.13 5.6405C25.503 7.02323 27.5302 10.1393 26.3209 13.7216Z" fill="#FEFEFE"/>
<path d="M33.8203 16.3895C34.1923 14.8849 32.7351 11.583 31.96 10.1201C31.1849 11.583 29.7277 14.8849 30.0997 16.3895C30.5648 18.2703 33.3552 18.2703 33.8203 16.3895Z" fill="#FEFEFE"/>
<path d="M14.6203 18.9496C14.9923 17.4449 13.5351 14.143 12.76 12.6802C11.9849 14.143 10.5277 17.4449 10.8997 18.9496C11.3648 20.8304 14.1552 20.8304 14.6203 18.9496Z" fill="#FEFEFE"/>
<path d="M36.3902 28.1444C36.7003 26.8905 35.4859 24.139 34.84 22.9199C34.1941 24.139 32.9797 26.8905 33.2898 28.1444C33.6773 29.7118 36.0027 29.7118 36.3902 28.1444Z" fill="#FEFEFE"/>
<path d="M26.7703 32.1541C27.2044 30.3987 25.5043 26.5465 24.6 24.8398C23.6957 26.5465 21.9956 30.3987 22.4297 32.1541C22.9723 34.3484 26.2277 34.3484 26.7703 32.1541Z" fill="#FEFEFE"/>
<path d="M33.8899 15.7429C33.2086 17.6544 28.7836 16.4733 31.9699 10.1201C31.0099 11.7201 29.6615 14.9959 30.1395 16.5919C30.4545 17.6437 31.6978 17.8001 31.9699 17.8001C33.3305 17.8001 33.8899 16.9314 33.8899 15.7429Z" fill="#FEFEFE"/>
<path d="M14.68 18.3029C13.9987 20.2144 9.57364 19.0334 12.76 12.6802C11.8 14.2802 10.4516 17.556 10.9296 19.1519C11.2446 20.2038 12.4879 20.3602 12.76 20.3602C14.1206 20.3602 14.68 19.4915 14.68 18.3029Z" fill="#FEFEFE"/>
<path d="M36.44 27.6056C35.8737 29.1985 32.1957 28.2142 34.8441 22.9199C34.0462 24.2533 32.9254 26.9831 33.3227 28.313C33.5845 29.1896 34.6179 29.3199 34.8441 29.3199C35.975 29.3199 36.44 28.596 36.44 27.6056Z" fill="#FEFEFE"/>
<path d="M24.1713 25.6804C24.2989 25.4095 24.4415 25.1293 24.6 24.8398C24.4724 25.0807 24.3264 25.3649 24.1713 25.6804C21.284 31.8121 26.0727 33.2113 26.84 31.2398C26.84 32.5198 26.2 33.7998 24.6 33.7998C24.28 33.7998 22.9455 33.8492 22.4297 32.1541C21.9469 30.6779 23.2274 27.6008 24.1713 25.6804Z" fill="#FEFEFE"/>
</svg>
