<svg width="50" height="50" viewBox="0 0 50 50" fill="none" xmlns="http://www.w3.org/2000/svg">
<path d="M9.73684 2.01379H40V5.01379L41 7.01379H45V48.0138H11.3158C10.7895 48.0138 8.15789 48.0138 6.57895 46.4456C5 44.8774 5 43.3092 5 42.7865V6.71834C5 5.67288 5.73684 4.41834 6.57895 3.58198C7.42105 2.74561 8.68421 2.01379 9.73684 2.01379Z" fill="#7445B8"/>
<path d="M43 9L40 5V40.0312H38L43 46V9Z" fill="#898989"/>
<path d="M43 9L40 5V40.0312H38L43 46V9Z" fill="white" fill-opacity="0.2"/>
<path d="M10.093 40H38.0001L43.0001 46H10.093C9.58856 46 6.97412 45.0823 6.97412 42.8406C6.97412 40.599 9.58856 40 10.093 40Z" fill="#898989"/>
<path d="M10.093 40H38.0001L43.0001 46H10.093C9.58856 46 6.97412 45.0823 6.97412 42.8406C6.97412 40.599 9.58856 40 10.093 40Z" fill="white" fill-opacity="0.6"/>
<g clip-path="url(#clip0_4815_8344)">
<path d="M22.6666 32.9945H19.4117C19.7011 30.6076 20.1929 25.1828 19.8457 22.5789C19.4117 19.324 17.6758 16.9371 16.1569 16.9371C13.987 16.9371 13.553 18.3725 13.553 19.541C13.553 20.409 13.987 21.1323 14.4209 21.4939C14.204 20.8429 14.5511 20.1052 15.0719 19.758C15.7229 19.324 17.2418 19.324 17.4588 21.0599C17.6758 22.7959 15.9399 24.3148 13.7699 23.6638C11.6 23.0129 11.3249 19.8597 12.251 18.239C13.119 16.7201 14.7358 15.3136 17.4588 16.2861C19.8891 17.1541 21.3647 20.9153 21.5816 22.5789C21.5093 20.4813 21.5921 15.1561 23.9686 11.5123C27.2235 6.52148 31.7803 7.38951 33.5162 9.34241C35.477 11.5483 36.3371 14.3332 34.8182 17.1541C33.2992 19.975 28.9594 19.758 27.6574 17.1541C26.687 15.2132 27.6574 12.8142 29.8273 12.8142C31.5633 12.8142 32.2866 14.5502 32.4312 15.4181C32.7929 14.4778 33.0823 12.2501 32.2143 10.8613C31.1293 9.12538 28.9594 8.90839 27.2235 10.4273C25.6829 11.7754 24.4025 15.2011 23.9686 20.6259C23.6214 24.9658 25.1258 30.3906 25.9215 32.5605C25.2705 32.7051 23.7082 32.9945 22.6666 32.9945Z" fill="#7445B8"/>
<path d="M22.6666 32.9945H19.4117C19.7011 30.6076 20.1929 25.1828 19.8457 22.5789C19.4117 19.324 17.6758 16.9371 16.1569 16.9371C13.987 16.9371 13.553 18.3725 13.553 19.541C13.553 20.409 13.987 21.1323 14.4209 21.4939C14.204 20.8429 14.5511 20.1052 15.0719 19.758C15.7229 19.324 17.2418 19.324 17.4588 21.0599C17.6758 22.7959 15.9399 24.3148 13.7699 23.6638C11.6 23.0129 11.3249 19.8597 12.251 18.239C13.119 16.7201 14.7358 15.3136 17.4588 16.2861C19.8891 17.1541 21.3647 20.9153 21.5816 22.5789C21.5093 20.4813 21.5921 15.1561 23.9686 11.5123C27.2235 6.52148 31.7803 7.38951 33.5162 9.34241C35.477 11.5483 36.3371 14.3332 34.8182 17.1541C33.2992 19.975 28.9594 19.758 27.6574 17.1541C26.687 15.2132 27.6574 12.8142 29.8273 12.8142C31.5633 12.8142 32.2866 14.5502 32.4312 15.4181C32.7929 14.4778 33.0823 12.2501 32.2143 10.8613C31.1293 9.12538 28.9594 8.90839 27.2235 10.4273C25.6829 11.7754 24.4025 15.2011 23.9686 20.6259C23.6214 24.9658 25.1258 30.3906 25.9215 32.5605C25.2705 32.7051 23.7082 32.9945 22.6666 32.9945Z" fill="white" fill-opacity="0.95"/>
<path d="M16.0159 20.7752C15.925 20.4417 15.8794 20.0596 16.2098 20.0542C16.616 20.0475 16.8749 20.6937 16.9098 21.0564C16.951 21.4838 16.7027 22.2022 15.857 22.6545C16.4767 21.5059 16.1067 21.1088 16.0159 20.7752Z" fill="#7445B8"/>
<path d="M16.0159 20.7752C15.925 20.4417 15.8794 20.0596 16.2098 20.0542C16.616 20.0475 16.8749 20.6937 16.9098 21.0564C16.951 21.4838 16.7027 22.2022 15.857 22.6545C16.4767 21.5059 16.1067 21.1088 16.0159 20.7752Z" fill="white" fill-opacity="0.6"/>
<path d="M29.2898 14.5909C29.5582 14.1787 29.7913 13.6785 29.3743 13.5138C28.8615 13.3111 28.2364 14.0704 28.0257 14.549C27.7773 15.1132 27.7632 16.2127 28.6297 17.2333C28.3695 15.3693 29.0215 15.0032 29.2898 14.5909Z" fill="#7445B8"/>
<path d="M29.2898 14.5909C29.5582 14.1787 29.7913 13.6785 29.3743 13.5138C28.8615 13.3111 28.2364 14.0704 28.0257 14.549C27.7773 15.1132 27.7632 16.2127 28.6297 17.2333C28.3695 15.3693 29.0215 15.0032 29.2898 14.5909Z" fill="white" fill-opacity="0.6"/>
<path d="M15.0719 31.2586C15.0719 30.3906 16.9525 29.8843 17.6758 29.7396C17.3141 30.0289 16.1569 30.1736 16.1569 31.0416C16.1569 31.9095 20.2797 32.7775 22.6666 32.7775C25.0535 32.7775 29.1764 31.9095 29.1764 31.0416C29.1764 30.1736 28.3084 30.0289 27.8744 29.7396C28.5977 29.9566 30.0443 30.5642 30.0443 31.2586C30.0443 32.1265 27.4404 33.6455 22.6666 33.6455C17.8928 33.6455 15.0719 32.3435 15.0719 31.2586Z" fill="#7445B8"/>
<path d="M15.0719 31.2586C15.0719 30.3906 16.9525 29.8843 17.6758 29.7396C17.3141 30.0289 16.1569 30.1736 16.1569 31.0416C16.1569 31.9095 20.2797 32.7775 22.6666 32.7775C25.0535 32.7775 29.1764 31.9095 29.1764 31.0416C29.1764 30.1736 28.3084 30.0289 27.8744 29.7396C28.5977 29.9566 30.0443 30.5642 30.0443 31.2586C30.0443 32.1265 27.4404 33.6455 22.6666 33.6455C17.8928 33.6455 15.0719 32.3435 15.0719 31.2586Z" fill="white" fill-opacity="0.6"/>
<path d="M11.6 31.6925C11.6 30.2459 15.7228 28.4376 18.9777 28.8716C17.0248 28.8529 12.6849 30.2459 12.6849 31.6925C12.6849 33.1391 18.5437 34.5857 22.5219 34.5857C26.5001 34.5857 32.2142 33.1391 32.2142 31.6925C32.2142 30.2459 29.1763 29.3056 25.9214 28.8716C29.8273 28.4376 33.5162 30.5352 33.5162 31.6925C33.5162 33.1391 30.4783 36.0323 22.5219 36.0323C14.5655 36.0323 11.6 33.5008 11.6 31.6925Z" fill="#7445B8"/>
<path d="M11.6 31.6925C11.6 30.2459 15.7228 28.4376 18.9777 28.8716C17.0248 28.8529 12.6849 30.2459 12.6849 31.6925C12.6849 33.1391 18.5437 34.5857 22.5219 34.5857C26.5001 34.5857 32.2142 33.1391 32.2142 31.6925C32.2142 30.2459 29.1763 29.3056 25.9214 28.8716C29.8273 28.4376 33.5162 30.5352 33.5162 31.6925C33.5162 33.1391 30.4783 36.0323 22.5219 36.0323C14.5655 36.0323 11.6 33.5008 11.6 31.6925Z" fill="white" fill-opacity="0.6"/>
<path d="M15.095 10.385C14.2475 9.3805 14.103 7.78283 15.509 6.59649C16.915 5.41016 18.9244 6.02879 19.5956 7.16081C20.5772 8.81643 19.9301 11.123 20.4261 12.4241C19.227 11.7162 16.4874 12.0352 15.095 10.385Z" fill="#7445B8"/>
<path d="M15.095 10.385C14.2475 9.3805 14.103 7.78283 15.509 6.59649C16.915 5.41016 18.9244 6.02879 19.5956 7.16081C20.5772 8.81643 19.9301 11.123 20.4261 12.4241C19.227 11.7162 16.4874 12.0352 15.095 10.385Z" fill="white" fill-opacity="0.95"/>
<path d="M18.7464 10.1396C18.7512 10.5998 18.5976 11.1233 19.1547 11.1314C19.7118 11.1395 19.7822 10.4183 19.7776 9.95814C19.7717 9.37611 19.605 8.64105 19.0484 8.63269C18.3065 8.62154 18.7417 9.67948 18.7464 10.1396Z" fill="#7445B8"/>
<path d="M18.7464 10.1396C18.7512 10.5998 18.5976 11.1233 19.1547 11.1314C19.7118 11.1395 19.7822 10.4183 19.7776 9.95814C19.7717 9.37611 19.605 8.64105 19.0484 8.63269C18.3065 8.62154 18.7417 9.67948 18.7464 10.1396Z" fill="white" fill-opacity="0.6"/>
<path d="M18.4825 8.29176C18.7247 8.31655 19.0978 8.23243 19.1177 7.9899C19.1377 7.74723 18.9981 7.36592 18.8044 7.34625C18.5621 7.32164 18.1976 7.30514 18.1692 7.64809C18.1491 7.89079 18.3113 8.27424 18.4825 8.29176Z" fill="#7445B8"/>
<path d="M18.4825 8.29176C18.7247 8.31655 19.0978 8.23243 19.1177 7.9899C19.1377 7.74723 18.9981 7.36592 18.8044 7.34625C18.5621 7.32164 18.1976 7.30514 18.1692 7.64809C18.1491 7.89079 18.3113 8.27424 18.4825 8.29176Z" fill="white" fill-opacity="0.6"/>
<path d="M15.8543 6.98538C16.596 6.35957 17.8052 6.69979 18.317 6.94812C17.9473 6.95778 17.0488 7.1112 16.4131 7.64761C15.7774 8.18402 15.4005 8.95552 15.2915 9.27421C15.1701 8.77202 15.1127 7.61119 15.8543 6.98538Z" fill="#7445B8"/>
<path d="M15.8543 6.98538C16.596 6.35957 17.8052 6.69979 18.317 6.94812C17.9473 6.95778 17.0488 7.1112 16.4131 7.64761C15.7774 8.18402 15.4005 8.95552 15.2915 9.27421C15.1701 8.77202 15.1127 7.61119 15.8543 6.98538Z" fill="white" fill-opacity="0.6"/>
<path d="M15.8543 6.98538C16.596 6.35957 17.8052 6.69979 18.317 6.94812C17.9473 6.95778 17.0488 7.1112 16.4131 7.64761C15.7774 8.18402 15.4005 8.95552 15.2915 9.27421C15.1701 8.77202 15.1127 7.61119 15.8543 6.98538Z" fill="#7445B8"/>
<path d="M15.8543 6.98538C16.596 6.35957 17.8052 6.69979 18.317 6.94812C17.9473 6.95778 17.0488 7.1112 16.4131 7.64761C15.7774 8.18402 15.4005 8.95552 15.2915 9.27421C15.1701 8.77202 15.1127 7.61119 15.8543 6.98538Z" fill="white" fill-opacity="0.6"/>
<path d="M15.8543 6.98538C16.596 6.35957 17.8052 6.69979 18.317 6.94812C17.9473 6.95778 17.0488 7.1112 16.4131 7.64761C15.7774 8.18402 15.4005 8.95552 15.2915 9.27421C15.1701 8.77202 15.1127 7.61119 15.8543 6.98538Z" fill="#7445B8"/>
<path d="M15.8543 6.98538C16.596 6.35957 17.8052 6.69979 18.317 6.94812C17.9473 6.95778 17.0488 7.1112 16.4131 7.64761C15.7774 8.18402 15.4005 8.95552 15.2915 9.27421C15.1701 8.77202 15.1127 7.61119 15.8543 6.98538Z" fill="white" fill-opacity="0.6"/>
<path d="M10.3752 15.5439C9.59269 15.356 8.9417 14.6205 9.20467 13.5252C9.46763 12.43 10.6831 12.006 11.4249 12.3207C12.5097 12.7811 13.0275 14.1535 13.7442 14.6151C12.896 14.7011 11.6606 15.8525 10.3752 15.5439Z" fill="#7445B8"/>
<path d="M10.3752 15.5439C9.59269 15.356 8.9417 14.6205 9.20467 13.5252C9.46763 12.43 10.6831 12.006 11.4249 12.3207C12.5097 12.7811 13.0275 14.1535 13.7442 14.6151C12.896 14.7011 11.6606 15.8525 10.3752 15.5439Z" fill="white" fill-opacity="0.95"/>
<path d="M12.087 14.0979C12.2563 14.3231 12.3705 14.637 12.6482 14.4389C12.9259 14.2408 12.6989 13.8596 12.5296 13.6343C12.3156 13.3493 11.9666 13.0473 11.6891 13.2451C11.3192 13.5088 11.9177 13.8727 12.087 14.0979Z" fill="#7445B8"/>
<path d="M12.087 14.0979C12.2563 14.3231 12.3705 14.637 12.6482 14.4389C12.9259 14.2408 12.6989 13.8596 12.5296 13.6343C12.3156 13.3493 11.9666 13.0473 11.6891 13.2451C11.3192 13.5088 11.9177 13.8727 12.087 14.0979Z" fill="white" fill-opacity="0.6"/>
<path d="M11.2862 13.2824C11.4146 13.2068 11.5681 13.0299 11.4899 12.9031C11.4117 12.7761 11.2045 12.6387 11.1018 12.6993C10.9734 12.7751 10.7877 12.8992 10.8981 13.0786C10.9762 13.2056 11.1954 13.3359 11.2862 13.2824Z" fill="#7445B8"/>
<path d="M11.2862 13.2824C11.4146 13.2068 11.5681 13.0299 11.4899 12.9031C11.4117 12.7761 11.2045 12.6387 11.1018 12.6993C10.9734 12.7751 10.7877 12.8992 10.8981 13.0786C10.9762 13.2056 11.1954 13.3359 11.2862 13.2824Z" fill="white" fill-opacity="0.6"/>
<path d="M9.51601 13.5918C9.65473 13.014 10.3745 12.7431 10.717 12.6798C10.5382 12.8187 10.1508 13.2204 10.0319 13.7156C9.91297 14.2108 10.007 14.7281 10.0689 14.9248C9.82681 14.7212 9.3773 14.1695 9.51601 13.5918Z" fill="#7445B8"/>
<path d="M9.51601 13.5918C9.65473 13.014 10.3745 12.7431 10.717 12.6798C10.5382 12.8187 10.1508 13.2204 10.0319 13.7156C9.91297 14.2108 10.007 14.7281 10.0689 14.9248C9.82681 14.7212 9.3773 14.1695 9.51601 13.5918Z" fill="white" fill-opacity="0.6"/>
<path d="M9.51601 13.5918C9.65473 13.014 10.3745 12.7431 10.717 12.6798C10.5382 12.8187 10.1508 13.2204 10.0319 13.7156C9.91297 14.2108 10.007 14.7281 10.0689 14.9248C9.82681 14.7212 9.3773 14.1695 9.51601 13.5918Z" fill="#7445B8"/>
<path d="M9.51601 13.5918C9.65473 13.014 10.3745 12.7431 10.717 12.6798C10.5382 12.8187 10.1508 13.2204 10.0319 13.7156C9.91297 14.2108 10.007 14.7281 10.0689 14.9248C9.82681 14.7212 9.3773 14.1695 9.51601 13.5918Z" fill="white" fill-opacity="0.6"/>
<path d="M9.51601 13.5918C9.65473 13.014 10.3745 12.7431 10.717 12.6798C10.5382 12.8187 10.1508 13.2204 10.0319 13.7156C9.91297 14.2108 10.007 14.7281 10.0689 14.9248C9.82681 14.7212 9.3773 14.1695 9.51601 13.5918Z" fill="#7445B8"/>
<path d="M9.51601 13.5918C9.65473 13.014 10.3745 12.7431 10.717 12.6798C10.5382 12.8187 10.1508 13.2204 10.0319 13.7156C9.91297 14.2108 10.007 14.7281 10.0689 14.9248C9.82681 14.7212 9.3773 14.1695 9.51601 13.5918Z" fill="white" fill-opacity="0.6"/>
<path d="M36.0197 22.5843C37.1041 23.3269 37.6688 24.8284 36.6293 26.3463C35.5899 27.8641 33.4883 27.8028 32.54 26.8903C31.153 25.5558 31.1627 23.1602 30.3382 22.0381C31.6825 22.4012 34.2383 21.3644 36.0197 22.5843Z" fill="#7445B8"/>
<path d="M36.0197 22.5843C37.1041 23.3269 37.6688 24.8284 36.6293 26.3463C35.5899 27.8641 33.4883 27.8028 32.54 26.8903C31.153 25.5558 31.1627 23.1602 30.3382 22.0381C31.6825 22.4012 34.2383 21.3644 36.0197 22.5843Z" fill="white" fill-opacity="0.95"/>
<path d="M32.5655 23.793C32.4384 23.3507 32.4471 22.8053 31.9079 22.9457C31.3688 23.0862 31.4929 23.8001 31.6199 24.2425C31.7805 24.802 32.1369 25.4661 32.6756 25.326C33.3937 25.1392 32.6925 24.2353 32.5655 23.793Z" fill="#7445B8"/>
<path d="M32.5655 23.793C32.4384 23.3507 32.4471 22.8053 31.9079 22.9457C31.3688 23.0862 31.4929 23.8001 31.6199 24.2425C31.7805 24.802 32.1369 25.4661 32.6756 25.326C33.3937 25.1392 32.6925 24.2353 32.5655 23.793Z" fill="white" fill-opacity="0.6"/>
<path d="M33.3119 25.5038C33.0719 25.5444 32.7346 25.7248 32.78 25.9639C32.8253 26.2031 33.0614 26.5335 33.2534 26.5009C33.4935 26.4601 33.8492 26.379 33.7853 26.0408C33.7401 25.8016 33.4816 25.4751 33.3119 25.5038Z" fill="#7445B8"/>
<path d="M33.3119 25.5038C33.0719 25.5444 32.7346 25.7248 32.78 25.9639C32.8253 26.2031 33.0614 26.5335 33.2534 26.5009C33.4935 26.4601 33.8492 26.379 33.7853 26.0408C33.7401 25.8016 33.4816 25.4751 33.3119 25.5038Z" fill="white" fill-opacity="0.6"/>
<path d="M36.193 26.0634C35.6447 26.8641 34.3886 26.8581 33.8291 26.755C34.1829 26.6473 35.0081 26.2602 35.4781 25.5739C35.9481 24.8876 36.106 24.0436 36.1262 23.7074C36.3769 24.1591 36.7413 25.2628 36.193 26.0634Z" fill="#7445B8"/>
<path d="M36.193 26.0634C35.6447 26.8641 34.3886 26.8581 33.8291 26.755C34.1829 26.6473 35.0081 26.2602 35.4781 25.5739C35.9481 24.8876 36.106 24.0436 36.1262 23.7074C36.3769 24.1591 36.7413 25.2628 36.193 26.0634Z" fill="white" fill-opacity="0.6"/>
<path d="M36.193 26.0634C35.6447 26.8641 34.3886 26.8581 33.8291 26.755C34.1829 26.6473 35.0081 26.2602 35.4781 25.5739C35.9481 24.8876 36.106 24.0436 36.1262 23.7074C36.3769 24.1591 36.7413 25.2628 36.193 26.0634Z" fill="#7445B8"/>
<path d="M36.193 26.0634C35.6447 26.8641 34.3886 26.8581 33.8291 26.755C34.1829 26.6473 35.0081 26.2602 35.4781 25.5739C35.9481 24.8876 36.106 24.0436 36.1262 23.7074C36.3769 24.1591 36.7413 25.2628 36.193 26.0634Z" fill="white" fill-opacity="0.6"/>
<path d="M36.193 26.0634C35.6447 26.8641 34.3886 26.8581 33.8291 26.755C34.1829 26.6473 35.0081 26.2602 35.4781 25.5739C35.9481 24.8876 36.106 24.0436 36.1262 23.7074C36.3769 24.1591 36.7413 25.2628 36.193 26.0634Z" fill="#7445B8"/>
<path d="M36.193 26.0634C35.6447 26.8641 34.3886 26.8581 33.8291 26.755C34.1829 26.6473 35.0081 26.2602 35.4781 25.5739C35.9481 24.8876 36.106 24.0436 36.1262 23.7074C36.3769 24.1591 36.7413 25.2628 36.193 26.0634Z" fill="white" fill-opacity="0.6"/>
</g>
<defs>
<clipPath id="clip0_4815_8344">
<rect width="30" height="30" fill="white" transform="matrix(-1 0 0 1 38 6)"/>
</clipPath>
</defs>
</svg>
