<svg width="50" height="50" viewBox="0 0 50 50" fill="none" xmlns="http://www.w3.org/2000/svg">
<g clip-path="url(#clip0_4665_7041)">
<ellipse cx="3.8619" cy="4.03407" rx="3.8619" ry="4.03407" transform="matrix(-0.268131 -0.963382 0.961235 -0.275732 15.3186 9.61151)" fill="#D0333D"/>
<ellipse cx="3.8619" cy="4.03407" rx="3.8619" ry="4.03407" transform="matrix(-0.268131 -0.963382 0.961235 -0.275732 15.3186 9.61151)" fill="black" fill-opacity="0.4"/>
<path d="M14.5872 6.60298C14.8255 6.95928 15.1325 7.24401 15.4834 7.45358C16.0463 7.09082 17.0738 6.09414 16.6813 5.00948C16.2888 3.92486 15.0785 3.49469 14.5224 3.41522C13.9678 4.43183 13.9507 5.65121 14.5872 6.60298Z" fill="#D0333D"/>
<path d="M14.5872 6.60298C14.8255 6.95928 15.1325 7.24401 15.4834 7.45358C16.0463 7.09082 17.0738 6.09414 16.6813 5.00948C16.2888 3.92486 15.0785 3.49469 14.5224 3.41522C13.9678 4.43183 13.9507 5.65121 14.5872 6.60298Z" fill="black" fill-opacity="0.6"/>
<ellipse cx="4.21893" cy="4.40701" rx="4.21893" ry="4.40701" transform="matrix(-0.268131 -0.963382 0.961235 -0.275732 8.11206 11.3674)" fill="#D0333D"/>
<ellipse cx="4.21893" cy="4.40701" rx="4.21893" ry="4.40701" transform="matrix(-0.268131 -0.963382 0.961235 -0.275732 8.11206 11.3674)" fill="black" fill-opacity="0.4"/>
<path d="M10.2817 7.25342C9.20489 6.33732 7.53689 6.82357 6.9807 7.30303C7.50039 9.17028 9.25059 10.367 11.1712 10.3304C11.402 9.3666 11.5877 8.36446 10.2817 7.25342Z" fill="#D0333D"/>
<path d="M10.2817 7.25342C9.20489 6.33732 7.53689 6.82357 6.9807 7.30303C7.50039 9.17028 9.25059 10.367 11.1712 10.3304C11.402 9.3666 11.5877 8.36446 10.2817 7.25342Z" fill="black" fill-opacity="0.6"/>
<ellipse cx="4.76323" cy="4.97558" rx="4.76323" ry="4.97558" transform="matrix(-0.268131 -0.963382 0.961235 -0.275732 2.79663 17.9086)" fill="#D0333D"/>
<ellipse cx="4.76323" cy="4.97558" rx="4.76323" ry="4.97558" transform="matrix(-0.268131 -0.963382 0.961235 -0.275732 2.79663 17.9086)" fill="black" fill-opacity="0.4"/>
<path d="M3.39993 15.9095C4.56417 16.6899 6.08323 16.9659 7.5793 16.5367C8.21522 16.3543 8.789 16.0612 9.28387 15.6858C8.86382 14.9417 7.70734 13.4164 6.44182 13.2679C5.1763 13.1194 3.8866 14.9671 3.39993 15.9095Z" fill="#D0333D"/>
<path d="M3.39993 15.9095C4.56417 16.6899 6.08323 16.9659 7.5793 16.5367C8.21522 16.3543 8.789 16.0612 9.28387 15.6858C8.86382 14.9417 7.70734 13.4164 6.44182 13.2679C5.1763 13.1194 3.8866 14.9671 3.39993 15.9095Z" fill="black" fill-opacity="0.6"/>
<ellipse cx="5.878" cy="6.14005" rx="5.878" ry="6.14005" transform="matrix(-0.268131 -0.963382 0.961235 -0.275732 2.09326 28.1306)" fill="#D0333D"/>
<ellipse cx="5.878" cy="6.14005" rx="5.878" ry="6.14005" transform="matrix(-0.268131 -0.963382 0.961235 -0.275732 2.09326 28.1306)" fill="black" fill-opacity="0.4"/>
<path d="M3.99299 26.2664C5.21218 26.7427 6.61164 26.8345 7.99517 26.4376C9.47747 26.0124 10.6862 25.0995 11.4818 23.9363C10.7568 23.1262 9.30674 21.5059 7.12239 21.9678C4.93809 22.4298 4.30805 24.9874 3.99302 26.2663L3.99299 26.2664Z" fill="#D0333D"/>
<path d="M3.99299 26.2664C5.21218 26.7427 6.61164 26.8345 7.99517 26.4376C9.47747 26.0124 10.6862 25.0995 11.4818 23.9363C10.7568 23.1262 9.30674 21.5059 7.12239 21.9678C4.93809 22.4298 4.30805 24.9874 3.99302 26.2663L3.99299 26.2664Z" fill="black" fill-opacity="0.6"/>
<ellipse cx="6.51751" cy="6.80807" rx="6.51751" ry="6.80807" transform="matrix(-0.268131 -0.963382 0.961235 -0.275732 4.53345 38.3275)" fill="#D0333D"/>
<ellipse cx="6.51751" cy="6.80807" rx="6.51751" ry="6.80807" transform="matrix(-0.268131 -0.963382 0.961235 -0.275732 4.53345 38.3275)" fill="black" fill-opacity="0.4"/>
<path d="M9.80067 36.6942C10.2246 36.6531 10.6517 36.5727 11.0775 36.4505C13.8984 35.6414 15.8257 33.2394 16.0772 30.5752C14.4969 29.7751 11.5438 29.79 10.0378 31.4091C8.53175 33.0282 8.82955 35.868 9.80067 36.6942Z" fill="#D0333D"/>
<path d="M9.80067 36.6942C10.2246 36.6531 10.6517 36.5727 11.0775 36.4505C13.8984 35.6414 15.8257 33.2394 16.0772 30.5752C14.4969 29.7751 11.5438 29.79 10.0378 31.4091C8.53175 33.0282 8.82955 35.868 9.80067 36.6942Z" fill="black" fill-opacity="0.6"/>
<ellipse cx="7.31487" cy="7.64097" rx="7.31487" ry="7.64097" transform="matrix(-0.268131 -0.963382 0.961235 -0.275732 11.8149 46.8426)" fill="#D0333D"/>
<ellipse cx="7.31487" cy="7.64097" rx="7.31487" ry="7.64097" transform="matrix(-0.268131 -0.963382 0.961235 -0.275732 11.8149 46.8426)" fill="black" fill-opacity="0.4"/>
<path d="M21.3189 44.2328C24.1575 42.1937 25.5531 37.9753 24.1228 34.787C21.7281 35.3573 19.3962 36.8891 18.9024 38.7429C18.2852 41.0601 19.521 43.2728 21.3189 44.2328Z" fill="#D0333D"/>
<path d="M21.3189 44.2328C24.1575 42.1937 25.5531 37.9753 24.1228 34.787C21.7281 35.3573 19.3962 36.8891 18.9024 38.7429C18.2852 41.0601 19.521 43.2728 21.3189 44.2328Z" fill="black" fill-opacity="0.6"/>
<path d="M27.7023 49.5169C36.1378 50.6113 36.8287 39.8809 47.4636 42.4628C39.087 34.1627 35.3103 33.6728 30.6515 33.0683C25.9928 32.4639 21.5559 35.6561 20.7414 40.1982C19.927 44.7403 23.0435 48.9124 27.7023 49.5169Z" fill="#D0333D"/>
<path d="M27.7023 49.5169C36.1378 50.6113 36.8287 39.8809 47.4636 42.4628C39.087 34.1627 35.3103 33.6728 30.6515 33.0683C25.9928 32.4639 21.5559 35.6561 20.7414 40.1982C19.927 44.7403 23.0435 48.9124 27.7023 49.5169Z" fill="black" fill-opacity="0.2"/>
<path d="M27.6342 49.5757C36.0918 50.8879 41.8997 38.739 50.2474 45.9943C43.0817 36.6489 35.701 33.2207 30.6457 33.195C36.2296 35.3947 37.1087 36.4854 40.1368 39.2069C33.8317 40.8592 34.6536 45.9789 27.6342 49.5757Z" fill="#FAA21E"/>
</g>
<defs>
<clipPath id="clip0_4665_7041">
<rect width="50" height="50" fill="white" transform="matrix(-1 0 0 1 50 0)"/>
</clipPath>
</defs>
</svg>
