<svg width="50" height="50" viewBox="0 0 50 50" fill="none" xmlns="http://www.w3.org/2000/svg">
<path d="M31.9474 4.15792C31.099 5.06254 30.3659 5.26813 25 5.84027V49.8948C25.3577 48.9412 26.1805 46.8052 26.6098 45.8898C27.1463 44.7455 34.5078 37.2941 36.7202 37.2941C38.9326 37.2941 40.834 38.2477 41.5494 38.4384C41.0128 37.8663 39.725 35.8066 38.8665 34.4335C37.7933 32.7171 40.561 24.7208 42.7073 24.1486C44.4244 23.6909 46.4634 23.1951 47 23.0044C46.2846 22.6229 43.9951 21.6312 42.7073 20.7158C41.0976 19.5715 41.6341 12.7059 42.7073 10.9895C43.7805 9.27309 44.8537 8.12882 45.3902 6.98454C44.3171 7.36597 42.0628 8.08024 41.0976 8.12882C39.4737 8.21055 35.9328 5.76033 35.4211 4.73687C34.8421 3.57897 34.2632 1.05885 34.2632 0.105286C33.7266 0.677422 33.0205 3.01365 31.9474 4.15792Z" fill="#FAA21E"/>
<path d="M31.9474 4.15792C31.099 5.06254 30.3659 5.26813 25 5.84027V49.8948C25.3577 48.9412 26.1805 46.8052 26.6098 45.8898C27.1463 44.7455 34.5078 37.2941 36.7202 37.2941C38.9326 37.2941 40.834 38.2477 41.5494 38.4384C41.0128 37.8663 39.725 35.8066 38.8665 34.4335C37.7933 32.7171 40.561 24.7208 42.7073 24.1486C44.4244 23.6909 46.4634 23.1951 47 23.0044C46.2846 22.6229 43.9951 21.6312 42.7073 20.7158C41.0976 19.5715 41.6341 12.7059 42.7073 10.9895C43.7805 9.27309 44.8537 8.12882 45.3902 6.98454C44.3171 7.36597 42.0628 8.08024 41.0976 8.12882C39.4737 8.21055 35.9328 5.76033 35.4211 4.73687C34.8421 3.57897 34.2632 1.05885 34.2632 0.105286C33.7266 0.677422 33.0205 3.01365 31.9474 4.15792Z" fill="black" fill-opacity="0.4"/>
<path d="M31.9474 6.47378C30.8718 6.79288 29.8548 7.1974 25 7.71396V46.4212C25.3237 45.5602 25.5789 44.6 26.4564 43.8728C27.3361 43.1438 33.6842 36.5778 35.4211 36.0001C37.1579 35.4224 37.6685 35.8279 38.3158 36.0001C37.8303 35.4835 37.4591 35.0436 37.1579 33.6843C36.7624 31.8998 38.8101 24.6492 40.6316 23.8019C41.7895 23.2633 42.4619 22.8565 42.9474 22.6843C42.3001 22.3399 41.7895 22.1054 41.0209 21.1444C39.9056 19.7499 40.442 13.5184 40.6316 12.2474C40.8212 10.9763 40.725 10.9806 41.2105 9.94747C40.2396 10.2918 39.4737 10.0213 38.8947 9.93647C38.3158 9.85168 35.5729 7.78354 34.8421 7.05273C34.2632 6.47378 33.6842 5.89483 33.6842 4.73694C33.1053 5.89483 32.8639 6.20188 31.9474 6.47378Z" fill="#D0333D"/>
<path d="M31.9474 6.47378C30.8718 6.79288 29.8548 7.1974 25 7.71396V46.4212C25.3237 45.5602 25.5789 44.6 26.4564 43.8728C27.3361 43.1438 33.6842 36.5778 35.4211 36.0001C37.1579 35.4224 37.6685 35.8279 38.3158 36.0001C37.8303 35.4835 37.4591 35.0436 37.1579 33.6843C36.7624 31.8998 38.8101 24.6492 40.6316 23.8019C41.7895 23.2633 42.4619 22.8565 42.9474 22.6843C42.3001 22.3399 41.7895 22.1054 41.0209 21.1444C39.9056 19.7499 40.442 13.5184 40.6316 12.2474C40.8212 10.9763 40.725 10.9806 41.2105 9.94747C40.2396 10.2918 39.4737 10.0213 38.8947 9.93647C38.3158 9.85168 35.5729 7.78354 34.8421 7.05273C34.2632 6.47378 33.6842 5.89483 33.6842 4.73694C33.1053 5.89483 32.8639 6.20188 31.9474 6.47378Z" fill="black" fill-opacity="0.4"/>
<path d="M18.0526 4.15792C18.901 5.06254 19.6341 5.26813 25 5.84027V49.8948C24.6423 48.9412 23.8195 46.8052 23.3902 45.8898C22.8537 44.7455 15.4922 37.2941 13.2798 37.2941C11.0674 37.2941 9.16602 38.2477 8.45058 38.4384C8.98716 37.8663 10.275 35.8066 11.1335 34.4335C12.2067 32.7171 9.43902 24.7208 7.29268 24.1486C5.57561 23.6909 3.53658 23.1951 3 23.0044C3.71544 22.6229 6.00488 21.6312 7.29268 20.7158C8.90244 19.5715 8.36585 12.7059 7.29268 10.9895C6.21951 9.27309 5.14634 8.12882 4.60975 6.98454C5.68292 7.36597 7.93724 8.08024 8.90244 8.12882C10.5263 8.21055 14.0672 5.76033 14.5789 4.73687C15.1579 3.57897 15.7368 1.05885 15.7368 0.105286C16.2734 0.677422 16.9795 3.01365 18.0526 4.15792Z" fill="#FAA21E"/>
<path d="M18.0526 4.15792C18.901 5.06254 19.6341 5.26813 25 5.84027V49.8948C24.6423 48.9412 23.8195 46.8052 23.3902 45.8898C22.8537 44.7455 15.4922 37.2941 13.2798 37.2941C11.0674 37.2941 9.16602 38.2477 8.45058 38.4384C8.98716 37.8663 10.275 35.8066 11.1335 34.4335C12.2067 32.7171 9.43902 24.7208 7.29268 24.1486C5.57561 23.6909 3.53658 23.1951 3 23.0044C3.71544 22.6229 6.00488 21.6312 7.29268 20.7158C8.90244 19.5715 8.36585 12.7059 7.29268 10.9895C6.21951 9.27309 5.14634 8.12882 4.60975 6.98454C5.68292 7.36597 7.93724 8.08024 8.90244 8.12882C10.5263 8.21055 14.0672 5.76033 14.5789 4.73687C15.1579 3.57897 15.7368 1.05885 15.7368 0.105286C16.2734 0.677422 16.9795 3.01365 18.0526 4.15792Z" fill="black" fill-opacity="0.4"/>
<path d="M18.2767 6.47378C19.3176 6.79288 20.3018 7.1974 25 7.71396V46.4212C24.6868 45.5602 24.4397 44.6 23.5905 43.8728C22.7392 43.1438 16.5959 36.5778 14.9151 36.0001C13.2343 35.4224 12.7402 35.8279 12.1138 36.0001C12.5836 35.4835 12.9428 35.0436 13.2343 33.6843C13.617 31.8998 11.6354 24.6492 9.87266 23.8019C8.75212 23.2633 8.1014 22.8565 7.63158 22.6843C8.25801 22.3399 8.75212 22.1054 9.49589 21.1444C10.5752 19.7499 10.0562 13.5184 9.87266 12.2474C9.68916 10.9763 9.78221 10.9806 9.31239 9.94747C10.252 10.2918 10.9932 10.0213 11.5535 9.93647C12.1138 9.85168 14.7681 7.78354 15.4754 7.05273C16.0357 6.47378 16.5959 5.89483 16.5959 4.73694C17.1562 5.89483 17.3898 6.20188 18.2767 6.47378Z" fill="#D0333D"/>
<path d="M18.2767 6.47378C19.3176 6.79288 20.3018 7.1974 25 7.71396V46.4212C24.6868 45.5602 24.4397 44.6 23.5905 43.8728C22.7392 43.1438 16.5959 36.5778 14.9151 36.0001C13.2343 35.4224 12.7402 35.8279 12.1138 36.0001C12.5836 35.4835 12.9428 35.0436 13.2343 33.6843C13.617 31.8998 11.6354 24.6492 9.87266 23.8019C8.75212 23.2633 8.1014 22.8565 7.63158 22.6843C8.25801 22.3399 8.75212 22.1054 9.49589 21.1444C10.5752 19.7499 10.0562 13.5184 9.87266 12.2474C9.68916 10.9763 9.78221 10.9806 9.31239 9.94747C10.252 10.2918 10.9932 10.0213 11.5535 9.93647C12.1138 9.85168 14.7681 7.78354 15.4754 7.05273C16.0357 6.47378 16.5959 5.89483 16.5959 4.73694C17.1562 5.89483 17.3898 6.20188 18.2767 6.47378Z" fill="black" fill-opacity="0.4"/>
<path d="M16.5 4L25 21.5M25 21.5L34 4M25 21.5L43 9M25 21.5L43 22.5M25 21.5L38.5 36.5M25 21.5V47M25 21.5L11.5 36.5M25 21.5L7 22.5M25 21.5L8.5 9.5" stroke="#FAA21E" stroke-width="2"/>
<path d="M16.5 4L25 21.5M25 21.5L34 4M25 21.5L43 9M25 21.5L43 22.5M25 21.5L38.5 36.5M25 21.5V47M25 21.5L11.5 36.5M25 21.5L7 22.5M25 21.5L8.5 9.5" stroke="black" stroke-opacity="0.4" stroke-width="2"/>
<path d="M18.6004 19.4481C18.1941 26.0042 26.0001 28 21.5001 35.5C30.5001 31.5 31.587 24.5321 31.8114 20.9112C32.0358 17.2904 29.2604 14.0276 25.6123 13.6236C21.9642 13.2196 18.8249 15.8273 18.6004 19.4481Z" fill="#FAA21E"/>
<path d="M18.6004 19.4481C18.1941 26.0042 26.0001 28 21.5001 35.5C30.5001 31.5 31.587 24.5321 31.8114 20.9112C32.0358 17.2904 29.2604 14.0276 25.6123 13.6236C21.9642 13.2196 18.8249 15.8273 18.6004 19.4481Z" fill="black" fill-opacity="0.4"/>
<path d="M20.1575 20.1116C19.8407 25.2233 26.3147 25.2051 25.193 31.6981C29.8409 26.3308 29.9828 24.0423 30.1578 21.2192C30.3328 18.3961 28.236 15.8596 25.4745 15.5538C22.713 15.2479 20.3325 17.2886 20.1575 20.1116Z" fill="#D0333D"/>
<path d="M20.1197 20.073C19.6729 25.2067 27.2057 28.2052 23.1842 33.5128C28.509 28.8309 30.2703 24.2586 30.0817 21.2207C28.9857 24.664 28.366 25.2361 26.8534 27.1651C25.6062 23.4441 22.5638 24.1446 20.1197 20.073Z" fill="#FAA21E"/>
</svg>
