<svg width="50" height="50" viewBox="0 0 50 50" fill="none" xmlns="http://www.w3.org/2000/svg">
<path d="M27.5 1.5C23.5 1.5 16.1667 0.833333 13 0.5C12.1667 3.16667 10.2 10.1 9 16.5C7.8 22.9 6.83333 40.5 6.5 48.5L24 50L27.5 20L29 50L43 48.5C42.6667 39.5 41.9 20.8 41.5 18C41.1 15.2 38.6667 5.16667 37.5 0.5C35.8333 0.833333 31.5 1.5 27.5 1.5Z" fill="#1D8CE0"/>
<path d="M27.5 1.5C23.5 1.5 16.1667 0.833333 13 0.5C12.1667 3.16667 10.2 10.1 9 16.5C7.8 22.9 6.83333 40.5 6.5 48.5L24 50L27.5 20L29 50L43 48.5C42.6667 39.5 41.9 20.8 41.5 18C41.1 15.2 38.6667 5.16667 37.5 0.5C35.8333 0.833333 31.5 1.5 27.5 1.5Z" fill="white" fill-opacity="0.4"/>
<path fill-rule="evenodd" clip-rule="evenodd" d="M7.22738 34.8525C7.34569 35.3886 7.62507 36.0008 8.08103 36.5297C8.703 37.2511 9.64954 37.813 10.9588 37.813C12.3499 37.813 13.3165 37.2159 13.9385 36.4773C14.5657 35.7325 14.8387 34.8478 14.8387 34.2914H15.1614C15.1614 34.919 15.4545 35.8031 16.081 36.5297C16.703 37.2511 17.6495 37.813 18.9588 37.813C20.3499 37.813 21.3165 37.2159 21.9385 36.4773C22.5657 35.7325 22.8387 34.8478 22.8387 34.2914H22.844L22.8439 34.2892C21.4902 34.2571 20.4951 33.6591 19.8366 32.8953C19.4319 32.426 19.153 31.8924 18.9949 31.3868C18.8401 31.8629 18.5743 32.3782 18.1853 32.84C17.5083 33.644 16.4543 34.2905 14.9588 34.2905C13.5464 34.2905 12.5136 33.6805 11.8366 32.8953C11.4319 32.4259 11.153 31.8924 10.9949 31.3868C10.8401 31.8629 10.5743 32.3781 10.1853 32.84C9.55538 33.5881 8.59907 34.1999 7.26433 34.2813C7.27138 34.1731 7.27848 34.0648 7.2856 33.9565C8.50281 33.871 9.36643 33.3114 9.93846 32.6322C10.5175 31.9446 10.7946 31.1379 10.8338 30.5802C9.48529 30.5454 8.49344 29.9484 7.83658 29.1866C7.76803 29.107 7.70307 29.0257 7.64171 28.9429C7.65508 28.7691 7.66853 28.5957 7.68207 28.4229C7.79567 28.6126 7.92847 28.7989 8.08103 28.9758C8.703 29.6972 9.64954 30.2591 10.9588 30.2591C12.3499 30.2591 13.3165 29.662 13.9385 28.9234C14.5175 28.2359 14.7946 27.4292 14.8338 26.8715C13.4853 26.8366 12.4934 26.2397 11.8366 25.4778C11.432 25.0085 11.153 24.4749 10.9949 23.9693C10.8401 24.4454 10.5743 24.9607 10.1853 25.4226C9.64537 26.0638 8.86562 26.6049 7.8133 26.7977C7.82261 26.6859 7.83195 26.5745 7.84133 26.4634C8.7709 26.272 9.45768 25.7856 9.93846 25.2147C10.5175 24.5271 10.7946 23.7205 10.8338 23.1628C9.7379 23.1344 8.87755 22.7349 8.24113 22.1773C8.25519 22.0423 8.2693 21.9084 8.28347 21.7756C8.90173 22.3895 9.78432 22.8416 10.9588 22.8416C12.3499 22.8416 13.3165 22.2445 13.9385 21.506C14.5651 20.7619 14.8381 19.8783 14.8387 19.3217C13.4877 19.2882 12.4942 18.6907 11.8366 17.9279C11.4319 17.4586 11.153 16.925 10.9949 16.4194C10.8401 16.8955 10.5743 17.4108 10.1853 17.8727C9.79166 18.3402 9.27055 18.7544 8.60928 19.0193C8.626 18.8931 8.64278 18.7687 8.65962 18.6464C9.18896 18.4025 9.61137 18.0532 9.93846 17.6648C10.5175 16.9772 10.7946 16.1706 10.8338 15.6129C10.2319 15.5973 9.70113 15.4698 9.23943 15.2656C9.26108 15.1574 9.28291 15.0492 9.30492 14.9409C9.77373 15.1595 10.3236 15.2917 10.9588 15.2917C12.3499 15.2917 13.3165 14.6946 13.9385 13.9561C14.5175 13.2685 14.7946 12.4618 14.8338 11.9041C13.4853 11.8693 12.4934 11.2724 11.8366 10.5105C11.432 10.0411 11.153 9.50758 10.9949 9.00198C10.863 9.40766 10.6505 9.8418 10.3498 10.2471C10.4507 9.82702 10.5522 9.41158 10.6539 9.00228C10.7372 8.76855 10.7912 8.5453 10.8181 8.34611C10.8581 8.18771 10.8981 8.03038 10.938 7.87421C10.9449 7.87424 10.9519 7.87426 10.9588 7.87426C12.3499 7.87426 13.3165 7.27719 13.9385 6.53862C14.5175 5.85104 14.7946 5.04439 14.8338 4.48667C13.6786 4.45683 12.7852 4.01453 12.1399 3.4094C12.1738 3.28956 12.2074 3.17178 12.2404 3.05613C12.8605 3.69198 13.7568 4.16553 14.9588 4.16553C16.3499 4.16553 17.3165 3.56846 17.9385 2.82989C18.4334 2.24217 18.7077 1.56746 18.8015 1.03557C18.9339 1.04631 19.0668 1.05699 19.2002 1.0676C19.2986 1.63448 19.5856 2.3076 20.081 2.88227C20.703 3.6037 21.6495 4.16553 22.9588 4.16553L23.0027 4.16534C24.3772 4.15287 25.3331 3.55453 25.9483 2.81821C26.3045 2.39185 26.5452 1.9207 26.6856 1.49199C26.9195 1.49635 27.1454 1.499 27.3621 1.4998C27.513 1.90988 27.7506 2.33689 28.081 2.72011C28.703 3.44154 29.6495 4.00337 30.9588 4.00337C32.3499 4.00337 33.3165 3.4063 33.9385 2.66773C34.4114 2.10612 34.6829 1.46508 34.7879 0.945129C34.9274 0.925807 35.0639 0.906432 35.1971 0.887085C35.2924 1.45774 35.5802 2.13922 36.081 2.72011C36.6029 3.32539 37.3532 3.81833 38.3545 3.96136C38.3816 4.07248 38.4089 4.18445 38.4364 4.2972C37.2885 4.16751 36.4271 3.61585 35.8366 2.93086C35.4319 2.46153 35.153 1.92796 34.9949 1.42236C34.8401 1.89845 34.5743 2.41372 34.1853 2.87562C33.5399 3.64204 32.552 4.26538 31.1655 4.32194C31.2028 4.93761 31.4971 5.75159 32.081 6.42884C32.703 7.15027 33.6495 7.7121 34.9588 7.7121C36.3499 7.7121 37.3165 7.11503 37.9385 6.37646C38.2676 5.98555 38.4992 5.55615 38.645 5.15589C38.6871 5.32959 38.7295 5.50466 38.772 5.68087C38.6223 5.98783 38.4278 6.29646 38.1853 6.58435C37.5399 7.35076 36.552 7.97411 35.1655 8.03067C35.2028 8.64634 35.4971 9.46031 36.081 10.1376C36.703 10.859 37.6495 11.4208 38.9588 11.4208C39.3746 11.4208 39.7524 11.3675 40.0945 11.273C40.1187 11.3784 40.1429 11.4834 40.1668 11.5879C39.8593 11.6717 39.5259 11.7247 39.1655 11.7394C39.2028 12.3551 39.4971 13.169 40.081 13.8463C40.29 14.0887 40.5356 14.313 40.8193 14.5041C40.8514 14.6523 40.8827 14.7978 40.9132 14.9405C40.4868 14.7019 40.1286 14.3957 39.8366 14.057C39.4319 13.5877 39.153 13.0541 38.9949 12.5485C38.8401 13.0246 38.5743 13.5399 38.1853 14.0018C37.5399 14.7682 36.552 15.3916 35.1655 15.4481C35.2028 16.0638 35.4971 16.8778 36.081 17.555C36.703 18.2764 37.6495 18.8383 38.9588 18.8383C40.0533 18.8383 40.8851 18.4686 41.493 17.9512C41.4954 17.9678 41.4977 17.984 41.5 18.0001C41.5132 18.0922 41.5268 18.2016 41.5407 18.3273C40.932 18.7933 40.1383 19.1225 39.1388 19.1579H39.1614C39.1614 19.7855 39.4545 20.6695 40.081 21.3962C40.5107 21.8946 41.0953 22.3168 41.8475 22.5303C41.854 22.642 41.8606 22.7552 41.8672 22.8698C40.9991 22.6491 40.3252 22.1736 39.8366 21.6069C39.4319 21.1376 39.153 20.604 38.9949 20.0984C38.8401 20.5745 38.5743 21.0898 38.1853 21.5517C37.5399 22.3181 36.552 22.9415 35.1655 22.998C35.2028 23.6137 35.4971 24.4277 36.081 25.1049C36.703 25.8264 37.6495 26.3882 38.9588 26.3882C40.3499 26.3882 41.3165 25.7911 41.9385 25.0525C41.954 25.0341 41.9693 25.0155 41.9845 24.9969C41.9925 25.1488 42.0006 25.3024 42.0086 25.4574C41.3646 26.1313 40.4311 26.6551 39.1655 26.7067C39.2028 27.3224 39.4971 28.1364 40.081 28.8137C40.5817 29.3944 41.2926 29.8717 42.2338 30.0358C42.2389 30.1454 42.244 30.2553 42.2491 30.3655C41.1944 30.1998 40.3946 29.6716 39.8366 29.0244C39.4319 28.5551 39.153 28.0215 38.9949 27.5159C38.8401 27.992 38.5743 28.5073 38.1853 28.9692C37.5399 29.7356 36.552 30.3589 35.1655 30.4155C35.2028 31.0311 35.4971 31.8451 36.081 32.5224C36.703 33.2438 37.6495 33.8056 38.9588 33.8056C40.3498 33.8056 41.3165 33.2086 41.9385 32.47C42.085 32.296 42.2121 32.1144 42.321 31.9312C42.3292 32.1121 42.3374 32.2936 42.3456 32.4755C42.2947 32.5439 42.2413 32.6114 42.1853 32.6779C41.5083 33.4819 40.4543 34.1284 38.9588 34.1284C37.5464 34.1284 36.5136 33.5184 35.8366 32.7331C35.4319 32.2638 35.153 31.7302 34.9949 31.2246C34.8401 31.7007 34.5743 32.216 34.1853 32.6779C33.5083 33.4819 32.4543 34.1284 30.9588 34.1284C29.7509 34.1284 28.8207 33.6822 28.1531 33.0619L28.1289 32.5768C28.7512 33.2719 29.6827 33.8056 30.9588 33.8056C32.3498 33.8056 33.3165 33.2086 33.9385 32.47C34.5175 31.7824 34.7946 30.9758 34.8338 30.4181C33.4853 30.3832 32.4934 29.7863 31.8366 29.0244C31.4319 28.5551 31.153 28.0215 30.9949 27.5159C30.8401 27.992 30.5743 28.5073 30.1853 28.9692C29.6805 29.5687 28.966 30.0807 28.0152 30.3023L27.9987 29.9742C28.8489 29.7626 29.4852 29.2995 29.9385 28.7613C30.5175 28.0737 30.7946 27.267 30.8338 26.7093C29.4853 26.6745 28.4934 26.0776 27.8366 25.3157C27.811 25.286 27.7859 25.2561 27.7613 25.2259L27.7317 24.6327C27.8338 24.7944 27.9501 24.9531 28.081 25.1049C28.703 25.8264 29.6495 26.3882 30.9588 26.3882C32.3499 26.3882 33.3165 25.7911 33.9385 25.0525C34.5175 24.365 34.7946 23.5583 34.8338 23.0006C33.4853 22.9658 32.4934 22.3688 31.8366 21.6069C31.4319 21.1376 31.153 20.604 30.9949 20.0984C30.8401 20.5745 30.5743 21.0898 30.1853 21.5517C29.6174 22.2261 28.7843 22.7897 27.6477 22.9539L27.6315 22.63C28.6684 22.4725 29.4222 21.9569 29.9385 21.3438C30.5651 20.5997 30.8381 19.7161 30.8387 19.1595C29.4877 19.126 28.4942 18.5286 27.8366 17.7658C27.4531 17.321 27.1825 16.8186 27.0208 16.337C26.8717 16.8316 26.6011 17.3754 26.195 17.8612C25.5502 18.6323 24.5601 19.2615 23.1675 19.3189C23.2123 19.9316 23.5071 20.7314 24.0828 21.3982C24.7048 22.1187 25.6508 22.6795 26.9588 22.6795C27.0366 22.6795 27.113 22.6776 27.1881 22.6739L27.04 23.9429C27.0335 23.9242 27.027 23.9055 27.0208 23.8869C26.8718 24.3812 26.6016 24.9245 26.1959 25.41C25.5532 26.1792 24.567 26.8075 23.1806 26.8683C23.3283 28.0498 24.3306 29.7504 26.3275 30.0507L26.29 30.3719C24.4788 30.1062 23.4192 28.779 23.021 27.5947C22.8709 28.0935 22.5971 28.6423 22.1853 29.1313C21.5399 29.8977 20.552 30.5211 19.1655 30.5776C19.2028 31.1933 19.4971 32.0073 20.081 32.6845C20.703 33.406 21.6495 33.9678 22.9588 33.9678C24.3498 33.9678 25.3165 33.3707 25.9385 32.6322C25.9738 32.5902 26.008 32.5478 26.0411 32.505L25.975 33.0718C25.3325 33.7285 24.4101 34.2352 23.1672 34.2863C23.211 34.8988 23.5052 35.6997 24.081 36.3675C24.4366 36.78 24.8983 37.1403 25.4732 37.3732L25.4345 37.7048C24.7717 37.4534 24.2407 37.0471 23.8366 36.5783C23.4532 36.1336 23.1825 35.6311 23.0208 35.1495C22.8705 35.6481 22.5969 36.1965 22.1853 36.6852C21.5399 37.4516 20.552 38.075 19.1655 38.1315C19.2028 38.7472 19.4971 39.5612 20.081 40.2384C20.703 40.9599 21.6495 41.5217 22.9588 41.5217L23.0027 41.5215C23.8345 41.514 24.5129 41.2919 25.0554 40.9545L25.0087 41.3541C24.4999 41.6273 23.8931 41.8084 23.1806 41.8396C23.2792 42.6287 23.759 43.6492 24.6616 44.3296L24.6187 44.6975C23.8002 44.1383 23.2755 43.323 23.021 42.566C22.8709 43.0648 22.5971 43.6137 22.1853 44.1027C21.5399 44.8691 20.552 45.4924 19.1655 45.549C19.2028 46.1647 19.4971 46.9786 20.081 47.6559C20.703 48.3773 21.6495 48.9391 22.9588 48.9391L22.9987 48.939C23.4183 48.9355 23.7988 48.8775 24.1427 48.7776L24.1023 49.1232C23.8134 49.197 23.5021 49.2438 23.1675 49.2576C23.1828 49.4675 23.2275 49.6994 23.3028 49.9403L22.7485 49.8928C22.8094 49.658 22.8385 49.4418 22.8387 49.2604C21.4877 49.2269 20.4942 48.6294 19.8366 47.8666C19.4319 47.3973 19.153 46.8637 18.9949 46.3581C18.8401 46.8342 18.5743 47.3495 18.1853 47.8114C17.5569 48.5577 16.6036 49.1683 15.2738 49.2521L13.8793 49.1326C13.0053 48.9132 12.3274 48.436 11.8366 47.8666C11.4319 47.3973 11.153 46.8637 10.9949 46.3581C10.8401 46.8342 10.5743 47.3495 10.1853 47.8114C9.89407 48.1573 9.53304 48.474 9.0971 48.7227L8.46394 48.6684C9.08596 48.4247 9.57203 48.0386 9.93846 47.6035C10.5175 46.9159 10.7946 46.1093 10.8338 45.5516C9.48529 45.5167 8.49344 44.9198 7.83658 44.1579C7.43195 43.6886 7.15297 43.155 6.99492 42.6494C6.9309 42.8462 6.84792 43.0498 6.74512 43.2535C6.76487 42.8663 6.78535 42.4718 6.80652 42.0708C6.81967 41.9912 6.82872 41.9149 6.83378 41.8428C6.82872 41.8427 6.82367 41.8426 6.81862 41.8424C6.8243 41.7354 6.83004 41.6279 6.83582 41.52C6.87646 41.5211 6.91745 41.5217 6.95881 41.5217C8.34985 41.5217 9.31651 40.9246 9.93846 40.1861C10.5175 39.4985 10.7946 38.6918 10.8338 38.1341C9.48529 38.0993 8.49344 37.5023 7.83658 36.7405C7.55548 36.4144 7.33501 36.0573 7.17361 35.7002C7.19129 35.4182 7.20921 35.1356 7.22738 34.8525ZM42.5695 37.6337C41.4599 37.5346 40.6396 37.0154 40.081 36.3676C39.4545 35.6409 39.1614 34.7568 39.1614 34.1292H38.8387C38.8387 34.6857 38.5657 35.5703 37.9385 36.3152C37.3165 37.0537 36.3499 37.6508 34.9588 37.6508C33.6495 37.6508 32.703 37.089 32.081 36.3676C31.4545 35.6409 31.1614 34.7568 31.1614 34.1292H30.8387C30.8387 34.6857 30.5657 35.5703 29.9385 36.3152C29.5539 36.7718 29.0377 37.1743 28.3708 37.4151L28.3876 37.751C29.1552 37.4946 29.7487 37.0416 30.1853 36.5231C30.5743 36.0612 30.8401 35.5459 30.9949 35.0698C31.153 35.5754 31.4319 36.109 31.8366 36.5783C32.4934 37.3402 33.4853 37.9371 34.8338 37.972C34.7946 38.5297 34.5175 39.3363 33.9385 40.0239C33.3165 40.7625 32.3499 41.3595 30.9588 41.3595C29.93 41.3595 29.1251 41.0126 28.5257 40.5139L28.5469 40.9378C29.1446 41.3657 29.9045 41.6567 30.8338 41.6807C30.7946 42.2384 30.5175 43.045 29.9385 43.7326C29.6268 44.1027 29.2287 44.4372 28.734 44.6789L28.7514 45.027C29.3457 44.7617 29.8203 44.374 30.1853 43.9405C30.5743 43.4786 30.8401 42.9633 30.9949 42.4873C31.153 42.9929 31.4319 43.5264 31.8366 43.9957C32.4934 44.7576 33.4853 45.3546 34.8338 45.3894C34.7946 45.9471 34.5175 46.7538 33.9385 47.4413C33.3165 48.1799 32.3498 48.777 30.9588 48.777C30.1359 48.777 29.4564 48.5551 28.9106 48.2111L28.9299 48.5972C29.4603 48.8907 30.0954 49.0798 30.8387 49.0983C30.8385 49.3013 30.802 49.5478 30.7254 49.8152L31.2514 49.7588C31.191 49.5211 31.1614 49.2959 31.1614 49.0966H31.1388C32.5393 49.047 33.5358 48.4206 34.1853 47.6492C34.5743 47.1873 34.8401 46.6721 34.9949 46.196C35.153 46.7016 35.4319 47.2351 35.8366 47.7045C36.3714 48.3248 37.1283 48.8358 38.1189 49.023L40.7357 48.7427C41.3373 48.4772 41.8171 48.0865 42.1853 47.6492C42.5183 47.2538 42.7611 46.8192 42.9212 46.4036C42.9047 45.9715 42.8875 45.5254 42.8698 45.0674C41.6065 45.0425 40.6888 44.49 40.081 43.785C39.4971 43.1078 39.2028 42.2938 39.1655 41.6781C40.552 41.6215 41.5399 40.9982 42.1853 40.2318C42.3664 40.0167 42.5208 39.7901 42.6497 39.5613C42.6402 39.3309 42.6307 39.0995 42.6211 38.8674C42.4744 39.2491 42.2502 39.6538 41.9385 40.0239C41.3165 40.7625 40.3499 41.3595 38.9588 41.3595C37.6495 41.3595 36.703 40.7977 36.081 40.0763C35.4971 39.399 35.2028 38.585 35.1655 37.9694C36.552 37.9128 37.5399 37.2895 38.1853 36.5231C38.5743 36.0612 38.8401 35.5459 38.9949 35.0698C39.153 35.5754 39.4319 36.109 39.8366 36.5783C40.4521 37.2922 41.3617 37.8613 42.5832 37.9588C42.5787 37.8505 42.5741 37.7422 42.5695 37.6337ZM15.8366 6.80175C15.432 6.33241 15.153 5.79885 14.9949 5.29325C14.8401 5.76934 14.5743 6.28461 14.1853 6.74651C13.5399 7.51292 12.552 8.13627 11.1655 8.19283C11.2028 8.8085 11.4971 9.62247 12.081 10.2997C12.703 11.0212 13.6495 11.583 14.9588 11.583C16.3499 11.583 17.3165 10.9859 17.9385 10.2473C18.5175 9.55977 18.7946 8.75311 18.8338 8.1954C17.4853 8.16057 16.4934 7.56363 15.8366 6.80175ZM15.8366 14.2192C15.4319 13.7499 15.153 13.2163 14.9949 12.7107C14.8401 13.1868 14.5743 13.7021 14.1853 14.164C13.5399 14.9304 12.552 15.5537 11.1655 15.6103C11.2028 16.226 11.4971 17.0399 12.081 17.7172C12.703 18.4386 13.6495 19.0004 14.9588 19.0004C16.3498 19.0004 17.3165 18.4034 17.9385 17.6648C18.5175 16.9772 18.7946 16.1706 18.8338 15.6129C17.4853 15.578 16.4934 14.9811 15.8366 14.2192ZM16.081 21.5584C15.4545 20.8317 15.1614 19.9477 15.1614 19.32H15.1388C16.5393 19.2704 17.5358 18.644 18.1853 17.8727C18.5743 17.4108 18.8401 16.8955 18.9949 16.4194C19.153 16.925 19.4319 17.4586 19.8366 17.9279C20.4942 18.6907 21.4877 19.2882 22.8387 19.3217C22.8381 19.8783 22.5651 20.7619 21.9385 21.506C21.3165 22.2445 20.3499 22.8416 18.9588 22.8416C17.6495 22.8416 16.703 22.2798 16.081 21.5584ZM20.081 17.7172C19.4971 17.0399 19.2028 16.226 19.1655 15.6103C20.552 15.5537 21.5399 14.9304 22.1853 14.164C22.5971 13.675 22.8709 13.1261 23.021 12.6273C23.4581 13.9274 24.6922 15.3995 26.8424 15.4509L26.844 15.4788H26.8387C26.8387 16.0326 26.5683 16.9115 25.9474 17.6542C25.3316 18.3907 24.3748 18.9889 22.9987 19.0003L22.9588 19.0004C21.6495 19.0004 20.703 18.4386 20.081 17.7172ZM26.1959 10.4426C25.5532 11.2118 24.567 11.8401 23.1806 11.9009C23.3431 13.201 24.5404 15.1296 26.9588 15.1296C28.3499 15.1296 29.3165 14.5325 29.9385 13.7939C30.5175 13.1063 30.7946 12.2997 30.8338 11.742C29.4853 11.7071 28.4934 11.1102 27.8366 10.3483C27.4532 9.90357 27.1825 9.40115 27.0208 8.9195C26.8718 9.41381 26.6016 9.95712 26.1959 10.4426ZM30.1853 14.0018C30.5743 13.5399 30.8401 13.0246 30.9949 12.5485C31.153 13.0541 31.4319 13.5877 31.8366 14.057C32.4934 14.8189 33.4853 15.4159 34.8338 15.4507C34.7946 16.0084 34.5175 16.8151 33.9385 17.5026C33.3165 18.2412 32.3498 18.8383 30.9588 18.8383C29.6495 18.8383 28.703 18.2764 28.081 17.555C27.4971 16.8778 27.2028 16.0638 27.1655 15.4481C28.552 15.3916 29.5399 14.7682 30.1853 14.0018ZM34.1853 17.7105C34.5743 17.2486 34.8401 16.7334 34.9949 16.2573C35.153 16.7629 35.4319 17.2964 35.8366 17.7658C36.4942 18.5286 37.4877 19.126 38.8387 19.1595C38.8381 19.7161 38.5651 20.5997 37.9385 21.3438C37.3165 22.0824 36.3499 22.6795 34.9588 22.6795C33.6495 22.6795 32.703 22.1176 32.081 21.3962C31.4545 20.6695 31.1614 19.7855 31.1614 19.1579H31.1388C32.5393 19.1083 33.5358 18.4819 34.1853 17.7105ZM35.8366 25.3157C36.4934 26.0776 37.4853 26.6745 38.8338 26.7093C38.7946 27.267 38.5175 28.0737 37.9385 28.7613C37.3165 29.4998 36.3499 30.0969 34.9588 30.0969C33.6495 30.0969 32.703 29.5351 32.081 28.8137C31.4971 28.1364 31.2028 27.3224 31.1655 26.7067C32.552 26.6502 33.5399 26.0268 34.1853 25.2604C34.5743 24.7985 34.8401 24.2833 34.9949 23.8072C35.153 24.3128 35.4319 24.8463 35.8366 25.3157ZM15.8366 29.1866C16.4934 29.9484 17.4853 30.5454 18.8338 30.5802C18.7946 31.1379 18.5175 31.9446 17.9385 32.6322C17.3165 33.3707 16.3498 33.9678 14.9588 33.9678C13.6495 33.9678 12.703 33.406 12.081 32.6845C11.4971 32.0073 11.2028 31.1933 11.1655 30.5776C12.552 30.5211 13.5399 29.8977 14.1853 29.1313C14.5743 28.6694 14.8401 28.1542 14.9949 27.6781C15.153 28.1837 15.4319 28.7172 15.8366 29.1866ZM12.081 25.2671C11.4971 24.5898 11.2028 23.7759 11.1655 23.1602C12.552 23.1036 13.5399 22.4803 14.1853 21.7139C14.5743 21.252 14.8401 20.7367 14.9949 20.2606C15.153 20.7662 15.432 21.2998 15.8366 21.7691C16.4934 22.531 17.4853 23.1279 18.8338 23.1628C18.7946 23.7205 18.5175 24.5271 17.9385 25.2147C17.3165 25.9533 16.3499 26.5503 14.9588 26.5503C13.6495 26.5503 12.703 25.9885 12.081 25.2671ZM18.1853 25.4226C18.5743 24.9607 18.8401 24.4454 18.9949 23.9693C19.153 24.4749 19.432 25.0085 19.8366 25.4778C20.4934 26.2397 21.4853 26.8366 22.8338 26.8715C22.7946 27.4292 22.5175 28.2359 21.9385 28.9234C21.3165 29.662 20.3499 30.2591 18.9588 30.2591C17.6495 30.2591 16.703 29.6972 16.081 28.9758C15.4971 28.2986 15.2028 27.4846 15.1655 26.8689C16.552 26.8123 17.5399 26.189 18.1853 25.4226ZM20.081 25.2671C19.4971 24.5898 19.2028 23.7759 19.1655 23.1602C20.552 23.1036 21.5399 22.4803 22.1853 21.7139C22.5969 21.2252 22.8705 20.6767 23.0208 20.1781C23.1828 20.6606 23.454 21.1638 23.8385 21.6092C24.4968 22.3716 25.4908 22.9683 26.8424 23.0008L26.844 23.0287H26.8387C26.8387 23.5822 26.5686 24.4605 25.9483 25.203C25.3331 25.9393 24.3772 26.5377 23.0027 26.5501L22.9588 26.5503C21.6495 26.5503 20.703 25.9885 20.081 25.2671ZM27.8366 2.93086C28.4934 3.69274 29.4853 4.28968 30.8338 4.32451C30.7946 4.88223 30.5175 5.68888 29.9385 6.37646C29.3165 7.11503 28.3499 7.7121 26.9588 7.7121C24.5404 7.7121 23.3431 5.78355 23.1806 4.48346C24.567 4.42266 25.5532 3.79439 26.1959 3.02515C26.6016 2.53967 26.8718 1.99635 27.0208 1.50205C27.1825 1.9837 27.4532 2.48612 27.8366 2.93086ZM22.1853 6.74651C22.5971 6.2575 22.8709 5.70866 23.021 5.20984C23.4581 6.5099 24.6922 7.98206 26.8424 8.03346L26.844 8.06139H26.8387C26.8387 8.61488 26.5686 9.49317 25.9483 10.2357C25.3331 10.972 24.3772 11.5703 23.0027 11.5828L22.9588 11.583C21.6495 11.583 20.703 11.0212 20.081 10.2997C19.4971 9.62248 19.2028 8.8085 19.1655 8.19283C20.552 8.13627 21.5399 7.51292 22.1853 6.74651ZM28.081 10.1376C27.4971 9.46031 27.2028 8.64634 27.1655 8.03067C28.552 7.97411 29.5399 7.35076 30.1853 6.58435C30.5743 6.12245 30.8401 5.60717 30.9949 5.13109C31.153 5.63669 31.4319 6.17025 31.8366 6.63958C32.4934 7.40147 33.4853 7.9984 34.8338 8.03324C34.7946 8.59095 34.5175 9.3976 33.9385 10.0852C33.3165 10.8238 32.3499 11.4208 30.9588 11.4208C29.6495 11.4208 28.703 10.859 28.081 10.1376ZM34.1853 10.2931C34.5743 9.83117 34.8401 9.3159 34.9949 8.83981C35.153 9.34542 35.4319 9.87898 35.8366 10.3483C36.4934 11.1102 37.4853 11.7071 38.8338 11.742C38.7946 12.2997 38.5175 13.1063 37.9385 13.7939C37.3165 14.5325 36.3499 15.1296 34.9588 15.1296C33.6495 15.1296 32.703 14.5677 32.081 13.8463C31.4971 13.169 31.2028 12.3551 31.1655 11.7394C32.552 11.6828 33.5399 11.0595 34.1853 10.2931ZM18.1853 10.4552C18.5743 9.99334 18.8401 9.47806 18.9949 9.00198C19.153 9.50758 19.432 10.0411 19.8366 10.5105C20.4934 11.2724 21.4853 11.8693 22.8338 11.9041C22.7946 12.4618 22.5175 13.2685 21.9385 13.9561C21.3165 14.6946 20.3499 15.2917 18.9588 15.2917C17.6495 15.2917 16.703 14.7299 16.081 14.0085C15.4971 13.3312 15.2028 12.5172 15.1655 11.9016C16.552 11.845 17.5399 11.2217 18.1853 10.4552ZM19.8366 3.09302C20.4934 3.8549 21.4853 4.45184 22.8338 4.48667C22.7946 5.04439 22.5175 5.85104 21.9385 6.53862C21.3165 7.27719 20.3499 7.87426 18.9588 7.87426C17.6495 7.87426 16.703 7.31243 16.081 6.591C15.4971 5.91375 15.2028 5.09977 15.1655 4.4841C16.552 4.42754 17.5399 3.8042 18.1853 3.03778C18.5743 2.57589 18.8401 2.06061 18.9949 1.58452C19.153 2.09013 19.432 2.62369 19.8366 3.09302ZM41.9385 47.4413C42.5175 46.7538 42.7946 45.9471 42.8338 45.3894C41.4853 45.3546 40.4934 44.7576 39.8366 43.9957C39.4319 43.5264 39.153 42.9929 38.9949 42.4873C38.8401 42.9633 38.5743 43.4786 38.1853 43.9405C37.5399 44.7069 36.552 45.3303 35.1655 45.3868C35.2028 46.0025 35.4971 46.8165 36.081 47.4937C36.703 48.2152 37.6495 48.777 38.9588 48.777C40.3498 48.777 41.3165 48.1799 41.9385 47.4413ZM21.9385 43.8948C22.5175 43.2072 22.7946 42.4006 22.8338 41.8428C21.4853 41.808 20.4934 41.2111 19.8366 40.4492C19.432 39.9798 19.153 39.4463 18.9949 38.9407C18.8401 39.4168 18.5743 39.932 18.1853 40.3939C17.5399 41.1604 16.552 41.7837 15.1655 41.8403C15.2028 42.4559 15.4971 43.2699 16.081 43.9472C16.703 44.6686 17.6495 45.2304 18.9588 45.2304C20.3499 45.2304 21.3165 44.6334 21.9385 43.8948ZM17.9385 40.1861C18.5175 39.4985 18.7946 38.6918 18.8338 38.1341C17.4853 38.0993 16.4934 37.5023 15.8366 36.7405C15.432 36.2711 15.153 35.7376 14.9949 35.232C14.8401 35.708 14.5743 36.2233 14.1853 36.6852C13.5399 37.4516 12.552 38.075 11.1655 38.1315C11.2028 38.7472 11.4971 39.5612 12.081 40.2384C12.703 40.9599 13.6495 41.5217 14.9588 41.5217C16.3499 41.5217 17.3165 40.9246 17.9385 40.1861ZM10.1853 40.3939C10.5743 39.932 10.8401 39.4168 10.9949 38.9407C11.153 39.4463 11.432 39.9798 11.8366 40.4492C12.4934 41.2111 13.4853 41.808 14.8338 41.8428C14.7946 42.4006 14.5175 43.2072 13.9385 43.8948C13.3165 44.6334 12.3499 45.2304 10.9588 45.2304C9.64954 45.2304 8.703 44.6686 8.08103 43.9472C7.49714 43.2699 7.20282 42.4559 7.1655 41.8403C8.552 41.7837 9.53994 41.1604 10.1853 40.3939ZM14.1853 44.1027C14.5743 43.6408 14.8401 43.1255 14.9949 42.6494C15.153 43.155 15.432 43.6886 15.8366 44.1579C16.4934 44.9198 17.4853 45.5167 18.8338 45.5516C18.7946 46.1093 18.5175 46.9159 17.9385 47.6035C17.3165 48.3421 16.3498 48.9391 14.9588 48.9391C13.6495 48.9391 12.703 48.3773 12.081 47.6559C11.4971 46.9786 11.2028 46.1647 11.1655 45.549C12.552 45.4924 13.5399 44.8691 14.1853 44.1027ZM32.081 43.785C31.4971 43.1078 31.2028 42.2938 31.1655 41.6781C32.552 41.6215 33.5399 40.9982 34.1853 40.2318C34.5743 39.7699 34.8401 39.2546 34.9949 38.7785C35.153 39.2841 35.4319 39.8177 35.8366 40.287C36.4934 41.0489 37.4853 41.6458 38.8338 41.6807C38.7946 42.2384 38.5175 43.045 37.9385 43.7326C37.3165 44.4712 36.3499 45.0683 34.9588 45.0683C33.6495 45.0683 32.703 44.5064 32.081 43.785Z" fill="#FEFEFE"/>
<path d="M13.5 7C12.3333 10.3333 12 13.5 11 19.5C9.88015 26.2191 9.5 41.6667 9 48.5" stroke="#1D8CE0"/>
<path d="M13.5 7C12.3333 10.3333 12 13.5 11 19.5C9.88015 26.2191 9.5 41.6667 9 48.5" stroke="black" stroke-opacity="0.2"/>
<path d="M6.5 49V45.5L24.5 47L24 50L6.5 49Z" fill="#1D8CE0"/>
<path d="M6.5 49V45.5L24.5 47L24 50L6.5 49Z" fill="black" fill-opacity="0.2"/>
<path d="M43 45.5L29 47V50L43 48.5V45.5Z" fill="#1D8CE0"/>
<path d="M43 45.5L29 47V50L43 48.5V45.5Z" fill="black" fill-opacity="0.2"/>
<path d="M28 2.5C23 2.5 19.7342 2.26894 12.5 1.5L12 3.5C17.9994 4.26894 23.6165 4.5 28 4.5C32.1875 4.5 36 4 38.5 3.5L38 1.5C35 2 33 2.5 28 2.5Z" fill="#1D8CE0"/>
<path d="M28 2.5C23 2.5 19.7342 2.26894 12.5 1.5L12 3.5C17.9994 4.26894 23.6165 4.5 28 4.5C32.1875 4.5 36 4 38.5 3.5L38 1.5C35 2 33 2.5 28 2.5Z" fill="black" fill-opacity="0.2"/>
<path d="M27.9418 6.44292C22.1359 6.44292 17.6515 5.98726 11.5 5.07593L11 7C16.1262 7.91133 23.3033 8.5 28 8.5C32.6967 8.5 36.5 8 39 7L38.5 5C36.5 5.5 33.7477 6.44292 27.9418 6.44292Z" fill="#1D8CE0"/>
<path d="M27.9418 6.44292C22.1359 6.44292 17.6515 5.98726 11.5 5.07593L11 7C16.1262 7.91133 23.3033 8.5 28 8.5C32.6967 8.5 36.5 8 39 7L38.5 5C36.5 5.5 33.7477 6.44292 27.9418 6.44292Z" fill="black" fill-opacity="0.2"/>
</svg>
