<svg width="50" height="50" viewBox="0 0 50 50" fill="none" xmlns="http://www.w3.org/2000/svg">
<path d="M29.5 6C28.3 6 24.6667 5 23 4.5L30.5 17.5L34.5 4.5C33.3333 5 30.7 6 29.5 6Z" fill="#1D8CE0"/>
<path d="M29.5 6C28.3 6 24.6667 5 23 4.5L30.5 17.5L34.5 4.5C33.3333 5 30.7 6 29.5 6Z" fill="black" fill-opacity="0.2"/>
<path d="M20.5 0L7.5 3.5C8.83333 7.33333 11.6 15.3 12 16.5C12.5 18 13.5 23 13.5 28C13.5 32 9.83333 42.3333 8 47C13.5 49 18 50 30 50C36.5 50 40 47.5 41 46.5C40 41.5 37.9909 35.3225 37.5 29C37.0926 23.7539 38.0465 19.3139 38.5 17.5C39.5 13.5 41.6667 6.33333 43 3L35 0C32.9283 5.36429 31.8381 8.6674 30 15C27.1589 9.02028 25.0882 5.77326 20.5 0Z" fill="#1D8CE0"/>
<path d="M20.5 0L7.5 3.5C8.83333 7.33333 11.6 15.3 12 16.5C12.5 18 13.5 23 13.5 28C13.5 32 9.83333 42.3333 8 47C13.5 49 18 50 30 50C36.5 50 40 47.5 41 46.5C40 41.5 37.9909 35.3225 37.5 29C37.0926 23.7539 38.0465 19.3139 38.5 17.5C39.5 13.5 41.6667 6.33333 43 3L35 0C32.9283 5.36429 31.8381 8.6674 30 15C27.1589 9.02028 25.0882 5.77326 20.5 0Z" fill="white" fill-opacity="0.4"/>
<path fill-rule="evenodd" clip-rule="evenodd" d="M11.5255 36.9671C12.1249 37.4659 12.9298 37.8129 13.9588 37.8129C15.3498 37.8129 16.3165 37.2158 16.9384 36.4772C17.5657 35.7324 17.8386 34.8477 17.8386 34.2913H18.1614C18.1614 34.9189 18.4545 35.803 19.081 36.5296C19.703 37.251 20.6495 37.8129 21.9588 37.8129C23.3498 37.8129 24.3165 37.2158 24.9384 36.4772C25.5657 35.7324 25.8386 34.8477 25.8386 34.2913H25.844L25.8439 34.2891C24.4902 34.257 23.495 33.659 22.8365 32.8952C22.4319 32.4259 22.1529 31.8923 21.9949 31.3867C21.84 31.8628 21.5743 32.3781 21.1853 32.84C20.5083 33.6439 19.4543 34.2904 17.9588 34.2904C16.5464 34.2904 15.5135 33.6804 14.8365 32.8952C14.4319 32.4258 14.1529 31.8923 13.9949 31.3867C13.84 31.8628 13.5742 32.3781 13.1853 32.8399C12.9981 33.0622 12.7822 33.2724 12.536 33.4603C12.5844 33.276 12.6314 33.0936 12.6769 32.9132C12.7701 32.8226 12.8572 32.7285 12.9384 32.6321C13.5174 31.9445 13.7945 31.1378 13.8337 30.5801C13.6169 30.5745 13.4093 30.5544 13.2108 30.5214C13.2308 30.414 13.25 30.3081 13.2682 30.2037C13.4861 30.2397 13.7162 30.259 13.9588 30.259C15.3498 30.259 16.3165 29.6619 16.9384 28.9233C17.5174 28.2358 17.7945 27.4291 17.8337 26.8714C16.4853 26.8366 15.4934 26.2396 14.8365 25.4777C14.4319 25.0084 14.1529 24.4748 13.9949 23.9692C13.8704 24.3519 13.6743 24.76 13.4001 25.1452C13.3879 24.965 13.3748 24.7856 13.3607 24.6074C13.6558 24.0882 13.8057 23.5617 13.8337 23.1627C13.6201 23.1571 13.4154 23.1375 13.2196 23.1054C13.2074 22.9932 13.1949 22.8817 13.1821 22.771C13.4252 22.8168 13.684 22.8415 13.9588 22.8415C15.3498 22.8415 16.3165 22.2445 16.9384 21.5059C17.565 20.7618 17.8381 19.8782 17.8386 19.3216C16.4876 19.2881 15.4942 18.6906 14.8365 17.9278C14.4319 17.4585 14.1529 16.9249 13.9949 16.4193C13.84 16.8954 13.5742 17.4107 13.1853 17.8726C12.9907 18.1037 12.7649 18.3218 12.5065 18.5152C12.4815 18.3946 12.4565 18.2775 12.4318 18.1642C12.6211 18.01 12.7896 17.8414 12.9384 17.6647C13.5174 16.9771 13.7945 16.1705 13.8337 15.6128C12.8299 15.5868 12.0237 15.2494 11.4062 14.7643C11.3369 14.5632 11.2632 14.3495 11.1857 14.1249C11.8073 14.7894 12.7209 15.2916 13.9588 15.2916C15.3498 15.2916 16.3165 14.6945 16.9384 13.956C17.5174 13.2684 17.7945 12.4617 17.8337 11.904C16.4853 11.8692 15.4934 11.2723 14.8365 10.5104C14.4319 10.041 14.1529 9.50748 13.9949 9.00188C13.84 9.47797 13.5743 9.99324 13.1853 10.4551C12.5787 11.1755 11.6694 11.7695 10.411 11.8852C10.375 11.7811 10.3386 11.6761 10.302 11.5704C11.5105 11.4811 12.369 10.9235 12.9384 10.2472C13.5174 9.55967 13.7945 8.75302 13.8337 8.19531C12.4853 8.16047 11.4934 7.56353 10.8365 6.80165C10.4319 6.33232 10.1529 5.79876 9.99488 5.29315C9.84004 5.76924 9.57425 6.28452 9.18529 6.74641C9.06135 6.89359 8.92478 7.0355 8.77517 7.16913C8.73644 7.0576 8.69791 6.94665 8.65961 6.83638C8.75931 6.74062 8.85218 6.64093 8.93842 6.53852C9.51742 5.85094 9.79454 5.04429 9.83374 4.48658C8.93025 4.46324 8.18686 4.18757 7.59705 3.77903C7.56393 3.68379 7.53156 3.59073 7.5 3.49998L7.69006 3.44881C8.26963 3.87733 9.02119 4.16544 9.95876 4.16544C11.3498 4.16544 12.3165 3.56837 12.9384 2.82979C13.1958 2.52414 13.3935 2.19496 13.5372 1.87457L13.93 1.76883C13.77 2.19145 13.5245 2.63487 13.1853 3.03769C12.5399 3.8041 11.552 4.42744 10.1655 4.484C10.2028 5.09968 10.4971 5.91365 11.081 6.5909C11.703 7.31233 12.6495 7.87416 13.9588 7.87416C15.3498 7.87416 16.3165 7.27709 16.9384 6.53852C17.5174 5.85094 17.7945 5.04429 17.8337 4.48658C16.4853 4.45174 15.4934 3.85481 14.8365 3.09292C14.4726 2.67074 14.2102 2.19658 14.0462 1.73755L14.3589 1.65335C14.5096 2.06603 14.7483 2.4963 15.081 2.88218C15.703 3.60361 16.6495 4.16544 17.9588 4.16544C19.3498 4.16544 20.3165 3.56837 20.9384 2.82979C21.2968 2.40421 21.5395 1.933 21.6818 1.50344C21.7606 1.60495 21.8386 1.70574 21.9158 1.80581C21.7557 2.21725 21.5146 2.6466 21.1853 3.03769C20.5399 3.8041 19.552 4.42744 18.1655 4.484C18.2028 5.09968 18.4971 5.91365 19.081 6.5909C19.703 7.31233 20.6495 7.87416 21.9588 7.87416C23.3498 7.87416 24.3165 7.27709 24.9384 6.53852C25.0141 6.44865 25.0846 6.35675 25.1501 6.26364C25.2142 6.35939 25.2777 6.45499 25.3407 6.55049C25.2913 6.61667 25.2395 6.68206 25.1853 6.74641C24.5399 7.51283 23.552 8.13617 22.1655 8.19273C22.2028 8.80841 22.4971 9.62238 23.081 10.2996C23.703 11.0211 24.6495 11.5829 25.9588 11.5829L26.0026 11.5827C26.8133 11.5753 27.4783 11.3642 28.0137 11.0412C28.0644 11.1357 28.1151 11.2307 28.1658 11.3263C27.6262 11.6487 26.9679 11.8663 26.1805 11.9008C26.3431 13.2009 27.5403 15.1295 29.9588 15.1295C31.3498 15.1295 32.3165 14.5324 32.9384 13.7938C33.5174 13.1062 33.7945 12.2996 33.8337 11.7419C32.7464 11.7138 31.891 11.3202 31.2561 10.7694C31.291 10.6552 31.3258 10.5417 31.3605 10.4291C31.9743 11.0048 32.8322 11.4207 33.9588 11.4207C35.3498 11.4207 36.3165 10.8237 36.9384 10.0851C37.5174 9.39751 37.7945 8.59086 37.8337 8.03314C36.4853 7.99831 35.4934 7.40137 34.8365 6.63949C34.4319 6.17016 34.1529 5.6366 33.9949 5.13099C33.84 5.60708 33.5743 6.12235 33.1853 6.58425C32.951 6.86248 32.6716 7.12185 32.3443 7.3421C32.4048 7.15937 32.4654 6.97753 32.5263 6.79626C32.6777 6.66426 32.8148 6.5231 32.9384 6.37636C33.5174 5.68878 33.7945 4.88213 33.8337 4.32442C33.6832 4.32053 33.5371 4.30964 33.3955 4.29229C33.4326 4.18857 33.47 4.08456 33.5077 3.98019C33.653 3.99536 33.8033 4.00328 33.9588 4.00328C35.3498 4.00328 36.3165 3.40621 36.9384 2.66763C37.3836 2.13901 37.6503 1.53999 37.7676 1.03784L38.2737 1.22764C38.4112 1.71649 38.6767 2.25104 39.081 2.72002C39.703 3.44145 40.6495 4.00328 41.9588 4.00328C42.1961 4.00328 42.421 3.9859 42.634 3.95341C42.5927 4.06496 42.5508 4.17908 42.5085 4.29562C42.3969 4.30824 42.2826 4.31706 42.1655 4.32184C42.1771 4.5137 42.2137 4.72481 42.2762 4.94504C42.2196 5.10573 42.1623 5.26998 42.1044 5.43742C42.063 5.33465 42.0265 5.23226 41.9949 5.13099C41.84 5.60708 41.5743 6.12235 41.1853 6.58425C40.5399 7.35067 39.552 7.97401 38.1655 8.03057C38.2028 8.64624 38.4971 9.46022 39.081 10.1375C39.4001 10.5076 39.8047 10.8358 40.2999 11.0676C40.2686 11.1717 40.2373 11.2758 40.2062 11.3798C39.6486 11.1269 39.1932 10.7619 38.8365 10.3482C38.4319 9.87888 38.1529 9.34532 37.9949 8.83972C37.84 9.3158 37.5743 9.83108 37.1853 10.293C36.5399 11.0594 35.552 11.6827 34.1655 11.7393C34.2028 12.355 34.4971 13.1689 35.081 13.8462C35.703 14.5676 36.6495 15.1295 37.9588 15.1295C38.4067 15.1295 38.8107 15.0675 39.1733 14.9589C39.1396 15.0807 39.1063 15.2013 39.0736 15.3207C38.7922 15.3906 38.4897 15.4348 38.1655 15.448C38.1919 15.8842 38.3473 16.4199 38.6433 16.936C38.6052 17.0837 38.5684 17.228 38.533 17.3686C38.2885 17.0069 38.1098 16.6247 37.9949 16.2572C37.84 16.7333 37.5742 17.2485 37.1853 17.7104C36.5358 18.4818 35.5393 19.1082 34.1387 19.1578H34.1614C34.1614 19.7854 34.4545 20.6694 35.081 21.3961C35.6443 22.0495 36.4738 22.5719 37.5978 22.6647C37.5868 22.7707 37.5761 22.8778 37.5659 22.9859C36.353 22.8844 35.4491 22.3174 34.8365 21.6068C34.4319 21.1375 34.1529 20.604 33.9949 20.0983C33.84 20.5744 33.5743 21.0897 33.1853 21.5516C32.5399 22.318 31.552 22.9414 30.1655 22.9979C30.2028 23.6136 30.4971 24.4276 31.081 25.1048C31.703 25.8263 32.6495 26.3881 33.9588 26.3881C35.3498 26.3881 36.3165 25.791 36.9384 25.0524C37.1566 24.7934 37.3319 24.5174 37.4677 24.2443C37.4539 24.4719 37.4419 24.703 37.4321 24.9374C37.3562 25.0471 37.2739 25.1551 37.1853 25.2603C36.5399 26.0268 35.552 26.6501 34.1655 26.7067C34.2028 27.3223 34.4971 28.1363 35.081 28.8136C35.6444 29.4671 36.4741 29.9896 37.5986 30.0822C37.6099 30.191 37.6216 30.2998 37.6338 30.4085C36.3867 30.3229 35.4605 29.748 34.8365 29.0243C34.4319 28.555 34.1529 28.0214 33.9949 27.5158C33.84 27.9919 33.5743 28.5072 33.1853 28.9691C32.5399 29.7355 31.552 30.3588 30.1654 30.4154C30.2028 31.0311 30.4971 31.845 31.081 32.5223C31.703 33.2437 32.6495 33.8055 33.9588 33.8055C35.3498 33.8055 36.3165 33.2085 36.9384 32.4699C37.3221 32.0143 37.5732 31.5063 37.7104 31.0532C37.7384 31.2752 37.7679 31.4969 37.7988 31.7183C37.6458 32.0436 37.4425 32.3724 37.1853 32.6778C36.5083 33.4818 35.4543 34.1283 33.9588 34.1283C32.5464 34.1283 31.5135 33.5183 30.8365 32.733C30.4531 32.2883 30.1825 31.7859 30.0207 31.3042C29.8705 31.8028 29.5968 32.3512 29.1853 32.8399C28.5402 33.6061 27.5528 34.2292 26.1671 34.2862C26.211 34.8987 26.5052 35.6996 27.081 36.3674C27.703 37.0889 28.6495 37.6507 29.9588 37.6507C31.3498 37.6507 32.3165 37.0536 32.9384 36.3151C33.5657 35.5702 33.8386 34.6856 33.8386 34.1291H34.1614C34.1614 34.7567 34.4545 35.6408 35.081 36.3675C35.703 37.0889 36.6495 37.6507 37.9588 37.6507C38.2971 37.6507 38.6102 37.6154 38.8995 37.5513C38.9233 37.6564 38.9473 37.7613 38.9713 37.866C38.7192 37.922 38.4508 37.9576 38.1655 37.9693C38.2028 38.585 38.4971 39.3989 39.081 40.0762C39.2397 40.2603 39.4196 40.434 39.6212 40.5906C39.6601 40.7497 39.699 40.9082 39.7377 41.066C39.3876 40.8452 39.0876 40.5781 38.8365 40.2869C38.4319 39.8176 38.1529 39.284 37.9949 38.7784C37.84 39.2545 37.5743 39.7698 37.1853 40.2317C36.5399 40.9981 35.552 41.6214 34.1655 41.678C34.2028 42.2937 34.4971 43.1077 35.081 43.7849C35.703 44.5063 36.6495 45.0682 37.9588 45.0682C39.0529 45.0682 39.8844 44.6988 40.4922 44.1817C40.5196 44.2989 40.5467 44.4156 40.5734 44.5318C39.9659 45.007 39.1704 45.3457 38.1655 45.3867C38.2028 46.0024 38.4971 46.8164 39.081 47.4936C39.1569 47.5817 39.2376 47.6673 39.3232 47.7499C39.2299 47.8053 39.1332 47.861 39.033 47.9168C38.9645 47.8477 38.899 47.7768 38.8365 47.7044C38.4319 47.235 38.1529 46.7015 37.9949 46.1959C37.84 46.672 37.5742 47.1872 37.1853 47.6491C36.5358 48.4205 35.5393 49.0469 34.1388 49.0965H34.1614C34.1614 49.2548 34.18 49.4295 34.218 49.6138C34.0668 49.643 33.9131 49.6708 33.7569 49.6972C33.812 49.4753 33.8385 49.271 33.8386 49.0982C32.4876 49.0646 31.4942 48.4672 30.8365 47.7044C30.4531 47.2596 30.1825 46.7572 30.0207 46.2756C29.8716 46.7703 29.6011 47.314 29.1949 47.7998C28.5502 48.571 27.56 49.2002 26.1674 49.2575C26.1833 49.4743 26.2305 49.7145 26.3102 49.9639C26.1155 49.9598 25.9231 49.9554 25.7329 49.9506C25.8044 49.6935 25.8384 49.4566 25.8386 49.2603C24.4876 49.2268 23.4942 48.6293 22.8365 47.8665C22.4319 47.3972 22.1529 46.8636 21.9949 46.358C21.84 46.8341 21.5743 47.3494 21.1853 47.8113C20.5358 48.5826 19.5393 49.209 18.1388 49.2586H18.1614C18.1614 49.3248 18.1646 49.3938 18.1712 49.4652C18.0569 49.4517 17.9436 49.438 17.8313 49.4241C17.8362 49.3669 17.8386 49.3122 17.8386 49.2603C16.4876 49.2268 15.4942 48.6293 14.8365 47.8665C14.4319 47.3972 14.1529 46.8636 13.9949 46.358C13.84 46.8341 13.5742 47.3494 13.1853 47.8113C12.9971 48.0347 12.7798 48.246 12.5321 48.4347C12.3956 48.3995 12.2601 48.3637 12.1251 48.3273C12.4438 48.1188 12.7136 47.8704 12.9384 47.6034C13.5174 46.9158 13.7945 46.1092 13.8337 45.5515C12.4852 45.5166 11.4934 44.9197 10.8365 44.1578C10.4319 43.6885 10.1529 43.1549 9.99488 42.6493C9.84004 43.1254 9.57425 43.6407 9.18529 44.1026C9.13762 44.1592 9.08808 44.215 9.03665 44.2699C9.17706 43.8888 9.32093 43.4939 9.46701 43.0879C9.6187 42.7832 9.72133 42.4819 9.77965 42.2114C9.86008 41.9838 9.94089 41.7536 10.0219 41.5212C11.3791 41.5034 12.3259 40.9133 12.9384 40.186C13.5174 39.4984 13.7945 38.6917 13.8337 38.134C12.8387 38.1083 12.0378 37.7765 11.4224 37.2982C11.457 37.1878 11.4913 37.0774 11.5255 36.9671ZM23.1094 3.38051C22.8475 3.02793 22.5763 2.66815 22.2946 2.29926C22.4398 2.57278 22.6202 2.84203 22.8365 3.09292C22.9218 3.19186 23.0128 3.28801 23.1094 3.38051ZM18.8365 6.80165C18.4319 6.33232 18.1529 5.79876 17.9949 5.29315C17.84 5.76924 17.5743 6.28452 17.1853 6.74641C16.5399 7.51283 15.552 8.13617 14.1655 8.19273C14.2028 8.80841 14.4971 9.62238 15.081 10.2996C15.703 11.0211 16.6495 11.5829 17.9588 11.5829C19.3498 11.5829 20.3165 10.9858 20.9384 10.2472C21.5174 9.55967 21.7945 8.75302 21.8337 8.19531C20.4853 8.16047 19.4934 7.56353 18.8365 6.80165ZM18.8365 14.2191C18.4319 13.7498 18.1529 13.2162 17.9949 12.7106C17.84 13.1867 17.5743 13.702 17.1853 14.1639C16.5399 14.9303 15.552 15.5536 14.1655 15.6102C14.2028 16.2259 14.4971 17.0398 15.081 17.7171C15.703 18.4385 16.6495 19.0003 17.9588 19.0003C19.3498 19.0003 20.3165 18.4033 20.9384 17.6647C21.5174 16.9771 21.7945 16.1705 21.8337 15.6128C20.4852 15.5779 19.4934 14.981 18.8365 14.2191ZM19.081 21.5583C18.4545 20.8316 18.1614 19.9476 18.1614 19.3199H18.1387C19.5393 19.2703 20.5358 18.6439 21.1853 17.8726C21.5742 17.4107 21.84 16.8954 21.9949 16.4193C22.1529 16.9249 22.4319 17.4585 22.8365 17.9278C23.4942 18.6906 24.4876 19.2881 25.8386 19.3216C25.8381 19.8782 25.565 20.7618 24.9384 21.5059C24.3165 22.2445 23.3498 22.8415 21.9588 22.8415C20.6495 22.8415 19.703 22.2797 19.081 21.5583ZM23.081 17.7171C22.4971 17.0398 22.2028 16.2259 22.1654 15.6102C23.552 15.5536 24.5399 14.9303 25.1853 14.1639C25.5971 13.6749 25.8708 13.126 26.021 12.6272C26.4581 13.9273 27.6921 15.3994 29.8423 15.4508L29.844 15.4787H29.8386C29.8386 16.0325 29.5683 16.9114 28.9473 17.6541C28.3315 18.3906 27.3747 18.9888 25.9987 19.0002L25.9588 19.0003C24.6495 19.0003 23.703 18.4385 23.081 17.7171ZM33.1853 14.0017C33.5743 13.5398 33.84 13.0245 33.9949 12.5484C34.1529 13.054 34.4319 13.5876 34.8365 14.0569C35.4934 14.8188 36.4852 15.4158 37.8337 15.4506C37.7945 16.0083 37.5174 16.815 36.9384 17.5025C36.3165 18.2411 35.3498 18.8382 33.9588 18.8382C32.6495 18.8382 31.703 18.2763 31.081 17.5549C30.4971 16.8777 30.2028 16.0637 30.1654 15.448C31.552 15.3915 32.5399 14.7681 33.1853 14.0017ZM30.8365 25.3156C31.4934 26.0775 32.4852 26.6744 33.8337 26.7092C33.7945 27.2669 33.5174 28.0736 32.9384 28.7612C32.3165 29.4997 31.3498 30.0968 29.9588 30.0968C27.5403 30.0968 26.3431 28.1683 26.1805 26.8682C27.5669 26.8074 28.5532 26.1791 29.1959 25.4099C29.6015 24.9244 29.8718 24.3811 30.0207 23.8868C30.1825 24.3684 30.4531 24.8708 30.8365 25.3156ZM25.1853 29.1312C25.5971 28.6422 25.8708 28.0934 26.021 27.5946C26.4581 28.8946 27.6921 30.3668 29.8423 30.4182L29.844 30.4461H29.8386C29.8386 31.0026 29.5657 31.8872 28.9384 32.6321C28.3165 33.3706 27.3498 33.9677 25.9588 33.9677C24.6495 33.9677 23.703 33.4059 23.081 32.6844C22.4971 32.0072 22.2028 31.1932 22.1654 30.5775C23.552 30.521 24.5399 29.8976 25.1853 29.1312ZM18.8365 29.1865C19.4934 29.9483 20.4852 30.5453 21.8337 30.5801C21.7945 31.1378 21.5174 31.9445 20.9384 32.6321C20.3165 33.3706 19.3498 33.9677 17.9588 33.9677C16.6495 33.9677 15.703 33.4059 15.081 32.6844C14.4971 32.0072 14.2028 31.1932 14.1655 30.5775C15.552 30.521 16.5399 29.8976 17.1853 29.1312C17.5743 28.6693 17.84 28.1541 17.9949 27.678C18.1529 28.1836 18.4319 28.7171 18.8365 29.1865ZM15.081 25.267C14.4971 24.5897 14.2028 23.7758 14.1655 23.1601C15.552 23.1035 16.5399 22.4802 17.1853 21.7138C17.5743 21.2519 17.84 20.7366 17.9949 20.2605C18.1529 20.7661 18.4319 21.2997 18.8365 21.769C19.4934 22.5309 20.4853 23.1278 21.8337 23.1627C21.7945 23.7204 21.5174 24.527 20.9384 25.2146C20.3165 25.9532 19.3498 26.5502 17.9588 26.5502C16.6495 26.5502 15.703 25.9884 15.081 25.267ZM21.1853 25.4225C21.5743 24.9606 21.84 24.4453 21.9949 23.9692C22.1529 24.4748 22.4319 25.0084 22.8365 25.4777C23.4934 26.2396 24.4853 26.8366 25.8337 26.8714C25.7945 27.4291 25.5174 28.2358 24.9384 28.9233C24.3165 29.6619 23.3498 30.259 21.9588 30.259C20.6495 30.259 19.703 29.6971 19.081 28.9757C18.4971 28.2985 18.2028 27.4845 18.1655 26.8688C19.552 26.8123 20.5399 26.1889 21.1853 25.4225ZM23.081 25.267C22.4971 24.5897 22.2028 23.7758 22.1655 23.1601C23.552 23.1035 24.5399 22.4802 25.1853 21.7138C25.5968 21.2251 25.8705 20.6766 26.0207 20.178C26.1828 20.6605 26.454 21.1637 26.8384 21.6091C27.4967 22.3715 28.4908 22.9682 29.8423 23.0007L29.844 23.0287H29.8386C29.8386 23.5821 29.5686 24.4604 28.9482 25.2029C28.333 25.9392 27.3772 26.5376 26.0026 26.55L25.9588 26.5502C24.6495 26.5502 23.703 25.9884 23.081 25.267ZM27.0827 21.3981C26.5071 20.7313 26.2123 19.9315 26.1674 19.3188C27.56 19.2615 28.5502 18.6322 29.1949 17.8611C29.6011 17.3753 29.8716 16.8315 30.0207 16.3369C30.1825 16.8185 30.4531 17.3209 30.8365 17.7657C31.4942 18.5285 32.4876 19.1259 33.8386 19.1594C33.8381 19.716 33.565 20.5996 32.9384 21.3437C32.3165 22.0823 31.3498 22.6794 29.9588 22.6794C28.6507 22.6794 27.7047 22.1186 27.0827 21.3981ZM38.8365 2.93076C39.4934 3.69265 40.4853 4.28958 41.8337 4.32442C41.7945 4.88213 41.5174 5.68878 40.9384 6.37636C40.3165 7.11493 39.3498 7.712 37.9588 7.712C36.6495 7.712 35.703 7.15017 35.081 6.42874C34.4971 5.75149 34.2028 4.93752 34.1655 4.32184C35.552 4.26528 36.5399 3.64194 37.1853 2.87553C37.5743 2.41363 37.84 1.89835 37.9949 1.42227C38.1529 1.92787 38.4319 2.46143 38.8365 2.93076ZM21.1853 10.4551C21.5743 9.99324 21.84 9.47797 21.9949 9.00188C22.1529 9.50748 22.4319 10.041 22.8365 10.5104C23.4934 11.2723 24.4853 11.8692 25.8337 11.904C25.7945 12.4617 25.5174 13.2684 24.9384 13.956C24.3165 14.6945 23.3498 15.2916 21.9588 15.2916C20.6495 15.2916 19.703 14.7298 19.081 14.0084C18.4971 13.3311 18.2028 12.5171 18.1655 11.9015C19.552 11.8449 20.5399 11.2216 21.1853 10.4551ZM34.8365 36.5782C35.4934 37.3401 36.4853 37.937 37.8337 37.9719C37.7945 38.5296 37.5174 39.3362 36.9384 40.0238C36.3165 40.7624 35.3498 41.3594 33.9588 41.3594C32.6495 41.3594 31.703 40.7976 31.081 40.0762C30.4971 39.3989 30.2028 38.585 30.1655 37.9693C31.552 37.9127 32.5399 37.2894 33.1853 36.523C33.5743 36.0611 33.84 35.5458 33.9949 35.0697C34.1529 35.5753 34.4319 36.1089 34.8365 36.5782ZM26.8365 36.5782C27.4948 37.3417 28.4895 37.9396 29.8423 37.9721L29.844 38H29.8386C29.8386 38.5535 29.5686 39.4318 28.9482 40.1743C28.333 40.9106 27.3772 41.5089 26.0026 41.5214L25.9588 41.5216C24.6495 41.5216 23.703 40.9598 23.081 40.2383C22.4971 39.5611 22.2028 38.7471 22.1655 38.1314C23.552 38.0749 24.5399 37.4515 25.1853 36.6851C25.5968 36.1964 25.8705 35.648 26.0207 35.1494C26.1825 35.631 26.4531 36.1335 26.8365 36.5782ZM29.1959 40.3812C29.6015 39.8957 29.8718 39.3524 30.0207 38.8581C30.1825 39.3398 30.4531 39.8422 30.8365 40.2869C31.4934 41.0488 32.4853 41.6457 33.8337 41.6806C33.7945 42.2383 33.5174 43.0449 32.9384 43.7325C32.3165 44.4711 31.3498 45.0682 29.9588 45.0682C27.5403 45.0682 26.3431 43.1396 26.1805 41.8395C27.5669 41.7787 28.5532 41.1504 29.1959 40.3812ZM33.1853 43.9404C33.5743 43.4785 33.84 42.9632 33.9949 42.4872C34.1529 42.9928 34.4319 43.5263 34.8365 43.9956C35.4934 44.7575 36.4852 45.3545 37.8337 45.3893C37.7945 45.947 37.5174 46.7537 36.9384 47.4412C36.3165 48.1798 35.3498 48.7769 33.9588 48.7769C32.6495 48.7769 31.703 48.2151 31.081 47.4936C30.4971 46.8164 30.2028 46.0024 30.1654 45.3867C31.552 45.3302 32.5399 44.7068 33.1853 43.9404ZM23.081 47.6558C22.4971 46.9785 22.2028 46.1646 22.1654 45.5489C23.552 45.4923 24.5399 44.869 25.1853 44.1026C25.5971 43.6136 25.8708 43.0647 26.021 42.5659C26.4581 43.866 27.6921 45.3381 29.8423 45.3895L29.844 45.4175H29.8386C29.8386 45.9712 29.5683 46.8501 28.9473 47.5928C28.3315 48.3293 27.3747 48.9275 25.9987 48.9389L25.9588 48.9391C24.6495 48.9391 23.703 48.3772 23.081 47.6558ZM24.9384 43.8947C25.5174 43.2071 25.7945 42.4005 25.8337 41.8427C24.4852 41.8079 23.4934 41.211 22.8365 40.4491C22.4319 39.9797 22.1529 39.4462 21.9949 38.9406C21.84 39.4167 21.5743 39.932 21.1853 40.3938C20.5399 41.1603 19.552 41.7836 18.1655 41.8402C18.2028 42.4558 18.4971 43.2698 19.081 43.9471C19.703 44.6685 20.6495 45.2303 21.9588 45.2303C23.3498 45.2303 24.3165 44.6333 24.9384 43.8947ZM20.9384 40.186C21.5174 39.4984 21.7945 38.6917 21.8337 38.134C20.4853 38.0992 19.4934 37.5022 18.8365 36.7404C18.4319 36.271 18.1529 35.7375 17.9949 35.2319C17.84 35.708 17.5743 36.2232 17.1853 36.6851C16.5399 37.4515 15.552 38.0749 14.1655 38.1314C14.2028 38.7471 14.4971 39.5611 15.081 40.2383C15.703 40.9598 16.6495 41.5216 17.9588 41.5216C19.3498 41.5216 20.3165 40.9245 20.9384 40.186ZM13.1853 40.3938C13.5743 39.932 13.84 39.4167 13.9949 38.9406C14.1529 39.4462 14.4319 39.9797 14.8365 40.4491C15.4934 41.211 16.4853 41.8079 17.8337 41.8427C17.7945 42.4005 17.5174 43.2071 16.9384 43.8947C16.3165 44.6333 15.3498 45.2303 13.9588 45.2303C12.6495 45.2303 11.703 44.6685 11.081 43.9471C10.4971 43.2698 10.2028 42.4558 10.1655 41.8402C11.552 41.7836 12.5399 41.1603 13.1853 40.3938ZM17.1853 44.1026C17.5743 43.6407 17.84 43.1254 17.9949 42.6493C18.1529 43.1549 18.4319 43.6885 18.8365 44.1578C19.4934 44.9197 20.4852 45.5166 21.8337 45.5515C21.7945 46.1092 21.5174 46.9158 20.9384 47.6034C20.3165 48.342 19.3498 48.9391 17.9588 48.9391C16.6495 48.9391 15.703 48.3772 15.081 47.6558C14.4971 46.9785 14.2028 46.1646 14.1655 45.5489C15.552 45.4923 16.5399 44.869 17.1853 44.1026Z" fill="#FEFEFE"/>
<path d="M14 12C12 8.5 9.5 5.5 7.5 3.5C9 8 10.5 11.5 12.5 18.5C14.5 20.5 15.5 18 15.5 18C15.5 18 16 15.5 14 12Z" fill="#1D8CE0"/>
<path d="M14 12C12 8.5 9.5 5.5 7.5 3.5C9 8 10.5 11.5 12.5 18.5C14.5 20.5 15.5 18 15.5 18C15.5 18 16 15.5 14 12Z" fill="black" fill-opacity="0.2"/>
<path d="M14.5 28C14.5 25 14.5 23 13.5 19C14.3333 20.5 15.5 23 15.5 28C15.5 32.5277 13.8333 43.6667 12.5 48.5L9.5 47.5C11.1667 42.1667 14.5 30.8 14.5 28Z" fill="#1D8CE0"/>
<path d="M14.5 28C14.5 25 14.5 23 13.5 19C14.3333 20.5 15.5 23 15.5 28C15.5 32.5277 13.8333 43.6667 12.5 48.5L9.5 47.5C11.1667 42.1667 14.5 30.8 14.5 28Z" fill="black" fill-opacity="0.2"/>
<path d="M30.4999 26.5C21.9999 26.5 18.4999 26 13.4999 25L13.3999 28.5C17.8999 29.5 20.9999 30 30.4999 30C33.6999 30 36.6666 29.3333 37.4999 29L37.3999 25C36.8999 25.3333 34.8999 26.5 30.4999 26.5Z" fill="#1D8CE0"/>
<path d="M30.4999 26.5C21.9999 26.5 18.4999 26 13.4999 25L13.3999 28.5C17.8999 29.5 20.9999 30 30.4999 30C33.6999 30 36.6666 29.3333 37.4999 29L37.3999 25C36.8999 25.3333 34.8999 26.5 30.4999 26.5Z" fill="black" fill-opacity="0.2"/>
<path d="M29.5 28.5V13H30.5V28.5V36C30.5 38.8284 30.5 47.5 31 50H28.5C29.5 44 29.5 39 29.5 36V28.5Z" fill="#1D8CE0"/>
<path d="M29.5 28.5V13H30.5V28.5V36C30.5 38.8284 30.5 47.5 31 50H28.5C29.5 44 29.5 39 29.5 36V28.5Z" fill="black" fill-opacity="0.2"/>
</svg>
