<svg width="50" height="50" viewBox="0 0 50 50" fill="none" xmlns="http://www.w3.org/2000/svg">
<path d="M17 9.95833C17 8.02381 19.3093 4 25.0825 4C30.5258 4 33 7.79167 33 9.95833C33 12.125 30.5794 12.5893 28.6 14.2143C26.6206 15.8393 26.2371 17 25.0825 17C23.4 17 22.9725 15.4311 21.4 14.2143C19 12.3571 17 11.8929 17 9.95833Z" fill="#1D8CE0"/>
<path d="M17 9.95833C17 8.02381 19.3093 4 25.0825 4C30.5258 4 33 7.79167 33 9.95833C33 12.125 30.5794 12.5893 28.6 14.2143C26.6206 15.8393 26.2371 17 25.0825 17C23.4 17 22.9725 15.4311 21.4 14.2143C19 12.3571 17 11.8929 17 9.95833Z" fill="white" fill-opacity="0.6"/>
<path d="M17 9.95833C17 8.02381 19.3093 4 25.0825 4C30.5258 4 33 7.79167 33 9.95833C33 12.125 30.5794 12.5893 28.6 14.2143C26.6206 15.8393 26.2371 17 25.0825 17C23.4 17 22.9725 15.4311 21.4 14.2143C19 12.3571 17 11.8929 17 9.95833Z" stroke="#FEFEFE" stroke-width="0.451853"/>
<path d="M9 16.9583C9 15.0238 11.3093 11 17.0825 11C22.5258 11 25 14.7917 25 16.9583C25 19.125 22.5794 19.5893 20.6 21.2143C18.6206 22.8393 18.2371 24 17.0825 24C15.4 24 14.9725 22.4311 13.4 21.2143C11 19.3571 9 18.8929 9 16.9583Z" fill="#1D8CE0"/>
<path d="M9 16.9583C9 15.0238 11.3093 11 17.0825 11C22.5258 11 25 14.7917 25 16.9583C25 19.125 22.5794 19.5893 20.6 21.2143C18.6206 22.8393 18.2371 24 17.0825 24C15.4 24 14.9725 22.4311 13.4 21.2143C11 19.3571 9 18.8929 9 16.9583Z" fill="white" fill-opacity="0.4"/>
<path d="M9 16.9583C9 15.0238 11.3093 11 17.0825 11C22.5258 11 25 14.7917 25 16.9583C25 19.125 22.5794 19.5893 20.6 21.2143C18.6206 22.8393 18.2371 24 17.0825 24C15.4 24 14.9725 22.4311 13.4 21.2143C11 19.3571 9 18.8929 9 16.9583Z" stroke="#FEFEFE" stroke-width="0.451853"/>
<path d="M25 16.9583C25 15.0238 27.3093 11 33.0825 11C38.5258 11 41 14.7917 41 16.9583C41 19.125 38.5794 19.5893 36.6 21.2143C34.6206 22.8393 34.2371 24 33.0825 24C31.4 24 30.9725 22.4311 29.4 21.2143C27 19.3571 25 18.8929 25 16.9583Z" fill="#1D8CE0"/>
<path d="M25 16.9583C25 15.0238 27.3093 11 33.0825 11C38.5258 11 41 14.7917 41 16.9583C41 19.125 38.5794 19.5893 36.6 21.2143C34.6206 22.8393 34.2371 24 33.0825 24C31.4 24 30.9725 22.4311 29.4 21.2143C27 19.3571 25 18.8929 25 16.9583Z" fill="white" fill-opacity="0.2"/>
<path d="M25 16.9583C25 15.0238 27.3093 11 33.0825 11C38.5258 11 41 14.7917 41 16.9583C41 19.125 38.5794 19.5893 36.6 21.2143C34.6206 22.8393 34.2371 24 33.0825 24C31.4 24 30.9725 22.4311 29.4 21.2143C27 19.3571 25 18.8929 25 16.9583Z" stroke="#FEFEFE" stroke-width="0.451853"/>
<path d="M17 23.9583C17 22.0238 19.3093 18 25.0825 18C30.5258 18 33 21.7917 33 23.9583C33 26.125 30.5794 26.5893 28.6 28.2143C26.6206 29.8393 26.2371 31 25.0825 31C23.4 31 22.9725 29.4311 21.4 28.2143C19 26.3571 17 25.8929 17 23.9583Z" fill="#1D8CE0"/>
<path d="M17 23.9583C17 22.0238 19.3093 18 25.0825 18C30.5258 18 33 21.7917 33 23.9583C33 26.125 30.5794 26.5893 28.6 28.2143C26.6206 29.8393 26.2371 31 25.0825 31C23.4 31 22.9725 29.4311 21.4 28.2143C19 26.3571 17 25.8929 17 23.9583Z" fill="white" fill-opacity="0.4"/>
<path d="M17 23.9583C17 22.0238 19.3093 18 25.0825 18C30.5258 18 33 21.7917 33 23.9583C33 26.125 30.5794 26.5893 28.6 28.2143C26.6206 29.8393 26.2371 31 25.0825 31C23.4 31 22.9725 29.4311 21.4 28.2143C19 26.3571 17 25.8929 17 23.9583Z" stroke="#FEFEFE" stroke-width="0.451853"/>
<path d="M33 23.9583C33 22.0238 35.3093 18 41.0825 18C46.5258 18 49 21.7917 49 23.9583C49 26.125 46.5794 26.5893 44.6 28.2143C42.6206 29.8393 42.2371 31 41.0825 31C39.4 31 38.9725 29.4311 37.4 28.2143C35 26.3571 33 25.8929 33 23.9583Z" fill="#1D8CE0"/>
<path d="M33 23.9583C33 22.0238 35.3093 18 41.0825 18C46.5258 18 49 21.7917 49 23.9583C49 26.125 46.5794 26.5893 44.6 28.2143C42.6206 29.8393 42.2371 31 41.0825 31C39.4 31 38.9725 29.4311 37.4 28.2143C35 26.3571 33 25.8929 33 23.9583Z" fill="white" fill-opacity="0.4"/>
<path d="M33 23.9583C33 22.0238 35.3093 18 41.0825 18C46.5258 18 49 21.7917 49 23.9583C49 26.125 46.5794 26.5893 44.6 28.2143C42.6206 29.8393 42.2371 31 41.0825 31C39.4 31 38.9725 29.4311 37.4 28.2143C35 26.3571 33 25.8929 33 23.9583Z" stroke="#FEFEFE" stroke-width="0.451853"/>
<path d="M1 23.9583C1 22.0238 3.30928 18 9.08247 18C14.5258 18 17 21.7917 17 23.9583C17 26.125 14.5794 26.5893 12.6 28.2143C10.6206 29.8393 10.2371 31 9.08247 31C7.4 31 6.97253 29.4311 5.4 28.2143C3 26.3571 1 25.8929 1 23.9583Z" fill="#1D8CE0"/>
<path d="M1 23.9583C1 22.0238 3.30928 18 9.08247 18C14.5258 18 17 21.7917 17 23.9583C17 26.125 14.5794 26.5893 12.6 28.2143C10.6206 29.8393 10.2371 31 9.08247 31C7.4 31 6.97253 29.4311 5.4 28.2143C3 26.3571 1 25.8929 1 23.9583Z" fill="white" fill-opacity="0.2"/>
<path d="M1 23.9583C1 22.0238 3.30928 18 9.08247 18C14.5258 18 17 21.7917 17 23.9583C17 26.125 14.5794 26.5893 12.6 28.2143C10.6206 29.8393 10.2371 31 9.08247 31C7.4 31 6.97253 29.4311 5.4 28.2143C3 26.3571 1 25.8929 1 23.9583Z" stroke="#FEFEFE" stroke-width="0.451853"/>
<path d="M9 30.9583C9 29.0238 11.3093 25 17.0825 25C22.5258 25 25 28.7917 25 30.9583C25 33.125 22.5794 33.5893 20.6 35.2143C18.6206 36.8393 18.2371 38 17.0825 38C15.4 38 14.9725 36.4311 13.4 35.2143C11 33.3571 9 32.8929 9 30.9583Z" fill="#1D8CE0"/>
<path d="M9 30.9583C9 29.0238 11.3093 25 17.0825 25C22.5258 25 25 28.7917 25 30.9583C25 33.125 22.5794 33.5893 20.6 35.2143C18.6206 36.8393 18.2371 38 17.0825 38C15.4 38 14.9725 36.4311 13.4 35.2143C11 33.3571 9 32.8929 9 30.9583Z" fill="white" fill-opacity="0.6"/>
<path d="M9 30.9583C9 29.0238 11.3093 25 17.0825 25C22.5258 25 25 28.7917 25 30.9583C25 33.125 22.5794 33.5893 20.6 35.2143C18.6206 36.8393 18.2371 38 17.0825 38C15.4 38 14.9725 36.4311 13.4 35.2143C11 33.3571 9 32.8929 9 30.9583Z" stroke="#FEFEFE" stroke-width="0.451853"/>
<path d="M25 30.9583C25 29.0238 27.3093 25 33.0825 25C38.5258 25 41 28.7917 41 30.9583C41 33.125 38.5794 33.5893 36.6 35.2143C34.6206 36.8393 34.2371 38 33.0825 38C31.4 38 30.9725 36.4311 29.4 35.2143C27 33.3571 25 32.8929 25 30.9583Z" fill="#1D8CE0"/>
<path d="M25 30.9583C25 29.0238 27.3093 25 33.0825 25C38.5258 25 41 28.7917 41 30.9583C41 33.125 38.5794 33.5893 36.6 35.2143C34.6206 36.8393 34.2371 38 33.0825 38C31.4 38 30.9725 36.4311 29.4 35.2143C27 33.3571 25 32.8929 25 30.9583Z" fill="white" fill-opacity="0.2"/>
<path d="M25 30.9583C25 29.0238 27.3093 25 33.0825 25C38.5258 25 41 28.7917 41 30.9583C41 33.125 38.5794 33.5893 36.6 35.2143C34.6206 36.8393 34.2371 38 33.0825 38C31.4 38 30.9725 36.4311 29.4 35.2143C27 33.3571 25 32.8929 25 30.9583Z" stroke="#FEFEFE" stroke-width="0.451853"/>
<path d="M17 37.9583C17 36.0238 19.3093 32 25.0825 32C30.5258 32 33 35.7917 33 37.9583C33 40.125 30.5794 40.5893 28.6 42.2143C26.6206 43.8393 26.2371 45 25.0825 45C23.4 45 22.9725 43.4311 21.4 42.2143C19 40.3571 17 39.8929 17 37.9583Z" fill="#1D8CE0"/>
<path d="M17 37.9583C17 36.0238 19.3093 32 25.0825 32C30.5258 32 33 35.7917 33 37.9583C33 40.125 30.5794 40.5893 28.6 42.2143C26.6206 43.8393 26.2371 45 25.0825 45C23.4 45 22.9725 43.4311 21.4 42.2143C19 40.3571 17 39.8929 17 37.9583Z" fill="white" fill-opacity="0.4"/>
<path d="M17 37.9583C17 36.0238 19.3093 32 25.0825 32C30.5258 32 33 35.7917 33 37.9583C33 40.125 30.5794 40.5893 28.6 42.2143C26.6206 43.8393 26.2371 45 25.0825 45C23.4 45 22.9725 43.4311 21.4 42.2143C19 40.3571 17 39.8929 17 37.9583Z" stroke="#FEFEFE" stroke-width="0.451853"/>
</svg>
