<?xml version="1.0" encoding="utf-8"?><svg fill="none" viewBox="0 0 50 50" width="50" height="50" xmlns="http://www.w3.org/2000/svg"><g clip-path="url(#aqza)"><path d="M36.873 5.705c-2.491-2.974-10.311-.878-10.981 2.943l6.214 36.002c3.645 2.882 5.804 3.889 10.499 4.411 4.23-2.914 5.377-4.916 6.887-9.07L36.872 5.706Z" fill="#2FC4A7"/><path d="M36.873 5.705c-2.491-2.974-10.311-.878-10.981 2.943l6.214 36.002c3.645 2.882 5.804 3.889 10.499 4.411 4.23-2.914 5.377-4.916 6.887-9.07L36.872 5.706Z" fill="#fff" fill-opacity=".6"/><path d="M38.048 8.871C34.822 4.56 27.094 6.63 26.456 11.977l4.703 27.21c3.356 2.25 5.756 3.665 9.893 4.079 3.484-2.582 4.927-4.886 6.528-8.479L38.048 8.871Z" fill="#2FC4A7"/><path d="M38.048 8.871C34.822 4.56 27.094 6.63 26.456 11.977l4.703 27.21c3.356 2.25 5.756 3.665 9.893 4.079 3.484-2.582 4.927-4.886 6.528-8.479L38.048 8.871Z" fill="#000" fill-opacity=".4"/><path d="M40.43 39.721c-.363.286-.768.717-.78.838-.154-.083-.31-.537-.86-1.222-.548-.686-1.08-1.104-1.278-1.228l.838.01c-.54-.663-.885-.97-1.535-1.472a9.181 9.181 0 0 1 1.686.627 21.432 21.432 0 0 1-2.138-2.45c-.79-1.076-1.374-2.642-1.568-3.29l1.105.861c-.144-.204-.579-.952-1.173-2.316-.595-1.365-1.053-3.325-1.207-4.134.213.204.827.834 1.58 1.716.753.881 1.786 1.516 2.209 1.723a41.661 41.661 0 0 1-1.964-2.084c-1.197-1.347-1.848-2.567-2.126-4.024-.278-1.457-.685-5.355-.17-5.473.515-.118 3.684 3.094 4.45 3.831.614.59.821 2.11.848 2.797l.175-1.815c.33.448 1.044 1.637 1.266 2.802.223 1.166-.103 3.472-.293 4.479.081-.12.284-.481.442-.964.159-.482.3-1.167.35-1.45.39.773 1.198 2.778 1.3 4.62.1 1.843-.736 3.99-1.167 4.832l.652-.961c.326-.48.64-1.567.758-2.05.104.365.292 1.312.207 2.183-.084.871-.733 1.808-1.048 2.167l.338.126-.536.477.721.494c-.21-.002-.719.064-1.082.35Z" fill="#2FC4A7"/><path d="M40.43 39.721c-.363.286-.768.717-.78.838-.154-.083-.31-.537-.86-1.222-.548-.686-1.08-1.104-1.278-1.228l.838.01c-.54-.663-.885-.97-1.535-1.472a9.181 9.181 0 0 1 1.686.627 21.432 21.432 0 0 1-2.138-2.45c-.79-1.076-1.374-2.642-1.568-3.29l1.105.861c-.144-.204-.579-.952-1.173-2.316-.595-1.365-1.053-3.325-1.207-4.134.213.204.827.834 1.58 1.716.753.881 1.786 1.516 2.209 1.723a41.661 41.661 0 0 1-1.964-2.084c-1.197-1.347-1.848-2.567-2.126-4.024-.278-1.457-.685-5.355-.17-5.473.515-.118 3.684 3.094 4.45 3.831.614.59.821 2.11.848 2.797l.175-1.815c.33.448 1.044 1.637 1.266 2.802.223 1.166-.103 3.472-.293 4.479.081-.12.284-.481.442-.964.159-.482.3-1.167.35-1.45.39.773 1.198 2.778 1.3 4.62.1 1.843-.736 3.99-1.167 4.832l.652-.961c.326-.48.64-1.567.758-2.05.104.365.292 1.312.207 2.183-.084.871-.733 1.808-1.048 2.167l.338.126-.536.477.721.494c-.21-.002-.719.064-1.082.35Z" fill="#fff" fill-opacity=".6"/><path d="M40.303 39.599c-.163.24-.677 1.212-.687 1.324-.145-.078-.15-1.188-.662-1.826-.513-.638-.583-.62-.767-.736l.372-.238c-.174-.366-.43-.611-.813-.98.418.006.674.251 1.011.377-.511-.491-1.861-2.171-2.184-2.693-.302-.488-1.164-2.081-1.348-2.682l.93.496c-.134-.19-.67-1.387-1.138-2.68-.44-1.216-.524-1.682-.672-2.43.198.19.639.613 1.36 1.107.85.582 1.467.797 1.86.993-.239-.23-.78-1.198-1.674-2.202-1.118-1.256-1.51-1.945-1.777-3.293-.267-1.348-.895-5.037-.603-5.101.499-.11 2.866 2.513 3.581 3.2.573.55 1.226 1.562 1.255 2.196l.407-.6c.308.417.541 1.233.755 2.311.214 1.079-.072 2.907-.096 3.875.075-.11.37-.234.617-.598.157-.231.362-.34.407-.6.368.716.672 1.82.777 3.523.106 1.702-.479 3.507-.712 4.473.372-.238.648-.332.826-.595.178-.263.338-.519.443-.964.099.338.057.849-.14 1.452-.15.453-.85 1.564-.85 1.564l.255.246-.454.357.384.369a.856.856 0 0 0-.663.355Z" fill="#2FC4A7"/><path d="m38.91 42.664.954.697c.825-2.918.831-5.833-.591-11.492-.813-3.234-2.98-8.041-4.297-9.663.536 1.272 2.753 5.169 3.653 9.965.765 4.08 1.129 7.152.28 10.493Z" fill="#2FC4A7"/><path d="m38.91 42.664.954.697c.825-2.918.831-5.833-.591-11.492-.813-3.234-2.98-8.041-4.297-9.663.536 1.272 2.753 5.169 3.653 9.965.765 4.08 1.129 7.152.28 10.493Z" fill="#000" fill-opacity=".4"/><ellipse cx="40.861" cy="42.499" rx="3.469" ry="4.047" transform="rotate(-17.163 40.861 42.5)" fill="#D0333D"/><ellipse cx="40.861" cy="42.499" rx="3.469" ry="4.047" transform="rotate(-17.163 40.861 42.5)" fill="#fff" fill-opacity=".2"/><ellipse cx="40.861" cy="42.499" rx="3.469" ry="4.047" transform="rotate(-17.163 40.861 42.5)" stroke="#FAA21E" stroke-width="1.156"/><ellipse cx="40.691" cy="41.947" rx="1.982" ry="2.313" transform="rotate(-17.163 40.69 41.947)" fill="#D0333D"/><ellipse cx="39.816" cy="41.482" rx=".68" ry=".794" transform="rotate(6.236 39.816 41.482)" fill="#FEFEFE"/><path d="M13.107 1.718c2.497-2.981 10.336-.88 11.008 2.95l-6.23 36.093c-3.655 2.889-5.819 3.898-10.525 4.421-4.24-2.921-5.39-4.927-6.905-9.092L13.107 1.718Z" fill="#2FC4A7"/><path d="M13.107 1.718c2.497-2.981 10.336-.88 11.008 2.95l-6.23 36.093c-3.655 2.889-5.819 3.898-10.525 4.421-4.24-2.921-5.39-4.927-6.905-9.092L13.107 1.718Z" fill="#fff" fill-opacity=".6"/><path d="M11.929 4.892c3.234-4.323 10.98-2.247 11.62 3.113l-4.715 27.279c-3.364 2.255-5.77 3.674-9.917 4.088-3.493-2.587-4.94-4.897-6.545-8.5l9.557-25.98Z" fill="#2FC4A7"/><path d="M11.929 4.892c3.234-4.323 10.98-2.247 11.62 3.113l-4.715 27.279c-3.364 2.255-5.77 3.674-9.917 4.088-3.493-2.587-4.94-4.897-6.545-8.5l9.557-25.98Z" fill="#000" fill-opacity=".4"/><path d="M9.54 35.82c.364.286.77.718.782.84.155-.083.312-.539.862-1.226.55-.687 1.083-1.106 1.281-1.23l-.84.01c.541-.666.888-.974 1.539-1.477a9.214 9.214 0 0 0-1.69.63 21.48 21.48 0 0 0 2.143-2.457c.792-1.079 1.378-2.649 1.572-3.299l-1.107.864c.144-.204.58-.954 1.176-2.322s1.055-3.333 1.21-4.144c-.214.205-.83.836-1.584 1.72-.755.884-1.791 1.52-2.214 1.728a41.847 41.847 0 0 0 1.969-2.09c1.2-1.35 1.852-2.573 2.13-4.034.28-1.46.687-5.368.17-5.486-.515-.12-3.692 3.102-4.46 3.84-.616.59-.823 2.116-.85 2.804l-.176-1.82c-.33.45-1.046 1.641-1.27 2.81-.222 1.169.104 3.48.295 4.49a4.334 4.334 0 0 1-.444-.966c-.158-.484-.3-1.17-.35-1.453-.392.774-1.202 2.784-1.303 4.631-.101 1.847.737 3.998 1.169 4.843l-.654-.963c-.326-.482-.642-1.57-.759-2.055-.104.366-.293 1.315-.208 2.189.084.873.736 1.812 1.05 2.172l-.337.126.536.479-.722.495c.21-.003.72.064 1.084.35Z" fill="#2FC4A7"/><path d="M9.54 35.82c.364.286.77.718.782.84.155-.083.312-.539.862-1.226.55-.687 1.083-1.106 1.281-1.23l-.84.01c.541-.666.888-.974 1.539-1.477a9.214 9.214 0 0 0-1.69.63 21.48 21.48 0 0 0 2.143-2.457c.792-1.079 1.378-2.649 1.572-3.299l-1.107.864c.144-.204.58-.954 1.176-2.322s1.055-3.333 1.21-4.144c-.214.205-.83.836-1.584 1.72-.755.884-1.791 1.52-2.214 1.728a41.847 41.847 0 0 0 1.969-2.09c1.2-1.35 1.852-2.573 2.13-4.034.28-1.46.687-5.368.17-5.486-.515-.12-3.692 3.102-4.46 3.84-.616.59-.823 2.116-.85 2.804l-.176-1.82c-.33.45-1.046 1.641-1.27 2.81-.222 1.169.104 3.48.295 4.49a4.334 4.334 0 0 1-.444-.966c-.158-.484-.3-1.17-.35-1.453-.392.774-1.202 2.784-1.303 4.631-.101 1.847.737 3.998 1.169 4.843l-.654-.963c-.326-.482-.642-1.57-.759-2.055-.104.366-.293 1.315-.208 2.189.084.873.736 1.812 1.05 2.172l-.337.126.536.479-.722.495c.21-.003.72.064 1.084.35Z" fill="#fff" fill-opacity=".6"/><path d="M9.668 35.697c.163.24.678 1.215.689 1.327.144-.078.149-1.19.663-1.83.514-.64.585-.622.769-.739l-.373-.238c.174-.366.43-.612.815-.982-.42.006-.676.252-1.014.377.513-.492 1.867-2.176 2.19-2.699.303-.49 1.167-2.087 1.35-2.689l-.932.498c.135-.19.672-1.391 1.141-2.686.443-1.22.526-1.687.675-2.438-.2.192-.641.616-1.364 1.11-.852.584-1.47.8-1.864.996.239-.23.78-1.2 1.677-2.208 1.121-1.258 1.514-1.95 1.782-3.301.268-1.352.898-5.05.604-5.114-.5-.11-2.872 2.52-3.59 3.209-.574.55-1.228 1.565-1.258 2.201l-.408-.602c-.309.418-.542 1.236-.756 2.317-.215 1.082.072 2.914.095 3.885-.074-.11-.37-.234-.618-.6-.157-.231-.363-.34-.408-.601-.369.718-.673 1.825-.78 3.532-.105 1.706.481 3.515.715 4.484-.373-.238-.65-.333-.828-.597-.179-.263-.339-.52-.444-.966-.1.339-.058.851.14 1.456.15.453.853 1.568.853 1.568l-.256.246.455.358-.385.37a.858.858 0 0 1 .665.356Z" fill="#2FC4A7"/><path d="m11.064 38.77-.956.699c-.827-2.926-.834-5.849.592-11.522.815-3.242 2.988-8.06 4.308-9.686-.538 1.275-2.76 5.181-3.662 9.99-.768 4.089-1.132 7.17-.282 10.52Z" fill="#2FC4A7"/><path d="m11.064 38.77-.956.699c-.827-2.926-.834-5.849.592-11.522.815-3.242 2.988-8.06 4.308-9.686-.538 1.275-2.76 5.181-3.662 9.99-.768 4.089-1.132 7.17-.282 10.52Z" fill="#000" fill-opacity=".4"/><ellipse cx="3.477" cy="4.057" rx="3.477" ry="4.057" transform="scale(-1 1) rotate(-17.164 111.649 63.03)" fill="#D0333D"/><ellipse cx="3.477" cy="4.057" rx="3.477" ry="4.057" transform="scale(-1 1) rotate(-17.164 111.649 63.03)" fill="#fff" fill-opacity=".2"/><ellipse cx="3.477" cy="4.057" rx="3.477" ry="4.057" transform="scale(-1 1) rotate(-17.164 111.649 63.03)" stroke="#FAA21E" stroke-width="1.159"/><ellipse cx="1.987" cy="2.318" rx="1.987" ry="2.318" transform="scale(-1 1) rotate(-17.164 114.743 57.513)" fill="#D0333D"/><ellipse cx=".682" cy=".796" rx=".682" ry=".796" transform="scale(-1 1) rotate(6.236 -342.437 -80.291)" fill="#FEFEFE"/></g><defs><clipPath id="aqza"><path fill="#fff" transform="matrix(-1 0 0 1 50 0)" d="M0 0h50v50H0z"/></clipPath></defs></svg>