<?xml version="1.0" encoding="utf-8"?><svg fill="none" viewBox="0 0 50 50" width="50" height="50" xmlns="http://www.w3.org/2000/svg"><g clip-path="url(#araa)"><path d="M40.668 32.51c-.545.377-1.164.958-1.192 1.13-.214-.133-.397-.797-1.121-1.828-.724-1.03-1.45-1.678-1.721-1.873l1.198.09c-.712-1-1.18-1.47-2.065-2.247.968.336 1.481.57 2.358 1.05a30.75 30.75 0 0 1-2.842-3.701c-1.035-1.612-1.732-3.907-1.95-4.854l1.503 1.334c-.186-.305-.743-1.416-1.472-3.423s-1.209-4.856-1.357-6.03c.286.313 1.11 1.27 2.11 2.6.999 1.33 2.421 2.333 3.008 2.667-.345-.374-1.352-1.53-2.626-3.161-1.594-2.037-2.416-3.843-2.684-5.955-.267-2.112-.5-7.73.248-7.853.748-.124 4.998 4.762 6.03 5.886.826.899.986 3.096.963 4.082l.414-2.584c.431.672 1.348 2.438 1.562 4.127.214 1.69-.46 4.963-.823 6.388.128-.165.45-.663.72-1.34.27-.677.534-1.645.632-2.045.49 1.141 1.467 4.085 1.446 6.733-.02 2.649-1.41 5.647-2.103 6.815l1.02-1.318c.51-.659 1.058-2.186 1.268-2.868.117.532.301 1.905.102 3.146-.199 1.24-1.213 2.523-1.695 3.01l.472.21-.81.636.988.771c-.3-.022-1.035.027-1.58.404Z" fill="#2FC4A7"/><path d="M40.668 32.51c-.545.377-1.164.958-1.192 1.13-.214-.133-.397-.797-1.121-1.828-.724-1.03-1.45-1.678-1.721-1.873l1.198.09c-.712-1-1.18-1.47-2.065-2.247.968.336 1.481.57 2.358 1.05a30.75 30.75 0 0 1-2.842-3.701c-1.035-1.612-1.732-3.907-1.95-4.854l1.503 1.334c-.186-.305-.743-1.416-1.472-3.423s-1.209-4.856-1.357-6.03c.286.313 1.11 1.27 2.11 2.6.999 1.33 2.421 2.333 3.008 2.667-.345-.374-1.352-1.53-2.626-3.161-1.594-2.037-2.416-3.843-2.684-5.955-.267-2.112-.5-7.73.248-7.853.748-.124 4.998 4.762 6.03 5.886.826.899.986 3.096.963 4.082l.414-2.584c.431.672 1.348 2.438 1.562 4.127.214 1.69-.46 4.963-.823 6.388.128-.165.45-.663.72-1.34.27-.677.534-1.645.632-2.045.49 1.141 1.467 4.085 1.446 6.733-.02 2.649-1.41 5.647-2.103 6.815l1.02-1.318c.51-.659 1.058-2.186 1.268-2.868.117.532.301 1.905.102 3.146-.199 1.24-1.213 2.523-1.695 3.01l.472.21-.81.636.988.771c-.3-.022-1.035.027-1.58.404Z" fill="#fff" fill-opacity=".4"/><path d="M40.497 32.321c-.255.33-1.078 1.676-1.103 1.835-.2-.125-.106-1.715-.784-2.674-.677-.96-.78-.941-1.032-1.124l.554-.307c-.216-.539-.56-.913-1.077-1.475.6.045.944.42 1.415.63-.688-.75-2.471-3.277-2.887-4.053-.389-.727-1.48-3.086-1.689-3.962l1.288.794c-.176-.284-.835-2.048-1.39-3.94-.523-1.783-.6-2.457-.746-3.543.268.292.86.937 1.849 1.709 1.165.91 2.03 1.273 2.575 1.588-.322-.35-1.008-1.784-2.2-3.303-1.488-1.899-1.987-2.921-2.25-4.876-.261-1.955-.83-7.294-.405-7.36.724-.112 3.879 3.856 4.842 4.905.77.839 1.615 2.347 1.6 3.258l.637-.824c.404.625.664 1.815.873 3.378.21 1.564-.363 4.157-.484 5.542.117-.151.55-.302.937-.801.246-.318.55-.455.637-.824.462 1.06.798 2.668.797 5.116-.002 2.447-1 4.98-1.422 6.342.555-.306.958-.418 1.237-.778.279-.36.53-.712.72-1.34.112.492.007 1.22-.331 2.066-.254.635-1.358 2.164-1.358 2.164l.344.375-.682.472.517.561c-.278-.023-.727.12-.982.45Z" fill="#2FC4A7"/><path d="M40.497 32.321c-.255.33-1.078 1.676-1.103 1.835-.2-.125-.106-1.715-.784-2.674-.677-.96-.78-.941-1.032-1.124l.554-.307c-.216-.539-.56-.913-1.077-1.475.6.045.944.42 1.415.63-.688-.75-2.471-3.277-2.887-4.053-.389-.727-1.48-3.086-1.689-3.962l1.288.794c-.176-.284-.835-2.048-1.39-3.94-.523-1.783-.6-2.457-.746-3.543.268.292.86.937 1.849 1.709 1.165.91 2.03 1.273 2.575 1.588-.322-.35-1.008-1.784-2.2-3.303-1.488-1.899-1.987-2.921-2.25-4.876-.261-1.955-.83-7.294-.405-7.36.724-.112 3.879 3.856 4.842 4.905.77.839 1.615 2.347 1.6 3.258l.637-.824c.404.625.664 1.815.873 3.378.21 1.564-.363 4.157-.484 5.542.117-.151.55-.302.937-.801.246-.318.55-.455.637-.824.462 1.06.798 2.668.797 5.116-.002 2.447-1 4.98-1.422 6.342.555-.306.958-.418 1.237-.778.279-.36.53-.712.72-1.34.112.492.007 1.22-.331 2.066-.254.635-1.358 2.164-1.358 2.164l.344.375-.682.472.517.561c-.278-.023-.727.12-.982.45Z" fill="#000" fill-opacity=".2"/><path d="m38.227 36.589 1.304 1.083c1.443-4.105 1.714-8.28.184-16.513-.873-4.704-3.546-11.783-5.286-14.224.653 1.87 3.478 7.65 4.337 14.6.73 5.91.976 10.345-.54 15.054Z" fill="#2FC4A7"/><path d="m38.227 36.589 1.304 1.083c1.443-4.105 1.714-8.28.184-16.513-.873-4.704-3.546-11.783-5.286-14.224.653 1.87 3.478 7.65 4.337 14.6.73 5.91.976 10.345-.54 15.054Z" fill="#000" fill-opacity=".4"/><path d="M35.984 34.217c-.407.882-.754 2.075-.66 2.313-.37-.007-1.096-.708-2.776-1.468-1.681-.76-3.078-1.036-3.566-1.079l1.578-.779c-1.642-.73-2.584-.975-4.278-1.294 1.47-.298 2.292-.386 3.755-.435-1.07-.323-3.835-1.285-6.34-2.546-2.507-1.26-5.095-3.635-6.076-4.665l2.89.56c-.463-.245-1.992-1.23-4.407-3.218-2.415-1.987-5.143-5.22-6.204-6.588.594.18 2.345.772 4.596 1.704 2.251.933 4.791 1.136 5.78 1.12-.713-.215-2.844-.922-5.666-2.027-3.527-1.381-5.909-3.044-7.82-5.507C4.88 7.845.4.936 1.25.223c.85-.713 9.849 2.28 11.988 2.926 1.711.518 3.55 3.168 4.255 4.429L16.09 4.012c1.044.525 3.515 2.069 5.044 4.039 1.529 1.97 3.12 6.598 3.723 8.665.038-.303.073-1.172-.09-2.226-.164-1.055-.554-2.471-.729-3.047 1.47 1.072 4.894 4.056 6.842 7.409 1.947 3.353 2.429 8.169 2.426 10.157l.304-2.42c.152-1.211-.296-3.545-.538-4.561.543.583 1.799 2.178 2.472 3.889.674 1.711.351 4.085.106 5.058l.75-.087-.545 1.405 1.82.237c-.394.194-1.285.804-1.691 1.687Z" fill="#2FC4A7"/><path d="M35.984 34.217c-.407.882-.754 2.075-.66 2.313-.37-.007-1.096-.708-2.776-1.468-1.681-.76-3.078-1.036-3.566-1.079l1.578-.779c-1.642-.73-2.584-.975-4.278-1.294 1.47-.298 2.292-.386 3.755-.435-1.07-.323-3.835-1.285-6.34-2.546-2.507-1.26-5.095-3.635-6.076-4.665l2.89.56c-.463-.245-1.992-1.23-4.407-3.218-2.415-1.987-5.143-5.22-6.204-6.588.594.18 2.345.772 4.596 1.704 2.251.933 4.791 1.136 5.78 1.12-.713-.215-2.844-.922-5.666-2.027-3.527-1.381-5.909-3.044-7.82-5.507C4.88 7.845.4.936 1.25.223c.85-.713 9.849 2.28 11.988 2.926 1.711.518 3.55 3.168 4.255 4.429L16.09 4.012c1.044.525 3.515 2.069 5.044 4.039 1.529 1.97 3.12 6.598 3.723 8.665.038-.303.073-1.172-.09-2.226-.164-1.055-.554-2.471-.729-3.047 1.47 1.072 4.894 4.056 6.842 7.409 1.947 3.353 2.429 8.169 2.426 10.157l.304-2.42c.152-1.211-.296-3.545-.538-4.561.543.583 1.799 2.178 2.472 3.889.674 1.711.351 4.085.106 5.058l.75-.087-.545 1.405 1.82.237c-.394.194-1.285.804-1.691 1.687Z" fill="#fff" fill-opacity=".6"/><path d="M35.628 34.109c-.076.605-.11 2.915-.023 3.134-.344-.008-1.412-2.081-2.98-2.786-1.569-.705-1.684-.606-2.14-.648l.471-.8c-.675-.518-1.388-.734-2.457-1.057.788-.39 1.501-.174 2.252-.26-1.426-.432-5.557-2.289-6.66-2.958-1.03-.626-4.165-2.787-5.081-3.736l2.215.042c-.432-.227-2.578-1.96-4.688-3.931-1.987-1.858-2.587-2.65-3.58-3.91.555.168 1.783.54 3.603.776 2.148.279 3.508.093 4.43.083-.665-.2-2.6-1.498-5.233-2.525-3.292-1.284-4.684-2.201-6.47-4.47C7.5 8.793 2.804 2.488 3.29 2.088c.829-.68 7.763 1.97 9.758 2.575 1.597.482 3.785 1.755 4.445 2.915l.19-1.513c.974.486 2.188 1.792 3.618 3.607 1.43 1.815 2.639 5.51 3.519 7.347.034-.278.469-.792.584-1.708.073-.584.353-.984.19-1.514 1.371.992 2.993 2.769 4.816 5.855 1.822 3.086 2.45 7.023 2.934 9.055.47-.8.896-1.241.98-1.903.082-.662.136-1.293-.092-2.226.508.537.918 1.534 1.123 2.852.153.989-.1 3.74-.1 3.74l.714.215-.508 1.103 1.069.323c-.367.177-.827.693-.903 1.298Z" fill="#2FC4A7"/><path d="m35.945 41.179 2.452.394c-1.24-6.251-4.01-11.716-12.073-20.954C21.715 15.34 13.07 8.41 9.06 6.63c2.216 1.87 10.085 7.05 16.346 15.17 5.326 6.908 8.94 12.315 10.54 19.38Z" fill="#2FC4A7"/><path d="m35.945 41.179 2.452.394c-1.24-6.251-4.01-11.716-12.073-20.954C21.715 15.34 13.07 8.41 9.06 6.63c2.216 1.87 10.085 7.05 16.346 15.17 5.326 6.908 8.94 12.315 10.54 19.38Z" fill="#000" fill-opacity=".4"/><ellipse cx="40.272" cy="40.094" rx="7.461" ry="8.705" transform="rotate(-26.064 40.272 40.094)" fill="#D0333D"/><ellipse cx="40.272" cy="40.094" rx="7.461" ry="8.705" transform="rotate(-26.064 40.272 40.094)" fill="#fff" fill-opacity=".2"/><ellipse cx="40.272" cy="40.094" rx="7.461" ry="8.705" transform="rotate(-26.064 40.272 40.094)" stroke="#FAA21E" stroke-width="2.487"/><ellipse cx="39.727" cy="38.976" rx="4.264" ry="4.974" transform="rotate(-26.064 39.727 38.976)" fill="#D0333D"/><ellipse cx="37.714" cy="38.28" rx="1.463" ry="1.707" transform="rotate(-2.665 37.714 38.28)" fill="#FEFEFE"/></g><defs><clipPath id="araa"><path fill="#fff" transform="matrix(-1 0 0 1 50 0)" d="M0 0h50v50H0z"/></clipPath></defs></svg>