<svg width="50" height="50" viewBox="0 0 50 50" fill="none" xmlns="http://www.w3.org/2000/svg">
<path d="M29.9056 10.0001C25.735 8.98157 21.6466 10.6931 19.5 14C13.7756 22.8188 16.8803 23.8998 10 28.5C6.5 30.8401 1.5 32.161 1.5 37.0001C1.5 41.8392 10.5048 47.0603 21.3192 45.8262C30.9789 44.7238 39.9789 41.9679 46.0049 31.8402C49.1336 26.582 48.1515 22.677 46.0049 19.9211C44.1085 17.4865 41.1751 17.4413 37.4186 15.5118C34.1987 13.858 34 11 29.9056 10.0001Z" fill="#CE4317"/>
<path d="M35.5875 17.0583C33.7536 15.6168 32.1351 11.7178 31.4788 12.3729C30.1093 13.7401 30.5658 17.9953 33.7985 20.3569C37.5624 23.1065 42.3849 21.143 42.4354 19.8695C42.4735 18.9058 37.4215 18.4998 35.5875 17.0583Z" fill="#CE4317"/>
<path d="M35.5875 17.0583C33.7536 15.6168 32.1351 11.7178 31.4788 12.3729C30.1093 13.7401 30.5658 17.9953 33.7985 20.3569C37.5624 23.1065 42.3849 21.143 42.4354 19.8695C42.4735 18.9058 37.4215 18.4998 35.5875 17.0583Z" fill="black" fill-opacity="0.3"/>
<path d="M39.3707 10.6737C38.8841 12.893 36.4206 15.4407 35.1192 17.2608C35.1192 17.2608 35.2056 17.7811 35.8123 18.2149C36.419 18.6487 36.9392 18.5622 36.9392 18.5622C38.3559 17.4358 41.8487 14.0042 42.7515 11.7157C43.6543 9.4273 44.1127 5.96529 44.229 4.52034L39.9806 4.69165C40.0958 5.38531 39.8573 8.45439 39.3707 10.6737Z" fill="#2FC4A7"/>
<path d="M39.3707 10.6737C38.8841 12.893 36.4206 15.4407 35.1192 17.2608C35.1192 17.2608 35.2056 17.7811 35.8123 18.2149C36.419 18.6487 36.9392 18.5622 36.9392 18.5622C38.3559 17.4358 41.8487 14.0042 42.7515 11.7157C43.6543 9.4273 44.1127 5.96529 44.229 4.52034L39.9806 4.69165C40.0958 5.38531 39.8573 8.45439 39.3707 10.6737Z" fill="black" fill-opacity="0.4"/>
</svg>
