<?xml version="1.0" encoding="utf-8"?><svg fill="none" viewBox="0 0 50 50" xmlns="http://www.w3.org/2000/svg" width="50" height="50"><g clip-path="url(#avea)"><path d="M23.497 11.252a2.557 2.557 0 0 1 3.006 0l15.388 11.18a2.557 2.557 0 0 1 .928 2.858l-5.878 18.089a2.558 2.558 0 0 1-2.431 1.768H15.49a2.558 2.558 0 0 1-2.431-1.768L7.18 25.29a2.557 2.557 0 0 1 .928-2.858l15.388-11.18Z" fill="#D0333D"/><path d="M23.497 11.252a2.557 2.557 0 0 1 3.006 0l15.388 11.18a2.557 2.557 0 0 1 .928 2.858l-5.878 18.089a2.558 2.558 0 0 1-2.431 1.768H15.49a2.558 2.558 0 0 1-2.431-1.768L7.18 25.29a2.557 2.557 0 0 1 .928-2.858l15.388-11.18Z" fill="#000" fill-opacity=".3"/><path d="M23.497 11.252a2.557 2.557 0 0 1 3.006 0l15.388 11.18a2.557 2.557 0 0 1 .928 2.858l-5.878 18.089a2.558 2.558 0 0 1-2.431 1.768H15.49a2.558 2.558 0 0 1-2.431-1.768L7.18 25.29a2.557 2.557 0 0 1 .928-2.858l15.388-11.18Z" stroke="#D0333D" stroke-width="5.114"/><path d="M23.497 11.252a2.557 2.557 0 0 1 3.006 0l15.388 11.18a2.557 2.557 0 0 1 .928 2.858l-5.878 18.089a2.558 2.558 0 0 1-2.431 1.768H15.49a2.558 2.558 0 0 1-2.431-1.768L7.18 25.29a2.557 2.557 0 0 1 .928-2.858l15.388-11.18Z" stroke="#fff" stroke-opacity=".2" stroke-width="5.114"/><path d="M22.596 10.01a4.091 4.091 0 0 1 4.808 0l15.388 11.18a4.092 4.092 0 0 1 1.486 4.575L38.4 43.853a4.09 4.09 0 0 1-3.89 2.827H15.49a4.09 4.09 0 0 1-3.89-2.827L5.722 25.765a4.092 4.092 0 0 1 1.486-4.575l15.388-11.18Z" stroke="#D0333D" stroke-width="2.045"/><path d="M22.596 10.01a4.091 4.091 0 0 1 4.808 0l15.388 11.18a4.092 4.092 0 0 1 1.486 4.575L38.4 43.853a4.09 4.09 0 0 1-3.89 2.827H15.49a4.09 4.09 0 0 1-3.89-2.827L5.722 25.765a4.092 4.092 0 0 1 1.486-4.575l15.388-11.18Z" stroke="#fff" stroke-opacity=".6" stroke-width="2.045"/><circle cx="25" cy="12" r="2" fill="#080B16"/><path d="M27.024 4.359c.162.706.178 1.712-.04 2.833a8.792 8.792 0 0 1-.338 1.255c.612.23.972.469 1.754 1.013l.17-.45c.154-.454.282-.935.379-1.434.258-1.33.263-2.629.026-3.668-.119-.518-.31-1.02-.6-1.43-.295-.417-.73-.787-1.322-.902-.59-.116-1.132.063-1.561.338-.423.272-.787.665-1.09 1.1-.609.874-1.088 2.08-1.346 3.41s-.264 2.629-.026 3.668c.119.518.309 1.02.6 1.43.295.417.73.787 1.321.902.59.116 1.133-.063 1.562-.338.163-.105.318-.228.463-.364-.076-.657-.53-1.324-1.236-1.574a1.505 1.505 0 0 1-.304.244.472.472 0 0 1-.1.05.468.468 0 0 1-.075-.084c-.092-.13-.199-.362-.28-.717-.162-.706-.178-1.712.04-2.833.216-1.12.607-2.047 1.02-2.641.208-.298.394-.473.528-.559a.479.479 0 0 1 .1-.051.48.48 0 0 1 .075.085c.092.13.199.362.28.717Z" fill="#D0333D"/><path d="M27.024 4.359c.162.706.178 1.713-.04 2.833a8.788 8.788 0 0 1-.34 1.26c.271.103.432.177.737.339.73-1.992.757-4.05.322-4.805-.45-.783-.762-.567-1.033-.43.016.015.041.04.074.086.092.13.199.362.28.717Z" fill="#D0333D"/><path d="M27.024 4.359c.162.706.178 1.713-.04 2.833a8.788 8.788 0 0 1-.34 1.26c.271.103.432.177.737.339.73-1.992.757-4.05.322-4.805-.45-.783-.762-.567-1.033-.43.016.015.041.04.074.086.092.13.199.362.28.717Z" fill="#000" fill-opacity=".2"/><path d="M25.436 10.392a.472.472 0 0 1-.1.05c.135.204.645.577 1.064.117-.326-.249-.437-.35-.66-.41a1.505 1.505 0 0 1-.304.243Z" fill="#D0333D"/><path d="M25.436 10.392a.472.472 0 0 1-.1.05c.135.204.645.577 1.064.117-.326-.249-.437-.35-.66-.41a1.505 1.505 0 0 1-.304.243Z" fill="#000" fill-opacity=".2"/><path d="M22 20c1 0 2.75.25 4 .75s4 1.75 5 2.75.75 3.5.75 4.5-1.25 3.25-1.5 4-.75 2-1 3.25c-.2 1-.167 2.75-.25 3.5-.75.25-1.75.75-4 .75s-3.417-.333-4.25-.5c.333-1 1-3.25 1-4.25s-.167-1.75-.25-2c-.333-.417-1.15-1.5-1.75-2.5-.6-1-1.25-1.75-1.25-2.75 0-1.5.363-3.363 1-4 .5-.5 1.46-1 2.25-1 .75 0 2.5.5 3 1s.25 1.25-.5 1.5-1.75-.25-2.25.25c-.395.395-.395 1.355 0 1.75.5.5.75.75 1.75 1.25l.018.008.03.024c.19.163.355.331.432.487.1.201.144.423.165.653.01.114.014.229.017.343.003.111.005.229.01.336a.25.25 0 0 0 .264.235.25.25 0 0 0 .235-.263c-.005-.097-.008-.202-.01-.321a5.911 5.911 0 0 0-.02-.375 2.317 2.317 0 0 0-.216-.83 1.243 1.243 0 0 0-.045-.08c1.52.21 4.196.12 4.87-.217.5-.25 1-1 1.2-1.75.125-.469-.185-.477-.45-.25-.25.25-.35.85-.75 1.25-.5.5-4.632.559-5.75 0-1-.5-1.75-1-1.5-1.75.167-.5 1.25.25 2.25-.1.973-.34 1.5-1.65 1-2.4s-3-1.5-3.75-1.5-1.417.417-1.75.5c.25-.667 1.2-2.25 2-2.25Z" fill="#D0333D"/><path d="M22 20c1 0 2.75.25 4 .75s4 1.75 5 2.75.75 3.5.75 4.5-1.25 3.25-1.5 4-.75 2-1 3.25c-.2 1-.167 2.75-.25 3.5-.75.25-1.75.75-4 .75s-3.417-.333-4.25-.5c.333-1 1-3.25 1-4.25s-.167-1.75-.25-2c-.333-.417-1.15-1.5-1.75-2.5-.6-1-1.25-1.75-1.25-2.75 0-1.5.363-3.363 1-4 .5-.5 1.46-1 2.25-1 .75 0 2.5.5 3 1s.25 1.25-.5 1.5-1.75-.25-2.25.25c-.395.395-.395 1.355 0 1.75.5.5.75.75 1.75 1.25l.018.008.03.024c.19.163.355.331.432.487.1.201.144.423.165.653.01.114.014.229.017.343.003.111.005.229.01.336a.25.25 0 0 0 .264.235.25.25 0 0 0 .235-.263c-.005-.097-.008-.202-.01-.321a5.911 5.911 0 0 0-.02-.375 2.317 2.317 0 0 0-.216-.83 1.243 1.243 0 0 0-.045-.08c1.52.21 4.196.12 4.87-.217.5-.25 1-1 1.2-1.75.125-.469-.185-.477-.45-.25-.25.25-.35.85-.75 1.25-.5.5-4.632.559-5.75 0-1-.5-1.75-1-1.5-1.75.167-.5 1.25.25 2.25-.1.973-.34 1.5-1.65 1-2.4s-3-1.5-3.75-1.5-1.417.417-1.75.5c.25-.667 1.2-2.25 2-2.25Z" fill="#fff" fill-opacity=".8"/></g><defs><clipPath id="avea"><path fill="#fff" transform="matrix(-1 0 0 1 50 0)" d="M0 0h50v50H0z"/></clipPath></defs></svg>