<?xml version="1.0" encoding="utf-8"?><svg fill="none" viewBox="0 0 50 50" xmlns="http://www.w3.org/2000/svg" width="50" height="50"><g clip-path="url(#auta)"><path d="M23.497 11.252a2.557 2.557 0 0 1 3.006 0l15.388 11.18a2.557 2.557 0 0 1 .928 2.858l-5.878 18.089a2.558 2.558 0 0 1-2.431 1.768H15.49a2.558 2.558 0 0 1-2.431-1.768L7.18 25.29a2.557 2.557 0 0 1 .928-2.858l15.388-11.18Z" fill="#D0333D"/><path d="M23.497 11.252a2.557 2.557 0 0 1 3.006 0l15.388 11.18a2.557 2.557 0 0 1 .928 2.858l-5.878 18.089a2.558 2.558 0 0 1-2.431 1.768H15.49a2.558 2.558 0 0 1-2.431-1.768L7.18 25.29a2.557 2.557 0 0 1 .928-2.858l15.388-11.18Z" fill="#000" fill-opacity=".3"/><path d="M23.497 11.252a2.557 2.557 0 0 1 3.006 0l15.388 11.18a2.557 2.557 0 0 1 .928 2.858l-5.878 18.089a2.558 2.558 0 0 1-2.431 1.768H15.49a2.558 2.558 0 0 1-2.431-1.768L7.18 25.29a2.557 2.557 0 0 1 .928-2.858l15.388-11.18Z" stroke="#D0333D" stroke-width="5.114"/><path d="M23.497 11.252a2.557 2.557 0 0 1 3.006 0l15.388 11.18a2.557 2.557 0 0 1 .928 2.858l-5.878 18.089a2.558 2.558 0 0 1-2.431 1.768H15.49a2.558 2.558 0 0 1-2.431-1.768L7.18 25.29a2.557 2.557 0 0 1 .928-2.858l15.388-11.18Z" stroke="#fff" stroke-opacity=".2" stroke-width="5.114"/><path d="M22.596 10.01a4.091 4.091 0 0 1 4.808 0l15.388 11.18a4.092 4.092 0 0 1 1.486 4.575L38.4 43.853a4.09 4.09 0 0 1-3.89 2.827H15.49a4.09 4.09 0 0 1-3.89-2.827L5.722 25.765a4.092 4.092 0 0 1 1.486-4.575l15.388-11.18Z" stroke="#D0333D" stroke-width="2.045"/><path d="M22.596 10.01a4.091 4.091 0 0 1 4.808 0l15.388 11.18a4.092 4.092 0 0 1 1.486 4.575L38.4 43.853a4.09 4.09 0 0 1-3.89 2.827H15.49a4.09 4.09 0 0 1-3.89-2.827L5.722 25.765a4.092 4.092 0 0 1 1.486-4.575l15.388-11.18Z" stroke="#fff" stroke-opacity=".6" stroke-width="2.045"/><circle cx="25" cy="12" r="2" fill="#080B16"/><path d="M27.024 4.359c.162.706.178 1.712-.04 2.833a8.792 8.792 0 0 1-.338 1.255c.612.23.972.469 1.754 1.013l.17-.45c.154-.454.282-.935.379-1.434.258-1.33.263-2.629.026-3.668-.119-.518-.31-1.02-.6-1.43-.295-.417-.73-.787-1.322-.902-.59-.116-1.132.063-1.561.338-.423.272-.787.665-1.09 1.1-.609.874-1.088 2.08-1.346 3.41s-.264 2.629-.026 3.668c.119.518.309 1.02.6 1.43.295.417.73.787 1.321.902.59.116 1.133-.063 1.562-.338.163-.105.318-.228.463-.364-.076-.657-.53-1.324-1.236-1.574a1.505 1.505 0 0 1-.304.244.472.472 0 0 1-.1.05.468.468 0 0 1-.075-.084c-.092-.13-.199-.362-.28-.717-.162-.706-.178-1.712.04-2.833.216-1.12.607-2.047 1.02-2.641.208-.298.394-.473.528-.559a.479.479 0 0 1 .1-.051.48.48 0 0 1 .075.085c.092.13.199.362.28.717Z" fill="#D0333D"/><path d="M27.024 4.359c.162.706.178 1.713-.04 2.833a8.788 8.788 0 0 1-.34 1.26c.271.103.432.177.737.339.73-1.992.757-4.05.322-4.805-.45-.783-.762-.567-1.033-.43.016.015.041.04.074.086.092.13.199.362.28.717Z" fill="#D0333D"/><path d="M27.024 4.359c.162.706.178 1.713-.04 2.833a8.788 8.788 0 0 1-.34 1.26c.271.103.432.177.737.339.73-1.992.757-4.05.322-4.805-.45-.783-.762-.567-1.033-.43.016.015.041.04.074.086.092.13.199.362.28.717Z" fill="#000" fill-opacity=".2"/><path d="M25.436 10.392a.472.472 0 0 1-.1.05c.135.204.645.577 1.064.117-.326-.249-.437-.35-.66-.41a1.505 1.505 0 0 1-.304.243Z" fill="#D0333D"/><path d="M25.436 10.392a.472.472 0 0 1-.1.05c.135.204.645.577 1.064.117-.326-.249-.437-.35-.66-.41a1.505 1.505 0 0 1-.304.243Z" fill="#000" fill-opacity=".2"/><g clip-path="url(#autb)"><circle cx="25" cy="29.5" r="9.5" stroke="#D0333D"/><circle cx="25" cy="29.5" r="9.5" stroke="#fff" stroke-opacity=".8"/><path d="M25.057 21.722c.321 0 .668.15 1.03.507.363.359.714.902 1.02 1.614.609 1.422.998 3.422.998 5.657s-.39 4.234-.999 5.657c-.305.711-.656 1.256-1.02 1.615-.36.356-.708.506-1.029.506-.32 0-.668-.15-1.03-.506-.364-.36-.713-.904-1.019-1.615-.609-1.423-.999-3.422-.999-5.657s.39-4.235 1-5.657c.304-.711.654-1.255 1.018-1.614.361-.357.71-.507 1.03-.507Z" stroke="#D0333D"/><path d="M25.057 21.722c.321 0 .668.15 1.03.507.363.359.714.902 1.02 1.614.609 1.422.998 3.422.998 5.657s-.39 4.234-.999 5.657c-.305.711-.656 1.256-1.02 1.615-.36.356-.708.506-1.029.506-.32 0-.668-.15-1.03-.506-.364-.36-.713-.904-1.019-1.615-.609-1.423-.999-3.422-.999-5.657s.39-4.235 1-5.657c.304-.711.654-1.255 1.018-1.614.361-.357.71-.507 1.03-.507Z" stroke="#fff" stroke-opacity=".8"/><path d="M31.793 25.611c.16.278.204.653.076 1.145-.13.494-.424 1.07-.888 1.69-.927 1.239-2.465 2.576-4.4 3.694-1.935 1.117-3.862 1.78-5.398 1.963-.77.091-1.416.06-1.909-.076-.49-.134-.792-.36-.952-.638-.16-.278-.206-.654-.078-1.145.13-.495.426-1.07.89-1.69.927-1.239 2.464-2.576 4.399-3.693 1.935-1.118 3.862-1.78 5.399-1.964.768-.091 1.415-.06 1.907.075.49.135.794.361.954.64Z" stroke="#D0333D"/><path d="M31.793 25.611c.16.278.204.653.076 1.145-.13.494-.424 1.07-.888 1.69-.927 1.239-2.465 2.576-4.4 3.694-1.935 1.117-3.862 1.78-5.398 1.963-.77.091-1.416.06-1.909-.076-.49-.134-.792-.36-.952-.638-.16-.278-.206-.654-.078-1.145.13-.495.426-1.07.89-1.69.927-1.239 2.464-2.576 4.399-3.693 1.935-1.118 3.862-1.78 5.399-1.964.768-.091 1.415-.06 1.907.075.49.135.794.361.954.64Z" stroke="#fff" stroke-opacity=".8"/><path d="M31.793 33.39c-.16.277-.464.502-.953.637-.493.136-1.14.168-1.908.076-1.537-.183-3.464-.846-5.4-1.964-1.934-1.117-3.471-2.454-4.398-3.693-.464-.62-.76-1.196-.89-1.69-.127-.492-.083-.867.078-1.145.16-.277.463-.504.953-.639.492-.135 1.139-.166 1.908-.074 1.536.183 3.462.845 5.398 1.962 1.935 1.118 3.473 2.455 4.4 3.694.463.62.76 1.195.888 1.69.128.491.084.867-.076 1.145Z" stroke="#D0333D"/><path d="M31.793 33.39c-.16.277-.464.502-.953.637-.493.136-1.14.168-1.908.076-1.537-.183-3.464-.846-5.4-1.964-1.934-1.117-3.471-2.454-4.398-3.693-.464-.62-.76-1.196-.89-1.69-.127-.492-.083-.867.078-1.145.16-.277.463-.504.953-.639.492-.135 1.139-.166 1.908-.074 1.536.183 3.462.845 5.398 1.962 1.935 1.118 3.473 2.455 4.4 3.694.463.62.76 1.195.888 1.69.128.491.084.867-.076 1.145Z" stroke="#fff" stroke-opacity=".8"/><circle cx="25" cy="29.5" r="1.5" fill="#D0333D"/><circle cx="25" cy="29.5" r="1.5" fill="#fff" fill-opacity=".8"/><circle cx="20" cy="34" r="1" fill="#D0333D"/><circle cx="20" cy="34" r="1" fill="#fff" fill-opacity=".8"/><circle cx="23.5" cy="23" r="1" fill="#D0333D"/><circle cx="23.5" cy="23" r="1" fill="#fff" fill-opacity=".8"/><circle cx="31.5" cy="31.5" r="1" fill="#D0333D"/><circle cx="31.5" cy="31.5" r="1" fill="#fff" fill-opacity=".8"/></g></g><defs><clipPath id="auta"><path fill="#fff" transform="matrix(-1 0 0 1 50 0)" d="M0 0h50v50H0z"/></clipPath><clipPath id="autb"><path fill="#fff" transform="matrix(-1 0 0 1 35 19.5)" d="M0 0h20v20H0z"/></clipPath></defs></svg>