<?xml version="1.0" encoding="utf-8"?><svg fill="none" viewBox="0 0 50 50" xmlns="http://www.w3.org/2000/svg" width="50" height="50"><g clip-path="url(#avja)"><path d="M23.497 11.252a2.557 2.557 0 0 1 3.006 0l15.388 11.18a2.557 2.557 0 0 1 .928 2.858l-5.878 18.089a2.558 2.558 0 0 1-2.431 1.768H15.49a2.558 2.558 0 0 1-2.431-1.768L7.18 25.29a2.557 2.557 0 0 1 .928-2.858l15.388-11.18Z" fill="#D0333D"/><path d="M23.497 11.252a2.557 2.557 0 0 1 3.006 0l15.388 11.18a2.557 2.557 0 0 1 .928 2.858l-5.878 18.089a2.558 2.558 0 0 1-2.431 1.768H15.49a2.558 2.558 0 0 1-2.431-1.768L7.18 25.29a2.557 2.557 0 0 1 .928-2.858l15.388-11.18Z" fill="#000" fill-opacity=".3"/><path d="M23.497 11.252a2.557 2.557 0 0 1 3.006 0l15.388 11.18a2.557 2.557 0 0 1 .928 2.858l-5.878 18.089a2.558 2.558 0 0 1-2.431 1.768H15.49a2.558 2.558 0 0 1-2.431-1.768L7.18 25.29a2.557 2.557 0 0 1 .928-2.858l15.388-11.18Z" stroke="#D0333D" stroke-width="5.114"/><path d="M23.497 11.252a2.557 2.557 0 0 1 3.006 0l15.388 11.18a2.557 2.557 0 0 1 .928 2.858l-5.878 18.089a2.558 2.558 0 0 1-2.431 1.768H15.49a2.558 2.558 0 0 1-2.431-1.768L7.18 25.29a2.557 2.557 0 0 1 .928-2.858l15.388-11.18Z" stroke="#fff" stroke-opacity=".2" stroke-width="5.114"/><path d="M22.596 10.01a4.091 4.091 0 0 1 4.808 0l15.388 11.18a4.092 4.092 0 0 1 1.486 4.575L38.4 43.853a4.09 4.09 0 0 1-3.89 2.827H15.49a4.09 4.09 0 0 1-3.89-2.827L5.722 25.765a4.092 4.092 0 0 1 1.486-4.575l15.388-11.18Z" stroke="#D0333D" stroke-width="2.045"/><path d="M22.596 10.01a4.091 4.091 0 0 1 4.808 0l15.388 11.18a4.092 4.092 0 0 1 1.486 4.575L38.4 43.853a4.09 4.09 0 0 1-3.89 2.827H15.49a4.09 4.09 0 0 1-3.89-2.827L5.722 25.765a4.092 4.092 0 0 1 1.486-4.575l15.388-11.18Z" stroke="#fff" stroke-opacity=".6" stroke-width="2.045"/><circle cx="25" cy="12" r="2" fill="#080B16"/><path d="M27.024 4.359c.162.706.178 1.712-.04 2.833a8.792 8.792 0 0 1-.338 1.255c.612.23.972.469 1.754 1.013l.17-.45c.154-.454.282-.935.379-1.434.258-1.33.263-2.629.026-3.668-.119-.518-.31-1.02-.6-1.43-.295-.417-.73-.787-1.322-.902-.59-.116-1.132.063-1.561.338-.423.272-.787.665-1.09 1.1-.609.874-1.088 2.08-1.346 3.41s-.264 2.629-.026 3.668c.119.518.309 1.02.6 1.43.295.417.73.787 1.321.902.59.116 1.133-.063 1.562-.338.163-.105.318-.228.463-.364-.076-.657-.53-1.324-1.236-1.574a1.505 1.505 0 0 1-.304.244.472.472 0 0 1-.1.05.468.468 0 0 1-.075-.084c-.092-.13-.199-.362-.28-.717-.162-.706-.178-1.712.04-2.833.216-1.12.607-2.047 1.02-2.641.208-.298.394-.473.528-.559a.479.479 0 0 1 .1-.051.48.48 0 0 1 .075.085c.092.13.199.362.28.717Z" fill="#D0333D"/><path d="M27.024 4.359c.162.706.178 1.713-.04 2.833a8.788 8.788 0 0 1-.34 1.26c.271.103.432.177.737.339.73-1.992.757-4.05.322-4.805-.45-.783-.762-.567-1.033-.43.016.015.041.04.074.086.092.13.199.362.28.717Z" fill="#D0333D"/><path d="M27.024 4.359c.162.706.178 1.713-.04 2.833a8.788 8.788 0 0 1-.34 1.26c.271.103.432.177.737.339.73-1.992.757-4.05.322-4.805-.45-.783-.762-.567-1.033-.43.016.015.041.04.074.086.092.13.199.362.28.717Z" fill="#000" fill-opacity=".2"/><path d="M25.436 10.392a.472.472 0 0 1-.1.05c.135.204.645.577 1.064.117-.326-.249-.437-.35-.66-.41a1.505 1.505 0 0 1-.304.243Z" fill="#D0333D"/><path d="M25.436 10.392a.472.472 0 0 1-.1.05c.135.204.645.577 1.064.117-.326-.249-.437-.35-.66-.41a1.505 1.505 0 0 1-.304.243Z" fill="#000" fill-opacity=".2"/><path d="M28.83 34.358c.4-.152 1.194-1.775 1.335-1.997l-.388-.002s-.94 1.836-1.934 1.715c-.995-.12-.593-3.074-.593-3.074h-.448s.096 2.995 0 3.25c-.096.255-1.302.75-1.802.75-.338 0-1-.5-1-.5l1.25-3.14h-.5s-1.212 2.78-1.5 2.714c-.288-.065-1.156-2.444-1.156-2.444l-.671.124s1.444 2.35 1.077 2.496c-.158.063-1.25-.331-1.25-.331l-1-.87h-.5s.96 1.085 1.344 1.31c.384.223 1.926.717 2.156.891.44.334.5.5.442 1.377-.06.932-.06 1.289-.176 1.86L23.25 39.5h3.25s-.457-.777-.479-1.514c-.021-.736-.285-1.3.245-2.25.268-.48 1.545-.99 2.565-1.378Z" fill="#D0333D"/><path d="M28.83 34.358c.4-.152 1.194-1.775 1.335-1.997l-.388-.002s-.94 1.836-1.934 1.715c-.995-.12-.593-3.074-.593-3.074h-.448s.096 2.995 0 3.25c-.096.255-1.302.75-1.802.75-.338 0-1-.5-1-.5l1.25-3.14h-.5s-1.212 2.78-1.5 2.714c-.288-.065-1.156-2.444-1.156-2.444l-.671.124s1.444 2.35 1.077 2.496c-.158.063-1.25-.331-1.25-.331l-1-.87h-.5s.96 1.085 1.344 1.31c.384.223 1.926.717 2.156.891.44.334.5.5.442 1.377-.06.932-.06 1.289-.176 1.86L23.25 39.5h3.25s-.457-.777-.479-1.514c-.021-.736-.285-1.3.245-2.25.268-.48 1.545-.99 2.565-1.378Z" fill="#fff" fill-opacity=".8"/><circle cx="20.5" cy="28.5" r="5.5" fill="#D0333D"/><circle cx="20.5" cy="28.5" r="5.5" fill="#fff" fill-opacity=".8"/><circle cx="30.5" cy="30" r="4.5" fill="#D0333D"/><circle cx="30.5" cy="30" r="4.5" fill="#fff" fill-opacity=".8"/><circle cx="26" cy="26" r="6.5" fill="#D0333D"/><circle cx="26" cy="26" r="6.5" fill="#fff" fill-opacity=".8"/></g><defs><clipPath id="avja"><path fill="#fff" transform="matrix(-1 0 0 1 50 0)" d="M0 0h50v50H0z"/></clipPath></defs></svg>