<svg width="50" height="50" viewBox="0 0 50 50" fill="none" xmlns="http://www.w3.org/2000/svg">
<path d="M16 11.9999L17.5 19.5C20 19.0002 22 18 25 18C27.2812 18 29.5 18.5001 32.5 19.5L33 15.4999C30.7353 13.3823 27 13.9995 25 13.9999C23 14.0003 18.8309 9.88228 16 11.9999Z" fill="#2FC4A7"/>
<path d="M16 11.9999L17.5 19.5C20 19.0002 22 18 25 18C27.2812 18 29.5 18.5001 32.5 19.5L33 15.4999C30.7353 13.3823 27 13.9995 25 13.9999C23 14.0003 18.8309 9.88228 16 11.9999Z" fill="white" fill-opacity="0.8"/>
<path d="M44.5 34.5C46.0797 43.5 35.7303 47.579 24.9123 47.579C14.0943 47.579 5.15487 42.5 6.5 34.5C8.5 22.6052 16.5 18 25 18C33.5 18 42.5 23.1052 44.5 34.5Z" fill="#2FC4A7"/>
<path d="M44.5 34.5C46.0797 43.5 35.7303 47.579 24.9123 47.579C14.0943 47.579 5.15487 42.5 6.5 34.5C8.5 22.6052 16.5 18 25 18C33.5 18 42.5 23.1052 44.5 34.5Z" fill="white" fill-opacity="0.4"/>
<path d="M12.5 39.5C10 37 9.50001 34 10 32C11 34 15.5 37.5 19.5 39C24.1109 40.7291 31.5 41.4999 37 41C34.5 42.5 29.4 44 25 44C19.5 44 15.5 42.5 12.5 39.5Z" fill="#2FC4A7"/>
<path d="M12.5 39.5C10 37 9.50001 34 10 32C11 34 15.5 37.5 19.5 39C24.1109 40.7291 31.5 41.4999 37 41C34.5 42.5 29.4 44 25 44C19.5 44 15.5 42.5 12.5 39.5Z" fill="white" fill-opacity="0.2"/>
<path d="M11.5 10.5L16.807 15.5878C23.084 13.9707 26.6281 13.9165 33.0175 15.5878L37.5 10C35.9497 6.89193 31 4.00005 28 6.0002C27 3.00005 21.5 2.99991 20 5.99991C15.827 4.8532 12 7 11.5 10.5Z" fill="#2FC4A7"/>
<path d="M11.5 10.5L16.807 15.5878C23.084 13.9707 26.6281 13.9165 33.0175 15.5878L37.5 10C35.9497 6.89193 31 4.00005 28 6.0002C27 3.00005 21.5 2.99991 20 5.99991C15.827 4.8532 12 7 11.5 10.5Z" fill="white" fill-opacity="0.4"/>
</svg>
