<svg width="51" height="51" viewBox="0 0 51 51" fill="none" xmlns="http://www.w3.org/2000/svg">
<g clip-path="url(#clip0_1338_8057)">
<g clip-path="url(#clip1_1338_8057)">
<path d="M37.0443 15.6078V19.2307C37.6611 18.476 39.1721 16.5136 42.1325 16.5136C45.8331 16.5136 47.2208 20.5893 47.2208 23.7593C47.2208 26.9294 45.3705 31.0051 42.1325 31.0051C39.5422 31.0051 37.5069 28.7408 37.0443 28.288V31.9109C37.5069 31.9109 38.432 33.7223 42.1325 33.7223C46.7582 33.7223 49.9962 29.6466 49.9962 23.7593C49.9962 17.8721 46.7582 13.7964 42.1325 13.7964C38.8946 13.7964 37.5069 15.6078 37.0443 15.6078Z" fill="#898989"/>
<path d="M37.0443 15.6078V19.2307C37.6611 18.476 39.1721 16.5136 42.1325 16.5136C45.8331 16.5136 47.2208 20.5893 47.2208 23.7593C47.2208 26.9294 45.3705 31.0051 42.1325 31.0051C39.5422 31.0051 37.5069 28.7408 37.0443 28.288V31.9109C37.5069 31.9109 38.432 33.7223 42.1325 33.7223C46.7582 33.7223 49.9962 29.6466 49.9962 23.7593C49.9962 17.8721 46.7582 13.7964 42.1325 13.7964C38.8946 13.7964 37.5069 15.6078 37.0443 15.6078Z" fill="white" fill-opacity="0.95"/>
<path d="M5.16284 7.8186H38.0406V44.1834C38.0406 44.1834 35.0517 49.1649 21.6017 49.1649C8.15176 49.1649 5.16284 44.1834 5.16284 44.1834V7.8186Z" fill="#898989"/>
<path d="M5.16284 7.8186H38.0406V44.1834C38.0406 44.1834 35.0517 49.1649 21.6017 49.1649C8.15176 49.1649 5.16284 44.1834 5.16284 44.1834V7.8186Z" fill="white" fill-opacity="0.85"/>
<ellipse cx="21.6017" cy="7.32046" rx="16.4389" ry="4.48333" fill="#FEFEFE"/>
<ellipse cx="21.6018" cy="7.32046" rx="14.4463" ry="3.48704" fill="#898989"/>
<ellipse cx="21.6018" cy="7.32046" rx="14.4463" ry="3.48704" fill="white" fill-opacity="0.4"/>
<path d="M33.0592 9.31305C33.0592 8.8149 27.9296 7.81861 21.6018 7.81861C15.2741 7.81861 10.1444 8.8149 10.1444 9.31305C10.1444 9.8112 15.2741 10.8075 21.6018 10.8075C27.9296 10.8075 33.0592 9.8112 33.0592 9.31305Z" fill="#FAA21E"/>
<path d="M33.0592 9.31305C33.0592 8.8149 27.9296 7.81861 21.6018 7.81861C15.2741 7.81861 10.1444 8.8149 10.1444 9.31305C10.1444 9.8112 15.2741 10.8075 21.6018 10.8075C27.9296 10.8075 33.0592 9.8112 33.0592 9.31305Z" fill="black" fill-opacity="0.6"/>
</g>
<path fill-rule="evenodd" clip-rule="evenodd" d="M13.2313 26.2445C13.2313 24.2945 13.7027 21.873 14.5313 21.0445C15.1813 20.3945 16.4286 19.7444 17.4563 19.7444C18.4313 19.7444 20.7063 20.3944 21.3563 21.0445C22.0063 21.6945 21.6813 22.6694 20.7063 22.9944C20.2849 23.1349 19.8027 23.0932 19.3386 23.0531C18.7289 23.0004 18.1504 22.9504 17.7813 23.3194C17.2675 23.8333 17.2675 25.0806 17.7813 25.5944C18.2953 26.1084 18.6061 26.4192 19.3563 26.8481C19.3645 26.8576 19.3731 26.8668 19.3822 26.8757C19.4562 26.949 19.5654 27.0353 19.6594 27.1096L19.6671 27.1158L19.6832 27.1285C19.7856 27.2094 19.8955 27.2962 20.0063 27.3911C20.2518 27.6013 20.4413 27.8016 20.5247 27.9698C20.6418 28.2057 20.6968 28.4697 20.7228 28.7574C20.7358 28.901 20.7412 29.0452 20.7451 29.193L20.7474 29.2875C20.7501 29.4026 20.753 29.5227 20.7592 29.6343C20.7745 29.908 21.0087 30.1175 21.2824 30.1022C21.5561 30.0869 21.7656 29.8527 21.7503 29.579C21.745 29.4848 21.7427 29.3863 21.74 29.2743L21.74 29.2743L21.7374 29.167C21.7333 29.0142 21.7273 28.8443 21.7114 28.668C21.6796 28.3168 21.607 27.9189 21.4153 27.5315C23.4197 27.7691 26.6865 27.6419 27.5313 27.2195C28.1813 26.8945 28.8313 25.9194 29.0913 24.9444C29.2539 24.3347 28.8502 24.3244 28.5063 24.6194C28.3628 24.7629 28.2573 24.9951 28.1395 25.2545C27.9905 25.5826 27.8217 25.9541 27.5313 26.2445C26.9123 26.8635 22.0117 26.9626 20.2903 26.343L20.2827 26.337C20.1681 26.2465 20.1078 26.1974 20.0807 26.1705C19.9626 26.0536 19.8006 26.0081 19.6484 26.0338C18.5612 25.4505 17.8164 24.8393 18.1063 23.9694C18.214 23.6463 18.6162 23.7248 19.1531 23.8295C19.6964 23.9354 20.3775 24.0683 21.0313 23.8394C22.2961 23.3968 22.9813 21.6945 22.3313 20.7195C21.6813 19.7445 18.4313 18.7695 17.4563 18.7695C16.7726 18.7695 16.1421 19.0358 15.677 19.2324C15.4789 19.3161 15.3108 19.3871 15.1813 19.4194C15.5063 18.5528 16.7413 16.4944 17.7813 16.4944C19.0813 16.4944 21.3563 16.8195 22.9813 17.4695C24.6063 18.1195 28.1813 19.7444 29.4813 21.0445C30.5922 22.1553 30.5165 24.69 30.471 26.2152C30.4632 26.4749 30.4563 26.7053 30.4563 26.8945C30.4563 27.7869 29.6906 29.4449 29.1053 30.7124C28.8379 31.2913 28.6082 31.7887 28.5063 32.0944C28.4333 32.3136 28.3438 32.5655 28.2453 32.8429C27.9056 33.7999 27.4583 35.0597 27.2063 36.3194C27.0424 37.139 26.9991 38.346 26.9623 39.3706C26.9407 39.9712 26.9214 40.5091 26.8813 40.8695C26.742 40.9159 26.5961 40.969 26.4398 41.0258C25.5017 41.3669 24.1885 41.8445 21.6813 41.8445C19.1742 41.8445 17.7017 41.5261 16.65 41.2987C16.4747 41.2608 16.3111 41.2254 16.1563 41.1945C16.5897 39.8945 17.4563 36.9695 17.4563 35.6695C17.4563 34.3695 17.2397 33.3945 17.1313 33.0695C16.698 32.5278 15.6363 31.1195 14.8563 29.8195C14.6953 29.5512 14.5316 29.2967 14.3731 29.0504C13.7635 28.1032 13.2313 27.2762 13.2313 26.2445Z" fill="#FAA21E"/>
<path fill-rule="evenodd" clip-rule="evenodd" d="M13.2313 26.2445C13.2313 24.2945 13.7027 21.873 14.5313 21.0445C15.1813 20.3945 16.4286 19.7444 17.4563 19.7444C18.4313 19.7444 20.7063 20.3944 21.3563 21.0445C22.0063 21.6945 21.6813 22.6694 20.7063 22.9944C20.2849 23.1349 19.8027 23.0932 19.3386 23.0531C18.7289 23.0004 18.1504 22.9504 17.7813 23.3194C17.2675 23.8333 17.2675 25.0806 17.7813 25.5944C18.2953 26.1084 18.6061 26.4192 19.3563 26.8481C19.3645 26.8576 19.3731 26.8668 19.3822 26.8757C19.4562 26.949 19.5654 27.0353 19.6594 27.1096L19.6671 27.1158L19.6832 27.1285C19.7856 27.2094 19.8955 27.2962 20.0063 27.3911C20.2518 27.6013 20.4413 27.8016 20.5247 27.9698C20.6418 28.2057 20.6968 28.4697 20.7228 28.7574C20.7358 28.901 20.7412 29.0452 20.7451 29.193L20.7474 29.2875C20.7501 29.4026 20.753 29.5227 20.7592 29.6343C20.7745 29.908 21.0087 30.1175 21.2824 30.1022C21.5561 30.0869 21.7656 29.8527 21.7503 29.579C21.745 29.4848 21.7427 29.3863 21.74 29.2743L21.74 29.2743L21.7374 29.167C21.7333 29.0142 21.7273 28.8443 21.7114 28.668C21.6796 28.3168 21.607 27.9189 21.4153 27.5315C23.4197 27.7691 26.6865 27.6419 27.5313 27.2195C28.1813 26.8945 28.8313 25.9194 29.0913 24.9444C29.2539 24.3347 28.8502 24.3244 28.5063 24.6194C28.3628 24.7629 28.2573 24.9951 28.1395 25.2545C27.9905 25.5826 27.8217 25.9541 27.5313 26.2445C26.9123 26.8635 22.0117 26.9626 20.2903 26.343L20.2827 26.337C20.1681 26.2465 20.1078 26.1974 20.0807 26.1705C19.9626 26.0536 19.8006 26.0081 19.6484 26.0338C18.5612 25.4505 17.8164 24.8393 18.1063 23.9694C18.214 23.6463 18.6162 23.7248 19.1531 23.8295C19.6964 23.9354 20.3775 24.0683 21.0313 23.8394C22.2961 23.3968 22.9813 21.6945 22.3313 20.7195C21.6813 19.7445 18.4313 18.7695 17.4563 18.7695C16.7726 18.7695 16.1421 19.0358 15.677 19.2324C15.4789 19.3161 15.3108 19.3871 15.1813 19.4194C15.5063 18.5528 16.7413 16.4944 17.7813 16.4944C19.0813 16.4944 21.3563 16.8195 22.9813 17.4695C24.6063 18.1195 28.1813 19.7444 29.4813 21.0445C30.5922 22.1553 30.5165 24.69 30.471 26.2152C30.4632 26.4749 30.4563 26.7053 30.4563 26.8945C30.4563 27.7869 29.6906 29.4449 29.1053 30.7124C28.8379 31.2913 28.6082 31.7887 28.5063 32.0944C28.4333 32.3136 28.3438 32.5655 28.2453 32.8429C27.9056 33.7999 27.4583 35.0597 27.2063 36.3194C27.0424 37.139 26.9991 38.346 26.9623 39.3706C26.9407 39.9712 26.9214 40.5091 26.8813 40.8695C26.742 40.9159 26.5961 40.969 26.4398 41.0258C25.5017 41.3669 24.1885 41.8445 21.6813 41.8445C19.1742 41.8445 17.7017 41.5261 16.65 41.2987C16.4747 41.2608 16.3111 41.2254 16.1563 41.1945C16.5897 39.8945 17.4563 36.9695 17.4563 35.6695C17.4563 34.3695 17.2397 33.3945 17.1313 33.0695C16.698 32.5278 15.6363 31.1195 14.8563 29.8195C14.6953 29.5512 14.5316 29.2967 14.3731 29.0504C13.7635 28.1032 13.2313 27.2762 13.2313 26.2445Z" fill="white" fill-opacity="0.4"/>
</g>
<defs>
<clipPath id="clip0_1338_8057">
<rect width="50" height="50" fill="white" transform="translate(0.181396 0.844482)"/>
</clipPath>
<clipPath id="clip1_1338_8057">
<rect width="49.8148" height="49.8148" fill="white" transform="translate(0.181396 0.844482)"/>
</clipPath>
</defs>
</svg>
