<svg width="40" height="40" viewBox="0 0 40 40" fill="none" xmlns="http://www.w3.org/2000/svg">
<path fill-rule="evenodd" clip-rule="evenodd" d="M7 16C7 13.0001 7.72521 9.27473 9 8.00001C10 7.00006 11.9189 6 13.5 6C15 6 18.5 6.99996 19.5 8.00001C20.5 9.00006 20 10.5 18.5 11C17.8516 11.2161 17.1099 11.152 16.3958 11.0903C15.4579 11.0092 14.5678 10.9322 14 11.5C13.2094 12.2906 13.2095 14.2095 14 15C15 16 15.5 16.5 17.5 17.5001C17.5146 17.5073 17.5295 17.5146 17.5448 17.5217C17.5614 17.5357 17.5779 17.5497 17.5945 17.5639C17.975 17.8897 18.3027 18.2272 18.4567 18.5373C18.6569 18.9407 18.7462 19.3826 18.7878 19.8423C18.8086 20.072 18.817 20.3006 18.823 20.5293L18.8267 20.678V20.678C18.8309 20.8545 18.8352 21.0335 18.8445 21.2005C18.8599 21.4762 19.0959 21.6872 19.3716 21.6719C19.6473 21.6565 19.8583 21.4205 19.8429 21.1448C19.8346 20.9953 19.8308 20.838 19.8267 20.6647L19.8227 20.5031C19.8166 20.2694 19.8075 20.0148 19.7837 19.7523C19.7363 19.2277 19.6289 18.6497 19.3524 18.0927C19.3266 18.0408 19.2986 17.9894 19.2686 17.9388C22.3113 18.3591 27.6539 18.1731 29 17.5001C30 17.0001 31 15.5 31.4 14C31.6502 13.0619 31.0291 13.0461 30.5 13.5C30.2792 13.7207 30.117 14.078 29.9357 14.477C29.7064 14.9817 29.4468 15.5533 29 16.0001C28 17.0001 19.7361 17.118 17.5 16C15.5 15 14 14 14.5 12.5C14.6657 12.0029 15.2844 12.1236 16.1105 12.2847C16.9462 12.4477 17.9942 12.652 19 12.3C20.9458 11.619 22 9.00011 21 7.50006C20 6.00001 15 4.50006 13.5 4.50006C12.4481 4.50006 11.4781 4.90985 10.7626 5.21216C10.4578 5.34094 10.1991 5.45021 10 5.5C10.5 4.16667 12.4 1 14 1C16 1 19.5 1.50006 22 2.50006C24.5 3.50006 30 5.99996 32 8.00001C33.709 9.70906 33.5926 13.6086 33.5225 15.955C33.5106 16.3546 33.5 16.7091 33.5 17.0001C33.5 18.3729 32.322 20.9238 31.4215 22.8737C31.0102 23.7644 30.6568 24.5297 30.5 25C30.3876 25.3371 30.25 25.7247 30.0985 26.1515C29.5758 27.6237 28.8876 29.5619 28.5 31.5C28.2478 32.7608 28.1811 34.6178 28.1245 36.194C28.0913 37.1181 28.0616 37.9457 28 38.5001C27.7857 38.5715 27.5612 38.6531 27.3207 38.7406C25.8776 39.2654 23.8571 40.0001 20 40.0001C16.1429 40.0001 13.8776 39.5103 12.2595 39.1604C11.9898 39.1021 11.7381 39.0477 11.5 39.0001C12.1667 37.0001 13.5 32.5001 13.5 30.5001C13.5 28.5001 13.1667 27.0001 13 26.5001C12.3333 25.6667 10.7 23.5001 9.5 21.5001C9.25234 21.0873 9.00042 20.6958 8.75654 20.3168C7.81877 18.8596 7 17.5873 7 16Z" fill="#FAA21E"/>
<path fill-rule="evenodd" clip-rule="evenodd" d="M7 16C7 13.0001 7.72521 9.27473 9 8.00001C10 7.00006 11.9189 6 13.5 6C15 6 18.5 6.99996 19.5 8.00001C20.5 9.00006 20 10.5 18.5 11C17.8516 11.2161 17.1099 11.152 16.3958 11.0903C15.4579 11.0092 14.5678 10.9322 14 11.5C13.2094 12.2906 13.2095 14.2095 14 15C15 16 15.5 16.5 17.5 17.5001C17.5146 17.5073 17.5295 17.5146 17.5448 17.5217C17.5614 17.5357 17.5779 17.5497 17.5945 17.5639C17.975 17.8897 18.3027 18.2272 18.4567 18.5373C18.6569 18.9407 18.7462 19.3826 18.7878 19.8423C18.8086 20.072 18.817 20.3006 18.823 20.5293L18.8267 20.678V20.678C18.8309 20.8545 18.8352 21.0335 18.8445 21.2005C18.8599 21.4762 19.0959 21.6872 19.3716 21.6719C19.6473 21.6565 19.8583 21.4205 19.8429 21.1448C19.8346 20.9953 19.8308 20.838 19.8267 20.6647L19.8227 20.5031C19.8166 20.2694 19.8075 20.0148 19.7837 19.7523C19.7363 19.2277 19.6289 18.6497 19.3524 18.0927C19.3266 18.0408 19.2986 17.9894 19.2686 17.9388C22.3113 18.3591 27.6539 18.1731 29 17.5001C30 17.0001 31 15.5 31.4 14C31.6502 13.0619 31.0291 13.0461 30.5 13.5C30.2792 13.7207 30.117 14.078 29.9357 14.477C29.7064 14.9817 29.4468 15.5533 29 16.0001C28 17.0001 19.7361 17.118 17.5 16C15.5 15 14 14 14.5 12.5C14.6657 12.0029 15.2844 12.1236 16.1105 12.2847C16.9462 12.4477 17.9942 12.652 19 12.3C20.9458 11.619 22 9.00011 21 7.50006C20 6.00001 15 4.50006 13.5 4.50006C12.4481 4.50006 11.4781 4.90985 10.7626 5.21216C10.4578 5.34094 10.1991 5.45021 10 5.5C10.5 4.16667 12.4 1 14 1C16 1 19.5 1.50006 22 2.50006C24.5 3.50006 30 5.99996 32 8.00001C33.709 9.70906 33.5926 13.6086 33.5225 15.955C33.5106 16.3546 33.5 16.7091 33.5 17.0001C33.5 18.3729 32.322 20.9238 31.4215 22.8737C31.0102 23.7644 30.6568 24.5297 30.5 25C30.3876 25.3371 30.25 25.7247 30.0985 26.1515C29.5758 27.6237 28.8876 29.5619 28.5 31.5C28.2478 32.7608 28.1811 34.6178 28.1245 36.194C28.0913 37.1181 28.0616 37.9457 28 38.5001C27.7857 38.5715 27.5612 38.6531 27.3207 38.7406C25.8776 39.2654 23.8571 40.0001 20 40.0001C16.1429 40.0001 13.8776 39.5103 12.2595 39.1604C11.9898 39.1021 11.7381 39.0477 11.5 39.0001C12.1667 37.0001 13.5 32.5001 13.5 30.5001C13.5 28.5001 13.1667 27.0001 13 26.5001C12.3333 25.6667 10.7 23.5001 9.5 21.5001C9.25234 21.0873 9.00042 20.6958 8.75654 20.3168C7.81877 18.8596 7 17.5873 7 16Z" fill="white" fill-opacity="0.4"/>
</svg>
