<svg width="50" height="50" viewBox="0 0 50 50" fill="none" xmlns="http://www.w3.org/2000/svg">
<g clip-path="url(#clip0_1880_9305)">
<g clip-path="url(#clip1_1880_9305)">
<path d="M22.8299 44.171C17.4017 44.171 13.8965 42.1857 13.4002 41.1931C12.9039 40.2005 12.9039 36.6573 12.9039 36.6573H32.756C32.756 38.7749 32.8791 40.1965 32.2597 41.1931C31.2727 42.7813 27.7647 44.171 22.8299 44.171Z" fill="#898989"/>
<path d="M22.8299 44.171C17.4017 44.171 13.8965 42.1857 13.4002 41.1931C12.9039 40.2005 12.9039 36.6573 12.9039 36.6573H32.756C32.756 38.7749 32.8791 40.1965 32.2597 41.1931C31.2727 42.7813 27.7647 44.171 22.8299 44.171Z" fill="white" fill-opacity="0.6"/>
<path d="M40.0851 22.0494C39.2788 22.0135 38.1081 21.0907 38.5885 19.3708C39.069 17.6508 41.1426 16.4371 43.5614 16.5447C45.9802 16.6523 47.1316 18.0095 48.3023 18.9323C48.2637 19.8012 48.5122 23.295 46.3612 26.2466C44.2102 29.1983 41.8272 30.365 39.276 31.1554C37.6377 31.663 37.183 32.8037 37.1444 33.6726C37.1057 34.5416 37.8733 35.4464 38.6796 35.4823" stroke="#FEFEFE" stroke-width="2.48152" stroke-linecap="round"/>
<path d="M41.6894 11.0089H3.9704C5.58847 14.7844 6.66718 15.3238 7.7459 19.6386C8.28526 21.7961 7.7459 28.6574 8.82461 32.4329C10.1907 37.2142 12.9945 39.7154 15.8363 41.0626C18.6661 42.4042 26.5039 42.4042 29.8595 41.0626C32.7798 39.8951 35.5473 37.2871 36.8712 32.4329C38.3997 26.8285 37.3065 22.8557 37.9499 19.6386C38.4893 16.9418 39.532 15.3238 41.6894 11.0089Z" fill="#898989"/>
<path d="M41.6894 11.0089H3.9704C5.58847 14.7844 6.66718 15.3238 7.7459 19.6386C8.28526 21.7961 7.7459 28.6574 8.82461 32.4329C10.1907 37.2142 12.9945 39.7154 15.8363 41.0626C18.6661 42.4042 26.5039 42.4042 29.8595 41.0626C32.7798 39.8951 35.5473 37.2871 36.8712 32.4329C38.3997 26.8285 37.3065 22.8557 37.9499 19.6386C38.4893 16.9418 39.532 15.3238 41.6894 11.0089Z" fill="white" fill-opacity="0.95"/>
<path d="M41.6894 10.8052C41.6894 13.4836 33.4725 15.7434 23.0566 15.7434C12.6408 15.7434 3.9704 13.4836 3.9704 10.8052C3.9704 8.12686 12.6408 5.95563 23.0566 5.95563C33.4725 5.95563 41.6894 8.12686 41.6894 10.8052Z" fill="#898989"/>
<path d="M41.6894 10.8052C41.6894 13.4836 33.4725 15.7434 23.0566 15.7434C12.6408 15.7434 3.9704 13.4836 3.9704 10.8052C3.9704 8.12686 12.6408 5.95563 23.0566 5.95563C33.4725 5.95563 41.6894 8.12686 41.6894 10.8052Z" fill="white" fill-opacity="0.6"/>
<path d="M41.6894 10.8052C41.6894 13.4836 33.4725 15.7434 23.0566 15.7434C12.6408 15.7434 3.9704 13.4836 3.9704 10.8052C3.9704 8.12686 12.6408 5.95563 23.0566 5.95563C33.4725 5.95563 41.6894 8.12686 41.6894 10.8052Z" stroke="#FEFEFE" stroke-width="1.48891"/>
<path d="M36.863 13.3807C36.863 13.032 29.2426 11.8863 22.9148 11.8863C16.5871 11.8863 8.96667 13.032 8.96667 13.3807C8.96667 13.7293 14.9445 15.1741 22.9148 15.1741C31.8815 15.1741 36.863 13.7293 36.863 13.3807Z" fill="#FAA21E"/>
<path d="M36.863 13.3807C36.863 13.032 29.2426 11.8863 22.9148 11.8863C16.5871 11.8863 8.96667 13.032 8.96667 13.3807C8.96667 13.7293 14.9445 15.1741 22.9148 15.1741C31.8815 15.1741 36.863 13.7293 36.863 13.3807Z" fill="white" fill-opacity="0.4"/>
</g>
<path d="M26.1625 19.4875C26.1625 18.7029 24.15 18.5001 23 18.5001C21.85 18.5001 19.8375 18.7205 19.8375 19.4875C19.8375 19.9106 20.2687 20.0517 20.4125 20.1927C20.4604 20.6629 20.47 21.8289 20.125 22.7316C19.6937 23.86 18.7475 24.2078 18.1125 24.7063C17.3937 25.2705 17.25 26.3989 17.25 26.963L17.25 35.9902C17.3937 36.4133 18.488 37.2414 19.8375 37.6828C21.1312 38.1059 24.4375 38.1059 25.875 37.6828C27.1812 37.2983 28.75 36.4133 28.75 35.9902L28.75 26.9631C28.75 26.3518 28.75 25.214 27.8875 24.7063C27.025 24.1985 26.3062 23.5779 25.875 22.7316C25.53 22.0546 25.5396 20.8039 25.5875 20.1927C25.875 20.0517 26.1625 19.8401 26.1625 19.4875Z" fill="white"/>
<path d="M26.1625 19.4875C26.1625 18.7029 24.15 18.5001 23 18.5001C21.85 18.5001 19.8375 18.7205 19.8375 19.4875C19.8375 19.9106 20.2687 20.0517 20.4125 20.1927C20.4604 20.6629 20.47 21.8289 20.125 22.7316C19.6937 23.86 18.7475 24.2078 18.1125 24.7063C17.3937 25.2705 17.25 26.3989 17.25 26.963L17.25 35.9902C17.3937 36.4133 18.488 37.2414 19.8375 37.6828C21.1312 38.1059 24.4375 38.1059 25.875 37.6828C27.1812 37.2983 28.75 36.4133 28.75 35.9902L28.75 26.9631C28.75 26.3518 28.75 25.214 27.8875 24.7063C27.025 24.1985 26.3062 23.5779 25.875 22.7316C25.53 22.0546 25.5396 20.8039 25.5875 20.1927C25.875 20.0517 26.1625 19.8401 26.1625 19.4875Z" stroke="#898989" stroke-width="0.498148"/>
<path d="M26.1625 19.4875C26.1625 18.7029 24.15 18.5001 23 18.5001C21.85 18.5001 19.8375 18.7205 19.8375 19.4875C19.8375 19.9106 20.2687 20.0517 20.4125 20.1927C20.4604 20.6629 20.47 21.8289 20.125 22.7316C19.6937 23.86 18.7475 24.2078 18.1125 24.7063C17.3937 25.2705 17.25 26.3989 17.25 26.963L17.25 35.9902C17.3937 36.4133 18.488 37.2414 19.8375 37.6828C21.1312 38.1059 24.4375 38.1059 25.875 37.6828C27.1812 37.2983 28.75 36.4133 28.75 35.9902L28.75 26.9631C28.75 26.3518 28.75 25.214 27.8875 24.7063C27.025 24.1985 26.3062 23.5779 25.875 22.7316C25.53 22.0546 25.5396 20.8039 25.5875 20.1927C25.875 20.0517 26.1625 19.8401 26.1625 19.4875Z" stroke="white" stroke-opacity="0.2" stroke-width="0.498148"/>
<path d="M26.6711 28.405C26.2104 28.6868 25.8164 28.2484 25.2243 28.391C24.6323 28.5337 24.4348 28.7281 24.237 29.0843C24.0303 29.4567 24.0384 30.1697 24.4326 30.5083C24.991 30.988 25.7092 31.4748 26.8272 31.5111C28.1078 31.5526 28.344 30.8248 28.75 30.5083L28.75 28.75C28.6735 28.5497 28.6772 28.1997 28.4145 27.9011C28.0861 27.5278 27.5273 27.4107 27.2311 27.6319C26.8933 27.8841 27.0234 28.1895 26.6711 28.405Z" fill="#898989"/>
<path d="M26.6711 28.405C26.2104 28.6868 25.8164 28.2484 25.2243 28.391C24.6323 28.5337 24.4348 28.7281 24.237 29.0843C24.0303 29.4567 24.0384 30.1697 24.4326 30.5083C24.991 30.988 25.7092 31.4748 26.8272 31.5111C28.1078 31.5526 28.344 30.8248 28.75 30.5083L28.75 28.75C28.6735 28.5497 28.6772 28.1997 28.4145 27.9011C28.0861 27.5278 27.5273 27.4107 27.2311 27.6319C26.8933 27.8841 27.0234 28.1895 26.6711 28.405Z" fill="white" fill-opacity="0.2"/>
<path d="M19.7 23.5001C19.2815 23.9861 18.6984 24.2342 18.45 24.5001C18.7525 24.942 19.0827 24.9748 19.598 24.9616C20.4226 24.9405 19.9602 25.4285 21.1258 26.019C22.2914 26.6095 23.2795 26.0156 23.5206 25.3612C23.7626 24.7068 23.0598 24.2946 22.7773 24.1648C22.4947 24.0351 22.7787 23.68 22.7315 23.2409C22.6835 22.8012 22.6004 22.3109 22 22C21.5991 21.7926 20.787 21.8129 20.3 22.0001C20.1464 22.599 20.0732 23.0666 19.7 23.5001Z" fill="#898989"/>
<path d="M19.7 23.5001C19.2815 23.9861 18.6984 24.2342 18.45 24.5001C18.7525 24.942 19.0827 24.9748 19.598 24.9616C20.4226 24.9405 19.9602 25.4285 21.1258 26.019C22.2914 26.6095 23.2795 26.0156 23.5206 25.3612C23.7626 24.7068 23.0598 24.2946 22.7773 24.1648C22.4947 24.0351 22.7787 23.68 22.7315 23.2409C22.6835 22.8012 22.6004 22.3109 22 22C21.5991 21.7926 20.787 21.8129 20.3 22.0001C20.1464 22.599 20.0732 23.0666 19.7 23.5001Z" fill="white" fill-opacity="0.2"/>
<path d="M18.9997 30.7501C18.2029 30.6102 17.2505 31.1459 17.2498 31.7499L17.2497 36C17.2497 36 17.6431 36.5957 18.2498 37.0002C19.7498 38.0002 21.2774 38.0011 21.9998 38.0005C21.9998 37.5005 21.2119 37.4322 21.23 37.0898C21.2482 36.7473 22.0611 36.8907 22.7128 36.4451C23.0896 36.1874 23.4761 35.2083 22.6203 34.6141C21.696 33.9725 20.56 34.493 20.4246 34.0391C20.2892 33.5853 20.7847 33.499 20.8127 32.7664C20.8479 31.8426 20.4246 31.0003 18.9997 30.7501Z" fill="#898989"/>
<path d="M18.9997 30.7501C18.2029 30.6102 17.2505 31.1459 17.2498 31.7499L17.2497 36C17.2497 36 17.6431 36.5957 18.2498 37.0002C19.7498 38.0002 21.2774 38.0011 21.9998 38.0005C21.9998 37.5005 21.2119 37.4322 21.23 37.0898C21.2482 36.7473 22.0611 36.8907 22.7128 36.4451C23.0896 36.1874 23.4761 35.2083 22.6203 34.6141C21.696 33.9725 20.56 34.493 20.4246 34.0391C20.2892 33.5853 20.7847 33.499 20.8127 32.7664C20.8479 31.8426 20.4246 31.0003 18.9997 30.7501Z" fill="white" fill-opacity="0.2"/>
<ellipse cx="23.0238" cy="19.3866" rx="2.52321" ry="0.639213" transform="matrix(1 -0.000998568 0.00100092 1 -0.019393 0.0230005)" fill="#898989"/>
<ellipse cx="23.0238" cy="19.3866" rx="2.52321" ry="0.639213" transform="matrix(1 -0.000998568 0.00100092 1 -0.019393 0.0230005)" fill="white" fill-opacity="0.6"/>
</g>
<defs>
<clipPath id="clip0_1880_9305">
<rect width="50" height="50" fill="white"/>
</clipPath>
<clipPath id="clip1_1880_9305">
<rect width="49.8148" height="49.8148" fill="white"/>
</clipPath>
</defs>
</svg>
