<svg width="50" height="50" viewBox="0 0 50 50" fill="none" xmlns="http://www.w3.org/2000/svg">
<circle cx="25.0667" cy="25.0665" r="22.4167" stroke="#1D8CE0" stroke-width="0.996296"/>
<circle cx="25.0667" cy="25.0665" r="22.4167" stroke="white" stroke-opacity="0.95" stroke-width="0.996296"/>
<path d="M37.5 37.5001C43 33.0454 45 21.5 38.5745 13.0016C39.2991 19.1626 37.6992 26.8689 32.5141 32.0453C27.329 37.2217 15.4044 38.4225 11 37.5001C22.5964 45.5482 31.1157 42.671 37.5 37.5001Z" fill="#FEFEFE" fill-opacity="0.15"/>
<path d="M33.7578 11.9641C34.0791 10.765 31.0551 9.62261 29.2796 9.14687C27.5041 8.67114 24.3068 8.17542 23.9927 9.34759C23.8194 9.9943 24.4275 10.3883 24.5916 10.6633C24.4731 11.4017 24.0104 13.1877 23.108 14.4246C21.9802 15.9708 20.3768 16.111 19.1923 16.6101C17.8516 17.175 17.1676 18.8401 16.9365 19.7024L13.2397 33.4989C13.2884 34.2051 14.6387 35.9233 16.5414 37.1562C18.3655 38.3381 23.47 39.7058 25.8627 39.6538C28.0368 39.6065 30.8212 38.903 30.9945 38.2563L34.6912 24.4598C34.9415 23.5256 35.4075 21.7867 34.2838 20.6538C33.1602 19.521 32.3046 18.2751 31.9854 16.8033C31.73 15.6259 32.257 13.7184 32.5813 12.8041C33.0829 12.7075 33.6134 12.5031 33.7578 11.9641Z" fill="#FEFEFE"/>
<path d="M30.8515 25.9425C30.0245 26.1867 29.5978 25.3477 28.6257 25.323C27.6536 25.2983 27.2686 25.5165 26.8164 25.9843C26.3436 26.4733 26.0615 27.5764 26.5295 28.2615C27.1926 29.2322 28.0991 30.2799 29.8084 30.7979C31.7666 31.3912 32.4317 30.3663 33.1886 30.0458L33.9153 27.3338C33.8801 26.9932 34.0305 26.455 33.7487 25.8857C33.3965 25.1742 32.5829 24.7628 32.0346 24.9815C31.4095 25.2309 31.484 25.7557 30.8515 25.9425Z" fill="#898989"/>
<path d="M22.1263 15.4958C21.28 16.0724 20.2781 16.2142 19.785 16.5216C20.0689 17.3282 20.5647 17.5153 21.365 17.708C22.6455 18.0162 21.7307 18.5777 23.2845 19.9703C24.8382 21.3628 26.6078 20.8551 27.2501 19.9454C27.8939 19.0361 26.9802 18.1098 26.598 17.7929C26.2158 17.476 26.8006 17.0457 26.9093 16.3489C27.0169 15.6508 27.0914 14.8603 26.2938 14.1326C25.7612 13.647 24.5003 13.3427 23.6716 13.4301C23.1872 14.2905 22.8812 14.9814 22.1263 15.4958Z" fill="#898989"/>
<path d="M18.0502 26.3889C16.879 25.844 15.1886 26.2767 14.9378 27.2081L13.2414 33.5011C13.2414 33.5011 13.2414 33.9864 14.323 35.2483C16.3051 37.5607 18.6485 38.1508 19.763 38.4483C19.9697 37.6771 18.7008 37.6093 18.8703 37.0885C19.0398 36.5678 20.2344 37.1248 21.4239 36.7068C22.1116 36.465 23.1123 35.1144 22.0378 33.8444C20.8773 32.4729 18.91 32.8064 18.8887 32.0505C18.8675 31.2946 19.6674 31.3661 20.0133 30.2477C20.4494 28.8374 20.1446 27.3634 18.0502 26.3889Z" fill="#898989"/>
<ellipse cx="28.953" cy="10.525" rx="4.0291" ry="1.02071" transform="rotate(14.9427 28.953 10.525)" fill="#898989"/>
<ellipse cx="28.953" cy="10.525" rx="4.0291" ry="1.02071" transform="rotate(14.9427 28.953 10.525)" fill="white" fill-opacity="0.6"/>
<path d="M14.6055 9.12572C11.765 11.6271 10.6204 15.1035 10.6204 18.0924C11.1061 16.033 14.2019 11.8587 17.0963 10.122C19.5596 8.64405 21.5796 7.13312 25.0667 6.63497C21.5796 6.13682 17.4461 6.62428 14.6055 9.12572Z" fill="#FEFEFE"/>
<path d="M34.5 40C37.5 38.5 40.5 35.5 42 30C40 34 37.0518 37.1895 34 39C30.9482 40.8105 27 42.5 21 42C27.5 43.5 30.6529 41.9235 34.5 40Z" fill="#FEFEFE"/>
</svg>
