<svg width="40" height="40" viewBox="0 0 40 40" fill="none" xmlns="http://www.w3.org/2000/svg">
<path d="M26.325 2.97493C26.325 1.40576 22.3 1.00024 20 1.00024C17.7 1.00024 13.675 1.44102 13.675 2.97493C13.675 3.82122 14.5375 4.10332 14.825 4.38542C14.9208 5.32574 14.94 7.65775 14.25 9.46317C13.3875 11.72 11.495 12.4157 10.225 13.4125C8.7875 14.5409 8.5 16.7977 8.5 17.9261L8.5 35.9803C8.7875 36.8266 10.9761 38.4828 13.675 39.3655C16.2625 40.2118 22.875 40.2118 25.75 39.3655C28.3624 38.5965 31.5 36.8266 31.5 35.9803L31.5 17.9261C31.5 16.7037 31.5 14.4281 29.775 13.4125C28.05 12.397 26.6125 11.1558 25.75 9.46317C25.06 8.1091 25.0792 5.60784 25.175 4.38542C25.75 4.10332 26.325 3.68017 26.325 2.97493Z" fill="#FEFEFE"/>
<path d="M27.3423 20.81C26.4209 21.3735 25.6328 20.4968 24.4487 20.7821C23.2647 21.0673 22.8696 21.4561 22.4742 22.1686C22.0607 22.9135 22.077 24.3394 22.8653 25.0166C23.9821 25.976 25.4185 26.9497 27.6544 27.0222C30.2157 27.1053 30.6881 25.6497 31.5 25.0166L31.5 21.5C31.347 21.0994 31.3544 20.3995 30.829 19.8022C30.1723 19.0555 29.0546 18.8215 28.4622 19.2638C27.7867 19.7682 28.0469 20.379 27.3423 20.81Z" fill="#898989"/>
<path d="M27.3423 20.81C26.4209 21.3735 25.6328 20.4968 24.4487 20.7821C23.2647 21.0673 22.8696 21.4561 22.4742 22.1686C22.0607 22.9135 22.077 24.3394 22.8653 25.0166C23.9821 25.976 25.4185 26.9497 27.6544 27.0222C30.2157 27.1053 30.6881 25.6497 31.5 25.0166L31.5 21.5C31.347 21.0994 31.3544 20.3995 30.829 19.8022C30.1723 19.0555 29.0546 18.8215 28.4622 19.2638C27.7867 19.7682 28.0469 20.379 27.3423 20.81Z" fill="white" fill-opacity="0.4"/>
<path d="M13.4 11.0002C12.5631 11.9721 11.3969 12.4684 10.9 13.0002C11.505 13.884 12.1654 13.9496 13.1961 13.9233C14.8452 13.8811 13.9206 14.857 16.2517 16.038C18.5828 17.219 20.5591 16.0312 21.0413 14.7223C21.5253 13.4136 20.1197 12.5892 19.5546 12.3297C18.9894 12.0702 19.5575 11.36 19.4632 10.4817C19.367 9.60231 19.2008 8.62185 18 8.00005C17.1982 7.58515 15.5741 7.62574 14.6 8.00013C14.2928 9.19806 14.1465 10.1332 13.4 11.0002Z" fill="#898989"/>
<path d="M13.4 11.0002C12.5631 11.9721 11.3969 12.4684 10.9 13.0002C11.505 13.884 12.1654 13.9496 13.1961 13.9233C14.8452 13.8811 13.9206 14.857 16.2517 16.038C18.5828 17.219 20.5591 16.0312 21.0413 14.7223C21.5253 13.4136 20.1197 12.5892 19.5546 12.3297C18.9894 12.0702 19.5575 11.36 19.4632 10.4817C19.367 9.60231 19.2008 8.62185 18 8.00005C17.1982 7.58515 15.5741 7.62574 14.6 8.00013C14.2928 9.19806 14.1465 10.1332 13.4 11.0002Z" fill="white" fill-opacity="0.4"/>
<path d="M12 25.5C10.4063 25.2204 8.50147 26.2919 8.5 27.5L8.49993 36.0002C8.49993 36.0002 9.2866 37.1914 10.5 38.0002C13.5 40 16.5552 40.0014 18 40C18 39 16.4243 38.8637 16.4605 38.1787C16.4967 37.4938 18.1227 37.7804 19.4261 36.889C20.1797 36.3737 20.9527 34.4153 19.241 33.2271C17.3924 31.944 15.1205 32.9853 14.8497 32.0777C14.5789 31.17 15.5699 30.9972 15.6258 29.532C15.6963 27.6845 14.8497 26 12 25.5Z" fill="#898989"/>
<path d="M12 25.5C10.4063 25.2204 8.50147 26.2919 8.5 27.5L8.49993 36.0002C8.49993 36.0002 9.2866 37.1914 10.5 38.0002C13.5 40 16.5552 40.0014 18 40C18 39 16.4243 38.8637 16.4605 38.1787C16.4967 37.4938 18.1227 37.7804 19.4261 36.889C20.1797 36.3737 20.9527 34.4153 19.241 33.2271C17.3924 31.944 15.1205 32.9853 14.8497 32.0777C14.5789 31.17 15.5699 30.9972 15.6258 29.532C15.6963 27.6845 14.8497 26 12 25.5Z" fill="white" fill-opacity="0.4"/>
<ellipse cx="20.0477" cy="2.77338" rx="5.04641" ry="1.27842" transform="rotate(-0.0572952 20.0477 2.77338)" fill="#898989"/>
<ellipse cx="20.0477" cy="2.77338" rx="5.04641" ry="1.27842" transform="rotate(-0.0572952 20.0477 2.77338)" fill="white" fill-opacity="0.6"/>
</svg>
