<svg width="50" height="50" viewBox="0 0 50 50" fill="none" xmlns="http://www.w3.org/2000/svg">
<path d="M9.70074 1.99249H39.8518V4.98138L40.8481 6.97397H44.8333V47.8221H11.2738C10.7495 47.8221 8.12764 47.8221 6.55454 46.2597C4.98145 44.6974 4.98145 43.135 4.98145 42.6142V6.67961C4.98145 5.63803 5.71556 4.38813 6.55454 3.55487C7.39353 2.7216 8.65201 1.99249 9.70074 1.99249Z" fill="#7445B8"/>
<path d="M42.8407 9.0662L39.8518 4.98138V39.8518H37.8593L42.8407 45.8295V9.0662Z" fill="#898989"/>
<path d="M42.8407 9.0662L39.8518 4.98138V39.8518H37.8593L42.8407 45.8295V9.0662Z" fill="white" fill-opacity="0.2"/>
<path d="M10.093 39.8517H37.8593L42.8408 45.8295H10.093C9.58856 45.8295 6.97412 45.0823 6.97412 42.8406C6.97412 40.599 9.58856 39.8517 10.093 39.8517Z" fill="#898989"/>
<path d="M10.093 39.8517H37.8593L42.8408 45.8295H10.093C9.58856 45.8295 6.97412 45.0823 6.97412 42.8406C6.97412 40.599 9.58856 39.8517 10.093 39.8517Z" fill="white" fill-opacity="0.6"/>
<path d="M10.2 32.616C11.6235 31.9118 12.0539 31.1295 12.4303 29.32C12.6008 31.0121 13.0398 31.7378 14.4377 32.616C12.9843 33.4137 12.6197 34.1902 12.4303 35.912C11.9688 34.1806 11.5236 33.4133 10.2 32.616Z" fill="#898989"/>
<path d="M10.2 32.616C11.6235 31.9118 12.0539 31.1295 12.4303 29.32C12.6008 31.0121 13.0398 31.7378 14.4377 32.616C12.9843 33.4137 12.6197 34.1902 12.4303 35.912C11.9688 34.1806 11.5236 33.4133 10.2 32.616Z" fill="white" fill-opacity="0.95"/>
<path d="M8.28003 9.57603C9.70359 8.87183 10.1339 8.08954 10.5104 6.28003C10.6808 7.97216 11.1199 8.69786 12.5177 9.57603C11.0644 10.3737 10.6998 11.1502 10.5104 12.872C10.0489 11.1407 9.60372 10.3733 8.28003 9.57603Z" fill="#898989"/>
<path d="M8.28003 9.57603C9.70359 8.87183 10.1339 8.08954 10.5104 6.28003C10.6808 7.97216 11.1199 8.69786 12.5177 9.57603C11.0644 10.3737 10.6998 11.1502 10.5104 12.872C10.0489 11.1407 9.60372 10.3733 8.28003 9.57603Z" fill="white" fill-opacity="0.95"/>
<path d="M14.04 16.296C15.3254 15.6602 15.7139 14.9538 16.0539 13.32C16.2078 14.8479 16.6042 15.5031 17.8663 16.296C16.5541 17.0162 16.2249 17.7173 16.0539 19.272C15.6372 17.7087 15.2352 17.0159 14.04 16.296Z" fill="#898989"/>
<path d="M14.04 16.296C15.3254 15.6602 15.7139 14.9538 16.0539 13.32C16.2078 14.8479 16.6042 15.5031 17.8663 16.296C16.5541 17.0162 16.2249 17.7173 16.0539 19.272C15.6372 17.7087 15.2352 17.0159 14.04 16.296Z" fill="white" fill-opacity="0.95"/>
<path d="M26.84 14.6H21.72V19.72H16.6V24.84H21.72V29.96H26.84V24.84H31.96V19.72H26.84V14.6Z" fill="#898989"/>
<path d="M26.84 14.6H21.72V19.72H16.6V24.84H21.72V29.96H26.84V24.84H31.96V19.72H26.84V14.6Z" fill="white" fill-opacity="0.95"/>
<path d="M31.96 31.24C33.8949 30.2828 34.4798 29.2195 34.9915 26.76C35.2232 29.06 35.82 30.0464 37.72 31.24C35.7445 32.3242 35.249 33.3796 34.9915 35.72C34.3642 33.3667 33.7591 32.3237 31.96 31.24Z" fill="#898989"/>
<path d="M31.96 31.24C33.8949 30.2828 34.4798 29.2195 34.9915 26.76C35.2232 29.06 35.82 30.0464 37.72 31.24C35.7445 32.3242 35.249 33.3796 34.9915 35.72C34.3642 33.3667 33.7591 32.3237 31.96 31.24Z" fill="white" fill-opacity="0.95"/>
<path d="M30.6801 10.2623C32.4 9.41144 32.9199 8.46628 33.3748 6.28003C33.5807 8.32446 34.1112 9.20125 35.8001 10.2623C34.0441 11.226 33.6036 12.1641 33.3748 14.2445C32.8172 12.1526 32.2793 11.2255 30.6801 10.2623Z" fill="#898989"/>
<path d="M30.6801 10.2623C32.4 9.41144 32.9199 8.46628 33.3748 6.28003C33.5807 8.32446 34.1112 9.20125 35.8001 10.2623C34.0441 11.226 33.6036 12.1641 33.3748 14.2445C32.8172 12.1526 32.2793 11.2255 30.6801 10.2623Z" fill="white" fill-opacity="0.95"/>
</svg>
