<svg width="50" height="50" viewBox="0 0 50 50" fill="none" xmlns="http://www.w3.org/2000/svg">
<path d="M35.1083 3.60352L47.9538 16.4291L47.9679 34.5813L35.1422 47.4268L16.9901 47.4408L14.9145 46.2407L4.13054 16.463L32.9821 2.58601L35.1083 3.60352Z" fill="#1D8CE0"/>
<path d="M35.1083 3.60352L47.9538 16.4291L47.9679 34.5813L35.1422 47.4268L16.9901 47.4408L14.9145 46.2407L4.13054 16.463L32.9821 2.58601L35.1083 3.60352Z" fill="white" fill-opacity="0.2"/>
<path d="M45.7234 33.7082L32.6688 46.2406L35.2797 47.285L47.8122 34.7526L45.7234 33.7082Z" fill="#1D8CE0"/>
<path d="M35.2797 3.42148L33.191 2.89929L45.7234 15.4317L47.8122 16.4761L35.2797 3.42148Z" fill="#1D8CE0"/>
<path d="M33.0196 2.55914L45.8651 15.3847L45.8791 33.5369L33.0535 46.3824L14.9013 46.3964L2.05587 33.5708L2.04182 15.4187L14.8674 2.57319L33.0196 2.55914Z" fill="#1D8CE0"/>
<path d="M33.0196 2.55914L45.8651 15.3847L45.8791 33.5369L33.0535 46.3824L14.9013 46.3964L2.05587 33.5708L2.04182 15.4187L14.8674 2.57319L33.0196 2.55914Z" fill="black" fill-opacity="0.2"/>
<path d="M32.1466 4.44936L43.6347 15.9539L43.6347 32.6639L32.1466 44.1519L15.4367 44.1519L3.94867 32.6638L3.94866 15.9539L15.4367 4.44929L32.1466 4.44936Z" fill="#1D8CE0"/>
<path d="M24.0299 24.5065L15.4368 4.46585L32.1466 4.46579L24.0299 24.5065L3.94867 32.6638L3.94867 15.9539L24.0299 24.5065Z" fill="#1D8CE0"/>
<path d="M24.0299 24.5065L15.4368 4.46585L32.1466 4.46579L24.0299 24.5065L3.94867 32.6638L3.94867 15.9539L24.0299 24.5065Z" fill="white" fill-opacity="0.4"/>
<path d="M23.9605 24.4779L32.1466 4.46594L43.6346 15.954L23.9605 24.4779L15.4367 44.152L3.94861 32.6639L23.9605 24.4779Z" fill="#1D8CE0"/>
<path d="M23.9605 24.4779L32.1466 4.46594L43.6346 15.954L23.9605 24.4779L15.4367 44.152L3.94861 32.6639L23.9605 24.4779Z" fill="white" fill-opacity="0.2"/>
<path d="M23.9605 24.4779L3.94861 15.954L15.4367 4.46594L23.9605 24.4779Z" fill="#1D8CE0"/>
<path d="M23.9605 24.4779L3.94861 15.954L15.4367 4.46594L23.9605 24.4779Z" fill="white" fill-opacity="0.6"/>
<path d="M23.2694 23.7867L43.6346 32.6638L32.1466 44.1519L23.2694 23.7867Z" fill="#FEFEFE" fill-opacity="0.15"/>
<circle cx="23.9606" cy="24.4778" r="11.4881" fill="#1D8CE0"/>
<circle cx="23.9606" cy="24.4778" r="11.4881" fill="white" fill-opacity="0.6"/>
<path fill-rule="evenodd" clip-rule="evenodd" d="M28.5765 13.9548C27.1638 13.3342 25.6024 12.9897 23.9605 12.9897C17.6158 12.9897 12.4724 18.1331 12.4724 24.4778C12.4724 26.1197 12.8169 27.6812 13.4374 29.0938L28.5765 13.9548ZM14.4969 30.9925C14.2819 30.6808 14.0819 30.3579 13.898 30.0249L29.5076 14.4153C29.8406 14.5993 30.1634 14.7993 30.4752 15.0143L14.4969 30.9925ZM15.8085 32.5723C15.5629 32.325 15.3284 32.0665 15.106 31.7977L31.2144 15.5692C31.4849 15.7897 31.7451 16.0222 31.9943 16.266L15.8085 32.5723ZM24.8696 35.9304C24.5696 35.9539 24.2665 35.9659 23.9605 35.9659C23.7724 35.9659 23.5854 35.9613 23.3996 35.9524L35.4047 23.4671C35.4337 23.8002 35.4485 24.1373 35.4485 24.4778C35.4485 24.6318 35.4455 24.7852 35.4395 24.9377L24.8696 35.9304Z" fill="#1D8CE0"/>
<path fill-rule="evenodd" clip-rule="evenodd" d="M28.5765 13.9548C27.1638 13.3342 25.6024 12.9897 23.9605 12.9897C17.6158 12.9897 12.4724 18.1331 12.4724 24.4778C12.4724 26.1197 12.8169 27.6812 13.4374 29.0938L28.5765 13.9548ZM14.4969 30.9925C14.2819 30.6808 14.0819 30.3579 13.898 30.0249L29.5076 14.4153C29.8406 14.5993 30.1634 14.7993 30.4752 15.0143L14.4969 30.9925ZM15.8085 32.5723C15.5629 32.325 15.3284 32.0665 15.106 31.7977L31.2144 15.5692C31.4849 15.7897 31.7451 16.0222 31.9943 16.266L15.8085 32.5723ZM24.8696 35.9304C24.5696 35.9539 24.2665 35.9659 23.9605 35.9659C23.7724 35.9659 23.5854 35.9613 23.3996 35.9524L35.4047 23.4671C35.4337 23.8002 35.4485 24.1373 35.4485 24.4778C35.4485 24.6318 35.4455 24.7852 35.4395 24.9377L24.8696 35.9304Z" fill="white" fill-opacity="0.95"/>
</svg>
