<svg width="50" height="50" viewBox="0 0 50 50" fill="none" xmlns="http://www.w3.org/2000/svg">
<path d="M7 37.7524C2.99604 33.9785 1.5 30.8205 1 24C1.3299 24.5289 2.2866 26.2215 3.47423 26.6447C4.66186 27.0678 7.83505 27.8974 8 27.8974C8.82474 29.4842 8.42268 32.1456 10.4021 32.9919C12.3814 33.8382 14.5258 34.0498 15.3505 34.0498C16.1753 34.7551 18.2206 36.1656 19.8041 36.1656C21.3876 36.1656 22.1134 35.8129 22.2784 35.6366C22.7732 35.9893 24.2577 36.6945 26.2371 36.6945C28.2165 36.6945 29.3711 35.284 29.701 34.5788C31.5155 34.9314 33.1665 34.8961 34.75 34.0498C36.3335 33.2035 36.5 32.0129 36.5 31.3077C36.9948 31.484 38.9165 31.6028 40.5 30.3333C42.0297 29.107 42.6868 27.1369 42.581 26.2097C42.171 26.1627 42.0724 26.1158 42.567 26.1158C42.5726 26.1457 42.5773 26.1771 42.581 26.2097C43.4016 26.3038 45.4698 26.3979 46.5258 26.1158C48.1093 25.6926 48.8351 24.5289 49 24C49 29.2894 45.933 35.2051 43 37.7524C39.4169 40.8643 34.4021 43 25 43C15.5979 43 10.5 41.0513 7 37.7524Z" fill="#FAA21E"/>
<path d="M7 37.7524C2.99604 33.9785 1.5 30.8205 1 24C1.3299 24.5289 2.2866 26.2215 3.47423 26.6447C4.66186 27.0678 7.83505 27.8974 8 27.8974C8.82474 29.4842 8.42268 32.1456 10.4021 32.9919C12.3814 33.8382 14.5258 34.0498 15.3505 34.0498C16.1753 34.7551 18.2206 36.1656 19.8041 36.1656C21.3876 36.1656 22.1134 35.8129 22.2784 35.6366C22.7732 35.9893 24.2577 36.6945 26.2371 36.6945C28.2165 36.6945 29.3711 35.284 29.701 34.5788C31.5155 34.9314 33.1665 34.8961 34.75 34.0498C36.3335 33.2035 36.5 32.0129 36.5 31.3077C36.9948 31.484 38.9165 31.6028 40.5 30.3333C42.0297 29.107 42.6868 27.1369 42.581 26.2097C42.171 26.1627 42.0724 26.1158 42.567 26.1158C42.5726 26.1457 42.5773 26.1771 42.581 26.2097C43.4016 26.3038 45.4698 26.3979 46.5258 26.1158C48.1093 25.6926 48.8351 24.5289 49 24C49 29.2894 45.933 35.2051 43 37.7524C39.4169 40.8643 34.4021 43 25 43C15.5979 43 10.5 41.0513 7 37.7524Z" fill="white" fill-opacity="0.4"/>
<path fill-rule="evenodd" clip-rule="evenodd" d="M1 24.1429C1 16.3061 7.36735 11.898 12.2653 9.44898C17.1633 7 22.0612 7 25.4898 7C28.9184 7 34.7959 7.97959 38.7143 9.93878C42.6327 11.898 49 16.3061 49 24.1429C49 24.796 48.5102 26.298 46.551 27.0817C44.5918 27.8654 43.1224 28.0613 42.6327 28.0613C42.7959 28.8776 42.8286 30.7062 41.6531 31.4898C40.4776 32.2735 38.551 32.4694 37.7347 32.4694C37.898 33.1225 37.8327 34.6245 36.2653 35.4082C34.698 36.1919 31.0408 35.7347 29.4082 35.4082C29.0816 36.2245 27.9388 37.8572 25.9796 37.8572C24.0204 37.8572 23.2041 36.8776 23.0408 36.3878C22.3878 36.7143 20.6898 37.2694 19.1224 36.8776C17.5551 36.4858 16.5102 35.4082 16.1837 34.9184C14.7143 35.0817 11.2857 35.0164 9.32653 33.449C7.36735 31.8817 6.87755 29.8572 6.87755 29.0409C6.22449 29.0409 4.62449 28.8449 3.44898 28.0613C2.27347 27.2776 1.32653 25.1225 1 24.1429ZM25 27.0818C30.4101 27.0818 34.7959 24.4503 34.7959 21.2042C34.7959 17.9581 30.4101 15.3267 25 15.3267C19.5899 15.3267 15.2041 17.9581 15.2041 21.2042C15.2041 24.4503 19.5899 27.0818 25 27.0818Z" fill="#FAA21E"/>
<path fill-rule="evenodd" clip-rule="evenodd" d="M1 24.1429C1 16.3061 7.36735 11.898 12.2653 9.44898C17.1633 7 22.0612 7 25.4898 7C28.9184 7 34.7959 7.97959 38.7143 9.93878C42.6327 11.898 49 16.3061 49 24.1429C49 24.796 48.5102 26.298 46.551 27.0817C44.5918 27.8654 43.1224 28.0613 42.6327 28.0613C42.7959 28.8776 42.8286 30.7062 41.6531 31.4898C40.4776 32.2735 38.551 32.4694 37.7347 32.4694C37.898 33.1225 37.8327 34.6245 36.2653 35.4082C34.698 36.1919 31.0408 35.7347 29.4082 35.4082C29.0816 36.2245 27.9388 37.8572 25.9796 37.8572C24.0204 37.8572 23.2041 36.8776 23.0408 36.3878C22.3878 36.7143 20.6898 37.2694 19.1224 36.8776C17.5551 36.4858 16.5102 35.4082 16.1837 34.9184C14.7143 35.0817 11.2857 35.0164 9.32653 33.449C7.36735 31.8817 6.87755 29.8572 6.87755 29.0409C6.22449 29.0409 4.62449 28.8449 3.44898 28.0613C2.27347 27.2776 1.32653 25.1225 1 24.1429ZM25 27.0818C30.4101 27.0818 34.7959 24.4503 34.7959 21.2042C34.7959 17.9581 30.4101 15.3267 25 15.3267C19.5899 15.3267 15.2041 17.9581 15.2041 21.2042C15.2041 24.4503 19.5899 27.0818 25 27.0818Z" fill="white" fill-opacity="0.95"/>
<path d="M28.5 9.6001C28.9 8.80019 30.6667 7.7668 31.5 7.6001C34 8.1001 35.8852 8.75419 38 9.6001C40 10.4001 43 12.6001 44 13.6001C43.3333 14.1001 41.1 15.0001 39.5 14.6001C37.5 14.1001 38 12.6001 36.5 12.1001C35 11.6001 35 13.6001 32.5 14.1001C30 14.6001 28.5 14.1001 28 12.6001C27.5 11.1001 28 10.6 28.5 9.6001Z" fill="#898989"/>
<path d="M28.5 9.6001C28.9 8.80019 30.6667 7.7668 31.5 7.6001C34 8.1001 35.8852 8.75419 38 9.6001C40 10.4001 43 12.6001 44 13.6001C43.3333 14.1001 41.1 15.0001 39.5 14.6001C37.5 14.1001 38 12.6001 36.5 12.1001C35 11.6001 35 13.6001 32.5 14.1001C30 14.6001 28.5 14.1001 28 12.6001C27.5 11.1001 28 10.6 28.5 9.6001Z" fill="white" fill-opacity="0.2"/>
<path d="M18.5 33.1001C19 32.6001 20 32.1001 21.5 31.6001C21.5 31.6001 23 29.1001 25.5 28.6001C28 28.1001 29.5 28.6001 30.5 30.1001C31.5 31.6001 34.5 27.1001 37.5 28.6001C39.8968 29.7985 38.5 31.9334 38 32.6001C38 33.4334 37.6 35.2001 36 35.6001C34.0974 36.0757 31 35.7334 29.5 35.4001L29.4746 35.4425C28.9828 36.2627 28.4746 37.1103 27 37.7001C26.3183 37.9728 24 38.1001 23 36.6001C22.6667 36.7668 21.7 37.1001 20.5 37.1001C19.3 37.1001 18.3571 36.6001 18 36.1001C17.5 35.4001 17.6562 33.9438 18.5 33.1001Z" fill="#898989"/>
<path d="M18.5 33.1001C19 32.6001 20 32.1001 21.5 31.6001C21.5 31.6001 23 29.1001 25.5 28.6001C28 28.1001 29.5 28.6001 30.5 30.1001C31.5 31.6001 34.5 27.1001 37.5 28.6001C39.8968 29.7985 38.5 31.9334 38 32.6001C38 33.4334 37.6 35.2001 36 35.6001C34.0974 36.0757 31 35.7334 29.5 35.4001L29.4746 35.4425C28.9828 36.2627 28.4746 37.1103 27 37.7001C26.3183 37.9728 24 38.1001 23 36.6001C22.6667 36.7668 21.7 37.1001 20.5 37.1001C19.3 37.1001 18.3571 36.6001 18 36.1001C17.5 35.4001 17.6562 33.9438 18.5 33.1001Z" fill="white" fill-opacity="0.2"/>
<path d="M14.5 12.1001C14.9 10.1001 11.8333 10.1001 10 10.6001C7.5 12.1001 6.81108 12.789 5 14.6001C3 16.6001 1 20.1001 1 23.6001C2.5 21.1001 5 23.1001 6 24.1001C7 25.1001 9.5 26.1001 11.5 26.1001C12.5 26.1001 14.5 25.1001 15 24.1001C15.5 23.1001 14.3578 21.8156 14 21.1001C13.5 20.1001 14.2845 18.7768 13.5 17.6001C12.5 16.1001 9.5 17.1001 10 15.6001C10.5 14.1001 14 14.6001 14.5 12.1001Z" fill="#898989"/>
<path d="M14.5 12.1001C14.9 10.1001 11.8333 10.1001 10 10.6001C7.5 12.1001 6.81108 12.789 5 14.6001C3 16.6001 1 20.1001 1 23.6001C2.5 21.1001 5 23.1001 6 24.1001C7 25.1001 9.5 26.1001 11.5 26.1001C12.5 26.1001 14.5 25.1001 15 24.1001C15.5 23.1001 14.3578 21.8156 14 21.1001C13.5 20.1001 14.2845 18.7768 13.5 17.6001C12.5 16.1001 9.5 17.1001 10 15.6001C10.5 14.1001 14 14.6001 14.5 12.1001Z" fill="white" fill-opacity="0.2"/>
</svg>
