<svg width="50" height="50" viewBox="0 0 50 50" fill="none" xmlns="http://www.w3.org/2000/svg">
<path d="M25.0013 2.07935L2.02734 10.0794L25.0013 18.1237L48.0273 10.0793L25.0013 2.07935Z" fill="#FAA21E"/>
<path d="M25.0013 2.07935L2.02734 10.0794L25.0013 18.1237L48.0273 10.0793L25.0013 2.07935Z" fill="white" fill-opacity="0.95"/>
<path d="M25 26L1.99998 17.9999L1.99999 23L25.0015 31L48 22.9999L48 17.9999L25 26Z" fill="#FAA21E"/>
<path d="M25 26L1.99998 17.9999L1.99999 23L25.0015 31L48 22.9999L48 17.9999L25 26Z" fill="white" fill-opacity="0.95"/>
<path d="M25 18.0001L1.99995 10L1.99998 12.0001L25 20.0001L48 12.0001L48 10.0001L25 18.0001Z" fill="#FAA21E"/>
<path d="M25 18.0001L1.99995 10L1.99998 12.0001L25 20.0001L48 12.0001L48 10.0001L25 18.0001Z" fill="white" fill-opacity="0.95"/>
<path d="M25 36.9998L2.00003 28.9999L2.00002 33.9998L25 41.9998L48 33.9998L48 28.9998L25 36.9998Z" fill="#FAA21E"/>
<path d="M25 36.9998L2.00003 28.9999L2.00002 33.9998L25 41.9998L48 33.9998L48 28.9998L25 36.9998Z" fill="white" fill-opacity="0.95"/>
<path d="M25 30.9998L1.99998 22.9999L1.99998 28.9998L25 36.9998L48 28.9998L48 22.9998L25 30.9998Z" fill="#FAA21E"/>
<path d="M25 30.9998L1.99998 22.9999L1.99998 28.9998L25 36.9998L48 28.9998L48 22.9998L25 30.9998Z" fill="white" fill-opacity="0.6"/>
<path d="M25 42L2.00002 33.9999L2.00002 40L25 48L48 40L48 34L25 42Z" fill="#FAA21E"/>
<path d="M25 42L2.00002 33.9999L2.00002 40L25 48L48 40L48 34L25 42Z" fill="white" fill-opacity="0.6"/>
<path d="M25.0023 19.9998L1.99998 11.9999L2.00002 17.9998L25.0023 25.9998L48 17.9999L48 11.9999L25.0023 19.9998Z" fill="#FAA21E"/>
<path d="M25.0023 19.9998L1.99998 11.9999L2.00002 17.9998L25.0023 25.9998L48 17.9999L48 11.9999L25.0023 19.9998Z" fill="white" fill-opacity="0.6"/>
<path d="M26.5 6C26.9 5.20009 28.1667 3.66671 29 3.5L42 8C41.3333 8.5 39.1 11.4 37.5 11C35.5 10.5 36 9 34.5 8.5C33 8 33 10 30.5 10.5C28 11 26.5 10.5 26 9C25.5 7.5 26 6.99988 26.5 6Z" fill="#898989"/>
<path d="M26.5 6C26.9 5.20009 28.1667 3.66671 29 3.5L42 8C41.3333 8.5 39.1 11.4 37.5 11C35.5 10.5 36 9 34.5 8.5C33 8 33 10 30.5 10.5C28 11 26.5 10.5 26 9C25.5 7.5 26 6.99988 26.5 6Z" fill="white" fill-opacity="0.2"/>
<path d="M17 7C17.5 5.5 15 5.5 15 5.5L2 10L10 13C10 13 13.5 14 13 12.5C12.5 11 9 12.5 9.5 11C10 9.5 16.1938 9.41868 17 7Z" fill="#898989"/>
<path d="M17 7C17.5 5.5 15 5.5 15 5.5L2 10L10 13C10 13 13.5 14 13 12.5C12.5 11 9 12.5 9.5 11C10 9.5 16.1938 9.41868 17 7Z" fill="white" fill-opacity="0.2"/>
<path d="M30 16L25 18L17 15C17.6667 14.8333 19.3 14.5 20.5 14.5C22 14.5 21 15.5 22 15.5C23 15.5 23 14.5 24 14C25 13.5 26.5 13.5 29.5 14C31.9 14.4 30.8333 15.5 30 16Z" fill="#898989"/>
<path d="M30 16L25 18L17 15C17.6667 14.8333 19.3 14.5 20.5 14.5C22 14.5 21 15.5 22 15.5C23 15.5 23 14.5 24 14C25 13.5 26.5 13.5 29.5 14C31.9 14.4 30.8333 15.5 30 16Z" fill="white" fill-opacity="0.2"/>
</svg>
