<svg width="50" height="50" viewBox="0 0 50 50" fill="none" xmlns="http://www.w3.org/2000/svg">
<circle cx="24.695" cy="31.5723" r="18.3326" transform="rotate(57.5674 24.695 31.5723)" fill="#FAA21E"/>
<circle cx="24.695" cy="31.5723" r="18.3326" transform="rotate(57.5674 24.695 31.5723)" fill="white" fill-opacity="0.95"/>
<path d="M37.8886 26.2917C38.7598 25.2211 41.4038 26.1267 42.4745 26.9979C43.4761 31.0158 43.1441 34.0675 41.9987 37.6433C40.8883 41.1095 37.8426 44.9386 35.2637 46.5772C33.9244 46.9111 32.9535 47.0108 32.2512 45.9056C31.5489 44.8004 32.099 43.4166 32.9228 42.8931C34.3964 41.9568 36.9407 41.8915 37.2094 40.6865C37.3437 40.084 36.4365 38.9599 35.2023 38.3418C32.9266 37.202 31.0875 34.1041 31.4568 32.4472C31.7255 31.2422 33.5279 29.6984 35.8777 29.6381C38.422 29.5729 36.7867 27.6461 37.8886 26.2917Z" fill="#898989"/>
<path d="M22.1685 16.2437C21.337 14.5571 19.5247 14.1098 18 14.5C17.0917 14.8575 15.4918 15.4935 14 16.5001C12.4412 17.5519 10 20.4999 9.99999 20.6C9.77375 22.1575 8.57488 24.3462 9.78108 27.4115C11.2866 31.2375 15.9324 33.1983 19.3881 33.7003C22.5029 34.1527 25.2616 32.6993 25.4211 30.9067C25.6145 28.7328 24.3161 27.5656 22.4341 27.0476C20.552 26.5295 17.5978 23.2867 18.1486 22.0211C18.5381 21.1262 19.9979 21.9227 21.4898 20.9161C22.6087 20.1612 23.2079 18.352 22.1685 16.2437Z" fill="#898989"/>
<path d="M19.1134 46.8991C21.5311 45.8916 22.7599 43.4587 20.9263 40.2503C19.3144 37.4297 18.1058 39.2431 16.2925 38.0343C14.9409 37.1334 14.0763 34.8109 12.8674 36.6241C11.2058 39.1161 11.8702 43.1994 12.8675 44.4816C14.278 46.2949 16.6957 47.9065 19.1134 46.8991Z" fill="#898989"/>
<path d="M38.2016 1.44466L34.4365 0.281679C33.467 1.13286 31.319 4.11752 29.843 7.46444C28.367 10.8114 27.408 16.2194 27.6402 17.3097L29.8145 18.0379C29.758 16.5492 29.8676 16.0596 30.1252 14.9083C30.4923 13.2674 31 12 31.5466 10.8767C33.4416 13.0466 35.1828 15.442 38.1824 16.0389C41.7874 16.7563 45.0663 13.9022 46.2303 13.1488C45.1134 11.3702 42.1012 8.38304 37.7402 8.14952C35.3023 8.01897 32.8471 9.19578 32 9.5C32.9263 7.31858 33.5367 6.53478 34.7659 5.19354L38.2016 1.44466Z" fill="#2FC4A7"/>
<path d="M38.2016 1.44466L34.4365 0.281679C33.467 1.13286 31.319 4.11752 29.843 7.46444C28.367 10.8114 27.408 16.2194 27.6402 17.3097L29.8145 18.0379C29.758 16.5492 29.8676 16.0596 30.1252 14.9083C30.4923 13.2674 31 12 31.5466 10.8767C33.4416 13.0466 35.1828 15.442 38.1824 16.0389C41.7874 16.7563 45.0663 13.9022 46.2303 13.1488C45.1134 11.3702 42.1012 8.38304 37.7402 8.14952C35.3023 8.01897 32.8471 9.19578 32 9.5C32.9263 7.31858 33.5367 6.53478 34.7659 5.19354L38.2016 1.44466Z" fill="black" fill-opacity="0.2"/>
</svg>
