<svg width="50" height="50" viewBox="0 0 50 50" fill="none" xmlns="http://www.w3.org/2000/svg">
<path d="M14.3929 26.338C11.9071 24.0845 8.52381 19.0141 7.14286 16.7606C8.17857 19.0141 10.7679 24.0845 12.8393 26.338C15.4286 29.1549 22.1607 35.3521 23.7143 38.169C24.9571 40.4225 25.6131 42.8638 25.7857 43.8028C22.1607 43.9906 13.875 43.4648 9.73214 39.8592C4.55357 35.3521 3 29.1549 3 23.5211C3 19.0141 4.38095 12.6291 5.07143 10C7.66071 11.3146 14.1857 14.507 19.5714 16.7606C26.3036 19.5775 27.8571 25.2113 28.375 31.4085C28.7893 36.3662 28.2024 40.6103 27.8571 42.1127L32 47.1831L30.9643 50C29.5833 47.9343 26.6143 42.9014 25.7857 39.2958C24.75 34.7887 17.5 29.1549 14.3929 26.338Z" fill="#FEFEFE"/>
<path d="M3 25V22C3.83333 22 5.6 22.2 6 23C6.5 24 6 24.5 6 25.5C6 26.5 9.5 27 9.5 28.5C9.5 30 7.5 31.5 6.5 32C5.7 32.4 4.5 31.5 4 31C3.66667 29.8333 3 27 3 25Z" fill="#898989"/>
<path d="M3 25V22C3.83333 22 5.6 22.2 6 23C6.5 24 6 24.5 6 25.5C6 26.5 9.5 27 9.5 28.5C9.5 30 7.5 31.5 6.5 32C5.7 32.4 4.5 31.5 4 31C3.66667 29.8333 3 27 3 25Z" fill="white" fill-opacity="0.2"/>
<path d="M16.5 35C15 35 15 36.5 15 37.5C15.1667 38.1667 15.7 39.6 16.5 40C17.5 40.5 19 39 19.5 38.5C20 38 20 37.5 20 37C20 36.5 18 35 16.5 35Z" fill="#898989"/>
<path d="M16.5 35C15 35 15 36.5 15 37.5C15.1667 38.1667 15.7 39.6 16.5 40C17.5 40.5 19 39 19.5 38.5C20 38 20 37.5 20 37C20 36.5 18 35 16.5 35Z" fill="white" fill-opacity="0.2"/>
<path d="M21 17.5001C19.5448 17.1364 18 19.0001 18 21.0001C18.5 24.0001 22 25.0001 22.5 26.0001C23 27.0001 22.5 30.0001 25 30.0001C27.5 30.0001 27.5981 26.4904 27.5 26.0001C26.5 21.0001 23 18 21 17.5001Z" fill="#898989"/>
<path d="M21 17.5001C19.5448 17.1364 18 19.0001 18 21.0001C18.5 24.0001 22 25.0001 22.5 26.0001C23 27.0001 22.5 30.0001 25 30.0001C27.5 30.0001 27.5981 26.4904 27.5 26.0001C26.5 21.0001 23 18 21 17.5001Z" fill="white" fill-opacity="0.2"/>
<path d="M38.6756 13.4118C39.1309 9.83529 40.0036 6.70588 40.383 5.58824C39.6242 7.07843 37.9927 10.7294 37.5374 13.4118C36.9683 16.7647 36.9683 17.3235 35.83 22.3529C34.9356 26.3048 33.7432 29.9902 32.9844 31.2941C31.4667 29.8039 28.2036 25.5941 27.293 20.6765C26.1547 14.5294 28.4313 10.6176 32.4152 6.70588C35.6023 3.57647 40.9522 0.931373 43.2287 0C43.9875 2.23529 45.7328 8.04706 46.6435 13.4118C47.7817 20.1176 46.0743 22.9118 43.2287 26.2647C40.9522 28.9471 36.9682 31.1078 35.2608 31.8529L34.1226 37.4412L32.4152 38C32.4152 37.0686 32.8705 34.3118 34.6917 30.7353C36.9682 26.2647 38.1065 17.8824 38.6756 13.4118Z" fill="#898989"/>
<path d="M38.6756 13.4118C39.1309 9.83529 40.0036 6.70588 40.383 5.58824C39.6242 7.07843 37.9927 10.7294 37.5374 13.4118C36.9683 16.7647 36.9683 17.3235 35.83 22.3529C34.9356 26.3048 33.7432 29.9902 32.9844 31.2941C31.4667 29.8039 28.2036 25.5941 27.293 20.6765C26.1547 14.5294 28.4313 10.6176 32.4152 6.70588C35.6023 3.57647 40.9522 0.931373 43.2287 0C43.9875 2.23529 45.7328 8.04706 46.6435 13.4118C47.7817 20.1176 46.0743 22.9118 43.2287 26.2647C40.9522 28.9471 36.9682 31.1078 35.2608 31.8529L34.1226 37.4412L32.4152 38C32.4152 37.0686 32.8705 34.3118 34.6917 30.7353C36.9682 26.2647 38.1065 17.8824 38.6756 13.4118Z" fill="white" fill-opacity="0.95"/>
<path d="M38.2421 5.14814C38.3138 4.24394 36.6028 4.04796 36 4.00014C35.5902 4.06872 34.7794 4.53689 34.5 5C34.1508 5.57889 35.2225 6.17469 35.5 6.5C35.7775 6.82531 35.5933 7.42806 36.5 7.5C37.1701 7.55317 38.1703 6.05234 38.2421 5.14814Z" fill="#898989"/>
<path d="M38.2421 5.14814C38.3138 4.24394 36.6028 4.04796 36 4.00014C35.5902 4.06872 34.7794 4.53689 34.5 5C34.1508 5.57889 35.2225 6.17469 35.5 6.5C35.7775 6.82531 35.5933 7.42806 36.5 7.5C37.1701 7.55317 38.1703 6.05234 38.2421 5.14814Z" fill="white" fill-opacity="0.2"/>
<path d="M42.1778 13.1803C40.7547 13.6546 41.1778 14.6804 41.1778 15.6804C41.1778 17.1804 40.7778 18.3804 41.1778 19.1804C41.6778 20.1805 43.0684 20.2898 44.1778 19.1804C45.2871 18.071 45.6778 17.1804 45.1778 15.1804C44.6778 13.1804 43.6778 12.6803 42.1778 13.1803Z" fill="#898989"/>
<path d="M42.1778 13.1803C40.7547 13.6546 41.1778 14.6804 41.1778 15.6804C41.1778 17.1804 40.7778 18.3804 41.1778 19.1804C41.6778 20.1805 43.0684 20.2898 44.1778 19.1804C45.2871 18.071 45.6778 17.1804 45.1778 15.1804C44.6778 13.1804 43.6778 12.6803 42.1778 13.1803Z" fill="white" fill-opacity="0.2"/>
<path d="M32 25.0002C33.5269 23.5375 34.5419 20.9251 33.5 20C31.5419 18.4251 32.839 16.8936 31.8468 16.1156C30.6066 15.1431 29.7442 15.9173 29 17.9998C28.2558 20.0824 27 19.9998 28.0248 22.9998C29.0495 25.9999 30.3906 26.542 32 25.0002Z" fill="#898989"/>
<path d="M32 25.0002C33.5269 23.5375 34.5419 20.9251 33.5 20C31.5419 18.4251 32.839 16.8936 31.8468 16.1156C30.6066 15.1431 29.7442 15.9173 29 17.9998C28.2558 20.0824 27 19.9998 28.0248 22.9998C29.0495 25.9999 30.3906 26.542 32 25.0002Z" fill="white" fill-opacity="0.2"/>
</svg>
