<svg width="50" height="50" viewBox="0 0 50 50" fill="none" xmlns="http://www.w3.org/2000/svg">
<path d="M23.6044 41C33.2117 41 41 33.5636 41 24.3904C41 17.6553 36.8016 11.8565 30.7673 9.24975C29.2324 8.58661 28.7208 9.24647 29.2324 11.2005C29.6536 12.8091 31.9661 21.213 27.3613 26.5866C22.4159 32.3579 10.9676 32 9.94428 32C9.00043 32 8.59229 32.925 9.53525 34.1608C12.6982 38.306 17.8218 41 23.6044 41Z" fill="#1D8CE0"/>
<path d="M23.6044 41C33.2117 41 41 33.5636 41 24.3904C41 17.6553 36.8016 11.8565 30.7673 9.24975C29.2324 8.58661 28.7208 9.24647 29.2324 11.2005C29.6536 12.8091 31.9661 21.213 27.3613 26.5866C22.4159 32.3579 10.9676 32 9.94428 32C9.00043 32 8.59229 32.925 9.53525 34.1608C12.6982 38.306 17.8218 41 23.6044 41Z" fill="white" fill-opacity="0.4"/>
<path d="M36 22C35.2664 16.1316 30.8084 11.347 29.5 12C29.9361 14.83 31.6201 21.8112 27 27C22.2605 32.3228 13.3084 31.6081 12 32C12.5 33.5 14.5 37 22.5 37C30.5 37 37 30 36 22Z" fill="#1D8CE0"/>
<path d="M36 22C35.2664 16.1316 30.8084 11.347 29.5 12C29.9361 14.83 31.6201 21.8112 27 27C22.2605 32.3228 13.3084 31.6081 12 32C12.5 33.5 14.5 37 22.5 37C30.5 37 37 30 36 22Z" fill="white" fill-opacity="0.2"/>
<path d="M32.5 23C33 18.5 31 14.5001 30 15C30.3333 17.1667 30.5311 23.0275 27 27C23.3776 31.0752 16 31.5 15 31.8C15 32.8 19.015 33.897 23.5 33C27.985 32.103 31.9445 28 32.5 23Z" fill="#1D8CE0"/>
<path d="M38.496 18.1125C39.3768 19.8315 39.525 21.731 39 22C38.475 22.269 37.8808 20.719 37 19C36.1192 17.281 35.4256 15.7561 35.9505 15.4871C36.4755 15.2181 37.6152 16.3935 38.496 18.1125Z" fill="#FEFEFE"/>
<ellipse cx="39.2048" cy="24.515" rx="0.810493" ry="1.26582" transform="rotate(0.219201 39.2048 24.515)" fill="#FEFEFE"/>
<ellipse cx="11.5191" cy="34.0821" rx="0.828692" ry="1.21919" transform="rotate(132.305 11.5191 34.0821)" fill="#FEFEFE"/>
</svg>
