<?xml version="1.0" encoding="utf-8"?><svg fill="none" viewBox="0 0 50 50" xmlns="http://www.w3.org/2000/svg" width="50" height="50"><g clip-path="url(#avza)"><path d="M9.737 2.014H40v3l1 2h4v41H11.316c-.527 0-3.158 0-4.737-1.568C5 44.877 5 43.309 5 42.786V6.718c0-1.045.737-2.3 1.579-3.136.842-.836 2.105-1.568 3.158-1.568Z" fill="#1D8CE0"/><path d="m43 9-3-4v35.031h-2L43 46V9Z" fill="#898989"/><path d="m43 9-3-4v35.031h-2L43 46V9Z" fill="#fff" fill-opacity=".2"/><path d="M10.093 40H38l5 6H10.093c-.504 0-3.119-.918-3.119-3.16C6.974 40.6 9.59 40 10.093 40Z" fill="#898989"/><path d="M10.093 40H38l5 6H10.093c-.504 0-3.119-.918-3.119-3.16C6.974 40.6 9.59 40 10.093 40Z" fill="#fff" fill-opacity=".6"/><g clip-path="url(#avzb)"><path d="M21.72 9.16c0-.96.853-2.347 1.28-2.88.427.533 1.28 1.92 1.28 2.88s-.853 1.387-1.28 1.6c-.427-.213-1.28-.64-1.28-1.6ZM24.28 32.84c0 .96-.853 2.347-1.28 2.88-.427-.533-1.28-1.92-1.28-2.88s.853-1.387 1.28-1.6c.427.213 1.28.64 1.28 1.6ZM34.84 19.72c.96 0 2.347.853 2.88 1.28-.533.427-1.92 1.28-2.88 1.28s-1.387-.853-1.6-1.28c.213-.427.64-1.28 1.6-1.28ZM11.16 22.28c-.96 0-2.347-.853-2.88-1.28.533-.427 1.92-1.28 2.88-1.28s1.387.853 1.6 1.28c-.213.427-.64 1.28-1.6 1.28ZM27.811 10.106c.48-.831 1.913-1.605 2.549-1.854.103.675.149 2.303-.331 3.134-.48.832-1.433.774-1.909.746-.263-.398-.789-1.194-.309-2.026ZM18.189 31.894c-.48.831-1.913 1.605-2.549 1.854-.103-.675-.149-2.303.332-3.134.48-.832 1.432-.774 1.908-.746.263.398.789 1.194.309 2.026ZM33.894 25.811c.831.48 1.605 1.913 1.854 2.549-.675.103-2.303.149-3.134-.331-.832-.48-.774-1.433-.746-1.909.398-.263 1.194-.789 2.026-.309ZM12.106 16.189c-.831-.48-1.605-1.913-1.854-2.549.675-.103 2.303-.149 3.134.332.832.48.774 1.432.746 1.908-.398.263-1.194.789-2.026.309ZM15.972 11.386c-.48-.831-.435-2.459-.332-3.134.636.249 2.069 1.023 2.549 1.854.48.832-.046 1.628-.309 2.026-.476.029-1.428.086-1.908-.746ZM30.029 30.614c.48.831.434 2.459.331 3.134-.636-.249-2.069-1.023-2.549-1.854-.48-.832.046-1.628.309-2.026.476-.028 1.428-.086 1.909.746ZM32.614 13.972c.831-.48 2.459-.435 3.134-.332-.249.636-1.023 2.069-1.854 2.549-.832.48-1.628-.046-2.026-.309-.028-.476-.086-1.429.746-1.909ZM13.386 28.029c-.831.48-2.459.434-3.134.331.249-.636 1.023-2.069 1.854-2.549.832-.48 1.628.046 2.026.309.029.476.086 1.428-.746 1.909Z" fill="#FEFEFE"/><circle cx="26.064" cy="9.563" r=".32" transform="rotate(15 26.064 9.563)" fill="#FEFEFE"/><circle cx="19.936" cy="32.437" r=".32" transform="rotate(15 19.936 32.437)" fill="#FEFEFE"/><circle cx="34.437" cy="24.064" r=".32" transform="rotate(105 34.437 24.064)" fill="#FEFEFE"/><circle cx="11.563" cy="17.936" r=".32" transform="rotate(105 11.563 17.936)" fill="#FEFEFE"/><circle cx="31.372" cy="12.628" r=".32" transform="rotate(45 31.372 12.628)" fill="#FEFEFE"/><circle cx="14.628" cy="29.372" r=".32" transform="rotate(45 14.628 29.372)" fill="#FEFEFE"/><circle cx="31.372" cy="29.372" r=".32" transform="rotate(135 31.372 29.372)" fill="#FEFEFE"/><circle cx="14.628" cy="12.628" r=".32" transform="rotate(135 14.628 12.628)" fill="#FEFEFE"/><circle cx="19.936" cy="9.563" r=".32" transform="rotate(-15 19.936 9.563)" fill="#FEFEFE"/><circle cx="26.064" cy="32.437" r=".32" transform="rotate(-15 26.064 32.437)" fill="#FEFEFE"/><circle cx="34.437" cy="17.936" r=".32" transform="rotate(75 34.437 17.936)" fill="#FEFEFE"/><circle cx="11.563" cy="24.064" r=".32" transform="rotate(75 11.563 24.064)" fill="#FEFEFE"/><circle cx="12.12" cy="10.12" r=".64" fill="#FEFEFE"/><circle cx="33.88" cy="10.12" r=".64" fill="#FEFEFE"/><circle cx="12.12" cy="31.88" r=".64" fill="#FEFEFE"/><circle cx="33.88" cy="31.88" r=".64" fill="#FEFEFE"/><circle cx="19.018" cy="6.138" r=".64" transform="rotate(30 19.018 6.138)" fill="#FEFEFE"/><circle cx="37.862" cy="17.018" r=".64" transform="rotate(30 37.862 17.018)" fill="#FEFEFE"/><circle cx="8.138" cy="24.982" r=".64" transform="rotate(30 8.138 24.982)" fill="#FEFEFE"/><circle cx="26.982" cy="35.862" r=".64" transform="rotate(30 26.982 35.862)" fill="#FEFEFE"/><circle cx="8.138" cy="17.018" r=".64" transform="rotate(-30 8.138 17.018)" fill="#FEFEFE"/><circle cx="26.982" cy="6.138" r=".64" transform="rotate(-30 26.982 6.138)" fill="#FEFEFE"/><circle cx="19.018" cy="35.862" r=".64" transform="rotate(-30 19.018 35.862)" fill="#FEFEFE"/><circle cx="37.862" cy="24.982" r=".64" transform="rotate(-30 37.862 24.982)" fill="#FEFEFE"/><path d="M26.916 29.16c1.992-.828 3.368-2.085 3.574-3.997-.976.862-2.276.945-2.276.945 1.1-1.37 2.075-2.232 1.835-4.416-1.099 1.37-2.114 1.336-3.13 1.3.408-.625 1.1-1.37 1.06-2.266-1.138.473-3.133 1.074-4.271 1.547-1.423.59-2.308 2.785-1.498 4.732.809 1.948 3.255 2.758 4.706 2.155Z" fill="#1D8CE0"/><path d="M26.916 29.16c1.992-.828 3.368-2.085 3.574-3.997-.976.862-2.276.945-2.276.945 1.1-1.37 2.075-2.232 1.835-4.416-1.099 1.37-2.114 1.336-3.13 1.3.408-.625 1.1-1.37 1.06-2.266-1.138.473-3.133 1.074-4.271 1.547-1.423.59-2.308 2.785-1.498 4.732.809 1.948 3.255 2.758 4.706 2.155Z" fill="#fff" fill-opacity=".4"/><path d="M26.246 28.799c1.72-.715 2.914-1.79 3.104-3.411-.846.737-1.965.816-1.965.816.955-1.168 1.801-1.905 1.61-3.754-.956 1.169-1.83 1.146-2.704 1.124.355-.534.956-1.169.928-1.929-.983.409-2.705.932-3.688 1.34-1.228.51-2.005 2.376-1.321 4.02.683 1.645 2.784 2.314 4.036 1.794Z" fill="#1D8CE0"/><path d="M26.246 28.799c1.72-.715 2.914-1.79 3.104-3.411-.846.737-1.965.816-1.965.816.955-1.168 1.801-1.905 1.61-3.754-.956 1.169-1.83 1.146-2.704 1.124.355-.534.956-1.169.928-1.929-.983.409-2.705.932-3.688 1.34-1.228.51-2.005 2.376-1.321 4.02.683 1.645 2.784 2.314 4.036 1.794Z" fill="#fff" fill-opacity=".8"/><path d="M25.18 28.054c1.087-.451 1.836-1.143 1.942-2.202-.531.474-1.242.516-1.242.516.596-.755 1.127-1.23.988-2.44-.596.755-1.152.732-1.707.71.22-.346.596-.756.571-1.253-.62.258-1.71.584-2.33.842-.777.322-1.253 1.535-.803 2.616.45 1.082 1.79 1.54 2.582 1.211Z" fill="#FAA21E"/><path d="M25.18 28.054c1.087-.451 1.836-1.143 1.942-2.202-.531.474-1.242.516-1.242.516.596-.755 1.127-1.23.988-2.44-.596.755-1.152.732-1.707.71.22-.346.596-.756.571-1.253-.62.258-1.71.584-2.33.842-.777.322-1.253 1.535-.803 2.616.45 1.082 1.79 1.54 2.582 1.211Z" fill="#fff" fill-opacity=".95"/><path d="M27.416 13.254c1.529.806 2.494 2.68 1.367 4.82-1.127 2.14-3.881 2.379-5.258 1.331-2.013-1.532-2.364-4.662-3.61-6.002 1.81.27 4.99-1.472 7.501-.149Z" fill="#1D8CE0"/><path d="M27.416 13.254c1.529.806 2.494 2.68 1.367 4.82-1.127 2.14-3.881 2.379-5.258 1.331-2.013-1.532-2.364-4.662-3.61-6.002 1.81.27 4.99-1.472 7.501-.149Z" fill="#fff" fill-opacity=".6"/><path d="M23.089 15.357c-.233-.559-.305-1.272-.988-1.007-.682.265-.412 1.178-.179 1.737.294.706.86 1.52 1.543 1.255.91-.353-.143-1.427-.376-1.985ZM24.323 17.477c-.308.09-.72.377-.625.682.096.305.454.7.7.63.307-.09.76-.25.624-.682-.095-.306-.482-.693-.7-.63Z" fill="#FEFEFE"/><path d="M28.17 17.771c-.595 1.129-2.236 1.312-2.982 1.262.446-.195 1.465-.825 1.974-1.793.51-.967.588-2.093.563-2.535.396.552 1.04 1.937.445 3.066Z" fill="#FEFEFE" fill-opacity=".15"/><path d="M28.17 17.771c-.595 1.129-2.236 1.312-2.982 1.262.446-.195 1.465-.825 1.974-1.793.51-.967.588-2.093.563-2.535.396.552 1.04 1.937.445 3.066Z" fill="#FEFEFE" fill-opacity=".15"/><path d="M28.17 17.771c-.595 1.129-2.236 1.312-2.982 1.262.446-.195 1.465-.825 1.974-1.793.51-.967.588-2.093.563-2.535.396.552 1.04 1.937.445 3.066Z" fill="#FEFEFE" fill-opacity=".15"/><path d="M21.235 19.477c-.488-2.901-2.801-4.418-4.142-4.908-1.129 1.385-2.81 3.636-2.114 6.554.694 2.918 2.642 4.487 5.267 5.224-.146-2.083 1.41-4.369.989-6.87Z" fill="#FAA21E"/><path d="M21.235 19.477c-.488-2.901-2.801-4.418-4.142-4.908-1.129 1.385-2.81 3.636-2.114 6.554.694 2.918 2.642 4.487 5.267 5.224-.146-2.083 1.41-4.369.989-6.87Z" fill="#fff" fill-opacity=".95"/><path fill-rule="evenodd" clip-rule="evenodd" d="M15.556 22.748a6.28 6.28 0 0 0 1.524 1.978c.062-.19.15-.382.252-.557.173-.297.412-.584.684-.759a6.387 6.387 0 0 1-.401-1.14c-.11-.443-.15-1.168-.156-1.677-.427.222-.907.63-1.291 1.102a3.74 3.74 0 0 0-.542.865c-.028.066-.051.128-.07.188Zm1.913 2.29c.676.503 1.457.886 2.32 1.17-.533-.655-1.128-1.5-1.579-2.39a1.963 1.963 0 0 0-.477.568c-.128.22-.22.45-.264.653Zm2.767 1.012c.002-.582.121-1.18.28-1.794-.233-.177-.563-.307-.931-.395a5.37 5.37 0 0 0-.91-.127 13.76 13.76 0 0 0 1.561 2.316Zm.4-2.244.105-.373c.17-.6.343-1.215.453-1.845-.46-.4-1.033-.666-1.609-.838a6.765 6.765 0 0 0-1.669-.27c.002.495.039 1.264.145 1.696.1.405.229.747.397 1.114.332.005.785.042 1.231.148.323.077.662.192.947.368Zm.63-2.725a5.781 5.781 0 0 0-.5-3.136 3.476 3.476 0 0 0-1.352-.543 5.053 5.053 0 0 0-1.61-.036c.099.897.117 1.858.113 2.678a7.245 7.245 0 0 1 1.8.29c.526.157 1.073.395 1.55.747Zm-.883-3.844c-.836-1.325-2.064-2.143-2.987-2.546.116.62.245 1.406.354 2.242a5.53 5.53 0 0 1 1.747.04c.294.056.594.14.886.264Zm-3.44-2.484c-.742.927-1.657 2.198-1.994 3.765.09-.094.186-.186.285-.276.578-.522 1.306-.978 2.069-1.21a42.32 42.32 0 0 0-.36-2.279Zm-2.114 4.608a5.841 5.841 0 0 0 .15 1.762c.088.371.197.72.324 1.05.132-.252.305-.507.502-.749.46-.564 1.08-1.09 1.653-1.32.005-.809-.01-1.752-.101-2.63-.65.216-1.285.618-1.805 1.088-.287.26-.532.533-.723.8Z" fill="#1D8CE0"/><path fill-rule="evenodd" clip-rule="evenodd" d="M15.556 22.748a6.28 6.28 0 0 0 1.524 1.978c.062-.19.15-.382.252-.557.173-.297.412-.584.684-.759a6.387 6.387 0 0 1-.401-1.14c-.11-.443-.15-1.168-.156-1.677-.427.222-.907.63-1.291 1.102a3.74 3.74 0 0 0-.542.865c-.028.066-.051.128-.07.188Zm1.913 2.29c.676.503 1.457.886 2.32 1.17-.533-.655-1.128-1.5-1.579-2.39a1.963 1.963 0 0 0-.477.568c-.128.22-.22.45-.264.653Zm2.767 1.012c.002-.582.121-1.18.28-1.794-.233-.177-.563-.307-.931-.395a5.37 5.37 0 0 0-.91-.127 13.76 13.76 0 0 0 1.561 2.316Zm.4-2.244.105-.373c.17-.6.343-1.215.453-1.845-.46-.4-1.033-.666-1.609-.838a6.765 6.765 0 0 0-1.669-.27c.002.495.039 1.264.145 1.696.1.405.229.747.397 1.114.332.005.785.042 1.231.148.323.077.662.192.947.368Zm.63-2.725a5.781 5.781 0 0 0-.5-3.136 3.476 3.476 0 0 0-1.352-.543 5.053 5.053 0 0 0-1.61-.036c.099.897.117 1.858.113 2.678a7.245 7.245 0 0 1 1.8.29c.526.157 1.073.395 1.55.747Zm-.883-3.844c-.836-1.325-2.064-2.143-2.987-2.546.116.62.245 1.406.354 2.242a5.53 5.53 0 0 1 1.747.04c.294.056.594.14.886.264Zm-3.44-2.484c-.742.927-1.657 2.198-1.994 3.765.09-.094.186-.186.285-.276.578-.522 1.306-.978 2.069-1.21a42.32 42.32 0 0 0-.36-2.279Zm-2.114 4.608a5.841 5.841 0 0 0 .15 1.762c.088.371.197.72.324 1.05.132-.252.305-.507.502-.749.46-.564 1.08-1.09 1.653-1.32.005-.809-.01-1.752-.101-2.63-.65.216-1.285.618-1.805 1.088-.287.26-.532.533-.723.8Z" fill="#fff" fill-opacity=".6"/></g></g><defs><clipPath id="avza"><path fill="#fff" d="M0 0h50v50H0z"/></clipPath><clipPath id="avzb"><path fill="#fff" transform="translate(7 5)" d="M0 0h32v32H0z"/></clipPath></defs></svg>