<svg width="50" height="50" viewBox="0 0 50 50" fill="none" xmlns="http://www.w3.org/2000/svg">
<g clip-path="url(#clip0_3645_30015)">
<path d="M9.70074 1.99249H39.8518V4.98138L40.8481 6.97397H44.8333V47.8221H11.2738C10.7495 47.8221 8.12764 47.8221 6.55454 46.2597C4.98145 44.6974 4.98145 43.135 4.98145 42.6142V6.67961C4.98145 5.63803 5.71556 4.38813 6.55454 3.55487C7.39353 2.7216 8.65201 1.99249 9.70074 1.99249Z" fill="#7445B8"/>
<path d="M42.8407 9.0662L39.8518 4.98138V39.8518H37.8593L42.8407 45.8295V9.0662Z" fill="#898989"/>
<path d="M42.8407 9.0662L39.8518 4.98138V39.8518H37.8593L42.8407 45.8295V9.0662Z" fill="white" fill-opacity="0.2"/>
<path d="M10.093 39.8517H37.8593L42.8408 45.8295H10.093C9.58856 45.8295 6.97412 45.0823 6.97412 42.8406C6.97412 40.599 9.58856 39.8517 10.093 39.8517Z" fill="#898989"/>
<path d="M10.093 39.8517H37.8593L42.8408 45.8295H10.093C9.58856 45.8295 6.97412 45.0823 6.97412 42.8406C6.97412 40.599 9.58856 39.8517 10.093 39.8517Z" fill="white" fill-opacity="0.6"/>
<path d="M20.0537 8.84776C18.0611 7.31669 13.7343 5.86217 12.3679 12.2927C11.087 12.8668 8.61047 14.8189 8.95205 18.0342C9.29364 21.2494 11.941 22.0533 13.2219 22.0533C13.2219 23.3929 14.5029 26.302 19.6267 27.2206C24.7505 28.1393 27.4548 25.3068 28.1664 23.7757C28.8781 24.5412 31.2585 25.4436 32.7731 23.7757C34.3372 22.0533 33.5551 19.9527 33.1641 18.5564C33.5551 18.5564 35.4609 16.2046 35.1193 14.3673C34.7777 12.53 33.0056 12.1013 32.0093 12.2927C32.0093 11.5271 31.3261 9.53674 28.5934 7.69946C25.8607 5.86217 21.7616 7.69946 20.0537 8.84776Z" fill="#7445B8"/>
<path d="M20.0537 8.84776C18.0611 7.31669 13.7343 5.86217 12.3679 12.2927C11.087 12.8668 8.61047 14.8189 8.95205 18.0342C9.29364 21.2494 11.941 22.0533 13.2219 22.0533C13.2219 23.3929 14.5029 26.302 19.6267 27.2206C24.7505 28.1393 27.4548 25.3068 28.1664 23.7757C28.8781 24.5412 31.2585 25.4436 32.7731 23.7757C34.3372 22.0533 33.5551 19.9527 33.1641 18.5564C33.5551 18.5564 35.4609 16.2046 35.1193 14.3673C34.7777 12.53 33.0056 12.1013 32.0093 12.2927C32.0093 11.5271 31.3261 9.53674 28.5934 7.69946C25.8607 5.86217 21.7616 7.69946 20.0537 8.84776Z" fill="white" fill-opacity="0.95"/>
<path d="M28.4886 33.7547C30.0568 34.8073 33.462 35.8073 34.5373 31.3863C35.5454 30.9916 37.4944 29.6495 37.2255 27.439C36.9567 25.2285 34.8733 24.6759 33.8652 24.6759C33.8652 23.7548 32.8571 21.7549 28.8247 21.1233C24.7923 20.4917 22.664 22.4391 22.104 23.4917C21.5439 22.9654 19.6705 22.345 18.4786 23.4917C17.2476 24.6759 17.8631 26.12 18.1709 27.08C17.8631 27.08 16.3633 28.6969 16.6322 29.96C16.901 31.2231 18.2956 31.5179 19.0797 31.3863C19.0797 31.9126 19.6173 33.281 21.768 34.5441C23.9186 35.8073 27.1445 34.5441 28.4886 33.7547Z" fill="#7445B8"/>
<path d="M28.4886 33.7547C30.0568 34.8073 33.462 35.8073 34.5373 31.3863C35.5454 30.9916 37.4944 29.6495 37.2255 27.439C36.9567 25.2285 34.8733 24.6759 33.8652 24.6759C33.8652 23.7548 32.8571 21.7549 28.8247 21.1233C24.7923 20.4917 22.664 22.4391 22.104 23.4917C21.5439 22.9654 19.6705 22.345 18.4786 23.4917C17.2476 24.6759 17.8631 26.12 18.1709 27.08C17.8631 27.08 16.3633 28.6969 16.6322 29.96C16.901 31.2231 18.2956 31.5179 19.0797 31.3863C19.0797 31.9126 19.6173 33.281 21.768 34.5441C23.9186 35.8073 27.1445 34.5441 28.4886 33.7547Z" fill="white" fill-opacity="0.6"/>
<path d="M16.8557 8.84C13.6341 8.84 11.3931 11.3755 10.2 12.6433C11.5423 13.911 13.992 16.4465 16.8557 16.4465C19.7193 16.4465 22.169 13.911 23.5114 12.6433C22.3182 11.3755 20.0772 8.84 16.8557 8.84Z" fill="#7445B8"/>
<path d="M16.8557 8.84C13.6341 8.84 11.3931 11.3755 10.2 12.6433C11.5423 13.911 13.992 16.4465 16.8557 16.4465C19.7193 16.4465 22.169 13.911 23.5114 12.6433C22.3182 11.3755 20.0772 8.84 16.8557 8.84Z" fill="white" fill-opacity="0.4"/>
<path fill-rule="evenodd" clip-rule="evenodd" d="M15.1736 10.4761C15.6382 10.115 16.2219 9.89999 16.8558 9.89999C18.3709 9.89999 19.5991 11.1282 19.5991 12.6433C19.5991 13.2772 19.3841 13.8609 19.023 14.3255L15.1736 10.4761ZM18.538 14.8104L14.6887 10.9611C14.3276 11.4256 14.1125 12.0093 14.1125 12.6433C14.1125 14.1584 15.3408 15.3866 16.8558 15.3866C17.4898 15.3866 18.0735 15.1715 18.538 14.8104Z" fill="#7445B8"/>
<path fill-rule="evenodd" clip-rule="evenodd" d="M15.1736 10.4761C15.6382 10.115 16.2219 9.89999 16.8558 9.89999C18.3709 9.89999 19.5991 11.1282 19.5991 12.6433C19.5991 13.2772 19.3841 13.8609 19.023 14.3255L15.1736 10.4761ZM18.538 14.8104L14.6887 10.9611C14.3276 11.4256 14.1125 12.0093 14.1125 12.6433C14.1125 14.1584 15.3408 15.3866 16.8558 15.3866C17.4898 15.3866 18.0735 15.1715 18.538 14.8104Z" fill="white" fill-opacity="0.95"/>
<path d="M30.2957 16.52C27.0741 16.52 24.8332 19.0555 23.64 20.3233C24.9823 21.591 27.4321 24.1265 30.2957 24.1265C33.1594 24.1265 35.6091 21.591 36.9514 20.3233C35.7583 19.0555 33.5173 16.52 30.2957 16.52Z" fill="#7445B8"/>
<path d="M30.2957 16.52C27.0741 16.52 24.8332 19.0555 23.64 20.3233C24.9823 21.591 27.4321 24.1265 30.2957 24.1265C33.1594 24.1265 35.6091 21.591 36.9514 20.3233C35.7583 19.0555 33.5173 16.52 30.2957 16.52Z" fill="white" fill-opacity="0.4"/>
<path fill-rule="evenodd" clip-rule="evenodd" d="M28.6136 18.1561C29.0781 17.795 29.6618 17.58 30.2958 17.58C31.8109 17.58 33.0391 18.8082 33.0391 20.3233C33.0391 20.9572 32.824 21.5409 32.4629 22.0055L28.6136 18.1561ZM31.978 22.4904L28.1286 18.6411C27.7675 19.1056 27.5525 19.6893 27.5525 20.3233C27.5525 21.8383 28.7807 23.0666 30.2958 23.0666C30.9297 23.0666 31.5134 22.8515 31.978 22.4904Z" fill="#7445B8"/>
<path fill-rule="evenodd" clip-rule="evenodd" d="M28.6136 18.1561C29.0781 17.795 29.6618 17.58 30.2958 17.58C31.8109 17.58 33.0391 18.8082 33.0391 20.3233C33.0391 20.9572 32.824 21.5409 32.4629 22.0055L28.6136 18.1561ZM31.978 22.4904L28.1286 18.6411C27.7675 19.1056 27.5525 19.6893 27.5525 20.3233C27.5525 21.8383 28.7807 23.0666 30.2958 23.0666C30.9297 23.0666 31.5134 22.8515 31.978 22.4904Z" fill="white" fill-opacity="0.95"/>
<path d="M20.6957 26.12C17.4742 26.12 15.2332 28.6555 14.04 29.9233C15.3824 31.191 17.8321 33.7265 20.6957 33.7265C23.5594 33.7265 26.0091 31.191 27.3515 29.9233C26.1583 28.6555 23.9173 26.12 20.6957 26.12Z" fill="#7445B8"/>
<path d="M20.6957 26.12C17.4742 26.12 15.2332 28.6555 14.04 29.9233C15.3824 31.191 17.8321 33.7265 20.6957 33.7265C23.5594 33.7265 26.0091 31.191 27.3515 29.9233C26.1583 28.6555 23.9173 26.12 20.6957 26.12Z" fill="white" fill-opacity="0.4"/>
<path fill-rule="evenodd" clip-rule="evenodd" d="M19.0136 27.7561C19.4781 27.395 20.0619 27.18 20.6958 27.18C22.2109 27.18 23.4391 28.4082 23.4391 29.9233C23.4391 30.5572 23.2241 31.1409 22.8629 31.6055L19.0136 27.7561ZM22.378 32.0904L18.5287 28.2411C18.1675 28.7056 17.9525 29.2893 17.9525 29.9233C17.9525 31.4384 19.1807 32.6666 20.6958 32.6666C21.3297 32.6666 21.9135 32.4515 22.378 32.0904Z" fill="#7445B8"/>
<path fill-rule="evenodd" clip-rule="evenodd" d="M19.0136 27.7561C19.4781 27.395 20.0619 27.18 20.6958 27.18C22.2109 27.18 23.4391 28.4082 23.4391 29.9233C23.4391 30.5572 23.2241 31.1409 22.8629 31.6055L19.0136 27.7561ZM22.378 32.0904L18.5287 28.2411C18.1675 28.7056 17.9525 29.2893 17.9525 29.9233C17.9525 31.4384 19.1807 32.6666 20.6958 32.6666C21.3297 32.6666 21.9135 32.4515 22.378 32.0904Z" fill="white" fill-opacity="0.95"/>
</g>
<defs>
<clipPath id="clip0_3645_30015">
<rect width="50" height="50" fill="white" transform="matrix(-1 0 0 1 50 0)"/>
</clipPath>
</defs>
</svg>
