<svg width="50" height="50" viewBox="0 0 50 50" fill="none" xmlns="http://www.w3.org/2000/svg">
<g clip-path="url(#clip0_2644_11599)">
<path d="M39.7367 5.32922C38.1358 2.13648 33.5229 -0.223472 21.0952 1.62743C16.2623 2.61458 6.45826 5.47733 5.90592 9.03105C5.2155 13.4732 15.1493 7.54097 16.1274 11.6223C17.1056 15.7036 1.4552 19.3326 3.14423 24.2084C4.42935 27.9182 15.5718 27.1698 20.4048 27.9102L20.4792 27.9216C25.2822 28.6573 29.5832 29.3162 32.142 30.5015C36.6686 32.5982 35.2014 26.2111 32.142 24.2084C29.6192 22.557 25.4199 21.298 24.4417 17.8588C23.4636 14.4196 28.6899 13.8434 33.5229 11.6223C38.3558 9.40123 40.6453 7.14131 39.7367 5.32922Z" stroke="#898989" stroke-width="2" stroke-linecap="round"/>
<path d="M39.7367 5.32922C38.1358 2.13648 33.5229 -0.223472 21.0952 1.62743C16.2623 2.61458 6.45826 5.47733 5.90592 9.03105C5.2155 13.4732 15.1493 7.54097 16.1274 11.6223C17.1056 15.7036 1.4552 19.3326 3.14423 24.2084C4.42935 27.9182 15.5718 27.1698 20.4048 27.9102L20.4792 27.9216C25.2822 28.6573 29.5832 29.3162 32.142 30.5015C36.6686 32.5982 35.2014 26.2111 32.142 24.2084C29.6192 22.557 25.4199 21.298 24.4417 17.8588C23.4636 14.4196 28.6899 13.8434 33.5229 11.6223C38.3558 9.40123 40.6453 7.14131 39.7367 5.32922Z" stroke="white" stroke-opacity="0.6" stroke-width="2" stroke-linecap="round"/>
<path d="M45.1526 39.1345C46.2733 43.3169 43.7913 47.6159 39.6089 48.7365C35.4265 49.8572 31.1276 47.3752 30.0069 43.1928C28.8862 39.0104 33.3093 29.5533 34.3911 29.2635C35.4729 28.9736 44.0319 34.9522 45.1526 39.1345Z" fill="#FAA21E"/>
<path d="M45.1526 39.1345C46.2733 43.3169 43.7913 47.6159 39.6089 48.7365C35.4265 49.8572 31.1276 47.3752 30.0069 43.1928C28.8862 39.0104 33.3093 29.5533 34.3911 29.2635C35.4729 28.9736 44.0319 34.9522 45.1526 39.1345Z" fill="black" fill-opacity="0.1"/>
<path d="M42.3689 37.4003C43.2717 40.7694 41.2185 44.2469 37.783 45.1675C34.3474 46.088 31.3715 43.9581 30.4687 40.589C29.566 37.2198 33.5025 29.5015 34.3911 29.2634C35.2798 29.0253 41.4662 34.0312 42.3689 37.4003Z" fill="#FAA21E"/>
<path d="M42.3689 37.4003C43.2717 40.7694 41.2185 44.2469 37.783 45.1675C34.3474 46.088 31.3715 43.9581 30.4687 40.589C29.566 37.2198 33.5025 29.5015 34.3911 29.2634C35.2798 29.0253 41.4662 34.0312 42.3689 37.4003Z" fill="#FEFEFE" fill-opacity="0.15"/>
<path d="M39.7913 35.3533C40.445 37.793 38.7429 40.2722 36.353 40.9126C33.9631 41.553 31.9883 39.7691 31.3346 37.3294C30.6809 34.8896 33.7729 29.4291 34.3911 29.2634C35.0093 29.0978 39.1376 32.9135 39.7913 35.3533Z" fill="#FAA21E"/>
<path d="M39.7913 35.3533C40.445 37.793 38.7429 40.2722 36.353 40.9126C33.9631 41.553 31.9883 39.7691 31.3346 37.3294C30.6809 34.8896 33.7729 29.4291 34.3911 29.2634C35.0093 29.0978 39.1376 32.9135 39.7913 35.3533Z" fill="white" fill-opacity="0.4"/>
<ellipse cx="34.3128" cy="32.9288" rx="1.96" ry="1.4" transform="rotate(-64.6784 34.3128 32.9288)" fill="#FEFEFE"/>
<circle cx="32.8932" cy="36.6289" r="0.84" transform="rotate(-41.5419 32.8932 36.6289)" fill="#FEFEFE"/>
</g>
<defs>
<clipPath id="clip0_2644_11599">
<rect width="50" height="50" fill="white"/>
</clipPath>
</defs>
</svg>
