<svg width="50" height="50" viewBox="0 0 50 50" fill="none" xmlns="http://www.w3.org/2000/svg">
<g clip-path="url(#clip0_2644_12071)">
<path d="M39.7367 5.32922C38.1358 2.13648 33.5229 -0.223472 21.0952 1.62743C16.2623 2.61458 6.45826 5.47733 5.90592 9.03105C5.2155 13.4732 15.1493 7.54097 16.1274 11.6223C17.1056 15.7036 1.4552 19.3326 3.14423 24.2084C4.42935 27.9182 15.5718 27.1698 20.4048 27.9102L20.4792 27.9216C25.2822 28.6573 29.5832 29.3162 32.142 30.5015C36.6686 32.5982 35.2014 26.2111 32.142 24.2084C29.6192 22.557 25.4199 21.298 24.4417 17.8588C23.4636 14.4196 28.6899 13.8434 33.5229 11.6223C38.3558 9.40123 40.6453 7.14131 39.7367 5.32922Z" stroke="#898989" stroke-width="2" stroke-linecap="round"/>
<path d="M39.7367 5.32922C38.1358 2.13648 33.5229 -0.223472 21.0952 1.62743C16.2623 2.61458 6.45826 5.47733 5.90592 9.03105C5.2155 13.4732 15.1493 7.54097 16.1274 11.6223C17.1056 15.7036 1.4552 19.3326 3.14423 24.2084C4.42935 27.9182 15.5718 27.1698 20.4048 27.9102L20.4792 27.9216C25.2822 28.6573 29.5832 29.3162 32.142 30.5015C36.6686 32.5982 35.2014 26.2111 32.142 24.2084C29.6192 22.557 25.4199 21.298 24.4417 17.8588C23.4636 14.4196 28.6899 13.8434 33.5229 11.6223C38.3558 9.40123 40.6453 7.14131 39.7367 5.32922Z" stroke="white" stroke-opacity="0.6" stroke-width="2" stroke-linecap="round"/>
<path d="M40.446 48.1037C45.4381 45.2215 47.2541 39.0209 44.5021 34.2544C42.4816 30.7547 38.5604 29.0011 34.6429 29.4569C33.6464 29.5728 33.5785 30.0691 34.4305 30.931C35.132 31.6405 38.8547 35.3135 38.0741 39.4872C37.2358 43.9697 31.1797 47.2182 30.648 47.5252C30.1575 47.8083 30.223 48.4114 31.0837 48.7706C33.9708 49.9757 37.4413 49.8384 40.446 48.1037Z" fill="#1D8CE0"/>
<path d="M40.446 48.1037C45.4381 45.2215 47.2541 39.0209 44.5021 34.2544C42.4816 30.7547 38.5604 29.0011 34.6429 29.4569C33.6464 29.5728 33.5785 30.0691 34.4305 30.931C35.132 31.6405 38.8547 35.3135 38.0741 39.4872C37.2358 43.9697 31.1797 47.2182 30.648 47.5252C30.1575 47.8083 30.223 48.4114 31.0837 48.7706C33.9708 49.9757 37.4413 49.8384 40.446 48.1037Z" fill="white" fill-opacity="0.4"/>
<path d="M41.187 34.5122C39.0453 31.683 35.2934 30.5342 34.8094 31.2661C35.8851 32.6057 38.8544 35.7281 38.0104 39.8103C37.1446 43.998 32.2785 46.3122 31.7162 46.9084C32.426 47.5378 34.5152 48.7565 38.6722 46.3565C42.8291 43.9565 44.1066 38.3691 41.187 34.5122Z" fill="#1D8CE0"/>
<path d="M41.187 34.5122C39.0453 31.683 35.2934 30.5342 34.8094 31.2661C35.8851 32.6057 38.8544 35.7281 38.0104 39.8103C37.1446 43.998 32.2785 46.3122 31.7162 46.9084C32.426 47.5378 34.5152 48.7565 38.6722 46.3565C42.8291 43.9565 44.1066 38.3691 41.187 34.5122Z" fill="white" fill-opacity="0.2"/>
<path d="M39.6683 36.0819C38.5781 33.5936 36.3389 32.1152 35.9692 32.675C36.7924 33.7008 38.6535 36.6868 38.0104 39.8104C37.3507 43.0146 33.6446 45.4486 33.215 45.9045C33.515 46.4241 35.9304 45.7896 37.9917 43.978C40.0531 42.1664 40.8796 38.8466 39.6683 36.0819Z" fill="#1D8CE0"/>
<path d="M41.3177 31.7435C42.2911 32.3725 42.9379 33.3151 42.7458 33.6123C42.5537 33.9096 41.78 33.2824 40.8066 32.6535C39.8332 32.0245 39.0153 31.4402 39.2074 31.1429C39.3995 30.8457 40.3443 31.1145 41.3177 31.7435Z" fill="#FEFEFE"/>
<ellipse cx="43.6067" cy="34.8577" rx="0.486296" ry="0.759493" transform="rotate(-29.7808 43.6067 34.8577)" fill="#FEFEFE"/>
<ellipse cx="32.0909" cy="48.1346" rx="0.497215" ry="0.731515" transform="rotate(102.305 32.0909 48.1346)" fill="#FEFEFE"/>
</g>
<defs>
<clipPath id="clip0_2644_12071">
<rect width="50" height="50" fill="white"/>
</clipPath>
</defs>
</svg>
