<svg width="50" height="50" viewBox="0 0 50 50" fill="none" xmlns="http://www.w3.org/2000/svg">
<g clip-path="url(#clip0_2644_11525)">
<path d="M39.7367 5.32922C38.1358 2.13648 33.5229 -0.223472 21.0952 1.62743C16.2623 2.61458 6.45826 5.47733 5.90592 9.03105C5.2155 13.4732 15.1493 7.54097 16.1274 11.6223C17.1056 15.7036 1.4552 19.3326 3.14423 24.2084C4.42935 27.9182 15.5718 27.1698 20.4048 27.9102L20.4792 27.9216C25.2822 28.6573 29.5832 29.3162 32.142 30.5015C36.6686 32.5982 35.2014 26.2111 32.142 24.2084C29.6192 22.557 25.4199 21.298 24.4417 17.8588C23.4636 14.4196 28.6899 13.8434 33.5229 11.6223C38.3558 9.40123 40.6453 7.14131 39.7367 5.32922Z" stroke="#898989" stroke-width="2" stroke-linecap="round"/>
<path d="M39.7367 5.32922C38.1358 2.13648 33.5229 -0.223472 21.0952 1.62743C16.2623 2.61458 6.45826 5.47733 5.90592 9.03105C5.2155 13.4732 15.1493 7.54097 16.1274 11.6223C17.1056 15.7036 1.4552 19.3326 3.14423 24.2084C4.42935 27.9182 15.5718 27.1698 20.4048 27.9102L20.4792 27.9216C25.2822 28.6573 29.5832 29.3162 32.142 30.5015C36.6686 32.5982 35.2014 26.2111 32.142 24.2084C29.6192 22.557 25.4199 21.298 24.4417 17.8588C23.4636 14.4196 28.6899 13.8434 33.5229 11.6223C38.3558 9.40123 40.6453 7.14131 39.7367 5.32922Z" stroke="white" stroke-opacity="0.6" stroke-width="2" stroke-linecap="round"/>
<path d="M37.4615 28.6956C37.6813 28.2485 38.3187 28.2485 38.5385 28.6956L39.6742 31.0066C39.8344 31.3324 40.2451 31.4425 40.5467 31.2403L42.6858 29.8069C43.0997 29.5295 43.6518 29.8483 43.6185 30.3454L43.4466 32.9146C43.4224 33.2769 43.723 33.5775 44.0854 33.5533L46.6546 33.3815C47.1517 33.3482 47.4704 33.9002 47.1931 34.3141L45.7596 36.4532C45.5575 36.7549 45.6675 37.1655 45.9934 37.3257L48.3043 38.4615C48.7515 38.6813 48.7515 39.3187 48.3043 39.5385L45.9934 40.6742C45.6675 40.8344 45.5575 41.2451 45.7596 41.5467L47.1931 43.6858C47.4704 44.0997 47.1517 44.6518 46.6546 44.6185L44.0854 44.4466C43.723 44.4224 43.4224 44.723 43.4466 45.0854L43.6185 47.6546C43.6518 48.1517 43.0997 48.4704 42.6858 48.1931L40.5467 46.7596C40.2451 46.5575 39.8344 46.6675 39.6742 46.9934L38.5385 49.3043C38.3187 49.7515 37.6813 49.7515 37.4615 49.3043L36.3257 46.9934C36.1655 46.6675 35.7549 46.5575 35.4532 46.7596L33.3141 48.1931C32.9002 48.4704 32.3482 48.1517 32.3815 47.6546L32.5533 45.0854C32.5775 44.723 32.2769 44.4224 31.9146 44.4466L29.3454 44.6185C28.8483 44.6518 28.5295 44.0997 28.8069 43.6858L30.2403 41.5467C30.4425 41.2451 30.3324 40.8344 30.0066 40.6742L27.6956 39.5385C27.2485 39.3187 27.2485 38.6813 27.6956 38.4615L30.0066 37.3257C30.3324 37.1655 30.4425 36.7549 30.2403 36.4532L28.8069 34.3141C28.5295 33.9002 28.8483 33.3482 29.3454 33.3815L31.9146 33.5533C32.2769 33.5775 32.5775 33.2769 32.5533 32.9146L32.3815 30.3454C32.3482 29.8483 32.9002 29.5295 33.3141 29.8069L35.4532 31.2403C35.7549 31.4425 36.1655 31.3324 36.3257 31.0066L37.4615 28.6956Z" fill="#FAA21E"/>
<path d="M37.4615 28.6956C37.6813 28.2485 38.3187 28.2485 38.5385 28.6956L39.6742 31.0066C39.8344 31.3324 40.2451 31.4425 40.5467 31.2403L42.6858 29.8069C43.0997 29.5295 43.6518 29.8483 43.6185 30.3454L43.4466 32.9146C43.4224 33.2769 43.723 33.5775 44.0854 33.5533L46.6546 33.3815C47.1517 33.3482 47.4704 33.9002 47.1931 34.3141L45.7596 36.4532C45.5575 36.7549 45.6675 37.1655 45.9934 37.3257L48.3043 38.4615C48.7515 38.6813 48.7515 39.3187 48.3043 39.5385L45.9934 40.6742C45.6675 40.8344 45.5575 41.2451 45.7596 41.5467L47.1931 43.6858C47.4704 44.0997 47.1517 44.6518 46.6546 44.6185L44.0854 44.4466C43.723 44.4224 43.4224 44.723 43.4466 45.0854L43.6185 47.6546C43.6518 48.1517 43.0997 48.4704 42.6858 48.1931L40.5467 46.7596C40.2451 46.5575 39.8344 46.6675 39.6742 46.9934L38.5385 49.3043C38.3187 49.7515 37.6813 49.7515 37.4615 49.3043L36.3257 46.9934C36.1655 46.6675 35.7549 46.5575 35.4532 46.7596L33.3141 48.1931C32.9002 48.4704 32.3482 48.1517 32.3815 47.6546L32.5533 45.0854C32.5775 44.723 32.2769 44.4224 31.9146 44.4466L29.3454 44.6185C28.8483 44.6518 28.5295 44.0997 28.8069 43.6858L30.2403 41.5467C30.4425 41.2451 30.3324 40.8344 30.0066 40.6742L27.6956 39.5385C27.2485 39.3187 27.2485 38.6813 27.6956 38.4615L30.0066 37.3257C30.3324 37.1655 30.4425 36.7549 30.2403 36.4532L28.8069 34.3141C28.5295 33.9002 28.8483 33.3482 29.3454 33.3815L31.9146 33.5533C32.2769 33.5775 32.5775 33.2769 32.5533 32.9146L32.3815 30.3454C32.3482 29.8483 32.9002 29.5295 33.3141 29.8069L35.4532 31.2403C35.7549 31.4425 36.1655 31.3324 36.3257 31.0066L37.4615 28.6956Z" fill="white" fill-opacity="0.6"/>
<path d="M42.8657 29.8739L39.9075 32.5214C39.8057 32.6124 39.8385 32.7792 39.9671 32.8251L41.1584 33.2495C41.2404 33.2787 41.3315 33.2452 41.3749 33.1697L43.1418 30.0978C43.2437 29.9205 43.0181 29.7376 42.8657 29.8739Z" fill="#FAA21E"/>
<path d="M42.8657 29.8739L39.9075 32.5214C39.8057 32.6124 39.8385 32.7792 39.9671 32.8251L41.1584 33.2495C41.2404 33.2787 41.3315 33.2452 41.3749 33.1697L43.1418 30.0978C43.2437 29.9205 43.0181 29.7376 42.8657 29.8739Z" fill="white" fill-opacity="0.4"/>
<path d="M46.6681 33.5522L42.9988 34.3206C42.8449 34.3528 42.8034 34.5529 42.9316 34.6437L43.9086 35.3353C43.9645 35.3749 44.0381 35.3793 44.0984 35.3466L46.7908 33.8866C46.9732 33.7877 46.8711 33.5097 46.6681 33.5522Z" fill="#FAA21E"/>
<path d="M46.6681 33.5522L42.9988 34.3206C42.8449 34.3528 42.8034 34.5529 42.9316 34.6437L43.9086 35.3353C43.9645 35.3749 44.0381 35.3793 44.0984 35.3466L46.7908 33.8866C46.9732 33.7877 46.8711 33.5097 46.6681 33.5522Z" fill="white" fill-opacity="0.4"/>
<path d="M48.3306 38.649L44.5672 37.4136C44.4368 37.3708 44.3084 37.4838 44.3343 37.6186L44.5719 38.854C44.5882 38.9387 44.6624 39 44.7487 39H48.2745C48.4792 39 48.5251 38.7128 48.3306 38.649Z" fill="#FAA21E"/>
<path d="M48.3306 38.649L44.5672 37.4136C44.4368 37.3708 44.3084 37.4838 44.3343 37.6186L44.5719 38.854C44.5882 38.9387 44.6624 39 44.7487 39H48.2745C48.4792 39 48.5251 38.7128 48.3306 38.649Z" fill="white" fill-opacity="0.4"/>
<path d="M47.0389 43.7683L44.5253 40.9597C44.4248 40.8474 44.2391 40.9009 44.2137 41.0494L44.0204 42.1805C44.0081 42.2527 44.0407 42.3252 44.103 42.3638L46.8099 44.0414C46.9867 44.1509 47.1776 43.9233 47.0389 43.7683Z" fill="#FAA21E"/>
<path d="M47.0389 43.7683L44.5253 40.9597C44.4248 40.8474 44.2391 40.9009 44.2137 41.0494L44.0204 42.1805C44.0081 42.2527 44.0407 42.3252 44.103 42.3638L46.8099 44.0414C46.9867 44.1509 47.1776 43.9233 47.0389 43.7683Z" fill="white" fill-opacity="0.4"/>
<path d="M43.4681 47.7653L42.657 43.8918C42.6289 43.758 42.4679 43.7031 42.3639 43.7918L41.4137 44.6029C41.3478 44.6592 41.3313 44.7544 41.3745 44.8296L43.1359 47.8919C43.238 48.0695 43.5101 47.9658 43.4681 47.7653Z" fill="#FAA21E"/>
<path d="M43.4681 47.7653L42.657 43.8918C42.6289 43.758 42.4679 43.7031 42.3639 43.7918L41.4137 44.6029C41.3478 44.6592 41.3313 44.7544 41.3745 44.8296L43.1359 47.8919C43.238 48.0695 43.5101 47.9658 43.4681 47.7653Z" fill="white" fill-opacity="0.4"/>
<path d="M38.351 49.3306L39.5654 45.6312C39.6124 45.488 39.4731 45.3539 39.3318 45.4063L38.1174 45.8564C38.0468 45.8826 38 45.9499 38 46.0252V49.2745C38 49.4792 38.2872 49.5251 38.351 49.3306Z" fill="#FAA21E"/>
<path d="M38.351 49.3306L39.5654 45.6312C39.6124 45.488 39.4731 45.3539 39.3318 45.4063L38.1174 45.8564C38.0468 45.8826 38 45.9499 38 46.0252V49.2745C38 49.4792 38.2872 49.5251 38.351 49.3306Z" fill="white" fill-opacity="0.4"/>
<path d="M33.3577 47.9261L35.9672 45.5907C36.0903 45.4805 36.0123 45.2766 35.8471 45.2766H34.7963C34.7361 45.2766 34.6799 45.3066 34.6465 45.3566L33.0879 47.692C32.9705 47.8679 33.2001 48.0671 33.3577 47.9261Z" fill="#FAA21E"/>
<path d="M33.3577 47.9261L35.9672 45.5907C36.0903 45.4805 36.0123 45.2766 35.8471 45.2766H34.7963C34.7361 45.2766 34.6799 45.3066 34.6465 45.3566L33.0879 47.692C32.9705 47.8679 33.2001 48.0671 33.3577 47.9261Z" fill="white" fill-opacity="0.4"/>
<path d="M29.3319 44.4477L33.0012 43.6794C33.155 43.6471 33.1966 43.4471 33.0683 43.3563L32.0914 42.6647C32.0354 42.6251 31.9618 42.6207 31.9016 42.6533L29.2092 44.1133C29.0268 44.2122 29.1288 44.4903 29.3319 44.4477Z" fill="#FAA21E"/>
<path d="M29.3319 44.4477L33.0012 43.6794C33.155 43.6471 33.1966 43.4471 33.0683 43.3563L32.0914 42.6647C32.0354 42.6251 31.9618 42.6207 31.9016 42.6533L29.2092 44.1133C29.0268 44.2122 29.1288 44.4903 29.3319 44.4477Z" fill="white" fill-opacity="0.4"/>
<path d="M27.6693 39.351L31.3687 40.5654C31.5119 40.6124 31.646 40.4731 31.5937 40.3318L31.1435 39.1174C31.1173 39.0468 31.05 39 30.9747 39H27.7255C27.5208 39 27.4749 39.2872 27.6693 39.351Z" fill="#FAA21E"/>
<path d="M27.6693 39.351L31.3687 40.5654C31.5119 40.6124 31.646 40.4731 31.5937 40.3318L31.1435 39.1174C31.1173 39.0468 31.05 39 30.9747 39H27.7255C27.5208 39 27.4749 39.2872 27.6693 39.351Z" fill="white" fill-opacity="0.4"/>
<path d="M28.8185 34.0723L31.4662 37.0307C31.5681 37.1446 31.7566 37.0877 31.7784 36.9364L31.9821 35.5241C31.9928 35.4495 31.956 35.3761 31.8897 35.3402L29.0384 33.7941C28.8609 33.6978 28.6839 33.9219 28.8185 34.0723Z" fill="#FAA21E"/>
<path d="M28.8185 34.0723L31.4662 37.0307C31.5681 37.1446 31.7566 37.0877 31.7784 36.9364L31.9821 35.5241C31.9928 35.4495 31.956 35.3761 31.8897 35.3402L29.0384 33.7941C28.8609 33.6978 28.6839 33.9219 28.8185 34.0723Z" fill="white" fill-opacity="0.4"/>
<path d="M32.5522 30.3319L33.3206 34.0012C33.3528 34.155 33.5529 34.1966 33.6437 34.0683L34.3353 33.0914C34.3749 33.0354 34.3793 32.9618 34.3466 32.9016L32.8866 30.2092C32.7877 30.0268 32.5097 30.1288 32.5522 30.3319Z" fill="#FAA21E"/>
<path d="M32.5522 30.3319L33.3206 34.0012C33.3528 34.155 33.5529 34.1966 33.6437 34.0683L34.3353 33.0914C34.3749 33.0354 34.3793 32.9618 34.3466 32.9016L32.8866 30.2092C32.7877 30.0268 32.5097 30.1288 32.5522 30.3319Z" fill="white" fill-opacity="0.4"/>
<path d="M37.649 28.6693L36.4346 32.3687C36.3876 32.5119 36.5269 32.646 36.6682 32.5937L37.8825 32.1435C37.9531 32.1173 38 32.05 38 31.9747V28.7255C38 28.5208 37.7128 28.4749 37.649 28.6693Z" fill="#FAA21E"/>
<path d="M37.649 28.6693L36.4346 32.3687C36.3876 32.5119 36.5269 32.646 36.6682 32.5937L37.8825 32.1435C37.9531 32.1173 38 32.05 38 31.9747V28.7255C38 28.5208 37.7128 28.4749 37.649 28.6693Z" fill="white" fill-opacity="0.4"/>
<circle cx="38" cy="39" r="7.2" fill="#FAA21E"/>
<ellipse cx="37.2312" cy="38.47" rx="5.34765" ry="6" transform="rotate(30 37.2312 38.47)" fill="#FAA21E"/>
<ellipse cx="37.2312" cy="38.47" rx="5.34765" ry="6" transform="rotate(30 37.2312 38.47)" fill="white" fill-opacity="0.2"/>
<ellipse cx="36.1997" cy="38.0228" rx="3.29058" ry="3.9" transform="rotate(30 36.1997 38.0228)" fill="#FAA21E"/>
<ellipse cx="36.1997" cy="38.0228" rx="3.29058" ry="3.9" transform="rotate(30 36.1997 38.0228)" fill="white" fill-opacity="0.4"/>
<ellipse cx="36.1778" cy="35.121" rx="2.1" ry="1.5" transform="rotate(-31.3035 36.1778 35.121)" fill="#FEFEFE"/>
<circle cx="33.2033" cy="38.473" r="0.9" transform="rotate(-8.16705 33.2033 38.473)" fill="#FEFEFE"/>
</g>
<defs>
<clipPath id="clip0_2644_11525">
<rect width="50" height="50" fill="white"/>
</clipPath>
</defs>
</svg>
