<svg width="50" height="50" viewBox="0 0 50 50" fill="none" xmlns="http://www.w3.org/2000/svg">
<rect x="4" y="4" width="42" height="2" fill="#FEFEFE"/>
<path d="M44 7H6L8 41C8 41.5132 8.5 42.5789 9 43C9.85519 43.7202 10.8311 44 11 44C14.04 44.6842 19 46 25 46C31 46 35.2978 44.6316 38 43.9474C38.3378 43.7763 39.3049 43.5853 40 43C40.5 42.5789 41 42.1316 41 41L44 7Z" fill="#FEFEFE"/>
<rect x="6" y="6" width="38" height="2" fill="#898989"/>
<rect x="6" y="6" width="38" height="2" fill="white" fill-opacity="0.6"/>
<path d="M32.0622 16.5516C29.768 16.8419 26.6135 18.293 26.04 19.454L28.0474 24.9684L33.84 27.26C35.2739 25.8089 36.1009 23.88 36.3637 21.4856C36.6505 18.8735 36.077 16.2614 35.5034 14.52C34.3563 15.6809 33.3005 16.395 32.0622 16.5516Z" fill="#2FC4A7"/>
<path d="M32.0622 16.5516C29.768 16.8419 26.6135 18.293 26.04 19.454L28.0474 24.9684L33.84 27.26C35.2739 25.8089 36.1009 23.88 36.3637 21.4856C36.6505 18.8735 36.077 16.2614 35.5034 14.52C34.3563 15.6809 33.3005 16.395 32.0622 16.5516Z" fill="black" fill-opacity="0.4"/>
<path d="M35.04 26.8989C35.04 21.558 28.6022 18.3198 24.0039 18.3198C19.4055 18.3198 13.1976 20.3996 12.9677 26.8989C12.8115 31.3149 15.037 34.4381 18.2559 36.2579C21.4682 38.074 26.88 37.9998 30.2117 35.9979C32.88 34.3946 35.04 32.2398 35.04 26.8989Z" fill="#FAA21E"/>
<path d="M35.04 26.8989C35.04 21.558 28.6022 18.3198 24.0039 18.3198C19.4055 18.3198 13.1976 20.3996 12.9677 26.8989C12.8115 31.3149 15.037 34.4381 18.2559 36.2579C21.4682 38.074 26.88 37.9998 30.2117 35.9979C32.88 34.3946 35.04 32.2398 35.04 26.8989Z" fill="black" fill-opacity="0.1"/>
<path d="M19.3369 28.2656C19.6615 28.4708 20.2478 29.2202 20.5004 29.5692" stroke="#CE4317" stroke-width="0.96"/>
<path d="M19.3369 28.2656C19.6615 28.4708 20.2478 29.2202 20.5004 29.5692" stroke="white" stroke-opacity="0.15" stroke-width="0.96"/>
<path d="M15.1935 27.6333L15.0324 29.2352" stroke="#CE4317" stroke-width="0.96"/>
<path d="M15.1935 27.6333L15.0324 29.2352" stroke="white" stroke-opacity="0.15" stroke-width="0.96"/>
<path d="M16.8465 32.5109L18.1178 30.9019" stroke="#CE4317" stroke-width="0.96"/>
<path d="M16.8465 32.5109L18.1178 30.9019" stroke="white" stroke-opacity="0.15" stroke-width="0.96"/>
<path d="M21.1327 34.6732L19.68 35.1744" stroke="#CE4317" stroke-width="0.96"/>
<path d="M21.1327 34.6732L19.68 35.1744" stroke="white" stroke-opacity="0.15" stroke-width="0.96"/>
<path d="M22.8496 31.2798L22.08 32.4969" stroke="#CE4317" stroke-width="0.96"/>
<path d="M22.8496 31.2798L22.08 32.4969" stroke="white" stroke-opacity="0.15" stroke-width="0.96"/>
<path d="M24 34.0859L25.4736 34.4498" stroke="#CE4317" stroke-width="0.96"/>
<path d="M24 34.0859L25.4736 34.4498" stroke="white" stroke-opacity="0.15" stroke-width="0.96"/>
<path d="M32.3446 30.8114L32.1228 32.313" stroke="#CE4317" stroke-width="0.96"/>
<path d="M32.3446 30.8114L32.1228 32.313" stroke="white" stroke-opacity="0.15" stroke-width="0.96"/>
<path d="M29.3089 34.8288L27.84 35.6787" stroke="#CE4317" stroke-width="0.96"/>
<path d="M29.3089 34.8288L27.84 35.6787" stroke="white" stroke-opacity="0.15" stroke-width="0.96"/>
<path d="M24.3429 20.0265C23.6571 19.8398 23.5048 19.4042 23.4286 19.2798C23.5048 19.4665 23.5657 20.0638 23.2 20.2131C22.8343 20.3625 22.2857 20.3376 22.0571 20.2131C22.3619 20.3998 22.6971 20.6611 22.5143 20.9598C22.3314 21.2585 22.0571 21.4576 21.6 21.5198C21.9048 21.5198 22.3771 21.4078 22.7429 21.7065C23.1086 22.0051 23.0476 22.3909 22.9714 22.6398C23.0476 22.3909 23.3829 21.8931 24.1143 21.8931C24.8457 21.8931 25.0286 22.4531 25.2571 22.6398C25.0286 22.2665 25.0743 22.0051 25.2571 21.7065C25.44 21.4078 26.1714 21.2087 26.4 21.1465C26.1714 21.0842 25.5804 21.0371 25.2571 20.7731C25.0286 20.5865 25.2571 20.0265 25.4857 19.6531C25.0286 19.8398 24.7308 20.132 24.3429 20.0265Z" fill="#2FC4A7"/>
<path d="M24.3429 20.0265C23.6571 19.8398 23.5048 19.4042 23.4286 19.2798C23.5048 19.4665 23.5657 20.0638 23.2 20.2131C22.8343 20.3625 22.2857 20.3376 22.0571 20.2131C22.3619 20.3998 22.6971 20.6611 22.5143 20.9598C22.3314 21.2585 22.0571 21.4576 21.6 21.5198C21.9048 21.5198 22.3771 21.4078 22.7429 21.7065C23.1086 22.0051 23.0476 22.3909 22.9714 22.6398C23.0476 22.3909 23.3829 21.8931 24.1143 21.8931C24.8457 21.8931 25.0286 22.4531 25.2571 22.6398C25.0286 22.2665 25.0743 22.0051 25.2571 21.7065C25.44 21.4078 26.1714 21.2087 26.4 21.1465C26.1714 21.0842 25.5804 21.0371 25.2571 20.7731C25.0286 20.5865 25.2571 20.0265 25.4857 19.6531C25.0286 19.8398 24.7308 20.132 24.3429 20.0265Z" fill="black" fill-opacity="0.4"/>
</svg>
