<svg width="50" height="50" viewBox="0 0 50 50" fill="none" xmlns="http://www.w3.org/2000/svg">
<path d="M38.5811 4.90698C34.1693 5.46512 28.103 8.25581 27 10.4884L30.8604 21.093L42 25.5C44.7574 22.7093 46.3478 19 46.8533 14.3953C47.4048 9.37209 46.3018 4.34884 45.1989 1C42.9929 3.23256 40.9625 4.6057 38.5811 4.90698Z" fill="#2FC4A7"/>
<path d="M38.5811 4.90698C34.1693 5.46512 28.103 8.25581 27 10.4884L30.8604 21.093L42 25.5C44.7574 22.7093 46.3478 19 46.8533 14.3953C47.4048 9.37209 46.3018 4.34884 45.1989 1C42.9929 3.23256 40.9625 4.6057 38.5811 4.90698Z" fill="black" fill-opacity="0.4"/>
<path d="M48 26.8731C48 15.7461 34.588 9 25.0081 9C15.4281 9 2.49508 13.3329 2.01611 26.8731C1.69068 36.073 6.3271 42.5797 13.0331 46.3709C19.7254 50.1544 31 50 37.941 45.8293C43.5 42.4891 48 38 48 26.8731Z" fill="#FAA21E"/>
<path d="M48 26.8731C48 15.7461 34.588 9 25.0081 9C15.4281 9 2.49508 13.3329 2.01611 26.8731C1.69068 36.073 6.3271 42.5797 13.0331 46.3709C19.7254 50.1544 31 50 37.941 45.8293C43.5 42.4891 48 38 48 26.8731Z" fill="black" fill-opacity="0.1"/>
<path d="M15.2853 29.7197C15.9614 30.1473 17.1829 31.7084 17.7091 32.4355" stroke="#CE4317" stroke-width="2"/>
<path d="M15.2853 29.7197C15.9614 30.1473 17.1829 31.7084 17.7091 32.4355" stroke="white" stroke-opacity="0.15" stroke-width="2"/>
<path d="M6.65302 28.4023L6.31753 31.7396" stroke="#CE4317" stroke-width="2"/>
<path d="M6.65302 28.4023L6.31753 31.7396" stroke="white" stroke-opacity="0.15" stroke-width="2"/>
<path d="M10.0969 38.5643L12.7454 35.2124" stroke="#CE4317" stroke-width="2"/>
<path d="M10.0969 38.5643L12.7454 35.2124" stroke="white" stroke-opacity="0.15" stroke-width="2"/>
<path d="M19.0265 43.0689L16 44.113" stroke="#CE4317" stroke-width="2"/>
<path d="M19.0265 43.0689L16 44.113" stroke="white" stroke-opacity="0.15" stroke-width="2"/>
<path d="M22.6033 36L21 38.5356" stroke="#CE4317" stroke-width="2"/>
<path d="M22.6033 36L21 38.5356" stroke="white" stroke-opacity="0.15" stroke-width="2"/>
<path d="M25 41.8452L28.0701 42.6033" stroke="#CE4317" stroke-width="2"/>
<path d="M25 41.8452L28.0701 42.6033" stroke="white" stroke-opacity="0.15" stroke-width="2"/>
<path d="M42.3845 35.024L41.9226 38.1523" stroke="#CE4317" stroke-width="2"/>
<path d="M42.3845 35.024L41.9226 38.1523" stroke="white" stroke-opacity="0.15" stroke-width="2"/>
<path d="M36.0602 43.3929L33 45.1636" stroke="#CE4317" stroke-width="2"/>
<path d="M36.0602 43.3929L33 45.1636" stroke="white" stroke-opacity="0.15" stroke-width="2"/>
<path d="M25.7143 12.5556C24.2857 12.1667 23.9683 11.2593 23.8095 11C23.9683 11.3889 24.0952 12.6333 23.3333 12.9444C22.5714 13.2556 21.4286 13.2037 20.9524 12.9444C21.5873 13.3333 22.2857 13.8778 21.9048 14.5C21.5238 15.1222 20.9524 15.537 20 15.6667C20.6349 15.6667 21.619 15.4333 22.381 16.0556C23.1429 16.6778 23.0159 17.4815 22.8571 18C23.0159 17.4815 23.7143 16.4444 25.2381 16.4444C26.7619 16.4444 27.1429 17.6111 27.619 18C27.1429 17.2222 27.2381 16.6778 27.619 16.0556C28 15.4333 29.5238 15.0185 30 14.8889C29.5238 14.7593 28.2925 14.6611 27.619 14.1111C27.1429 13.7222 27.619 12.5556 28.0952 11.7778C27.1429 12.1667 26.5224 12.7755 25.7143 12.5556Z" fill="#2FC4A7"/>
<path d="M25.7143 12.5556C24.2857 12.1667 23.9683 11.2593 23.8095 11C23.9683 11.3889 24.0952 12.6333 23.3333 12.9444C22.5714 13.2556 21.4286 13.2037 20.9524 12.9444C21.5873 13.3333 22.2857 13.8778 21.9048 14.5C21.5238 15.1222 20.9524 15.537 20 15.6667C20.6349 15.6667 21.619 15.4333 22.381 16.0556C23.1429 16.6778 23.0159 17.4815 22.8571 18C23.0159 17.4815 23.7143 16.4444 25.2381 16.4444C26.7619 16.4444 27.1429 17.6111 27.619 18C27.1429 17.2222 27.2381 16.6778 27.619 16.0556C28 15.4333 29.5238 15.0185 30 14.8889C29.5238 14.7593 28.2925 14.6611 27.619 14.1111C27.1429 13.7222 27.619 12.5556 28.0952 11.7778C27.1429 12.1667 26.5224 12.7755 25.7143 12.5556Z" fill="black" fill-opacity="0.4"/>
</svg>
