<svg width="51" height="51" viewBox="0 0 51 51" fill="none" xmlns="http://www.w3.org/2000/svg">
<path fill-rule="evenodd" clip-rule="evenodd" d="M17.8622 16.7447C17.974 17.8202 18.2165 19.0212 18.5297 20.2739C18.7475 21.1451 19.0604 21.921 19.3854 22.7265C19.8037 23.7636 20.2419 24.8499 20.5223 26.2517L19.8293 28.1574C18.8761 29.0821 17.9786 29.8752 17.2951 30.3333C15.5697 31.4896 15.022 32.6385 13.8953 35.0018C13.3782 36.0864 12.7392 37.4267 11.8085 39.1409C9.44146 43.5006 6.91244 42.6532 5.94382 41.6846L3.78315 40.3648C3.78576 39.952 3.4023 39.3258 3.05414 38.7573C2.69755 38.1751 2.378 37.6533 2.54817 37.4831C2.88451 37.1468 7.43206 35.8856 8.40774 35.7402L1.41447 31.2694L3.10143 28.7522L1.02581 26.6766L5.2141 24.979L3.9846 21.227L8.16232 21.2006L8.18348 17.8584L13.1967 17.8266L14.0482 15.3147C14.9953 15.6251 16.4415 16.1451 17.8622 16.7447Z" fill="#898989"/>
<path fill-rule="evenodd" clip-rule="evenodd" d="M17.8622 16.7447C17.974 17.8202 18.2165 19.0212 18.5297 20.2739C18.7475 21.1451 19.0604 21.921 19.3854 22.7265C19.8037 23.7636 20.2419 24.8499 20.5223 26.2517L19.8293 28.1574C18.8761 29.0821 17.9786 29.8752 17.2951 30.3333C15.5697 31.4896 15.022 32.6385 13.8953 35.0018C13.3782 36.0864 12.7392 37.4267 11.8085 39.1409C9.44146 43.5006 6.91244 42.6532 5.94382 41.6846L3.78315 40.3648C3.78576 39.952 3.4023 39.3258 3.05414 38.7573C2.69755 38.1751 2.378 37.6533 2.54817 37.4831C2.88451 37.1468 7.43206 35.8856 8.40774 35.7402L1.41447 31.2694L3.10143 28.7522L1.02581 26.6766L5.2141 24.979L3.9846 21.227L8.16232 21.2006L8.18348 17.8584L13.1967 17.8266L14.0482 15.3147C14.9953 15.6251 16.4415 16.1451 17.8622 16.7447Z" fill="white" fill-opacity="0.4"/>
<path d="M4.20336 35.2791L9.61166 34.6734L16.4752 36.4548L11.193 43.658C9.30622 43.6237 6.46485 43.8579 5.04279 42.81C4.09151 42.109 2.6375 40.6871 2.2984 40.0656L7.89972 39.5414L4.20336 35.2791Z" fill="#898989"/>
<path d="M4.20336 35.2791L9.61166 34.6734L16.4752 36.4548L11.193 43.658C9.30622 43.6237 6.46485 43.8579 5.04279 42.81C4.09151 42.109 2.6375 40.6871 2.2984 40.0656L7.89972 39.5414L4.20336 35.2791Z" fill="white" fill-opacity="0.6"/>
<path d="M8.75443 36.0947L13.6533 35.9529L23.3327 39.7514C20.8123 42.2718 16.2626 44.443 15.0261 44.8868C14.0369 45.2417 10.9643 45.0759 7.89969 44.4813L12.8396 41.1881L8.75443 36.0947Z" fill="#898989"/>
<path d="M8.75443 36.0947L13.6533 35.9529L23.3327 39.7514C20.8123 42.2718 16.2626 44.443 15.0261 44.8868C14.0369 45.2417 10.9643 45.0759 7.89969 44.4813L12.8396 41.1881L8.75443 36.0947Z" fill="white" fill-opacity="0.8"/>
<path d="M20.3524 49.3183C22.198 48.5704 26.8401 46.1238 28.9149 44.0491L18.6029 34.6015L20.62 38.3476L15.0832 40.5911L17.1415 42.6494L12.8396 46.1279L17.4914 45.5928L20.3524 49.3183Z" fill="#FEFEFE"/>
<path fill-rule="evenodd" clip-rule="evenodd" d="M18.0096 17.825C18.1382 18.6024 18.3177 19.4263 18.5296 20.274C18.7474 21.1451 19.0604 21.921 19.3854 22.7265C19.8037 23.7636 20.2419 24.8499 20.5222 26.2518L18.5296 31.7314C21.9495 34.6627 29.6816 37.1149 34.2075 37.2083C33.6384 39.0872 31.1332 41.8308 29.1121 43.8519C27.0414 45.9226 23.7778 47.5086 21.3527 48.3967L18.3087 44.5243C15.9128 44.5907 13.0506 44.379 11.1524 43.9718C9.0433 43.5192 3.64006 42.3231 3.76209 39.0663C3.82192 37.4696 5.1221 35.3365 7.10511 34.9548C4.38553 33.0635 2.10999 29.9596 3.44208 26.322C4.33015 23.8969 7.67321 19.7854 12.9076 18.3935C14.7621 17.9004 16.4748 17.7457 18.0096 17.825Z" fill="#898989"/>
<path fill-rule="evenodd" clip-rule="evenodd" d="M18.0096 17.825C18.1382 18.6024 18.3177 19.4263 18.5296 20.274C18.7474 21.1451 19.0604 21.921 19.3854 22.7265C19.8037 23.7636 20.2419 24.8499 20.5222 26.2518L18.5296 31.7314C21.9495 34.6627 29.6816 37.1149 34.2075 37.2083C33.6384 39.0872 31.1332 41.8308 29.1121 43.8519C27.0414 45.9226 23.7778 47.5086 21.3527 48.3967L18.3087 44.5243C15.9128 44.5907 13.0506 44.379 11.1524 43.9718C9.0433 43.5192 3.64006 42.3231 3.76209 39.0663C3.82192 37.4696 5.1221 35.3365 7.10511 34.9548C4.38553 33.0635 2.10999 29.9596 3.44208 26.322C4.33015 23.8969 7.67321 19.7854 12.9076 18.3935C14.7621 17.9004 16.4748 17.7457 18.0096 17.825Z" fill="white" fill-opacity="0.95"/>
<path fill-rule="evenodd" clip-rule="evenodd" d="M19.7318 28.4256L18.5297 31.7314C20.2116 33.173 22.9365 34.4987 25.81 35.485C25.7772 35.7095 25.7316 35.9364 25.6718 36.1643C25.0056 38.7055 21.6767 40.2532 20.0241 40.1999C19.1081 40.1704 18.6491 39.7468 18.1223 39.2607C17.7299 38.8987 17.2998 38.5019 16.6154 38.2073C16.1476 38.006 15.7562 37.9349 15.4017 37.8705C14.5411 37.7142 13.8984 37.5975 12.9104 35.7527C11.5155 33.1479 13.5431 29.7504 16.6154 28.7545C17.6768 28.4104 18.7327 28.325 19.7318 28.4256Z" fill="#898989"/>
<path fill-rule="evenodd" clip-rule="evenodd" d="M19.7318 28.4256L18.5297 31.7314C20.2116 33.173 22.9365 34.4987 25.81 35.485C25.7772 35.7095 25.7316 35.9364 25.6718 36.1643C25.0056 38.7055 21.6767 40.2532 20.0241 40.1999C19.1081 40.1704 18.6491 39.7468 18.1223 39.2607C17.7299 38.8987 17.2998 38.5019 16.6154 38.2073C16.1476 38.006 15.7562 37.9349 15.4017 37.8705C14.5411 37.7142 13.8984 37.5975 12.9104 35.7527C11.5155 33.1479 13.5431 29.7504 16.6154 28.7545C17.6768 28.4104 18.7327 28.325 19.7318 28.4256Z" fill="black" fill-opacity="0.6"/>
<path fill-rule="evenodd" clip-rule="evenodd" d="M18.6513 20.7198C18.8565 21.4154 19.1168 22.0609 19.3853 22.7265C19.4603 22.9123 19.5359 23.0997 19.6111 23.2902C19.5071 23.6637 19.3082 24.0164 19.0145 24.3101C18.1051 25.2195 16.6306 25.2195 15.7212 24.3101C14.8118 23.4007 14.8118 21.9262 15.7212 21.0168C16.5176 20.2205 17.7472 20.1215 18.6513 20.7198Z" fill="#898989"/>
<path fill-rule="evenodd" clip-rule="evenodd" d="M18.6513 20.7198C18.8565 21.4154 19.1168 22.0609 19.3853 22.7265C19.4603 22.9123 19.5359 23.0997 19.6111 23.2902C19.5071 23.6637 19.3082 24.0164 19.0145 24.3101C18.1051 25.2195 16.6306 25.2195 15.7212 24.3101C14.8118 23.4007 14.8118 21.9262 15.7212 21.0168C16.5176 20.2205 17.7472 20.1215 18.6513 20.7198Z" fill="black" fill-opacity="0.6"/>
<circle cx="8.31134" cy="39.1298" r="2.32869" transform="rotate(-45 8.31134 39.1298)" fill="#898989"/>
<circle cx="8.31134" cy="39.1298" r="2.32869" transform="rotate(-45 8.31134 39.1298)" fill="black" fill-opacity="0.6"/>
<circle cx="7.48803" cy="29.2499" r="2.32869" transform="rotate(-45 7.48803 29.2499)" fill="#898989"/>
<circle cx="7.48803" cy="29.2499" r="2.32869" transform="rotate(-45 7.48803 29.2499)" fill="black" fill-opacity="0.6"/>
<circle cx="11.193" cy="23.8984" r="2.32869" transform="rotate(-45 11.193 23.8984)" fill="#898989"/>
<circle cx="11.193" cy="23.8984" r="2.32869" transform="rotate(-45 11.193 23.8984)" fill="black" fill-opacity="0.6"/>
<path d="M27.5244 2.2637C26.0597 3.89719 23.0088 7.61782 22.5226 9.43246L21.8819 14.1231C24.3226 14.9797 29.8093 16.7335 32.2306 16.896C35.2571 17.0992 36.1031 18.5414 41.3965 21.7832C45.6313 24.3765 47.399 22.3785 47.7536 21.0554L48.9655 18.8322C48.5425 18.1111 49.0529 15.8421 48.593 15.7188C48.133 15.5956 43.5598 16.776 42.6413 17.1376L46.4641 9.76972L43.7414 8.43239L44.5012 5.59703L40.0209 6.21989L39.2078 2.3553L35.5734 4.42041L33.8815 1.53592L29.5203 4.01405L27.5244 2.2637Z" fill="#898989"/>
<path d="M27.5244 2.2637C26.0597 3.89719 23.0088 7.61782 22.5226 9.43246L21.8819 14.1231C24.3226 14.9797 29.8093 16.7335 32.2306 16.896C35.2571 17.0992 36.1031 18.5414 41.3965 21.7832C45.6313 24.3765 47.399 22.3785 47.7536 21.0554L48.9655 18.8322C48.5425 18.1111 49.0529 15.8421 48.593 15.7188C48.133 15.5956 43.5598 16.776 42.6413 17.1376L46.4641 9.76972L43.7414 8.43239L44.5012 5.59703L40.0209 6.21989L39.2078 2.3553L35.5734 4.42041L33.8815 1.53592L29.5203 4.01405L27.5244 2.2637Z" fill="white" fill-opacity="0.4"/>
<path d="M20.6673 11.8524C20.0646 14.1018 19.9641 16.0838 20.3794 17.6014L21.755 19.3764L27.6706 18.1488L36.0065 21.7887L44.1919 25.3883C45.8101 24.4156 48.3902 23.1983 49.098 21.5799C49.5716 20.4972 50.1198 18.5388 50.1026 17.831L44.985 20.1765L46.0545 14.6368L41.0636 16.8153L43.173 8.9426L37.485 11.6375L36.9781 6.5795L30.9384 10.5865L29.0974 5.8742L24.2679 12.3149L22.3064 8.07262C21.2701 9.60307 21.0535 10.4114 20.6673 11.8524Z" fill="#898989"/>
<path d="M20.6673 11.8524C20.0646 14.1018 19.9641 16.0838 20.3794 17.6014L21.755 19.3764L27.6706 18.1488L36.0065 21.7887L44.1919 25.3883C45.8101 24.4156 48.3902 23.1983 49.098 21.5799C49.5716 20.4972 50.1198 18.5388 50.1026 17.831L44.985 20.1765L46.0545 14.6368L41.0636 16.8153L43.173 8.9426L37.485 11.6375L36.9781 6.5795L30.9384 10.5865L29.0974 5.8742L24.2679 12.3149L22.3064 8.07262C21.2701 9.60307 21.0535 10.4114 20.6673 11.8524Z" fill="white" fill-opacity="0.6"/>
<path d="M24.5538 18.028L19.6741 15.5597C19.9563 17.5699 21.267 22.0225 21.954 23.1352C22.8127 24.5261 28.2668 27.1483 31.7134 28.0718C35.1601 28.9953 40.1908 28.6022 41.4848 28.3685C42.52 28.1816 45.1002 26.5023 47.4587 24.4555L41.5279 24.0718L42.5183 17.6181L38.2011 19.9436L38.3581 14.7622L34.186 16.5462L32.1844 12.5276L29.3004 16.3979L25.8597 13.1544L24.5538 18.028Z" fill="#898989"/>
<path d="M24.5538 18.028L19.6741 15.5597C19.9563 17.5699 21.267 22.0225 21.954 23.1352C22.8127 24.5261 28.2668 27.1483 31.7134 28.0718C35.1601 28.9953 40.1908 28.6022 41.4848 28.3685C42.52 28.1816 45.1002 26.5023 47.4587 24.4555L41.5279 24.0718L42.5183 17.6181L38.2011 19.9436L38.3581 14.7622L34.186 16.5462L32.1844 12.5276L29.3004 16.3979L25.8597 13.1544L24.5538 18.028Z" fill="white" fill-opacity="0.8"/>
<path d="M29.027 34.5846C26.1897 33.8243 22.5288 32.0398 21.053 31.2425L22.4091 26.1815L20.5083 21.4532L24.3447 23.6866L27.1727 20.2254L28.633 24.2329L33.2343 21.2469L33.3618 25.5L39.2843 24.6761L38.531 27.4878L44.0015 28.3509L39.7015 30.2123L39.0872 34.8694C37.113 35.144 31.8642 35.3448 29.027 34.5846Z" fill="#FEFEFE"/>
<path d="M28.7572 34.5123C31.5889 35.2711 35.2119 35.0137 37.7586 34.571L38.458 29.6952C40.5679 28.5553 42.9428 26.9414 44.3842 25.6399C45.9857 24.1938 50.0701 20.4571 48.3335 17.697C47.4821 16.3437 45.287 15.1458 43.377 15.8063C44.7872 12.8088 45.2054 8.98282 42.2292 6.49761C40.2452 4.84081 35.2887 2.9502 30.0547 4.36062C24.8207 5.77105 21.9166 8.95261 20.8676 11.4627C19.1761 15.51 20.6518 18.6387 21.2219 21.0417C21.7921 23.4448 20.9773 23.6511 22.2683 26.1438L20.9122 31.2048C22.2736 32.5918 25.9255 33.7535 28.7572 34.5123Z" fill="#898989"/>
<path d="M28.7572 34.5123C31.5889 35.2711 35.2119 35.0137 37.7586 34.571L38.458 29.6952C40.5679 28.5553 42.9428 26.9414 44.3842 25.6399C45.9857 24.1938 50.0701 20.4571 48.3335 17.697C47.4821 16.3437 45.287 15.1458 43.377 15.8063C44.7872 12.8088 45.2054 8.98282 42.2292 6.49761C40.2452 4.84081 35.2887 2.9502 30.0547 4.36062C24.8207 5.77105 21.9166 8.95261 20.8676 11.4627C19.1761 15.51 20.6518 18.6387 21.2219 21.0417C21.7921 23.4448 20.9773 23.6511 22.2683 26.1438L20.9122 31.2048C22.2736 32.5918 25.9255 33.7535 28.7572 34.5123Z" fill="white" fill-opacity="0.95"/>
<path d="M32.0291 15.1887C35.1908 14.5159 38.6495 16.4455 38.7448 19.399C38.84 22.3525 38.5035 22.3618 37.4593 23.761C36.415 25.1602 37.3243 26.4046 35.9648 27.248C34.5591 28.1202 29.987 27.7462 27.8897 26.1337C25.7924 24.5213 25.7901 21.639 26.115 20.6244C26.831 18.388 28.8675 15.8616 32.0291 15.1887Z" fill="#898989"/>
<path d="M32.0291 15.1887C35.1908 14.5159 38.6495 16.4455 38.7448 19.399C38.84 22.3525 38.5035 22.3618 37.4593 23.761C36.415 25.1602 37.3243 26.4046 35.9648 27.248C34.5591 28.1202 29.987 27.7462 27.8897 26.1337C25.7924 24.5213 25.7901 21.639 26.115 20.6244C26.831 18.388 28.8675 15.8616 32.0291 15.1887Z" fill="black" fill-opacity="0.6"/>
<ellipse cx="2.33123" cy="2.32869" rx="2.33123" ry="2.32869" transform="matrix(-0.965926 -0.258819 -0.258819 0.965926 47.2767 18.3797)" fill="#898989"/>
<ellipse cx="2.33123" cy="2.32869" rx="2.33123" ry="2.32869" transform="matrix(-0.965926 -0.258819 -0.258819 0.965926 47.2767 18.3797)" fill="black" fill-opacity="0.6"/>
<ellipse cx="2.33123" cy="2.32869" rx="2.33123" ry="2.32869" transform="matrix(-0.965926 -0.258819 -0.258819 0.965926 43.043 9.41003)" fill="#898989"/>
<ellipse cx="2.33123" cy="2.32869" rx="2.33123" ry="2.32869" transform="matrix(-0.965926 -0.258819 -0.258819 0.965926 43.043 9.41003)" fill="black" fill-opacity="0.6"/>
<ellipse cx="2.33123" cy="2.32869" rx="2.33123" ry="2.32869" transform="matrix(-0.965926 -0.258819 -0.258819 0.965926 37.1519 6.6261)" fill="#898989"/>
<ellipse cx="2.33123" cy="2.32869" rx="2.33123" ry="2.32869" transform="matrix(-0.965926 -0.258819 -0.258819 0.965926 37.1519 6.6261)" fill="black" fill-opacity="0.6"/>
<ellipse cx="2.33123" cy="2.32869" rx="2.33123" ry="2.32869" transform="matrix(-0.965926 -0.258819 -0.258819 0.965926 31.1813 8.64258)" fill="#898989"/>
<ellipse cx="2.33123" cy="2.32869" rx="2.33123" ry="2.32869" transform="matrix(-0.965926 -0.258819 -0.258819 0.965926 31.1813 8.64258)" fill="black" fill-opacity="0.6"/>
<ellipse cx="2.33123" cy="2.32869" rx="2.33123" ry="2.32869" transform="matrix(-0.965926 -0.258819 -0.258819 0.965926 27.5735 13.1002)" fill="#898989"/>
<ellipse cx="2.33123" cy="2.32869" rx="2.33123" ry="2.32869" transform="matrix(-0.965926 -0.258819 -0.258819 0.965926 27.5735 13.1002)" fill="black" fill-opacity="0.6"/>
</svg>
