<svg width="50" height="50" viewBox="0 0 50 50" fill="none" xmlns="http://www.w3.org/2000/svg">
<path d="M14.7316 8.10002L13.5959 7.08484L16.4351 6.18245L19.1608 5.95687C19.8422 5.84405 20.9671 5.05987 21.8864 4.6033C23.0221 4.03931 24.8392 3.92651 25.8614 4.03931L25.0096 4.5469L24.1578 5.05449C24.5364 4.90409 25.5661 4.55818 26.6563 4.3777C27.7466 4.19722 29.2306 4.4529 29.8363 4.6033L27.4513 5.05449H32.1077L28.3599 5.50568C29.0792 5.50568 30.8357 5.59591 32.1077 5.95687C33.3796 6.31782 35.2119 7.31044 35.969 7.76163L33.5841 8.10002C34.5683 8.10002 36.8652 8.4222 38.4675 9.1152C40.2406 9.88206 42.3896 12.2616 43.0103 13.4015L40.1711 11.4839C42.2119 13.1983 43.2064 14.2852 44.7138 16.447L40.8525 13.4015C41.4582 14.0783 42.9453 15.6458 43.5781 16.7854C44.322 18.125 45.4013 20.1854 45.8495 21.0717L44.146 19.9438C44.6002 20.7333 45.5769 22.696 45.8495 24.2301C46.1221 25.7641 45.9631 28.4036 45.8495 29.5316L44.7138 27.1628C44.9031 28.2156 45.2589 30.5919 45.1681 31.6747C45.0772 32.7576 44.8274 34.3819 44.7138 35.0586L43.9188 33.2539C43.7295 34.0435 43.7622 35.0586 43.0103 36.525C42.3603 37.7925 41.4868 38.8226 40.8819 39.5359L40.8525 39.5705V37.8786C40.5496 38.6306 40.1319 39.814 39.2625 40.9241C38.2024 42.2777 35.8554 43.6312 35.8554 43.6312C35.8554 43.6312 37.2166 41.5487 37.1047 40.5857C36.6504 41.4505 35.5147 43.3154 34.6062 43.8568C33.6976 44.3983 32.1834 44.9096 31.5398 45.0976L32.1077 43.1801C31.2859 44.2045 30.708 44.616 29.4956 45.0976C30.6037 44.2426 31.0522 43.6159 31.5398 42.2777C31.3127 42.4281 30.9423 43.0948 30.5272 43.5206C29.4331 44.6431 28.6978 45.3232 27.4513 46C27.7163 45.1352 27.7485 43.4057 27.4513 43.4057C27.1541 43.4057 26.8892 44.5336 27.1541 45.0976C26.6999 45.06 25.7024 44.9171 24.1578 44.6464C22.6133 44.3757 21.3943 43.7065 20.9779 43.4057L22.3407 45.3232C21.47 44.9472 19.5242 44.1276 18.7065 43.8568C17.8888 43.5861 16.8516 42.6913 16.4351 42.2777C16.2482 43.2497 16.4104 43.7602 16.8894 44.6464C16.3973 44.2328 15.2767 43.2703 14.7316 42.7289C14.1865 42.1874 12.9902 40.3977 12.4602 39.5705C12.2192 40.1913 12.2443 40.5661 12.4602 41.2625C11.7788 40.6609 10.424 39.2035 9.96171 38.4426C9.19582 37.182 8.74371 35.5878 8.71245 35.0586L8.37175 36.9762C7.37064 35.2819 6.9374 34.2895 6.66821 32.3515L5.41895 33.2539C5.05766 31.0954 5.01928 29.8852 5.41895 27.7268L4.16969 29.1932C4.09398 28.0652 3.82899 26.3168 4.16969 24.7941C4.5104 23.2713 5.3811 21.6733 5.87323 20.6206L4.5104 21.0717L6.10036 17.4622L8.37175 14.9807H7.23606L9.16673 12.7247L11.4381 10.6944H10.416L12.4602 9.22798L14.7316 8.10002Z" fill="#898989"/>
<path d="M14.7316 8.10002L13.5959 7.08484L16.4351 6.18245L19.1608 5.95687C19.8422 5.84405 20.9671 5.05987 21.8864 4.6033C23.0221 4.03931 24.8392 3.92651 25.8614 4.03931L25.0096 4.5469L24.1578 5.05449C24.5364 4.90409 25.5661 4.55818 26.6563 4.3777C27.7466 4.19722 29.2306 4.4529 29.8363 4.6033L27.4513 5.05449H32.1077L28.3599 5.50568C29.0792 5.50568 30.8357 5.59591 32.1077 5.95687C33.3796 6.31782 35.2119 7.31044 35.969 7.76163L33.5841 8.10002C34.5683 8.10002 36.8652 8.4222 38.4675 9.1152C40.2406 9.88206 42.3896 12.2616 43.0103 13.4015L40.1711 11.4839C42.2119 13.1983 43.2064 14.2852 44.7138 16.447L40.8525 13.4015C41.4582 14.0783 42.9453 15.6458 43.5781 16.7854C44.322 18.125 45.4013 20.1854 45.8495 21.0717L44.146 19.9438C44.6002 20.7333 45.5769 22.696 45.8495 24.2301C46.1221 25.7641 45.9631 28.4036 45.8495 29.5316L44.7138 27.1628C44.9031 28.2156 45.2589 30.5919 45.1681 31.6747C45.0772 32.7576 44.8274 34.3819 44.7138 35.0586L43.9188 33.2539C43.7295 34.0435 43.7622 35.0586 43.0103 36.525C42.3603 37.7925 41.4868 38.8226 40.8819 39.5359L40.8525 39.5705V37.8786C40.5496 38.6306 40.1319 39.814 39.2625 40.9241C38.2024 42.2777 35.8554 43.6312 35.8554 43.6312C35.8554 43.6312 37.2166 41.5487 37.1047 40.5857C36.6504 41.4505 35.5147 43.3154 34.6062 43.8568C33.6976 44.3983 32.1834 44.9096 31.5398 45.0976L32.1077 43.1801C31.2859 44.2045 30.708 44.616 29.4956 45.0976C30.6037 44.2426 31.0522 43.6159 31.5398 42.2777C31.3127 42.4281 30.9423 43.0948 30.5272 43.5206C29.4331 44.6431 28.6978 45.3232 27.4513 46C27.7163 45.1352 27.7485 43.4057 27.4513 43.4057C27.1541 43.4057 26.8892 44.5336 27.1541 45.0976C26.6999 45.06 25.7024 44.9171 24.1578 44.6464C22.6133 44.3757 21.3943 43.7065 20.9779 43.4057L22.3407 45.3232C21.47 44.9472 19.5242 44.1276 18.7065 43.8568C17.8888 43.5861 16.8516 42.6913 16.4351 42.2777C16.2482 43.2497 16.4104 43.7602 16.8894 44.6464C16.3973 44.2328 15.2767 43.2703 14.7316 42.7289C14.1865 42.1874 12.9902 40.3977 12.4602 39.5705C12.2192 40.1913 12.2443 40.5661 12.4602 41.2625C11.7788 40.6609 10.424 39.2035 9.96171 38.4426C9.19582 37.182 8.74371 35.5878 8.71245 35.0586L8.37175 36.9762C7.37064 35.2819 6.9374 34.2895 6.66821 32.3515L5.41895 33.2539C5.05766 31.0954 5.01928 29.8852 5.41895 27.7268L4.16969 29.1932C4.09398 28.0652 3.82899 26.3168 4.16969 24.7941C4.5104 23.2713 5.3811 21.6733 5.87323 20.6206L4.5104 21.0717L6.10036 17.4622L8.37175 14.9807H7.23606L9.16673 12.7247L11.4381 10.6944H10.416L12.4602 9.22798L14.7316 8.10002Z" fill="white" fill-opacity="0.4"/>
<path d="M7.13208 21.0385L6 21.8462C7.13121 19.9827 7.90002 19.0738 9.62264 17.8077H7.13208C8.30901 16.3718 9.08026 15.8497 10.6415 15.3846L8.9434 14.5769C10.0327 12.779 10.8841 12.3841 12.6792 12.3846L10.6415 12.0385C11.7552 11.1634 13.6981 11.6923 13.4717 10.8846C13.2453 10.0769 12.8291 9.80821 13.2453 9.03846C14.0793 8.58901 14.5763 8.51801 15.5094 8.69231C15.4758 7.76598 15.6865 7.41403 16.3019 6.96154C17.4913 6.63584 18.1318 6.66843 19.2453 6.96154C19.512 6.02364 19.8909 5.72657 20.717 5.34615C21.9904 5.26856 22.653 5.32008 23.434 6.15385C24.4426 5.36592 25.1189 5.18941 26.3774 5C27.3428 5.10874 27.8897 5.20347 28.8192 5.77738C28.859 5.75111 29.2009 5.73943 30.3396 5.8077C31.8792 5.90001 34.2264 7.07693 35.2075 7.65385L33.7358 8.11539C35.0943 8.23077 35.7736 8.75 37.2453 9.5C38.4906 10.1346 39.4717 11.3077 39.8491 12.0385H37.0189C39.7927 12.971 40.8747 13.9688 42 16.5385L40.3019 16.1923C41.2583 17.4756 41.6518 18.2507 42 19.7692L39.283 18.1539C39.5472 18.5769 40.1208 19.6539 40.3019 20.5769C40.483 21.5 40.6792 23.2692 40.7547 24.0385L37.5849 21.8462C38 22.2692 38.8755 23.5077 39.0566 25.0769C39.3363 27.5 39.283 29.1154 38.4906 31.1923C38.0322 30.5218 37.7557 30.1601 37.0189 29.6923C37.27 31.4263 37.0465 32.1036 36.4528 33.1539C36.1513 32.2742 35.9246 31.8165 35.2075 31.1923C34.8036 33.2071 34.277 34.2251 32.717 35.8077C31.4332 35.1454 30.8006 34.648 29.7736 33.6154C29.8833 35.2563 29.7573 36.2053 28.8679 38C27.3423 36.8772 26.7013 36.1582 25.8113 34.7692C25.8637 35.9804 25.7665 36.6302 25.0189 37.6538C23.282 36.9549 22.4917 36.3689 21.1698 35.2308C21.4833 36.3121 21.5471 36.9186 21.1698 38C20.6415 37.7692 19.3358 37.1692 18.3396 36.6154C17.3434 36.0615 16.8679 34.6923 16.7547 34.0769L16.3019 36.6154C15.0189 35.8462 12.1585 34.0077 10.9811 32.8077C9.80377 31.6077 9.58491 29.2308 9.62264 28.1923L8.49057 30.5C8.03774 29.5769 7.06415 27.3615 6.79245 25.8846C6.52075 24.4077 6.90566 22.0385 7.13208 21.0385Z" fill="#898989"/>
<path d="M7.13208 21.0385L6 21.8462C7.13121 19.9827 7.90002 19.0738 9.62264 17.8077H7.13208C8.30901 16.3718 9.08026 15.8497 10.6415 15.3846L8.9434 14.5769C10.0327 12.779 10.8841 12.3841 12.6792 12.3846L10.6415 12.0385C11.7552 11.1634 13.6981 11.6923 13.4717 10.8846C13.2453 10.0769 12.8291 9.80821 13.2453 9.03846C14.0793 8.58901 14.5763 8.51801 15.5094 8.69231C15.4758 7.76598 15.6865 7.41403 16.3019 6.96154C17.4913 6.63584 18.1318 6.66843 19.2453 6.96154C19.512 6.02364 19.8909 5.72657 20.717 5.34615C21.9904 5.26856 22.653 5.32008 23.434 6.15385C24.4426 5.36592 25.1189 5.18941 26.3774 5C27.3428 5.10874 27.8897 5.20347 28.8192 5.77738C28.859 5.75111 29.2009 5.73943 30.3396 5.8077C31.8792 5.90001 34.2264 7.07693 35.2075 7.65385L33.7358 8.11539C35.0943 8.23077 35.7736 8.75 37.2453 9.5C38.4906 10.1346 39.4717 11.3077 39.8491 12.0385H37.0189C39.7927 12.971 40.8747 13.9688 42 16.5385L40.3019 16.1923C41.2583 17.4756 41.6518 18.2507 42 19.7692L39.283 18.1539C39.5472 18.5769 40.1208 19.6539 40.3019 20.5769C40.483 21.5 40.6792 23.2692 40.7547 24.0385L37.5849 21.8462C38 22.2692 38.8755 23.5077 39.0566 25.0769C39.3363 27.5 39.283 29.1154 38.4906 31.1923C38.0322 30.5218 37.7557 30.1601 37.0189 29.6923C37.27 31.4263 37.0465 32.1036 36.4528 33.1539C36.1513 32.2742 35.9246 31.8165 35.2075 31.1923C34.8036 33.2071 34.277 34.2251 32.717 35.8077C31.4332 35.1454 30.8006 34.648 29.7736 33.6154C29.8833 35.2563 29.7573 36.2053 28.8679 38C27.3423 36.8772 26.7013 36.1582 25.8113 34.7692C25.8637 35.9804 25.7665 36.6302 25.0189 37.6538C23.282 36.9549 22.4917 36.3689 21.1698 35.2308C21.4833 36.3121 21.5471 36.9186 21.1698 38C20.6415 37.7692 19.3358 37.1692 18.3396 36.6154C17.3434 36.0615 16.8679 34.6923 16.7547 34.0769L16.3019 36.6154C15.0189 35.8462 12.1585 34.0077 10.9811 32.8077C9.80377 31.6077 9.58491 29.2308 9.62264 28.1923L8.49057 30.5C8.03774 29.5769 7.06415 27.3615 6.79245 25.8846C6.52075 24.4077 6.90566 22.0385 7.13208 21.0385Z" fill="black" fill-opacity="0.6"/>
<path d="M9.40426 15.1033L7.70213 15.9155C9.55323 14.0396 10.6106 13.037 12.922 12.3185C12.6017 11.4413 12.1734 11.1902 11.2199 10.9261C12.2869 10.1567 12.9323 9.85742 14.2837 9.88176C13.8996 9.11305 13.9721 8.7149 14.2837 8.02521C15.3828 7.73448 15.9844 7.6913 17.0071 8.02521C17.4195 7.02926 17.7963 6.54657 18.7092 5.82055C19.897 5.43485 20.5401 5.40758 21.6596 5.58849C22.9763 5.05383 23.6925 4.96907 24.9504 5.00831C25.8144 5.17292 26.1973 5.3654 26.766 5.82055C29.7502 5.89823 31.3605 6.17823 34.0284 7.44504L32.5532 8.02521C34.7948 8.78978 35.8827 9.38223 37.3191 10.9261C35.9382 10.5085 35.2221 10.5822 34.0284 11.1581C36.3951 13.1865 37.3268 14.526 38 17.424C36.5147 16.7358 35.6549 16.4463 34.0284 16.2636C34.7736 17.0022 34.9492 17.4068 35.0496 18.1202C33.664 17.6307 32.8599 17.4652 31.305 17.6561C32.437 19.1739 32.6189 20.0368 32.2128 21.6012C31.4263 20.7589 31.0048 20.4622 30.2837 20.2088C30.1734 21.9093 30.0449 22.833 29.6028 24.386C28.4063 23.8528 27.7822 23.4524 26.766 22.5295C26.0713 24.6523 25.9905 25.9062 26.1986 28.2152C24.9519 27.5691 24.2802 27.0639 23.1348 25.8945C23.0836 27.0236 22.9943 27.4914 22.7943 28.2152C21.764 27.8061 21.2545 27.449 20.5248 26.4747C20.3009 27.7448 20.0796 28.4165 19.3901 29.4916C18.1691 29.0716 17.4994 28.6774 16.3262 27.751C15.9632 28.8488 15.7294 29.6098 14.7376 31C14.0212 30.1924 13.6974 29.698 13.3759 28.6793C12.5014 28.5924 12.1159 28.7998 11.5603 29.4916C10.4771 27.5925 10.1331 26.4725 9.97163 24.386C8.65866 25.5549 8.26314 26.471 7.70213 28.2152C7.38136 24.9577 7.37724 23.1487 7.92908 19.9767L6 20.4409C7.18249 18.2095 7.88998 17.0029 9.40426 15.1033Z" fill="#898989"/>
<path d="M9.40426 15.1033L7.70213 15.9155C9.55323 14.0396 10.6106 13.037 12.922 12.3185C12.6017 11.4413 12.1734 11.1902 11.2199 10.9261C12.2869 10.1567 12.9323 9.85742 14.2837 9.88176C13.8996 9.11305 13.9721 8.7149 14.2837 8.02521C15.3828 7.73448 15.9844 7.6913 17.0071 8.02521C17.4195 7.02926 17.7963 6.54657 18.7092 5.82055C19.897 5.43485 20.5401 5.40758 21.6596 5.58849C22.9763 5.05383 23.6925 4.96907 24.9504 5.00831C25.8144 5.17292 26.1973 5.3654 26.766 5.82055C29.7502 5.89823 31.3605 6.17823 34.0284 7.44504L32.5532 8.02521C34.7948 8.78978 35.8827 9.38223 37.3191 10.9261C35.9382 10.5085 35.2221 10.5822 34.0284 11.1581C36.3951 13.1865 37.3268 14.526 38 17.424C36.5147 16.7358 35.6549 16.4463 34.0284 16.2636C34.7736 17.0022 34.9492 17.4068 35.0496 18.1202C33.664 17.6307 32.8599 17.4652 31.305 17.6561C32.437 19.1739 32.6189 20.0368 32.2128 21.6012C31.4263 20.7589 31.0048 20.4622 30.2837 20.2088C30.1734 21.9093 30.0449 22.833 29.6028 24.386C28.4063 23.8528 27.7822 23.4524 26.766 22.5295C26.0713 24.6523 25.9905 25.9062 26.1986 28.2152C24.9519 27.5691 24.2802 27.0639 23.1348 25.8945C23.0836 27.0236 22.9943 27.4914 22.7943 28.2152C21.764 27.8061 21.2545 27.449 20.5248 26.4747C20.3009 27.7448 20.0796 28.4165 19.3901 29.4916C18.1691 29.0716 17.4994 28.6774 16.3262 27.751C15.9632 28.8488 15.7294 29.6098 14.7376 31C14.0212 30.1924 13.6974 29.698 13.3759 28.6793C12.5014 28.5924 12.1159 28.7998 11.5603 29.4916C10.4771 27.5925 10.1331 26.4725 9.97163 24.386C8.65866 25.5549 8.26314 26.471 7.70213 28.2152C7.38136 24.9577 7.37724 23.1487 7.92908 19.9767L6 20.4409C7.18249 18.2095 7.88998 17.0029 9.40426 15.1033Z" fill="white" fill-opacity="0.8"/>
<path d="M12 17.4727C11.7037 16.2364 11.2889 13.5891 12 12.8909C11.1899 12.8961 10.8381 13.4616 10 13.8727C11.2538 12.6425 11.9086 11.8063 13.3333 11.3636C13.1846 10.835 13.0138 10.5649 12.4444 10.1636C13.9637 9.31239 14.8405 9.08602 16.4444 9.07273C16.3115 8.5806 16.4149 8.32368 16.6667 7.87273C17.6541 7.89232 18.1688 8.00195 19 8.41818C19.9471 7.47748 20.6739 7.15957 22.3333 7C22.0013 7.53231 21.9141 7.84158 22 8.41818C23.9093 7.80737 24.9797 7.792 26.8889 8.41818C25.888 8.60594 25.4086 8.78426 24.8889 9.4C26.4206 9.83238 27.0716 10.294 28 11.3636C26.7443 11.1918 26.0553 11.1903 24.8889 11.5818C25.6631 13.4345 25.7937 14.6248 25.6667 16.9273C24.584 15.6844 23.9009 15.0493 22.3333 14.2C22.2539 16.0385 22.0202 16.9869 21.3333 18.5636C20.1039 17.3929 19.3474 16.8352 17.7778 16.1636C16.9781 17.1043 16.6698 17.715 16.4444 19C15.672 18.4914 15.2585 18.1841 14.6667 17.4727C14.3333 17.4727 14.2222 17.8 13.7778 18.5636C13.5627 17.8819 13.1029 16.8453 13.3333 16.1636L12 17.4727Z" fill="#898989"/>
<path d="M12 17.4727C11.7037 16.2364 11.2889 13.5891 12 12.8909C11.1899 12.8961 10.8381 13.4616 10 13.8727C11.2538 12.6425 11.9086 11.8063 13.3333 11.3636C13.1846 10.835 13.0138 10.5649 12.4444 10.1636C13.9637 9.31239 14.8405 9.08602 16.4444 9.07273C16.3115 8.5806 16.4149 8.32368 16.6667 7.87273C17.6541 7.89232 18.1688 8.00195 19 8.41818C19.9471 7.47748 20.6739 7.15957 22.3333 7C22.0013 7.53231 21.9141 7.84158 22 8.41818C23.9093 7.80737 24.9797 7.792 26.8889 8.41818C25.888 8.60594 25.4086 8.78426 24.8889 9.4C26.4206 9.83238 27.0716 10.294 28 11.3636C26.7443 11.1918 26.0553 11.1903 24.8889 11.5818C25.6631 13.4345 25.7937 14.6248 25.6667 16.9273C24.584 15.6844 23.9009 15.0493 22.3333 14.2C22.2539 16.0385 22.0202 16.9869 21.3333 18.5636C20.1039 17.3929 19.3474 16.8352 17.7778 16.1636C16.9781 17.1043 16.6698 17.715 16.4444 19C15.672 18.4914 15.2585 18.1841 14.6667 17.4727C14.3333 17.4727 14.2222 17.8 13.7778 18.5636C13.5627 17.8819 13.1029 16.8453 13.3333 16.1636L12 17.4727Z" fill="black" fill-opacity="0.4"/>
</svg>
