<svg width="50" height="50" viewBox="0 0 50 50" fill="none" xmlns="http://www.w3.org/2000/svg">
        <g clip-path="url(#axwa)">
            <path
                d="M45.5 16.5C44.145 6 34.617.9 21.992 4.362 4.405 9.183 1.435 28.776 2.792 33.812c1.148 4.264 5.536 10.262 8.142 11.49 2.606 1.227 12.378 1.342 21.458-2.126C42.687 39.243 47.5 32 45.5 16.5Z"
                fill="#898989" />
            <path
                d="M45.5 16.5C44.145 6 34.617.9 21.992 4.362 4.405 9.183 1.435 28.776 2.792 33.812c1.148 4.264 5.536 10.262 8.142 11.49 2.606 1.227 12.378 1.342 21.458-2.126C42.687 39.243 47.5 32 45.5 16.5Z"
                fill="#fff" fill-opacity=".6" />
            <path
                d="M45.5 16.5C44.145 6 34.617.9 21.992 4.362 25.828 3.908 33.5 3.5 35.5 5.5c2.264 2.264 3.179 6.572 5.5 7.5 2.5 1 4.376 2.68 4.81 6.5a57.353 57.353 0 0 0-.31-3Z"
                fill="#898989" />
            <path
                d="M45.5 16.5C44.145 6 34.617.9 21.992 4.362 25.828 3.908 33.5 3.5 35.5 5.5c2.264 2.264 3.179 6.572 5.5 7.5 2.5 1 4.376 2.68 4.81 6.5a57.353 57.353 0 0 0-.31-3Z"
                fill="#fff" fill-opacity=".4" />
            <path
                d="M10.934 45.302c2.735 1.338 12.378 1.342 21.458-2.126C33.645 42.697 39 40.5 41.65 37 37.5 40 30 43.176 23.5 41.5c-6.945-1.79-8.03-6.731-12.893-7.499C8.397 33.653 6.5 29.031 6.5 25c0-4.662.5-8 2.138-11.694-5.819 7.666-6.666 17.447-5.847 20.506 1.089 4.062 5.409 10.152 8.143 11.49Z"
                fill="#898989" />
            <path
                d="M10.934 45.302c2.735 1.338 12.378 1.342 21.458-2.126C33.645 42.697 39 40.5 41.65 37 37.5 40 30 43.176 23.5 41.5c-6.945-1.79-8.03-6.731-12.893-7.499C8.397 33.653 6.5 29.031 6.5 25c0-4.662.5-8 2.138-11.694-5.819 7.666-6.666 17.447-5.847 20.506 1.089 4.062 5.409 10.152 8.143 11.49Z"
                fill="#fff" fill-opacity=".4" />
            <path
                d="M2.791 33.812c1.089 4.062 5.409 10.152 8.143 11.49 1.677.82 5.955 1.14 11.107.462-7.268-2.009-14.039-7.96-16.687-13.979-.83-1.887-1.458-7.374-.907-10.694-2.001 5.493-2.211 10.649-1.656 12.72Z"
                fill="#898989" />
            <path
                d="M2.791 33.812c1.089 4.062 5.409 10.152 8.143 11.49 1.677.82 5.955 1.14 11.107.462-7.268-2.009-14.039-7.96-16.687-13.979-.83-1.887-1.458-7.374-.907-10.694-2.001 5.493-2.211 10.649-1.656 12.72Z"
                fill="#fff" fill-opacity=".2" />
            <path
                d="M35.034 7.643c.483-.644-.72-1.874-2.764-2.355-2.83-.666-4.154.38-4.257.817-.126.539.024 1.02 2.026 1.614 2.482.735 4.512.568 4.995-.076Z"
                fill="#FEFEFE" />
            <circle cx="25.761" cy="22.945" r="12.45" transform="rotate(-15 25.761 22.945)" fill="#FEFEFE"
                fill-opacity=".5" />
            <circle cx="25.761" cy="22.945" r="12.45" transform="rotate(-15 25.761 22.945)" stroke="#7445B8"
                stroke-width=".859" />
            <circle cx="25.761" cy="22.945" r="12.45" transform="rotate(-15 25.761 22.945)" stroke="#000"
                stroke-opacity=".2" stroke-width=".859" />
            <circle cx="25.761" cy="22.945" r="10.985" transform="rotate(-15 25.761 22.945)" stroke="#7445B8"
                stroke-width=".758" />
            <circle cx="25.761" cy="22.945" r="10.985" transform="rotate(-15 25.761 22.945)" stroke="#000"
                stroke-opacity=".2" stroke-width=".758" />
            <path
                d="m33.912 9.898-5.189 13.037 11.013 8.696-13.038-5.188-8.696 11.012 5.189-13.037-11.012-8.696 13.037 5.188 8.696-11.012Z"
                fill="#7445B8" />
            <path
                d="m33.912 9.898-5.189 13.037 11.013 8.696-13.038-5.188-8.696 11.012 5.189-13.037-11.012-8.696 13.037 5.188 8.696-11.012Z"
                fill="#000" fill-opacity=".2" />
            <path d="m30.86 41.971-2.135-14.688-2.768-3.607 4.902 18.295Z" fill="#7445B8" />
            <path d="m30.86 41.971-2.135-14.688-2.768-3.607 4.902 18.295Z" fill="#fff" fill-opacity=".4" />
            <path d="m30.464 24.27 13.788-5.496-18.295 4.902 4.507.594Z" fill="#7445B8" />
            <path d="m30.464 24.27 13.788-5.496-18.295 4.902 4.507.594Z" fill="#fff" fill-opacity=".4" />
            <path d="M44.252 18.774 29.564 20.91l-3.607 2.767 18.295-4.902Z" fill="#7445B8" />
            <path d="M44.252 18.774 29.564 20.91l-3.607 2.767 18.295-4.902Z" fill="#fff" fill-opacity=".4" />
            <path d="M26.55 19.17 21.056 5.38l4.902 18.295.594-4.506Z" fill="#7445B8" />
            <path d="M26.55 19.17 21.056 5.38l4.902 18.295.594-4.506Z" fill="#fff" fill-opacity=".4" />
            <path d="m21.055 5.381 2.135 14.69 2.767 3.605-4.902-18.295Z" fill="#7445B8" />
            <path d="m21.055 5.381 2.135 14.69 2.767 3.605-4.902-18.295Z" fill="#fff" fill-opacity=".4" />
            <path d="M21.45 23.083 7.663 28.58l18.295-4.903-4.506-.593Z" fill="#7445B8" />
            <path d="M21.45 23.083 7.663 28.58l18.295-4.903-4.506-.593Z" fill="#fff" fill-opacity=".4" />
            <path d="m7.662 28.579 14.689-2.135 3.606-2.768L7.662 28.58Z" fill="#7445B8" />
            <path d="m7.662 28.579 14.689-2.135 3.606-2.768L7.662 28.58Z" fill="#fff" fill-opacity=".4" />
            <path d="m25.364 28.183 5.495 13.788-4.902-18.295-.593 4.507Z" fill="#7445B8" />
            <path d="m25.364 28.183 5.495 13.788-4.902-18.295-.593 4.507Z" fill="#fff" fill-opacity=".4" />
            <path d="m30.464 24.27 13.788-5.496-18.295 4.902 4.507.594Z" fill="#7445B8" />
            <path d="m30.464 24.27 13.788-5.496-18.295 4.902 4.507.594Z" fill="#000" fill-opacity=".2" />
            <path d="M26.55 19.17 21.056 5.38l4.902 18.295.594-4.506Z" fill="#7445B8" />
            <path d="M26.55 19.17 21.056 5.38l4.902 18.295.594-4.506Z" fill="#000" fill-opacity=".2" />
            <path d="M21.45 23.083 7.663 28.58l18.295-4.903-4.506-.593Z" fill="#7445B8" />
            <path d="M21.45 23.083 7.663 28.58l18.295-4.903-4.506-.593Z" fill="#000" fill-opacity=".2" />
            <path d="m25.364 28.183 5.495 13.788-4.902-18.295-.593 4.507Z" fill="#7445B8" />
            <path d="m25.364 28.183 5.495 13.788-4.902-18.295-.593 4.507Z" fill="#000" fill-opacity=".2" />
            <circle cx="25.957" cy="23.676" r="4.167" transform="rotate(-15 25.957 23.676)" fill="#7445B8" />
            <circle cx="25.957" cy="23.676" r="4.167" transform="rotate(-15 25.957 23.676)" fill="#000"
                fill-opacity=".2" />
            <circle cx="25.957" cy="23.676" r="4.167" transform="rotate(-15 25.957 23.676)" stroke="#7445B8"
                stroke-width=".758" />
            <circle cx="25.957" cy="23.676" r="4.167" transform="rotate(-15 25.957 23.676)" stroke="#fff"
                stroke-opacity=".4" stroke-width=".758" />
            <circle cx="25.957" cy="23.676" r="2.652" transform="rotate(-15 25.957 23.676)" fill="#7445B8" />
            <circle cx="25.957" cy="23.676" r="2.652" transform="rotate(-15 25.957 23.676)" fill="#000"
                fill-opacity=".2" />
            <circle cx="25.957" cy="23.676" r="2.652" transform="rotate(-15 25.957 23.676)" stroke="#7445B8"
                stroke-width=".758" />
            <circle cx="25.957" cy="23.676" r="2.652" transform="rotate(-15 25.957 23.676)" stroke="#fff"
                stroke-opacity=".4" stroke-width=".758" />
        </g>
        <defs>
            <clipPath id="axwa">
                <path fill="#fff" transform="matrix(-1 0 0 1 50 0)" d="M0 0h50v50H0z" />
            </clipPath>
        </defs>
    </svg>