<svg width="50" height="50" viewBox="0 0 50 50" fill="none" xmlns="http://www.w3.org/2000/svg">
        <g clip-path="url(#axua)">
            <path
                d="M26.878.778c2.366.097 4.491.358 6.01.696.763.17 1.353.355 1.74.539.19.09.31.17.376.232-.07.055-.196.126-.394.2-.4.152-1.004.288-1.778.394-1.542.212-3.681.297-6.048.2-2.366-.098-4.49-.359-6.01-.697-.762-.17-1.352-.355-1.74-.54a1.532 1.532 0 0 1-.376-.232c.07-.055.197-.125.395-.2.4-.15 1.004-.287 1.778-.393 1.542-.212 3.68-.297 6.047-.2Z"
                fill="#898989" />
            <path
                d="M26.878.778c2.366.097 4.491.358 6.01.696.763.17 1.353.355 1.74.539.19.09.31.17.376.232-.07.055-.196.126-.394.2-.4.152-1.004.288-1.778.394-1.542.212-3.681.297-6.048.2-2.366-.098-4.49-.359-6.01-.697-.762-.17-1.352-.355-1.74-.54a1.532 1.532 0 0 1-.376-.232c.07-.055.197-.125.395-.2.4-.15 1.004-.287 1.778-.393 1.542-.212 3.68-.297 6.047-.2Z"
                fill="#000" fill-opacity=".6" />
            <path
                d="M26.878.778c2.366.097 4.491.358 6.01.696.763.17 1.353.355 1.74.539.19.09.31.17.376.232-.07.055-.196.126-.394.2-.4.152-1.004.288-1.778.394-1.542.212-3.681.297-6.048.2-2.366-.098-4.49-.359-6.01-.697-.762-.17-1.352-.355-1.74-.54a1.532 1.532 0 0 1-.376-.232c.07-.055.197-.125.395-.2.4-.15 1.004-.287 1.778-.393 1.542-.212 3.68-.297 6.047-.2Z"
                stroke="#7445B8" stroke-width=".843" />
            <path
                d="M26.878.778c2.366.097 4.491.358 6.01.696.763.17 1.353.355 1.74.539.19.09.31.17.376.232-.07.055-.196.126-.394.2-.4.152-1.004.288-1.778.394-1.542.212-3.681.297-6.048.2-2.366-.098-4.49-.359-6.01-.697-.762-.17-1.352-.355-1.74-.54a1.532 1.532 0 0 1-.376-.232c.07-.055.197-.125.395-.2.4-.15 1.004-.287 1.778-.393 1.542-.212 3.68-.297 6.047-.2Z"
                stroke="#000" stroke-opacity=".2" stroke-width=".843" />
            <path
                d="M3.962 26.037c-.793.396-2.181 4.097-2.577 5.353l9.516 4.56 10.31-1.586 11.896-5.948c.257-.76.243-2.998 0-4.164-.243-1.164-.992-2.974-.793-5.551.158-2.062 1.916-11.433 2.775-15.861-1.586.595-4.956.793-8.327.793-3.03 0-6.939-.925-8.525-1.586.33 2.18.793 8.367.793 10.111 0 2.181-.595 7.138-2.38 9.12-1.784 1.983-6.542 4.362-7.335 4.56-.793.199-4.56-.198-5.353.199Z"
                fill="#7445B8" />
            <path
                d="M3.962 26.037c-.793.396-2.181 4.097-2.577 5.353l9.516 4.56 10.31-1.586 11.896-5.948c.257-.76.243-2.998 0-4.164-.243-1.164-.992-2.974-.793-5.551.158-2.062 1.916-11.433 2.775-15.861-1.586.595-4.956.793-8.327.793-3.03 0-6.939-.925-8.525-1.586.33 2.18.793 8.367.793 10.111 0 2.181-.595 7.138-2.38 9.12-1.784 1.983-6.542 4.362-7.335 4.56-.793.199-4.56-.198-5.353.199Z"
                fill="#000" fill-opacity=".2" />
            <path
                d="M3.962 26.037c-.793.396-2.181 4.097-2.577 5.353l9.516 4.56 8.129-1.25-4.362-5.888-5.353-2.974c-.793.199-4.56-.198-5.353.199Z"
                fill="#7445B8" />
            <path d="M7.522 25.885c-1.374-.033-3.06-.098-3.56.152-.532.266-1.33 2.016-1.919 3.52l2.217-3.053 3.262-.62Z"
                fill="#7445B8" />
            <path d="M7.522 25.885c-1.374-.033-3.06-.098-3.56.152-.532.266-1.33 2.016-1.919 3.52l2.217-3.053 3.262-.62Z"
                fill="#fff" fill-opacity=".4" />
            <path d="M13.73 29.455H9.632L6.259 28.19l2.952 2.108-.422 3.796 1.265-3.796 3.675-.843Z" fill="#7445B8" />
            <path d="M13.73 29.455H9.632L6.259 28.19l2.952 2.108-.422 3.796 1.265-3.796 3.675-.843Z" fill="#fff"
                fill-opacity=".4" />
            <path
                d="M7.333 33.967c-1.071-.594-4.825-3.106-5.75-3.965l-1.586 2.776c.925.991 3.817 3.302 6.543 4.361 3.568 1.388 6.146 1.388 10.904.794 3.807-.476 5.155-1.388 5.353-1.785V34.76l5.155-2.775v2.775c.991-.264 3.172-.872 3.965-1.19.793-.316 1.652-.924 1.983-1.189l-.544-5.034c-.199.595-2.43 1.703-3.223 1.862-.991.198-4.957 2.18-6.543 3.172-1.586.992-5.551 2.578-9.913 2.578-2.577 0-4.56 0-6.344-.992Z"
                fill="#898989" />
            <path
                d="M7.333 33.967c-1.071-.594-4.825-3.106-5.75-3.965l-1.586 2.776c.925.991 3.817 3.302 6.543 4.361 3.568 1.388 6.146 1.388 10.904.794 3.807-.476 5.155-1.388 5.353-1.785V34.76l5.155-2.775v2.775c.991-.264 3.172-.872 3.965-1.19.793-.316 1.652-.924 1.983-1.189l-.544-5.034c-.199.595-2.43 1.703-3.223 1.862-.991.198-4.957 2.18-6.543 3.172-1.586.992-5.551 2.578-9.913 2.578-2.577 0-4.56 0-6.344-.992Z"
                fill="#000" fill-opacity=".4" />
            <path
                d="m18.634 8.788-.459-7.163c.595.397 2.38 1.122 4.957 1.518 2.67.411 9.358.317 12.332-.674l-1.366 6.914c-3.694 1.097-9.949.64-11.896.396-1.947-.243-3.238-.793-3.569-.99Z"
                fill="#7445B8" />
            <path
                d="M1.583 30.002c.925.86 3.29 2.578 4.362 3.172 2.855 1.586 5.154 1.785 7.732 1.785 4.362 0 8.327-1.587 9.913-2.578 1.586-.991 3.714-2.306 4.705-2.504.793-.159 4.217-1.687 5.06-2.53"
                stroke="#898989" stroke-width=".337" />
            <path
                d="M41.224 12.467c2.367.098 4.492.358 6.01.697.764.17 1.354.355 1.74.539.191.09.31.17.376.231-.07.056-.195.126-.393.201-.401.151-1.004.287-1.778.394-1.542.212-3.682.297-6.048.2-2.366-.098-4.49-.36-6.01-.697-.763-.17-1.352-.355-1.74-.54a1.53 1.53 0 0 1-.376-.232c.07-.056.196-.125.394-.2.401-.151 1.004-.287 1.779-.394 1.542-.212 3.68-.296 6.046-.199Z"
                fill="#898989" />
            <path
                d="M41.224 12.467c2.367.098 4.492.358 6.01.697.764.17 1.354.355 1.74.539.191.09.31.17.376.231-.07.056-.195.126-.393.201-.401.151-1.004.287-1.778.394-1.542.212-3.682.297-6.048.2-2.366-.098-4.49-.36-6.01-.697-.763-.17-1.352-.355-1.74-.54a1.53 1.53 0 0 1-.376-.232c.07-.056.196-.125.394-.2.401-.151 1.004-.287 1.779-.394 1.542-.212 3.68-.296 6.046-.199Z"
                fill="#000" fill-opacity=".6" />
            <path
                d="M41.224 12.467c2.367.098 4.492.358 6.01.697.764.17 1.354.355 1.74.539.191.09.31.17.376.231-.07.056-.195.126-.393.201-.401.151-1.004.287-1.778.394-1.542.212-3.682.297-6.048.2-2.366-.098-4.49-.36-6.01-.697-.763-.17-1.352-.355-1.74-.54a1.53 1.53 0 0 1-.376-.232c.07-.056.196-.125.394-.2.401-.151 1.004-.287 1.779-.394 1.542-.212 3.68-.296 6.046-.199Z"
                stroke="#7445B8" stroke-width=".843" />
            <path
                d="M41.224 12.467c2.367.098 4.492.358 6.01.697.764.17 1.354.355 1.74.539.191.09.31.17.376.231-.07.056-.195.126-.393.201-.401.151-1.004.287-1.778.394-1.542.212-3.682.297-6.048.2-2.366-.098-4.49-.36-6.01-.697-.763-.17-1.352-.355-1.74-.54a1.53 1.53 0 0 1-.376-.232c.07-.056.196-.125.394-.2.401-.151 1.004-.287 1.779-.394 1.542-.212 3.68-.296 6.046-.199Z"
                stroke="#000" stroke-opacity=".2" stroke-width=".843" />
            <path
                d="M18.308 37.727c-.793.396-2.18 4.097-2.577 5.353l9.517 4.56 10.31-1.586 11.895-5.948c.258-.76.243-2.999 0-4.164-.243-1.164-.991-2.974-.793-5.551.159-2.062 1.917-11.433 2.776-15.861-1.586.595-4.957.793-8.327.793-3.03 0-6.94-.925-8.526-1.586.33 2.18.793 8.366.793 10.111 0 2.181-.594 7.138-2.379 9.12-1.784 1.983-6.543 4.362-7.335 4.56-.794.199-4.56-.198-5.354.199Z"
                fill="#7445B8" />
            <path
                d="M18.308 37.727c-.793.396-2.18 4.097-2.577 5.353l9.517 4.56 10.31-1.586 11.895-5.948c.258-.76.243-2.999 0-4.164-.243-1.164-.991-2.974-.793-5.551.159-2.062 1.917-11.433 2.776-15.861-1.586.595-4.957.793-8.327.793-3.03 0-6.94-.925-8.526-1.586.33 2.18.793 8.366.793 10.111 0 2.181-.594 7.138-2.379 9.12-1.784 1.983-6.543 4.362-7.335 4.56-.794.199-4.56-.198-5.354.199Z"
                fill="#000" fill-opacity=".2" />
            <path
                d="M18.308 37.727c-.793.396-2.18 4.097-2.577 5.353l9.517 4.56 8.128-1.25-4.361-5.888-5.354-2.974c-.793.199-4.56-.198-5.353.199Z"
                fill="#7445B8" />
            <path
                d="M21.869 37.575c-1.375-.033-3.06-.098-3.56.152-.532.266-1.331 2.016-1.92 3.52l2.218-3.053 3.262-.62Z"
                fill="#7445B8" />
            <path
                d="M21.869 37.575c-1.375-.033-3.06-.098-3.56.152-.532.266-1.331 2.016-1.92 3.52l2.218-3.053 3.262-.62Z"
                fill="#fff" fill-opacity=".4" />
            <path d="M28.076 41.145h-4.097l-3.373-1.265 2.951 2.108-.421 3.795L24.4 41.99l3.675-.844Z" fill="#7445B8" />
            <path d="M28.076 41.145h-4.097l-3.373-1.265 2.951 2.108-.421 3.795L24.4 41.99l3.675-.844Z" fill="#fff"
                fill-opacity=".4" />
            <path
                d="M21.68 45.657c-1.071-.595-4.825-3.106-5.75-3.965l-1.586 2.776c.925.99 3.816 3.301 6.542 4.361 3.569 1.388 6.146 1.388 10.905.793 3.806-.475 5.155-1.387 5.353-1.784V46.45l5.155-2.776v2.776c.99-.264 3.172-.872 3.965-1.19.793-.317 1.652-.925 1.982-1.189l-.544-5.034c-.198.594-2.43 1.703-3.222 1.862-.992.198-4.957 2.18-6.543 3.172-1.586.991-5.551 2.578-9.913 2.578-2.578 0-4.56 0-6.345-.992Z"
                fill="#898989" />
            <path
                d="M21.68 45.657c-1.071-.595-4.825-3.106-5.75-3.965l-1.586 2.776c.925.99 3.816 3.301 6.542 4.361 3.569 1.388 6.146 1.388 10.905.793 3.806-.475 5.155-1.387 5.353-1.784V46.45l5.155-2.776v2.776c.99-.264 3.172-.872 3.965-1.19.793-.317 1.652-.925 1.982-1.189l-.544-5.034c-.198.594-2.43 1.703-3.222 1.862-.992.198-4.957 2.18-6.543 3.172-1.586.991-5.551 2.578-9.913 2.578-2.578 0-4.56 0-6.345-.992Z"
                fill="#000" fill-opacity=".4" />
            <path
                d="m32.98 20.478-.458-7.163c.595.397 2.379 1.122 4.956 1.518 2.67.41 9.358.317 12.332-.675l-1.366 6.915c-3.694 1.097-9.949.64-11.896.396-1.946-.243-3.238-.793-3.568-.991Z"
                fill="#7445B8" />
            <path
                d="M15.93 41.692c.925.859 3.29 2.577 4.361 3.172 2.855 1.586 5.155 1.785 7.732 1.785 4.362 0 8.328-1.587 9.914-2.578 1.586-.991 3.714-2.306 4.705-2.504.793-.159 4.217-1.687 5.06-2.53"
                stroke="#898989" stroke-width=".337" />
            <path
                d="M41.802 14.707c3.192.171 5.658 3.113 5.47 6.603-.187 3.49-2.954 6.15-6.147 5.978-3.192-.171-5.658-3.113-5.47-6.603.188-3.49 2.954-6.15 6.147-5.978Z"
                fill="#FEFEFE" fill-opacity=".6" />
            <path
                d="M41.802 14.707c3.192.171 5.658 3.113 5.47 6.603-.187 3.49-2.954 6.15-6.147 5.978-3.192-.171-5.658-3.113-5.47-6.603.188-3.49 2.954-6.15 6.147-5.978Z"
                stroke="#7445B8" stroke-width=".434" />
            <path
                d="M41.802 14.707c3.192.171 5.658 3.113 5.47 6.603-.187 3.49-2.954 6.15-6.147 5.978-3.192-.171-5.658-3.113-5.47-6.603.188-3.49 2.954-6.15 6.147-5.978Z"
                stroke="#000" stroke-opacity=".4" stroke-width=".434" />
            <path
                d="M41.762 15.447c2.817.152 4.993 2.747 4.827 5.826-.165 3.08-2.607 5.427-5.424 5.276-2.816-.152-4.992-2.747-4.826-5.827.165-3.08 2.607-5.426 5.423-5.275Z"
                stroke="#7445B8" stroke-width=".383" />
            <path
                d="M41.762 15.447c2.817.152 4.993 2.747 4.827 5.826-.165 3.08-2.607 5.427-5.424 5.276-2.816-.152-4.992-2.747-4.826-5.827.165-3.08 2.607-5.426 5.423-5.275Z"
                stroke="#000" stroke-opacity=".4" stroke-width=".383" />
            <path
                d="m47.012 15.98-4.229 5.473 3.618 5.895-5.035-4.52-5.492 3.954 4.23-5.473-3.618-5.895 5.035 4.52 5.491-3.954Z"
                fill="#7445B8" />
            <path
                d="m47.012 15.98-4.229 5.473 3.618 5.895-5.035-4.52-5.492 3.954 4.23-5.473-3.618-5.895 5.035 4.52 5.491-3.954Z"
                fill="#000" fill-opacity=".4" />
            <path d="m40.929 30.95 1.214-7.403-.7-2.166-.514 9.57Z" fill="#7445B8" />
            <path d="m40.929 30.95 1.214-7.403-.7-2.166-.514 9.57Z" fill="#fff" fill-opacity=".4" />
            <path d="m43.36 22.365 6.944-.508-8.86-.476 1.917.984Z" fill="#7445B8" />
            <path d="m43.36 22.365 6.944-.508-8.86-.476 1.917.984Z" fill="#fff" fill-opacity=".4" />
            <path d="m50.304 21.857-6.849-1.25-2.012.774 8.861.476Z" fill="#7445B8" />
            <path d="m50.304 21.857-6.849-1.25-2.012.774 8.861.476Z" fill="#fff" fill-opacity=".4" />
            <path d="m42.371 19.303-.413-7.492-.515 9.57.928-2.078Z" fill="#7445B8" />
            <path d="m42.371 19.303-.413-7.492-.515 9.57.928-2.078Z" fill="#fff" fill-opacity=".4" />
            <path d="m41.958 11.81-1.215 7.405.7 2.166.515-9.57Z" fill="#7445B8" />
            <path d="m41.958 11.81-1.215 7.405.7 2.166.515-9.57Z" fill="#fff" fill-opacity=".4" />
            <path d="m39.526 20.396-6.944.508 8.861.477-1.917-.985Z" fill="#7445B8" />
            <path d="m39.526 20.396-6.944.508 8.861.477-1.917-.985Z" fill="#fff" fill-opacity=".4" />
            <path d="m32.582 20.904 6.85 1.25 2.011-.773-8.86-.477Z" fill="#7445B8" />
            <path d="m32.582 20.904 6.85 1.25 2.011-.773-8.86-.477Z" fill="#fff" fill-opacity=".4" />
            <path d="m40.515 23.459.414 7.492.514-9.57-.928 2.078Z" fill="#7445B8" />
            <path d="m40.515 23.459.414 7.492.514-9.57-.928 2.078Z" fill="#fff" fill-opacity=".4" />
            <path d="m43.36 22.365 6.944-.508-8.86-.476 1.917.984Z" fill="#7445B8" />
            <path d="m43.36 22.365 6.944-.508-8.86-.476 1.917.984Z" fill="#000" fill-opacity=".4" />
            <path d="m42.371 19.303-.413-7.492-.515 9.57.928-2.078Z" fill="#7445B8" />
            <path d="m42.371 19.303-.413-7.492-.515 9.57.928-2.078Z" fill="#000" fill-opacity=".4" />
            <path d="m39.526 20.396-6.944.508 8.861.477-1.917-.985Z" fill="#7445B8" />
            <path d="m39.526 20.396-6.944.508 8.861.477-1.917-.985Z" fill="#000" fill-opacity=".4" />
            <path d="m40.515 23.459.414 7.492.514-9.57-.928 2.078Z" fill="#7445B8" />
            <path d="m40.515 23.459.414 7.492.514-9.57-.928 2.078Z" fill="#000" fill-opacity=".4" />
            <ellipse cx="41.443" cy="21.381" rx="1.952" ry="2.108" transform="rotate(3.078 41.443 21.38)"
                fill="#7445B8" />
            <ellipse cx="41.443" cy="21.381" rx="1.952" ry="2.108" transform="rotate(3.078 41.443 21.38)" fill="#000"
                fill-opacity=".4" />
            <ellipse cx="41.443" cy="21.381" rx="1.952" ry="2.108" transform="rotate(3.078 41.443 21.38)"
                stroke="#7445B8" stroke-width=".383" />
            <ellipse cx="41.443" cy="21.381" rx="1.952" ry="2.108" transform="rotate(3.078 41.443 21.38)" stroke="#fff"
                stroke-opacity=".4" stroke-width=".383" />
            <path
                d="M41.515 20.04c.664.037 1.195.653 1.155 1.407-.04.754-.635 1.31-1.299 1.274-.663-.036-1.195-.652-1.154-1.406.04-.754.635-1.31 1.298-1.274Z"
                fill="#7445B8" />
            <path
                d="M41.515 20.04c.664.037 1.195.653 1.155 1.407-.04.754-.635 1.31-1.299 1.274-.663-.036-1.195-.652-1.154-1.406.04-.754.635-1.31 1.298-1.274Z"
                fill="#000" fill-opacity=".4" />
            <path
                d="M41.515 20.04c.664.037 1.195.653 1.155 1.407-.04.754-.635 1.31-1.299 1.274-.663-.036-1.195-.652-1.154-1.406.04-.754.635-1.31 1.298-1.274Z"
                stroke="#7445B8" stroke-width=".383" />
            <path
                d="M41.515 20.04c.664.037 1.195.653 1.155 1.407-.04.754-.635 1.31-1.299 1.274-.663-.036-1.195-.652-1.154-1.406.04-.754.635-1.31 1.298-1.274Z"
                stroke="#fff" stroke-opacity=".4" stroke-width=".383" />
            <g clip-path="url(#axub)" fill="#152242">
                <path
                    d="M39.029 28.446a1 1 0 0 1 1.742 0l3.507 6.22a1 1 0 0 0 .673.49l7 1.412a1 1 0 0 1 .538 1.657l-4.833 5.258a1 1 0 0 0-.257.791l.82 7.094a1 1 0 0 1-1.41 1.024l-6.493-2.972a1 1 0 0 0-.832 0l-6.494 2.972a1 1 0 0 1-1.41-1.024l.82-7.094a1 1 0 0 0-.257-.791l-4.833-5.258a1 1 0 0 1 .539-1.657l7-1.412a1 1 0 0 0 .673-.49l3.507-6.22Z" />
                <path
                    d="m41.935 37.532.339.602.675.135 4.062.82-2.804 3.05-.467.508.08.686.474 4.115-3.766-1.724-.627-.287-.627.288-3.769 1.723.476-4.115.079-.686-.467-.508-2.805-3.05 4.063-.82.676-.135.338-.602 2.035-3.611 2.035 3.611Z"
                    stroke="#FAA21E" stroke-width="3.013" />
            </g>
        </g>
        <defs>
            <clipPath id="axua">
                <path fill="#fff" transform="matrix(-1 0 0 1 50 0)" d="M0 0h50v50H0z" />
            </clipPath>
            <clipPath id="axub">
                <path fill="#fff" transform="matrix(1 0 0 -1 0 50)" d="M0 0h50v50H0z" />
            </clipPath>
        </defs>
    </svg>