<svg width="50" height="50" viewBox="0 0 50 50" fill="none" xmlns="http://www.w3.org/2000/svg">
<rect x="4" y="4" width="42" height="2" fill="#FEFEFE"/>
<path d="M44 7H6L8 41C8 41.5132 8.5 42.5789 9 43C9.85519 43.7202 10.8311 44 11 44C14.04 44.6842 19 46 25 46C31 46 35.2978 44.6316 38 43.9474C38.3378 43.7763 39.3049 43.5853 40 43C40.5 42.5789 41 42.1316 41 41L44 7Z" fill="#FEFEFE"/>
<rect x="6" y="6" width="38" height="2" fill="#898989"/>
<rect x="6" y="6" width="38" height="2" fill="white" fill-opacity="0.6"/>
<g clip-path="url(#clip0_1338_7977)">
<path d="M16.986 21.8588C18.544 22.3443 20.4254 22.2156 20.6261 21.9052C19.9882 21.4647 19.1733 20.6455 17.4466 20.0947C15.7199 19.544 13.7858 19.67 12.3486 19.3071C13.4526 20.1466 15.4281 21.3732 16.986 21.8588Z" fill="#2FC4A7"/>
<path d="M16.986 21.8588C18.544 22.3443 20.4254 22.2156 20.6261 21.9052C19.9882 21.4647 19.1733 20.6455 17.4466 20.0947C15.7199 19.544 13.7858 19.67 12.3486 19.3071C13.4526 20.1466 15.4281 21.3732 16.986 21.8588Z" fill="white" fill-opacity="0.4"/>
<path d="M20.0153 15.2715L18.398 15.5315C18.3209 16.1382 18.2593 17.8715 18.629 18.9115C18.9987 19.9515 20.2464 21.5115 20.7085 22.0315L20.9395 20.9915C20.6315 20.3848 19.7843 18.7035 19.7843 17.8715C19.7843 16.8315 19.7843 16.0515 20.0153 15.2715Z" fill="#2FC4A7"/>
<path d="M20.0153 15.2715L18.398 15.5315C18.3209 16.1382 18.2593 17.8715 18.629 18.9115C18.9987 19.9515 20.2464 21.5115 20.7085 22.0315L20.9395 20.9915C20.6315 20.3848 19.7843 18.7035 19.7843 17.8715C19.7843 16.8315 19.7843 16.0515 20.0153 15.2715Z" fill="black" fill-opacity="0.2"/>
<path d="M15.5411 24.055C13.9584 25.5108 12.7606 29.4986 14.9709 33.327C17.1813 37.1555 20.1765 38.0346 22.7864 38.7544C24.9183 39.3423 31.0889 39.4678 31.9581 38.9659C32.8273 38.4641 35.3113 32.8917 35.5777 30.4933C35.8442 28.095 35.8442 24.8877 34.2453 21.6335C32.6929 18.474 29.4229 16.8534 26.4457 17.7593C23.4685 18.6652 22.5571 20.8174 21.1435 21.6335C19.73 22.4496 17.1239 22.5992 15.5411 24.055Z" fill="#D0333D"/>
<path d="M15.5411 24.055C13.9584 25.5108 12.7606 29.4986 14.9709 33.327C17.1813 37.1555 20.1765 38.0346 22.7864 38.7544C24.9183 39.3423 31.0889 39.4678 31.9581 38.9659C32.8273 38.4641 35.3113 32.8917 35.5777 30.4933C35.8442 28.095 35.8442 24.8877 34.2453 21.6335C32.6929 18.474 29.4229 16.8534 26.4457 17.7593C23.4685 18.6652 22.5571 20.8174 21.1435 21.6335C19.73 22.4496 17.1239 22.5992 15.5411 24.055Z" fill="white" fill-opacity="0.6"/>
<path d="M25.8796 22.8113C24.6928 21.5918 22.4515 20.9515 20.7139 21.9548C21.9567 20.0944 25.2482 20.1523 26.9196 21.7714C28.8909 23.6808 29.2596 25.9314 28.4796 30.0913C28.2196 25.9313 27.1926 24.1606 25.8796 22.8113Z" fill="#D0333D"/>
<path d="M25.8796 22.8113C24.6928 21.5918 22.4515 20.9515 20.7139 21.9548C21.9567 20.0944 25.2482 20.1523 26.9196 21.7714C28.8909 23.6808 29.2596 25.9314 28.4796 30.0913C28.2196 25.9313 27.1926 24.1606 25.8796 22.8113Z" fill="white" fill-opacity="0.4"/>
<path d="M22.7864 17.7016C21.8018 19.1402 21.1875 20.6329 20.921 21.6989C22.2535 21.1659 23.2812 20.891 24.3853 19.3005C25.4895 17.7101 25.9843 15.8362 26.0911 14.3213C25.1848 15.5697 23.7711 16.263 22.7864 17.7016Z" fill="#2FC4A7"/>
<path d="M22.7864 17.7016C21.8018 19.1402 21.1875 20.6329 20.921 21.6989C22.2535 21.1659 23.2812 20.891 24.3853 19.3005C25.4895 17.7101 25.9843 15.8362 26.0911 14.3213C25.1848 15.5697 23.7711 16.263 22.7864 17.7016Z" fill="white" fill-opacity="0.4"/>
</g>
<defs>
<clipPath id="clip0_1338_7977">
<rect width="26" height="26" fill="white" transform="translate(11 14)"/>
</clipPath>
</defs>
</svg>
