<svg width="50" height="50" viewBox="0 0 50 50" fill="none" xmlns="http://www.w3.org/2000/svg">
<g clip-path="url(#clip0_1314_7979)">
<path d="M11.5116 15.1131C14.5076 16.0469 18.1257 15.7993 18.5118 15.2023C17.285 14.3553 15.7179 12.7799 12.3973 11.7208C9.07674 10.6616 5.35736 10.904 2.59339 10.2061C4.71648 11.8205 8.51552 14.1794 11.5116 15.1131Z" fill="#2FC4A7"/>
<path d="M11.5116 15.1131C14.5076 16.0469 18.1257 15.7993 18.5118 15.2023C17.285 14.3553 15.7179 12.7799 12.3973 11.7208C9.07674 10.6616 5.35736 10.904 2.59339 10.2061C4.71648 11.8205 8.51552 14.1794 11.5116 15.1131Z" fill="white" fill-opacity="0.4"/>
<path d="M17.3372 2.44531L14.2268 2.94531C14.0787 4.11198 13.9603 7.44531 14.6712 9.44531C15.3821 11.4453 17.7815 14.4453 18.6702 15.4453L19.1145 13.4453C18.5221 12.2786 16.8929 9.04531 16.8929 7.44531C16.8928 5.44531 16.8928 3.94531 17.3372 2.44531Z" fill="#2FC4A7"/>
<path d="M17.3372 2.44531L14.2268 2.94531C14.0787 4.11198 13.9603 7.44531 14.6712 9.44531C15.3821 11.4453 17.7815 14.4453 18.6702 15.4453L19.1145 13.4453C18.5221 12.2786 16.8929 9.04531 16.8929 7.44531C16.8928 5.44531 16.8928 3.94531 17.3372 2.44531Z" fill="black" fill-opacity="0.2"/>
<path d="M8.73298 19.3362C5.68925 22.1358 3.38568 29.8046 7.63636 37.167C11.8871 44.5294 17.6471 46.2201 22.6662 47.6042C26.766 48.7349 38.6326 48.9761 40.3041 48.011C41.9756 47.046 46.7524 36.3299 47.2649 31.7176C47.7774 27.1053 47.7774 20.9376 44.7025 14.6795C41.7172 8.60352 35.4286 5.48691 29.7032 7.22903C23.9778 8.97114 22.2252 13.11 19.5068 14.6795C16.7884 16.2489 11.7767 16.5366 8.73298 19.3362Z" fill="#D0333D"/>
<path d="M8.73298 19.3362C5.68925 22.1358 3.38568 29.8046 7.63636 37.167C11.8871 44.5294 17.6471 46.2201 22.6662 47.6042C26.766 48.7349 38.6326 48.9761 40.3041 48.011C41.9756 47.046 46.7524 36.3299 47.2649 31.7176C47.7774 27.1053 47.7774 20.9376 44.7025 14.6795C41.7172 8.60352 35.4286 5.48691 29.7032 7.22903C23.9778 8.97114 22.2252 13.11 19.5068 14.6795C16.7884 16.2489 11.7767 16.5366 8.73298 19.3362Z" fill="white" fill-opacity="0.6"/>
<path d="M28.6146 16.9452C26.3323 14.5999 22.0222 13.3686 18.6805 15.298C21.0705 11.7203 27.4003 11.8317 30.6146 14.9453C34.4055 18.6173 35.1146 22.9453 33.6146 30.9452C33.1146 22.9452 31.1396 19.5399 28.6146 16.9452Z" fill="#D0333D"/>
<path d="M28.6146 16.9452C26.3323 14.5999 22.0222 13.3686 18.6805 15.298C21.0705 11.7203 27.4003 11.8317 30.6146 14.9453C34.4055 18.6173 35.1146 22.9453 33.6146 30.9452C33.1146 22.9452 31.1396 19.5399 28.6146 16.9452Z" fill="white" fill-opacity="0.4"/>
<path d="M22.6663 7.11841C20.7727 9.88495 19.5914 12.7556 19.079 14.8055C21.6413 13.7806 23.6177 13.2519 25.7411 10.1933C27.8645 7.13468 28.8159 3.53119 29.0213 0.617901C27.2785 3.01868 24.5598 4.35187 22.6663 7.11841Z" fill="#2FC4A7"/>
<path d="M22.6663 7.11841C20.7727 9.88495 19.5914 12.7556 19.079 14.8055C21.6413 13.7806 23.6177 13.2519 25.7411 10.1933C27.8645 7.13468 28.8159 3.53119 29.0213 0.617901C27.2785 3.01868 24.5598 4.35187 22.6663 7.11841Z" fill="white" fill-opacity="0.4"/>
</g>
<defs>
<clipPath id="clip0_1314_7979">
<rect width="50" height="50" fill="white"/>
</clipPath>
</defs>
</svg>
