<svg width="50" height="50" viewBox="0 0 50 50" fill="none" xmlns="http://www.w3.org/2000/svg">
<circle cx="25" cy="25" r="15" fill="#D0333D"/>
<circle cx="25" cy="25" r="15" fill="white" fill-opacity="0.6"/>
<path d="M25 10C16.7157 10 10 16.7157 10 25C11.5 33 21.5 37.3 29.5 32.5C37.5 27.7 38.5 16.5 32 11.7301C29.9103 10.6255 27.5282 10 25 10Z" fill="#FEFEFE" fill-opacity="0.15"/>
<path d="M25 10C16.7157 10 10 16.7157 10 25C11.5 33 21.5 37.3 29.5 32.5C37.5 27.7 38.5 16.5 32 11.7301C29.9103 10.6255 27.5282 10 25 10Z" fill="#FEFEFE" fill-opacity="0.15"/>
<ellipse cx="21.4968" cy="19.2492" rx="10.9771" ry="8.35892" transform="rotate(-31.2916 21.4968 19.2492)" fill="#FEFEFE" fill-opacity="0.15"/>
<ellipse cx="21.4968" cy="19.2492" rx="10.9771" ry="8.35892" transform="rotate(-31.2916 21.4968 19.2492)" fill="#FEFEFE" fill-opacity="0.15"/>
<ellipse cx="19.8199" cy="15.7238" rx="3.5" ry="2.5" transform="rotate(-24.0465 19.8199 15.7238)" fill="#FEFEFE"/>
<circle cx="14.1964" cy="20.6394" r="1.5" transform="rotate(-0.909971 14.1964 20.6394)" fill="#FEFEFE"/>
</svg>
