<svg width="50" height="50" viewBox="0 0 50 50" fill="none" xmlns="http://www.w3.org/2000/svg">
<path d="M9.73684 2.01379H40V5.01379L41 7.01379H45V48.0138H11.3158C10.7895 48.0138 8.15789 48.0138 6.57895 46.4456C5 44.8774 5 43.3092 5 42.7865V6.71834C5 5.67288 5.73684 4.41834 6.57895 3.58198C7.42105 2.74561 8.68421 2.01379 9.73684 2.01379Z" fill="#2FC4A7"/>
<path d="M9.73684 2.01379H40V5.01379L41 7.01379H45V48.0138H11.3158C10.7895 48.0138 8.15789 48.0138 6.57895 46.4456C5 44.8774 5 43.3092 5 42.7865V6.71834C5 5.67288 5.73684 4.41834 6.57895 3.58198C7.42105 2.74561 8.68421 2.01379 9.73684 2.01379Z" fill="black" fill-opacity="0.4"/>
<path d="M43 9L40 5V40.0312H38L43 46V9Z" fill="#898989"/>
<path d="M43 9L40 5V40.0312H38L43 46V9Z" fill="white" fill-opacity="0.2"/>
<path d="M10.093 40H38.0001L43.0001 46H10.093C9.58856 46 6.97412 45.0823 6.97412 42.8406C6.97412 40.599 9.58856 40 10.093 40Z" fill="#898989"/>
<path d="M10.093 40H38.0001L43.0001 46H10.093C9.58856 46 6.97412 45.0823 6.97412 42.8406C6.97412 40.599 9.58856 40 10.093 40Z" fill="white" fill-opacity="0.6"/>
<g clip-path="url(#clip0_4815_8343)">
<ellipse cx="18.7875" cy="25.1876" rx="3.23919" ry="7.77405" transform="rotate(-45 18.7875 25.1876)" stroke="#2FC4A7" stroke-width="1.8"/>
<ellipse cx="18.7875" cy="25.1876" rx="3.23919" ry="7.77405" transform="rotate(-45 18.7875 25.1876)" stroke="white" stroke-opacity="0.2" stroke-width="1.8"/>
<ellipse cx="24.7875" cy="19.1875" rx="2.74005" ry="6.57612" transform="rotate(-45 24.7875 19.1875)" stroke="#2FC4A7" stroke-width="1.8"/>
<ellipse cx="24.7875" cy="19.1875" rx="2.74005" ry="6.57612" transform="rotate(-45 24.7875 19.1875)" stroke="white" stroke-opacity="0.4" stroke-width="1.8"/>
<ellipse cx="30.1876" cy="13.7875" rx="2.24091" ry="5.3782" transform="rotate(-45 30.1876 13.7875)" stroke="#2FC4A7" stroke-width="1.8"/>
<ellipse cx="30.1876" cy="13.7875" rx="2.24091" ry="5.3782" transform="rotate(-45 30.1876 13.7875)" stroke="white" stroke-opacity="0.6" stroke-width="1.8"/>
<path d="M36.2 11.4L38 6.00005L32.6 7.80003L34.7 8.40003L14.9 28.2L12.5001 28.2L8.00007 32.4L11.3001 32.7L11.6001 36L15.8001 31.5L15.8 29.1L35.6 9.30003L36.2 11.4Z" fill="#2FC4A7"/>
<path d="M36.2 11.4L38 6.00005L32.6 7.80003L34.7 8.40003L14.9 28.2L12.5001 28.2L8.00007 32.4L11.3001 32.7L11.6001 36L15.8001 31.5L15.8 29.1L35.6 9.30003L36.2 11.4Z" fill="white" fill-opacity="0.95"/>
<path d="M24.2846 30.6847C23.0196 31.9496 19.533 30.514 16.4971 27.478C13.4611 24.4421 12.0255 20.9555 13.2905 19.6905" stroke="#2FC4A7" stroke-width="1.8"/>
<path d="M24.2846 30.6847C23.0196 31.9496 19.533 30.514 16.4971 27.478C13.4611 24.4421 12.0255 20.9555 13.2905 19.6905" stroke="white" stroke-opacity="0.2" stroke-width="1.8"/>
<path d="M29.4375 23.8375C28.3674 24.9076 25.4181 23.6931 22.85 21.125C20.2818 18.5569 19.0674 15.6075 20.1375 14.5375" stroke="#2FC4A7" stroke-width="1.8"/>
<path d="M29.4375 23.8375C28.3674 24.9076 25.4181 23.6931 22.85 21.125C20.2818 18.5569 19.0674 15.6075 20.1375 14.5375" stroke="white" stroke-opacity="0.4" stroke-width="1.8"/>
<path d="M33.9905 17.5904C33.1154 18.4656 30.7033 17.4724 28.603 15.3721C26.5027 13.2717 25.5095 10.8597 26.3846 9.98453" stroke="#2FC4A7" stroke-width="1.8"/>
<path d="M33.9905 17.5904C33.1154 18.4656 30.7033 17.4724 28.603 15.3721C26.5027 13.2717 25.5095 10.8597 26.3846 9.98453" stroke="white" stroke-opacity="0.6" stroke-width="1.8"/>
</g>
<defs>
<clipPath id="clip0_4815_8343">
<rect width="30" height="30" fill="white" transform="matrix(-1 0 0 1 38 6)"/>
</clipPath>
</defs>
</svg>
