<svg width="50" height="50" viewBox="0 0 50 50" fill="none" xmlns="http://www.w3.org/2000/svg">
<path d="M9.73684 2.01379H40V5.01379L41 7.01379H45V48.0138H11.3158C10.7895 48.0138 8.15789 48.0138 6.57895 46.4456C5 44.8774 5 43.3092 5 42.7865V6.71834C5 5.67288 5.73684 4.41834 6.57895 3.58198C7.42105 2.74561 8.68421 2.01379 9.73684 2.01379Z" fill="#D0333D"/>
<path d="M9.73684 2.01379H40V5.01379L41 7.01379H45V48.0138H11.3158C10.7895 48.0138 8.15789 48.0138 6.57895 46.4456C5 44.8774 5 43.3092 5 42.7865V6.71834C5 5.67288 5.73684 4.41834 6.57895 3.58198C7.42105 2.74561 8.68421 2.01379 9.73684 2.01379Z" fill="black" fill-opacity="0.2"/>
<path d="M43 9L40 5V40.0312H38L43 46V9Z" fill="#898989"/>
<path d="M43 9L40 5V40.0312H38L43 46V9Z" fill="white" fill-opacity="0.2"/>
<path d="M10.093 40H38.0001L43.0001 46H10.093C9.58856 46 6.97412 45.0823 6.97412 42.8406C6.97412 40.599 9.58856 40 10.093 40Z" fill="#898989"/>
<path d="M10.093 40H38.0001L43.0001 46H10.093C9.58856 46 6.97412 45.0823 6.97412 42.8406C6.97412 40.599 9.58856 40 10.093 40Z" fill="white" fill-opacity="0.6"/>
<g clip-path="url(#clip0_4815_8340)">
<ellipse cx="16.9875" cy="26.9875" rx="3.23919" ry="7.77404" transform="rotate(-45 16.9875 26.9875)" stroke="#D0333D" stroke-width="1.8"/>
<ellipse cx="16.9875" cy="26.9875" rx="3.23919" ry="7.77404" transform="rotate(-45 16.9875 26.9875)" stroke="white" stroke-opacity="0.4" stroke-width="1.8"/>
<ellipse cx="22.9875" cy="20.9875" rx="2.74005" ry="6.57612" transform="rotate(-45 22.9875 20.9875)" stroke="#D0333D" stroke-width="1.8"/>
<ellipse cx="22.9875" cy="20.9875" rx="2.74005" ry="6.57612" transform="rotate(-45 22.9875 20.9875)" stroke="white" stroke-opacity="0.6" stroke-width="1.8"/>
<ellipse cx="28.3875" cy="15.5875" rx="2.24091" ry="5.3782" transform="rotate(-45 28.3875 15.5875)" stroke="#D0333D" stroke-width="1.8"/>
<ellipse cx="28.3875" cy="15.5875" rx="2.24091" ry="5.3782" transform="rotate(-45 28.3875 15.5875)" stroke="white" stroke-opacity="0.8" stroke-width="1.8"/>
<path d="M29.3 16.2L25.881 19.2901L9.61213 36.159L8.46889 36.1023L7.86888 35.5023L7.81212 34.359L24.681 18.0901L27.7289 14.6222L29.3 16.2Z" fill="#898989"/>
<path d="M29.3 16.2L25.881 19.2901L9.61213 36.159L8.46889 36.1023L7.86888 35.5023L7.81212 34.359L24.681 18.0901L27.7289 14.6222L29.3 16.2Z" fill="white" fill-opacity="0.95"/>
<path fill-rule="evenodd" clip-rule="evenodd" d="M37.8654 6.15898L32.8467 15.7307L31.0811 15.7889C30.4925 15.8083 29.3079 16.1716 29.3079 16.1716L28.9128 15.7765L33.0019 11.0225L28.1227 14.9864L27.7274 14.5911C27.7274 14.5911 28.216 13.5318 28.2354 12.9433L28.2936 11.1777L37.8654 6.15898Z" fill="#898989"/>
<path fill-rule="evenodd" clip-rule="evenodd" d="M37.8654 6.15898L32.8467 15.7307L31.0811 15.7889C30.4925 15.8083 29.3079 16.1716 29.3079 16.1716L28.9128 15.7765L33.0019 11.0225L28.1227 14.9864L27.7274 14.5911C27.7274 14.5911 28.216 13.5318 28.2354 12.9433L28.2936 11.1777L37.8654 6.15898Z" fill="white" fill-opacity="0.95"/>
<path d="M22.4846 32.4846C21.2196 33.7496 17.733 32.3139 14.697 29.278C11.6611 26.242 10.2254 22.7554 11.4904 21.4904" stroke="#D0333D" stroke-width="1.8"/>
<path d="M22.4846 32.4846C21.2196 33.7496 17.733 32.3139 14.697 29.278C11.6611 26.242 10.2254 22.7554 11.4904 21.4904" stroke="white" stroke-opacity="0.4" stroke-width="1.8"/>
<path d="M27.6376 25.6376C26.5675 26.7076 23.6182 25.4932 21.05 22.925C18.4819 20.3569 17.2675 17.4076 18.3375 16.3375" stroke="#D0333D" stroke-width="1.8"/>
<path d="M27.6376 25.6376C26.5675 26.7076 23.6182 25.4932 21.05 22.925C18.4819 20.3569 17.2675 17.4076 18.3375 16.3375" stroke="white" stroke-opacity="0.6" stroke-width="1.8"/>
<path d="M32.1905 19.3905C31.3154 20.2656 28.9033 19.2724 26.803 17.1721C24.7026 15.0718 23.7094 12.6597 24.5846 11.7846" stroke="#D0333D" stroke-width="1.8"/>
<path d="M32.1905 19.3905C31.3154 20.2656 28.9033 19.2724 26.803 17.1721C24.7026 15.0718 23.7094 12.6597 24.5846 11.7846" stroke="white" stroke-opacity="0.8" stroke-width="1.8"/>
</g>
<defs>
<clipPath id="clip0_4815_8340">
<rect width="30" height="30" fill="white" transform="matrix(-1 0 0 1 38 6)"/>
</clipPath>
</defs>
</svg>
