<svg width="50" height="50" viewBox="0 0 50 50" fill="none" xmlns="http://www.w3.org/2000/svg">
<path d="M9.73684 2.01379H40V5.01379L41 7.01379H45V48.0138H11.3158C10.7895 48.0138 8.15789 48.0138 6.57895 46.4456C5 44.8774 5 43.3092 5 42.7865V6.71834C5 5.67288 5.73684 4.41834 6.57895 3.58198C7.42105 2.74561 8.68421 2.01379 9.73684 2.01379Z" fill="#2FC4A7"/>
<path d="M9.73684 2.01379H40V5.01379L41 7.01379H45V48.0138H11.3158C10.7895 48.0138 8.15789 48.0138 6.57895 46.4456C5 44.8774 5 43.3092 5 42.7865V6.71834C5 5.67288 5.73684 4.41834 6.57895 3.58198C7.42105 2.74561 8.68421 2.01379 9.73684 2.01379Z" fill="black" fill-opacity="0.4"/>
<path d="M43 9L40 5V40.0312H38L43 46V9Z" fill="#898989"/>
<path d="M43 9L40 5V40.0312H38L43 46V9Z" fill="white" fill-opacity="0.2"/>
<path d="M10.093 40H38.0001L43.0001 46H10.093C9.58856 46 6.97412 45.0823 6.97412 42.8406C6.97412 40.599 9.58856 40 10.093 40Z" fill="#898989"/>
<path d="M10.093 40H38.0001L43.0001 46H10.093C9.58856 46 6.97412 45.0823 6.97412 42.8406C6.97412 40.599 9.58856 40 10.093 40Z" fill="white" fill-opacity="0.6"/>
<g clip-path="url(#clip0_4815_8342)">
<path fill-rule="evenodd" clip-rule="evenodd" d="M23.5429 11.0345L31.2608 12.4469L29.8484 20.1648L37.5664 21.5772L36.154 29.2951L28.436 27.8827L27.0236 35.6007L25.9066 35.3963L23.8635 29.3549L25.7731 30.9639L29.2139 25.9261L25.5063 22.099L28.8057 19.5542L26.4281 15.3408L29.2298 12.0752L25.8786 11.4619L23.7679 16.1134L27.2824 19.2754L22.9575 22.2623L27.9395 26.0077L25.5541 28.7198L22.1769 26.5274L22.86 34.8387L19.3057 34.1883L20.7181 26.4704L13.0001 25.058L14.4125 17.34L22.1305 18.7524L23.5429 11.0345Z" fill="#FEFEFE"/>
<path d="M24.9916 26.5241L29.7858 27.7857L28.5242 22.9915L27.7672 24.7578L16.1601 13.1507L16.4125 10.8798L11.8706 6.33788L11.3659 9.36581L8.33799 9.87047L12.8799 14.4124L15.1508 14.16L26.7579 25.7671L24.9916 26.5241Z" fill="#2FC4A7"/>
<path d="M24.9916 26.5241L29.7858 27.7857L28.5242 22.9915L27.7672 24.7578L16.1601 13.1507L16.4125 10.8798L11.8706 6.33788L11.3659 9.36581L8.33799 9.87047L12.8799 14.4124L15.1508 14.16L26.7579 25.7671L24.9916 26.5241Z" fill="white" fill-opacity="0.6"/>
</g>
<defs>
<clipPath id="clip0_4815_8342">
<rect width="30" height="30" fill="white" transform="matrix(-1 0 0 1 38 6)"/>
</clipPath>
</defs>
</svg>
