<svg width="50" height="50" viewBox="0 0 50 50" fill="none" xmlns="http://www.w3.org/2000/svg">
<g clip-path="url(#clip0_5989_9538)">
<path d="M9.54333 27.3171C8.48755 24.7665 9.06421 23.5064 9.22311 21.2829C8.63996 22.3849 7.09561 25.6296 8.53611 29.3415C10.3367 33.9812 15.8687 37.0479 21.9421 38.6833C28.0155 40.3187 35.9765 39.7132 38.7527 37.439C40.9736 35.6197 41.7376 31.1713 41.6146 30.005C40.7398 31.6581 40.6349 33.7908 38.2491 35.4146C34.8811 37.707 28.8902 38.6657 22.4119 36.9213C15.9337 35.1768 10.8631 30.5053 9.54333 27.3171Z" fill="#FAA21E"/>
<path d="M9.54333 27.3171C8.48755 24.7665 9.06421 23.5064 9.22311 21.2829C8.63996 22.3849 7.09561 25.6296 8.53611 29.3415C10.3367 33.9812 15.8687 37.0479 21.9421 38.6833C28.0155 40.3187 35.9765 39.7132 38.7527 37.439C40.9736 35.6197 41.7376 31.1713 41.6146 30.005C40.7398 31.6581 40.6349 33.7908 38.2491 35.4146C34.8811 37.707 28.8902 38.6657 22.4119 36.9213C15.9337 35.1768 10.8631 30.5053 9.54333 27.3171Z" fill="black" fill-opacity="0.4"/>
<path fill-rule="evenodd" clip-rule="evenodd" d="M21.9851 39.0225C32.1941 41.7715 41.82 38.9375 43.4851 32.6926C45.1501 26.4477 38.2239 19.1567 28.0149 16.4077C17.8058 13.6587 8.17996 16.4927 6.51488 22.7376C4.84979 28.9825 11.776 36.2735 21.9851 39.0225ZM22.1197 38.5175C30.9971 40.9079 39.3674 38.4436 40.8153 33.0133C42.2632 27.5829 36.2404 21.2429 27.363 18.8525C18.4856 16.462 10.1153 18.9263 8.66736 24.3567C7.21945 29.787 13.2423 36.127 22.1197 38.5175Z" fill="#FAA21E"/>
<path d="M22.6114 25.4115L20.7204 23.0551L23.0648 31.2506L22.6114 25.4115Z" fill="#CE4317"/>
<path d="M24.242 26.8574L22.6812 28.289L23.0648 31.2506L23.8268 32.8L25.7239 30.1132L25.1721 27.7793L24.242 26.8574Z" fill="#CE4317"/>
<path d="M24.242 26.8574L22.6812 28.289L23.0648 31.2506L23.8268 32.8L25.7239 30.1132L25.1721 27.7793L24.242 26.8574Z" fill="black" fill-opacity="0.3"/>
<path d="M34.3826 16.626L30.4459 18.7662L29.1283 26.8214L34.3571 20.4869L34.3826 16.626Z" fill="#CE4317"/>
<path d="M34.3826 16.626L30.4459 18.7662L29.1283 26.8214L34.3571 20.4869L34.3826 16.626Z" fill="black" fill-opacity="0.3"/>
<path d="M29.0563 17.0486L24.1054 18.5807L24.242 26.8573L25.1721 27.7792L30.048 18.9959L29.0563 17.0486Z" fill="#CE4317"/>
<path d="M29.0563 17.0486L24.1054 18.5807L24.242 26.8573L25.1721 27.7792L30.048 18.9959L29.0563 17.0486Z" fill="black" fill-opacity="0.15"/>
<path d="M29.8837 7.68494L29.0563 17.0486L30.048 18.9959L34.3826 16.6259L32.0382 8.43041L29.8837 7.68494Z" fill="#CE4317"/>
<path d="M29.8837 7.68494L29.0563 17.0486L30.048 18.9959L34.3826 16.6259L32.0382 8.43041L29.8837 7.68494Z" fill="black" fill-opacity="0.5"/>
<path d="M24.1053 18.5808L21.3795 14.319L24.6189 9.13313L29.0684 6.9621L29.8836 7.68504L29.0563 17.0487L24.1053 18.5808Z" fill="#CE4317"/>
<path d="M20.7204 23.055L21.3796 14.319L24.1054 18.5808L22.6114 25.4115L20.7204 23.055Z" fill="#CE4317"/>
<path d="M20.7204 23.055L21.3796 14.319L24.1054 18.5808L22.6114 25.4115L20.7204 23.055Z" fill="black" fill-opacity="0.3"/>
<path d="M22.6114 25.4115L24.1053 18.5808L24.2419 26.8574L22.6812 28.289L22.6114 25.4115Z" fill="#CE4317"/>
<path d="M22.6114 25.4115L24.1053 18.5808L24.2419 26.8574L22.6812 28.289L22.6114 25.4115Z" fill="white" fill-opacity="0.15"/>
<path d="M25.7238 30.1133L25.1721 27.7793L30.048 18.996L30.8437 18.5366L29.1283 26.8214L25.7238 30.1133Z" fill="#CE4317"/>
<path d="M29.8836 7.68491L29.0683 6.96197L27.8665 5.79911L29.1637 5.97854L31.349 7.23674L32.0382 8.43038L29.8836 7.68491Z" fill="#CE4317"/>
<path d="M29.8836 7.68491L29.0683 6.96197L27.8665 5.79911L29.1637 5.97854L31.349 7.23674L32.0382 8.43038L29.8836 7.68491Z" fill="white" fill-opacity="0.15"/>
<path d="M29.0684 6.962L27.8665 5.79914L24.6189 9.13303L29.0684 6.962Z" fill="#CE4317"/>
<path d="M29.0684 6.962L27.8665 5.79914L24.6189 9.13303L29.0684 6.962Z" fill="black" fill-opacity="0.3"/>
<path d="M21 8.47059C22.6213 8.22353 22.6213 7.97647 22.8529 6C23.0846 7.97647 23.0846 8.22353 24.7059 8.47059C23.0846 8.71765 23.0846 8.96471 22.8529 10.9412C22.6213 8.96471 22.6213 8.71765 21 8.47059Z" fill="#CE4317"/>
<path d="M21 8.47059C22.6213 8.22353 22.6213 7.97647 22.8529 6C23.0846 7.97647 23.0846 8.22353 24.7059 8.47059C23.0846 8.71765 23.0846 8.96471 22.8529 10.9412C22.6213 8.96471 22.6213 8.71765 21 8.47059Z" fill="white" fill-opacity="0.8"/>
<path d="M30.2647 15.8824C33.9706 15.5735 33.6618 15.5735 33.9706 11.5588C34.2794 15.5735 33.9706 15.5735 37.6765 15.8824C33.9706 16.1912 34.2794 16.1912 33.9706 20.2059C33.6618 16.1912 33.9706 16.1912 30.2647 15.8824Z" fill="#CE4317"/>
<path d="M30.2647 15.8824C33.9706 15.5735 33.6618 15.5735 33.9706 11.5588C34.2794 15.5735 33.9706 15.5735 37.6765 15.8824C33.9706 16.1912 34.2794 16.1912 33.9706 20.2059C33.6618 16.1912 33.9706 16.1912 30.2647 15.8824Z" fill="white" fill-opacity="0.8"/>
<path d="M25.3235 24.5294C26.9448 24.2824 26.9448 24.0353 27.1764 22.0588C27.408 24.0353 27.408 24.2824 29.0294 24.5294C27.408 24.7765 27.408 25.0235 27.1764 27C26.9448 25.0235 26.9448 24.7765 25.3235 24.5294Z" fill="#CE4317"/>
<path d="M25.3235 24.5294C26.9448 24.2824 26.9448 24.0353 27.1764 22.0588C27.408 24.0353 27.408 24.2824 29.0294 24.5294C27.408 24.7765 27.408 25.0235 27.1764 27C26.9448 25.0235 26.9448 24.7765 25.3235 24.5294Z" fill="white" fill-opacity="0.8"/>
</g>
<defs>
<clipPath id="clip0_5989_9538">
<rect width="50" height="50" fill="white"/>
</clipPath>
</defs>
</svg>
