<svg width="50" height="50" viewBox="0 0 50 50" fill="none" xmlns="http://www.w3.org/2000/svg">
<g clip-path="url(#clip0_5989_9544)">
<path d="M22 10.3441C21.8333 10.5222 21.2 10.7717 20 10.3441C18.5 9.80954 18.5 7.13694 16 6.60242C13.5 6.06789 11 7.67146 11 10.3441C11 12.4822 13.6667 14.4421 15 15.1548V20.5" stroke="#FAA21E" stroke-width="1.5" stroke-linecap="round" stroke-linejoin="round"/>
<path d="M42 5.34407C41.8333 5.52224 41.2 5.77168 40 5.34407C38.5 4.80954 38.5 2.13694 36 1.60242C33.5 1.06789 31 2.67146 31 5.34407C31 7.48215 33.6667 9.44208 35 10.1548V15.5" stroke="#FAA21E" stroke-width="1.5" stroke-linecap="round" stroke-linejoin="round"/>
<circle cx="15" cy="24" r="1.5" fill="#FAA21E"/>
<circle cx="35" cy="19" r="1.5" fill="#FAA21E"/>
<g clip-path="url(#clip1_5989_9544)">
<path d="M17.0795 44.0488L19.1912 42.5002L15.3902 48.8351L17.0795 44.0488Z" fill="#CE4317"/>
<path d="M15.3902 44.8934L16.3756 46.442L15.3902 48.8351L14.4048 49.9614L13.4193 47.2866L14.4048 45.4565L15.3902 44.8934Z" fill="#CE4317"/>
<path d="M15.3902 44.8934L16.3756 46.442L15.3902 48.8351L14.4048 49.9614L13.4193 47.2866L14.4048 45.4565L15.3902 44.8934Z" fill="black" fill-opacity="0.3"/>
<path d="M9.19609 34.0537L12.0116 36.7284L11.3077 43.7672L8.35143 37.2915L9.19609 34.0537Z" fill="#CE4317"/>
<path d="M9.19609 34.0537L12.0116 36.7284L11.3077 43.7672L8.35143 37.2915L9.19609 34.0537Z" fill="black" fill-opacity="0.3"/>
<path d="M13.5601 35.6023L17.3611 37.9955L15.3902 44.8935L14.4048 45.4566L12.2932 37.0101L13.5601 35.6023Z" fill="#CE4317"/>
<path d="M13.5601 35.6023L17.3611 37.9955L15.3902 44.8935L14.4048 45.4566L12.2932 37.0101L13.5601 35.6023Z" fill="black" fill-opacity="0.15"/>
<path d="M14.9679 27.578L13.5601 35.6022L12.2932 37.01L9.1961 34.0537L12.997 27.7188L14.9679 27.578Z" fill="#CE4317"/>
<path d="M14.9679 27.578L13.5601 35.6022L12.2932 37.01L9.1961 34.0537L12.997 27.7188L14.9679 27.578Z" fill="black" fill-opacity="0.5"/>
<path d="M17.3611 37.9955L20.5989 35.0392L19.0504 29.9713L15.8126 27.1558L14.9679 27.5781L13.5602 35.6023L17.3611 37.9955Z" fill="#CE4317"/>
<path d="M19.1912 42.5003L20.5989 35.0392L17.3611 37.9955L17.0795 44.0488L19.1912 42.5003Z" fill="#CE4317"/>
<path d="M19.1912 42.5003L20.5989 35.0392L17.3611 37.9955L17.0795 44.0488L19.1912 42.5003Z" fill="black" fill-opacity="0.3"/>
<path d="M17.0795 44.0488L17.3611 37.9955L15.3902 44.8935L16.3757 46.442L17.0795 44.0488Z" fill="#CE4317"/>
<path d="M17.0795 44.0488L17.3611 37.9955L15.3902 44.8935L16.3757 46.442L17.0795 44.0488Z" fill="white" fill-opacity="0.15"/>
<path d="M13.4194 47.2866L14.4048 45.4565L12.2932 37.01L11.7301 36.4469L11.3077 43.7672L13.4194 47.2866Z" fill="#CE4317"/>
<path d="M14.9679 27.578L15.8125 27.1557L17.0795 26.4518L15.9533 26.311L13.8417 26.8741L12.997 27.7188L14.9679 27.578Z" fill="#CE4317"/>
<path d="M14.9679 27.578L15.8125 27.1557L17.0795 26.4518L15.9533 26.311L13.8417 26.8741L12.997 27.7188L14.9679 27.578Z" fill="white" fill-opacity="0.15"/>
<path d="M15.8125 27.1557L17.0795 26.4518L19.0504 29.9712L15.8125 27.1557Z" fill="#CE4317"/>
<path d="M15.8125 27.1557L17.0795 26.4518L19.0504 29.9712L15.8125 27.1557Z" fill="black" fill-opacity="0.3"/>
</g>
<g clip-path="url(#clip2_5989_9544)">
<path d="M37.0795 39.0488L39.1912 37.5002L35.3902 43.8351L37.0795 39.0488Z" fill="#CE4317"/>
<path d="M35.3902 39.8934L36.3756 41.442L35.3902 43.8351L34.4048 44.9614L33.4193 42.2866L34.4048 40.4565L35.3902 39.8934Z" fill="#CE4317"/>
<path d="M35.3902 39.8934L36.3756 41.442L35.3902 43.8351L34.4048 44.9614L33.4193 42.2866L34.4048 40.4565L35.3902 39.8934Z" fill="black" fill-opacity="0.3"/>
<path d="M29.1961 29.0537L32.0116 31.7284L31.3077 38.7672L28.3514 32.2915L29.1961 29.0537Z" fill="#CE4317"/>
<path d="M29.1961 29.0537L32.0116 31.7284L31.3077 38.7672L28.3514 32.2915L29.1961 29.0537Z" fill="black" fill-opacity="0.3"/>
<path d="M33.5601 30.6023L37.3611 32.9955L35.3902 39.8935L34.4048 40.4566L32.2932 32.0101L33.5601 30.6023Z" fill="#CE4317"/>
<path d="M33.5601 30.6023L37.3611 32.9955L35.3902 39.8935L34.4048 40.4566L32.2932 32.0101L33.5601 30.6023Z" fill="black" fill-opacity="0.15"/>
<path d="M34.9679 22.578L33.5601 30.6022L32.2932 32.01L29.1961 29.0537L32.997 22.7188L34.9679 22.578Z" fill="#CE4317"/>
<path d="M34.9679 22.578L33.5601 30.6022L32.2932 32.01L29.1961 29.0537L32.997 22.7188L34.9679 22.578Z" fill="black" fill-opacity="0.5"/>
<path d="M37.3611 32.9955L40.5989 30.0392L39.0504 24.9713L35.8126 22.1558L34.9679 22.5781L33.5602 30.6023L37.3611 32.9955Z" fill="#CE4317"/>
<path d="M39.1912 37.5003L40.5989 30.0392L37.3611 32.9955L37.0795 39.0488L39.1912 37.5003Z" fill="#CE4317"/>
<path d="M39.1912 37.5003L40.5989 30.0392L37.3611 32.9955L37.0795 39.0488L39.1912 37.5003Z" fill="black" fill-opacity="0.3"/>
<path d="M37.0795 39.0488L37.3611 32.9955L35.3902 39.8935L36.3757 41.442L37.0795 39.0488Z" fill="#CE4317"/>
<path d="M37.0795 39.0488L37.3611 32.9955L35.3902 39.8935L36.3757 41.442L37.0795 39.0488Z" fill="white" fill-opacity="0.15"/>
<path d="M33.4194 42.2866L34.4048 40.4565L32.2932 32.01L31.7301 31.4469L31.3077 38.7672L33.4194 42.2866Z" fill="#CE4317"/>
<path d="M34.9679 22.578L35.8125 22.1557L37.0795 21.4518L35.9533 21.311L33.8417 21.8741L32.997 22.7188L34.9679 22.578Z" fill="#CE4317"/>
<path d="M34.9679 22.578L35.8125 22.1557L37.0795 21.4518L35.9533 21.311L33.8417 21.8741L32.997 22.7188L34.9679 22.578Z" fill="white" fill-opacity="0.15"/>
<path d="M35.8125 22.1557L37.0795 21.4518L39.0504 24.9712L35.8125 22.1557Z" fill="#CE4317"/>
<path d="M35.8125 22.1557L37.0795 21.4518L39.0504 24.9712L35.8125 22.1557Z" fill="black" fill-opacity="0.3"/>
</g>
<path d="M31 38.8235C32.8529 38.5412 32.8529 38.2588 33.1176 36C33.3824 38.2588 33.3824 38.5412 35.2353 38.8235C33.3824 39.1059 33.3824 39.3882 33.1176 41.6471C32.8529 39.3882 32.8529 39.1059 31 38.8235Z" fill="#CE4317"/>
<path d="M31 38.8235C32.8529 38.5412 32.8529 38.2588 33.1176 36C33.3824 38.2588 33.3824 38.5412 35.2353 38.8235C33.3824 39.1059 33.3824 39.3882 33.1176 41.6471C32.8529 39.3882 32.8529 39.1059 31 38.8235Z" fill="white" fill-opacity="0.8"/>
<path d="M35.5883 30.2941C39.8236 29.9411 39.4706 29.9411 39.8236 25.3529C40.1765 29.9411 39.8236 29.9411 44.0588 30.2941C39.8236 30.647 40.1765 30.647 39.8236 35.2353C39.4706 30.647 39.8236 30.647 35.5883 30.2941Z" fill="#CE4317"/>
<path d="M35.5883 30.2941C39.8236 29.9411 39.4706 29.9411 39.8236 25.3529C40.1765 29.9411 39.8236 29.9411 44.0588 30.2941C39.8236 30.647 40.1765 30.647 39.8236 35.2353C39.4706 30.647 39.8236 30.647 35.5883 30.2941Z" fill="white" fill-opacity="0.8"/>
<path d="M16 34.9412C20.2353 34.5882 19.8824 34.5882 20.2353 30C20.5882 34.5882 20.2353 34.5882 24.4706 34.9412C20.2353 35.2941 20.5882 35.2941 20.2353 39.8824C19.8824 35.2941 20.2353 35.2941 16 34.9412Z" fill="#CE4317"/>
<path d="M16 34.9412C20.2353 34.5882 19.8824 34.5882 20.2353 30C20.5882 34.5882 20.2353 34.5882 24.4706 34.9412C20.2353 35.2941 20.5882 35.2941 20.2353 39.8824C19.8824 35.2941 20.2353 35.2941 16 34.9412Z" fill="white" fill-opacity="0.8"/>
<path d="M9 43.8235C10.8529 43.5412 10.8529 43.2588 11.1176 41C11.3824 43.2588 11.3824 43.5412 13.2353 43.8235C11.3824 44.1059 11.3824 44.3882 11.1176 46.6471C10.8529 44.3882 10.8529 44.1059 9 43.8235Z" fill="#CE4317"/>
<path d="M9 43.8235C10.8529 43.5412 10.8529 43.2588 11.1176 41C11.3824 43.2588 11.3824 43.5412 13.2353 43.8235C11.3824 44.1059 11.3824 44.3882 11.1176 46.6471C10.8529 44.3882 10.8529 44.1059 9 43.8235Z" fill="white" fill-opacity="0.8"/>
</g>
<defs>
<clipPath id="clip0_5989_9544">
<rect width="50" height="50" fill="white"/>
</clipPath>
<clipPath id="clip1_5989_9544">
<rect width="26" height="26" fill="white" transform="translate(15.3848 19) rotate(45)"/>
</clipPath>
<clipPath id="clip2_5989_9544">
<rect width="26" height="26" fill="white" transform="translate(35.3848 14) rotate(45)"/>
</clipPath>
</defs>
</svg>
