<svg width="50" height="50" viewBox="0 0 50 50" fill="none" xmlns="http://www.w3.org/2000/svg">
<g clip-path="url(#clip0_5989_9535)">
<path d="M39.7367 5.32922C38.1358 2.13648 33.5229 -0.223472 21.0952 1.62743C16.2623 2.61458 6.45826 5.47733 5.90592 9.03105C5.2155 13.4732 15.1493 7.54097 16.1274 11.6223C17.1056 15.7036 1.4552 19.3326 3.14423 24.2084C4.42935 27.9182 15.5718 27.1698 20.4048 27.9102L20.4792 27.9216C25.2822 28.6573 29.5832 29.3162 32.142 30.5015C36.6686 32.5982 35.2014 26.2111 32.142 24.2084C29.6192 22.557 25.4199 21.298 24.4417 17.8588C23.4636 14.4196 28.6899 13.8434 33.5229 11.6223C38.3558 9.40123 40.6453 7.14131 39.7367 5.32922Z" stroke="#FAA21E" stroke-width="2" stroke-linecap="round"/>
<path d="M47.3199 42.9544L47.7793 39.9681L49.8467 48.2379L47.3199 42.9544Z" fill="#CE4317"/>
<path d="M46.6307 45.0219L48.6981 45.4813L49.8467 48.2379L49.9616 49.9608L46.9753 48.5825L46.2861 46.2853L46.6307 45.0219Z" fill="#CE4317"/>
<path d="M46.6307 45.0219L48.6981 45.4813L49.8467 48.2379L49.9616 49.9608L46.9753 48.5825L46.2861 46.2853L46.6307 45.0219Z" fill="black" fill-opacity="0.3"/>
<path d="M32.7329 41.2315L37.2124 41.1166L42.381 47.4338L34.6855 44.5624L32.7329 41.2315Z" fill="#CE4317"/>
<path d="M32.7329 41.2315L37.2124 41.1166L42.381 47.4338L34.6855 44.5624L32.7329 41.2315Z" fill="black" fill-opacity="0.3"/>
<path d="M37.557 38.9344L42.6107 37.7858L46.6307 45.0219L46.2862 46.2853L37.6718 41.1167L37.557 38.9344Z" fill="#CE4317"/>
<path d="M37.557 38.9344L42.6107 37.7858L46.6307 45.0219L46.2862 46.2853L37.6718 41.1167L37.557 38.9344Z" fill="black" fill-opacity="0.15"/>
<path d="M32.1586 31.2389L37.5569 38.9344L37.6718 41.1167L32.7329 41.2315L30.6655 32.9618L32.1586 31.2389Z" fill="#CE4317"/>
<path d="M32.1586 31.2389L37.5569 38.9344L37.6718 41.1167L32.7329 41.2315L30.6655 32.9618L32.1586 31.2389Z" fill="black" fill-opacity="0.5"/>
<path d="M42.6107 37.7858L42.8404 32.7321L37.4421 29.8606L32.5032 30.2052L32.1587 31.2389L37.557 38.9344L42.6107 37.7858Z" fill="#CE4317"/>
<path d="M47.7793 39.9681L42.8404 32.7321L42.6107 37.7858L47.3198 42.9544L47.7793 39.9681Z" fill="#CE4317"/>
<path d="M47.7793 39.9681L42.8404 32.7321L42.6107 37.7858L47.3198 42.9544L47.7793 39.9681Z" fill="black" fill-opacity="0.3"/>
<path d="M47.3199 42.9544L42.6107 37.7858L46.6307 45.0218L48.6982 45.4812L47.3199 42.9544Z" fill="#CE4317"/>
<path d="M47.3199 42.9544L42.6107 37.7858L46.6307 45.0218L48.6982 45.4812L47.3199 42.9544Z" fill="white" fill-opacity="0.15"/>
<path d="M46.9753 48.5824L46.2861 46.2852L37.6718 41.1166L36.7529 41.1166L42.381 47.4338L46.9753 48.5824Z" fill="#CE4317"/>
<path d="M32.1586 31.2389L32.5032 30.2052L32.9626 28.5972L31.9289 29.4012L30.6655 31.5835L30.6655 32.9618L32.1586 31.2389Z" fill="#CE4317"/>
<path d="M32.1586 31.2389L32.5032 30.2052L32.9626 28.5972L31.9289 29.4012L30.6655 31.5835L30.6655 32.9618L32.1586 31.2389Z" fill="white" fill-opacity="0.15"/>
<path d="M32.5032 30.2052L32.9626 28.5971L37.4421 29.8606L32.5032 30.2052Z" fill="#CE4317"/>
<path d="M32.5032 30.2052L32.9626 28.5971L37.4421 29.8606L32.5032 30.2052Z" fill="black" fill-opacity="0.3"/>
<path d="M50.1 31.7C48.525 31.46 48.525 31.22 48.3 29.3C48.075 31.22 48.075 31.46 46.5 31.7C48.075 31.94 48.075 32.18 48.3 34.1C48.525 32.18 48.525 31.94 50.1 31.7Z" fill="#CE4317"/>
<path d="M50.1 31.7C48.525 31.46 48.525 31.22 48.3 29.3C48.075 31.22 48.075 31.46 46.5 31.7C48.075 31.94 48.075 32.18 48.3 34.1C48.525 32.18 48.525 31.94 50.1 31.7Z" fill="white" fill-opacity="0.8"/>
<path d="M41.1 38.9001C37.5 38.6001 37.8 38.6001 37.5 34.7001C37.2 38.6001 37.5 38.6001 33.9 38.9001C37.5 39.2001 37.2 39.2001 37.5 43.1001C37.8 39.2001 37.5 39.2001 41.1 38.9001Z" fill="#CE4317"/>
<path d="M41.1 38.9001C37.5 38.6001 37.8 38.6001 37.5 34.7001C37.2 38.6001 37.5 38.6001 33.9 38.9001C37.5 39.2001 37.2 39.2001 37.5 43.1001C37.8 39.2001 37.5 39.2001 41.1 38.9001Z" fill="white" fill-opacity="0.8"/>
<path d="M45.9 47.3C44.325 47.06 44.325 46.82 44.1 44.9C43.875 46.82 43.875 47.06 42.3 47.3C43.875 47.54 43.875 47.78 44.1 49.7C44.325 47.78 44.325 47.54 45.9 47.3Z" fill="#CE4317"/>
<path d="M45.9 47.3C44.325 47.06 44.325 46.82 44.1 44.9C43.875 46.82 43.875 47.06 42.3 47.3C43.875 47.54 43.875 47.78 44.1 49.7C44.325 47.78 44.325 47.54 45.9 47.3Z" fill="white" fill-opacity="0.8"/>
</g>
<defs>
<clipPath id="clip0_5989_9535">
<rect width="50" height="50" fill="white"/>
</clipPath>
</defs>
</svg>
