<?xml version="1.0" encoding="utf-8"?><svg fill="none" viewBox="0 0 50 50" xmlns="http://www.w3.org/2000/svg" width="50" height="50"><g clip-path="url(#awsa)"><path d="m35.108 3.604 12.846 12.825.014 18.152-12.826 12.846-18.152.014-2.075-1.2L4.13 16.463 32.982 2.586l2.126 1.018Z" fill="#CE4317"/><path d="m35.108 3.604 12.846 12.825.014 18.152-12.826 12.846-18.152.014-2.075-1.2L4.13 16.463 32.982 2.586l2.126 1.018Z" fill="#000" fill-opacity=".15"/><path d="M45.723 33.708 32.67 46.241l2.61 1.044 12.533-12.532-2.089-1.045Z" fill="#CE4317"/><path d="M45.723 33.708 32.67 46.241l2.61 1.044 12.533-12.532-2.089-1.045Z" fill="#000" fill-opacity=".3"/><path d="M35.28 3.421 33 2.6l12.723 12.832 2.09 1.044L35.28 3.421Z" fill="#CE4317"/><path d="M35.28 3.421 33 2.6l12.723 12.832 2.09 1.044L35.28 3.421Z" fill="#000" fill-opacity=".3"/><path d="m33.02 2.56 12.845 12.825.014 18.152-12.825 12.845-18.153.014L2.056 33.571l-.014-18.152L14.867 2.573 33.02 2.56Z" fill="#CE4317"/><path d="m33.02 2.56 12.845 12.825.014 18.152-12.825 12.845-18.153.014L2.056 33.571l-.014-18.152L14.867 2.573 33.02 2.56Z" fill="#000" fill-opacity=".5"/><path d="m32.147 4.45 11.488 11.504v16.71L32.147 44.152h-16.71L3.949 32.664v-16.71L15.437 4.449h16.71Z" fill="#CE4317"/><path d="m32.147 4.45 11.488 11.504v16.71L32.147 44.152h-16.71L3.949 32.664v-16.71L15.437 4.449h16.71Z" fill="#000" fill-opacity=".3"/><path d="m24.03 24.506-8.593-20.04h16.71l-8.117 20.04-20.081 8.158v-16.71l20.08 8.552Z" fill="#CE4317"/><path d="m23.96 24.478 8.187-20.012 11.488 11.488-19.674 8.524-8.524 19.674L3.949 32.664l20.012-8.186Z" fill="#CE4317"/><path d="m23.96 24.478 8.187-20.012 11.488 11.488-19.674 8.524-8.524 19.674L3.949 32.664l20.012-8.186Z" fill="#000" fill-opacity=".15"/><path d="M23.96 24.478 3.95 15.954 15.437 4.466l8.524 20.012Z" fill="#CE4317"/><path d="M23.96 24.478 3.95 15.954 15.437 4.466l8.524 20.012Z" fill="#fff" fill-opacity=".15"/><path d="m23.27 23.787 20.365 8.877-11.488 11.488-8.878-20.365Z" fill="#FEFEFE" fill-opacity=".15"/><circle cx="23.961" cy="24.478" r="11.488" fill="#CE4317"/><circle cx="23.961" cy="24.478" r="11.488" fill="#fff" fill-opacity=".15"/><path d="M35.401 23.47c.029.332.048.668.048 1.008 0 6.345-5.144 11.488-11.488 11.488-.188 0-.375-.006-.56-.015l12-12.48Zm-4.188-7.9c.27.22.53.454.779.698L15.808 32.571c-.245-.247-.48-.505-.703-.774L31.213 15.57Zm-1.707-1.154c.333.184.656.384.967.6L14.498 30.99a11.47 11.47 0 0 1-.599-.968l15.607-15.607ZM23.96 12.99c1.64 0 3.2.346 4.613.966L13.439 29.091a11.445 11.445 0 0 1-.967-4.613c0-6.345 5.144-11.488 11.489-11.488Z" fill="#CE4317"/><path d="M35.401 23.47c.029.332.048.668.048 1.008 0 6.345-5.144 11.488-11.488 11.488-.188 0-.375-.006-.56-.015l12-12.48Zm-4.188-7.9c.27.22.53.454.779.698L15.808 32.571c-.245-.247-.48-.505-.703-.774L31.213 15.57Zm-1.707-1.154c.333.184.656.384.967.6L14.498 30.99a11.47 11.47 0 0 1-.599-.968l15.607-15.607ZM23.96 12.99c1.64 0 3.2.346 4.613.966L13.439 29.091a11.445 11.445 0 0 1-.967-4.613c0-6.345 5.144-11.488 11.489-11.488Z" fill="#fff" fill-opacity=".8"/><path d="M11 6.5c3.61-.55 3.61-1.1 4.125-5.5.516 4.4.516 4.95 4.125 5.5-3.61.55-3.61 1.1-4.125 5.5-.516-4.4-.516-4.95-4.125-5.5ZM35 23.5c6-.5 5.5-.5 6-7 .5 6.5 0 6.5 6 7-6 .5-5.5.5-6 7-.5-6.5 0-6.5-6-7ZM27 46c2.625-.4 2.625-.8 3-4 .375 3.2.375 3.6 3 4-2.625.4-2.625.8-3 4-.375-3.2-.375-3.6-3-4Z" fill="#FEFEFE"/></g><defs><clipPath id="awsa"><path fill="#fff" d="M0 0h50v50H0z"/></clipPath></defs></svg>