<svg width="50" height="50" viewBox="0 0 50 50" fill="none" xmlns="http://www.w3.org/2000/svg">
<path d="M13.6336 31.7573L12.8679 26.7802L9.42213 40.5631L13.6336 31.7573Z" fill="#CE4317"/>
<path d="M14.7821 35.203L11.3364 35.9688L9.42212 40.5631L9.23069 43.4345L14.2079 41.1374L15.3564 37.3088L14.7821 35.203Z" fill="#CE4317"/>
<path d="M14.7821 35.203L11.3364 35.9688L9.42212 40.5631L9.23069 43.4345L14.2079 41.1374L15.3564 37.3088L14.7821 35.203Z" fill="black" fill-opacity="0.3"/>
<path d="M37.9451 28.8858L30.4794 28.6944L21.865 39.223L34.6908 34.4373L37.9451 28.8858Z" fill="#CE4317"/>
<path d="M37.9451 28.8858L30.4794 28.6944L21.865 39.223L34.6908 34.4373L37.9451 28.8858Z" fill="black" fill-opacity="0.3"/>
<path d="M29.905 25.0573L21.4821 23.143L14.7821 35.203L15.3564 37.3088L29.7136 28.6944L29.905 25.0573Z" fill="#CE4317"/>
<path d="M29.905 25.0573L21.4821 23.143L14.7821 35.203L15.3564 37.3088L29.7136 28.6944L29.905 25.0573Z" fill="black" fill-opacity="0.15"/>
<path d="M38.9023 12.2314L29.9051 25.0572L29.7137 28.6944L37.9451 28.8858L41.3909 15.1029L38.9023 12.2314Z" fill="#CE4317"/>
<path d="M38.9023 12.2314L29.9051 25.0572L29.7137 28.6944L37.9451 28.8858L41.3909 15.1029L38.9023 12.2314Z" fill="black" fill-opacity="0.5"/>
<path d="M21.4822 23.1429L21.0993 14.7201L30.0965 9.93431L38.328 10.5086L38.9023 12.2315L29.9051 25.0572L21.4822 23.1429Z" fill="#CE4317"/>
<path d="M12.8678 26.7802L21.0993 14.7201L21.4822 23.143L13.6336 31.7573L12.8678 26.7802Z" fill="#CE4317"/>
<path d="M12.8678 26.7802L21.0993 14.7201L21.4822 23.143L13.6336 31.7573L12.8678 26.7802Z" fill="black" fill-opacity="0.3"/>
<path d="M13.6336 31.7573L21.4822 23.1429L14.7821 35.203L11.3364 35.9687L13.6336 31.7573Z" fill="#CE4317"/>
<path d="M13.6336 31.7573L21.4822 23.1429L14.7821 35.203L11.3364 35.9687L13.6336 31.7573Z" fill="white" fill-opacity="0.15"/>
<path d="M14.2078 41.1373L15.3564 37.3087L29.7136 28.6944L31.2451 28.6944L21.865 39.223L14.2078 41.1373Z" fill="#CE4317"/>
<path d="M38.9022 12.2314L38.328 10.5085L37.5622 7.82851L39.2851 9.16852L41.3908 12.8057L41.3908 15.1028L38.9022 12.2314Z" fill="#CE4317"/>
<path d="M38.9022 12.2314L38.328 10.5085L37.5622 7.82851L39.2851 9.16852L41.3908 12.8057L41.3908 15.1028L38.9022 12.2314Z" fill="white" fill-opacity="0.15"/>
<path d="M38.328 10.5086L37.5623 7.82857L30.0965 9.9343L38.328 10.5086Z" fill="#CE4317"/>
<path d="M38.328 10.5086L37.5623 7.82857L30.0965 9.9343L38.328 10.5086Z" fill="black" fill-opacity="0.3"/>
<path d="M9 13C11.625 12.6 11.625 12.2 12 9C12.375 12.2 12.375 12.6 15 13C12.375 13.4 12.375 13.8 12 17C11.625 13.8 11.625 13.4 9 13Z" fill="#CE4317"/>
<path d="M9 13C11.625 12.6 11.625 12.2 12 9C12.375 12.2 12.375 12.6 15 13C12.375 13.4 12.375 13.8 12 17C11.625 13.8 11.625 13.4 9 13Z" fill="white" fill-opacity="0.8"/>
<path d="M24 25C30 24.5 29.5 24.5 30 18C30.5 24.5 30 24.5 36 25C30 25.5 30.5 25.5 30 32C29.5 25.5 30 25.5 24 25Z" fill="#CE4317"/>
<path d="M24 25C30 24.5 29.5 24.5 30 18C30.5 24.5 30 24.5 36 25C30 25.5 30.5 25.5 30 32C29.5 25.5 30 25.5 24 25Z" fill="white" fill-opacity="0.8"/>
<path d="M16 39C18.625 38.6 18.625 38.2 19 35C19.375 38.2 19.375 38.6 22 39C19.375 39.4 19.375 39.8 19 43C18.625 39.8 18.625 39.4 16 39Z" fill="#CE4317"/>
<path d="M16 39C18.625 38.6 18.625 38.2 19 35C19.375 38.2 19.375 38.6 22 39C19.375 39.4 19.375 39.8 19 43C18.625 39.8 18.625 39.4 16 39Z" fill="white" fill-opacity="0.8"/>
</svg>
