<svg width="50" height="50" viewBox="0 0 50 50" fill="none" xmlns="http://www.w3.org/2000/svg">
<path d="M3.27245 19.9664C1.62944 26.0982 2.39132 33.3603 6.85015 36.6043C11.309 39.8483 17.6854 38.0437 20.6853 34.9542C23.2342 32.3291 25.2923 25.8667 24.1946 23.9654C23.0969 22.0641 18.8925 25.759 17.7948 23.8577C16.6971 21.9564 23.6717 13.8122 18.4119 9.55862C14.4491 6.35392 5.28586 12.4523 3.27245 19.9664Z" fill="#D0333D"/>
<path d="M3.27245 19.9664C1.62944 26.0982 2.39132 33.3603 6.85015 36.6043C11.309 39.8483 17.6854 38.0437 20.6853 34.9542C23.2342 32.3291 25.2923 25.8667 24.1946 23.9654C23.0969 22.0641 18.8925 25.759 17.7948 23.8577C16.6971 21.9564 23.6717 13.8122 18.4119 9.55862C14.4491 6.35392 5.28586 12.4523 3.27245 19.9664Z" fill="white" fill-opacity="0.2"/>
<path d="M10.8129 39.809C9.10961 39.6991 7.35873 38.7049 6.94819 38.2377L4.80531 46.2351C5.38246 46.7469 7.06354 48.3343 9.53578 48.574C12.6687 48.8778 13.9362 48.146 15.2038 47.4142L15.8471 39.015C14.5796 39.7468 12.3928 39.9109 10.8129 39.809Z" fill="#D0333D"/>
<path d="M46.7207 12.803C48.3632 18.9328 47.6586 26.1773 43.3134 29.3902C38.9683 32.6031 32.718 30.7659 29.7648 27.6651C27.2556 25.0303 25.1998 18.5652 26.2685 16.6765C27.5 14.5 31.4673 18.4968 32.5308 16.6051C33.5943 14.7135 26.7229 6.54481 31.8462 2.32871C35.7062 -0.847768 44.7079 5.29118 46.7207 12.803Z" fill="#D0333D"/>
<path d="M46.7207 12.803C48.3632 18.9328 47.6586 26.1773 43.3134 29.3902C38.9683 32.6031 32.718 30.7659 29.7648 27.6651C27.2556 25.0303 25.1998 18.5652 26.2685 16.6765C27.5 14.5 31.4673 18.4968 32.5308 16.6051C33.5943 14.7135 26.7229 6.54481 31.8462 2.32871C35.7062 -0.847768 44.7079 5.29118 46.7207 12.803Z" fill="white" fill-opacity="0.2"/>
<path d="M39.083 32.2824C40.7897 32.1851 42.5354 31.1717 42.9425 30.6916L45.169 39.0011C44.5954 39.5259 42.9254 41.1548 40.449 41.3791C37.3109 41.6634 36.0329 40.8925 34.7549 40.1217L34.0279 31.4104C35.3058 32.1812 37.5 32.3726 39.083 32.2824Z" fill="#D0333D"/>
<path d="M15.5 15C17.1 13.4 19.1667 11.8333 20 12C21 13.5 19.7829 17.1512 19.5 17.9999L19.5 18C19 19.5 17.0469 23.0468 18 24C18.9531 24.9531 21 23.5 22.5 23.5C22.5 24.5 21.5198 26.4802 20.5 27.5C19 29 16.9141 30.2656 15 29.5C12.5 28.5 12 27 12 24C12 21.4505 13.5 17 15.5 15Z" fill="#D0333D"/>
<path d="M15.5 15C17.1 13.4 19.1667 11.8333 20 12C21 13.5 19.7829 17.1512 19.5 17.9999L19.5 18C19 19.5 17.0469 23.0468 18 24C18.9531 24.9531 21 23.5 22.5 23.5C22.5 24.5 21.5198 26.4802 20.5 27.5C19 29 16.9141 30.2656 15 29.5C12.5 28.5 12 27 12 24C12 21.4505 13.5 17 15.5 15Z" fill="black" fill-opacity="0.2"/>
<path d="M35 7C33.6 5.04404 31.3334 3.83089 30.5 3.99998C29 5.5 30.2139 9.6416 30.5 10.5C31 12 33.3531 15.6196 32.4 16.5866C31.4469 17.5535 29 16 27.5 16C27.5 17.0145 28.8802 19.1028 29.9 20.1374C31.4 21.6591 33.4859 22.9431 35.4 22.1664C37.9 21.1519 38.4 19.6301 38.4 16.5866C38.4 14 36.6583 9.31673 35 7Z" fill="#D0333D"/>
<path d="M35 7C33.6 5.04404 31.3334 3.83089 30.5 3.99998C29 5.5 30.2139 9.6416 30.5 10.5C31 12 33.3531 15.6196 32.4 16.5866C31.4469 17.5535 29 16 27.5 16C27.5 17.0145 28.8802 19.1028 29.9 20.1374C31.4 21.6591 33.4859 22.9431 35.4 22.1664C37.9 21.1519 38.4 19.6301 38.4 16.5866C38.4 14 36.6583 9.31673 35 7Z" fill="black" fill-opacity="0.2"/>
<path d="M35.5 22L32.5 16.5C32 17 30.75 16.8607 30 16.5C29.25 16.1393 28.5 16 27.5 16C27.5 16.6012 27.625 18.1964 29.5 20C31.375 21.8036 34 23 35.5 22Z" fill="#D0333D"/>
<path d="M35.5 22L32.5 16.5C32 17 30.75 16.8607 30 16.5C29.25 16.1393 28.5 16 27.5 16C27.5 16.6012 27.625 18.1964 29.5 20C31.375 21.8036 34 23 35.5 22Z" fill="black" fill-opacity="0.4"/>
<path d="M15 29.5L18 24C18.1562 24.1562 18.75 24.375 19.5 24C20.25 23.625 21.5 23.5 22.5 23.5C22.5 24.125 21.875 26.125 20 28C18.125 29.875 15.9375 29.9688 15 29.5Z" fill="#D0333D"/>
<path d="M15 29.5L18 24C18.1562 24.1562 18.75 24.375 19.5 24C20.25 23.625 21.5 23.5 22.5 23.5C22.5 24.125 21.875 26.125 20 28C18.125 29.875 15.9375 29.9688 15 29.5Z" fill="black" fill-opacity="0.4"/>
</svg>
