<?xml version="1.0" encoding="utf-8"?><svg fill="none" viewBox="0 0 50 50" width="50" height="50" xmlns="http://www.w3.org/2000/svg"><circle cx="24.907" cy="24.907" r="22.417" stroke="#1D8CE0" stroke-width=".996"/><circle cx="24.907" cy="24.907" r="22.417" stroke="#fff" stroke-opacity=".95" stroke-width=".996"/><path d="M40.35 31.881c3.188-7.571 0-16.438-4.981-20.922.996 4.484.298 11.159-2.491 17.934-2.79 6.774-9.133 11.125-11.956 12.453 5.48 1.495 16.24-1.893 19.428-9.464Z" fill="#FEFEFE" fill-opacity=".15"/><path d="M24.893 11.403c-.151-.749-1.28-1.171-2.982-1.963l1.995.441 1.31.787c.213-.06 1.001-.242 1.732-.184.914.072 1.644.39 2.286.564.511.14 1.028-.935 1.172-1.398-.104.415-.319 1.563-.085 1.981.293.522 1.158 1.214 2.14 2.367.786.922 1.775 2.725 2.172 3.511l.931-1.692c-.017.408-.27 1.71-.325 2.473-.07.954.686 3.198.823 3.324.138.126.88-.594 1.903-.115.528.247 1.29 1.71.151 2.195-1.138.486-1.321-.505-1.046-.253.276.252 1.648-.468.821-1.224-.517-.473-.76-.135-1.501.46-.742.593-3.123 6.047-2.968 6.443.155.396.491-.088.752-.418a22.559 22.559 0 0 1 1.484-1.65c-.437.617-.871 1.718-1.115 2.193-.242.469-.932.811-1.707.865-.776.053-1.245 1.184-1.95 2.033-.541.654-1.177 1.25-1.81 1.828l-.434-.705c.337-.348.69-.75.967-1.081.58-.691 1.795-2.112 2.968-4.092.07-.7.212-2.198.226-2.592.014-.394.856-1.76 1.276-2.393-.184.51-.597 1.641-.776 2.087-.18.447-.087 1.363-.018 1.765.35-.612 1.152-2.152 1.553-3.413.5-1.578.26-2.815-.533-5.066-.792-2.25-3.188-5.204-4.963-6.572-1.42-1.095-2.868-.841-3.414-.578-1.018.342 0 2.035-1.105 3.06-.883.82-1.58 1.014-2.155.828.299-.066 1.017-.342 1.5-.918.604-.72.915-1.962.725-2.898Z" fill="#FAA21E"/><path d="M19.362 27.035c.245-.213 3.487 1.402 4.447 1.348.72-.04 1.995.075 2.784.294l.084-.748c-.633-.001-1.214-.15-1.176-.241.045-.11.883-.628 1.297-.873-.671.237-2.205.724-2.973.767-.96.055-3.39-.874-4.277-1.756-.888-.883-1.398-1.92-1.118-2.602.225-.546 1.284-1.095 1.785-1.3-.295.083-1.012.256-1.524.285-.512.03-1.306-.37-1.64-.573-.17-.346-.672-1.175-1.321-1.724a5.39 5.39 0 0 0-1.791-.965l1.729-1.164c-.44.18-1.456.576-2.013.714-.696.172-1.656.227-3.124.376-1.174.12-2.722.665-3.349.923.791-.023 2.53.003 3.164.287.633.284 1.244.774 1.47.983-.188-.3-.544-.955-.454-1.174.112-.273 2.164-.322 3.635.66 1.47.984 2.664 3.781 3.023 4.427.288.517 1.144 3.045 1.536 4.244-.146-.658-.389-2.017-.194-2.188Z" fill="#FAA21E"/><path d="M15 11.5c-.045-1.224.5-2 1-2.5-.894 1.5-.289 4.43.604 5.034.636.431 2.402 1.495 3.396 1.966-.753-1.642-.5-1.966-2-3.5 2 1.5 2.743 2.01 3.347 4.274l6.218 2.789c.363-.17.79-.62.602-1.226-.188-.605-1.07-.343-1.488-.136.131-.166.48-.509.824-.558.43-.062 1.124-.074 1.524.57.4.645-.718 1.86-.418 2.343.3.483 1.335 2.528.847 4.003-.489 1.475-1.33 5.02-.801 5.119.423.08 1.314-1.653 1.707-2.528-.48 1.239-1.468 3.968-1.596 4.97-.127 1 1.842 4.474 2.842 6.085-.898-1.07-2.856-3.696-3.5-5.64-.807-2.429-.389-4.771-.954-5.304-.451-.427-1.357-.302-1.753-.187.67-.301 2.091-1.003 2.407-1.4.394-.495.588-1.313.747-2.565.16-1.252-1.106-2.913-2-3.223-.716-.248-2.852.557-3.831.991.637-.355 1.885-1.184 1.777-1.66-.135-.595-2.454-1.315-3.448-1.786-.995-.471-3.949-2.59-4.543-2.418a1.06 1.06 0 0 0-.724.72 30.432 30.432 0 0 0-.041-1.575c-.035-.434-.703-1.501-.745-2.658ZM36.356 11.277c.33-.464.483-1.487.518-1.94-.658 1.652-1.046 1.711-1.57 2.205-.625.59-2.071 1.456-2.957 1.49-.71.026-1.242-.438-1.42-.674.096.352.214 1.107-.073 1.316-.309.226-.863.26-1.609.488l.907.4c.49-.121 1.051-.278 1.369-.37l1.89 1.466c-.288-.403-.837-1.297-.728-1.645.11-.348 1.096-.651 1.576-.76.244.046.345.809.365 1.185.017-.347.111-1.175.353-1.708.302-.667.966-.873 1.379-1.453Z" fill="#FAA21E"/><path fill-rule="evenodd" clip-rule="evenodd" d="M19.817 14.448c2.803-1.364 6.268-1.566 9.414-.283-.117.037-.24.078-.366.125-.94.352-2.821 1.055-3.126.998-.244-.045-.733-.748-.947-1.094l.118 1.532c-.24.174-.773.698-.991 1.393-.274.869-.185 2.199-.112 3.066.01.126.009.26-.003.396l-.054-.024c-2.135-.966-3.174-1.646-3.933-3.131-.377-.74-.722-1.673-.973-2.44.19-.118.383-.23.58-.336.135.151.247.305.307.448.188.449.695 1.556.925 2.053-.152-.764-.523-2.364-.79-2.65a3.224 3.224 0 0 1-.049-.053Zm4.92 6.369a.71.71 0 0 0-.077.08c2.176.673 5.262.8 7.178.448 1.762-.323 2.595-1.61 2.79-2.213a.824.824 0 0 0 .064-.19 7.102 7.102 0 0 0-.76-1.27 3.57 3.57 0 0 1-.36-.443 12.042 12.042 0 0 0-3.456-2.658c-.277.068-.529.125-.695.15-.582.09-1.41.527-1.576.76-.132.185.52.884.864 1.21-.519-.402-1.634-1.195-1.944-1.147a2.888 2.888 0 0 0-2.071 1.455c-.633 1.131-.267 2.315-.128 2.604.112.23.936.786 1.335 1.035-.24-.067-.81-.124-1.163.179Zm-.44.697a7.5 7.5 0 0 0-.052.115l.498 1.754c-.127-.138-.352-.447-.607-.796a91.056 91.056 0 0 0-.175-.24 10.955 10.955 0 0 0-.456 1.657c-.055.322-.339.856-.686 1.434.31.737.365 1.49.037 2.014-.225.36-.544.633-.92.825.448.066 1.03.091 1.394.095-1.172.112-3.65.376-4.18.54-.11.034-.279.077-.489.131-.694.177-1.842.47-2.835.939a3.5 3.5 0 0 0 .2.888c.503 1.378 2.406 1.193 2.406 1.193s.65 3.693 1.925 5.025c1.444 1.508 7.7 1.508 9.144 0 .861-.899 1.926-5.025 1.926-5.025s1.454 0 2.286-1.193c.48-.691.12-2.324.12-2.324s2.478-4.53 1.22-8.656c-.157.21-.34.427-.541.616-.502.473-1.026.78-1.495 1.056-.176.103-.343.2-.499.301-.455.295-.06 1.442.164 1.875-.219-.369-.876-1.336-1.333-1.448-.313-.077-.78-.058-1.385-.034-.5.02-1.096.044-1.774.02-1.155-.04-3.018-.509-3.893-.762Zm-1.513 2.291c-.042.246-.164.573-.34.934-.572-.872-1.475-1.6-2.469-1.721-2.376-.29-3.826 3.038-2.427 4.485.322.333.723.596 1.163.782-.425.076-.798.028-1.06-.175-.445-.345-.709-1.51-.785-2.05.01.308.01 1.052-.076 1.562-.087.51-.623 1.198-.88 1.479a2.816 2.816 0 0 0-.049.013c.064-.357.165-.568.165-.568s-3.37-7.035.481-11.558a9.882 9.882 0 0 1 1.74-1.602c.6 1.59 1.15 3.33 1.098 3.837-.014.13-.024.25-.033.362-.063.727-.091 1.052-.693 1.11-1.11.105-.657-1.45-.287-1.484.37-.035-.455-.588-.91.624-.453 1.211 1.107 1.65 1.65 1.418.725-.31.956-.916 1.09-1.268.06-.158.1-.265.158-.27.151-.015 1.59.645 2.448 1.28.064.795.13 2.135.016 2.81Zm.448-2.4c.09.103.186.223.286.352-.113.282-.225.461-.27.426-.07-.054-.263-.654-.406-1.132.158.122.293.241.39.354Zm-2.66 11.286h.554v1.661H24.45v-1.661h1.108v1.661H28.88v-1.661h.553v-1.108h-1.661V33.245h-1.108V31.583H23.341V33.245h-1.107V31.583H20.572v1.108Zm9.732-9.505c2.347-.328 3.72 2.851 2.315 4.276-1.404 1.426-4.27 1.593-5.232.062-.805-1.279.89-4.054 2.916-4.338Zm-5.133 4.355c.482.503.963 2.513.963 2.513s-.883-.335-.963-.503c-.24.335-.962.503-.962.503s.481-1.843.962-2.513Z" fill="#1D8CE0"/><path fill-rule="evenodd" clip-rule="evenodd" d="M19.817 14.448c2.803-1.364 6.268-1.566 9.414-.283-.117.037-.24.078-.366.125-.94.352-2.821 1.055-3.126.998-.244-.045-.733-.748-.947-1.094l.118 1.532c-.24.174-.773.698-.991 1.393-.274.869-.185 2.199-.112 3.066.01.126.009.26-.003.396l-.054-.024c-2.135-.966-3.174-1.646-3.933-3.131-.377-.74-.722-1.673-.973-2.44.19-.118.383-.23.58-.336.135.151.247.305.307.448.188.449.695 1.556.925 2.053-.152-.764-.523-2.364-.79-2.65a3.224 3.224 0 0 1-.049-.053Zm4.92 6.369a.71.71 0 0 0-.077.08c2.176.673 5.262.8 7.178.448 1.762-.323 2.595-1.61 2.79-2.213a.824.824 0 0 0 .064-.19 7.102 7.102 0 0 0-.76-1.27 3.57 3.57 0 0 1-.36-.443 12.042 12.042 0 0 0-3.456-2.658c-.277.068-.529.125-.695.15-.582.09-1.41.527-1.576.76-.132.185.52.884.864 1.21-.519-.402-1.634-1.195-1.944-1.147a2.888 2.888 0 0 0-2.071 1.455c-.633 1.131-.267 2.315-.128 2.604.112.23.936.786 1.335 1.035-.24-.067-.81-.124-1.163.179Zm-.44.697a7.5 7.5 0 0 0-.052.115l.498 1.754c-.127-.138-.352-.447-.607-.796a91.056 91.056 0 0 0-.175-.24 10.955 10.955 0 0 0-.456 1.657c-.055.322-.339.856-.686 1.434.31.737.365 1.49.037 2.014-.225.36-.544.633-.92.825.448.066 1.03.091 1.394.095-1.172.112-3.65.376-4.18.54-.11.034-.279.077-.489.131-.694.177-1.842.47-2.835.939a3.5 3.5 0 0 0 .2.888c.503 1.378 2.406 1.193 2.406 1.193s.65 3.693 1.925 5.025c1.444 1.508 7.7 1.508 9.144 0 .861-.899 1.926-5.025 1.926-5.025s1.454 0 2.286-1.193c.48-.691.12-2.324.12-2.324s2.478-4.53 1.22-8.656c-.157.21-.34.427-.541.616-.502.473-1.026.78-1.495 1.056-.176.103-.343.2-.499.301-.455.295-.06 1.442.164 1.875-.219-.369-.876-1.336-1.333-1.448-.313-.077-.78-.058-1.385-.034-.5.02-1.096.044-1.774.02-1.155-.04-3.018-.509-3.893-.762Zm-1.513 2.291c-.042.246-.164.573-.34.934-.572-.872-1.475-1.6-2.469-1.721-2.376-.29-3.826 3.038-2.427 4.485.322.333.723.596 1.163.782-.425.076-.798.028-1.06-.175-.445-.345-.709-1.51-.785-2.05.01.308.01 1.052-.076 1.562-.087.51-.623 1.198-.88 1.479a2.816 2.816 0 0 0-.049.013c.064-.357.165-.568.165-.568s-3.37-7.035.481-11.558a9.882 9.882 0 0 1 1.74-1.602c.6 1.59 1.15 3.33 1.098 3.837-.014.13-.024.25-.033.362-.063.727-.091 1.052-.693 1.11-1.11.105-.657-1.45-.287-1.484.37-.035-.455-.588-.91.624-.453 1.211 1.107 1.65 1.65 1.418.725-.31.956-.916 1.09-1.268.06-.158.1-.265.158-.27.151-.015 1.59.645 2.448 1.28.064.795.13 2.135.016 2.81Zm.448-2.4c.09.103.186.223.286.352-.113.282-.225.461-.27.426-.07-.054-.263-.654-.406-1.132.158.122.293.241.39.354Zm-2.66 11.286h.554v1.661H24.45v-1.661h1.108v1.661H28.88v-1.661h.553v-1.108h-1.661V33.245h-1.108V31.583H23.341V33.245h-1.107V31.583H20.572v1.108Zm9.732-9.505c2.347-.328 3.72 2.851 2.315 4.276-1.404 1.426-4.27 1.593-5.232.062-.805-1.279.89-4.054 2.916-4.338Zm-5.133 4.355c.482.503.963 2.513.963 2.513s-.883-.335-.963-.503c-.24.335-.962.503-.962.503s.481-1.843.962-2.513Z" fill="#fff" fill-opacity=".4"/><path d="M25.776 32.143c1 .5 1.6 1.54 1.724 1.857.096.244.6-.174 1.142-.734l.215.905-.003.002c-2.113 1.925-4.063 3.702-2.19 6.825C23.5 38.5 26.141 35.893 26.5 35c.359-.893-.563-2.625-.724-2.857ZM39.197 38.84c.528.236 1.55.156 1.996.086-1.752-.3-1.904-.692-2.507-1.124-.72-.516-1.906-1.824-2.153-2.743-.198-.735.12-1.4.304-1.642-.316.182-1.015.483-1.287.231-.34-.313-.51-1.037-1.078-1.937-.567-.901-1.701-2.702-1.72-3.034-.017-.266.543-.942.824-1.247l-1.448.482c-.227-.21-.86-.644-1.583-.71-.893-.08-2.133.313-2.952.592.263.244.41.38.848.566.386-.265 1.324-.72 2.407-.375 1.244.396 1.755 1.433 1.906 1.824.121.313-.372 1.665-.634 2.301.231-.435.746-1.281.957-1.187.264.119.887.883 1.114 1.47.182.47.758 1.578 1.023 2.074l-.955 2.32c.32-.396 1.048-1.18 1.41-1.146.36.033.893.993 1.114 1.47.016.265-.695.55-1.053.658.339-.063 1.16-.158 1.732-.031.716.16 1.075.805 1.735 1.101ZM23.328 28.373c-.628-.007-1.912-.078-2.024-.309-.075-.157 1.06-1.899 1.656-2.843l-.527-.542-.01.015c-.498.766-1.673 2.575-2.173 2.912-.994.67-2.046.935-2.602.504-.445-.345-.708-1.51-.784-2.05.01.309.01 1.053-.077 1.563-.086.509-.622 1.198-.88 1.479-.35.088-1.211.393-1.852.905-.64.512-1.111 1.24-1.267 1.539l-.673-1.964c.066.472.2 1.561.203 2.14.003.722-.16 1.678-.347 3.154-.15 1.18.003 2.824.098 3.499.154-.782.56-2.484.957-3.042.396-.557.974-1.045 1.213-1.22-.313.117-.985.317-1.162.179-.223-.172.184-2.199 1.398-3.42 1.213-1.22 4.008-1.753 4.672-1.96.532-.163 3.009-.428 4.18-.54Z" fill="#FAA21E"/><path d="M14.446 8.967c-2.84 2.501-3.985 5.977-3.985 8.966.486-2.06 3.582-6.233 6.476-7.97 2.463-1.478 4.483-2.989 7.97-3.487-3.487-.498-7.62-.01-10.46 2.49ZM33.874 39.852c3.487-1.993 6.974-6.974 6.974-9.963-.74 2.989-4.685 6.815-7.472 8.469-3.052 1.81-8.967 3.486-12.454 3.486 3.487.997 8.967.285 12.952-1.992Z" fill="#FEFEFE"/></svg>