<?xml version="1.0" encoding="utf-8"?><svg fill="none" viewBox="0 0 50 50" width="50" height="50" xmlns="http://www.w3.org/2000/svg"><g clip-path="url(#asoa)"><path d="m28.406 2.252 15.764 8.183-.079 16.215-15.843 8.03-15.764-8.183.079-16.215 15.843-8.03Z" fill="#C57A09"/><path d="m28.416.088 15.767 7.67-.074 15.187-15.84 7.517-15.767-7.67.073-15.187L28.416.088Z" fill="#FAA21E"/><path d="m28.416.088 15.767 7.67-.074 15.187-15.84 7.517-15.767-7.67.073-15.187L28.416.088Z" fill="#fff" fill-opacity=".2"/><path d="M28.404 2.458 41.711 8.93 41.65 21.75 28.28 28.093l-13.307-6.474.062-12.817 13.37-6.344Z" fill="#1D8CE0"/><path d="M28.404 2.458 41.711 8.93 41.65 21.75 28.28 28.093l-13.307-6.474.062-12.817 13.37-6.344Z" fill="#fff" fill-opacity=".2"/><path d="m28.4 30.457-15.847-7.584-.05 3.796L28.4 34.7v-4.243Z" fill="#FAA21E"/><path d="m28.4 30.457-15.847-7.584-.05 3.796L28.4 34.7v-4.243Z" fill="#000" fill-opacity=".4"/><path d="M15 12V9.5L40.5 22l-.5 2-25-12Z" fill="#1D8CE0"/><path d="M15 12V9.5L40.5 22l-.5 2-25-12Z" fill="#000" fill-opacity=".4"/><path d="M29 4.5V2l12 6-.5 2L29 4.5Z" fill="#1D8CE0"/><path d="M29 4.5V2l12 6-.5 2L29 4.5Z" fill="#000" fill-opacity=".4"/><path d="M17.668 9.646 16 8l11.868-5.536.99 1.739-11.19 5.443Z" fill="#1D8CE0"/><path d="M17.668 9.646 16 8l11.868-5.536.99 1.739-11.19 5.443Z" fill="#000" fill-opacity=".2"/><path d="m16.602 23.91-1.982-1.59 13.105-5.995L29 18l-12.398 5.91Z" fill="#1D8CE0"/><path d="m16.602 23.91-1.982-1.59 13.105-5.995L29 18l-12.398 5.91Z" fill="#000" fill-opacity=".2"/><path d="m31.018 17.03-1.848-1.416L42 9.5l1.142 1.5-12.124 6.03Z" fill="#1D8CE0"/><path d="m31.018 17.03-1.848-1.416L42 9.5l1.142 1.5-12.124 6.03Z" fill="#000" fill-opacity=".2"/><path fill-rule="evenodd" clip-rule="evenodd" d="M44.183 7.758 28.416.088l-15.84 7.517-.074 15.187 15.767 7.67 15.84-7.517.074-15.187ZM41.71 8.931 28.404 2.458 15.035 8.802l-.062 12.817 13.307 6.474 13.37-6.345.061-12.817Z" fill="#FAA21E"/><path fill-rule="evenodd" clip-rule="evenodd" d="M44.183 7.758 28.416.088l-15.84 7.517-.074 15.187 15.767 7.67 15.84-7.517.074-15.187ZM41.71 8.931 28.404 2.458 15.035 8.802l-.062 12.817 13.307 6.474 13.37-6.345.061-12.817Z" fill="#fff" fill-opacity=".2"/><path d="M28.3 2v27M14.5 8.5 42 22m-28 0L42.5 8.5" stroke="#FAA21E" stroke-width="2"/><path d="M28.3 2v27M14.5 8.5 42 22m-28 0L42.5 8.5" stroke="#fff" stroke-opacity=".2" stroke-width="2"/><path d="M23 30.75 17.5 28 5 46.5 6 50l5.5-.75L23 30.75Z" fill="#C57A09"/><path d="M23 28.75 17.5 26 5 44.5 6 48l5.5-.75L23 28.75Z" fill="#FAA21E"/><path d="M23 28.75 17.5 26 5 44.5 6 48l5.5-.75L23 28.75Z" fill="#fff" fill-opacity=".2"/><path d="M21.5 28 19 26.75 7.693 43.314 8 45l2.254-.073L21.5 28Z" fill="#FAA21E"/><path d="M21.5 28 19 26.75 7.693 43.314 8 45l2.254-.073L21.5 28Z" fill="#000" fill-opacity=".1"/><path d="M11.5 49.233v-1.968l11.5-18.5v1.968l-11.5 18.5Z" fill="#FAA21E"/><path d="M11.5 49.233v-1.968l11.5-18.5v1.968l-11.5 18.5Z" fill="#000" fill-opacity=".1"/><path d="M6 50v-2l-1-3.5v2L6 50Z" fill="#FAA21E"/><path d="M6 50v-2l-1-3.5v2L6 50Z" fill="#000" fill-opacity=".1"/><path d="M20.033 42.133 17.7 37l-4.2 7 6.533-1.867Z" fill="#FAA21E"/><path d="M20.033 42.133 17.7 37l-4.2 7 6.533-1.867Z" fill="#fff" fill-opacity=".2"/><path d="M13.5 46v-2l6.5-2v2l-6.5 2Z" fill="#C57A09"/></g><defs><clipPath id="asoa"><path fill="#fff" d="M0 0h50v50H0z"/></clipPath></defs></svg>