<?xml version="1.0" encoding="utf-8"?><svg fill="none" viewBox="0 0 50 50" width="50" height="50" xmlns="http://www.w3.org/2000/svg"><path d="m29 27.654-25-8.5.5 15 24.5 10v-16.5ZM46 21.154l-17 6.5v16.5l16.5-8.5.5-14.5Z" fill="#1D8CE0"/><path d="m46 21.154-17 6.5v16.5l16.5-8.5.5-14.5Z" fill="#fff" fill-opacity=".2"/><path d="m46 21.154-17 6.5v16.5l16.5-8.5.5-14.5Z" fill="#1D8CE0"/><path d="m46 21.154-17 6.5v16.5l16.5-8.5.5-14.5Z" fill="#fff" fill-opacity=".2"/><path d="m44.5 27-13 5.83v8.618l12.618-6.5L44.5 27Z" fill="#FAA21E"/><path d="m44.5 27-13 5.83v8.618l12.618-6.5L44.5 27Z" fill="#fff" fill-opacity=".2"/><path d="M4 19.154c.5-2.5 1.5-5.5 4.5-9.5 2.546-3.394 6.5-4 8-3.5l24.766 6.313c.282.032.53.096.734.187l-.734-.187c-1.79-.203-5.002.887-7.766 4.687-3.2 4.4-3.833 8.5-4.5 10.5l-25-8.5Z" fill="#1D8CE0"/><path d="m29.01 27.625-.01.05 17-6.5-.005-.033c-.501-3.51-1.478-10.347-7.495-8.467-6.82 2.131-8.651 10.926-9.49 14.95Z" fill="#1D8CE0"/><path d="m29.01 27.625-.01.05 17-6.5-.005-.033c-.501-3.51-1.478-10.347-7.495-8.467-6.82 2.131-8.651 10.926-9.49 14.95Z" fill="#fff" fill-opacity=".2"/><path d="m31.508 26.337-.008.038 13.005-4.972-.003-.026c-.384-2.686-1.13-7.916-5.734-6.477-5.217 1.63-6.619 8.359-7.26 11.437Z" fill="#FAA21E"/><path d="m31.508 26.337-.008.038 13.005-4.972-.003-.026c-.384-2.686-1.13-7.916-5.734-6.477-5.217 1.63-6.619 8.359-7.26 11.437Z" fill="#fff" fill-opacity=".2"/><path d="M4 21.154v-2l25 8.5v2.5l-25-9Z" fill="#1D8CE0"/><path d="M20.5 24.654v16l1.5.656V25.154c.5-2.333 1.797-7.121 4.5-10.5 2-2.5 6.167-3.967 7.5-3.8l-2.5-.7c-1.167 0-4.1.7-6.5 3.5-2.4 2.8-4 8.167-4.5 11Z" fill="#FAA21E"/><path d="M20.5 24.654v16l1.5.656V25.154c.5-2.333 1.797-7.121 4.5-10.5 2-2.5 6.167-3.967 7.5-3.8l-2.5-.7c-1.167 0-4.1.7-6.5 3.5-2.4 2.8-4 8.167-4.5 11Z" fill="#fff" fill-opacity=".2"/><path d="M8.5 20.654V35.81l1.5.578V21.154c.5-2.333 1.797-6.121 4.5-9.5 2-2.5 6.167-3.967 7.5-3.8l-2.5-.7c-1.167 0-4.1.7-6.5 3.5-2.4 2.8-4 7.167-4.5 10Z" fill="#FAA21E"/><path d="M8.5 20.654V35.81l1.5.578V21.154c.5-2.333 1.797-6.121 4.5-9.5 2-2.5 6.167-3.967 7.5-3.8l-2.5-.7c-1.167 0-4.1.7-6.5 3.5-2.4 2.8-4 7.167-4.5 10Z" fill="#fff" fill-opacity=".2"/><path d="M4.1 22.154 4 21l25 9v1.154l-24.9-9Z" fill="#1D8CE0"/><path d="M4.1 22.154 4 21l25 9v1.154l-24.9-9Z" fill="#000" fill-opacity=".4"/><path d="M29 30.154v-2.5l17-6.5v2l-17 7Z" fill="#1D8CE0"/><path d="M29 30.154v-2.5l17-6.5v2l-17 7Z" fill="#fff" fill-opacity=".2"/><path d="M29 31.154v-2.5l17-6.5-.1 2.346L29 31.154Z" fill="#1D8CE0"/><path d="M29 31.154v-2.5l17-6.5-.1 2.346L29 31.154Z" fill="#000" fill-opacity=".4"/><path d="M29 30.154v-2.5l17-6.5v2l-17 7Z" fill="#1D8CE0"/><path d="M29 30.154v-2.5l17-6.5v2l-17 7Z" fill="#fff" fill-opacity=".2"/><path d="M17.5 27 12 25v6.5c.5.667 1 2 2.5 2.5 1.06.354 2.333-.333 3-.5V27Z" fill="#FAA21E"/><path d="M17.5 27 12 25v6.5c.5.667 1 2 2.5 2.5 1.06.354 2.333-.333 3-.5V27Z" fill="#fff" fill-opacity=".2"/><ellipse cx="14.5" cy="28.5" rx="1.5" ry="1" transform="rotate(90 14.5 28.5)" fill="#FAA21E"/><ellipse cx="14.5" cy="28.5" rx="1.5" ry="1" transform="rotate(90 14.5 28.5)" fill="#000" fill-opacity=".4"/><path d="M14 30.5a.5.5 0 0 0 1 0h-1Zm0-1.5v1.5h1V29h-1Z" fill="#FAA21E"/><path d="M14 30.5a.5.5 0 0 0 1 0h-1Zm0-1.5v1.5h1V29h-1Z" fill="#000" fill-opacity=".4"/></svg>