<?xml version="1.0" encoding="utf-8"?><svg fill="none" viewBox="0 0 50 50" width="50" height="50" xmlns="http://www.w3.org/2000/svg"><g clip-path="url(#assa)"><path d="M18.955 46.307c-4.858-.74-9.717-3.951-12.201-8.253l-2.208-3.825L15 28.193S19.5 35 28.5 30.5 33 17.801 33 17.801l10.586-6.112 2.208 3.825c3.036 5.258 2.333 11.4 1.047 14.693-1.93 4.938-4.979 9.248-10.785 12.6-6.772 3.91-11.86 4.298-17.101 3.5Z" fill="#1D8CE0"/><path d="M18.955 46.307c-4.858-.74-9.717-3.951-12.201-8.253l-2.208-3.825L15 28.193S19.5 35 28.5 30.5 33 17.801 33 17.801l10.586-6.112 2.208 3.825c3.036 5.258 2.333 11.4 1.047 14.693-1.93 4.938-4.979 9.248-10.785 12.6-6.772 3.91-11.86 4.298-17.101 3.5Z" fill="#000" fill-opacity=".2"/><path fill-rule="evenodd" clip-rule="evenodd" d="M4.317 33.503c5.077 8.799 17.901 10.907 28.643 4.71 10.742-6.198 15.335-18.354 10.258-27.152C38.14 2.262 25.317.154 14.575 6.35 3.833 12.55-.76 24.705 4.317 33.503ZM32.31 21.6l-3.701-6.411-13.545 7.82 3.701 6.41 13.545-7.82Z" fill="#1D8CE0"/><path fill-rule="evenodd" clip-rule="evenodd" d="M4.317 33.503c5.077 8.799 17.901 10.907 28.643 4.71 10.742-6.198 15.335-18.354 10.258-27.152C38.14 2.262 25.317.154 14.575 6.35 3.833 12.55-.76 24.705 4.317 33.503ZM32.31 21.6l-3.701-6.411-13.545 7.82 3.701 6.41 13.545-7.82Z" fill="#fff" fill-opacity=".2"/><path fill-rule="evenodd" clip-rule="evenodd" d="M6.894 30.515c3.928 6.808 14.389 8.13 23.364 2.952 8.975-5.178 13.066-14.895 9.138-21.703-3.929-6.808-14.39-8.13-23.365-2.952C7.056 13.99 2.965 23.707 6.894 30.515Zm25.416-8.916-3.701-6.411-13.545 7.82 3.702 6.41 13.544-7.82Z" fill="#FAA21E"/><path fill-rule="evenodd" clip-rule="evenodd" d="M6.894 30.515c3.928 6.808 14.389 8.13 23.364 2.952 8.975-5.178 13.066-14.895 9.138-21.703-3.929-6.808-14.39-8.13-23.365-2.952C7.056 13.99 2.965 23.707 6.894 30.515Zm25.416-8.916-3.701-6.411-13.545 7.82 3.702 6.41 13.544-7.82Z" fill="#fff" fill-opacity=".2"/><path fill-rule="evenodd" clip-rule="evenodd" d="m27.435 3.609-5.966 14.716-15.081-2.048-.495 3.646 11.75 1.596 8.489-4.901 4.713-11.627-3.41-1.382Zm3.746 16.035 12.467 1.693-.495 3.646-13.524-1.836 2.681-1.548-1.129-1.955Zm-9.574 8.134-4.562 11.253-3.41-1.382 4.077-10.056 1.054 1.826 2.841-1.64Z" fill="#1D8CE0"/><path fill-rule="evenodd" clip-rule="evenodd" d="m27.435 3.609-5.966 14.716-15.081-2.048-.495 3.646 11.75 1.596 8.489-4.901 4.713-11.627-3.41-1.382Zm3.746 16.035 12.467 1.693-.495 3.646-13.524-1.836 2.681-1.548-1.129-1.955Zm-9.574 8.134-4.562 11.253-3.41-1.382 4.077-10.056 1.054 1.826 2.841-1.64Z" fill="#fff" fill-opacity=".2"/><path stroke="#1D8CE0" stroke-width="2.76" d="m26.835 9.356 7.36 12.748-15.935 9.2-7.36-12.748z"/><path stroke="#fff" stroke-opacity=".2" stroke-width="2.76" d="m26.835 9.356 7.36 12.748-15.935 9.2-7.36-12.748z"/><path d="m26.33 11.241 2.3 3.984-13.545 7.82-2.3-3.984 13.545-7.82Z" fill="#1D8CE0"/><path d="m26.33 11.241 2.3 3.984-13.545 7.82-2.3-3.984 13.545-7.82Z" fill="#000" fill-opacity=".2"/></g><defs><clipPath id="assa"><path fill="#fff" transform="matrix(-1 0 0 1 50 0)" d="M0 0h50v50H0z"/></clipPath></defs></svg>