<?xml version="1.0" encoding="utf-8"?><svg fill="none" viewBox="0 0 50 50" width="50" height="50" xmlns="http://www.w3.org/2000/svg"><g clip-path="url(#asqa)"><path fill-rule="evenodd" clip-rule="evenodd" d="M42.065 17.726C45.132 12.414 43.5 5.73 38.421 2.798 33.34-.134 26.738 1.794 23.67 7.106c-3.066 5.311-1.435 11.995 3.645 14.927 5.079 2.933 11.683 1.004 14.75-4.307ZM36.2 6.646c-3.233-1.867-7.345-.796-9.185 2.39-1.84 3.188-.71 7.284 2.522 9.15 3.232 1.866 7.344.796 9.184-2.391 1.84-3.187.711-7.284-2.521-9.15Z" fill="#FAA21E"/><path fill-rule="evenodd" clip-rule="evenodd" d="M42.065 17.726C45.132 12.414 43.5 5.73 38.421 2.798 33.34-.134 26.738 1.794 23.67 7.106c-3.066 5.311-1.435 11.995 3.645 14.927 5.079 2.933 11.683 1.004 14.75-4.307ZM36.2 6.646c-3.233-1.867-7.345-.796-9.185 2.39-1.84 3.188-.71 7.284 2.522 9.15 3.232 1.866 7.344.796 9.184-2.391 1.84-3.187.711-7.284-2.521-9.15Z" fill="#fff" fill-opacity=".2"/><path fill-rule="evenodd" clip-rule="evenodd" d="M26.503 19 13.732 41.12 9.18 42.338l2.032 7.585 7.585-2.033-1.22-4.55L30.35 21.22l-3.847-2.222ZM15.1 43.19l-3.034.813.813 3.034 3.034-.813-.813-3.034Z" fill="#FAA21E"/><path fill-rule="evenodd" clip-rule="evenodd" d="M26.503 19 13.732 41.12 9.18 42.338l2.032 7.585 7.585-2.033-1.22-4.55L30.35 21.22l-3.847-2.222ZM15.1 43.19l-3.034.813.813 3.034 3.034-.813-.813-3.034Z" fill="#000" fill-opacity=".1"/><path fill="#FAA21E" d="m12.793 29.037 1.15 4.29-4.29 1.15-1.15-4.29z"/><path fill="#fff" fill-opacity=".2" d="m12.793 29.037 1.15 4.29-4.29 1.15-1.15-4.29z"/><path fill="#FAA21E" d="m28.181 37.92 1.15 4.291-4.29 1.15-1.15-4.29z"/><path fill="#fff" fill-opacity=".2" d="m28.181 37.92 1.15 4.291-4.29 1.15-1.15-4.29z"/><path d="M24.03 10.34c-.373 3.063.47 6.66 5.47 7.66-2.5-1.5-4-4-3-7.5C27 8 29 6.5 31 6s4 0 4.5.5c0-1-4-2-5.5-2s-5.505 2.009-5.97 5.84Z" fill="#FAA21E"/><path d="M24.03 10.34c-.373 3.063.47 6.66 5.47 7.66-2.5-1.5-4-4-3-7.5C27 8 29 6.5 31 6s4 0 4.5.5c0-1-4-2-5.5-2s-5.505 2.009-5.97 5.84Z" fill="#000" fill-opacity=".1"/><path d="m12.804 29.035-2.015-.967.641 3.257 2.545 2.036-1.17-4.326Z" fill="#FAA21E"/><path d="m12.804 29.035-2.015-.967.641 3.257 2.545 2.036-1.17-4.326Z" fill="#000" fill-opacity=".1"/><path d="m9.649 34.48-2.005-.997 2.768-1.14 1.527 1.527-2.29.61Z" fill="#FAA21E"/><path d="m9.649 34.48-2.005-.997 2.768-1.14 1.527 1.527-2.29.61Z" fill="#fff" fill-opacity=".2"/><path d="m29.446 22.979-2.748-1.324L15.5 42.318l2.087 1.069 11.858-20.408ZM27.716 40.995l-4.682 1.374 2.005.997 4.204-1.353-1.527-1.018Z" fill="#FAA21E"/><path d="m27.716 40.995-4.682 1.374 2.005.997 4.204-1.353-1.527-1.018Z" fill="#fff" fill-opacity=".4"/><path d="m28.225 37.941-2.036-1.018 1.018 4.224 2.137 1.07-1.12-4.276Z" fill="#FAA21E"/><path d="m28.225 37.941-2.036-1.018 1.018 4.224 2.137 1.07-1.12-4.276Z" fill="#000" fill-opacity=".1"/><path d="M12.092 43.997 9.903 42.93l1.018 3.664 2.036.509-.865-3.105Z" fill="#FAA21E"/><path d="M12.092 43.997 9.903 42.93l1.018 3.664 2.036.509-.865-3.105Z" fill="#000" fill-opacity=".1"/><path d="m11.216 49.921-2.025-.987 7.329-2.188 2.28 1.15-7.584 2.025Z" fill="#FAA21E"/><path d="m11.216 49.921-2.025-.987 7.329-2.188 2.28 1.15-7.584 2.025Z" fill="#fff" fill-opacity=".4"/><path fill-rule="evenodd" clip-rule="evenodd" d="m24.494 18.009-12.77 22.12-4.552 1.219 2.019 7.585 7.599-2.032-1.22-4.551 12.771-22.12-3.847-2.221ZM13.091 42.2l-3.034.813.813 3.034 3.034-.813-.813-3.034Z" fill="#1D8CE0"/><path d="m9.765 31.304 13.945 8.052" stroke="#1D8CE0" stroke-width="2.221"/><path fill="#1D8CE0" d="m10.785 28.046 1.15 4.29-4.29 1.15-1.15-4.29zM26.189 36.93l1.134 4.291-4.291 1.15-1.15-4.29 4.307-1.15Z"/><path fill-rule="evenodd" clip-rule="evenodd" d="M40.062 16.738c3.067-5.311 1.433-11.996-3.65-14.93C31.33-1.126 24.724.8 21.657 6.112c-3.066 5.312-1.432 11.996 3.65 14.93 5.082 2.935 11.688 1.008 14.755-4.304Zm-5.87-11.083c-3.235-1.868-7.349-.798-9.189 2.389-1.84 3.187-.71 7.284 2.525 9.151 3.234 1.868 7.348.798 9.188-2.389 1.84-3.187.71-7.284-2.525-9.151Z" fill="#1D8CE0"/><path fill-rule="evenodd" clip-rule="evenodd" d="M40.062 16.738c3.067-5.311 1.433-11.996-3.65-14.93C31.33-1.126 24.724.8 21.657 6.112c-3.066 5.312-1.432 11.996 3.65 14.93 5.082 2.935 11.688 1.008 14.755-4.304Zm-5.87-11.083c-3.235-1.868-7.349-.798-9.189 2.389-1.84 3.187-.71 7.284 2.525 9.151 3.234 1.868 7.348.798 9.188-2.389 1.84-3.187.71-7.284-2.525-9.151Z" fill="#fff" fill-opacity=".2"/></g><defs><clipPath id="asqa"><path fill="#fff" transform="matrix(-1 0 0 1 50 0)" d="M0 0h50v50H0z"/></clipPath></defs></svg>