<?xml version="1.0" encoding="utf-8"?><svg fill="none" viewBox="0 0 50 50" xmlns="http://www.w3.org/2000/svg" width="50" height="50"><g clip-path="url(#axca)"><path d="M11 27 7 5l8 18-1 5-3-1Z" fill="#C57A09"/><path d="M32 11 7 5l16 7 9-1Z" fill="#FAA21E"/><path d="M32 11 7 5l16 7 9-1Z" fill="#fff" fill-opacity=".4"/><path d="m23 12 1 9 19 24-11-34-9 1Z" fill="#1D8CE0"/><path d="m23 12 1 9 19 24-11-34-9 1Z" fill="#fff" fill-opacity=".2"/><path d="m24 21-9 2-1 5 29 17-19-24Z" fill="#1D8CE0"/><path d="m11 27 3 1 29 17-27.973-11.911L11 27Z" fill="#1D8CE0"/><path d="m11 27 3 1 29 17-27.973-11.911L11 27Z" fill="#000" fill-opacity=".2"/><path d="M23 12 7 5l8 18 9-2-1-9Z" fill="#FAA21E"/></g><defs><clipPath id="axca"><path fill="#fff" transform="matrix(-1 0 0 1 50 0)" d="M0 0h50v50H0z"/></clipPath></defs></svg>