<svg width="50" height="50" viewBox="0 0 50 50" fill="none" xmlns="http://www.w3.org/2000/svg">
<g clip-path="url(#clip0_1314_7971)">
<path d="M39.7615 4.07532C36.7856 5.72051 33.5959 7.32465 31.2742 10.7579L32.5696 12.6692C34.1517 10.2022 37.2418 7.10061 41.1595 5.45211C44.7768 3.93008 48.374 4.43611 49.6895 4.31928L47.4277 1.66833C46.2904 1.81938 42.7373 2.43014 39.7615 4.07532Z" fill="#2FC4A7"/>
<path d="M39.7615 4.07532C36.7856 5.72051 33.5959 7.32465 31.2742 10.7579L32.5696 12.6692C34.1517 10.2022 37.2418 7.10061 41.1595 5.45211C44.7768 3.93008 48.374 4.43611 49.6895 4.31928L47.4277 1.66833C46.2904 1.81938 42.7373 2.43014 39.7615 4.07532Z" fill="black" fill-opacity="0.2"/>
<path d="M38.0814 30.5455C39.7142 24.6316 39.578 16.3424 34.2715 12.2662C28.965 8.18988 21.7533 8.50267 16.8549 10.1157C11.0822 12.0166 3.79253 16.5672 1.07119 25.7068C-1.65015 34.8465 1.47933 41.6109 3.11214 42.6861C4.41838 43.5463 5.83344 43.0445 6.37769 42.6861C6.19627 43.403 6.15998 45.0517 7.46622 45.9119C9.09902 46.9871 12.0927 48.6306 20.1205 47.7495C28.9649 46.7788 36.4486 36.4594 38.0814 30.5455Z" fill="#546DDB"/>
<path d="M38.0814 30.5455C39.7142 24.6316 39.578 16.3424 34.2715 12.2662C28.965 8.18988 21.7533 8.50267 16.8549 10.1157C11.0822 12.0166 3.79253 16.5672 1.07119 25.7068C-1.65015 34.8465 1.47933 41.6109 3.11214 42.6861C4.41838 43.5463 5.83344 43.0445 6.37769 42.6861C6.19627 43.403 6.15998 45.0517 7.46622 45.9119C9.09902 46.9871 12.0927 48.6306 20.1205 47.7495C28.9649 46.7788 36.4486 36.4594 38.0814 30.5455Z" fill="white" fill-opacity="0.2"/>
<path d="M11.0609 24.1429C7.58753 28.7976 6.70219 35.5714 7.08121 39C7.64974 36.1429 9.26156 31.7128 12.7665 26.4286C16.1777 21.2857 21.2944 16.7143 23 15C19.8 16.0909 14.4721 19.5714 11.0609 24.1429Z" fill="#546DDB"/>
<path d="M45.3306 17.34C44.0991 12.3012 39.6297 7.46599 37.9155 7.46854C37.4119 9.95411 35.6986 13.5774 37.0108 19.184C38.3231 24.7906 42.8912 29.7723 44.3819 34.2722C45.5755 29.8357 46.562 22.3788 45.3306 17.34Z" fill="#2FC4A7"/>
<path d="M45.3306 17.34C44.0991 12.3012 39.6297 7.46599 37.9155 7.46854C37.4119 9.95411 35.6986 13.5774 37.0108 19.184C38.3231 24.7906 42.8912 29.7723 44.3819 34.2722C45.5755 29.8357 46.562 22.3788 45.3306 17.34Z" fill="black" fill-opacity="0.2"/>
</g>
<defs>
<clipPath id="clip0_1314_7971">
<rect width="50" height="50" fill="white"/>
</clipPath>
</defs>
</svg>
