<svg width="50" height="50" viewBox="0 0 50 50" fill="none" xmlns="http://www.w3.org/2000/svg">
<rect x="4" y="4" width="42" height="2" fill="#FEFEFE"/>
<path d="M44 7H6L8 41C8 41.5132 8.5 42.5789 9 43C9.85519 43.7202 10.8311 44 11 44C14.04 44.6842 19 46 25 46C31 46 35.2978 44.6316 38 43.9474C38.3378 43.7763 39.3049 43.5853 40 43C40.5 42.5789 41 42.1316 41 41L44 7Z" fill="#FEFEFE"/>
<rect x="6" y="6" width="38" height="2" fill="#898989"/>
<rect x="6" y="6" width="38" height="2" fill="white" fill-opacity="0.6"/>
<g clip-path="url(#clip0_1337_8205)">
<path d="M32.676 16.1191C31.1285 16.9746 29.4699 17.8088 28.2626 19.5941L28.9362 20.5879C29.7589 19.3051 31.3657 17.6923 33.403 16.8351C35.2839 16.0436 37.1545 16.3068 37.8385 16.246L36.6624 14.8675C36.071 14.9461 34.2234 15.2637 32.676 16.1191Z" fill="#2FC4A7"/>
<path d="M32.676 16.1191C31.1285 16.9746 29.4699 17.8088 28.2626 19.5941L28.9362 20.5879C29.7589 19.3051 31.3657 17.6923 33.403 16.8351C35.2839 16.0436 37.1545 16.3068 37.8385 16.246L36.6624 14.8675C36.071 14.9461 34.2234 15.2637 32.676 16.1191Z" fill="black" fill-opacity="0.2"/>
<path d="M31.8023 29.8838C32.6514 26.8086 32.5806 22.4982 29.8212 20.3786C27.0618 18.2589 23.3117 18.4216 20.7646 19.2603C17.7627 20.2488 13.9721 22.6151 12.557 27.3677C11.1419 32.1203 12.7693 35.6378 13.6183 36.197C14.2976 36.6443 15.0334 36.3833 15.3164 36.197C15.2221 36.5697 15.2032 37.4271 15.8824 37.8744C16.7315 38.4335 18.2882 39.2881 22.4627 38.8299C27.0618 38.3252 30.9533 32.959 31.8023 29.8838Z" fill="#546DDB"/>
<path d="M31.8023 29.8838C32.6514 26.8086 32.5806 22.4982 29.8212 20.3786C27.0618 18.2589 23.3117 18.4216 20.7646 19.2603C17.7627 20.2488 13.9721 22.6151 12.557 27.3677C11.1419 32.1203 12.7693 35.6378 13.6183 36.197C14.2976 36.6443 15.0334 36.3833 15.3164 36.197C15.2221 36.5697 15.2032 37.4271 15.8824 37.8744C16.7315 38.4335 18.2882 39.2881 22.4627 38.8299C27.0618 38.3252 30.9533 32.959 31.8023 29.8838Z" fill="white" fill-opacity="0.2"/>
<path d="M17.7517 26.5541C15.9455 28.9746 15.4852 32.4969 15.6822 34.2798C15.9779 32.7941 16.816 30.4905 18.6386 27.7427C20.4124 25.0684 23.0731 22.6912 23.96 21.7998C22.296 22.3671 19.5255 24.1769 17.7517 26.5541Z" fill="#546DDB"/>
<path d="M35.5719 23.0168C34.9316 20.3966 32.6074 17.8823 31.7161 17.8836C31.4542 19.1761 30.5633 21.0602 31.2456 23.9757C31.928 26.8911 34.3034 29.4816 35.0786 31.8215C35.6993 29.5146 36.2122 25.637 35.5719 23.0168Z" fill="#2FC4A7"/>
<path d="M35.5719 23.0168C34.9316 20.3966 32.6074 17.8823 31.7161 17.8836C31.4542 19.1761 30.5633 21.0602 31.2456 23.9757C31.928 26.8911 34.3034 29.4816 35.0786 31.8215C35.6993 29.5146 36.2122 25.637 35.5719 23.0168Z" fill="black" fill-opacity="0.2"/>
</g>
<defs>
<clipPath id="clip0_1337_8205">
<rect width="26" height="26" fill="white" transform="translate(12 14)"/>
</clipPath>
</defs>
</svg>
