<svg width="50" height="50" viewBox="0 0 50 50" fill="none" xmlns="http://www.w3.org/2000/svg">
<path d="M21.8389 11.9287C23.0481 5.21797 25.0992 3.49853 25.9737 3.47764C27.7662 4.01724 32.3643 5.3003 35.5795 7.45496C37.9769 9.06148 39.1019 12.3629 38.4858 15.2989C37.9825 17.6981 36.539 20.6532 32.6718 21.3132C28.614 22.0057 24.0399 21.3821 22.2774 21.094C21.6274 20.8351 20.6298 18.6394 21.8389 11.9287Z" fill="#546DDB"/>
<path d="M21.8389 11.9287C23.0481 5.21797 25.0992 3.49853 25.9737 3.47764C27.7662 4.01724 32.3643 5.3003 35.5795 7.45496C37.9769 9.06148 39.1019 12.3629 38.4858 15.2989C37.9825 17.6981 36.539 20.6532 32.6718 21.3132C28.614 22.0057 24.0399 21.3821 22.2774 21.094C21.6274 20.8351 20.6298 18.6394 21.8389 11.9287Z" fill="white" fill-opacity="0.4"/>
<ellipse cx="24.2948" cy="12.3216" rx="7" ry="1.5" transform="rotate(101.85 24.2948 12.3216)" fill="#546DDB"/>
<ellipse cx="24.2948" cy="12.3216" rx="7" ry="1.5" transform="rotate(101.85 24.2948 12.3216)" fill="white" fill-opacity="0.2"/>
<path d="M12.12 36.9842C5.304 37.1789 3.2 35.5245 3 34.673C3.16 32.8079 3.47151 28.0443 4.92 24.4551C6 21.779 9.12 20 12.12 20C14.5714 20 17.64 20.8059 19.08 24.4551C20.591 28.2842 20.92 32.8889 21 34.673C20.88 35.3623 18.936 36.7896 12.12 36.9842Z" fill="#546DDB"/>
<path d="M12.12 36.9842C5.304 37.1789 3.2 35.5245 3 34.673C3.16 32.8079 3.47151 28.0443 4.92 24.4551C6 21.779 9.12 20 12.12 20C14.5714 20 17.64 20.8059 19.08 24.4551C20.591 28.2842 20.92 32.8889 21 34.673C20.88 35.3623 18.936 36.7896 12.12 36.9842Z" fill="white" fill-opacity="0.2"/>
<ellipse cx="12" cy="34.5" rx="7" ry="1.5" fill="#546DDB"/>
<path d="M46.1714 35.7715C47.4377 42.4717 46.1356 44.8101 45.3263 45.1418C43.4592 45.2777 38.7061 45.7208 34.9335 44.856C32.1206 44.2112 29.8911 41.5291 29.4183 38.5666C29.032 36.1458 29.3253 32.87 32.702 30.8729C36.2452 28.7774 40.7405 27.7269 42.4897 27.3667C43.1893 27.3766 44.9051 29.0714 46.1714 35.7715Z" fill="#546DDB"/>
<path d="M46.1714 35.7715C47.4377 42.4717 46.1356 44.8101 45.3263 45.1418C43.4592 45.2777 38.7061 45.7208 34.9335 44.856C32.1206 44.2112 29.8911 41.5291 29.4183 38.5666C29.032 36.1458 29.3253 32.87 32.702 30.8729C36.2452 28.7774 40.7405 27.7269 42.4897 27.3667C43.1893 27.3766 44.9051 29.0714 46.1714 35.7715Z" fill="white" fill-opacity="0.4"/>
<ellipse cx="43.7371" cy="36.2817" rx="7" ry="1.5" transform="rotate(-99.067 43.7371 36.2817)" fill="#546DDB"/>
<ellipse cx="43.7371" cy="36.2817" rx="7" ry="1.5" transform="rotate(-99.067 43.7371 36.2817)" fill="white" fill-opacity="0.2"/>
<path d="M9.84871 22.5364C9.23303 22.2319 8.44205 22.7986 8.12351 23.1199C7.805 23.4413 7.00384 24.3016 6.39498 25.5329C5.78612 26.7642 5.70298 27.4448 5.61495 27.9081C5.55294 28.3563 5.80822 29.1583 6.42389 29.4627C7.03956 29.7671 7.92812 29.1364 7.99012 28.6881C8.05212 28.2399 8.33432 27.1944 8.77017 26.3129C9.20603 25.4315 10.4094 24.0805 10.4975 23.6173C10.5594 23.1691 10.4644 22.8408 9.84871 22.5364Z" fill="#FEFEFE"/>
<path d="M33.4907 32.3807C32.9109 32.2184 32.3444 32.841 32.1335 33.1726C31.9228 33.5042 31.4022 34.3832 31.1142 35.5524C30.8261 36.7216 30.8822 37.3259 30.8937 37.7425C30.9245 38.1417 31.2907 38.7953 31.8705 38.9576C32.4503 39.1198 33.0879 38.4254 33.0571 38.0263C33.0263 37.6271 33.0714 36.6732 33.2776 35.8362C33.4838 34.9992 34.2547 33.6278 34.2432 33.2113C34.2124 32.8121 34.0705 32.543 33.4907 32.3807Z" fill="#FEFEFE"/>
<ellipse cx="28.9398" cy="7.07586" rx="1.70694" ry="1.5" transform="rotate(72.6949 28.9398 7.07586)" fill="#FEFEFE"/>
</svg>
