<svg width="50" height="50" viewBox="0 0 50 50" fill="none" xmlns="http://www.w3.org/2000/svg">
<path d="M9.73684 2H40V5L41 7H45V48H11.3158C10.7895 48 8.15789 48 6.57895 46.4318C5 44.8636 5 43.2955 5 42.7727V6.70455C5 5.65909 5.73684 4.40455 6.57895 3.56818C7.42105 2.73182 8.68421 2 9.73684 2Z" fill="#D0333D"/>
<path d="M9.73684 2H40V5L41 7H45V48H11.3158C10.7895 48 8.15789 48 6.57895 46.4318C5 44.8636 5 43.2955 5 42.7727V6.70455C5 5.65909 5.73684 4.40455 6.57895 3.56818C7.42105 2.73182 8.68421 2 9.73684 2Z" fill="black" fill-opacity="0.2"/>
<path d="M43 9.1L40 5V40H38L43 46V9.1Z" fill="#898989"/>
<path d="M10.1304 40H38L43 46H10.1304C9.62415 46 7 45.25 7 43C7 40.75 9.62415 40 10.1304 40Z" fill="#898989"/>
<path d="M10.1304 40H38L43 46H10.1304C9.62415 46 7 45.25 7 43C7 40.75 9.62415 40 10.1304 40Z" fill="white" fill-opacity="0.4"/>
<path d="M19.48 24.8401L26.2 14.28L31.32 17.16L25.4735 28.3601C23.4584 30.9271 21.4 32.5201 18.5175 33.404C17.88 30.2801 18.2644 27.8686 19.48 24.8401Z" fill="#FEFEFE"/>
<path d="M30.426 7.61522C30.9226 6.55307 32.2223 6.14404 33.2377 6.7303L34.2389 7.30831C35.2611 7.89848 35.5525 9.2409 34.8671 10.2018L31.4329 15.016C30.8271 15.8653 29.6703 16.1063 28.7757 15.5696L28.7068 15.5282C27.8279 15.0009 27.4899 13.8945 27.924 12.9661L30.426 7.61522Z" fill="#FEFEFE"/>
<rect x="23.199" y="10.5269" width="14.7686" height="1.84608" rx="0.92304" transform="rotate(30 23.199 10.5269)" fill="#FEFEFE"/>
<path d="M29.8847 16.5187L27.4572 15.1172C23.4562 22.0471 19.9554 28.1108 21.1691 28.8115C22.3828 29.5123 25.8837 23.4486 29.8847 16.5187Z" fill="#FEFEFE"/>
<path d="M15.32 11.7202L11.48 16.2721L15.96 30.9202L15.32 11.7202Z" fill="#FEFEFE"/>
<path d="M8.28 25.8093L9.36 21.6401L15.32 34.7601L8.28 25.8093Z" fill="#FEFEFE"/>
<path d="M34.8756 33.9998L21.72 35.0798L37.72 29.3198L34.8756 33.9998Z" fill="#FEFEFE"/>
</svg>
