<svg width="51" height="51" viewBox="0 0 51 51" fill="none" xmlns="http://www.w3.org/2000/svg">
<path d="M47.1948 23.1375L24.5409 23.7655V33.6772C23.4015 33.4873 20.2111 33.5633 16.565 35.3863C12.9189 37.2094 12.4993 41.9768 14.3832 45.1167C17.4217 45.4965 19.5948 45.7447 27.5707 45.7447C35.2618 45.7447 41.9257 44.6203 45.1541 43.8607L47.1948 23.1375Z" fill="#898989"/>
<path d="M47.1948 23.1375L24.5409 23.7655V33.6772C23.4015 33.4873 20.2111 33.5633 16.565 35.3863C12.9189 37.2094 12.4993 41.9768 14.3832 45.1167C17.4217 45.4965 19.5948 45.7447 27.5707 45.7447C35.2618 45.7447 41.9257 44.6203 45.1541 43.8607L47.1948 23.1375Z" fill="white" fill-opacity="0.4"/>
<path d="M28.3789 47.0006C21.7271 47.0006 15.6607 46.3155 13.7552 45.973V43.8607C15.834 44.0891 22.1428 44.6029 28.3789 44.6029C34.615 44.6029 42.5557 43.6894 45.1541 43.2327V45.973C42.7289 46.3155 35.0308 47.0006 28.3789 47.0006Z" fill="#898989"/>
<path d="M28.3789 47.0006C21.7271 47.0006 15.6607 46.3155 13.7552 45.973V43.8607C15.834 44.0891 22.1428 44.6029 28.3789 44.6029C34.615 44.6029 42.5557 43.6894 45.1541 43.2327V45.973C42.7289 46.3155 35.0308 47.0006 28.3789 47.0006Z" fill="white" fill-opacity="0.6"/>
<path d="M35.8912 26.9053C31.8219 26.9053 26.66 27.4635 24.5876 27.7426V35.069L27.5967 32.1114L28.5893 36.0818L31.0709 33.104L32.5598 37.0745L34.0487 32.6077L36.0339 36.5782L38.0191 34.5929L40.0043 36.5782L41.4932 33.6037L42.9821 37.5708L44.471 32.6077L45.9599 37.0745L47.1948 26.9053C45.1225 26.7193 39.9605 26.9053 35.8912 26.9053Z" fill="#898989"/>
<path d="M35.8912 26.9053C31.8219 26.9053 26.66 27.4635 24.5876 27.7426V35.069L27.5967 32.1114L28.5893 36.0818L31.0709 33.104L32.5598 37.0745L34.0487 32.6077L36.0339 36.5782L38.0191 34.5929L40.0043 36.5782L41.4932 33.6037L42.9821 37.5708L44.471 32.6077L45.9599 37.0745L47.1948 26.9053C45.1225 26.7193 39.9605 26.9053 35.8912 26.9053Z" fill="white" fill-opacity="0.6"/>
<path d="M36.5192 19.3695C33.0987 19.3695 25.8436 19.9975 23.3317 21.3832L24.3035 29.6687L26.8212 27.409L29.5819 31.1188L30.5745 28.141L32.5597 30.1262L34.545 28.6373L36.0339 31.1188L38.0191 27.6447L39.508 31.1188L41.4932 28.141L43.4784 30.1262L44.2642 26.9052L47.2546 29.6687L48.4507 20.63C45.4604 19.3695 39.9396 19.3695 36.5192 19.3695Z" fill="#898989"/>
<path d="M36.5192 19.3695C33.0987 19.3695 25.8436 19.9975 23.3317 21.3832L24.3035 29.6687L26.8212 27.409L29.5819 31.1188L30.5745 28.141L32.5597 30.1262L34.545 28.6373L36.0339 31.1188L38.0191 27.6447L39.508 31.1188L41.4932 28.141L43.4784 30.1262L44.2642 26.9052L47.2546 29.6687L48.4507 20.63C45.4604 19.3695 39.9396 19.3695 36.5192 19.3695Z" fill="white" fill-opacity="0.8"/>
<path d="M34.8079 16.2297C30.3448 16.2297 24.2081 16.6283 23.3317 17.4857C22.4553 18.343 23.1217 21.7887 23.3317 24.3934L25.6115 21.2535L27.1004 23.8583L29.0856 21.718L30.5746 25.1632L32.5598 22.6817L34.0487 24.1706L35.5376 21.2535L38.0191 25.1632L40.0043 21.1928L40.9969 24.6669L42.4858 22.1854L44.6261 24.3934L45.9599 21.718L48.4508 23.7654C48.4508 21.8815 49.1003 18.6933 47.8228 17.4857C46.5453 16.2781 39.271 16.2297 34.8079 16.2297Z" fill="#898989"/>
<path d="M34.8079 16.2297C30.3448 16.2297 24.2081 16.6283 23.3317 17.4857C22.4553 18.343 23.1217 21.7887 23.3317 24.3934L25.6115 21.2535L27.1004 23.8583L29.0856 21.718L30.5746 25.1632L32.5598 22.6817L34.0487 24.1706L35.5376 21.2535L38.0191 25.1632L40.0043 21.1928L40.9969 24.6669L42.4858 22.1854L44.6261 24.3934L45.9599 21.718L48.4508 23.7654C48.4508 21.8815 49.1003 18.6933 47.8228 17.4857C46.5453 16.2781 39.271 16.2297 34.8079 16.2297Z" fill="white" fill-opacity="0.95"/>
<path fill-rule="evenodd" clip-rule="evenodd" d="M35.9306 13.7424C31.2661 13.7872 22.7805 14.0977 21.1448 15.7334C18.8649 18.0133 22.1374 31.1188 22.1374 31.1188C18.7809 31.2 16.8893 31.6775 15.2112 32.8379C8.39866 32.809 6.31144 32.5687 3.46451 32.2128C1.58058 29.0729 2.00015 24.3055 5.6463 22.4825C9.29245 20.6594 12.4828 20.5834 13.6223 20.7733V10.8616L36.2761 10.2336L35.9306 13.7424Z" fill="#898989"/>
<path fill-rule="evenodd" clip-rule="evenodd" d="M35.9306 13.7424C31.2661 13.7872 22.7805 14.0977 21.1448 15.7334C18.8649 18.0133 22.1374 31.1188 22.1374 31.1188C18.7809 31.2 16.8893 31.6775 15.2112 32.8379C8.39866 32.809 6.31144 32.5687 3.46451 32.2128C1.58058 29.0729 2.00015 24.3055 5.6463 22.4825C9.29245 20.6594 12.4828 20.5834 13.6223 20.7733V10.8616L36.2761 10.2336L35.9306 13.7424Z" fill="white" fill-opacity="0.2"/>
<path fill-rule="evenodd" clip-rule="evenodd" d="M17.5876 31.6989C16.0822 32.1503 14.9655 32.8918 13.7711 34.0301C8.66148 33.8497 4.38149 33.3468 2.83659 33.0691V30.9568C4.9153 31.1852 11.2242 31.699 17.4603 31.699C17.5026 31.699 17.5451 31.6989 17.5876 31.6989Z" fill="#898989"/>
<path fill-rule="evenodd" clip-rule="evenodd" d="M17.5876 31.6989C16.0822 32.1503 14.9655 32.8918 13.7711 34.0301C8.66148 33.8497 4.38149 33.3468 2.83659 33.0691V30.9568C4.9153 31.1852 11.2242 31.699 17.4603 31.699C17.5026 31.699 17.5451 31.6989 17.5876 31.6989Z" fill="white" fill-opacity="0.4"/>
<path fill-rule="evenodd" clip-rule="evenodd" d="M29.7595 13.9526C25.9478 14.1953 22.1785 14.6997 21.1448 15.7334C20.3719 16.5063 20.2371 18.5231 20.3966 20.8517L20.1522 20.2L17.6706 23.1778L16.678 19.2074L13.6689 22.165V14.8386C15.7413 14.5595 20.9032 14.0013 24.9725 14.0013C26.3642 14.0013 27.8836 13.9795 29.3635 13.9583C29.4959 13.9564 29.6279 13.9545 29.7595 13.9526Z" fill="#898989"/>
<path fill-rule="evenodd" clip-rule="evenodd" d="M29.7595 13.9526C25.9478 14.1953 22.1785 14.6997 21.1448 15.7334C20.3719 16.5063 20.2371 18.5231 20.3966 20.8517L20.1522 20.2L17.6706 23.1778L16.678 19.2074L13.6689 22.165V14.8386C15.7413 14.5595 20.9032 14.0013 24.9725 14.0013C26.3642 14.0013 27.8836 13.9795 29.3635 13.9583C29.4959 13.9564 29.6279 13.9545 29.7595 13.9526Z" fill="white" fill-opacity="0.4"/>
<path fill-rule="evenodd" clip-rule="evenodd" d="M36.7366 13.7369C32.3233 13.7544 22.88 13.9982 21.1448 15.7334C21.0254 15.8528 20.9212 16.0019 20.831 16.1772L19.6558 15.2371L18.6632 18.2149L15.9025 14.5052L13.3848 16.7649L12.413 8.47936C14.9249 7.09361 22.18 6.46564 25.6005 6.46564C29.0209 6.46564 34.5417 6.46564 37.532 7.72613L36.7366 13.7369Z" fill="#898989"/>
<path fill-rule="evenodd" clip-rule="evenodd" d="M36.7366 13.7369C32.3233 13.7544 22.88 13.9982 21.1448 15.7334C21.0254 15.8528 20.9212 16.0019 20.831 16.1772L19.6558 15.2371L18.6632 18.2149L15.9025 14.5052L13.3848 16.7649L12.413 8.47936C14.9249 7.09361 22.18 6.46564 25.6005 6.46564C29.0209 6.46564 34.5417 6.46564 37.532 7.72613L36.7366 13.7369Z" fill="white" fill-opacity="0.6"/>
<path fill-rule="evenodd" clip-rule="evenodd" d="M12.413 4.58179C13.2894 3.72445 19.4261 3.32587 23.8892 3.32587C28.3523 3.32587 35.6266 3.3742 36.9041 4.58182C37.8778 5.50227 37.732 7.57335 37.6076 9.3405C37.5688 9.89182 37.5321 10.4136 37.5321 10.8616L35.0412 8.81413L33.7074 11.4896L31.5671 9.2815L30.0782 11.763L29.0856 8.2889L27.1004 12.2593L24.6189 8.34968L23.13 11.2667L21.6411 9.77781L19.6558 12.2593L18.1669 8.81413L16.1817 10.9544L14.6928 8.34968L12.413 11.4896C12.3659 10.9054 12.2958 10.279 12.2254 9.64892C11.9817 7.46951 11.7331 5.24686 12.413 4.58179Z" fill="#898989"/>
<path fill-rule="evenodd" clip-rule="evenodd" d="M12.413 4.58179C13.2894 3.72445 19.4261 3.32587 23.8892 3.32587C28.3523 3.32587 35.6266 3.3742 36.9041 4.58182C37.8778 5.50227 37.732 7.57335 37.6076 9.3405C37.5688 9.89182 37.5321 10.4136 37.5321 10.8616L35.0412 8.81413L33.7074 11.4896L31.5671 9.2815L30.0782 11.763L29.0856 8.2889L27.1004 12.2593L24.6189 8.34968L23.13 11.2667L21.6411 9.77781L19.6558 12.2593L18.1669 8.81413L16.1817 10.9544L14.6928 8.34968L12.413 11.4896C12.3659 10.9054 12.2958 10.279 12.2254 9.64892C11.9817 7.46951 11.7331 5.24686 12.413 4.58179Z" fill="white" fill-opacity="0.8"/>
</svg>
