<svg width="50" height="50" viewBox="0 0 50 50" fill="none" xmlns="http://www.w3.org/2000/svg">
<path d="M9.73684 2H40V5L41 7H45V48H11.3158C10.7895 48 8.15789 48 6.57895 46.4318C5 44.8636 5 43.2955 5 42.7727V6.70455C5 5.65909 5.73684 4.40455 6.57895 3.56818C7.42105 2.73182 8.68421 2 9.73684 2Z" fill="#FAA21E"/>
<path d="M9.73684 2H40V5L41 7H45V48H11.3158C10.7895 48 8.15789 48 6.57895 46.4318C5 44.8636 5 43.2955 5 42.7727V6.70455C5 5.65909 5.73684 4.40455 6.57895 3.56818C7.42105 2.73182 8.68421 2 9.73684 2Z" fill="black" fill-opacity="0.1"/>
<path d="M43 9.1L40 5V40H38L43 46V9.1Z" fill="#898989"/>
<path d="M43 9.1L40 5V40H38L43 46V9.1Z" fill="white" fill-opacity="0.2"/>
<path d="M10.1304 40H38L43 46H10.1304C9.62415 46 7 45.25 7 43C7 40.75 9.62415 40 10.1304 40Z" fill="#898989"/>
<path d="M10.1304 40H38L43 46H10.1304C9.62415 46 7 45.25 7 43C7 40.75 9.62415 40 10.1304 40Z" fill="white" fill-opacity="0.6"/>
<ellipse cx="16.2702" cy="20.787" rx="6.144" ry="15.36" transform="rotate(-15 16.2702 20.787)" stroke="#FEFEFE" stroke-width="1.2288"/>
<ellipse cx="16.5064" cy="20.723" rx="3.75469" ry="9.38672" transform="rotate(-15 16.5064 20.723)" stroke="#FEFEFE" stroke-width="1.37366"/>
<ellipse cx="16.7128" cy="20.9994" rx="2.34669" ry="5.86672" transform="rotate(-15 16.7128 20.9994)" fill="#FEFEFE"/>
<path d="M17.2776 17.9399L15.072 21.7998L19.5176 21.8197L18.1633 20.754L30.9112 13.394L32.8197 14.1397L37.808 11.2597L35.3024 10.1198L35.568 7.37986L30.5797 10.2599L30.2712 12.2855L17.5233 19.6455L17.2776 17.9399Z" fill="#FEFEFE"/>
</svg>
