<svg width="50" height="50" viewBox="0 0 50 50" fill="none" xmlns="http://www.w3.org/2000/svg">
<g clip-path="url(#clip0_6065_10134)">
<path d="M37 4.21539L49 25L37 45.7846L13 45.7846L1 25L13 4.21539L37 4.21539Z" stroke="#D0333D"/>
<path d="M35 7.67949L45 25L35 42.3205L15 42.3205L5.00001 25L15 7.67949L35 7.67949Z" fill="#D0333D"/>
<path d="M37 18L13 32" stroke="#546DDB" stroke-width="2"/>
<path d="M37 18L13 32" stroke="black" stroke-opacity="0.8" stroke-width="2"/>
<path d="M37 32L13 17.9503" stroke="#546DDB" stroke-width="2"/>
<path d="M37 32L13 17.9503" stroke="black" stroke-opacity="0.8" stroke-width="2"/>
<path d="M25 38.6537V11" stroke="#546DDB" stroke-width="2"/>
<path d="M25 38.6537V11" stroke="black" stroke-opacity="0.8" stroke-width="2"/>
<path d="M19.7369 21.384L19.2369 21.6726L19.2369 22.25L19.2369 27.75L19.2369 28.3273L19.7369 28.616L24.5 31.366L25 31.6547L25.5 31.366L30.2632 28.616L30.7632 28.3273L30.7632 27.75L30.7632 22.25L30.7632 21.6726L30.2632 21.384L25.5 18.634L25 18.3453L24.5 18.634L19.7369 21.384Z" fill="#D0333D"/>
<path d="M19.7369 21.384L19.2369 21.6726L19.2369 22.25L19.2369 27.75L19.2369 28.3273L19.7369 28.616L24.5 31.366L25 31.6547L25.5 31.366L30.2632 28.616L30.7632 28.3273L30.7632 27.75L30.7632 22.25L30.7632 21.6726L30.2632 21.384L25.5 18.634L25 18.3453L24.5 18.634L19.7369 21.384Z" stroke="#546DDB" stroke-width="2"/>
<path d="M19.7369 21.384L19.2369 21.6726L19.2369 22.25L19.2369 27.75L19.2369 28.3273L19.7369 28.616L24.5 31.366L25 31.6547L25.5 31.366L30.2632 28.616L30.7632 28.3273L30.7632 27.75L30.7632 22.25L30.7632 21.6726L30.2632 21.384L25.5 18.634L25 18.3453L24.5 18.634L19.7369 21.384Z" stroke="black" stroke-opacity="0.8" stroke-width="2"/>
<ellipse cx="13" cy="17.95" rx="2" ry="2" transform="rotate(-90 13 17.95)" fill="#546DDB"/>
<ellipse cx="13" cy="17.95" rx="2" ry="2" transform="rotate(-90 13 17.95)" fill="black" fill-opacity="0.8"/>
<ellipse cx="37" cy="17.95" rx="2" ry="2" transform="rotate(-90 37 17.95)" fill="#546DDB"/>
<ellipse cx="37" cy="17.95" rx="2" ry="2" transform="rotate(-90 37 17.95)" fill="black" fill-opacity="0.8"/>
<ellipse cx="13" cy="32.05" rx="2" ry="2" transform="rotate(-90 13 32.05)" fill="#546DDB"/>
<ellipse cx="13" cy="32.05" rx="2" ry="2" transform="rotate(-90 13 32.05)" fill="black" fill-opacity="0.8"/>
<ellipse cx="24.9979" cy="11.1077" rx="2" ry="2" transform="rotate(-150 24.9979 11.1077)" fill="#546DDB"/>
<ellipse cx="24.9979" cy="11.1077" rx="2" ry="2" transform="rotate(-150 24.9979 11.1077)" fill="black" fill-opacity="0.8"/>
<ellipse cx="24.9979" cy="38.8923" rx="2" ry="2" transform="rotate(-150 24.9979 38.8923)" fill="#546DDB"/>
<ellipse cx="24.9979" cy="38.8923" rx="2" ry="2" transform="rotate(-150 24.9979 38.8923)" fill="black" fill-opacity="0.8"/>
<ellipse cx="37" cy="32.05" rx="2" ry="2" transform="rotate(-90 37 32.05)" fill="#546DDB"/>
<ellipse cx="37" cy="32.05" rx="2" ry="2" transform="rotate(-90 37 32.05)" fill="black" fill-opacity="0.8"/>
</g>
<defs>
<clipPath id="clip0_6065_10134">
<rect width="50" height="50" fill="white" transform="matrix(-1 0 0 1 50 0)"/>
</clipPath>
</defs>
</svg>
