<svg width="50" height="50" viewBox="0 0 50 50" fill="none" xmlns="http://www.w3.org/2000/svg">
<g clip-path="url(#clip0_2850_18795)">
<path d="M22.9148 44.3352C17.4664 44.3352 13.9481 42.3426 13.45 41.3463C12.9518 40.35 12.9518 36.7936 12.9518 36.7936H32.8778C32.8778 38.9191 33.0013 40.3459 32.3796 41.3463C31.389 42.9404 27.8679 44.3352 22.9148 44.3352Z" fill="#898989"/>
<path d="M22.9148 44.3352C17.4664 44.3352 13.9481 42.3426 13.45 41.3463C12.9518 40.35 12.9518 36.7936 12.9518 36.7936H32.8778C32.8778 38.9191 33.0013 40.3459 32.3796 41.3463C31.389 42.9404 27.8679 44.3352 22.9148 44.3352Z" fill="white" fill-opacity="0.6"/>
<path d="M40.2341 22.1313C39.4248 22.0953 38.2497 21.1691 38.732 19.4428C39.2142 17.7164 41.2956 16.4981 43.7233 16.6062C46.1511 16.7142 47.3068 18.0764 48.4819 19.0026C48.4431 19.8748 48.6925 23.3816 46.5335 26.3442C44.3746 29.3068 41.9827 30.4779 39.422 31.2712C37.7776 31.7807 37.3212 32.9256 37.2824 33.7978C37.2436 34.6699 38.0141 35.5781 38.8233 35.6141" stroke="#FEFEFE" stroke-width="2.49074" stroke-linecap="round"/>
<path d="M41.8444 11.0499H3.98517C5.60926 14.8394 6.69198 15.3808 7.7747 19.7117C8.31607 21.8771 7.77471 28.7639 8.85743 32.5535C10.2286 37.3525 13.0428 39.863 15.8951 41.2153C18.7355 42.5618 26.6024 42.5618 29.9706 41.2153C32.9017 40.0434 35.6795 37.4257 37.0083 32.5535C38.5424 26.9283 37.4452 22.9407 38.091 19.7117C38.6324 17.0049 39.679 15.3808 41.8444 11.0499Z" fill="#898989"/>
<path d="M41.8444 11.0499H3.98517C5.60926 14.8394 6.69198 15.3808 7.7747 19.7117C8.31607 21.8771 7.77471 28.7639 8.85743 32.5535C10.2286 37.3525 13.0428 39.863 15.8951 41.2153C18.7355 42.5618 26.6024 42.5618 29.9706 41.2153C32.9017 40.0434 35.6795 37.4257 37.0083 32.5535C38.5424 26.9283 37.4452 22.9407 38.091 19.7117C38.6324 17.0049 39.679 15.3808 41.8444 11.0499Z" fill="white" fill-opacity="0.95"/>
<path d="M41.8444 10.8454C41.8444 13.5337 33.5969 15.802 23.1424 15.802C12.6878 15.802 3.98517 13.5337 3.98517 10.8454C3.98517 8.15709 12.6878 5.97778 23.1424 5.97778C33.5969 5.97778 41.8444 8.15709 41.8444 10.8454Z" fill="#898989"/>
<path d="M41.8444 10.8454C41.8444 13.5337 33.5969 15.802 23.1424 15.802C12.6878 15.802 3.98517 13.5337 3.98517 10.8454C3.98517 8.15709 12.6878 5.97778 23.1424 5.97778C33.5969 5.97778 41.8444 8.15709 41.8444 10.8454Z" fill="white" fill-opacity="0.6"/>
<path d="M41.8444 10.8454C41.8444 13.5337 33.5969 15.802 23.1424 15.802C12.6878 15.802 3.98517 13.5337 3.98517 10.8454C3.98517 8.15709 12.6878 5.97778 23.1424 5.97778C33.5969 5.97778 41.8444 8.15709 41.8444 10.8454Z" stroke="#FEFEFE" stroke-width="1.49444"/>
<path d="M37 13.4304C37 13.0805 29.3513 11.9305 23 11.9305C16.6487 11.9305 9 13.0805 9 13.4304C9 13.7804 15 15.2305 23 15.2305C32 15.2305 37 13.7804 37 13.4304Z" fill="#FAA21E"/>
<path d="M37 13.4304C37 13.0805 29.3513 11.9305 23 11.9305C16.6487 11.9305 9 13.0805 9 13.4304C9 13.7804 15 15.2305 23 15.2305C32 15.2305 37 13.7804 37 13.4304Z" fill="white" fill-opacity="0.4"/>
<path fill-rule="evenodd" clip-rule="evenodd" d="M15.5624 20.675L16.8274 21.4738C17.1553 21.2833 17.5105 21.1346 17.8856 21.0349L18.2153 19.5757C18.4718 19.5404 18.7338 19.5222 19 19.5222C19.2661 19.5222 19.528 19.5404 19.7845 19.5757L20.114 21.0346C20.4894 21.1342 20.8448 21.2829 21.1729 21.4734L22.4374 20.6749C22.8563 20.992 23.23 21.3657 23.5472 21.7846L22.7487 23.049C22.9394 23.3772 23.0882 23.7326 23.1878 24.1081L24.6464 24.4376C24.6817 24.6941 24.7 24.956 24.7 25.2222C24.7 25.4884 24.6817 25.7503 24.6464 26.0068L23.1878 26.3363C23.0881 26.7117 22.9394 27.0672 22.7487 27.3953L23.5472 28.6597C23.23 29.0786 22.8563 29.4523 22.4374 29.7694L21.1728 28.9709C20.8448 29.1614 20.4894 29.3101 20.1141 29.4097L19.7845 30.8686C19.528 30.9039 19.2661 30.9222 19 30.9222C18.7338 30.9222 18.4718 30.9039 18.2152 30.8686L17.8856 29.4094C17.5105 29.3098 17.1553 29.1611 16.8274 28.9706L15.5625 29.7694C15.1436 29.4522 14.7699 29.0785 14.4527 28.6596L15.2516 27.3945C15.0612 27.0666 14.9126 26.7116 14.8131 26.3365L13.3536 26.0068C13.3182 25.7503 13.3 25.4884 13.3 25.2222C13.3 24.956 13.3182 24.694 13.3535 24.4375L14.8131 24.1078C14.9126 23.7328 15.0612 23.3777 15.2516 23.0499L14.4527 21.7848C14.7698 21.3659 15.1435 20.9921 15.5624 20.675ZM19.0001 27.0461C20.0074 27.0461 20.8241 26.2295 20.8241 25.2221C20.8241 24.2148 20.0074 23.3981 19.0001 23.3981C17.9927 23.3981 17.1761 24.2148 17.1761 25.2221C17.1761 26.2295 17.9927 27.0461 19.0001 27.0461Z" fill="#546DDB"/>
<path fill-rule="evenodd" clip-rule="evenodd" d="M15.5624 20.675L16.8274 21.4738C17.1553 21.2833 17.5105 21.1346 17.8856 21.0349L18.2153 19.5757C18.4718 19.5404 18.7338 19.5222 19 19.5222C19.2661 19.5222 19.528 19.5404 19.7845 19.5757L20.114 21.0346C20.4894 21.1342 20.8448 21.2829 21.1729 21.4734L22.4374 20.6749C22.8563 20.992 23.23 21.3657 23.5472 21.7846L22.7487 23.049C22.9394 23.3772 23.0882 23.7326 23.1878 24.1081L24.6464 24.4376C24.6817 24.6941 24.7 24.956 24.7 25.2222C24.7 25.4884 24.6817 25.7503 24.6464 26.0068L23.1878 26.3363C23.0881 26.7117 22.9394 27.0672 22.7487 27.3953L23.5472 28.6597C23.23 29.0786 22.8563 29.4523 22.4374 29.7694L21.1728 28.9709C20.8448 29.1614 20.4894 29.3101 20.1141 29.4097L19.7845 30.8686C19.528 30.9039 19.2661 30.9222 19 30.9222C18.7338 30.9222 18.4718 30.9039 18.2152 30.8686L17.8856 29.4094C17.5105 29.3098 17.1553 29.1611 16.8274 28.9706L15.5625 29.7694C15.1436 29.4522 14.7699 29.0785 14.4527 28.6596L15.2516 27.3945C15.0612 27.0666 14.9126 26.7116 14.8131 26.3365L13.3536 26.0068C13.3182 25.7503 13.3 25.4884 13.3 25.2222C13.3 24.956 13.3182 24.694 13.3535 24.4375L14.8131 24.1078C14.9126 23.7328 15.0612 23.3777 15.2516 23.0499L14.4527 21.7848C14.7698 21.3659 15.1435 20.9921 15.5624 20.675ZM19.0001 27.0461C20.0074 27.0461 20.8241 26.2295 20.8241 25.2221C20.8241 24.2148 20.0074 23.3981 19.0001 23.3981C17.9927 23.3981 17.1761 24.2148 17.1761 25.2221C17.1761 26.2295 17.9927 27.0461 19.0001 27.0461Z" fill="white" fill-opacity="0.2"/>
<path fill-rule="evenodd" clip-rule="evenodd" d="M24.3457 26.5329L25.2168 27.7493C25.5923 27.6963 25.9773 27.6923 26.3624 27.7413L27.2172 26.5136C27.4682 26.5775 27.7177 26.6593 27.9644 26.7595C28.2109 26.8598 28.4467 26.9753 28.6709 27.1046L28.4268 28.5802C28.7371 28.8138 29.0103 29.0854 29.2424 29.3855L30.7147 29.1219C30.9833 29.5735 31.1887 30.0604 31.3248 30.5678L30.1089 31.4385C30.162 31.8143 30.166 32.1996 30.1169 32.5849L31.344 33.4395C31.2802 33.6904 31.1984 33.9399 31.0982 34.1864C30.9979 34.433 30.8824 34.6688 30.7531 34.8931L29.2778 34.6491C29.0441 34.9594 28.7724 35.2326 28.4722 35.4648L28.7357 36.9368C28.2841 37.2054 27.7972 37.4109 27.2897 37.5469L26.419 36.3309C26.0433 36.3839 25.6581 36.3878 25.2729 36.3387L24.4182 37.5661C24.1673 37.5022 23.9178 37.4205 23.6713 37.3203C23.4246 37.22 23.1888 37.1044 22.9645 36.9751L23.2086 35.4992C22.8986 35.2657 22.6256 34.9942 22.3936 34.6942L20.921 34.9578C20.6523 34.5063 20.4469 34.0193 20.3108 33.5118L21.5273 32.6407C21.4744 32.2653 21.4705 31.8804 21.5195 31.4955L20.2916 30.6404C20.3554 30.3895 20.4372 30.14 20.5374 29.8933C20.6377 29.6468 20.7532 29.411 20.8825 29.1867L22.3588 29.4309C22.5922 29.1209 22.8636 28.848 23.1634 28.616L22.8998 27.1431C23.3513 26.8745 23.8382 26.669 24.3457 26.5329ZM25.131 33.7296C26.0642 34.109 27.1282 33.66 27.5076 32.7268C27.887 31.7936 27.438 30.7296 26.5048 30.3502C25.5716 29.9708 24.5075 30.4198 24.1282 31.353C23.7488 32.2862 24.1978 33.3503 25.131 33.7296Z" fill="#898989"/>
<path fill-rule="evenodd" clip-rule="evenodd" d="M24.3457 26.5329L25.2168 27.7493C25.5923 27.6963 25.9773 27.6923 26.3624 27.7413L27.2172 26.5136C27.4682 26.5775 27.7177 26.6593 27.9644 26.7595C28.2109 26.8598 28.4467 26.9753 28.6709 27.1046L28.4268 28.5802C28.7371 28.8138 29.0103 29.0854 29.2424 29.3855L30.7147 29.1219C30.9833 29.5735 31.1887 30.0604 31.3248 30.5678L30.1089 31.4385C30.162 31.8143 30.166 32.1996 30.1169 32.5849L31.344 33.4395C31.2802 33.6904 31.1984 33.9399 31.0982 34.1864C30.9979 34.433 30.8824 34.6688 30.7531 34.8931L29.2778 34.6491C29.0441 34.9594 28.7724 35.2326 28.4722 35.4648L28.7357 36.9368C28.2841 37.2054 27.7972 37.4109 27.2897 37.5469L26.419 36.3309C26.0433 36.3839 25.6581 36.3878 25.2729 36.3387L24.4182 37.5661C24.1673 37.5022 23.9178 37.4205 23.6713 37.3203C23.4246 37.22 23.1888 37.1044 22.9645 36.9751L23.2086 35.4992C22.8986 35.2657 22.6256 34.9942 22.3936 34.6942L20.921 34.9578C20.6523 34.5063 20.4469 34.0193 20.3108 33.5118L21.5273 32.6407C21.4744 32.2653 21.4705 31.8804 21.5195 31.4955L20.2916 30.6404C20.3554 30.3895 20.4372 30.14 20.5374 29.8933C20.6377 29.6468 20.7532 29.411 20.8825 29.1867L22.3588 29.4309C22.5922 29.1209 22.8636 28.848 23.1634 28.616L22.8998 27.1431C23.3513 26.8745 23.8382 26.669 24.3457 26.5329ZM25.131 33.7296C26.0642 34.109 27.1282 33.66 27.5076 32.7268C27.887 31.7936 27.438 30.7296 26.5048 30.3502C25.5716 29.9708 24.5075 30.4198 24.1282 31.353C23.7488 32.2862 24.1978 33.3503 25.131 33.7296Z" fill="white" fill-opacity="0.2"/>
</g>
<defs>
<clipPath id="clip0_2850_18795">
<rect width="50" height="50" fill="white"/>
</clipPath>
</defs>
</svg>
