<svg width="50" height="50" viewBox="0 0 50 50" fill="none" xmlns="http://www.w3.org/2000/svg">
<g clip-path="url(#clip0_4546_6858)">
<path d="M9.73684 2.01379H40V5.01379L41 7.01379H45V48.0138H11.3158C10.7895 48.0138 8.15789 48.0138 6.57895 46.4456C5 44.8774 5 43.3092 5 42.7865V6.71834C5 5.67288 5.73684 4.41834 6.57895 3.58198C7.42105 2.74561 8.68421 2.01379 9.73684 2.01379Z" fill="#FAA21E"/>
<path d="M9.73684 2.01379H40V5.01379L41 7.01379H45V48.0138H11.3158C10.7895 48.0138 8.15789 48.0138 6.57895 46.4456C5 44.8774 5 43.3092 5 42.7865V6.71834C5 5.67288 5.73684 4.41834 6.57895 3.58198C7.42105 2.74561 8.68421 2.01379 9.73684 2.01379Z" fill="black" fill-opacity="0.1"/>
<path d="M43 9L40 5V40.0312H38L43 46V9Z" fill="#898989"/>
<path d="M43 9L40 5V40.0312H38L43 46V9Z" fill="white" fill-opacity="0.2"/>
<path d="M10.093 40H38.0001L43.0001 46H10.093C9.58856 46 6.97412 45.0823 6.97412 42.8406C6.97412 40.599 9.58856 40 10.093 40Z" fill="#898989"/>
<path d="M10.093 40H38.0001L43.0001 46H10.093C9.58856 46 6.97412 45.0823 6.97412 42.8406C6.97412 40.599 9.58856 40 10.093 40Z" fill="white" fill-opacity="0.6"/>
<g clip-path="url(#clip1_4546_6858)">
<path d="M25.6514 5.64001H28.76C27.16 7.88001 26.2 9.80001 25.88 12.232L27.48 12.04L24.92 15.24L23.32 11.4L24.92 12.04C24.92 10.44 24.92 7.88001 25.6514 5.64001Z" fill="#FEFEFE"/>
<path d="M17.24 5.64001L13.4 5.64001C15.4527 7.42795 18.7618 11.9047 20.44 16.52L18.84 16.52L22.04 19.4L23 15.24L21.72 16.2C20.9365 12.0947 18.6968 7.51195 17.24 5.64001Z" fill="#FEFEFE"/>
<path d="M38.3601 5.64001H35.8001C31.9601 8.20001 28.1201 13.32 26.8401 18.44L25.5601 16.84V21.32L29.7201 19.72L27.8001 19.08C30.0401 13.96 34.2001 10.12 38.3601 9.16001V5.64001Z" fill="#FEFEFE"/>
<path d="M7.64001 6.92004V7.76615V11.4326C11.5785 12.8428 15.5169 17.0733 17.8144 21.0217L15.8451 21.3038L19.8 24.2L20.44 19.3295L19.1272 20.4577C17.4862 15.6631 14.04 9.48004 7.64001 6.92004Z" fill="#FEFEFE"/>
<path d="M21.3323 23.9915C21.6463 23.6617 21.4631 21.7591 21.3323 20.9346H24.2987C24.2987 21.7591 24.014 23.6617 24.328 23.9915C24.7205 24.4038 28.1648 24.933 28.6458 25.2284C29.8514 25.9685 30.7378 29.9418 31.7861 31.8249L34.9263 33.2931C34.9263 32.7433 35.3908 32.1387 36.6469 32.4685C38.2171 32.8808 36.889 34.9422 35.3188 34.9422C34.0627 34.9422 31.029 33.8863 29.8514 33.0618L27.1922 28.1144C27.4877 31.8249 25.9695 33.1094 26.2906 36.36H20.0102C19.7717 33.6961 18.9194 31.8249 18.9194 28.1144L16.8512 32.6924C15.8044 33.517 13.103 34.8257 11.5329 35.1555C9.57027 35.5678 8.28712 33.4283 9.46471 33.0161C11.0287 32.4685 10.982 33.7053 11.3745 33.7053C11.6885 33.7053 13.8605 32.3746 14.9073 31.4126C15.9648 29.6361 16.8512 25.9685 17.655 25.2284C18.0728 24.8436 20.9397 24.4038 21.3323 23.9915Z" fill="#FAA21E"/>
<path d="M21.3323 23.9915C21.6463 23.6617 21.4631 21.7591 21.3323 20.9346H24.2987C24.2987 21.7591 24.014 23.6617 24.328 23.9915C24.7205 24.4038 28.1648 24.933 28.6458 25.2284C29.8514 25.9685 30.7378 29.9418 31.7861 31.8249L34.9263 33.2931C34.9263 32.7433 35.3908 32.1387 36.6469 32.4685C38.2171 32.8808 36.889 34.9422 35.3188 34.9422C34.0627 34.9422 31.029 33.8863 29.8514 33.0618L27.1922 28.1144C27.4877 31.8249 25.9695 33.1094 26.2906 36.36H20.0102C19.7717 33.6961 18.9194 31.8249 18.9194 28.1144L16.8512 32.6924C15.8044 33.517 13.103 34.8257 11.5329 35.1555C9.57027 35.5678 8.28712 33.4283 9.46471 33.0161C11.0287 32.4685 10.982 33.7053 11.3745 33.7053C11.6885 33.7053 13.8605 32.3746 14.9073 31.4126C15.9648 29.6361 16.8512 25.9685 17.655 25.2284C18.0728 24.8436 20.9397 24.4038 21.3323 23.9915Z" fill="white" fill-opacity="0.6"/>
<path d="M22.7604 16.1882C25.4196 16.1882 25.296 19.4659 24.9895 20.4525C24.5726 21.7942 24.0368 22.6065 23.0559 22.6065C21.8298 22.6065 21.1593 21.6896 20.698 20.4525C20.085 18.8082 20.5127 16.1882 22.7604 16.1882Z" fill="#FAA21E"/>
<path d="M22.7604 16.1882C25.4196 16.1882 25.296 19.4659 24.9895 20.4525C24.5726 21.7942 24.0368 22.6065 23.0559 22.6065C21.8298 22.6065 21.1593 21.6896 20.698 20.4525C20.085 18.8082 20.5127 16.1882 22.7604 16.1882Z" fill="white" fill-opacity="0.6"/>
<path d="M38.36 17.16V18.44V21.64C35.48 21.64 31.64 22.92 29.4 24.9377L31 25.8L26.52 26.44L27.8 22.28L28.44 23.88C30.04 21.32 35.16 18.12 38.36 17.16Z" fill="#FEFEFE"/>
<path d="M7.64002 19.3828V17.8C11.8 18.76 15.8 22.6 17.5309 25.48L18.2727 24.28L18.52 27.4L15.468 26.2973L16.7891 25.96C14.7544 23.9752 11.16 22.28 7.64002 21.64V19.3828Z" fill="#FEFEFE"/>
</g>
</g>
<defs>
<clipPath id="clip0_4546_6858">
<rect width="50" height="50" fill="white" transform="matrix(-1 0 0 1 50 0)"/>
</clipPath>
<clipPath id="clip1_4546_6858">
<rect width="32" height="32" fill="white" transform="matrix(-1 0 0 1 39 5)"/>
</clipPath>
</defs>
</svg>
