<svg width="50" height="50" viewBox="0 0 50 50" fill="none" xmlns="http://www.w3.org/2000/svg">
<g clip-path="url(#clip0_3645_29963)">
<path d="M9.66483 1.98511H39.7042V4.96293L40.6968 6.94814H44.6673V47.645H11.2321C10.7097 47.645 8.09756 47.645 6.53029 46.0884C4.96301 44.5318 4.96301 42.9752 4.96301 42.4564V6.65487C4.96301 5.61714 5.69441 4.37187 6.53029 3.54169C7.36616 2.71151 8.61998 1.98511 9.66483 1.98511Z" fill="#D0333D"/>
<path d="M9.66483 1.98511H39.7042V4.96293L40.6968 6.94814H44.6673V47.645H11.2321C10.7097 47.645 8.09756 47.645 6.53029 46.0884C4.96301 44.5318 4.96301 42.9752 4.96301 42.4564V6.65487C4.96301 5.61714 5.69441 4.37187 6.53029 3.54169C7.36616 2.71151 8.61998 1.98511 9.66483 1.98511Z" fill="black" fill-opacity="0.2"/>
<path d="M42.682 9.03261L39.7042 4.96292V39.7041H37.719L42.682 45.6598V9.03261Z" fill="#898989"/>
<path d="M10.0555 39.7042H37.719L42.6821 45.6598H10.0555C9.55299 45.6598 6.94824 44.9153 6.94824 42.682C6.94824 40.4486 9.55299 39.7042 10.0555 39.7042Z" fill="#898989"/>
<path d="M10.0555 39.7042H37.719L42.6821 45.6598H10.0555C9.55299 45.6598 6.94824 44.9153 6.94824 42.682C6.94824 40.4486 9.55299 39.7042 10.0555 39.7042Z" fill="white" fill-opacity="0.4"/>
<g clip-path="url(#clip1_3645_29963)">
<path fill-rule="evenodd" clip-rule="evenodd" d="M16.7674 10.9284L28.0197 6.28L29.0298 7.16743L23.3636 11.3158L26.0797 17.5137L23.3636 21.3874L24.1396 29.1347L25.3036 22.5495L29.1837 18.2884L26.8557 12.4779L31.8387 9.63516L37.72 14.8021C36.0357 26.6271 32.7846 31.3291 22.1995 35.72C16.027 28.2 14.9276 22.7895 16.7674 10.9284Z" fill="#D0333D"/>
<path fill-rule="evenodd" clip-rule="evenodd" d="M16.7674 10.9284L28.0197 6.28L29.0298 7.16743L23.3636 11.3158L26.0797 17.5137L23.3636 21.3874L24.1396 29.1347L25.3036 22.5495L29.1837 18.2884L26.8557 12.4779L31.8387 9.63516L37.72 14.8021C36.0357 26.6271 32.7846 31.3291 22.1995 35.72C16.027 28.2 14.9276 22.7895 16.7674 10.9284Z" fill="white" fill-opacity="0.6"/>
<path d="M15.524 15.0507L7 6.5267L8.52669 5.00001L17.0507 13.524L15.524 15.0507Z" fill="#FEFEFE"/>
<path d="M15.3968 14.9235L14.6334 14.1601L16.1601 12.6334L16.9235 13.3968L15.3968 14.9235Z" fill="#FEFEFE"/>
<path d="M16.9235 13.3968L15.4035 14.9167C15.7004 15.6376 16.6691 17.0099 17.6868 18.2313C18.7278 19.4804 23.1773 21.7346 24.937 22.8965C23.8367 20.9907 21.6093 16.8142 20.2313 15.6868C18.8319 14.5418 17.5172 13.736 16.9235 13.3968Z" fill="#FEFEFE"/>
<path d="M16.6689 13.6512L15.6511 14.669C17.5564 16.086 21.0608 19.3264 21.4081 19.4081C21.327 19.1891 17.9855 15.5669 16.6689 13.6512Z" fill="#FEFEFE"/>
</g>
</g>
<defs>
<clipPath id="clip0_3645_29963">
<rect width="50" height="50" fill="white" transform="matrix(-1 0 0 1 50 0)"/>
</clipPath>
<clipPath id="clip1_3645_29963">
<rect width="32" height="32" fill="white" transform="matrix(-1 0 0 1 39 5)"/>
</clipPath>
</defs>
</svg>
