<svg width="50" height="50" viewBox="0 0 50 50" fill="none" xmlns="http://www.w3.org/2000/svg">
        <circle cx="5.37" cy="36.87" r="2.739" fill="#1D8CE0" />
        <circle cx="5.37" cy="36.87" r="2.739" fill="#fff" fill-opacity=".2" />
        <circle cx="44.631" cy="36.87" r="2.739" fill="#1D8CE0" />
        <circle cx="44.631" cy="36.87" r="2.739" fill="#fff" fill-opacity=".2" />
        <circle cx="14.5" cy="43.261" r="2.739" fill="#1D8CE0" />
        <circle cx="14.5" cy="43.261" r="2.739" fill="#fff" fill-opacity=".2" />
        <circle cx="35.5" cy="43.261" r="2.739" fill="#1D8CE0" />
        <circle cx="35.5" cy="43.261" r="2.739" fill="#fff" fill-opacity=".2" />
        <path d="M33.235 22.587h-16.47L25 9.547l8.235 13.04Z" fill="#1D8CE0" />
        <path d="M33.235 22.587h-16.47L25 9.547l8.235 13.04Z" fill="#000" fill-opacity=".2" />
        <path d="M33.235 22.587h-16.47L25 9.547l8.235 13.04Z" stroke="#1D8CE0" stroke-width="3" />
        <path d="M25 6.74 4 18.608l10.043 5.478L25 6.739Z" fill="#1D8CE0" />
        <path d="M25 6.74 4 18.608l10.043 5.478L25 6.739Z" fill="#000" fill-opacity=".4" />
        <path d="M6.74 15.413 4 18.61l21-11.87-18.26 8.674Z" fill="#1D8CE0" />
        <path d="M6.74 15.413 4 18.61l21-11.87-18.26 8.674Z" fill="#000" fill-opacity=".4" />
        <path d="M34.13 25.913v14.609H15.87V25.913h18.26Z" fill="#1D8CE0" />
        <path d="M34.13 25.913v14.609H15.87V25.913h18.26Z" fill="#000" fill-opacity=".4" />
        <path d="M34.13 25.913v14.609H15.87V25.913h18.26Z" stroke="#1D8CE0" stroke-width="3.652" />
        <path d="M34.13 25.913v14.609H15.87V25.913h18.26Z" stroke="#000" stroke-opacity=".2" stroke-width="3.652" />
        <path d="M12.445 25.034v14.402l-6.847-4.357V21.3l6.847 3.735Z" fill="#1D8CE0" />
        <path d="M12.445 25.034v14.402l-6.847-4.357V21.3l6.847 3.735Z" fill="#000" fill-opacity=".6" />
        <path d="M12.445 25.034v14.402l-6.847-4.357V21.3l6.847 3.735Z" stroke="#1D8CE0" stroke-width="3.196" />
        <path d="M12.445 25.034v14.402l-6.847-4.357V21.3l6.847 3.735Z" stroke="#000" stroke-opacity=".4"
            stroke-width="3.196" />
        <path d="m25 6.74 21 11.869-10.044 5.478L25 6.739Z" fill="#1D8CE0" />
        <path d="m25 6.74 21 11.869-10.044 5.478L25 6.739Z" fill="#000" fill-opacity=".4" />
        <path d="M14.043 24.087 4 18.608 25 6.74 14.043 24.087Zm-4.7-5.787 4.033 2.2L19.5 12 9.344 18.3Z"
            fill="#1D8CE0" />
        <path d="M14.043 24.087 4 18.608 25 6.74 14.043 24.087Zm-4.7-5.787 4.033 2.2L19.5 12 9.344 18.3Z" fill="#000"
            fill-opacity=".2" />
        <path d="M35.957 24.087 46 18.608 25 6.74l10.957 17.348Zm4.7-5.787-4.033 2.2L30.5 12l10.156 6.3Z"
            fill="#1D8CE0" />
        <path d="M35.957 24.087 46 18.608 25 6.74l10.957 17.348Zm4.7-5.787-4.033 2.2L30.5 12l10.156 6.3Z" fill="#000"
            fill-opacity=".2" />
        <path d="M43.26 15.413 46 18.61 25 6.739l18.26 8.674Z" fill="#1D8CE0" />
        <path d="M43.26 15.413 46 18.61 25 6.739l18.26 8.674Z" fill="#000" fill-opacity=".4" />
        <path d="M37.555 25.034v14.402l6.847-4.357V21.3l-6.847 3.735Z" fill="#1D8CE0" />
        <path d="M37.555 25.034v14.402l6.847-4.357V21.3l-6.847 3.735Z" fill="#000" fill-opacity=".6" />
        <path d="M37.555 25.034v14.402l6.847-4.357V21.3l-6.847 3.735Z" stroke="#1D8CE0" stroke-width="3.196" />
        <path d="M37.555 25.034v14.402l6.847-4.357V21.3l-6.847 3.735Z" stroke="#000" stroke-opacity=".4"
            stroke-width="3.196" />
        <circle cx="25" cy="6.739" r="2.739" fill="#1D8CE0" />
        <circle cx="25" cy="6.739" r="2.739" fill="#fff" fill-opacity=".2" />
        <ellipse cx="23.939" cy="5.574" rx=".642" ry=".913" transform="rotate(47.15 23.94 5.574)" fill="#FEFEFE" />
    </svg>