<svg width="50" height="50" viewBox="0 0 50 50" fill="none" xmlns="http://www.w3.org/2000/svg">
<path d="M25.027 20.0583L43.7681 15.8264V43.0312L25.027 47.2631V20.0583Z" fill="#7445B8"/>
<path d="M25.027 20.0583L6.28589 15.8264V43.0312L25.027 47.2631V20.0583Z" fill="#7445B8"/>
<path d="M25.027 20.0583L6.28589 15.8264V43.0312L25.027 47.2631V20.0583Z" fill="white" fill-opacity="0.2"/>
<path d="M25.027 6.15356L44.9222 10.3854V18.8492L25.027 23.081L5.13187 18.8492V10.3854L25.027 6.15356Z" fill="#7445B8"/>
<path d="M25.027 6.15356L44.9222 10.3854V18.8492L25.027 23.081L5.13187 18.8492V10.3854L25.027 6.15356Z" fill="white" fill-opacity="0.2"/>
<path d="M25.027 2.52637L44.9222 6.75823V15.222L25.027 19.4538L5.13187 15.222V6.75823L25.027 2.52637Z" fill="#7445B8"/>
<path d="M25.027 2.52637L44.9222 6.75823V15.222L25.027 19.4538L5.13187 15.222V6.75823L25.027 2.52637Z" fill="white" fill-opacity="0.6"/>
<path d="M25.027 19.4538L5.07678 15.2219V18.8492L25.027 23.0811V19.4538Z" fill="#7445B8"/>
<path d="M25.027 19.4538L5.07678 15.2219V18.8492L25.027 23.0811V19.4538Z" fill="white" fill-opacity="0.4"/>
<path fill-rule="evenodd" clip-rule="evenodd" d="M17.1678 45.2242V17.6401L12.5222 16.4787L12.3314 16.4354V44.1277L17.1678 45.2242Z" fill="#898989"/>
<path fill-rule="evenodd" clip-rule="evenodd" d="M17.1678 45.2242V17.6401L12.5222 16.4787L12.3314 16.4354V44.1277L17.1678 45.2242Z" fill="white" fill-opacity="0.6"/>
<path fill-rule="evenodd" clip-rule="evenodd" d="M37.7226 44.1155L32.8862 45.212V17.6401L37.7226 16.431V44.1155Z" fill="#898989"/>
<path fill-rule="evenodd" clip-rule="evenodd" d="M37.7226 44.1155L32.8862 45.212V17.6401L37.7226 16.431V44.1155Z" fill="white" fill-opacity="0.4"/>
<path fill-rule="evenodd" clip-rule="evenodd" d="M12.6667 5.15547L16.8501 4.26562L25.0271 9.12761L33.204 4.26564L37.3874 5.15548L30.9901 9.17663H44.9222V12.1994H30.1932L37.818 16.733L32.7878 17.803L25.0271 12.9249L17.2663 17.803L12.2361 16.733L19.8609 12.1994H5.13184V9.17663H19.064L12.6667 5.15547Z" fill="#FEFEFE"/>
</svg>
