<svg width="51" height="50" viewBox="0 0 51 50" fill="none" xmlns="http://www.w3.org/2000/svg">
<path d="M10.66 1.99249H40.811V4.98138L41.8073 6.97397H45.7925V47.8221H12.2331C11.7087 47.8221 9.08687 47.8221 7.51377 46.2597C5.94067 44.6974 5.94067 43.135 5.94067 42.6142V6.67961C5.94067 5.63803 6.67479 4.38813 7.51377 3.55487C8.35276 2.7216 9.61124 1.99249 10.66 1.99249Z" fill="#2FC4A7"/>
<path d="M10.66 1.99249H40.811V4.98138L41.8073 6.97397H45.7925V47.8221H12.2331C11.7087 47.8221 9.08687 47.8221 7.51377 46.2597C5.94067 44.6974 5.94067 43.135 5.94067 42.6142V6.67961C5.94067 5.63803 6.67479 4.38813 7.51377 3.55487C8.35276 2.7216 9.61124 1.99249 10.66 1.99249Z" fill="black" fill-opacity="0.4"/>
<path d="M43.8 9.0662L40.8111 4.98138V39.8518H38.8185L43.8 45.8295V9.0662Z" fill="#898989"/>
<path d="M43.8 9.0662L40.8111 4.98138V39.8518H38.8185L43.8 45.8295V9.0662Z" fill="white" fill-opacity="0.2"/>
<path d="M11.0522 39.8517H38.8185L43.8 45.8295H11.0522C10.5478 45.8295 7.93335 45.0823 7.93335 42.8406C7.93335 40.599 10.5478 39.8517 11.0522 39.8517Z" fill="#898989"/>
<path d="M11.0522 39.8517H38.8185L43.8 45.8295H11.0522C10.5478 45.8295 7.93335 45.0823 7.93335 42.8406C7.93335 40.599 10.5478 39.8517 11.0522 39.8517Z" fill="white" fill-opacity="0.6"/>
<path d="M30.3414 28.2849L35.9878 29.2167L34.0196 23.8431L33.3405 25.9549L18.7461 13.8696L18.7906 11.2323L13.0797 6.50325L12.827 10.0378L9.40159 10.945L15.1125 15.6741L17.6952 15.1386L32.2896 27.224L30.3414 28.2849Z" fill="#898989"/>
<path d="M30.3414 28.2849L35.9878 29.2167L34.0196 23.8431L33.3405 25.9549L18.7461 13.8696L18.7906 11.2323L13.0797 6.50325L12.827 10.0378L9.40159 10.945L15.1125 15.6741L17.6952 15.1386L32.2896 27.224L30.3414 28.2849Z" fill="white" fill-opacity="0.95"/>
<path d="M9.23926 22.8244L10.7286 27.0214L29.7982 30.5394L9.23926 22.8244Z" fill="#898989"/>
<path d="M9.23926 22.8244L10.7286 27.0214L29.7982 30.5394L9.23926 22.8244Z" fill="white" fill-opacity="0.95"/>
<path d="M15.1701 32.2783L18.2648 35.72L33.6128 32.9078L15.1701 32.2783Z" fill="#898989"/>
<path d="M15.1701 32.2783L18.2648 35.72L33.6128 32.9078L15.1701 32.2783Z" fill="white" fill-opacity="0.95"/>
<path d="M22.7195 6.28003L32.387 21.7011L27.3075 7.0834L22.7195 6.28003Z" fill="#898989"/>
<path d="M22.7195 6.28003L32.387 21.7011L27.3075 7.0834L22.7195 6.28003Z" fill="white" fill-opacity="0.95"/>
<path d="M32.7101 10.161L38.6793 27.1717L36.9223 12.1466L32.7101 10.161Z" fill="#898989"/>
<path d="M32.7101 10.161L38.6793 27.1717L36.9223 12.1466L32.7101 10.161Z" fill="white" fill-opacity="0.95"/>
</svg>
