<svg width="50" height="50" viewBox="0 0 50 50" fill="none" xmlns="http://www.w3.org/2000/svg">
<g clip-path="url(#clip0_4546_6882)">
<path d="M9.73684 2.01379H40V5.01379L41 7.01379H45V48.0138H11.3158C10.7895 48.0138 8.15789 48.0138 6.57895 46.4456C5 44.8774 5 43.3092 5 42.7865V6.71834C5 5.67288 5.73684 4.41834 6.57895 3.58198C7.42105 2.74561 8.68421 2.01379 9.73684 2.01379Z" fill="#7445B8"/>
<path d="M43 9L40 5V40.0312H38L43 46V9Z" fill="#898989"/>
<path d="M43 9L40 5V40.0312H38L43 46V9Z" fill="white" fill-opacity="0.2"/>
<path d="M10.093 40H38.0001L43.0001 46H10.093C9.58856 46 6.97412 45.0823 6.97412 42.8406C6.97412 40.599 9.58856 40 10.093 40Z" fill="#898989"/>
<path d="M10.093 40H38.0001L43.0001 46H10.093C9.58856 46 6.97412 45.0823 6.97412 42.8406C6.97412 40.599 9.58856 40 10.093 40Z" fill="white" fill-opacity="0.6"/>
<g clip-path="url(#clip1_4546_6882)">
<path d="M8.84647 10.9909C13.6207 3.60073 18.9656 11.672 21.0413 16.6314C23.499 11.2263 29.9654 4.8558 34.3189 11.7606C38.6724 18.6655 27.9397 29.9647 20.7665 33.7385C14.8039 29.2352 4.07223 18.381 8.84647 10.9909Z" fill="#7445B8"/>
<path d="M8.84647 10.9909C13.6207 3.60073 18.9656 11.672 21.0413 16.6314C23.499 11.2263 29.9654 4.8558 34.3189 11.7606C38.6724 18.6655 27.9397 29.9647 20.7665 33.7385C14.8039 29.2352 4.07223 18.381 8.84647 10.9909Z" fill="white" fill-opacity="0.6"/>
<path d="M14.1914 13.6124C14.7609 12.5176 15.8821 11.4317 14.2336 10.8533C12.5851 10.2749 11.4608 11.9127 10.8909 13.0074C10.17 14.392 9.73431 16.3007 11.3809 16.8791C13.576 17.6501 13.6218 14.7072 14.1914 13.6124Z" fill="#FEFEFE"/>
<path d="M14.0337 18.9575C13.3155 18.6518 12.0855 18.5526 11.7799 19.2708C11.4736 19.9892 11.5175 21.2809 12.0922 21.525C12.8111 21.8302 13.913 22.227 14.3461 21.2117C14.6526 20.4932 14.5415 19.1736 14.0337 18.9575Z" fill="#FEFEFE"/>
<path d="M33.0655 17.5551H27.7447V22.8758H22.424V28.1966H27.7447V33.5174H33.0655V28.1966H38.3863V22.8758H33.0655V17.5551Z" fill="#7445B8"/>
<path d="M33.0655 17.5551H27.7447V22.8758H22.424V28.1966H27.7447V33.5174H33.0655V28.1966H38.3863V22.8758H33.0655V17.5551Z" fill="white" fill-opacity="0.95"/>
</g>
</g>
<defs>
<clipPath id="clip0_4546_6882">
<rect width="50" height="50" fill="white" transform="matrix(-1 0 0 1 50 0)"/>
</clipPath>
<clipPath id="clip1_4546_6882">
<rect width="32" height="32" fill="white" transform="matrix(-1 0 0 1 39 5)"/>
</clipPath>
</defs>
</svg>
