<svg width="50" height="50" viewBox="0 0 50 50" fill="none" xmlns="http://www.w3.org/2000/svg">
<g clip-path="url(#clip0_2221_10871)">
<path d="M23 3C22 4.16667 21.5 7.5 22 9.5C22.4819 11.4276 24.08 12.7757 25.3949 15.5M27 21C28.6667 19.6667 31.5 15.6 29.5 10M27 21C26.6623 18.636 26.0654 16.8891 25.3949 15.5M27 21C27.7534 26.274 24.5333 29.5612 22.8995 33M26 50.5C25.0981 48.5834 23.884 46.4128 23 43M22.1027 38C22.0364 37.4705 22 36.9671 22 36.5C22 35.2671 22.3648 34.1254 22.8995 33M22.1027 38C22.2202 38.9376 22.7298 41.9567 23 43M22.1027 38C23.5733 37.7701 26.2957 37.0964 28.5 35.9132M40 12.5C38.95 13.025 37.5 13.5 36.5 14.5M23 43C22.433 42.3874 21.3247 41.632 20 40.809M9 26C10.4959 28.0943 12.0455 33.5466 13 35.5M25.1599 29C25.1279 27.1667 24.4636 23.6 22.702 22M22.702 22C20.9404 20.4 20.0069 19.817 18.1324 19.5M22.702 22C21.5495 23.3333 19.3977 25 13.5 23M11.5 17C9.1 14.6 8 14 8 10.5M11.5 17C13.1715 18.6715 15.7742 19.1012 18.1324 19.5M11.5 17C9.5 16.1667 7 15 4 16M33.2488 27C33.3009 25.3541 33.5 22 34 19C34.5 16 36.5 14.5 36.5 14.5M33.2488 27C33.8325 25.5 34.5 24 36 22.5C37 21.5 37.5 21.25 39 20.5M33.2488 27C33.2086 28.2693 33.0683 29.4322 32.7816 30.5M43 16.5C42.5 17.5 41 19.5 39 20.5M39 20.5C40.3333 21.6243 43.3 22.7 46.5 21.5M18.1324 19.5C17.4216 18.1667 16 15 16 13C16 11 16.5 9.16667 17 8.5M17 39C17 39 20 32 17 27M17 39C14 37 13 35.5 13 35.5M17 39C18.0317 39.619 19.0692 40.2307 20 40.809M13 35.5C10.8759 36.1667 7.5 34.5 4.5 31.5M31.7203 33C31.5073 33.3452 31.268 33.6784 31 34C30.3792 34.7449 29.4921 35.3807 28.5 35.9132M31.7203 33C32.1959 32.2293 32.5405 31.3983 32.7816 30.5M31.7203 33C32.5334 32.3196 34.6468 31.5524 37 31.2299M43.5 32C41.7371 31.0206 39.2581 30.9205 37 31.2299M32.7816 30.5C31.8544 29.8333 30 27 30 22M36.5 14.5C35.8333 13.2558 34.2 10.3 35 7.5M20 40.809H12.5M28.5 35.9132L35 37.5M37 31.2299L39 27M25.3949 15.5L20 12M22.8995 33L28.5 30" stroke="#1D8CE0" stroke-linecap="round"/>
<path d="M23 3C22 4.16667 21.5 7.5 22 9.5C22.4819 11.4276 24.08 12.7757 25.3949 15.5M27 21C28.6667 19.6667 31.5 15.6 29.5 10M27 21C26.6623 18.636 26.0654 16.8891 25.3949 15.5M27 21C27.7534 26.274 24.5333 29.5612 22.8995 33M26 50.5C25.0981 48.5834 23.884 46.4128 23 43M22.1027 38C22.0364 37.4705 22 36.9671 22 36.5C22 35.2671 22.3648 34.1254 22.8995 33M22.1027 38C22.2202 38.9376 22.7298 41.9567 23 43M22.1027 38C23.5733 37.7701 26.2957 37.0964 28.5 35.9132M40 12.5C38.95 13.025 37.5 13.5 36.5 14.5M23 43C22.433 42.3874 21.3247 41.632 20 40.809M9 26C10.4959 28.0943 12.0455 33.5466 13 35.5M25.1599 29C25.1279 27.1667 24.4636 23.6 22.702 22M22.702 22C20.9404 20.4 20.0069 19.817 18.1324 19.5M22.702 22C21.5495 23.3333 19.3977 25 13.5 23M11.5 17C9.1 14.6 8 14 8 10.5M11.5 17C13.1715 18.6715 15.7742 19.1012 18.1324 19.5M11.5 17C9.5 16.1667 7 15 4 16M33.2488 27C33.3009 25.3541 33.5 22 34 19C34.5 16 36.5 14.5 36.5 14.5M33.2488 27C33.8325 25.5 34.5 24 36 22.5C37 21.5 37.5 21.25 39 20.5M33.2488 27C33.2086 28.2693 33.0683 29.4322 32.7816 30.5M43 16.5C42.5 17.5 41 19.5 39 20.5M39 20.5C40.3333 21.6243 43.3 22.7 46.5 21.5M18.1324 19.5C17.4216 18.1667 16 15 16 13C16 11 16.5 9.16667 17 8.5M17 39C17 39 20 32 17 27M17 39C14 37 13 35.5 13 35.5M17 39C18.0317 39.619 19.0692 40.2307 20 40.809M13 35.5C10.8759 36.1667 7.5 34.5 4.5 31.5M31.7203 33C31.5073 33.3452 31.268 33.6784 31 34C30.3792 34.7449 29.4921 35.3807 28.5 35.9132M31.7203 33C32.1959 32.2293 32.5405 31.3983 32.7816 30.5M31.7203 33C32.5334 32.3196 34.6468 31.5524 37 31.2299M43.5 32C41.7371 31.0206 39.2581 30.9205 37 31.2299M32.7816 30.5C31.8544 29.8333 30 27 30 22M36.5 14.5C35.8333 13.2558 34.2 10.3 35 7.5M20 40.809H12.5M28.5 35.9132L35 37.5M37 31.2299L39 27M25.3949 15.5L20 12M22.8995 33L28.5 30" stroke="white" stroke-opacity="0.2" stroke-linecap="round"/>
<circle cx="8" cy="10" r="5" fill="#FEFEFE" fill-opacity="0.15"/>
<circle cx="30" cy="21" r="5" fill="#FEFEFE" fill-opacity="0.15"/>
<circle cx="35" cy="8" r="5" fill="#FEFEFE" fill-opacity="0.15"/>
<circle cx="22.9545" cy="3.95455" r="3.95455" fill="#FEFEFE" fill-opacity="0.15"/>
<circle cx="43" cy="16" r="4" fill="#FEFEFE" fill-opacity="0.15"/>
<circle cx="44.0455" cy="32.0455" r="4.04545" fill="#FEFEFE" fill-opacity="0.15"/>
<circle cx="8" cy="10" r="2" fill="#FEFEFE"/>
<circle cx="4" cy="31" r="4" fill="#FEFEFE" fill-opacity="0.15"/>
<circle cx="4" cy="31" r="2" fill="#FEFEFE"/>
<circle cx="30" cy="21" r="2" fill="#FEFEFE"/>
<circle cx="35" cy="8" r="2" fill="#FEFEFE"/>
<circle cx="22.9091" cy="3.90906" r="2" fill="#FEFEFE"/>
<circle cx="43" cy="16" r="2" fill="#FEFEFE"/>
<circle cx="44" cy="32" r="2" fill="#FEFEFE"/>
<circle cx="44" cy="32" r="2" fill="#FEFEFE"/>
<circle cx="13.9545" cy="22.9545" r="3.95455" fill="#FEFEFE" fill-opacity="0.15"/>
<circle cx="13.9091" cy="22.9091" r="2" fill="#FEFEFE"/>
<circle cx="27" cy="37" r="4" fill="#FEFEFE" fill-opacity="0.15"/>
<circle cx="27" cy="37" r="2" fill="#FEFEFE"/>
</g>
<defs>
<clipPath id="clip0_2221_10871">
<rect width="50" height="50" fill="white"/>
</clipPath>
</defs>
</svg>
