<svg width="50" height="50" viewBox="0 0 50 50" fill="none" xmlns="http://www.w3.org/2000/svg">
<path d="M28 1.5C22.8 1.5 15.5 0.701754 12.5 0C12.5 2.5 11 5.5 10 11.0526C9.05982 16.2731 6 38 5 48C10 49.5 21.4 50 29 50C36.6 50 42.8333 48.8772 45 48C44.1667 39.7544 42.1 20.7368 40.5 13.1579C38.9 5.57895 37.5 2.1875 37.5 0C36.3333 0.701754 33.2 1.5 28 1.5Z" fill="#1D8CE0"/>
<path d="M28 1.5C22.8 1.5 15.5 0.701754 12.5 0C12.5 2.5 11 5.5 10 11.0526C9.05982 16.2731 6 38 5 48C10 49.5 21.4 50 29 50C36.6 50 42.8333 48.8772 45 48C44.1667 39.7544 42.1 20.7368 40.5 13.1579C38.9 5.57895 37.5 2.1875 37.5 0C36.3333 0.701754 33.2 1.5 28 1.5Z" fill="white" fill-opacity="0.2"/>
<path d="M37.5 0C35.5 0.8 31 1.33333 29 1.5C29 4 29.1525 14.5076 29.5 22.5C30 34 30 39 30.5 47C36.5 46.5 40 46 44.7 45C44.0333 38.1667 42.3 23.4 41.5 19C40.5 13.5 39.5 9 39 7C38.5 5 37.5 2 37.5 0Z" fill="#1D8CE0"/>
<path d="M37.5 0C35.5 0.8 31 1.33333 29 1.5C29 4 29.1525 14.5076 29.5 22.5C30 34 30 39 30.5 47C36.5 46.5 40 46 44.7 45C44.0333 38.1667 42.3 23.4 41.5 19C40.5 13.5 39.5 9 39 7C38.5 5 37.5 2 37.5 0Z" fill="white" fill-opacity="0.6"/>
<path d="M20 1C17.2 0.6 13.8333 0.166667 12.5 0C12.5 1.5 12.0924 3.02539 11.5 5C9.99999 10 8.38388 20 7.99999 24C7.61609 28 5.97568 39.3693 5.29999 45C8 45.5 11 46 14 46.2C16.8222 46.3881 22 47 24.5 47C25.5 41.5 26 33 26.5 26.5C27.0224 19.7083 27.5 7.5 27.5 1.5C26 1.5 22.8 1.4 20 1Z" fill="#1D8CE0"/>
<path d="M20 1C17.2 0.6 13.8333 0.166667 12.5 0C12.5 1.5 12.0924 3.02539 11.5 5C9.99999 10 8.38388 20 7.99999 24C7.61609 28 5.97568 39.3693 5.29999 45C8 45.5 11 46 14 46.2C16.8222 46.3881 22 47 24.5 47C25.5 41.5 26 33 26.5 26.5C27.0224 19.7083 27.5 7.5 27.5 1.5C26 1.5 22.8 1.4 20 1Z" fill="white" fill-opacity="0.6"/>
</svg>
