<svg width="51" height="51" viewBox="0 0 51 51" fill="none" xmlns="http://www.w3.org/2000/svg">
<path d="M23.9948 31.1678L19.8502 27.0232L1.43981 42.6706C1.05188 43.6341 1.19954 45.6739 3.27184 47.7462C5.34413 49.8185 7.3839 49.9662 8.34747 49.5782L23.9948 31.1678Z" fill="#898989"/>
<path d="M23.9948 31.1678L19.8502 27.0232L1.43981 42.6706C1.05188 43.6341 1.19954 45.6739 3.27184 47.7462C5.34413 49.8185 7.3839 49.9662 8.34747 49.5782L23.9948 31.1678Z" fill="white" fill-opacity="0.8"/>
<path fill-rule="evenodd" clip-rule="evenodd" d="M19.5049 27.3686L20.8864 11.481L31.032 1.33537C31.2191 1.14829 32.1011 0.774124 32.9748 0.774124C33.6656 0.774124 34.7017 1.11951 35.0471 1.46489L49.5532 15.971C49.8986 16.3164 50.244 17.4907 50.244 18.0433C50.244 18.5959 49.8986 19.7702 49.6827 19.9861L39.5371 30.1317L23.6495 31.5132L19.5049 27.3686Z" fill="#546DDB"/>
<path fill-rule="evenodd" clip-rule="evenodd" d="M19.5049 27.3686L20.8864 11.481L31.032 1.33537C31.2191 1.14829 32.1011 0.774124 32.9748 0.774124C33.6656 0.774124 34.7017 1.11951 35.0471 1.46489L49.5532 15.971C49.8986 16.3164 50.244 17.4907 50.244 18.0433C50.244 18.5959 49.8986 19.7702 49.6827 19.9861L39.5371 30.1317L23.6495 31.5132L19.5049 27.3686Z" fill="white" fill-opacity="0.2"/>
<path fill-rule="evenodd" clip-rule="evenodd" d="M19.5049 27.3686L20.8864 11.481L25.4598 6.90765C32.1202 7.03037 38.5426 10.578 42.0479 16.802C43.5412 19.4536 44.3447 22.3061 44.5163 25.1525L39.5371 30.1317L23.6495 31.5132L19.5049 27.3686Z" fill="#1D8CE0"/>
<path fill-rule="evenodd" clip-rule="evenodd" d="M19.5049 27.3686L20.8864 11.481L25.4598 6.90765C32.1202 7.03037 38.5426 10.578 42.0479 16.802C43.5412 19.4536 44.3447 22.3061 44.5163 25.1525L39.5371 30.1317L23.6495 31.5132L19.5049 27.3686Z" fill="white" fill-opacity="0.2"/>
<path fill-rule="evenodd" clip-rule="evenodd" d="M39.4021 30.1434C39.9073 26.7279 39.3114 23.0906 37.463 19.8085C34.0106 13.6786 27.2337 10.6427 20.8581 11.8061L19.5049 27.3686L23.6495 31.5132L39.4021 30.1434Z" fill="#2FC4A7"/>
<path fill-rule="evenodd" clip-rule="evenodd" d="M39.4021 30.1434C39.9073 26.7279 39.3114 23.0906 37.463 19.8085C34.0106 13.6786 27.2337 10.6427 20.8581 11.8061L19.5049 27.3686L23.6495 31.5132L39.4021 30.1434Z" fill="white" fill-opacity="0.2"/>
<path fill-rule="evenodd" clip-rule="evenodd" d="M34.189 30.5967C34.8699 27.84 34.5238 24.779 32.9878 22.0516C30.3824 17.4255 25.181 15.2294 20.4589 16.3969L19.5049 27.3686L23.6495 31.5132L34.189 30.5967Z" fill="#FAA21E"/>
<path fill-rule="evenodd" clip-rule="evenodd" d="M34.189 30.5967C34.8699 27.84 34.5238 24.779 32.9878 22.0516C30.3824 17.4255 25.181 15.2294 20.4589 16.3969L19.5049 27.3686L23.6495 31.5132L34.189 30.5967Z" fill="white" fill-opacity="0.4"/>
<path fill-rule="evenodd" clip-rule="evenodd" d="M28.3695 31.1028C29.1834 29.3087 29.127 27.0789 28.0303 25.1316C26.3366 22.1243 22.7807 20.8896 19.9489 22.2628L19.5049 27.3686L23.6495 31.5132L28.3695 31.1028Z" fill="#D0333D"/>
<path fill-rule="evenodd" clip-rule="evenodd" d="M28.3695 31.1028C29.1834 29.3087 29.127 27.0789 28.0303 25.1316C26.3366 22.1243 22.7807 20.8896 19.9489 22.2628L19.5049 27.3686L23.6495 31.5132L28.3695 31.1028Z" fill="white" fill-opacity="0.4"/>
<path d="M33.3201 8.71799C32.7675 8.16538 32.0537 8.14235 31.5932 8.37261L28.1394 11.8264C28.0243 12.1718 27.9322 13.0007 28.4848 13.5534C29.0374 14.106 29.8663 14.0139 30.2117 13.8987L33.6655 10.4449C33.8958 9.98439 33.8728 9.2706 33.3201 8.71799Z" fill="#898989"/>
<path d="M33.3201 8.71799C32.7675 8.16538 32.0537 8.14235 31.5932 8.37261L28.1394 11.8264C28.0243 12.1718 27.9322 13.0007 28.4848 13.5534C29.0374 14.106 29.8663 14.0139 30.2117 13.8987L33.6655 10.4449C33.8958 9.98439 33.8728 9.2706 33.3201 8.71799Z" fill="white" fill-opacity="0.8"/>
<path d="M37.8102 13.2079C37.2576 12.6553 36.5438 12.6323 36.0833 12.8625L32.6295 16.3163C32.5143 16.6617 32.4222 17.4907 32.9748 18.0433C33.5274 18.5959 34.3564 18.5038 34.7017 18.3886L38.1556 14.9348C38.3858 14.4743 38.3628 13.7605 37.8102 13.2079Z" fill="#898989"/>
<path d="M37.8102 13.2079C37.2576 12.6553 36.5438 12.6323 36.0833 12.8625L32.6295 16.3163C32.5143 16.6617 32.4222 17.4907 32.9748 18.0433C33.5274 18.5959 34.3564 18.5038 34.7017 18.3886L38.1556 14.9348C38.3858 14.4743 38.3628 13.7605 37.8102 13.2079Z" fill="white" fill-opacity="0.8"/>
<path d="M42.3001 17.698C41.7475 17.1454 41.0337 17.1224 40.5732 17.3527L37.1194 20.8065C37.0043 21.1519 36.9122 21.9808 37.4648 22.5334C38.0174 23.086 38.8463 22.9939 39.1917 22.8788L42.6455 19.425C42.8758 18.9644 42.8527 18.2507 42.3001 17.698Z" fill="#898989"/>
<path d="M42.3001 17.698C41.7475 17.1454 41.0337 17.1224 40.5732 17.3527L37.1194 20.8065C37.0043 21.1519 36.9122 21.9808 37.4648 22.5334C38.0174 23.086 38.8463 22.9939 39.1917 22.8788L42.6455 19.425C42.8758 18.9644 42.8527 18.2507 42.3001 17.698Z" fill="white" fill-opacity="0.8"/>
</svg>
