<svg width="50" height="50" viewBox="0 0 50 50" fill="none" xmlns="http://www.w3.org/2000/svg">
<g clip-path="url(#clip0_1369_8349)">
<path d="M30.0203 21.9798L35 17.5001L32.5 15.0001L28.0203 19.9798L30.0203 21.9798Z" fill="#898989"/>
<path d="M30.0203 21.9798L35 17.5001L32.5 15.0001L28.0203 19.9798L30.0203 21.9798Z" fill="white" fill-opacity="0.8"/>
<path d="M29.1149 22.8852L27.1149 20.8852L-0.0945942 47.0947L8.75352e-06 49.0001L1.00001 50.0001L2.90542 50.0947L29.1149 22.8852Z" fill="#898989"/>
<path d="M29.1149 22.8852L27.1149 20.8852L-0.0945942 47.0947L8.75352e-06 49.0001L1.00001 50.0001L2.90542 50.0947L29.1149 22.8852Z" fill="white" fill-opacity="0.8"/>
<path fill-rule="evenodd" clip-rule="evenodd" d="M41.7845 16.1071L50.1801 0.0949097L34.1678 8.4905L34.0705 11.4441C34.038 12.4286 33.2206 14.2007 33.2206 14.2007L33.8818 14.8619L42.0441 8.23089L35.2036 16.1837L35.8645 16.8446C35.8645 16.8446 37.8463 16.2369 38.8308 16.2045L41.7845 16.1071Z" fill="#546DDB"/>
<path fill-rule="evenodd" clip-rule="evenodd" d="M41.7845 16.1071L50.1801 0.0949097L34.1678 8.4905L34.0705 11.4441C34.038 12.4286 33.2206 14.2007 33.2206 14.2007L33.8818 14.8619L42.0441 8.23089L35.2036 16.1837L35.8645 16.8446C35.8645 16.8446 37.8463 16.2369 38.8308 16.2045L41.7845 16.1071Z" fill="white" fill-opacity="0.2"/>
<path fill-rule="evenodd" clip-rule="evenodd" d="M47.5252 5.15825C46.8473 4.24506 46.0461 3.42911 45.146 2.73437L34.1678 8.4905L34.0705 11.4441C34.038 12.4286 33.2206 14.2007 33.2206 14.2007L33.8818 14.8619L42.0441 8.23089L35.2036 16.1837L35.8645 16.8446C35.8645 16.8446 37.8463 16.2369 38.8308 16.2045L41.7845 16.1071L47.5252 5.15825Z" fill="#1D8CE0"/>
<path fill-rule="evenodd" clip-rule="evenodd" d="M47.5252 5.15825C46.8473 4.24506 46.0461 3.42911 45.146 2.73437L34.1678 8.4905L34.0705 11.4441C34.038 12.4286 33.2206 14.2007 33.2206 14.2007L33.8818 14.8619L42.0441 8.23089L35.2036 16.1837L35.8645 16.8446C35.8645 16.8446 37.8463 16.2369 38.8308 16.2045L41.7845 16.1071L47.5252 5.15825Z" fill="white" fill-opacity="0.2"/>
<path fill-rule="evenodd" clip-rule="evenodd" d="M45.0059 9.96314C43.9984 7.87415 42.2009 6.23894 39.9974 5.4339L34.1678 8.49046L34.0705 11.4441C34.038 12.4286 33.2206 14.2007 33.2206 14.2007L33.8818 14.8618L42.0441 8.23085L35.2036 16.1837L35.8645 16.8445C35.8645 16.8445 37.8463 16.2369 38.8308 16.2044L41.7845 16.1071L45.0059 9.96314Z" fill="#2FC4A7"/>
<path fill-rule="evenodd" clip-rule="evenodd" d="M45.0059 9.96314C43.9984 7.87415 42.2009 6.23894 39.9974 5.4339L34.1678 8.49046L34.0705 11.4441C34.038 12.4286 33.2206 14.2007 33.2206 14.2007L33.8818 14.8618L42.0441 8.23085L35.2036 16.1837L35.8645 16.8445C35.8645 16.8445 37.8463 16.2369 38.8308 16.2044L41.7845 16.1071L45.0059 9.96314Z" fill="white" fill-opacity="0.2"/>
<path fill-rule="evenodd" clip-rule="evenodd" d="M41.5616 16.1144C41.7206 15.5643 41.8077 14.9826 41.8113 14.3809C41.8211 12.7941 41.2495 11.3481 40.3023 10.256L35.2036 16.1837L35.8645 16.8445C35.8645 16.8445 37.8463 16.2369 38.8308 16.2045L41.5616 16.1144ZM39.9775 9.90978L33.8818 14.8618L33.2206 14.2007C33.2206 14.2007 34.038 12.4286 34.0705 11.4441L34.1678 8.49047L34.2629 8.44065C34.7723 8.29507 35.3084 8.21688 35.8615 8.21601C37.4609 8.21351 38.9099 8.85788 39.9775 9.90978Z" fill="#FAA21E"/>
<path fill-rule="evenodd" clip-rule="evenodd" d="M41.5616 16.1144C41.7206 15.5643 41.8077 14.9826 41.8113 14.3809C41.8211 12.7941 41.2495 11.3481 40.3023 10.256L35.2036 16.1837L35.8645 16.8445C35.8645 16.8445 37.8463 16.2369 38.8308 16.2045L41.5616 16.1144ZM39.9775 9.90978L33.8818 14.8618L33.2206 14.2007C33.2206 14.2007 34.038 12.4286 34.0705 11.4441L34.1678 8.49047L34.2629 8.44065C34.7723 8.29507 35.3084 8.21688 35.8615 8.21601C37.4609 8.21351 38.9099 8.85788 39.9775 9.90978Z" fill="white" fill-opacity="0.4"/>
<path fill-rule="evenodd" clip-rule="evenodd" d="M36.5293 16.6544C37.4259 16.2232 38.0457 15.308 38.0457 14.2534C38.0457 13.8616 37.9602 13.4905 37.8068 13.1573L35.2036 16.1837L35.8645 16.8445C35.8645 16.8445 36.1366 16.7611 36.5293 16.6544ZM37.1062 12.2423L33.8818 14.8618L33.2206 14.2007C33.2206 14.2007 33.7683 13.0134 33.9848 12.0425C34.3927 11.7848 34.8751 11.6339 35.3919 11.6299C36.0454 11.6249 36.6438 11.8556 37.1062 12.2423Z" fill="#D0333D"/>
<path fill-rule="evenodd" clip-rule="evenodd" d="M36.5293 16.6544C37.4259 16.2232 38.0457 15.308 38.0457 14.2534C38.0457 13.8616 37.9602 13.4905 37.8068 13.1573L35.2036 16.1837L35.8645 16.8445C35.8645 16.8445 36.1366 16.7611 36.5293 16.6544ZM37.1062 12.2423L33.8818 14.8618L33.2206 14.2007C33.2206 14.2007 33.7683 13.0134 33.9848 12.0425C34.3927 11.7848 34.8751 11.6339 35.3919 11.6299C36.0454 11.6249 36.6438 11.8556 37.1062 12.2423Z" fill="white" fill-opacity="0.4"/>
</g>
<defs>
<clipPath id="clip0_1369_8349">
<rect width="50" height="50" fill="white"/>
</clipPath>
</defs>
</svg>
