<svg width="51" height="51" viewBox="0 0 51 51" fill="none" xmlns="http://www.w3.org/2000/svg">
<path fill-rule="evenodd" clip-rule="evenodd" d="M31.6567 6.08766C29.4356 5.74734 27.5458 5.60991 26.832 5.60991C26.7414 5.60991 26.6422 5.6097 26.5349 5.60947C24.2503 5.60463 18.289 5.59198 13.5666 7.43655C8.6008 9.37621 1.30298 15.2289 0.591507 24.9554C0.311875 28.7783 0.702745 32.7563 1.36189 36.1671C2.01896 39.5672 2.95412 42.4622 3.79694 44.1082L5.13209 43.4246C4.37881 41.9534 3.47785 39.2109 2.83464 35.8825C2.19349 32.5648 1.81991 28.7233 2.08751 25.0649C2.74413 16.0882 9.5016 10.6347 14.1124 8.83375C18.5579 7.0973 24.2647 7.10609 26.5608 7.10962L26.832 7.10991C27.4466 7.10991 29.1749 7.23352 31.2412 7.54184L31.6567 6.08766ZM33.7902 7.99535L34.2033 6.54951C34.5708 6.62748 34.9389 6.71101 35.3042 6.80034C37.0829 7.23528 38.8535 7.82089 40.1965 8.6055C41.5077 9.37155 42.631 10.4627 42.631 11.9709C42.631 13.3412 41.9011 14.5279 40.9313 15.5386C39.9576 16.5533 38.6564 17.48 37.3291 18.3356C36.672 18.7591 35.9971 19.1723 35.3418 19.5734L35.3418 19.5734L35.3106 19.5925C34.6426 20.0015 33.9965 20.3973 33.3949 20.7878C32.1725 21.5813 31.2169 22.3014 30.6752 22.9787C29.631 24.2839 28.7493 26.6113 28.8002 28.89C28.8501 31.1245 29.7832 33.2199 32.2691 34.3248C32.3773 34.3729 32.4844 34.4189 32.5904 34.463C32.5703 32.1658 33.1479 29.9445 34.5096 28.2845C36.406 25.9727 38.5808 25.3128 40.389 25.8919C42.1458 26.4546 43.3395 28.1377 43.3395 30.0101C43.3395 31.796 42.3893 34.0831 40.4322 35.4947C38.9117 36.5914 36.8539 37.1136 34.291 36.5693C34.7305 39.0434 35.8688 41.4903 37.5132 43.2551C40.4407 46.3968 44.6183 48.0101 50.0895 48.0101V49.5101C44.3107 49.5101 39.6934 47.7951 36.4158 44.2777C34.4235 42.1397 33.1274 39.1774 32.7243 36.2631C32.7175 36.2137 32.7109 36.1643 32.7046 36.1149C32.3639 35.9931 32.0157 35.8536 31.6599 35.6955C28.5208 34.3004 27.3601 31.5913 27.3006 28.9235C27.242 26.2999 28.2353 23.6273 29.5039 22.0416C30.2121 21.1563 31.3554 20.3234 32.5783 19.5296C33.1993 19.1265 33.8625 18.7203 34.5274 18.3132L34.5518 18.2983L34.5522 18.2981C35.212 17.8941 35.8742 17.4887 36.5164 17.0748C37.8244 16.2317 39.0023 15.3823 39.849 14.5C40.6994 13.6138 41.131 12.7826 41.131 11.9709C41.131 11.297 40.6297 10.5958 39.4398 9.90066C38.2818 9.22408 36.6749 8.6797 34.9479 8.25741C34.5637 8.16347 34.1765 8.07623 33.7902 7.99535ZM39.5547 34.2781C38.3459 35.1499 36.5645 35.6406 34.1067 34.984C33.9862 32.7351 34.4943 30.6683 35.6694 29.2358C37.2949 27.2541 38.87 26.9804 39.9314 27.3204C41.0442 27.6768 41.8395 28.7654 41.8395 30.0101C41.8395 31.3415 41.0991 33.1642 39.5547 34.2781Z" fill="#FEFEFE"/>
<path fill-rule="evenodd" clip-rule="evenodd" d="M19.4423 24.2382C21.3895 18.447 23.0808 13.417 23.8395 10.6351C24.0109 10.0065 24.2002 9.37861 24.4047 8.76007H26.1785C26.0826 9.1247 25.9726 9.53395 25.855 9.97117L25.8547 9.97202C25.0742 12.8741 23.9623 17.008 24.4645 17.5102C25.0895 17.5102 28.5806 11.1529 29.4645 9.38517C30.7145 6.88517 31.3395 3.76015 30.0895 3.13515C29.623 2.9019 29.0714 3.18307 28.53 3.76007H26.5438C27.9219 1.28709 29.5044 -0.312672 30.9741 0.0515689C33.592 0.700382 33.5798 5.54444 29.6651 13.0279C28.5298 15.1982 26.7622 18.9585 24.6778 23.3931C20.6565 31.9482 15.4558 43.0125 11.3395 50.0102C13.1579 42.9284 16.5772 32.7592 19.4423 24.2382Z" fill="#546DDB"/>
<path fill-rule="evenodd" clip-rule="evenodd" d="M19.4423 24.2382C21.3895 18.447 23.0808 13.417 23.8395 10.6351C24.0109 10.0065 24.2002 9.37861 24.4047 8.76007H26.1785C26.0826 9.1247 25.9726 9.53395 25.855 9.97117L25.8547 9.97202C25.0742 12.8741 23.9623 17.008 24.4645 17.5102C25.0895 17.5102 28.5806 11.1529 29.4645 9.38517C30.7145 6.88517 31.3395 3.76015 30.0895 3.13515C29.623 2.9019 29.0714 3.18307 28.53 3.76007H26.5438C27.9219 1.28709 29.5044 -0.312672 30.9741 0.0515689C33.592 0.700382 33.5798 5.54444 29.6651 13.0279C28.5298 15.1982 26.7622 18.9585 24.6778 23.3931C20.6565 31.9482 15.4558 43.0125 11.3395 50.0102C13.1579 42.9284 16.5772 32.7592 19.4423 24.2382Z" fill="white" fill-opacity="0.2"/>
<path fill-rule="evenodd" clip-rule="evenodd" d="M19.4423 24.2382C21.3895 18.4469 23.0808 13.417 23.8395 10.6351C24.0109 10.0064 24.2002 9.37855 24.4047 8.76001H26.1785C26.0826 9.12464 25.9726 9.53389 25.855 9.97111L25.8547 9.97196C25.0742 12.874 23.9623 17.0079 24.4645 17.5101C25.0542 17.5101 28.1955 11.8506 29.2908 9.7265C29.8417 9.93712 30.3884 10.1615 30.9303 10.3995C30.5656 11.2341 30.1446 12.1112 29.6651 13.0278C28.5298 15.1981 26.7622 18.9585 24.6778 23.393C20.6565 31.9481 15.4558 43.0124 11.3395 50.0101C13.1579 42.9283 16.5772 32.7591 19.4423 24.2382Z" fill="#1D8CE0"/>
<path fill-rule="evenodd" clip-rule="evenodd" d="M19.4423 24.2382C21.3895 18.4469 23.0808 13.417 23.8395 10.6351C24.0109 10.0064 24.2002 9.37855 24.4047 8.76001H26.1785C26.0826 9.12464 25.9726 9.53389 25.855 9.97111L25.8547 9.97196C25.0742 12.874 23.9623 17.0079 24.4645 17.5101C25.0542 17.5101 28.1955 11.8506 29.2908 9.7265C29.8417 9.93712 30.3884 10.1615 30.9303 10.3995C30.5656 11.2341 30.1446 12.1112 29.6651 13.0278C28.5298 15.1981 26.7622 18.9585 24.6778 23.393C20.6565 31.9481 15.4558 43.0124 11.3395 50.0101C13.1579 42.9283 16.5772 32.7591 19.4423 24.2382Z" fill="white" fill-opacity="0.2"/>
<path fill-rule="evenodd" clip-rule="evenodd" d="M24.4142 17.4375C23.5996 17.169 22.7745 16.9398 21.9419 16.75C21.2114 18.9768 20.3549 21.5239 19.4423 24.2382C16.5772 32.7592 13.1579 42.9284 11.3395 50.0102C15.4558 43.0124 20.6565 31.9482 24.6778 23.3931C25.5133 21.6156 26.2979 19.9464 27.0113 18.4445C26.204 18.0826 25.3822 17.7619 24.5492 17.4825C24.5169 17.5007 24.4886 17.5102 24.4645 17.5102C24.4454 17.4911 24.4287 17.4668 24.4142 17.4375Z" fill="#2FC4A7"/>
<path fill-rule="evenodd" clip-rule="evenodd" d="M24.4142 17.4375C23.5996 17.169 22.7745 16.9398 21.9419 16.75C21.2114 18.9768 20.3549 21.5239 19.4423 24.2382C16.5772 32.7592 13.1579 42.9284 11.3395 50.0102C15.4558 43.0124 20.6565 31.9482 24.6778 23.3931C25.5133 21.6156 26.2979 19.9464 27.0113 18.4445C26.204 18.0826 25.3822 17.7619 24.5492 17.4825C24.5169 17.5007 24.4886 17.5102 24.4645 17.5102C24.4454 17.4911 24.4287 17.4668 24.4142 17.4375Z" fill="white" fill-opacity="0.2"/>
<path fill-rule="evenodd" clip-rule="evenodd" d="M22.9048 27.1602C21.6005 26.5947 20.243 26.1929 18.8649 25.9559C16.1302 34.096 13.0371 43.3986 11.3395 50.0102C14.8728 44.0035 19.2052 35.0005 22.9048 27.1602Z" fill="#FAA21E"/>
<path fill-rule="evenodd" clip-rule="evenodd" d="M22.9048 27.1602C21.6005 26.5947 20.243 26.1929 18.8649 25.9559C16.1302 34.096 13.0371 43.3986 11.3395 50.0102C14.8728 44.0035 19.2052 35.0005 22.9048 27.1602Z" fill="white" fill-opacity="0.4"/>
<path fill-rule="evenodd" clip-rule="evenodd" d="M18.6502 36.0493C17.7783 35.5366 16.8466 35.1596 15.8866 34.9192C14.1045 40.3794 12.4327 45.7528 11.3395 50.0102C13.5772 46.2062 16.1353 41.2004 18.6502 36.0493Z" fill="#D0333D"/>
<path fill-rule="evenodd" clip-rule="evenodd" d="M18.6502 36.0493C17.7783 35.5366 16.8466 35.1596 15.8866 34.9192C14.1045 40.3794 12.4327 45.7528 11.3395 50.0102C13.5772 46.2062 16.1353 41.2004 18.6502 36.0493Z" fill="white" fill-opacity="0.4"/>
</svg>
