<svg width="51" height="51" viewBox="0 0 51 51" fill="none" xmlns="http://www.w3.org/2000/svg">
<path d="M24.559 14.1238L23.6552 8.24875L47.6074 7.79682L46.7035 13.6719L24.559 14.1238Z" fill="#898989"/>
<path d="M24.559 14.1238L23.6552 8.24875L47.6074 7.79682L46.7035 13.6719L24.559 14.1238Z" fill="white" fill-opacity="0.95"/>
<path d="M29.5303 46.2106C23.7456 46.2106 18.9853 45.3067 17.3282 44.8548V42.1432C19.1359 42.4445 24.1071 43.0471 29.5303 43.0471C34.9534 43.0471 40.8285 41.8419 43.0881 41.2394V44.8548C40.9791 45.3067 35.3149 46.2106 29.5303 46.2106Z" fill="#898989"/>
<path d="M29.5303 46.2106C23.7456 46.2106 18.9853 45.3067 17.3282 44.8548V42.1432C19.1359 42.4445 24.1071 43.0471 29.5303 43.0471C34.9534 43.0471 40.8285 41.8419 43.0881 41.2394V44.8548C40.9791 45.3067 35.3149 46.2106 29.5303 46.2106Z" fill="white" fill-opacity="0.95"/>
<path d="M34.0496 5.08519L10.0974 5.53712L11.0012 11.4122L22.9321 11.141L22.2994 7.16406L33.7784 6.8929L34.0496 5.08519Z" fill="#898989"/>
<path d="M34.0496 5.08519L10.0974 5.53712L11.0012 11.4122L22.9321 11.141L22.2994 7.16406L33.7784 6.8929L34.0496 5.08519Z" fill="white" fill-opacity="0.95"/>
<path d="M9.64539 40.1547C5.57804 39.8836 4.67418 39.5823 3.77032 39.4316V42.1432C5.57804 42.5951 7.84321 42.9472 8.74154 43.0471C12.8089 43.499 15.2192 43.499 16.4243 43.499V40.3355C15.0685 40.3355 12.1962 40.3248 9.64539 40.1547Z" fill="#898989"/>
<path d="M9.64539 40.1547C5.57804 39.8836 4.67418 39.5823 3.77032 39.4316V42.1432C5.57804 42.5951 7.84321 42.9472 8.74154 43.0471C12.8089 43.499 15.2192 43.499 16.4243 43.499V40.3355C15.0685 40.3355 12.1962 40.3248 9.64539 40.1547Z" fill="white" fill-opacity="0.95"/>
<path fill-rule="evenodd" clip-rule="evenodd" d="M13.7127 32.6531C11.4531 32.2012 7.92355 33.3796 6.48189 34.4608C4.67418 35.8166 3.77032 38.0762 3.77032 39.432C5.57804 39.8839 10.0973 40.3359 13.7127 40.3359H16.4243C16.8762 38.5282 18.232 37.1724 20.4917 35.8166C22.4204 34.6593 24.2288 34.4682 25.3144 34.3534C25.5509 34.3284 25.7531 34.307 25.9148 34.2801L22.9321 11.1413L11.0012 11.4125L13.7127 32.6531Z" fill="#546DDB"/>
<path fill-rule="evenodd" clip-rule="evenodd" d="M13.7127 32.6531C11.4531 32.2012 7.92355 33.3796 6.48189 34.4608C4.67418 35.8166 3.77032 38.0762 3.77032 39.432C5.57804 39.8839 10.0973 40.3359 13.7127 40.3359H16.4243C16.8762 38.5282 18.232 37.1724 20.4917 35.8166C22.4204 34.6593 24.2288 34.4682 25.3144 34.3534C25.5509 34.3284 25.7531 34.307 25.9148 34.2801L22.9321 11.1413L11.0012 11.4125L13.7127 32.6531Z" fill="white" fill-opacity="0.2"/>
<path fill-rule="evenodd" clip-rule="evenodd" d="M17.5567 38.1607C13.1012 39.5868 8.35776 39.8527 3.80115 38.9698C3.97333 37.6047 4.86691 35.672 6.4819 34.4608C7.92355 33.3796 11.4531 32.2012 13.7127 32.6531L11.0012 11.4125L22.9321 11.1413L25.8562 33.8251C25.6104 34.0131 25.3622 34.1964 25.1118 34.375C24.0118 34.4945 22.3049 34.7286 20.4917 35.8166C19.2328 36.5719 18.2545 37.3273 17.5567 38.1607Z" fill="#1D8CE0"/>
<path fill-rule="evenodd" clip-rule="evenodd" d="M17.5567 38.1607C13.1012 39.5868 8.35776 39.8527 3.80115 38.9698C3.97333 37.6047 4.86691 35.672 6.4819 34.4608C7.92355 33.3796 11.4531 32.2012 13.7127 32.6531L11.0012 11.4125L22.9321 11.1413L25.8562 33.8251C25.6104 34.0131 25.3622 34.1964 25.1118 34.375C24.0118 34.4945 22.3049 34.7286 20.4917 35.8166C19.2328 36.5719 18.2545 37.3273 17.5567 38.1607Z" fill="white" fill-opacity="0.2"/>
<path fill-rule="evenodd" clip-rule="evenodd" d="M24.6691 24.6165C24.1421 25.2545 23.5701 25.8676 22.9532 26.4515C20.2319 29.0273 16.9807 30.7103 13.5667 31.5093L11.0012 11.4125L22.9321 11.1413L24.6691 24.6165Z" fill="#2FC4A7"/>
<path fill-rule="evenodd" clip-rule="evenodd" d="M24.6691 24.6165C24.1421 25.2545 23.5701 25.8676 22.9532 26.4515C20.2319 29.0273 16.9807 30.7103 13.5667 31.5093L11.0012 11.4125L22.9321 11.1413L24.6691 24.6165Z" fill="white" fill-opacity="0.2"/>
<path fill-rule="evenodd" clip-rule="evenodd" d="M22.5782 11.1493C22.6933 14.748 21.3235 18.3778 18.492 21.0579C16.7911 22.6679 14.7701 23.7389 12.6434 24.2759L11.0012 11.4125L22.5782 11.1493Z" fill="#FAA21E"/>
<path fill-rule="evenodd" clip-rule="evenodd" d="M22.5782 11.1493C22.6933 14.748 21.3235 18.3778 18.492 21.0579C16.7911 22.6679 14.7701 23.7389 12.6434 24.2759L11.0012 11.4125L22.5782 11.1493Z" fill="white" fill-opacity="0.4"/>
<path fill-rule="evenodd" clip-rule="evenodd" d="M14.5673 11.3314C15.2824 14.0078 14.545 16.9782 12.3839 19.0237C12.2635 19.1378 12.1403 19.2472 12.0147 19.3522L11.0012 11.4124L14.5673 11.3314Z" fill="#D0333D"/>
<path fill-rule="evenodd" clip-rule="evenodd" d="M14.5673 11.3314C15.2824 14.0078 14.545 16.9782 12.3839 19.0237C12.2635 19.1378 12.1403 19.2472 12.0147 19.3522L11.0012 11.4124L14.5673 11.3314Z" fill="white" fill-opacity="0.4"/>
<path fill-rule="evenodd" clip-rule="evenodd" d="M24.559 14.1243L46.7035 13.6724L43.0881 41.24C42.8689 41.2916 42.636 41.3476 42.3894 41.4069C39.7544 42.0401 35.5611 43.0478 29.9822 43.0478C24.3126 43.0478 20.5785 42.5639 18.1294 42.2466C17.8454 42.2098 17.5786 42.1752 17.3282 42.1439C17.3282 40.9388 18.0513 38.1669 20.9436 36.7208C23.836 35.2746 26.3668 35.2143 27.2706 35.365L24.559 14.1243Z" fill="#546DDB"/>
<path fill-rule="evenodd" clip-rule="evenodd" d="M24.559 14.1243L46.7035 13.6724L43.0881 41.24C42.8689 41.2916 42.636 41.3476 42.3894 41.4069C39.7544 42.0401 35.5611 43.0478 29.9822 43.0478C24.3126 43.0478 20.5785 42.5639 18.1294 42.2466C17.8454 42.2098 17.5786 42.1752 17.3282 42.1439C17.3282 40.9388 18.0513 38.1669 20.9436 36.7208C23.836 35.2746 26.3668 35.2143 27.2706 35.365L24.559 14.1243Z" fill="white" fill-opacity="0.2"/>
<path fill-rule="evenodd" clip-rule="evenodd" d="M44.2233 32.5836C43.5431 33.3972 42.808 34.1802 42.0183 34.9277C35.2007 41.3808 25.912 43.6718 17.3387 41.8759C17.4371 40.5662 18.2488 38.0681 20.9436 36.7208C23.8359 35.2746 26.3667 35.2143 27.2706 35.365L24.559 14.1243L46.7035 13.6724L44.2233 32.5836Z" fill="#1D8CE0"/>
<path fill-rule="evenodd" clip-rule="evenodd" d="M44.2233 32.5836C43.5431 33.3972 42.808 34.1802 42.0183 34.9277C35.2007 41.3808 25.912 43.6718 17.3387 41.8759C17.4371 40.5662 18.2488 38.0681 20.9436 36.7208C23.8359 35.2746 26.3667 35.2143 27.2706 35.365L24.559 14.1243L46.7035 13.6724L44.2233 32.5836Z" fill="white" fill-opacity="0.2"/>
<path fill-rule="evenodd" clip-rule="evenodd" d="M43.2005 13.7439C43.4903 19.4302 41.3778 25.2032 36.9013 29.4404C34.0885 32.1028 30.7095 33.8114 27.1698 34.5758L24.559 14.1243L43.2005 13.7439Z" fill="#2FC4A7"/>
<path fill-rule="evenodd" clip-rule="evenodd" d="M43.2005 13.7439C43.4903 19.4302 41.3778 25.2032 36.9013 29.4404C34.0885 32.1028 30.7095 33.8114 27.1698 34.5758L24.559 14.1243L43.2005 13.7439Z" fill="white" fill-opacity="0.2"/>
<path fill-rule="evenodd" clip-rule="evenodd" d="M36.5156 13.8803C36.7059 17.5627 35.3392 21.3022 32.4401 24.0463C30.6476 25.743 28.4996 26.8411 26.2469 27.3464L24.559 14.1243L36.5156 13.8803Z" fill="#FAA21E"/>
<path fill-rule="evenodd" clip-rule="evenodd" d="M36.5156 13.8803C36.7059 17.5627 35.3392 21.3022 32.4401 24.0463C30.6476 25.743 28.4996 26.8411 26.2469 27.3464L24.559 14.1243L36.5156 13.8803Z" fill="white" fill-opacity="0.4"/>
<path fill-rule="evenodd" clip-rule="evenodd" d="M28.4364 14.0452C29.2795 16.7913 28.5674 19.8968 26.332 22.0126C26.1102 22.2226 25.8793 22.4173 25.6406 22.5966L24.559 14.1243L28.4364 14.0452Z" fill="#D0333D"/>
<path fill-rule="evenodd" clip-rule="evenodd" d="M28.4364 14.0452C29.2795 16.7913 28.5674 19.8968 26.332 22.0126C26.1102 22.2226 25.8793 22.4173 25.6406 22.5966L24.559 14.1243L28.4364 14.0452Z" fill="white" fill-opacity="0.4"/>
</svg>
