<svg width="51" height="51" viewBox="0 0 51 51" fill="none" xmlns="http://www.w3.org/2000/svg">
<path fill-rule="evenodd" clip-rule="evenodd" d="M49.7815 1.1557C49.7815 1.1557 48.1196 1.22094 47.0252 1.50348C45.9425 1.783 45.1101 2.35109 44.8365 2.63362L10.2815 35.1558L11.7815 38.6558L49.7815 1.1557ZM12.7815 39.6558L16.2815 41.1558L49.1198 6.39657C49.1198 6.39657 49.7815 5.65573 49.9506 4.45283C50.1198 3.24993 50.2815 1.65573 50.2815 1.65573L12.7815 39.6558Z" fill="#546DDB"/>
<path fill-rule="evenodd" clip-rule="evenodd" d="M49.7815 1.1557C49.7815 1.1557 48.1196 1.22094 47.0252 1.50348C45.9425 1.783 45.1101 2.35109 44.8365 2.63362L10.2815 35.1558L11.7815 38.6558L49.7815 1.1557ZM12.7815 39.6558L16.2815 41.1558L49.1198 6.39657C49.1198 6.39657 49.7815 5.65573 49.9506 4.45283C50.1198 3.24993 50.2815 1.65573 50.2815 1.65573L12.7815 39.6558Z" fill="white" fill-opacity="0.2"/>
<path fill-rule="evenodd" clip-rule="evenodd" d="M42.5323 9.50818C42.8716 9.83504 43.206 10.1697 43.5352 10.5122C43.8218 10.8104 44.1022 11.1121 44.3765 11.4173L16.2815 41.1557L12.7815 39.6557L42.5323 9.50818ZM39.9436 7.23865C40.6147 7.7732 41.2709 8.33465 41.9106 8.92298L11.7815 38.6557L10.2815 35.1557L39.9436 7.23865Z" fill="#1D8CE0"/>
<path fill-rule="evenodd" clip-rule="evenodd" d="M42.5323 9.50818C42.8716 9.83504 43.206 10.1697 43.5352 10.5122C43.8218 10.8104 44.1022 11.1121 44.3765 11.4173L16.2815 41.1557L12.7815 39.6557L42.5323 9.50818ZM39.9436 7.23865C40.6147 7.7732 41.2709 8.33465 41.9106 8.92298L11.7815 38.6557L10.2815 35.1557L39.9436 7.23865Z" fill="white" fill-opacity="0.2"/>
<path fill-rule="evenodd" clip-rule="evenodd" d="M36.0957 16.0307C36.2132 16.1485 36.3299 16.2677 36.4457 16.3882C36.9967 16.9614 37.5171 17.5525 38.007 18.1594L16.2815 41.1558L12.7815 39.6558L36.0957 16.0307ZM35.3953 15.3526L11.7815 38.6558L10.2815 35.1558L33.2452 13.543C33.9859 14.1034 34.7038 14.7066 35.3953 15.3526Z" fill="#2FC4A7"/>
<path fill-rule="evenodd" clip-rule="evenodd" d="M36.0957 16.0307C36.2132 16.1485 36.3299 16.2677 36.4457 16.3882C36.9967 16.9614 37.5171 17.5525 38.007 18.1594L16.2815 41.1558L12.7815 39.6558L36.0957 16.0307ZM35.3953 15.3526L11.7815 38.6558L10.2815 35.1558L33.2452 13.543C33.9859 14.1034 34.7038 14.7066 35.3953 15.3526Z" fill="white" fill-opacity="0.2"/>
<path fill-rule="evenodd" clip-rule="evenodd" d="M29.3582 22.858C29.4611 22.96 29.5631 23.0635 29.664 23.1686C30.2856 23.8152 30.8481 24.4959 31.3516 25.2041L16.2815 41.1558L12.7815 39.6558L29.3582 22.858ZM28.552 22.1059L11.7815 38.6558L10.2815 35.1558L26.0791 20.2875C26.9423 20.8139 27.7703 21.4201 28.552 22.1059Z" fill="#FAA21E"/>
<path fill-rule="evenodd" clip-rule="evenodd" d="M29.3582 22.858C29.4611 22.96 29.5631 23.0635 29.664 23.1686C30.2856 23.8152 30.8481 24.4959 31.3516 25.2041L16.2815 41.1558L12.7815 39.6558L29.3582 22.858ZM28.552 22.1059L11.7815 38.6558L10.2815 35.1558L26.0791 20.2875C26.9423 20.8139 27.7703 21.4201 28.552 22.1059Z" fill="white" fill-opacity="0.4"/>
<path fill-rule="evenodd" clip-rule="evenodd" d="M22.1798 30.1322C22.9554 31.006 23.5574 31.9763 23.9868 32.9997L16.2815 41.1558L12.7815 39.6558L22.1798 30.1322ZM21.3061 29.2565L11.7815 38.6558L10.2815 35.1558L18.4675 27.4514C19.4843 27.8866 20.4448 28.4887 21.3061 29.2565Z" fill="#D0333D"/>
<path fill-rule="evenodd" clip-rule="evenodd" d="M22.1798 30.1322C22.9554 31.006 23.5574 31.9763 23.9868 32.9997L16.2815 41.1558L12.7815 39.6558L22.1798 30.1322ZM21.3061 29.2565L11.7815 38.6558L10.2815 35.1558L18.4675 27.4514C19.4843 27.8866 20.4448 28.4887 21.3061 29.2565Z" fill="white" fill-opacity="0.4"/>
<path d="M13.0264 38.4108C14.5512 39.9366 17.8445 41.301 19.2966 41.6643C19.5689 41.7551 20.389 42.4719 20.1134 43.2991C19.8412 44.1165 19.0243 44.1165 18.7521 44.1165L13.5366 41.9822L7.27065 47.3861L6.7717 50.6557L4.04888 50.6557L0.781512 47.3861L0.781512 44.6614L4.04888 44.1165L9.22223 37.8497L7.58854 32.6728C7.49778 32.3095 7.53408 31.5285 8.40538 31.3105C9.27668 31.0925 9.67603 31.7646 9.76679 32.1279C10.2206 33.6719 11.5016 36.885 13.0264 38.4108Z" fill="#898989"/>
<path d="M13.0264 38.4108C14.5512 39.9366 17.8445 41.301 19.2966 41.6643C19.5689 41.7551 20.389 42.4719 20.1134 43.2991C19.8412 44.1165 19.0243 44.1165 18.7521 44.1165L13.5366 41.9822L7.27065 47.3861L6.7717 50.6557L4.04888 50.6557L0.781512 47.3861L0.781512 44.6614L4.04888 44.1165L9.22223 37.8497L7.58854 32.6728C7.49778 32.3095 7.53408 31.5285 8.40538 31.3105C9.27668 31.0925 9.67603 31.7646 9.76679 32.1279C10.2206 33.6719 11.5016 36.885 13.0264 38.4108Z" fill="white" fill-opacity="0.8"/>
</svg>
