<svg width="51" height="51" viewBox="0 0 51 51" fill="none" xmlns="http://www.w3.org/2000/svg">
<line x1="43.2333" y1="7.84137" x2="49.6718" y2="14.2799" stroke="#898989" stroke-width="1.99259" stroke-linecap="round"/>
<line x1="43.2333" y1="7.84137" x2="49.6718" y2="14.2799" stroke="white" stroke-opacity="0.8" stroke-width="1.99259" stroke-linecap="round"/>
<line x1="37.8251" y1="19.777" x2="44.2636" y2="26.2155" stroke="#898989" stroke-width="1.99259" stroke-linecap="round"/>
<line x1="37.8251" y1="19.777" x2="44.2636" y2="26.2155" stroke="white" stroke-opacity="0.8" stroke-width="1.99259" stroke-linecap="round"/>
<line x1="24.0919" y1="29.5867" x2="30.5304" y2="36.0252" stroke="#898989" stroke-width="1.99259" stroke-linecap="round"/>
<line x1="24.0919" y1="29.5867" x2="30.5304" y2="36.0252" stroke="white" stroke-opacity="0.8" stroke-width="1.99259" stroke-linecap="round"/>
<line x1="19.8808" y1="31.2612" x2="26.3193" y2="37.6997" stroke="#898989" stroke-width="1.99259" stroke-linecap="round"/>
<line x1="19.8808" y1="31.2612" x2="26.3193" y2="37.6997" stroke="white" stroke-opacity="0.8" stroke-width="1.99259" stroke-linecap="round"/>
<line x1="28.0157" y1="27.6247" x2="34.4541" y2="34.0631" stroke="#898989" stroke-width="1.99259" stroke-linecap="round"/>
<line x1="28.0157" y1="27.6247" x2="34.4541" y2="34.0631" stroke="white" stroke-opacity="0.8" stroke-width="1.99259" stroke-linecap="round"/>
<line x1="31.9394" y1="25.6628" x2="38.3779" y2="32.1013" stroke="#898989" stroke-width="1.99259" stroke-linecap="round"/>
<line x1="31.9394" y1="25.6628" x2="38.3779" y2="32.1013" stroke="white" stroke-opacity="0.8" stroke-width="1.99259" stroke-linecap="round"/>
<line x1="34.8822" y1="22.7201" x2="41.3207" y2="29.1586" stroke="#898989" stroke-width="1.99259" stroke-linecap="round"/>
<line x1="34.8822" y1="22.7201" x2="41.3207" y2="29.1586" stroke="white" stroke-opacity="0.8" stroke-width="1.99259" stroke-linecap="round"/>
<line x1="39.7869" y1="15.8536" x2="46.2254" y2="22.2921" stroke="#898989" stroke-width="1.99259" stroke-linecap="round"/>
<line x1="39.7869" y1="15.8536" x2="46.2254" y2="22.2921" stroke="white" stroke-opacity="0.8" stroke-width="1.99259" stroke-linecap="round"/>
<line x1="41.7487" y1="11.9297" x2="48.1872" y2="18.3682" stroke="#898989" stroke-width="1.99259" stroke-linecap="round"/>
<line x1="41.7487" y1="11.9297" x2="48.1872" y2="18.3682" stroke="white" stroke-opacity="0.8" stroke-width="1.99259" stroke-linecap="round"/>
<path fill-rule="evenodd" clip-rule="evenodd" d="M44.3536 4.72668C47.3077 7.68077 44.6162 16.9493 36.6528 24.9127C28.238 33.3275 23.5192 33.775 19.4382 34.1619C19.0888 34.1951 18.744 34.2278 18.402 34.265C16.7347 35.9322 13.8977 39.4247 11.5029 42.3727C9.75401 44.5257 8.24092 46.3883 7.59154 47.0377C6.62993 47.9993 4.12342 49.1186 2.04255 47.0377C-0.0383217 44.9569 1.08094 42.4504 2.04255 41.4887C2.68181 40.8495 4.47936 39.4111 6.58074 37.7297C9.53703 35.3642 13.0947 32.5175 14.8746 30.7376C14.8656 26.8821 15.2125 21.3825 24.1676 12.4275C33.1226 3.47244 41.3995 1.77259 44.3536 4.72668Z" fill="#546DDB"/>
<path fill-rule="evenodd" clip-rule="evenodd" d="M44.3536 4.72668C47.3077 7.68077 44.6162 16.9493 36.6528 24.9127C28.238 33.3275 23.5192 33.775 19.4382 34.1619C19.0888 34.1951 18.744 34.2278 18.402 34.265C16.7347 35.9322 13.8977 39.4247 11.5029 42.3727C9.75401 44.5257 8.24092 46.3883 7.59154 47.0377C6.62993 47.9993 4.12342 49.1186 2.04255 47.0377C-0.0383217 44.9569 1.08094 42.4504 2.04255 41.4887C2.68181 40.8495 4.47936 39.4111 6.58074 37.7297C9.53703 35.3642 13.0947 32.5175 14.8746 30.7376C14.8656 26.8821 15.2125 21.3825 24.1676 12.4275C33.1226 3.47244 41.3995 1.77259 44.3536 4.72668Z" fill="white" fill-opacity="0.2"/>
<path fill-rule="evenodd" clip-rule="evenodd" d="M30.862 6.91443C33.5684 8.53502 36.1048 10.5358 38.3917 12.9149C39.8551 14.4375 41.1578 16.054 42.3002 17.7438C40.8798 20.1171 38.9942 22.5713 36.6528 24.9127C28.238 33.3275 23.5192 33.775 19.4382 34.1619C19.0888 34.1951 18.744 34.2278 18.402 34.265C16.7347 35.9322 13.8977 39.4247 11.5029 42.3727C9.754 44.5257 8.24092 46.3883 7.59154 47.0377C6.62993 47.9993 4.12342 49.1186 2.04255 47.0377C-0.0383217 44.9569 1.08094 42.4504 2.04255 41.4887C2.68181 40.8495 4.47936 39.4112 6.58074 37.7297C9.53703 35.3642 13.0947 32.5175 14.8746 30.7376C14.8656 26.8821 15.2125 21.3825 24.1676 12.4275C26.4702 10.1248 28.728 8.3019 30.862 6.91443Z" fill="#1D8CE0"/>
<path fill-rule="evenodd" clip-rule="evenodd" d="M30.862 6.91443C33.5684 8.53502 36.1048 10.5358 38.3917 12.9149C39.8551 14.4375 41.1578 16.054 42.3002 17.7438C40.8798 20.1171 38.9942 22.5713 36.6528 24.9127C28.238 33.3275 23.5192 33.775 19.4382 34.1619C19.0888 34.1951 18.744 34.2278 18.402 34.265C16.7347 35.9322 13.8977 39.4247 11.5029 42.3727C9.754 44.5257 8.24092 46.3883 7.59154 47.0377C6.62993 47.9993 4.12342 49.1186 2.04255 47.0377C-0.0383217 44.9569 1.08094 42.4504 2.04255 41.4887C2.68181 40.8495 4.47936 39.4112 6.58074 37.7297C9.53703 35.3642 13.0947 32.5175 14.8746 30.7376C14.8656 26.8821 15.2125 21.3825 24.1676 12.4275C26.4702 10.1248 28.728 8.3019 30.862 6.91443Z" fill="white" fill-opacity="0.2"/>
<path fill-rule="evenodd" clip-rule="evenodd" d="M23.4945 13.1106C15.195 21.6639 14.8658 26.9811 14.8746 30.7376C13.0947 32.5175 9.53703 35.3642 6.58074 37.7297C4.47936 39.4111 2.68181 40.8495 2.04255 41.4887C1.08094 42.4504 -0.0383217 44.9569 2.04255 47.0377C4.12342 49.1186 6.62993 47.9993 7.59154 47.0377C8.24092 46.3883 9.754 44.5257 11.5029 42.3727C13.8977 39.4247 16.7347 35.9322 18.402 34.265C18.744 34.2278 19.0888 34.1951 19.4382 34.1619C23.422 33.7842 28.0134 33.3488 36.0575 25.5008C34.8705 23.0891 33.2949 20.8149 31.3285 18.7691C29.0119 16.3591 26.3507 14.4718 23.4945 13.1106Z" fill="#2FC4A7"/>
<path fill-rule="evenodd" clip-rule="evenodd" d="M23.4945 13.1106C15.195 21.6639 14.8658 26.9811 14.8746 30.7376C13.0947 32.5175 9.53703 35.3642 6.58074 37.7297C4.47936 39.4111 2.68181 40.8495 2.04255 41.4887C1.08094 42.4504 -0.0383217 44.9569 2.04255 47.0377C4.12342 49.1186 6.62993 47.9993 7.59154 47.0377C8.24092 46.3883 9.754 44.5257 11.5029 42.3727C13.8977 39.4247 16.7347 35.9322 18.402 34.265C18.744 34.2278 19.0888 34.1951 19.4382 34.1619C23.422 33.7842 28.0134 33.3488 36.0575 25.5008C34.8705 23.0891 33.2949 20.8149 31.3285 18.7691C29.0119 16.3591 26.3507 14.4718 23.4945 13.1106Z" fill="white" fill-opacity="0.2"/>
<path fill-rule="evenodd" clip-rule="evenodd" d="M28.9647 31.208C28.1692 28.9591 26.8905 26.8377 25.1249 25.0009C23.0054 22.7959 20.44 21.267 17.7025 20.4208C15.0181 24.9256 14.8686 28.1904 14.8746 30.7376C13.0947 32.5175 9.53703 35.3642 6.58074 37.7297C4.47936 39.4112 2.68181 40.8495 2.04255 41.4887C1.08093 42.4504 -0.0383224 44.9569 2.04255 47.0377C4.12342 49.1186 6.62992 47.9993 7.59154 47.0377C8.24092 46.3884 9.754 44.5257 11.5029 42.3728C13.8977 39.4247 16.7347 35.9322 18.402 34.265C18.744 34.2278 19.0888 34.1951 19.4382 34.1619C22.0734 33.9121 24.9744 33.637 28.9647 31.208Z" fill="#FAA21E"/>
<path fill-rule="evenodd" clip-rule="evenodd" d="M28.9647 31.208C28.1692 28.9591 26.8905 26.8377 25.1249 25.0009C23.0054 22.7959 20.44 21.267 17.7025 20.4208C15.0181 24.9256 14.8686 28.1904 14.8746 30.7376C13.0947 32.5175 9.53703 35.3642 6.58074 37.7297C4.47936 39.4112 2.68181 40.8495 2.04255 41.4887C1.08093 42.4504 -0.0383224 44.9569 2.04255 47.0377C4.12342 49.1186 6.62992 47.9993 7.59154 47.0377C8.24092 46.3884 9.754 44.5257 11.5029 42.3728C13.8977 39.4247 16.7347 35.9322 18.402 34.265C18.744 34.2278 19.0888 34.1951 19.4382 34.1619C22.0734 33.9121 24.9744 33.637 28.9647 31.208Z" fill="white" fill-opacity="0.4"/>
<path fill-rule="evenodd" clip-rule="evenodd" d="M18.4011 34.2659C17.9795 33.5152 17.4561 32.8047 16.8306 32.1539C16.2322 31.5314 15.5744 30.999 14.8745 30.5571C14.8744 30.6177 14.8745 30.6778 14.8746 30.7376C13.0947 32.5175 9.53703 35.3642 6.58074 37.7297C4.47935 39.4112 2.68181 40.8495 2.04255 41.4887C1.26321 42.2681 0.380318 44.0622 1.18134 45.822C1.3556 46.0346 1.53966 46.242 1.73354 46.4437C2.35079 47.0859 3.03128 47.6322 3.75609 48.0821C5.3474 48.5344 6.88568 47.7436 7.59154 47.0377C8.24092 46.3883 9.754 44.5257 11.5029 42.3727C13.8973 39.4252 16.7337 35.9335 18.4011 34.2659Z" fill="#D0333D"/>
<path fill-rule="evenodd" clip-rule="evenodd" d="M18.4011 34.2659C17.9795 33.5152 17.4561 32.8047 16.8306 32.1539C16.2322 31.5314 15.5744 30.999 14.8745 30.5571C14.8744 30.6177 14.8745 30.6778 14.8746 30.7376C13.0947 32.5175 9.53703 35.3642 6.58074 37.7297C4.47935 39.4112 2.68181 40.8495 2.04255 41.4887C1.26321 42.2681 0.380318 44.0622 1.18134 45.822C1.3556 46.0346 1.53966 46.242 1.73354 46.4437C2.35079 47.0859 3.03128 47.6322 3.75609 48.0821C5.3474 48.5344 6.88568 47.7436 7.59154 47.0377C8.24092 46.3883 9.754 44.5257 11.5029 42.3727C13.8973 39.4252 16.7337 35.9335 18.4011 34.2659Z" fill="white" fill-opacity="0.4"/>
</svg>
