<svg width="51" height="51" viewBox="0 0 51 51" fill="none" xmlns="http://www.w3.org/2000/svg">
<path fill-rule="evenodd" clip-rule="evenodd" d="M48.7815 25.8889C48.7815 38.5914 38.484 48.8889 25.7815 48.8889C13.0789 48.8889 2.78149 38.5914 2.78149 25.8889C2.78149 13.1863 13.0789 2.88889 25.7815 2.88889C38.484 2.88889 48.7815 13.1863 48.7815 25.8889ZM25.7815 39.8926C33.5156 39.8926 39.7852 33.6229 39.7852 25.8889C39.7852 18.1549 33.5156 11.8852 25.7815 11.8852C18.0475 11.8852 11.7778 18.1549 11.7778 25.8889C11.7778 33.6229 18.0475 39.8926 25.7815 39.8926ZM25.7815 40.8889C34.0658 40.8889 40.7815 34.1732 40.7815 25.8889C40.7815 17.6046 34.0658 10.8889 25.7815 10.8889C17.4972 10.8889 10.7815 17.6046 10.7815 25.8889C10.7815 34.1732 17.4972 40.8889 25.7815 40.8889ZM25.7815 3.8889L22.7815 6.8889L25.7815 9.8889L28.7815 6.8889L25.7815 3.8889ZM25.7815 41.8889L22.7815 44.8889L25.7815 47.8889L28.7815 44.8889L25.7815 41.8889ZM3.78152 25.8889L6.78152 22.8889L9.78152 25.8889L6.78152 28.8889L3.78152 25.8889ZM44.7815 22.8889L41.7815 25.8889L44.7815 28.8889L47.7815 25.8889L44.7815 22.8889ZM10.2815 10.3889H14.2815V14.3889H10.2815V10.3889ZM41.2815 10.3889H37.2815V14.3889H41.2815V10.3889ZM10.2815 37.3889H14.2815V41.3889H10.2815V37.3889ZM41.2815 37.3889H37.2815V41.3889H41.2815V37.3889Z" fill="#898989"/>
<path fill-rule="evenodd" clip-rule="evenodd" d="M48.7815 25.8889C48.7815 38.5914 38.484 48.8889 25.7815 48.8889C13.0789 48.8889 2.78149 38.5914 2.78149 25.8889C2.78149 13.1863 13.0789 2.88889 25.7815 2.88889C38.484 2.88889 48.7815 13.1863 48.7815 25.8889ZM25.7815 39.8926C33.5156 39.8926 39.7852 33.6229 39.7852 25.8889C39.7852 18.1549 33.5156 11.8852 25.7815 11.8852C18.0475 11.8852 11.7778 18.1549 11.7778 25.8889C11.7778 33.6229 18.0475 39.8926 25.7815 39.8926ZM25.7815 40.8889C34.0658 40.8889 40.7815 34.1732 40.7815 25.8889C40.7815 17.6046 34.0658 10.8889 25.7815 10.8889C17.4972 10.8889 10.7815 17.6046 10.7815 25.8889C10.7815 34.1732 17.4972 40.8889 25.7815 40.8889ZM25.7815 3.8889L22.7815 6.8889L25.7815 9.8889L28.7815 6.8889L25.7815 3.8889ZM25.7815 41.8889L22.7815 44.8889L25.7815 47.8889L28.7815 44.8889L25.7815 41.8889ZM3.78152 25.8889L6.78152 22.8889L9.78152 25.8889L6.78152 28.8889L3.78152 25.8889ZM44.7815 22.8889L41.7815 25.8889L44.7815 28.8889L47.7815 25.8889L44.7815 22.8889ZM10.2815 10.3889H14.2815V14.3889H10.2815V10.3889ZM41.2815 10.3889H37.2815V14.3889H41.2815V10.3889ZM10.2815 37.3889H14.2815V41.3889H10.2815V37.3889ZM41.2815 37.3889H37.2815V41.3889H41.2815V37.3889Z" fill="white" fill-opacity="0.8"/>
<path fill-rule="evenodd" clip-rule="evenodd" d="M25.7815 39.8889C33.5135 39.8889 39.7815 33.6209 39.7815 25.8889C39.7815 18.1569 33.5135 11.8889 25.7815 11.8889C18.0495 11.8889 11.7815 18.1569 11.7815 25.8889C11.7815 33.6209 18.0495 39.8889 25.7815 39.8889Z" fill="#546DDB"/>
<path fill-rule="evenodd" clip-rule="evenodd" d="M25.7815 39.8889C33.5135 39.8889 39.7815 33.6209 39.7815 25.8889C39.7815 18.1569 33.5135 11.8889 25.7815 11.8889C18.0495 11.8889 11.7815 18.1569 11.7815 25.8889C11.7815 33.6209 18.0495 39.8889 25.7815 39.8889Z" fill="white" fill-opacity="0.2"/>
<ellipse cx="10.919" cy="10.9489" rx="10.919" ry="10.9489" transform="matrix(-0.00484889 -0.999988 -0.999922 0.0125359 36.7317 36.6694)" fill="#1D8CE0"/>
<ellipse cx="10.919" cy="10.9489" rx="10.919" ry="10.9489" transform="matrix(-0.00484889 -0.999988 -0.999922 0.0125359 36.7317 36.6694)" fill="white" fill-opacity="0.2"/>
<ellipse cx="7.91066" cy="7.95944" rx="7.91066" ry="7.95944" transform="matrix(-0.00300369 -0.999995 -0.999943 0.0106908 33.684 33.647)" fill="#2FC4A7"/>
<ellipse cx="7.91066" cy="7.95944" rx="7.91066" ry="7.95944" transform="matrix(-0.00300369 -0.999995 -0.999943 0.0106908 33.684 33.647)" fill="white" fill-opacity="0.2"/>
<ellipse cx="4.97838" cy="5.0139" rx="4.97838" ry="5.0139" transform="matrix(0.00612062 -0.999981 -0.999999 0.00156665 30.6776 30.771)" fill="#FAA21E"/>
<ellipse cx="4.97838" cy="5.0139" rx="4.97838" ry="5.0139" transform="matrix(0.00612062 -0.999981 -0.999999 0.00156665 30.6776 30.771)" fill="white" fill-opacity="0.4"/>
<ellipse cx="1.97455" cy="1.98204" rx="1.97455" ry="1.98204" transform="matrix(-4.37114e-08 -1 -0.99997 0.00768728 27.6603 27.7529)" fill="#D0333D"/>
<ellipse cx="1.97455" cy="1.98204" rx="1.97455" ry="1.98204" transform="matrix(-4.37114e-08 -1 -0.99997 0.00768728 27.6603 27.7529)" fill="white" fill-opacity="0.4"/>
</svg>
