<svg width="50" height="50" viewBox="0 0 50 50" fill="none" xmlns="http://www.w3.org/2000/svg">
<path d="M0 24H50V38C50 40.2091 48.2091 42 46 42H4C1.79086 42 0 40.2091 0 38V24Z" fill="#898989"/>
<path d="M0 24H50V38C50 40.2091 48.2091 42 46 42H4C1.79086 42 0 40.2091 0 38V24Z" fill="white" fill-opacity="0.95"/>
<path d="M50 24H0L33.5 7C36 7 40.8941 9.48142 44.5 12.5C48.5 15.8485 50 21 50 24Z" fill="#546DDB"/>
<path d="M50 24H0L33.5 7C36 7 40.8941 9.48142 44.5 12.5C48.5 15.8485 50 21 50 24Z" fill="white" fill-opacity="0.2"/>
<path d="M42 24H0L28 9.80005C30.1 9.80005 34.5 12 37.38 14.5295C40.6459 17.3979 42 21.5295 42 24Z" fill="#1D8CE0"/>
<path d="M42 24H0L28 9.80005C30.1 9.80005 34.5 12 37.38 14.5295C40.6459 17.3979 42 21.5295 42 24Z" fill="white" fill-opacity="0.2"/>
<path d="M33 24H0L22.5 12.6C24 12.5 27 14.4999 29.37 16.5588C31.9483 18.7986 33 22.0588 33 24Z" fill="#2FC4A7"/>
<path d="M33 24H0L22.5 12.6C24 12.5 27 14.4999 29.37 16.5588C31.9483 18.7986 33 22.0588 33 24Z" fill="white" fill-opacity="0.2"/>
<path d="M25 24H0L16.75 15.5C18 15.5 20.5 17 22.25 18.5882C24.1355 20.2994 25 22.5882 25 24Z" fill="#FAA21E"/>
<path d="M25 24H0L16.75 15.5C18 15.5 20.5 17 22.25 18.5882C24.1355 20.2994 25 22.5882 25 24Z" fill="white" fill-opacity="0.2"/>
<path d="M17 23.9999H0L11.39 18.2C12.24 18.2 14.0673 19.5396 15.13 20.6175C16 21.5 17 23.1175 17 23.9999Z" fill="#D0333D"/>
<path d="M17 23.9999H0L11.39 18.2C12.24 18.2 14.0673 19.5396 15.13 20.6175C16 21.5 17 23.1175 17 23.9999Z" fill="white" fill-opacity="0.4"/>
<circle cx="6.5" cy="34.5" r="2.5" fill="#546DDB"/>
<circle cx="6.5" cy="34.5" r="2.5" fill="white" fill-opacity="0.4"/>
<circle cx="14.5" cy="25.5" r="1.5" fill="#D0333D"/>
<circle cx="14.5" cy="25.5" r="1.5" fill="white" fill-opacity="0.6"/>
<circle cx="46.5" cy="38.5" r="1.5" fill="#D0333D"/>
<circle cx="46.5" cy="38.5" r="1.5" fill="white" fill-opacity="0.6"/>
<circle cx="28.5" cy="24.5" r="2.5" fill="#2FC4A7"/>
<circle cx="28.5" cy="24.5" r="2.5" fill="white" fill-opacity="0.2"/>
<circle cx="33.5" cy="39.5" r="2.5" fill="#FAA21E"/>
<circle cx="33.5" cy="39.5" r="2.5" fill="white" fill-opacity="0.4"/>
<circle cx="22" cy="32" r="4" fill="#1D8CE0"/>
<circle cx="22" cy="32" r="4" fill="white" fill-opacity="0.4"/>
<circle cx="42" cy="30" r="3" fill="#7445B8"/>
<circle cx="42" cy="30" r="3" fill="white" fill-opacity="0.4"/>
</svg>
