<svg width="51" height="51" viewBox="0 0 51 51" fill="none" xmlns="http://www.w3.org/2000/svg">
<path d="M39.5 7.5L31.5 2C28.3333 5.5 21.2 13.9 20 15.5C18.5 17.5 0.499969 46.5 0.999969 47.5C1.49997 48.5 2.99997 50 6.99997 50.5C11 51 12 50.5 12.5 50C13 49.5 12 48.5 12.5 46C13 43.5 16.5 36 18 33.5C19.5 31 26.5 23 28.5 21.5C30.1 20.3 36.6666 11.5 39.5 7.5Z" fill="#FEFEFE"/>
<path fill-rule="evenodd" clip-rule="evenodd" d="M51 18.9861L39 8.98608L27 0.986084L21 8.31942L25.375 11C24.75 12.25 24.375 14.4305 26.625 16C28.5812 17.3645 31 16.625 32.25 15.375L32.2572 15.3796C32.8042 15.7302 34.2164 16.6354 35 18.9861C35.8713 21.6 37.0985 26.6161 37.8822 29.8192C38.0578 30.5374 38.2112 31.1644 38.3333 31.6528C40.3333 30.5416 44.3333 28.3194 47 24.9861C48.8847 22.6302 50.5556 20.0972 51 18.9861Z" fill="#546DDB"/>
<path fill-rule="evenodd" clip-rule="evenodd" d="M51 18.9861L39 8.98608L27 0.986084L21 8.31942L25.375 11C24.75 12.25 24.375 14.4305 26.625 16C28.5812 17.3645 31 16.625 32.25 15.375L32.2572 15.3796C32.8042 15.7302 34.2164 16.6354 35 18.9861C35.8713 21.6 37.0985 26.6161 37.8822 29.8192C38.0578 30.5374 38.2112 31.1644 38.3333 31.6528C40.3333 30.5416 44.3333 28.3194 47 24.9861C48.8847 22.6302 50.5556 20.0972 51 18.9861Z" fill="white" fill-opacity="0.2"/>
<path fill-rule="evenodd" clip-rule="evenodd" d="M36.9579 26.0789C36.3033 23.4757 35.5744 20.7091 35.0001 18.9861C34.2165 16.6354 32.8042 15.7302 32.2573 15.3796L32.2501 15.375C31.0001 16.625 28.5813 17.3645 26.6251 16C24.3751 14.4305 24.7501 12.25 25.3751 11L21.0001 8.31942L27.0001 0.986084L39.0001 8.98608L46.9564 15.6164C45.8143 18.3397 44.0611 20.8528 41.7106 22.9363C40.2438 24.2365 38.6419 25.2829 36.9579 26.0789Z" fill="#1D8CE0"/>
<path fill-rule="evenodd" clip-rule="evenodd" d="M36.9579 26.0789C36.3033 23.4757 35.5744 20.7091 35.0001 18.9861C34.2165 16.6354 32.8042 15.7302 32.2573 15.3796L32.2501 15.375C31.0001 16.625 28.5813 17.3645 26.6251 16C24.3751 14.4305 24.7501 12.25 25.3751 11L21.0001 8.31942L27.0001 0.986084L39.0001 8.98608L46.9564 15.6164C45.8143 18.3397 44.0611 20.8528 41.7106 22.9363C40.2438 24.2365 38.6419 25.2829 36.9579 26.0789Z" fill="white" fill-opacity="0.2"/>
<path fill-rule="evenodd" clip-rule="evenodd" d="M35.3158 19.9845C35.2066 19.6238 35.1009 19.2889 35 18.9861C34.2164 16.6354 32.8041 15.7302 32.2572 15.3796L32.25 15.375C31 16.625 28.5812 17.3645 26.625 16C24.375 14.4305 24.75 12.25 25.375 11L21 8.31942L27 0.986084L39 8.98608L41.8578 11.3676C41.6311 12.0045 41.3658 12.636 41.0611 13.2589C39.6803 16.0812 37.6683 18.3604 35.3158 19.9845Z" fill="#2FC4A7"/>
<path fill-rule="evenodd" clip-rule="evenodd" d="M35.3158 19.9845C35.2066 19.6238 35.1009 19.2889 35 18.9861C34.2164 16.6354 32.8041 15.7302 32.2572 15.3796L32.25 15.375C31 16.625 28.5812 17.3645 26.625 16C24.375 14.4305 24.75 12.25 25.375 11L21 8.31942L27 0.986084L39 8.98608L41.8578 11.3676C41.6311 12.0045 41.3658 12.636 41.0611 13.2589C39.6803 16.0812 37.6683 18.3604 35.3158 19.9845Z" fill="white" fill-opacity="0.2"/>
<path fill-rule="evenodd" clip-rule="evenodd" d="M32.3413 15.4337C32.3114 15.4143 32.2833 15.3963 32.2572 15.3796L32.25 15.375C31 16.625 28.5813 17.3645 26.625 16C24.375 14.4305 24.75 12.25 25.375 11L21 8.31942L27 0.986084L37.0146 7.66249C36.7659 8.92103 36.3249 10.1761 35.6805 11.3809C34.8101 13.0079 33.6602 14.3722 32.3413 15.4337Z" fill="#FAA21E"/>
<path fill-rule="evenodd" clip-rule="evenodd" d="M32.3413 15.4337C32.3114 15.4143 32.2833 15.3963 32.2572 15.3796L32.25 15.375C31 16.625 28.5813 17.3645 26.625 16C24.375 14.4305 24.75 12.25 25.375 11L21 8.31942L27 0.986084L37.0146 7.66249C36.7659 8.92103 36.3249 10.1761 35.6805 11.3809C34.8101 13.0079 33.6602 14.3722 32.3413 15.4337Z" fill="white" fill-opacity="0.4"/>
<path fill-rule="evenodd" clip-rule="evenodd" d="M25.3062 11.1438C25.3287 11.0946 25.3517 11.0466 25.3751 11L21.0001 8.31942L27.0001 0.986084L31.0641 3.69542C31.1073 4.96981 30.8157 6.2865 30.1522 7.50224C29.08 9.4666 27.2679 10.7434 25.3062 11.1438Z" fill="#D0333D"/>
<path fill-rule="evenodd" clip-rule="evenodd" d="M25.3062 11.1438C25.3287 11.0946 25.3517 11.0466 25.3751 11L21.0001 8.31942L27.0001 0.986084L31.0641 3.69542C31.1073 4.96981 30.8157 6.2865 30.1522 7.50224C29.08 9.4666 27.2679 10.7434 25.3062 11.1438Z" fill="white" fill-opacity="0.4"/>
</svg>
