<svg width="50" height="50" viewBox="0 0 50 50" fill="none" xmlns="http://www.w3.org/2000/svg">
<path d="M5.99999 50L-1.36332e-05 44C1.178 42.2785 5.0289 37.6265 7 35.5C9.46388 32.8419 16.1165 29.3998 17.5 28C18.866 26.6178 21.6354 22.3688 22 22C22.4163 21.5788 23.873 20.6968 24.5 20.5C25.1043 20.6911 26.4505 21.5043 27.5 22.5C28.5495 23.4957 29.5318 24.9569 29.5 25.5C29.3148 26.0341 28.4406 27.6034 28 28C27.5594 28.3965 23.1963 31.289 22 32.5C20.3473 34.1728 17.3586 40.0361 14.4556 42.9733C11.9794 45.4787 7.59709 49.0037 5.99999 50Z" fill="#898989"/>
<path d="M5.99999 50L-1.36332e-05 44C1.178 42.2785 5.0289 37.6265 7 35.5C9.46388 32.8419 16.1165 29.3998 17.5 28C18.866 26.6178 21.6354 22.3688 22 22C22.4163 21.5788 23.873 20.6968 24.5 20.5C25.1043 20.6911 26.4505 21.5043 27.5 22.5C28.5495 23.4957 29.5318 24.9569 29.5 25.5C29.3148 26.0341 28.4406 27.6034 28 28C27.5594 28.3965 23.1963 31.289 22 32.5C20.3473 34.1728 17.3586 40.0361 14.4556 42.9733C11.9794 45.4787 7.59709 49.0037 5.99999 50Z" fill="white" fill-opacity="0.8"/>
<path d="M29.3938 17.2189L24.5 20.5C25.1821 20.6941 26.4483 21.5138 27.5 22.5C28.5517 23.4862 29.4637 24.8044 29.5 25.5L32.7426 20.5677C32.8464 20.1115 32.4413 19.4413 31.5 18.5C30.6628 17.6628 29.7054 17.1601 29.3938 17.2189Z" fill="#FEFEFE"/>
<path fill-rule="evenodd" clip-rule="evenodd" d="M29.3938 17.2191C30.0351 16.7944 31.1877 15.8124 31.5 15.5C31.758 15.242 31.5021 14.2081 31.269 13.2668C31.1484 12.7796 31.0339 12.3173 31 12L43 0L50 6.99999L38 19C37.6375 18.9527 37.1716 18.8232 36.6956 18.691C35.7658 18.4327 34.7975 18.1636 34.4862 18.4749C34.1739 18.7872 33.0858 19.9716 32.7426 20.5679C32.8329 20.3421 32.2384 19.2384 31.5 18.5C30.6628 17.6628 29.8545 17.2461 29.3938 17.2191Z" fill="#546DDB"/>
<path fill-rule="evenodd" clip-rule="evenodd" d="M29.3938 17.2191C30.0351 16.7944 31.1877 15.8124 31.5 15.5C31.758 15.242 31.5021 14.2081 31.269 13.2668C31.1484 12.7796 31.0339 12.3173 31 12L43 0L50 6.99999L38 19C37.6375 18.9527 37.1716 18.8232 36.6956 18.691C35.7658 18.4327 34.7975 18.1636 34.4862 18.4749C34.1739 18.7872 33.0858 19.9716 32.7426 20.5679C32.8329 20.3421 32.2384 19.2384 31.5 18.5C30.6628 17.6628 29.8545 17.2461 29.3938 17.2191Z" fill="white" fill-opacity="0.2"/>
<path fill-rule="evenodd" clip-rule="evenodd" d="M29.3938 17.2191C30.0351 16.7944 31.1877 15.8123 31.5 15.5C31.758 15.242 31.5021 14.2081 31.269 13.2667C31.1484 12.7796 31.0339 12.3173 31 12L39.0218 3.97815C42.2334 5.21091 44.7982 7.7375 46.0726 10.9274L38 19C37.6375 18.9527 37.1716 18.8232 36.6956 18.691C35.7658 18.4327 34.7975 18.1636 34.4862 18.4749C34.1739 18.7872 33.0858 19.9716 32.7426 20.5679C32.8329 20.342 32.2384 19.2384 31.5 18.5C30.6628 17.6628 29.8545 17.2461 29.3938 17.2191Z" fill="#1D8CE0"/>
<path fill-rule="evenodd" clip-rule="evenodd" d="M29.3938 17.2191C30.0351 16.7944 31.1877 15.8123 31.5 15.5C31.758 15.242 31.5021 14.2081 31.269 13.2667C31.1484 12.7796 31.0339 12.3173 31 12L39.0218 3.97815C42.2334 5.21091 44.7982 7.7375 46.0726 10.9274L38 19C37.6375 18.9527 37.1716 18.8232 36.6956 18.691C35.7658 18.4327 34.7975 18.1636 34.4862 18.4749C34.1739 18.7872 33.0858 19.9716 32.7426 20.5679C32.8329 20.342 32.2384 19.2384 31.5 18.5C30.6628 17.6628 29.8545 17.2461 29.3938 17.2191Z" fill="white" fill-opacity="0.2"/>
<path fill-rule="evenodd" clip-rule="evenodd" d="M29.3938 17.2191C30.0351 16.7944 31.1877 15.8124 31.5 15.5001C31.758 15.242 31.5021 14.2081 31.269 13.2668C31.1484 12.7797 31.0339 12.3173 31 12.0001L35.0412 7.95886C38.6628 8.42002 41.6082 11.0097 42.5618 14.4382L38 19.0001C37.6375 18.9527 37.1716 18.8233 36.6956 18.691C35.7658 18.4327 34.7975 18.1636 34.4862 18.4749C34.1739 18.7872 33.0858 19.9717 32.7426 20.5679C32.8329 20.3421 32.2384 19.2385 31.5 18.5001C30.6628 17.6629 29.8545 17.2461 29.3938 17.2191Z" fill="#2FC4A7"/>
<path fill-rule="evenodd" clip-rule="evenodd" d="M29.3938 17.2191C30.0351 16.7944 31.1877 15.8124 31.5 15.5001C31.758 15.242 31.5021 14.2081 31.269 13.2668C31.1484 12.7797 31.0339 12.3173 31 12.0001L35.0412 7.95886C38.6628 8.42002 41.6082 11.0097 42.5618 14.4382L38 19.0001C37.6375 18.9527 37.1716 18.8233 36.6956 18.691C35.7658 18.4327 34.7975 18.1636 34.4862 18.4749C34.1739 18.7872 33.0858 19.9717 32.7426 20.5679C32.8329 20.3421 32.2384 19.2385 31.5 18.5001C30.6628 17.6629 29.8545 17.2461 29.3938 17.2191Z" fill="white" fill-opacity="0.2"/>
<path fill-rule="evenodd" clip-rule="evenodd" d="M29.3938 17.2191C30.0351 16.7944 31.1877 15.8123 31.5 15.5C31.758 15.242 31.5021 14.2081 31.269 13.2667C31.1484 12.7796 31.0339 12.3173 31 12L31.6573 11.3427C32.0466 11.2603 32.4493 11.2167 32.8616 11.2161C36.1684 11.2109 38.8323 13.971 38.8114 17.3809C38.8096 17.677 38.7876 17.9682 38.7468 18.2532L38 19C37.6375 18.9527 37.1716 18.8232 36.6956 18.691C35.7658 18.4327 34.7975 18.1636 34.4862 18.4749C34.1739 18.7872 33.0858 19.9716 32.7426 20.5679C32.8329 20.342 32.2384 19.2384 31.5 18.5C30.6628 17.6628 29.8545 17.2461 29.3938 17.2191Z" fill="#FAA21E"/>
<path fill-rule="evenodd" clip-rule="evenodd" d="M29.3938 17.2191C30.0351 16.7944 31.1877 15.8123 31.5 15.5C31.758 15.242 31.5021 14.2081 31.269 13.2667C31.1484 12.7796 31.0339 12.3173 31 12L31.6573 11.3427C32.0466 11.2603 32.4493 11.2167 32.8616 11.2161C36.1684 11.2109 38.8323 13.971 38.8114 17.3809C38.8096 17.677 38.7876 17.9682 38.7468 18.2532L38 19C37.6375 18.9527 37.1716 18.8232 36.6956 18.691C35.7658 18.4327 34.7975 18.1636 34.4862 18.4749C34.1739 18.7872 33.0858 19.9716 32.7426 20.5679C32.8329 20.342 32.2384 19.2384 31.5 18.5C30.6628 17.6628 29.8545 17.2461 29.3938 17.2191Z" fill="white" fill-opacity="0.4"/>
<path fill-rule="evenodd" clip-rule="evenodd" d="M29.4129 17.2063C30.0577 16.7751 31.1907 15.8093 31.5 15.5C31.5775 15.4225 31.6086 15.275 31.6079 15.0811C31.7879 15.0436 31.974 15.0233 32.1644 15.0218C33.7305 15.0098 35 16.2789 35 17.8565C35 18.0194 34.9865 18.1793 34.9605 18.335C34.7508 18.3355 34.5853 18.3758 34.4862 18.4749C34.1739 18.7872 33.0858 19.9716 32.7426 20.5679C32.8329 20.342 32.2384 19.2384 31.5 18.5C30.6722 17.6723 29.8728 17.2555 29.4095 17.2201C29.4107 17.2155 29.4118 17.2109 29.4129 17.2063Z" fill="#D0333D"/>
<path fill-rule="evenodd" clip-rule="evenodd" d="M29.4129 17.2063C30.0577 16.7751 31.1907 15.8093 31.5 15.5C31.5775 15.4225 31.6086 15.275 31.6079 15.0811C31.7879 15.0436 31.974 15.0233 32.1644 15.0218C33.7305 15.0098 35 16.2789 35 17.8565C35 18.0194 34.9865 18.1793 34.9605 18.335C34.7508 18.3355 34.5853 18.3758 34.4862 18.4749C34.1739 18.7872 33.0858 19.9716 32.7426 20.5679C32.8329 20.342 32.2384 19.2384 31.5 18.5C30.6722 17.6723 29.8728 17.2555 29.4095 17.2201C29.4107 17.2155 29.4118 17.2109 29.4129 17.2063Z" fill="white" fill-opacity="0.4"/>
</svg>
