<svg width="51" height="51" viewBox="0 0 51 51" fill="none" xmlns="http://www.w3.org/2000/svg">
<path d="M38.699 36.0331C40.4791 36.9534 41.2042 38.2641 41.7852 39.1222L42.4336 23.1618L44.2852 19.1222L41.9712 14.3603L27.2462 13.1222L17.7852 17.241L19.7769 23.4193L29.8782 30.4556C31.0875 30.4556 31.8494 29.6951 34.2852 31.1222C35.53 31.8516 35.8417 34.5499 35.9247 35.4079C35.9265 35.4269 36.9188 35.1128 38.699 36.0331Z" fill="#898989"/>
<path d="M38.699 36.0331C40.4791 36.9534 41.2042 38.2641 41.7852 39.1222L42.4336 23.1618L44.2852 19.1222L41.9712 14.3603L27.2462 13.1222L17.7852 17.241L19.7769 23.4193L29.8782 30.4556C31.0875 30.4556 31.8494 29.6951 34.2852 31.1222C35.53 31.8516 35.8417 34.5499 35.9247 35.4079C35.9265 35.4269 36.9188 35.1128 38.699 36.0331Z" fill="black" fill-opacity="0.4"/>
<path fill-rule="evenodd" clip-rule="evenodd" d="M6.80283 28.0624C6.71567 23.4452 6.90743 13.4414 8.37178 10.3633C10.2022 6.51564 14.3861 1.89848 21.4463 0.615933C28.5066 -0.666612 32.6904 0.615933 36.8743 3.69404C41.0582 6.77215 43.9346 12.4154 44.4575 16.776C44.8759 20.2646 44.8062 37.2113 44.719 45.2485L42.1041 49.6092L40.7967 23.7018C41.5811 23.1888 43.2024 21.7523 43.4116 20.1107C43.6731 18.0586 43.1501 16.0065 41.5811 15.237C40.326 14.6214 37.9203 16.3485 36.8743 17.289C36.9615 17.9731 37.1881 19.8541 37.3973 21.9062C37.6065 23.9583 38.1818 26.0104 38.4433 26.7799L37.1358 28.3189L34.2594 27.2929V22.4192C34.2594 21.188 33.9107 18.4861 33.7364 17.289C32.429 16.434 29.1342 14.7753 26.4147 14.9805C23.0153 15.237 19.3544 16.776 19.0929 19.0846C18.8314 21.3932 20.1389 21.9062 24.3227 23.1888C27.6698 24.2148 29.9012 24.3003 30.5985 24.2148C30.9472 26.7799 31.8014 32.6796 32.429 35.7577C33.0565 38.8358 34.608 46.6166 35.3054 50.1222C32.7776 49.2672 26.5716 46.9928 21.9693 44.7355C17.3671 42.4783 13.0786 39.1778 11.5097 37.8098C11.684 36.1852 11.9281 32.6283 11.5097 31.3971C10.9867 29.858 9.94074 28.5755 9.15626 28.3189C8.52868 28.1137 7.32582 28.0624 6.80283 28.0624Z" fill="#546DDB"/>
<path fill-rule="evenodd" clip-rule="evenodd" d="M6.80283 28.0624C6.71567 23.4452 6.90743 13.4414 8.37178 10.3633C10.2022 6.51564 14.3861 1.89848 21.4463 0.615933C28.5066 -0.666612 32.6904 0.615933 36.8743 3.69404C41.0582 6.77215 43.9346 12.4154 44.4575 16.776C44.8759 20.2646 44.8062 37.2113 44.719 45.2485L42.1041 49.6092L40.7967 23.7018C41.5811 23.1888 43.2024 21.7523 43.4116 20.1107C43.6731 18.0586 43.1501 16.0065 41.5811 15.237C40.326 14.6214 37.9203 16.3485 36.8743 17.289C36.9615 17.9731 37.1881 19.8541 37.3973 21.9062C37.6065 23.9583 38.1818 26.0104 38.4433 26.7799L37.1358 28.3189L34.2594 27.2929V22.4192C34.2594 21.188 33.9107 18.4861 33.7364 17.289C32.429 16.434 29.1342 14.7753 26.4147 14.9805C23.0153 15.237 19.3544 16.776 19.0929 19.0846C18.8314 21.3932 20.1389 21.9062 24.3227 23.1888C27.6698 24.2148 29.9012 24.3003 30.5985 24.2148C30.9472 26.7799 31.8014 32.6796 32.429 35.7577C33.0565 38.8358 34.608 46.6166 35.3054 50.1222C32.7776 49.2672 26.5716 46.9928 21.9693 44.7355C17.3671 42.4783 13.0786 39.1778 11.5097 37.8098C11.684 36.1852 11.9281 32.6283 11.5097 31.3971C10.9867 29.858 9.94074 28.5755 9.15626 28.3189C8.52868 28.1137 7.32582 28.0624 6.80283 28.0624Z" fill="white" fill-opacity="0.2"/>
<path fill-rule="evenodd" clip-rule="evenodd" d="M9.76502 7.98323C9.04727 12.6185 9.41921 17.7457 11.07 22.8366C14.9009 34.6503 24.3917 42.4847 33.7737 42.4428C33.2437 39.793 32.73 37.2343 32.429 35.7577C31.8014 32.6796 30.9472 26.7799 30.5985 24.2148C29.9012 24.3003 27.6698 24.2148 24.3227 23.1888C20.1389 21.9062 18.8314 21.3932 19.0929 19.0846C19.3544 16.776 23.0153 15.237 26.4147 14.9805C29.1342 14.7753 32.429 16.434 33.7364 17.289C33.9107 18.4861 34.2594 21.188 34.2594 22.4192V27.2929L37.1358 28.3189L38.4433 26.7799C38.1818 26.0104 37.6065 23.9583 37.3973 21.9062C37.1881 19.8541 36.9615 17.9731 36.8743 17.289C37.9203 16.3485 40.326 14.6214 41.5812 15.237C43.1501 16.0065 43.6731 18.0586 43.4116 20.1107C43.2024 21.7523 41.5812 23.1888 40.7967 23.7018L41.6388 40.3886C42.7665 39.7616 43.8132 39.0056 44.7727 38.1375C44.8113 29.7743 44.7743 19.4174 44.4576 16.776C43.9346 12.4154 41.0582 6.77215 36.8743 3.69404C32.6905 0.615933 28.5066 -0.666612 21.4463 0.615933C15.8052 1.64069 12.0003 4.79427 9.76502 7.98323Z" fill="#1D8CE0"/>
<path fill-rule="evenodd" clip-rule="evenodd" d="M9.76502 7.98323C9.04727 12.6185 9.41921 17.7457 11.07 22.8366C14.9009 34.6503 24.3917 42.4847 33.7737 42.4428C33.2437 39.793 32.73 37.2343 32.429 35.7577C31.8014 32.6796 30.9472 26.7799 30.5985 24.2148C29.9012 24.3003 27.6698 24.2148 24.3227 23.1888C20.1389 21.9062 18.8314 21.3932 19.0929 19.0846C19.3544 16.776 23.0153 15.237 26.4147 14.9805C29.1342 14.7753 32.429 16.434 33.7364 17.289C33.9107 18.4861 34.2594 21.188 34.2594 22.4192V27.2929L37.1358 28.3189L38.4433 26.7799C38.1818 26.0104 37.6065 23.9583 37.3973 21.9062C37.1881 19.8541 36.9615 17.9731 36.8743 17.289C37.9203 16.3485 40.326 14.6214 41.5812 15.237C43.1501 16.0065 43.6731 18.0586 43.4116 20.1107C43.2024 21.7523 41.5812 23.1888 40.7967 23.7018L41.6388 40.3886C42.7665 39.7616 43.8132 39.0056 44.7727 38.1375C44.8113 29.7743 44.7743 19.4174 44.4576 16.776C43.9346 12.4154 41.0582 6.77215 36.8743 3.69404C32.6905 0.615933 28.5066 -0.666612 21.4463 0.615933C15.8052 1.64069 12.0003 4.79427 9.76502 7.98323Z" fill="white" fill-opacity="0.2"/>
<path fill-rule="evenodd" clip-rule="evenodd" d="M16.7993 2.08373C15.0985 6.43743 14.7312 11.7923 16.0924 17.2238C18.4131 26.4838 25.0412 33.1064 32.1009 34.019C31.5316 30.8121 30.8892 26.3539 30.5985 24.2148C29.9012 24.3003 27.6698 24.2148 24.3227 23.1888C20.1389 21.9062 18.8314 21.3932 19.0929 19.0846C19.3544 16.776 23.0153 15.237 26.4146 14.9805C29.1341 14.7753 32.4289 16.434 33.7364 17.289C33.9107 18.4861 34.2594 21.188 34.2594 22.4192V27.2929L37.1358 28.3189L38.4432 26.7799C38.1817 26.0104 37.6065 23.9583 37.3973 21.9062C37.1881 19.8541 36.9614 17.9731 36.8743 17.289C37.9202 16.3485 40.326 14.6214 41.5811 15.237C43.1501 16.0065 43.673 18.0586 43.4116 20.1107C43.2024 21.7523 41.5811 23.1888 40.7966 23.7018L41.2002 31.6975C42.5699 30.7064 43.7688 29.4458 44.771 27.9763C44.7394 22.8448 44.6502 18.3828 44.4575 16.776C43.9345 12.4154 41.0581 6.77215 36.8743 3.69404C32.6904 0.615933 28.5066 -0.666612 21.4463 0.615933C19.7298 0.927751 18.1833 1.43668 16.7993 2.08373Z" fill="#2FC4A7"/>
<path fill-rule="evenodd" clip-rule="evenodd" d="M16.7993 2.08373C15.0985 6.43743 14.7312 11.7923 16.0924 17.2238C18.4131 26.4838 25.0412 33.1064 32.1009 34.019C31.5316 30.8121 30.8892 26.3539 30.5985 24.2148C29.9012 24.3003 27.6698 24.2148 24.3227 23.1888C20.1389 21.9062 18.8314 21.3932 19.0929 19.0846C19.3544 16.776 23.0153 15.237 26.4146 14.9805C29.1341 14.7753 32.4289 16.434 33.7364 17.289C33.9107 18.4861 34.2594 21.188 34.2594 22.4192V27.2929L37.1358 28.3189L38.4432 26.7799C38.1817 26.0104 37.6065 23.9583 37.3973 21.9062C37.1881 19.8541 36.9614 17.9731 36.8743 17.289C37.9202 16.3485 40.326 14.6214 41.5811 15.237C43.1501 16.0065 43.673 18.0586 43.4116 20.1107C43.2024 21.7523 41.5811 23.1888 40.7966 23.7018L41.2002 31.6975C42.5699 30.7064 43.7688 29.4458 44.771 27.9763C44.7394 22.8448 44.6502 18.3828 44.4575 16.776C43.9345 12.4154 41.0581 6.77215 36.8743 3.69404C32.6904 0.615933 28.5066 -0.666612 21.4463 0.615933C19.7298 0.927751 18.1833 1.43668 16.7993 2.08373Z" fill="white" fill-opacity="0.2"/>
<path fill-rule="evenodd" clip-rule="evenodd" d="M43.9854 14.4363C42.9084 10.5534 40.3399 6.24372 36.8743 3.69404C33.1076 0.922847 29.3409 -0.393 23.4753 0.308032C22.1193 3.79505 21.5799 8.26869 22.1624 13.0262C22.2932 14.0943 22.4534 15.0048 22.6471 15.7928C23.8087 15.3574 25.1303 15.0774 26.4147 14.9805C29.1342 14.7753 32.429 16.434 33.7364 17.289C33.9108 18.4861 34.2594 21.188 34.2594 22.4192V27.2929L37.1358 28.3189L38.4433 26.7799C38.1818 26.0104 37.6065 23.9583 37.3973 21.9062C37.1881 19.8541 36.9615 17.9731 36.8743 17.289C37.9203 16.3485 40.326 14.6214 41.5812 15.237C42.5918 15.7327 43.1684 16.7605 43.3809 17.9777C43.6934 16.9184 43.9073 15.7619 43.9854 14.4363ZM30.6007 24.2306C30.6 24.2253 30.5992 24.2201 30.5985 24.2148C30.5933 24.2154 30.5879 24.2161 30.5825 24.2167C30.5886 24.2213 30.5946 24.226 30.6007 24.2306Z" fill="#FAA21E"/>
<path fill-rule="evenodd" clip-rule="evenodd" d="M43.9854 14.4363C42.9084 10.5534 40.3399 6.24372 36.8743 3.69404C33.1076 0.922847 29.3409 -0.393 23.4753 0.308032C22.1193 3.79505 21.5799 8.26869 22.1624 13.0262C22.2932 14.0943 22.4534 15.0048 22.6471 15.7928C23.8087 15.3574 25.1303 15.0774 26.4147 14.9805C29.1342 14.7753 32.429 16.434 33.7364 17.289C33.9108 18.4861 34.2594 21.188 34.2594 22.4192V27.2929L37.1358 28.3189L38.4433 26.7799C38.1818 26.0104 37.6065 23.9583 37.3973 21.9062C37.1881 19.8541 36.9615 17.9731 36.8743 17.289C37.9203 16.3485 40.326 14.6214 41.5812 15.237C42.5918 15.7327 43.1684 16.7605 43.3809 17.9777C43.6934 16.9184 43.9073 15.7619 43.9854 14.4363ZM30.6007 24.2306C30.6 24.2253 30.5992 24.2201 30.5985 24.2148C30.5933 24.2154 30.5879 24.2161 30.5825 24.2167C30.5886 24.2213 30.5946 24.226 30.6007 24.2306Z" fill="white" fill-opacity="0.4"/>
<path fill-rule="evenodd" clip-rule="evenodd" d="M29.5519 8.97435C31.1862 12.6338 34.4468 14.218 37.3536 12.9465C39.4003 12.0512 40.5173 9.80466 40.4287 7.27615C39.3978 5.90579 38.2019 4.67078 36.8743 3.69405C34.9057 2.24571 32.937 1.1949 30.6688 0.621795C29.0692 2.50583 28.2169 5.98527 29.5519 8.97435Z" fill="#D0333D"/>
<path fill-rule="evenodd" clip-rule="evenodd" d="M29.5519 8.97435C31.1862 12.6338 34.4468 14.218 37.3536 12.9465C39.4003 12.0512 40.5173 9.80466 40.4287 7.27615C39.3978 5.90579 38.2019 4.67078 36.8743 3.69405C34.9057 2.24571 32.937 1.1949 30.6688 0.621795C29.0692 2.50583 28.2169 5.98527 29.5519 8.97435Z" fill="white" fill-opacity="0.4"/>
</svg>
