<svg width="51" height="51" viewBox="0 0 51 51" fill="none" xmlns="http://www.w3.org/2000/svg">
<path d="M28.0433 22.9967C27.4893 22.4427 26.7085 21.4462 26.474 21.1037L10.1295 37.4482L13.5918 40.9106L29.9363 24.5661C29.5361 24.2738 28.5973 23.5507 28.0433 22.9967Z" fill="#898989"/>
<path d="M28.0433 22.9967C27.4893 22.4427 26.7085 21.4462 26.474 21.1037L10.1295 37.4482L13.5918 40.9106L29.9363 24.5661C29.5361 24.2738 28.5973 23.5507 28.0433 22.9967Z" fill="white" fill-opacity="0.8"/>
<path d="M13.637 42.2504L8.78968 37.4031L0.781497 45.4113L0.781496 47.4113L3.7815 50.4113L5.7815 50.4113L13.637 42.2504Z" fill="#898989"/>
<path d="M13.637 42.2504L8.78968 37.4031L0.781497 45.4113L0.781496 47.4113L3.7815 50.4113L5.7815 50.4113L13.637 42.2504Z" fill="white" fill-opacity="0.8"/>
<path fill-rule="evenodd" clip-rule="evenodd" d="M35.8889 0.794556L37.6833 9.44042H34.0944L35.8889 0.794556ZM42.2815 14.4974V18.2494L50.78 15.9113L42.2815 14.4974ZM28.8743 18.2494L29.0374 14.4974L21.5334 16.455L28.8743 18.2494ZM33.7682 23.1433H37.905L35.8888 30.8104L33.7682 23.1433ZM41.9246 23.7958L43.7191 22.0014L46.4923 26.4059L41.9246 23.7958ZM29.8531 8.13539L28.0586 9.92981L25.2854 5.19906L29.8531 8.13539ZM29.8531 9.76668C31.0276 8.59215 32.6344 8.18976 33.1237 8.13539C32.9062 8.67915 32.6275 9.92981 33.28 10.5823C34.0956 11.398 37.5201 11.5611 38.4989 10.5823C39.2496 9.83167 38.7609 8.62123 38.5276 8.04337L38.4989 7.97226C39.2058 8.35289 40.848 9.34254 41.7615 10.2561C42.6182 11.1127 43.2071 12.4189 43.5013 13.0714L43.5559 13.1924L43.5527 13.1917C43.0079 13.0828 41.9312 12.8674 41.28 13.5187C40.4643 14.3343 40.4482 18.0795 41.28 18.9113C42.0983 19.7296 42.6281 19.5585 43.1809 19.3799C43.3037 19.3403 43.4275 19.3003 43.5559 19.2707C43.5366 19.3274 43.5172 19.3859 43.4973 19.4461C43.2871 20.0821 43.0122 20.9138 41.9246 22.0014C41.0654 22.8607 40.2285 23.386 39.5431 23.8162L39.5431 23.8162C39.2788 23.9821 39.037 24.1339 38.8252 24.2852C38.8252 24.1578 38.8326 24.0068 38.8408 23.8424C38.8743 23.1645 38.919 22.2584 38.4989 21.8383C37.8464 21.1858 33.7682 21.0226 32.9525 21.8383C32.3 22.4908 32.4088 23.8502 32.6263 24.2852C32.0825 24.1765 30.7013 23.6653 29.5268 22.4908C28.3523 21.3163 27.8411 19.9351 27.7324 19.3913C28.1674 19.5001 29.2005 19.5545 29.8531 18.9019C30.6687 18.0863 30.6687 14.1712 30.0162 13.5187C29.4942 12.9966 28.2761 13.0837 27.7324 13.1924C27.9499 12.5399 28.6785 10.9412 29.8531 9.76668ZM41.5984 8.46165L43.5559 10.4192L45.8398 6.17783L41.5984 8.46165ZM33.9313 18.0864C34.8322 18.9874 36.2929 18.9874 37.1939 18.0864C38.0948 17.1855 38.0948 15.7248 37.1939 14.8238C36.2929 13.9229 34.8322 13.9229 33.9313 14.8238C33.0303 15.7248 33.0303 17.1855 33.9313 18.0864Z" fill="#546DDB"/>
<path fill-rule="evenodd" clip-rule="evenodd" d="M35.8889 0.794556L37.6833 9.44042H34.0944L35.8889 0.794556ZM42.2815 14.4974V18.2494L50.78 15.9113L42.2815 14.4974ZM28.8743 18.2494L29.0374 14.4974L21.5334 16.455L28.8743 18.2494ZM33.7682 23.1433H37.905L35.8888 30.8104L33.7682 23.1433ZM41.9246 23.7958L43.7191 22.0014L46.4923 26.4059L41.9246 23.7958ZM29.8531 8.13539L28.0586 9.92981L25.2854 5.19906L29.8531 8.13539ZM29.8531 9.76668C31.0276 8.59215 32.6344 8.18976 33.1237 8.13539C32.9062 8.67915 32.6275 9.92981 33.28 10.5823C34.0956 11.398 37.5201 11.5611 38.4989 10.5823C39.2496 9.83167 38.7609 8.62123 38.5276 8.04337L38.4989 7.97226C39.2058 8.35289 40.848 9.34254 41.7615 10.2561C42.6182 11.1127 43.2071 12.4189 43.5013 13.0714L43.5559 13.1924L43.5527 13.1917C43.0079 13.0828 41.9312 12.8674 41.28 13.5187C40.4643 14.3343 40.4482 18.0795 41.28 18.9113C42.0983 19.7296 42.6281 19.5585 43.1809 19.3799C43.3037 19.3403 43.4275 19.3003 43.5559 19.2707C43.5366 19.3274 43.5172 19.3859 43.4973 19.4461C43.2871 20.0821 43.0122 20.9138 41.9246 22.0014C41.0654 22.8607 40.2285 23.386 39.5431 23.8162L39.5431 23.8162C39.2788 23.9821 39.037 24.1339 38.8252 24.2852C38.8252 24.1578 38.8326 24.0068 38.8408 23.8424C38.8743 23.1645 38.919 22.2584 38.4989 21.8383C37.8464 21.1858 33.7682 21.0226 32.9525 21.8383C32.3 22.4908 32.4088 23.8502 32.6263 24.2852C32.0825 24.1765 30.7013 23.6653 29.5268 22.4908C28.3523 21.3163 27.8411 19.9351 27.7324 19.3913C28.1674 19.5001 29.2005 19.5545 29.8531 18.9019C30.6687 18.0863 30.6687 14.1712 30.0162 13.5187C29.4942 12.9966 28.2761 13.0837 27.7324 13.1924C27.9499 12.5399 28.6785 10.9412 29.8531 9.76668ZM41.5984 8.46165L43.5559 10.4192L45.8398 6.17783L41.5984 8.46165ZM33.9313 18.0864C34.8322 18.9874 36.2929 18.9874 37.1939 18.0864C38.0948 17.1855 38.0948 15.7248 37.1939 14.8238C36.2929 13.9229 34.8322 13.9229 33.9313 14.8238C33.0303 15.7248 33.0303 17.1855 33.9313 18.0864Z" fill="white" fill-opacity="0.4"/>
<path d="M28.8743 18.2494L29.0374 14.4974L21.5335 16.455L28.8743 18.2494Z" fill="#D0333D"/>
<path d="M28.8743 18.2494L29.0374 14.4974L21.5335 16.455L28.8743 18.2494Z" fill="white" fill-opacity="0.4"/>
<path d="M37.6833 9.44042L35.8889 0.794556L34.0945 9.44042L37.6833 9.44042Z" fill="#FAA21E"/>
<path d="M37.6833 9.44042L35.8889 0.794556L34.0945 9.44042L37.6833 9.44042Z" fill="white" fill-opacity="0.4"/>
<path d="M42.2815 18.2495V14.4975L50.78 15.9114L42.2815 18.2495Z" fill="#2FC4A7"/>
<path d="M42.2815 18.2495V14.4975L50.78 15.9114L42.2815 18.2495Z" fill="white" fill-opacity="0.2"/>
<path d="M37.905 23.1432L33.7682 23.1432L35.8889 30.8103L37.905 23.1432Z" fill="#1D8CE0"/>
<path d="M37.905 23.1432L33.7682 23.1432L35.8889 30.8103L37.905 23.1432Z" fill="white" fill-opacity="0.2"/>
<path d="M28.0587 9.92983L29.8531 8.1354L25.2855 5.19907L28.0587 9.92983Z" fill="#546DDB"/>
<path d="M43.556 10.419L41.5984 8.46144L45.8398 6.17763L43.556 10.419Z" fill="#7445B8"/>
<path d="M43.556 10.419L41.5984 8.46144L45.8398 6.17763L43.556 10.419Z" fill="white" fill-opacity="0.2"/>
<path d="M41.9247 23.796L43.7191 22.0016L46.4923 26.4061L41.9247 23.796Z" fill="#FAA21E"/>
</svg>
