<svg width="51" height="51" viewBox="0 0 51 51" fill="none" xmlns="http://www.w3.org/2000/svg">
<path d="M18.3695 30.0041C18.0543 26.9755 19.2257 24.6162 19.8347 24.1796L15.1776 24.5599L11.911 30.0967C11.983 30.7601 13.7157 33.8132 15.4961 35.8271C17.8257 38.4624 20.1261 40.4119 21.1753 41.1651L22.75 39.8851C20.9095 37.2532 18.6238 32.4482 18.3695 30.0041Z" fill="#FAA21E"/>
<path d="M18.3695 30.0041C18.0543 26.9755 19.2257 24.6162 19.8347 24.1796L15.1776 24.5599L11.911 30.0967C11.983 30.7601 13.7157 33.8132 15.4961 35.8271C17.8257 38.4624 20.1261 40.4119 21.1753 41.1651L22.75 39.8851C20.9095 37.2532 18.6238 32.4482 18.3695 30.0041Z" fill="white" fill-opacity="0.95"/>
<ellipse cx="39.0269" cy="21.9645" rx="3" ry="20" fill="#FAA21E"/>
<ellipse cx="39.0269" cy="21.9645" rx="3" ry="20" fill="white" fill-opacity="0.95"/>
<path fill-rule="evenodd" clip-rule="evenodd" d="M38.7399 2.99453C37.8789 6.02908 36.1561 12.1013 36.0337 20.9645H41.1529C41.5969 19.2393 43.163 17.9645 45.0269 17.9645C47.236 17.9645 49.0269 19.7554 49.0269 21.9645C49.0269 24.1737 47.236 25.9645 45.0269 25.9645C43.3482 25.9645 41.911 24.9304 41.3176 23.4645H36.0423C36.2442 33.2397 38.3657 39.9422 39.0269 41.9645C36.2359 41.9645 33.0123 38.0699 30.5636 35.1116L30.5632 35.1111C30.3799 34.8897 30.201 34.6735 30.0269 34.4645C27.5269 31.4645 24.4019 25.4743 24.4019 25.4743C24.0984 25.4743 23.7917 25.4728 23.4833 25.4712C20.0865 25.4544 16.4744 25.4365 14.506 27.4351C12.5019 29.4698 12.5092 31.8201 12.5241 36.6102C12.5255 37.0413 12.5269 37.4923 12.5269 37.9645C12.5269 41.8046 12.9738 46.0858 13.2544 48.7741C13.3556 49.7427 13.4351 50.5045 13.4644 50.9645H2.02686C2.02686 37.9647 3.52686 29.4647 7.02686 24.9647C10.5269 20.4647 12.506 19.6676 14.5269 18.9645C16.5477 18.2614 24.4019 18.4646 24.4019 18.4646V18.6116C24.4019 18.6116 28.1519 11.9645 30.0269 9.46453C31.9019 6.96453 36.0269 1.96454 39.0269 1.96453C38.9494 2.25604 38.852 2.59956 38.7399 2.99453Z" fill="#546DDB"/>
<path fill-rule="evenodd" clip-rule="evenodd" d="M38.7399 2.99453C37.8789 6.02908 36.1561 12.1013 36.0337 20.9645H41.1529C41.5969 19.2393 43.163 17.9645 45.0269 17.9645C47.236 17.9645 49.0269 19.7554 49.0269 21.9645C49.0269 24.1737 47.236 25.9645 45.0269 25.9645C43.3482 25.9645 41.911 24.9304 41.3176 23.4645H36.0423C36.2442 33.2397 38.3657 39.9422 39.0269 41.9645C36.2359 41.9645 33.0123 38.0699 30.5636 35.1116L30.5632 35.1111C30.3799 34.8897 30.201 34.6735 30.0269 34.4645C27.5269 31.4645 24.4019 25.4743 24.4019 25.4743C24.0984 25.4743 23.7917 25.4728 23.4833 25.4712C20.0865 25.4544 16.4744 25.4365 14.506 27.4351C12.5019 29.4698 12.5092 31.8201 12.5241 36.6102C12.5255 37.0413 12.5269 37.4923 12.5269 37.9645C12.5269 41.8046 12.9738 46.0858 13.2544 48.7741C13.3556 49.7427 13.4351 50.5045 13.4644 50.9645H2.02686C2.02686 37.9647 3.52686 29.4647 7.02686 24.9647C10.5269 20.4647 12.506 19.6676 14.5269 18.9645C16.5477 18.2614 24.4019 18.4646 24.4019 18.4646V18.6116C24.4019 18.6116 28.1519 11.9645 30.0269 9.46453C31.9019 6.96453 36.0269 1.96454 39.0269 1.96453C38.9494 2.25604 38.852 2.59956 38.7399 2.99453Z" fill="white" fill-opacity="0.2"/>
<path fill-rule="evenodd" clip-rule="evenodd" d="M6.93997 25.0778C6.80405 26.3478 6.72962 27.6352 6.71961 28.9372C6.65703 37.0771 9.12146 44.6487 13.4053 50.9645H13.4644C13.4351 50.5045 13.3556 49.7427 13.2545 48.7741C12.9738 46.0858 12.5269 41.8046 12.5269 37.9645C12.5269 37.4925 12.5255 37.0417 12.5241 36.6107V36.6106V36.6104V36.6103V36.6102C12.5093 31.8201 12.502 29.4698 14.5061 27.4351C16.4745 25.4365 20.0866 25.4544 23.4833 25.4712C23.7918 25.4728 24.0984 25.4743 24.4019 25.4743C24.4019 25.4743 27.5269 31.4645 30.0269 34.4645C30.201 34.6735 30.38 34.8897 30.5633 35.1111L30.5637 35.1116C33.0123 38.0699 36.236 41.9645 39.0269 41.9645C38.3657 39.9422 36.2443 33.2397 36.0424 23.4645H41.3176C41.911 24.9304 43.3482 25.9645 45.0269 25.9645C47.236 25.9645 49.0269 24.1737 49.0269 21.9645C49.0269 19.7554 47.236 17.9645 45.0269 17.9645C43.163 17.9645 41.5969 19.2393 41.1529 20.9645H36.0338C36.1562 12.1012 37.879 6.02907 38.7399 2.99452L38.74 2.99415C38.8521 2.59933 38.9495 2.25595 39.0269 1.96453C36.0269 1.96454 31.9019 6.96453 30.0269 9.46453C28.1519 11.9645 24.4019 18.6116 24.4019 18.6116V18.4646C24.4019 18.4646 16.5477 18.2614 14.5269 18.9645C12.5061 19.6676 10.5269 20.4647 7.02689 24.9647C6.99778 25.0021 6.9688 25.0398 6.93997 25.0778Z" fill="#1D8CE0"/>
<path fill-rule="evenodd" clip-rule="evenodd" d="M6.93997 25.0778C6.80405 26.3478 6.72962 27.6352 6.71961 28.9372C6.65703 37.0771 9.12146 44.6487 13.4053 50.9645H13.4644C13.4351 50.5045 13.3556 49.7427 13.2545 48.7741C12.9738 46.0858 12.5269 41.8046 12.5269 37.9645C12.5269 37.4925 12.5255 37.0417 12.5241 36.6107V36.6106V36.6104V36.6103V36.6102C12.5093 31.8201 12.502 29.4698 14.5061 27.4351C16.4745 25.4365 20.0866 25.4544 23.4833 25.4712C23.7918 25.4728 24.0984 25.4743 24.4019 25.4743C24.4019 25.4743 27.5269 31.4645 30.0269 34.4645C30.201 34.6735 30.38 34.8897 30.5633 35.1111L30.5637 35.1116C33.0123 38.0699 36.236 41.9645 39.0269 41.9645C38.3657 39.9422 36.2443 33.2397 36.0424 23.4645H41.3176C41.911 24.9304 43.3482 25.9645 45.0269 25.9645C47.236 25.9645 49.0269 24.1737 49.0269 21.9645C49.0269 19.7554 47.236 17.9645 45.0269 17.9645C43.163 17.9645 41.5969 19.2393 41.1529 20.9645H36.0338C36.1562 12.1012 37.879 6.02907 38.7399 2.99452L38.74 2.99415C38.8521 2.59933 38.9495 2.25595 39.0269 1.96453C36.0269 1.96454 31.9019 6.96453 30.0269 9.46453C28.1519 11.9645 24.4019 18.6116 24.4019 18.6116V18.4646C24.4019 18.4646 16.5477 18.2614 14.5269 18.9645C12.5061 19.6676 10.5269 20.4647 7.02689 24.9647C6.99778 25.0021 6.9688 25.0398 6.93997 25.0778Z" fill="white" fill-opacity="0.2"/>
<path fill-rule="evenodd" clip-rule="evenodd" d="M15.5108 26.6565C15.0232 24.0611 14.9236 21.4102 15.2099 18.7948C17.907 18.2966 24.4018 18.4646 24.4018 18.4646V18.6116C24.4018 18.6116 28.1518 11.9645 30.0268 9.46453C31.9018 6.96453 36.0268 1.96454 39.0268 1.96453C38.9494 2.25604 38.8519 2.59956 38.7399 2.99453C37.8789 6.02908 36.1561 12.1013 36.0337 20.9645H41.1528C41.5969 19.2393 43.163 17.9645 45.0268 17.9645C47.236 17.9645 49.0268 19.7554 49.0268 21.9645C49.0268 24.1737 47.236 25.9645 45.0268 25.9645C43.3481 25.9645 41.911 24.9304 41.3176 23.4645H36.0423C36.2442 33.2397 38.3657 39.9422 39.0268 41.9645C36.2359 41.9645 33.0123 38.0699 30.5636 35.1116C30.3802 34.89 30.2011 34.6736 30.0268 34.4645C27.5268 31.4645 24.4018 25.4743 24.4018 25.4743C24.0984 25.4743 23.7917 25.4728 23.4833 25.4712C20.6027 25.457 17.5674 25.4419 15.5108 26.6565Z" fill="#2FC4A7"/>
<path fill-rule="evenodd" clip-rule="evenodd" d="M15.5108 26.6565C15.0232 24.0611 14.9236 21.4102 15.2099 18.7948C17.907 18.2966 24.4018 18.4646 24.4018 18.4646V18.6116C24.4018 18.6116 28.1518 11.9645 30.0268 9.46453C31.9018 6.96453 36.0268 1.96454 39.0268 1.96453C38.9494 2.25604 38.8519 2.59956 38.7399 2.99453C37.8789 6.02908 36.1561 12.1013 36.0337 20.9645H41.1528C41.5969 19.2393 43.163 17.9645 45.0268 17.9645C47.236 17.9645 49.0268 19.7554 49.0268 21.9645C49.0268 24.1737 47.236 25.9645 45.0268 25.9645C43.3481 25.9645 41.911 24.9304 41.3176 23.4645H36.0423C36.2442 33.2397 38.3657 39.9422 39.0268 41.9645C36.2359 41.9645 33.0123 38.0699 30.5636 35.1116C30.3802 34.89 30.2011 34.6736 30.0268 34.4645C27.5268 31.4645 24.4018 25.4743 24.4018 25.4743C24.0984 25.4743 23.7917 25.4728 23.4833 25.4712C20.6027 25.457 17.5674 25.4419 15.5108 26.6565Z" fill="white" fill-opacity="0.2"/>
<path fill-rule="evenodd" clip-rule="evenodd" d="M24.3468 25.4743C24.1471 23.1752 24.1738 20.8615 24.4261 18.5687C24.7502 17.9959 28.24 11.847 30.0268 9.46453C31.9018 6.96453 36.0268 1.96454 39.0268 1.96453C38.9494 2.25604 38.8519 2.59955 38.7399 2.99452L38.7399 2.99453C37.8789 6.02908 36.1561 12.1012 36.0337 20.9645H41.1528C41.5969 19.2393 43.163 17.9645 45.0268 17.9645C47.236 17.9645 49.0268 19.7554 49.0268 21.9645C49.0268 24.1737 47.236 25.9645 45.0268 25.9645C43.3481 25.9645 41.911 24.9304 41.3176 23.4645H36.0423C36.2442 33.2397 38.3657 39.9422 39.0268 41.9645C36.2359 41.9645 33.0123 38.0699 30.5636 35.1116L30.5628 35.1106C30.3796 34.8893 30.2008 34.6733 30.0268 34.4645C27.5268 31.4645 24.4018 25.4743 24.4018 25.4743C24.3835 25.4743 24.3651 25.4743 24.3468 25.4743Z" fill="#FAA21E"/>
<path fill-rule="evenodd" clip-rule="evenodd" d="M24.3468 25.4743C24.1471 23.1752 24.1738 20.8615 24.4261 18.5687C24.7502 17.9959 28.24 11.847 30.0268 9.46453C31.9018 6.96453 36.0268 1.96454 39.0268 1.96453C38.9494 2.25604 38.8519 2.59955 38.7399 2.99452L38.7399 2.99453C37.8789 6.02908 36.1561 12.1012 36.0337 20.9645H41.1528C41.5969 19.2393 43.163 17.9645 45.0268 17.9645C47.236 17.9645 49.0268 19.7554 49.0268 21.9645C49.0268 24.1737 47.236 25.9645 45.0268 25.9645C43.3481 25.9645 41.911 24.9304 41.3176 23.4645H36.0423C36.2442 33.2397 38.3657 39.9422 39.0268 41.9645C36.2359 41.9645 33.0123 38.0699 30.5636 35.1116L30.5628 35.1106C30.3796 34.8893 30.2008 34.6733 30.0268 34.4645C27.5268 31.4645 24.4018 25.4743 24.4018 25.4743C24.3835 25.4743 24.3651 25.4743 24.3468 25.4743Z" fill="white" fill-opacity="0.4"/>
<path fill-rule="evenodd" clip-rule="evenodd" d="M36.1232 20.9645C36.0567 21.7975 36.091 22.6373 36.2264 23.4645H41.3176C41.911 24.9304 43.3482 25.9645 45.0268 25.9645C47.236 25.9645 49.0268 24.1737 49.0268 21.9645C49.0268 19.7554 47.236 17.9645 45.0268 17.9645C43.163 17.9645 41.5969 19.2393 41.1529 20.9645H36.1232Z" fill="#D0333D"/>
<path fill-rule="evenodd" clip-rule="evenodd" d="M36.1232 20.9645C36.0567 21.7975 36.091 22.6373 36.2264 23.4645H41.3176C41.911 24.9304 43.3482 25.9645 45.0268 25.9645C47.236 25.9645 49.0268 24.1737 49.0268 21.9645C49.0268 19.7554 47.236 17.9645 45.0268 17.9645C43.163 17.9645 41.5969 19.2393 41.1529 20.9645H36.1232Z" fill="white" fill-opacity="0.4"/>
</svg>
