<svg width="51" height="51" viewBox="0 0 51 51" fill="none" xmlns="http://www.w3.org/2000/svg">
<path d="M34.1223 22.8806L29.5758 18.3341L3.15351 41.7254C2.48088 43.0295 2.29693 45.613 4.57017 47.8862C6.84341 50.1594 9.42689 49.9755 10.731 49.3029L34.1223 22.8806Z" fill="#898989"/>
<path d="M34.1223 22.8806L29.5758 18.3341L3.15351 41.7254C2.48088 43.0295 2.29693 45.613 4.57017 47.8862C6.84341 50.1594 9.42689 49.9755 10.731 49.3029L34.1223 22.8806Z" fill="white" fill-opacity="0.8"/>
<path fill-rule="evenodd" clip-rule="evenodd" d="M31.0913 6.21012L33.3645 3.93688L29.5758 0.148148L20.4828 9.2411L24.2716 13.0298L26.5448 10.7566C26.6225 10.912 26.8392 11.1021 27.1217 11.35C27.7579 11.9083 28.728 12.7596 29.1969 14.1665C29.7057 15.6929 29.6639 16.4227 29.6116 17.334C29.5943 17.6357 29.5758 17.9572 29.5758 18.3341L34.1223 22.8805C34.3621 22.8805 34.5937 22.8778 34.8195 22.8752C36.0208 22.861 37.058 22.8488 38.2899 23.2594C39.7533 23.7472 41.6997 24.396 43.5941 26.2904C45.4885 28.1848 47.3828 32.3524 47.3828 32.3524C47.3828 32.3524 47.7617 26.6693 47.3828 24.0172C47.004 21.365 45.1096 16.4397 45.1096 16.4397L36.3955 7.72561L31.0913 6.21012Z" fill="#546DDB"/>
<path fill-rule="evenodd" clip-rule="evenodd" d="M31.0913 6.21012L33.3645 3.93688L29.5758 0.148148L20.4828 9.2411L24.2716 13.0298L26.5448 10.7566C26.6225 10.912 26.8392 11.1021 27.1217 11.35C27.7579 11.9083 28.728 12.7596 29.1969 14.1665C29.7057 15.6929 29.6639 16.4227 29.6116 17.334C29.5943 17.6357 29.5758 17.9572 29.5758 18.3341L34.1223 22.8805C34.3621 22.8805 34.5937 22.8778 34.8195 22.8752C36.0208 22.861 37.058 22.8488 38.2899 23.2594C39.7533 23.7472 41.6997 24.396 43.5941 26.2904C45.4885 28.1848 47.3828 32.3524 47.3828 32.3524C47.3828 32.3524 47.7617 26.6693 47.3828 24.0172C47.004 21.365 45.1096 16.4397 45.1096 16.4397L36.3955 7.72561L31.0913 6.21012Z" fill="white" fill-opacity="0.2"/>
<path fill-rule="evenodd" clip-rule="evenodd" d="M46.2399 19.6458C45.2319 21.2614 43.979 22.7597 42.4846 24.0843C42.2217 24.3174 41.9544 24.5422 41.6831 24.759C40.4436 23.9773 39.2605 23.583 38.2899 23.2594C37.058 22.8488 36.0208 22.861 34.8195 22.8752C34.5937 22.8778 34.3621 22.8805 34.1223 22.8805L29.5758 18.3341C29.5758 17.9572 29.5943 17.6357 29.6116 17.334C29.6639 16.4227 29.7057 15.6929 29.1969 14.1665C28.728 12.7596 27.7579 11.9083 27.1217 11.35C26.8392 11.1021 26.6225 10.912 26.5448 10.7566L24.2716 13.0298L20.4828 9.2411L29.5758 0.148148L33.3645 3.93688L31.0913 6.21012L36.3955 7.72561L45.1096 16.4397C45.1096 16.4397 45.6686 17.893 46.2399 19.6458Z" fill="#1D8CE0"/>
<path fill-rule="evenodd" clip-rule="evenodd" d="M46.2399 19.6458C45.2319 21.2614 43.979 22.7597 42.4846 24.0843C42.2217 24.3174 41.9544 24.5422 41.6831 24.759C40.4436 23.9773 39.2605 23.583 38.2899 23.2594C37.058 22.8488 36.0208 22.861 34.8195 22.8752C34.5937 22.8778 34.3621 22.8805 34.1223 22.8805L29.5758 18.3341C29.5758 17.9572 29.5943 17.6357 29.6116 17.334C29.6639 16.4227 29.7057 15.6929 29.1969 14.1665C28.728 12.7596 27.7579 11.9083 27.1217 11.35C26.8392 11.1021 26.6225 10.912 26.5448 10.7566L24.2716 13.0298L20.4828 9.2411L29.5758 0.148148L33.3645 3.93688L31.0913 6.21012L36.3955 7.72561L45.1096 16.4397C45.1096 16.4397 45.6686 17.893 46.2399 19.6458Z" fill="white" fill-opacity="0.2"/>
<path fill-rule="evenodd" clip-rule="evenodd" d="M43.1213 14.4514C42.2009 16.139 40.9748 17.7024 39.4499 19.0541C37.7021 20.6034 35.7306 21.7248 33.6665 22.4247L29.5758 18.3341C29.5758 17.9572 29.5943 17.6357 29.6116 17.334C29.6639 16.4227 29.7057 15.6929 29.1969 14.1665C28.728 12.7596 27.7579 11.9083 27.1217 11.35C26.8392 11.1021 26.6225 10.912 26.5448 10.7566L24.2716 13.0298L20.4828 9.2411L29.5758 0.148148L33.3645 3.93688L31.0913 6.21012L36.3955 7.72561L43.1213 14.4514Z" fill="#2FC4A7"/>
<path fill-rule="evenodd" clip-rule="evenodd" d="M43.1213 14.4514C42.2009 16.139 40.9748 17.7024 39.4499 19.0541C37.7021 20.6034 35.7306 21.7248 33.6665 22.4247L29.5758 18.3341C29.5758 17.9572 29.5943 17.6357 29.6116 17.334C29.6639 16.4227 29.7057 15.6929 29.1969 14.1665C28.728 12.7596 27.7579 11.9083 27.1217 11.35C26.8392 11.1021 26.6225 10.912 26.5448 10.7566L24.2716 13.0298L20.4828 9.2411L29.5758 0.148148L33.3645 3.93688L31.0913 6.21012L36.3955 7.72561L43.1213 14.4514Z" fill="white" fill-opacity="0.2"/>
<path fill-rule="evenodd" clip-rule="evenodd" d="M38.6376 9.96764C37.9596 11.823 36.815 13.5538 35.2201 14.9675C33.5486 16.4491 31.5975 17.392 29.5872 17.8054C29.594 17.6404 29.6029 17.4847 29.6116 17.334C29.6639 16.4227 29.7057 15.6929 29.1969 14.1665C28.728 12.7596 27.7579 11.9083 27.1217 11.35C26.8392 11.1021 26.6225 10.912 26.5448 10.7566L24.2716 13.0298L20.4828 9.2411L29.5758 0.148148L33.3645 3.93688L31.0913 6.21012L36.3955 7.72561L38.6376 9.96764Z" fill="#FAA21E"/>
<path fill-rule="evenodd" clip-rule="evenodd" d="M38.6376 9.96764C37.9596 11.823 36.815 13.5538 35.2201 14.9675C33.5486 16.4491 31.5975 17.392 29.5872 17.8054C29.594 17.6404 29.6029 17.4847 29.6116 17.334C29.6639 16.4227 29.7057 15.6929 29.1969 14.1665C28.728 12.7596 27.7579 11.9083 27.1217 11.35C26.8392 11.1021 26.6225 10.912 26.5448 10.7566L24.2716 13.0298L20.4828 9.2411L29.5758 0.148148L33.3645 3.93688L31.0913 6.21012L36.3955 7.72561L38.6376 9.96764Z" fill="white" fill-opacity="0.4"/>
<path fill-rule="evenodd" clip-rule="evenodd" d="M32.9878 6.75197C32.3763 8.20346 31.3458 9.65152 29.9491 10.8895C29.348 11.4223 28.7173 11.8824 28.0737 12.2676C27.739 11.8917 27.3987 11.5931 27.1217 11.35C26.8392 11.1021 26.6225 10.912 26.5448 10.7566L24.2716 13.0298L20.4828 9.2411L29.5758 0.148148L33.3645 3.93688L31.0913 6.21012L32.9878 6.75197Z" fill="#D0333D"/>
<path fill-rule="evenodd" clip-rule="evenodd" d="M32.9878 6.75197C32.3763 8.20346 31.3458 9.65152 29.9491 10.8895C29.348 11.4223 28.7173 11.8824 28.0737 12.2676C27.739 11.8917 27.3987 11.5931 27.1217 11.35C26.8392 11.1021 26.6225 10.912 26.5448 10.7566L24.2716 13.0298L20.4828 9.2411L29.5758 0.148148L33.3645 3.93688L31.0913 6.21012L32.9878 6.75197Z" fill="white" fill-opacity="0.4"/>
</svg>
