<svg width="51" height="51" viewBox="0 0 51 51" fill="none" xmlns="http://www.w3.org/2000/svg">
<path d="M44.1204 27.7556L29.1759 35.2278L26.6852 30.2463L41.6296 22.7741L44.1204 27.7556Z" fill="#FEFEFE"/>
<path d="M37.815 37.4419L26.1562 49.4102L22.1667 45.524L32.663 35.2278L34.6556 34.2315L37.815 37.4419Z" fill="#FEFEFE"/>
<path fill-rule="evenodd" clip-rule="evenodd" d="M22.2019 45.6886L21.2056 44.6923C18.8809 44.8583 13.9326 44.5927 12.7371 44.1942C11.2426 43.696 10.2208 43.1211 9.74816 41.7034C9.25006 40.2091 10.2462 39.711 11.2424 39.2128L11.2426 39.2127C12.2522 38.7079 14.1677 38.7122 15.0773 38.7143C15.1311 38.7144 15.1814 38.7145 15.2278 38.7145C13.7333 37.5522 10.4456 34.8289 9.25001 33.2349C7.75557 31.2423 6.26112 27.7552 6.75927 24.7664C7.25742 21.7775 10.7445 17.7923 15.2278 18.2904C18.8145 18.6889 21.0395 20.7812 21.7037 21.7775L28.6778 37.2201L32.663 35.2275L22.2019 45.6886Z" fill="#546DDB"/>
<path fill-rule="evenodd" clip-rule="evenodd" d="M22.2019 45.6886L21.2056 44.6923C18.8809 44.8583 13.9326 44.5927 12.7371 44.1942C11.2426 43.696 10.2208 43.1211 9.74816 41.7034C9.25006 40.2091 10.2462 39.711 11.2424 39.2128L11.2426 39.2127C12.2522 38.7079 14.1677 38.7122 15.0773 38.7143C15.1311 38.7144 15.1814 38.7145 15.2278 38.7145C13.7333 37.5522 10.4456 34.8289 9.25001 33.2349C7.75557 31.2423 6.26112 27.7552 6.75927 24.7664C7.25742 21.7775 10.7445 17.7923 15.2278 18.2904C18.8145 18.6889 21.0395 20.7812 21.7037 21.7775L28.6778 37.2201L32.663 35.2275L22.2019 45.6886Z" fill="white" fill-opacity="0.2"/>
<path fill-rule="evenodd" clip-rule="evenodd" d="M28.0117 35.7451C27.7082 36.061 27.3956 36.3714 27.0739 36.6758C22.7762 40.7438 17.4965 43.1578 12.0331 43.9366C10.9189 43.4823 10.1424 42.8861 9.74816 41.7034C9.25006 40.2091 10.2462 39.711 11.2424 39.2128L11.2426 39.2127C12.2522 38.7079 14.1677 38.7122 15.0773 38.7143C15.1311 38.7144 15.1814 38.7145 15.2278 38.7145C13.7333 37.5522 10.4456 34.8289 9.25001 33.2349C7.75557 31.2423 6.26112 27.7552 6.75927 24.7664C7.25742 21.7775 10.7445 17.7923 15.2278 18.2904C18.8145 18.6889 21.0395 20.7812 21.7037 21.7775L28.0117 35.7451Z" fill="#1D8CE0"/>
<path fill-rule="evenodd" clip-rule="evenodd" d="M28.0117 35.7451C27.7082 36.061 27.3956 36.3714 27.0739 36.6758C22.7762 40.7438 17.4965 43.1578 12.0331 43.9366C10.9189 43.4823 10.1424 42.8861 9.74816 41.7034C9.25006 40.2091 10.2462 39.711 11.2424 39.2128L11.2426 39.2127C12.2522 38.7079 14.1677 38.7122 15.0773 38.7143C15.1311 38.7144 15.1814 38.7145 15.2278 38.7145C13.7333 37.5522 10.4456 34.8289 9.25001 33.2349C7.75557 31.2423 6.26112 27.7552 6.75927 24.7664C7.25742 21.7775 10.7445 17.7923 15.2278 18.2904C18.8145 18.6889 21.0395 20.7812 21.7037 21.7775L28.0117 35.7451Z" fill="white" fill-opacity="0.2"/>
<path fill-rule="evenodd" clip-rule="evenodd" d="M25.5236 30.2357C24.7774 31.2783 23.9205 32.2656 22.9532 33.1811C20.4466 35.5538 17.4901 37.169 14.371 38.0335C12.7173 36.6945 10.2507 34.5692 9.25001 33.2349C7.75557 31.2423 6.26112 27.7552 6.75927 24.7664C7.25742 21.7775 10.7445 17.7923 15.2278 18.2904C18.8145 18.6889 21.0395 20.7812 21.7037 21.7775L25.5236 30.2357Z" fill="#2FC4A7"/>
<path fill-rule="evenodd" clip-rule="evenodd" d="M25.5236 30.2357C24.7774 31.2783 23.9205 32.2656 22.9532 33.1811C20.4466 35.5538 17.4901 37.169 14.371 38.0335C12.7173 36.6945 10.2507 34.5692 9.25001 33.2349C7.75557 31.2423 6.26112 27.7552 6.75927 24.7664C7.25742 21.7775 10.7445 17.7923 15.2278 18.2904C18.8145 18.6889 21.0395 20.7812 21.7037 21.7775L25.5236 30.2357Z" fill="white" fill-opacity="0.2"/>
<path fill-rule="evenodd" clip-rule="evenodd" d="M22.2867 23.0684C21.7479 25.5473 20.4804 27.8976 18.4921 29.7796C15.9355 32.1996 12.6559 33.4017 9.38071 33.4033C9.33477 33.3459 9.29115 33.2897 9.25001 33.2349C7.75557 31.2423 6.26112 27.7552 6.75927 24.7664C7.25742 21.7775 10.7445 17.7923 15.2278 18.2904C18.8145 18.6889 21.0395 20.7812 21.7037 21.7775L22.2867 23.0684Z" fill="#FAA21E"/>
<path fill-rule="evenodd" clip-rule="evenodd" d="M22.2867 23.0684C21.7479 25.5473 20.4804 27.8976 18.4921 29.7796C15.9355 32.1996 12.6559 33.4017 9.38071 33.4033C9.33477 33.3459 9.29115 33.2897 9.25001 33.2349C7.75557 31.2423 6.26112 27.7552 6.75927 24.7664C7.25742 21.7775 10.7445 17.7923 15.2278 18.2904C18.8145 18.6889 21.0395 20.7812 21.7037 21.7775L22.2867 23.0684Z" fill="white" fill-opacity="0.4"/>
<path fill-rule="evenodd" clip-rule="evenodd" d="M16.809 18.5908C16.949 20.8209 16.1331 23.0945 14.3765 24.7571C12.2569 26.7634 9.30622 27.3701 6.68362 26.6045C6.63969 25.9825 6.65959 25.3645 6.75927 24.7664C7.25742 21.7775 10.7444 17.7923 15.2278 18.2904C15.7884 18.3527 16.3157 18.4564 16.809 18.5908Z" fill="#D0333D"/>
<path fill-rule="evenodd" clip-rule="evenodd" d="M16.809 18.5908C16.949 20.8209 16.1331 23.0945 14.3765 24.7571C12.2569 26.7634 9.30622 27.3701 6.68362 26.6045C6.63969 25.9825 6.65959 25.3645 6.75927 24.7664C7.25742 21.7775 10.7444 17.7923 15.2278 18.2904C15.7884 18.3527 16.3157 18.4564 16.809 18.5908Z" fill="white" fill-opacity="0.4"/>
<path fill-rule="evenodd" clip-rule="evenodd" d="M37.1463 13.8071C37.4784 12.6447 38.7094 11.0328 40.1352 10.32C41.1315 9.82198 43.1241 9.82188 43.6222 11.8145C44.0207 13.4085 42.1278 19.1207 41.1315 21.7775L41.6296 22.7738L26.6852 30.2461L22.7 20.7812C21.2056 18.2905 18.2167 12.8109 18.2167 10.8183C18.2167 8.32754 18.2167 5.33865 22.2019 3.34606C26.187 1.35347 28.6778 1.85161 31.6667 3.84421C34.0578 5.43828 36.3161 11.1503 37.1463 13.8071Z" fill="#546DDB"/>
<path fill-rule="evenodd" clip-rule="evenodd" d="M37.1463 13.8071C37.4784 12.6447 38.7094 11.0328 40.1352 10.32C41.1315 9.82198 43.1241 9.82188 43.6222 11.8145C44.0207 13.4085 42.1278 19.1207 41.1315 21.7775L41.6296 22.7738L26.6852 30.2461L22.7 20.7812C21.2056 18.2905 18.2167 12.8109 18.2167 10.8183C18.2167 8.32754 18.2167 5.33865 22.2019 3.34606C26.187 1.35347 28.6778 1.85161 31.6667 3.84421C34.0578 5.43828 36.3161 11.1503 37.1463 13.8071Z" fill="white" fill-opacity="0.2"/>
<path fill-rule="evenodd" clip-rule="evenodd" d="M43.1385 15.5076C42.4831 16.2834 41.7776 17.0311 41.0221 17.7462C36.3499 22.1686 30.5171 24.6363 24.5493 25.1734L22.7 20.7812C21.2056 18.2905 18.2167 12.8109 18.2167 10.8183C18.2167 8.32754 18.2167 5.33865 22.2019 3.34606C26.187 1.35347 28.6778 1.85161 31.6667 3.84421C34.0578 5.43828 36.3161 11.1503 37.1463 13.8071C37.4784 12.6447 38.7094 11.0328 40.1352 10.32C41.1315 9.82198 43.1241 9.82188 43.6222 11.8145C43.7909 12.4891 43.5491 13.9015 43.1385 15.5076Z" fill="#1D8CE0"/>
<path fill-rule="evenodd" clip-rule="evenodd" d="M43.1385 15.5076C42.4831 16.2834 41.7776 17.0311 41.0221 17.7462C36.3499 22.1686 30.5171 24.6363 24.5493 25.1734L22.7 20.7812C21.2056 18.2905 18.2167 12.8109 18.2167 10.8183C18.2167 8.32754 18.2167 5.33865 22.2019 3.34606C26.187 1.35347 28.6778 1.85161 31.6667 3.84421C34.0578 5.43828 36.3161 11.1503 37.1463 13.8071C37.4784 12.6447 38.7094 11.0328 40.1352 10.32C41.1315 9.82198 43.1241 9.82188 43.6222 11.8145C43.7909 12.4891 43.5491 13.9015 43.1385 15.5076Z" fill="white" fill-opacity="0.2"/>
<path fill-rule="evenodd" clip-rule="evenodd" d="M36.9466 13.1923C36.6149 13.5548 36.2678 13.9082 35.9051 14.2515C32.0395 17.9104 27.1044 19.768 22.1525 19.849C20.5781 17.1156 18.2167 12.5894 18.2167 10.8183C18.2167 8.32754 18.2167 5.33865 22.2019 3.34606C26.187 1.35347 28.6778 1.85161 31.6667 3.84421C33.8866 5.32418 35.9921 10.3537 36.9466 13.1923Z" fill="#2FC4A7"/>
<path fill-rule="evenodd" clip-rule="evenodd" d="M36.9466 13.1923C36.6149 13.5548 36.2678 13.9082 35.9051 14.2515C32.0395 17.9104 27.1044 19.768 22.1525 19.849C20.5781 17.1156 18.2167 12.5894 18.2167 10.8183C18.2167 8.32754 18.2167 5.33865 22.2019 3.34606C26.187 1.35347 28.6778 1.85161 31.6667 3.84421C33.8866 5.32418 35.9921 10.3537 36.9466 13.1923Z" fill="white" fill-opacity="0.2"/>
<path fill-rule="evenodd" clip-rule="evenodd" d="M34.2467 7.02167C33.5741 8.41784 32.6393 9.71855 31.4439 10.85C28.0668 14.0466 23.428 15.1184 19.2044 14.1048C18.62 12.7528 18.2167 11.5502 18.2167 10.8183C18.2167 8.32754 18.2167 5.33865 22.2019 3.34606C26.187 1.35347 28.6778 1.85161 31.6667 3.84421C32.5688 4.44562 33.452 5.63318 34.2467 7.02167Z" fill="#FAA21E"/>
<path fill-rule="evenodd" clip-rule="evenodd" d="M34.2467 7.02167C33.5741 8.41784 32.6393 9.71855 31.4439 10.85C28.0668 14.0466 23.428 15.1184 19.2044 14.1048C18.62 12.7528 18.2167 11.5502 18.2167 10.8183C18.2167 8.32754 18.2167 5.33865 22.2019 3.34606C26.187 1.35347 28.6778 1.85161 31.6667 3.84421C32.5688 4.44562 33.452 5.63318 34.2467 7.02167Z" fill="white" fill-opacity="0.4"/>
<path fill-rule="evenodd" clip-rule="evenodd" d="M29.752 2.7598C29.6055 4.6185 28.7946 6.43216 27.3284 7.82004C24.8274 10.1873 21.1697 10.606 18.2588 9.12132C18.4088 7.06299 19.0917 4.90112 22.2018 3.34606C25.3135 1.79024 27.514 1.7529 29.752 2.7598Z" fill="#D0333D"/>
<path fill-rule="evenodd" clip-rule="evenodd" d="M29.752 2.7598C29.6055 4.6185 28.7946 6.43216 27.3284 7.82004C24.8274 10.1873 21.1697 10.606 18.2588 9.12132C18.4088 7.06299 19.0917 4.90112 22.2018 3.34606C25.3135 1.79024 27.514 1.7529 29.752 2.7598Z" fill="white" fill-opacity="0.4"/>
</svg>
