<svg width="51" height="51" viewBox="0 0 51 51" fill="none" xmlns="http://www.w3.org/2000/svg">
<path d="M1.03793 35.0135C0.576312 34.1279 0.576341 31.914 2.42276 31.0285L17.1942 25.7152L17.6558 31.4712L5.19242 36.3418C3.34598 37.2273 1.49954 35.899 1.03793 35.0135Z" fill="#546DDB"/>
<path d="M15.3202 49.6142C16.2269 50.093 18.519 50.1438 19.4765 48.3303L25.3031 33.7814L19.3538 33.1907L14.0365 45.4574C13.079 47.271 14.4136 49.1354 15.3202 49.6142Z" fill="#D0333D"/>
<path d="M15.3202 49.6142C16.2269 50.093 18.519 50.1438 19.4765 48.3303L25.3031 33.7814L19.3538 33.1907L14.0365 45.4574C13.079 47.271 14.4136 49.1354 15.3202 49.6142Z" fill="white" fill-opacity="0.4"/>
<path d="M37.4794 2.27153L28.7572 23.2344L20.8185 24.284C21.5429 21.8842 23.172 16.5257 23.8934 14.2904C24.7952 11.4963 26.658 7.35703 29.7625 5.19865C32.2461 3.47194 35.942 2.52777 37.4794 2.27153Z" fill="#2FC4A7"/>
<path d="M37.4794 2.27153L28.7572 23.2344L20.8185 24.284C21.5429 21.8842 23.172 16.5257 23.8934 14.2904C24.7952 11.4963 26.658 7.35703 29.7625 5.19865C32.2461 3.47194 35.942 2.52777 37.4794 2.27153Z" fill="white" fill-opacity="0.2"/>
<path d="M49.6157 14.4883L28.4756 22.7689L27.2593 30.6837C29.6737 30.0098 35.0648 28.4935 37.3146 27.8191C40.1268 26.9761 44.304 25.2006 46.5271 22.1421C48.3055 19.6953 49.3271 16.0201 49.6157 14.4883Z" fill="#1D8CE0"/>
<path d="M49.6157 14.4883L28.4756 22.7689L27.2593 30.6837C29.6737 30.0098 35.0648 28.4935 37.3146 27.8191C40.1268 26.9761 44.304 25.2006 46.5271 22.1421C48.3055 19.6953 49.3271 16.0201 49.6157 14.4883Z" fill="white" fill-opacity="0.2"/>
<circle cx="23.6114" cy="27.7004" r="7.94085" fill="#898989"/>
<circle cx="23.6114" cy="27.7004" r="7.94085" fill="white" fill-opacity="0.95"/>
<circle cx="23.6114" cy="27.7004" r="3.97043" fill="#FAA21E"/>
</svg>
