<svg width="51" height="51" viewBox="0 0 51 51" fill="none" xmlns="http://www.w3.org/2000/svg">
<g clip-path="url(#clip0_1445_15141)">
<path d="M25.7963 0.918396C19.1632 4.55779 16.0942 6.03261 8.79633 7.9184C9.79633 11.9184 11.7963 20.9184 11.7963 25.9184C11.7963 30.9184 7.79633 39.9184 7.79633 39.9184C7.79633 39.9184 9.79633 43.9184 14.2963 46.9184C18.7963 49.9184 25.7963 50.9184 25.7963 50.9184C25.7963 50.9184 33.2963 49.9184 37.2963 46.9184C41.2963 43.9184 43.7963 39.9184 43.7963 39.9184C43.7963 39.9184 39.7963 31.9184 39.7963 25.9184C39.7963 19.9184 41.303 11.7103 42.7963 7.9184C35.0379 5.58161 32.034 4.12561 25.7963 0.918396Z" fill="#898989"/>
<path d="M25.7963 0.918396C19.1632 4.55779 16.0942 6.03261 8.79633 7.9184C9.79633 11.9184 11.7963 20.9184 11.7963 25.9184C11.7963 30.9184 7.79633 39.9184 7.79633 39.9184C7.79633 39.9184 9.79633 43.9184 14.2963 46.9184C18.7963 49.9184 25.7963 50.9184 25.7963 50.9184C25.7963 50.9184 33.2963 49.9184 37.2963 46.9184C41.2963 43.9184 43.7963 39.9184 43.7963 39.9184C43.7963 39.9184 39.7963 31.9184 39.7963 25.9184C39.7963 19.9184 41.303 11.7103 42.7963 7.9184C35.0379 5.58161 32.034 4.12561 25.7963 0.918396Z" fill="white" fill-opacity="0.95"/>
<path fill-rule="evenodd" clip-rule="evenodd" d="M22.7963 5.9184L25.7963 10.9184L28.7963 5.9184C32.4427 7.96099 34.7159 8.86666 39.2963 9.9184C39.2107 10.3246 39.106 10.8044 38.9884 11.3431C38.1894 15.0036 36.7963 21.3855 36.7963 25.9184C36.7963 31.1184 38.7963 36.4184 40.2963 39.4184C38.2963 42.4184 33.2963 45.9184 25.7963 46.9184C18.2963 45.9184 13.2963 42.4184 11.2963 39.4184C12.8963 35.4184 14.7963 28.9184 14.7963 25.9184C14.7963 22.9184 12.2963 9.9184 12.2963 9.9184C16.6336 8.74314 18.9207 7.90983 22.7963 5.9184Z" fill="#546DDB"/>
<path fill-rule="evenodd" clip-rule="evenodd" d="M22.7963 5.9184L25.7963 10.9184L28.7963 5.9184C32.4427 7.96099 34.7159 8.86666 39.2963 9.9184C39.2107 10.3246 39.106 10.8044 38.9884 11.3431C38.1894 15.0036 36.7963 21.3855 36.7963 25.9184C36.7963 31.1184 38.7963 36.4184 40.2963 39.4184C38.2963 42.4184 33.2963 45.9184 25.7963 46.9184C18.2963 45.9184 13.2963 42.4184 11.2963 39.4184C12.8963 35.4184 14.7963 28.9184 14.7963 25.9184C14.7963 22.9184 12.2963 9.9184 12.2963 9.9184C16.6336 8.74314 18.9207 7.90983 22.7963 5.9184Z" fill="white" fill-opacity="0.2"/>
<path fill-rule="evenodd" clip-rule="evenodd" d="M37.8427 16.9044C35.1259 13.3441 30.8258 11.0466 25.9675 11.0416C20.9004 11.0364 16.3972 13.526 13.6409 17.3449C14.2328 20.8159 14.7963 24.4941 14.7963 25.9184C14.7963 27.7756 14.0682 30.974 13.1339 34.0903C15.775 38.2127 20.4089 40.9441 25.7068 40.9496C30.9056 40.9549 35.5109 38.334 38.2448 34.3457C37.4266 31.7881 36.7963 28.8375 36.7963 25.9184C36.7963 23.2445 37.2811 19.9271 37.8427 16.9044Z" fill="#1D8CE0"/>
<path fill-rule="evenodd" clip-rule="evenodd" d="M37.8427 16.9044C35.1259 13.3441 30.8258 11.0466 25.9675 11.0416C20.9004 11.0364 16.3972 13.526 13.6409 17.3449C14.2328 20.8159 14.7963 24.4941 14.7963 25.9184C14.7963 27.7756 14.0682 30.974 13.1339 34.0903C15.775 38.2127 20.4089 40.9441 25.7068 40.9496C30.9056 40.9549 35.5109 38.334 38.2448 34.3457C37.4266 31.7881 36.7963 28.8375 36.7963 25.9184C36.7963 23.2445 37.2811 19.9271 37.8427 16.9044Z" fill="white" fill-opacity="0.2"/>
<path fill-rule="evenodd" clip-rule="evenodd" d="M14.8202 25.5379C14.8028 19.7543 19.7077 15.0132 25.7756 14.9483C31.8435 14.8834 36.7766 19.5193 36.7939 25.3029C36.8113 31.0865 31.9064 35.8276 25.8385 35.8925C19.7706 35.9573 14.8375 31.3214 14.8202 25.5379Z" fill="#2FC4A7"/>
<path fill-rule="evenodd" clip-rule="evenodd" d="M14.8202 25.5379C14.8028 19.7543 19.7077 15.0132 25.7756 14.9483C31.8435 14.8834 36.7766 19.5193 36.7939 25.3029C36.8113 31.0865 31.9064 35.8276 25.8385 35.8925C19.7706 35.9573 14.8375 31.3214 14.8202 25.5379Z" fill="white" fill-opacity="0.2"/>
<path fill-rule="evenodd" clip-rule="evenodd" d="M17.8392 25.6497C17.8649 21.4471 21.4514 18.0347 25.8499 18.0278C30.2483 18.0209 33.7931 21.4222 33.7674 25.6247C33.7416 29.8273 30.1552 33.2397 25.7567 33.2466C21.3583 33.2535 17.8135 29.8522 17.8392 25.6497Z" fill="#FAA21E"/>
<path fill-rule="evenodd" clip-rule="evenodd" d="M17.8392 25.6497C17.8649 21.4471 21.4514 18.0347 25.8499 18.0278C30.2483 18.0209 33.7931 21.4222 33.7674 25.6247C33.7416 29.8273 30.1552 33.2397 25.7567 33.2466C21.3583 33.2535 17.8135 29.8522 17.8392 25.6497Z" fill="white" fill-opacity="0.4"/>
<path d="M12.2963 9.91844L39.7963 41.9185" stroke="#898989" stroke-width="0.996296" stroke-linecap="square"/>
<path d="M12.2963 9.91844L39.7963 41.9185" stroke="white" stroke-opacity="0.95" stroke-width="0.996296" stroke-linecap="square"/>
<path d="M39.2963 9.91827L12.2963 41.4183" stroke="#898989" stroke-width="0.996296" stroke-linecap="square"/>
<path d="M39.2963 9.91827L12.2963 41.4183" stroke="white" stroke-opacity="0.95" stroke-width="0.996296" stroke-linecap="square"/>
<path d="M25.7963 18.9184L20.7963 25.9184L25.7963 32.4184L30.7963 25.9184L25.7963 18.9184Z" fill="#898989"/>
<path d="M25.7963 18.9184L20.7963 25.9184L25.7963 32.4184L30.7963 25.9184L25.7963 18.9184Z" fill="white" fill-opacity="0.95"/>
<path d="M25.7963 18.9184L20.7963 25.9184L25.7963 32.4184L30.7963 25.9184L25.7963 18.9184Z" stroke="#898989" stroke-width="0.996296"/>
<path d="M25.7963 18.9184L20.7963 25.9184L25.7963 32.4184L30.7963 25.9184L25.7963 18.9184Z" stroke="white" stroke-opacity="0.95" stroke-width="0.996296"/>
<path d="M25.7963 21.9184L22.7963 25.548L25.7963 28.9184L28.7963 25.548L25.7963 21.9184Z" fill="#D0333D"/>
<path d="M25.7963 21.9184L22.7963 25.548L25.7963 28.9184L28.7963 25.548L25.7963 21.9184Z" fill="white" fill-opacity="0.4"/>
</g>
<defs>
<clipPath id="clip0_1445_15141">
<rect width="50" height="50" fill="white" transform="translate(0.796265 0.918457)"/>
</clipPath>
</defs>
</svg>
