<svg width="51" height="51" viewBox="0 0 51 51" fill="none" xmlns="http://www.w3.org/2000/svg">
<path d="M12.7371 15.6111C12.7371 15.6111 17.7185 17.6037 26.6852 17.6037C35.6519 17.6037 40.6334 15.6111 40.6334 15.6111V43.5074C40.6334 43.5074 35.6519 46.4963 26.6852 46.4963C17.7185 46.4963 12.7371 43.5074 12.7371 43.5074V15.6111Z" fill="#898989"/>
<path d="M12.7371 15.6111C12.7371 15.6111 17.7185 17.6037 26.6852 17.6037C35.6519 17.6037 40.6334 15.6111 40.6334 15.6111V43.5074C40.6334 43.5074 35.6519 46.4963 26.6852 46.4963C17.7185 46.4963 12.7371 43.5074 12.7371 43.5074V15.6111Z" fill="white" fill-opacity="0.6"/>
<path d="M40.6334 20.5926H47.0097C47.2753 20.5926 47.8864 20.6712 48.2052 20.9859C48.524 21.3005 48.6037 21.9035 48.6037 22.1657V33.9639C48.6037 34.2261 48.524 34.8291 48.2052 35.1438C47.8864 35.4584 47.2753 35.537 47.0097 35.537H40.6334" stroke="#898989" stroke-width="2.98889"/>
<path d="M40.6334 20.5926H47.0097C47.2753 20.5926 47.8864 20.6712 48.2052 20.9859C48.524 21.3005 48.6037 21.9035 48.6037 22.1657V33.9639C48.6037 34.2261 48.524 34.8291 48.2052 35.1438C47.8864 35.4584 47.2753 35.537 47.0097 35.537H40.6334" stroke="white" stroke-opacity="0.6" stroke-width="2.98889"/>
<path d="M6.75927 15.6111H0.781494L12.7371 33.5444V21.2743L6.75927 15.6111Z" fill="#898989"/>
<path d="M6.75927 15.6111H0.781494L12.7371 33.5444V21.2743L6.75927 15.6111Z" fill="white" fill-opacity="0.6"/>
<path d="M12.7371 12.6222C12.7371 12.6222 17.7185 15.3394 26.6852 15.3394C35.6519 15.3394 40.6334 12.6222 40.6334 12.6222V16.6074C40.6334 16.6074 35.6519 19.5963 26.6852 19.5963C17.7185 19.5963 12.7371 16.6074 12.7371 16.6074V12.6222Z" fill="#898989"/>
<path d="M12.7371 12.6222C12.7371 12.6222 17.7185 15.3394 26.6852 15.3394C35.6519 15.3394 40.6334 12.6222 40.6334 12.6222V16.6074C40.6334 16.6074 35.6519 19.5963 26.6852 19.5963C17.7185 19.5963 12.7371 16.6074 12.7371 16.6074V12.6222Z" fill="white" fill-opacity="0.95"/>
<path d="M40.6334 12.6222C40.6334 13.6185 34.3886 15.6111 26.6852 15.6111C18.9819 15.6111 12.7371 13.6185 12.7371 12.6222C12.7371 11.6259 18.9819 9.63333 26.6852 9.63333C34.3886 9.63333 40.6334 11.6259 40.6334 12.6222Z" fill="#898989"/>
<path d="M40.6334 12.6222C40.6334 13.6185 34.3886 15.6111 26.6852 15.6111C18.9819 15.6111 12.7371 13.6185 12.7371 12.6222C12.7371 11.6259 18.9819 9.63333 26.6852 9.63333C34.3886 9.63333 40.6334 11.6259 40.6334 12.6222Z" fill="white" fill-opacity="0.6"/>
<circle cx="26.6852" cy="9.1352" r="3.48704" fill="#898989"/>
<circle cx="26.6852" cy="9.1352" r="3.48704" fill="white" fill-opacity="0.95"/>
<path fill-rule="evenodd" clip-rule="evenodd" d="M40.6334 22.2122V43.5074C40.6334 43.5074 35.6519 46.4963 26.6852 46.4963C23.822 46.4963 21.3651 46.1915 19.347 45.7766C18.9346 44.2229 18.7148 42.5907 18.7148 40.9072C18.7148 30.4527 27.1899 21.9776 37.6445 21.9776C38.6615 21.9776 39.6598 22.0578 40.6334 22.2122Z" fill="#546DDB"/>
<path fill-rule="evenodd" clip-rule="evenodd" d="M40.6334 22.2122V43.5074C40.6334 43.5074 35.6519 46.4963 26.6852 46.4963C23.822 46.4963 21.3651 46.1915 19.347 45.7766C18.9346 44.2229 18.7148 42.5907 18.7148 40.9072C18.7148 30.4527 27.1899 21.9776 37.6445 21.9776C38.6615 21.9776 39.6598 22.0578 40.6334 22.2122Z" fill="white" fill-opacity="0.2"/>
<path fill-rule="evenodd" clip-rule="evenodd" d="M40.6334 26.0787V43.5074C40.6334 43.5074 35.6519 46.4963 26.6852 46.4963C24.9878 46.4963 23.4331 46.3892 22.0281 46.2155C21.8153 45.1432 21.7037 44.0346 21.7037 42.8998C21.7037 33.5457 29.2866 25.9628 38.6407 25.9628C39.3148 25.9628 39.9798 26.0022 40.6334 26.0787Z" fill="#1D8CE0"/>
<path fill-rule="evenodd" clip-rule="evenodd" d="M40.6334 26.0787V43.5074C40.6334 43.5074 35.6519 46.4963 26.6852 46.4963C24.9878 46.4963 23.4331 46.3892 22.0281 46.2155C21.8153 45.1432 21.7037 44.0346 21.7037 42.8998C21.7037 33.5457 29.2866 25.9628 38.6407 25.9628C39.3148 25.9628 39.9798 26.0022 40.6334 26.0787Z" fill="white" fill-opacity="0.2"/>
<path fill-rule="evenodd" clip-rule="evenodd" d="M40.6334 29.9817V43.5074C40.6334 43.5074 35.6519 46.4963 26.6852 46.4963C26.4745 46.4963 26.2659 46.4946 26.0596 46.4914C25.8172 45.4982 25.6889 44.4625 25.6889 43.3979C25.6889 35.9697 31.9337 29.9479 39.6371 29.9479C39.972 29.9479 40.3043 29.9593 40.6334 29.9817Z" fill="#2FC4A7"/>
<path fill-rule="evenodd" clip-rule="evenodd" d="M40.6334 29.9817V43.5074C40.6334 43.5074 35.6519 46.4963 26.6852 46.4963C26.4745 46.4963 26.2659 46.4946 26.0596 46.4914C25.8172 45.4982 25.6889 44.4625 25.6889 43.3979C25.6889 35.9697 31.9337 29.9479 39.6371 29.9479C39.972 29.9479 40.3043 29.9593 40.6334 29.9817Z" fill="white" fill-opacity="0.2"/>
<path fill-rule="evenodd" clip-rule="evenodd" d="M40.6334 33.9799V43.5074C40.6334 43.5074 36.9312 45.7287 30.1653 46.3414C29.8465 45.4149 29.6741 44.4256 29.6741 43.398C29.6741 38.1707 34.1346 33.9331 39.637 33.9331C39.9733 33.9331 40.3057 33.949 40.6334 33.9799Z" fill="#FAA21E"/>
<path fill-rule="evenodd" clip-rule="evenodd" d="M40.6334 33.9799V43.5074C40.6334 43.5074 36.9312 45.7287 30.1653 46.3414C29.8465 45.4149 29.6741 44.4256 29.6741 43.398C29.6741 38.1707 34.1346 33.9331 39.637 33.9331C39.9733 33.9331 40.3057 33.949 40.6334 33.9799Z" fill="white" fill-opacity="0.4"/>
<path fill-rule="evenodd" clip-rule="evenodd" d="M40.6334 38.1246V43.5074C40.6334 43.5074 38.3831 44.8576 34.185 45.743C33.8478 45.0321 33.6592 44.237 33.6592 43.398C33.6592 40.3716 36.1126 37.9183 39.1389 37.9183C39.657 37.9183 40.1583 37.9902 40.6334 38.1246Z" fill="#D0333D"/>
<path fill-rule="evenodd" clip-rule="evenodd" d="M40.6334 38.1246V43.5074C40.6334 43.5074 38.3831 44.8576 34.185 45.743C33.8478 45.0321 33.6592 44.237 33.6592 43.398C33.6592 40.3716 36.1126 37.9183 39.1389 37.9183C39.657 37.9183 40.1583 37.9902 40.6334 38.1246Z" fill="white" fill-opacity="0.4"/>
</svg>
