<svg width="51" height="50" viewBox="0 0 51 50" fill="none" xmlns="http://www.w3.org/2000/svg">
<path d="M10.66 1.99249H40.811V4.98138L41.8073 6.97397H45.7925V47.8221H12.2331C11.7087 47.8221 9.08687 47.8221 7.51377 46.2597C5.94067 44.6974 5.94067 43.135 5.94067 42.6142V6.67961C5.94067 5.63803 6.67479 4.38813 7.51377 3.55487C8.35276 2.7216 9.61124 1.99249 10.66 1.99249Z" fill="#2FC4A7"/>
<path d="M10.66 1.99249H40.811V4.98138L41.8073 6.97397H45.7925V47.8221H12.2331C11.7087 47.8221 9.08687 47.8221 7.51377 46.2597C5.94067 44.6974 5.94067 43.135 5.94067 42.6142V6.67961C5.94067 5.63803 6.67479 4.38813 7.51377 3.55487C8.35276 2.7216 9.61124 1.99249 10.66 1.99249Z" fill="black" fill-opacity="0.4"/>
<path d="M43.8 9.0662L40.8111 4.98138V39.8518H38.8185L43.8 45.8295V9.0662Z" fill="#898989"/>
<path d="M43.8 9.0662L40.8111 4.98138V39.8518H38.8185L43.8 45.8295V9.0662Z" fill="white" fill-opacity="0.2"/>
<path d="M11.0522 39.8517H38.8185L43.8 45.8295H11.0522C10.5478 45.8295 7.93335 45.0823 7.93335 42.8406C7.93335 40.599 10.5478 39.8517 11.0522 39.8517Z" fill="#898989"/>
<path d="M11.0522 39.8517H38.8185L43.8 45.8295H11.0522C10.5478 45.8295 7.93335 45.0823 7.93335 42.8406C7.93335 40.599 10.5478 39.8517 11.0522 39.8517Z" fill="white" fill-opacity="0.6"/>
<path d="M21.964 29.5421L24.4617 32.2875L25.622 28.762L24.427 29.5632L21.8636 17.5441L22.9471 16.2203L21.9441 11.5172L20.3937 13.2137L18.2861 12.2973L19.2891 17.0004L20.8185 17.767L23.3819 29.7861L21.964 29.5421Z" fill="#898989"/>
<path d="M21.964 29.5421L24.4617 32.2875L25.622 28.762L24.427 29.5632L21.8636 17.5441L22.9471 16.2203L21.9441 11.5172L20.3937 13.2137L18.2861 12.2973L19.2891 17.0004L20.8185 17.767L23.3819 29.7861L21.964 29.5421Z" fill="white" fill-opacity="0.95"/>
<path d="M26.7331 21.4709L28.3724 23.8415L29.629 21.2477L28.6266 21.7411L27.8932 12.226L28.8636 11.3189L28.5766 7.5956L27.2084 8.74147L25.6807 7.81884L25.9677 11.5421L27.0658 12.2898L27.7992 21.8049L26.7331 21.4709Z" fill="#898989"/>
<path d="M26.7331 21.4709L28.3724 23.8415L29.629 21.2477L28.6266 21.7411L27.8932 12.226L28.8636 11.3189L28.5766 7.5956L27.2084 8.74147L25.6807 7.81884L25.9677 11.5421L27.0658 12.2898L27.7992 21.8049L26.7331 21.4709Z" fill="white" fill-opacity="0.95"/>
<path d="M31.1837 33.032L32.2754 35.3273L33.7359 33.2472L32.7937 33.535L33.5007 25.149L34.4737 24.4966L34.7503 21.2152L33.3974 22.0191L32.1981 21L31.9214 24.2815L32.7715 25.0875L32.0645 33.4735L31.1837 33.032Z" fill="#898989"/>
<path d="M31.1837 33.032L32.2754 35.3273L33.7359 33.2472L32.7937 33.535L33.5007 25.149L34.4737 24.4966L34.7503 21.2152L33.3974 22.0191L32.1981 21L31.9214 24.2815L32.7715 25.0875L32.0645 33.4735L31.1837 33.032Z" fill="white" fill-opacity="0.95"/>
<path d="M14.3772 19.6172L16.4954 21.3426L16.9548 18.6495L16.1725 19.3633L12.993 10.8943L13.6371 9.81224L12.393 6.49827L11.4498 7.90264L9.81545 7.46592L11.0596 10.7799L12.2566 11.1707L15.436 19.6398L14.3772 19.6172Z" fill="#898989"/>
<path d="M14.3772 19.6172L16.4954 21.3426L16.9548 18.6495L16.1725 19.3633L12.993 10.8943L13.6371 9.81224L12.393 6.49827L11.4498 7.90264L9.81545 7.46592L11.0596 10.7799L12.2566 11.1707L15.436 19.6398L14.3772 19.6172Z" fill="white" fill-opacity="0.95"/>
<path d="M15.7033 34.693L17.7103 35.4333L17.3667 33.3219L16.9685 34.0492L12.4633 28.5837L12.6656 27.6187L10.9027 25.48L10.5607 26.7597L9.23927 26.8512L11.0022 28.9899L11.988 28.9754L16.4932 34.441L15.7033 34.693Z" fill="#898989"/>
<path d="M15.7033 34.693L17.7103 35.4333L17.3667 33.3219L16.9685 34.0492L12.4633 28.5837L12.6656 27.6187L10.9027 25.48L10.5607 26.7597L9.23927 26.8512L11.0022 28.9899L11.988 28.9754L16.4932 34.441L15.7033 34.693Z" fill="white" fill-opacity="0.95"/>
<path d="M35.0517 16.9757L35.9736 19.0444L37.3205 17.2236L36.4748 17.4592L37.2894 10.0046L38.1705 9.44492L38.4892 6.5279L37.2663 7.21423L36.2204 6.28L35.9017 9.19702L36.6411 9.93378L35.8266 17.3884L35.0517 16.9757Z" fill="#898989"/>
<path d="M35.0517 16.9757L35.9736 19.0444L37.3205 17.2236L36.4748 17.4592L37.2894 10.0046L38.1705 9.44492L38.4892 6.5279L37.2663 7.21423L36.2204 6.28L35.9017 9.19702L36.6411 9.93378L35.8266 17.3884L35.0517 16.9757Z" fill="white" fill-opacity="0.95"/>
</svg>
