<svg width="51" height="51" viewBox="0 0 51 51" fill="none" xmlns="http://www.w3.org/2000/svg">
<g clip-path="url(#clip0_1383_8543)">
<path d="M17.2204 6.84234C15.4988 6.41196 12.2791 5.88033 10.2463 5.3479L10.7444 0.864563C13.7995 2.18529 16.4005 2.59355 17.7185 2.85716C20.2092 3.3553 23.6963 3.3553 23.6963 3.3553C23.1981 4.84975 23.455 5.62032 23.6963 6.34419C23.9376 7.06806 24.6926 7.83864 24.6926 7.83864C23.1981 7.83864 19.2129 7.34049 17.2204 6.84234Z" fill="#FEFEFE"/>
<path d="M33.1611 4.85C33.1611 4.05296 32.6629 2.85741 32.1648 2.35926C32.829 2.19321 34.3083 2.14291 35.1537 1.86111C36.6481 1.36296 37.1463 1.36296 38.1426 0.366669L38.6407 4.85C38.6407 4.85 36.4862 5.67817 36.15 5.8463C35.8137 6.01442 32.1648 7.34074 32.1648 7.34074C32.3308 7.00864 33.1611 6.34445 33.1611 4.85Z" fill="#FEFEFE"/>
<path fill-rule="evenodd" clip-rule="evenodd" d="M34.4887 7.68953L38.6407 6.34445L43.1241 17.8019C44.1204 21.2889 39.6286 19.56 37.6444 17.8019C36.2431 16.5601 35.7389 13.9025 35.2001 11.0621C34.9875 9.94109 34.7694 8.79166 34.4887 7.68953ZM40.8486 44.2037C39.5005 44.6422 38.5783 45.5184 37.5953 46.4524C37.0197 46.9992 36.4233 47.5659 35.7084 48.0761C35.7084 48.0761 33.6781 44.0152 32.663 39.9551C31.648 35.8949 31.1404 30.8194 31.1404 30.8194L37.1463 19.2963C37.4884 19.6789 38.4254 20.726 40.6333 21.2889C41.9766 21.6313 42.7131 21.5418 43.311 21.4692C43.5485 21.4403 43.7641 21.4141 43.9872 21.4187C43.9872 21.4187 45.0209 27.0918 44.9402 31.015C44.8595 34.9382 43.8423 45.1343 43.8423 45.1343C43.4432 44.4943 41.8419 43.8807 40.8486 44.2037ZM20.7074 46.6947C18.6739 46.7182 17.5484 47.5511 16.1148 48.612C15.3981 49.1424 14.6045 49.7297 13.5819 50.3014C13.5819 50.3014 9.94104 40.9597 9.25 37.7282C8.55897 34.4968 7.75555 26.2704 7.75555 26.2704C8.75185 27.7653 10.1505 28.3622 12.2389 27.7653C15.7259 26.7685 19.189 23.4445 19.4263 22.8606L29.1759 30.7542C29.1759 30.7542 27.7943 35.999 27.1834 39.7208C26.5724 43.4427 24.7657 50.1718 24.7657 50.1718C24.2199 49.6265 23.8471 49.0606 23.5093 48.5476C22.8206 47.502 22.2768 46.6765 20.7074 46.6947ZM21.4516 10.1562L21.4516 10.1562L21.4516 10.1562L21.4516 10.156L21.4516 10.1556C21.5054 9.84069 21.5586 9.52905 21.6116 9.22186L16.9503 8.74741L10.2463 7.34075L7.75555 22.7833C8.2537 30.7537 16.5907 24.5542 18.3487 21.5574C19.9794 18.7777 20.7621 14.1938 21.4516 10.1562ZM23.407 9.22608L20.7074 21.2889L29.9461 29.0922L35.4793 19.0462L33.1577 8.29083L31.6667 8.83519C31.6667 8.83519 30.6704 9.83149 28.6778 9.83149C26.6852 9.83149 26.1929 9.22608 26.1929 9.22608H23.407Z" fill="#546DDB"/>
<path fill-rule="evenodd" clip-rule="evenodd" d="M34.4887 7.68953L38.6407 6.34445L43.1241 17.8019C44.1204 21.2889 39.6286 19.56 37.6444 17.8019C36.2431 16.5601 35.7389 13.9025 35.2001 11.0621C34.9875 9.94109 34.7694 8.79166 34.4887 7.68953ZM40.8486 44.2037C39.5005 44.6422 38.5783 45.5184 37.5953 46.4524C37.0197 46.9992 36.4233 47.5659 35.7084 48.0761C35.7084 48.0761 33.6781 44.0152 32.663 39.9551C31.648 35.8949 31.1404 30.8194 31.1404 30.8194L37.1463 19.2963C37.4884 19.6789 38.4254 20.726 40.6333 21.2889C41.9766 21.6313 42.7131 21.5418 43.311 21.4692C43.5485 21.4403 43.7641 21.4141 43.9872 21.4187C43.9872 21.4187 45.0209 27.0918 44.9402 31.015C44.8595 34.9382 43.8423 45.1343 43.8423 45.1343C43.4432 44.4943 41.8419 43.8807 40.8486 44.2037ZM20.7074 46.6947C18.6739 46.7182 17.5484 47.5511 16.1148 48.612C15.3981 49.1424 14.6045 49.7297 13.5819 50.3014C13.5819 50.3014 9.94104 40.9597 9.25 37.7282C8.55897 34.4968 7.75555 26.2704 7.75555 26.2704C8.75185 27.7653 10.1505 28.3622 12.2389 27.7653C15.7259 26.7685 19.189 23.4445 19.4263 22.8606L29.1759 30.7542C29.1759 30.7542 27.7943 35.999 27.1834 39.7208C26.5724 43.4427 24.7657 50.1718 24.7657 50.1718C24.2199 49.6265 23.8471 49.0606 23.5093 48.5476C22.8206 47.502 22.2768 46.6765 20.7074 46.6947ZM21.4516 10.1562L21.4516 10.1562L21.4516 10.1562L21.4516 10.156L21.4516 10.1556C21.5054 9.84069 21.5586 9.52905 21.6116 9.22186L16.9503 8.74741L10.2463 7.34075L7.75555 22.7833C8.2537 30.7537 16.5907 24.5542 18.3487 21.5574C19.9794 18.7777 20.7621 14.1938 21.4516 10.1562ZM23.407 9.22608L20.7074 21.2889L29.9461 29.0922L35.4793 19.0462L33.1577 8.29083L31.6667 8.83519C31.6667 8.83519 30.6704 9.83149 28.6778 9.83149C26.6852 9.83149 26.1929 9.22608 26.1929 9.22608H23.407Z" fill="white" fill-opacity="0.2"/>
<path fill-rule="evenodd" clip-rule="evenodd" d="M26.7078 42.188C20.7723 41.7652 14.6805 39.9051 9.08891 36.8996C8.44009 33.2795 7.75555 26.2704 7.75555 26.2704C8.75185 27.7653 10.1505 28.3622 12.2389 27.7653C15.7259 26.7685 19.189 23.4445 19.4263 22.8606L29.1759 30.7542C29.1759 30.7542 27.7943 35.999 27.1834 39.7208C27.0634 40.4518 26.8973 41.2988 26.7078 42.188ZM44.4792 38.1601C42.4852 39.4532 40.1866 40.4834 37.6002 41.196C36.1896 41.5846 34.7412 41.8657 33.2661 42.0442C33.0452 41.3619 32.8389 40.6585 32.663 39.9551C31.648 35.8949 31.1404 30.8194 31.1404 30.8194L37.1463 19.2963C37.4884 19.6789 38.4254 20.726 40.6333 21.2889C41.9766 21.6313 42.7131 21.5418 43.311 21.4692C43.5485 21.4403 43.7641 21.4141 43.9872 21.4187C43.9872 21.4187 45.0209 27.0918 44.9402 31.015C44.9059 32.6841 44.7021 35.4885 44.4792 38.1601ZM34.4887 7.68953L38.6407 6.34445L43.1241 17.8019C44.1204 21.2889 39.6286 19.56 37.6444 17.8019C36.2431 16.5601 35.7389 13.9025 35.2001 11.0621C34.9875 9.94109 34.7694 8.79166 34.4887 7.68953ZM21.4516 10.1562L21.4516 10.1562L21.4516 10.1562L21.4516 10.156L21.4516 10.1556C21.5054 9.84069 21.5586 9.52905 21.6116 9.22186L16.9503 8.74741L10.2463 7.34075L7.75555 22.7833C8.2537 30.7537 16.5907 24.5542 18.3487 21.5574C19.9794 18.7777 20.7621 14.1938 21.4516 10.1562ZM23.407 9.22608L20.7074 21.2889L29.9461 29.0922L35.4793 19.0462L33.1577 8.29083L31.6667 8.83519C31.6667 8.83519 30.6704 9.83149 28.6778 9.83149C26.6852 9.83149 26.1929 9.22608 26.1929 9.22608H23.407Z" fill="#1D8CE0"/>
<path fill-rule="evenodd" clip-rule="evenodd" d="M26.7078 42.188C20.7723 41.7652 14.6805 39.9051 9.08891 36.8996C8.44009 33.2795 7.75555 26.2704 7.75555 26.2704C8.75185 27.7653 10.1505 28.3622 12.2389 27.7653C15.7259 26.7685 19.189 23.4445 19.4263 22.8606L29.1759 30.7542C29.1759 30.7542 27.7943 35.999 27.1834 39.7208C27.0634 40.4518 26.8973 41.2988 26.7078 42.188ZM44.4792 38.1601C42.4852 39.4532 40.1866 40.4834 37.6002 41.196C36.1896 41.5846 34.7412 41.8657 33.2661 42.0442C33.0452 41.3619 32.8389 40.6585 32.663 39.9551C31.648 35.8949 31.1404 30.8194 31.1404 30.8194L37.1463 19.2963C37.4884 19.6789 38.4254 20.726 40.6333 21.2889C41.9766 21.6313 42.7131 21.5418 43.311 21.4692C43.5485 21.4403 43.7641 21.4141 43.9872 21.4187C43.9872 21.4187 45.0209 27.0918 44.9402 31.015C44.9059 32.6841 44.7021 35.4885 44.4792 38.1601ZM34.4887 7.68953L38.6407 6.34445L43.1241 17.8019C44.1204 21.2889 39.6286 19.56 37.6444 17.8019C36.2431 16.5601 35.7389 13.9025 35.2001 11.0621C34.9875 9.94109 34.7694 8.79166 34.4887 7.68953ZM21.4516 10.1562L21.4516 10.1562L21.4516 10.1562L21.4516 10.156L21.4516 10.1556C21.5054 9.84069 21.5586 9.52905 21.6116 9.22186L16.9503 8.74741L10.2463 7.34075L7.75555 22.7833C8.2537 30.7537 16.5907 24.5542 18.3487 21.5574C19.9794 18.7777 20.7621 14.1938 21.4516 10.1562ZM23.407 9.22608L20.7074 21.2889L29.9461 29.0922L35.4793 19.0462L33.1577 8.29083L31.6667 8.83519C31.6667 8.83519 30.6704 9.83149 28.6778 9.83149C26.6852 9.83149 26.1929 9.22608 26.1929 9.22608H23.407Z" fill="white" fill-opacity="0.2"/>
<path fill-rule="evenodd" clip-rule="evenodd" d="M28.6299 32.923C22.9224 32.75 16.8691 30.9814 11.2942 27.9606C11.5924 27.9249 11.907 27.8602 12.2389 27.7653C15.7259 26.7685 19.189 23.4445 19.4263 22.8606L29.1759 30.7542C29.1759 30.7542 28.9448 31.6315 28.6299 32.923ZM44.7856 27.3854C42.8486 29.3259 40.3272 30.8493 37.2509 31.8151C35.3864 32.4005 33.418 32.7497 31.3858 32.8793C31.2222 31.6374 31.1404 30.8194 31.1404 30.8194L37.1463 19.2963C37.4884 19.6789 38.4254 20.726 40.6333 21.2889C41.9766 21.6313 42.7131 21.5418 43.311 21.4692C43.5485 21.4403 43.7641 21.4141 43.9872 21.4187C43.9872 21.4187 44.5133 24.306 44.7856 27.3854ZM34.4887 7.68953L38.6407 6.34445L43.1241 17.8019C44.1204 21.2889 39.6286 19.56 37.6444 17.8019C36.2431 16.5601 35.7389 13.9025 35.2001 11.0621C34.9875 9.94109 34.7694 8.79166 34.4887 7.68953ZM21.4516 10.1562L21.4516 10.1562L21.4516 10.1562L21.4516 10.156L21.4516 10.1556C21.5054 9.84069 21.5586 9.52905 21.6116 9.22186L16.9503 8.74741L10.2463 7.34075L7.75555 22.7833C8.2537 30.7537 16.5907 24.5542 18.3487 21.5574C19.9794 18.7777 20.7621 14.1938 21.4516 10.1562ZM23.407 9.22608L20.7074 21.2889L29.9461 29.0922L35.4793 19.0462L33.1577 8.29083L31.6667 8.83519C31.6667 8.83519 30.6704 9.83149 28.6778 9.83149C26.6852 9.83149 26.1929 9.22608 26.1929 9.22608H23.407Z" fill="#2FC4A7"/>
<path fill-rule="evenodd" clip-rule="evenodd" d="M28.6299 32.923C22.9224 32.75 16.8691 30.9814 11.2942 27.9606C11.5924 27.9249 11.907 27.8602 12.2389 27.7653C15.7259 26.7685 19.189 23.4445 19.4263 22.8606L29.1759 30.7542C29.1759 30.7542 28.9448 31.6315 28.6299 32.923ZM44.7856 27.3854C42.8486 29.3259 40.3272 30.8493 37.2509 31.8151C35.3864 32.4005 33.418 32.7497 31.3858 32.8793C31.2222 31.6374 31.1404 30.8194 31.1404 30.8194L37.1463 19.2963C37.4884 19.6789 38.4254 20.726 40.6333 21.2889C41.9766 21.6313 42.7131 21.5418 43.311 21.4692C43.5485 21.4403 43.7641 21.4141 43.9872 21.4187C43.9872 21.4187 44.5133 24.306 44.7856 27.3854ZM34.4887 7.68953L38.6407 6.34445L43.1241 17.8019C44.1204 21.2889 39.6286 19.56 37.6444 17.8019C36.2431 16.5601 35.7389 13.9025 35.2001 11.0621C34.9875 9.94109 34.7694 8.79166 34.4887 7.68953ZM21.4516 10.1562L21.4516 10.1562L21.4516 10.1562L21.4516 10.156L21.4516 10.1556C21.5054 9.84069 21.5586 9.52905 21.6116 9.22186L16.9503 8.74741L10.2463 7.34075L7.75555 22.7833C8.2537 30.7537 16.5907 24.5542 18.3487 21.5574C19.9794 18.7777 20.7621 14.1938 21.4516 10.1562ZM23.407 9.22608L20.7074 21.2889L29.9461 29.0922L35.4793 19.0462L33.1577 8.29083L31.6667 8.83519C31.6667 8.83519 30.6704 9.83149 28.6778 9.83149C26.6852 9.83149 26.1929 9.22608 26.1929 9.22608H23.407Z" fill="white" fill-opacity="0.2"/>
<path fill-rule="evenodd" clip-rule="evenodd" d="M18.4738 21.3377C15.0018 20.1137 11.6969 18.2514 8.8692 15.8788L10.2463 7.34075L16.9503 8.74741L21.6117 9.22186C21.5587 9.52905 21.5054 9.84069 21.4517 10.1556L21.4516 10.156L21.4516 10.1562L21.4516 10.1562L21.4516 10.1562C20.78 14.0891 20.0199 18.5404 18.4738 21.3377ZM33.723 22.2349C30.0085 23.2501 25.9355 23.2225 21.9449 22.3341L20.7074 21.2889L23.407 9.22608H26.1929C26.1929 9.22608 26.6852 9.83149 28.6778 9.83149C30.6704 9.83149 31.6667 8.83519 31.6667 8.83519L33.1577 8.29083L35.4793 19.0462L33.723 22.2349ZM38.2945 20.2951C37.59 20.7247 36.833 21.1104 36.0252 21.4473L37.1463 19.2963C37.3278 19.4993 37.6769 19.8895 38.2945 20.2951ZM42.5531 16.3428C41.8127 17.4019 40.9067 18.3669 39.8433 19.214C39.0291 18.8339 38.2282 18.3191 37.6445 17.8019C36.2431 16.5601 35.7389 13.9025 35.2001 11.0621C34.9875 9.94109 34.7694 8.79166 34.4887 7.68953L38.6408 6.34445L42.5531 16.3428Z" fill="#FAA21E"/>
<path fill-rule="evenodd" clip-rule="evenodd" d="M18.4738 21.3377C15.0018 20.1137 11.6969 18.2514 8.8692 15.8788L10.2463 7.34075L16.9503 8.74741L21.6117 9.22186C21.5587 9.52905 21.5054 9.84069 21.4517 10.1556L21.4516 10.156L21.4516 10.1562L21.4516 10.1562L21.4516 10.1562C20.78 14.0891 20.0199 18.5404 18.4738 21.3377ZM33.723 22.2349C30.0085 23.2501 25.9355 23.2225 21.9449 22.3341L20.7074 21.2889L23.407 9.22608H26.1929C26.1929 9.22608 26.6852 9.83149 28.6778 9.83149C30.6704 9.83149 31.6667 8.83519 31.6667 8.83519L33.1577 8.29083L35.4793 19.0462L33.723 22.2349ZM38.2945 20.2951C37.59 20.7247 36.833 21.1104 36.0252 21.4473L37.1463 19.2963C37.3278 19.4993 37.6769 19.8895 38.2945 20.2951ZM42.5531 16.3428C41.8127 17.4019 40.9067 18.3669 39.8433 19.214C39.0291 18.8339 38.2282 18.3191 37.6445 17.8019C36.2431 16.5601 35.7389 13.9025 35.2001 11.0621C34.9875 9.94109 34.7694 8.79166 34.4887 7.68953L38.6408 6.34445L42.5531 16.3428Z" fill="white" fill-opacity="0.4"/>
<path fill-rule="evenodd" clip-rule="evenodd" d="M35.2495 11.322C36.1989 10.8062 37.0789 10.2009 37.8711 9.50875C38.4217 9.02762 38.8934 8.52226 39.288 7.99864L38.6407 6.34445L34.4887 7.68953C34.7694 8.79166 34.9875 9.94109 35.2001 11.0621C35.2166 11.1489 35.233 11.2355 35.2495 11.322ZM33.9485 11.9545L33.1577 8.29083L31.6667 8.83519C31.6667 8.83519 30.6704 9.83149 28.6778 9.83149C26.6852 9.83149 26.1929 9.22608 26.1929 9.22608H23.407L22.5158 13.2086C26.5588 13.855 30.5942 13.4065 33.9485 11.9545ZM20.969 12.9075C21.14 11.9806 21.2981 11.0549 21.4516 10.1562L21.4516 10.1562L21.4516 10.1562L21.4516 10.156L21.4517 10.1556C21.5054 9.84069 21.5587 9.52905 21.6117 9.22186L16.9503 8.74741L11.289 7.55953C12.3976 8.90262 13.893 10.1119 15.8048 11.0618C17.4744 11.8914 19.2143 12.5041 20.969 12.9075Z" fill="#D0333D"/>
<path fill-rule="evenodd" clip-rule="evenodd" d="M35.2495 11.322C36.1989 10.8062 37.0789 10.2009 37.8711 9.50875C38.4217 9.02762 38.8934 8.52226 39.288 7.99864L38.6407 6.34445L34.4887 7.68953C34.7694 8.79166 34.9875 9.94109 35.2001 11.0621C35.2166 11.1489 35.233 11.2355 35.2495 11.322ZM33.9485 11.9545L33.1577 8.29083L31.6667 8.83519C31.6667 8.83519 30.6704 9.83149 28.6778 9.83149C26.6852 9.83149 26.1929 9.22608 26.1929 9.22608H23.407L22.5158 13.2086C26.5588 13.855 30.5942 13.4065 33.9485 11.9545ZM20.969 12.9075C21.14 11.9806 21.2981 11.0549 21.4516 10.1562L21.4516 10.1562L21.4516 10.1562L21.4516 10.156L21.4517 10.1556C21.5054 9.84069 21.5587 9.52905 21.6117 9.22186L16.9503 8.74741L11.289 7.55953C12.3976 8.90262 13.893 10.1119 15.8048 11.0618C17.4744 11.8914 19.2143 12.5041 20.969 12.9075Z" fill="white" fill-opacity="0.4"/>
<path d="M31.6666 4.85001C31.6666 6.77585 30.1054 8.33705 28.1796 8.33705C26.2538 8.33705 24.6926 6.77585 24.6926 4.85001C24.6926 2.92418 26.2538 1.36298 28.1796 1.36298C30.1054 1.36298 31.6666 2.92418 31.6666 4.85001Z" fill="#FEFEFE"/>
</g>
<defs>
<clipPath id="clip0_1383_8543">
<rect width="50" height="50" fill="white" transform="translate(0.781494 0.366699)"/>
</clipPath>
</defs>
</svg>
