<svg width="51" height="51" viewBox="0 0 51 51" fill="none" xmlns="http://www.w3.org/2000/svg">
<path d="M16.7769 37.491H13.5024L11.5378 41.651C11.7561 41.7577 12.6511 42.099 14.4848 42.611C16.7769 43.251 20.7062 49.011 27.255 50.291C32.4941 51.315 34.677 49.011 35.1136 47.731L35.7685 45.171C32.6685 44.3711 27.1561 42.7391 25.3224 41.9711C23.4887 41.2031 18.8946 39.0911 16.7769 37.491Z" fill="#898989"/>
<path d="M16.7769 37.491H13.5024L11.5378 41.651C11.7561 41.7577 12.6511 42.099 14.4848 42.611C16.7769 43.251 20.7062 49.011 27.255 50.291C32.4941 51.315 34.677 49.011 35.1136 47.731L35.7685 45.171C32.6685 44.3711 27.1561 42.7391 25.3224 41.9711C23.4887 41.2031 18.8946 39.0911 16.7769 37.491Z" fill="white" fill-opacity="0.95"/>
<path d="M40.3527 41.331C39.8288 42.355 38.483 44.1044 37.7189 44.8511C38.7013 46.1311 39.0963 47.7311 41.0076 47.091C42.9703 46.4336 42.9722 41.651 43.6271 40.371L41.9899 37.491C41.6624 38.3443 40.8766 40.307 40.3527 41.331Z" fill="#898989"/>
<path d="M40.3527 41.331C39.8288 42.355 38.483 44.1044 37.7189 44.8511C38.7013 46.1311 39.0963 47.7311 41.0076 47.091C42.9703 46.4336 42.9722 41.651 43.6271 40.371L41.9899 37.491C41.6624 38.3443 40.8766 40.307 40.3527 41.331Z" fill="white" fill-opacity="0.95"/>
<path d="M44.6059 12.2113C44.082 12.7233 42.8631 13.4913 42.3173 13.8113C42.4265 14.3446 42.8196 15.6434 42.9722 16.6913C43.2285 18.4513 43.2285 18.9313 43.2996 19.8913C43.6271 20.1046 44.4784 20.4673 45.2643 20.2113C46.0502 19.9553 46.6832 18.6113 46.9015 17.9713V14.1313C46.9015 12.0833 46.4649 10.9313 46.2466 10.2913C45.9192 10.718 45.1298 11.6993 44.6059 12.2113Z" fill="#898989"/>
<path d="M44.6059 12.2113C44.082 12.7233 42.8631 13.4913 42.3173 13.8113C42.4265 14.3446 42.8196 15.6434 42.9722 16.6913C43.2285 18.4513 43.2285 18.9313 43.2996 19.8913C43.6271 20.1046 44.4784 20.4673 45.2643 20.2113C46.0502 19.9553 46.6832 18.6113 46.9015 17.9713V14.1313C46.9015 12.0833 46.4649 10.9313 46.2466 10.2913C45.9192 10.718 45.1298 11.6993 44.6059 12.2113Z" fill="white" fill-opacity="0.4"/>
<path d="M10.8829 14.7715C9.01554 13.8163 6.95359 13.4915 5.97127 13.4915C5.57976 14.6113 5.31638 16.0515 4.98894 17.9715C4.76935 19.2591 4.6615 21.9182 4.6615 23.0915C5.09809 23.4115 6.82262 24.1795 10.228 24.6915C13.6334 25.2035 17.7592 24.2648 19.3964 23.7315C18.7415 22.3448 17.4972 19.3155 16.4494 18.2915C15.1396 17.0115 13.385 16.0513 10.8829 14.7715Z" fill="#898989"/>
<path d="M10.8829 14.7715C9.01554 13.8163 6.95359 13.4915 5.97127 13.4915C5.57976 14.6113 5.31638 16.0515 4.98894 17.9715C4.76935 19.2591 4.6615 21.9182 4.6615 23.0915C5.09809 23.4115 6.82262 24.1795 10.228 24.6915C13.6334 25.2035 17.7592 24.2648 19.3964 23.7315C18.7415 22.3448 17.4972 19.3155 16.4494 18.2915C15.1396 17.0115 13.385 16.0513 10.8829 14.7715Z" fill="white" fill-opacity="0.4"/>
<path d="M15.1396 7.73111L16.1219 2.61111C17.9774 3.99778 21.9504 7.15511 22.9982 8.69111C24.046 10.2271 24.0541 12.3178 23.9449 13.1711C21.6137 12.2111 20.1395 11.2831 19.3536 10.7711C18.5678 10.2591 15.9036 8.37111 15.1396 7.73111Z" fill="#898989"/>
<path d="M15.1396 7.73111L16.1219 2.61111C17.9774 3.99778 21.9504 7.15511 22.9982 8.69111C24.046 10.2271 24.0541 12.3178 23.9449 13.1711C21.6137 12.2111 20.1395 11.2831 19.3536 10.7711C18.5678 10.2591 15.9036 8.37111 15.1396 7.73111Z" fill="white" fill-opacity="0.4"/>
<path d="M17.1043 16.6911C18.414 17.4591 20.2327 18.7711 21.6493 19.4111C22.5676 18.9311 23.0267 17.9711 23.4858 17.0111C23.9187 16.106 23.9449 15.0911 23.9449 14.6111C22.4169 13.9711 19.8128 12.6911 17.7592 11.2511C16.512 10.3766 14.5939 9.01111 13.8298 8.37111C12.1223 8.69111 10.9484 9.13911 9.90055 9.65111C8.85273 10.1631 7.41625 11.2511 6.49799 12.2111C6.71628 12.2111 7.3465 12.2751 8.91822 12.5311C10.8829 12.8511 15.4671 15.7311 17.1043 16.6911Z" fill="#898989"/>
<path d="M17.1043 16.6911C18.414 17.4591 20.2327 18.7711 21.6493 19.4111C22.5676 18.9311 23.0267 17.9711 23.4858 17.0111C23.9187 16.106 23.9449 15.0911 23.9449 14.6111C22.4169 13.9711 19.8128 12.6911 17.7592 11.2511C16.512 10.3766 14.5939 9.01111 13.8298 8.37111C12.1223 8.69111 10.9484 9.13911 9.90055 9.65111C8.85273 10.1631 7.41625 11.2511 6.49799 12.2111C6.71628 12.2111 7.3465 12.2751 8.91822 12.5311C10.8829 12.8511 15.4671 15.7311 17.1043 16.6911Z" fill="white" fill-opacity="0.4"/>
<path d="M13.5024 26.291C8.79367 26.6112 5.75297 25.4379 4.6615 24.6912C4.6615 25.9712 5.25087 28.787 6.29869 31.091C7.60846 33.971 9.57311 35.891 13.5024 36.211C16.6459 36.467 18.7415 35.891 19.3964 35.571L19.3537 25.1712C19.0262 25.4912 17.692 26.0062 13.5024 26.291Z" fill="#898989"/>
<path d="M13.5024 26.291C8.79367 26.6112 5.75297 25.4379 4.6615 24.6912C4.6615 25.9712 5.25087 28.787 6.29869 31.091C7.60846 33.971 9.57311 35.891 13.5024 36.211C16.6459 36.467 18.7415 35.891 19.3964 35.571L19.3537 25.1712C19.0262 25.4912 17.692 26.0062 13.5024 26.291Z" fill="white" fill-opacity="0.4"/>
<path d="M45.065 21.8109C43.9321 22.0877 43.3376 21.4376 43.2285 21.3309L43.2996 31.4111C43.6271 31.4111 45.065 31.4109 45.9832 29.9709C46.618 28.9755 46.9015 26.8242 46.9015 26.6109V19.8909C46.6832 20.2109 46.1128 21.5549 45.065 21.8109Z" fill="#898989"/>
<path d="M45.065 21.8109C43.9321 22.0877 43.3376 21.4376 43.2285 21.3309L43.2996 31.4111C43.6271 31.4111 45.065 31.4109 45.9832 29.9709C46.618 28.9755 46.9015 26.8242 46.9015 26.6109V19.8909C46.6832 20.2109 46.1128 21.5549 45.065 21.8109Z" fill="white" fill-opacity="0.4"/>
<path d="M42.9722 6.45098C41.6624 5.68298 41.1415 5.97121 41.1415 5.97121L41.9898 12.531C42.5356 12.211 43.3859 11.8067 44.2819 10.931C45.2765 9.95902 45.3058 9.75773 45.5241 9.33106C45.1967 8.79773 44.2819 7.21898 42.9722 6.45098Z" fill="#898989"/>
<path d="M42.9722 6.45098C41.6624 5.68298 41.1415 5.97121 41.1415 5.97121L41.9898 12.531C42.5356 12.211 43.3859 11.8067 44.2819 10.931C45.2765 9.95902 45.3058 9.75773 45.5241 9.33106C45.1967 8.79773 44.2819 7.21898 42.9722 6.45098Z" fill="white" fill-opacity="0.4"/>
<path d="M35.8615 0.691193L34.9015 4.05126C36.3415 4.53119 36.3415 4.53119 37.3015 5.01119C38.2615 5.49119 39.2215 5.97119 40.6615 9.81119C40.1815 6.45138 40.6615 4.53119 38.2615 2.61119L35.8615 0.691193Z" fill="#898989"/>
<path d="M35.8615 0.691193L34.9015 4.05126C36.3415 4.53119 36.3415 4.53119 37.3015 5.01119C38.2615 5.49119 39.2215 5.97119 40.6615 9.81119C40.1815 6.45138 40.6615 4.53119 38.2615 2.61119L35.8615 0.691193Z" fill="white" fill-opacity="0.4"/>
<path d="M36.7508 10.2907C35.703 10.5467 34.9672 10.771 34.4215 10.771C35.0764 12.371 35.8994 16.0507 36.4233 18.6107C37.0782 21.8107 37.7331 28.5307 37.7331 33.6507C37.7331 37.7467 37.5148 41.544 37.4057 42.9307C38.1697 41.9707 39.4907 39.8908 40.0146 38.6108C40.5385 37.3308 41.4441 34.9307 41.6624 33.9707C41.7716 32.0507 41.9899 27.7627 41.9899 25.9707C41.9899 23.7307 41.9899 19.5707 41.335 15.4107C40.8111 12.0827 39.5886 9.54404 39.0429 8.6907C38.7154 9.11737 37.7986 10.0347 36.7508 10.2907Z" fill="#FEFEFE"/>
<path d="M35.1136 19.5715C34.5897 17.0115 33.7455 12.6912 32.9815 10.7712C30.2694 10.9311 27.7184 10.6115 24.9629 9.97147C25.2903 11.0381 25.7487 13.8115 24.9629 16.3715C23.9806 19.5715 22.3434 20.8515 21.6885 20.8515C21.1646 20.8515 19.0689 19.3581 18.0866 18.6115L20.7061 23.4115C20.8153 27.5715 20.731 35.7314 20.731 36.2114C20.731 36.9612 18.8506 37.1715 18.4141 37.1715C24.9998 40.4065 28.8844 41.8199 36.0959 43.8915C36.2051 40.5848 36.4234 33.5235 36.4234 31.7315C36.4234 29.4915 35.7685 22.7715 35.1136 19.5715Z" fill="#FEFEFE"/>
<path fill-rule="evenodd" clip-rule="evenodd" d="M34.9015 4.05126L35.8615 0.691193L38.2615 2.61119C40.1222 4.09977 40.2518 5.58846 40.4398 7.74808L40.4398 7.74824C40.4943 8.3741 40.5536 9.05631 40.6615 9.81119C39.2215 5.97119 38.2615 5.49119 37.3015 5.01119C36.3415 4.53119 36.3415 4.53119 34.9015 4.05126L34.9015 4.05126ZM15.1396 7.73111L16.1219 2.61111C17.9774 3.99778 21.9504 7.15511 22.9982 8.69111C24.046 10.2271 24.0541 12.3178 23.9449 13.1711C21.6137 12.2111 20.1395 11.2831 19.3536 10.7711C18.5678 10.2591 15.9036 8.37111 15.1396 7.73111ZM42.3173 13.8113C42.8631 13.4913 44.082 12.7233 44.6059 12.2113C45.1298 11.6993 45.9192 10.718 46.2466 10.2913L46.2832 10.3978C46.5101 11.0564 46.9015 12.1922 46.9015 14.1313V17.9713C46.6832 18.6113 46.0502 19.9553 45.2643 20.2113C44.4784 20.4673 43.6271 20.1046 43.2996 19.8913C43.2865 19.714 43.2758 19.553 43.2654 19.3973L43.2654 19.3969L43.2651 19.3927V19.3926V19.3926C43.2195 18.7076 43.1806 18.1229 42.9722 16.6913C42.8699 15.9888 42.6595 15.1736 42.4991 14.5518C42.4201 14.2461 42.3533 13.9871 42.3173 13.8113ZM5.97127 13.4915C6.95359 13.4915 9.01554 13.8163 10.8829 14.7715C13.385 16.0513 15.1396 17.0115 16.4494 18.2915C17.3107 19.1332 18.3048 21.33 18.9951 22.8556C19.1446 23.1859 19.2798 23.4847 19.3964 23.7315C17.7592 24.2648 13.6334 25.2035 10.228 24.6915C6.82262 24.1795 5.09809 23.4115 4.6615 23.0915C4.6615 21.9182 4.76935 19.2591 4.98894 17.9715C5.31638 16.0515 5.57976 14.6113 5.97127 13.4915ZM18.599 17.627L18.599 17.627C18.0653 17.2836 17.5547 16.9552 17.1043 16.6911C16.8834 16.5616 16.6089 16.3972 16.2944 16.2088C14.2779 15.0006 10.6178 12.8079 8.91822 12.5311C7.3465 12.2751 6.71628 12.2111 6.49799 12.2111C7.41625 11.2511 8.85273 10.1631 9.90055 9.65111C10.9484 9.13911 12.1223 8.69111 13.8298 8.37111C14.5939 9.01111 16.512 10.3766 17.7592 11.2511C19.8128 12.6911 22.4169 13.9711 23.9449 14.6111C23.9449 15.0911 23.9187 16.106 23.4858 17.0111C23.0267 17.9711 22.5676 18.9311 21.6493 19.4111C20.7199 18.9912 19.6174 18.282 18.5991 17.627L18.5991 17.627L18.599 17.627L18.599 17.627ZM13.5024 26.291C8.79367 26.6112 5.75297 25.4379 4.6615 24.6912C4.6615 25.9712 5.25087 28.787 6.29869 31.091C7.60846 33.971 9.57311 35.891 13.5024 36.211C16.6459 36.467 18.7415 35.891 19.3964 35.571L19.3537 25.1712C19.0262 25.4912 17.692 26.0062 13.5024 26.291ZM43.2433 21.3457C43.3844 21.4865 43.9759 22.077 45.065 21.8109C45.934 21.5986 46.4747 20.6378 46.7584 20.1336C46.8168 20.0299 46.8643 19.9455 46.9015 19.8909V26.6109C46.9015 26.8242 46.618 28.9755 45.9832 29.9709C45.065 31.4109 43.6271 31.4111 43.2996 31.4111L43.2285 21.3309L43.2433 21.3457ZM42.9722 6.45098C41.6624 5.68298 41.1415 5.97121 41.1415 5.97121L41.9898 12.531C42.0784 12.479 42.175 12.4249 42.2785 12.3669L42.2788 12.3667C42.813 12.0672 43.5314 11.6644 44.2819 10.931C45.1592 10.0736 45.2855 9.81592 45.4529 9.47423C45.4753 9.42855 45.4984 9.38137 45.5241 9.33106L45.4675 9.23834C45.0992 8.63363 44.2129 7.17852 42.9722 6.45098ZM36.7508 10.2907C36.5279 10.3452 36.3191 10.3982 36.1233 10.4479L36.1233 10.4479C35.3985 10.632 34.8511 10.771 34.4215 10.771C35.0764 12.371 35.8994 16.0507 36.4233 18.6107C37.0782 21.8107 37.7331 28.5307 37.7331 33.6507C37.7331 37.7467 37.5148 41.544 37.4057 42.9307C38.1697 41.9707 39.4907 39.8908 40.0146 38.6108C40.5385 37.3308 41.4441 34.9307 41.6624 33.9707C41.7716 32.0507 41.9899 27.7627 41.9899 25.9707C41.9899 23.7307 41.9899 19.5707 41.335 15.4107C40.8111 12.0827 39.5886 9.54404 39.0429 8.6907C38.7154 9.11737 37.7986 10.0347 36.7508 10.2907ZM34.9737 18.8851L34.9741 18.8869C35.0227 19.126 35.0693 19.355 35.1136 19.5715C35.7685 22.7715 36.4234 29.4915 36.4234 31.7315C36.4234 33.5235 36.2051 40.5848 36.0959 43.8915C28.8844 41.8199 24.9998 40.4065 18.4141 37.1715C18.8506 37.1715 20.731 36.9612 20.731 36.2114C20.731 36.145 20.7327 35.9317 20.7351 35.6024V35.6021V35.6017C20.7507 33.5493 20.8002 26.9957 20.7061 23.4115L18.0866 18.6115C19.0689 19.3581 21.1646 20.8515 21.6885 20.8515C22.3434 20.8515 23.9806 19.5715 24.9629 16.3715C25.7487 13.8115 25.2903 11.0381 24.9629 9.97147C27.7184 10.6115 30.2694 10.9311 32.9815 10.7712C33.6808 12.5284 34.4471 16.2963 34.9737 18.8851Z" fill="#546DDB"/>
<path fill-rule="evenodd" clip-rule="evenodd" d="M34.9015 4.05126L35.8615 0.691193L38.2615 2.61119C40.1222 4.09977 40.2518 5.58846 40.4398 7.74808L40.4398 7.74824C40.4943 8.3741 40.5536 9.05631 40.6615 9.81119C39.2215 5.97119 38.2615 5.49119 37.3015 5.01119C36.3415 4.53119 36.3415 4.53119 34.9015 4.05126L34.9015 4.05126ZM15.1396 7.73111L16.1219 2.61111C17.9774 3.99778 21.9504 7.15511 22.9982 8.69111C24.046 10.2271 24.0541 12.3178 23.9449 13.1711C21.6137 12.2111 20.1395 11.2831 19.3536 10.7711C18.5678 10.2591 15.9036 8.37111 15.1396 7.73111ZM42.3173 13.8113C42.8631 13.4913 44.082 12.7233 44.6059 12.2113C45.1298 11.6993 45.9192 10.718 46.2466 10.2913L46.2832 10.3978C46.5101 11.0564 46.9015 12.1922 46.9015 14.1313V17.9713C46.6832 18.6113 46.0502 19.9553 45.2643 20.2113C44.4784 20.4673 43.6271 20.1046 43.2996 19.8913C43.2865 19.714 43.2758 19.553 43.2654 19.3973L43.2654 19.3969L43.2651 19.3927V19.3926V19.3926C43.2195 18.7076 43.1806 18.1229 42.9722 16.6913C42.8699 15.9888 42.6595 15.1736 42.4991 14.5518C42.4201 14.2461 42.3533 13.9871 42.3173 13.8113ZM5.97127 13.4915C6.95359 13.4915 9.01554 13.8163 10.8829 14.7715C13.385 16.0513 15.1396 17.0115 16.4494 18.2915C17.3107 19.1332 18.3048 21.33 18.9951 22.8556C19.1446 23.1859 19.2798 23.4847 19.3964 23.7315C17.7592 24.2648 13.6334 25.2035 10.228 24.6915C6.82262 24.1795 5.09809 23.4115 4.6615 23.0915C4.6615 21.9182 4.76935 19.2591 4.98894 17.9715C5.31638 16.0515 5.57976 14.6113 5.97127 13.4915ZM18.599 17.627L18.599 17.627C18.0653 17.2836 17.5547 16.9552 17.1043 16.6911C16.8834 16.5616 16.6089 16.3972 16.2944 16.2088C14.2779 15.0006 10.6178 12.8079 8.91822 12.5311C7.3465 12.2751 6.71628 12.2111 6.49799 12.2111C7.41625 11.2511 8.85273 10.1631 9.90055 9.65111C10.9484 9.13911 12.1223 8.69111 13.8298 8.37111C14.5939 9.01111 16.512 10.3766 17.7592 11.2511C19.8128 12.6911 22.4169 13.9711 23.9449 14.6111C23.9449 15.0911 23.9187 16.106 23.4858 17.0111C23.0267 17.9711 22.5676 18.9311 21.6493 19.4111C20.7199 18.9912 19.6174 18.282 18.5991 17.627L18.5991 17.627L18.599 17.627L18.599 17.627ZM13.5024 26.291C8.79367 26.6112 5.75297 25.4379 4.6615 24.6912C4.6615 25.9712 5.25087 28.787 6.29869 31.091C7.60846 33.971 9.57311 35.891 13.5024 36.211C16.6459 36.467 18.7415 35.891 19.3964 35.571L19.3537 25.1712C19.0262 25.4912 17.692 26.0062 13.5024 26.291ZM43.2433 21.3457C43.3844 21.4865 43.9759 22.077 45.065 21.8109C45.934 21.5986 46.4747 20.6378 46.7584 20.1336C46.8168 20.0299 46.8643 19.9455 46.9015 19.8909V26.6109C46.9015 26.8242 46.618 28.9755 45.9832 29.9709C45.065 31.4109 43.6271 31.4111 43.2996 31.4111L43.2285 21.3309L43.2433 21.3457ZM42.9722 6.45098C41.6624 5.68298 41.1415 5.97121 41.1415 5.97121L41.9898 12.531C42.0784 12.479 42.175 12.4249 42.2785 12.3669L42.2788 12.3667C42.813 12.0672 43.5314 11.6644 44.2819 10.931C45.1592 10.0736 45.2855 9.81592 45.4529 9.47423C45.4753 9.42855 45.4984 9.38137 45.5241 9.33106L45.4675 9.23834C45.0992 8.63363 44.2129 7.17852 42.9722 6.45098ZM36.7508 10.2907C36.5279 10.3452 36.3191 10.3982 36.1233 10.4479L36.1233 10.4479C35.3985 10.632 34.8511 10.771 34.4215 10.771C35.0764 12.371 35.8994 16.0507 36.4233 18.6107C37.0782 21.8107 37.7331 28.5307 37.7331 33.6507C37.7331 37.7467 37.5148 41.544 37.4057 42.9307C38.1697 41.9707 39.4907 39.8908 40.0146 38.6108C40.5385 37.3308 41.4441 34.9307 41.6624 33.9707C41.7716 32.0507 41.9899 27.7627 41.9899 25.9707C41.9899 23.7307 41.9899 19.5707 41.335 15.4107C40.8111 12.0827 39.5886 9.54404 39.0429 8.6907C38.7154 9.11737 37.7986 10.0347 36.7508 10.2907ZM34.9737 18.8851L34.9741 18.8869C35.0227 19.126 35.0693 19.355 35.1136 19.5715C35.7685 22.7715 36.4234 29.4915 36.4234 31.7315C36.4234 33.5235 36.2051 40.5848 36.0959 43.8915C28.8844 41.8199 24.9998 40.4065 18.4141 37.1715C18.8506 37.1715 20.731 36.9612 20.731 36.2114C20.731 36.145 20.7327 35.9317 20.7351 35.6024V35.6021V35.6017C20.7507 33.5493 20.8002 26.9957 20.7061 23.4115L18.0866 18.6115C19.0689 19.3581 21.1646 20.8515 21.6885 20.8515C22.3434 20.8515 23.9806 19.5715 24.9629 16.3715C25.7487 13.8115 25.2903 11.0381 24.9629 9.97147C27.7184 10.6115 30.2694 10.9311 32.9815 10.7712C33.6808 12.5284 34.4471 16.2963 34.9737 18.8851Z" fill="white" fill-opacity="0.2"/>
<path fill-rule="evenodd" clip-rule="evenodd" d="M4.81592 19.4903C4.89467 19.6636 4.97527 19.8368 5.05775 20.0099C5.74807 21.4585 6.53998 22.8355 7.4182 24.1331C8.185 24.3302 9.11706 24.5245 10.228 24.6915C13.6334 25.2035 17.7592 24.2648 19.3964 23.7315C19.2798 23.4847 19.1446 23.1859 18.9951 22.8556C18.3048 21.33 17.3107 19.1332 16.4494 18.2915C15.1396 17.0115 13.385 16.0513 10.8829 14.7715C9.01553 13.8163 6.95358 13.4915 5.97126 13.4915C5.57975 14.6113 5.31637 16.0515 4.98893 17.9715C4.92042 18.3732 4.86279 18.9084 4.81592 19.4903ZM46.9015 22.5884V19.8909C46.8642 19.9455 46.8168 20.0299 46.7584 20.1336C46.4747 20.6378 45.934 21.5986 45.065 21.8109C43.9759 22.077 43.3844 21.4865 43.2433 21.3457L43.2284 21.3309L43.2996 31.4111C43.31 31.4111 43.3214 31.4111 43.334 31.411C45.1157 28.9955 46.2916 25.9476 46.9015 22.5884ZM41.7009 33.2775C41.8158 31.16 41.9898 27.5706 41.9898 25.9707C41.9898 23.7307 41.9898 19.5707 41.335 15.4107C40.8111 12.0827 39.5886 9.54404 39.0429 8.6907C38.7154 9.11737 37.7986 10.0347 36.7508 10.2907C36.5279 10.3452 36.3191 10.3982 36.1233 10.4479L36.1232 10.4479C35.3985 10.632 34.8511 10.771 34.4215 10.771C35.0764 12.371 35.8994 16.0507 36.4233 18.6107C37.0782 21.8107 37.7331 28.5307 37.7331 33.6507C37.7331 34.4147 37.7255 35.1682 37.7124 35.8977C39.2263 35.269 40.5537 34.3787 41.7009 33.2775ZM36.3244 36.3916C36.381 34.3303 36.4233 32.5203 36.4233 31.7315C36.4233 29.4915 35.7685 22.7715 35.1136 19.5715C35.0693 19.355 35.0227 19.126 34.9741 18.8869L34.9737 18.8851C34.4471 16.2963 33.6807 12.5284 32.9815 10.7712C30.2694 10.9311 27.7184 10.6115 24.9629 9.97147C25.2903 11.0381 25.7487 13.8115 24.9629 16.3715C23.9806 19.5715 22.3433 20.8515 21.6885 20.8515C21.1646 20.8515 19.0689 19.3581 18.0866 18.6115L20.7061 23.4115C20.7952 26.8072 20.7555 32.8683 20.7378 35.2417C25.8304 37.4055 31.3195 37.9369 36.3244 36.3916ZM19.3925 34.6276L19.3537 25.1712C19.0262 25.4912 17.692 26.0062 13.5024 26.291C11.7139 26.4126 10.166 26.3188 8.87418 26.1147C11.8021 29.7925 15.4507 32.7021 19.3925 34.6276ZM34.9015 4.05126L35.8615 0.691193L38.2615 2.61119C40.1222 4.09977 40.2518 5.58846 40.4398 7.74808L40.4398 7.74824C40.4942 8.3741 40.5536 9.05631 40.6615 9.81119C39.2215 5.97119 38.2615 5.49119 37.3015 5.01119C36.3415 4.53119 36.3415 4.53119 34.9015 4.05126L34.9015 4.05126ZM15.1396 7.73111L16.1219 2.61111C17.9774 3.99778 21.9504 7.15511 22.9982 8.69111C24.046 10.2271 24.0541 12.3178 23.9449 13.1711C21.6137 12.2111 20.1395 11.2831 19.3536 10.7711C18.5678 10.2591 15.9036 8.37111 15.1396 7.73111ZM42.3173 13.8113C42.863 13.4913 44.0819 12.7233 44.6058 12.2113C45.1298 11.6993 45.9192 10.718 46.2466 10.2913L46.2832 10.3978C46.5101 11.0564 46.9015 12.1922 46.9015 14.1313V17.9713C46.6832 18.6113 46.0501 19.9553 45.2643 20.2113C44.4784 20.4673 43.6271 20.1046 43.2996 19.8913C43.2865 19.714 43.2758 19.553 43.2654 19.3973L43.2654 19.3969L43.2651 19.3927V19.3926V19.3926C43.2195 18.7076 43.1806 18.1229 42.9722 16.6913C42.8699 15.9888 42.6595 15.1736 42.499 14.5518C42.4201 14.2461 42.3533 13.9871 42.3173 13.8113ZM18.599 17.627L18.599 17.627C18.0652 17.2836 17.5547 16.9552 17.1043 16.6911C16.8834 16.5616 16.6089 16.3972 16.2944 16.2088C14.2779 15.0006 10.6178 12.8079 8.91821 12.5311C7.34649 12.2751 6.71627 12.2111 6.49797 12.2111C7.41624 11.2511 8.85272 10.1631 9.90054 9.65111C10.9483 9.13911 12.1223 8.69111 13.8298 8.37111C14.5939 9.01111 16.512 10.3766 17.7591 11.2511C19.8128 12.6911 22.4169 13.9711 23.9449 14.6111C23.9449 15.0911 23.9187 16.106 23.4858 17.0111C23.0267 17.9711 22.5675 18.9311 21.6493 19.4111C20.7199 18.9912 19.6174 18.282 18.5991 17.627L18.599 17.627L18.599 17.627L18.599 17.627ZM42.9722 6.45098C41.6624 5.68298 41.1415 5.97121 41.1415 5.97121L41.9898 12.531C42.0784 12.479 42.175 12.4249 42.2785 12.3669L42.2787 12.3667C42.813 12.0672 43.5314 11.6644 44.2819 10.931C45.1592 10.0736 45.2855 9.81592 45.4529 9.47423C45.4753 9.42855 45.4984 9.38137 45.5241 9.33106L45.4675 9.23834C45.0992 8.63363 44.2129 7.17852 42.9722 6.45098Z" fill="#1D8CE0"/>
<path fill-rule="evenodd" clip-rule="evenodd" d="M4.81592 19.4903C4.89467 19.6636 4.97527 19.8368 5.05775 20.0099C5.74807 21.4585 6.53998 22.8355 7.4182 24.1331C8.185 24.3302 9.11706 24.5245 10.228 24.6915C13.6334 25.2035 17.7592 24.2648 19.3964 23.7315C19.2798 23.4847 19.1446 23.1859 18.9951 22.8556C18.3048 21.33 17.3107 19.1332 16.4494 18.2915C15.1396 17.0115 13.385 16.0513 10.8829 14.7715C9.01553 13.8163 6.95358 13.4915 5.97126 13.4915C5.57975 14.6113 5.31637 16.0515 4.98893 17.9715C4.92042 18.3732 4.86279 18.9084 4.81592 19.4903ZM46.9015 22.5884V19.8909C46.8642 19.9455 46.8168 20.0299 46.7584 20.1336C46.4747 20.6378 45.934 21.5986 45.065 21.8109C43.9759 22.077 43.3844 21.4865 43.2433 21.3457L43.2284 21.3309L43.2996 31.4111C43.31 31.4111 43.3214 31.4111 43.334 31.411C45.1157 28.9955 46.2916 25.9476 46.9015 22.5884ZM41.7009 33.2775C41.8158 31.16 41.9898 27.5706 41.9898 25.9707C41.9898 23.7307 41.9898 19.5707 41.335 15.4107C40.8111 12.0827 39.5886 9.54404 39.0429 8.6907C38.7154 9.11737 37.7986 10.0347 36.7508 10.2907C36.5279 10.3452 36.3191 10.3982 36.1233 10.4479L36.1232 10.4479C35.3985 10.632 34.8511 10.771 34.4215 10.771C35.0764 12.371 35.8994 16.0507 36.4233 18.6107C37.0782 21.8107 37.7331 28.5307 37.7331 33.6507C37.7331 34.4147 37.7255 35.1682 37.7124 35.8977C39.2263 35.269 40.5537 34.3787 41.7009 33.2775ZM36.3244 36.3916C36.381 34.3303 36.4233 32.5203 36.4233 31.7315C36.4233 29.4915 35.7685 22.7715 35.1136 19.5715C35.0693 19.355 35.0227 19.126 34.9741 18.8869L34.9737 18.8851C34.4471 16.2963 33.6807 12.5284 32.9815 10.7712C30.2694 10.9311 27.7184 10.6115 24.9629 9.97147C25.2903 11.0381 25.7487 13.8115 24.9629 16.3715C23.9806 19.5715 22.3433 20.8515 21.6885 20.8515C21.1646 20.8515 19.0689 19.3581 18.0866 18.6115L20.7061 23.4115C20.7952 26.8072 20.7555 32.8683 20.7378 35.2417C25.8304 37.4055 31.3195 37.9369 36.3244 36.3916ZM19.3925 34.6276L19.3537 25.1712C19.0262 25.4912 17.692 26.0062 13.5024 26.291C11.7139 26.4126 10.166 26.3188 8.87418 26.1147C11.8021 29.7925 15.4507 32.7021 19.3925 34.6276ZM34.9015 4.05126L35.8615 0.691193L38.2615 2.61119C40.1222 4.09977 40.2518 5.58846 40.4398 7.74808L40.4398 7.74824C40.4942 8.3741 40.5536 9.05631 40.6615 9.81119C39.2215 5.97119 38.2615 5.49119 37.3015 5.01119C36.3415 4.53119 36.3415 4.53119 34.9015 4.05126L34.9015 4.05126ZM15.1396 7.73111L16.1219 2.61111C17.9774 3.99778 21.9504 7.15511 22.9982 8.69111C24.046 10.2271 24.0541 12.3178 23.9449 13.1711C21.6137 12.2111 20.1395 11.2831 19.3536 10.7711C18.5678 10.2591 15.9036 8.37111 15.1396 7.73111ZM42.3173 13.8113C42.863 13.4913 44.0819 12.7233 44.6058 12.2113C45.1298 11.6993 45.9192 10.718 46.2466 10.2913L46.2832 10.3978C46.5101 11.0564 46.9015 12.1922 46.9015 14.1313V17.9713C46.6832 18.6113 46.0501 19.9553 45.2643 20.2113C44.4784 20.4673 43.6271 20.1046 43.2996 19.8913C43.2865 19.714 43.2758 19.553 43.2654 19.3973L43.2654 19.3969L43.2651 19.3927V19.3926V19.3926C43.2195 18.7076 43.1806 18.1229 42.9722 16.6913C42.8699 15.9888 42.6595 15.1736 42.499 14.5518C42.4201 14.2461 42.3533 13.9871 42.3173 13.8113ZM18.599 17.627L18.599 17.627C18.0652 17.2836 17.5547 16.9552 17.1043 16.6911C16.8834 16.5616 16.6089 16.3972 16.2944 16.2088C14.2779 15.0006 10.6178 12.8079 8.91821 12.5311C7.34649 12.2751 6.71627 12.2111 6.49797 12.2111C7.41624 11.2511 8.85272 10.1631 9.90054 9.65111C10.9483 9.13911 12.1223 8.69111 13.8298 8.37111C14.5939 9.01111 16.512 10.3766 17.7591 11.2511C19.8128 12.6911 22.4169 13.9711 23.9449 14.6111C23.9449 15.0911 23.9187 16.106 23.4858 17.0111C23.0267 17.9711 22.5675 18.9311 21.6493 19.4111C20.7199 18.9912 19.6174 18.282 18.5991 17.627L18.599 17.627L18.599 17.627L18.599 17.627ZM42.9722 6.45098C41.6624 5.68298 41.1415 5.97121 41.1415 5.97121L41.9898 12.531C42.0784 12.479 42.175 12.4249 42.2785 12.3669L42.2787 12.3667C42.813 12.0672 43.5314 11.6644 44.2819 10.931C45.1592 10.0736 45.2855 9.81592 45.4529 9.47423C45.4753 9.42855 45.4984 9.38137 45.5241 9.33106L45.4675 9.23834C45.0992 8.63363 44.2129 7.17852 42.9722 6.45098Z" fill="white" fill-opacity="0.2"/>
<path fill-rule="evenodd" clip-rule="evenodd" d="M6.65608 13.5304C7.131 14.8891 7.73222 16.2485 8.46367 17.5926C9.94854 20.321 11.8337 22.7357 13.9778 24.7718C16.2455 24.589 18.3395 24.0758 19.3964 23.7315C19.2798 23.4847 19.1446 23.1859 18.9951 22.8556C18.3048 21.33 17.3107 19.1332 16.4494 18.2915C15.1396 17.0115 13.385 16.0513 10.8829 14.7715C9.37804 14.0017 7.74681 13.6414 6.65608 13.5304ZM46.4122 20.7074C46.1021 21.1682 45.6607 21.6654 45.065 21.8109C43.9759 22.077 43.3844 21.4865 43.2433 21.3457L43.2285 21.3309L43.2654 26.5611C44.6964 24.881 45.7541 22.894 46.4122 20.7074ZM41.9468 27.9245C41.9732 27.1511 41.9899 26.4657 41.9899 25.9707C41.9899 23.7307 41.9899 19.5707 41.335 15.4107C40.8111 12.0827 39.5886 9.54404 39.0429 8.6907C38.7154 9.11737 37.7986 10.0347 36.7508 10.2907C36.5279 10.3452 36.3191 10.3982 36.1233 10.4479L36.1233 10.4479C35.3985 10.632 34.8511 10.771 34.4215 10.771C35.0764 12.371 35.8994 16.0507 36.4233 18.6107C36.9566 21.2162 37.4898 26.1551 37.6695 30.664C39.2918 29.9687 40.7212 29.0406 41.9468 27.9245ZM36.4122 31.1425C36.3232 28.4842 35.7184 22.5267 35.1136 19.5715C35.0698 19.3577 35.0238 19.1316 34.9759 18.8957L34.9741 18.8869L34.9737 18.8851C34.4471 16.2963 33.6808 12.5284 32.9815 10.7712C30.2694 10.9311 27.7184 10.6115 24.9629 9.97147C25.2903 11.0381 25.7487 13.8115 24.9629 16.3715C23.9806 19.5715 22.3434 20.8515 21.6885 20.8515C21.1646 20.8515 19.0689 19.3581 18.0866 18.6115L20.7061 23.4115C20.7496 25.0667 20.7624 27.3552 20.7621 29.5413C25.8668 32.077 31.4792 32.7918 36.4122 31.1425ZM19.3686 28.7965L19.3537 25.1712C19.0852 25.4336 18.1397 25.8271 15.4983 26.1173C16.7287 27.1309 18.0264 28.0275 19.3686 28.7965ZM34.9015 4.05126L35.8615 0.691193L38.2615 2.61119C40.1222 4.09977 40.2518 5.58846 40.4398 7.74808L40.4398 7.74824C40.4943 8.3741 40.5536 9.05631 40.6615 9.81119C39.2215 5.97119 38.2615 5.49119 37.3015 5.01119C36.3415 4.53119 36.3415 4.53119 34.9015 4.05126L34.9015 4.05126ZM15.1396 7.73111L16.1219 2.61111C17.9774 3.99778 21.9504 7.15511 22.9982 8.69111C24.046 10.2271 24.0541 12.3178 23.9449 13.1711C21.6137 12.2111 20.1395 11.2831 19.3536 10.7711C18.5678 10.2591 15.9036 8.37111 15.1396 7.73111ZM42.3173 13.8113C42.8631 13.4913 44.082 12.7233 44.6059 12.2113C45.1298 11.6993 45.9192 10.718 46.2466 10.2913L46.2832 10.3978C46.5101 11.0564 46.9015 12.1922 46.9015 14.1313V17.9713C46.6832 18.6113 46.0502 19.9553 45.2643 20.2113C44.4784 20.4673 43.6271 20.1046 43.2996 19.8913C43.2865 19.714 43.2758 19.553 43.2654 19.3973L43.2654 19.3969L43.2651 19.3927V19.3926V19.3926C43.2195 18.7076 43.1806 18.1229 42.9722 16.6913C42.8699 15.9888 42.6595 15.1736 42.4991 14.5518C42.4201 14.2461 42.3533 13.9871 42.3173 13.8113ZM18.599 17.627L18.599 17.627C18.0653 17.2836 17.5547 16.9552 17.1043 16.6911C16.8834 16.5616 16.6089 16.3972 16.2944 16.2088C14.2779 15.0006 10.6178 12.8079 8.91822 12.5311C7.3465 12.2751 6.71628 12.2111 6.49799 12.2111C7.41625 11.2511 8.85273 10.1631 9.90055 9.65111C10.9484 9.13911 12.1223 8.69111 13.8298 8.37111C14.5939 9.01111 16.512 10.3766 17.7592 11.2511C19.8128 12.6911 22.4169 13.9711 23.9449 14.6111C23.9449 15.0911 23.9187 16.106 23.4858 17.0111C23.0267 17.9711 22.5676 18.9311 21.6493 19.4111C20.7199 18.9912 19.6174 18.282 18.5991 17.627L18.5991 17.627L18.599 17.627L18.599 17.627ZM42.9722 6.45098C41.6624 5.68298 41.1415 5.97121 41.1415 5.97121L41.9898 12.531C42.0784 12.479 42.175 12.4249 42.2785 12.3669L42.2788 12.3667C42.813 12.0672 43.5314 11.6644 44.2819 10.931C45.1592 10.0736 45.2855 9.81592 45.4529 9.47423C45.4753 9.42855 45.4984 9.38137 45.5241 9.33106L45.4675 9.23834C45.0992 8.63363 44.2129 7.17852 42.9722 6.45098Z" fill="#2FC4A7"/>
<path fill-rule="evenodd" clip-rule="evenodd" d="M6.65608 13.5304C7.131 14.8891 7.73222 16.2485 8.46367 17.5926C9.94854 20.321 11.8337 22.7357 13.9778 24.7718C16.2455 24.589 18.3395 24.0758 19.3964 23.7315C19.2798 23.4847 19.1446 23.1859 18.9951 22.8556C18.3048 21.33 17.3107 19.1332 16.4494 18.2915C15.1396 17.0115 13.385 16.0513 10.8829 14.7715C9.37804 14.0017 7.74681 13.6414 6.65608 13.5304ZM46.4122 20.7074C46.1021 21.1682 45.6607 21.6654 45.065 21.8109C43.9759 22.077 43.3844 21.4865 43.2433 21.3457L43.2285 21.3309L43.2654 26.5611C44.6964 24.881 45.7541 22.894 46.4122 20.7074ZM41.9468 27.9245C41.9732 27.1511 41.9899 26.4657 41.9899 25.9707C41.9899 23.7307 41.9899 19.5707 41.335 15.4107C40.8111 12.0827 39.5886 9.54404 39.0429 8.6907C38.7154 9.11737 37.7986 10.0347 36.7508 10.2907C36.5279 10.3452 36.3191 10.3982 36.1233 10.4479L36.1233 10.4479C35.3985 10.632 34.8511 10.771 34.4215 10.771C35.0764 12.371 35.8994 16.0507 36.4233 18.6107C36.9566 21.2162 37.4898 26.1551 37.6695 30.664C39.2918 29.9687 40.7212 29.0406 41.9468 27.9245ZM36.4122 31.1425C36.3232 28.4842 35.7184 22.5267 35.1136 19.5715C35.0698 19.3577 35.0238 19.1316 34.9759 18.8957L34.9741 18.8869L34.9737 18.8851C34.4471 16.2963 33.6808 12.5284 32.9815 10.7712C30.2694 10.9311 27.7184 10.6115 24.9629 9.97147C25.2903 11.0381 25.7487 13.8115 24.9629 16.3715C23.9806 19.5715 22.3434 20.8515 21.6885 20.8515C21.1646 20.8515 19.0689 19.3581 18.0866 18.6115L20.7061 23.4115C20.7496 25.0667 20.7624 27.3552 20.7621 29.5413C25.8668 32.077 31.4792 32.7918 36.4122 31.1425ZM19.3686 28.7965L19.3537 25.1712C19.0852 25.4336 18.1397 25.8271 15.4983 26.1173C16.7287 27.1309 18.0264 28.0275 19.3686 28.7965ZM34.9015 4.05126L35.8615 0.691193L38.2615 2.61119C40.1222 4.09977 40.2518 5.58846 40.4398 7.74808L40.4398 7.74824C40.4943 8.3741 40.5536 9.05631 40.6615 9.81119C39.2215 5.97119 38.2615 5.49119 37.3015 5.01119C36.3415 4.53119 36.3415 4.53119 34.9015 4.05126L34.9015 4.05126ZM15.1396 7.73111L16.1219 2.61111C17.9774 3.99778 21.9504 7.15511 22.9982 8.69111C24.046 10.2271 24.0541 12.3178 23.9449 13.1711C21.6137 12.2111 20.1395 11.2831 19.3536 10.7711C18.5678 10.2591 15.9036 8.37111 15.1396 7.73111ZM42.3173 13.8113C42.8631 13.4913 44.082 12.7233 44.6059 12.2113C45.1298 11.6993 45.9192 10.718 46.2466 10.2913L46.2832 10.3978C46.5101 11.0564 46.9015 12.1922 46.9015 14.1313V17.9713C46.6832 18.6113 46.0502 19.9553 45.2643 20.2113C44.4784 20.4673 43.6271 20.1046 43.2996 19.8913C43.2865 19.714 43.2758 19.553 43.2654 19.3973L43.2654 19.3969L43.2651 19.3927V19.3926V19.3926C43.2195 18.7076 43.1806 18.1229 42.9722 16.6913C42.8699 15.9888 42.6595 15.1736 42.4991 14.5518C42.4201 14.2461 42.3533 13.9871 42.3173 13.8113ZM18.599 17.627L18.599 17.627C18.0653 17.2836 17.5547 16.9552 17.1043 16.6911C16.8834 16.5616 16.6089 16.3972 16.2944 16.2088C14.2779 15.0006 10.6178 12.8079 8.91822 12.5311C7.3465 12.2751 6.71628 12.2111 6.49799 12.2111C7.41625 11.2511 8.85273 10.1631 9.90055 9.65111C10.9484 9.13911 12.1223 8.69111 13.8298 8.37111C14.5939 9.01111 16.512 10.3766 17.7592 11.2511C19.8128 12.6911 22.4169 13.9711 23.9449 14.6111C23.9449 15.0911 23.9187 16.106 23.4858 17.0111C23.0267 17.9711 22.5676 18.9311 21.6493 19.4111C20.7199 18.9912 19.6174 18.282 18.5991 17.627L18.5991 17.627L18.599 17.627L18.599 17.627ZM42.9722 6.45098C41.6624 5.68298 41.1415 5.97121 41.1415 5.97121L41.9898 12.531C42.0784 12.479 42.175 12.4249 42.2785 12.3669L42.2788 12.3667C42.813 12.0672 43.5314 11.6644 44.2819 10.931C45.1592 10.0736 45.2855 9.81592 45.4529 9.47423C45.4753 9.42855 45.4984 9.38137 45.5241 9.33106L45.4675 9.23834C45.0992 8.63363 44.2129 7.17852 42.9722 6.45098Z" fill="white" fill-opacity="0.2"/>
<path fill-rule="evenodd" clip-rule="evenodd" d="M13.8113 8.3746C13.9698 9.83626 14.3317 11.3273 14.913 12.8126C15.4389 14.1564 16.113 15.4157 16.9075 16.575C16.9771 16.6162 17.0428 16.655 17.1043 16.6911C17.5547 16.9552 18.0653 17.2837 18.599 17.627L18.5991 17.627L18.5991 17.627L18.5991 17.627C19.6174 18.282 20.7199 18.9912 21.6493 19.4111C22.5676 18.9311 23.0267 17.9711 23.4858 17.0111C23.9187 16.106 23.945 15.0911 23.945 14.6111C22.4169 13.9711 19.8128 12.6911 17.7592 11.2511C16.512 10.3766 14.5939 9.01111 13.8299 8.37111C13.8237 8.37227 13.8175 8.37343 13.8113 8.3746ZM45.7551 10.9104C45.3916 11.3562 44.9436 11.8813 44.6059 12.2113C44.082 12.7233 42.8631 13.4913 42.3173 13.8113C42.3533 13.9871 42.4201 14.246 42.4991 14.5517L42.4991 14.5518C42.6595 15.1736 42.8699 15.9888 42.9722 16.6913C43.1488 17.904 43.2037 18.509 43.2441 19.082C44.8634 16.7735 45.75 13.9391 45.7551 10.9104ZM41.8744 20.7301C41.784 19.0655 41.6227 17.2381 41.335 15.4107C40.8111 12.0827 39.5886 9.54404 39.0429 8.6907C38.7155 9.11737 37.7986 10.0347 36.7508 10.2907C36.5279 10.3452 36.3191 10.3982 36.1233 10.4479C35.3986 10.632 34.8512 10.771 34.4215 10.771C35.0764 12.371 35.8995 16.0507 36.4234 18.6107C36.6851 19.8897 36.9469 21.7311 37.1668 23.8079C39.0028 23.101 40.5857 22.0446 41.8744 20.7301ZM35.8178 24.2508C35.6063 22.4768 35.3599 20.7751 35.1136 19.5715C35.0695 19.356 35.0232 19.1281 34.9748 18.8902L34.9743 18.8878L34.9737 18.885C34.4472 16.2963 33.6808 12.5284 32.9815 10.7712C30.2694 10.9311 27.7185 10.6115 24.9629 9.97147C25.2904 11.0381 25.7488 13.8115 24.9629 16.3715C23.9806 19.5715 22.3434 20.8515 21.6885 20.8515C21.3653 20.8515 20.444 20.2832 19.5549 19.6725C23.9564 23.8386 30.1529 25.7955 35.7966 24.2566C35.8037 24.2547 35.8107 24.2527 35.8178 24.2508ZM34.9015 4.05126L35.8615 0.691193L38.2615 2.61119C40.1222 4.09977 40.2518 5.58846 40.4398 7.74808C40.4943 8.37399 40.5537 9.05625 40.6615 9.81119C39.2215 5.97119 38.2615 5.49119 37.3015 5.01119C36.3415 4.53119 36.3415 4.53119 34.9015 4.05126L34.9015 4.05126ZM15.1396 7.73111L16.122 2.61111C17.9775 3.99778 21.9504 7.15511 22.9982 8.69111C24.0461 10.2271 24.0541 12.3178 23.945 13.1711C21.6137 12.2111 20.1395 11.2831 19.3537 10.7711C18.5678 10.2591 15.9037 8.37111 15.1396 7.73111ZM42.9722 6.45098C41.6624 5.68298 41.1415 5.97121 41.1415 5.97121L41.9899 12.531C42.0785 12.479 42.1751 12.4248 42.2787 12.3668L42.2788 12.3667C42.813 12.0672 43.5315 11.6644 44.282 10.931C45.1593 10.0736 45.2855 9.81591 45.4529 9.47422C45.4753 9.42855 45.4984 9.38137 45.5241 9.33106L45.4675 9.23835L45.4675 9.23833C45.0992 8.63363 44.213 7.17852 42.9722 6.45098Z" fill="#FAA21E"/>
<path fill-rule="evenodd" clip-rule="evenodd" d="M13.8113 8.3746C13.9698 9.83626 14.3317 11.3273 14.913 12.8126C15.4389 14.1564 16.113 15.4157 16.9075 16.575C16.9771 16.6162 17.0428 16.655 17.1043 16.6911C17.5547 16.9552 18.0653 17.2837 18.599 17.627L18.5991 17.627L18.5991 17.627L18.5991 17.627C19.6174 18.282 20.7199 18.9912 21.6493 19.4111C22.5676 18.9311 23.0267 17.9711 23.4858 17.0111C23.9187 16.106 23.945 15.0911 23.945 14.6111C22.4169 13.9711 19.8128 12.6911 17.7592 11.2511C16.512 10.3766 14.5939 9.01111 13.8299 8.37111C13.8237 8.37227 13.8175 8.37343 13.8113 8.3746ZM45.7551 10.9104C45.3916 11.3562 44.9436 11.8813 44.6059 12.2113C44.082 12.7233 42.8631 13.4913 42.3173 13.8113C42.3533 13.9871 42.4201 14.246 42.4991 14.5517L42.4991 14.5518C42.6595 15.1736 42.8699 15.9888 42.9722 16.6913C43.1488 17.904 43.2037 18.509 43.2441 19.082C44.8634 16.7735 45.75 13.9391 45.7551 10.9104ZM41.8744 20.7301C41.784 19.0655 41.6227 17.2381 41.335 15.4107C40.8111 12.0827 39.5886 9.54404 39.0429 8.6907C38.7155 9.11737 37.7986 10.0347 36.7508 10.2907C36.5279 10.3452 36.3191 10.3982 36.1233 10.4479C35.3986 10.632 34.8512 10.771 34.4215 10.771C35.0764 12.371 35.8995 16.0507 36.4234 18.6107C36.6851 19.8897 36.9469 21.7311 37.1668 23.8079C39.0028 23.101 40.5857 22.0446 41.8744 20.7301ZM35.8178 24.2508C35.6063 22.4768 35.3599 20.7751 35.1136 19.5715C35.0695 19.356 35.0232 19.1281 34.9748 18.8902L34.9743 18.8878L34.9737 18.885C34.4472 16.2963 33.6808 12.5284 32.9815 10.7712C30.2694 10.9311 27.7185 10.6115 24.9629 9.97147C25.2904 11.0381 25.7488 13.8115 24.9629 16.3715C23.9806 19.5715 22.3434 20.8515 21.6885 20.8515C21.3653 20.8515 20.444 20.2832 19.5549 19.6725C23.9564 23.8386 30.1529 25.7955 35.7966 24.2566C35.8037 24.2547 35.8107 24.2527 35.8178 24.2508ZM34.9015 4.05126L35.8615 0.691193L38.2615 2.61119C40.1222 4.09977 40.2518 5.58846 40.4398 7.74808C40.4943 8.37399 40.5537 9.05625 40.6615 9.81119C39.2215 5.97119 38.2615 5.49119 37.3015 5.01119C36.3415 4.53119 36.3415 4.53119 34.9015 4.05126L34.9015 4.05126ZM15.1396 7.73111L16.122 2.61111C17.9775 3.99778 21.9504 7.15511 22.9982 8.69111C24.0461 10.2271 24.0541 12.3178 23.945 13.1711C21.6137 12.2111 20.1395 11.2831 19.3537 10.7711C18.5678 10.2591 15.9037 8.37111 15.1396 7.73111ZM42.9722 6.45098C41.6624 5.68298 41.1415 5.97121 41.1415 5.97121L41.9899 12.531C42.0785 12.479 42.1751 12.4248 42.2787 12.3668L42.2788 12.3667C42.813 12.0672 43.5315 11.6644 44.282 10.931C45.1593 10.0736 45.2855 9.81591 45.4529 9.47422C45.4753 9.42855 45.4984 9.38137 45.5241 9.33106L45.4675 9.23835L45.4675 9.23833C45.0992 8.63363 44.213 7.17852 42.9722 6.45098Z" fill="white" fill-opacity="0.4"/>
<path fill-rule="evenodd" clip-rule="evenodd" d="M22.5726 5.36422C24.2392 5.7899 26.4431 6.27551 28.2373 6.45086C31.5117 6.77086 34.4409 6.77093 35.4233 6.45093C35.8588 6.30905 35.8824 5.97093 35.8824 5.97093C35.8824 5.49093 35.4233 5.21367 35.4233 5.21367C35.4233 5.21367 36.6352 5.63819 37.3015 5.97117C38.2615 6.45093 38.388 6.93117 38.388 7.41086C38.388 8.37086 36.0959 9.33079 34.1313 9.33086C31.7502 9.33094 28.5363 9.33094 24.308 8.69086C24.1988 8.26419 23.5221 7.28286 22.9982 6.77086C22.9177 6.6922 22.8233 6.60247 22.7188 6.50537C22.6504 6.12252 22.6021 5.74165 22.5726 5.36422Z" fill="#D0333D"/>
<path fill-rule="evenodd" clip-rule="evenodd" d="M22.5726 5.36422C24.2392 5.7899 26.4431 6.27551 28.2373 6.45086C31.5117 6.77086 34.4409 6.77093 35.4233 6.45093C35.8588 6.30905 35.8824 5.97093 35.8824 5.97093C35.8824 5.49093 35.4233 5.21367 35.4233 5.21367C35.4233 5.21367 36.6352 5.63819 37.3015 5.97117C38.2615 6.45093 38.388 6.93117 38.388 7.41086C38.388 8.37086 36.0959 9.33079 34.1313 9.33086C31.7502 9.33094 28.5363 9.33094 24.308 8.69086C24.1988 8.26419 23.5221 7.28286 22.9982 6.77086C22.9177 6.6922 22.8233 6.60247 22.7188 6.50537C22.6504 6.12252 22.6021 5.74165 22.5726 5.36422Z" fill="white" fill-opacity="0.4"/>
</svg>
