<svg width="50" height="50" viewBox="0 0 50 50" fill="none" xmlns="http://www.w3.org/2000/svg">
<g clip-path="url(#clip0_2644_11800)">
<path d="M39.7367 5.32922C38.1358 2.13648 33.5229 -0.223472 21.0952 1.62743C16.2623 2.61458 6.45826 5.47733 5.90592 9.03105C5.2155 13.4732 15.1493 7.54097 16.1274 11.6223C17.1056 15.7036 1.4552 19.3326 3.14423 24.2084C4.42935 27.9182 15.5718 27.1698 20.4048 27.9102L20.4792 27.9216C25.2822 28.6573 29.5832 29.3162 32.142 30.5015C36.6686 32.5982 35.2014 26.2111 32.142 24.2084C29.6192 22.557 25.4199 21.298 24.4417 17.8588C23.4636 14.4196 28.6899 13.8434 33.5229 11.6223C38.3558 9.40123 40.6453 7.14131 39.7367 5.32922Z" stroke="#898989" stroke-width="2" stroke-linecap="round"/>
<path d="M39.7367 5.32922C38.1358 2.13648 33.5229 -0.223472 21.0952 1.62743C16.2623 2.61458 6.45826 5.47733 5.90592 9.03105C5.2155 13.4732 15.1493 7.54097 16.1274 11.6223C17.1056 15.7036 1.4552 19.3326 3.14423 24.2084C4.42935 27.9182 15.5718 27.1698 20.4048 27.9102L20.4792 27.9216C25.2822 28.6573 29.5832 29.3162 32.142 30.5015C36.6686 32.5982 35.2014 26.2111 32.142 24.2084C29.6192 22.557 25.4199 21.298 24.4417 17.8588C23.4636 14.4196 28.6899 13.8434 33.5229 11.6223C38.3558 9.40123 40.6453 7.14131 39.7367 5.32922Z" stroke="white" stroke-opacity="0.6" stroke-width="2" stroke-linecap="round"/>
<ellipse cx="38.1464" cy="39.1465" rx="7.84" ry="10.08" transform="rotate(-15 38.1464 39.1465)" fill="#2FC4A7"/>
<ellipse cx="38.1464" cy="39.1465" rx="7.84" ry="10.08" transform="rotate(-15 38.1464 39.1465)" fill="black" fill-opacity="0.2"/>
<path d="M35.5375 29.4099C31.3551 30.5306 29.1327 35.7983 30.5736 41.1756C30.7988 42.0161 31.1002 42.8096 31.4644 43.5458C32.9598 45.754 36.2983 47.1785 38.6783 46.5408C42.4648 45.5262 44.2272 41.2855 42.9228 36.4173C41.8792 32.5227 40.1742 30.4866 36.9313 29.2024C36.4652 29.2183 35.9991 29.2863 35.5375 29.4099Z" fill="#2FC4A7"/>
<path d="M36.9973 43.5126C34.0223 44.3098 31.247 42.7344 30.1599 38.6775C29.9126 34.8316 31.4921 31.384 34.2267 29.927C37.7427 28.9849 39.4596 33.2289 39.9814 35.1762C40.6336 37.6104 41.0632 42.4232 36.9973 43.5126Z" fill="#2FC4A7"/>
<path d="M36.9973 43.5126C34.0223 44.3098 31.247 42.7344 30.1599 38.6775C29.9126 34.8316 31.4921 31.384 34.2267 29.927C37.7427 28.9849 39.4596 33.2289 39.9814 35.1762C40.6336 37.6104 41.0632 42.4232 36.9973 43.5126Z" fill="white" fill-opacity="0.2"/>
<path d="M36.9973 43.5126C34.0223 44.3098 31.247 42.7344 30.1599 38.6775C29.9126 34.8316 31.4921 31.384 34.2267 29.927C37.7427 28.9849 39.4596 33.2289 39.9814 35.1762C40.6336 37.6104 41.0632 42.4232 36.9973 43.5126Z" fill="#2FC4A7"/>
<path d="M36.9973 43.5126C34.0223 44.3098 31.247 42.7344 30.1599 38.6775C29.9126 34.8316 31.4921 31.384 34.2267 29.927C37.7427 28.9849 39.4596 33.2289 39.9814 35.1762C40.6336 37.6104 41.0632 42.4232 36.9973 43.5126Z" fill="white" fill-opacity="0.4"/>
<ellipse cx="34.4104" cy="33.3304" rx="1.96" ry="1.4" transform="rotate(-59.8931 34.4104 33.3304)" fill="#FEFEFE"/>
<circle cx="32.9146" cy="37.0403" r="0.84" transform="rotate(-36.7566 32.9146 37.0403)" fill="#FEFEFE"/>
</g>
<defs>
<clipPath id="clip0_2644_11800">
<rect width="50" height="50" fill="white"/>
</clipPath>
</defs>
</svg>
