<svg width="51" height="51" viewBox="0 0 51 51" fill="none" xmlns="http://www.w3.org/2000/svg">
<g clip-path="url(#clip0_1338_8101)">
<g clip-path="url(#clip1_1338_8101)">
<path d="M37.8444 15.6078V19.2307C38.4611 18.476 39.9722 16.5136 42.9326 16.5136C46.6331 16.5136 48.0208 20.5893 48.0208 23.7593C48.0208 26.9294 46.1706 31.0051 42.9326 31.0051C40.3422 31.0051 38.3069 28.7408 37.8444 28.288V31.9109C38.3069 31.9109 39.2321 33.7223 42.9326 33.7223C47.5582 33.7223 50.7962 29.6466 50.7962 23.7593C50.7962 17.8721 47.5582 13.7964 42.9326 13.7964C39.6946 13.7964 38.3069 15.6078 37.8444 15.6078Z" fill="#898989"/>
<path d="M37.8444 15.6078V19.2307C38.4611 18.476 39.9722 16.5136 42.9326 16.5136C46.6331 16.5136 48.0208 20.5893 48.0208 23.7593C48.0208 26.9294 46.1706 31.0051 42.9326 31.0051C40.3422 31.0051 38.3069 28.7408 37.8444 28.288V31.9109C38.3069 31.9109 39.2321 33.7223 42.9326 33.7223C47.5582 33.7223 50.7962 29.6466 50.7962 23.7593C50.7962 17.8721 47.5582 13.7964 42.9326 13.7964C39.6946 13.7964 38.3069 15.6078 37.8444 15.6078Z" fill="white" fill-opacity="0.95"/>
<path d="M5.96289 7.8186H38.8407V44.1834C38.8407 44.1834 35.8518 49.1649 22.4018 49.1649C8.95181 49.1649 5.96289 44.1834 5.96289 44.1834V7.8186Z" fill="#898989"/>
<path d="M5.96289 7.8186H38.8407V44.1834C38.8407 44.1834 35.8518 49.1649 22.4018 49.1649C8.95181 49.1649 5.96289 44.1834 5.96289 44.1834V7.8186Z" fill="white" fill-opacity="0.85"/>
<ellipse cx="22.4018" cy="7.32046" rx="16.4389" ry="4.48333" fill="#FEFEFE"/>
<ellipse cx="22.4019" cy="7.32046" rx="14.4463" ry="3.48704" fill="#898989"/>
<ellipse cx="22.4019" cy="7.32046" rx="14.4463" ry="3.48704" fill="white" fill-opacity="0.4"/>
<path d="M33.8593 9.31305C33.8593 8.8149 28.7296 7.81861 22.4019 7.81861C16.0741 7.81861 10.9445 8.8149 10.9445 9.31305C10.9445 9.8112 16.0741 10.8075 22.4019 10.8075C28.7296 10.8075 33.8593 9.8112 33.8593 9.31305Z" fill="#FAA21E"/>
<path d="M33.8593 9.31305C33.8593 8.8149 28.7296 7.81861 22.4019 7.81861C16.0741 7.81861 10.9445 8.8149 10.9445 9.31305C10.9445 9.8112 16.0741 10.8075 22.4019 10.8075C28.7296 10.8075 33.8593 9.8112 33.8593 9.31305Z" fill="black" fill-opacity="0.6"/>
</g>
<path d="M10.7814 19.4861C11.0756 19.1918 11.9577 19.0866 12.3706 19.0866C14.136 19.0866 18.02 19.322 19.4324 20.2636C21.198 21.4407 30.2027 29.7853 31.2029 32.0341C31.8994 33.6 31.7919 37.0366 31.7919 38.5079C31.7919 38.9075 31.7919 39.6063 31.3797 40.0844" stroke="#1D8CE0" stroke-width="2.97782"/>
<path d="M16.9159 33.761L32.2315 18.4444" stroke="#898989" stroke-width="1.98521" stroke-linecap="round"/>
<path d="M16.9159 33.761L32.2315 18.4444" stroke="white" stroke-opacity="0.4" stroke-width="1.98521" stroke-linecap="round"/>
<path d="M32.2314 23.6444L26.7064 18.1194L34.5064 16.1694L32.2314 23.6444Z" fill="#898989"/>
<path d="M32.2314 23.6444L26.7064 18.1194L34.5064 16.1694L32.2314 23.6444Z" fill="white" fill-opacity="0.4"/>
<path d="M14.6815 31.4444H19.2315V35.9944L14.6815 40.5444V35.9944H10.1315L14.6815 31.4444Z" fill="#898989"/>
<path d="M14.6815 31.4444H19.2315V35.9944L14.6815 40.5444V35.9944H10.1315L14.6815 31.4444Z" fill="white" fill-opacity="0.4"/>
<path d="M14.6815 31.4444H19.2315V35.9944L14.6815 40.5444V35.9944H10.1315L14.6815 31.4444Z" stroke="#898989" stroke-width="0.992606"/>
<path d="M14.6815 31.4444H19.2315V35.9944L14.6815 40.5444V35.9944H10.1315L14.6815 31.4444Z" stroke="white" stroke-opacity="0.4" stroke-width="0.992606"/>
<path d="M11.9584 19.3141L31.3797 38.7354" stroke="#1D8CE0" stroke-width="0.992606"/>
</g>
<defs>
<clipPath id="clip0_1338_8101">
<rect width="50" height="50" fill="white" transform="translate(0.981445 0.844482)"/>
</clipPath>
<clipPath id="clip1_1338_8101">
<rect width="49.8148" height="49.8148" fill="white" transform="translate(0.981445 0.844482)"/>
</clipPath>
</defs>
</svg>
