<svg width="41" height="40" viewBox="0 0 41 40" fill="none" xmlns="http://www.w3.org/2000/svg">
<path d="M5.44503 4.98791L5.44503 3.48791L5.445 3.48791L5.44503 4.98791ZM16.3093 6.79875L15.4773 8.04682L16.3093 6.79875ZM34.4177 24.9072L33.0472 25.5168L34.4177 24.9072ZM35.3239 34.8668L33.8239 34.8668L33.8239 34.8668L35.3239 34.8668ZM4.06066 6.6632C3.96362 6.76024 3.9151 6.75761 4.03187 6.71176C4.12716 6.67435 4.26988 6.63277 4.45422 6.59512C4.82767 6.51885 5.22509 6.48791 5.44506 6.48791L5.445 3.48791C5.02972 3.48792 4.43098 3.53794 3.8539 3.6558C3.56298 3.71522 3.24185 3.799 2.93551 3.91927C2.65065 4.03111 2.26273 4.21849 1.93934 4.54188L4.06066 6.6632ZM5.44503 6.48791C6.75199 6.48791 8.85937 6.57585 10.8888 6.83774C11.9033 6.96865 12.8713 7.13964 13.6972 7.35578C14.5478 7.57838 15.1398 7.82185 15.4773 8.04682L17.1414 5.55067C16.3923 5.05131 15.4225 4.70625 14.4567 4.45351C13.4662 4.1943 12.3632 4.00313 11.2728 3.86241C9.09233 3.58104 6.85408 3.48791 5.44503 3.48791L5.44503 6.48791ZM15.4773 8.04682C16.0559 8.43259 17.3549 9.50378 19.0729 11.0277C20.7604 12.5247 22.7788 14.3924 24.7617 16.3123C26.7465 18.234 28.6821 20.1949 30.2097 21.8802C30.9741 22.7235 31.6244 23.4847 32.1236 24.1289C32.6415 24.7971 32.9321 25.258 33.0472 25.5168L35.7883 24.2976C35.5187 23.6915 35.0398 22.9943 34.4949 22.2912C33.9313 21.564 33.2256 20.7404 32.4325 19.8654C30.8449 18.114 28.8588 16.1035 26.8485 14.157C24.8361 12.2085 22.7857 10.311 21.0637 8.78348C19.3721 7.28293 17.9208 6.07033 17.1414 5.55067L15.4773 8.04682ZM33.0472 25.5168C33.4559 26.4357 33.6813 28.0986 33.7744 30.0144C33.8647 31.8718 33.8239 33.6922 33.8239 34.8668L36.8239 34.8668C36.8239 33.7778 36.8659 31.823 36.7709 29.8688C36.6788 27.9729 36.4511 25.7877 35.7883 24.2976L33.0472 25.5168ZM33.8239 34.8668C33.8239 35.1821 33.8209 35.4787 33.7687 35.7668C33.7169 36.0528 33.6343 36.2194 33.5536 36.3129L35.8259 38.2717C36.8812 37.0476 36.8239 35.3772 36.8239 34.8668L33.8239 34.8668Z" fill="#1D8CE0"/>
<path d="M12.4375 27.564L36 4" stroke="#898989" stroke-width="2" stroke-linecap="round"/>
<path d="M12.4375 27.564L36 4" stroke="white" stroke-opacity="0.4" stroke-width="2" stroke-linecap="round"/>
<path d="M36 12L27.5 3.5L39.5 0.5L36 12Z" fill="#898989"/>
<path d="M36 12L27.5 3.5L39.5 0.5L36 12Z" fill="white" fill-opacity="0.4"/>
<path d="M9 24H16V31L9 38V31H2L9 24Z" fill="#898989"/>
<path d="M9 24H16V31L9 38V31H2L9 24Z" fill="white" fill-opacity="0.4"/>
<path d="M9 24H16V31L9 38V31H2L9 24Z" stroke="#898989"/>
<path d="M9 24H16V31L9 38V31H2L9 24Z" stroke="white" stroke-opacity="0.4"/>
<path d="M4.45699 5.69144L34.3359 35.5704L35.043 34.8633L5.1641 4.98434L4.45699 5.69144Z" fill="#1D8CE0"/>
</svg>
