<svg width="50" height="50" viewBox="0 0 50 50" fill="none" xmlns="http://www.w3.org/2000/svg">
<path d="M43.5 38.5C43.5 40.5322 36.8074 42.012 29 42.5C21 43 13.5 42.5322 13.5 40.5C13.5 38.4679 20.7417 36.9807 28.5 36.5001C36.0827 36.0304 43.5 36.4679 43.5 38.5Z" fill="#CE4317"/>
<path d="M43.5 38.5C43.5 40.5322 36.8074 42.012 29 42.5C21 43 13.5 42.5322 13.5 40.5C13.5 38.4679 20.7417 36.9807 28.5 36.5001C36.0827 36.0304 43.5 36.4679 43.5 38.5Z" fill="white" fill-opacity="0.3"/>
<path d="M42.5001 39C42.5787 40.404 35.1903 41.7455 28.4344 42.1239C22.2713 42.4691 14.5787 41.9041 14.5 40.5C14.4426 39.4752 23.4958 37.6863 29.0001 37.5C35.0547 37.2951 42.4427 37.9751 42.5001 39Z" fill="#CE4317"/>
<path d="M42.5001 39C42.5787 40.404 35.1903 41.7455 28.4344 42.1239C22.2713 42.4691 14.5787 41.9041 14.5 40.5C14.4426 39.4752 23.4958 37.6863 29.0001 37.5C35.0547 37.2951 42.4427 37.9751 42.5001 39Z" fill="black" fill-opacity="0.3"/>
<path d="M6.50009 19C5.00009 20.5 2.50009 22.5 3.00009 28L14.0001 32L42.5001 31C42.3334 30.6667 41.7001 28.6 42.5001 27C43.5001 25 49.5001 20 49.5001 17.5C49.5001 15 49.0001 13 46.0001 10.5C43.0001 8 38.5001 9 37.0001 9C35.5001 9 31.5001 8 29.0001 8C26.5001 8 22.0001 10 20.5001 10.5C19.0001 11 16.5001 11.5 13.0001 13C9.50009 14.5 8.00009 17.5 6.50009 19Z" fill="#CE4317"/>
<path d="M0 29C0 27.8 1 26.5 1.5 26V24C1.5 23 2.49997 21 3 22L4.5 25C6 26.4999 9.8 27.5 11 27.5C12.2 27.5 14.1667 29.6667 15 30.5L14 33H8C6.4 33 5.33333 32.8333 5 32.5C4.33333 32.6666 2.8 32.4 2 32C1 31.5 0 30.5 0 29Z" fill="#CE4317"/>
<path d="M0 29C0 27.8 1 26.5 1.5 26V24C1.5 23 2.49997 21 3 22L4.5 25C6 26.4999 9.8 27.5 11 27.5C12.2 27.5 14.1667 29.6667 15 30.5L14 33H8C6.4 33 5.33333 32.8333 5 32.5C4.33333 32.6666 2.8 32.4 2 32C1 31.5 0 30.5 0 29Z" fill="black" fill-opacity="0.3"/>
<path d="M7.99997 28C5.96036 28 3.66664 25.9999 3.49997 25.4999C3.09997 24.6999 2.3333 22.8333 1.99996 23C1.8333 22.8333 1.69997 22.3 2.49997 21.5L5.99997 18C6.79997 17.2 9.3333 15.6667 9.99997 15C9.49997 15.8333 8.39996 17.3 7.99997 18.5C7.49997 20 7.17079 19.6584 6.49997 21C5.99997 22 4.99997 22.4999 4.99997 23.5C4.99997 23.7732 4.92534 24.121 4.80668 24.4618C5.85819 24.0771 7.34563 23.7886 8.49996 23.5C10.5 23 13 24 14 24.5C15 25 17 25 18 26C18.8 26.8 18.3333 29 18 30L15 31L13 29C12 28 10.5 28 8.00007 28H7.99997Z" fill="#CE4317"/>
<path d="M7.99997 28C5.96036 28 3.66664 25.9999 3.49997 25.4999C3.09997 24.6999 2.3333 22.8333 1.99996 23C1.8333 22.8333 1.69997 22.3 2.49997 21.5L5.99997 18C6.79997 17.2 9.3333 15.6667 9.99997 15C9.49997 15.8333 8.39996 17.3 7.99997 18.5C7.49997 20 7.17079 19.6584 6.49997 21C5.99997 22 4.99997 22.4999 4.99997 23.5C4.99997 23.7732 4.92534 24.121 4.80668 24.4618C5.85819 24.0771 7.34563 23.7886 8.49996 23.5C10.5 23 13 24 14 24.5C15 25 17 25 18 26C18.8 26.8 18.3333 29 18 30L15 31L13 29C12 28 10.5 28 8.00007 28H7.99997Z" fill="black" fill-opacity="0.15"/>
<path d="M20 25.4999C21 27.0999 21.4166 28.5 21.5 29C23.1666 28.3333 29.3 28.7 30.5 27.5C32 26 32 22.4999 31.5 21.9999C31 21.4999 29 20.5 28 20.5C27 20.5 27 19 25.5 18.5C24 18 22 17.5 21.5 17C21 16.5 17.5 13.9999 17 13.4999C16.5 12.9999 14.5 12.9999 14.5 13.9999C14.5 14.9999 15 14.9999 15.5 15.9999C16 16.9999 16.5 20.9999 17 21.9999C17.5 22.9999 18.75 23.5 20 25.4999Z" fill="#CE4317"/>
<path d="M20 25.4999C21 27.0999 21.4166 28.5 21.5 29C23.1666 28.3333 29.3 28.7 30.5 27.5C32 26 32 22.4999 31.5 21.9999C31 21.4999 29 20.5 28 20.5C27 20.5 27 19 25.5 18.5C24 18 22 17.5 21.5 17C21 16.5 17.5 13.9999 17 13.4999C16.5 12.9999 14.5 12.9999 14.5 13.9999C14.5 14.9999 15 14.9999 15.5 15.9999C16 16.9999 16.5 20.9999 17 21.9999C17.5 22.9999 18.75 23.5 20 25.4999Z" fill="black" fill-opacity="0.15"/>
<path d="M38 15.9999C37.5 13.4999 33.5 9.50001 32.5 10.5C32 11 33 13.4999 32 15C31.2 16.2 31.6666 18.1667 32 19C32.3333 18.5 33.5122 17.7098 34.5 18.5C37 20.5 33.5 24.5 35.5 27.5C36.1201 28.4303 39 30.0812 39 28.5C39 25.9999 42 19.5 43 17C44 14.5 47 12.5 46 11.5C45 10.5 43.5 12.5 43 12.5C42.5 12.5 40 11.5 39.5 12C39 12.5 42 15.5 41 17C40 18.5 38.5 18.5 38 15.9999Z" fill="#CE4317"/>
<path d="M38 15.9999C37.5 13.4999 33.5 9.50001 32.5 10.5C32 11 33 13.4999 32 15C31.2 16.2 31.6666 18.1667 32 19C32.3333 18.5 33.5122 17.7098 34.5 18.5C37 20.5 33.5 24.5 35.5 27.5C36.1201 28.4303 39 30.0812 39 28.5C39 25.9999 42 19.5 43 17C44 14.5 47 12.5 46 11.5C45 10.5 43.5 12.5 43 12.5C42.5 12.5 40 11.5 39.5 12C39 12.5 42 15.5 41 17C40 18.5 38.5 18.5 38 15.9999Z" fill="black" fill-opacity="0.15"/>
<path d="M47 24.5C46 25.5 43 26.5 42 28.5C41.8333 27.8333 41.6 26.3 42 25.4999C42.5 24.4999 43 23.5 44 22.5C45 21.5 46.5 21 48 20C49.2 19.2 49.5 17.3333 49.5 16.5C49.6666 16.8333 50 17.7 50 18.5C50 19.3 49.3333 20.5 49 21C48.6666 21.8333 47.8 23.7 47 24.5Z" fill="#CE4317"/>
<path d="M47 24.5C46 25.5 43 26.5 42 28.5C41.8333 27.8333 41.6 26.3 42 25.4999C42.5 24.4999 43 23.5 44 22.5C45 21.5 46.5 21 48 20C49.2 19.2 49.5 17.3333 49.5 16.5C49.6666 16.8333 50 17.7 50 18.5C50 19.3 49.3333 20.5 49 21C48.6666 21.8333 47.8 23.7 47 24.5Z" fill="black" fill-opacity="0.15"/>
<path d="M13.5 40.5C13.8658 35.5 14.5 34.5 13.5 33C14.5 31 18.4243 30.5519 21 30C24.2196 29.3101 32 28.5 36.5 29C39.6934 29.3549 41.5035 30.0801 42.5 31L43.5 38.5C43 38 41.694 37.4105 38 37C34.306 36.5896 15.5 37 13.5 40.5Z" fill="#CE4317"/>
<path d="M13.5 40.5C13.8658 35.5 14.5 34.5 13.5 33C14.5 31 18.4243 30.5519 21 30C24.2196 29.3101 32 28.5 36.5 29C39.6934 29.3549 41.5035 30.0801 42.5 31L43.5 38.5C43 38 41.694 37.4105 38 37C34.306 36.5896 15.5 37 13.5 40.5Z" fill="white" fill-opacity="0.15"/>
<path fill-rule="evenodd" clip-rule="evenodd" d="M29.0478 28.9971C30.3302 28.9103 31.6266 28.855 32.8548 28.8462L33.9317 29.3162C34.2811 29.4687 34.5134 29.8067 34.5307 30.1875C34.5479 30.5684 34.3471 30.9259 34.0129 31.1093L33.4963 31.3929L35.1933 31.9527C35.5756 32.0788 35.845 32.4218 35.877 32.8231C35.9089 33.2244 35.6971 33.6057 35.3395 33.7906L33.7679 34.6034L35.3071 35.3301C35.6825 35.5074 35.9094 35.8982 35.8771 36.3122C35.8603 36.5271 35.7755 36.725 35.6421 36.882C34.059 36.8526 31.9763 36.8767 29.7191 36.9774C29.8465 36.7684 30.0487 36.6096 30.2915 36.5384L32.0741 36.0154L31.0852 35.5485C30.7412 35.3861 30.5192 35.0426 30.5123 34.6623C30.5054 34.282 30.7149 33.9307 31.0528 33.756L32.3077 33.1069L30.6867 32.5723C30.3087 32.4476 30.0406 32.1106 30.0041 31.7142C29.9677 31.3178 30.1698 30.9375 30.5187 30.746L31.2668 30.3353L29.5999 29.6078C29.3331 29.4913 29.1344 29.2667 29.0478 28.9971ZM21.9852 29.8099C23.0224 29.6277 24.3204 29.4461 25.7409 29.2905L26.4061 29.5861C26.734 29.7318 26.9586 30.0421 26.9948 30.3991C27.031 30.7561 26.8732 31.1051 26.5812 31.3136L25.2433 32.2693L27.5994 32.5049C28.0175 32.5467 28.3649 32.8454 28.4688 33.2525C28.5728 33.6596 28.4112 34.0883 28.0643 34.3254L25.9768 35.7525L27.2136 36.023C27.6233 36.1126 27.9336 36.4484 27.9906 36.8639C28 36.9324 28.0022 37.0006 27.9977 37.0677C26.7005 37.1461 25.3742 37.2502 24.0753 37.3839L23.2863 37.2113C22.8964 37.126 22.5945 36.8171 22.5183 36.4254C22.4421 36.0336 22.6061 35.6341 22.9356 35.4089L24.6716 34.2221L22.4004 33.995C21.9861 33.9535 21.6408 33.6597 21.5336 33.2573C21.4264 32.8549 21.5798 32.4282 21.9187 32.1862L23.995 30.7031L21.9852 29.8099ZM15.2748 31.4754C16.3183 30.9827 17.6365 30.6718 18.9023 30.4162L19.7701 30.6598C20.1247 30.7593 20.3959 31.0456 20.476 31.405C20.5561 31.7645 20.4322 32.1389 20.1534 32.3795L18.1217 34.1335L19.7374 34.5285C20.128 34.624 20.4234 34.9442 20.4872 35.3412C20.5511 35.7382 20.3709 36.1348 20.0299 36.3479L18.1931 37.4959L20.1874 37.8766C20.2075 37.8804 20.2273 37.8848 20.2468 37.8898C18.4459 38.1915 16.8415 38.5712 15.6321 39.0432L15.3125 38.9822C14.9083 38.905 14.5927 38.5883 14.517 38.1839C14.4413 37.7795 14.6211 37.37 14.97 37.1519L16.9597 35.9083L15.7624 35.6156C15.3988 35.5267 15.1153 35.2421 15.0277 34.8782C14.9401 34.5143 15.0631 34.1319 15.3464 33.8873L17.4372 32.0823L15.2748 31.4754ZM38.1504 37.017L39.0018 36.5609L38.0595 35.9755C37.7908 35.8086 37.6169 35.5244 37.5906 35.2092C37.5643 34.894 37.6887 34.5849 37.926 34.3758L39.1479 33.2991L37.3694 32.5428C37.0224 32.3953 36.7879 32.0651 36.7629 31.6889C36.7379 31.3127 36.9266 30.9544 37.251 30.7622L38.2074 30.1957L36.2112 29.4342C35.965 29.3403 35.7704 29.1552 35.6621 28.9243C35.9519 28.9451 36.2318 28.9702 36.4999 29C38.8003 29.2557 40.3828 29.7035 41.4606 30.2778C41.391 30.5181 41.2324 30.7283 41.0096 30.8603L39.9708 31.4757L41.3912 32.0797C41.7073 32.2141 41.9324 32.5013 41.9871 32.8404C42.0419 33.1796 41.9188 33.5231 41.6611 33.7502L40.2579 34.9867L41.5276 35.7755C41.831 35.9639 42.0109 36.2999 41.9994 36.6569C41.988 37.0139 41.787 37.3377 41.4721 37.5064L41.3754 37.5582C40.59 37.3621 39.5449 37.1766 38.1504 37.017Z" fill="#CE4317"/>
<path fill-rule="evenodd" clip-rule="evenodd" d="M29.0478 28.9971C30.3302 28.9103 31.6266 28.855 32.8548 28.8462L33.9317 29.3162C34.2811 29.4687 34.5134 29.8067 34.5307 30.1875C34.5479 30.5684 34.3471 30.9259 34.0129 31.1093L33.4963 31.3929L35.1933 31.9527C35.5756 32.0788 35.845 32.4218 35.877 32.8231C35.9089 33.2244 35.6971 33.6057 35.3395 33.7906L33.7679 34.6034L35.3071 35.3301C35.6825 35.5074 35.9094 35.8982 35.8771 36.3122C35.8603 36.5271 35.7755 36.725 35.6421 36.882C34.059 36.8526 31.9763 36.8767 29.7191 36.9774C29.8465 36.7684 30.0487 36.6096 30.2915 36.5384L32.0741 36.0154L31.0852 35.5485C30.7412 35.3861 30.5192 35.0426 30.5123 34.6623C30.5054 34.282 30.7149 33.9307 31.0528 33.756L32.3077 33.1069L30.6867 32.5723C30.3087 32.4476 30.0406 32.1106 30.0041 31.7142C29.9677 31.3178 30.1698 30.9375 30.5187 30.746L31.2668 30.3353L29.5999 29.6078C29.3331 29.4913 29.1344 29.2667 29.0478 28.9971ZM21.9852 29.8099C23.0224 29.6277 24.3204 29.4461 25.7409 29.2905L26.4061 29.5861C26.734 29.7318 26.9586 30.0421 26.9948 30.3991C27.031 30.7561 26.8732 31.1051 26.5812 31.3136L25.2433 32.2693L27.5994 32.5049C28.0175 32.5467 28.3649 32.8454 28.4688 33.2525C28.5728 33.6596 28.4112 34.0883 28.0643 34.3254L25.9768 35.7525L27.2136 36.023C27.6233 36.1126 27.9336 36.4484 27.9906 36.8639C28 36.9324 28.0022 37.0006 27.9977 37.0677C26.7005 37.1461 25.3742 37.2502 24.0753 37.3839L23.2863 37.2113C22.8964 37.126 22.5945 36.8171 22.5183 36.4254C22.4421 36.0336 22.6061 35.6341 22.9356 35.4089L24.6716 34.2221L22.4004 33.995C21.9861 33.9535 21.6408 33.6597 21.5336 33.2573C21.4264 32.8549 21.5798 32.4282 21.9187 32.1862L23.995 30.7031L21.9852 29.8099ZM15.2748 31.4754C16.3183 30.9827 17.6365 30.6718 18.9023 30.4162L19.7701 30.6598C20.1247 30.7593 20.3959 31.0456 20.476 31.405C20.5561 31.7645 20.4322 32.1389 20.1534 32.3795L18.1217 34.1335L19.7374 34.5285C20.128 34.624 20.4234 34.9442 20.4872 35.3412C20.5511 35.7382 20.3709 36.1348 20.0299 36.3479L18.1931 37.4959L20.1874 37.8766C20.2075 37.8804 20.2273 37.8848 20.2468 37.8898C18.4459 38.1915 16.8415 38.5712 15.6321 39.0432L15.3125 38.9822C14.9083 38.905 14.5927 38.5883 14.517 38.1839C14.4413 37.7795 14.6211 37.37 14.97 37.1519L16.9597 35.9083L15.7624 35.6156C15.3988 35.5267 15.1153 35.2421 15.0277 34.8782C14.9401 34.5143 15.0631 34.1319 15.3464 33.8873L17.4372 32.0823L15.2748 31.4754ZM38.1504 37.017L39.0018 36.5609L38.0595 35.9755C37.7908 35.8086 37.6169 35.5244 37.5906 35.2092C37.5643 34.894 37.6887 34.5849 37.926 34.3758L39.1479 33.2991L37.3694 32.5428C37.0224 32.3953 36.7879 32.0651 36.7629 31.6889C36.7379 31.3127 36.9266 30.9544 37.251 30.7622L38.2074 30.1957L36.2112 29.4342C35.965 29.3403 35.7704 29.1552 35.6621 28.9243C35.9519 28.9451 36.2318 28.9702 36.4999 29C38.8003 29.2557 40.3828 29.7035 41.4606 30.2778C41.391 30.5181 41.2324 30.7283 41.0096 30.8603L39.9708 31.4757L41.3912 32.0797C41.7073 32.2141 41.9324 32.5013 41.9871 32.8404C42.0419 33.1796 41.9188 33.5231 41.6611 33.7502L40.2579 34.9867L41.5276 35.7755C41.831 35.9639 42.0109 36.2999 41.9994 36.6569C41.988 37.0139 41.787 37.3377 41.4721 37.5064L41.3754 37.5582C40.59 37.3621 39.5449 37.1766 38.1504 37.017Z" fill="white" fill-opacity="0.6"/>
<path d="M14.0001 35C14.0001 35 13.1667 32.5 13.5001 31.4999C14.3335 28.9999 17.9244 29.0518 20.5001 28.4999C23.7197 27.81 32.0001 26.9999 36.5001 27.4999C39.6935 27.8548 41.0001 29 42.0001 30C42.6876 30.6875 42.5001 31 42.5001 31C41.0001 30.5 36.5001 29.5 31.0001 29.5C25.5001 29.5 16.0001 32.5 14.0001 35Z" fill="#CE4317"/>
<path d="M14.0001 35C14.0001 35 13.1667 32.5 13.5001 31.4999C14.3335 28.9999 17.9244 29.0518 20.5001 28.4999C23.7197 27.81 32.0001 26.9999 36.5001 27.4999C39.6935 27.8548 41.0001 29 42.0001 30C42.6876 30.6875 42.5001 31 42.5001 31C41.0001 30.5 36.5001 29.5 31.0001 29.5C25.5001 29.5 16.0001 32.5 14.0001 35Z" fill="black" fill-opacity="0.15"/>
<path fill-rule="evenodd" clip-rule="evenodd" d="M30.2073 27.4194C31.5585 27.3551 32.8892 27.3285 34.1033 27.355C34.018 27.4909 33.8995 27.607 33.7541 27.6904L32.2214 28.5697L33.9318 29.3162C34.0879 29.3843 34.2206 29.4894 34.3212 29.6189C33.2709 29.5443 32.1575 29.5 31 29.5C30.5304 29.5 30.0316 29.5218 29.5108 29.5634C29.2143 29.3972 29.0203 29.0897 29.0015 28.7458C28.9808 28.3685 29.1746 28.0118 29.5024 27.8238L30.2073 27.4194ZM20.4997 28.4999C20.4998 28.4999 20.4999 28.4999 20.5 28.4999C21.1532 28.3599 22.0148 28.2149 23.0109 28.077L26.4061 29.586C26.571 29.6593 26.7097 29.7741 26.8116 29.9156C25.8014 30.0919 24.7594 30.3183 23.7244 30.5828L21.0938 29.4136C20.7213 29.2481 20.5 28.8828 20.4997 28.4999ZM14.6171 30.0298C14.9161 29.8201 15.2553 29.6494 15.622 29.5072C15.6713 29.5134 15.7209 29.5233 15.7702 29.5371L19.7702 30.6597C20.1247 30.7592 20.3959 31.0455 20.476 31.405C20.4861 31.4501 20.4929 31.4954 20.4966 31.5407C18.4921 32.2231 16.6932 33.013 15.4391 33.8073L17.4372 32.0822L15.2298 31.4627C14.6981 31.3135 14.388 30.7614 14.5372 30.2297C14.557 30.159 14.584 30.0922 14.6171 30.0298ZM37.6079 29.9669L36.2113 29.4342C35.8582 29.2995 35.6113 28.9773 35.5729 28.6014C35.5345 28.2256 35.7112 27.8601 36.0297 27.6569L36.3076 27.4795C36.3724 27.4861 36.4366 27.4928 36.5 27.4999C37.5503 27.6166 38.3966 27.8189 39.095 28.0733L38.7808 28.2738L40.8564 29.0655C41.215 29.2023 41.4637 29.5323 41.4963 29.9147C41.5196 30.1871 41.4304 30.4519 41.2577 30.6524C40.3349 30.4269 39.0891 30.1765 37.6079 29.9669Z" fill="#CE4317"/>
<path fill-rule="evenodd" clip-rule="evenodd" d="M30.2073 27.4194C31.5585 27.3551 32.8892 27.3285 34.1033 27.355C34.018 27.4909 33.8995 27.607 33.7541 27.6904L32.2214 28.5697L33.9318 29.3162C34.0879 29.3843 34.2206 29.4894 34.3212 29.6189C33.2709 29.5443 32.1575 29.5 31 29.5C30.5304 29.5 30.0316 29.5218 29.5108 29.5634C29.2143 29.3972 29.0203 29.0897 29.0015 28.7458C28.9808 28.3685 29.1746 28.0118 29.5024 27.8238L30.2073 27.4194ZM20.4997 28.4999C20.4998 28.4999 20.4999 28.4999 20.5 28.4999C21.1532 28.3599 22.0148 28.2149 23.0109 28.077L26.4061 29.586C26.571 29.6593 26.7097 29.7741 26.8116 29.9156C25.8014 30.0919 24.7594 30.3183 23.7244 30.5828L21.0938 29.4136C20.7213 29.2481 20.5 28.8828 20.4997 28.4999ZM14.6171 30.0298C14.9161 29.8201 15.2553 29.6494 15.622 29.5072C15.6713 29.5134 15.7209 29.5233 15.7702 29.5371L19.7702 30.6597C20.1247 30.7592 20.3959 31.0455 20.476 31.405C20.4861 31.4501 20.4929 31.4954 20.4966 31.5407C18.4921 32.2231 16.6932 33.013 15.4391 33.8073L17.4372 32.0822L15.2298 31.4627C14.6981 31.3135 14.388 30.7614 14.5372 30.2297C14.557 30.159 14.584 30.0922 14.6171 30.0298ZM37.6079 29.9669L36.2113 29.4342C35.8582 29.2995 35.6113 28.9773 35.5729 28.6014C35.5345 28.2256 35.7112 27.8601 36.0297 27.6569L36.3076 27.4795C36.3724 27.4861 36.4366 27.4928 36.5 27.4999C37.5503 27.6166 38.3966 27.8189 39.095 28.0733L38.7808 28.2738L40.8564 29.0655C41.215 29.2023 41.4637 29.5323 41.4963 29.9147C41.5196 30.1871 41.4304 30.4519 41.2577 30.6524C40.3349 30.4269 39.0891 30.1765 37.6079 29.9669Z" fill="white" fill-opacity="0.45"/>
</svg>
