<svg width="50" height="50" viewBox="0 0 50 50" fill="none" xmlns="http://www.w3.org/2000/svg">
<path d="M14.6227 8.04012L13.4954 7.03245L16.3137 6.13672L19.0192 5.91281C19.6955 5.80083 20.8121 5.02244 21.7247 4.56925C22.852 4.00943 24.6556 3.89747 25.6702 4.00943L24.8247 4.51327L23.9792 5.0171C24.355 4.86782 25.3771 4.52446 26.4593 4.34532C27.5415 4.16618 29.0145 4.41996 29.6157 4.56925L27.2484 5.0171H31.8703L28.1502 5.46496C28.8642 5.46496 30.6077 5.55453 31.8703 5.91281C33.1329 6.27109 34.9516 7.25637 35.7031 7.70423L33.3358 8.04012C34.3128 8.04012 36.5927 8.35992 38.1831 9.04779C39.9431 9.80898 42.0762 12.1709 42.6923 13.3024L39.8741 11.399C41.8998 13.1007 42.887 14.1796 44.3832 16.3254L40.5504 13.3024C41.1517 13.9742 42.6278 15.5302 43.256 16.6613C43.9944 17.991 45.0656 20.0362 45.5105 20.9159L43.8196 19.7963C44.2705 20.58 45.24 22.5282 45.5105 24.0509C45.7811 25.5736 45.6233 28.1936 45.5105 29.3132L44.3832 26.962C44.5711 28.007 44.9243 30.3657 44.8342 31.4405C44.744 32.5154 44.496 34.1276 44.3832 34.7994L43.5941 33.008C43.4063 33.7917 43.4387 34.7994 42.6923 36.2549C42.0471 37.513 41.18 38.5355 40.5796 39.2435L40.5504 39.278V37.5985C40.2498 38.3449 39.8352 39.5197 38.9722 40.6215C37.92 41.9651 35.5904 43.3086 35.5904 43.3086C35.5904 43.3086 36.9415 41.2415 36.8304 40.2856C36.3795 41.144 35.2522 42.9951 34.3503 43.5326C33.4485 44.07 31.9454 44.5776 31.3067 44.7642L31.8703 42.8608C31.0546 43.8776 30.481 44.2862 29.2775 44.7642C30.3775 43.9154 30.8227 43.2934 31.3067 41.9651C31.0812 42.1144 30.7135 42.7761 30.3015 43.1988C29.2155 44.313 28.4856 44.9881 27.2484 45.6599C27.5114 44.8015 27.5434 43.0847 27.2484 43.0847C26.9534 43.0847 26.6904 44.2043 26.9534 44.7642C26.5025 44.7268 25.5124 44.585 23.9792 44.3163C22.4461 44.0476 21.2362 43.3833 20.8228 43.0847L22.1756 44.9881C21.3113 44.6149 19.3799 43.8013 18.5682 43.5326C17.7566 43.2639 16.727 42.3756 16.3137 41.9651C16.1281 42.93 16.2891 43.4367 16.7646 44.3163C16.2761 43.9058 15.1638 42.9504 14.6227 42.4129C14.0816 41.8755 12.8942 40.099 12.3681 39.278C12.1289 39.8941 12.1538 40.2661 12.3681 40.9574C11.6918 40.3603 10.347 38.9136 9.88809 38.1583C9.12786 36.9071 8.67909 35.3247 8.64807 34.7994L8.30988 36.7028C7.31618 35.021 6.88615 34.036 6.61894 32.1123L5.37892 33.008C5.0203 30.8655 4.9822 29.6643 5.37892 27.5218L4.1389 28.9773C4.06375 27.8577 3.80071 26.1222 4.1389 24.6107C4.47709 23.0992 5.34134 21.5131 5.82984 20.4681L4.47709 20.9159L6.05529 17.3331L8.30988 14.8699H7.18259L9.09898 12.6306L11.3536 10.6153H10.339L12.3681 9.15974L14.6227 8.04012Z" fill="#CE4317"/>
<path d="M14.6227 8.04012L13.4954 7.03245L16.3137 6.13672L19.0192 5.91281C19.6955 5.80083 20.8121 5.02244 21.7247 4.56925C22.852 4.00943 24.6556 3.89747 25.6702 4.00943L24.8247 4.51327L23.9792 5.0171C24.355 4.86782 25.3771 4.52446 26.4593 4.34532C27.5415 4.16618 29.0145 4.41996 29.6157 4.56925L27.2484 5.0171H31.8703L28.1502 5.46496C28.8642 5.46496 30.6077 5.55453 31.8703 5.91281C33.1329 6.27109 34.9516 7.25637 35.7031 7.70423L33.3358 8.04012C34.3128 8.04012 36.5927 8.35992 38.1831 9.04779C39.9431 9.80898 42.0762 12.1709 42.6923 13.3024L39.8741 11.399C41.8998 13.1007 42.887 14.1796 44.3832 16.3254L40.5504 13.3024C41.1517 13.9742 42.6278 15.5302 43.256 16.6613C43.9944 17.991 45.0656 20.0362 45.5105 20.9159L43.8196 19.7963C44.2705 20.58 45.24 22.5282 45.5105 24.0509C45.7811 25.5736 45.6233 28.1936 45.5105 29.3132L44.3832 26.962C44.5711 28.007 44.9243 30.3657 44.8342 31.4405C44.744 32.5154 44.496 34.1276 44.3832 34.7994L43.5941 33.008C43.4063 33.7917 43.4387 34.7994 42.6923 36.2549C42.0471 37.513 41.18 38.5355 40.5796 39.2435L40.5504 39.278V37.5985C40.2498 38.3449 39.8352 39.5197 38.9722 40.6215C37.92 41.9651 35.5904 43.3086 35.5904 43.3086C35.5904 43.3086 36.9415 41.2415 36.8304 40.2856C36.3795 41.144 35.2522 42.9951 34.3503 43.5326C33.4485 44.07 31.9454 44.5776 31.3067 44.7642L31.8703 42.8608C31.0546 43.8776 30.481 44.2862 29.2775 44.7642C30.3775 43.9154 30.8227 43.2934 31.3067 41.9651C31.0812 42.1144 30.7135 42.7761 30.3015 43.1988C29.2155 44.313 28.4856 44.9881 27.2484 45.6599C27.5114 44.8015 27.5434 43.0847 27.2484 43.0847C26.9534 43.0847 26.6904 44.2043 26.9534 44.7642C26.5025 44.7268 25.5124 44.585 23.9792 44.3163C22.4461 44.0476 21.2362 43.3833 20.8228 43.0847L22.1756 44.9881C21.3113 44.6149 19.3799 43.8013 18.5682 43.5326C17.7566 43.2639 16.727 42.3756 16.3137 41.9651C16.1281 42.93 16.2891 43.4367 16.7646 44.3163C16.2761 43.9058 15.1638 42.9504 14.6227 42.4129C14.0816 41.8755 12.8942 40.099 12.3681 39.278C12.1289 39.8941 12.1538 40.2661 12.3681 40.9574C11.6918 40.3603 10.347 38.9136 9.88809 38.1583C9.12786 36.9071 8.67909 35.3247 8.64807 34.7994L8.30988 36.7028C7.31618 35.021 6.88615 34.036 6.61894 32.1123L5.37892 33.008C5.0203 30.8655 4.9822 29.6643 5.37892 27.5218L4.1389 28.9773C4.06375 27.8577 3.80071 26.1222 4.1389 24.6107C4.47709 23.0992 5.34134 21.5131 5.82984 20.4681L4.47709 20.9159L6.05529 17.3331L8.30988 14.8699H7.18259L9.09898 12.6306L11.3536 10.6153H10.339L12.3681 9.15974L14.6227 8.04012Z" fill="white" fill-opacity="0.45"/>
<path d="M7.07927 20.8829L5.95557 21.6846C7.07841 19.8349 7.84154 18.9328 9.55142 17.676H7.07927C8.2475 16.2507 9.01305 15.7324 10.5628 15.2708L8.8772 14.4691C9.95848 12.6845 10.8035 12.2925 12.5854 12.293L10.5628 11.9494C11.6682 11.0808 13.5968 11.6058 13.372 10.8041C13.1473 10.0024 12.7342 9.73565 13.1473 8.9716C13.9751 8.52548 14.4684 8.455 15.3947 8.628C15.3613 7.70853 15.5704 7.35918 16.1813 6.91003C17.3619 6.58674 17.9976 6.6191 19.1029 6.91003C19.3677 5.97907 19.7437 5.6842 20.5637 5.30659C21.8278 5.22957 22.4855 5.28071 23.2606 6.10831C24.2618 5.32621 24.9331 5.15101 26.1823 4.963C27.1405 5.07093 27.6835 5.16498 28.606 5.73464C28.6455 5.70855 28.9848 5.69695 30.1152 5.76473C31.6435 5.85635 33.9733 7.02457 34.9472 7.59723L33.4863 8.05536C34.8348 8.16988 35.509 8.68527 36.9698 9.42972C38.2059 10.0596 39.1798 11.2241 39.5544 11.9494H36.7451C39.4984 12.8751 40.5724 13.8655 41.6894 16.4162L40.0038 16.0726C40.9532 17.3463 41.3438 18.1158 41.6894 19.623L38.9925 18.0196C39.2547 18.4395 39.824 19.5085 40.0038 20.4248C40.1836 21.341 40.3784 23.0972 40.4533 23.8607L37.3069 21.6846C37.719 22.1045 38.588 23.3339 38.7678 24.8915C39.0454 27.2966 38.9925 28.9001 38.2059 30.9617C37.7509 30.2961 37.4765 29.937 36.7451 29.4727C36.9944 31.194 36.7726 31.8662 36.1832 32.9087C35.8839 32.0355 35.6589 31.5813 34.9472 30.9617C34.5462 32.9616 34.0235 33.972 32.475 35.5429C31.2007 34.8855 30.5728 34.3918 29.5534 33.3668C29.6623 34.9956 29.5372 35.9375 28.6544 37.719C27.14 36.6045 26.5038 35.8908 25.6204 34.5121C25.6724 35.7144 25.5759 36.3593 24.8338 37.3754C23.1098 36.6816 22.3253 36.1 21.0132 34.9703C21.3244 36.0436 21.3877 36.6456 21.0132 37.719C20.4888 37.4899 19.1928 36.8944 18.204 36.3446C17.2151 35.7949 16.7431 34.4358 16.6308 33.8249L16.1813 36.3446C14.9078 35.5811 12.0685 33.7562 10.8999 32.5651C9.73122 31.374 9.51397 29.0146 9.55142 27.9838L8.42772 30.2745C7.97824 29.3582 7.01185 27.1592 6.74216 25.6932C6.47247 24.2272 6.85453 21.8755 7.07927 20.8829Z" fill="#CE4317"/>
<path d="M9.33465 14.9916L7.64511 15.7978C9.48253 13.9358 10.5321 12.9406 12.8264 12.2274C12.5084 11.3567 12.0833 11.1074 11.1368 10.8452C12.196 10.0816 12.8366 9.7845 14.178 9.80866C13.7967 9.04564 13.8687 8.65043 14.178 7.96584C15.269 7.67726 15.8661 7.6344 16.8813 7.96584C17.2907 6.97725 17.6647 6.49813 18.5708 5.77749C19.7498 5.39463 20.3882 5.36756 21.4994 5.54713C22.8063 5.01643 23.5172 4.93229 24.7658 4.97125C25.6235 5.13464 26.0035 5.32569 26.568 5.77749C29.5302 5.85458 31.1285 6.13251 33.7767 7.38995L32.3124 7.96584C34.5375 8.72476 35.6173 9.31282 37.0431 10.8452C35.6725 10.4307 34.9616 10.5039 33.7767 11.0756C36.1259 13.0889 37.0507 14.4186 37.719 17.2951C36.2446 16.612 35.3913 16.3247 33.7767 16.1434C34.5164 16.8765 34.6907 17.278 34.7904 17.9862C33.415 17.5003 32.6169 17.3361 31.0734 17.5255C32.1971 19.0321 32.3776 19.8886 31.9745 21.4415C31.1939 20.6053 30.7755 20.3108 30.0597 20.0594C29.9502 21.7473 29.8226 22.6642 29.3839 24.2057C28.1962 23.6764 27.5767 23.2789 26.568 22.3629C25.8784 24.47 25.7983 25.7146 26.0048 28.0065C24.7673 27.3652 24.1006 26.8638 22.9636 25.703C22.9128 26.8237 22.8242 27.2881 22.6257 28.0065C21.603 27.6005 21.0972 27.246 20.373 26.2789C20.1508 27.5396 19.931 28.2064 19.2466 29.2735C18.0346 28.8566 17.3699 28.4653 16.2055 27.5458C15.8451 28.6354 15.613 29.3908 14.6286 30.7708C13.9174 29.9692 13.5961 29.4784 13.2769 28.4672C12.4089 28.381 12.0262 28.5868 11.4747 29.2735C10.3996 27.3884 10.0581 26.2767 9.89783 24.2057C8.59457 25.3659 8.20198 26.2753 7.64511 28.0065C7.32672 24.7731 7.32263 22.9775 7.87038 19.829L5.95557 20.2897C7.12931 18.0749 7.83158 16.8772 9.33465 14.9916Z" fill="#CE4317"/>
<path d="M9.33465 14.9916L7.64511 15.7978C9.48253 13.9358 10.5321 12.9406 12.8264 12.2274C12.5084 11.3567 12.0833 11.1074 11.1368 10.8452C12.196 10.0816 12.8366 9.7845 14.178 9.80866C13.7967 9.04564 13.8687 8.65043 14.178 7.96584C15.269 7.67726 15.8661 7.6344 16.8813 7.96584C17.2907 6.97725 17.6647 6.49813 18.5708 5.77749C19.7498 5.39463 20.3882 5.36756 21.4994 5.54713C22.8063 5.01643 23.5172 4.93229 24.7658 4.97125C25.6235 5.13464 26.0035 5.32569 26.568 5.77749C29.5302 5.85458 31.1285 6.13251 33.7767 7.38995L32.3124 7.96584C34.5375 8.72476 35.6173 9.31282 37.0431 10.8452C35.6725 10.4307 34.9616 10.5039 33.7767 11.0756C36.1259 13.0889 37.0507 14.4186 37.719 17.2951C36.2446 16.612 35.3913 16.3247 33.7767 16.1434C34.5164 16.8765 34.6907 17.278 34.7904 17.9862C33.415 17.5003 32.6169 17.3361 31.0734 17.5255C32.1971 19.0321 32.3776 19.8886 31.9745 21.4415C31.1939 20.6053 30.7755 20.3108 30.0597 20.0594C29.9502 21.7473 29.8226 22.6642 29.3839 24.2057C28.1962 23.6764 27.5767 23.2789 26.568 22.3629C25.8784 24.47 25.7983 25.7146 26.0048 28.0065C24.7673 27.3652 24.1006 26.8638 22.9636 25.703C22.9128 26.8237 22.8242 27.2881 22.6257 28.0065C21.603 27.6005 21.0972 27.246 20.373 26.2789C20.1508 27.5396 19.931 28.2064 19.2466 29.2735C18.0346 28.8566 17.3699 28.4653 16.2055 27.5458C15.8451 28.6354 15.613 29.3908 14.6286 30.7708C13.9174 29.9692 13.5961 29.4784 13.2769 28.4672C12.4089 28.381 12.0262 28.5868 11.4747 29.2735C10.3996 27.3884 10.0581 26.2767 9.89783 24.2057C8.59457 25.3659 8.20198 26.2753 7.64511 28.0065C7.32672 24.7731 7.32263 22.9775 7.87038 19.829L5.95557 20.2897C7.12931 18.0749 7.83158 16.8772 9.33465 14.9916Z" fill="white" fill-opacity="0.6"/>
<path d="M11.9112 17.3435C11.6171 16.1163 11.2054 13.4886 11.9112 12.7956C11.1071 12.8007 10.7579 13.362 9.92603 13.7701C11.1706 12.549 11.8205 11.719 13.2347 11.2796C13.0871 10.7549 12.9176 10.4867 12.3524 10.0885C13.8604 9.24352 14.7307 9.01882 16.3228 9.00563C16.1909 8.51714 16.2935 8.26212 16.5434 7.8145C17.5235 7.83395 18.0344 7.94277 18.8595 8.35592C19.7996 7.42217 20.521 7.10661 22.1682 6.94823C21.8386 7.4766 21.752 7.78358 21.8373 8.35592C23.7325 7.74963 24.795 7.73437 26.69 8.35592C25.6966 8.5423 25.2207 8.71929 24.7048 9.33048C26.2252 9.75967 26.8714 10.2179 27.7929 11.2796C26.5465 11.109 25.8627 11.1076 24.7048 11.4962C25.4733 13.3352 25.603 14.5167 25.4769 16.8021C24.4022 15.5685 23.7242 14.938 22.1682 14.095C22.0894 15.9199 21.8574 16.8613 21.1756 18.4264C19.9552 17.2643 19.2043 16.7107 17.6463 16.0441C16.8525 16.9779 16.5465 17.584 16.3228 18.8595C15.556 18.3546 15.1456 18.0496 14.5582 17.3435C14.2273 17.3435 14.117 17.6684 13.6759 18.4264C13.4624 17.7497 13.006 16.7208 13.2347 16.0441L11.9112 17.3435Z" fill="#CE4317"/>
<path d="M11.9112 17.3435C11.6171 16.1163 11.2054 13.4886 11.9112 12.7956C11.1071 12.8007 10.7579 13.362 9.92603 13.7701C11.1706 12.549 11.8205 11.719 13.2347 11.2796C13.0871 10.7549 12.9176 10.4867 12.3524 10.0885C13.8604 9.24352 14.7307 9.01882 16.3228 9.00563C16.1909 8.51714 16.2935 8.26212 16.5434 7.8145C17.5235 7.83395 18.0344 7.94277 18.8595 8.35592C19.7996 7.42217 20.521 7.10661 22.1682 6.94823C21.8386 7.4766 21.752 7.78358 21.8373 8.35592C23.7325 7.74963 24.795 7.73437 26.69 8.35592C25.6966 8.5423 25.2207 8.71929 24.7048 9.33048C26.2252 9.75967 26.8714 10.2179 27.7929 11.2796C26.5465 11.109 25.8627 11.1076 24.7048 11.4962C25.4733 13.3352 25.603 14.5167 25.4769 16.8021C24.4022 15.5685 23.7242 14.938 22.1682 14.095C22.0894 15.9199 21.8574 16.8613 21.1756 18.4264C19.9552 17.2643 19.2043 16.7107 17.6463 16.0441C16.8525 16.9779 16.5465 17.584 16.3228 18.8595C15.556 18.3546 15.1456 18.0496 14.5582 17.3435C14.2273 17.3435 14.117 17.6684 13.6759 18.4264C13.4624 17.7497 13.006 16.7208 13.2347 16.0441L11.9112 17.3435Z" fill="white" fill-opacity="0.15"/>
</svg>
