<svg width="50" height="50" viewBox="0 0 50 50" fill="none" xmlns="http://www.w3.org/2000/svg">
<path d="M13.0146 3.52538L13 3.5L10.6842 4.42107C9.71278 8.12345 8 15.8903 8 20.5263C8 26.3214 12.1044 42.2414 15.1579 44.6842C19.6316 48.2632 30.3684 48.2632 34.8421 44.6842C37.728 42.3755 42 26.3214 42 20.5263C42 15.8903 40.2872 8.28442 39.3158 4.42107L37 3.5C36.3524 4.62681 35.1184 6.05263 34 6.5C31.7632 7.39474 18.2368 7.61199 16 6.5C14.2137 5.61199 13.656 4.64151 13.0146 3.52538Z" fill="#D0333D"/>
<path d="M13.0146 3.52538L13 3.5L10.6842 4.42107C9.71278 8.12345 8 15.8903 8 20.5263C8 26.3214 12.1044 42.2414 15.1579 44.6842C19.6316 48.2632 30.3684 48.2632 34.8421 44.6842C37.728 42.3755 42 26.3214 42 20.5263C42 15.8903 40.2872 8.28442 39.3158 4.42107L37 3.5C36.3524 4.62681 35.1184 6.05263 34 6.5C31.7632 7.39474 18.2368 7.61199 16 6.5C14.2137 5.61199 13.656 4.64151 13.0146 3.52538Z" fill="white" fill-opacity="0.4"/>
<path fill-rule="evenodd" clip-rule="evenodd" d="M11.955 3.91565C11.9162 5.11498 11.9353 6.62559 12.0905 8.04197C12.1903 8.95324 12.3483 9.8436 12.5916 10.5934C12.8294 11.3263 13.1737 12.0053 13.7 12.4C14.5829 13.0622 15.3857 13.2463 16.0598 13.1303C16.218 13.1031 16.3648 13.06 16.5 13.0054V20V25.75V31.4748C16.4175 32.2808 16.1993 33.5282 15.814 34.6644C15.6194 35.2381 15.3876 35.7673 15.1193 36.1926C14.8481 36.6226 14.5626 36.9097 14.2764 37.0528C13.6328 37.3746 13.0405 37.3107 12.5371 37.0916C12.0175 36.8654 11.6077 36.4769 11.4 36.2L11.1811 36.3642C11.3299 36.8329 11.4813 37.2927 11.6348 37.7409C11.791 37.8397 11.9592 37.9306 12.1379 38.0085C12.8595 38.3226 13.7672 38.4254 14.7236 37.9472C15.2374 37.6903 15.6436 37.2358 15.9651 36.7262C16.1667 36.4065 16.3442 36.0506 16.5 35.6785V38.9165C16.3388 39.3713 16.0248 40.0213 15.5871 40.5595C15.1181 41.1362 14.5793 41.5 14 41.5V42.5C15.0207 42.5 15.8152 41.8639 16.3629 41.1905C16.4099 41.1327 16.4556 41.0741 16.5 41.0147V45.5589C16.817 45.7284 17.1512 45.8861 17.5 46.0318V39V34.4209C17.9145 33.8881 18.5277 33.1331 19.1356 32.4516C19.4663 32.0809 19.7906 31.7373 20.0773 31.4648C20.3758 31.181 20.5961 31.011 20.7236 30.9472C21.2424 30.6879 22.1527 30.1688 22.8791 29.5745C23.2392 29.2799 23.5851 28.942 23.8075 28.5843C24.0276 28.2301 24.1852 27.7524 23.9472 27.2764C23.7492 26.8804 23.4279 26.6632 23.0512 26.5879C22.7135 26.5203 22.3491 26.5703 22.0269 26.6347C21.8598 26.6682 21.6868 26.7094 21.5175 26.7503L21.4668 26.7626L21.4666 26.7626C21.3118 26.8 21.1589 26.8369 21.0032 26.8708C20.6572 26.946 20.3225 27 20 27C19.5485 27 19.0249 26.7737 18.5182 26.43C18.1001 26.1464 17.738 25.8133 17.5 25.5587V21.94C17.6658 22.1901 17.8474 22.4446 18.0436 22.6955C18.7547 23.6048 19.6959 24.5169 20.8143 24.9643C22.2381 25.5338 23.4381 25.3592 24.3405 25.2279C24.382 25.2218 24.4228 25.2159 24.463 25.2101C24.4754 25.2084 24.4877 25.2066 24.5 25.2048V31.1696C24.2854 31.3164 24.0573 31.4396 23.816 31.5351C22.2473 32.1561 21.1637 32.9572 20.3786 34.024C19.6017 35.0794 19.1451 36.3581 18.7649 37.8788C18.4453 39.1574 18.4296 40.9725 18.5258 42.6782C18.607 44.1185 18.7708 45.5223 18.9213 46.5372C19.2643 46.6401 19.6167 46.7335 19.9767 46.8174C19.8153 45.8247 19.6157 44.2457 19.5242 42.6219C19.4287 40.9275 19.4547 39.2426 19.7351 38.1213C20.1049 36.6419 20.5233 35.5144 21.1839 34.6167C21.8363 33.7304 22.7527 33.0315 24.184 32.4649C24.2918 32.4222 24.3972 32.3755 24.5 32.325V34.4871C24.0359 34.8348 23.5668 35.2262 23.1465 35.6465C22.4376 36.3553 22.0394 37.5216 21.8109 38.596C21.5776 39.6938 21.5 40.8042 21.5 41.5V42.5L22.3 41.9C22.8783 41.4663 23.6915 40.8289 24.5 40.1462V43C23.3987 44.4927 22.5049 46.2455 22.0893 47.1905C22.4361 47.2337 22.7864 47.269 23.139 47.2965C23.4438 46.6403 23.9205 45.7167 24.5 44.7856V47.3633C24.8332 47.3702 25.1668 47.3702 25.5 47.3633V43.335C25.7779 42.9758 26.0641 42.643 26.3536 42.3536C26.7935 41.9136 27.3403 41.4956 27.9348 41.041L27.9349 41.041L28.0617 40.9439C28.6919 40.4616 29.3634 39.9391 29.926 39.3433C30.4918 38.7443 30.9703 38.0482 31.1941 37.2067C31.4199 36.3579 31.3743 35.4074 30.9682 34.3245C30.2486 32.4056 30.0036 29.9826 30.1855 27.9828C30.2763 26.983 30.4714 26.1188 30.747 25.4898C31.0317 24.8401 31.3502 24.5529 31.6213 24.4851C31.953 24.4022 32.2419 24.3679 32.5 24.3731V26.9361C32.4044 26.9747 32.3118 27.0246 32.2227 27.084C31.8044 27.3629 31.6156 27.7972 31.5504 28.2448C31.4865 28.6837 31.5325 29.1834 31.6242 29.6889C31.7597 30.4359 32.0172 31.2992 32.2681 32.1402L32.2681 32.1403L32.2681 32.1404C32.3474 32.4063 32.4261 32.67 32.5 32.927V38.8273C32.042 40.1874 31.2731 41.2952 30.2 42.1C29.3281 42.7539 28.5805 43.7305 28.0352 44.6279C27.4952 45.5166 27.11 46.4004 27.0097 46.902L27.9903 47.0981C28.0567 46.7663 28.3715 46.0001 28.8898 45.1472C29.4028 44.3029 30.0719 43.4461 30.8 42.9C31.474 42.3945 32.0403 41.7891 32.5 41.0988V46.0318C32.8489 45.8861 33.183 45.7284 33.5 45.5589V38.9864C33.8355 37.927 34 36.7554 34 35.5C34 34.6904 33.7659 33.7246 33.5 32.787V28.3234C33.6978 28.6259 33.8911 29.0417 34.0742 29.5385C34.4767 30.6301 34.7895 31.9971 35.0097 33.0981C35.1999 34.0488 35.4463 35.8921 35.4596 37.9262C35.4729 39.97 35.2499 42.1477 34.5404 43.8031L35.3544 44.1519C35.4436 44.0395 35.5337 43.9164 35.6246 43.7832C36.2816 42.01 36.4722 39.8572 36.4596 37.9197C36.4459 35.8191 36.1924 33.9124 35.9903 32.902C35.7683 31.7918 35.4433 30.3611 35.0125 29.1925C34.798 28.6109 34.547 28.0651 34.252 27.6517C34.0591 27.3814 33.8104 27.1168 33.5 26.9672V24.6346C34.1458 24.9807 34.7603 25.6804 35.6 26.8C35.8348 27.1131 36.0806 27.7465 36.3108 28.65C36.5354 29.5318 36.7293 30.6032 36.8926 31.734C37.2191 33.9944 37.4179 36.4538 37.5007 38.0263L38.2264 37.9881C38.3047 37.7622 38.3827 37.5331 38.4601 37.3013C38.3603 35.7283 38.1706 33.587 37.8824 31.5911C37.7165 30.4427 37.5167 29.3328 37.2798 28.4032C37.0485 27.4952 36.7652 26.6869 36.4 26.2C35.4564 24.9419 34.6174 23.9345 33.5 23.5459V20.5911C34.7994 20.8369 36.1941 21.764 37.3236 23.3023C38.5982 25.0383 39.5 27.5126 39.5 30.5H40.4019C40.4333 30.3705 40.4645 30.241 40.4952 30.1118C40.4206 27.0938 39.4798 24.5493 38.1296 22.7105C36.8516 20.9698 35.1766 19.8272 33.5 19.5768V17.2656C34.9063 16.5081 36.0311 15.951 37.3143 16.4643C37.7008 16.6189 38.1043 16.9574 38.5079 17.4622C38.9072 17.9618 39.2795 18.5898 39.6137 19.2704C40.2823 20.6319 40.7714 22.1473 41.0149 23.1213L41.8368 22.9158C41.8536 22.772 41.8691 22.6307 41.8834 22.4921C41.6049 21.4796 41.1341 20.0978 40.5113 18.8296C40.158 18.1102 39.749 17.4133 39.289 16.8378C38.8332 16.2676 38.2992 15.7812 37.6857 15.5358C36.1275 14.9125 34.7356 15.4826 33.5 16.1303V14.1886C33.8842 13.9153 34.1969 13.6287 34.471 13.36C34.578 13.255 34.6755 13.1567 34.7675 13.0639L34.7676 13.0638C34.9678 12.862 35.1423 12.6859 35.3332 12.5239C35.5963 12.3007 35.8535 12.1393 36.1634 12.0456C36.4744 11.9516 36.8728 11.9155 37.4293 11.995C39.9174 12.3504 40.8543 14.516 41.005 15.5707L41.5696 15.4901C41.4728 14.8119 41.3632 14.122 41.2448 13.431C40.5797 12.34 39.4284 11.2704 37.5707 11.005C36.904 10.9098 36.354 10.9433 35.874 11.0884C35.393 11.2338 35.0167 11.4811 34.6863 11.7614C34.4611 11.9525 34.2385 12.1768 34.0234 12.3936C33.9379 12.4798 33.8536 12.5648 33.7708 12.646C33.6829 12.7322 33.5931 12.818 33.5 12.9028V10.5604C35.5824 9.19225 37.9272 7.18525 39.3412 5.86555L38.6588 5.13449C37.3879 6.3207 35.3702 8.05416 33.5 9.35329V6.64904C33.2254 6.7134 32.8883 6.77328 32.5 6.82837V10.0129C31.8511 10.4154 31.2592 10.727 30.7623 10.9117C30.485 11.0147 30.254 11.0718 30.0702 11.0891C29.8848 11.1065 29.7791 11.0806 29.7236 11.0528C29.5937 10.9879 29.5326 10.9211 29.501 10.8683C29.4693 10.8151 29.4474 10.7426 29.4499 10.6348C29.4552 10.3987 29.5755 10.0622 29.8275 9.64685C30.3228 8.83039 31.1799 7.94449 31.8293 7.37631L31.4588 6.9529C31.2288 6.97623 30.9884 6.99833 30.739 7.01914C30.128 7.60306 29.4308 8.37277 28.9725 9.12819C28.6911 9.59202 28.4615 10.1117 28.4501 10.6121C28.4442 10.8725 28.4974 11.1383 28.6427 11.3814C28.7882 11.6248 29.0063 11.8122 29.2764 11.9472C29.5546 12.0863 29.8654 12.1127 30.1638 12.0847C30.4639 12.0565 30.7843 11.9703 31.1106 11.849C31.5409 11.6892 32.0106 11.4572 32.5 11.1773V13.6437C31.8156 14.0382 30.8757 14.3729 29.4547 14.5021C26.5777 14.7636 25.7259 14.0027 25.5 13.4831V12.5C25.5 11.6673 25.9997 10.6527 26.7165 9.66961C27.4192 8.7059 28.2664 7.85881 28.8254 7.37965L28.6328 7.15491C28.2778 7.17207 27.9144 7.18711 27.5453 7.19996C27.0272 7.70737 26.4325 8.36183 25.9085 9.08044C25.7683 9.27266 25.6308 9.47268 25.5 9.67858V7.24776C25.167 7.25184 24.8331 7.25415 24.5 7.25464V12.4244C24.3971 12.7797 24.3689 13.2148 24.5 13.6542V17.2198C23.9129 16.8897 23.3739 16.4095 22.916 15.7227C22.221 14.6801 22.1161 13.0866 22.3333 11.4144C22.5433 9.79845 23.0387 8.22231 23.4377 7.24991C23.0779 7.24613 22.7213 7.24012 22.3702 7.2318C21.9763 8.27155 21.5403 9.75626 21.3417 11.2856C21.1172 13.0134 21.179 14.92 22.084 16.2774C22.7549 17.2838 23.5889 17.9366 24.5 18.3357V21.5448C23.2009 21.3436 21.9599 20.7528 20.8536 19.6465C20.3492 19.1421 19.9737 18.3227 19.7244 17.2565C19.4772 16.1996 19.3664 14.9545 19.35 13.6562C19.3204 11.3134 19.5987 8.85286 19.8948 7.12668C19.5462 7.1041 19.2114 7.07842 18.8936 7.04955C18.5953 8.81731 18.32 11.2943 18.35 13.6688C18.367 15.0081 18.4811 16.3317 18.7506 17.4842C19.018 18.6274 19.4508 19.6579 20.1465 20.3536C21.4487 21.6558 22.9394 22.3457 24.5 22.5551V24.1909C24.3495 24.2092 24.201 24.2303 24.053 24.2514L24.0528 24.2514C23.1861 24.3747 22.3356 24.4957 21.1857 24.0358C20.3041 23.6832 19.4953 22.9285 18.8314 22.0795C18.2084 21.2828 17.7466 20.4463 17.5 19.8953V12V9.50002V6.88435C17.1117 6.82429 16.7747 6.75647 16.5 6.68057V9.10452C16.3482 9.12655 16.1807 9.13485 16.0212 9.11598C15.7321 9.08178 15.5455 8.97288 15.4472 8.77642C15.3839 8.64981 15.3116 8.38654 15.2466 7.98823C15.1842 7.60566 15.1355 7.14623 15.0986 6.662C15.0806 6.42609 15.0655 6.18607 15.053 5.94844C14.6225 5.65191 14.2911 5.34556 14.0154 5.02732C14.0303 5.56078 14.0574 6.16015 14.1015 6.73805C14.1395 7.23715 14.1908 7.72771 14.2597 8.14931C14.3259 8.55517 14.4161 8.95024 14.5528 9.22363C14.8546 9.82716 15.4179 10.0516 15.9038 10.1091C16.1074 10.1332 16.3106 10.1305 16.5 10.1117V11.8264C16.3761 11.9566 16.1704 12.0965 15.8902 12.1448C15.5476 12.2037 15.0171 12.1379 14.3 11.6C14.0263 11.3947 13.7623 10.9612 13.5428 10.2848C13.3288 9.62519 13.1805 8.80931 13.0845 7.93307C12.9161 6.39533 12.9142 4.72746 12.9718 3.51123L11.955 3.91565ZM10.9746 4.30561C10.9088 5.12354 10.8795 6.33736 10.9857 7.58253C11.105 8.98076 11.3896 10.3442 11.9288 11.2428C13.4466 13.7726 17.5329 21.9182 15.4867 30.6145C15.0807 32.3402 14.5644 33.4917 13.9413 34.1623C13.6226 34.5052 13.2655 34.7334 12.8744 34.8339C12.4826 34.9346 12.0962 34.8969 11.7367 34.7726C11.2756 34.6133 10.844 34.3071 10.4544 33.9351C10.2175 33.0952 9.99135 32.2431 9.77887 31.3927C10.039 31.8434 10.339 32.2928 10.6615 32.686C11.142 33.2715 11.628 33.677 12.0633 33.8274C12.2704 33.899 12.4549 33.9092 12.6256 33.8654C12.797 33.8213 12.9941 33.7126 13.2087 33.4815C13.6523 33.0042 14.1193 32.0598 14.5133 30.3855C16.4671 22.0819 12.5534 14.2275 11.0713 11.7573C10.4104 10.6559 10.1117 9.10262 9.98931 7.66752C9.98056 7.56489 9.97268 7.46248 9.96563 7.36048C10.2235 6.23629 10.4716 5.23136 10.6842 4.42109L10.9746 4.30561ZM8.98888 12.0637C9.1071 11.4241 9.2308 10.7901 9.35697 10.1707L9.4881 10.1416C9.64936 10.8672 10.1715 12.7249 10.9472 14.2764C11.9603 16.3026 14 21.3853 14 26C14 27.1479 13.9048 28.1315 13.7029 28.914C13.504 29.6848 13.1833 30.3313 12.675 30.7125C12.1317 31.12 11.4743 31.1533 10.7932 30.8979C10.3732 30.7404 9.93039 30.47 9.46498 30.0953C9.36506 29.6682 9.26904 29.2434 9.1773 28.8227L9.35356 28.6465C10.0824 29.3753 10.6788 29.787 11.1443 29.9615C11.5882 30.128 11.8683 30.0675 12.075 29.9125C12.3167 29.7313 12.5585 29.3465 12.7346 28.6641C12.9077 27.9936 13 27.1021 13 26C13 21.6147 11.0397 16.6975 10.0528 14.7236C9.61436 13.8468 9.25507 12.8868 8.98888 12.0637ZM8.29858 16.4469C8.3763 15.8232 8.46664 15.1846 8.56652 14.5401C8.98611 15.4787 9.58123 16.8904 10.1309 18.3626C10.7279 19.9615 11.2847 21.6668 11.4932 22.9178C11.6195 23.6755 11.7172 24.4185 11.7418 25.067C11.7658 25.6969 11.7252 26.313 11.5177 26.7694C11.409 27.0086 11.2411 27.2335 10.9856 27.3767C10.7269 27.5216 10.4357 27.5505 10.1429 27.5008C9.7392 27.4322 9.28416 27.2065 8.77173 26.8428C8.70983 26.5188 8.65111 26.1992 8.59577 25.8851L8.8201 25.6159C9.55914 26.2318 10.035 26.4681 10.3103 26.5149C10.4315 26.5355 10.4802 26.5136 10.4968 26.5043C10.5168 26.4931 10.5598 26.4602 10.6073 26.3556C10.7124 26.1245 10.7655 25.7094 10.7426 25.1049C10.7203 24.5191 10.6305 23.8246 10.5068 23.0822C10.3153 21.9333 9.7888 20.3052 9.19409 18.7124C8.89712 17.917 8.58649 17.1392 8.29858 16.4469ZM18.3894 31.7859C18.0855 32.1266 17.7813 32.484 17.5 32.8241V31.5V26.9183C17.6433 27.0341 17.7964 27.1487 17.9568 27.2576C18.5251 27.643 19.2515 28 20 28C20.4275 28 20.8429 27.929 21.2156 27.848C21.3833 27.8115 21.5476 27.7718 21.7009 27.7348L21.7009 27.7348L21.7521 27.7224C21.9226 27.6812 22.0777 27.6444 22.2231 27.6153C22.5259 27.5547 22.724 27.5422 22.8551 27.5684C22.9471 27.5868 23.0008 27.6196 23.0528 27.7236C23.0648 27.7477 23.0974 27.8324 22.9582 28.0564C22.8212 28.2768 22.5733 28.5326 22.2459 28.8005C21.5973 29.3312 20.7577 29.8122 20.2764 30.0528C20.0039 30.189 19.6908 30.4524 19.3883 30.74C19.074 31.0388 18.7295 31.4046 18.3894 31.7859ZM25.5 30.2031V25.1524C25.7565 25.182 25.9897 25.2607 26.2227 25.416C26.3954 25.5312 26.5596 25.7836 26.6402 26.223C26.7194 26.6539 26.7043 27.2013 26.5818 27.7956C26.4104 28.6268 26.041 29.4935 25.5 30.2031ZM25.5 33.7932V31.6595C26.6055 30.7064 27.2945 29.2907 27.5612 27.9975C27.7028 27.3108 27.7316 26.6297 27.6238 26.0424C27.5175 25.4638 27.2639 24.9084 26.7774 24.584C26.3489 24.2983 25.9206 24.1805 25.5 24.1481V22.6248C27.4451 22.6394 29.4295 21.9733 31.2481 20.9341C31.6393 20.7106 32.0603 20.5807 32.5 20.5394V23.373C32.1458 23.3678 31.7741 23.4161 31.3787 23.515C30.6498 23.6972 30.1558 24.3475 29.8311 25.0884C29.4974 25.85 29.2862 26.8295 29.1896 27.8923C28.9964 30.0174 29.2514 32.5945 30.0318 34.6756C30.3757 35.5926 30.3926 36.3296 30.2277 36.9496C30.0609 37.5768 29.6957 38.1308 29.199 38.6567C28.6992 39.186 28.0894 39.6635 27.4539 40.1499L27.3139 40.2569C26.7344 40.6997 26.1358 41.1571 25.6465 41.6465C25.5974 41.6956 25.5485 41.7456 25.5 41.7964V39.2724C25.9171 38.8933 26.307 38.5166 26.6282 38.169C26.9981 37.7687 27.3294 37.3525 27.4672 36.9905C27.7034 36.3707 27.7423 35.6284 27.7119 34.9888C27.6811 34.3403 27.5759 33.7421 27.4851 33.3788L27.3339 32.7741L26.7764 33.0528C26.4878 33.1971 26.0283 33.4533 25.5 33.7932ZM30.7519 20.0659C29.0302 21.0498 27.2185 21.6393 25.5 21.6247V18.6703C27.2627 19.0968 29.1537 18.7792 30.5981 18.4903C31.2733 18.3553 31.9074 18.0887 32.5 17.7935V19.536C31.8922 19.5797 31.3009 19.7522 30.7519 20.0659ZM30.4019 17.5097C28.8633 17.8175 27.0713 18.0932 25.5 17.636V14.9182C26.3141 15.4241 27.6192 15.6731 29.5453 15.498C30.7993 15.384 31.7475 15.118 32.5 14.7689V16.668C31.7908 17.0443 31.1124 17.3677 30.4019 17.5097ZM25.8937 37.4904C25.7736 37.6204 25.6415 37.7564 25.5 37.8966V34.9974C25.9139 34.7076 26.3094 34.4595 26.6383 34.2676C26.6722 34.5008 26.7001 34.7635 26.7131 35.0363C26.741 35.6237 26.6966 36.2044 26.5328 36.6345C26.4707 36.7976 26.2644 37.0892 25.8937 37.4904ZM23.8536 36.3536C24.0579 36.1492 24.276 35.9516 24.5 35.7628V38.8256C23.8541 39.396 23.1567 39.9675 22.5495 40.4459C22.5932 39.9403 22.669 39.369 22.7891 38.804C23.0107 37.7617 23.3624 36.8448 23.8536 36.3536Z" fill="#D0333D"/>
<path d="M13.0146 3.52538L13 3.5L10.6842 4.42107C9.71278 8.12345 8 15.8903 8 20.5263C8 26.3214 12.1044 42.2414 15.1579 44.6842C19.6316 48.2632 30.3684 48.2632 34.8421 44.6842C37.728 42.3755 42 26.3214 42 20.5263C42 15.8903 40.2872 8.28442 39.3158 4.42107L37 3.5C36.3524 4.62681 35.1184 6.05263 34 6.5C31.7632 7.39474 18.2368 7.61199 16 6.5C14.2137 5.61199 13.656 4.64151 13.0146 3.52538Z" stroke="#D0333D" stroke-width="2"/>
<path d="M13.0146 3.52538L13 3.5L10.6842 4.42107C9.71278 8.12345 8 15.8903 8 20.5263C8 26.3214 12.1044 42.2414 15.1579 44.6842C19.6316 48.2632 30.3684 48.2632 34.8421 44.6842C37.728 42.3755 42 26.3214 42 20.5263C42 15.8903 40.2872 8.28442 39.3158 4.42107L37 3.5C36.3524 4.62681 35.1184 6.05263 34 6.5C31.7632 7.39474 18.2368 7.61199 16 6.5C14.2137 5.61199 13.656 4.64151 13.0146 3.52538Z" stroke="black" stroke-opacity="0.2" stroke-width="2"/>
<path fill-rule="evenodd" clip-rule="evenodd" d="M13.4814 0.993457C13.958 2.06719 14.4808 3.24479 16 4C18.5 5.24281 31.5 5 34 4C35.0435 3.58259 35.9311 1.95208 36.6169 0.692105C36.7526 0.442809 36.8804 0.208019 37 0L41 2C42.0857 6.31787 44 14.8186 44 20C44 26.4768 39.2255 44.4196 36 47C31 51 19 51 14 47C10.5872 44.2698 6 26.4768 6 20C6 14.8186 7.91429 6.13796 9 2L13 0C13.1772 0.308289 13.3269 0.645416 13.4814 0.993457ZM13 3.5L13.0146 3.52538C13.656 4.64151 14.2137 5.61199 16 6.5C18.2368 7.61199 31.7632 7.39474 34 6.5C35.1184 6.05263 36.3524 4.62681 37 3.5L39.3158 4.42107C40.2872 8.28442 42 15.8903 42 20.5263C42 26.3214 37.728 42.3755 34.8421 44.6842C30.3684 48.2632 19.6316 48.2632 15.1579 44.6842C12.1044 42.2414 8 26.3214 8 20.5263C8 15.8903 9.71278 8.12345 10.6842 4.42107L13 3.5Z" fill="#D0333D"/>
<path d="M25 7.5V47M33 7V45M17 7.5V45.5" stroke="#D0333D"/>
<path d="M25 7.5V47M33 7V45M17 7.5V45.5" stroke="black" stroke-opacity="0.2"/>
</svg>
