<svg width="50" height="50" viewBox="0 0 50 50" fill="none" xmlns="http://www.w3.org/2000/svg">
<g clip-path="url(#clip0_4803_7728)">
<path d="M12.2449 37.755C13.7697 39.2808 17.063 40.6452 18.5152 41.0085C18.7874 41.0993 28 44.9999 28 44.9999C28 44.9999 18.2429 43.4607 17.9706 43.4607L12.7551 41.3264L6.48917 46.7303L2.5 50L2.18557e-07 47.5L3.26741 43.4607L8.44075 37.1939L6.80707 32.0171C6.7163 31.6538 4.50008 21.4999 4.50008 21.4999C4.50008 21.4999 8.89455 31.1088 8.98531 31.4721C9.43912 33.0161 10.7201 36.2292 12.2449 37.755Z" fill="#FAA21E"/>
<path d="M41 5C39.8 6.2 21.6667 24.1667 11 34L16 39C26.3333 28.1667 44.3675 9.63246 45 9C46 8 49.8333 1.33333 50 0C48.6667 0 42.2 3.8 41 5Z" fill="#898989"/>
<path d="M41 5C39.8 6.2 21.6667 24.1667 11 34L16 39C26.3333 28.1667 44.3675 9.63246 45 9C46 8 49.8333 1.33333 50 0C48.6667 0 42.2 3.8 41 5Z" fill="white" fill-opacity="0.4"/>
<path d="M50 0L13 37L15 40C26 29 44.6 9.4 45 9C46.5 7.5 50 0.5 50 0Z" fill="#898989"/>
<path d="M50 0L13 37L15 40C26 29 44.6 9.4 45 9C46.5 7.5 50 0.5 50 0Z" fill="white" fill-opacity="0.2"/>
<path d="M43 6C42.2 6.81039 20.5 28 13.5 35L15 36.5C22 29.5 43.5784 7.42711 44 7C44.6667 6.32468 46 4.5 46 4C45.5 4 43.8 5.18961 43 6Z" fill="#FEFEFE"/>
<path d="M44 7C44.6667 6.32468 46 4.5 46 4L14.25 35.75L15 36.5C22 29.5 43.5784 7.42711 44 7Z" fill="#898989"/>
<path d="M44 7C44.6667 6.32468 46 4.5 46 4L14.25 35.75L15 36.5C22 29.5 43.5784 7.42711 44 7Z" fill="white" fill-opacity="0.6"/>
<g clip-path="url(#clip1_4803_7728)">
<path d="M13.0829 34.6253L13.635 32.9689L16.9478 36.2817L15.2914 36.8338L13.0829 34.6253Z" fill="#546DDB"/>
<path d="M15.2915 36.8339L16.9479 36.2817L15.8436 41.0669L14.4633 39.6866L15.2915 36.8339Z" fill="#546DDB"/>
<path d="M15.2915 36.8339L16.9479 36.2817L15.8436 41.0669L14.4633 39.6866L15.2915 36.8339Z" fill="white" fill-opacity="0.2"/>
<path d="M13.083 34.6254L13.6351 32.969L8.84997 34.0732L10.2303 35.4536L13.083 34.6254Z" fill="#546DDB"/>
<path d="M13.083 34.6254L13.6351 32.969L8.84997 34.0732L10.2303 35.4536L13.083 34.6254Z" fill="black" fill-opacity="0.2"/>
<path d="M8.49591 41.4208L14.4632 39.6866L15.8435 41.0669L6.08918 43.8276L8.49591 41.4208Z" fill="#546DDB"/>
<path d="M8.49591 41.4208L14.4632 39.6866L15.8435 41.0669L6.08918 43.8276L8.49591 41.4208Z" fill="black" fill-opacity="0.2"/>
<path d="M11.6105 40.5148L14.4632 39.6866L15.6595 40.8828C15.1073 40.5148 14.8072 40.292 14.3711 40.1467C13.9351 40.0013 12.408 40.3921 11.6105 40.5148Z" fill="#FEFEFE"/>
<path d="M10.2302 35.4536L8.84985 34.0732L6.08919 43.8276L8.49592 41.4209L10.2302 35.4536Z" fill="#546DDB"/>
<path d="M10.2302 35.4536L8.84985 34.0732L6.08919 43.8276L8.49592 41.4209L10.2302 35.4536Z" fill="white" fill-opacity="0.4"/>
<path d="M15.2913 36.8338L13.0828 34.6253L10.2301 35.4535L8.48169 41.4349L14.4631 39.6865L15.2913 36.8338Z" fill="#546DDB"/>
<path d="M15.2913 36.8338L13.0828 34.6253L10.2301 35.4535L8.48169 41.4349L14.4631 39.6865L15.2913 36.8338Z" fill="white" fill-opacity="0.6"/>
<path d="M13.0828 34.6253L10.2301 35.4535C10.8639 35.2695 12.285 34.9566 12.8988 35.1774C13.5125 35.3982 14.7495 36.3737 15.2913 36.8338L13.0828 34.6253Z" fill="#FEFEFE"/>
</g>
</g>
<defs>
<clipPath id="clip0_4803_7728">
<rect width="50" height="50" fill="white"/>
</clipPath>
<clipPath id="clip1_4803_7728">
<rect width="13.0139" height="13.0139" fill="white" transform="matrix(-0.965926 -0.258819 -0.258819 0.965926 19.8 34.392)"/>
</clipPath>
</defs>
</svg>
