<svg width="50" height="50" viewBox="0 0 50 50" fill="none" xmlns="http://www.w3.org/2000/svg">
<g clip-path="url(#clip0_4803_7718)">
<path d="M25.3039 7.54552L25.7058 0.849365L41.2943 9.84937L35.6962 13.5455L25.3039 7.54552Z" fill="#546DDB"/>
<path d="M35.6963 13.5455L41.2944 9.84937L41.9546 28.7058L35.4594 24.9558L35.6963 13.5455Z" fill="#546DDB"/>
<path d="M35.6963 13.5455L41.2944 9.84937L41.9546 28.7058L35.4594 24.9558L35.6963 13.5455Z" fill="white" fill-opacity="0.2"/>
<path d="M25.304 7.54552L25.7059 0.849365L9.04565 9.70577L15.5408 13.4558L25.304 7.54552Z" fill="#546DDB"/>
<path d="M25.304 7.54552L25.7059 0.849365L9.04565 9.70577L15.5408 13.4558L25.304 7.54552Z" fill="black" fill-opacity="0.2"/>
<path d="M15.0385 37.3256L35.4593 24.9557L41.9545 28.7057L8.5 48.6506L15.0385 37.3256Z" fill="#546DDB"/>
<path d="M15.0385 37.3256L35.4593 24.9557L41.9545 28.7057L8.5 48.6506L15.0385 37.3256Z" fill="black" fill-opacity="0.2"/>
<path d="M25.6963 30.8661L35.4594 24.9558L41.0886 28.2058C38.6735 27.3888 37.3382 26.8607 35.5755 26.7548C33.8127 26.649 28.534 29.6177 25.6963 30.8661Z" fill="#FEFEFE"/>
<path d="M15.5406 13.4558L9.04541 9.70581L8.49989 48.6507L15.0384 37.3257L15.5406 13.4558Z" fill="#546DDB"/>
<path d="M15.5406 13.4558L9.04541 9.70581L8.49989 48.6507L15.0384 37.3257L15.5406 13.4558Z" fill="white" fill-opacity="0.4"/>
<path d="M35.696 13.5455L25.3037 7.54553L15.5405 13.4558L14.9998 37.3923L35.4591 24.9558L35.696 13.5455Z" fill="#546DDB"/>
<path d="M35.696 13.5455L25.3037 7.54553L15.5405 13.4558L14.9998 37.3923L35.4591 24.9558L35.696 13.5455Z" fill="white" fill-opacity="0.6"/>
<path d="M25.3037 7.54553L15.5405 13.4558C17.7098 12.1426 22.6726 9.5685 25.1697 9.77758C27.6668 9.98666 33.2277 12.3767 35.696 13.5455L25.3037 7.54553Z" fill="#FEFEFE"/>
</g>
<defs>
<clipPath id="clip0_4803_7718">
<rect width="50" height="50" fill="white" transform="matrix(-1 0 0 1 50 0)"/>
</clipPath>
</defs>
</svg>
