<svg width="50" height="50" viewBox="0 0 50 50" fill="none" xmlns="http://www.w3.org/2000/svg">
<g clip-path="url(#clip0_4546_6872)">
<path d="M9.73684 2.01379H40V5.01379L41 7.01379H45V48.0138H11.3158C10.7895 48.0138 8.15789 48.0138 6.57895 46.4456C5 44.8774 5 43.3092 5 42.7865V6.71834C5 5.67288 5.73684 4.41834 6.57895 3.58198C7.42105 2.74561 8.68421 2.01379 9.73684 2.01379Z" fill="#7445B8"/>
<path d="M43 9L40 5V40.0312H38L43 46V9Z" fill="#898989"/>
<path d="M43 9L40 5V40.0312H38L43 46V9Z" fill="white" fill-opacity="0.2"/>
<path d="M10.093 40H38.0001L43.0001 46H10.093C9.58856 46 6.97412 45.0823 6.97412 42.8406C6.97412 40.599 9.58856 40 10.093 40Z" fill="#898989"/>
<path d="M10.093 40H38.0001L43.0001 46H10.093C9.58856 46 6.97412 45.0823 6.97412 42.8406C6.97412 40.599 9.58856 40 10.093 40Z" fill="white" fill-opacity="0.6"/>
<g clip-path="url(#clip1_4546_6872)">
<path d="M13.7632 19.1326C13.7632 20.67 14.6397 21.3886 15.2483 21.5915V22.9762C14.4461 22.9762 13.5421 23.923 13.2197 24.6343C12.7604 25.6478 12.7601 32.5708 12.76 35.0741V35.08H20.3823C20.3823 32.5176 20.4212 25.6486 19.9141 24.6343C19.5083 23.8229 18.4875 22.9762 17.8855 22.9762V21.5915C18.6969 21.1858 19.179 20.3251 19.179 19.1326C19.179 17.94 18.2912 16.52 16.4655 16.52C14.6397 16.52 13.7632 17.94 13.7632 19.1326Z" fill="#7445B8"/>
<path d="M13.7632 19.1326C13.7632 20.67 14.6397 21.3886 15.2483 21.5915V22.9762C14.4461 22.9762 13.5421 23.923 13.2197 24.6343C12.7604 25.6478 12.7601 32.5708 12.76 35.0741V35.08H20.3823C20.3823 32.5176 20.4212 25.6486 19.9141 24.6343C19.5083 23.8229 18.4875 22.9762 17.8855 22.9762V21.5915C18.6969 21.1858 19.179 20.3251 19.179 19.1326C19.179 17.94 18.2912 16.52 16.4655 16.52C14.6397 16.52 13.7632 17.94 13.7632 19.1326Z" fill="white" fill-opacity="0.8"/>
<path d="M20.2069 21.8061C20.2069 23.4104 21.1215 24.1602 21.7565 24.3719V25.8169C20.9195 25.8169 19.9762 26.8048 19.6397 27.5471C19.1603 28.6049 19.1601 32.4689 19.16 35.0759V35.08H27.1138C27.1138 32.4061 27.1543 28.6055 26.6251 27.5471C26.2018 26.7004 25.1365 25.8169 24.5083 25.8169V24.3719C25.3551 23.9486 25.8582 23.0505 25.8582 21.8061C25.8582 20.5617 24.9317 19.08 23.0266 19.08C21.1215 19.08 20.2069 20.5617 20.2069 21.8061Z" fill="#7445B8"/>
<path d="M20.2069 21.8061C20.2069 23.4104 21.1215 24.1602 21.7565 24.3719V25.8169C20.9195 25.8169 19.9762 26.8048 19.6397 27.5471C19.1603 28.6049 19.1601 32.4689 19.16 35.0759V35.08H27.1138C27.1138 32.4061 27.1543 28.6055 26.6251 27.5471C26.2018 26.7004 25.1365 25.8169 24.5083 25.8169V24.3719C25.3551 23.9486 25.8582 23.0505 25.8582 21.8061C25.8582 20.5617 24.9317 19.08 23.0266 19.08C21.1215 19.08 20.2069 20.5617 20.2069 21.8061Z" fill="white" fill-opacity="0.95"/>
<path d="M27.2032 18.4926C27.2032 20.03 28.0797 20.7486 28.6883 20.9515V22.3362C27.8861 22.3362 26.9821 23.283 26.6597 23.9943C26.2002 25.008 26.2 30.0153 26.2 32.5153V32.52L33.8223 30.6C33.8223 28.0376 33.8611 25.0086 33.354 23.9943C32.9483 23.1829 31.9274 22.3362 31.3254 22.3362V20.9515C32.1369 20.5457 32.619 19.6851 32.619 18.4926C32.619 17.3 31.7311 15.88 29.9054 15.88C28.0797 15.88 27.2032 17.3 27.2032 18.4926Z" fill="#7445B8"/>
<path d="M27.2032 18.4926C27.2032 20.03 28.0797 20.7486 28.6883 20.9515V22.3362C27.8861 22.3362 26.9821 23.283 26.6597 23.9943C26.2002 25.008 26.2 30.0153 26.2 32.5153V32.52L33.8223 30.6C33.8223 28.0376 33.8611 25.0086 33.354 23.9943C32.9483 23.1829 31.9274 22.3362 31.3254 22.3362V20.9515C32.1369 20.5457 32.619 19.6851 32.619 18.4926C32.619 17.3 31.7311 15.88 29.9054 15.88C28.0797 15.88 27.2032 17.3 27.2032 18.4926Z" fill="white" fill-opacity="0.8"/>
<path d="M24.72 35.7893C33.4923 33.5997 39.7928 28.576 38.7925 24.5686C37.7199 22.28 34.1999 22.28 34.1999 22.28C34.1999 22.28 36.802 22.4645 36.9312 24.1965C37.1221 26.7571 29.4782 29.5548 23.7372 31.2092C17.9962 32.8636 9.58765 33.4384 8.79703 31.2341C8.16454 29.4707 10.4573 27.9445 11.1599 27.08C8.2799 28.68 6.54387 30.5697 7.02517 32.4979C8.02545 36.5054 15.9477 37.979 24.72 35.7893Z" fill="#7445B8"/>
<path d="M24.72 35.7893C33.4923 33.5997 39.7928 28.576 38.7925 24.5686C37.7199 22.28 34.1999 22.28 34.1999 22.28C34.1999 22.28 36.802 22.4645 36.9312 24.1965C37.1221 26.7571 29.4782 29.5548 23.7372 31.2092C17.9962 32.8636 9.58765 33.4384 8.79703 31.2341C8.16454 29.4707 10.4573 27.9445 11.1599 27.08C8.2799 28.68 6.54387 30.5697 7.02517 32.4979C8.02545 36.5054 15.9477 37.979 24.72 35.7893Z" fill="white" fill-opacity="0.6"/>
<path d="M25.1333 5H20.8666V9.26667H16.6V13.5333H20.8666V17.8H25.1333V13.5333H29.4V9.26667H25.1333V5Z" fill="#7445B8"/>
<path d="M25.1333 5H20.8666V9.26667H16.6V13.5333H20.8666V17.8H25.1333V13.5333H29.4V9.26667H25.1333V5Z" fill="white" fill-opacity="0.6"/>
</g>
</g>
<defs>
<clipPath id="clip0_4546_6872">
<rect width="50" height="50" fill="white" transform="matrix(-1 0 0 1 50 0)"/>
</clipPath>
<clipPath id="clip1_4546_6872">
<rect width="32" height="32" fill="white" transform="matrix(-1 0 0 1 39 5)"/>
</clipPath>
</defs>
</svg>
