<svg width="50" height="50" viewBox="0 0 50 50" fill="none" xmlns="http://www.w3.org/2000/svg">
<path d="M32 0H18C18.5 1.5 17.8 4.8 15 6C12.2 7.2 9.16667 5.5 8 4.5L4 12.5C6.83333 13.8333 12 18.1 12 24.5C12 30.9 6.66667 35.5 4 37L7.1875 43.5C8.29167 42.8333 12.125 42 17 43.5C22.2 45.1 24.5 48.5 25 50C25.5 48.5 28.5 45 33 43.5C36.6125 42.2958 41 42.8333 43 43.5L46 37C43.3333 35.8333 38 31.7 38 24.5C38 17.3 43.3333 13.5 46 12.5L41.5 4.5C40.8333 5.66667 38.375 7.5 35 6C32 4.66667 31.5 1.33333 32 0Z" fill="#2FC4A7"/>
<path d="M32 0H18C18.5 1.5 17.8 4.8 15 6C12.2 7.2 9.16667 5.5 8 4.5L4 12.5C6.83333 13.8333 12 18.1 12 24.5C12 30.9 6.66667 35.5 4 37L7.1875 43.5C8.29167 42.8333 12.125 42 17 43.5C22.2 45.1 24.5 48.5 25 50C25.5 48.5 28.5 45 33 43.5C36.6125 42.2958 41 42.8333 43 43.5L46 37C43.3333 35.8333 38 31.7 38 24.5C38 17.3 43.3333 13.5 46 12.5L41.5 4.5C40.8333 5.66667 38.375 7.5 35 6C32 4.66667 31.5 1.33333 32 0Z" fill="black" fill-opacity="0.6"/>
<path fill-rule="evenodd" clip-rule="evenodd" d="M24.5039 0.0620175C24.5843 0.705766 24.6841 1.56203 24.789 2.54648L24.7764 2.55277C23.9373 2.97231 22.8869 3.14427 21.8188 3.16117C21.7117 1.93796 21.6017 0.858512 21.5033 0H25L24.5039 0.0620175ZM25.5039 0C25.5758 0.578937 25.6626 1.32245 25.7546 2.17282C26.6642 1.90599 27.6552 1.82215 28.5942 1.8396C28.5627 1.18261 28.5312 0.574746 28.5008 0.0277351L29 0H25.5039ZM29.5008 0C29.5324 0.570977 29.5652 1.20716 29.598 1.89551C30.5021 1.97816 31.3364 2.13904 31.9779 2.31206C31.7598 1.39167 31.7994 0.534896 32 0H29.5008ZM32.3524 3.39372L32.3244 3.46816C31.7904 3.26791 30.7938 3.02128 29.6444 2.9046C29.6873 3.8751 29.7293 4.92584 29.7675 6.02676C30.971 5.96963 32.1368 5.89205 33.1864 5.81288C33.1488 5.34658 33.1073 4.91622 33.0628 4.53167C32.7688 4.17166 32.5344 3.78591 32.3524 3.39372ZM34.1672 5.53976C34.1727 5.60407 34.178 5.66908 34.1833 5.73476C34.2709 5.72766 34.3574 5.72059 34.4426 5.71358C34.3478 5.65776 34.256 5.59976 34.1672 5.53976ZM37.4982 6.56475C37.4954 7.02265 37.4894 7.54105 37.4793 8.10843C38.3886 8.10444 39.2621 8.11267 40.0843 8.13118C39.9753 7.39803 39.8344 6.70477 39.6573 6.08486C39.0508 6.3717 38.3238 6.56508 37.4982 6.56475ZM40.5404 5.54701C40.784 6.33032 40.9666 7.22238 41.0989 8.16004C42.0384 8.19255 42.8929 8.2389 43.635 8.29564L41.5 4.5C41.3137 4.82604 40.9875 5.20414 40.5404 5.54701ZM44.2278 9.34936C43.4044 9.27122 42.3829 9.20728 41.2205 9.1648C41.3199 10.1384 41.3718 11.1359 41.3874 12.0918C41.3887 12.1712 41.3898 12.2503 41.3906 12.3292C43.1046 12.2404 44.6092 12.1441 45.7512 12.0577L44.2278 9.34936ZM44.6516 13.1384C43.7009 13.2023 42.5955 13.2683 41.3877 13.3307C41.373 14.2626 41.3248 15.1367 41.2522 15.8848C42.3572 14.6494 43.5823 13.7408 44.6516 13.1384ZM39.9791 17.5603C39.2088 17.598 38.2153 17.6348 37.0499 17.6637C36.9635 18.8182 36.8622 19.9668 36.7437 21.0715C37.3513 21.1602 37.902 21.2551 38.3659 21.3477C38.7137 19.9057 39.286 18.6458 39.9791 17.5603ZM38.1696 22.3282C37.7331 22.2412 37.2107 22.1508 36.6309 22.0657C36.5096 23.076 36.3727 24.0374 36.2184 24.9183C36.8552 24.9949 37.459 25.0926 38.0178 25.2158C38.006 24.9806 38 24.7421 38 24.5C38 23.7383 38.0597 23.0146 38.1696 22.3282ZM38.11 26.2638C37.4862 26.1092 36.7866 25.9912 36.0314 25.9028C36.0173 25.9708 36.0032 26.0381 35.9889 26.1048C35.785 27.0563 35.6567 28.1051 35.5886 29.2061C36.8129 29.1604 37.9104 29.0953 38.7705 29.0431C38.4648 28.1842 38.2359 27.2578 38.11 26.2638ZM39.9323 31.4866C39.9415 31.8381 39.9563 32.2051 39.9763 32.5837C40.2368 32.6082 40.4882 32.6351 40.7297 32.6646C40.4508 32.2941 40.1834 31.9015 39.9323 31.4866ZM41.7021 33.8256C41.2291 33.7334 40.6712 33.6574 40.0394 33.5945C40.1074 34.5486 40.2016 35.5514 40.3124 36.5504C40.7047 36.5549 41.0908 36.559 41.4672 36.5625C42.8877 36.5758 44.1615 36.5803 45.1283 36.5611C44.0942 35.9775 42.8551 35.0669 41.7021 33.8256ZM45.7488 37.5442C44.6997 37.5826 43.1619 37.5785 41.4578 37.5625C41.1212 37.5593 40.7775 37.5557 40.4291 37.5518C40.5536 38.5726 40.6913 39.5604 40.8304 40.4551C42.2209 40.4812 43.436 40.4945 44.3853 40.4986L45.7488 37.5442ZM43.9249 41.496C43.0957 41.4904 42.1029 41.4784 40.9935 41.4583C41.0988 42.076 41.2022 42.6266 41.2989 43.0836C41.9649 43.203 42.5444 43.3481 43 43.5L43.9249 41.496ZM40.2461 42.927C40.1585 42.4865 40.0675 41.9848 39.976 41.4382C38.9025 41.4152 37.7433 41.385 36.5341 41.3461C36.6394 41.8935 36.7444 42.3864 36.8443 42.8116C38.0428 42.7471 39.2105 42.8028 40.2461 42.927ZM35.837 42.8947C35.7305 42.4308 35.6197 41.8984 35.5097 41.3115C34.6472 41.2809 33.7651 41.2459 32.8759 41.206C32.9081 42.0364 32.942 42.8104 32.976 43.508C32.984 43.5053 32.992 43.5027 33 43.5C33.9132 43.1956 34.8759 43.0025 35.837 42.8947ZM31.9931 43.8779C31.9526 43.0733 31.9117 42.1557 31.8733 41.159C31.0121 41.1169 30.1484 41.0701 29.2931 41.0182C29.33 42.0413 29.368 43.0111 29.4027 43.8971L29.4264 44.5037C30.1229 44.427 30.7662 44.3198 31.3256 44.1765C31.5435 44.0726 31.7661 43.9729 31.9931 43.8779ZM28.4798 45.9296C28.4758 45.8192 28.4716 45.7063 28.4673 45.5909C27.3913 45.6624 26.2564 45.6758 25.1532 45.6515C25.2399 46.9604 25.3249 48.1704 25.4005 49.187C25.9678 48.2642 27.0261 47.0508 28.4798 45.9296ZM24.3635 48.7203C24.2963 47.7968 24.2232 46.7435 24.1489 45.619C23.0315 45.5717 21.9579 45.4894 21.0239 45.3908C22.6487 46.4823 23.7256 47.7143 24.3635 48.7203ZM18.6038 44.0848L18.6213 44.0149C18.9287 44.0918 19.392 44.1751 19.9686 44.2555C19.9568 43.0904 19.9581 41.7515 19.9723 40.3074C19.1243 40.2909 18.2845 40.3049 17.4616 40.3435C17.287 41.5882 17.1287 42.6771 17.0053 43.5016C17.5722 43.6763 18.1045 43.8722 18.6038 44.0848ZM16.0349 43.2292C16.1484 42.468 16.289 41.5003 16.4433 40.404C15.5003 40.4717 14.5851 40.5695 13.7114 40.6881L13.6697 41.243C13.6291 41.7828 13.5907 42.2944 13.5551 42.7723C14.3357 42.8617 15.1658 43.0089 16.0349 43.2292ZM12.5587 42.6865C12.5942 42.2098 12.6325 41.7002 12.6729 41.163L12.6973 40.8375C11.6265 41.0079 10.632 41.206 9.74205 41.4122C9.79738 41.9143 9.85287 42.3687 9.90334 42.7564C10.6728 42.6659 11.5665 42.6299 12.5587 42.6865ZM8.91538 42.9136C8.8676 42.5479 8.81525 42.1224 8.76264 41.6529C7.89743 41.8782 7.1656 42.1042 6.60232 42.3067L7.1875 43.5C7.52481 43.2963 8.1168 43.0771 8.91538 42.9136ZM6.15951 41.4037C6.79501 41.1704 7.6438 40.907 8.65713 40.6476C8.56773 39.7333 8.48642 38.7167 8.43634 37.6828C7.05188 37.956 5.71704 38.2122 4.66996 38.3662L6.15951 41.4037ZM4.2068 37.4217C5.28021 37.2789 6.78433 36.9899 8.39817 36.671C8.37527 35.8022 8.37949 34.9367 8.42516 34.1259C8.01049 34.2247 7.65557 34.3197 7.3707 34.4067C6.14866 35.6023 4.91675 36.4843 4 37L4.2068 37.4217ZM9.93055 31.2668C9.76206 31.6852 9.63579 32.2268 9.54746 32.8615C10.6244 32.6501 11.9044 32.4431 13.3034 32.2774C13.3632 31.3364 13.42 30.3908 13.472 29.4548C12.4088 29.6147 11.4433 29.8035 10.6457 30.0051C10.4259 30.442 10.1859 30.8628 9.93055 31.2668ZM11.1582 28.8584C11.8765 28.7022 12.6773 28.5593 13.5268 28.4358C13.5663 27.6766 13.6019 26.9277 13.6326 26.1971C12.9285 26.244 12.3197 26.2985 11.8489 26.3594C11.706 27.2344 11.4677 28.0687 11.1582 28.8584ZM11.9695 25.3377C12.4571 25.2815 13.0367 25.2333 13.6721 25.1923C13.7112 24.12 13.738 23.0973 13.7488 22.1506C13.2662 22.1284 12.8056 22.1066 12.3739 22.0862L12.3729 22.0861C12.1551 22.0758 11.9446 22.0659 11.7424 22.0564C11.9082 22.8318 12 23.6469 12 24.5C12 24.7828 11.9896 25.062 11.9695 25.3377ZM11.4779 21.043C11.7773 21.0568 12.0967 21.0719 12.4331 21.0878C12.8494 21.1075 13.2916 21.1284 13.754 21.1497C13.7518 19.7053 13.7035 18.5094 13.5983 17.6615C12.4842 17.7785 11.597 17.9221 10.9426 18.065C10.6451 18.13 10.406 18.1928 10.2201 18.2494C10.7323 19.1018 11.1666 20.0346 11.4779 21.043ZM8.79138 16.2744C8.7377 15.6017 8.70018 14.8522 8.68381 14.0682C7.97481 14.138 7.32302 14.2082 6.74428 14.2761C7.43572 14.8414 8.13655 15.5094 8.79138 16.2744ZM5.58445 13.4128C6.4015 13.3041 7.45708 13.1834 8.67473 13.0644C8.67627 12.5179 8.68851 11.9638 8.71299 11.4152C8.73427 10.9385 8.76488 10.4636 8.80609 9.99951C7.47398 9.8531 6.33269 9.69947 5.46317 9.57366L4 12.5C4.47446 12.7233 5.01435 13.0288 5.58445 13.4128ZM5.93457 8.63086C6.74901 8.74588 7.75993 8.87832 8.91358 9.00514C8.96777 8.58575 9.03224 8.18181 9.10805 7.80085C9.27077 6.98317 9.49398 6.22573 9.80871 5.64708C9.03862 5.28116 8.40618 4.84815 8 4.5L5.93457 8.63086ZM10.7426 6.02726C10.4849 6.45639 10.2618 7.12697 10.0888 7.99603C10.0192 8.34575 9.95933 8.71898 9.90846 9.10918C10.915 9.20903 12.0072 9.30081 13.1555 9.37188C13.2465 8.12299 13.3861 7.08139 13.5081 6.41056L13.513 6.38357C12.5451 6.48375 11.5932 6.31631 10.7426 6.02726ZM15.2953 5.8619C15.6992 5.8341 16.1696 5.81078 16.7028 5.79605C16.6739 5.47838 16.646 5.17128 16.6194 4.87603C16.2526 5.26015 15.8135 5.5985 15.2953 5.8619ZM17.9108 2.61326C18.2082 1.61623 18.2143 0.642825 18 0H21L20.5033 0.0573121C20.6 0.895511 20.7076 1.9455 20.8125 3.13402C19.6305 3.05438 18.5606 2.82232 17.9108 2.61326ZM17.5114 3.61142C17.5226 3.58951 17.5337 3.56757 17.5446 3.54559C18.2957 3.79438 19.5058 4.05494 20.819 4.13653L20.8979 4.14121C20.9429 4.6946 20.9867 5.27088 21.0282 5.86382C19.7778 5.79726 18.6655 5.77473 17.7056 5.77984C17.6328 4.9833 17.567 4.25358 17.5114 3.61142ZM21.9028 4.1598C22.9229 4.13786 23.9758 3.98351 24.8979 3.59659C24.9777 4.38943 25.0578 5.23765 25.1323 6.10618C24.4049 6.09005 23.7017 6.05674 23.0415 6.00173C22.6979 5.97309 22.3623 5.94767 22.0349 5.92521C21.993 5.31738 21.9485 4.72674 21.9028 4.1598ZM22.9585 6.99827C23.67 7.05757 24.4297 7.09225 25.2149 7.10776C25.2632 7.71938 25.3078 8.33434 25.3466 8.94084C25.2044 8.96213 25.0628 8.98389 24.922 9.00612C24.041 9.14522 23.1397 9.25171 22.2294 9.33051C22.1932 8.51817 22.1496 7.71449 22.101 6.93223C22.3807 6.95199 22.6666 6.97395 22.9585 6.99827ZM26.2187 7.11755C26.2627 7.67902 26.3035 8.24317 26.3396 8.8011C27.1602 8.69269 27.9984 8.59882 28.8441 8.51825C28.8309 8.02898 28.8166 7.54477 28.8015 7.06791C27.9408 7.09918 27.0708 7.11789 26.2187 7.11755ZM25.078 9.99388C25.1868 9.9767 25.296 9.95981 25.4057 9.9432C25.4546 10.854 25.4874 11.7293 25.497 12.5265C25.3392 12.5185 25.1833 12.5099 25.0294 12.5009C24.1701 12.4503 23.2627 12.4204 22.3261 12.4076C22.3144 11.718 22.2952 11.023 22.27 10.3306C23.2185 10.2495 24.1586 10.139 25.078 9.99388ZM26.3995 9.80189C26.4528 10.7786 26.4884 11.7183 26.4976 12.5705C27.275 12.5993 28.0888 12.6181 28.9259 12.6283L28.925 12.5562C28.9125 11.5425 28.8935 10.5242 28.8696 9.52026C28.0352 9.60054 27.2085 9.694 26.3995 9.80189ZM24.9706 13.4991C25.1424 13.5092 25.3165 13.5187 25.493 13.5276C25.4694 14.447 25.3881 15.4843 25.2706 16.5973C24.5278 16.5703 23.7779 16.5383 23.025 16.5006C22.7779 16.4883 22.5339 16.4771 22.2931 16.4672C22.3309 15.4877 22.344 14.4585 22.3377 13.4078C23.2504 13.4206 24.1341 13.4499 24.9706 13.4991ZM26.4921 13.5709C26.4676 14.4959 26.3874 15.5302 26.2724 16.6308C27.1762 16.6585 28.0662 16.679 28.9347 16.6934C28.944 15.6997 28.9437 14.6712 28.9358 13.6284C28.0941 13.6183 27.2753 13.5997 26.4921 13.5709ZM22.975 17.4994C23.7069 17.536 24.436 17.5673 25.1585 17.5938C25.016 18.7946 24.8411 20.0639 24.6582 21.3541C24.5931 21.3566 24.5273 21.359 24.461 21.3612C23.646 21.3891 22.7574 21.3986 21.8309 21.3948C21.8834 20.9124 21.9381 20.469 21.995 20.0707C22.108 19.2798 22.1895 18.4024 22.2447 17.4661C22.4849 17.476 22.7284 17.487 22.975 17.4994ZM26.1614 17.6278C26.0223 18.8107 25.8524 20.0516 25.6757 21.3016C26.5961 21.2404 27.3512 21.1468 27.8787 21.0149C28.1758 20.9407 28.4926 20.8797 28.8247 20.8306C28.8722 19.8609 28.9038 18.8047 28.922 17.6933C28.0218 17.6784 27.0988 17.657 26.1614 17.6278ZM24.4952 22.3606L24.5149 22.36L24.505 22.4293L24.5001 22.4636L24.5 22.4641C24.3844 23.2739 24.2683 24.0864 24.1583 24.8886C23.1987 24.9305 22.3095 24.9672 21.5235 24.9862C21.5873 24.0587 21.6563 23.1877 21.7304 22.3943C22.7016 22.3993 23.6367 22.39 24.4952 22.3606ZM25.495 22.5707C25.3859 23.3343 25.2772 24.0953 25.174 24.8439C26.2242 24.7978 27.3351 24.7509 28.463 24.718C28.4768 24.6179 28.4911 24.5198 28.5058 24.424C28.6155 23.7113 28.7011 22.8403 28.7663 21.852C28.5406 21.89 28.3249 21.9342 28.1213 21.9851C27.4725 22.1473 26.5739 22.2503 25.5318 22.3128L25.4999 22.5364L25.495 22.5707ZM21.4579 25.988C22.2298 25.9704 23.097 25.9356 24.023 25.8954C23.9184 26.6934 23.8227 27.4752 23.7425 28.2272C22.9985 28.1108 22.1889 28.0365 21.3435 27.9979C21.3792 27.3099 21.4174 26.6378 21.4579 25.988ZM25.0377 25.8509C24.9205 26.7358 24.8144 27.5966 24.728 28.4161C24.8659 28.4481 25.0005 28.4819 25.1316 28.5176C26.0301 28.7627 27.058 28.9342 28.1497 29.0504C28.1871 27.8374 28.25 26.7095 28.3463 25.7219C27.2126 25.7562 26.0957 25.8043 25.0377 25.8509ZM21.2938 28.9966C22.1319 29.0347 22.9257 29.1087 23.6444 29.224C23.5541 30.2313 23.5 31.1689 23.5 32L23.5002 32.1086C22.83 32.079 22.1725 32.0437 21.5333 32.0011C21.4119 31.993 21.2903 31.9856 21.1685 31.9788C21.2055 30.9717 21.2473 29.9719 21.2938 28.9966ZM24.5 32L24.5003 32.1484C25.681 32.1905 26.8918 32.2177 28.1044 32.2382C28.1047 31.4941 28.111 30.7624 28.1247 30.0532C26.9588 29.9322 25.8479 29.7495 24.8684 29.4824C24.7907 29.4612 24.7114 29.4407 24.6307 29.4209C24.5485 30.3598 24.5 31.2293 24.5 32ZM21.4667 32.9989C22.1313 33.0432 22.8155 33.0797 23.5129 33.1101C23.5288 33.8775 23.5586 34.771 23.5986 35.7447C22.7379 35.6728 21.8854 35.606 21.0577 35.5507C21.0794 34.6993 21.1047 33.8383 21.1335 32.9784C21.2447 32.9847 21.3558 32.9915 21.4667 32.9989ZM24.5139 33.1494C24.5306 33.9293 24.5616 34.839 24.603 35.8303C25.0965 35.8731 25.5912 35.9168 26.0842 35.9604C26.778 36.0217 27.4686 36.0827 28.1487 36.1404C28.1448 35.9552 28.1411 35.7698 28.1376 35.5844C28.1229 34.8012 28.1123 34.0155 28.1074 33.2384C26.9011 33.2181 25.6934 33.1911 24.5139 33.1494ZM21.0337 36.5515C21.8767 36.6082 22.7516 36.6771 23.6424 36.7519C23.6835 37.6549 23.7316 38.6084 23.7842 39.5808C23.5375 39.5555 23.2943 39.5296 23.0552 39.5031C22.3641 39.4263 21.6721 39.3731 20.9835 39.3405C20.9956 38.4388 21.0124 37.504 21.0337 36.5515ZM24.6473 36.838C24.6891 37.7455 24.7378 38.7031 24.791 39.6785C25.8979 39.7804 27.063 39.8706 28.2552 39.9501C28.2246 39.0404 28.196 38.0991 28.172 37.1461C27.4502 37.0851 26.7185 37.0204 25.9866 36.9557L25.9854 36.9556L25.9777 36.9549C25.5336 36.9157 25.0894 36.8764 24.6473 36.838ZM22.9448 40.4969C23.2376 40.5295 23.5362 40.561 23.8401 40.5916C23.9166 41.9452 23.9999 43.314 24.0835 44.6152C22.9521 44.5649 21.8807 44.4789 20.9699 44.3792C20.9566 43.1954 20.9575 41.8242 20.9719 40.3411C21.6279 40.3728 22.2868 40.4238 22.9448 40.4969ZM24.8472 40.6878C24.923 42.0224 25.0053 43.3697 25.0878 44.6497C26.2214 44.6767 27.3656 44.6628 28.429 44.5912L28.404 43.9499C28.368 43.032 28.3284 42.0218 28.2902 40.9546C27.1076 40.8764 25.95 40.7878 24.8472 40.6878ZM31.8366 40.156C30.9752 40.1136 30.112 40.0665 29.258 40.0142C29.2274 39.1113 29.1986 38.1764 29.1744 37.2287C30.0631 37.2997 30.9293 37.3624 31.7543 37.4095C31.7781 38.3595 31.8061 39.2816 31.8366 40.156ZM31.7309 36.4067C30.908 36.3587 30.0421 36.2953 29.1507 36.2235C29.146 36.0045 29.1415 35.7851 29.1374 35.5656C29.1229 34.791 29.1125 34.017 29.1076 33.2539C29.7423 33.2629 30.3743 33.2708 30.9994 33.2785L31.6826 33.287C31.6921 34.3348 31.7088 35.3825 31.7309 36.4067ZM30.9959 32.2783C30.3697 32.2706 29.7379 32.2627 29.1045 32.2537C29.1047 31.5327 29.1105 30.8256 29.1232 30.1414C29.9669 30.2038 30.8274 30.2384 31.6775 30.2534C31.6764 30.422 31.6756 30.5911 31.675 30.7608C31.6732 31.2658 31.6736 31.7754 31.6759 32.2868L30.9959 32.2783ZM31.687 29.2534C30.834 29.2382 29.9786 29.203 29.1474 29.1404C29.1855 27.8698 29.2514 26.7004 29.3538 25.6955C29.4888 25.6925 29.6239 25.6898 29.7589 25.6874C30.4405 25.6752 31.1185 25.6704 31.7846 25.6757C31.7342 26.7922 31.7029 28 31.687 29.2534ZM29.7411 24.6876C29.6529 24.6892 29.5648 24.6908 29.4767 24.6926C29.4824 24.6534 29.4883 24.6145 29.4942 24.576C29.6154 23.788 29.7078 22.8211 29.7763 21.7271C30.5074 21.6647 31.3029 21.6492 32.1172 21.6684C32.0131 22.3921 31.9326 23.2341 31.8699 24.1519C31.8582 24.3234 31.8471 24.4981 31.8366 24.6758C31.1415 24.6699 30.4395 24.6751 29.7411 24.6876ZM32.2928 20.6726C31.4535 20.6485 30.6165 20.6589 29.8311 20.7195C29.8752 19.7791 29.9046 18.766 29.922 17.7073C30.9983 17.7197 32.0359 17.7231 33.0191 17.7195C32.8912 18.579 32.7291 19.2983 32.5318 19.8244C32.4435 20.0601 32.3641 20.3452 32.2928 20.6726ZM33.1462 16.719C32.1299 16.7233 31.0535 16.7203 29.9347 16.7074C29.944 15.7081 29.9437 14.6773 29.9359 13.6364C31.0548 13.641 32.2038 13.6319 33.3544 13.6124C33.3179 14.6679 33.254 15.6875 33.1574 16.6138L33.1462 16.719ZM33.3808 12.6118C32.2174 12.6318 31.0558 12.6411 29.9261 12.6364L29.925 12.5438C29.9121 11.5041 29.8924 10.4596 29.8678 9.43071C31.0341 9.33342 32.208 9.26064 33.3631 9.20903C33.3898 10.1698 33.3994 11.1719 33.3875 12.169C33.3858 12.3169 33.3835 12.4645 33.3808 12.6118ZM33.3288 8.20964C32.1763 8.26106 31.0056 8.33329 29.8421 8.42953C29.8292 7.9562 29.8153 7.48769 29.8007 7.02609C31.0204 6.96858 32.1993 6.8904 33.2571 6.81074C33.2848 7.25692 33.3089 7.72542 33.3288 8.20964ZM34.328 8.17003C34.3076 7.6731 34.2828 7.19171 34.2542 6.73271C34.8788 6.68211 35.4423 6.63351 35.9232 6.59203L35.9239 6.59197C36.1313 6.57408 36.3234 6.55751 36.4983 6.54269C36.4956 7.00921 36.4894 7.53829 36.479 8.11766C35.7769 8.12752 35.0577 8.1447 34.328 8.17003ZM34.3624 9.16939C35.0734 9.14473 35.774 9.12788 36.4581 9.11806C36.4333 10.1584 36.3963 11.3172 36.3443 12.5394C35.6959 12.5597 35.0397 12.5774 34.3813 12.5921C34.3838 12.4552 34.3858 12.3181 34.3875 12.181C34.3995 11.1685 34.3897 10.1489 34.3624 9.16939ZM34.3557 13.5929C35.0073 13.5785 35.6568 13.5611 36.2989 13.5413C36.2495 14.5664 36.1895 15.624 36.1174 16.6841C35.4999 16.6962 34.8428 16.7058 34.1525 16.7122C34.2533 15.7442 34.3189 14.6838 34.3557 13.5929ZM37.3017 13.5082C37.2527 14.535 37.193 15.5961 37.1212 16.6616C38.3613 16.6302 39.3984 16.5898 40.1678 16.5494C40.2819 15.7384 40.3648 14.6265 40.3868 13.3804C39.4038 13.4272 38.3671 13.4707 37.3017 13.5082ZM37.3467 12.5059C38.3982 12.4686 39.4211 12.4254 40.391 12.379C40.3902 12.2892 40.389 12.1988 40.3876 12.1082C40.3715 11.1226 40.316 10.1081 40.2118 9.13432C39.3485 9.11346 38.4243 9.10404 37.4586 9.10853C37.4342 10.1405 37.3979 11.2908 37.3467 12.5059ZM34.0305 17.7134C34.738 17.7073 35.4119 17.6977 36.0456 17.6857C35.9622 18.7893 35.8651 19.8852 35.7525 20.9394C35.1886 20.8712 34.5944 20.8109 33.9886 20.764C33.7637 20.7466 33.5364 20.731 33.3078 20.7175C33.3582 20.5076 33.4116 20.3263 33.4682 20.1756C33.7107 19.5287 33.8938 18.6784 34.0305 17.7134ZM33.9114 21.761C34.5068 21.8071 35.0892 21.8663 35.64 21.9331C35.5171 22.9587 35.378 23.9315 35.2209 24.8172C34.4557 24.7529 33.6552 24.7136 32.8373 24.6926C32.8469 24.5325 32.857 24.3749 32.8676 24.22C32.9339 23.2479 33.0188 22.4008 33.122 21.7085C33.3856 21.7231 33.6493 21.7407 33.9114 21.761ZM32.7849 25.6919C33.5614 25.7114 34.3147 25.7474 35.0303 25.8049L35.0111 25.8952C34.7899 26.9275 34.6542 28.0589 34.5849 29.2378C34.018 29.2524 33.4321 29.2616 32.8367 29.2625L32.687 29.2626C32.703 28.0072 32.7344 26.8017 32.7849 25.6919ZM32.8383 30.2625C33.4179 30.2616 33.9887 30.253 34.5419 30.2392C34.5226 30.9289 34.5234 31.6295 34.5408 32.3312C34.2008 32.3243 33.8563 32.3182 33.5081 32.3126C33.2329 32.3081 32.9554 32.304 32.6759 32.3001C32.6736 31.7853 32.6732 31.2724 32.675 30.7642C32.6756 30.5964 32.6764 30.4292 32.6775 30.2625L32.8383 30.2625ZM33.4919 33.3124C33.8585 33.3183 34.2203 33.3248 34.5763 33.3321C34.6132 34.1334 34.6694 34.9301 34.7395 35.7074C34.7636 35.9738 34.7893 36.2383 34.8164 36.5003L34.5 36.5C33.9486 36.5 33.3564 36.4847 32.7322 36.4578C32.7097 35.4218 32.6925 34.361 32.6828 33.3003C32.9548 33.3041 33.2247 33.3081 33.4919 33.3124ZM35.7355 35.6176C35.7624 35.916 35.7914 36.2119 35.8223 36.5043C36.9585 36.5111 38.1463 36.5251 39.305 36.5387C39.1938 35.5232 39.0985 34.4939 39.0309 33.5094C38.943 33.5031 38.8541 33.497 38.7641 33.4911C37.7976 33.4277 36.7246 33.3856 35.5786 33.3554C35.6146 34.1147 35.6683 34.8729 35.7355 35.6176ZM34.5 37.5C34.6415 37.5 34.7844 37.5002 34.9285 37.5005C35.0483 38.4964 35.1865 39.4425 35.3311 40.3044C34.5133 40.2748 33.679 40.2412 32.8388 40.2033C32.8082 39.3307 32.78 38.4094 32.7558 37.4596C33.37 37.4854 33.9544 37.5 34.5 37.5ZM35.9364 37.505C36.0604 38.5191 36.2033 39.4767 36.3513 40.3396C37.5657 40.3795 38.7324 40.4106 39.8153 40.4344C39.6771 39.5319 39.5419 38.5479 39.4203 37.5401L39.3016 37.5388L39.3005 37.5387C38.1801 37.5255 37.0355 37.5121 35.9364 37.505ZM38.8296 32.4933L38.9708 32.5027C38.9261 31.6052 38.9098 30.766 38.9317 30.0352C38.0392 30.0895 36.8635 30.1603 35.5432 30.2084C35.5223 30.9122 35.5231 31.6311 35.5417 32.3541C36.72 32.3847 37.8289 32.4276 38.8296 32.4933ZM20.0349 36.4894C20.0132 37.4519 19.9962 38.3965 19.984 39.3075C19.1801 39.2921 18.3838 39.3033 17.6017 39.3363C17.7294 38.41 17.8627 37.4208 17.9953 36.4065C18.6388 36.4202 19.3222 36.4492 20.0349 36.4894ZM16.9878 36.3986C16.8517 37.4378 16.7149 38.4493 16.5845 39.3918C15.6207 39.4562 14.684 39.5517 13.7877 39.669C13.8591 38.7122 13.9343 37.6941 14.0098 36.6383C14.3881 36.5801 14.7392 36.5321 15.0552 36.4969C15.6216 36.434 16.2719 36.4036 16.9878 36.3986ZM12.9952 36.806C12.9198 37.8554 12.845 38.8656 12.7741 39.8133C11.6405 39.9877 10.5853 40.1936 9.63881 40.41C9.55196 39.5027 9.47423 38.5003 9.42823 37.4864C10.6624 37.2417 11.8989 36.9977 12.9952 36.806ZM13.0682 35.7786C11.9378 35.9717 10.6567 36.2235 9.39368 36.4738C9.37394 35.5807 9.38488 34.7048 9.44126 33.9024C10.5028 33.6856 11.8017 33.4677 13.2378 33.2925C13.1825 34.1325 13.1255 34.9646 13.0682 35.7786ZM14.0821 35.6162C14.138 34.8172 14.1935 34.0016 14.2473 33.1791C15.2631 33.0749 16.3317 32.9951 17.4217 32.9537C17.3242 33.7647 17.2217 34.5858 17.1175 35.3983C16.315 35.4005 15.5824 35.4322 14.9448 35.5031C14.6788 35.5326 14.3897 35.5709 14.0821 35.6162ZM18.1242 35.4094C18.2298 34.5836 18.3336 33.7495 18.4321 32.9266C18.9978 32.9181 19.5666 32.9207 20.1343 32.9365C20.1057 33.7899 20.0806 34.6442 20.059 35.4891C19.3892 35.4516 18.7412 35.4238 18.1242 35.4094ZM18.55 31.925C19.0885 31.9185 19.6294 31.9221 20.1694 31.9372C20.2062 30.935 20.2478 29.9397 20.2941 28.968C19.8263 28.962 19.349 28.9658 18.8672 28.9785C18.7766 29.9032 18.6686 30.8987 18.55 31.925ZM20.4554 26C20.4159 26.6376 20.3787 27.2957 20.3438 27.9685C19.8881 27.9622 19.4257 27.9649 18.9609 27.9758C18.974 27.8285 18.9864 27.6837 18.9983 27.5415C19.0353 27.0969 19.0573 26.5817 19.0662 26.0084C19.5386 26.003 20.0044 26.0002 20.4554 26ZM18.0017 27.4585C17.9867 27.6386 17.9707 27.8231 17.9538 28.0115C17.4235 28.0366 16.8939 28.0713 16.3716 28.1142C15.7501 28.1652 15.1344 28.2282 14.5351 28.3012C14.5726 27.5685 14.6066 26.8453 14.6359 26.1386C14.7308 26.1338 14.8267 26.129 14.9237 26.1244C15.9119 26.0776 16.9909 26.044 18.066 26.0236C18.0572 26.5615 18.0363 27.0434 18.0017 27.4585ZM14.3124 32.1675C14.3724 31.2158 14.4294 30.2603 14.4812 29.3156C15.1182 29.2354 15.7799 29.1661 16.4534 29.1108C16.9201 29.0725 17.3899 29.0411 17.8586 29.0174C17.7673 29.9391 17.659 30.9293 17.5406 31.9488C16.4344 31.9871 15.3481 32.0645 14.3124 32.1675ZM14.8763 25.1256L14.6748 25.1354C14.7119 24.1026 14.7375 23.1146 14.7483 22.1955C15.7779 22.2406 16.8789 22.2848 17.9947 22.3201C18.037 23.2953 18.0635 24.2056 18.0697 25.0233C16.9784 25.0438 15.8817 25.0779 14.8763 25.1256ZM17.947 21.3181C16.8488 21.2829 15.7669 21.2393 14.7541 21.1948C14.7529 19.7471 14.7067 18.4961 14.5943 17.5695C15.5104 17.4959 16.5469 17.4411 17.7009 17.4158C17.7986 18.7664 17.8834 20.0835 17.947 21.3181ZM17.6267 16.4172C16.4394 16.4442 15.3723 16.502 14.4289 16.5797C14.2544 15.6174 14.1513 14.6203 14.0998 13.6385C15.1739 13.5729 16.2802 13.517 17.3904 13.4759C17.4588 14.2891 17.5256 15.1094 17.589 15.9262C17.6017 16.0901 17.6143 16.2538 17.6267 16.4172ZM17.3054 12.4784C16.2117 12.5193 15.1225 12.5743 14.0642 12.6388C14.0495 11.8721 14.063 11.126 14.0949 10.4257C15.0793 10.4744 16.0976 10.5064 17.1329 10.5144C17.1903 11.1574 17.2482 11.814 17.3054 12.4784ZM13.0654 12.7031C13.0486 11.8937 13.0626 11.1071 13.0964 10.3701C11.9294 10.298 10.8208 10.2048 9.80079 10.1036C9.76185 10.5451 9.73253 10.9998 9.712 11.4598C9.68953 11.9632 9.67769 12.4703 9.6751 12.9703C10.7258 12.8754 11.8694 12.7839 13.0654 12.7031ZM13.1019 13.7029C11.8933 13.7849 10.7391 13.8777 9.68211 13.9738C9.70642 15.2452 9.78762 16.4185 9.90072 17.3013C10.1385 17.2275 10.4171 17.1562 10.7293 17.0881C11.4146 16.9384 12.3178 16.7924 13.4298 16.6737C13.2572 15.6975 13.1542 14.6917 13.1019 13.7029ZM17.0429 9.5138C16.0596 9.50469 15.0918 9.47379 14.1541 9.42749C14.227 8.4326 14.3314 7.57457 14.4317 6.94428C14.9391 6.88332 15.7363 6.82149 16.7942 6.79395L16.8237 7.11497L16.8238 7.11612C16.8936 7.87651 16.9674 8.68036 17.0429 9.5138ZM17.8182 7.00902L17.7971 6.77944C18.7459 6.7761 19.8499 6.80025 21.095 6.8689C21.1471 7.69546 21.1936 8.54627 21.2318 9.40584C20.1705 9.47459 19.1029 9.50852 18.0471 9.51532C17.9682 8.64249 17.891 7.80161 17.8182 7.00902ZM18.1368 10.5144C19.1758 10.5063 20.2264 10.4723 21.2721 10.4051C21.2962 11.0709 21.3146 11.7384 21.3261 12.4004C20.3365 12.3993 19.3229 12.4155 18.3063 12.4451C18.2501 11.7925 18.1933 11.147 18.1368 10.5144ZM18.3911 13.443C19.3839 13.4145 20.3729 13.3991 21.3379 13.4003C21.3445 14.4435 21.3316 15.4637 21.2942 16.4321C20.3531 16.4049 19.4642 16.396 18.6285 16.4022C18.6145 16.2179 18.6003 16.0334 18.586 15.8488C18.5238 15.0476 18.4583 14.2422 18.3911 13.443ZM18.7025 17.4017C19.5005 17.3966 20.3485 17.4054 21.2454 17.4311C21.1917 18.3305 21.1132 19.1719 21.005 19.9293C20.9428 20.365 20.8832 20.8531 20.8262 21.3858C20.4085 21.3801 19.9859 21.3723 19.5614 21.3626C19.3578 21.358 19.1539 21.3529 18.9499 21.3475C18.8861 20.0938 18.8006 18.761 18.7025 17.4017ZM19.5386 22.3624C19.9366 22.3714 20.3337 22.3789 20.7272 22.3845C20.6531 23.1877 20.5842 24.0665 20.5204 25L20.5 25C20.0362 25 19.5563 25.0028 19.0693 25.0083C19.0632 24.1973 19.0375 23.3023 18.9969 22.3491C19.1776 22.3538 19.3583 22.3583 19.5386 22.3624ZM26.1369 6.11795C27.0028 6.11963 27.8898 6.1009 28.7684 6.06883C28.7288 4.92756 28.6852 3.84029 28.6406 2.84083C27.6748 2.81768 26.7008 2.91026 25.8614 3.1867C25.9549 4.09942 26.0498 5.09509 26.1369 6.11795Z" fill="#2FC4A7"/>
<path fill-rule="evenodd" clip-rule="evenodd" d="M24.5039 0.0620175C24.5843 0.705766 24.6841 1.56203 24.789 2.54648L24.7764 2.55277C23.9373 2.97231 22.8869 3.14427 21.8188 3.16117C21.7117 1.93796 21.6017 0.858512 21.5033 0H25L24.5039 0.0620175ZM25.5039 0C25.5758 0.578937 25.6626 1.32245 25.7546 2.17282C26.6642 1.90599 27.6552 1.82215 28.5942 1.8396C28.5627 1.18261 28.5312 0.574746 28.5008 0.0277351L29 0H25.5039ZM29.5008 0C29.5324 0.570977 29.5652 1.20716 29.598 1.89551C30.5021 1.97816 31.3364 2.13904 31.9779 2.31206C31.7598 1.39167 31.7994 0.534896 32 0H29.5008ZM32.3524 3.39372L32.3244 3.46816C31.7904 3.26791 30.7938 3.02128 29.6444 2.9046C29.6873 3.8751 29.7293 4.92584 29.7675 6.02676C30.971 5.96963 32.1368 5.89205 33.1864 5.81288C33.1488 5.34658 33.1073 4.91622 33.0628 4.53167C32.7688 4.17166 32.5344 3.78591 32.3524 3.39372ZM34.1672 5.53976C34.1727 5.60407 34.178 5.66908 34.1833 5.73476C34.2709 5.72766 34.3574 5.72059 34.4426 5.71358C34.3478 5.65776 34.256 5.59976 34.1672 5.53976ZM37.4982 6.56475C37.4954 7.02265 37.4894 7.54105 37.4793 8.10843C38.3886 8.10444 39.2621 8.11267 40.0843 8.13118C39.9753 7.39803 39.8344 6.70477 39.6573 6.08486C39.0508 6.3717 38.3238 6.56508 37.4982 6.56475ZM40.5404 5.54701C40.784 6.33032 40.9666 7.22238 41.0989 8.16004C42.0384 8.19255 42.8929 8.2389 43.635 8.29564L41.5 4.5C41.3137 4.82604 40.9875 5.20414 40.5404 5.54701ZM44.2278 9.34936C43.4044 9.27122 42.3829 9.20728 41.2205 9.1648C41.3199 10.1384 41.3718 11.1359 41.3874 12.0918C41.3887 12.1712 41.3898 12.2503 41.3906 12.3292C43.1046 12.2404 44.6092 12.1441 45.7512 12.0577L44.2278 9.34936ZM44.6516 13.1384C43.7009 13.2023 42.5955 13.2683 41.3877 13.3307C41.373 14.2626 41.3248 15.1367 41.2522 15.8848C42.3572 14.6494 43.5823 13.7408 44.6516 13.1384ZM39.9791 17.5603C39.2088 17.598 38.2153 17.6348 37.0499 17.6637C36.9635 18.8182 36.8622 19.9668 36.7437 21.0715C37.3513 21.1602 37.902 21.2551 38.3659 21.3477C38.7137 19.9057 39.286 18.6458 39.9791 17.5603ZM38.1696 22.3282C37.7331 22.2412 37.2107 22.1508 36.6309 22.0657C36.5096 23.076 36.3727 24.0374 36.2184 24.9183C36.8552 24.9949 37.459 25.0926 38.0178 25.2158C38.006 24.9806 38 24.7421 38 24.5C38 23.7383 38.0597 23.0146 38.1696 22.3282ZM38.11 26.2638C37.4862 26.1092 36.7866 25.9912 36.0314 25.9028C36.0173 25.9708 36.0032 26.0381 35.9889 26.1048C35.785 27.0563 35.6567 28.1051 35.5886 29.2061C36.8129 29.1604 37.9104 29.0953 38.7705 29.0431C38.4648 28.1842 38.2359 27.2578 38.11 26.2638ZM39.9323 31.4866C39.9415 31.8381 39.9563 32.2051 39.9763 32.5837C40.2368 32.6082 40.4882 32.6351 40.7297 32.6646C40.4508 32.2941 40.1834 31.9015 39.9323 31.4866ZM41.7021 33.8256C41.2291 33.7334 40.6712 33.6574 40.0394 33.5945C40.1074 34.5486 40.2016 35.5514 40.3124 36.5504C40.7047 36.5549 41.0908 36.559 41.4672 36.5625C42.8877 36.5758 44.1615 36.5803 45.1283 36.5611C44.0942 35.9775 42.8551 35.0669 41.7021 33.8256ZM45.7488 37.5442C44.6997 37.5826 43.1619 37.5785 41.4578 37.5625C41.1212 37.5593 40.7775 37.5557 40.4291 37.5518C40.5536 38.5726 40.6913 39.5604 40.8304 40.4551C42.2209 40.4812 43.436 40.4945 44.3853 40.4986L45.7488 37.5442ZM43.9249 41.496C43.0957 41.4904 42.1029 41.4784 40.9935 41.4583C41.0988 42.076 41.2022 42.6266 41.2989 43.0836C41.9649 43.203 42.5444 43.3481 43 43.5L43.9249 41.496ZM40.2461 42.927C40.1585 42.4865 40.0675 41.9848 39.976 41.4382C38.9025 41.4152 37.7433 41.385 36.5341 41.3461C36.6394 41.8935 36.7444 42.3864 36.8443 42.8116C38.0428 42.7471 39.2105 42.8028 40.2461 42.927ZM35.837 42.8947C35.7305 42.4308 35.6197 41.8984 35.5097 41.3115C34.6472 41.2809 33.7651 41.2459 32.8759 41.206C32.9081 42.0364 32.942 42.8104 32.976 43.508C32.984 43.5053 32.992 43.5027 33 43.5C33.9132 43.1956 34.8759 43.0025 35.837 42.8947ZM31.9931 43.8779C31.9526 43.0733 31.9117 42.1557 31.8733 41.159C31.0121 41.1169 30.1484 41.0701 29.2931 41.0182C29.33 42.0413 29.368 43.0111 29.4027 43.8971L29.4264 44.5037C30.1229 44.427 30.7662 44.3198 31.3256 44.1765C31.5435 44.0726 31.7661 43.9729 31.9931 43.8779ZM28.4798 45.9296C28.4758 45.8192 28.4716 45.7063 28.4673 45.5909C27.3913 45.6624 26.2564 45.6758 25.1532 45.6515C25.2399 46.9604 25.3249 48.1704 25.4005 49.187C25.9678 48.2642 27.0261 47.0508 28.4798 45.9296ZM24.3635 48.7203C24.2963 47.7968 24.2232 46.7435 24.1489 45.619C23.0315 45.5717 21.9579 45.4894 21.0239 45.3908C22.6487 46.4823 23.7256 47.7143 24.3635 48.7203ZM18.6038 44.0848L18.6213 44.0149C18.9287 44.0918 19.392 44.1751 19.9686 44.2555C19.9568 43.0904 19.9581 41.7515 19.9723 40.3074C19.1243 40.2909 18.2845 40.3049 17.4616 40.3435C17.287 41.5882 17.1287 42.6771 17.0053 43.5016C17.5722 43.6763 18.1045 43.8722 18.6038 44.0848ZM16.0349 43.2292C16.1484 42.468 16.289 41.5003 16.4433 40.404C15.5003 40.4717 14.5851 40.5695 13.7114 40.6881L13.6697 41.243C13.6291 41.7828 13.5907 42.2944 13.5551 42.7723C14.3357 42.8617 15.1658 43.0089 16.0349 43.2292ZM12.5587 42.6865C12.5942 42.2098 12.6325 41.7002 12.6729 41.163L12.6973 40.8375C11.6265 41.0079 10.632 41.206 9.74205 41.4122C9.79738 41.9143 9.85287 42.3687 9.90334 42.7564C10.6728 42.6659 11.5665 42.6299 12.5587 42.6865ZM8.91538 42.9136C8.8676 42.5479 8.81525 42.1224 8.76264 41.6529C7.89743 41.8782 7.1656 42.1042 6.60232 42.3067L7.1875 43.5C7.52481 43.2963 8.1168 43.0771 8.91538 42.9136ZM6.15951 41.4037C6.79501 41.1704 7.6438 40.907 8.65713 40.6476C8.56773 39.7333 8.48642 38.7167 8.43634 37.6828C7.05188 37.956 5.71704 38.2122 4.66996 38.3662L6.15951 41.4037ZM4.2068 37.4217C5.28021 37.2789 6.78433 36.9899 8.39817 36.671C8.37527 35.8022 8.37949 34.9367 8.42516 34.1259C8.01049 34.2247 7.65557 34.3197 7.3707 34.4067C6.14866 35.6023 4.91675 36.4843 4 37L4.2068 37.4217ZM9.93055 31.2668C9.76206 31.6852 9.63579 32.2268 9.54746 32.8615C10.6244 32.6501 11.9044 32.4431 13.3034 32.2774C13.3632 31.3364 13.42 30.3908 13.472 29.4548C12.4088 29.6147 11.4433 29.8035 10.6457 30.0051C10.4259 30.442 10.1859 30.8628 9.93055 31.2668ZM11.1582 28.8584C11.8765 28.7022 12.6773 28.5593 13.5268 28.4358C13.5663 27.6766 13.6019 26.9277 13.6326 26.1971C12.9285 26.244 12.3197 26.2985 11.8489 26.3594C11.706 27.2344 11.4677 28.0687 11.1582 28.8584ZM11.9695 25.3377C12.4571 25.2815 13.0367 25.2333 13.6721 25.1923C13.7112 24.12 13.738 23.0973 13.7488 22.1506C13.2662 22.1284 12.8056 22.1066 12.3739 22.0862L12.3729 22.0861C12.1551 22.0758 11.9446 22.0659 11.7424 22.0564C11.9082 22.8318 12 23.6469 12 24.5C12 24.7828 11.9896 25.062 11.9695 25.3377ZM11.4779 21.043C11.7773 21.0568 12.0967 21.0719 12.4331 21.0878C12.8494 21.1075 13.2916 21.1284 13.754 21.1497C13.7518 19.7053 13.7035 18.5094 13.5983 17.6615C12.4842 17.7785 11.597 17.9221 10.9426 18.065C10.6451 18.13 10.406 18.1928 10.2201 18.2494C10.7323 19.1018 11.1666 20.0346 11.4779 21.043ZM8.79138 16.2744C8.7377 15.6017 8.70018 14.8522 8.68381 14.0682C7.97481 14.138 7.32302 14.2082 6.74428 14.2761C7.43572 14.8414 8.13655 15.5094 8.79138 16.2744ZM5.58445 13.4128C6.4015 13.3041 7.45708 13.1834 8.67473 13.0644C8.67627 12.5179 8.68851 11.9638 8.71299 11.4152C8.73427 10.9385 8.76488 10.4636 8.80609 9.99951C7.47398 9.8531 6.33269 9.69947 5.46317 9.57366L4 12.5C4.47446 12.7233 5.01435 13.0288 5.58445 13.4128ZM5.93457 8.63086C6.74901 8.74588 7.75993 8.87832 8.91358 9.00514C8.96777 8.58575 9.03224 8.18181 9.10805 7.80085C9.27077 6.98317 9.49398 6.22573 9.80871 5.64708C9.03862 5.28116 8.40618 4.84815 8 4.5L5.93457 8.63086ZM10.7426 6.02726C10.4849 6.45639 10.2618 7.12697 10.0888 7.99603C10.0192 8.34575 9.95933 8.71898 9.90846 9.10918C10.915 9.20903 12.0072 9.30081 13.1555 9.37188C13.2465 8.12299 13.3861 7.08139 13.5081 6.41056L13.513 6.38357C12.5451 6.48375 11.5932 6.31631 10.7426 6.02726ZM15.2953 5.8619C15.6992 5.8341 16.1696 5.81078 16.7028 5.79605C16.6739 5.47838 16.646 5.17128 16.6194 4.87603C16.2526 5.26015 15.8135 5.5985 15.2953 5.8619ZM17.9108 2.61326C18.2082 1.61623 18.2143 0.642825 18 0H21L20.5033 0.0573121C20.6 0.895511 20.7076 1.9455 20.8125 3.13402C19.6305 3.05438 18.5606 2.82232 17.9108 2.61326ZM17.5114 3.61142C17.5226 3.58951 17.5337 3.56757 17.5446 3.54559C18.2957 3.79438 19.5058 4.05494 20.819 4.13653L20.8979 4.14121C20.9429 4.6946 20.9867 5.27088 21.0282 5.86382C19.7778 5.79726 18.6655 5.77473 17.7056 5.77984C17.6328 4.9833 17.567 4.25358 17.5114 3.61142ZM21.9028 4.1598C22.9229 4.13786 23.9758 3.98351 24.8979 3.59659C24.9777 4.38943 25.0578 5.23765 25.1323 6.10618C24.4049 6.09005 23.7017 6.05674 23.0415 6.00173C22.6979 5.97309 22.3623 5.94767 22.0349 5.92521C21.993 5.31738 21.9485 4.72674 21.9028 4.1598ZM22.9585 6.99827C23.67 7.05757 24.4297 7.09225 25.2149 7.10776C25.2632 7.71938 25.3078 8.33434 25.3466 8.94084C25.2044 8.96213 25.0628 8.98389 24.922 9.00612C24.041 9.14522 23.1397 9.25171 22.2294 9.33051C22.1932 8.51817 22.1496 7.71449 22.101 6.93223C22.3807 6.95199 22.6666 6.97395 22.9585 6.99827ZM26.2187 7.11755C26.2627 7.67902 26.3035 8.24317 26.3396 8.8011C27.1602 8.69269 27.9984 8.59882 28.8441 8.51825C28.8309 8.02898 28.8166 7.54477 28.8015 7.06791C27.9408 7.09918 27.0708 7.11789 26.2187 7.11755ZM25.078 9.99388C25.1868 9.9767 25.296 9.95981 25.4057 9.9432C25.4546 10.854 25.4874 11.7293 25.497 12.5265C25.3392 12.5185 25.1833 12.5099 25.0294 12.5009C24.1701 12.4503 23.2627 12.4204 22.3261 12.4076C22.3144 11.718 22.2952 11.023 22.27 10.3306C23.2185 10.2495 24.1586 10.139 25.078 9.99388ZM26.3995 9.80189C26.4528 10.7786 26.4884 11.7183 26.4976 12.5705C27.275 12.5993 28.0888 12.6181 28.9259 12.6283L28.925 12.5562C28.9125 11.5425 28.8935 10.5242 28.8696 9.52026C28.0352 9.60054 27.2085 9.694 26.3995 9.80189ZM24.9706 13.4991C25.1424 13.5092 25.3165 13.5187 25.493 13.5276C25.4694 14.447 25.3881 15.4843 25.2706 16.5973C24.5278 16.5703 23.7779 16.5383 23.025 16.5006C22.7779 16.4883 22.5339 16.4771 22.2931 16.4672C22.3309 15.4877 22.344 14.4585 22.3377 13.4078C23.2504 13.4206 24.1341 13.4499 24.9706 13.4991ZM26.4921 13.5709C26.4676 14.4959 26.3874 15.5302 26.2724 16.6308C27.1762 16.6585 28.0662 16.679 28.9347 16.6934C28.944 15.6997 28.9437 14.6712 28.9358 13.6284C28.0941 13.6183 27.2753 13.5997 26.4921 13.5709ZM22.975 17.4994C23.7069 17.536 24.436 17.5673 25.1585 17.5938C25.016 18.7946 24.8411 20.0639 24.6582 21.3541C24.5931 21.3566 24.5273 21.359 24.461 21.3612C23.646 21.3891 22.7574 21.3986 21.8309 21.3948C21.8834 20.9124 21.9381 20.469 21.995 20.0707C22.108 19.2798 22.1895 18.4024 22.2447 17.4661C22.4849 17.476 22.7284 17.487 22.975 17.4994ZM26.1614 17.6278C26.0223 18.8107 25.8524 20.0516 25.6757 21.3016C26.5961 21.2404 27.3512 21.1468 27.8787 21.0149C28.1758 20.9407 28.4926 20.8797 28.8247 20.8306C28.8722 19.8609 28.9038 18.8047 28.922 17.6933C28.0218 17.6784 27.0988 17.657 26.1614 17.6278ZM24.4952 22.3606L24.5149 22.36L24.505 22.4293L24.5001 22.4636L24.5 22.4641C24.3844 23.2739 24.2683 24.0864 24.1583 24.8886C23.1987 24.9305 22.3095 24.9672 21.5235 24.9862C21.5873 24.0587 21.6563 23.1877 21.7304 22.3943C22.7016 22.3993 23.6367 22.39 24.4952 22.3606ZM25.495 22.5707C25.3859 23.3343 25.2772 24.0953 25.174 24.8439C26.2242 24.7978 27.3351 24.7509 28.463 24.718C28.4768 24.6179 28.4911 24.5198 28.5058 24.424C28.6155 23.7113 28.7011 22.8403 28.7663 21.852C28.5406 21.89 28.3249 21.9342 28.1213 21.9851C27.4725 22.1473 26.5739 22.2503 25.5318 22.3128L25.4999 22.5364L25.495 22.5707ZM21.4579 25.988C22.2298 25.9704 23.097 25.9356 24.023 25.8954C23.9184 26.6934 23.8227 27.4752 23.7425 28.2272C22.9985 28.1108 22.1889 28.0365 21.3435 27.9979C21.3792 27.3099 21.4174 26.6378 21.4579 25.988ZM25.0377 25.8509C24.9205 26.7358 24.8144 27.5966 24.728 28.4161C24.8659 28.4481 25.0005 28.4819 25.1316 28.5176C26.0301 28.7627 27.058 28.9342 28.1497 29.0504C28.1871 27.8374 28.25 26.7095 28.3463 25.7219C27.2126 25.7562 26.0957 25.8043 25.0377 25.8509ZM21.2938 28.9966C22.1319 29.0347 22.9257 29.1087 23.6444 29.224C23.5541 30.2313 23.5 31.1689 23.5 32L23.5002 32.1086C22.83 32.079 22.1725 32.0437 21.5333 32.0011C21.4119 31.993 21.2903 31.9856 21.1685 31.9788C21.2055 30.9717 21.2473 29.9719 21.2938 28.9966ZM24.5 32L24.5003 32.1484C25.681 32.1905 26.8918 32.2177 28.1044 32.2382C28.1047 31.4941 28.111 30.7624 28.1247 30.0532C26.9588 29.9322 25.8479 29.7495 24.8684 29.4824C24.7907 29.4612 24.7114 29.4407 24.6307 29.4209C24.5485 30.3598 24.5 31.2293 24.5 32ZM21.4667 32.9989C22.1313 33.0432 22.8155 33.0797 23.5129 33.1101C23.5288 33.8775 23.5586 34.771 23.5986 35.7447C22.7379 35.6728 21.8854 35.606 21.0577 35.5507C21.0794 34.6993 21.1047 33.8383 21.1335 32.9784C21.2447 32.9847 21.3558 32.9915 21.4667 32.9989ZM24.5139 33.1494C24.5306 33.9293 24.5616 34.839 24.603 35.8303C25.0965 35.8731 25.5912 35.9168 26.0842 35.9604C26.778 36.0217 27.4686 36.0827 28.1487 36.1404C28.1448 35.9552 28.1411 35.7698 28.1376 35.5844C28.1229 34.8012 28.1123 34.0155 28.1074 33.2384C26.9011 33.2181 25.6934 33.1911 24.5139 33.1494ZM21.0337 36.5515C21.8767 36.6082 22.7516 36.6771 23.6424 36.7519C23.6835 37.6549 23.7316 38.6084 23.7842 39.5808C23.5375 39.5555 23.2943 39.5296 23.0552 39.5031C22.3641 39.4263 21.6721 39.3731 20.9835 39.3405C20.9956 38.4388 21.0124 37.504 21.0337 36.5515ZM24.6473 36.838C24.6891 37.7455 24.7378 38.7031 24.791 39.6785C25.8979 39.7804 27.063 39.8706 28.2552 39.9501C28.2246 39.0404 28.196 38.0991 28.172 37.1461C27.4502 37.0851 26.7185 37.0204 25.9866 36.9557L25.9854 36.9556L25.9777 36.9549C25.5336 36.9157 25.0894 36.8764 24.6473 36.838ZM22.9448 40.4969C23.2376 40.5295 23.5362 40.561 23.8401 40.5916C23.9166 41.9452 23.9999 43.314 24.0835 44.6152C22.9521 44.5649 21.8807 44.4789 20.9699 44.3792C20.9566 43.1954 20.9575 41.8242 20.9719 40.3411C21.6279 40.3728 22.2868 40.4238 22.9448 40.4969ZM24.8472 40.6878C24.923 42.0224 25.0053 43.3697 25.0878 44.6497C26.2214 44.6767 27.3656 44.6628 28.429 44.5912L28.404 43.9499C28.368 43.032 28.3284 42.0218 28.2902 40.9546C27.1076 40.8764 25.95 40.7878 24.8472 40.6878ZM31.8366 40.156C30.9752 40.1136 30.112 40.0665 29.258 40.0142C29.2274 39.1113 29.1986 38.1764 29.1744 37.2287C30.0631 37.2997 30.9293 37.3624 31.7543 37.4095C31.7781 38.3595 31.8061 39.2816 31.8366 40.156ZM31.7309 36.4067C30.908 36.3587 30.0421 36.2953 29.1507 36.2235C29.146 36.0045 29.1415 35.7851 29.1374 35.5656C29.1229 34.791 29.1125 34.017 29.1076 33.2539C29.7423 33.2629 30.3743 33.2708 30.9994 33.2785L31.6826 33.287C31.6921 34.3348 31.7088 35.3825 31.7309 36.4067ZM30.9959 32.2783C30.3697 32.2706 29.7379 32.2627 29.1045 32.2537C29.1047 31.5327 29.1105 30.8256 29.1232 30.1414C29.9669 30.2038 30.8274 30.2384 31.6775 30.2534C31.6764 30.422 31.6756 30.5911 31.675 30.7608C31.6732 31.2658 31.6736 31.7754 31.6759 32.2868L30.9959 32.2783ZM31.687 29.2534C30.834 29.2382 29.9786 29.203 29.1474 29.1404C29.1855 27.8698 29.2514 26.7004 29.3538 25.6955C29.4888 25.6925 29.6239 25.6898 29.7589 25.6874C30.4405 25.6752 31.1185 25.6704 31.7846 25.6757C31.7342 26.7922 31.7029 28 31.687 29.2534ZM29.7411 24.6876C29.6529 24.6892 29.5648 24.6908 29.4767 24.6926C29.4824 24.6534 29.4883 24.6145 29.4942 24.576C29.6154 23.788 29.7078 22.8211 29.7763 21.7271C30.5074 21.6647 31.3029 21.6492 32.1172 21.6684C32.0131 22.3921 31.9326 23.2341 31.8699 24.1519C31.8582 24.3234 31.8471 24.4981 31.8366 24.6758C31.1415 24.6699 30.4395 24.6751 29.7411 24.6876ZM32.2928 20.6726C31.4535 20.6485 30.6165 20.6589 29.8311 20.7195C29.8752 19.7791 29.9046 18.766 29.922 17.7073C30.9983 17.7197 32.0359 17.7231 33.0191 17.7195C32.8912 18.579 32.7291 19.2983 32.5318 19.8244C32.4435 20.0601 32.3641 20.3452 32.2928 20.6726ZM33.1462 16.719C32.1299 16.7233 31.0535 16.7203 29.9347 16.7074C29.944 15.7081 29.9437 14.6773 29.9359 13.6364C31.0548 13.641 32.2038 13.6319 33.3544 13.6124C33.3179 14.6679 33.254 15.6875 33.1574 16.6138L33.1462 16.719ZM33.3808 12.6118C32.2174 12.6318 31.0558 12.6411 29.9261 12.6364L29.925 12.5438C29.9121 11.5041 29.8924 10.4596 29.8678 9.43071C31.0341 9.33342 32.208 9.26064 33.3631 9.20903C33.3898 10.1698 33.3994 11.1719 33.3875 12.169C33.3858 12.3169 33.3835 12.4645 33.3808 12.6118ZM33.3288 8.20964C32.1763 8.26106 31.0056 8.33329 29.8421 8.42953C29.8292 7.9562 29.8153 7.48769 29.8007 7.02609C31.0204 6.96858 32.1993 6.8904 33.2571 6.81074C33.2848 7.25692 33.3089 7.72542 33.3288 8.20964ZM34.328 8.17003C34.3076 7.6731 34.2828 7.19171 34.2542 6.73271C34.8788 6.68211 35.4423 6.63351 35.9232 6.59203L35.9239 6.59197C36.1313 6.57408 36.3234 6.55751 36.4983 6.54269C36.4956 7.00921 36.4894 7.53829 36.479 8.11766C35.7769 8.12752 35.0577 8.1447 34.328 8.17003ZM34.3624 9.16939C35.0734 9.14473 35.774 9.12788 36.4581 9.11806C36.4333 10.1584 36.3963 11.3172 36.3443 12.5394C35.6959 12.5597 35.0397 12.5774 34.3813 12.5921C34.3838 12.4552 34.3858 12.3181 34.3875 12.181C34.3995 11.1685 34.3897 10.1489 34.3624 9.16939ZM34.3557 13.5929C35.0073 13.5785 35.6568 13.5611 36.2989 13.5413C36.2495 14.5664 36.1895 15.624 36.1174 16.6841C35.4999 16.6962 34.8428 16.7058 34.1525 16.7122C34.2533 15.7442 34.3189 14.6838 34.3557 13.5929ZM37.3017 13.5082C37.2527 14.535 37.193 15.5961 37.1212 16.6616C38.3613 16.6302 39.3984 16.5898 40.1678 16.5494C40.2819 15.7384 40.3648 14.6265 40.3868 13.3804C39.4038 13.4272 38.3671 13.4707 37.3017 13.5082ZM37.3467 12.5059C38.3982 12.4686 39.4211 12.4254 40.391 12.379C40.3902 12.2892 40.389 12.1988 40.3876 12.1082C40.3715 11.1226 40.316 10.1081 40.2118 9.13432C39.3485 9.11346 38.4243 9.10404 37.4586 9.10853C37.4342 10.1405 37.3979 11.2908 37.3467 12.5059ZM34.0305 17.7134C34.738 17.7073 35.4119 17.6977 36.0456 17.6857C35.9622 18.7893 35.8651 19.8852 35.7525 20.9394C35.1886 20.8712 34.5944 20.8109 33.9886 20.764C33.7637 20.7466 33.5364 20.731 33.3078 20.7175C33.3582 20.5076 33.4116 20.3263 33.4682 20.1756C33.7107 19.5287 33.8938 18.6784 34.0305 17.7134ZM33.9114 21.761C34.5068 21.8071 35.0892 21.8663 35.64 21.9331C35.5171 22.9587 35.378 23.9315 35.2209 24.8172C34.4557 24.7529 33.6552 24.7136 32.8373 24.6926C32.8469 24.5325 32.857 24.3749 32.8676 24.22C32.9339 23.2479 33.0188 22.4008 33.122 21.7085C33.3856 21.7231 33.6493 21.7407 33.9114 21.761ZM32.7849 25.6919C33.5614 25.7114 34.3147 25.7474 35.0303 25.8049L35.0111 25.8952C34.7899 26.9275 34.6542 28.0589 34.5849 29.2378C34.018 29.2524 33.4321 29.2616 32.8367 29.2625L32.687 29.2626C32.703 28.0072 32.7344 26.8017 32.7849 25.6919ZM32.8383 30.2625C33.4179 30.2616 33.9887 30.253 34.5419 30.2392C34.5226 30.9289 34.5234 31.6295 34.5408 32.3312C34.2008 32.3243 33.8563 32.3182 33.5081 32.3126C33.2329 32.3081 32.9554 32.304 32.6759 32.3001C32.6736 31.7853 32.6732 31.2724 32.675 30.7642C32.6756 30.5964 32.6764 30.4292 32.6775 30.2625L32.8383 30.2625ZM33.4919 33.3124C33.8585 33.3183 34.2203 33.3248 34.5763 33.3321C34.6132 34.1334 34.6694 34.9301 34.7395 35.7074C34.7636 35.9738 34.7893 36.2383 34.8164 36.5003L34.5 36.5C33.9486 36.5 33.3564 36.4847 32.7322 36.4578C32.7097 35.4218 32.6925 34.361 32.6828 33.3003C32.9548 33.3041 33.2247 33.3081 33.4919 33.3124ZM35.7355 35.6176C35.7624 35.916 35.7914 36.2119 35.8223 36.5043C36.9585 36.5111 38.1463 36.5251 39.305 36.5387C39.1938 35.5232 39.0985 34.4939 39.0309 33.5094C38.943 33.5031 38.8541 33.497 38.7641 33.4911C37.7976 33.4277 36.7246 33.3856 35.5786 33.3554C35.6146 34.1147 35.6683 34.8729 35.7355 35.6176ZM34.5 37.5C34.6415 37.5 34.7844 37.5002 34.9285 37.5005C35.0483 38.4964 35.1865 39.4425 35.3311 40.3044C34.5133 40.2748 33.679 40.2412 32.8388 40.2033C32.8082 39.3307 32.78 38.4094 32.7558 37.4596C33.37 37.4854 33.9544 37.5 34.5 37.5ZM35.9364 37.505C36.0604 38.5191 36.2033 39.4767 36.3513 40.3396C37.5657 40.3795 38.7324 40.4106 39.8153 40.4344C39.6771 39.5319 39.5419 38.5479 39.4203 37.5401L39.3016 37.5388L39.3005 37.5387C38.1801 37.5255 37.0355 37.5121 35.9364 37.505ZM38.8296 32.4933L38.9708 32.5027C38.9261 31.6052 38.9098 30.766 38.9317 30.0352C38.0392 30.0895 36.8635 30.1603 35.5432 30.2084C35.5223 30.9122 35.5231 31.6311 35.5417 32.3541C36.72 32.3847 37.8289 32.4276 38.8296 32.4933ZM20.0349 36.4894C20.0132 37.4519 19.9962 38.3965 19.984 39.3075C19.1801 39.2921 18.3838 39.3033 17.6017 39.3363C17.7294 38.41 17.8627 37.4208 17.9953 36.4065C18.6388 36.4202 19.3222 36.4492 20.0349 36.4894ZM16.9878 36.3986C16.8517 37.4378 16.7149 38.4493 16.5845 39.3918C15.6207 39.4562 14.684 39.5517 13.7877 39.669C13.8591 38.7122 13.9343 37.6941 14.0098 36.6383C14.3881 36.5801 14.7392 36.5321 15.0552 36.4969C15.6216 36.434 16.2719 36.4036 16.9878 36.3986ZM12.9952 36.806C12.9198 37.8554 12.845 38.8656 12.7741 39.8133C11.6405 39.9877 10.5853 40.1936 9.63881 40.41C9.55196 39.5027 9.47423 38.5003 9.42823 37.4864C10.6624 37.2417 11.8989 36.9977 12.9952 36.806ZM13.0682 35.7786C11.9378 35.9717 10.6567 36.2235 9.39368 36.4738C9.37394 35.5807 9.38488 34.7048 9.44126 33.9024C10.5028 33.6856 11.8017 33.4677 13.2378 33.2925C13.1825 34.1325 13.1255 34.9646 13.0682 35.7786ZM14.0821 35.6162C14.138 34.8172 14.1935 34.0016 14.2473 33.1791C15.2631 33.0749 16.3317 32.9951 17.4217 32.9537C17.3242 33.7647 17.2217 34.5858 17.1175 35.3983C16.315 35.4005 15.5824 35.4322 14.9448 35.5031C14.6788 35.5326 14.3897 35.5709 14.0821 35.6162ZM18.1242 35.4094C18.2298 34.5836 18.3336 33.7495 18.4321 32.9266C18.9978 32.9181 19.5666 32.9207 20.1343 32.9365C20.1057 33.7899 20.0806 34.6442 20.059 35.4891C19.3892 35.4516 18.7412 35.4238 18.1242 35.4094ZM18.55 31.925C19.0885 31.9185 19.6294 31.9221 20.1694 31.9372C20.2062 30.935 20.2478 29.9397 20.2941 28.968C19.8263 28.962 19.349 28.9658 18.8672 28.9785C18.7766 29.9032 18.6686 30.8987 18.55 31.925ZM20.4554 26C20.4159 26.6376 20.3787 27.2957 20.3438 27.9685C19.8881 27.9622 19.4257 27.9649 18.9609 27.9758C18.974 27.8285 18.9864 27.6837 18.9983 27.5415C19.0353 27.0969 19.0573 26.5817 19.0662 26.0084C19.5386 26.003 20.0044 26.0002 20.4554 26ZM18.0017 27.4585C17.9867 27.6386 17.9707 27.8231 17.9538 28.0115C17.4235 28.0366 16.8939 28.0713 16.3716 28.1142C15.7501 28.1652 15.1344 28.2282 14.5351 28.3012C14.5726 27.5685 14.6066 26.8453 14.6359 26.1386C14.7308 26.1338 14.8267 26.129 14.9237 26.1244C15.9119 26.0776 16.9909 26.044 18.066 26.0236C18.0572 26.5615 18.0363 27.0434 18.0017 27.4585ZM14.3124 32.1675C14.3724 31.2158 14.4294 30.2603 14.4812 29.3156C15.1182 29.2354 15.7799 29.1661 16.4534 29.1108C16.9201 29.0725 17.3899 29.0411 17.8586 29.0174C17.7673 29.9391 17.659 30.9293 17.5406 31.9488C16.4344 31.9871 15.3481 32.0645 14.3124 32.1675ZM14.8763 25.1256L14.6748 25.1354C14.7119 24.1026 14.7375 23.1146 14.7483 22.1955C15.7779 22.2406 16.8789 22.2848 17.9947 22.3201C18.037 23.2953 18.0635 24.2056 18.0697 25.0233C16.9784 25.0438 15.8817 25.0779 14.8763 25.1256ZM17.947 21.3181C16.8488 21.2829 15.7669 21.2393 14.7541 21.1948C14.7529 19.7471 14.7067 18.4961 14.5943 17.5695C15.5104 17.4959 16.5469 17.4411 17.7009 17.4158C17.7986 18.7664 17.8834 20.0835 17.947 21.3181ZM17.6267 16.4172C16.4394 16.4442 15.3723 16.502 14.4289 16.5797C14.2544 15.6174 14.1513 14.6203 14.0998 13.6385C15.1739 13.5729 16.2802 13.517 17.3904 13.4759C17.4588 14.2891 17.5256 15.1094 17.589 15.9262C17.6017 16.0901 17.6143 16.2538 17.6267 16.4172ZM17.3054 12.4784C16.2117 12.5193 15.1225 12.5743 14.0642 12.6388C14.0495 11.8721 14.063 11.126 14.0949 10.4257C15.0793 10.4744 16.0976 10.5064 17.1329 10.5144C17.1903 11.1574 17.2482 11.814 17.3054 12.4784ZM13.0654 12.7031C13.0486 11.8937 13.0626 11.1071 13.0964 10.3701C11.9294 10.298 10.8208 10.2048 9.80079 10.1036C9.76185 10.5451 9.73253 10.9998 9.712 11.4598C9.68953 11.9632 9.67769 12.4703 9.6751 12.9703C10.7258 12.8754 11.8694 12.7839 13.0654 12.7031ZM13.1019 13.7029C11.8933 13.7849 10.7391 13.8777 9.68211 13.9738C9.70642 15.2452 9.78762 16.4185 9.90072 17.3013C10.1385 17.2275 10.4171 17.1562 10.7293 17.0881C11.4146 16.9384 12.3178 16.7924 13.4298 16.6737C13.2572 15.6975 13.1542 14.6917 13.1019 13.7029ZM17.0429 9.5138C16.0596 9.50469 15.0918 9.47379 14.1541 9.42749C14.227 8.4326 14.3314 7.57457 14.4317 6.94428C14.9391 6.88332 15.7363 6.82149 16.7942 6.79395L16.8237 7.11497L16.8238 7.11612C16.8936 7.87651 16.9674 8.68036 17.0429 9.5138ZM17.8182 7.00902L17.7971 6.77944C18.7459 6.7761 19.8499 6.80025 21.095 6.8689C21.1471 7.69546 21.1936 8.54627 21.2318 9.40584C20.1705 9.47459 19.1029 9.50852 18.0471 9.51532C17.9682 8.64249 17.891 7.80161 17.8182 7.00902ZM18.1368 10.5144C19.1758 10.5063 20.2264 10.4723 21.2721 10.4051C21.2962 11.0709 21.3146 11.7384 21.3261 12.4004C20.3365 12.3993 19.3229 12.4155 18.3063 12.4451C18.2501 11.7925 18.1933 11.147 18.1368 10.5144ZM18.3911 13.443C19.3839 13.4145 20.3729 13.3991 21.3379 13.4003C21.3445 14.4435 21.3316 15.4637 21.2942 16.4321C20.3531 16.4049 19.4642 16.396 18.6285 16.4022C18.6145 16.2179 18.6003 16.0334 18.586 15.8488C18.5238 15.0476 18.4583 14.2422 18.3911 13.443ZM18.7025 17.4017C19.5005 17.3966 20.3485 17.4054 21.2454 17.4311C21.1917 18.3305 21.1132 19.1719 21.005 19.9293C20.9428 20.365 20.8832 20.8531 20.8262 21.3858C20.4085 21.3801 19.9859 21.3723 19.5614 21.3626C19.3578 21.358 19.1539 21.3529 18.9499 21.3475C18.8861 20.0938 18.8006 18.761 18.7025 17.4017ZM19.5386 22.3624C19.9366 22.3714 20.3337 22.3789 20.7272 22.3845C20.6531 23.1877 20.5842 24.0665 20.5204 25L20.5 25C20.0362 25 19.5563 25.0028 19.0693 25.0083C19.0632 24.1973 19.0375 23.3023 18.9969 22.3491C19.1776 22.3538 19.3583 22.3583 19.5386 22.3624ZM26.1369 6.11795C27.0028 6.11963 27.8898 6.1009 28.7684 6.06883C28.7288 4.92756 28.6852 3.84029 28.6406 2.84083C27.6748 2.81768 26.7008 2.91026 25.8614 3.1867C25.9549 4.09942 26.0498 5.09509 26.1369 6.11795Z" fill="black" fill-opacity="0.4"/>
</svg>
