<svg width="50" height="50" viewBox="0 0 50 50" fill="none" xmlns="http://www.w3.org/2000/svg">
<path fill-rule="evenodd" clip-rule="evenodd" d="M15.7475 46.0777C16.0286 45.003 16.7726 43.2442 18.0669 42.8128C18.2388 42.7555 18.4678 42.666 18.7419 42.5505L0.098877 44.2767V45.6077C1.26093 46.7913 3.45634 47.4486 5.76618 47.5797C6.50034 47.5824 7.2556 47.5538 8.00602 47.5037C9.44777 47.3286 11.342 46.9495 13.2497 46.5678C14.0923 46.3992 14.9375 46.2301 15.7475 46.0777Z" fill="#2FC4A7"/>
<path fill-rule="evenodd" clip-rule="evenodd" d="M15.7475 46.0777C16.0286 45.003 16.7726 43.2442 18.0669 42.8128C18.2388 42.7555 18.4678 42.666 18.7419 42.5505L0.098877 44.2767V45.6077C1.26093 46.7913 3.45634 47.4486 5.76618 47.5797C6.50034 47.5824 7.2556 47.5538 8.00602 47.5037C9.44777 47.3286 11.342 46.9495 13.2497 46.5678C14.0923 46.3992 14.9375 46.2301 15.7475 46.0777Z" fill="black" fill-opacity="0.2"/>
<path fill-rule="evenodd" clip-rule="evenodd" d="M16.2771 44.6588C16.6773 43.8531 17.267 43.0795 18.0669 42.8128C19.8038 42.2339 27.3719 38.3695 28.4158 37.5714C28.4157 37.5705 28.4157 37.5695 28.4156 37.5686C28.3011 35.0507 28.2201 33.2682 28.572 30.5C28.9399 27.6053 29.6556 23.8797 30.3829 20.0936C31.2306 15.6808 32.0941 11.1858 32.4412 7.82815C32.0211 7.68301 31.4368 7.58987 30.715 7.47482C29.2209 7.23665 27.1377 6.90459 24.7027 5.82294C21.0913 4.21877 18.2539 1.81252 16.9641 0.475708C16.7691 5.32657 17.2021 11.097 17.5891 16.2542C18.0553 22.4668 18.4547 27.7894 17.609 29.5425C15.6744 33.5529 13.7397 36.895 7.29092 39.5686C0.842131 42.2422 -1.73738 44.2474 1.48703 45.5842C5.43528 47.2211 10.2843 46.0711 14.4355 45.0865C15.0674 44.9367 15.6832 44.7906 16.2771 44.6588Z" fill="#2FC4A7"/>
<path fill-rule="evenodd" clip-rule="evenodd" d="M16.2771 44.6588C16.6773 43.8531 17.267 43.0795 18.0669 42.8128C19.8038 42.2339 27.3719 38.3695 28.4158 37.5714C28.4157 37.5705 28.4157 37.5695 28.4156 37.5686C28.3011 35.0507 28.2201 33.2682 28.572 30.5C28.9399 27.6053 29.6556 23.8797 30.3829 20.0936C31.2306 15.6808 32.0941 11.1858 32.4412 7.82815C32.0211 7.68301 31.4368 7.58987 30.715 7.47482C29.2209 7.23665 27.1377 6.90459 24.7027 5.82294C21.0913 4.21877 18.2539 1.81252 16.9641 0.475708C16.7691 5.32657 17.2021 11.097 17.5891 16.2542C18.0553 22.4668 18.4547 27.7894 17.609 29.5425C15.6744 33.5529 13.7397 36.895 7.29092 39.5686C0.842131 42.2422 -1.73738 44.2474 1.48703 45.5842C5.43528 47.2211 10.2843 46.0711 14.4355 45.0865C15.0674 44.9367 15.6832 44.7906 16.2771 44.6588Z" fill="black" fill-opacity="0.4"/>
<path fill-rule="evenodd" clip-rule="evenodd" d="M23.4324 40.3092C23.0324 40.5122 22.6302 40.7141 22.2345 40.9104L22.2345 33.5826C22.2345 32.0344 22.7697 25.9263 23.4313 19.8965C23.7631 16.8722 24.1285 13.8514 24.4778 11.4099C24.6524 10.1895 24.8236 9.10932 24.9853 8.24369C25.1441 7.39338 25.3013 6.70663 25.4556 6.30176L26.575 6.72819C26.464 7.01935 26.3229 7.60622 26.1628 8.46365C26.0055 9.30577 25.837 10.3674 25.6635 11.5795C25.3168 14.003 24.9531 17.0095 24.622 20.0271C23.9578 26.081 23.4324 32.1147 23.4324 33.5826L23.4324 40.3092Z" fill="#2FC4A7"/>
<path fill-rule="evenodd" clip-rule="evenodd" d="M23.4324 40.3092C23.0324 40.5122 22.6302 40.7141 22.2345 40.9104L22.2345 33.5826C22.2345 32.0344 22.7697 25.9263 23.4313 19.8965C23.7631 16.8722 24.1285 13.8514 24.4778 11.4099C24.6524 10.1895 24.8236 9.10932 24.9853 8.24369C25.1441 7.39338 25.3013 6.70663 25.4556 6.30176L26.575 6.72819C26.464 7.01935 26.3229 7.60622 26.1628 8.46365C26.0055 9.30577 25.837 10.3674 25.6635 11.5795C25.3168 14.003 24.9531 17.0095 24.622 20.0271C23.9578 26.081 23.4324 32.1147 23.4324 33.5826L23.4324 40.3092Z" fill="black" fill-opacity="0.6"/>
<path d="M17.6577 48.0036V46.6727L45.8075 44.0107C45.8075 44.6762 46.4065 46.0072 46.4065 47.3381C45.0997 48.6691 40.526 48.6691 38.5659 48.0036C36.6058 47.3381 27.4584 50.0001 24.1915 50.0001C21.578 50.0001 18.9645 49.3346 17.6577 48.0036Z" fill="#2FC4A7"/>
<path d="M17.6577 48.0036V46.6727L45.8075 44.0107C45.8075 44.6762 46.4065 46.0072 46.4065 47.3381C45.0997 48.6691 40.526 48.6691 38.5659 48.0036C36.6058 47.3381 27.4584 50.0001 24.1915 50.0001C21.578 50.0001 18.9645 49.3346 17.6577 48.0036Z" fill="black" fill-opacity="0.2"/>
<path d="M42.2615 8.21869C38.6502 6.61452 35.8127 4.20827 34.523 2.87146C34.093 13.5659 36.0707 28.7299 34.523 31.9383C32.5883 35.9487 31.2986 39.2907 24.8498 41.9643C18.401 44.6379 15.8215 46.6432 19.0459 47.98C25.7031 50.74 34.9213 45.5767 39.0371 46.6432C41.6166 47.3116 43.9812 46.866 46.1308 45.9748C46.1308 39.2907 44.5 38.5 45.5 33.5C46.7393 27.3036 49.3552 16.4623 50.0001 10.2239C48.7103 9.7783 45.8728 9.82286 42.2615 8.21869Z" fill="#2FC4A7"/>
<path d="M42.2615 8.21869C38.6502 6.61452 35.8127 4.20827 34.523 2.87146C34.093 13.5659 36.0707 28.7299 34.523 31.9383C32.5883 35.9487 31.2986 39.2907 24.8498 41.9643C18.401 44.6379 15.8215 46.6432 19.0459 47.98C25.7031 50.74 34.9213 45.5767 39.0371 46.6432C41.6166 47.3116 43.9812 46.866 46.1308 45.9748C46.1308 39.2907 44.5 38.5 45.5 33.5C46.7393 27.3036 49.3552 16.4623 50.0001 10.2239C48.7103 9.7783 45.8728 9.82286 42.2615 8.21869Z" fill="black" fill-opacity="0.4"/>
<path d="M43.6363 8.63623C43.106 10.0681 40.4545 33.375 40.4545 36.4773C40.4545 39.4021 40.4545 44.4318 40.4545 46.8182" stroke="#2FC4A7" stroke-width="1.19786"/>
<path d="M43.6363 8.63623C43.106 10.0681 40.4545 33.375 40.4545 36.4773C40.4545 39.4021 40.4545 44.4318 40.4545 46.8182" stroke="black" stroke-opacity="0.6" stroke-width="1.19786"/>
</svg>
