<svg width="50" height="50" viewBox="0 0 50 50" fill="none" xmlns="http://www.w3.org/2000/svg">
<path d="M17.5149 1.63781C28.035 9.29561 34.7983 12.6685 47.6239 17.5492C41.6527 31.7311 36.6239 39.0492 28.6239 48.5492L21.1239 46.0492L2.86157 26.0492C8.4903 18.6296 12.7032 11.4238 17.5149 1.63781Z" fill="#2FC4A7"/>
<path d="M17.5149 1.63781C28.035 9.29561 34.7983 12.6685 47.6239 17.5492C41.6527 31.7311 36.6239 39.0492 28.6239 48.5492L21.1239 46.0492L2.86157 26.0492C8.4903 18.6296 12.7032 11.4238 17.5149 1.63781Z" fill="black" fill-opacity="0.4"/>
<path d="M14.5 16L15.5 15.1002M13 23L14 24M21 17.5L22 18.5M20 8.00008L21 9.00008M28 15.1002L29 16M31.5 22.5L33 22.5M25.5 24.5L24.5 25.5M25.5 37L25.5 35.5M20 39.5L19 40.5M31 30.5L30 29.5M27.5 42.5L29 42.5001M39 25.5L40 26.5M38.0792 18.5L39 17.5M18 30.5L17 31.5" stroke="#2FC4A7"/>
<path d="M14.5 16L15.5 15.1002M13 23L14 24M21 17.5L22 18.5M20 8.00008L21 9.00008M28 15.1002L29 16M31.5 22.5L33 22.5M25.5 24.5L24.5 25.5M25.5 37L25.5 35.5M20 39.5L19 40.5M31 30.5L30 29.5M27.5 42.5L29 42.5001M39 25.5L40 26.5M38.0792 18.5L39 17.5M18 30.5L17 31.5" stroke="black" stroke-opacity="0.6"/>
<path d="M29 49.5001C37 40.0001 42.0288 32.682 48 18.5001L47.5 17.5001C41.9701 30.8084 37.747 37.5558 28.5 48.5001L22.5 46.5001C20 43.5 16.2 37.2001 15 34.0001C13.8 30.8001 12.5 26.5 13 21.5001L12 21C11.5 24.5 12.3391 29.8478 14 34.0001C16 39 19.8761 45.2508 22 47.3L29 49.5001Z" fill="#2FC4A7"/>
<path d="M29 49.5001C37 40.0001 42.0288 32.682 48 18.5001L47.5 17.5001C41.9701 30.8084 37.747 37.5558 28.5 48.5001L22.5 46.5001C20 43.5 16.2 37.2001 15 34.0001C13.8 30.8001 12.5 26.5 13 21.5001L12 21C11.5 24.5 12.3391 29.8478 14 34.0001C16 39 19.8761 45.2508 22 47.3L29 49.5001Z" fill="black" fill-opacity="0.2"/>
<path d="M21 46.2L2.6239 26.5492C3.1239 21.5492 7 19.5001 12 21.0001C11 31 16.5 40.1999 21 46.2Z" fill="#2FC4A7"/>
<path d="M21 46.2L2.6239 26.5492C3.1239 21.5492 7 19.5001 12 21.0001C11 31 16.5 40.1999 21 46.2Z" fill="black" fill-opacity="0.6"/>
<path d="M28.5 48.5L22.5 46.5L22 47.3L29 49.5L28.5 48.5Z" fill="#2FC4A7"/>
<path d="M28.5 48.5L22.5 46.5L22 47.3L29 49.5L28.5 48.5Z" fill="black" fill-opacity="0.6"/>
</svg>
