<?xml version="1.0" encoding="utf-8"?><svg fill="none" viewBox="0 0 50 50" xmlns="http://www.w3.org/2000/svg" width="50" height="50"><g clip-path="url(#bafa)"><path d="M9.737 2.014H40v3l1 2h4v41H11.316c-.527 0-3.158 0-4.737-1.568C5 44.877 5 43.309 5 42.786V6.718c0-1.045.737-2.3 1.579-3.136.842-.836 2.105-1.568 3.158-1.568Z" fill="#FAA21E"/><path d="M9.737 2.014H40v3l1 2h4v41H11.316c-.527 0-3.158 0-4.737-1.568C5 44.877 5 43.309 5 42.786V6.718c0-1.045.737-2.3 1.579-3.136.842-.836 2.105-1.568 3.158-1.568Z" fill="#000" fill-opacity=".1"/><path d="m43 9-3-4v35.031h-2L43 46V9Z" fill="#898989"/><path d="m43 9-3-4v35.031h-2L43 46V9Z" fill="#fff" fill-opacity=".2"/><path d="M10.093 40H38l5 6H10.093c-.504 0-3.119-.918-3.119-3.16C6.974 40.6 9.59 40 10.093 40Z" fill="#898989"/><path d="M10.093 40H38l5 6H10.093c-.504 0-3.119-.918-3.119-3.16C6.974 40.6 9.59 40 10.093 40Z" fill="#fff" fill-opacity=".6"/><g clip-path="url(#bafb)"><path d="m27.9 6.437.312-.25-.312.25Zm-1.452-.39-.146-.372.146.373Zm-.606.237.146.372-.146-.372Zm-1.088-.08.197-.348-.198.348Zm-.491-.278-.197.348.197-.348Zm-1.44.129-.257-.308.256.308Zm-.739.615.256.307-.256-.307Zm-.95.287.043-.398-.043.398Zm-.727-.078-.044.397.044-.397Zm-1.186.545-.33-.226.33.226Zm-.753 1.1.33.227-.33-.226Zm-.696.504-.111-.384.111.384Zm-1.004.29-.111-.383.111.384Zm-.838.783-.376-.138.376.138Zm-.554 1.507-.375-.138.375.138Zm-.456.596-.232-.325.232.325ZM13.804 13l.232.326-.232-.326Zm-.525.894-.398-.045.398.045Zm-.189 1.688.398.045-.398-.045Zm-.263.643-.315-.247.315.248Zm-.993 1.266.314.247-.314-.247Zm-.259.964-.396.057.396-.057Zm.227 1.594-.396.056.396-.056Zm-.093.688.366.16-.366-.16Zm-.68 1.556-.367-.16.366.16Zm.007 1.037-.364.166.364-.166Zm.57 1.247.363-.166-.364.166Zm.095.745-.394-.068.394.068Zm-.273 1.58.394.07-.394-.07Zm.334 1.099-.288.277.288-.277Zm.724.754-.288.277.288-.277Zm.351.783.4-.03-.4.03Zm.102 1.33-.399.03.4-.03Zm.754 1.065.162-.366-.162.366Zm.67.296.16-.366-.16.366Zm.679.724.375-.138-.375.138Zm.331.901-.375.139.375-.139Zm1.184.832-.003.4.003-.4Zm.564.004.002-.4-.002.4Zm.983.475.312-.25-.312.25Zm.406.507-.313.25.313-.25Zm1.452.39.145.372-.145-.372Zm.606-.236-.145-.373.145.373Zm1.09.08.197-.349-.198.348Zm.489.278-.198.348.198-.348Zm1.441-.128.256.307-.256-.307Zm.738-.615-.256-.308.256.307Zm.95-.288-.042.398.043-.398Zm.728.079-.043.398.043-.398Zm1.185-.546.33.226-.33-.226Zm.753-1.1-.33-.226.33.226Zm.695-.504-.111-.384.111.384Zm1.004-.29-.111-.385.111.384Zm.84-.784-.375-.138.375.138Zm.553-1.506.376.138-.376-.137Zm.456-.597-.233-.326.233.326Zm1.116-.795.233.326-.233-.326Zm.526-.894.398.044-.398-.044Zm.188-1.688-.397-.044.397.044Zm.264-.643.314.247-.314-.247Zm.993-1.267.315.247-.315-.247Zm.259-.964-.396.057.396-.057Zm-.228-1.592.396-.057-.396.057Zm.094-.689-.367-.16.367.16Zm.68-1.556.367.16-.366-.16Zm-.008-1.037.364-.166-.364.166Zm-.57-1.248-.363.167.364-.167Zm-.095-.744.394.068-.394-.068Zm.274-1.582.394.069-.394-.069Zm-.336-1.096-.288.277.288-.277Zm-.724-.755.289-.277-.289.277Zm-.35-.783-.399.03.399-.03Zm-.102-1.33.399-.03-.399.03Zm-.754-1.065.162-.366-.162.366Zm-.669-.295.162-.366-.162.366Zm-.68-.724-.375.138.376-.138Zm-.33-.902.375-.138-.376.138Zm-1.185-.832-.003.4.003-.4Zm-.563-.004.003-.4-.003.4Zm-.983-.476.312-.25-.312.25Zm-1.975 1.622.103-.386-.103.386Zm5.71 14.857.387.103-.387-.103ZM19.668 33.434l-.103.387.103-.387Zm-5.711-14.857-.387-.104.387.104ZM27.9 6.437l-.312.25a.872.872 0 0 0-.995-.267l-.145-.372-.146-.373a1.672 1.672 0 0 1 1.91.511l-.312.25Zm-1.452-.39.145.373-.605.236-.146-.372-.145-.373.605-.236.146.373Zm-.606.237.146.372a1.671 1.671 0 0 1-1.432-.104l.197-.348.198-.348a.87.87 0 0 0 .746.055l.145.373Zm-1.088-.08-.198.348-.49-.278.197-.348.197-.348.49.278-.197.348Zm-.491-.278-.198.348a.87.87 0 0 0-.987.088l-.256-.307-.256-.308a1.67 1.67 0 0 1 1.894-.169l-.197.348Zm-1.44.129.255.307-.738.615-.256-.307-.256-.307.738-.616.256.308Zm-.739.615.256.307c-.348.29-.8.426-1.25.378l.044-.398.043-.398a.872.872 0 0 0 .651-.196l.256.307Zm-.95.287-.043.398-.728-.079.044-.397.043-.398.727.078-.043.398Zm-.727-.078-.044.397a.87.87 0 0 0-.812.374l-.33-.226-.33-.226a1.671 1.671 0 0 1 1.559-.717l-.043.398Zm-1.186.545.33.226-.753 1.1-.33-.225-.33-.226.753-1.1.33.225Zm-.753 1.1.33.227c-.219.32-.543.553-.914.661l-.112-.384-.111-.384a.873.873 0 0 0 .477-.345l.33.226Zm-.696.504.112.384-1.005.291-.11-.384-.112-.384 1.004-.291.111.384Zm-1.004.29.112.385a.87.87 0 0 0-.575.536l-.375-.138-.376-.138a1.67 1.67 0 0 1 1.103-1.028l.111.384Zm-.838.783.375.138-.553 1.507-.376-.138-.375-.138.553-1.507.376.138Zm-.554 1.507.376.138c-.117.316-.326.59-.6.784l-.232-.325-.232-.326a.871.871 0 0 0 .313-.409l.375.138Zm-.456.596.232.326-1.116.796-.232-.326-.232-.325 1.116-.796.232.325ZM13.804 13l.232.326a.871.871 0 0 0-.36.612l-.397-.044-.398-.045c.053-.472.304-.899.69-1.174l.233.325Zm-.525.894.397.044-.188 1.689-.398-.045-.397-.044.188-1.689.398.045Zm-.189 1.688.398.045a1.672 1.672 0 0 1-.347.845l-.314-.247-.315-.247c.1-.127.162-.28.18-.44l.398.044Zm-.263.643.314.247-.993 1.266-.314-.247-.315-.247.993-1.265.315.247Zm-.993 1.266.314.247a.87.87 0 0 0-.177.66l-.396.057-.396.057a1.671 1.671 0 0 1 .34-1.268l.315.247Zm-.259.964.396-.056.227 1.593-.396.057-.396.056-.227-1.593.396-.057Zm.227 1.594.396-.057c.044.307.002.62-.123.906l-.366-.16-.367-.161a.87.87 0 0 0 .064-.472l.396-.056Zm-.093.688.366.16-.68 1.556-.367-.16-.366-.16.68-1.556.367.16Zm-.68 1.556.366.16a.873.873 0 0 0 .005.711l-.364.166-.364.166a1.672 1.672 0 0 1-.01-1.363l.366.16Zm.007 1.037.364-.166.569 1.247-.364.166-.364.166-.569-1.247.364-.166Zm.57 1.247.363-.166c.14.305.184.648.127.98l-.395-.069-.394-.068a.875.875 0 0 0-.066-.511l.364-.166Zm.095.745.395.069-.274 1.58-.394-.068-.395-.068.274-1.581.394.068Zm-.273 1.58.394.07a.871.871 0 0 0 .229.752l-.289.277-.288.277a1.671 1.671 0 0 1-.44-1.443l.394.068Zm.334 1.099.289-.277.724.754-.289.277-.288.277-.724-.754.288-.277Zm.724.754.289-.277c.268.279.432.643.461 1.03l-.399.03-.398.03a.873.873 0 0 0-.241-.536l.288-.277Zm.351.783.4-.03.101 1.33-.399.03-.399.03-.101-1.33.399-.03Zm.102 1.33.4-.03c.024.319.222.6.516.73l-.162.365-.162.366a1.671 1.671 0 0 1-.99-1.4l.398-.031Zm.754 1.065.162-.366.669.296-.162.366-.162.366-.668-.296.161-.366Zm.67.296.16-.366c.415.183.738.526.894.952l-.375.138-.376.138a.872.872 0 0 0-.466-.496l.162-.366Zm.679.724.375-.138.332.901-.376.138-.375.138-.332-.901.376-.138Zm.331.901.376-.138c.125.34.448.567.81.57l-.002.4-.003.4a1.671 1.671 0 0 1-1.556-1.093l.375-.139Zm1.184.832.002-.4.564.004-.002.4-.003.4-.564-.004.003-.4Zm.564.004.003-.4c.502.003.977.233 1.292.625l-.312.25-.313.25a.871.871 0 0 0-.673-.325l.003-.4Zm.983.475.312-.25.406.507-.312.25-.313.25-.406-.507.313-.25Zm.406.507.312-.25a.871.871 0 0 0 .995.267l.145.373.145.372a1.671 1.671 0 0 1-1.91-.511l.313-.25Zm1.452.39-.145-.373.606-.236.145.373.145.373-.606.235-.145-.372Zm.606-.236-.145-.373a1.672 1.672 0 0 1 1.432.104l-.198.348-.197.348a.871.871 0 0 0-.747-.054l-.145-.373Zm1.09.08.197-.348.49.278-.198.348-.198.348-.49-.28.198-.347Zm.489.278.197-.348c.316.18.71.144.988-.088l.256.308.256.307a1.672 1.672 0 0 1-1.895.169l.198-.348Zm1.441-.128-.256-.308.738-.615.256.307.256.308-.738.615-.256-.307Zm.738-.615-.256-.308c.348-.29.8-.426 1.25-.377l-.043.397-.043.398a.872.872 0 0 0-.652.197l-.256-.307Zm.95-.288.044-.397.727.078-.043.398-.043.398-.727-.079.043-.398Zm.728.079.043-.398c.319.035.631-.11.812-.374l.33.226.33.226a1.671 1.671 0 0 1-1.558.718l.043-.398Zm1.185-.546-.33-.226.753-1.1.33.226.33.226-.752 1.1-.33-.226Zm.753-1.1-.33-.226c.219-.32.542-.554.914-.662l.111.384.112.385a.872.872 0 0 0-.476.345l-.33-.226Zm.695-.504-.111-.384 1.004-.29.111.383.112.385-1.004.29-.112-.384Zm1.004-.29-.11-.385a.872.872 0 0 0 .575-.537l.375.138.375.138a1.672 1.672 0 0 1-1.103 1.03l-.112-.385Zm.84-.784-.375-.138.553-1.505.375.138.376.137-.553 1.506-.376-.138Zm.553-1.506-.375-.137c.116-.316.324-.59.598-.786l.233.326.232.325a.873.873 0 0 0-.312.41l-.376-.137Zm.456-.597-.232-.326 1.116-.795.232.326.232.326-1.117.795-.231-.326Zm1.116-.795-.232-.326a.873.873 0 0 0 .36-.613l.398.045.398.044c-.053.472-.305.9-.691 1.176l-.233-.326Zm.526-.894-.397-.045.188-1.687.397.044.398.045-.188 1.687-.398-.044Zm.188-1.688-.397-.044a1.67 1.67 0 0 1 .346-.846l.315.247.314.247a.872.872 0 0 0-.18.44l-.398-.044Zm.264-.643-.315-.247.994-1.267.314.247.315.247-.994 1.267-.314-.247Zm.993-1.267-.314-.246a.872.872 0 0 0 .177-.661l.396-.057.395-.056a1.67 1.67 0 0 1-.339 1.267l-.315-.247Zm.259-.964-.396.057-.228-1.593.396-.056.396-.057.227 1.593-.395.056Zm-.228-1.592-.396.056a1.67 1.67 0 0 1 .123-.905l.367.16.366.16a.87.87 0 0 0-.064.472l-.396.057Zm.094-.689-.367-.16.681-1.557.367.16.366.16-.68 1.557-.367-.16Zm.68-1.556-.366-.16a.871.871 0 0 0-.006-.711l.364-.166.364-.166c.197.432.202.927.011 1.363l-.366-.16Zm-.008-1.037-.364.166-.57-1.247.365-.167.364-.166.57 1.248-.365.166Zm-.57-1.248-.363.166a1.672 1.672 0 0 1-.126-.978l.394.068.394.068a.872.872 0 0 0 .066.51l-.364.166Zm-.095-.744-.394-.068.274-1.582.394.069.394.068-.274 1.581-.394-.068Zm.274-1.582-.394-.068a.87.87 0 0 0-.23-.751l.288-.277.289-.278c.368.384.532.919.441 1.443l-.394-.069Zm-.336-1.096-.288.277-.724-.755.288-.277.289-.277.724.755-.289.277Zm-.724-.755-.288.277a1.672 1.672 0 0 1-.46-1.03l.398-.03.399-.03a.87.87 0 0 0 .24.536l-.289.277Zm-.35-.783-.399.03-.102-1.329.4-.03.398-.03.102 1.329-.4.03Zm-.102-1.33-.399.031a.871.871 0 0 0-.516-.73l.161-.366.162-.366c.563.249.944.787.991 1.401l-.399.03Zm-.754-1.065-.161.366-.67-.295.162-.366.162-.366.669.295-.162.366Zm-.669-.295-.161.366a1.672 1.672 0 0 1-.894-.952l.376-.138.375-.138c.082.221.25.4.466.496l-.162.366Zm-.68-.724-.375.138-.331-.902.375-.138.376-.138.331.902-.375.138Zm-.33-.902-.376.138a.871.871 0 0 0-.812-.57l.003-.4.003-.4c.695.005 1.316.44 1.557 1.094l-.376.138Zm-1.185-.832-.003.4-.563-.004.003-.4.003-.4.563.004-.003.4Zm-.563-.004-.003.4a1.67 1.67 0 0 1-1.292-.626l.312-.25.312-.25a.87.87 0 0 0 .674.326l-.003.4Zm-.983-.476-.312.25-.407-.507.312-.25.312-.25.407.507-.312.25Zm-1.975 1.622.103-.386c2.651.71 4.622 2.823 5.688 5.598 1.067 2.775 1.245 6.242.306 9.748l-.387-.103-.386-.104c.9-3.36.72-6.653-.28-9.254-1-2.602-2.805-4.484-5.148-5.112l.104-.387Zm5.71 14.857.387.103c-.94 3.506-2.827 6.42-5.14 8.29-2.31 1.87-5.073 2.715-7.724 2.005l.103-.387.104-.386c2.343.627 4.848-.1 7.015-1.854 2.166-1.753 3.969-4.514 4.87-7.875l.385.104ZM19.668 33.434l-.103.387c-2.651-.71-4.622-2.823-5.689-5.599-1.067-2.776-1.245-6.243-.306-9.749l.387.104.386.103c-.9 3.36-.72 6.654.28 9.255 1 2.602 2.806 4.485 5.149 5.113l-.104.386Zm-5.711-14.857-.387-.104c.94-3.506 2.828-6.42 5.14-8.29 2.311-1.87 5.074-2.713 7.725-2.003l-.103.386-.104.387c-2.343-.628-4.848.1-7.015 1.853-2.167 1.752-3.97 4.514-4.87 7.874l-.386-.103Z" fill="#FEFEFE"/><ellipse cx="23" cy="21" rx="9.337" ry="12.838" transform="rotate(14.765 23 21)" fill="#FAA21E"/><path d="m18.2 11.4-2.56 3.2 9.954 18.13 3.166-3.09L31 25.8 21.4 9.16l-3.2 2.24Z" fill="#FAA21E"/><path d="m18.2 11.4-2.56 3.2 9.954 18.13 3.166-3.09L31 25.8 21.4 9.16l-3.2 2.24Z" fill="#fff" fill-opacity=".2"/><path d="M30.68 12.04c2.126 3.911 2.091 6.31 1.509 10.676L31 26.12 21.08 9.16l2.847-.754c3.234.06 4.685.916 6.753 3.634Z" fill="#FAA21E"/><path d="M30.68 12.04c2.126 3.911 2.091 6.31 1.509 10.676L31 26.12 21.08 9.16l2.847-.754c3.234.06 4.685.916 6.753 3.634Z" fill="#fff" fill-opacity=".4"/><ellipse cx="23" cy="21" rx="9.581" ry="13.174" transform="rotate(15 23 21)" stroke="#FEFEFE" stroke-width=".96"/><rect width="12.886" height="1.473" rx=".736" transform="scale(-1 1) rotate(75 -22.835 -6.069)" fill="#FEFEFE"/><path d="m19.23 16.606.763-2.845a.737.737 0 0 1 .902-.521l7.112 1.906c.393.105.626.509.52.902l-.762 2.845a.736.736 0 0 1-.901.52l-7.113-1.905a.736.736 0 0 1-.52-.902Z" fill="#FEFEFE"/><rect width="5.154" height=".736" rx=".368" transform="scale(-1 1) rotate(75 -22.73 -10.18)" fill="#FEFEFE"/><rect width="5.154" height=".736" rx=".368" transform="scale(-1 1) rotate(75 -19.37 -7.603)" fill="#FEFEFE"/></g></g><defs><clipPath id="bafa"><path fill="#fff" transform="matrix(-1 0 0 1 50 0)" d="M0 0h50v50H0z"/></clipPath><clipPath id="bafb"><path fill="#fff" transform="matrix(-1 0 0 1 39 5)" d="M0 0h32v32H0z"/></clipPath></defs></svg>