<svg width="50" height="50" viewBox="0 0 50 50" fill="none" xmlns="http://www.w3.org/2000/svg">
<circle cx="25" cy="25" r="20.5" fill="#2FC4A7"/>
<circle cx="25" cy="25" r="20.5" fill="black" fill-opacity="0.8"/>
<circle cx="25" cy="25" r="20.5" stroke="#2FC4A7"/>
<circle cx="25" cy="25" r="20.5" stroke="black" stroke-opacity="0.4"/>
<path d="M32 8.08333C32 4.81667 27.3333 4 25 4C34.1736 4 41.9733 9.88214 44.8333 18.0805C43.4722 16.3037 40.05 12.75 37.25 12.75C33.75 12.75 32 12.1667 32 8.08333Z" fill="#2FC4A7"/>
<path d="M32 8.08333C32 4.81667 27.3333 4 25 4C34.1736 4 41.9733 9.88214 44.8333 18.0805C43.4722 16.3037 40.05 12.75 37.25 12.75C33.75 12.75 32 12.1667 32 8.08333Z" fill="black" fill-opacity="0.6"/>
<path d="M4 25C4 36.598 13.402 46 25 46C25.5893 46 26.173 45.9757 26.75 45.9281C29.6667 43.6667 30.25 40.75 28.5 39C24.4167 34.9167 20.3333 41.8 13.3333 39C6.33333 36.2 4.19444 28.5 4 25Z" fill="#898989"/>
<path d="M4 25C4 36.598 13.402 46 25 46C25.5893 46 26.173 45.9757 26.75 45.9281C29.6667 43.6667 30.25 40.75 28.5 39C24.4167 34.9167 20.3333 41.8 13.3333 39C6.33333 36.2 4.19444 28.5 4 25Z" fill="black" fill-opacity="0.4"/>
<path d="M23.8334 9.8333C22.4361 6.34001 18.1945 5.84411 15.6667 6.18285C19.3612 5.47918 27.1001 4.75747 28.5001 7.49997C30.2501 10.9281 25.0001 16.25 26.7501 18.5833C28.5001 20.9166 35.5001 15.0833 41.3334 19.1667C47.3356 23.3682 43.0834 34.9167 38.4167 41.156C39.389 37.3262 41.9167 26.75 38.4167 23.25C33.2622 18.0955 22.0834 29.6667 17.4167 21.5C14.991 17.255 25.0001 12.75 23.8334 9.8333Z" fill="#898989"/>
<path d="M7.5 19.75C8.35153 14.2151 12.75 8.08334 15.3168 6.33334C13.3333 9.25001 11.4001 12.8004 11.0001 18C10.4168 25.5833 12.75 29.0833 16.8333 30.25C20.9166 31.4167 27.9168 25.5833 33.1668 27.3333C37.3668 28.7333 37.8334 38.4167 35.5001 43.0833C36.2779 40.75 36.6668 32.5833 32.0001 30.8333C25.333 28.3332 21.0436 35.7883 16.2499 34.9167C9.83329 33.75 6.33332 27.3333 7.5 19.75Z" fill="#2FC4A7"/>
<path d="M7.5 19.75C8.35153 14.2151 12.75 8.08334 15.3168 6.33334C13.3333 9.25001 11.4001 12.8004 11.0001 18C10.4168 25.5833 12.75 29.0833 16.8333 30.25C20.9166 31.4167 27.9168 25.5833 33.1668 27.3333C37.3668 28.7333 37.8334 38.4167 35.5001 43.0833C36.2779 40.75 36.6668 32.5833 32.0001 30.8333C25.333 28.3332 21.0436 35.7883 16.2499 34.9167C9.83329 33.75 6.33332 27.3333 7.5 19.75Z" fill="black" fill-opacity="0.4"/>
<path d="M11.5 17.5C11.9651 11.9193 14 9 15.6667 6.33334C10.5 17 11.1131 25.8593 17.0001 28C22.8871 30.1407 31.5 20.7 37.25 23C41.3333 24.6333 40 38 36 43C39 37 40.7334 26.3333 37.0001 24C33.2668 21.6667 23.5 31.0556 16.5 29.5C13 28.7222 10.9166 24.5 11.5 17.5Z" fill="#2FC4A7"/>
<path d="M11.5 17.5C11.9651 11.9193 14 9 15.6667 6.33334C10.5 17 11.1131 25.8593 17.0001 28C22.8871 30.1407 31.5 20.7 37.25 23C41.3333 24.6333 40 38 36 43C39 37 40.7334 26.3333 37.0001 24C33.2668 21.6667 23.5 31.0556 16.5 29.5C13 28.7222 10.9166 24.5 11.5 17.5Z" fill="white" fill-opacity="0.4"/>
</svg>
