<svg width="50" height="50" viewBox="0 0 50 50" fill="none" xmlns="http://www.w3.org/2000/svg">
<g clip-path="url(#clip0_3581_30676)">
<path d="M29.5 6C28.3 6 24.6667 5 23 4.5L30.5 17.5L34.5 4.5C33.3333 5 30.7 6 29.5 6Z" fill="#898989"/>
<path d="M29.5 6C28.3 6 24.6667 5 23 4.5L30.5 17.5L34.5 4.5C33.3333 5 30.7 6 29.5 6Z" fill="black" fill-opacity="0.6"/>
<path d="M38.4262 13C38.8717 10.75 39.6635 5 41 2.5H46C44.5 5 41.891 10 41 13C40.109 16 37.4455 22.5 37 27C36.5545 23 37.9807 15.25 38.4262 13Z" fill="#2FC4A7"/>
<path d="M38.4262 13C38.8717 10.75 39.6635 5 41 2.5H46C44.5 5 41.891 10 41 13C40.109 16 37.4455 22.5 37 27C36.5545 23 37.9807 15.25 38.4262 13Z" fill="white" fill-opacity="0.2"/>
<path d="M20.5 0L7.5 3.5C8.83333 7.33333 11.6 15.3 12 16.5C12.5 18 13.5 23 13.5 28C13.5 32 9.83333 42.3333 8 47C13.5 49 18 50 30 50C36.5 50 40.5 47 41.5 46C40 41.5 37.9909 35.3225 37.5 29C37.0926 23.7539 38.0465 19.3139 38.5 17.5C39.5 13.5 41.6667 5.83333 43 2.5L35 0C33.5 6 33 9 30.5 15.5C26.5 10 24 6.5 20.5 0Z" fill="#898989"/>
<path d="M20.5 0L7.5 3.5C8.83333 7.33333 11.6 15.3 12 16.5C12.5 18 13.5 23 13.5 28C13.5 32 9.83333 42.3333 8 47C13.5 49 18 50 30 50C36.5 50 40.5 47 41.5 46C40 41.5 37.9909 35.3225 37.5 29C37.0926 23.7539 38.0465 19.3139 38.5 17.5C39.5 13.5 41.6667 5.83333 43 2.5L35 0C33.5 6 33 9 30.5 15.5C26.5 10 24 6.5 20.5 0Z" fill="black" fill-opacity="0.4"/>
<path fill-rule="evenodd" clip-rule="evenodd" d="M40.9598 8.92377C40.3641 8.69557 39.774 8.56424 39.2059 8.56424C36.4549 8.56424 34.6363 8.24072 33.7498 6.49733C34.2113 4.64244 34.5903 2.63694 34.9669 0.21381C37.6501 1.46844 40.0756 3.21407 42.1379 5.34083C41.7612 6.42697 41.3595 7.65273 40.9598 8.92377Z" fill="#2FC4A7"/>
<path fill-rule="evenodd" clip-rule="evenodd" d="M40.9598 8.92377C40.3641 8.69557 39.774 8.56424 39.2059 8.56424C36.4549 8.56424 34.6363 8.24072 33.7498 6.49733C34.2113 4.64244 34.5903 2.63694 34.9669 0.21381C37.6501 1.46844 40.0756 3.21407 42.1379 5.34083C41.7612 6.42697 41.3595 7.65273 40.9598 8.92377Z" fill="black" fill-opacity="0.6"/>
<path fill-rule="evenodd" clip-rule="evenodd" d="M9.55884 42.8323C11.6935 44.2629 14.1887 45.2971 17.0001 46C20.0001 46.75 24.5001 45.8333 26.5001 44.5C28.5001 43.1666 32.0001 37 30.5001 36C29.2734 35.1822 27.2251 36.2036 24.6877 37.4689C21.0197 39.2981 16.3295 41.637 11.621 39.6666C11.3343 39.5467 11.0548 39.4192 10.7823 39.2846C10.3773 40.5079 9.96082 41.7094 9.55884 42.8323Z" fill="#898989"/>
<path fill-rule="evenodd" clip-rule="evenodd" d="M9.55884 42.8323C11.6935 44.2629 14.1887 45.2971 17.0001 46C20.0001 46.75 24.5001 45.8333 26.5001 44.5C28.5001 43.1666 32.0001 37 30.5001 36C29.2734 35.1822 27.2251 36.2036 24.6877 37.4689C21.0197 39.2981 16.3295 41.637 11.621 39.6666C11.3343 39.5467 11.0548 39.4192 10.7823 39.2846C10.3773 40.5079 9.96082 41.7094 9.55884 42.8323Z" fill="black" fill-opacity="0.2"/>
<path fill-rule="evenodd" clip-rule="evenodd" d="M17.0473 0.929571C19.1516 1.41654 21.2022 2.6163 22.1303 5.0637C22.7033 6.57459 20.8652 8.44691 18.8536 10.4959C16.286 13.1113 13.4359 16.0145 14.9565 18.8213C17.7944 24.0596 22.7864 22.4114 27.6769 20.7968C31.5099 19.5314 35.2805 18.2865 37.9028 20.3937C38.1088 19.1456 38.3368 18.1528 38.5 17.5C38.6999 16.7004 38.9464 15.7743 39.2236 14.7775C36.2953 13.802 33.2886 14.5375 30.7931 15.2311C30.6977 15.4836 30.6001 15.7398 30.5 16C30.3606 15.8084 30.2231 15.618 30.0873 15.4287C27.8903 16.0436 26.1726 16.4808 25.3912 15.3819C24.4592 14.0712 25.303 11.961 26.2307 9.67338C24.7156 7.25634 23.3111 4.8376 21.751 2.15103C21.3461 1.45374 20.9307 0.738405 20.5002 0.000374864C20.4997 0.00037196 20.4991 0.000369072 20.4986 0.000366199L17.0473 0.929571ZM26.7772 49.973C26.5882 49.9696 26.4012 49.9659 26.2163 49.9619C31.9407 48.8985 36.5039 43.6971 38.9618 37.8247C39.1673 38.7215 39.38 39.6038 39.5912 40.4682C36.4424 45.625 31.9887 49.6095 26.7772 49.973Z" fill="#898989"/>
<path fill-rule="evenodd" clip-rule="evenodd" d="M37.4396 28.0363C36.805 27.3712 35.995 26.8459 35 26.5C31.7432 25.3677 27.8174 26.7827 24.1569 28.1021C21.044 29.2241 18.123 30.2769 15.9689 29.6349C15.062 29.3647 14.2304 28.9899 13.4837 28.4954C13.3952 29.9233 12.9553 31.9485 12.3424 34.1811C13.2559 34.6421 14.2436 34.9934 15.2992 35.2222C19.9374 36.2277 23.8716 33.8081 27.1381 31.7992C29.6472 30.2561 31.7623 28.9553 33.5 29.6349C37.9846 31.389 32.0411 45.9 26.0618 49.9585C26.0783 49.9589 26.0948 49.9592 26.1113 49.9596C32.7315 47.5314 37.2279 41.8624 38.6995 36.6516C38.1602 34.1733 37.7018 31.5989 37.5 29C37.4748 28.6756 37.4549 28.3542 37.4396 28.0363ZM8.89507 7.51433C9.24124 8.51129 9.59996 9.545 9.94594 10.543C10.778 7.0228 12.1954 4.2383 13.6971 1.83157L13.0516 2.00538C11.7474 3.28194 10.2429 5.23325 8.89507 7.51433Z" fill="#2FC4A7"/>
<path fill-rule="evenodd" clip-rule="evenodd" d="M37.4396 28.0363C36.805 27.3712 35.995 26.8459 35 26.5C31.7432 25.3677 27.8174 26.7827 24.1569 28.1021C21.044 29.2241 18.123 30.2769 15.9689 29.6349C15.062 29.3647 14.2304 28.9899 13.4837 28.4954C13.3952 29.9233 12.9553 31.9485 12.3424 34.1811C13.2559 34.6421 14.2436 34.9934 15.2992 35.2222C19.9374 36.2277 23.8716 33.8081 27.1381 31.7992C29.6472 30.2561 31.7623 28.9553 33.5 29.6349C37.9846 31.389 32.0411 45.9 26.0618 49.9585C26.0783 49.9589 26.0948 49.9592 26.1113 49.9596C32.7315 47.5314 37.2279 41.8624 38.6995 36.6516C38.1602 34.1733 37.7018 31.5989 37.5 29C37.4748 28.6756 37.4549 28.3542 37.4396 28.0363ZM8.89507 7.51433C9.24124 8.51129 9.59996 9.545 9.94594 10.543C10.778 7.0228 12.1954 4.2383 13.6971 1.83157L13.0516 2.00538C11.7474 3.28194 10.2429 5.23325 8.89507 7.51433Z" fill="black" fill-opacity="0.4"/>
<path fill-rule="evenodd" clip-rule="evenodd" d="M37.8593 20.6633C34.8216 20.1007 31.2485 21.8785 27.6629 23.6626C23.6553 25.6566 19.632 27.6584 16.3227 26.4091C15.1384 25.962 14.143 25.2649 13.3399 24.3504C13.414 25.2328 13.4668 26.1446 13.4887 27.0637C14.1655 27.6057 14.9263 27.9763 15.7579 28.1682C20.0306 29.1539 24.8616 27.0449 28.9547 25.2579C32.4361 23.7381 35.3838 22.4512 37 23.5C37.1711 23.6308 37.3343 23.766 37.49 23.9056C37.5738 22.7103 37.7088 21.6179 37.8593 20.6633ZM38.6999 36.6536C36.2292 42.7093 30.9075 48.5422 26.138 49.9602C26.1637 49.9607 26.1894 49.9613 26.2152 49.9619C31.3126 49.0044 36.1184 44.2796 39.2082 38.8801C39.0346 38.1481 38.8635 37.4053 38.6999 36.6536ZM10.3826 11.8029C10.6028 12.4387 10.8125 13.0448 11.0043 13.5998C11.401 10.0366 12.571 5.95616 14.5386 1.60498L14.4333 1.63335C12.8727 4.20634 11.1358 7.09728 10.3826 11.8029Z" fill="#2FC4A7"/>
<path d="M12.4999 10.5C10.4999 7 9.49994 5.5 7.49994 3.5C7.49994 3.5 7 2.5 5.5 2.5C9 8 11.5467 15.1638 12.4999 18.5C14.4999 20.5 14.5 18 14.5 18C14.5 18 14.4999 14 12.4999 10.5Z" fill="#898989"/>
<path d="M12.4999 10.5C10.4999 7 9.49994 5.5 7.49994 3.5C7.49994 3.5 7 2.5 5.5 2.5C9 8 11.5467 15.1638 12.4999 18.5C14.4999 20.5 14.5 18 14.5 18C14.5 18 14.4999 14 12.4999 10.5Z" fill="black" fill-opacity="0.6"/>
<path d="M15 29C15 26.5 15.1481 23.3075 14.5 21C15.5 22.5 16 26.375 16 29C16 33.5277 13.8333 43.6667 12.5 48.5L10.5 48C12.1667 42.6667 15 31.8 15 29Z" fill="#2FC4A7"/>
<path d="M15 29C15 26.5 15.1481 23.3075 14.5 21C15.5 22.5 16 26.375 16 29C16 33.5277 13.8333 43.6667 12.5 48.5L10.5 48C12.1667 42.6667 15 31.8 15 29Z" fill="white" fill-opacity="0.2"/>
<path d="M30 28.5V15H31V28.5V36V50H30V36V28.5Z" fill="#2FC4A7"/>
<path d="M30 28.5V15H31V28.5V36V50H30V36V28.5Z" fill="white" fill-opacity="0.2"/>
<path d="M14 12.5C13.5 10.25 12.5 5 11 2.5H5.5C7.5566 4.86478 10.5 9.5 11.5 12.5C12.5 15.5 15 22 15.5 26.5C16 22.5 14.5 14.75 14 12.5Z" fill="#2FC4A7"/>
<path d="M14 12.5C13.5 10.25 12.5 5 11 2.5H5.5C7.5566 4.86478 10.5 9.5 11.5 12.5C12.5 15.5 15 22 15.5 26.5C16 22.5 14.5 14.75 14 12.5Z" fill="white" fill-opacity="0.2"/>
<path fill-rule="evenodd" clip-rule="evenodd" d="M30.0951 16.2934C25.5553 10.0274 23.3004 6.50344 20.0559 0.229688L20.9442 -0.229675C24.0322 5.74143 26.2076 9.18856 30.3734 14.971C32.629 9.28014 33.5096 5.85122 34.5069 -0.0828664L35.4931 0.0828794C34.4364 6.37018 33.5005 9.90843 30.9636 16.1873L30.6252 17.025L30.0951 16.2934Z" fill="#2FC4A7"/>
<path fill-rule="evenodd" clip-rule="evenodd" d="M30.0951 16.2934C25.5553 10.0274 23.3004 6.50344 20.0559 0.229688L20.9442 -0.229675C24.0322 5.74143 26.2076 9.18856 30.3734 14.971C32.629 9.28014 33.5096 5.85122 34.5069 -0.0828664L35.4931 0.0828794C34.4364 6.37018 33.5005 9.90843 30.9636 16.1873L30.6252 17.025L30.0951 16.2934Z" fill="white" fill-opacity="0.2"/>
</g>
<defs>
<clipPath id="clip0_3581_30676">
<rect width="50" height="50" fill="white"/>
</clipPath>
</defs>
</svg>
