<svg width="50" height="50" viewBox="0 0 50 50" fill="none" xmlns="http://www.w3.org/2000/svg">
<path d="M27.5 1.5C23.5 1.5 17 1.5 13 0.5C12.1667 3.16667 10.2 10.1 9 16.5C7.8 22.9 6.83333 40.5 6.5 48.5L24 50L27.5 20L29 50L43 48.5C42.6667 39.5 41.9 20.8 41.5 18C41.1 15.2 38.6667 5.16667 37.5 0.5C35.8333 0.833333 31.5 1.5 27.5 1.5Z" fill="#898989"/>
<path d="M27.5 1.5C23.5 1.5 17 1.5 13 0.5C12.1667 3.16667 10.2 10.1 9 16.5C7.8 22.9 6.83333 40.5 6.5 48.5L24 50L27.5 20L29 50L43 48.5C42.6667 39.5 41.9 20.8 41.5 18C41.1 15.2 38.6667 5.16667 37.5 0.5C35.8333 0.833333 31.5 1.5 27.5 1.5Z" fill="black" fill-opacity="0.4"/>
<path fill-rule="evenodd" clip-rule="evenodd" d="M39.605 9.1719C35.8055 5.34768 30.6623 3 25 3C27.3529 3 32.0588 3.87 32.0588 7.34998C32.0588 11.7 33.8235 12.3214 37.3529 12.3214C38.4018 12.3214 39.5372 12.8438 40.6205 13.5975C40.3192 12.2379 39.9685 10.7163 39.605 9.1719Z" fill="#2FC4A7"/>
<path fill-rule="evenodd" clip-rule="evenodd" d="M39.605 9.1719C35.8055 5.34768 30.6623 3 25 3C27.3529 3 32.0588 3.87 32.0588 7.34998C32.0588 11.7 33.8235 12.3214 37.3529 12.3214C38.4018 12.3214 39.5372 12.8438 40.6205 13.5975C40.3192 12.2379 39.9685 10.7163 39.605 9.1719Z" fill="black" fill-opacity="0.4"/>
<path fill-rule="evenodd" clip-rule="evenodd" d="M28.8121 46.2448C29.1044 45.1964 29.0554 44.1777 28.6651 43.3037L28.8121 46.2448ZM25.0643 40.8763C23.971 40.8865 22.8298 41.3422 21.5895 41.8376C19.2472 42.773 16.5513 43.8497 13.1558 42.3333C10.4616 41.1301 8.50151 39.1009 7.10264 36.8474C7.06014 37.5467 7.01923 38.2395 6.97998 38.922C10.2007 44.8428 15.748 49.0113 22.2054 49.8462L23.8018 49.983C23.8681 49.9858 23.9345 49.9883 24.001 49.9904L25.0643 40.8763Z" fill="#898989"/>
<path fill-rule="evenodd" clip-rule="evenodd" d="M28.8121 46.2448C29.1044 45.1964 29.0554 44.1777 28.6651 43.3037L28.8121 46.2448ZM25.0643 40.8763C23.971 40.8865 22.8298 41.3422 21.5895 41.8376C19.2472 42.773 16.5513 43.8497 13.1558 42.3333C10.4616 41.1301 8.50151 39.1009 7.10264 36.8474C7.06014 37.5467 7.01923 38.2395 6.97998 38.922C10.2007 44.8428 15.748 49.0113 22.2054 49.8462L23.8018 49.983C23.8681 49.9858 23.9345 49.9883 24.001 49.9904L25.0643 40.8763Z" fill="black" fill-opacity="0.2"/>
<path fill-rule="evenodd" clip-rule="evenodd" d="M41.7457 20.8887C41.5479 20.6822 41.3357 20.4872 41.1085 20.3046C37.7611 17.6146 34.021 18.7567 31.1552 19.6318C29.6274 20.0984 28.348 20.4891 27.5091 20.1827L27.7596 25.1921C28.1204 25.066 28.4817 24.9361 28.8423 24.8065C32.4302 23.5172 35.9556 22.2504 38.2553 24.8904C41.6791 28.8212 39.2063 40.6989 38.2553 45C39.8599 42.537 41.4145 39.3372 42.5009 36.0181C42.2533 30.2407 41.9763 24.3885 41.7457 20.8887ZM26.8586 25.4977L27.48 20.1717C27.2229 20.0716 27.0084 19.9037 26.8423 19.6494C26.02 18.3907 26.7776 16.3576 27.5974 14.1578C28.4843 11.7779 29.4439 9.20282 28.5542 7.20213C27.1847 4.12212 19.6141 4.93265 16 5.72291C18.4728 5.34249 22.6221 5.89941 23.9891 9.82261C24.4904 11.2616 22.8821 13.0447 21.1219 14.9961C18.8753 17.4869 16.3814 20.2519 17.7119 22.9251C19.8112 27.1427 23.2576 26.6728 26.8586 25.4977Z" fill="#898989"/>
<path fill-rule="evenodd" clip-rule="evenodd" d="M28.0739 31.4774C29.3077 31.2516 30.6207 31.3565 32.0401 32C36.7668 34.1429 36.3729 44.1429 35.5851 47C37.9484 41.2857 37.4758 29.4286 33.2218 27.7143C31.5696 27.0485 29.7463 27.2791 27.8936 27.8706L28.0739 31.4774ZM26.5243 28.3641C25.6097 28.7265 24.6964 29.1444 23.8014 29.554C21.1086 30.7862 18.5809 31.9429 16.6784 31.2857C12.5425 29.8571 10.1794 25.5714 10.7702 16.2857C11.1754 9.91887 13.1334 5.57143 15.1423 2C13.9761 2.96131 12.4364 5.00244 11.0152 7.57298C10.306 10.3298 9.56736 13.4745 9.00008 16.5C8.53495 18.9807 8.10488 23.1441 7.73315 27.7788C9.02339 32.5919 11.9595 36.0926 16.0875 37C18.1822 37.4604 20.1818 36.0231 22.3207 34.4857C23.5183 33.6249 24.7595 32.7328 26.0855 32.1247L26.5243 28.3641Z" fill="#2FC4A7"/>
<path fill-rule="evenodd" clip-rule="evenodd" d="M28.0739 31.4774C29.3077 31.2516 30.6207 31.3565 32.0401 32C36.7668 34.1429 36.3729 44.1429 35.5851 47C37.9484 41.2857 37.4758 29.4286 33.2218 27.7143C31.5696 27.0485 29.7463 27.2791 27.8936 27.8706L28.0739 31.4774ZM26.5243 28.3641C25.6097 28.7265 24.6964 29.1444 23.8014 29.554C21.1086 30.7862 18.5809 31.9429 16.6784 31.2857C12.5425 29.8571 10.1794 25.5714 10.7702 16.2857C11.1754 9.91887 13.1334 5.57143 15.1423 2C13.9761 2.96131 12.4364 5.00244 11.0152 7.57298C10.306 10.3298 9.56736 13.4745 9.00008 16.5C8.53495 18.9807 8.10488 23.1441 7.73315 27.7788C9.02339 32.5919 11.9595 36.0926 16.0875 37C18.1822 37.4604 20.1818 36.0231 22.3207 34.4857C23.5183 33.6249 24.7595 32.7328 26.0855 32.1247L26.5243 28.3641Z" fill="black" fill-opacity="0.4"/>
<path fill-rule="evenodd" clip-rule="evenodd" d="M27.9043 26.2841C28.1007 26.1657 28.296 26.0477 28.4901 25.9303C32.1484 23.7192 35.3792 21.7665 37.2031 23.1636C41.0248 26.0909 39.2504 39.4727 36.1794 47C40.274 40.7273 41.6389 23.9582 37.459 21.9091C34.6962 20.5547 31.2878 22.4454 27.8254 24.5555L27.9043 26.2841ZM26.6652 25.2658C23.1324 27.4273 19.612 29.4662 16.7299 28.1818C10.7037 25.4962 10.0761 14.3818 15.365 1C15.2617 1.20251 15.157 1.40618 15.0514 1.61168C13.4126 4.80107 11.547 8.43169 11.0997 15.0091C10.5026 23.7909 12.6352 29.0879 16.218 30.0636C19.3442 30.915 23.0094 29.1531 26.4656 27.1391L26.6652 25.2658Z" fill="#2FC4A7"/>
<path d="M14 3C12.8333 6.33333 12 13.5 11 19.5C9.88015 26.2191 9.5 41.6667 9 48.5" stroke="#2FC4A7"/>
<path d="M14 3C12.8333 6.33333 12 13.5 11 19.5C9.88015 26.2191 9.5 41.6667 9 48.5" stroke="white" stroke-opacity="0.2"/>
<path d="M6.5 49V45.5L24.5 47L24 50L6.5 49Z" fill="#2FC4A7"/>
<path d="M6.5 49V45.5L24.5 47L24 50L6.5 49Z" fill="white" fill-opacity="0.2"/>
<path d="M43 45.5L29 47V50L43 48.5V45.5Z" fill="#2FC4A7"/>
<path d="M43 45.5L29 47V50L43 48.5V45.5Z" fill="white" fill-opacity="0.2"/>
<path d="M28 1.5C23.2831 1.5 19 1.5 13 0.5L12.3 3C17.9599 3.76894 23.8646 4 28 4C31.9505 4 35.6416 3.5 38 3L37.5 0.5C34.6699 1 32.717 1.5 28 1.5Z" fill="#2FC4A7"/>
<path d="M28 1.5C23.2831 1.5 19 1.5 13 0.5L12.3 3C17.9599 3.76894 23.8646 4 28 4C31.9505 4 35.6416 3.5 38 3L37.5 0.5C34.6699 1 32.717 1.5 28 1.5Z" fill="white" fill-opacity="0.2"/>
</svg>
