<svg width="50" height="50" viewBox="0 0 50 50" fill="none" xmlns="http://www.w3.org/2000/svg">
<g clip-path="url(#clip0_4539_6794)">
<path d="M9.73684 2.01379H40V5.01379L41 7.01379H45V48.0138H11.3158C10.7895 48.0138 8.15789 48.0138 6.57895 46.4456C5 44.8774 5 43.3092 5 42.7865V6.71834C5 5.67288 5.73684 4.41834 6.57895 3.58198C7.42105 2.74561 8.68421 2.01379 9.73684 2.01379Z" fill="#1D8CE0"/>
<path d="M43 9L40 5V40.0312H38L43 46V9Z" fill="#898989"/>
<path d="M43 9L40 5V40.0312H38L43 46V9Z" fill="white" fill-opacity="0.2"/>
<path d="M10.093 40H38.0001L43.0001 46H10.093C9.58856 46 6.97412 45.0823 6.97412 42.8406C6.97412 40.599 9.58856 40 10.093 40Z" fill="#898989"/>
<path d="M10.093 40H38.0001L43.0001 46H10.093C9.58856 46 6.97412 45.0823 6.97412 42.8406C6.97412 40.599 9.58856 40 10.093 40Z" fill="white" fill-opacity="0.6"/>
<path d="M37.0812 23.5575C34.9312 22.7488 32.2801 22.6001 29.9967 23.4743L23.1033 27.2889C23.4981 28.549 24.7687 31.2879 26.6931 32.1624C28.6174 33.037 29.1455 31.7332 29.169 30.9719C30.0963 31.9482 31.7741 32.7463 32.9084 32.0974C33.8126 31.5802 33.274 29.9814 32.7085 29.57C33.7297 30.1627 35.9335 30.5623 36.4921 29.4614C36.8738 28.7092 36.3594 27.1934 34.9932 26.6715C35.4969 26.746 36.302 27.0419 37.7201 26.7601C39.4926 26.4077 39.6401 24.5201 37.0812 23.5575Z" fill="#1D8CE0"/>
<path d="M37.0812 23.5575C34.9312 22.7488 32.2801 22.6001 29.9967 23.4743L23.1033 27.2889C23.4981 28.549 24.7687 31.2879 26.6931 32.1624C28.6174 33.037 29.1455 31.7332 29.169 30.9719C30.0963 31.9482 31.7741 32.7463 32.9084 32.0974C33.8126 31.5802 33.274 29.9814 32.7085 29.57C33.7297 30.1627 35.9335 30.5623 36.4921 29.4614C36.8738 28.7092 36.3594 27.1934 34.9932 26.6715C35.4969 26.746 36.302 27.0419 37.7201 26.7601C39.4926 26.4077 39.6401 24.5201 37.0812 23.5575Z" fill="white" fill-opacity="0.8"/>
<path d="M11.3746 10.7196C13.3755 11.9232 14.7035 13.2587 15.7114 15.6208L17.766 23.8184C16.5663 24.5475 13.6687 25.8267 11.6758 25.1105C9.68288 24.3943 10.2658 22.9462 10.8064 22.3117C9.33699 22.3145 7.5595 21.6818 7.5598 20.2895C7.5601 18.8973 8.64544 18.4685 9.34405 18.5538C8.04196 17.9495 6.36001 16.84 7.32001 15.24C7.96077 14.1721 8.92001 14.28 9.859 14.5121C9.45044 14.1995 8.05076 13.2713 7.5755 11.9342C6.98298 10.2672 8.71946 9.12237 11.3746 10.7196Z" fill="#1D8CE0"/>
<path d="M11.3746 10.7196C13.3755 11.9232 14.7035 13.2587 15.7114 15.6208L17.766 23.8184C16.5663 24.5475 13.6687 25.8267 11.6758 25.1105C9.68288 24.3943 10.2658 22.9462 10.8064 22.3117C9.33699 22.3145 7.5595 21.6818 7.5598 20.2895C7.5601 18.8973 8.64544 18.4685 9.34405 18.5538C8.04196 17.9495 6.36001 16.84 7.32001 15.24C7.96077 14.1721 8.92001 14.28 9.859 14.5121C9.45044 14.1995 8.05076 13.2713 7.5755 11.9342C6.98298 10.2672 8.71946 9.12237 11.3746 10.7196Z" fill="white" fill-opacity="0.8"/>
<path d="M15.3877 14.1853C20.6737 10.5159 22.0421 17.4625 22.0656 21.3944C25.2323 18.4228 31.3789 15.9141 32.4015 21.7958C33.4241 27.6775 23.0201 32.3323 17.1183 32.8881C14.3389 28.1828 10.1018 17.8547 15.3877 14.1853Z" fill="#1D8CE0"/>
<path d="M15.3877 14.1853C20.6737 10.5159 22.0421 17.4625 22.0656 21.3944C25.2323 18.4228 31.3789 15.9141 32.4015 21.7958C33.4241 27.6775 23.0201 32.3323 17.1183 32.8881C14.3389 28.1828 10.1018 17.8547 15.3877 14.1853Z" fill="white" fill-opacity="0.6"/>
<path d="M18.2731 17.446C18.963 16.8641 20.0235 16.4417 19.0696 15.5916C18.1156 14.7416 16.8994 15.5364 16.2092 16.1182C15.3363 16.854 14.5104 18.0236 15.463 18.8731C16.733 20.0056 17.5831 18.0279 18.2731 17.446Z" fill="#FEFEFE"/>
<path d="M16.6788 21.0172C16.2781 20.6106 15.4738 20.2011 15.0672 20.6018C14.6601 21.0025 14.3303 21.8883 14.651 22.2133C15.0523 22.6199 15.6871 23.1949 16.2626 22.6288C16.6699 22.2282 16.9621 21.3047 16.6788 21.0172Z" fill="#FEFEFE"/>
<path d="M31.3404 14.3012C31.0676 14.7738 30.4019 15.1154 29.3128 15.0974C28.2485 15.0798 26.9278 14.7096 25.6264 13.9583C24.3249 13.2069 23.344 12.2482 22.7966 11.3353C22.2365 10.401 22.1995 9.65383 22.4723 9.18125C22.7452 8.70867 23.4108 8.36713 24.4999 8.3851C25.5642 8.40266 26.8849 8.77284 28.1864 9.52422C29.4878 10.2756 30.4687 11.2343 31.0161 12.1472C31.5762 13.0814 31.6133 13.8287 31.3404 14.3012Z" stroke="#1D8CE0" stroke-width="1.28"/>
<path d="M31.3404 14.3012C31.0676 14.7738 30.4019 15.1154 29.3128 15.0974C28.2485 15.0798 26.9278 14.7096 25.6264 13.9583C24.3249 13.2069 23.344 12.2482 22.7966 11.3353C22.2365 10.401 22.1995 9.65383 22.4723 9.18125C22.7452 8.70867 23.4108 8.36713 24.4999 8.3851C25.5642 8.40266 26.8849 8.77284 28.1864 9.52422C29.4878 10.2756 30.4687 11.2343 31.0161 12.1472C31.5762 13.0814 31.6133 13.8287 31.3404 14.3012Z" stroke="white" stroke-opacity="0.95" stroke-width="1.28"/>
</g>
<defs>
<clipPath id="clip0_4539_6794">
<rect width="50" height="50" fill="white" transform="matrix(-1 0 0 1 50 0)"/>
</clipPath>
</defs>
</svg>
