<svg width="50" height="50" viewBox="0 0 50 50" fill="none" xmlns="http://www.w3.org/2000/svg">
<path d="M9.54333 27.3171C8.48755 24.7665 9.06421 23.5064 9.22311 21.2829C8.63996 22.3849 7.09561 25.6296 8.53611 29.3415C10.3367 33.9812 15.8687 37.0479 21.9421 38.6833C28.0155 40.3187 35.9765 39.7132 38.7527 37.439C40.9736 35.6197 41.7376 31.1713 41.6146 30.005C40.7398 31.6581 40.6349 33.7908 38.2491 35.4146C34.8811 37.707 28.8902 38.6657 22.4119 36.9213C15.9337 35.1768 10.8631 30.5053 9.54333 27.3171Z" fill="#898989"/>
<path fill-rule="evenodd" clip-rule="evenodd" d="M21.9851 39.0225C32.1941 41.7715 41.82 38.9375 43.4851 32.6926C45.1502 26.4477 38.2239 19.1567 28.0149 16.4077C17.8059 13.6587 8.17999 16.4927 6.51491 22.7376C4.84982 28.9825 11.7761 36.2735 21.9851 39.0225ZM22.1197 38.5175C30.9971 40.9079 39.3675 38.4436 40.8154 33.0133C42.2633 27.5829 36.2405 21.2429 27.363 18.8525C18.4856 16.462 10.1153 18.9263 8.66739 24.3567C7.21948 29.787 13.2423 36.127 22.1197 38.5175Z" fill="#898989"/>
<path fill-rule="evenodd" clip-rule="evenodd" d="M21.9851 39.0225C32.1941 41.7715 41.82 38.9375 43.4851 32.6926C45.1502 26.4477 38.2239 19.1567 28.0149 16.4077C17.8059 13.6587 8.17999 16.4927 6.51491 22.7376C4.84982 28.9825 11.7761 36.2735 21.9851 39.0225ZM22.1197 38.5175C30.9971 40.9079 39.3675 38.4436 40.8154 33.0133C42.2633 27.5829 36.2405 21.2429 27.363 18.8525C18.4856 16.462 10.1153 18.9263 8.66739 24.3567C7.21948 29.787 13.2423 36.127 22.1197 38.5175Z" fill="white" fill-opacity="0.6"/>
<path d="M35.1395 22.3392C34.0189 26.5216 29.7199 29.0036 25.5375 27.8829C21.3552 26.7623 18.8732 22.4633 19.9938 18.2809C21.1145 14.0986 29.6735 8.12 30.7553 8.40988C31.8372 8.69976 36.2602 18.1569 35.1395 22.3392Z" fill="#FAA21E"/>
<path d="M35.1395 22.3392C34.0189 26.5216 29.7199 29.0036 25.5375 27.8829C21.3552 26.7623 18.8732 22.4633 19.9938 18.2809C21.1145 14.0986 29.6735 8.12 30.7553 8.40988C31.8372 8.69976 36.2602 18.1569 35.1395 22.3392Z" fill="black" fill-opacity="0.1"/>
<path d="M33.5959 19.4456C32.6931 22.8147 29.1763 24.7997 25.7407 23.8791C22.3052 22.9586 20.7929 19.6261 21.6957 16.2569C22.5984 12.8878 29.8667 8.1718 30.7553 8.40992C31.644 8.64803 34.4986 16.0764 33.5959 19.4456Z" fill="#FAA21E"/>
<path d="M33.5959 19.4456C32.6931 22.8147 29.1763 24.7997 25.7407 23.8791C22.3052 22.9586 20.7929 19.6261 21.6957 16.2569C22.5984 12.8878 29.8667 8.1718 30.7553 8.40992C31.644 8.64803 34.4986 16.0764 33.5959 19.4456Z" fill="#FEFEFE" fill-opacity="0.15"/>
<path d="M32.3871 16.384C31.7334 18.8237 29.0197 20.1197 26.6298 19.4793C24.2398 18.8389 23.4216 16.3067 24.0753 13.8669C24.729 11.4272 30.1371 8.24427 30.7553 8.40992C31.3735 8.57556 33.0408 13.9442 32.3871 16.384Z" fill="#FAA21E"/>
<path d="M32.3871 16.384C31.7334 18.8237 29.0197 20.1197 26.6298 19.4793C24.2398 18.8389 23.4216 16.3067 24.0753 13.8669C24.729 11.4272 30.1371 8.24427 30.7553 8.40992C31.3735 8.57556 33.0408 13.9442 32.3871 16.384Z" fill="white" fill-opacity="0.4"/>
<ellipse cx="28.8548" cy="11.545" rx="1.96" ry="1.4" transform="rotate(-34.6784 28.8548 11.545)" fill="#FEFEFE"/>
<circle cx="25.7754" cy="14.0397" r="0.84" transform="rotate(-11.5419 25.7754 14.0397)" fill="#FEFEFE"/>
</svg>
