<svg width="50" height="50" viewBox="0 0 50 50" fill="none" xmlns="http://www.w3.org/2000/svg">
<path d="M9.54333 27.3171C8.48755 24.7665 9.06421 23.5064 9.22311 21.2829C8.63996 22.3849 7.09561 25.6296 8.53611 29.3415C10.3367 33.9812 15.8687 37.0479 21.9421 38.6833C28.0155 40.3187 35.9765 39.7132 38.7527 37.439C40.9736 35.6197 41.7376 31.1713 41.6146 30.005C40.7398 31.6581 40.6349 33.7908 38.2491 35.4146C34.8811 37.707 28.8902 38.6657 22.4119 36.9213C15.9337 35.1768 10.8631 30.5053 9.54333 27.3171Z" fill="#898989"/>
<path fill-rule="evenodd" clip-rule="evenodd" d="M21.9851 39.0225C32.1941 41.7715 41.82 38.9375 43.4851 32.6926C45.1501 26.4477 38.2239 19.1567 28.0149 16.4077C17.8058 13.6587 8.17996 16.4927 6.51488 22.7376C4.84979 28.9825 11.776 36.2735 21.9851 39.0225ZM22.1197 38.5175C30.9971 40.9079 39.3674 38.4436 40.8153 33.0133C42.2632 27.5829 36.2404 21.2429 27.363 18.8525C18.4856 16.462 10.1153 18.9263 8.66736 24.3567C7.21945 29.787 13.2423 36.127 22.1197 38.5175Z" fill="#898989"/>
<path fill-rule="evenodd" clip-rule="evenodd" d="M21.9851 39.0225C32.1941 41.7715 41.82 38.9375 43.4851 32.6926C45.1501 26.4477 38.2239 19.1567 28.0149 16.4077C17.8058 13.6587 8.17996 16.4927 6.51488 22.7376C4.84979 28.9825 11.776 36.2735 21.9851 39.0225ZM22.1197 38.5175C30.9971 40.9079 39.3674 38.4436 40.8153 33.0133C42.2632 27.5829 36.2404 21.2429 27.363 18.8525C18.4856 16.462 10.1153 18.9263 8.66736 24.3567C7.21945 29.787 13.2423 36.127 22.1197 38.5175Z" fill="white" fill-opacity="0.6"/>
<path d="M25.653 27.0904C31.4174 27.0904 36.0904 22.6286 36.0904 17.1246C36.0904 13.0836 33.5713 9.60426 29.9508 8.04023C29.0298 7.64235 28.7228 8.03826 29.0298 9.21067C29.2825 10.1758 30.67 15.2182 27.9072 18.4424C24.9399 21.9051 18.0709 21.6904 17.4569 21.6904C16.8906 21.6904 16.6458 22.2454 17.2115 22.9868C19.1093 25.474 22.1835 27.0904 25.653 27.0904Z" fill="#1D8CE0"/>
<path d="M25.653 27.0904C31.4174 27.0904 36.0904 22.6286 36.0904 17.1246C36.0904 13.0836 33.5713 9.60426 29.9508 8.04023C29.0298 7.64235 28.7228 8.03826 29.0298 9.21067C29.2825 10.1758 30.67 15.2182 27.9072 18.4424C24.9399 21.9051 18.0709 21.6904 17.4569 21.6904C16.8906 21.6904 16.6458 22.2454 17.2115 22.9868C19.1093 25.474 22.1835 27.0904 25.653 27.0904Z" fill="white" fill-opacity="0.4"/>
<path d="M33.0904 15.6903C32.6502 12.1693 29.9754 9.29849 29.1904 9.69029C29.452 11.3883 30.4624 15.577 27.6904 18.6903C24.8467 21.884 19.4754 21.4552 18.6904 21.6903C18.9904 22.5903 20.1904 24.6903 24.9904 24.6903C29.7904 24.6903 33.6904 20.4903 33.0904 15.6903Z" fill="#1D8CE0"/>
<path d="M33.0904 15.6903C32.6502 12.1693 29.9754 9.29849 29.1904 9.69029C29.452 11.3883 30.4624 15.577 27.6904 18.6903C24.8467 21.884 19.4754 21.4552 18.6904 21.6903C18.9904 22.5903 20.1904 24.6903 24.9904 24.6903C29.7904 24.6903 33.6904 20.4903 33.0904 15.6903Z" fill="white" fill-opacity="0.2"/>
<path d="M30.9904 16.2904C31.2904 13.5904 30.0904 11.1904 29.4904 11.4904C29.6904 12.7904 29.809 16.3069 27.6904 18.6904C25.5169 21.1355 21.0904 21.3904 20.4904 21.5704C20.4904 22.1704 22.8994 22.8286 25.5904 22.2904C28.2813 21.7522 30.657 19.2904 30.9904 16.2904Z" fill="#1D8CE0"/>
<path d="M34.588 13.3579C35.1165 14.3892 35.2053 15.529 34.8904 15.6904C34.5754 15.8518 34.2189 14.9217 33.6904 13.8904C33.1619 12.859 32.7457 11.944 33.0607 11.7826C33.3757 11.6212 34.0594 12.3265 34.588 13.3579Z" fill="#FEFEFE"/>
<ellipse cx="35.0132" cy="17.1995" rx="0.486296" ry="0.759493" transform="rotate(0.2192 35.0132 17.1995)" fill="#FEFEFE"/>
<ellipse cx="18.4018" cy="22.9396" rx="0.497215" ry="0.731515" transform="rotate(132.305 18.4018 22.9396)" fill="#FEFEFE"/>
</svg>
