<svg width="50" height="50" viewBox="0 0 50 50" fill="none" xmlns="http://www.w3.org/2000/svg">
<path d="M9.54333 27.3171C8.48755 24.7665 9.06421 23.5064 9.22311 21.2829C8.63996 22.3849 7.09561 25.6296 8.53611 29.3415C10.3367 33.9812 15.8687 37.0479 21.9421 38.6833C28.0155 40.3187 35.9765 39.7132 38.7527 37.439C40.9736 35.6197 41.7376 31.1713 41.6146 30.005C40.7398 31.6581 40.6349 33.7908 38.2491 35.4146C34.8811 37.707 28.8902 38.6657 22.4119 36.9213C15.9337 35.1768 10.8631 30.5053 9.54333 27.3171Z" fill="#898989"/>
<path fill-rule="evenodd" clip-rule="evenodd" d="M21.9851 39.0225C32.1941 41.7715 41.82 38.9375 43.4851 32.6926C45.1501 26.4477 38.2239 19.1567 28.0149 16.4077C17.8058 13.6587 8.17996 16.4927 6.51488 22.7376C4.84979 28.9825 11.776 36.2735 21.9851 39.0225ZM22.1197 38.5175C30.9971 40.9079 39.3674 38.4436 40.8153 33.0133C42.2632 27.5829 36.2404 21.2429 27.363 18.8525C18.4856 16.462 10.1153 18.9263 8.66736 24.3567C7.21945 29.787 13.2423 36.127 22.1197 38.5175Z" fill="#898989"/>
<path fill-rule="evenodd" clip-rule="evenodd" d="M21.9851 39.0225C32.1941 41.7715 41.82 38.9375 43.4851 32.6926C45.1501 26.4477 38.2239 19.1567 28.0149 16.4077C17.8058 13.6587 8.17996 16.4927 6.51488 22.7376C4.84979 28.9825 11.776 36.2735 21.9851 39.0225ZM22.1197 38.5175C30.9971 40.9079 39.3674 38.4436 40.8153 33.0133C42.2632 27.5829 36.2404 21.2429 27.363 18.8525C18.4856 16.462 10.1153 18.9263 8.66736 24.3567C7.21945 29.787 13.2423 36.127 22.1197 38.5175Z" fill="white" fill-opacity="0.6"/>
<path d="M25.515 15.1212L32.4697 16.9847L31.1664 7.93922L25.515 15.1212Z" fill="#7445B8"/>
<path d="M32.4697 16.9847L37.0645 20.7006L31.1664 7.93919L32.4697 16.9847Z" fill="#7445B8"/>
<path d="M32.4697 16.9847L37.0645 20.7006L31.1664 7.93919L32.4697 16.9847Z" fill="white" fill-opacity="0.6"/>
<path d="M25.515 15.1211L19.6779 16.0417L31.1664 7.93912L25.515 15.1211Z" fill="#7445B8"/>
<path d="M25.515 15.1211L19.6779 16.0417L31.1664 7.93912L25.515 15.1211Z" fill="white" fill-opacity="0.2"/>
<path d="M37.0645 20.7006L25.576 28.8032L32.4697 16.9847L37.0645 20.7006Z" fill="#7445B8"/>
<path d="M19.6779 16.0419L25.576 28.8032L25.515 15.1213L19.6779 16.0419Z" fill="#7445B8"/>
<path d="M19.6779 16.0419L25.576 28.8032L25.515 15.1213L19.6779 16.0419Z" fill="white" fill-opacity="0.4"/>
<path d="M25.515 15.1213L32.4697 16.9848L25.576 28.8032L25.515 15.1213Z" fill="#7445B8"/>
<path d="M25.515 15.1213L32.4697 16.9848L25.576 28.8032L25.515 15.1213Z" fill="white" fill-opacity="0.2"/>
<path d="M19.6779 16.0419L31.1664 7.93921C29.9865 8.86536 22.2595 14.5207 22.1722 14.8467C22.0945 15.1364 23.6987 14.9451 25.515 15.1213L19.6779 16.0419Z" fill="#7445B8"/>
<path d="M19.6779 16.0419L31.1664 7.93921C29.9865 8.86536 22.2595 14.5207 22.1722 14.8467C22.0945 15.1364 23.6987 14.9451 25.515 15.1213L19.6779 16.0419Z" fill="white" fill-opacity="0.95"/>
</svg>
