<svg width="50" height="50" viewBox="0 0 50 50" fill="none" xmlns="http://www.w3.org/2000/svg">
<path d="M9.54333 27.3171C8.48755 24.7665 9.06421 23.5064 9.22311 21.2829C8.63996 22.3849 7.09561 25.6296 8.53611 29.3415C10.3367 33.9812 15.8687 37.0479 21.9421 38.6833C28.0155 40.3187 35.9765 39.7132 38.7527 37.439C40.9736 35.6197 41.7376 31.1713 41.6146 30.005C40.7398 31.6581 40.6349 33.7908 38.2491 35.4146C34.8811 37.707 28.8902 38.6657 22.4119 36.9213C15.9337 35.1768 10.8631 30.5053 9.54333 27.3171Z" fill="#898989"/>
<path fill-rule="evenodd" clip-rule="evenodd" d="M21.9851 39.0225C32.1941 41.7715 41.82 38.9375 43.4851 32.6926C45.1501 26.4477 38.2239 19.1567 28.0149 16.4077C17.8058 13.6587 8.17996 16.4927 6.51488 22.7376C4.84979 28.9825 11.776 36.2735 21.9851 39.0225ZM22.1197 38.5175C30.9971 40.9079 39.3674 38.4436 40.8153 33.0133C42.2632 27.5829 36.2404 21.2429 27.363 18.8525C18.4856 16.462 10.1153 18.9263 8.66736 24.3567C7.21945 29.787 13.2423 36.127 22.1197 38.5175Z" fill="#898989"/>
<path fill-rule="evenodd" clip-rule="evenodd" d="M21.9851 39.0225C32.1941 41.7715 41.82 38.9375 43.4851 32.6926C45.1501 26.4477 38.2239 19.1567 28.0149 16.4077C17.8058 13.6587 8.17996 16.4927 6.51488 22.7376C4.84979 28.9825 11.776 36.2735 21.9851 39.0225ZM22.1197 38.5175C30.9971 40.9079 39.3674 38.4436 40.8153 33.0133C42.2632 27.5829 36.2404 21.2429 27.363 18.8525C18.4856 16.462 10.1153 18.9263 8.66736 24.3567C7.21945 29.787 13.2423 36.127 22.1197 38.5175Z" fill="white" fill-opacity="0.6"/>
<path d="M26.4615 7.96611C26.6813 7.51898 27.3187 7.51898 27.5385 7.96611L28.6742 10.2771C28.8344 10.603 29.2451 10.713 29.5467 10.5108L31.6858 9.0774C32.0997 8.80005 32.6518 9.11877 32.6185 9.61587L32.4466 12.1851C32.4224 12.5474 32.723 12.8481 33.0854 12.8238L35.6546 12.652C36.1517 12.6187 36.4704 13.1708 36.1931 13.5846L34.7596 15.7237C34.5575 16.0254 34.6675 16.4361 34.9934 16.5962L37.3043 17.732C37.7515 17.9518 37.7515 18.5892 37.3043 18.809L34.9934 19.9447C34.6675 20.1049 34.5575 20.5156 34.7596 20.8172L36.1931 22.9563C36.4704 23.3702 36.1517 23.9223 35.6546 23.889L33.0854 23.7172C32.723 23.6929 32.4224 23.9935 32.4466 24.3559L32.6185 26.9251C32.6518 27.4222 32.0997 27.7409 31.6858 27.4636L29.5467 26.0301C29.2451 25.828 28.8344 25.938 28.6742 26.2639L27.5385 28.5749C27.3187 29.022 26.6813 29.022 26.4615 28.5749L25.3257 26.2639C25.1655 25.938 24.7549 25.828 24.4532 26.0301L22.3141 27.4636C21.9002 27.7409 21.3482 27.4222 21.3815 26.9251L21.5533 24.3559C21.5775 23.9935 21.2769 23.6929 20.9146 23.7172L18.3454 23.889C17.8483 23.9223 17.5295 23.3702 17.8069 22.9563L19.2403 20.8172C19.4425 20.5156 19.3324 20.1049 19.0066 19.9447L16.6956 18.809C16.2485 18.5892 16.2485 17.9518 16.6956 17.732L19.0066 16.5962C19.3324 16.4361 19.4425 16.0254 19.2403 15.7237L17.8069 13.5846C17.5295 13.1708 17.8483 12.6187 18.3454 12.652L20.9146 12.8238C21.2769 12.8481 21.5775 12.5474 21.5533 12.1851L21.3815 9.61587C21.3482 9.11877 21.9002 8.80005 22.3141 9.0774L24.4532 10.5108C24.7549 10.713 25.1655 10.603 25.3257 10.2771L26.4615 7.96611Z" fill="#FAA21E"/>
<path d="M26.4615 7.96611C26.6813 7.51898 27.3187 7.51898 27.5385 7.96611L28.6742 10.2771C28.8344 10.603 29.2451 10.713 29.5467 10.5108L31.6858 9.0774C32.0997 8.80005 32.6518 9.11877 32.6185 9.61587L32.4466 12.1851C32.4224 12.5474 32.723 12.8481 33.0854 12.8238L35.6546 12.652C36.1517 12.6187 36.4704 13.1708 36.1931 13.5846L34.7596 15.7237C34.5575 16.0254 34.6675 16.4361 34.9934 16.5962L37.3043 17.732C37.7515 17.9518 37.7515 18.5892 37.3043 18.809L34.9934 19.9447C34.6675 20.1049 34.5575 20.5156 34.7596 20.8172L36.1931 22.9563C36.4704 23.3702 36.1517 23.9223 35.6546 23.889L33.0854 23.7172C32.723 23.6929 32.4224 23.9935 32.4466 24.3559L32.6185 26.9251C32.6518 27.4222 32.0997 27.7409 31.6858 27.4636L29.5467 26.0301C29.2451 25.828 28.8344 25.938 28.6742 26.2639L27.5385 28.5749C27.3187 29.022 26.6813 29.022 26.4615 28.5749L25.3257 26.2639C25.1655 25.938 24.7549 25.828 24.4532 26.0301L22.3141 27.4636C21.9002 27.7409 21.3482 27.4222 21.3815 26.9251L21.5533 24.3559C21.5775 23.9935 21.2769 23.6929 20.9146 23.7172L18.3454 23.889C17.8483 23.9223 17.5295 23.3702 17.8069 22.9563L19.2403 20.8172C19.4425 20.5156 19.3324 20.1049 19.0066 19.9447L16.6956 18.809C16.2485 18.5892 16.2485 17.9518 16.6956 17.732L19.0066 16.5962C19.3324 16.4361 19.4425 16.0254 19.2403 15.7237L17.8069 13.5846C17.5295 13.1708 17.8483 12.6187 18.3454 12.652L20.9146 12.8238C21.2769 12.8481 21.5775 12.5474 21.5533 12.1851L21.3815 9.61587C21.3482 9.11877 21.9002 8.80005 22.3141 9.0774L24.4532 10.5108C24.7549 10.713 25.1655 10.603 25.3257 10.2771L26.4615 7.96611Z" fill="white" fill-opacity="0.6"/>
<path d="M31.8657 9.14444L28.9075 11.7919C28.8057 11.883 28.8385 12.0497 28.9671 12.0956L30.1584 12.5201C30.2404 12.5493 30.3315 12.5157 30.3749 12.4402L32.1418 9.36831C32.2437 9.19105 32.0181 9.00806 31.8657 9.14444Z" fill="#FAA21E"/>
<path d="M31.8657 9.14444L28.9075 11.7919C28.8057 11.883 28.8385 12.0497 28.9671 12.0956L30.1584 12.5201C30.2404 12.5493 30.3315 12.5157 30.3749 12.4402L32.1418 9.36831C32.2437 9.19105 32.0181 9.00806 31.8657 9.14444Z" fill="white" fill-opacity="0.4"/>
<path d="M35.6681 12.8227L31.9988 13.5911C31.8449 13.6233 31.8034 13.8234 31.9316 13.9142L32.9086 14.6058C32.9645 14.6454 33.0381 14.6498 33.0984 14.6171L35.7908 13.1571C35.9732 13.0582 35.8711 12.7802 35.6681 12.8227Z" fill="#FAA21E"/>
<path d="M35.6681 12.8227L31.9988 13.5911C31.8449 13.6233 31.8034 13.8234 31.9316 13.9142L32.9086 14.6058C32.9645 14.6454 33.0381 14.6498 33.0984 14.6171L35.7908 13.1571C35.9732 13.0582 35.8711 12.7802 35.6681 12.8227Z" fill="white" fill-opacity="0.4"/>
<path d="M37.3306 17.9195L33.5672 16.6841C33.4368 16.6413 33.3084 16.7543 33.3343 16.8891L33.5719 18.1245C33.5882 18.2092 33.6624 18.2705 33.7487 18.2705H37.2745C37.4792 18.2705 37.5251 17.9833 37.3306 17.9195Z" fill="#FAA21E"/>
<path d="M37.3306 17.9195L33.5672 16.6841C33.4368 16.6413 33.3084 16.7543 33.3343 16.8891L33.5719 18.1245C33.5882 18.2092 33.6624 18.2705 33.7487 18.2705H37.2745C37.4792 18.2705 37.5251 17.9833 37.3306 17.9195Z" fill="white" fill-opacity="0.4"/>
<path d="M36.0389 23.0389L33.5253 20.2302C33.4248 20.1179 33.2391 20.1714 33.2137 20.3199L33.0204 21.451C33.0081 21.5232 33.0407 21.5957 33.103 21.6343L35.8099 23.3119C35.9867 23.4214 36.1776 23.1938 36.0389 23.0389Z" fill="#FAA21E"/>
<path d="M36.0389 23.0389L33.5253 20.2302C33.4248 20.1179 33.2391 20.1714 33.2137 20.3199L33.0204 21.451C33.0081 21.5232 33.0407 21.5957 33.103 21.6343L35.8099 23.3119C35.9867 23.4214 36.1776 23.1938 36.0389 23.0389Z" fill="white" fill-opacity="0.4"/>
<path d="M32.4681 27.0358L31.657 23.1623C31.6289 23.0285 31.4679 22.9736 31.3639 23.0623L30.4137 23.8734C30.3478 23.9297 30.3313 24.0249 30.3745 24.1001L32.1359 27.1624C32.238 27.34 32.5101 27.2363 32.4681 27.0358Z" fill="#FAA21E"/>
<path d="M32.4681 27.0358L31.657 23.1623C31.6289 23.0285 31.4679 22.9736 31.3639 23.0623L30.4137 23.8734C30.3478 23.9297 30.3313 24.0249 30.3745 24.1001L32.1359 27.1624C32.238 27.34 32.5101 27.2363 32.4681 27.0358Z" fill="white" fill-opacity="0.4"/>
<path d="M27.351 28.6011L28.5654 24.9017C28.6124 24.7585 28.4731 24.6244 28.3318 24.6768L27.1174 25.127C27.0468 25.1531 27 25.2204 27 25.2957V28.545C27 28.7497 27.2872 28.7956 27.351 28.6011Z" fill="#FAA21E"/>
<path d="M27.351 28.6011L28.5654 24.9017C28.6124 24.7585 28.4731 24.6244 28.3318 24.6768L27.1174 25.127C27.0468 25.1531 27 25.2204 27 25.2957V28.545C27 28.7497 27.2872 28.7956 27.351 28.6011Z" fill="white" fill-opacity="0.4"/>
<path d="M22.3577 27.1966L24.9672 24.8612C25.0903 24.751 25.0123 24.5471 24.8471 24.5471H23.7963C23.7361 24.5471 23.6799 24.5771 23.6465 24.6271L22.0879 26.9625C21.9705 27.1384 22.2001 27.3376 22.3577 27.1966Z" fill="#FAA21E"/>
<path d="M22.3577 27.1966L24.9672 24.8612C25.0903 24.751 25.0123 24.5471 24.8471 24.5471H23.7963C23.7361 24.5471 23.6799 24.5771 23.6465 24.6271L22.0879 26.9625C21.9705 27.1384 22.2001 27.3376 22.3577 27.1966Z" fill="white" fill-opacity="0.4"/>
<path d="M18.3319 23.7182L22.0012 22.9499C22.155 22.9177 22.1966 22.7176 22.0683 22.6268L21.0914 21.9352C21.0354 21.8956 20.9618 21.8912 20.9016 21.9239L18.2092 23.3838C18.0268 23.4827 18.1288 23.7608 18.3319 23.7182Z" fill="#FAA21E"/>
<path d="M18.3319 23.7182L22.0012 22.9499C22.155 22.9177 22.1966 22.7176 22.0683 22.6268L21.0914 21.9352C21.0354 21.8956 20.9618 21.8912 20.9016 21.9239L18.2092 23.3838C18.0268 23.4827 18.1288 23.7608 18.3319 23.7182Z" fill="white" fill-opacity="0.4"/>
<path d="M16.6693 18.6215L20.3687 19.8359C20.5119 19.8829 20.646 19.7436 20.5937 19.6023L20.1435 18.3879C20.1173 18.3173 20.05 18.2705 19.9747 18.2705H16.7255C16.5208 18.2705 16.4749 18.5577 16.6693 18.6215Z" fill="#FAA21E"/>
<path d="M16.6693 18.6215L20.3687 19.8359C20.5119 19.8829 20.646 19.7436 20.5937 19.6023L20.1435 18.3879C20.1173 18.3173 20.05 18.2705 19.9747 18.2705H16.7255C16.5208 18.2705 16.4749 18.5577 16.6693 18.6215Z" fill="white" fill-opacity="0.4"/>
<path d="M17.8185 13.3428L20.4662 16.3012C20.5681 16.4151 20.7566 16.3582 20.7784 16.2069L20.9821 14.7946C20.9928 14.72 20.956 14.6466 20.8897 14.6107L18.0384 13.0646C17.8609 12.9683 17.6839 13.1924 17.8185 13.3428Z" fill="#FAA21E"/>
<path d="M17.8185 13.3428L20.4662 16.3012C20.5681 16.4151 20.7566 16.3582 20.7784 16.2069L20.9821 14.7946C20.9928 14.72 20.956 14.6466 20.8897 14.6107L18.0384 13.0646C17.8609 12.9683 17.6839 13.1924 17.8185 13.3428Z" fill="white" fill-opacity="0.4"/>
<path d="M21.5522 9.60236L22.3206 13.2717C22.3528 13.4255 22.5529 13.4671 22.6437 13.3388L23.3353 12.3619C23.3749 12.3059 23.3793 12.2323 23.3466 12.1721L21.8866 9.47967C21.7877 9.2973 21.5097 9.39931 21.5522 9.60236Z" fill="#FAA21E"/>
<path d="M21.5522 9.60236L22.3206 13.2717C22.3528 13.4255 22.5529 13.4671 22.6437 13.3388L23.3353 12.3619C23.3749 12.3059 23.3793 12.2323 23.3466 12.1721L21.8866 9.47967C21.7877 9.2973 21.5097 9.39931 21.5522 9.60236Z" fill="white" fill-opacity="0.4"/>
<path d="M26.649 7.93983L25.4346 11.6392C25.3876 11.7824 25.5269 11.9165 25.6682 11.8642L26.8825 11.414C26.9531 11.3878 27 11.3205 27 11.2452V7.99597C27 7.7913 26.7128 7.74537 26.649 7.93983Z" fill="#FAA21E"/>
<path d="M26.649 7.93983L25.4346 11.6392C25.3876 11.7824 25.5269 11.9165 25.6682 11.8642L26.8825 11.414C26.9531 11.3878 27 11.3205 27 11.2452V7.99597C27 7.7913 26.7128 7.74537 26.649 7.93983Z" fill="white" fill-opacity="0.4"/>
<circle cx="27" cy="18.2706" r="7.2" fill="#FAA21E"/>
<ellipse cx="26.2312" cy="17.7405" rx="5.34765" ry="6" transform="rotate(30 26.2312 17.7405)" fill="#FAA21E"/>
<ellipse cx="26.2312" cy="17.7405" rx="5.34765" ry="6" transform="rotate(30 26.2312 17.7405)" fill="white" fill-opacity="0.2"/>
<ellipse cx="25.1997" cy="17.2933" rx="3.29058" ry="3.9" transform="rotate(30 25.1997 17.2933)" fill="#FAA21E"/>
<ellipse cx="25.1997" cy="17.2933" rx="3.29058" ry="3.9" transform="rotate(30 25.1997 17.2933)" fill="white" fill-opacity="0.4"/>
<ellipse cx="25.1778" cy="14.3915" rx="2.1" ry="1.5" transform="rotate(-31.3035 25.1778 14.3915)" fill="#FEFEFE"/>
<circle cx="22.2033" cy="17.7435" r="0.9" transform="rotate(-8.16705 22.2033 17.7435)" fill="#FEFEFE"/>
</svg>
