<svg width="50" height="50" viewBox="0 0 50 50" fill="none" xmlns="http://www.w3.org/2000/svg">
<path d="M9.54333 27.3171C8.48755 24.7665 9.06421 23.5064 9.22311 21.2829C8.63996 22.3849 7.09561 25.6296 8.53611 29.3415C10.3367 33.9812 15.8687 37.0479 21.9421 38.6833C28.0155 40.3187 35.9765 39.7132 38.7527 37.439C40.9736 35.6197 41.7376 31.1713 41.6146 30.005C40.7398 31.6581 40.6349 33.7908 38.2491 35.4146C34.8811 37.707 28.8902 38.6657 22.4119 36.9213C15.9337 35.1768 10.8631 30.5053 9.54333 27.3171Z" fill="#898989"/>
<path fill-rule="evenodd" clip-rule="evenodd" d="M21.9851 39.0225C32.1941 41.7715 41.82 38.9375 43.4851 32.6926C45.1502 26.4477 38.2239 19.1567 28.0149 16.4077C17.8059 13.6587 8.17999 16.4927 6.51491 22.7376C4.84982 28.9825 11.7761 36.2735 21.9851 39.0225ZM22.1197 38.5175C30.9971 40.9079 39.3675 38.4436 40.8154 33.0133C42.2633 27.5829 36.2405 21.2429 27.363 18.8525C18.4856 16.462 10.1153 18.9263 8.66739 24.3567C7.21948 29.787 13.2423 36.127 22.1197 38.5175Z" fill="#898989"/>
<path fill-rule="evenodd" clip-rule="evenodd" d="M21.9851 39.0225C32.1941 41.7715 41.82 38.9375 43.4851 32.6926C45.1502 26.4477 38.2239 19.1567 28.0149 16.4077C17.8059 13.6587 8.17999 16.4927 6.51491 22.7376C4.84982 28.9825 11.7761 36.2735 21.9851 39.0225ZM22.1197 38.5175C30.9971 40.9079 39.3675 38.4436 40.8154 33.0133C42.2633 27.5829 36.2405 21.2429 27.363 18.8525C18.4856 16.462 10.1153 18.9263 8.66739 24.3567C7.21948 29.787 13.2423 36.127 22.1197 38.5175Z" fill="white" fill-opacity="0.6"/>
<path d="M28.1277 15.4215L29.8381 9.00684L34.7199 27.5094L30.0805 22.8225L28.1277 15.4215Z" fill="#D0333D"/>
<path d="M28.1277 15.4215L29.8381 9.00684L34.7199 27.5094L30.0805 22.8225L28.1277 15.4215Z" fill="white" fill-opacity="0.2"/>
<path d="M28.1277 15.4215L29.8381 9.00683L29.4542 9.39457L16.7882 22.1898L16.4044 22.5775L22.7542 20.8498L28.1277 15.4215Z" fill="#D0333D"/>
<path d="M28.1277 15.4215L29.8381 9.00683L29.4542 9.39457L16.7882 22.1898L16.4044 22.5775L22.7542 20.8498L28.1277 15.4215Z" fill="white" fill-opacity="0.4"/>
<path d="M16.4044 22.5776L22.7543 20.8498L30.0805 22.8226L34.7199 27.5094L16.4044 22.5776Z" fill="#D0333D"/>
<path d="M22.7542 20.8497L28.1277 15.4214L30.0805 22.8225L22.7542 20.8497Z" fill="#D0333D"/>
<path d="M22.7542 20.8497L28.1277 15.4214L30.0805 22.8225L22.7542 20.8497Z" fill="white" fill-opacity="0.6"/>
<path d="M22.7543 20.8497L28.1413 15.3705C27.0105 16.8849 24.5623 19.5905 24.8674 20.4911C25.1102 21.2078 27.6271 22.0709 28.9612 22.5211L22.7543 20.8497Z" fill="#D0333D"/>
<path d="M22.7543 20.8497L28.1413 15.3705C27.0105 16.8849 24.5623 19.5905 24.8674 20.4911C25.1102 21.2078 27.6271 22.0709 28.9612 22.5211L22.7543 20.8497Z" fill="white" fill-opacity="0.9"/>
</svg>
