<svg width="50" height="50" viewBox="0 0 50 50" fill="none" xmlns="http://www.w3.org/2000/svg">
<path d="M9.54333 27.3171C8.48755 24.7665 9.06421 23.5064 9.22311 21.2829C8.63996 22.3849 7.09561 25.6296 8.53611 29.3415C10.3367 33.9812 15.8687 37.0479 21.9421 38.6833C28.0155 40.3187 35.9765 39.7132 38.7527 37.439C40.9736 35.6197 41.7376 31.1713 41.6146 30.005C40.7398 31.6581 40.6349 33.7908 38.2491 35.4146C34.8811 37.707 28.8902 38.6657 22.4119 36.9213C15.9337 35.1768 10.8631 30.5053 9.54333 27.3171Z" fill="#898989"/>
<path fill-rule="evenodd" clip-rule="evenodd" d="M21.9851 39.0225C32.1941 41.7715 41.82 38.9375 43.4851 32.6926C45.1502 26.4477 38.2239 19.1567 28.0149 16.4077C17.8059 13.6587 8.17999 16.4927 6.51491 22.7376C4.84982 28.9825 11.7761 36.2735 21.9851 39.0225ZM22.1197 38.5175C30.9971 40.9079 39.3675 38.4436 40.8154 33.0133C42.2633 27.5829 36.2405 21.2429 27.363 18.8525C18.4856 16.462 10.1153 18.9263 8.66739 24.3567C7.21948 29.787 13.2423 36.127 22.1197 38.5175Z" fill="#898989"/>
<path fill-rule="evenodd" clip-rule="evenodd" d="M21.9851 39.0225C32.1941 41.7715 41.82 38.9375 43.4851 32.6926C45.1502 26.4477 38.2239 19.1567 28.0149 16.4077C17.8059 13.6587 8.17999 16.4927 6.51491 22.7376C4.84982 28.9825 11.7761 36.2735 21.9851 39.0225ZM22.1197 38.5175C30.9971 40.9079 39.3675 38.4436 40.8154 33.0133C42.2633 27.5829 36.2405 21.2429 27.363 18.8525C18.4856 16.462 10.1153 18.9263 8.66739 24.3567C7.21948 29.787 13.2423 36.127 22.1197 38.5175Z" fill="white" fill-opacity="0.6"/>
<ellipse cx="28.1465" cy="18.1464" rx="7.84" ry="10.08" transform="rotate(15 28.1465 18.1464)" fill="#2FC4A7"/>
<ellipse cx="28.1465" cy="18.1464" rx="7.84" ry="10.08" transform="rotate(15 28.1465 18.1464)" fill="black" fill-opacity="0.2"/>
<path d="M30.7554 8.40988C26.573 7.28921 22.0145 10.7399 20.5736 16.1173C20.3484 16.9578 20.2127 17.7956 20.16 18.6153C20.351 21.2754 22.5299 24.1783 24.91 24.816C28.6964 25.8306 32.3431 23.0393 33.6475 18.171C34.6911 14.2764 34.2325 11.6606 32.0662 8.92702C31.6546 8.70775 31.2169 8.53356 30.7554 8.40988Z" fill="#2FC4A7"/>
<path d="M24.9682 21.3531C21.9932 20.556 20.3774 17.804 21.4644 13.7471C23.1732 10.2928 26.2648 8.09685 29.3616 8.20236C32.8776 9.14446 32.2425 13.6783 31.7207 15.6256C31.0685 18.0598 29.0341 22.4426 24.9682 21.3531Z" fill="#2FC4A7"/>
<path d="M24.9682 21.3531C21.9932 20.556 20.3774 17.804 21.4644 13.7471C23.1732 10.2928 26.2648 8.09685 29.3616 8.20236C32.8776 9.14446 32.2425 13.6783 31.7207 15.6256C31.0685 18.0598 29.0341 22.4426 24.9682 21.3531Z" fill="white" fill-opacity="0.2"/>
<path d="M24.9682 21.3531C21.9932 20.556 20.3774 17.804 21.4644 13.7471C23.1732 10.2928 26.2648 8.09685 29.3616 8.20236C32.8776 9.14446 32.2425 13.6783 31.7207 15.6256C31.0685 18.0598 29.0341 22.4426 24.9682 21.3531Z" fill="#2FC4A7"/>
<path d="M24.9682 21.3531C21.9932 20.556 20.3774 17.804 21.4644 13.7471C23.1732 10.2928 26.2648 8.09685 29.3616 8.20236C32.8776 9.14446 32.2425 13.6783 31.7207 15.6256C31.0685 18.0598 29.0341 22.4426 24.9682 21.3531Z" fill="white" fill-opacity="0.4"/>
<ellipse cx="27.819" cy="11.2415" rx="1.96" ry="1.4" transform="rotate(-29.8931 27.819 11.2415)" fill="#FEFEFE"/>
<circle cx="24.6686" cy="13.7065" r="0.84" transform="rotate(-6.75657 24.6686 13.7065)" fill="#FEFEFE"/>
</svg>
