<?xml version="1.0" encoding="utf-8"?><svg fill="none" viewBox="0 0 50 50" width="50" height="50" xmlns="http://www.w3.org/2000/svg"><g clip-path="url(#awfa)"><g clip-path="url(#awfb)"><path d="m29.375 18.75 1.875 1.875L3.125 48.75 1.25 46.875 29.375 18.75Z" fill="#1D8CE0"/><path d="m29.375 18.75 1.875 1.875L3.125 48.75 1.25 46.875 29.375 18.75Z" fill="#000" fill-opacity=".2"/><path d="m29.375 18.75.935.935L2.185 47.81l-.935-.935L29.375 18.75Z" fill="#1D8CE0"/><path d="m29.375 18.75.935.935L2.185 47.81l-.935-.935L29.375 18.75Z" fill="#fff" fill-opacity=".4"/><path d="M27.792 9.97C29.493 7.737 32.55 5.2 38.125 0l-2.378 6.435-.683-2.45c-2.863 3.073-4.385 4.776-5.062 7.312 0 1.828.998 3.703 2.498 3.203l-3.75 6.75c.884-1.768-.725-5.247-1.4-7.302-.475-1.448-.26-2.676.442-3.977Z" fill="#1D8CE0"/><path d="M27.792 9.97C29.493 7.737 32.55 5.2 38.125 0l-2.378 6.435-.683-2.45c-2.863 3.073-4.385 4.776-5.062 7.312 0 1.828.998 3.703 2.498 3.203l-3.75 6.75c.884-1.768-.725-5.247-1.4-7.302-.475-1.448-.26-2.676.442-3.977Z" fill="#fff" fill-opacity=".2"/><path d="M36.19 22.787c-1.815-.912-5.672-2.42-7.44-1.537l6.75-3.75c0 1.5 1.375 2.635 3.341 2.635 2.792-.799 4.414-2.285 7.312-5.062l-2.45-.683L50 11.875c-4.332 4.587-6.878 8.232-9.833 10.47-1.346.96-2.525 1.172-3.978.442Z" fill="#1D8CE0"/><path d="M36.19 22.787c-1.815-.912-5.672-2.42-7.44-1.537l6.75-3.75c0 1.5 1.375 2.635 3.341 2.635 2.792-.799 4.414-2.285 7.312-5.062l-2.45-.683L50 11.875c-4.332 4.587-6.878 8.232-9.833 10.47-1.346.96-2.525 1.172-3.978.442Z" fill="#fff" fill-opacity=".2"/><path d="M47.586 3.367c-4.277 4.42-10.572 10.86-11.994 14.714l-6.842 3.17L49.991.146c-.458 3.012-1.156 4.425-2.478 6.897l.073-3.677Z" fill="#1D8CE0"/><path d="M47.586 3.367c-4.277 4.42-10.572 10.86-11.994 14.714l-6.842 3.17L49.991.146c-.458 3.012-1.156 4.425-2.478 6.897l.073-3.677Z" fill="#000" fill-opacity=".2"/><path d="M32.044 14.558c2.942-.722 9.459-6.836 14.679-11.959l-3.672.069C45.69 1.267 47.179.569 49.936.202L28.75 21.25l3.294-6.692Z" fill="#1D8CE0"/><path d="M32.044 14.558c2.942-.722 9.459-6.836 14.679-11.959l-3.672.069C45.69 1.267 47.179.569 49.936.202L28.75 21.25l3.294-6.692Z" fill="#fff" fill-opacity=".4"/><path d="M43.689 14.404c2.322-1.562 3.701-2.147 6.35-2.568l-3.889 3.24-2.461-.672Z" fill="#1D8CE0"/><path d="M43.689 14.404c2.322-1.562 3.701-2.147 6.35-2.568l-3.889 3.24-2.461-.672Z" fill="#fff" fill-opacity=".6"/><path d="m35.747 6.435-.683-2.45L38.125 0c-.511 2.544-.957 3.958-2.378 6.435Z" fill="#1D8CE0"/><path d="m35.747 6.435-.683-2.45L38.125 0c-.511 2.544-.957 3.958-2.378 6.435Z" fill="#fff" fill-opacity=".6"/><path d="M0 46.25h3.75V50H0v-3.75Z" fill="#1D8CE0"/><path d="M0 46.25h3.75V50H0v-3.75Z" fill="#fff" fill-opacity=".4"/><path d="M3.75 50H0l3.75-3.75V50Z" fill="#1D8CE0"/><path d="M1.25 47.5H2.5v1.25H1.25V47.5Z" fill="#1D8CE0"/><path d="M1.25 47.5H2.5v1.25H1.25V47.5Z" fill="#fff" fill-opacity=".95"/><path d="m2.5 47.5-1.25 1.25H2.5V47.5Z" fill="#1D8CE0"/><path d="m2.5 47.5-1.25 1.25H2.5V47.5Z" fill="#fff" fill-opacity=".6"/></g><path d="M21.367 11.867c-1-2.839.733-4.767 2.566-5.867-1.1 1.833-1.733 1.94-.733 5.133.852 2.72.367 4.034-2.2 5.867 1.1-2.2 1.332-2.394.367-5.133Z" fill="#1D8CE0"/><path d="M21.367 11.867c-1-2.839.733-4.767 2.566-5.867-1.1 1.833-1.733 1.94-.733 5.133.852 2.72.367 4.034-2.2 5.867 1.1-2.2 1.332-2.394.367-5.133Z" fill="#fff" fill-opacity=".8"/><path d="M26.681 33.401c-1.779 2.356-.732 4.674.655 6.248-.483-2.041-1.043-2.33.84-5.017 1.606-2.29 1.543-3.661-.311-6.138.374 2.383.533 2.633-1.184 4.907Z" fill="#1D8CE0"/><path d="M26.681 33.401c-1.779 2.356-.732 4.674.655 6.248-.483-2.041-1.043-2.33.84-5.017 1.606-2.29 1.543-3.661-.311-6.138.374 2.383.533 2.633-1.184 4.907Z" fill="#fff" fill-opacity=".6"/><path d="M24.82 18.335c1.698-2.494.461-4.803-1.08-6.335.632 2.056 1.233 2.32-.553 5.158-1.52 2.418-1.367 3.813.718 6.242-.541-2.41-.723-2.657.916-5.064Z" fill="#1D8CE0"/><path d="M24.82 18.335c1.698-2.494.461-4.803-1.08-6.335.632 2.056 1.233 2.32-.553 5.158-1.52 2.418-1.367 3.813.718 6.242-.541-2.41-.723-2.657.916-5.064Z" fill="#fff" fill-opacity=".6"/><path d="M17.62 17.822c-.213-1.181.646-2.995.856-3.71.446.597 1.284 2.168 1.112 3.356-.226 1.564.502 2.788.62 3.444-1.653-.718-2.375-1.91-2.588-3.09Z" fill="#1D8CE0"/><path d="M17.62 17.822c-.213-1.181.646-2.995.856-3.71.446.597 1.284 2.168 1.112 3.356-.226 1.564.502 2.788.62 3.444-1.653-.718-2.375-1.91-2.588-3.09Z" fill="#fff" fill-opacity=".6"/><path d="M21.485 25.742c-.51-.933-.178-2.763-.168-3.44.575.358 1.774 1.416 1.924 2.483.197 1.407 1.202 2.205 1.485 2.724-1.741-.06-2.732-.833-3.241-1.767Z" fill="#1D8CE0"/><path d="M21.485 25.742c-.51-.933-.178-2.763-.168-3.44.575.358 1.774 1.416 1.924 2.483.197 1.407 1.202 2.205 1.485 2.724-1.741-.06-2.732-.833-3.241-1.767Z" fill="#fff" fill-opacity=".8"/><path d="M2.763 37.716c.747-1.452 3.357-2.609 4.227-3.181.04 1.04-.27 3.475-1.496 4.586-1.617 1.464-1.764 3.428-2.18 4.235-1.425-2.264-1.298-4.188-.551-5.64Z" fill="#1D8CE0"/><path d="M2.763 37.716c.747-1.452 3.357-2.609 4.227-3.181.04 1.04-.27 3.475-1.496 4.586-1.617 1.464-1.764 3.428-2.18 4.235-1.425-2.264-1.298-4.188-.551-5.64Z" fill="#fff" fill-opacity=".6"/><path d="M27.128 30.93c.484-1.375-.367-3.777-.53-4.693-.7.613-2.088 2.307-2.056 3.784.043 1.946-1.141 3.247-1.41 4.01 2.343-.463 3.513-1.726 3.996-3.101Z" fill="#1D8CE0"/><path d="M27.128 30.93c.484-1.375-.367-3.777-.53-4.693-.7.613-2.088 2.307-2.056 3.784.043 1.946-1.141 3.247-1.41 4.01 2.343-.463 3.513-1.726 3.996-3.101Z" fill="#fff" fill-opacity=".6"/><path d="M21.187 37.514c-1.12.265-2.216.955-2.312 1.418.062-1.21.851-3.306 2.268-3.942 1.417-.636 2.595-.114 3.995-.637-.028.51-.567 1.72-1.2 2.323-.79.753-1.351.508-2.75.838Z" fill="#1D8CE0"/><path d="M21.187 37.514c-1.12.265-2.216.955-2.312 1.418.062-1.21.851-3.306 2.268-3.942 1.417-.636 2.595-.114 3.995-.637-.028.51-.567 1.72-1.2 2.323-.79.753-1.351.508-2.75.838Z" fill="#fff" fill-opacity=".6"/><path d="M7.846 34.471c.053.83-.236 1.755-.578 1.942.939-.359 2.407-1.442 2.578-2.571.171-1.129-.515-1.793-.43-2.88-.396.152-1.224.834-1.551 1.421-.41.734-.085 1.051-.02 2.088Z" fill="#1D8CE0"/><path d="M7.846 34.471c.053.83-.236 1.755-.578 1.942.939-.359 2.407-1.442 2.578-2.571.171-1.129-.515-1.793-.43-2.88-.396.152-1.224.834-1.551 1.421-.41.734-.085 1.051-.02 2.088Z" fill="#fff" fill-opacity=".6"/><path d="M10.76 37.39c-1.594-.42-3.232.659-4.081 1.573.43-.757 1.237-1.933 2.897-2.924 1.91-1.14 3.996-.38 6.431-.245 2.313.13 3.268-1.006 3.74-1.41-.143.623-1.155 2.328-2.64 3.683-1.855 1.693-4.354-.154-6.347-.678Z" fill="#1D8CE0"/><path d="M10.76 37.39c-1.594-.42-3.232.659-4.081 1.573.43-.757 1.237-1.933 2.897-2.924 1.91-1.14 3.996-.38 6.431-.245 2.313.13 3.268-1.006 3.74-1.41-.143.623-1.155 2.328-2.64 3.683-1.855 1.693-4.354-.154-6.347-.678Z" fill="#fff" fill-opacity=".8"/><circle cx="7" cy="46" r="1" fill="#FEFEFE"/><circle cx="28.5" cy="39.5" r=".5" fill="#FEFEFE"/><circle cx="25.5" cy="5.5" r=".5" fill="#FEFEFE"/><circle cx="20.5" cy="7.5" r=".5" fill="#FEFEFE"/><circle cx="16.5" cy="14.5" r=".5" fill="#FEFEFE"/><circle cx="30.5" cy="29.5" r=".5" fill="#FEFEFE"/><circle cx="6.5" cy="32.5" r=".5" fill="#FEFEFE"/><circle cx="3.5" cy="44.5" r=".5" fill="#FEFEFE"/><circle cx="24.75" cy="37.75" r=".75" fill="#FEFEFE"/><circle cx="20" cy="5" r="1" fill="#FEFEFE"/></g><defs><clipPath id="awfa"><path fill="#fff" transform="matrix(-1 0 0 1 50 0)" d="M0 0h50v50H0z"/></clipPath><clipPath id="awfb"><path fill="#fff" d="M0 0h50v50H0z"/></clipPath></defs></svg>