<svg width="50" height="50" viewBox="0 0 50 50" fill="none" xmlns="http://www.w3.org/2000/svg">
<path d="M9 21.5C6.6 21.5 3.5 22 3.5 23.5C3.5 25 8 25.3506 11.5 28.5C15 31.6494 15 31.5 18.5 34.5C22 37.5 28 41.5 30 40C32 38.5 31.5 37.5 31 35.5C30.5 33.5 26.8 27.8 22 25C16 21.5 12 21.5 9 21.5Z" fill="#FAA21E"/>
<path d="M9 21.5C6.6 21.5 3.5 22 3.5 23.5C3.5 25 8 25.3506 11.5 28.5C15 31.6494 15 31.5 18.5 34.5C22 37.5 28 41.5 30 40C32 38.5 31.5 37.5 31 35.5C30.5 33.5 26.8 27.8 22 25C16 21.5 12 21.5 9 21.5Z" fill="white" fill-opacity="0.4"/>
<path d="M2.00001 31.9999C1.61655 30.466 0.500005 27.4999 2.50001 26.4999C4.50001 25.4999 6.30281 27.7272 8 29C10 30.5 12.5 32.9998 16 35.9998C19.2657 38.799 21 39.9999 24 40.9999C27 41.9999 28 40.9999 29 41.9999C29.8282 42.8281 29 43.5 28 44C27.3675 44.3162 23 45.9999 19.5 45.4999C16 44.9999 11 43.4999 7.50001 40.4999C4.00001 37.4999 2.5 34 2.00001 31.9999Z" fill="#FAA21E"/>
<path d="M2.00001 31.9999C1.61655 30.466 0.500005 27.4999 2.50001 26.4999C4.50001 25.4999 6.30281 27.7272 8 29C10 30.5 12.5 32.9998 16 35.9998C19.2657 38.799 21 39.9999 24 40.9999C27 41.9999 28 40.9999 29 41.9999C29.8282 42.8281 29 43.5 28 44C27.3675 44.3162 23 45.9999 19.5 45.4999C16 44.9999 11 43.4999 7.50001 40.4999C4.00001 37.4999 2.5 34 2.00001 31.9999Z" fill="white" fill-opacity="0.4"/>
<path d="M24 24.5C23.2 23.7 21.6667 22.8333 21 22.5C22.6667 20.8333 26.4 17.3 28 16.5C30 15.5 34 13.5 38.5 13.5C43 13.5 45 15 45 16.5C45 18 43 20 40.5 21.5C38 23 35.5 24 33 24.5C31 24.9 28.1667 26.3333 27 27C26.3333 26.5 25 25.5 24 24.5Z" fill="#FAA21E"/>
<path d="M24 24.5C23.2 23.7 21.6667 22.8333 21 22.5C22.6667 20.8333 26.4 17.3 28 16.5C30 15.5 34 13.5 38.5 13.5C43 13.5 45 15 45 16.5C45 18 43 20 40.5 21.5C38 23 35.5 24 33 24.5C31 24.9 28.1667 26.3333 27 27C26.3333 26.5 25 25.5 24 24.5Z" fill="white" fill-opacity="0.2"/>
<path d="M31.5 32.5001C31.1 31.3001 30 29.6668 29.5 29.0001C30.8333 28.6668 33.9 27.8002 35.5 27.0002C37.5 26.0002 40 25.0001 41.5 24.0001C43 23.0001 46 18.0002 47.5 18.5001C49 19 47.5 24.0001 46 26.5001C44.5 29.0001 43 31.0001 40.5 33.0001C38.5 34.6001 34.6667 36.3334 33 37.0001L31.5 32.5001Z" fill="#FAA21E"/>
<path d="M31.5 32.5001C31.1 31.3001 30 29.6668 29.5 29.0001C30.8333 28.6668 33.9 27.8002 35.5 27.0002C37.5 26.0002 40 25.0001 41.5 24.0001C43 23.0001 46 18.0002 47.5 18.5001C49 19 47.5 24.0001 46 26.5001C44.5 29.0001 43 31.0001 40.5 33.0001C38.5 34.6001 34.6667 36.3334 33 37.0001L31.5 32.5001Z" fill="white" fill-opacity="0.2"/>
<path d="M13.5 19.9999H9.5C9.83333 18.1666 10 16 11 13C12 10 13.5 8.50001 15 7.00002L15 7C16.5 5.5 19 3.99993 20 4.49993C21 4.99993 19 7.99993 18.5 9.49993C18 10.9999 17.8275 12.2075 17.5 14.4998L17.5 14.5C17.2143 16.5 17.6667 20.3333 18 21.4999C17 20.9999 14.7 19.9999 13.5 19.9999Z" fill="#FAA21E"/>
<path d="M13.5 19.9999H9.5C9.83333 18.1666 10 16 11 13C12 10 13.5 8.50001 15 7.00002L15 7C16.5 5.5 19 3.99993 20 4.49993C21 4.99993 19 7.99993 18.5 9.49993C18 10.9999 17.8275 12.2075 17.5 14.4998L17.5 14.5C17.2143 16.5 17.6667 20.3333 18 21.4999C17 20.9999 14.7 19.9999 13.5 19.9999Z" fill="white" fill-opacity="0.4"/>
<path d="M25 16.5C23.8 17.3 21.8333 19.1667 21 20C20 17 20.1 12 20.5 10C21.2 6.50002 22.4394 5.85355 23.5 5.5C24.5607 5.14645 26.5 6.5 27.5 8.5C28.3 10.1 29.6667 12.8334 30 14C29 14.5 26.2 15.7 25 16.5Z" fill="#FAA21E"/>
<path d="M25 16.5C23.8 17.3 21.8333 19.1667 21 20C20 17 20.1 12 20.5 10C21.2 6.50002 22.4394 5.85355 23.5 5.5C24.5607 5.14645 26.5 6.5 27.5 8.5C28.3 10.1 29.6667 12.8334 30 14C29 14.5 26.2 15.7 25 16.5Z" fill="white" fill-opacity="0.4"/>
</svg>
