<svg width="50" height="50" viewBox="0 0 50 50" fill="none" xmlns="http://www.w3.org/2000/svg">
<path d="M32 0H18C18.5 1.5 17.8 4.8 15 6C12.2 7.2 9.16667 5.5 8 4.5L4 12.5C6.83333 13.8333 12 18.1 12 24.5C12 30.9 6.66667 35.5 4 37L7.1875 43.5C8.29167 42.8333 12.125 42 17 43.5C22.2 45.1 24.5 48.5 25 50C25.5 48.5 28.5 45 33 43.5C36.6125 42.2958 41 42.8333 43 43.5L46 37C43.3333 35.8333 38 31.7 38 24.5C38 17.3 43.3333 13.5 46 12.5L41.5 4.5C40.8333 5.66667 38.375 7.5 35 6C32 4.66667 31.5 1.33333 32 0Z" fill="#FAA21E"/>
<path d="M32 0H18C18.5 1.5 17.8 4.8 15 6C12.2 7.2 9.16667 5.5 8 4.5L4 12.5C6.83333 13.8333 12 18.1 12 24.5C12 30.9 6.66667 35.5 4 37L7.1875 43.5C8.29167 42.8333 12.125 42 17 43.5C22.2 45.1 24.5 48.5 25 50C25.5 48.5 28.5 45 33 43.5C36.6125 42.2958 41 42.8333 43 43.5L46 37C43.3333 35.8333 38 31.7 38 24.5C38 17.3 43.3333 13.5 46 12.5L41.5 4.5C40.8333 5.66667 38.375 7.5 35 6C32 4.66667 31.5 1.33333 32 0Z" fill="black" fill-opacity="0.4"/>
<path d="M18 12L21 10M13.5 16.5L15.5 18.5M23.5 15L26.5 16M25.5 5.5L28 7M34 13L35 16.5M30 22L33 22.5M25.5 25L26 29M20 23L17 23.5M20 29.5L18.5 32.5M31 34.5L32 30.5M27 39L23.5 41M38.5 36L36 38.5M12 37L15.5 36.5" stroke="#FAA21E"/>
<path d="M18 12L21 10M13.5 16.5L15.5 18.5M23.5 15L26.5 16M25.5 5.5L28 7M34 13L35 16.5M30 22L33 22.5M25.5 25L26 29M20 23L17 23.5M20 29.5L18.5 32.5M31 34.5L32 30.5M27 39L23.5 41M38.5 36L36 38.5M12 37L15.5 36.5" stroke="black" stroke-opacity="0.8"/>
</svg>
