<svg width="50" height="50" viewBox="0 0 50 50" fill="none" xmlns="http://www.w3.org/2000/svg">
<path d="M3 4.84211L4.92308 11H15L17 4.84211C16.2308 3.89474 14 2 10 2C6.5 2 3.76923 3.89474 3 4.84211Z" fill="#C57A09"/>
<path d="M15 10.5C12.5 8 7.5 7.99998 5 10.5L2 39L10 39L18 39L15 10.5Z" fill="#FAA21E"/>
<path d="M15 10.5C12.5 8 7.5 7.99998 5 10.5L2 39L10 39L18 39L15 10.5Z" fill="black" fill-opacity="0.4"/>
<path d="M18 39.0588C18 34.8235 13.5 32 10 32C6.5 32 2 34.8235 2 39.0588C2 42.4471 7.33333 46.4314 10 48C12.6667 46.2745 18 42.4471 18 39.0588Z" fill="#C57A09"/>
<path d="M17 39.1765C17 35.4706 13.0625 33 10 33C6.9375 33 3 35.4706 3 39.1765C3 42.1412 7.66667 45.6275 10 47C12.3333 45.4902 17 42.1412 17 39.1765Z" fill="#FAA21E"/>
<path d="M17 39.1765C17 35.4706 13.0625 33 10 33C6.9375 33 3 35.4706 3 39.1765C3 42.1412 7.66667 45.6275 10 47C12.3333 45.4902 17 42.1412 17 39.1765Z" fill="black" fill-opacity="0.6"/>
<path d="M8 9.5L10 11.5M10 11.5L12 13.5M10 11.5L8 13.5M10 11.5L12 9.5M8 15.5L10 17.5M10 17.5L12 19.5M10 17.5L8 19.5M10 17.5L12 15.5M8 21.5L10 23.5M10 23.5L12 25.5M10 23.5L8 25.5M10 23.5L12 21.5M8 27.5L10 29.5M10 29.5L12 31.5M10 29.5L8 31.5M10 29.5L12 27.5" stroke="#FAA21E"/>
<path d="M8 9.5L10 11.5M10 11.5L12 13.5M10 11.5L8 13.5M10 11.5L12 9.5M8 15.5L10 17.5M10 17.5L12 19.5M10 17.5L8 19.5M10 17.5L12 15.5M8 21.5L10 23.5M10 23.5L12 25.5M10 23.5L8 25.5M10 23.5L12 21.5M8 27.5L10 29.5M10 29.5L12 31.5M10 29.5L8 31.5M10 29.5L12 27.5" stroke="black" stroke-opacity="0.6"/>
<path d="M17.8589 11.0428L22.6033 15.4141L31.3302 10.3756L29.9833 4.04276C28.8434 3.60693 25.9641 3.08142 22.5 5.08142C19.469 6.83142 18.0514 9.8377 17.8589 11.0428Z" fill="#C57A09"/>
<path d="M31.0801 9.94265C27.665 9.02758 23.3349 11.5276 22.4199 14.9427L34.0718 41.1244L41 37.1243L47.9282 33.1244L31.0801 9.94265Z" fill="#FAA21E"/>
<path d="M31.0801 9.94265C27.665 9.02758 23.3349 11.5276 22.4199 14.9427L34.0718 41.1244L41 37.1243L47.9282 33.1244L31.0801 9.94265Z" fill="black" fill-opacity="0.4"/>
<path d="M47.9576 33.1753C45.8399 29.5074 40.5311 29.3121 37.5 31.0621C34.4689 32.8121 31.9835 37.5074 34.1012 41.1753C35.7953 44.1096 42.4063 44.8934 45.5 44.9185C46.9466 42.0909 49.6517 36.1096 47.9576 33.1753Z" fill="#C57A09"/>
<path d="M47.1505 33.7772C45.2975 30.5678 40.6522 30.397 38 31.9282C35.3478 33.4595 33.1732 37.5678 35.0261 40.7772C36.5085 43.3447 42.293 44.0306 45 44.0526C46.2659 41.5784 48.6328 36.3447 47.1505 33.7772Z" fill="#FAA21E"/>
<path d="M47.1505 33.7772C45.2975 30.5678 40.6522 30.397 38 31.9282C35.3478 33.4595 33.1732 37.5678 35.0261 40.7772C36.5085 43.3447 42.293 44.0306 45 44.0526C46.2659 41.5784 48.6328 36.3447 47.1505 33.7772Z" fill="black" fill-opacity="0.6"/>
<path d="M24.5179 12.5767L27.25 13.3087M27.25 13.3087L29.982 14.0408M27.25 13.3087L26.5179 16.0408M27.25 13.3087L27.982 10.5767M27.5179 17.7728L30.25 18.5049M30.25 18.5049L32.982 19.2369M30.25 18.5049L29.5179 21.2369M30.25 18.5049L30.982 15.7728M30.5179 22.969L33.25 23.701M33.25 23.701L35.982 24.4331M33.25 23.701L32.5179 26.4331M33.25 23.701L33.982 20.969M33.5179 28.1651L36.25 28.8972M36.25 28.8972L38.982 29.6292M36.25 28.8972L35.5179 31.6292M36.25 28.8972L36.982 26.1651" stroke="#FAA21E"/>
<path d="M24.5179 12.5767L27.25 13.3087M27.25 13.3087L29.982 14.0408M27.25 13.3087L26.5179 16.0408M27.25 13.3087L27.982 10.5767M27.5179 17.7728L30.25 18.5049M30.25 18.5049L32.982 19.2369M30.25 18.5049L29.5179 21.2369M30.25 18.5049L30.982 15.7728M30.5179 22.969L33.25 23.701M33.25 23.701L35.982 24.4331M33.25 23.701L32.5179 26.4331M33.25 23.701L33.982 20.969M33.5179 28.1651L36.25 28.8972M36.25 28.8972L38.982 29.6292M36.25 28.8972L35.5179 31.6292M36.25 28.8972L36.982 26.1651" stroke="black" stroke-opacity="0.6"/>
</svg>
