<?xml version="1.0" encoding="utf-8"?><svg fill="none" viewBox="0 0 50 50" xmlns="http://www.w3.org/2000/svg" width="50" height="50"><g clip-path="url(#bbea)"><path d="M42.5 6 39 11l-1.5 18-1 19.5 13-3-7-19V6Z" fill="#898989"/><path d="M42.5 6 39 11l-1.5 18-1 19.5 13-3-7-19V6Z" fill="#fff" fill-opacity=".6"/><path d="M27 3c-4 0-7-2-8-3-1 2 1.8 18.1 9 18.5 7.2.4 6.833-16 5.5-18.5-.667.833-3.3 3-6.5 3Z" fill="#7445B8"/><path d="M27 3c-4 0-7-2-8-3-1 2 1.8 18.1 9 18.5 7.2.4 6.833-16 5.5-18.5-.667.833-3.3 3-6.5 3Z" fill="#000" fill-opacity=".4"/><path d="M37.5 28c.5-7.5 4-17 5.5-21l-9.5 4.5c-4.178 1-7.17.836-13 0L7.5 7c2 5.167 5.1 18.1 5.5 20.5.4 2.4-3 13.5-4 21.5 15 1 23.605 1.358 33 0-1-5-5.005-13.417-4.5-21Z" fill="#7445B8"/><path d="M37.5 28c.5-7.5 4-17 5.5-21l-9.5 4.5c-4.178 1-7.17.836-13 0L7.5 7c2 5.167 5.1 18.1 5.5 20.5.4 2.4-3 13.5-4 21.5 15 1 23.605 1.358 33 0-1-5-5.005-13.417-4.5-21Z" fill="#fff" fill-opacity=".4"/><path d="m17.51 45.382 1.883.314-1.883.313-.314 1.883-.313-1.883L15 45.696l1.883-.314.313-1.882.314 1.882Zm12.803 0 1.883.314-1.882.313L30 47.892l-.314-1.883-1.882-.313 1.883-.314L30 43.5l.314 1.882Zm10.49-.706c.169.532.326 1.049.474 1.546L41 47.892l-.313-1.883-1.883-.313 1.883-.314.117-.706ZM23.02 38.49l1.882.314-1.883.314L22.707 41l-.313-1.882-1.883-.314 1.883-.314.313-1.882.314 1.882Zm12.176 0 1.882.314-1.882.314L34.883 41l-.315-1.882-1.881-.314 1.881-.314.315-1.882.313 1.882ZM16.51 32.382l1.883.314-1.883.313-.314 1.883-.313-1.883L14 32.696l1.883-.314.313-1.882.314 1.882Zm5.764-5.068 1.883.314-1.883.313-.313 1.883-.313-1.883-1.883-.313 1.883-.314.313-1.883.313 1.883Zm12.177 0 1.882.314-1.882.313-.313 1.883-.315-1.883-1.882-.313 1.882-.314.315-1.883.313 1.883Zm-18.941-5.02 1.883.314-1.883.314-.314 1.882-.313-1.882L13 22.608l1.883-.313.313-1.883.314 1.883Z" fill="#7445B8"/><path d="m17.51 45.382 1.883.314-1.883.313-.314 1.883-.313-1.883L15 45.696l1.883-.314.313-1.882.314 1.882Zm12.803 0 1.883.314-1.882.313L30 47.892l-.314-1.883-1.882-.313 1.883-.314L30 43.5l.314 1.882Zm10.49-.706c.169.532.326 1.049.474 1.546L41 47.892l-.313-1.883-1.883-.313 1.883-.314.117-.706ZM23.02 38.49l1.882.314-1.883.314L22.707 41l-.313-1.882-1.883-.314 1.883-.314.313-1.882.314 1.882Zm12.176 0 1.882.314-1.882.314L34.883 41l-.315-1.882-1.881-.314 1.881-.314.315-1.882.313 1.882ZM16.51 32.382l1.883.314-1.883.313-.314 1.883-.313-1.883L14 32.696l1.883-.314.313-1.882.314 1.882Zm5.764-5.068 1.883.314-1.883.313-.313 1.883-.313-1.883-1.883-.313 1.883-.314.313-1.883.313 1.883Zm12.177 0 1.882.314-1.882.313-.313 1.883-.315-1.883-1.882-.313 1.882-.314.315-1.883.313 1.883Zm-18.941-5.02 1.883.314-1.883.314-.314 1.882-.313-1.882L13 22.608l1.883-.313.313-1.883.314 1.883Z" fill="#fff" fill-opacity=".8"/><path d="m28.823 33.314.314-1.883.314 1.883 1.882.313-1.882.314-.314 1.883-.314-1.883-1.882-.314 1.883-.313Z" fill="#7445B8"/><path d="m28.823 33.314.314-1.883.314 1.883 1.882.313-1.882.314-.314 1.883-.314-1.883-1.882-.314 1.883-.313Z" fill="#fff" fill-opacity=".8"/><path d="m27.823 20.314.314-1.883.314 1.883 1.882.314-1.882.313-.314 1.883-.314-1.883-1.882-.313 1.883-.314Z" fill="#7445B8"/><path d="m27.823 20.314.314-1.883.314 1.883 1.882.314-1.882.313-.314 1.883-.314-1.883-1.882-.313 1.883-.314Z" fill="#fff" fill-opacity=".8"/><path d="m36.824 17.314.313-1.883.314 1.883 1.882.314-1.882.313-.314 1.883-.313-1.883-1.883-.313 1.883-.314Z" fill="#7445B8"/><path d="m36.824 17.314.313-1.883.314 1.883 1.882.314-1.882.313-.314 1.883-.313-1.883-1.883-.313 1.883-.314Z" fill="#fff" fill-opacity=".8"/><path d="M2 27.5 6.5 7l6.5 4-2 16.5L18.5 47l-15 3L2 27.5Z" fill="#898989"/><path d="M2 27.5 6.5 7l6.5 4-2 16.5L18.5 47l-15 3L2 27.5Z" fill="#fff" fill-opacity=".8"/><path d="M27.5 5c-4 0-7-2-8.5-5-1.167.333-6.6 1.6-9 2-2.4.4-3.667 6.333-5.5 8 1 3.5 3.5 7 2.5 13 5.5-5 12-3 20.5-5 7.848-1.847 11-5 16-6.5 0 0-1-8.5-2-9s-8-2.5-8-2.5c-.5 1.833-2.5 5-6 5Z" fill="#FEFEFE"/><path d="M4.5 10c1 3.5 2 9 1 15 5.5-5 14-3 24-6.5 7.61-2.663 9-5.5 14-7 0 0-.158-1.347-.412-3C37.5 9.5 35.404 13.125 29 15c-7.182 2.103-14.5 1.5-19.5 3.5 0-6-2.926-12-2.926-12C5.9 7.933 5.247 9.32 4.5 10Z" fill="#D0333D"/><path d="M4.5 10c1 3.5 2 9 1 15 5.5-5 14-3 24-6.5 7.61-2.663 9-5.5 14-7 0 0-.158-1.347-.412-3C37.5 9.5 35.404 13.125 29 15c-7.182 2.103-14.5 1.5-19.5 3.5 0-6-2.926-12-2.926-12C5.9 7.933 5.247 9.32 4.5 10Z" fill="#fff" fill-opacity=".2"/><g clip-path="url(#bbeb)" fill="#152242"><path d="M39.029 28.446a1 1 0 0 1 1.742 0l3.507 6.22a1 1 0 0 0 .673.49l7 1.412a1 1 0 0 1 .538 1.657l-4.833 5.258a1 1 0 0 0-.257.791l.82 7.094a1 1 0 0 1-1.41 1.024l-6.493-2.972a1 1 0 0 0-.832 0l-6.494 2.972a1 1 0 0 1-1.41-1.024l.82-7.094a1 1 0 0 0-.257-.791l-4.833-5.258a1 1 0 0 1 .539-1.657l7-1.412a1 1 0 0 0 .673-.49l3.507-6.22Z"/><path d="m41.935 37.532.339.602.675.135 4.062.82-2.804 3.05-.467.508.08.686.474 4.115-3.766-1.724-.627-.287-.627.288-3.769 1.723.476-4.115.079-.686-.467-.508-2.805-3.05 4.063-.82.676-.135.338-.602 2.035-3.611 2.035 3.611Z" stroke="#FAA21E" stroke-width="3.013"/></g></g><defs><clipPath id="bbea"><path fill="#fff" d="M0 0h50v50H0z"/></clipPath><clipPath id="bbeb"><path fill="#fff" transform="matrix(1 0 0 -1 0 50)" d="M0 0h50v50H0z"/></clipPath></defs></svg>