<svg width="50" height="50" viewBox="0 0 50 50" fill="none" xmlns="http://www.w3.org/2000/svg">
<path d="M42.5 6L39 11L37.5 29L36.5 48.5L49.5 45.5L42.5 26.5V6Z" fill="#898989"/>
<path d="M42.5 6L39 11L37.5 29L36.5 48.5L49.5 45.5L42.5 26.5V6Z" fill="white" fill-opacity="0.8"/>
<path d="M27 3C23 3 20 1 19 0C18 2 20.8 18.1 28 18.5C35.2 18.9 34.8333 2.5 33.5 0C32.8333 0.833333 30.2 3 27 3Z" fill="#7445B8"/>
<path d="M27 3C23 3 20 1 19 0C18 2 20.8 18.1 28 18.5C35.2 18.9 34.8333 2.5 33.5 0C32.8333 0.833333 30.2 3 27 3Z" fill="black" fill-opacity="0.4"/>
<path d="M37.5 28C38 20.5 41.5 11 43 7L33.5 11.5C29.3222 12.4999 26.3291 12.3359 20.5 11.5L7.5 7C9.5 12.1667 12.6 25.1 13 27.5C13.4 29.9 10 41 9 49C24 50 32.6052 50.358 42 49C41 44 36.9945 35.5832 37.5 28Z" fill="#7445B8"/>
<path d="M37.5 28C38 20.5 41.5 11 43 7L33.5 11.5C29.3222 12.4999 26.3291 12.3359 20.5 11.5L7.5 7C9.5 12.1667 12.6 25.1 13 27.5C13.4 29.9 10 41 9 49C24 50 32.6052 50.358 42 49C41 44 36.9945 35.5832 37.5 28Z" fill="white" fill-opacity="0.4"/>
<path fill-rule="evenodd" clip-rule="evenodd" d="M40.804 44.6761L40.6863 45.3823L38.804 45.696L40.6863 46.0098L41 47.8921L41.2791 46.2175C41.1312 45.7212 40.9714 45.2066 40.804 44.6761ZM15.1961 20.4118L14.8824 22.2942L13 22.6079L14.8824 22.9216L15.1961 24.804L15.5098 22.9216L17.3922 22.6079L15.5098 22.2942L15.1961 20.4118ZM21.647 27.3138L21.9608 25.4314L22.2745 27.3138L24.1568 27.6275L22.2745 27.9412L21.9608 29.8236L21.647 27.9412L19.7647 27.6275L21.647 27.3138ZM33.8235 27.3138L34.1372 25.4314L34.451 27.3138L36.3333 27.6275L34.451 27.9412L34.1372 29.8236L33.8235 27.9412L31.9412 27.6275L33.8235 27.3138ZM34.8823 36.6079L34.5686 38.4902L32.6863 38.8039L34.5686 39.1177L34.8823 41L35.1961 39.1177L37.0784 38.8039L35.1961 38.4902L34.8823 36.6079ZM22.3921 38.4902L22.7059 36.6079L23.0196 38.4902L24.9019 38.8039L23.0196 39.1177L22.7059 41L22.3921 39.1177L20.5098 38.8039L22.3921 38.4902ZM15.8824 32.3823L16.1961 30.5L16.5098 32.3823L18.3922 32.696L16.5098 33.0098L16.1961 34.8921L15.8824 33.0098L14 32.696L15.8824 32.3823ZM30 43.5L29.6863 45.3823L27.8039 45.696L29.6863 46.0098L30 47.8921L30.3137 46.0098L32.1961 45.696L30.3137 45.3823L30 43.5ZM16.8824 45.3823L17.1961 43.5L17.5098 45.3823L19.3922 45.696L17.5098 46.0098L17.1961 47.8921L16.8824 46.0098L15 45.696L16.8824 45.3823Z" fill="#7445B8"/>
<path fill-rule="evenodd" clip-rule="evenodd" d="M40.804 44.6761L40.6863 45.3823L38.804 45.696L40.6863 46.0098L41 47.8921L41.2791 46.2175C41.1312 45.7212 40.9714 45.2066 40.804 44.6761ZM15.1961 20.4118L14.8824 22.2942L13 22.6079L14.8824 22.9216L15.1961 24.804L15.5098 22.9216L17.3922 22.6079L15.5098 22.2942L15.1961 20.4118ZM21.647 27.3138L21.9608 25.4314L22.2745 27.3138L24.1568 27.6275L22.2745 27.9412L21.9608 29.8236L21.647 27.9412L19.7647 27.6275L21.647 27.3138ZM33.8235 27.3138L34.1372 25.4314L34.451 27.3138L36.3333 27.6275L34.451 27.9412L34.1372 29.8236L33.8235 27.9412L31.9412 27.6275L33.8235 27.3138ZM34.8823 36.6079L34.5686 38.4902L32.6863 38.8039L34.5686 39.1177L34.8823 41L35.1961 39.1177L37.0784 38.8039L35.1961 38.4902L34.8823 36.6079ZM22.3921 38.4902L22.7059 36.6079L23.0196 38.4902L24.9019 38.8039L23.0196 39.1177L22.7059 41L22.3921 39.1177L20.5098 38.8039L22.3921 38.4902ZM15.8824 32.3823L16.1961 30.5L16.5098 32.3823L18.3922 32.696L16.5098 33.0098L16.1961 34.8921L15.8824 33.0098L14 32.696L15.8824 32.3823ZM30 43.5L29.6863 45.3823L27.8039 45.696L29.6863 46.0098L30 47.8921L30.3137 46.0098L32.1961 45.696L30.3137 45.3823L30 43.5ZM16.8824 45.3823L17.1961 43.5L17.5098 45.3823L19.3922 45.696L17.5098 46.0098L17.1961 47.8921L16.8824 46.0098L15 45.696L16.8824 45.3823Z" fill="white" fill-opacity="0.8"/>
<path d="M2 27.5L6.5 7L13 11L11 27.5L18.5 47L3.5 50L2 27.5Z" fill="#898989"/>
<path d="M2 27.5L6.5 7L13 11L11 27.5L18.5 47L3.5 50L2 27.5Z" fill="white" fill-opacity="0.8"/>
<path d="M33.5341 0.0493491C33.5224 0.0329591 33.511 0.0165098 33.5 0C33.5118 0.0117773 33.5231 0.0282706 33.5341 0.0493491C34.5879 1.52207 38.5275 2.51651 41 4C43.5 5.5 44 7 45.5 8.5C42 10.5 31.5 29 29 35.5C24 29 13 13.5 3.5 8.5C7.5 6.5 6 4.5 10 3C12.7112 1.9833 16.9418 1.99973 18.9587 0.0406713C18.9703 0.0156743 18.9841 0.001972 19 0C18.9863 0.013651 18.9726 0.0272078 18.9587 0.0406713C18.6609 0.68437 19.8218 8.81774 23 17C26.243 25.3493 26.9744 27.9094 28.8948 34.6318L29 35C30 28 30.2314 24.5 32 17C33.7269 9.67666 33.9882 0.92315 33.5341 0.0493491Z" fill="#898989"/>
<path d="M33.5341 0.0493491C33.5224 0.0329591 33.511 0.0165098 33.5 0C33.5118 0.0117773 33.5231 0.0282706 33.5341 0.0493491C34.5879 1.52207 38.5275 2.51651 41 4C43.5 5.5 44 7 45.5 8.5C42 10.5 31.5 29 29 35.5C24 29 13 13.5 3.5 8.5C7.5 6.5 6 4.5 10 3C12.7112 1.9833 16.9418 1.99973 18.9587 0.0406713C18.9703 0.0156743 18.9841 0.001972 19 0C18.9863 0.013651 18.9726 0.0272078 18.9587 0.0406713C18.6609 0.68437 19.8218 8.81774 23 17C26.243 25.3493 26.9744 27.9094 28.8948 34.6318L29 35C30 28 30.2314 24.5 32 17C33.7269 9.67666 33.9882 0.92315 33.5341 0.0493491Z" fill="white" fill-opacity="0.95"/>
<path d="M46.5 8.49994C41.5 11.9999 32.5 27.9999 29 35.5C24 29 13 13.5 3.5 8.49997C4.5 7.99994 6.5 5.88092 7.5 4.49994C10 6.62694 15 11.9999 17.5 15.9999C19.9172 19.8674 26 29.4999 29 35.5C31 29.4999 34.9139 20.1722 37 15.9999C39 11.9999 41.9454 7.46028 43 5.49994C43.5 6.09994 46 8.49994 46.5 8.49994Z" fill="#1D8CE0"/>
<path d="M46.5 8.49994C41.5 11.9999 32.5 27.9999 29 35.5C24 29 13 13.5 3.5 8.49997C4.5 7.99994 6.5 5.88092 7.5 4.49994C10 6.62694 15 11.9999 17.5 15.9999C19.9172 19.8674 26 29.4999 29 35.5C31 29.4999 34.9139 20.1722 37 15.9999C39 11.9999 41.9454 7.46028 43 5.49994C43.5 6.09994 46 8.49994 46.5 8.49994Z" fill="white" fill-opacity="0.2"/>
</svg>
