<svg width="50" height="50" viewBox="0 0 50 50" fill="none" xmlns="http://www.w3.org/2000/svg">
<g clip-path="url(#clip0_4776_8473)">
<path d="M3.6316 20.6036C2.48482 21.4636 0 23.8529 0 25.9554C3.58506e-05 27.1022 4.58729 32.8363 8.02776 35.13C11.0827 37.1666 14.4418 39.7173 17.5 42.5843C20.5582 45.4514 22.9266 50.1911 23.5 50C24.0734 49.8089 26.2583 44.8616 28.4794 42.5843C31 40 33.6401 37.997 36.316 37.0413C38.992 36.0857 42 34 40.1388 32.0718C38.2521 30.1172 29.244 33.6009 27.1415 33.6009C25.4595 33.6009 14.5901 23.1521 9.17454 18.1188C6.49862 18.8833 4.77839 19.7435 3.6316 20.6036Z" fill="#7445B8"/>
<path fill-rule="evenodd" clip-rule="evenodd" d="M15.5699 24.0952L14.9996 24.0002L14.9138 23.4853C14.6734 23.2615 14.4342 23.0385 14.1968 22.817L13.9996 24.0002L10.9996 24.5002L13.9996 25.0002L14.4996 28.0002L14.9996 25.0002L16.3108 24.7816C16.0634 24.5528 15.8162 24.3238 15.5699 24.0952ZM24.4344 31.9277C24.0021 31.5874 23.5331 31.204 23.0353 30.7862L22.9996 31.0002L19.9996 31.5002L22.9996 32.0002L23.4996 35.0002L23.9996 32.0002L24.4344 31.9277ZM31.5903 39.7653L29.9996 39.5002L32.5078 39.0821C32.2009 39.2988 31.895 39.5268 31.5903 39.7653ZM33.0474 38.7137C33.3198 38.534 33.5929 38.3635 33.8667 38.2027L33.4996 36.0002L33.0474 38.7137ZM13.4996 32.0002L12.9996 35.0002L9.99961 35.5002L12.9996 36.0002L13.4996 39.0002L13.9996 36.0002L16.9996 35.5002L13.9996 35.0002L13.4996 32.0002ZM4.99961 27.0002L5.49961 24.0002L5.99961 27.0002L8.99961 27.5002L5.99961 28.0002L5.49961 31.0002L4.99961 28.0002L1.99961 27.5002L4.99961 27.0002ZM22.4996 39.0002L21.9996 42.0002L18.9996 42.5002L21.9996 43.0002L22.4996 46.0002L22.9996 43.0002L25.9996 42.5002L22.9996 42.0002L22.4996 39.0002Z" fill="#7445B8"/>
<path fill-rule="evenodd" clip-rule="evenodd" d="M15.5699 24.0952L14.9996 24.0002L14.9138 23.4853C14.6734 23.2615 14.4342 23.0385 14.1968 22.817L13.9996 24.0002L10.9996 24.5002L13.9996 25.0002L14.4996 28.0002L14.9996 25.0002L16.3108 24.7816C16.0634 24.5528 15.8162 24.3238 15.5699 24.0952ZM24.4344 31.9277C24.0021 31.5874 23.5331 31.204 23.0353 30.7862L22.9996 31.0002L19.9996 31.5002L22.9996 32.0002L23.4996 35.0002L23.9996 32.0002L24.4344 31.9277ZM31.5903 39.7653L29.9996 39.5002L32.5078 39.0821C32.2009 39.2988 31.895 39.5268 31.5903 39.7653ZM33.0474 38.7137C33.3198 38.534 33.5929 38.3635 33.8667 38.2027L33.4996 36.0002L33.0474 38.7137ZM13.4996 32.0002L12.9996 35.0002L9.99961 35.5002L12.9996 36.0002L13.4996 39.0002L13.9996 36.0002L16.9996 35.5002L13.9996 35.0002L13.4996 32.0002ZM4.99961 27.0002L5.49961 24.0002L5.99961 27.0002L8.99961 27.5002L5.99961 28.0002L5.49961 31.0002L4.99961 28.0002L1.99961 27.5002L4.99961 27.0002ZM22.4996 39.0002L21.9996 42.0002L18.9996 42.5002L21.9996 43.0002L22.4996 46.0002L22.9996 43.0002L25.9996 42.5002L22.9996 42.0002L22.4996 39.0002Z" fill="white" fill-opacity="0.4"/>
<path d="M36.3161 28.344C34.5322 28.9811 30.6584 30.523 29.4352 31.5933C28.7343 33.1224 26.7592 35.2249 27.7149 36.5629C28.0292 37.0028 29.4352 36.9452 30.1997 36.3717C30.9643 35.7983 31.92 34.4604 35.1693 32.9313C37.7687 31.708 39.5 31.5 40.5 32.5C40.1177 31.9266 38.992 30.6376 38.2275 29.8731C37.4629 29.1085 36.6347 28.5351 36.3161 28.344Z" fill="#7445B8"/>
<path d="M36.3161 28.344C34.5322 28.9811 30.6584 30.523 29.4352 31.5933C28.7343 33.1224 26.7592 35.2249 27.7149 36.5629C28.0292 37.0028 29.4352 36.9452 30.1997 36.3717C30.9643 35.7983 31.92 34.4604 35.1693 32.9313C37.7687 31.708 39.5 31.5 40.5 32.5C40.1177 31.9266 38.992 30.6376 38.2275 29.8731C37.4629 29.1085 36.6347 28.5351 36.3161 28.344Z" fill="black" fill-opacity="0.4"/>
<path d="M35.1692 9.42133C31.7288 6.55427 25.6124 -0.708475 25.039 0.0560293C24.4655 0.820582 21.4838 2.9231 14.1441 5.21674C6.80448 7.51039 3.5 11.5 4.20502 15.1555C5.99994 18 10.8593 23.0122 13 25C15.6759 27.4848 28.4999 38 27.4999 36C26.9999 34 30.7731 30.2557 39.1831 28.3443C47.5931 26.4329 50.6513 20.5079 49.8868 20.1254C48.3577 19.3605 38.6097 12.2884 35.1692 9.42133Z" fill="#7445B8"/>
<path d="M35.1692 9.42133C31.7288 6.55427 25.6124 -0.708475 25.039 0.0560293C24.4655 0.820582 21.4838 2.9231 14.1441 5.21674C6.80448 7.51039 3.5 11.5 4.20502 15.1555C5.99994 18 10.8593 23.0122 13 25C15.6759 27.4848 28.4999 38 27.4999 36C26.9999 34 30.7731 30.2557 39.1831 28.3443C47.5931 26.4329 50.6513 20.5079 49.8868 20.1254C48.3577 19.3605 38.6097 12.2884 35.1692 9.42133Z" fill="white" fill-opacity="0.4"/>
<path fill-rule="evenodd" clip-rule="evenodd" d="M23.2389 33.4333C23.3958 33.5534 23.5504 33.6711 23.7023 33.7862L24 32L27 31.5L24 31L23.5 28L23 31L20.635 31.3942C20.7472 31.4838 20.8593 31.573 20.9712 31.6619L23 32L23.2389 33.4333ZM14.1741 26.0447C14.3529 26.1999 14.5434 26.364 14.744 26.5359L15 25L18 24.5L15 24L14.5 21L14 24L12.254 24.291C12.4419 24.4729 12.619 24.6423 12.7834 24.7972L14 25L14.1741 26.0447ZM6.1193 17.7158C6.3245 17.9637 6.53704 18.2156 6.75507 18.4696L7 17L10 16.5L7 16L6.5 13L6 16L4.91222 16.1813C5.0861 16.4171 5.27261 16.6612 5.46958 16.9116L6 17L6.1193 17.7158ZM25 4L25.5 1L26 4L29 4.5L26 5L25.5 8L25 5L22 4.5L25 4ZM23 17L23.5 14L24 17L27 17.5L24 18L23.5 21L23 18L20 17.5L23 17ZM15.5 6L15 9L12 9.5L15 10L15.5 13L16 10L19 9.5L16 9L15.5 6ZM33 13L33.5 10L34 13L37 13.5L34 14L33.5 17L33 14L30 13.5L33 13ZM43.5 18L43 21L40 21.5L43 22L43.5 25L44 22L47 21.5L44 21L43.5 18ZM32 24L32.5 21L33 24L36 24.5L33 25L32.5 28L32 25L29 24.5L32 24Z" fill="#7445B8"/>
<path fill-rule="evenodd" clip-rule="evenodd" d="M23.2389 33.4333C23.3958 33.5534 23.5504 33.6711 23.7023 33.7862L24 32L27 31.5L24 31L23.5 28L23 31L20.635 31.3942C20.7472 31.4838 20.8593 31.573 20.9712 31.6619L23 32L23.2389 33.4333ZM14.1741 26.0447C14.3529 26.1999 14.5434 26.364 14.744 26.5359L15 25L18 24.5L15 24L14.5 21L14 24L12.254 24.291C12.4419 24.4729 12.619 24.6423 12.7834 24.7972L14 25L14.1741 26.0447ZM6.1193 17.7158C6.3245 17.9637 6.53704 18.2156 6.75507 18.4696L7 17L10 16.5L7 16L6.5 13L6 16L4.91222 16.1813C5.0861 16.4171 5.27261 16.6612 5.46958 16.9116L6 17L6.1193 17.7158ZM25 4L25.5 1L26 4L29 4.5L26 5L25.5 8L25 5L22 4.5L25 4ZM23 17L23.5 14L24 17L27 17.5L24 18L23.5 21L23 18L20 17.5L23 17ZM15.5 6L15 9L12 9.5L15 10L15.5 13L16 10L19 9.5L16 9L15.5 6ZM33 13L33.5 10L34 13L37 13.5L34 14L33.5 17L33 14L30 13.5L33 13ZM43.5 18L43 21L40 21.5L43 22L43.5 25L44 22L47 21.5L44 21L43.5 18ZM32 24L32.5 21L33 24L36 24.5L33 25L32.5 28L32 25L29 24.5L32 24Z" fill="white" fill-opacity="0.8"/>
</g>
<defs>
<clipPath id="clip0_4776_8473">
<rect width="50" height="50" fill="white" transform="matrix(-1 0 0 1 50 0)"/>
</clipPath>
</defs>
</svg>
