<svg width="50" height="50" viewBox="0 0 50 50" fill="none" xmlns="http://www.w3.org/2000/svg">
<g clip-path="url(#clip0_5251_8666)">
<path d="M42.5 6L39 11L37.5 29L36.5 48.5L49.5 45.5L42.5 26.5V6Z" fill="#898989"/>
<path d="M42.5 6L39 11L37.5 29L36.5 48.5L49.5 45.5L42.5 26.5V6Z" fill="white" fill-opacity="0.6"/>
<path d="M27 3C23 3 20 1 19 0C18 2 20.8 18.1 28 18.5C35.2 18.9 34.8333 2.5 33.5 0C32.8333 0.833333 30.2 3 27 3Z" fill="#7445B8"/>
<path d="M27 3C23 3 20 1 19 0C18 2 20.8 18.1 28 18.5C35.2 18.9 34.8333 2.5 33.5 0C32.8333 0.833333 30.2 3 27 3Z" fill="black" fill-opacity="0.4"/>
<path d="M37.5 28C38 20.5 39.5 7.5 41 3.5L35 4C33 7.5 23 8.5 15.5 4H9C13 16.5 12.6 25.1 13 27.5C13.4 29.9 9 40.5 7.5 49C21.5 50.5 32.6052 50.358 42 49C41 44 36.9945 35.5832 37.5 28Z" fill="#7445B8"/>
<path d="M37.5 28C38 20.5 39.5 7.5 41 3.5L35 4C33 7.5 23 8.5 15.5 4H9C13 16.5 12.6 25.1 13 27.5C13.4 29.9 9 40.5 7.5 49C21.5 50.5 32.6052 50.358 42 49C41 44 36.9945 35.5832 37.5 28Z" fill="white" fill-opacity="0.4"/>
<path fill-rule="evenodd" clip-rule="evenodd" d="M40.804 44.676L40.6863 45.3823L38.804 45.696L40.6863 46.0097L41 47.8921L41.2791 46.2174C41.1312 45.7212 40.9714 45.2066 40.804 44.676ZM15.8824 32.3823L16.1961 30.4999L16.5098 32.3823L18.3922 32.696L16.5098 33.0097L16.1961 34.8921L15.8824 33.0097L14 32.696L15.8824 32.3823ZM22.7059 36.6078L22.3921 38.4902L20.5098 38.8039L22.3921 39.1176L22.7059 41L23.0196 39.1176L24.9019 38.8039L23.0196 38.4902L22.7059 36.6078ZM34.8823 36.6078L34.5686 38.4902L32.6863 38.8039L34.5686 39.1176L34.8823 41L35.1961 39.1176L37.0784 38.8039L35.1961 38.4902L34.8823 36.6078ZM30 43.4999L29.6863 45.3823L27.8039 45.696L29.6863 46.0097L30 47.8921L30.3137 46.0097L32.1961 45.696L30.3137 45.3823L30 43.4999ZM16.8824 45.3823L17.1961 43.4999L17.5098 45.3823L19.3922 45.696L17.5098 46.0097L17.1961 47.8921L16.8824 46.0097L15 45.696L16.8824 45.3823Z" fill="#7445B8"/>
<path fill-rule="evenodd" clip-rule="evenodd" d="M40.804 44.676L40.6863 45.3823L38.804 45.696L40.6863 46.0097L41 47.8921L41.2791 46.2174C41.1312 45.7212 40.9714 45.2066 40.804 44.676ZM15.8824 32.3823L16.1961 30.4999L16.5098 32.3823L18.3922 32.696L16.5098 33.0097L16.1961 34.8921L15.8824 33.0097L14 32.696L15.8824 32.3823ZM22.7059 36.6078L22.3921 38.4902L20.5098 38.8039L22.3921 39.1176L22.7059 41L23.0196 39.1176L24.9019 38.8039L23.0196 38.4902L22.7059 36.6078ZM34.8823 36.6078L34.5686 38.4902L32.6863 38.8039L34.5686 39.1176L34.8823 41L35.1961 39.1176L37.0784 38.8039L35.1961 38.4902L34.8823 36.6078ZM30 43.4999L29.6863 45.3823L27.8039 45.696L29.6863 46.0097L30 47.8921L30.3137 46.0097L32.1961 45.696L30.3137 45.3823L30 43.4999ZM16.8824 45.3823L17.1961 43.4999L17.5098 45.3823L19.3922 45.696L17.5098 46.0097L17.1961 47.8921L16.8824 46.0097L15 45.696L16.8824 45.3823Z" fill="white" fill-opacity="0.8"/>
<path d="M28.8235 33.3138L29.1372 31.4314L29.451 33.3138L31.3333 33.6275L29.451 33.9412L29.1372 35.8236L28.8235 33.9412L26.9412 33.6275L28.8235 33.3138Z" fill="#7445B8"/>
<path d="M28.8235 33.3138L29.1372 31.4314L29.451 33.3138L31.3333 33.6275L29.451 33.9412L29.1372 35.8236L28.8235 33.9412L26.9412 33.6275L28.8235 33.3138Z" fill="white" fill-opacity="0.8"/>
<path d="M20.8824 14.8824L21.1961 13L21.5098 14.8824L23.3922 15.1961L21.5098 15.5098L21.1961 17.3922L20.8824 15.5098L19 15.1961L20.8824 14.8824Z" fill="#7445B8"/>
<path d="M20.8824 14.8824L21.1961 13L21.5098 14.8824L23.3922 15.1961L21.5098 15.5098L21.1961 17.3922L20.8824 15.5098L19 15.1961L20.8824 14.8824Z" fill="white" fill-opacity="0.8"/>
<path d="M2 27.5L8 4L13.5 8L11 27.5L18.5 47L3.5 50L2 27.5Z" fill="#898989"/>
<path d="M2 27.5L8 4L13.5 8L11 27.5L18.5 47L3.5 50L2 27.5Z" fill="white" fill-opacity="0.8"/>
<path d="M20 0L5.5 4L13 27L37.5 26.5L44 4L32.5 0C31.2377 2.34636 30.2133 4.57038 27.5 6.5C23.7615 4.69486 22.1869 2.45973 20 0Z" fill="#7445B8"/>
<path d="M20 0L5.5 4L13 27L37.5 26.5L44 4L32.5 0C31.2377 2.34636 30.2133 4.57038 27.5 6.5C23.7615 4.69486 22.1869 2.45973 20 0Z" fill="white" fill-opacity="0.4"/>
<path d="M38.8824 5.88235L39.1961 4L39.5098 5.88235L41.3922 6.19608L39.5098 6.50981L39.1961 8.39216L38.8824 6.50981L37 6.19608L38.8824 5.88235Z" fill="#7445B8"/>
<path d="M38.8824 5.88235L39.1961 4L39.5098 5.88235L41.3922 6.19608L39.5098 6.50981L39.1961 8.39216L38.8824 6.50981L37 6.19608L38.8824 5.88235Z" fill="white" fill-opacity="0.8"/>
<path d="M33.8235 27.3138L34.1372 25.4314L34.4509 27.3138L36.3333 27.6275L34.4509 27.9412L34.1372 29.8236L33.8235 27.9412L31.9411 27.6275L33.8235 27.3138Z" fill="#7445B8"/>
<path d="M33.8235 27.3138L34.1372 25.4314L34.4509 27.3138L36.3333 27.6275L34.4509 27.9412L34.1372 29.8236L33.8235 27.9412L31.9411 27.6275L33.8235 27.3138Z" fill="white" fill-opacity="0.8"/>
<path d="M21.647 27.3138L21.9607 25.4314L22.2745 27.3138L24.1568 27.6275L22.2745 27.9412L21.9607 29.8236L21.647 27.9412L19.7646 27.6275L21.647 27.3138Z" fill="#7445B8"/>
<path d="M21.647 27.3138L21.9607 25.4314L22.2745 27.3138L24.1568 27.6275L22.2745 27.9412L21.9607 29.8236L21.647 27.9412L19.7646 27.6275L21.647 27.3138Z" fill="white" fill-opacity="0.8"/>
<path d="M27.8235 19.3138L28.1372 17.4314L28.451 19.3138L30.3333 19.6275L28.451 19.9412L28.1372 21.8236L27.8235 19.9412L25.9412 19.6275L27.8235 19.3138Z" fill="#7445B8"/>
<path d="M27.8235 19.3138L28.1372 17.4314L28.451 19.3138L30.3333 19.6275L28.451 19.9412L28.1372 21.8236L27.8235 19.9412L25.9412 19.6275L27.8235 19.3138Z" fill="white" fill-opacity="0.8"/>
<path d="M14.8824 21.2941L15.1961 19.4117L15.5098 21.2941L17.3922 21.6078L15.5098 21.9215L15.1961 23.8039L14.8824 21.9215L13 21.6078L14.8824 21.2941Z" fill="#7445B8"/>
<path d="M14.8824 21.2941L15.1961 19.4117L15.5098 21.2941L17.3922 21.6078L15.5098 21.9215L15.1961 23.8039L14.8824 21.9215L13 21.6078L14.8824 21.2941Z" fill="white" fill-opacity="0.8"/>
<path d="M36.8824 15.8824L37.1961 14L37.5098 15.8824L39.3922 16.1961L37.5098 16.5098L37.1961 18.3922L36.8824 16.5098L35 16.1961L36.8824 15.8824Z" fill="#7445B8"/>
<path d="M36.8824 15.8824L37.1961 14L37.5098 15.8824L39.3922 16.1961L37.5098 16.5098L37.1961 18.3922L36.8824 16.5098L35 16.1961L36.8824 15.8824Z" fill="white" fill-opacity="0.8"/>
<path d="M19.8824 9.88235L20.1961 8L20.5098 9.88235L22.3922 10.1961L20.5098 10.5098L20.1961 12.3922L19.8824 10.5098L18 10.1961L19.8824 9.88235Z" fill="#7445B8"/>
<path d="M19.8824 9.88235L20.1961 8L20.5098 9.88235L22.3922 10.1961L20.5098 10.5098L20.1961 12.3922L19.8824 10.5098L18 10.1961L19.8824 9.88235Z" fill="white" fill-opacity="0.8"/>
<path d="M10.8824 11.8824L11.1961 10L11.5098 11.8824L13.3922 12.1961L11.5098 12.5098L11.1961 14.3922L10.8824 12.5098L9 12.1961L10.8824 11.8824Z" fill="#7445B8"/>
<path d="M10.8824 11.8824L11.1961 10L11.5098 11.8824L13.3922 12.1961L11.5098 12.5098L11.1961 14.3922L10.8824 12.5098L9 12.1961L10.8824 11.8824Z" fill="white" fill-opacity="0.8"/>
<path d="M13.8824 3.88235L14.1961 2L14.5098 3.88235L16.3922 4.19608L14.5098 4.50981L14.1961 6.39216L13.8824 4.50981L12 4.19608L13.8824 3.88235Z" fill="#7445B8"/>
<path d="M13.8824 3.88235L14.1961 2L14.5098 3.88235L16.3922 4.19608L14.5098 4.50981L14.1961 6.39216L13.8824 4.50981L12 4.19608L13.8824 3.88235Z" fill="white" fill-opacity="0.8"/>
<path d="M30.8824 9.88235L31.1961 8L31.5098 9.88235L33.3922 10.1961L31.5098 10.5098L31.1961 12.3922L30.8824 10.5098L29 10.1961L30.8824 9.88235Z" fill="#7445B8"/>
<path d="M30.8824 9.88235L31.1961 8L31.5098 9.88235L33.3922 10.1961L31.5098 10.5098L31.1961 12.3922L30.8824 10.5098L29 10.1961L30.8824 9.88235Z" fill="white" fill-opacity="0.8"/>
<path d="M9.125 3L4.5 4L11.8587 23.5L9.125 3Z" fill="#2FC4A7"/>
<path d="M9.125 3L4.5 4L11.8587 23.5L9.125 3Z" fill="white" fill-opacity="0.4"/>
<path d="M44.5 4L41.5 3.13043L38.5111 23L44.5 4Z" fill="#2FC4A7"/>
<path d="M44.5 4L41.5 3.13043L38.5111 23L44.5 4Z" fill="white" fill-opacity="0.4"/>
<path d="M27.4999 6C23.7614 4.19486 22.1869 2.45973 19.9999 0L15.9999 1.18519C19.1423 4.77595 21.4999 7 25.4999 9C20.8049 13.7494 17.2639 15.9522 11.1829 20L12.2073 23.5C19.4999 20 27.2071 13.0736 29.4999 10.5C32.134 7.54339 34.9999 3.93333 36.4999 1.4L32.4999 0C31.2376 2.34636 29.9999 4 27.4999 6Z" fill="#2FC4A7"/>
<path d="M27.4999 6C23.7614 4.19486 22.1869 2.45973 19.9999 0L15.9999 1.18519C19.1423 4.77595 21.4999 7 25.4999 9C20.8049 13.7494 17.2639 15.9522 11.1829 20L12.2073 23.5C19.4999 20 27.2071 13.0736 29.4999 10.5C32.134 7.54339 34.9999 3.93333 36.4999 1.4L32.4999 0C31.2376 2.34636 29.9999 4 27.4999 6Z" fill="white" fill-opacity="0.4"/>
</g>
<defs>
<clipPath id="clip0_5251_8666">
<rect width="50" height="50" fill="white"/>
</clipPath>
</defs>
</svg>
