<svg width="50" height="50" viewBox="0 0 50 50" fill="none" xmlns="http://www.w3.org/2000/svg">
<path d="M42.5 6L39 11L37.5 29L36.5 48.5L49.5 45.5L42.5 26.5V6Z" fill="#898989"/>
<path d="M42.5 6L39 11L37.5 29L36.5 48.5L49.5 45.5L42.5 26.5V6Z" fill="white" fill-opacity="0.6"/>
<path d="M27 3C23 3 20 1 19 0C18 2 20.8 18.1 28 18.5C35.2 18.9 34.8333 2.5 33.5 0C32.8333 0.833333 30.2 3 27 3Z" fill="#7445B8"/>
<path d="M27 3C23 3 20 1 19 0C18 2 20.8 18.1 28 18.5C35.2 18.9 34.8333 2.5 33.5 0C32.8333 0.833333 30.2 3 27 3Z" fill="black" fill-opacity="0.4"/>
<path d="M37.5 28C38 20.5 41.5 11 43 7L33.5 11.5C29.3222 12.4999 26.3291 12.3359 20.5 11.5L7.5 7C9.5 12.1667 12.6 25.1 13 27.5C13.4 29.9 10 41 9 49C24 50 32.6052 50.358 42 49C41 44 36.9945 35.5832 37.5 28Z" fill="#7445B8"/>
<path d="M37.5 28C38 20.5 41.5 11 43 7L33.5 11.5C29.3222 12.4999 26.3291 12.3359 20.5 11.5L7.5 7C9.5 12.1667 12.6 25.1 13 27.5C13.4 29.9 10 41 9 49C24 50 32.6052 50.358 42 49C41 44 36.9945 35.5832 37.5 28Z" fill="white" fill-opacity="0.4"/>
<path fill-rule="evenodd" clip-rule="evenodd" d="M40.804 44.6761L40.6863 45.3823L38.804 45.696L40.6863 46.0098L41 47.8921L41.2791 46.2175C41.1312 45.7212 40.9714 45.2066 40.804 44.6761ZM15.1961 20.4118L14.8824 22.2942L13 22.6079L14.8824 22.9216L15.1961 24.804L15.5098 22.9216L17.3922 22.6079L15.5098 22.2942L15.1961 20.4118ZM21.647 27.3138L21.9608 25.4314L22.2745 27.3138L24.1568 27.6275L22.2745 27.9412L21.9608 29.8236L21.647 27.9412L19.7647 27.6275L21.647 27.3138ZM33.8235 27.3138L34.1372 25.4314L34.451 27.3138L36.3333 27.6275L34.451 27.9412L34.1372 29.8236L33.8235 27.9412L31.9412 27.6275L33.8235 27.3138ZM34.8823 36.6079L34.5686 38.4902L32.6863 38.8039L34.5686 39.1177L34.8823 41L35.1961 39.1177L37.0784 38.8039L35.1961 38.4902L34.8823 36.6079ZM22.3921 38.4902L22.7059 36.6079L23.0196 38.4902L24.9019 38.8039L23.0196 39.1177L22.7059 41L22.3921 39.1177L20.5098 38.8039L22.3921 38.4902ZM15.8824 32.3823L16.1961 30.5L16.5098 32.3823L18.3922 32.696L16.5098 33.0098L16.1961 34.8921L15.8824 33.0098L14 32.696L15.8824 32.3823ZM30 43.5L29.6863 45.3823L27.8039 45.696L29.6863 46.0098L30 47.8921L30.3137 46.0098L32.1961 45.696L30.3137 45.3823L30 43.5ZM16.8824 45.3823L17.1961 43.5L17.5098 45.3823L19.3922 45.696L17.5098 46.0098L17.1961 47.8921L16.8824 46.0098L15 45.696L16.8824 45.3823Z" fill="#7445B8"/>
<path fill-rule="evenodd" clip-rule="evenodd" d="M40.804 44.6761L40.6863 45.3823L38.804 45.696L40.6863 46.0098L41 47.8921L41.2791 46.2175C41.1312 45.7212 40.9714 45.2066 40.804 44.6761ZM15.1961 20.4118L14.8824 22.2942L13 22.6079L14.8824 22.9216L15.1961 24.804L15.5098 22.9216L17.3922 22.6079L15.5098 22.2942L15.1961 20.4118ZM21.647 27.3138L21.9608 25.4314L22.2745 27.3138L24.1568 27.6275L22.2745 27.9412L21.9608 29.8236L21.647 27.9412L19.7647 27.6275L21.647 27.3138ZM33.8235 27.3138L34.1372 25.4314L34.451 27.3138L36.3333 27.6275L34.451 27.9412L34.1372 29.8236L33.8235 27.9412L31.9412 27.6275L33.8235 27.3138ZM34.8823 36.6079L34.5686 38.4902L32.6863 38.8039L34.5686 39.1177L34.8823 41L35.1961 39.1177L37.0784 38.8039L35.1961 38.4902L34.8823 36.6079ZM22.3921 38.4902L22.7059 36.6079L23.0196 38.4902L24.9019 38.8039L23.0196 39.1177L22.7059 41L22.3921 39.1177L20.5098 38.8039L22.3921 38.4902ZM15.8824 32.3823L16.1961 30.5L16.5098 32.3823L18.3922 32.696L16.5098 33.0098L16.1961 34.8921L15.8824 33.0098L14 32.696L15.8824 32.3823ZM30 43.5L29.6863 45.3823L27.8039 45.696L29.6863 46.0098L30 47.8921L30.3137 46.0098L32.1961 45.696L30.3137 45.3823L30 43.5ZM16.8824 45.3823L17.1961 43.5L17.5098 45.3823L19.3922 45.696L17.5098 46.0098L17.1961 47.8921L16.8824 46.0098L15 45.696L16.8824 45.3823Z" fill="white" fill-opacity="0.8"/>
<path d="M28.8235 33.3138L29.1372 31.4314L29.451 33.3138L31.3333 33.6275L29.451 33.9412L29.1372 35.8236L28.8235 33.9412L26.9412 33.6275L28.8235 33.3138Z" fill="#7445B8"/>
<path d="M28.8235 33.3138L29.1372 31.4314L29.451 33.3138L31.3333 33.6275L29.451 33.9412L29.1372 35.8236L28.8235 33.9412L26.9412 33.6275L28.8235 33.3138Z" fill="white" fill-opacity="0.8"/>
<path d="M27.8235 20.3138L28.1372 18.4314L28.451 20.3138L30.3333 20.6275L28.451 20.9412L28.1372 22.8236L27.8235 20.9412L25.9412 20.6275L27.8235 20.3138Z" fill="#7445B8"/>
<path d="M27.8235 20.3138L28.1372 18.4314L28.451 20.3138L30.3333 20.6275L28.451 20.9412L28.1372 22.8236L27.8235 20.9412L25.9412 20.6275L27.8235 20.3138Z" fill="white" fill-opacity="0.8"/>
<path d="M36.8235 17.3138L37.1372 15.4314L37.451 17.3138L39.3333 17.6275L37.451 17.9412L37.1372 19.8236L36.8235 17.9412L34.9412 17.6275L36.8235 17.3138Z" fill="#7445B8"/>
<path d="M36.8235 17.3138L37.1372 15.4314L37.451 17.3138L39.3333 17.6275L37.451 17.9412L37.1372 19.8236L36.8235 17.9412L34.9412 17.6275L36.8235 17.3138Z" fill="white" fill-opacity="0.8"/>
<path d="M2 27.5L6.5 7L13 11L11 27.5L18.5 47L3.5 50L2 27.5Z" fill="#898989"/>
<path d="M2 27.5L6.5 7L13 11L11 27.5L18.5 47L3.5 50L2 27.5Z" fill="white" fill-opacity="0.8"/>
<path d="M27.5 5C23.5 5 20.5 3 19 0C17.8333 0.333333 12.4 1.6 10 2C7.6 2.4 6.33333 8.33333 4.5 10C5.5 13.5 8 17 7 23C12.5 18 19 20 27.5 18C35.3479 16.1534 38.5 13 43.5 11.5C43.5 11.5 42.5 3 41.5 2.5C40.5 2 33.5 0 33.5 0C33 1.83333 31 5 27.5 5Z" fill="#FEFEFE"/>
<path d="M4.5 10C5.5 13.5 6.5 19 5.5 25C11 20 19.5 22 29.5 18.5C37.1096 15.8366 38.5 13 43.5 11.5C43.5 11.5 43.3415 10.1531 43.0877 8.5C37.5 9.5 35.4041 13.1248 29 15C21.8177 17.1031 14.5 16.5 9.5 18.5C9.5 12.5 6.57405 6.5 6.57405 6.5C5.90011 7.93308 5.24711 9.32081 4.5 10Z" fill="#D0333D"/>
<path d="M4.5 10C5.5 13.5 6.5 19 5.5 25C11 20 19.5 22 29.5 18.5C37.1096 15.8366 38.5 13 43.5 11.5C43.5 11.5 43.3415 10.1531 43.0877 8.5C37.5 9.5 35.4041 13.1248 29 15C21.8177 17.1031 14.5 16.5 9.5 18.5C9.5 12.5 6.57405 6.5 6.57405 6.5C5.90011 7.93308 5.24711 9.32081 4.5 10Z" fill="white" fill-opacity="0.2"/>
</svg>
