<?xml version="1.0" encoding="utf-8"?><svg fill="none" viewBox="0 0 50 50" xmlns="http://www.w3.org/2000/svg" width="50" height="50"><g clip-path="url(#bbga)"><path d="M28 1.5C22.8 1.5 15.5.702 12.5 0c0 2.5-1.5 5.5-2.5 11.053C9.06 16.273 6 38 5 48c5 1.5 16.4 2 24 2 7.6 0 13.833-1.123 16-2-.833-8.246-2.9-27.263-4.5-34.842-1.6-7.579-3-10.97-3-13.158-1.167.702-4.3 1.5-9.5 1.5Z" fill="#2FC4A7"/><path d="M28 1.5C22.8 1.5 15.5.702 12.5 0c0 2.5-1.5 5.5-2.5 11.053C9.06 16.273 6 38 5 48c5 1.5 16.4 2 24 2 7.6 0 13.833-1.123 16-2-.833-8.246-2.9-27.263-4.5-34.842-1.6-7.579-3-10.97-3-13.158-1.167.702-4.3 1.5-9.5 1.5Z" fill="#fff" fill-opacity=".2"/><path d="m37.16 36.039 1.909-.037-1.793.654.036 1.908-.654-1.793-1.908.036 1.793-.653-.036-1.908.653 1.793Zm5.788-6.584c.12.977.241 1.975.36 2.977l.004.132-.654-1.793-1.908.036 1.793-.653-.036-1.908.44 1.209Zm-7.135-4.232 1.907-.036-1.793.653.037 1.908-.653-1.793-1.908.037 1.793-.654-.037-1.908.654 1.793Zm5.818-5.452-1.88.036 1.776-.648c.033.188.068.392.104.612Zm-6.47-4.732 1.908-.037-1.793.654.036 1.908-.654-1.793-1.908.036 1.793-.653-.036-1.908.653 1.793Zm4.26-6.264-1.67.032 1.546-.564c.04.17.082.346.124.532Zm-5.608-3.552 1.907-.036-1.793.653.037 1.908-.653-1.793-1.908.037 1.793-.654-.037-1.908.654 1.793Z" fill="#7445B8"/><path d="m37.16 36.039 1.909-.037-1.793.654.036 1.908-.654-1.793-1.908.036 1.793-.653-.036-1.908.653 1.793Zm5.788-6.584c.12.977.241 1.975.36 2.977l.004.132-.654-1.793-1.908.036 1.793-.653-.036-1.908.44 1.209Zm-7.135-4.232 1.907-.036-1.793.653.037 1.908-.653-1.793-1.908.037 1.793-.654-.037-1.908.654 1.793Zm5.818-5.452-1.88.036 1.776-.648c.033.188.068.392.104.612Zm-6.47-4.732 1.908-.037-1.793.654.036 1.908-.654-1.793-1.908.036 1.793-.653-.036-1.908.653 1.793Zm4.26-6.264-1.67.032 1.546-.564c.04.17.082.346.124.532Zm-5.608-3.552 1.907-.036-1.793.653.037 1.908-.653-1.793-1.908.037 1.793-.654-.037-1.908.654 1.793Z" fill="#fff" fill-opacity=".8"/><path d="M39 7c-.5-2-1.5-5-1.5-7-1.6 1.2-7.333 1.5-10 1.5-1.5 0-4.7-.1-7.5-.5s-6.167-.833-7.5-1c0 1.5-.908 3.525-1.5 5.5C9.5 10.5 7.884 20 7.5 24 7.116 28 5.676 37.87 5 43.5c2.7.5 6 .133 11.5.5 5 .333 11.5.73 16.5.5 5-.23 12-1 12-1-1-7-2.7-21.1-3.5-25.5-1-5.5-2-9-2.5-11Z" fill="#7445B8"/><path d="M39 7c-.5-2-1.5-5-1.5-7-1.6 1.2-7.333 1.5-10 1.5-1.5 0-4.7-.1-7.5-.5s-6.167-.833-7.5-1c0 1.5-.908 3.525-1.5 5.5C9.5 10.5 7.884 20 7.5 24 7.116 28 5.676 37.87 5 43.5c2.7.5 6 .133 11.5.5 5 .333 11.5.73 16.5.5 5-.23 12-1 12-1-1-7-2.7-21.1-3.5-25.5-1-5.5-2-9-2.5-11Z" fill="#fff" fill-opacity=".4"/><path d="M17.5 45.695c5.5.54 10.5.249 15.5 0 5-.25 12-2.159 12-2.159A337.661 337.661 0 0 1 44.555 40C40.5 41.378 33.6 42.457 26 42.457S8.935 40.819 5.403 40c-.15 1.3-.288 2.5-.403 3.536 2.7.54 7.01 1.62 12.5 2.159Z" fill="#FEFEFE"/><path d="m21.482 4.73.609-1.808.01 1.908 1.809.61L22 5.45l-.609 1.808-.01-1.909-1.809-.609 1.909-.01Z" fill="#7445B8"/><path d="m21.482 4.73.609-1.808.01 1.908 1.809.61L22 5.45l-.609 1.808-.01-1.909-1.809-.609 1.909-.01Z" fill="#fff" fill-opacity=".8"/><path d="m20.46 14.792.61-1.808.01 1.908 1.808.61-1.908.01-.61 1.808-.01-1.908-1.808-.61 1.909-.01Z" fill="#7445B8"/><path d="m20.46 14.792.61-1.808.01 1.908 1.808.61-1.908.01-.61 1.808-.01-1.908-1.808-.61 1.909-.01Z" fill="#fff" fill-opacity=".8"/><path d="m18.417 24.945.61-1.809.01 1.909 1.808.609-1.908.01-.61 1.808-.01-1.908-1.808-.61 1.908-.01Z" fill="#7445B8"/><path d="m18.417 24.945.61-1.809.01 1.909 1.808.609-1.908.01-.61 1.808-.01-1.908-1.808-.61 1.908-.01Z" fill="#fff" fill-opacity=".8"/><path d="m13.58 7.76.61-1.808.01 1.908 1.809.61-1.909.01-.609 1.808-.01-1.909-1.808-.609 1.908-.01Z" fill="#7445B8"/><path d="m13.58 7.76.61-1.808.01 1.908 1.809.61-1.909.01-.609 1.808-.01-1.909-1.808-.609 1.908-.01Z" fill="#fff" fill-opacity=".8"/><path d="m12.963 17.879.609-1.809.01 1.909 1.808.609-1.908.01-.61 1.808-.01-1.908-1.808-.61 1.909-.01Z" fill="#7445B8"/><path d="m12.963 17.879.609-1.809.01 1.909 1.808.609-1.908.01-.61 1.808-.01-1.908-1.808-.61 1.909-.01Z" fill="#fff" fill-opacity=".8"/><path d="m17.522 35.91.609-1.809.01 1.909 1.809.609-1.909.01-.609 1.809-.01-1.909-1.809-.609 1.909-.01Z" fill="#7445B8"/><path d="m17.522 35.91.609-1.809.01 1.909 1.809.609-1.909.01-.609 1.809-.01-1.909-1.809-.609 1.909-.01Z" fill="#fff" fill-opacity=".8"/><path d="m11.88 29.872.61-1.808.01 1.908 1.809.61-1.909.01-.609 1.808-.01-1.908-1.808-.61 1.908-.01Z" fill="#7445B8"/><path d="m11.88 29.872.61-1.808.01 1.908 1.809.61-1.909.01-.609 1.808-.01-1.908-1.808-.61 1.908-.01Z" fill="#fff" fill-opacity=".8"/><path d="m36.482 6.73.609-1.808.01 1.908 1.809.61L37 7.45l-.609 1.808-.01-1.909-1.808-.609 1.908-.01Z" fill="#7445B8"/><path d="m36.482 6.73.609-1.808.01 1.908 1.809.61L37 7.45l-.609 1.808-.01-1.909-1.808-.609 1.908-.01Z" fill="#fff" fill-opacity=".8"/><path d="m35.46 16.792.61-1.808.01 1.908 1.808.61-1.908.01-.61 1.808-.01-1.908-1.808-.61 1.909-.01Z" fill="#7445B8"/><path d="m35.46 16.792.61-1.808.01 1.908 1.808.61-1.908.01-.61 1.808-.01-1.908-1.808-.61 1.909-.01Z" fill="#fff" fill-opacity=".8"/><path d="m33.417 26.945.61-1.809.01 1.909 1.808.609-1.908.01-.61 1.808-.01-1.908-1.808-.61 1.908-.01Z" fill="#7445B8"/><path d="m33.417 26.945.61-1.809.01 1.909 1.808.609-1.908.01-.61 1.808-.01-1.908-1.808-.61 1.908-.01Z" fill="#fff" fill-opacity=".8"/><path d="m28.58 9.76.61-1.808.01 1.908 1.809.61-1.909.01-.609 1.808-.01-1.909-1.808-.609 1.908-.01Z" fill="#7445B8"/><path d="m28.58 9.76.61-1.808.01 1.908 1.809.61-1.909.01-.609 1.808-.01-1.909-1.808-.609 1.908-.01Z" fill="#fff" fill-opacity=".8"/><path d="m27.963 19.879.609-1.809.01 1.909 1.808.609-1.908.01-.61 1.808-.01-1.908-1.808-.61 1.909-.01Z" fill="#7445B8"/><path d="m27.963 19.879.609-1.809.01 1.909 1.808.609-1.908.01-.61 1.808-.01-1.908-1.808-.61 1.909-.01Z" fill="#fff" fill-opacity=".8"/><path d="m32.522 37.91.609-1.809.01 1.909 1.809.609-1.909.01-.609 1.809-.01-1.909-1.809-.609 1.909-.01Z" fill="#7445B8"/><path d="m32.522 37.91.609-1.809.01 1.909 1.809.609-1.909.01-.609 1.809-.01-1.909-1.809-.609 1.909-.01Z" fill="#fff" fill-opacity=".8"/><path d="m26.88 31.872.61-1.808.01 1.908 1.809.61-1.909.01-.609 1.808-.01-1.908-1.808-.61 1.908-.01Z" fill="#7445B8"/><path d="m26.88 31.872.61-1.808.01 1.908 1.809.61-1.909.01-.609 1.808-.01-1.908-1.808-.61 1.908-.01Z" fill="#fff" fill-opacity=".8"/><path d="m39.88 33.872.61-1.808.01 1.908 1.809.61-1.909.01-.609 1.808-.01-1.908-1.809-.61 1.909-.01Z" fill="#7445B8"/><path d="m39.88 33.872.61-1.808.01 1.908 1.809.61-1.909.01-.609 1.808-.01-1.908-1.809-.61 1.909-.01Z" fill="#fff" fill-opacity=".8"/><g clip-path="url(#bbgb)" fill="#152242"><path d="M39.029 28.446a1 1 0 0 1 1.742 0l3.507 6.22a1 1 0 0 0 .673.49l7 1.412a1 1 0 0 1 .538 1.657l-4.833 5.258a1 1 0 0 0-.257.791l.82 7.094a1 1 0 0 1-1.41 1.024l-6.493-2.972a1 1 0 0 0-.832 0l-6.494 2.972a1 1 0 0 1-1.41-1.024l.82-7.094a1 1 0 0 0-.257-.791l-4.833-5.258a1 1 0 0 1 .539-1.657l7-1.412a1 1 0 0 0 .673-.49l3.507-6.22Z"/><path d="m41.935 37.532.339.602.675.135 4.062.82-2.804 3.05-.467.508.08.686.474 4.115-3.766-1.724-.627-.287-.627.288-3.769 1.723.476-4.115.079-.686-.467-.508-2.805-3.05 4.063-.82.676-.135.338-.602 2.035-3.611 2.035 3.611Z" stroke="#FAA21E" stroke-width="3.013"/></g></g><defs><clipPath id="bbga"><path fill="#fff" d="M0 0h50v50H0z"/></clipPath><clipPath id="bbgb"><path fill="#fff" transform="matrix(1 0 0 -1 0 50)" d="M0 0h50v50H0z"/></clipPath></defs></svg>