<svg width="50" height="50" viewBox="0 0 50 50" fill="none" xmlns="http://www.w3.org/2000/svg">
<path d="M28 1.5C22.8 1.5 15.5 0.701754 12.5 0C12.5 2.5 11 5.5 10 11.0526C9.05982 16.2731 6 38 5 48C10 49.5 21.4 50 29 50C36.6 50 42.8333 48.8772 45 48C44.1667 39.7544 42.1 20.7368 40.5 13.1579C38.9 5.57895 37.5 2.1875 37.5 0C36.3333 0.701754 33.2 1.5 28 1.5Z" fill="#1D8CE0"/>
<path d="M28 1.5C22.8 1.5 15.5 0.701754 12.5 0C12.5 2.5 11 5.5 10 11.0526C9.05982 16.2731 6 38 5 48C10 49.5 21.4 50 29 50C36.6 50 42.8333 48.8772 45 48C44.1667 39.7544 42.1 20.7368 40.5 13.1579C38.9 5.57895 37.5 2.1875 37.5 0C36.3333 0.701754 33.2 1.5 28 1.5Z" fill="white" fill-opacity="0.2"/>
<path d="M37.5 0C35.5 0.8 31 1.33333 29 1.5C29 4 29.1525 14.5076 29.5 22.5C30 34 30 39 30.5 47C36.5 46.5 40 46 44.7 45C44.0333 38.1667 42.3 23.4 41.5 19C40.5 13.5 39.5 9 39 7C38.5 5 37.5 2 37.5 0Z" fill="#7445B8"/>
<path d="M37.5 0C35.5 0.8 31 1.33333 29 1.5C29 4 29.1525 14.5076 29.5 22.5C30 34 30 39 30.5 47C36.5 46.5 40 46 44.7 45C44.0333 38.1667 42.3 23.4 41.5 19C40.5 13.5 39.5 9 39 7C38.5 5 37.5 2 37.5 0Z" fill="white" fill-opacity="0.4"/>
<path fill-rule="evenodd" clip-rule="evenodd" d="M39.2991 8.24285L37.7504 8.8072L39.4221 8.77518C39.3797 8.58983 39.3386 8.41228 39.2991 8.24285ZM41.5286 19.1592L39.7504 19.8072L41.6327 19.7712C41.5966 19.5514 41.5619 19.347 41.5286 19.1592ZM42.9522 29.4681L42.5068 28.2459L42.5434 30.1538L40.7504 30.8072L42.6584 30.7707L43.3117 32.5636L43.3087 32.4085C43.1907 31.4189 43.0713 30.4333 42.9522 29.4681ZM33.159 3.43011L33.1956 5.33808L31.4026 5.99144L33.3106 5.95491L33.9639 7.7479L33.9274 5.83993L35.7204 5.18657L33.8124 5.2231L33.159 3.43011ZM35.1956 25.3381L35.159 23.4301L35.8124 25.2231L37.7204 25.1866L35.9274 25.8399L35.9639 27.7479L35.3106 25.9549L33.4026 25.9914L35.1956 25.3381ZM36.5434 36.1539L36.5069 34.2459L37.1602 36.0389L39.0682 36.0024L37.2752 36.6557L37.3117 38.5637L36.6584 36.7707L34.7504 36.8072L36.5434 36.1539ZM34.5434 15.1539L34.5069 13.2459L35.1602 15.0389L37.0682 15.0024L35.2752 15.6557L35.3117 17.5637L34.6584 15.7707L32.7504 15.8072L34.5434 15.1539Z" fill="#7445B8"/>
<path fill-rule="evenodd" clip-rule="evenodd" d="M39.2991 8.24285L37.7504 8.8072L39.4221 8.77518C39.3797 8.58983 39.3386 8.41228 39.2991 8.24285ZM41.5286 19.1592L39.7504 19.8072L41.6327 19.7712C41.5966 19.5514 41.5619 19.347 41.5286 19.1592ZM42.9522 29.4681L42.5068 28.2459L42.5434 30.1538L40.7504 30.8072L42.6584 30.7707L43.3117 32.5636L43.3087 32.4085C43.1907 31.4189 43.0713 30.4333 42.9522 29.4681ZM33.159 3.43011L33.1956 5.33808L31.4026 5.99144L33.3106 5.95491L33.9639 7.7479L33.9274 5.83993L35.7204 5.18657L33.8124 5.2231L33.159 3.43011ZM35.1956 25.3381L35.159 23.4301L35.8124 25.2231L37.7204 25.1866L35.9274 25.8399L35.9639 27.7479L35.3106 25.9549L33.4026 25.9914L35.1956 25.3381ZM36.5434 36.1539L36.5069 34.2459L37.1602 36.0389L39.0682 36.0024L37.2752 36.6557L37.3117 38.5637L36.6584 36.7707L34.7504 36.8072L36.5434 36.1539ZM34.5434 15.1539L34.5069 13.2459L35.1602 15.0389L37.0682 15.0024L35.2752 15.6557L35.3117 17.5637L34.6584 15.7707L32.7504 15.8072L34.5434 15.1539Z" fill="white" fill-opacity="0.8"/>
<path d="M20 1C17.2 0.6 13.8334 0.166667 12.5 0C12.5 1.5 12.0924 3.02539 11.5 5C10 10 8.38394 20 8.00005 24C7.61616 28 5.97574 39.3693 5.30005 45C8.00006 45.5 11.0001 46 14 46.2C16.8222 46.3881 22.0001 47 24.5001 47C25.5001 41.5 26.0001 33 26.5001 26.5C27.0225 19.7083 27.5001 7.5 27.5001 1.5C26.0001 1.5 22.8 1.4 20 1Z" fill="#7445B8"/>
<path d="M20 1C17.2 0.6 13.8334 0.166667 12.5 0C12.5 1.5 12.0924 3.02539 11.5 5C10 10 8.38394 20 8.00005 24C7.61616 28 5.97574 39.3693 5.30005 45C8.00006 45.5 11.0001 46 14 46.2C16.8222 46.3881 22.0001 47 24.5001 47C25.5001 41.5 26.0001 33 26.5001 26.5C27.0225 19.7083 27.5001 7.5 27.5001 1.5C26.0001 1.5 22.8 1.4 20 1Z" fill="white" fill-opacity="0.4"/>
<path d="M30.5 47C36.5 46.5 40 46 44.7 45C44.614 44.1189 44.5103 43.1058 44.3932 42L33.6615 43.5C33.2743 39.3334 32.4 29.7 32 24.5C31.6 19.3 30.5 6.93735 30 1.40601C29.6251 1.4447 29.2868 1.47614 29 1.50004C29 4.00004 29.1525 14.5076 29.5 22.5C30 34 30 39 30.5 47Z" fill="#898989"/>
<path d="M30.5 47C36.5 46.5 40 46 44.7 45C44.614 44.1189 44.5103 43.1058 44.3932 42L33.6615 43.5C33.2743 39.3334 32.4 29.7 32 24.5C31.6 19.3 30.5 6.93735 30 1.40601C29.6251 1.4447 29.2868 1.47614 29 1.50004C29 4.00004 29.1525 14.5076 29.5 22.5C30 34 30 39 30.5 47Z" fill="white" fill-opacity="0.95"/>
<path d="M26.5001 26.5C27.0225 19.7084 27.5001 7.50004 27.5001 1.50004C27.221 1.50004 26.8832 1.49658 26.5001 1.48838C25.8334 7.65893 24.4 20.9 24 24.5C23.6 28.1 22.1666 38.6667 21.5 43.5L5.74287 41.5C5.57285 42.8005 5.42099 43.9922 5.30005 45C8.00006 45.5 11.0001 46 14 46.2C16.8222 46.3882 22.0001 47 24.5001 47C25.5001 41.5 26.0001 33 26.5001 26.5Z" fill="#898989"/>
<path d="M26.5001 26.5C27.0225 19.7084 27.5001 7.50004 27.5001 1.50004C27.221 1.50004 26.8832 1.49658 26.5001 1.48838C25.8334 7.65893 24.4 20.9 24 24.5C23.6 28.1 22.1666 38.6667 21.5 43.5L5.74287 41.5C5.57285 42.8005 5.42099 43.9922 5.30005 45C8.00006 45.5 11.0001 46 14 46.2C16.8222 46.3882 22.0001 47 24.5001 47C25.5001 41.5 26.0001 33 26.5001 26.5Z" fill="white" fill-opacity="0.95"/>
<path d="M21.8331 5.128L22.4424 3.31956L22.4525 5.22785L24.261 5.83715L22.3527 5.84731L21.7434 7.65574L21.7332 5.74745L19.9248 5.13815L21.8331 5.128Z" fill="#7445B8"/>
<path d="M21.8331 5.128L22.4424 3.31956L22.4525 5.22785L24.261 5.83715L22.3527 5.84731L21.7434 7.65574L21.7332 5.74745L19.9248 5.13815L21.8331 5.128Z" fill="white" fill-opacity="0.8"/>
<path d="M20.8118 15.1901L21.4211 13.3817L21.4312 15.29L23.2397 15.8993L21.3314 15.9095L20.7221 17.7179L20.7119 15.8096L18.9035 15.2003L20.8118 15.1901Z" fill="#7445B8"/>
<path d="M20.8118 15.1901L21.4211 13.3817L21.4312 15.29L23.2397 15.8993L21.3314 15.9095L20.7221 17.7179L20.7119 15.8096L18.9035 15.2003L20.8118 15.1901Z" fill="white" fill-opacity="0.8"/>
<path d="M18.7687 25.3427L19.378 23.5343L19.3881 25.4426L21.1966 26.0519L19.2883 26.0621L18.679 27.8705L18.6688 25.9622L16.8604 25.3529L18.7687 25.3427Z" fill="#7445B8"/>
<path d="M18.7687 25.3427L19.378 23.5343L19.3881 25.4426L21.1966 26.0519L19.2883 26.0621L18.679 27.8705L18.6688 25.9622L16.8604 25.3529L18.7687 25.3427Z" fill="white" fill-opacity="0.8"/>
<path d="M13.9322 8.15793L14.5415 6.3495L14.5516 8.25779L16.3601 8.86709L14.4518 8.87724L13.8425 10.6857L13.8323 8.77739L12.0239 8.16809L13.9322 8.15793Z" fill="#7445B8"/>
<path d="M13.9322 8.15793L14.5415 6.3495L14.5516 8.25779L16.3601 8.86709L14.4518 8.87724L13.8425 10.6857L13.8323 8.77739L12.0239 8.16809L13.9322 8.15793Z" fill="white" fill-opacity="0.8"/>
<path d="M13.3139 18.2767L13.9232 16.4682L13.9334 18.3765L15.7418 18.9858L13.8335 18.996L13.2242 20.8044L13.2141 18.8961L11.4056 18.2868L13.3139 18.2767Z" fill="#7445B8"/>
<path d="M13.3139 18.2767L13.9232 16.4682L13.9334 18.3765L15.7418 18.9858L13.8335 18.996L13.2242 20.8044L13.2141 18.8961L11.4056 18.2868L13.3139 18.2767Z" fill="white" fill-opacity="0.8"/>
<path d="M17.873 36.3078L18.4823 34.4994L18.4924 36.4077L20.3009 37.017L18.3926 37.0271L17.7833 38.8356L17.7731 36.9273L15.9647 36.318L17.873 36.3078Z" fill="#7445B8"/>
<path d="M17.873 36.3078L18.4823 34.4994L18.4924 36.4077L20.3009 37.017L18.3926 37.0271L17.7833 38.8356L17.7731 36.9273L15.9647 36.318L17.873 36.3078Z" fill="white" fill-opacity="0.8"/>
<path d="M12.2323 30.2701L12.8416 28.4617L12.8517 30.37L14.6601 30.9793L12.7519 30.9894L12.1426 32.7979L12.1324 30.8896L10.324 30.2803L12.2323 30.2701Z" fill="#7445B8"/>
<path d="M12.2323 30.2701L12.8416 28.4617L12.8517 30.37L14.6601 30.9793L12.7519 30.9894L12.1426 32.7979L12.1324 30.8896L10.324 30.2803L12.2323 30.2701Z" fill="white" fill-opacity="0.8"/>
</svg>
