<svg width="50" height="50" viewBox="0 0 50 50" fill="none" xmlns="http://www.w3.org/2000/svg">
<path d="M28 1.5C22.8 1.5 15.5 0.701754 12.5 0C12.5 2.5 11 5.5 10 11.0526C9.05982 16.2731 6 38 5 48C10 49.5 21.4 50 29 50C36.6 50 42.8333 48.8772 45 48C44.1667 39.7544 42.1 20.7368 40.5 13.1579C38.9 5.57895 37.5 2.1875 37.5 0C36.3333 0.701754 33.2 1.5 28 1.5Z" fill="#D0333D"/>
<path d="M28 1.5C22.8 1.5 15.5 0.701754 12.5 0C12.5 2.5 11 5.5 10 11.0526C9.05982 16.2731 6 38 5 48C10 49.5 21.4 50 29 50C36.6 50 42.8333 48.8772 45 48C44.1667 39.7544 42.1 20.7368 40.5 13.1579C38.9 5.57895 37.5 2.1875 37.5 0C36.3333 0.701754 33.2 1.5 28 1.5Z" fill="white" fill-opacity="0.2"/>
<path d="M28 1.5C22.8 1.5 15.5 0.701754 12.5 0C12.5 2.5 11 5.5 10 11.0526C9.40798 14.3399 7.22941 24.1721 6 33.5C7.5 38.5 9.31988 41.4409 13.5 45.5C22.5 43.5 27 41.8182 33.5 36.5C39 32 41.3572 28.6667 43 26C42.3519 21.0487 41.1066 16.0312 40.5 13.1579C38.9 5.57895 37.5 2.1875 37.5 0C36.3333 0.701754 33.2 1.5 28 1.5Z" fill="#7445B8"/>
<path d="M28 1.5C22.8 1.5 15.5 0.701754 12.5 0C12.5 2.5 11 5.5 10 11.0526C9.40798 14.3399 7.22941 24.1721 6 33.5C7.5 38.5 9.31988 41.4409 13.5 45.5C22.5 43.5 27 41.8182 33.5 36.5C39 32 41.3572 28.6667 43 26C42.3519 21.0487 41.1066 16.0312 40.5 13.1579C38.9 5.57895 37.5 2.1875 37.5 0C36.3333 0.701754 33.2 1.5 28 1.5Z" fill="white" fill-opacity="0.4"/>
<path d="M27.9743 24.3729L28.4607 22.5276L28.5991 24.4309L30.4444 24.9172L28.5411 25.0556L28.0547 26.9009L27.9163 24.9976L26.071 24.5113L27.9743 24.3729Z" fill="#7445B8"/>
<path d="M27.9743 24.3729L28.4607 22.5276L28.5991 24.4309L30.4444 24.9172L28.5411 25.0556L28.0547 26.9009L27.9163 24.9976L26.071 24.5113L27.9743 24.3729Z" fill="white" fill-opacity="0.8"/>
<path d="M26.3146 35.1452L26.801 33.2999L26.9394 35.2032L28.7847 35.6896L26.8814 35.828L26.3951 37.6733L26.2567 35.77L24.4113 35.2837L26.3146 35.1452Z" fill="#7445B8"/>
<path d="M26.3146 35.1452L26.801 33.2999L26.9394 35.2032L28.7847 35.6896L26.8814 35.828L26.3951 37.6733L26.2567 35.77L24.4113 35.2837L26.3146 35.1452Z" fill="white" fill-opacity="0.8"/>
<path d="M31.5169 4.58777L32.0032 2.74246L32.1416 4.64575L33.9869 5.1321L32.0836 5.27052L31.5973 7.11582L31.4589 5.21253L29.6136 4.72619L31.5169 4.58777Z" fill="#7445B8"/>
<path d="M31.5169 4.58777L32.0032 2.74246L32.1416 4.64575L33.9869 5.1321L32.0836 5.27052L31.5973 7.11582L31.4589 5.21253L29.6136 4.72619L31.5169 4.58777Z" fill="white" fill-opacity="0.8"/>
<path d="M30.1305 14.3982L30.6169 12.5529L30.7553 14.4562L32.6006 14.9425L30.6973 15.0809L30.2109 16.9262L30.0725 15.023L28.2272 14.5366L30.1305 14.3982Z" fill="#7445B8"/>
<path d="M30.1305 14.3982L30.6169 12.5529L30.7553 14.4562L32.6006 14.9425L30.6973 15.0809L30.2109 16.9262L30.0725 15.023L28.2272 14.5366L30.1305 14.3982Z" fill="white" fill-opacity="0.8"/>
<path d="M36.8534 9.03128L37.3397 7.18598L37.4781 9.08927L39.3234 9.57562L37.4202 9.71404L36.9338 11.5593L36.7954 9.65605L34.9501 9.16971L36.8534 9.03128Z" fill="#7445B8"/>
<path d="M36.8534 9.03128L37.3397 7.18598L37.4781 9.08927L39.3234 9.57562L37.4202 9.71404L36.9338 11.5593L36.7954 9.65605L34.9501 9.16971L36.8534 9.03128Z" fill="white" fill-opacity="0.8"/>
<path d="M35.7707 20.1591L36.257 18.3138L36.3955 20.2171L38.2408 20.7034L36.3375 20.8418L35.8511 22.6871L35.7127 20.7838L33.8674 20.2975L35.7707 20.1591Z" fill="#7445B8"/>
<path d="M35.7707 20.1591L36.257 18.3138L36.3955 20.2171L38.2408 20.7034L36.3375 20.8418L35.8511 22.6871L35.7127 20.7838L33.8674 20.2975L35.7707 20.1591Z" fill="white" fill-opacity="0.8"/>
<path d="M33.7261 31.0136L34.2124 29.1683L34.3509 31.0715L36.1962 31.5579L34.2929 31.6963L33.8065 33.5416L33.6681 31.6383L31.8228 31.152L33.7261 31.0136Z" fill="#7445B8"/>
<path d="M33.7261 31.0136L34.2124 29.1683L34.3509 31.0715L36.1962 31.5579L34.2929 31.6963L33.8065 33.5416L33.6681 31.6383L31.8228 31.152L33.7261 31.0136Z" fill="white" fill-opacity="0.8"/>
<path d="M21.8331 5.128L22.4424 3.31956L22.4525 5.22785L24.261 5.83715L22.3527 5.84731L21.7434 7.65574L21.7332 5.74745L19.9248 5.13815L21.8331 5.128Z" fill="#7445B8"/>
<path d="M21.8331 5.128L22.4424 3.31956L22.4525 5.22785L24.261 5.83715L22.3527 5.84731L21.7434 7.65574L21.7332 5.74745L19.9248 5.13815L21.8331 5.128Z" fill="white" fill-opacity="0.8"/>
<path d="M20.8118 15.1901L21.4211 13.3817L21.4312 15.29L23.2397 15.8993L21.3314 15.9095L20.7221 17.7179L20.7119 15.8096L18.9035 15.2003L20.8118 15.1901Z" fill="#7445B8"/>
<path d="M20.8118 15.1901L21.4211 13.3817L21.4312 15.29L23.2397 15.8993L21.3314 15.9095L20.7221 17.7179L20.7119 15.8096L18.9035 15.2003L20.8118 15.1901Z" fill="white" fill-opacity="0.8"/>
<path d="M18.7687 25.3427L19.378 23.5343L19.3881 25.4426L21.1966 26.0519L19.2883 26.0621L18.679 27.8705L18.6688 25.9622L16.8604 25.3529L18.7687 25.3427Z" fill="#7445B8"/>
<path d="M18.7687 25.3427L19.378 23.5343L19.3881 25.4426L21.1966 26.0519L19.2883 26.0621L18.679 27.8705L18.6688 25.9622L16.8604 25.3529L18.7687 25.3427Z" fill="white" fill-opacity="0.8"/>
<path d="M13.9322 8.15793L14.5415 6.3495L14.5516 8.25779L16.3601 8.86709L14.4518 8.87724L13.8425 10.6857L13.8323 8.77739L12.0239 8.16809L13.9322 8.15793Z" fill="#7445B8"/>
<path d="M13.9322 8.15793L14.5415 6.3495L14.5516 8.25779L16.3601 8.86709L14.4518 8.87724L13.8425 10.6857L13.8323 8.77739L12.0239 8.16809L13.9322 8.15793Z" fill="white" fill-opacity="0.8"/>
<path d="M13.3139 18.2767L13.9232 16.4682L13.9334 18.3765L15.7418 18.9858L13.8335 18.996L13.2242 20.8044L13.2141 18.8961L11.4056 18.2868L13.3139 18.2767Z" fill="#7445B8"/>
<path d="M13.3139 18.2767L13.9232 16.4682L13.9334 18.3765L15.7418 18.9858L13.8335 18.996L13.2242 20.8044L13.2141 18.8961L11.4056 18.2868L13.3139 18.2767Z" fill="white" fill-opacity="0.8"/>
<path d="M17.873 36.3078L18.4823 34.4994L18.4924 36.4077L20.3009 37.017L18.3926 37.0271L17.7833 38.8356L17.7731 36.9273L15.9647 36.318L17.873 36.3078Z" fill="#7445B8"/>
<path d="M17.873 36.3078L18.4823 34.4994L18.4924 36.4077L20.3009 37.017L18.3926 37.0271L17.7833 38.8356L17.7731 36.9273L15.9647 36.318L17.873 36.3078Z" fill="white" fill-opacity="0.8"/>
<path d="M12.2323 30.2701L12.8416 28.4617L12.8517 30.37L14.6601 30.9793L12.7519 30.9894L12.1426 32.7979L12.1324 30.8896L10.324 30.2803L12.2323 30.2701Z" fill="#7445B8"/>
<path d="M12.2323 30.2701L12.8416 28.4617L12.8517 30.37L14.6601 30.9793L12.7519 30.9894L12.1426 32.7979L12.1324 30.8896L10.324 30.2803L12.2323 30.2701Z" fill="white" fill-opacity="0.8"/>
<path d="M13.5001 45.5C10.5 42.5 7 38 6 33.5C6.17528 32.1701 6.35469 30.83 6.5352 29.5C8.5 35 10.5 38 14.0001 41C20.5001 40 28.3 36.5 31.5 34.5C34.7 32.5 40.5716 27 42.5962 23C42.7313 23.9744 42.8662 24.978 43 26C42.0716 29.5 38.2525 33.3036 33.5 37C29 40.5 22.5001 43.5 13.5001 45.5Z" fill="#7445B8"/>
<path d="M13.5001 45.5C10.5 42.5 7 38 6 33.5C6.17528 32.1701 6.35469 30.83 6.5352 29.5C8.5 35 10.5 38 14.0001 41C20.5001 40 28.3 36.5 31.5 34.5C34.7 32.5 40.5716 27 42.5962 23C42.7313 23.9744 42.8662 24.978 43 26C42.0716 29.5 38.2525 33.3036 33.5 37C29 40.5 22.5001 43.5 13.5001 45.5Z" fill="white" fill-opacity="0.95"/>
</svg>
