<?xml version="1.0" encoding="utf-8"?><svg fill="none" viewBox="0 0 50 50" xmlns="http://www.w3.org/2000/svg" width="50" height="50"><g clip-path="url(#bbka)"><path d="M28 1.5C22.8 1.5 15.5.702 12.5 0c0 2.5-1.5 5.5-2.5 11.053C9.06 16.273 6 38 5 48c5 1.5 16.4 2 24 2 7.6 0 13.833-1.123 16-2-.833-8.246-2.9-27.263-4.5-34.842-1.6-7.579-3-10.97-3-13.158-1.167.702-4.3 1.5-9.5 1.5Z" fill="#1D8CE0"/><path d="M28 1.5C22.8 1.5 15.5.702 12.5 0c0 2.5-1.5 5.5-2.5 11.053C9.06 16.273 6 38 5 48c5 1.5 16.4 2 24 2 7.6 0 13.833-1.123 16-2-.833-8.246-2.9-27.263-4.5-34.842-1.6-7.579-3-10.97-3-13.158-1.167.702-4.3 1.5-9.5 1.5Z" fill="#fff" fill-opacity=".2"/><path d="M37.5 0C35.5.8 31 1.333 29 1.5c0 2.5.152 13.008.5 21C30 34 30 39 30.5 47c6-.5 9.5-1 14.2-2-.667-6.833-2.4-21.6-3.2-26-1-5.5-2-10-2.5-12s-1.5-5-1.5-7Z" fill="#7445B8"/><path d="M37.5 0C35.5.8 31 1.333 29 1.5c0 2.5.152 13.008.5 21C30 34 30 39 30.5 47c6-.5 9.5-1 14.2-2-.667-6.833-2.4-21.6-3.2-26-1-5.5-2-10-2.5-12s-1.5-5-1.5-7Z" fill="#fff" fill-opacity=".4"/><path d="m37.16 36.039 1.909-.037-1.793.654.036 1.908-.654-1.793-1.908.036 1.793-.653-.036-1.908.653 1.793Zm5.788-6.584c.12.977.241 1.975.36 2.977l.004.132-.654-1.793-1.908.036 1.793-.653-.036-1.908.44 1.209Zm-7.135-4.232 1.907-.036-1.793.653.037 1.908-.653-1.793-1.908.037 1.793-.654-.037-1.908.654 1.793Zm5.818-5.452-1.88.036 1.776-.648c.033.188.068.392.104.612Zm-6.47-4.732 1.908-.037-1.793.654.036 1.908-.654-1.793-1.908.036 1.793-.653-.036-1.908.653 1.793Zm4.26-6.264-1.67.032 1.546-.564c.04.17.082.346.124.532Zm-5.608-3.552 1.907-.036-1.793.653.037 1.908-.653-1.793-1.908.037 1.793-.654-.037-1.908.654 1.793Z" fill="#7445B8"/><path d="m37.16 36.039 1.909-.037-1.793.654.036 1.908-.654-1.793-1.908.036 1.793-.653-.036-1.908.653 1.793Zm5.788-6.584c.12.977.241 1.975.36 2.977l.004.132-.654-1.793-1.908.036 1.793-.653-.036-1.908.44 1.209Zm-7.135-4.232 1.907-.036-1.793.653.037 1.908-.653-1.793-1.908.037 1.793-.654-.037-1.908.654 1.793Zm5.818-5.452-1.88.036 1.776-.648c.033.188.068.392.104.612Zm-6.47-4.732 1.908-.037-1.793.654.036 1.908-.654-1.793-1.908.036 1.793-.653-.036-1.908.653 1.793Zm4.26-6.264-1.67.032 1.546-.564c.04.17.082.346.124.532Zm-5.608-3.552 1.907-.036-1.793.653.037 1.908-.653-1.793-1.908.037 1.793-.654-.037-1.908.654 1.793Z" fill="#fff" fill-opacity=".8"/><path d="M20 1c-2.8-.4-6.167-.833-7.5-1 0 1.5-.408 3.025-1 5C10 10 8.384 20 8 24c-.384 4-2.024 15.37-2.7 21 2.7.5 5.7 1 8.7 1.2 2.822.188 8 .8 10.5.8 1-5.5 1.5-14 2-20.5.523-6.792 1-19 1-25-1.5 0-4.7-.1-7.5-.5Z" fill="#7445B8"/><path d="M20 1c-2.8-.4-6.167-.833-7.5-1 0 1.5-.408 3.025-1 5C10 10 8.384 20 8 24c-.384 4-2.024 15.37-2.7 21 2.7.5 5.7 1 8.7 1.2 2.822.188 8 .8 10.5.8 1-5.5 1.5-14 2-20.5.523-6.792 1-19 1-25-1.5 0-4.7-.1-7.5-.5Z" fill="#fff" fill-opacity=".4"/><path d="M30.5 47c6-.5 9.5-1 14.2-2-.086-.881-.19-1.894-.307-3l-10.732 1.5c-.387-4.167-1.261-13.8-1.661-19-.4-5.2-1.5-17.563-2-23.094-.375.039-.713.07-1 .094 0 2.5.152 13.008.5 21C30 34 30 39 30.5 47Z" fill="#898989"/><path d="M30.5 47c6-.5 9.5-1 14.2-2-.086-.881-.19-1.894-.307-3l-10.732 1.5c-.387-4.167-1.261-13.8-1.661-19-.4-5.2-1.5-17.563-2-23.094-.375.039-.713.07-1 .094 0 2.5.152 13.008.5 21C30 34 30 39 30.5 47Z" fill="#fff" fill-opacity=".95"/><path d="M26.5 26.5c.523-6.792 1-19 1-25-.279 0-.617-.003-1-.012C25.833 7.658 24.4 20.9 24 24.5c-.4 3.6-1.833 14.167-2.5 19l-15.757-2c-.17 1.3-.322 2.492-.443 3.5 2.7.5 5.7 1 8.7 1.2 2.822.188 8 .8 10.5.8 1-5.5 1.5-14 2-20.5Z" fill="#898989"/><path d="M26.5 26.5c.523-6.792 1-19 1-25-.279 0-.617-.003-1-.012C25.833 7.658 24.4 20.9 24 24.5c-.4 3.6-1.833 14.167-2.5 19l-15.757-2c-.17 1.3-.322 2.492-.443 3.5 2.7.5 5.7 1 8.7 1.2 2.822.188 8 .8 10.5.8 1-5.5 1.5-14 2-20.5Z" fill="#fff" fill-opacity=".95"/><path d="m21.833 5.128.61-1.808.01 1.908 1.808.61-1.908.01-.61 1.808-.01-1.909-1.808-.609 1.908-.01Z" fill="#7445B8"/><path d="m21.833 5.128.61-1.808.01 1.908 1.808.61-1.908.01-.61 1.808-.01-1.909-1.808-.609 1.908-.01Z" fill="#fff" fill-opacity=".8"/><path d="m20.812 15.19.61-1.808.01 1.908 1.808.61-1.909.01-.609 1.808-.01-1.908-1.808-.61 1.908-.01Z" fill="#7445B8"/><path d="m20.812 15.19.61-1.808.01 1.908 1.808.61-1.909.01-.609 1.808-.01-1.908-1.808-.61 1.908-.01Z" fill="#fff" fill-opacity=".8"/><path d="m18.769 25.343.609-1.809.01 1.909 1.809.609-1.909.01-.609 1.808-.01-1.908-1.809-.61 1.909-.01Z" fill="#7445B8"/><path d="m18.769 25.343.609-1.809.01 1.909 1.809.609-1.909.01-.609 1.808-.01-1.908-1.809-.61 1.909-.01Z" fill="#fff" fill-opacity=".8"/><path d="m13.932 8.158.61-1.808.01 1.908 1.808.61-1.908.01-.61 1.808-.01-1.909-1.808-.609 1.908-.01Z" fill="#7445B8"/><path d="m13.932 8.158.61-1.808.01 1.908 1.808.61-1.908.01-.61 1.808-.01-1.909-1.808-.609 1.908-.01Z" fill="#fff" fill-opacity=".8"/><path d="m13.314 18.277.61-1.809.01 1.909 1.808.609-1.909.01-.609 1.808-.01-1.908-1.808-.61 1.908-.01Z" fill="#7445B8"/><path d="m13.314 18.277.61-1.809.01 1.909 1.808.609-1.909.01-.609 1.808-.01-1.908-1.808-.61 1.908-.01Z" fill="#fff" fill-opacity=".8"/><path d="m17.873 36.308.61-1.809.01 1.909 1.808.609-1.908.01-.61 1.809-.01-1.909-1.808-.609 1.908-.01Z" fill="#7445B8"/><path d="m17.873 36.308.61-1.809.01 1.909 1.808.609-1.908.01-.61 1.809-.01-1.909-1.808-.609 1.908-.01Z" fill="#fff" fill-opacity=".8"/><path d="m12.232 30.27.61-1.808.01 1.908 1.808.61-1.908.01-.61 1.808-.01-1.908-1.808-.61 1.908-.01Z" fill="#7445B8"/><path d="m12.232 30.27.61-1.808.01 1.908 1.808.61-1.908.01-.61 1.808-.01-1.908-1.808-.61 1.908-.01Z" fill="#fff" fill-opacity=".8"/><g clip-path="url(#bbkb)" fill="#152242"><path d="M39.029 28.446a1 1 0 0 1 1.742 0l3.507 6.22a1 1 0 0 0 .673.49l7 1.412a1 1 0 0 1 .538 1.657l-4.833 5.258a1 1 0 0 0-.257.791l.82 7.094a1 1 0 0 1-1.41 1.024l-6.493-2.972a1 1 0 0 0-.832 0l-6.494 2.972a1 1 0 0 1-1.41-1.024l.82-7.094a1 1 0 0 0-.257-.791l-4.833-5.258a1 1 0 0 1 .539-1.657l7-1.412a1 1 0 0 0 .673-.49l3.507-6.22Z"/><path d="m41.935 37.532.339.602.675.135 4.062.82-2.804 3.05-.467.508.08.686.474 4.115-3.766-1.724-.627-.287-.627.288-3.769 1.723.476-4.115.079-.686-.467-.508-2.805-3.05 4.063-.82.676-.135.338-.602 2.035-3.611 2.035 3.611Z" stroke="#FAA21E" stroke-width="3.013"/></g></g><defs><clipPath id="bbka"><path fill="#fff" d="M0 0h50v50H0z"/></clipPath><clipPath id="bbkb"><path fill="#fff" transform="matrix(1 0 0 -1 0 50)" d="M0 0h50v50H0z"/></clipPath></defs></svg>