<?xml version="1.0" encoding="utf-8"?><svg fill="none" viewBox="0 0 50 50" xmlns="http://www.w3.org/2000/svg" width="50" height="50"><g clip-path="url(#bbia)"><path d="M42.5 6 39 11l-1.5 18-1 19.5 13-3-7-19V6Z" fill="#898989"/><path d="M42.5 6 39 11l-1.5 18-1 19.5 13-3-7-19V6Z" fill="#fff" fill-opacity=".6"/><path d="M27 3c-4 0-7-2-8-3-1 2 1.8 18.1 9 18.5 7.2.4 6.833-16 5.5-18.5-.667.833-3.3 3-6.5 3Z" fill="#7445B8"/><path d="M27 3c-4 0-7-2-8-3-1 2 1.8 18.1 9 18.5 7.2.4 6.833-16 5.5-18.5-.667.833-3.3 3-6.5 3Z" fill="#000" fill-opacity=".4"/><path d="M37.5 28c.5-7.5 2-20.5 3.5-24.5L35 4c-2 3.5-12 4.5-19.5 0H9c4 12.5 3.6 21.1 4 23.5.4 2.4-4 13-5.5 21.5 14 1.5 25.105 1.358 34.5 0-1-5-5.005-13.417-4.5-21Z" fill="#7445B8"/><path d="M37.5 28c.5-7.5 2-20.5 3.5-24.5L35 4c-2 3.5-12 4.5-19.5 0H9c4 12.5 3.6 21.1 4 23.5.4 2.4-4 13-5.5 21.5 14 1.5 25.105 1.358 34.5 0-1-5-5.005-13.417-4.5-21Z" fill="#fff" fill-opacity=".4"/><path d="m17.51 45.383 1.883.313-1.883.314-.314 1.883-.313-1.883L15 45.696l1.883-.313.313-1.883.314 1.883Zm12.803 0 1.883.313-1.882.314L30 47.893l-.314-1.883-1.882-.314 1.883-.313L30 43.5l.314 1.883Zm10.49-.706c.169.532.326 1.048.474 1.546L41 47.893l-.313-1.883-1.883-.314 1.883-.313.117-.706ZM23.02 38.49l1.882.314-1.883.314L22.707 41l-.313-1.882-1.883-.314 1.883-.314.313-1.883.314 1.883Zm12.176 0 1.882.314-1.882.314L34.883 41l-.315-1.882-1.881-.314 1.881-.314.315-1.883.313 1.883ZM16.51 32.383l1.883.313-1.883.314-.314 1.883-.313-1.883L14 32.696l1.883-.313.313-1.883.314 1.883Z" fill="#7445B8"/><path d="m17.51 45.383 1.883.313-1.883.314-.314 1.883-.313-1.883L15 45.696l1.883-.313.313-1.883.314 1.883Zm12.803 0 1.883.313-1.882.314L30 47.893l-.314-1.883-1.882-.314 1.883-.313L30 43.5l.314 1.883Zm10.49-.706c.169.532.326 1.048.474 1.546L41 47.893l-.313-1.883-1.883-.314 1.883-.313.117-.706ZM23.02 38.49l1.882.314-1.883.314L22.707 41l-.313-1.882-1.883-.314 1.883-.314.313-1.883.314 1.883Zm12.176 0 1.882.314-1.882.314L34.883 41l-.315-1.882-1.881-.314 1.881-.314.315-1.883.313 1.883ZM16.51 32.383l1.883.313-1.883.314-.314 1.883-.313-1.883L14 32.696l1.883-.313.313-1.883.314 1.883Z" fill="#fff" fill-opacity=".8"/><path d="m28.823 33.314.314-1.883.314 1.883 1.882.313-1.882.314-.314 1.883-.314-1.883-1.882-.314 1.883-.313Z" fill="#7445B8"/><path d="m28.823 33.314.314-1.883.314 1.883 1.882.313-1.882.314-.314 1.883-.314-1.883-1.882-.314 1.883-.313Z" fill="#fff" fill-opacity=".8"/><path d="M20.882 14.882 21.196 13l.314 1.882 1.882.314-1.882.314-.314 1.882-.314-1.882L19 15.196l1.882-.314Z" fill="#7445B8"/><path d="M20.882 14.882 21.196 13l.314 1.882 1.882.314-1.882.314-.314 1.882-.314-1.882L19 15.196l1.882-.314Z" fill="#fff" fill-opacity=".8"/><path d="M2 27.5 8 4l5.5 4L11 27.5 18.5 47l-15 3L2 27.5Z" fill="#898989"/><path d="M2 27.5 8 4l5.5 4L11 27.5 18.5 47l-15 3L2 27.5Z" fill="#fff" fill-opacity=".8"/><path d="M20 0 5.5 4 13 27l24.5-.5L44 4 32.5 0c-1.262 2.346-2.287 4.57-5 6.5C23.762 4.695 22.187 2.46 20 0Z" fill="#7445B8"/><path d="M20 0 5.5 4 13 27l24.5-.5L44 4 32.5 0c-1.262 2.346-2.287 4.57-5 6.5C23.762 4.695 22.187 2.46 20 0Z" fill="#fff" fill-opacity=".4"/><path d="M38.882 5.882 39.196 4l.314 1.882 1.882.314-1.882.314-.314 1.882-.314-1.882L37 6.196l1.882-.314Z" fill="#7445B8"/><path d="M38.882 5.882 39.196 4l.314 1.882 1.882.314-1.882.314-.314 1.882-.314-1.882L37 6.196l1.882-.314Z" fill="#fff" fill-opacity=".8"/><path d="m33.824 27.314.313-1.883.314 1.883 1.882.314-1.882.313-.314 1.883-.313-1.883-1.883-.313 1.883-.314Z" fill="#7445B8"/><path d="m33.824 27.314.313-1.883.314 1.883 1.882.314-1.882.313-.314 1.883-.313-1.883-1.883-.313 1.883-.314Z" fill="#fff" fill-opacity=".8"/><path d="m21.647 27.314.314-1.883.314 1.883 1.882.314-1.883.313-.313 1.883-.314-1.883-1.882-.313 1.882-.314Z" fill="#7445B8"/><path d="m21.647 27.314.314-1.883.314 1.883 1.882.314-1.883.313-.313 1.883-.314-1.883-1.882-.313 1.882-.314Z" fill="#fff" fill-opacity=".8"/><path d="m27.823 19.314.314-1.883.314 1.883 1.882.314-1.882.313-.314 1.883-.314-1.883-1.882-.313 1.883-.314Z" fill="#7445B8"/><path d="m27.823 19.314.314-1.883.314 1.883 1.882.314-1.882.313-.314 1.883-.314-1.883-1.882-.313 1.883-.314Z" fill="#fff" fill-opacity=".8"/><path d="m14.882 21.294.314-1.882.314 1.882 1.882.314-1.882.314-.314 1.882-.314-1.882L13 21.608l1.882-.314Z" fill="#7445B8"/><path d="m14.882 21.294.314-1.882.314 1.882 1.882.314-1.882.314-.314 1.882-.314-1.882L13 21.608l1.882-.314Z" fill="#fff" fill-opacity=".8"/><path d="M36.882 15.882 37.196 14l.314 1.882 1.882.314-1.882.314-.314 1.882-.314-1.882L35 16.196l1.882-.314Z" fill="#7445B8"/><path d="M36.882 15.882 37.196 14l.314 1.882 1.882.314-1.882.314-.314 1.882-.314-1.882L35 16.196l1.882-.314Z" fill="#fff" fill-opacity=".8"/><path d="M19.882 9.882 20.196 8l.314 1.882 1.882.314-1.882.314-.314 1.882-.314-1.882L18 10.196l1.882-.314Z" fill="#7445B8"/><path d="M19.882 9.882 20.196 8l.314 1.882 1.882.314-1.882.314-.314 1.882-.314-1.882L18 10.196l1.882-.314Z" fill="#fff" fill-opacity=".8"/><path d="M10.882 11.882 11.196 10l.314 1.882 1.882.314-1.882.314-.314 1.882-.314-1.882L9 12.196l1.882-.314Z" fill="#7445B8"/><path d="M10.882 11.882 11.196 10l.314 1.882 1.882.314-1.882.314-.314 1.882-.314-1.882L9 12.196l1.882-.314Z" fill="#fff" fill-opacity=".8"/><path d="M13.882 3.882 14.196 2l.314 1.882 1.882.314-1.882.314-.314 1.882-.314-1.882L12 4.196l1.882-.314Z" fill="#7445B8"/><path d="M13.882 3.882 14.196 2l.314 1.882 1.882.314-1.882.314-.314 1.882-.314-1.882L12 4.196l1.882-.314Z" fill="#fff" fill-opacity=".8"/><path d="M30.882 9.882 31.196 8l.314 1.882 1.882.314-1.882.314-.314 1.882-.314-1.882L29 10.196l1.882-.314Z" fill="#7445B8"/><path d="M30.882 9.882 31.196 8l.314 1.882 1.882.314-1.882.314-.314 1.882-.314-1.882L29 10.196l1.882-.314Z" fill="#fff" fill-opacity=".8"/><path d="M9.125 3 4.5 4l7.359 19.5L9.125 3Z" fill="#2FC4A7"/><path d="M9.125 3 4.5 4l7.359 19.5L9.125 3Z" fill="#fff" fill-opacity=".4"/><path d="m44.5 4-3-.87L38.511 23 44.5 4Z" fill="#2FC4A7"/><path d="m44.5 4-3-.87L38.511 23 44.5 4Z" fill="#fff" fill-opacity=".4"/><path d="M27.5 6C23.76 4.195 22.187 2.46 20 0l-4 1.185C19.142 4.776 21.5 7 25.5 9c-4.695 4.75-8.236 6.952-14.317 11l1.024 3.5c7.293-3.5 15-10.426 17.293-13 2.634-2.957 5.5-6.567 7-9.1l-4-1.4c-1.262 2.346-2.5 4-5 6Z" fill="#2FC4A7"/><path d="M27.5 6C23.76 4.195 22.187 2.46 20 0l-4 1.185C19.142 4.776 21.5 7 25.5 9c-4.695 4.75-8.236 6.952-14.317 11l1.024 3.5c7.293-3.5 15-10.426 17.293-13 2.634-2.957 5.5-6.567 7-9.1l-4-1.4c-1.262 2.346-2.5 4-5 6Z" fill="#fff" fill-opacity=".4"/><g clip-path="url(#bbib)" fill="#152242"><path d="M39.029 28.446a1 1 0 0 1 1.742 0l3.507 6.22a1 1 0 0 0 .673.49l7 1.412a1 1 0 0 1 .538 1.657l-4.833 5.258a1 1 0 0 0-.257.791l.82 7.094a1 1 0 0 1-1.41 1.024l-6.493-2.972a1 1 0 0 0-.832 0l-6.494 2.972a1 1 0 0 1-1.41-1.024l.82-7.094a1 1 0 0 0-.257-.791l-4.833-5.258a1 1 0 0 1 .539-1.657l7-1.412a1 1 0 0 0 .673-.49l3.507-6.22Z"/><path d="m41.935 37.532.339.602.675.135 4.062.82-2.804 3.05-.467.508.08.686.474 4.115-3.766-1.724-.627-.287-.627.288-3.769 1.723.476-4.115.079-.686-.467-.508-2.805-3.05 4.063-.82.676-.135.338-.602 2.035-3.611 2.035 3.611Z" stroke="#FAA21E" stroke-width="3.013"/></g></g><defs><clipPath id="bbia"><path fill="#fff" d="M0 0h50v50H0z"/></clipPath><clipPath id="bbib"><path fill="#fff" transform="matrix(1 0 0 -1 0 50)" d="M0 0h50v50H0z"/></clipPath></defs></svg>