<svg width="50" height="50" viewBox="0 0 50 50" fill="none" xmlns="http://www.w3.org/2000/svg">
<path d="M28 1.5C22.8 1.5 15.5 0.701754 12.5 0C12.5 2.5 11 5.5 10 11.0526C9.05982 16.2731 6 38 5 48C10 49.5 21.4 50 29 50C36.6 50 42.8333 48.8772 45 48C44.1667 39.7544 42.1 20.7368 40.5 13.1579C38.9 5.57895 37.5 2.1875 37.5 0C36.3333 0.701754 33.2 1.5 28 1.5Z" fill="#2FC4A7"/>
<path d="M28 1.5C22.8 1.5 15.5 0.701754 12.5 0C12.5 2.5 11 5.5 10 11.0526C9.05982 16.2731 6 38 5 48C10 49.5 21.4 50 29 50C36.6 50 42.8333 48.8772 45 48C44.1667 39.7544 42.1 20.7368 40.5 13.1579C38.9 5.57895 37.5 2.1875 37.5 0C36.3333 0.701754 33.2 1.5 28 1.5Z" fill="white" fill-opacity="0.2"/>
<path fill-rule="evenodd" clip-rule="evenodd" d="M39.2991 8.24291L37.7504 8.80726L39.4221 8.77524C39.3797 8.58989 39.3386 8.41234 39.2991 8.24291ZM41.5286 19.1593L39.7504 19.8073L41.6327 19.7712C41.5966 19.5514 41.5619 19.347 41.5286 19.1593ZM42.9522 29.4681L42.5068 28.2459L42.5434 30.1539L40.7504 30.8073L42.6584 30.7707L43.3117 32.5637L43.3087 32.4086C43.1907 31.419 43.0713 30.4334 42.9522 29.4681ZM33.159 3.43018L33.1956 5.33815L31.4026 5.9915L33.3106 5.95497L33.9639 7.74796L33.9274 5.83999L35.7204 5.18663L33.8124 5.22316L33.159 3.43018ZM35.1956 25.3381L35.159 23.4302L35.8124 25.2232L37.7204 25.1866L35.9274 25.84L35.9639 27.748L35.3106 25.955L33.4026 25.9915L35.1956 25.3381ZM36.5434 36.1539L36.5069 34.246L37.1602 36.039L39.0682 36.0024L37.2752 36.6558L37.3117 38.5638L36.6584 36.7708L34.7504 36.8073L36.5434 36.1539ZM34.5434 15.1539L34.5069 13.246L35.1602 15.039L37.0682 15.0024L35.2752 15.6558L35.3117 17.5637L34.6584 15.7708L32.7504 15.8073L34.5434 15.1539Z" fill="#7445B8"/>
<path fill-rule="evenodd" clip-rule="evenodd" d="M39.2991 8.24291L37.7504 8.80726L39.4221 8.77524C39.3797 8.58989 39.3386 8.41234 39.2991 8.24291ZM41.5286 19.1593L39.7504 19.8073L41.6327 19.7712C41.5966 19.5514 41.5619 19.347 41.5286 19.1593ZM42.9522 29.4681L42.5068 28.2459L42.5434 30.1539L40.7504 30.8073L42.6584 30.7707L43.3117 32.5637L43.3087 32.4086C43.1907 31.419 43.0713 30.4334 42.9522 29.4681ZM33.159 3.43018L33.1956 5.33815L31.4026 5.9915L33.3106 5.95497L33.9639 7.74796L33.9274 5.83999L35.7204 5.18663L33.8124 5.22316L33.159 3.43018ZM35.1956 25.3381L35.159 23.4302L35.8124 25.2232L37.7204 25.1866L35.9274 25.84L35.9639 27.748L35.3106 25.955L33.4026 25.9915L35.1956 25.3381ZM36.5434 36.1539L36.5069 34.246L37.1602 36.039L39.0682 36.0024L37.2752 36.6558L37.3117 38.5638L36.6584 36.7708L34.7504 36.8073L36.5434 36.1539ZM34.5434 15.1539L34.5069 13.246L35.1602 15.039L37.0682 15.0024L35.2752 15.6558L35.3117 17.5637L34.6584 15.7708L32.7504 15.8073L34.5434 15.1539Z" fill="white" fill-opacity="0.8"/>
<path d="M39 7C38.5 5 37.5001 2 37.5001 0C35.9003 1.2 30.1668 1.5 27.5001 1.5C26.0001 1.5 22.8 1.4 20 1C17.2 0.6 13.8334 0.166667 12.5 0C12.5 1.5 11.5924 3.52539 11 5.5C9.5 10.5 7.88389 20 7.5 24C7.11611 28 5.67569 37.8693 5 43.5C7.70001 44 11 43.6333 16.5 44C21.5 44.3333 28 44.7308 33 44.5C38 44.2692 45 43.5 45 43.5C44 36.5 42.3 22.4 41.5 18C40.5 12.5 39.5 9 39 7Z" fill="#7445B8"/>
<path d="M39 7C38.5 5 37.5001 2 37.5001 0C35.9003 1.2 30.1668 1.5 27.5001 1.5C26.0001 1.5 22.8 1.4 20 1C17.2 0.6 13.8334 0.166667 12.5 0C12.5 1.5 11.5924 3.52539 11 5.5C9.5 10.5 7.88389 20 7.5 24C7.11611 28 5.67569 37.8693 5 43.5C7.70001 44 11 43.6333 16.5 44C21.5 44.3333 28 44.7308 33 44.5C38 44.2692 45 43.5 45 43.5C44 36.5 42.3 22.4 41.5 18C40.5 12.5 39.5 9 39 7Z" fill="white" fill-opacity="0.4"/>
<path d="M17.5 45.6948C23 46.2344 28 45.9439 33 45.6948C38 45.4457 45 43.5362 45 43.5362C44.8633 42.5035 44.7135 41.3075 44.5548 40C40.5 41.3777 33.6 42.4569 26 42.4569C18.4 42.4569 8.93548 40.819 5.40322 40C5.2526 41.2999 5.11519 42.5002 5 43.5362C7.70001 44.0759 12.0104 45.1562 17.5 45.6948Z" fill="#FEFEFE"/>
<path d="M21.4817 4.73002L22.091 2.92159L22.1012 4.82988L23.9096 5.43918L22.0013 5.44933L21.392 7.25777L21.3819 5.34948L19.5735 4.74017L21.4817 4.73002Z" fill="#7445B8"/>
<path d="M21.4817 4.73002L22.091 2.92159L22.1012 4.82988L23.9096 5.43918L22.0013 5.44933L21.392 7.25777L21.3819 5.34948L19.5735 4.74017L21.4817 4.73002Z" fill="white" fill-opacity="0.8"/>
<path d="M20.4605 14.7922L21.0698 12.9837L21.0799 14.892L22.8884 15.5013L20.9801 15.5115L20.3708 17.3199L20.3606 15.4116L18.5522 14.8023L20.4605 14.7922Z" fill="#7445B8"/>
<path d="M20.4605 14.7922L21.0698 12.9837L21.0799 14.892L22.8884 15.5013L20.9801 15.5115L20.3708 17.3199L20.3606 15.4116L18.5522 14.8023L20.4605 14.7922Z" fill="white" fill-opacity="0.8"/>
<path d="M18.4174 24.9448L19.0267 23.1363L19.0368 25.0446L20.8452 25.6539L18.937 25.6641L18.3277 27.4725L18.3175 25.5642L16.5091 24.9549L18.4174 24.9448Z" fill="#7445B8"/>
<path d="M18.4174 24.9448L19.0267 23.1363L19.0368 25.0446L20.8452 25.6539L18.937 25.6641L18.3277 27.4725L18.3175 25.5642L16.5091 24.9549L18.4174 24.9448Z" fill="white" fill-opacity="0.8"/>
<path d="M13.5809 7.75996L14.1902 5.95152L14.2003 7.85981L16.0087 8.46911L14.1004 8.47927L13.4911 10.2877L13.481 8.37941L11.6726 7.77011L13.5809 7.75996Z" fill="#7445B8"/>
<path d="M13.5809 7.75996L14.1902 5.95152L14.2003 7.85981L16.0087 8.46911L14.1004 8.47927L13.4911 10.2877L13.481 8.37941L11.6726 7.77011L13.5809 7.75996Z" fill="white" fill-opacity="0.8"/>
<path d="M12.9626 17.8787L13.5719 16.0703L13.5821 17.9785L15.3905 18.5878L13.4822 18.598L12.8729 20.4064L12.8627 18.4981L11.0543 17.8888L12.9626 17.8787Z" fill="#7445B8"/>
<path d="M12.9626 17.8787L13.5719 16.0703L13.5821 17.9785L15.3905 18.5878L13.4822 18.598L12.8729 20.4064L12.8627 18.4981L11.0543 17.8888L12.9626 17.8787Z" fill="white" fill-opacity="0.8"/>
<path d="M17.5217 35.9099L18.131 34.1014L18.1411 36.0097L19.9496 36.619L18.0413 36.6292L17.432 38.4376L17.4218 36.5293L15.6134 35.92L17.5217 35.9099Z" fill="#7445B8"/>
<path d="M17.5217 35.9099L18.131 34.1014L18.1411 36.0097L19.9496 36.619L18.0413 36.6292L17.432 38.4376L17.4218 36.5293L15.6134 35.92L17.5217 35.9099Z" fill="white" fill-opacity="0.8"/>
<path d="M11.8809 29.8722L12.4902 28.0637L12.5004 29.972L14.3088 30.5813L12.4005 30.5915L11.7912 32.3999L11.7811 30.4916L9.97264 29.8823L11.8809 29.8722Z" fill="#7445B8"/>
<path d="M11.8809 29.8722L12.4902 28.0637L12.5004 29.972L14.3088 30.5813L12.4005 30.5915L11.7912 32.3999L11.7811 30.4916L9.97264 29.8823L11.8809 29.8722Z" fill="white" fill-opacity="0.8"/>
<path d="M36.4817 6.73002L37.091 4.92159L37.1012 6.82988L38.9096 7.43918L37.0013 7.44933L36.392 9.25777L36.3819 7.34948L34.5735 6.74017L36.4817 6.73002Z" fill="#7445B8"/>
<path d="M36.4817 6.73002L37.091 4.92159L37.1012 6.82988L38.9096 7.43918L37.0013 7.44933L36.392 9.25777L36.3819 7.34948L34.5735 6.74017L36.4817 6.73002Z" fill="white" fill-opacity="0.8"/>
<path d="M35.4605 16.7922L36.0698 14.9837L36.0799 16.892L37.8884 17.5013L35.9801 17.5115L35.3708 19.3199L35.3606 17.4116L33.5522 16.8023L35.4605 16.7922Z" fill="#7445B8"/>
<path d="M35.4605 16.7922L36.0698 14.9837L36.0799 16.892L37.8884 17.5013L35.9801 17.5115L35.3708 19.3199L35.3606 17.4116L33.5522 16.8023L35.4605 16.7922Z" fill="white" fill-opacity="0.8"/>
<path d="M33.4174 26.9448L34.0267 25.1363L34.0368 27.0446L35.8452 27.6539L33.937 27.6641L33.3277 29.4725L33.3175 27.5642L31.5091 26.9549L33.4174 26.9448Z" fill="#7445B8"/>
<path d="M33.4174 26.9448L34.0267 25.1363L34.0368 27.0446L35.8452 27.6539L33.937 27.6641L33.3277 29.4725L33.3175 27.5642L31.5091 26.9549L33.4174 26.9448Z" fill="white" fill-opacity="0.8"/>
<path d="M28.5808 9.75996L29.1902 7.95152L29.2003 9.85981L31.0087 10.4691L29.1004 10.4793L28.4911 12.2877L28.481 10.3794L26.6726 9.77011L28.5808 9.75996Z" fill="#7445B8"/>
<path d="M28.5808 9.75996L29.1902 7.95152L29.2003 9.85981L31.0087 10.4691L29.1004 10.4793L28.4911 12.2877L28.481 10.3794L26.6726 9.77011L28.5808 9.75996Z" fill="white" fill-opacity="0.8"/>
<path d="M27.9626 19.8787L28.5719 18.0703L28.5821 19.9785L30.3905 20.5878L28.4822 20.598L27.8729 22.4064L27.8627 20.4981L26.0543 19.8888L27.9626 19.8787Z" fill="#7445B8"/>
<path d="M27.9626 19.8787L28.5719 18.0703L28.5821 19.9785L30.3905 20.5878L28.4822 20.598L27.8729 22.4064L27.8627 20.4981L26.0543 19.8888L27.9626 19.8787Z" fill="white" fill-opacity="0.8"/>
<path d="M32.5217 37.9099L33.131 36.1014L33.1411 38.0097L34.9496 38.619L33.0413 38.6292L32.432 40.4376L32.4218 38.5293L30.6134 37.92L32.5217 37.9099Z" fill="#7445B8"/>
<path d="M32.5217 37.9099L33.131 36.1014L33.1411 38.0097L34.9496 38.619L33.0413 38.6292L32.432 40.4376L32.4218 38.5293L30.6134 37.92L32.5217 37.9099Z" fill="white" fill-opacity="0.8"/>
<path d="M26.8809 31.8722L27.4902 30.0637L27.5004 31.972L29.3088 32.5813L27.4005 32.5915L26.7912 34.3999L26.7811 32.4916L24.9726 31.8823L26.8809 31.8722Z" fill="#7445B8"/>
<path d="M26.8809 31.8722L27.4902 30.0637L27.5004 31.972L29.3088 32.5813L27.4005 32.5915L26.7912 34.3999L26.7811 32.4916L24.9726 31.8823L26.8809 31.8722Z" fill="white" fill-opacity="0.8"/>
<path d="M39.8808 33.8722L40.4901 32.0637L40.5003 33.972L42.3087 34.5813L40.4004 34.5915L39.7911 36.3999L39.781 34.4916L37.9725 33.8823L39.8808 33.8722Z" fill="#7445B8"/>
<path d="M39.8808 33.8722L40.4901 32.0637L40.5003 33.972L42.3087 34.5813L40.4004 34.5915L39.7911 36.3999L39.781 34.4916L37.9725 33.8823L39.8808 33.8722Z" fill="white" fill-opacity="0.8"/>
</svg>
