<svg width="50" height="50" viewBox="0 0 50 50" fill="none" xmlns="http://www.w3.org/2000/svg">
<path d="M9.73684 2H40V5L41 7H45V48H11.3158C10.7895 48 8.15789 48 6.57895 46.4318C5 44.8636 5 43.2955 5 42.7727V6.70455C5 5.65909 5.73684 4.40455 6.57895 3.56818C7.42105 2.73182 8.68421 2 9.73684 2Z" fill="#D0333D"/>
<path d="M9.73684 2H40V5L41 7H45V48H11.3158C10.7895 48 8.15789 48 6.57895 46.4318C5 44.8636 5 43.2955 5 42.7727V6.70455C5 5.65909 5.73684 4.40455 6.57895 3.56818C7.42105 2.73182 8.68421 2 9.73684 2Z" fill="black" fill-opacity="0.2"/>
<path d="M43 9.1L40 5V40H38L43 46V9.1Z" fill="#898989"/>
<path d="M10.1304 40H38L43 46H10.1304C9.62415 46 7 45.25 7 43C7 40.75 9.62415 40 10.1304 40Z" fill="#898989"/>
<path d="M10.1304 40H38L43 46H10.1304C9.62415 46 7 45.25 7 43C7 40.75 9.62415 40 10.1304 40Z" fill="white" fill-opacity="0.4"/>
<path d="M17.9746 8.58379C18.7938 8.17419 20.8759 7.73045 21.8146 7.55979C20.3639 8.75445 16.8482 11.6558 14.3906 13.7038C11.933 15.7518 9.27061 19.1651 8.24661 20.6158C8.67328 19.4211 9.68021 16.7246 10.2946 15.4958C10.909 14.267 12.2573 12.7651 12.8546 12.1678H13.8786L14.3906 11.1438C15.2439 10.4611 17.1554 8.99339 17.9746 8.58379Z" fill="#FEFEFE"/>
<path d="M11.3186 22.1518C10.7042 22.971 9.01461 27.1011 8.24661 29.0638C11.4039 25.9918 18.3842 18.9774 21.0466 15.4958C23.709 12.0142 28.9826 7.90112 31.2866 6.27979C29.3239 7.04779 24.989 8.73739 23.3506 9.35178C21.7122 9.96618 20.7906 10.4611 20.5346 10.6318V12.1678H19.5106C18.8279 12.6798 17.3602 13.9086 16.9506 14.7278C16.541 15.547 14.5613 17.7998 13.6226 18.8238V20.1038C13.1106 20.4451 11.933 21.3326 11.3186 22.1518Z" fill="#FEFEFE"/>
<path d="M23.3506 18.5678C21.5074 20.411 13.8786 30.4291 10.2946 35.2078L17.4626 30.0878L17.9746 28.8078H19.2546C21.4733 26.9305 26.4226 22.5614 28.4706 20.1038C30.5186 17.6462 34.4439 11.3998 36.1506 8.58379L31.2866 12.1678V13.7038H28.9826C27.8733 14.5571 25.1938 16.7246 23.3506 18.5678Z" fill="#FEFEFE"/>
<path d="M24.8866 27.7838C22.429 30.0366 17.8893 34.0131 15.9266 35.7198C17.0359 35.3785 19.613 34.5422 21.0466 33.9278C22.4802 33.3134 24.2039 31.9651 24.8866 31.3678L25.9106 30.0878H27.1906C28.3853 29.1491 31.3378 26.4526 33.5906 23.1758C35.8434 19.899 37.0893 15.4958 37.4306 13.7038C36.8333 14.5571 35.3314 16.571 34.1026 17.7998C32.8738 19.0286 32.0546 19.5065 31.7986 19.5918V21.3838H30.7746C29.8359 22.5785 27.3442 25.531 24.8866 27.7838Z" fill="#FEFEFE"/>
</svg>
