<svg width="50" height="50" viewBox="0 0 50 50" fill="none" xmlns="http://www.w3.org/2000/svg">
        <g clip-path="url(#bdga)">
            <path
                d="M5.944 43.983c-4.177-.726-5.625-3.85-5.342-4.926C2.88 29.45 7.12 7.532 8.138 7.954 13.513 10.18 43.683 9.227 46 7.5c-.489 3.145-.724 6.034-1 11-.613 11 5 21.5 5 21.5s-4 3.763-9 3.983c-3.512.848-31.714.581-35.056 0Z"
                fill="#FAA21E" />
            <path
                d="M5.944 43.983c-4.177-.726-5.625-3.85-5.342-4.926C2.88 29.45 7.12 7.532 8.138 7.954 13.513 10.18 43.683 9.227 46 7.5c-.489 3.145-.724 6.034-1 11-.613 11 5 21.5 5 21.5s-4 3.763-9 3.983c-3.512.848-31.714.581-35.056 0Z"
                fill="#fff" fill-opacity=".8" />
            <path
                d="M5.944 43.983c-4.177-.726-5.625-3.85-5.342-4.926C2.88 29.45 7.12 7.532 8.138 7.954c.86.356 2.389.628 4.362.828-.334 2.74-1 9.018-1 12.218 0 3.2 1 16.91 1.5 23.366-3.496-.095-6.163-.228-7.056-.383Z"
                fill="#FAA21E" />
            <path
                d="M5.944 43.983c-4.177-.726-5.625-3.85-5.342-4.926C2.88 29.45 7.12 7.532 8.138 7.954c.86.356 2.389.628 4.362.828-.334 2.74-1 9.018-1 12.218 0 3.2 1 16.91 1.5 23.366-3.496-.095-6.163-.228-7.056-.383Z"
                fill="#fff" fill-opacity=".6" />
            <path d="M7 5c7.5 1.5 18.086-5.666 23.5-3.5 5 2 6.25 8 9 9.5s7.5.5 9.5-1.5" stroke="#FAA21E" />
            <path d="M7 5c7.5 1.5 18.086-5.666 23.5-3.5 5 2 6.25 8 9 9.5s7.5.5 9.5-1.5" stroke="#000"
                stroke-opacity=".4" />
            <path
                d="M4.363 40.723 5.66 34.12c.673.144 2.392.92 3.88 2.884 1.862 2.453.498 3.517-1.132 4.307-1.304.633-3.24-.13-4.044-.59Z"
                fill="#FAA21E" />
            <path
                d="M4.363 40.723 5.66 34.12c.673.144 2.392.92 3.88 2.884 1.862 2.453.498 3.517-1.132 4.307-1.304.633-3.24-.13-4.044-.59Z"
                fill="#fff" fill-opacity=".2" />
            <path
                d="M5.234 36.42C2.962 36.717.89 37.71.603 39.056 1.02 34.38 1.846 24.145 1.78 20.578 1.716 17.012.883 9.27.475 5.843c.46-.895 2.168-2.81 5.307-3.311 3.139-.502 4.804 1.003 5.244 1.819-.535 3.28-1.62 11.135-1.684 16.32-.063 5.184.725 14.413 1.127 18.379-.798-1-2.962-2.926-5.235-2.63Z"
                fill="#FAA21E" />
            <path
                d="M5.234 36.42C2.962 36.717.89 37.71.603 39.056 1.02 34.38 1.846 24.145 1.78 20.578 1.716 17.012.883 9.27.475 5.843c.46-.895 2.168-2.81 5.307-3.311 3.139-.502 4.804 1.003 5.244 1.819-.535 3.28-1.62 11.135-1.684 16.32-.063 5.184.725 14.413 1.127 18.379-.798-1-2.962-2.926-5.235-2.63Z"
                fill="#fff" fill-opacity=".8" />
            <path d="M1 9c-2.5 3 2 4 5.5 5 2.885.824 6 5.5 3 8.5" stroke="#C57A09" />
            <path fill-rule="evenodd" clip-rule="evenodd" d="M27 18.5H16v-4h11v4Z" fill="#7445B8" />
            <path fill-rule="evenodd" clip-rule="evenodd" d="M27 18.5H16v-4h11v4Z" fill="#fff" fill-opacity=".4" />
            <path fill-rule="evenodd" clip-rule="evenodd" d="M26 25.5H16v-4h10v4Z" fill="#7445B8" />
            <path fill-rule="evenodd" clip-rule="evenodd" d="M26 25.5H16v-4h10v4Z" fill="#fff" fill-opacity=".4" />
            <path fill-rule="evenodd" clip-rule="evenodd" d="M25 32.5h-9v-4h9v4Z" fill="#7445B8" />
            <path fill-rule="evenodd" clip-rule="evenodd" d="M25 32.5h-9v-4h9v4Z" fill="#fff" fill-opacity=".4" />
            <path fill-rule="evenodd" clip-rule="evenodd" d="M27 39.5H16v-4h11v4Z" fill="#7445B8" />
            <path fill-rule="evenodd" clip-rule="evenodd" d="M27 39.5H16v-4h11v4Z" fill="#fff" fill-opacity=".4" />
            <path fill-rule="evenodd" clip-rule="evenodd"
                d="M34.66 13.5c-.753 0-1.102.697-1.298 1.401v9a.26.26 0 0 1-.52 0v-8.573c-.16-.162-.407-.268-.78-.268-.687 0-1.069 1.131-1.3 2.2v7.16a.26.26 0 0 1-.52 0v-6.363c-.2-.234-.49-.397-.78-.397-1.56 0-1.561 6.24-1.561 8.32v5.72c0 1.04 1.56 4.16 1.56 4.68v3.12H38.5V36c0-.52.321-2.22.841-4.3.52-2.08 0-4.16 0-5.72 0-1.56-.52-6.76-.52-7.8s-.52-3.12-1.56-3.12a.944.944 0 0 0-.779.381v8.46a.26.26 0 0 1-.52 0V14.68c-.227-.622-.627-1.18-1.301-1.18Z"
                fill="#7445B8" />
            <path
                d="M41 26c-1.53-.363-2.733-2.012-3-1.5-.513.986.618 2.652 1 3 .044.495-.246 2.524-.246 2.524s-2.145-.453-3.222 1.953c-1.61 3.592 2.697 4.032 3.222 3.523.526-.508 2.705-2.43 2.746-5 .025-1.55-.5-4.5-.5-4.5Z"
                fill="#7445B8" />
            <path
                d="M41 26c-1.53-.363-2.733-2.012-3-1.5-.513.986.618 2.652 1 3 .044.495-.246 2.524-.246 2.524s-2.145-.453-3.222 1.953c-1.61 3.592 2.697 4.032 3.222 3.523.526-.508 2.705-2.43 2.746-5 .025-1.55-.5-4.5-.5-4.5Z"
                fill="#fff" fill-opacity=".2" />
        </g>
        <defs>
            <clipPath id="bdga">
                <path fill="#fff" transform="matrix(-1 0 0 1 50 0)" d="M0 0h50v50H0z" />
            </clipPath>
        </defs>
    </svg>