<svg width="50" height="50" viewBox="0 0 50 50" fill="none" xmlns="http://www.w3.org/2000/svg">
        <g clip-path="url(#bdha)">
            <path
                d="M5.944 43.983c-4.177-.726-5.625-3.85-5.342-4.926C2.88 29.45 7.12 7.532 8.138 7.954 13.513 10.18 43.683 9.227 46 7.5c-.489 3.145-.724 6.034-1 11-.613 11 5 21.5 5 21.5s-4 3.763-9 3.983c-3.512.848-31.714.581-35.056 0Z"
                fill="#FAA21E" />
            <path
                d="M5.944 43.983c-4.177-.726-5.625-3.85-5.342-4.926C2.88 29.45 7.12 7.532 8.138 7.954 13.513 10.18 43.683 9.227 46 7.5c-.489 3.145-.724 6.034-1 11-.613 11 5 21.5 5 21.5s-4 3.763-9 3.983c-3.512.848-31.714.581-35.056 0Z"
                fill="#fff" fill-opacity=".8" />
            <path
                d="M5.944 43.983c-4.177-.726-5.625-3.85-5.342-4.926C2.88 29.45 7.12 7.532 8.138 7.954c.86.356 2.389.628 4.362.828-.334 2.74-1 9.018-1 12.218 0 3.2 1 16.91 1.5 23.366-3.496-.095-6.163-.228-7.056-.383Z"
                fill="#FAA21E" />
            <path
                d="M5.944 43.983c-4.177-.726-5.625-3.85-5.342-4.926C2.88 29.45 7.12 7.532 8.138 7.954c.86.356 2.389.628 4.362.828-.334 2.74-1 9.018-1 12.218 0 3.2 1 16.91 1.5 23.366-3.496-.095-6.163-.228-7.056-.383Z"
                fill="#fff" fill-opacity=".6" />
            <path d="M7 5c7.5 1.5 18.086-5.666 23.5-3.5 5 2 6.25 8 9 9.5s7.5.5 9.5-1.5" stroke="#FAA21E" />
            <path d="M7 5c7.5 1.5 18.086-5.666 23.5-3.5 5 2 6.25 8 9 9.5s7.5.5 9.5-1.5" stroke="#000"
                stroke-opacity=".4" />
            <path
                d="M4.363 40.723 5.66 34.12c.673.144 2.392.92 3.88 2.884 1.862 2.453.498 3.517-1.132 4.307-1.304.633-3.24-.13-4.044-.59Z"
                fill="#FAA21E" />
            <path
                d="M4.363 40.723 5.66 34.12c.673.144 2.392.92 3.88 2.884 1.862 2.453.498 3.517-1.132 4.307-1.304.633-3.24-.13-4.044-.59Z"
                fill="#fff" fill-opacity=".2" />
            <path
                d="M5.234 36.42C2.962 36.717.89 37.71.603 39.056 1.02 34.38 1.846 24.145 1.78 20.578 1.716 17.012.883 9.27.475 5.843c.46-.895 2.168-2.81 5.307-3.311 3.139-.502 4.804 1.003 5.244 1.819-.535 3.28-1.62 11.135-1.684 16.32-.063 5.184.725 14.413 1.127 18.379-.798-1-2.962-2.926-5.235-2.63Z"
                fill="#FAA21E" />
            <path
                d="M5.234 36.42C2.962 36.717.89 37.71.603 39.056 1.02 34.38 1.846 24.145 1.78 20.578 1.716 17.012.883 9.27.475 5.843c.46-.895 2.168-2.81 5.307-3.311 3.139-.502 4.804 1.003 5.244 1.819-.535 3.28-1.62 11.135-1.684 16.32-.063 5.184.725 14.413 1.127 18.379-.798-1-2.962-2.926-5.235-2.63Z"
                fill="#fff" fill-opacity=".8" />
            <path d="M1 9c-2.5 3 2 4 5.5 5 2.885.824 6 5.5 3 8.5" stroke="#C57A09" />
            <path
                d="M19.133 15.733h17.734c2.96 1.28 4.118 2.544 5.006 6.067v15.4H14V21.8c1.652-3.294 2.736-4.725 5.133-6.067Z"
                fill="#FAA21E" />
            <path
                d="M19.133 15.733h17.734c2.96 1.28 4.118 2.544 5.006 6.067v15.4H14V21.8c1.652-3.294 2.736-4.725 5.133-6.067Z"
                fill="#000" fill-opacity=".4" />
            <path
                d="M15.395 18.044c.744-1.116 2.79-2.015 3.72-2.325-.62.62-1.953 2.14-2.325 3.255a16.474 16.474 0 0 0-.64 2.79H14c.155-.775.65-2.604 1.395-3.72Z"
                fill="#FAA21E" />
            <path
                d="M15.395 18.044c.744-1.116 2.79-2.015 3.72-2.325-.62.62-1.953 2.14-2.325 3.255a16.474 16.474 0 0 0-.64 2.79H14c.155-.775.65-2.604 1.395-3.72Z"
                fill="#000" fill-opacity=".1" />
            <path
                d="M18.65 18.51c.743-1.117 1.394-2.326 1.86-2.79h14.877c.465.464 1.116 1.673 1.86 2.79.744 1.115.93 2.634.93 3.254H17.72c0-.62.186-2.139.93-3.255Z"
                fill="#FAA21E" />
            <path
                d="M18.65 18.51c.743-1.117 1.394-2.326 1.86-2.79h14.877c.465.464 1.116 1.673 1.86 2.79.744 1.115.93 2.634.93 3.254H17.72c0-.62.186-2.139.93-3.255Z"
                fill="#000" fill-opacity=".1" />
            <path
                d="M40.501 18.044c-.743-1.116-2.79-2.015-3.72-2.325.62.62 1.954 2.14 2.326 3.255.372 1.116.58 2.325.639 2.79h2.15c-.155-.775-.65-2.604-1.395-3.72Z"
                fill="#FAA21E" />
            <path
                d="M40.501 18.044c-.743-1.116-2.79-2.015-3.72-2.325.62.62 1.954 2.14 2.326 3.255.372 1.116.58 2.325.639 2.79h2.15c-.155-.775-.65-2.604-1.395-3.72Z"
                fill="#000" fill-opacity=".1" />
            <path d="M15.86 23.159H14v13.948h1.86V23.159Z" fill="#FAA21E" />
            <path d="M15.86 23.159H14v13.948h1.86V23.159Z" fill="#000" fill-opacity=".1" />
            <path d="M41.896 23.159h-1.86v13.948h1.86V23.159Z" fill="#FAA21E" />
            <path d="M41.896 23.159h-1.86v13.948h1.86V23.159Z" fill="#000" fill-opacity=".1" />
            <path
                d="M24.229 23.159h-6.974v13.948h21.387V23.159h-6.974c0 2.79-.372 6.509-3.72 6.509-3.347 0-3.72-3.72-3.72-6.51Z"
                fill="#FAA21E" />
            <path
                d="M24.229 23.159h-6.974v13.948h21.387V23.159h-6.974c0 2.79-.372 6.509-3.72 6.509-3.347 0-3.72-3.72-3.72-6.51Z"
                fill="#000" fill-opacity=".1" />
            <path
                d="M30.738 23.159v1.859c0 1.86-.93 3.72-2.79 3.72-1.86 0-2.79-2.325-2.79-3.72v-1.86h5.58Zm-2.79.93a1.395 1.395 0 1 0 0 2.79 1.395 1.395 0 0 0 0-2.79Z"
                fill="#FAA21E" />
            <path
                d="M30.738 23.159v1.859c0 1.86-.93 3.72-2.79 3.72-1.86 0-2.79-2.325-2.79-3.72v-1.86h5.58Zm-2.79.93a1.395 1.395 0 1 0 0 2.79 1.395 1.395 0 0 0 0-2.79Z"
                fill="#fff" fill-opacity=".2" />
        </g>
        <defs>
            <clipPath id="bdha">
                <path fill="#fff" transform="matrix(-1 0 0 1 50 0)" d="M0 0h50v50H0z" />
            </clipPath>
        </defs>
    </svg>