<svg width="50" height="50" viewBox="0 0 50 50" fill="none" xmlns="http://www.w3.org/2000/svg">
        <g clip-path="url(#bdoa)">
            <path
                d="M5.944 43.983c-4.177-.726-5.625-3.85-5.342-4.926C2.88 29.45 7.12 7.532 8.138 7.954 13.513 10.18 43.683 9.227 46 7.5c-.489 3.145-.724 6.034-1 11-.613 11 5 21.5 5 21.5s-4 3.763-9 3.983c-3.512.848-31.714.581-35.056 0Z"
                fill="#FAA21E" />
            <path
                d="M5.944 43.983c-4.177-.726-5.625-3.85-5.342-4.926C2.88 29.45 7.12 7.532 8.138 7.954 13.513 10.18 43.683 9.227 46 7.5c-.489 3.145-.724 6.034-1 11-.613 11 5 21.5 5 21.5s-4 3.763-9 3.983c-3.512.848-31.714.581-35.056 0Z"
                fill="#fff" fill-opacity=".8" />
            <path
                d="M5.944 43.983c-4.177-.726-5.625-3.85-5.342-4.926C2.88 29.45 7.12 7.532 8.138 7.954c.86.356 2.389.628 4.362.828-.334 2.74-1 9.018-1 12.218 0 3.2 1 16.91 1.5 23.366-3.496-.095-6.163-.228-7.056-.383Z"
                fill="#FAA21E" />
            <path
                d="M5.944 43.983c-4.177-.726-5.625-3.85-5.342-4.926C2.88 29.45 7.12 7.532 8.138 7.954c.86.356 2.389.628 4.362.828-.334 2.74-1 9.018-1 12.218 0 3.2 1 16.91 1.5 23.366-3.496-.095-6.163-.228-7.056-.383Z"
                fill="#fff" fill-opacity=".6" />
            <path d="M7 5c7.5 1.5 18.086-5.666 23.5-3.5 5 2 6.25 8 9 9.5s7.5.5 9.5-1.5" stroke="#FAA21E" />
            <path d="M7 5c7.5 1.5 18.086-5.666 23.5-3.5 5 2 6.25 8 9 9.5s7.5.5 9.5-1.5" stroke="#000"
                stroke-opacity=".4" />
            <path
                d="M4.363 40.723 5.66 34.12c.673.144 2.392.92 3.88 2.884 1.862 2.453.498 3.517-1.132 4.307-1.304.633-3.24-.13-4.044-.59Z"
                fill="#FAA21E" />
            <path
                d="M4.363 40.723 5.66 34.12c.673.144 2.392.92 3.88 2.884 1.862 2.453.498 3.517-1.132 4.307-1.304.633-3.24-.13-4.044-.59Z"
                fill="#fff" fill-opacity=".2" />
            <path
                d="M5.234 36.42C2.962 36.717.89 37.71.603 39.056 1.02 34.38 1.846 24.145 1.78 20.578 1.716 17.012.883 9.27.475 5.843c.46-.895 2.168-2.81 5.307-3.311 3.139-.502 4.804 1.003 5.244 1.819-.535 3.28-1.62 11.135-1.684 16.32-.063 5.184.725 14.413 1.127 18.379-.798-1-2.962-2.926-5.235-2.63Z"
                fill="#FAA21E" />
            <path
                d="M5.234 36.42C2.962 36.717.89 37.71.603 39.056 1.02 34.38 1.846 24.145 1.78 20.578 1.716 17.012.883 9.27.475 5.843c.46-.895 2.168-2.81 5.307-3.311 3.139-.502 4.804 1.003 5.244 1.819-.535 3.28-1.62 11.135-1.684 16.32-.063 5.184.725 14.413 1.127 18.379-.798-1-2.962-2.926-5.235-2.63Z"
                fill="#fff" fill-opacity=".8" />
            <path d="M1 9c-2.5 3 2 4 5.5 5 2.885.824 6 5.5 3 8.5" stroke="#C57A09" />
            <path
                d="M24.15 31c-2.454 0-5.49 1.584-7.15 2.676V40c1.925-1.216 4.95-3.162 5.775-3.162.913 0 5.718 1.829 7.123 1.829 1.405 0 9.706-2.146 9.067-3.163-.639-1.017-6.338-.369-7.115-.369-.833 0-5.225-.973-4.95-1.946.275-.973 4.4 1.216 4.95 0 .507-1.12-5.246-2.189-7.7-2.189Z"
                fill="#898989" />
            <path
                d="M27.31 29.906c4.748 0 8.596-3.675 8.596-8.207 0-3.328-2.075-6.194-5.056-7.482-.759-.327-1.011-.001-.759.964.208.795 1.351 4.948-.924 7.603-2.444 2.852-8.1 2.675-8.606 2.675-.466 0-.668.457-.202 1.067 1.563 2.049 4.094 3.38 6.951 3.38Z"
                fill="#1D8CE0" />
            <path
                d="M27.31 29.906c4.748 0 8.596-3.675 8.596-8.207 0-3.328-2.075-6.194-5.056-7.482-.759-.327-1.011-.001-.759.964.208.795 1.351 4.948-.924 7.603-2.444 2.852-8.1 2.675-8.606 2.675-.466 0-.668.457-.202 1.067 1.563 2.049 4.094 3.38 6.951 3.38Z"
                fill="#fff" fill-opacity=".4" />
            <path
                d="M33.435 20.518c-.362-2.9-2.565-5.264-3.212-4.942.216 1.399 1.048 4.848-1.235 7.412-2.342 2.63-6.765 2.277-7.412 2.47.247.742 1.236 2.471 5.189 2.471 3.953 0 7.164-3.458 6.67-7.411Z"
                fill="#1D8CE0" />
            <path
                d="M33.435 20.518c-.362-2.9-2.565-5.264-3.212-4.942.216 1.399 1.048 4.848-1.235 7.412-2.342 2.63-6.765 2.277-7.412 2.47.247.742 1.236 2.471 5.189 2.471 3.953 0 7.164-3.458 6.67-7.411Z"
                fill="#fff" fill-opacity=".2" />
            <path
                d="M31.706 21.012c.247-2.224-.741-4.2-1.235-3.953.164 1.07.262 3.966-1.483 5.93-1.79 2.013-5.435 2.223-5.93 2.37 0 .495 1.985 1.037 4.2.594 2.217-.443 4.173-2.47 4.448-4.941Z"
                fill="#1D8CE0" />
            <path
                d="M34.669 18.597c.435.85.508 1.788.249 1.92-.26.134-.553-.632-.989-1.482-.435-.85-.778-1.603-.518-1.736s.822.448 1.258 1.298Z"
                fill="#FEFEFE" />
            <ellipse cx="35.019" cy="21.76" rx=".4" ry=".625" transform="rotate(.22 35.019 21.76)" fill="#FEFEFE" />
            <ellipse cx="21.339" cy="26.488" rx=".409" ry=".602" transform="rotate(132.305 21.339 26.488)"
                fill="#FEFEFE" />
        </g>
        <defs>
            <clipPath id="bdoa">
                <path fill="#fff" transform="matrix(-1 0 0 1 50 0)" d="M0 0h50v50H0z" />
            </clipPath>
        </defs>
    </svg>