<svg width="50" height="50" viewBox="0 0 50 50" fill="none" xmlns="http://www.w3.org/2000/svg">
        <g clip-path="url(#bdla)">
            <path
                d="M5.944 43.983c-4.177-.726-5.625-3.85-5.342-4.926C2.88 29.45 7.12 7.532 8.138 7.954 13.513 10.18 43.683 9.227 46 7.5c-.489 3.145-.724 6.034-1 11-.613 11 5 21.5 5 21.5s-4 3.763-9 3.983c-3.512.848-31.714.581-35.056 0Z"
                fill="#FAA21E" />
            <path
                d="M5.944 43.983c-4.177-.726-5.625-3.85-5.342-4.926C2.88 29.45 7.12 7.532 8.138 7.954 13.513 10.18 43.683 9.227 46 7.5c-.489 3.145-.724 6.034-1 11-.613 11 5 21.5 5 21.5s-4 3.763-9 3.983c-3.512.848-31.714.581-35.056 0Z"
                fill="#fff" fill-opacity=".8" />
            <path
                d="M5.944 43.983c-4.177-.726-5.625-3.85-5.342-4.926C2.88 29.45 7.12 7.532 8.138 7.954c.86.356 2.389.628 4.362.828-.334 2.74-1 9.018-1 12.218 0 3.2 1 16.91 1.5 23.366-3.496-.095-6.163-.228-7.056-.383Z"
                fill="#FAA21E" />
            <path
                d="M5.944 43.983c-4.177-.726-5.625-3.85-5.342-4.926C2.88 29.45 7.12 7.532 8.138 7.954c.86.356 2.389.628 4.362.828-.334 2.74-1 9.018-1 12.218 0 3.2 1 16.91 1.5 23.366-3.496-.095-6.163-.228-7.056-.383Z"
                fill="#fff" fill-opacity=".6" />
            <path d="M7 5c7.5 1.5 18.086-5.666 23.5-3.5 5 2 6.25 8 9 9.5s7.5.5 9.5-1.5" stroke="#FAA21E" />
            <path d="M7 5c7.5 1.5 18.086-5.666 23.5-3.5 5 2 6.25 8 9 9.5s7.5.5 9.5-1.5" stroke="#000"
                stroke-opacity=".4" />
            <path
                d="M4.363 40.723 5.66 34.12c.673.144 2.392.92 3.88 2.884 1.862 2.453.498 3.517-1.132 4.307-1.304.633-3.24-.13-4.044-.59Z"
                fill="#FAA21E" />
            <path
                d="M4.363 40.723 5.66 34.12c.673.144 2.392.92 3.88 2.884 1.862 2.453.498 3.517-1.132 4.307-1.304.633-3.24-.13-4.044-.59Z"
                fill="#fff" fill-opacity=".2" />
            <path
                d="M5.234 36.42C2.962 36.717.89 37.71.603 39.056 1.02 34.38 1.846 24.145 1.78 20.578 1.716 17.012.883 9.27.475 5.843c.46-.895 2.168-2.81 5.307-3.311 3.139-.502 4.804 1.003 5.244 1.819-.535 3.28-1.62 11.135-1.684 16.32-.063 5.184.725 14.413 1.127 18.379-.798-1-2.962-2.926-5.235-2.63Z"
                fill="#FAA21E" />
            <path
                d="M5.234 36.42C2.962 36.717.89 37.71.603 39.056 1.02 34.38 1.846 24.145 1.78 20.578 1.716 17.012.883 9.27.475 5.843c.46-.895 2.168-2.81 5.307-3.311 3.139-.502 4.804 1.003 5.244 1.819-.535 3.28-1.62 11.135-1.684 16.32-.063 5.184.725 14.413 1.127 18.379-.798-1-2.962-2.926-5.235-2.63Z"
                fill="#fff" fill-opacity=".8" />
            <path d="M1 9c-2.5 3 2 4 5.5 5 2.885.824 6 5.5 3 8.5" stroke="#C57A09" />
            <path
                d="M23.096 25.07c-1.832.348-5.509 1.277-7.107 1.756 2.283.399 7.38 1.292 9.504 1.675 2.655.479 7.963 1.675 10.874 1.516 2.912-.16 4.281-.718 4.966-1.516.685-.798.502-1.324-1.508-2.503-1.62-.95-4.054-1.678-7.249-1.89-4.06-.27-7.25.54-9.48.963Z"
                fill="#FAA21E" />
            <path
                d="M23.096 25.07c-1.832.348-5.509 1.277-7.107 1.756 2.283.399 7.38 1.292 9.504 1.675 2.655.479 7.963 1.675 10.874 1.516 2.912-.16 4.281-.718 4.966-1.516.685-.798.502-1.324-1.508-2.503-1.62-.95-4.054-1.678-7.249-1.89-4.06-.27-7.25.54-9.48.963Z"
                fill="#000" fill-opacity=".4" />
            <path
                d="M18.766 25.894c-3.143-.292-4.598.86-4.57 1.119.59 1.12 2.237 4.081 2.694 4.912 1.018 1.85 3.043 5.774 3.38 6.205.496.898 6.21 1.466 9.872 1.466 2.838 0 4.387-.632 4.81-1.035.928-1.666 3.003-5.326 3.88-6.636 1.097-1.637 2.447-2.672 2.785-3.447.337-.776-.564-2-.338-1.465.286.676-.422 2.413-3.543 2.585-3.122.173-9.101-.736-11.541-1.37-2.932-.76-4.868-2.097-7.43-2.334Z"
                fill="#C57A09" />
            <path
                d="M19.215 21.208c-.735 2.12-.862 5.327-.831 6.459l1.789.57c-.03-1.324-.021-4.925.42-6.449.55-1.904 1.744-3.809 3.122-5.216 1.378-1.408 2.421-2.037 3.912-2.322 1-.191 2.59.268 3.876 1.427 1.285 1.16 1.789 1.998 2.314 4.124.436 1.763.502 2.986.204 4.413l1.676.288c.061-.883-.006-3.41-.594-5.53-.735-2.649-2.795-4.465-5.091-5.293-2.296-.828-3.85-.266-5.963 1.142-2.112 1.408-3.916 3.738-4.834 6.387Z"
                fill="#FAA21E" />
            <path
                d="M19.215 21.208c-.735 2.12-.862 5.327-.831 6.459l1.789.57c-.03-1.324-.021-4.925.42-6.449.55-1.904 1.744-3.809 3.122-5.216 1.378-1.408 2.421-2.037 3.912-2.322 1-.191 2.59.268 3.876 1.427 1.285 1.16 1.789 1.998 2.314 4.124.436 1.763.502 2.986.204 4.413l1.676.288c.061-.883-.006-3.41-.594-5.53-.735-2.649-2.795-4.465-5.091-5.293-2.296-.828-3.85-.266-5.963 1.142-2.112 1.408-3.916 3.738-4.834 6.387Z"
                fill="#000" fill-opacity=".6" />
            <ellipse cx="19.266" cy="28.583" rx="1.966" ry="1.123" transform="rotate(13.41 19.266 28.583)"
                fill="#FAA21E" />
            <ellipse cx="19.266" cy="28.583" rx="1.966" ry="1.123" transform="rotate(13.41 19.266 28.583)" fill="#000"
                fill-opacity=".6" />
        </g>
        <defs>
            <clipPath id="bdla">
                <path fill="#fff" transform="matrix(-1 0 0 1 50 0)" d="M0 0h50v50H0z" />
            </clipPath>
        </defs>
    </svg>