<svg width="50" height="50" viewBox="0 0 50 50" fill="none" xmlns="http://www.w3.org/2000/svg">
        <g clip-path="url(#bdma)">
            <path
                d="M5.944 43.983c-4.177-.726-5.625-3.85-5.342-4.926C2.88 29.45 7.12 7.532 8.138 7.954 13.513 10.18 43.683 9.227 46 7.5c-.489 3.145-.724 6.034-1 11-.613 11 5 21.5 5 21.5s-4 3.763-9 3.983c-3.512.848-31.714.581-35.056 0Z"
                fill="#FAA21E" />
            <path
                d="M5.944 43.983c-4.177-.726-5.625-3.85-5.342-4.926C2.88 29.45 7.12 7.532 8.138 7.954 13.513 10.18 43.683 9.227 46 7.5c-.489 3.145-.724 6.034-1 11-.613 11 5 21.5 5 21.5s-4 3.763-9 3.983c-3.512.848-31.714.581-35.056 0Z"
                fill="#fff" fill-opacity=".8" />
            <path
                d="M5.944 43.983c-4.177-.726-5.625-3.85-5.342-4.926C2.88 29.45 7.12 7.532 8.138 7.954c.86.356 2.389.628 4.362.828-.334 2.74-1 9.018-1 12.218 0 3.2 1 16.91 1.5 23.366-3.496-.095-6.163-.228-7.056-.383Z"
                fill="#FAA21E" />
            <path
                d="M5.944 43.983c-4.177-.726-5.625-3.85-5.342-4.926C2.88 29.45 7.12 7.532 8.138 7.954c.86.356 2.389.628 4.362.828-.334 2.74-1 9.018-1 12.218 0 3.2 1 16.91 1.5 23.366-3.496-.095-6.163-.228-7.056-.383Z"
                fill="#fff" fill-opacity=".6" />
            <path d="M7 5c7.5 1.5 18.086-5.666 23.5-3.5 5 2 6.25 8 9 9.5s7.5.5 9.5-1.5" stroke="#FAA21E" />
            <path d="M7 5c7.5 1.5 18.086-5.666 23.5-3.5 5 2 6.25 8 9 9.5s7.5.5 9.5-1.5" stroke="#000"
                stroke-opacity=".4" />
            <path
                d="M4.363 40.723 5.66 34.12c.673.144 2.392.92 3.88 2.884 1.862 2.453.498 3.517-1.132 4.307-1.304.633-3.24-.13-4.044-.59Z"
                fill="#FAA21E" />
            <path
                d="M4.363 40.723 5.66 34.12c.673.144 2.392.92 3.88 2.884 1.862 2.453.498 3.517-1.132 4.307-1.304.633-3.24-.13-4.044-.59Z"
                fill="#fff" fill-opacity=".2" />
            <path
                d="M5.234 36.42C2.962 36.717.89 37.71.603 39.056 1.02 34.38 1.846 24.145 1.78 20.578 1.716 17.012.883 9.27.475 5.843c.46-.895 2.168-2.81 5.307-3.311 3.139-.502 4.804 1.003 5.244 1.819-.535 3.28-1.62 11.135-1.684 16.32-.063 5.184.725 14.413 1.127 18.379-.798-1-2.962-2.926-5.235-2.63Z"
                fill="#FAA21E" />
            <path
                d="M5.234 36.42C2.962 36.717.89 37.71.603 39.056 1.02 34.38 1.846 24.145 1.78 20.578 1.716 17.012.883 9.27.475 5.843c.46-.895 2.168-2.81 5.307-3.311 3.139-.502 4.804 1.003 5.244 1.819-.535 3.28-1.62 11.135-1.684 16.32-.063 5.184.725 14.413 1.127 18.379-.798-1-2.962-2.926-5.235-2.63Z"
                fill="#fff" fill-opacity=".8" />
            <path d="M1 9c-2.5 3 2 4 5.5 5 2.885.824 6 5.5 3 8.5" stroke="#C57A09" />
            <path
                d="m18.357 34.428-2.571-1.714h24.428l-2.571 1.715c-.669.32-2.572 1.07-5.357 1.5-3.28.504-5.327.463-8.572 0-3-.43-4.555-1.092-5.357-1.5Z"
                fill="#898989" />
            <path
                d="m18.357 34.428-2.571-1.714h24.428l-2.571 1.715c-.669.32-2.572 1.07-5.357 1.5-3.28.504-5.327.463-8.572 0-3-.43-4.555-1.092-5.357-1.5Z"
                fill="#000" fill-opacity=".2" />
            <path
                d="M14.49 28.643c.867-.429 2.517-.741 3.01-.857h21c.381.116 1.699.238 2.99.857.858.41 1.499.954 1.499 1.725 0 1.275-2.132 2.221-4.284 2.99l-.085.03c-2.135.762-4.717 1.683-10.63 1.683-5.99 0-8.45-1.032-10.714-1.714-2.133-.643-4.276-2.143-4.276-2.99 0-.846.798-1.382 1.49-1.724Z"
                fill="#898989" />
            <ellipse cx="28" cy="30.143" rx="12.429" ry="2.357" fill="#898989" />
            <ellipse cx="28" cy="30.143" rx="12.429" ry="2.357" fill="#000" fill-opacity=".2" />
            <path
                d="M17.46 26.5c-.198 1.929-.174 3.643-.174 3.857 0 .214.214.857.428 1.072.215.214 5.131 1.5 10.274 1.5 5.143 0 10.084-1.286 10.298-1.5.214-.215.428-.858.428-1.072 0-.214 0-2.143-.198-3.857-.199-1.714-1.515-3.945-3.377-5.357C32.806 19.375 30.309 19 28 19c-2.384 0-5.209.581-7.163 2.143-1.953 1.561-3.178 3.428-3.376 5.357Z"
                fill="#898989" />
            <path
                d="M17.46 26.5c-.198 1.929-.174 3.643-.174 3.857 0 .214.214.857.428 1.072.215.214 5.131 1.5 10.274 1.5 5.143 0 10.084-1.286 10.298-1.5.214-.215.428-.858.428-1.072 0-.214 0-2.143-.198-3.857-.199-1.714-1.515-3.945-3.377-5.357C32.806 19.375 30.309 19 28 19c-2.384 0-5.209.581-7.163 2.143-1.953 1.561-3.178 3.428-3.376 5.357Z"
                fill="#fff" fill-opacity=".2" />
            <path
                d="M22 21.786c1.071-.857 2.357-1.5 3.643-1.715-1.072.858-2.143 2.143-2.786 3.215-.623 1.04-1.071 3.214-1.071 4.714 0 1.286.214 3.214.643 4.5l-3.215-.643c-.143-.643-.171-2.443 0-4.5.215-2.571 1.48-4.526 2.786-5.571Z"
                fill="#FEFEFE" />
            <path
                d="M26.929 19.214c0-.22-.643-1.5-1.072-2.143h4.286c-.429.643-1.072 1.929-1.072 2.143 0 .215.858.652.858.857 0 .206-.754.429-1.929.429s-1.928-.223-1.928-.429c0-.205.857-.637.857-.857Z"
                fill="#898989" />
            <ellipse cx="28" cy="17.071" rx="2.143" ry=".429" fill="#898989" />
            <ellipse cx="28" cy="17.071" rx="2.143" ry=".429" fill="#fff" fill-opacity=".2" />
        </g>
        <defs>
            <clipPath id="bdma">
                <path fill="#fff" transform="matrix(-1 0 0 1 50 0)" d="M0 0h50v50H0z" />
            </clipPath>
        </defs>
    </svg>