<svg width="50" height="50" viewBox="0 0 50 50" fill="none" xmlns="http://www.w3.org/2000/svg">
        <g clip-path="url(#bdna)">
            <path
                d="M5.944 43.983c-4.177-.726-5.625-3.85-5.342-4.926C2.88 29.45 7.12 7.532 8.138 7.954 13.513 10.18 43.683 9.227 46 7.5c-.489 3.145-.724 6.034-1 11-.613 11 5 21.5 5 21.5s-4 3.763-9 3.983c-3.512.848-31.714.581-35.056 0Z"
                fill="#FAA21E" />
            <path
                d="M5.944 43.983c-4.177-.726-5.625-3.85-5.342-4.926C2.88 29.45 7.12 7.532 8.138 7.954 13.513 10.18 43.683 9.227 46 7.5c-.489 3.145-.724 6.034-1 11-.613 11 5 21.5 5 21.5s-4 3.763-9 3.983c-3.512.848-31.714.581-35.056 0Z"
                fill="#fff" fill-opacity=".8" />
            <path
                d="M5.944 43.983c-4.177-.726-5.625-3.85-5.342-4.926C2.88 29.45 7.12 7.532 8.138 7.954c.86.356 2.389.628 4.362.828-.334 2.74-1 9.018-1 12.218 0 3.2 1 16.91 1.5 23.366-3.496-.095-6.163-.228-7.056-.383Z"
                fill="#FAA21E" />
            <path
                d="M5.944 43.983c-4.177-.726-5.625-3.85-5.342-4.926C2.88 29.45 7.12 7.532 8.138 7.954c.86.356 2.389.628 4.362.828-.334 2.74-1 9.018-1 12.218 0 3.2 1 16.91 1.5 23.366-3.496-.095-6.163-.228-7.056-.383Z"
                fill="#fff" fill-opacity=".6" />
            <path d="M7 5c7.5 1.5 18.086-5.666 23.5-3.5 5 2 6.25 8 9 9.5s7.5.5 9.5-1.5" stroke="#FAA21E" />
            <path d="M7 5c7.5 1.5 18.086-5.666 23.5-3.5 5 2 6.25 8 9 9.5s7.5.5 9.5-1.5" stroke="#000"
                stroke-opacity=".4" />
            <path
                d="M4.363 40.723 5.66 34.12c.673.144 2.392.92 3.88 2.884 1.862 2.453.498 3.517-1.132 4.307-1.304.633-3.24-.13-4.044-.59Z"
                fill="#FAA21E" />
            <path
                d="M4.363 40.723 5.66 34.12c.673.144 2.392.92 3.88 2.884 1.862 2.453.498 3.517-1.132 4.307-1.304.633-3.24-.13-4.044-.59Z"
                fill="#fff" fill-opacity=".2" />
            <path
                d="M5.234 36.42C2.962 36.717.89 37.71.603 39.056 1.02 34.38 1.846 24.145 1.78 20.578 1.716 17.012.883 9.27.475 5.843c.46-.895 2.168-2.81 5.307-3.311 3.139-.502 4.804 1.003 5.244 1.819-.535 3.28-1.62 11.135-1.684 16.32-.063 5.184.725 14.413 1.127 18.379-.798-1-2.962-2.926-5.235-2.63Z"
                fill="#FAA21E" />
            <path
                d="M5.234 36.42C2.962 36.717.89 37.71.603 39.056 1.02 34.38 1.846 24.145 1.78 20.578 1.716 17.012.883 9.27.475 5.843c.46-.895 2.168-2.81 5.307-3.311 3.139-.502 4.804 1.003 5.244 1.819-.535 3.28-1.62 11.135-1.684 16.32-.063 5.184.725 14.413 1.127 18.379-.798-1-2.962-2.926-5.235-2.63Z"
                fill="#fff" fill-opacity=".8" />
            <path d="M1 9c-2.5 3 2 4 5.5 5 2.885.824 6 5.5 3 8.5" stroke="#C57A09" />
            <path fill-rule="evenodd" clip-rule="evenodd"
                d="M22.223 13.936c.387 0 .768.029 1.14.08l.479 2.12c.545.145 1.06.361 1.537.638l1.84-1.161a8.332 8.332 0 0 1 1.613 1.613l-1.16 1.839c.276.476.492.992.637 1.537l2.12.48c.051.373.08.754.08 1.141s-.029.768-.08 1.14l-2.12.48a6.25 6.25 0 0 1-.638 1.537l1.161 1.84a8.332 8.332 0 0 1-1.613 1.612l-1.84-1.16a6.26 6.26 0 0 1-1.537.637l-.479 2.12c-.372.051-.753.08-1.14.08-.387 0-.768-.029-1.142-.08l-.48-2.12a6.255 6.255 0 0 1-1.535-.639l-1.84 1.162a8.328 8.328 0 0 1-1.614-1.614l1.162-1.84a6.254 6.254 0 0 1-.638-1.536l-2.12-.478a8.347 8.347 0 0 1-.08-1.141c0-.387.028-.768.08-1.142l2.12-.48c.145-.543.361-1.058.638-1.534l-1.162-1.841a8.331 8.331 0 0 1 1.614-1.613l1.839 1.16a6.26 6.26 0 0 1 1.537-.637l.48-2.12c.372-.051.754-.08 1.14-.08Zm0 5.635a2.652 2.652 0 1 0 .001 5.304 2.652 2.652 0 0 0-.001-5.304Z"
                fill="#546DDB" />
            <path fill-rule="evenodd" clip-rule="evenodd"
                d="M22.223 13.936c.387 0 .768.029 1.14.08l.479 2.12c.545.145 1.06.361 1.537.638l1.84-1.161a8.332 8.332 0 0 1 1.613 1.613l-1.16 1.839c.276.476.492.992.637 1.537l2.12.48c.051.373.08.754.08 1.141s-.029.768-.08 1.14l-2.12.48a6.25 6.25 0 0 1-.638 1.537l1.161 1.84a8.332 8.332 0 0 1-1.613 1.612l-1.84-1.16a6.26 6.26 0 0 1-1.537.637l-.479 2.12c-.372.051-.753.08-1.14.08-.387 0-.768-.029-1.142-.08l-.48-2.12a6.255 6.255 0 0 1-1.535-.639l-1.84 1.162a8.328 8.328 0 0 1-1.614-1.614l1.162-1.84a6.254 6.254 0 0 1-.638-1.536l-2.12-.478a8.347 8.347 0 0 1-.08-1.141c0-.387.028-.768.08-1.142l2.12-.48c.145-.543.361-1.058.638-1.534l-1.162-1.841a8.331 8.331 0 0 1 1.614-1.613l1.839 1.16a6.26 6.26 0 0 1 1.537-.637l.48-2.12c.372-.051.754-.08 1.14-.08Zm0 5.635a2.652 2.652 0 1 0 .001 5.304 2.652 2.652 0 0 0-.001-5.304Z"
                fill="#fff" fill-opacity=".2" />
            <path fill-rule="evenodd" clip-rule="evenodd"
                d="M35.256 24.458c.358.146.7.316 1.025.503l-.355 2.145c.451.339.847.734 1.185 1.17l2.142-.384c.39.657.689 1.365.886 2.103l-1.768 1.266c.077.546.083 1.105.012 1.664l1.783 1.242c-.093.365-.21.73-.355 1.088a8.35 8.35 0 0 1-.505 1.027l-2.143-.355c-.34.45-.734.847-1.17 1.184l.383 2.14c-.656.391-1.364.69-2.103.888l-1.266-1.768a6.253 6.253 0 0 1-1.664.012l-1.241 1.783a8.351 8.351 0 0 1-1.088-.355 8.352 8.352 0 0 1-1.028-.505l.355-2.144a6.258 6.258 0 0 1-1.182-1.17l-2.142.384a8.333 8.333 0 0 1-.888-2.103l1.77-1.267a6.254 6.254 0 0 1-.013-1.663L24.102 30.1c.093-.365.21-.728.356-1.087s.316-.7.504-1.027l2.145.354c.338-.45.733-.845 1.168-1.182l-.383-2.143a8.333 8.333 0 0 1 2.103-.886l1.266 1.768a6.257 6.257 0 0 1 1.664-.012l1.242-1.784c.365.093.73.21 1.089.356Zm-2.122 5.22a2.653 2.653 0 1 0-1.997 4.915 2.653 2.653 0 0 0 1.997-4.915Z"
                fill="#898989" />
            <path fill-rule="evenodd" clip-rule="evenodd"
                d="M35.256 24.458c.358.146.7.316 1.025.503l-.355 2.145c.451.339.847.734 1.185 1.17l2.142-.384c.39.657.689 1.365.886 2.103l-1.768 1.266c.077.546.083 1.105.012 1.664l1.783 1.242c-.093.365-.21.73-.355 1.088a8.35 8.35 0 0 1-.505 1.027l-2.143-.355c-.34.45-.734.847-1.17 1.184l.383 2.14c-.656.391-1.364.69-2.103.888l-1.266-1.768a6.253 6.253 0 0 1-1.664.012l-1.241 1.783a8.351 8.351 0 0 1-1.088-.355 8.352 8.352 0 0 1-1.028-.505l.355-2.144a6.258 6.258 0 0 1-1.182-1.17l-2.142.384a8.333 8.333 0 0 1-.888-2.103l1.77-1.267a6.254 6.254 0 0 1-.013-1.663L24.102 30.1c.093-.365.21-.728.356-1.087s.316-.7.504-1.027l2.145.354c.338-.45.733-.845 1.168-1.182l-.383-2.143a8.333 8.333 0 0 1 2.103-.886l1.266 1.768a6.257 6.257 0 0 1 1.664-.012l1.242-1.784c.365.093.73.21 1.089.356Zm-2.122 5.22a2.653 2.653 0 1 0-1.997 4.915 2.653 2.653 0 0 0 1.997-4.915Z"
                fill="#fff" fill-opacity=".2" />
        </g>
        <defs>
            <clipPath id="bdna">
                <path fill="#fff" transform="matrix(-1 0 0 1 50 0)" d="M0 0h50v50H0z" />
            </clipPath>
        </defs>
    </svg>