<svg width="50" height="50" viewBox="0 0 50 50" fill="none" xmlns="http://www.w3.org/2000/svg">
<path d="M8.48649 18.1892L8 12.8378L26.4865 7L32.3243 9.91892C32.973 10.7297 34.7568 12.9351 36.7027 15.2703C38.6486 17.6054 41.0811 20.6216 41.5676 21.5946V24.5135C41.5676 25.973 41.0811 29.8649 40.1081 33.2703C39.3297 35.9946 38.1622 39.2703 37.6757 40.5676L8.48649 18.1892Z" fill="#1D8CE0"/>
<path d="M8.48649 18.1892L8 12.8378L26.4865 7L32.3243 9.91892C32.973 10.7297 34.7568 12.9351 36.7027 15.2703C38.6486 17.6054 41.0811 20.6216 41.5676 21.5946V24.5135C41.5676 25.973 41.0811 29.8649 40.1081 33.2703C39.3297 35.9946 38.1622 39.2703 37.6757 40.5676L8.48649 18.1892Z" fill="white" fill-opacity="0.6"/>
<path d="M26.4865 7L8 12.8378L8.48649 15.2703L26.4865 9.43243V7Z" fill="#1D8CE0"/>
<path d="M26.4865 7L8 12.8378L8.48649 15.2703L26.4865 9.43243V7Z" fill="white" fill-opacity="0.4"/>
<path d="M31.8378 9.91892L26.4865 7V9.43243L32.3243 13.8108L31.8378 9.91892Z" fill="#1D8CE0"/>
<path d="M31.8378 9.91892L26.4865 7V9.43243L32.3243 13.8108L31.8378 9.91892Z" fill="white" fill-opacity="0.4"/>
<path d="M31.8378 9.91892L26.4865 7V9.43243L32.3243 13.8108L31.8378 9.91892Z" fill="#FEFEFE" fill-opacity="0.15"/>
<path d="M41.5676 21.5946L31.8378 9.91895L32.3243 13.8108L41.5676 24.0271V21.5946Z" fill="#1D8CE0"/>
<path d="M41.5676 21.5946L31.8378 9.91895L32.3243 13.8108L41.5676 24.0271V21.5946Z" fill="white" fill-opacity="0.4"/>
<path d="M40.5946 29.3784L16.2703 23.5405L37.6757 40.5676L40.5946 29.3784Z" fill="#1D8CE0"/>
<path d="M40.5946 29.3784L16.2703 23.5405L37.6757 40.5676L40.5946 29.3784Z" fill="white" fill-opacity="0.95"/>
<path fill-rule="evenodd" clip-rule="evenodd" d="M36.5925 15.744L15.6736 10.8792L17.2432 10.4054L35.7297 14.7838L36.5925 15.744ZM41.4561 25.4735L8.59791 17.7027L8.5979 16.7426L41.679 24.5264L41.4561 25.4735ZM41.4529 27.4187L9.34483 19.6349L9.57407 18.6893L41.6822 26.4731L41.4529 27.4187Z" fill="#1D8CE0"/>
<path fill-rule="evenodd" clip-rule="evenodd" d="M36.5925 15.744L15.6736 10.8792L17.2432 10.4054L35.7297 14.7838L36.5925 15.744ZM41.4561 25.4735L8.59791 17.7027L8.5979 16.7426L41.679 24.5264L41.4561 25.4735ZM41.4529 27.4187L9.34483 19.6349L9.57407 18.6893L41.6822 26.4731L41.4529 27.4187Z" fill="white" fill-opacity="0.95"/>
<path fill-rule="evenodd" clip-rule="evenodd" d="M8.51994 13.1838L8.95111 17.9266L37.4567 38.8308C37.5729 38.5518 37.704 38.2488 37.8448 37.9234C38.3997 36.6406 39.1051 35.0101 39.6403 33.1366C40.4581 30.2745 40.9258 27.0696 41.0484 25.3068L41.0811 25.4865H41.523C41.3826 27.319 40.911 30.4603 40.1081 33.2703C39.5643 35.1736 38.8305 36.8711 38.2718 38.1638L38.2716 38.1642C38.1192 38.5166 37.9799 38.839 37.861 39.1272C37.7918 39.2948 37.7296 39.4509 37.6757 39.5946L37.2688 39.2962L8.48649 18.1892L8 12.8378L26.4865 7L32.3243 9.91892C32.973 10.7297 34.7568 12.9351 36.7027 15.2703C37.0288 15.6616 37.3604 16.0584 37.6897 16.4525L37.6912 16.4542L37.6912 16.4543C39.0244 18.0497 40.3193 19.5994 41.0592 20.556L41.4889 21.8451C41.4906 21.8902 41.4923 21.9362 41.4941 21.9831L40.9859 21.3056C40.9857 21.2922 40.9854 21.279 40.9852 21.266C40.7862 20.9921 40.4966 20.6213 40.1433 20.1821L40.1081 20.1351L40.1089 20.1393C39.3702 19.2224 38.363 18.017 37.3242 16.7739C36.9931 16.3776 36.6588 15.9775 36.329 15.5817C34.4439 13.3196 32.7109 11.1792 32.0113 10.3063L26.4451 7.52323L8.51994 13.1838Z" fill="#1D8CE0"/>
<path d="M9.94591 21.5946L8.48645 18.1892L37.6756 39.1081L38.6486 43L9.94591 21.5946Z" fill="#1D8CE0"/>
<path d="M38.6487 43L37.1892 38.6216C38.6487 35.7027 40.4327 29.6365 40.8865 26.4594C41.2532 23.8926 41.5676 22.081 41.0811 20.6216C42.0541 22.081 42.0541 23.875 42.0541 25.9729C42.0541 28.8919 41.0811 32.7837 40.5947 35.2162C40.2055 37.1621 39.1352 41.2162 38.6487 43Z" fill="#1D8CE0"/>
<path d="M38.6487 43L37.1892 38.6216C38.6487 35.7027 40.4327 29.6365 40.8865 26.4594C41.2532 23.8926 41.5676 22.081 41.0811 20.6216C42.0541 22.081 42.0541 23.875 42.0541 25.9729C42.0541 28.8919 41.0811 32.7837 40.5947 35.2162C40.2055 37.1621 39.1352 41.2162 38.6487 43Z" fill="white" fill-opacity="0.2"/>
</svg>
