<?xml version="1.0" encoding="utf-8"?><svg fill="none" viewBox="0 0 50 50" width="50" height="50" xmlns="http://www.w3.org/2000/svg"><g clip-path="url(#awxa)"><path d="M9.7 2.006h30.152v2.99l.996 1.992h3.985v40.848h-33.56c-.524 0-3.145 0-4.718-1.562C4.98 44.71 4.98 43.149 4.98 42.628V6.693c0-1.041.735-2.291 1.574-3.124.839-.834 2.097-1.563 3.146-1.563Z" fill="#D0333D"/><path d="M9.7 2.006h30.152v2.99l.996 1.992h3.985v40.848h-33.56c-.524 0-3.145 0-4.718-1.562C4.98 44.71 4.98 43.149 4.98 42.628V6.693c0-1.041.735-2.291 1.574-3.124.839-.834 2.097-1.563 3.146-1.563Z" fill="#000" fill-opacity=".2"/><path d="M42.84 8.967 39.853 4.98v34.902h-1.993l4.982 5.947V8.967Z" fill="#898989"/><path d="M10.056 39.852h27.803l4.982 5.978H10.056c-.503 0-3.108-.915-3.108-3.148s2.605-2.83 3.107-2.83Z" fill="#898989"/><path d="M10.056 39.852h27.803l4.982 5.978H10.056c-.503 0-3.108-.915-3.108-3.148s2.605-2.83 3.107-2.83Z" fill="#fff" fill-opacity=".4"/><g clip-path="url(#awxb)"><g clip-path="url(#awxc)"><path d="M23 8.6c-2.786 1.529-4.075 2.148-7.14 2.94.42 1.68 1.26 5.46 1.26 7.56 0 2.1-1.68 5.88-1.68 5.88s.84 1.68 2.73 2.94C20.06 29.18 23 29.6 23 29.6s3.15-.42 4.83-1.68c1.68-1.26 2.73-2.94 2.73-2.94s-1.68-3.36-1.68-5.88.633-5.967 1.26-7.56c-3.259-.981-4.52-1.593-7.14-2.94Z" fill="#FEFEFE"/><path d="m23 12.8-1.26-2.1c-1.628.836-2.588 1.186-4.41 1.68 0 0 1.05 5.46 1.05 6.72 0 1.26-.798 3.99-1.47 5.67.84 1.26 2.94 2.73 6.09 3.15 3.15-.42 5.25-1.89 6.09-3.15-.63-1.26-1.47-3.486-1.47-5.67 0-2.184.77-5.39 1.05-6.72-1.924-.442-2.879-.822-4.41-1.68L23 12.8Z" fill="#D0333D"/><path d="m23 12.8-1.26-2.1c-1.628.836-2.588 1.186-4.41 1.68 0 0 1.05 5.46 1.05 6.72 0 1.26-.798 3.99-1.47 5.67.84 1.26 2.94 2.73 6.09 3.15 3.15-.42 5.25-1.89 6.09-3.15-.63-1.26-1.47-3.486-1.47-5.67 0-2.184.77-5.39 1.05-6.72-1.924-.442-2.879-.822-4.41-1.68L23 12.8Z" fill="#fff" fill-opacity=".8"/><path d="m23 17.84-.84 1.089.84 1.011.84-1.011L23 17.84Z" fill="#D0333D"/><path d="m23 17.84-.84 1.089.84 1.011.84-1.011L23 17.84Z" fill="#fff" fill-opacity=".8"/></g><path d="M17.75 18.8h10.172M23 9.613v18.703" stroke="#FEFEFE" stroke-width="1.313"/><path d="M8 24.2 18.2 35c-3-7.8-2.7-16.8-3.3-30l-1.5 14.1-4.8-7.5 5.08 15.6-5.68-3ZM38.178 23.766l-9.48 11.5c2.476-8.01 1.567-16.998 1.275-30.252l2.455 14.012 4.297-7.832-4.03 15.96 5.483-3.388Z" fill="#FEFEFE"/></g></g><defs><clipPath id="awxa"><path fill="#fff" transform="matrix(-1 0 0 1 50 0)" d="M0 0h50v50H0z"/></clipPath><clipPath id="awxb"><path fill="#fff" transform="matrix(-1 0 0 1 38 5)" d="M0 0h30v30H0z"/></clipPath><clipPath id="awxc"><path fill="#fff" transform="translate(12.5 8.6)" d="M0 0h21v21H0z"/></clipPath></defs></svg>