<svg width="50" height="50" viewBox="0 0 50 50" fill="none" xmlns="http://www.w3.org/2000/svg">
<path d="M2.5 38.5C2.9 40.1 3.16667 42.1667 3 42.5C3.5 42.6667 4.6 41.9 7 41.5C9.4 41.1 11.3333 41.3333 12 41.5L10 39.5C12.3431 39.1297 13.6569 39.1923 16 39.5C14.0639 38.3175 12.9694 37.7818 11 37C12.5 37 16.4 36.8 20 36C23.6 35.2 27.5 32.6667 29 31.5L25 31C25.6667 30.8333 27.9 30 31.5 28C35.1 26 39.3333 22.1667 41 20.5C40.1667 20.5 37.7 20.6 34.5 21C31.3 21.4 27.8333 20.5 26.5 20C27.5 20 30.5 19.9 34.5 19.5C39.5 19 43 17.5 46 14.5C49 11.5 51 7 49 4C47 1 41.5 0 38.5 0C36.1 0 33.1667 3.33333 32 5L34.5 0C33 0.333333 29.4 1.6 27 4C24.6 6.4 21.6667 13 20.5 16C20.5 15.5 20.6 14.1 21 12.5C21.4 10.9 22.1667 8.83333 22.5 8C20.3333 9 15.2 12.1 12 16.5C8.8 20.9 7.33333 28.3333 7 31.5V27.5C7 25.5 8 22 8.5 20.5C7.66667 21.1667 5.7 23.1 4.5 25.5C3.3 27.9 3.33333 31.8333 3.5 33.5L2.5 33L3 35.5L0.5 35C1 35.5 2.1 36.9 2.5 38.5Z" fill="#546DDB"/>
<path d="M2.5 38.5C2.9 40.1 3.16667 42.1667 3 42.5C3.5 42.6667 4.6 41.9 7 41.5C9.4 41.1 11.3333 41.3333 12 41.5L10 39.5C12.3431 39.1297 13.6569 39.1923 16 39.5C14.0639 38.3175 12.9694 37.7818 11 37C12.5 37 16.4 36.8 20 36C23.6 35.2 27.5 32.6667 29 31.5L25 31C25.6667 30.8333 27.9 30 31.5 28C35.1 26 39.3333 22.1667 41 20.5C40.1667 20.5 37.7 20.6 34.5 21C31.3 21.4 27.8333 20.5 26.5 20C27.5 20 30.5 19.9 34.5 19.5C39.5 19 43 17.5 46 14.5C49 11.5 51 7 49 4C47 1 41.5 0 38.5 0C36.1 0 33.1667 3.33333 32 5L34.5 0C33 0.333333 29.4 1.6 27 4C24.6 6.4 21.6667 13 20.5 16C20.5 15.5 20.6 14.1 21 12.5C21.4 10.9 22.1667 8.83333 22.5 8C20.3333 9 15.2 12.1 12 16.5C8.8 20.9 7.33333 28.3333 7 31.5V27.5C7 25.5 8 22 8.5 20.5C7.66667 21.1667 5.7 23.1 4.5 25.5C3.3 27.9 3.33333 31.8333 3.5 33.5L2.5 33L3 35.5L0.5 35C1 35.5 2.1 36.9 2.5 38.5Z" fill="white" fill-opacity="0.6"/>
<path d="M3 38.5C3 39.5 2.65549 43.1943 2.5 43.5C2.96648 43.6529 4.76088 40.8669 7 40.5C9.23912 40.1331 9.37802 40.3471 10 40.5L9.5 39C10.5 38.5 11.5 38.5 13 38.5C12 37.5 11 37.5 10 37C12 37 17.8969 36.0344 19.5 35.5C21 35 25.6005 33.07 27 32L24 31C24.622 30.8471 27.8158 29.1228 31 27C34 25 34.9451 24.0286 36.5 22.5C35.7225 22.5 34 22.5 31.5 22C28.5505 21.4101 26.744 20.4586 25.5 20C26.433 20 29.2681 18.8669 33 18.5C37.6648 18.0414 39.7011 17.2514 42.5 14.5C45.2989 11.7486 48.6148 8.92 46.7489 6.16857C44.883 3.41714 41.2989 2.5 38.5 2.5C36.2609 2.5 33.0885 3.47143 32 5V2.5C30.6005 2.80571 28.7391 4.29886 26.5 6.5C24.2609 8.70114 22 14 20.5 16.5C20.5 16.0414 20 15.0141 20 13.5C20 12.5357 19.689 11.7643 20 11C17.9786 11.9171 15.4855 13.9646 12.5 18C9.51451 22.0354 8 28 7 31C6.5 29.5 6 28.5938 6 27.5C6 26.4062 6.03352 25.3757 6.5 24C5.72253 24.6114 5 26 4.5 28C4.125 29.5 4 34 4 34H3L3.5 36H2C2.46648 36.4586 3 37.5 3 38.5Z" fill="#546DDB"/>
<path d="M3 38.5C3 39.5 2.65549 43.1943 2.5 43.5C2.96648 43.6529 4.76088 40.8669 7 40.5C9.23912 40.1331 9.37802 40.3471 10 40.5L9.5 39C10.5 38.5 11.5 38.5 13 38.5C12 37.5 11 37.5 10 37C12 37 17.8969 36.0344 19.5 35.5C21 35 25.6005 33.07 27 32L24 31C24.622 30.8471 27.8158 29.1228 31 27C34 25 34.9451 24.0286 36.5 22.5C35.7225 22.5 34 22.5 31.5 22C28.5505 21.4101 26.744 20.4586 25.5 20C26.433 20 29.2681 18.8669 33 18.5C37.6648 18.0414 39.7011 17.2514 42.5 14.5C45.2989 11.7486 48.6148 8.92 46.7489 6.16857C44.883 3.41714 41.2989 2.5 38.5 2.5C36.2609 2.5 33.0885 3.47143 32 5V2.5C30.6005 2.80571 28.7391 4.29886 26.5 6.5C24.2609 8.70114 22 14 20.5 16.5C20.5 16.0414 20 15.0141 20 13.5C20 12.5357 19.689 11.7643 20 11C17.9786 11.9171 15.4855 13.9646 12.5 18C9.51451 22.0354 8 28 7 31C6.5 29.5 6 28.5938 6 27.5C6 26.4062 6.03352 25.3757 6.5 24C5.72253 24.6114 5 26 4.5 28C4.125 29.5 4 34 4 34H3L3.5 36H2C2.46648 36.4586 3 37.5 3 38.5Z" fill="white" fill-opacity="0.2"/>
<path d="M3 50H0C2 42 5.5 34 16 23.5C22 17.5 32 11 37 9.5C34.1667 11.5 25.2289 16.5955 17 26C10 34 5.5 41 3 50Z" fill="#546DDB"/>
<path d="M3 50H0C2 42 5.5 34 16 23.5C22 17.5 32 11 37 9.5C34.1667 11.5 25.2289 16.5955 17 26C10 34 5.5 41 3 50Z" fill="black" fill-opacity="0.2"/>
</svg>
