<svg width="50" height="50" viewBox="0 0 50 50" fill="none" xmlns="http://www.w3.org/2000/svg">
<path d="M6.35327 32.7555V28.9672L16.7732 30.1875L35.4026 17.3475V23.4801C35.2974 23.9081 34.1116 26.0623 32.4977 27.6761C30.8839 29.29 26.3651 32.1949 22.8146 33.8088C19.1313 35.483 14.4225 36.0682 11.5176 35.7454C9.11163 35.4781 6.98478 34.3606 6.35327 32.7555Z" fill="#546DDB"/>
<path d="M5.38501 25.885C5.38501 21.0903 8.21097 18.2903 10.1229 16.358C13.4156 14.0394 20.5258 9.48732 22.2316 8.82238C24.4622 7.95288 27.6487 7.66305 29.242 7.08338C30.8352 6.50372 32.833 4.64806 33.789 5.22773C34.7449 5.80739 34.6591 9.40204 35.615 12.3004C36.5577 15.1585 35.7009 19.8249 33.789 23.3029C31.8771 26.7809 22.6395 31.869 16.682 32.986C11.5177 33.9543 5.38501 33.3088 5.38501 25.885Z" fill="#546DDB"/>
<path d="M5.38501 25.885C5.38501 21.0903 8.21097 18.2903 10.1229 16.358C13.4156 14.0394 20.5258 9.48732 22.2316 8.82238C24.4622 7.95288 27.6487 7.66305 29.242 7.08338C30.8352 6.50372 32.833 4.64806 33.789 5.22773C34.7449 5.80739 34.6591 9.40204 35.615 12.3004C36.5577 15.1585 35.7009 19.8249 33.789 23.3029C31.8771 26.7809 22.6395 31.869 16.682 32.986C11.5177 33.9543 5.38501 33.3088 5.38501 25.885Z" fill="white" fill-opacity="0.2"/>
<path d="M30.7245 9.09928C31.5636 11.0361 29.3915 13.662 25.7197 15.2336C23.3774 16.2362 19.5817 17.4159 18.9415 16.2019C17.8795 14.1881 17.6448 14.2969 17.9731 13.6198C18.3401 12.8628 20.3685 10.9533 22.7158 9.91631C25.3213 8.76517 30.1399 7.75006 30.7245 9.09928Z" fill="#546DDB"/>
<path d="M30.7245 9.09928C31.5636 11.0361 29.3915 13.662 25.7197 15.2336C23.3774 16.2362 19.5817 17.4159 18.9415 16.2019C17.8795 14.1881 17.6448 14.2969 17.9731 13.6198C18.3401 12.8628 20.3685 10.9533 22.7158 9.91631C25.3213 8.76517 30.1399 7.75006 30.7245 9.09928Z" fill="black" fill-opacity="0.2"/>
<path d="M12.6473 3.3904C12.9485 3.94656 12.8983 5.01253 12.6473 5.47599L15.6598 6.51879C16.0364 5.93946 16.0364 4.98935 16.0364 4.4332C16.0364 3.87704 15.4088 2.92693 14.9067 2.6952C15.0322 2.92693 15.2832 3.52944 15.2832 4.0856C15.2832 4.64175 14.9067 5.24426 14.5301 5.47599C14.2791 5.24426 14.1535 4.4332 13.777 3.738C13.3728 2.99183 12.2707 2.11587 11.5176 2C11.7686 2.11587 12.346 2.83424 12.6473 3.3904Z" fill="#546DDB"/>
<path d="M7.29013 7.64338C5.54068 8.99377 5.54071 11.0193 5.8906 13.7201C5.8906 13.9757 5.99816 14.7329 5.99816 14.7329C6.16069 15.5599 6.53384 16.5488 7.29015 17.0961C8.68969 18.1089 11.4888 18.7841 13.5882 18.7841C15.6875 18.7841 19.8862 15.7457 19.1864 11.6945C18.6655 8.67907 16.3873 5.95538 13.5882 5.28019C12.1886 4.94259 9.03958 6.29299 7.29013 7.64338Z" fill="#546DDB"/>
<path d="M7.29013 7.64338C5.54068 8.99377 5.54071 11.0193 5.8906 13.7201C5.8906 13.9757 5.99816 14.7329 5.99816 14.7329C6.16069 15.5599 6.53384 16.5488 7.29015 17.0961C8.68969 18.1089 11.4888 18.7841 13.5882 18.7841C15.6875 18.7841 19.8862 15.7457 19.1864 11.6945C18.6655 8.67907 16.3873 5.95538 13.5882 5.28019C12.1886 4.94259 9.03958 6.29299 7.29013 7.64338Z" fill="white" fill-opacity="0.4"/>
<path d="M5.52697 11.9342C5.58187 12.4315 5.75866 12.856 5.98683 13.1411C6.21727 13.4291 6.47344 13.5474 6.6989 13.5228C6.92437 13.4983 7.14863 13.3276 7.31076 12.9968C7.47129 12.6693 7.55127 12.2169 7.49636 11.7196C7.44146 11.2223 7.26467 10.7979 7.03651 10.5127C6.80607 10.2248 6.5499 10.1064 6.32443 10.131C6.09896 10.1556 5.87471 10.3263 5.71258 10.657C5.55205 10.9845 5.47207 11.437 5.52697 11.9342Z" fill="#898989"/>
<path d="M5.52697 11.9342C5.58187 12.4315 5.75866 12.856 5.98683 13.1411C6.21727 13.4291 6.47344 13.5474 6.6989 13.5228C6.92437 13.4983 7.14863 13.3276 7.31076 12.9968C7.47129 12.6693 7.55127 12.2169 7.49636 11.7196C7.44146 11.2223 7.26467 10.7979 7.03651 10.5127C6.80607 10.2248 6.5499 10.1064 6.32443 10.131C6.09896 10.1556 5.87471 10.3263 5.71258 10.657C5.55205 10.9845 5.47207 11.437 5.52697 11.9342Z" fill="black" fill-opacity="0.6"/>
<path d="M5.52697 11.9342C5.58187 12.4315 5.75866 12.856 5.98683 13.1411C6.21727 13.4291 6.47344 13.5474 6.6989 13.5228C6.92437 13.4983 7.14863 13.3276 7.31076 12.9968C7.47129 12.6693 7.55127 12.2169 7.49636 11.7196C7.44146 11.2223 7.26467 10.7979 7.03651 10.5127C6.80607 10.2248 6.5499 10.1064 6.32443 10.131C6.09896 10.1556 5.87471 10.3263 5.71258 10.657C5.55205 10.9845 5.47207 11.437 5.52697 11.9342Z" stroke="#FEFEFE" stroke-width="0.502876"/>
<path d="M14.0061 14.5387C13.0885 15.4396 11.7666 15.4717 11.0481 14.7419C10.3296 14.012 10.3842 12.6927 11.3019 11.7918C12.2196 10.8909 13.5415 10.8588 14.26 11.5886C14.9785 12.3185 14.9238 13.6378 14.0061 14.5387Z" fill="#898989"/>
<path d="M14.0061 14.5387C13.0885 15.4396 11.7666 15.4717 11.0481 14.7419C10.3296 14.012 10.3842 12.6927 11.3019 11.7918C12.2196 10.8909 13.5415 10.8588 14.26 11.5886C14.9785 12.3185 14.9238 13.6378 14.0061 14.5387Z" fill="black" fill-opacity="0.6"/>
<path d="M14.0061 14.5387C13.0885 15.4396 11.7666 15.4717 11.0481 14.7419C10.3296 14.012 10.3842 12.6927 11.3019 11.7918C12.2196 10.8909 13.5415 10.8588 14.26 11.5886C14.9785 12.3185 14.9238 13.6378 14.0061 14.5387Z" stroke="#FEFEFE" stroke-width="0.663296"/>
<path d="M7.64427 11.0376C7.64427 10.2242 6.72441 9.0687 6.3855 8.61682C7.40223 7.26118 10.7913 5.22772 13.1637 5.22772C15.0616 5.22772 15.875 6.24445 16.8917 7.26118C16.2139 7.71306 14.8582 9.36242 13.5026 9.63354C11.808 9.97245 10.4524 10.6503 9.77459 11.667C9.299 12.3804 8.75786 14.3783 8.41895 15.395L7.06332 14.7172C7.3215 13.6198 7.64427 12.0543 7.64427 11.0376Z" fill="#546DDB"/>
<path d="M7.64427 11.0376C7.64427 10.2242 6.72441 9.0687 6.3855 8.61682C7.40223 7.26118 10.7913 5.22772 13.1637 5.22772C15.0616 5.22772 15.875 6.24445 16.8917 7.26118C16.2139 7.71306 14.8582 9.36242 13.5026 9.63354C11.808 9.97245 10.4524 10.6503 9.77459 11.667C9.299 12.3804 8.75786 14.3783 8.41895 15.395L7.06332 14.7172C7.3215 13.6198 7.64427 12.0543 7.64427 11.0376Z" fill="white" fill-opacity="0.6"/>
<path d="M5.70787 25.5622C5.14771 25.7023 4.30919 25.4546 3.77124 25.2395L13.1316 16.5247L13.4544 18.7841C13.2392 19.4296 12.0329 21.4507 11 23C9.70892 24.9366 6.99895 25.2395 5.70787 25.5622Z" fill="#FAA21E"/>
<path d="M5.70787 25.5622C5.14771 25.7023 4.30919 25.4546 3.77124 25.2395L13.1316 16.5247L13.4544 18.7841C13.2392 19.4296 12.0329 21.4507 11 23C9.70892 24.9366 6.99895 25.2395 5.70787 25.5622Z" fill="white" fill-opacity="0.2"/>
<path d="M7.96716 12.9742C7.35467 13.8388 6.94691 14.2183 6.03054 14.588C5.70777 15.3412 4.99777 16.7829 4.73956 17.8157C4.41679 19.1068 2.80291 20.7207 2.15737 22.6573C1.64094 24.2066 2.48005 24.5939 3.44848 25.885C4.73956 24.5939 5.69248 25.0164 7.5 24.5C10.4049 23.67 14.3575 16.4418 12.8087 16.2019C11.26 15.962 8.22512 14.4398 7.96716 12.9742Z" fill="#FAA21E"/>
<path d="M7.96716 12.9742C7.35467 13.8388 6.94691 14.2183 6.03054 14.588C5.70777 15.3412 4.99777 16.7829 4.73956 17.8157C4.41679 19.1068 2.80291 20.7207 2.15737 22.6573C1.64094 24.2066 2.48005 24.5939 3.44848 25.885C4.73956 24.5939 5.69248 25.0164 7.5 24.5C10.4049 23.67 14.3575 16.4418 12.8087 16.2019C11.26 15.962 8.22512 14.4398 7.96716 12.9742Z" fill="white" fill-opacity="0.4"/>
<path d="M7.96716 12.9742C7.31126 13.7444 6.92191 14.1447 6.03054 14.588C5.70777 15.3412 4.99777 16.7829 4.73956 17.8157C4.41679 19.1068 2.80291 20.7207 2.15737 22.6573C1.64094 24.2066 2.48005 24.5939 3.44848 25.885C3.23323 25.4547 2.8673 24.4003 3.1256 23.6256C3.44848 22.6573 5.70777 19.7524 6.35331 18.1385C6.86974 16.8474 7.64439 14.1577 7.96716 12.9742Z" fill="#FAA21E"/>
<path d="M7.96716 12.9742C7.31126 13.7444 6.92191 14.1447 6.03054 14.588C5.70777 15.3412 4.99777 16.7829 4.73956 17.8157C4.41679 19.1068 2.80291 20.7207 2.15737 22.6573C1.64094 24.2066 2.48005 24.5939 3.44848 25.885C3.23323 25.4547 2.8673 24.4003 3.1256 23.6256C3.44848 22.6573 5.70777 19.7524 6.35331 18.1385C6.86974 16.8474 7.64439 14.1577 7.96716 12.9742Z" fill="white" fill-opacity="0.2"/>
<path d="M13 27.9999C13 29.4999 10 32 10 35.5L14.5 36.5L17 28.9999L18.5 20.2499L24.75 17.2499L29.5 22.4999L35 21.5L36 16.5C33.9907 16.6987 32.7625 17.2376 30.5 18.5C29.9689 17.3856 29.531 16.9477 28.5 16.5C29 15 28.5 13.7 27.5 12.5C26.5 11.3 24.5 11.25 24 11.5C22.5 10.8333 20 9.99991 19.75 11.4999C19.5527 12.6836 20.8333 13.9166 21.5 14.4999C21.25 14.4166 20.0001 14.7499 18.5 15.4999C17.725 15.8874 15.5 16.7499 15 18.4999C14.5 19 13.7 20.3999 13.5 21.9999C13.3 23.5999 13.6667 24.8333 14 25.4999C13.8333 26.3333 13 27.1514 13 27.9999Z" fill="#152242"/>
<path d="M16.5713 44.7711V40.793L27.5131 42.0744L47.0758 28.5912V35.031C46.9652 35.4805 45.72 37.7425 44.0253 39.4372C42.3306 41.1319 37.5855 44.1824 33.8572 45.8771C29.9894 47.6351 25.0448 48.2496 21.9943 47.9107C19.4678 47.63 17.2344 46.4565 16.5713 44.7711Z" fill="#546DDB"/>
<path d="M15.5544 37.5815C15.5544 32.5465 18.522 29.6062 20.5296 27.5772C23.9873 25.1424 31.4537 20.3624 33.2449 19.6641C35.5872 18.7511 38.9334 18.4467 40.6064 17.838C42.2795 17.2293 44.3773 15.2807 45.3812 15.8894C46.385 16.4981 46.2949 20.2728 47.2987 23.3163C48.2886 26.3177 47.3888 31.2178 45.3812 34.87C43.3735 38.5222 33.6732 43.8651 27.4173 45.0381C21.9943 46.0549 15.5544 45.3771 15.5544 37.5815Z" fill="#546DDB"/>
<path d="M15.5544 37.5815C15.5544 32.5465 18.522 29.6062 20.5296 27.5772C23.9873 25.1424 31.4537 20.3624 33.2449 19.6641C35.5872 18.7511 38.9334 18.4467 40.6064 17.838C42.2795 17.2293 44.3773 15.2807 45.3812 15.8894C46.385 16.4981 46.2949 20.2728 47.2987 23.3163C48.2886 26.3177 47.3888 31.2178 45.3812 34.87C43.3735 38.5222 33.6732 43.8651 27.4173 45.0381C21.9943 46.0549 15.5544 45.3771 15.5544 37.5815Z" fill="white" fill-opacity="0.2"/>
<path d="M42.1631 19.9548C43.0443 21.9886 40.7633 24.7461 36.9076 26.3965C34.448 27.4492 30.5 29 29.7899 27.4133C29.0722 25.8095 30.0001 23.5 30.0001 23.5C30.0001 23.5 31.2884 21.9018 33.7532 20.8128C36.4893 19.604 41.5493 18.538 42.1631 19.9548Z" fill="#546DDB"/>
<path d="M42.1631 19.9548C43.0443 21.9886 40.7633 24.7461 36.9076 26.3965C34.448 27.4492 30.5 29 29.7899 27.4133C29.0722 25.8095 30.0001 23.5 30.0001 23.5C30.0001 23.5 31.2884 21.9018 33.7532 20.8128C36.4893 19.604 41.5493 18.538 42.1631 19.9548Z" fill="black" fill-opacity="0.2"/>
<path d="M23.1807 13.96C23.497 14.5441 23.4443 15.6634 23.1807 16.1501L26.3441 17.2451C26.7395 16.6368 26.7395 15.6391 26.7395 15.0551C26.7395 14.4711 26.0805 13.4734 25.5532 13.23C25.685 13.4734 25.9487 14.106 25.9487 14.6901C25.9487 15.2741 25.5532 15.9068 25.1578 16.1501C24.8942 15.9068 24.7624 15.0551 24.367 14.3251C23.9425 13.5415 22.7852 12.6217 21.9944 12.5C22.258 12.6217 22.8643 13.376 23.1807 13.96Z" fill="#546DDB"/>
<path d="M17.5552 18.4261C15.7181 19.8441 15.7181 21.9711 16.0856 24.8072C16.0856 25.0756 16.1985 25.8707 16.1985 25.8707C16.3692 26.7391 16.761 27.7775 17.5552 28.3523C19.0249 29.4158 21.9642 30.1248 24.1687 30.1248C26.3732 30.1248 30.7822 26.9343 30.0473 22.6802C29.5004 19.5136 27.108 16.6535 24.1687 15.9445C22.699 15.59 19.3923 17.008 17.5552 18.4261Z" fill="#546DDB"/>
<path d="M17.5552 18.4261C15.7181 19.8441 15.7181 21.9711 16.0856 24.8072C16.0856 25.0756 16.1985 25.8707 16.1985 25.8707C16.3692 26.7391 16.761 27.7775 17.5552 28.3523C19.0249 29.4158 21.9642 30.1248 24.1687 30.1248C26.3732 30.1248 30.7822 26.9343 30.0473 22.6802C29.5004 19.5136 27.108 16.6535 24.1687 15.9445C22.699 15.59 19.3923 17.008 17.5552 18.4261Z" fill="white" fill-opacity="0.4"/>
<path d="M15.6985 22.9324C15.7562 23.4554 15.9422 23.9021 16.1825 24.2024C16.4251 24.5056 16.6957 24.6312 16.9349 24.6052C17.174 24.5791 17.4108 24.3982 17.5815 24.0499C17.7505 23.705 17.8346 23.2289 17.7769 22.7059C17.7191 22.1829 17.5332 21.7362 17.2929 21.4359C17.0502 21.1327 16.7796 21.007 16.5405 21.0331C16.3014 21.0592 16.0646 21.2401 15.8939 21.5884C15.7248 21.9332 15.6408 22.4094 15.6985 22.9324Z" fill="#898989"/>
<path d="M15.6985 22.9324C15.7562 23.4554 15.9422 23.9021 16.1825 24.2024C16.4251 24.5056 16.6957 24.6312 16.9349 24.6052C17.174 24.5791 17.4108 24.3982 17.5815 24.0499C17.7505 23.705 17.8346 23.2289 17.7769 22.7059C17.7191 22.1829 17.5332 21.7362 17.2929 21.4359C17.0502 21.1327 16.7796 21.007 16.5405 21.0331C16.3014 21.0592 16.0646 21.2401 15.8939 21.5884C15.7248 21.9332 15.6408 22.4094 15.6985 22.9324Z" fill="black" fill-opacity="0.6"/>
<path d="M15.6985 22.9324C15.7562 23.4554 15.9422 23.9021 16.1825 24.2024C16.4251 24.5056 16.6957 24.6312 16.9349 24.6052C17.174 24.5791 17.4108 24.3982 17.5815 24.0499C17.7505 23.705 17.8346 23.2289 17.7769 22.7059C17.7191 22.1829 17.5332 21.7362 17.2929 21.4359C17.0502 21.1327 16.7796 21.007 16.5405 21.0331C16.3014 21.0592 16.0646 21.2401 15.8939 21.5884C15.7248 21.9332 15.6408 22.4094 15.6985 22.9324Z" stroke="#FEFEFE" stroke-width="0.517667"/>
<path d="M24.6624 25.6716C23.6967 26.6197 22.3042 26.6546 21.5465 25.8849C20.7888 25.1152 20.8474 23.7254 21.8131 22.7774C22.7788 21.8293 24.1714 21.7944 24.9291 22.5641C25.6868 23.3338 25.6282 24.7236 24.6624 25.6716Z" fill="#898989"/>
<path d="M24.6624 25.6716C23.6967 26.6197 22.3042 26.6546 21.5465 25.8849C20.7888 25.1152 20.8474 23.7254 21.8131 22.7774C22.7788 21.8293 24.1714 21.7944 24.9291 22.5641C25.6868 23.3338 25.6282 24.7236 24.6624 25.6716Z" fill="black" fill-opacity="0.6"/>
<path d="M24.6624 25.6716C23.6967 26.6197 22.3042 26.6546 21.5465 25.8849C20.7888 25.1152 20.8474 23.7254 21.8131 22.7774C22.7788 21.8293 24.1714 21.7944 24.9291 22.5641C25.6868 23.3338 25.6282 24.7236 24.6624 25.6716Z" stroke="#FEFEFE" stroke-width="0.682805"/>
<path d="M17.9271 21.9903C17.9271 21.1362 16.9611 19.9228 16.6052 19.4483C17.6729 18.0247 21.2317 15.8894 23.7229 15.8894C25.7159 15.8894 26.57 16.9571 27.6377 18.0247C26.9259 18.4992 25.5024 20.2312 24.0788 20.5159C22.2994 20.8718 20.8759 21.5836 20.1641 22.6512C19.6647 23.4003 19.0964 25.4983 18.7405 26.566L17.317 25.8542C17.5881 24.7018 17.9271 23.058 17.9271 21.9903Z" fill="#546DDB"/>
<path d="M17.9271 21.9903C17.9271 21.1362 16.9611 19.9228 16.6052 19.4483C17.6729 18.0247 21.2317 15.8894 23.7229 15.8894C25.7159 15.8894 26.57 16.9571 27.6377 18.0247C26.9259 18.4992 25.5024 20.2312 24.0788 20.5159C22.2994 20.8718 20.8759 21.5836 20.1641 22.6512C19.6647 23.4003 19.0964 25.4983 18.7405 26.566L17.317 25.8542C17.5881 24.7018 17.9271 23.058 17.9271 21.9903Z" fill="white" fill-opacity="0.6"/>
<path d="M16.5 37C15.9118 37.1471 14.4248 37.1296 13.8599 36.9036L23.6891 27.7523L24.028 30.1248C23.8021 30.8027 22.5846 32.8731 21.5 34.5C20.1442 36.5336 17.8558 36.6611 16.5 37Z" fill="#FAA21E"/>
<path d="M16.5 37C15.9118 37.1471 14.4248 37.1296 13.8599 36.9036L23.6891 27.7523L24.028 30.1248C23.8021 30.8027 22.5846 32.8731 21.5 34.5C20.1442 36.5336 17.8558 36.6611 16.5 37Z" fill="white" fill-opacity="0.2"/>
<path d="M18.2661 24.0239C17.6229 24.9318 17.1947 25.3304 16.2324 25.7186C15.8935 26.5095 15.1479 28.0234 14.8768 29.108C14.5378 30.4638 12.8431 32.1585 12.1653 34.1921C11.623 35.819 12.5041 36.2257 13.521 37.5815C14.8768 36.2257 15.6019 36.5423 17.5 36C20.5504 35.1284 24.9764 27.6652 23.3501 27.4133C21.7238 27.1614 18.5369 25.563 18.2661 24.0239Z" fill="#FAA21E"/>
<path d="M18.2661 24.0239C17.6229 24.9318 17.1947 25.3304 16.2324 25.7186C15.8935 26.5095 15.1479 28.0234 14.8768 29.108C14.5378 30.4638 12.8431 32.1585 12.1653 34.1921C11.623 35.819 12.5041 36.2257 13.521 37.5815C14.8768 36.2257 15.6019 36.5423 17.5 36C20.5504 35.1284 24.9764 27.6652 23.3501 27.4133C21.7238 27.1614 18.5369 25.563 18.2661 24.0239Z" fill="white" fill-opacity="0.4"/>
<path d="M18.2661 24.0239C17.5773 24.8328 17.1685 25.253 16.2324 25.7186C15.8935 26.5095 15.1479 28.0234 14.8768 29.108C14.5378 30.4638 12.8431 32.1585 12.1653 34.1921C11.623 35.819 12.5041 36.2257 13.521 37.5815C13.295 37.1295 12.9107 36.0224 13.182 35.2089C13.521 34.1921 15.8935 31.1416 16.5714 29.4469C17.1137 28.0912 17.9271 25.2667 18.2661 24.0239Z" fill="#FAA21E"/>
<path d="M18.2661 24.0239C17.5773 24.8328 17.1685 25.253 16.2324 25.7186C15.8935 26.5095 15.1479 28.0234 14.8768 29.108C14.5378 30.4638 12.8431 32.1585 12.1653 34.1921C11.623 35.819 12.5041 36.2257 13.521 37.5815C13.295 37.1295 12.9107 36.0224 13.182 35.2089C13.521 34.1921 15.8935 31.1416 16.5714 29.4469C17.1137 28.0912 17.9271 25.2667 18.2661 24.0239Z" fill="white" fill-opacity="0.2"/>
</svg>
