<svg width="50" height="50" viewBox="0 0 50 50" fill="none" xmlns="http://www.w3.org/2000/svg">
<path d="M1.79724 27.9035C1.79724 23.8331 3.10854 19.5663 4.2183 19.4847L36 15.5001L37.0003 29C37.0003 29 6.49998 35.5 4.49998 35.3001C3.31618 35.1818 1.79724 31.2304 1.79724 27.9035Z" fill="#CE4317"/>
<path d="M1.79724 27.9035C1.79724 23.8331 3.10854 19.5663 4.2183 19.4847L36 15.5001L37.0003 29C37.0003 29 6.49998 35.5 4.49998 35.3001C3.31618 35.1818 1.79724 31.2304 1.79724 27.9035Z" fill="black" fill-opacity="0.15"/>
<path d="M8.01196 27.2247C8.32656 33.0284 6.33051 35.2532 4.74767 35.3391C3.16483 35.4249 1.46287 31.8115 1.153 27.5965C0.843128 23.3814 2.30684 19.5965 3.88967 19.5107C5.4725 19.4249 7.72552 21.9404 8.01196 27.2247Z" fill="#CE4317"/>
<path d="M8.01196 27.2247C8.32656 33.0284 6.33051 35.2532 4.74767 35.3391C3.16483 35.4249 1.46287 31.8115 1.153 27.5965C0.843128 23.3814 2.30684 19.5965 3.88967 19.5107C5.4725 19.4249 7.72552 21.9404 8.01196 27.2247Z" fill="white" fill-opacity="0.45"/>
<path d="M7.15051 26.9904C7.36589 30.9637 6.26768 34.0941 4.94222 34.166C3.39879 34.2496 2.01193 31.5202 1.73649 27.7735C1.46105 24.0268 2.36577 20.6835 3.94477 20.5979C5.52377 20.5124 6.87507 23.2437 7.15051 26.9904Z" fill="#CE4317"/>
<path d="M7.15051 26.9904C7.36589 30.9637 6.26768 34.0941 4.94222 34.166C3.39879 34.2496 2.01193 31.5202 1.73649 27.7735C1.46105 24.0268 2.36577 20.6835 3.94477 20.5979C5.52377 20.5124 6.87507 23.2437 7.15051 26.9904Z" fill="black" fill-opacity="0.5"/>
<path d="M15 25.5C14.5 22 13.5 20.5 11 18.5L15 18C17.5 19.5 18.5 22 19 24.5C19.6276 27.6379 19 30.5 18 32.5L13.5 33.5C15 32 15.4561 28.6925 15 25.5Z" fill="#CE4317"/>
<path d="M15 25.5C14.5 22 13.5 20.5 11 18.5L15 18C17.5 19.5 18.5 22 19 24.5C19.6276 27.6379 19 30.5 18 32.5L13.5 33.5C15 32 15.4561 28.6925 15 25.5Z" fill="black" fill-opacity="0.3"/>
<path d="M40.323 20.9822L14.323 32.5688L22.323 48.5688L45.823 32.877C46.9897 32.169 49.323 29.9034 49.323 27.3544C49.323 23.956 47.6605 21.9753 45.323 20.9823C43.7584 20.3176 41.4897 20.5574 40.323 20.9822Z" fill="#CE4317"/>
<path d="M40.323 20.9822L14.323 32.5688L22.323 48.5688L45.823 32.877C46.9897 32.169 49.323 29.9034 49.323 27.3544C49.323 23.956 47.6605 21.9753 45.323 20.9823C43.7584 20.3176 41.4897 20.5574 40.323 20.9822Z" fill="white" fill-opacity="0.15"/>
<path d="M27.5 31L22.5 29L40 22L43 23L27.5 31Z" fill="#CE4317"/>
<path d="M27.5 31L22.5 29L40 22L43 23L27.5 31Z" fill="black" fill-opacity="0.15"/>
<path d="M21 29.612L25.5 27.6121C30 28.112 32.9585 32.1516 33.3147 36.6555L32.4391 39.96L30.0787 38.338C29.6311 33.8547 26 29.1121 21 29.612Z" fill="#CE4317"/>
<path d="M21 29.612L25.5 27.6121C30 28.112 32.9585 32.1516 33.3147 36.6555L32.4391 39.96L30.0787 38.338C29.6311 33.8547 26 29.1121 21 29.612Z" fill="black" fill-opacity="0.3"/>
<path d="M36 22.9121L39.2608 21.5276C43.1205 21.5689 46.968 24.4379 47.1205 28.0689L46.1205 30.5689L44.5 29.1121C43.5 25.6121 40.3598 22.9533 36 22.9121Z" fill="#CE4317"/>
<path d="M36 22.9121L39.2608 21.5276C43.1205 21.5689 46.968 24.4379 47.1205 28.0689L46.1205 30.5689L44.5 29.1121C43.5 25.6121 40.3598 22.9533 36 22.9121Z" fill="black" fill-opacity="0.3"/>
<circle cx="31.402" cy="36.7694" r="0.946251" transform="rotate(-81.3325 31.402 36.7694)" fill="#CE4317"/>
<circle cx="31.402" cy="36.7694" r="0.946251" transform="rotate(-81.3325 31.402 36.7694)" fill="white" fill-opacity="0.6"/>
<circle cx="37.078" cy="33.1901" r="0.946251" transform="rotate(-81.3325 37.078 33.1901)" fill="#CE4317"/>
<circle cx="37.078" cy="33.1901" r="0.946251" transform="rotate(-81.3325 37.078 33.1901)" fill="white" fill-opacity="0.6"/>
<circle cx="42.078" cy="30.1901" r="0.946251" transform="rotate(-81.3325 42.078 30.1901)" fill="#CE4317"/>
<circle cx="42.078" cy="30.1901" r="0.946251" transform="rotate(-81.3325 42.078 30.1901)" fill="white" fill-opacity="0.6"/>
<circle cx="45.6985" cy="27.6469" r="0.946251" transform="rotate(-81.3325 45.6985 27.6469)" fill="#CE4317"/>
<circle cx="45.6985" cy="27.6469" r="0.946251" transform="rotate(-81.3325 45.6985 27.6469)" fill="white" fill-opacity="0.6"/>
<ellipse cx="18.1086" cy="40.636" rx="7.77529" ry="9" transform="rotate(-17.3789 18.1086 40.636)" fill="#CE4317"/>
<ellipse cx="18.1086" cy="40.636" rx="7.77529" ry="9" transform="rotate(-17.3789 18.1086 40.636)" fill="white" fill-opacity="0.6"/>
<ellipse cx="18.0055" cy="40.6341" rx="6.59404" ry="8" transform="rotate(-17.3789 18.0055 40.6341)" fill="#CE4317"/>
<ellipse cx="18.0055" cy="40.6341" rx="6.59404" ry="8" transform="rotate(-17.3789 18.0055 40.6341)" fill="black" fill-opacity="0.5"/>
<path d="M26.7618 26C26.0132 25.6 24.5783 24.5 23.9544 24L24.8902 23.5C27.6977 24.3333 33.0318 26.1 31.9088 26.5C30.5051 27 27.6977 26.5 26.7618 26Z" fill="#FAA21E"/>
<path d="M37.0558 0.999966C35.1842 0.199966 33.4685 0.333299 32.8446 0.499966L37.0558 2C38.1788 2.4 40.3311 3.83333 41.2669 4.5C40.6431 3.66666 38.9274 1.79997 37.0558 0.999966Z" fill="#FAA21E"/>
<ellipse cx="10.3621" cy="13.1385" rx="10.3621" ry="13.1385" transform="matrix(0.851063 0.525064 -0.475348 0.879798 28.4907 -4)" fill="#FAA21E"/>
<ellipse cx="10.3621" cy="13.1385" rx="10.3621" ry="13.1385" transform="matrix(0.851063 0.525064 -0.475348 0.879798 30.3623 -3)" fill="#C57A09"/>
<ellipse cx="9.70225" cy="12.3018" rx="9.70225" ry="12.3018" transform="matrix(0.851063 0.525064 -0.475348 0.879798 30.5027 -2)" fill="#FAA21E"/>
<ellipse cx="9.70225" cy="12.3018" rx="9.70225" ry="12.3018" transform="matrix(0.851063 0.525064 -0.475348 0.879798 30.5027 -2)" fill="black" fill-opacity="0.4"/>
<path d="M40.3312 18C37.0558 23.5 30.6888 26.5538 26.1285 23.7403C22.0828 21.2444 21.1396 13.5138 25.8086 7.03146C29.5445 1.84455 34.6879 1.55263 37.4946 2.55409C43.6065 5.5 43.5525 12.0378 40.3312 18Z" fill="#1D8CE0"/>
<path d="M40.3312 18C37.0558 23.5 30.6888 26.5538 26.1285 23.7403C22.0828 21.2444 21.1396 13.5138 25.8086 7.03146C29.5445 1.84455 34.6879 1.55263 37.4946 2.55409C43.6065 5.5 43.5525 12.0378 40.3312 18Z" fill="white" fill-opacity="0.6"/>
<path fill-rule="evenodd" clip-rule="evenodd" d="M32.3446 2.38103V12.9502L22.816 18.0413C22.8684 18.3924 22.9361 18.7348 23.0185 19.0669L32.3446 14.084V24.4686C32.6792 24.3762 33.013 24.2654 33.3446 24.1371V13.5497L42.3519 8.73718C42.293 8.3942 42.2151 8.05768 42.1174 7.72867L33.3446 12.4159V2.18921C33.0163 2.23486 32.6823 2.29817 32.3446 2.38103Z" fill="#898989"/>
<path fill-rule="evenodd" clip-rule="evenodd" d="M32.3446 2.38103V12.9502L22.816 18.0413C22.8684 18.3924 22.9361 18.7348 23.0185 19.0669L32.3446 14.084V24.4686C32.6792 24.3762 33.013 24.2654 33.3446 24.1371V13.5497L42.3519 8.73718C42.293 8.3942 42.2151 8.05768 42.1174 7.72867L33.3446 12.4159V2.18921C33.0163 2.23486 32.6823 2.29817 32.3446 2.38103Z" fill="black" fill-opacity="0.4"/>
<path d="M35.529 15.1251C34.9097 16.2714 34.0204 17.084 33.1033 17.4842C32.1863 17.8842 31.2725 17.8634 30.5418 17.4126C29.8111 16.9617 29.3373 16.1265 29.2031 15.0779C29.0688 14.0291 29.2828 12.7999 29.9021 11.6536C30.5214 10.5073 31.4107 9.69469 32.3278 9.29453C33.2448 8.89445 34.1585 8.91532 34.8892 9.36613C35.6199 9.81694 36.0938 10.6521 36.228 11.7008C36.3623 12.7496 36.1483 13.9788 35.529 15.1251Z" stroke="#898989" stroke-width="0.995082"/>
<path d="M35.529 15.1251C34.9097 16.2714 34.0204 17.084 33.1033 17.4842C32.1863 17.8842 31.2725 17.8634 30.5418 17.4126C29.8111 16.9617 29.3373 16.1265 29.2031 15.0779C29.0688 14.0291 29.2828 12.7999 29.9021 11.6536C30.5214 10.5073 31.4107 9.69469 32.3278 9.29453C33.2448 8.89445 34.1585 8.91532 34.8892 9.36613C35.6199 9.81694 36.0938 10.6521 36.228 11.7008C36.3623 12.7496 36.1483 13.9788 35.529 15.1251Z" stroke="black" stroke-opacity="0.4" stroke-width="0.995082"/>
</svg>
