<svg width="50" height="50" viewBox="0 0 50 50" fill="none" xmlns="http://www.w3.org/2000/svg">
<g clip-path="url(#clip0_3645_29670)">
<path d="M9.70074 1.99249H39.8518V4.98138L40.8481 6.97397H44.8333V47.8221H11.2738C10.7495 47.8221 8.12764 47.8221 6.55454 46.2597C4.98145 44.6974 4.98145 43.135 4.98145 42.6142V6.67961C4.98145 5.63803 5.71556 4.38813 6.55454 3.55487C7.39353 2.7216 8.65201 1.99249 9.70074 1.99249Z" fill="#2FC4A7"/>
<path d="M9.70074 1.99249H39.8518V4.98138L40.8481 6.97397H44.8333V47.8221H11.2738C10.7495 47.8221 8.12764 47.8221 6.55454 46.2597C4.98145 44.6974 4.98145 43.135 4.98145 42.6142V6.67961C4.98145 5.63803 5.71556 4.38813 6.55454 3.55487C7.39353 2.7216 8.65201 1.99249 9.70074 1.99249Z" fill="black" fill-opacity="0.4"/>
<path d="M42.8407 9.0662L39.8518 4.98138V39.8518H37.8593L42.8407 45.8295V9.0662Z" fill="#898989"/>
<path d="M42.8407 9.0662L39.8518 4.98138V39.8518H37.8593L42.8407 45.8295V9.0662Z" fill="white" fill-opacity="0.2"/>
<path d="M10.093 39.8517H37.8593L42.8408 45.8295H10.093C9.58856 45.8295 6.97412 45.0823 6.97412 42.8406C6.97412 40.599 9.58856 39.8517 10.093 39.8517Z" fill="#898989"/>
<path d="M10.093 39.8517H37.8593L42.8408 45.8295H10.093C9.58856 45.8295 6.97412 45.0823 6.97412 42.8406C6.97412 40.599 9.58856 39.8517 10.093 39.8517Z" fill="white" fill-opacity="0.6"/>
<g clip-path="url(#clip1_3645_29670)">
<path d="M21.9502 20.6903C17.7614 20.6903 10.4738 19.9704 7.28003 19.4C9.05798 20.7852 11.3022 23.3302 14.147 25.0902C17.7029 27.2902 25.3086 27.7791 29.8522 25.0902C32.4729 23.5393 34.4482 21.0296 36.72 19.4C33.5263 19.916 26.5926 20.6903 21.9502 20.6903Z" fill="#898989"/>
<path d="M21.9502 20.6903C17.7614 20.6903 10.4738 19.9704 7.28003 19.4C9.05798 20.7852 11.3022 23.3302 14.147 25.0902C17.7029 27.2902 25.3086 27.7791 29.8522 25.0902C32.4729 23.5393 34.4482 21.0296 36.72 19.4C33.5263 19.916 26.5926 20.6903 21.9502 20.6903Z" fill="white" fill-opacity="0.2"/>
<path d="M13.1395 16.932C11.6431 17.9569 8.95363 18.9478 7.28003 19.4C10.48 20.04 17.8453 21.0016 22.0982 21.0016C26.3511 21.0016 33.8322 19.8271 36.72 19.4C35.1777 18.772 31.8838 17.5349 30.86 16.932C29.5802 16.1784 28.4618 15.0751 26.1975 15.0751C23.9332 15.0751 23.8702 15.5905 22.0982 15.5905C20.3261 15.5905 19.6709 15.0751 17.6041 15.0751C15.5298 15.0751 15.01 15.6508 13.1395 16.932Z" fill="#898989"/>
<path d="M13.1395 16.932C11.6431 17.9569 8.95363 18.9478 7.28003 19.4C10.48 20.04 17.8453 21.0016 22.0982 21.0016C26.3511 21.0016 33.8322 19.8271 36.72 19.4C35.1777 18.772 31.8838 17.5349 30.86 16.932C29.5802 16.1784 28.4618 15.0751 26.1975 15.0751C23.9332 15.0751 23.8702 15.5905 22.0982 15.5905C20.3261 15.5905 19.6709 15.0751 17.6041 15.0751C15.5298 15.0751 15.01 15.6508 13.1395 16.932Z" fill="white" fill-opacity="0.4"/>
<path d="M31.2702 32.672L36.8652 35.8179L33.7193 30.2229L33.573 31.826L16.8195 15.0725L16.2374 12.741L9.68168 6.18531L10.2782 9.23088L7.23258 8.6344L13.7883 15.1901L16.1198 15.7723L32.8732 32.5257L31.2702 32.672Z" fill="#FEFEFE"/>
<path d="M33.7193 11.8196L36.8652 6.22455L31.2702 9.37047L32.8732 9.51673L16.1198 26.2702L13.7883 26.8523L7.23258 33.408L10.2782 32.8116L9.68168 35.8571L16.2374 29.3014L16.8195 26.9699L33.573 10.2165L33.7193 11.8196Z" fill="#FEFEFE"/>
</g>
</g>
<defs>
<clipPath id="clip0_3645_29670">
<rect width="50" height="50" fill="white"/>
</clipPath>
<clipPath id="clip1_3645_29670">
<rect width="32" height="32" fill="white" transform="matrix(-1 0 0 1 38 5)"/>
</clipPath>
</defs>
</svg>
