<svg width="50" height="50" viewBox="0 0 50 50" fill="none" xmlns="http://www.w3.org/2000/svg">
<ellipse cx="25" cy="36" rx="25" ry="8" fill="#D0333D"/>
<ellipse cx="25" cy="36" rx="25" ry="8" fill="white" fill-opacity="0.6"/>
<path fill-rule="evenodd" clip-rule="evenodd" d="M11.5 25C12.8333 18.3333 19 5 25 5C30.2212 5 33.5493 19.7664 35.9727 30.5188C36.3342 32.1226 36.6755 33.6371 37 35C35.3333 36.5 30.3 38 25.5 38C20.7 38 15.8333 36.5 14 35L17.5504 18.5794C18.4941 17.2141 19.6493 16.0496 20.8025 15.1731C22.0186 14.2489 23.1991 13.6701 24.0981 13.4903C24.3688 13.4361 24.5444 13.1727 24.4903 12.9019C24.4361 12.6312 24.1727 12.4556 23.9019 12.5097C22.8009 12.7299 21.4814 13.4011 20.1975 14.3769C19.1589 15.1662 18.1217 16.1713 17.2182 17.3403C16.1032 18.5868 13.9212 21.1952 11.5 25Z" fill="#D0333D"/>
<path fill-rule="evenodd" clip-rule="evenodd" d="M11.5 25C12.8333 18.3333 19 5 25 5C30.2212 5 33.5493 19.7664 35.9727 30.5188C36.3342 32.1226 36.6755 33.6371 37 35C35.3333 36.5 30.3 38 25.5 38C20.7 38 15.8333 36.5 14 35L17.5504 18.5794C18.4941 17.2141 19.6493 16.0496 20.8025 15.1731C22.0186 14.2489 23.1991 13.6701 24.0981 13.4903C24.3688 13.4361 24.5444 13.1727 24.4903 12.9019C24.4361 12.6312 24.1727 12.4556 23.9019 12.5097C22.8009 12.7299 21.4814 13.4011 20.1975 14.3769C19.1589 15.1662 18.1217 16.1713 17.2182 17.3403C16.1032 18.5868 13.9212 21.1952 11.5 25Z" fill="white" fill-opacity="0.8"/>
<path d="M14.5 32.5L14 35C16 36.5 19.9 38 25.5 38C31.1 38 35 36.5 37 35L36.5 32.5C35.1667 33.3333 30.7 35 25.5 35C20.3 35 16 33.3333 14.5 32.5Z" fill="#D0333D"/>
<path d="M14.5 32.5L14 35C16 36.5 19.9 38 25.5 38C31.1 38 35 36.5 37 35L36.5 32.5C35.1667 33.3333 30.7 35 25.5 35C20.3 35 16 33.3333 14.5 32.5Z" fill="white" fill-opacity="0.2"/>
</svg>
