<svg width="50" height="50" viewBox="0 0 50 50" fill="none" xmlns="http://www.w3.org/2000/svg">
<path d="M29 27.6538L4 19.1538L4.5 34.1538L29 44.1538V27.6538Z" fill="#D0333D"/>
<path d="M29 27.6538L4 19.1538L4.5 34.1538L29 44.1538V27.6538Z" fill="black" fill-opacity="0.2"/>
<path d="M46 21.1539L29 27.6539V44.1539L45.5 35.6539L46 21.1539Z" fill="#D0333D"/>
<path d="M46 21.1539L29 27.6539V44.1539L45.5 35.6539L46 21.1539Z" fill="#D0333D"/>
<path d="M44.5 27L31.5 32.8305V41.4481L44.1176 34.9481L44.5 27Z" fill="#7445B8"/>
<path d="M44.5 27L31.5 32.8305V41.4481L44.1176 34.9481L44.5 27Z" fill="white" fill-opacity="0.6"/>
<path d="M4 19.1539C4.5 16.6539 5.5 13.6539 8.5 9.65392C11.0456 6.25978 15 5.6539 16.5 6.15387L41.2658 12.4668C41.5484 12.4988 41.7956 12.5631 42 12.6539L41.2658 12.4668C39.4753 12.2637 36.2639 13.3536 33.5 17.1539C30.3 21.5539 29.6667 25.6539 29 27.6539L4 19.1539Z" fill="#D0333D"/>
<path d="M4 19.1539C4.5 16.6539 5.5 13.6539 8.5 9.65392C11.0456 6.25978 15 5.6539 16.5 6.15387L41.2658 12.4668C41.5484 12.4988 41.7956 12.5631 42 12.6539L41.2658 12.4668C39.4753 12.2637 36.2639 13.3536 33.5 17.1539C30.3 21.5539 29.6667 25.6539 29 27.6539L4 19.1539Z" fill="black" fill-opacity="0.2"/>
<path d="M29.0105 27.6249L29 27.6754L46 21.1754L45.9952 21.1416C45.4938 17.6313 44.5173 10.7949 38.5 12.6754C31.6807 14.8064 29.8486 23.6014 29.0105 27.6249Z" fill="#D0333D"/>
<path d="M31.508 26.3366L31.5 26.3752L44.5055 21.4026L44.5018 21.3767C44.1182 18.6912 43.3711 13.4612 38.7678 14.8998C33.5508 16.5301 32.1492 23.2585 31.508 26.3366Z" fill="#7445B8"/>
<path d="M31.508 26.3366L31.5 26.3752L44.5055 21.4026L44.5018 21.3767C44.1182 18.6912 43.3711 13.4612 38.7678 14.8998C33.5508 16.5301 32.1492 23.2585 31.508 26.3366Z" fill="white" fill-opacity="0.6"/>
<path d="M4 21.1538V19.1538L29 27.6538V30.1538L4 21.1538Z" fill="#D0333D"/>
<path d="M4 21.1538V19.1538L29 27.6538V30.1538L4 21.1538Z" fill="black" fill-opacity="0.2"/>
<path d="M20.5 24.6541V40.6541L22 41.3103V25.1541C22.5 22.8207 23.7972 18.0326 26.5 14.6541C28.5 12.1541 32.6667 10.6874 34 10.8541L31.5 10.1541C30.3333 10.1541 27.4 10.8541 25 13.6541C22.6 16.4541 21 21.8207 20.5 24.6541Z" fill="#7445B8"/>
<path d="M20.5 24.6541V40.6541L22 41.3103V25.1541C22.5 22.8207 23.7972 18.0326 26.5 14.6541C28.5 12.1541 32.6667 10.6874 34 10.8541L31.5 10.1541C30.3333 10.1541 27.4 10.8541 25 13.6541C22.6 16.4541 21 21.8207 20.5 24.6541Z" fill="white" fill-opacity="0.4"/>
<path d="M8.5 20.6539V35.8102L10 36.3883V21.1539C10.5 18.8206 11.7972 15.0325 14.5 11.6539C16.5 9.15393 20.6667 7.68726 22 7.85393L19.5 7.15393C18.3333 7.15393 15.4 7.85393 13 10.6539C10.6 13.4539 9 17.8206 8.5 20.6539Z" fill="#7445B8"/>
<path d="M8.5 20.6539V35.8102L10 36.3883V21.1539C10.5 18.8206 11.7972 15.0325 14.5 11.6539C16.5 9.15393 20.6667 7.68726 22 7.85393L19.5 7.15393C18.3333 7.15393 15.4 7.85393 13 10.6539C10.6 13.4539 9 17.8206 8.5 20.6539Z" fill="white" fill-opacity="0.4"/>
<path d="M4.1 22.1539L4 21L29 30V31.1539L4.1 22.1539Z" fill="#D0333D"/>
<path d="M4.1 22.1539L4 21L29 30V31.1539L4.1 22.1539Z" fill="black" fill-opacity="0.6"/>
<path d="M29 30.1539V27.6539L46 21.1539V23.1539L29 30.1539Z" fill="#D0333D"/>
<path d="M29 31.1539V28.6539L46 22.1539L45.9 24.5L29 31.1539Z" fill="#D0333D"/>
<path d="M29 31.1539V28.6539L46 22.1539L45.9 24.5L29 31.1539Z" fill="black" fill-opacity="0.6"/>
<path d="M29 30.1539V27.6539L46 21.1539V23.1539L29 30.1539Z" fill="#D0333D"/>
<path d="M17.5 27L12 25V31.5C12.5 32.1667 13 33.5 14.5 34C15.5607 34.3536 16.8333 33.6667 17.5 33.5V27Z" fill="#7445B8"/>
<path d="M17.5 27L12 25V31.5C12.5 32.1667 13 33.5 14.5 34C15.5607 34.3536 16.8333 33.6667 17.5 33.5V27Z" fill="white" fill-opacity="0.4"/>
<ellipse cx="14.5" cy="28.5" rx="1.5" ry="1" transform="rotate(90 14.5 28.5)" fill="#D0333D"/>
<ellipse cx="14.5" cy="28.5" rx="1.5" ry="1" transform="rotate(90 14.5 28.5)" fill="black" fill-opacity="0.6"/>
<path d="M14 30.5C14 30.7761 14.2239 31 14.5 31C14.7761 31 15 30.7761 15 30.5H14ZM14 29V30.5H15V29H14Z" fill="#D0333D"/>
<path d="M14 30.5C14 30.7761 14.2239 31 14.5 31C14.7761 31 15 30.7761 15 30.5H14ZM14 29V30.5H15V29H14Z" fill="black" fill-opacity="0.6"/>
</svg>
