<svg width="50" height="50" viewBox="0 0 50 50" fill="none" xmlns="http://www.w3.org/2000/svg">
<circle cx="24.9075" cy="24.9074" r="22.4167" stroke="#1D8CE0" stroke-width="0.996296"/>
<circle cx="24.9075" cy="24.9074" r="22.4167" stroke="white" stroke-opacity="0.95" stroke-width="0.996296"/>
<path d="M40.3501 31.8815C43.5383 24.3096 40.3501 15.4426 35.3687 10.9592C36.365 15.4426 35.6675 22.1177 32.8779 28.8926C30.0883 35.6674 23.7452 40.0179 20.9224 41.3463C26.402 42.8407 37.162 39.4533 40.3501 31.8815Z" fill="#FEFEFE" fill-opacity="0.15"/>
<path d="M14.4463 8.96666C11.6057 11.4681 10.4611 14.9444 10.4611 17.9333C10.9468 15.8739 14.0426 11.6996 16.937 9.96295C19.4003 8.48499 21.4204 6.97407 24.9074 6.47591C21.4204 5.97777 17.2869 6.46523 14.4463 8.96666Z" fill="#FEFEFE"/>
<path d="M33.874 39.8519C37.3611 37.8592 40.8481 32.8778 40.8481 29.8889C40.1079 32.8778 36.163 36.7039 33.3759 38.3574C30.3241 40.1679 24.4092 41.8444 20.9222 41.8444C24.4092 42.8407 29.8889 42.1291 33.874 39.8519Z" fill="#FEFEFE"/>
<path d="M14.078 15.0262C17.1625 13.7425 20.3236 17.0097 21.8777 20.2504C23.626 23.8961 19.6278 29.7673 18.1351 30.1673C16.6423 30.5673 13.3668 26.8736 12.1403 24.0023C10.9139 21.131 10.9934 16.3098 14.078 15.0262Z" fill="#D0333D"/>
<path d="M14.078 15.0262C17.1625 13.7425 20.3236 17.0097 21.8777 20.2504C23.626 23.8961 19.6278 29.7673 18.1351 30.1673C16.6423 30.5673 13.3668 26.8736 12.1403 24.0023C10.9139 21.131 10.9934 16.3098 14.078 15.0262Z" fill="black" fill-opacity="0.2"/>
<path d="M35.511 15.683C32.077 14.537 28.4519 17.1724 27.0433 20.5322C25.2393 24.8352 27.429 30.563 29.0726 30.8936C31.4884 31.3794 36.3624 27.6431 37.4481 24.6738C38.5339 21.7046 38.945 16.829 35.511 15.683Z" fill="#D0333D"/>
<path d="M35.511 15.683C32.077 14.537 28.4519 17.1724 27.0433 20.5322C25.2393 24.8352 27.429 30.563 29.0726 30.8936C31.4884 31.3794 36.3624 27.6431 37.4481 24.6738C38.5339 21.7046 38.945 16.829 35.511 15.683Z" fill="black" fill-opacity="0.2"/>
<path d="M25.2869 28.7079C24.7628 28.1169 24.2685 25.4761 24.0869 24.2296C23.6604 24.3439 22.7809 26.1795 22.3697 27.2039C22.0407 28.0235 21.9129 29.7644 21.8901 30.5324L23.8094 30.0181L26.342 30.9395C26.2086 30.4419 25.8109 29.2989 25.2869 28.7079Z" fill="#D0333D"/>
<path d="M25.2869 28.7079C24.7628 28.1169 24.2685 25.4761 24.0869 24.2296C23.6604 24.3439 22.7809 26.1795 22.3697 27.2039C22.0407 28.0235 21.9129 29.7644 21.8901 30.5324L23.8094 30.0181L26.342 30.9395C26.2086 30.4419 25.8109 29.2989 25.2869 28.7079Z" fill="black" fill-opacity="0.2"/>
<path d="M38.1014 31.3847C38.4597 30.1625 38.5844 27.9955 38.602 27.0648C37.6274 26.9067 36.4552 29.8173 35.9547 30.4363C35.4542 31.0553 34.2874 31.1649 34.2084 31.6522C34.1293 32.1395 35.599 34.4797 36.0863 34.5587C36.5736 34.6377 37.6536 32.9124 38.1014 31.3847Z" fill="#D0333D"/>
<path d="M38.1014 31.3847C38.4597 30.1625 38.5844 27.9955 38.602 27.0648C37.6274 26.9067 36.4552 29.8173 35.9547 30.4363C35.4542 31.0553 34.2874 31.1649 34.2084 31.6522C34.1293 32.1395 35.599 34.4797 36.0863 34.5587C36.5736 34.6377 37.6536 32.9124 38.1014 31.3847Z" fill="black" fill-opacity="0.2"/>
<path d="M34.3589 35.9501C34.6208 35.7801 33.8889 31.6043 33.1909 31.5911C32.4446 31.6701 30.8541 32.2173 30.6661 33.377C30.5712 33.9616 33.8996 36.2482 34.3589 35.9501Z" fill="#D0333D"/>
<path d="M34.3589 35.9501C34.6208 35.7801 33.8889 31.6043 33.1909 31.5911C32.4446 31.6701 30.8541 32.2173 30.6661 33.377C30.5712 33.9616 33.8996 36.2482 34.3589 35.9501Z" fill="black" fill-opacity="0.2"/>
<path d="M29.2508 34.1502C29.6723 34.0186 32.4967 35.7112 32.4262 36.6936C32.3762 37.391 30.5019 38.1541 29.8039 38.1409C29.1058 38.1277 28.8293 34.2819 29.2508 34.1502Z" fill="#D0333D"/>
<path d="M29.2508 34.1502C29.6723 34.0186 32.4967 35.7112 32.4262 36.6936C32.3762 37.391 30.5019 38.1541 29.8039 38.1409C29.1058 38.1277 28.8293 34.2819 29.2508 34.1502Z" fill="black" fill-opacity="0.2"/>
<path d="M28.184 35.1775C27.9206 34.3346 27.5255 33.0702 26.7616 32.8463C26.1294 33.0439 25.5498 37.8511 25.7473 38.4833C25.9449 39.1155 27.9073 38.7335 28.3288 38.6019C28.7502 38.4702 28.4474 36.0204 28.184 35.1775Z" fill="#D0333D"/>
<path d="M28.184 35.1775C27.9206 34.3346 27.5255 33.0702 26.7616 32.8463C26.1294 33.0439 25.5498 37.8511 25.7473 38.4833C25.9449 39.1155 27.9073 38.7335 28.3288 38.6019C28.7502 38.4702 28.4474 36.0204 28.184 35.1775Z" fill="black" fill-opacity="0.2"/>
<path d="M22.8103 38.7071C22.1913 38.2066 22.8632 32.214 23.7719 32.1614C24.1934 32.0297 24.6675 32.8067 25.0099 33.1624C25.3523 33.518 25.1942 38.1935 24.6937 38.8125C24.1932 39.4315 23.4293 39.2076 22.8103 38.7071Z" fill="#D0333D"/>
<path d="M22.8103 38.7071C22.1913 38.2066 22.8632 32.214 23.7719 32.1614C24.1934 32.0297 24.6675 32.8067 25.0099 33.1624C25.3523 33.518 25.1942 38.1935 24.6937 38.8125C24.1932 39.4315 23.4293 39.2076 22.8103 38.7071Z" fill="black" fill-opacity="0.2"/>
<path d="M17.3052 34.4134C17.3842 33.9261 20.993 31.4106 21.612 31.9111C22.5734 32.7672 21.625 38.6148 21.4142 38.6807C21.2035 38.7465 20.7821 38.8782 19.465 38.3646C18.148 37.8509 17.2261 34.9007 17.3052 34.4134Z" fill="#D0333D"/>
<path d="M17.3052 34.4134C17.3842 33.9261 20.993 31.4106 21.612 31.9111C22.5734 32.7672 21.625 38.6148 21.4142 38.6807C21.2035 38.7465 20.7821 38.8782 19.465 38.3646C18.148 37.8509 17.2261 34.9007 17.3052 34.4134Z" fill="black" fill-opacity="0.2"/>
<path d="M13.7492 30.4358C14.4341 31.147 17.1472 31.6871 17.3447 32.3192C17.3315 33.0173 15.7774 33.9655 15.6984 34.4528C15.6193 34.9401 17.1866 36.9948 16.7651 37.1265C16.3436 37.2582 12.9721 34.6108 12.3662 33.4123C11.7604 32.2138 10.6937 29.5401 11.4708 29.066C12.2478 28.5919 13.0644 29.7246 13.7492 30.4358Z" fill="#D0333D"/>
<path d="M13.7492 30.4358C14.4341 31.147 17.1472 31.6871 17.3447 32.3192C17.3315 33.0173 15.7774 33.9655 15.6984 34.4528C15.6193 34.9401 17.1866 36.9948 16.7651 37.1265C16.3436 37.2582 12.9721 34.6108 12.3662 33.4123C11.7604 32.2138 10.6937 29.5401 11.4708 29.066C12.2478 28.5919 13.0644 29.7246 13.7492 30.4358Z" fill="black" fill-opacity="0.2"/>
<path d="M10.1538 24.8514C10.6411 24.9304 11.8528 27.3275 11.563 27.8807C11.2557 28.1309 10.5567 28.6577 10.2196 28.763C9.79811 28.8947 9.66652 24.7724 10.1538 24.8514Z" fill="#D0333D"/>
<path d="M10.1538 24.8514C10.6411 24.9304 11.8528 27.3275 11.563 27.8807C11.2557 28.1309 10.5567 28.6577 10.2196 28.763C9.79811 28.8947 9.66652 24.7724 10.1538 24.8514Z" fill="black" fill-opacity="0.2"/>
</svg>
