<?xml version="1.0" encoding="utf-8"?><svg fill="none" viewBox="0 0 50 50" xmlns="http://www.w3.org/2000/svg" width="50" height="50"><g clip-path="url(#bcba)"><path d="M22.5 1.5C19.744 1.5 16.984.83 16 0L8 42.25c1.968-1.037 7.897-2.75 15-2.75 7.238 0 14.04 2.255 16.5 3.5L30 0c-.984.83-4.744 1.5-7.5 1.5Z" fill="#D0333D"/><path d="M22.5 1.5C19.744 1.5 16.984.83 16 0L8 42.25c1.968-1.037 7.897-2.75 15-2.75 7.238 0 14.04 2.255 16.5 3.5L30 0c-.984.83-4.744 1.5-7.5 1.5Z" fill="#000" fill-opacity=".6"/><path d="M12.28 3.5c.818-.87 2.387-1.319 3.58-1.5L22 7.379c-1.364 4.348-1.74 14.786-2.558 20.438-.819 5.653-3.07 20.977-7.163 22.052C8.186 50.945 0 45.03 0 45.03c5.116-4.841 7.572-13.482 9.21-20.439 2.046-8.696 2.046-20.003 3.07-21.09Z" fill="#D0333D"/><path d="M12.28 3.5c.818-.87 2.387-1.319 3.58-1.5L22 7.379c-1.364 4.348-1.74 14.786-2.558 20.438-.819 5.653-3.07 20.977-7.163 22.052C8.186 50.945 0 45.03 0 45.03c5.116-4.841 7.572-13.482 9.21-20.439 2.046-8.696 2.046-20.003 3.07-21.09Z" fill="#000" fill-opacity=".4"/><path d="M12.28 3.5c.818-.87 2.387-1.319 3.58-1.5L22 7.379c-.735 2.34-1.182 6.447-1.567 10.621-.478-2.167-1.633-6.9-2.433-8.5-.8-1.6-4-2.121-6.27-4 .155-1.056.329-1.766.55-2Z" fill="#D0333D"/><path d="M12.28 3.5c.818-.87 2.387-1.319 3.58-1.5L22 7.379c-.735 2.34-1.182 6.447-1.567 10.621-.478-2.167-1.633-6.9-2.433-8.5-.8-1.6-4-2.121-6.27-4 .155-1.056.329-1.766.55-2Z" fill="#000" fill-opacity=".6"/><path d="M14.265 39.69c1.13-.828 2.773-2.07 4.185-5.69-.45 2-.609 4.241-1.362 6.724C16.304 43.31 15 48 13 49.5c.941-1.552.323-3.603-.147-4.638-.533-1.17-1.882-2.586-2.353-3.103 1.882-.518 2.635-1.242 3.765-2.07Z" fill="#D0333D"/><path d="M14.265 39.69c1.13-.828 2.773-2.07 4.185-5.69-.45 2-.609 4.241-1.362 6.724C16.304 43.31 15 48 13 49.5c.941-1.552.323-3.603-.147-4.638-.533-1.17-1.882-2.586-2.353-3.103 1.882-.518 2.635-1.242 3.765-2.07Z" fill="#000" fill-opacity=".2"/><path d="M33.882 3.5c-.753-.87-2.196-1.319-3.293-1.5L23 7.334c1.255 4.348 3.543 14.829 4.296 20.481.752 5.652 2.822 20.975 6.586 22.05C37.646 50.942 50 44.5 50 44.5c-7.364-5.868-10.76-12.28-12.764-19.563-2.355-8.558-2.413-20.35-3.354-21.437Z" fill="#D0333D"/><path d="M33.882 3.5c-.753-.87-2.196-1.319-3.293-1.5L23 7.334c1.255 4.348 3.543 14.829 4.296 20.481.752 5.652 2.822 20.975 6.586 22.05C37.646 50.942 50 44.5 50 44.5c-7.364-5.868-10.76-12.28-12.764-19.563-2.355-8.558-2.413-20.35-3.354-21.437Z" fill="#000" fill-opacity=".4"/><path d="M33.882 3.5c-.753-.87-2.196-1.319-3.293-1.5L23 7.334c.513 1.78 1.2 4.585 1.883 7.666.539-1.5 1.117-5 2.413-6C28.37 8.17 32 7.5 34.5 6.335c-.184-1.519-.37-2.549-.618-2.835Z" fill="#D0333D"/><path d="M33.882 3.5c-.753-.87-2.196-1.319-3.293-1.5L23 7.334c.513 1.78 1.2 4.585 1.883 7.666.539-1.5 1.117-5 2.413-6C28.37 8.17 32 7.5 34.5 6.335c-.184-1.519-.37-2.549-.618-2.835Z" fill="#000" fill-opacity=".6"/><path d="M32.5 39.5c-1.13-.938-3.088-2.397-4.5-6.5.5 3 1.247 6.686 2 9.5.784 2.931 1.5 7.5 5 7.5-2.21-.812-1.824-3.517-1.353-4.69C34.18 43.984 36 43 37 42c-1.882-.586-3.37-1.562-4.5-2.5Z" fill="#D0333D"/><path d="M32.5 39.5c-1.13-.938-3.088-2.397-4.5-6.5.5 3 1.247 6.686 2 9.5.784 2.931 1.5 7.5 5 7.5-2.21-.812-1.824-3.517-1.353-4.69C34.18 43.984 36 43 37 42c-1.882-.586-3.37-1.562-4.5-2.5Z" fill="#000" fill-opacity=".2"/><path d="m6.5 2 9.3-2 6.521 8L30.1 0 41 2c-3.85.615-5.4 2.308-7.05 3.538C32.3 6.77 22.321 8 22.321 8c-2.383-.41-5.421-.615-8.171-1.846C11.4 4.924 9.8 2.615 6.5 2Z" fill="#D0333D"/><path d="m6.5 2 9.3-2 6.521 8L30.1 0 41 2c-3.85.615-5.4 2.308-7.05 3.538C32.3 6.77 22.321 8 22.321 8c-2.383-.41-5.421-.615-8.171-1.846C11.4 4.924 9.8 2.615 6.5 2Z" fill="#000" fill-opacity=".2"/><path d="M18 17.615c0-.538 1.6-6.892 4-8.615l-1.5 7 .5 7s-3-4.846-3-5.385Z" fill="#D0333D"/><path d="M18 17.615c0-.538 1.6-6.892 4-8.615l-1.5 7 .5 7s-3-4.846-3-5.385Z" fill="#000" fill-opacity=".2"/><path d="M24.831 17.639 23.631 10c1.82 1.825 4.181 7.998 4.012 9.584-.168 1.585-1.518 4.813-2.662 6.103l-.15-8.048Z" fill="#D0333D"/><path d="M24.831 17.639 23.631 10c1.82 1.825 4.181 7.998 4.012 9.584-.168 1.585-1.518 4.813-2.662 6.103l-.15-8.048Z" fill="#000" fill-opacity=".2"/><path fill-rule="evenodd" clip-rule="evenodd" d="M22.5 6c-2.25 0-3 2.1-3 2.8 0 1.12 1 1.867 1.5 2.1 0 .7.3 2.1 1.5 2.1s1.5-1.4 1.5-2.1c.5-.233 1.5-.98 1.5-2.1 0-1.4-.75-2.8-3-2.8Zm1.907 2.15-1.414.627c0 .209.141.626.707.626s.707-.835.707-1.253Zm-4.243 0c0 .418.142 1.253.707 1.253.566 0 .708-.417.708-.626l-1.415-.627Zm2.122 1.253-.707.627h1.414l-.707-.627Z" fill="#898989"/><g clip-path="url(#bcbb)" fill="#152242"><path d="M39.029 28.446a1 1 0 0 1 1.742 0l3.507 6.22a1 1 0 0 0 .673.49l7 1.412a1 1 0 0 1 .538 1.657l-4.833 5.258a1 1 0 0 0-.257.791l.82 7.094a1 1 0 0 1-1.41 1.024l-6.493-2.972a1 1 0 0 0-.832 0l-6.494 2.972a1 1 0 0 1-1.41-1.024l.82-7.094a1 1 0 0 0-.257-.791l-4.833-5.258a1 1 0 0 1 .539-1.657l7-1.412a1 1 0 0 0 .673-.49l3.507-6.22Z"/><path d="m41.935 37.532.339.602.675.135 4.062.82-2.804 3.05-.467.508.08.686.474 4.115-3.766-1.724-.627-.287-.627.288-3.769 1.723.476-4.115.079-.686-.467-.508-2.805-3.05 4.063-.82.676-.135.338-.602 2.035-3.611 2.035 3.611Z" stroke="#FAA21E" stroke-width="3.013"/></g></g><defs><clipPath id="bcba"><path fill="#fff" transform="matrix(-1 0 0 1 50 0)" d="M0 0h50v50H0z"/></clipPath><clipPath id="bcbb"><path fill="#fff" transform="matrix(1 0 0 -1 0 50)" d="M0 0h50v50H0z"/></clipPath></defs></svg>