<svg width="50" height="50" viewBox="0 0 50 50" fill="none" xmlns="http://www.w3.org/2000/svg">
<g clip-path="url(#clip0_4706_7919)">
<path d="M22.5 1.5C19.7444 1.5 16.9841 0.829685 16 0L8 42.2501C9.96825 41.213 15.8968 39.5 23 39.5C30.2381 39.5 37.0397 41.7555 39.5 43L30 0C29.0159 0.829685 25.2556 1.5 22.5 1.5Z" fill="#D0333D"/>
<path d="M22.5 1.5C19.7444 1.5 16.9841 0.829685 16 0L8 42.2501C9.96825 41.213 15.8968 39.5 23 39.5C30.2381 39.5 37.0397 41.7555 39.5 43L30 0C29.0159 0.829685 25.2556 1.5 22.5 1.5Z" fill="black" fill-opacity="0.6"/>
<path d="M12.2791 3.5C13.0977 2.63037 14.6667 2.18117 15.8605 2L22 7.37857C20.6357 11.7267 20.2605 22.1645 19.4419 27.8171C18.6233 33.4697 16.3721 48.7936 12.2791 49.8693C8.18605 50.945 0 45.0286 0 45.0286C5.11628 40.1878 7.57209 31.547 9.2093 24.59C11.2558 15.8937 11.2558 4.58704 12.2791 3.5Z" fill="#D0333D"/>
<path d="M12.2791 3.5C13.0977 2.63037 14.6667 2.18117 15.8605 2L22 7.37857C20.6357 11.7267 20.2605 22.1645 19.4419 27.8171C18.6233 33.4697 16.3721 48.7936 12.2791 49.8693C8.18605 50.945 0 45.0286 0 45.0286C5.11628 40.1878 7.57209 31.547 9.2093 24.59C11.2558 15.8937 11.2558 4.58704 12.2791 3.5Z" fill="black" fill-opacity="0.4"/>
<path d="M12.279 3.5C13.0976 2.63037 14.6666 2.18117 15.8604 2L21.9999 7.37857C21.2654 9.71958 20.8175 13.8258 20.4328 18C19.9552 15.8333 18.7999 11.1 17.9999 9.5C17.1999 7.9 13.9999 7.37857 11.729 5.5C11.8853 4.44393 12.0583 3.73439 12.279 3.5Z" fill="#D0333D"/>
<path d="M12.279 3.5C13.0976 2.63037 14.6666 2.18117 15.8604 2L21.9999 7.37857C21.2654 9.71958 20.8175 13.8258 20.4328 18C19.9552 15.8333 18.7999 11.1 17.9999 9.5C17.1999 7.9 13.9999 7.37857 11.729 5.5C11.8853 4.44393 12.0583 3.73439 12.279 3.5Z" fill="black" fill-opacity="0.6"/>
<path d="M14.2647 39.6897C15.3941 38.8621 17.0382 37.6207 18.45 34C18 36 17.8412 38.2414 17.0882 40.7241C16.3039 43.3103 15 48 13 49.5C13.9412 47.9483 13.3235 45.8966 12.8529 44.8621C12.3205 43.6917 10.9706 42.2759 10.5 41.7586C12.3824 41.2414 13.1353 40.5172 14.2647 39.6897Z" fill="#D0333D"/>
<path d="M14.2647 39.6897C15.3941 38.8621 17.0382 37.6207 18.45 34C18 36 17.8412 38.2414 17.0882 40.7241C16.3039 43.3103 15 48 13 49.5C13.9412 47.9483 13.3235 45.8966 12.8529 44.8621C12.3205 43.6917 10.9706 42.2759 10.5 41.7586C12.3824 41.2414 13.1353 40.5172 14.2647 39.6897Z" fill="black" fill-opacity="0.2"/>
<path d="M33.8818 3.5C33.1291 2.63044 31.6864 2.18116 30.5886 2L23 7.3342C24.2545 11.682 26.5427 22.163 27.2955 27.8152C28.0482 33.4673 30.1182 48.79 33.8818 49.8656C37.6455 50.9412 50 44.5 50 44.5C42.6364 38.6324 39.2409 32.2204 37.2364 24.9371C34.8809 16.3788 34.8227 4.58695 33.8818 3.5Z" fill="#D0333D"/>
<path d="M33.8818 3.5C33.1291 2.63044 31.6864 2.18116 30.5886 2L23 7.3342C24.2545 11.682 26.5427 22.163 27.2955 27.8152C28.0482 33.4673 30.1182 48.79 33.8818 49.8656C37.6455 50.9412 50 44.5 50 44.5C42.6364 38.6324 39.2409 32.2204 37.2364 24.9371C34.8809 16.3788 34.8227 4.58695 33.8818 3.5Z" fill="black" fill-opacity="0.4"/>
<path d="M33.8818 3.5C33.1291 2.63044 31.6864 2.18116 30.5886 2L23 7.3342C23.5133 9.11306 24.1996 11.9186 24.883 15C25.422 13.5 26 10 27.2955 9C28.3707 8.17001 32 7.5 34.5 6.33471C34.3164 4.8164 34.1298 3.78646 33.8818 3.5Z" fill="#D0333D"/>
<path d="M33.8818 3.5C33.1291 2.63044 31.6864 2.18116 30.5886 2L23 7.3342C23.5133 9.11306 24.1996 11.9186 24.883 15C25.422 13.5 26 10 27.2955 9C28.3707 8.17001 32 7.5 34.5 6.33471C34.3164 4.8164 34.1298 3.78646 33.8818 3.5Z" fill="black" fill-opacity="0.6"/>
<path d="M32.5 39.5C31.3706 38.5621 29.4118 37.1034 28 33C28.5 36 29.2471 39.6862 30 42.5C30.7843 45.431 31.5 50 35 50C32.7908 49.188 33.1765 46.4828 33.6471 45.3103C34.1795 43.9839 36 43 37 42C35.1176 41.4138 33.6294 40.4379 32.5 39.5Z" fill="#D0333D"/>
<path d="M32.5 39.5C31.3706 38.5621 29.4118 37.1034 28 33C28.5 36 29.2471 39.6862 30 42.5C30.7843 45.431 31.5 50 35 50C32.7908 49.188 33.1765 46.4828 33.6471 45.3103C34.1795 43.9839 36 43 37 42C35.1176 41.4138 33.6294 40.4379 32.5 39.5Z" fill="black" fill-opacity="0.2"/>
<path d="M6.5 2L15.8 0L22.3214 8L30.1 0L41 2C37.15 2.61538 35.6 4.30769 33.95 5.53846C32.3 6.76923 22.3214 8 22.3214 8C19.9381 7.58974 16.9 7.38462 14.15 6.15385C11.4 4.92308 9.8 2.61538 6.5 2Z" fill="#D0333D"/>
<path d="M6.5 2L15.8 0L22.3214 8L30.1 0L41 2C37.15 2.61538 35.6 4.30769 33.95 5.53846C32.3 6.76923 22.3214 8 22.3214 8C19.9381 7.58974 16.9 7.38462 14.15 6.15385C11.4 4.92308 9.8 2.61538 6.5 2Z" fill="black" fill-opacity="0.2"/>
<path d="M18 17.6154C18 17.0769 19.6 10.7231 22 9L20.5 16L21 23C21 23 18 18.1538 18 17.6154Z" fill="#D0333D"/>
<path d="M18 17.6154C18 17.0769 19.6 10.7231 22 9L20.5 16L21 23C21 23 18 18.1538 18 17.6154Z" fill="black" fill-opacity="0.2"/>
<path d="M24.8314 17.6389L23.6318 10C25.4503 11.825 27.8123 17.9981 27.6435 19.5837C27.4748 21.1693 26.1248 24.397 24.9811 25.6867L24.8314 17.6389Z" fill="#D0333D"/>
<path d="M24.8314 17.6389L23.6318 10C25.4503 11.825 27.8123 17.9981 27.6435 19.5837C27.4748 21.1693 26.1248 24.397 24.9811 25.6867L24.8314 17.6389Z" fill="black" fill-opacity="0.2"/>
<path fill-rule="evenodd" clip-rule="evenodd" d="M22.5 6C20.25 6 19.5 8.1 19.5 8.8C19.5 9.92 20.5 10.6667 21 10.9C21 11.6 21.3 13 22.5 13C23.7 13 24 11.6 24 10.9C24.5 10.6667 25.5 9.92 25.5 8.8C25.5 7.4 24.75 6 22.5 6ZM24.4072 8.14966L22.9929 8.77656C22.9929 8.98552 23.1343 9.40346 23.7 9.40346C24.2657 9.40346 24.4072 8.56759 24.4072 8.14966ZM20.1643 8.14966C20.1643 8.56759 20.3057 9.40346 20.8714 9.40346C21.4372 9.40346 21.5786 8.98552 21.5786 8.77656L20.1643 8.14966ZM22.2858 9.40344L21.5786 10.0303H22.9929L22.2858 9.40344Z" fill="#898989"/>
</g>
<defs>
<clipPath id="clip0_4706_7919">
<rect width="50" height="50" fill="white" transform="matrix(-1 0 0 1 50 0)"/>
</clipPath>
</defs>
</svg>
