<svg width="50" height="50" viewBox="0 0 50 50" fill="none" xmlns="http://www.w3.org/2000/svg">
<path d="M9.73684 2H40V5L41 7H45V48H11.3158C10.7895 48 8.15789 48 6.57895 46.4318C5 44.8636 5 43.2955 5 42.7727V6.70455C5 5.65909 5.73684 4.40455 6.57895 3.56818C7.42105 2.73182 8.68421 2 9.73684 2Z" fill="#D0333D"/>
<path d="M9.73684 2H40V5L41 7H45V48H11.3158C10.7895 48 8.15789 48 6.57895 46.4318C5 44.8636 5 43.2955 5 42.7727V6.70455C5 5.65909 5.73684 4.40455 6.57895 3.56818C7.42105 2.73182 8.68421 2 9.73684 2Z" fill="black" fill-opacity="0.2"/>
<path d="M43 9.1L40 5V40H38L43 46V9.1Z" fill="#898989"/>
<path d="M10.1304 40H38L43 46H10.1304C9.62415 46 7 45.25 7 43C7 40.75 9.62415 40 10.1304 40Z" fill="#898989"/>
<path d="M10.1304 40H38L43 46H10.1304C9.62415 46 7 45.25 7 43C7 40.75 9.62415 40 10.1304 40Z" fill="white" fill-opacity="0.4"/>
<g clip-path="url(#clip0_1574_8369)">
<path d="M20.1032 18.5325L24.28 24.5232L29.08 21L28.4449 26.476L36.3948 27.3934L30.367 29.1256L36.12 32.8401L29.2013 31.1181L31.32 36.04L26.1384 32.2372L24.28 37L22.8341 32.1957L16.92 34.76L19.656 29.7479L12.9022 29.1256L19.1201 26.8589L12.9022 21.3275L20.6266 24.5232L20.1032 18.5325Z" fill="#FEFEFE"/>
<rect x="27.679" y="19.0566" width="22.4" height="2.56" rx="1.28" transform="rotate(-150 27.679 19.0566)" fill="#FEFEFE"/>
<path d="M24.4789 24.5993L28.9129 27.1593C29.5252 27.5128 30.308 27.303 30.6615 26.6908L37.0615 15.6057C37.4149 14.9935 37.2052 14.2106 36.5929 13.8572L32.1589 11.2972C31.5467 10.9437 30.7638 11.1535 30.4104 11.7657L24.0104 22.8508C23.6569 23.463 23.8667 24.2459 24.4789 24.5993Z" fill="#FEFEFE"/>
<rect x="36.3355" y="18.1426" width="8.96" height="1.28" rx="0.64" transform="rotate(-150 36.3355 18.1426)" fill="#FEFEFE"/>
<rect x="31.8555" y="25.9023" width="8.96" height="1.28" rx="0.64" transform="rotate(-150 31.8555 25.9023)" fill="#FEFEFE"/>
</g>
<defs>
<clipPath id="clip0_1574_8369">
<rect width="32" height="32" fill="white" transform="translate(7 5)"/>
</clipPath>
</defs>
</svg>
