<svg width="50" height="50" viewBox="0 0 50 50" fill="none" xmlns="http://www.w3.org/2000/svg">
<path d="M34.5 10.4997C35 9.49971 37.8508 8.35048 39.5 9.99974C40.5 10.9998 41 12.4998 40.5 14.4997" stroke="#FAA21E" stroke-width="2"/>
<path d="M34.5 10.4997C35 9.49971 37.8508 8.35048 39.5 9.99974C40.5 10.9998 41 12.4998 40.5 14.4997" stroke="white" stroke-opacity="0.8" stroke-width="2"/>
<path d="M19 10.5C16.5 8.07833 13.0728 5.48763 10.5 5.99999C7.31818 6.63363 6 9.28799 6 12.4562C6 15.6244 9.18182 18.159 9.18182 20.0599C9.18182 21.5806 8.75758 23.6505 8.54545 24.4954" stroke="#FAA21E" stroke-width="2" stroke-linecap="round"/>
<path d="M19 10.5C16.5 8.07833 13.0728 5.48763 10.5 5.99999C7.31818 6.63363 6 9.28799 6 12.4562C6 15.6244 9.18182 18.159 9.18182 20.0599C9.18182 21.5806 8.75758 23.6505 8.54545 24.4954" stroke="white" stroke-opacity="0.8" stroke-width="2" stroke-linecap="round"/>
<path d="M10 38.2843C10.4926 42.2694 11.4365 43.2693 13.7778 43.9998H40.1882C42.6147 43.52 43.4798 42.3429 44 38.2842C43.6255 31.1717 40.8519 16.6912 34.5556 9.70522C32.5465 8.11807 32 9.99976 26.5 9.99976C21 9.99976 20.8983 8.11841 18.8148 9.70522C13.1482 16.0561 11.2593 27.4879 10 38.2843Z" fill="#FAA21E"/>
<path d="M10 38.2843C10.4926 42.2694 11.4365 43.2693 13.7778 43.9998H40.1882C42.6147 43.52 43.4798 42.3429 44 38.2842C43.6255 31.1717 40.8519 16.6912 34.5556 9.70522C32.5465 8.11807 32 9.99976 26.5 9.99976C21 9.99976 20.8983 8.11841 18.8148 9.70522C13.1482 16.0561 11.2593 27.4879 10 38.2843Z" fill="black" fill-opacity="0.4"/>
<path d="M21.172 17.406C22.0336 14.9311 22.8952 12.4562 20.9962 12.2847C19.7302 12.1704 18.8685 14.6454 18.6399 17.1774L18.0684 23.5076C18.8157 22.2987 20.4827 19.386 21.172 17.406Z" fill="#FAA21E"/>
<path d="M21.172 17.406C22.0336 14.9311 22.8952 12.4562 20.9962 12.2847C19.7302 12.1704 18.8685 14.6454 18.6399 17.1774L18.0684 23.5076C18.8157 22.2987 20.4827 19.386 21.172 17.406Z" fill="black" fill-opacity="0.6"/>
<path d="M27.3726 17.5094C27.5222 14.8038 27.6719 12.0982 25.6665 12.503C24.3295 12.7728 24.1799 15.4784 24.6987 18.0491L25.9957 24.4758C26.4048 23.0556 27.2529 19.6739 27.3726 17.5094Z" fill="#FAA21E"/>
<path d="M27.3726 17.5094C27.5222 14.8038 27.6719 12.0982 25.6665 12.503C24.3295 12.7728 24.1799 15.4784 24.6987 18.0491L25.9957 24.4758C26.4048 23.0556 27.2529 19.6739 27.3726 17.5094Z" fill="black" fill-opacity="0.6"/>
<path d="M31.7238 17.9145C30.5358 15.4789 29.3478 13.0433 31.3554 12.6381C32.6937 12.368 33.8818 14.8036 34.4006 17.3743L35.6977 23.801C34.7691 22.6507 32.6743 19.863 31.7238 17.9145Z" fill="#FAA21E"/>
<path d="M31.7238 17.9145C30.5358 15.4789 29.3478 13.0433 31.3554 12.6381C32.6937 12.368 33.8818 14.8036 34.4006 17.3743L35.6977 23.801C34.7691 22.6507 32.6743 19.863 31.7238 17.9145Z" fill="black" fill-opacity="0.6"/>
<path d="M39.5 10C40.5 11 41 13 40.5 14.5C40 16 39.5 17.5 38.4546 20.0599C37.4665 22.4792 35.9091 26.3963 37.1818 29.5645C38.2 32.0991 40.1515 33.5776 41 34" stroke="#FAA21E" stroke-width="2" stroke-linecap="round"/>
<path d="M39.5 10C40.5 11 41 13 40.5 14.5C40 16 39.5 17.5 38.4546 20.0599C37.4665 22.4792 35.9091 26.3963 37.1818 29.5645C38.2 32.0991 40.1515 33.5776 41 34" stroke="white" stroke-opacity="0.8" stroke-width="2" stroke-linecap="round"/>
</svg>
