<svg width="50" height="50" viewBox="0 0 50 50" fill="none" xmlns="http://www.w3.org/2000/svg">
<path d="M38.3595 6.95658C39.0078 7.57274 41.482 11.5694 42.6381 13.4906C42.3059 12.8664 45.5877 17.5279 45.482 19.5868C45.3762 21.6456 40.1308 26.8404 39.6928 28.275C39.2548 29.7096 40.3319 34.7435 39.8939 36.1781C39.4559 37.6128 27.9282 44.549 26.3476 44.5892C24.7669 44.6295 7.17893 37.1688 6.84671 36.5446C6.5145 35.9203 4.81321 31.2187 5.1052 30.2623C5.39719 29.3058 6.9376 27.685 7.37559 26.2504C7.81358 24.8157 8.13091 18.6392 9.67131 17.0184C11.2117 15.3975 17.348 14.1342 17.9722 13.802C18.5964 13.4698 21.9692 9.27168 22.5934 8.93946C23.2176 8.60725 34.0556 5.64261 35.158 5.4564C36.2604 5.27018 37.5491 6.18638 38.3595 6.95658Z" fill="#898989"/>
<path d="M7.45604 29.4119C7.19027 28.9125 7.05449 27.3024 7.20049 26.8242L8.22245 23.4768C8.62518 22.7284 9.2232 20.5413 12.1026 19.3292C15.7018 17.8141 19.6647 22.3645 22.8459 20.0995C25.5178 18.197 24.1598 15.7956 27.0946 13.0321C30.0295 10.2686 34.1472 10.4801 36.6842 10.7319C38.7138 10.9333 41.336 12.0479 42.3058 12.8667C43.2891 14.2125 45.1468 17.6027 45.2958 18.4846C45.482 19.587 44.2447 21.9274 42.9963 22.5918C41.7479 23.2563 34.936 21.5952 31.6399 23.8298C30.4693 24.6234 27.8693 31.0432 25.9967 32.0398C24.1241 33.0365 15.6623 29.9303 15.0381 30.2625C14.4139 30.5947 11.4679 31.6822 10.0042 31.3396C9.51736 31.2257 7.78825 30.0361 7.45604 29.4119Z" fill="#898989"/>
<path d="M7.45604 29.4119C7.19027 28.9125 7.05449 27.3024 7.20049 26.8242L8.22245 23.4768C8.62518 22.7284 9.2232 20.5413 12.1026 19.3292C15.7018 17.8141 19.6647 22.3645 22.8459 20.0995C25.5178 18.197 24.1598 15.7956 27.0946 13.0321C30.0295 10.2686 34.1472 10.4801 36.6842 10.7319C38.7138 10.9333 41.336 12.0479 42.3058 12.8667C43.2891 14.2125 45.1468 17.6027 45.2958 18.4846C45.482 19.587 44.2447 21.9274 42.9963 22.5918C41.7479 23.2563 34.936 21.5952 31.6399 23.8298C30.4693 24.6234 27.8693 31.0432 25.9967 32.0398C24.1241 33.0365 15.6623 29.9303 15.0381 30.2625C14.4139 30.5947 11.4679 31.6822 10.0042 31.3396C9.51736 31.2257 7.78825 30.0361 7.45604 29.4119Z" fill="white" fill-opacity="0.2"/>
<path d="M8.60912 18.7854C8.14193 20.3157 7.39744 25.0374 7.52159 25.7724C8.25157 23.3813 9.58623 21.4791 11.2229 20.4983C15.7018 17.8141 19.9402 22.7676 23.0612 21.1065C26.1822 19.4454 24.8497 15.2484 27.0143 13.2954C29.1789 11.3423 34.0668 10.7434 36.6038 10.9952C38.6334 11.1966 41.2873 12.2072 42.3058 12.8667C41.1011 11.1048 39.0078 7.57299 38.3595 6.95682C36.9007 5.57047 35.7822 5.12446 34.0556 5.64285C32.0811 6.23566 23.2176 8.60747 22.5934 8.93969C21.9692 9.2719 21.0428 10.1754 19.6586 11.7032C18.0817 13.4436 16.8333 14.108 14.0408 14.6931C11.5454 15.2159 9.1931 16.8726 8.60912 18.7854Z" fill="#898989"/>
<path d="M8.60912 18.7854C8.14193 20.3157 7.39744 25.0374 7.52159 25.7724C8.25157 23.3813 9.58623 21.4791 11.2229 20.4983C15.7018 17.8141 19.9402 22.7676 23.0612 21.1065C26.1822 19.4454 24.8497 15.2484 27.0143 13.2954C29.1789 11.3423 34.0668 10.7434 36.6038 10.9952C38.6334 11.1966 41.2873 12.2072 42.3058 12.8667C41.1011 11.1048 39.0078 7.57299 38.3595 6.95682C36.9007 5.57047 35.7822 5.12446 34.0556 5.64285C32.0811 6.23566 23.2176 8.60747 22.5934 8.93969C21.9692 9.2719 21.0428 10.1754 19.6586 11.7032C18.0817 13.4436 16.8333 14.108 14.0408 14.6931C11.5454 15.2159 9.1931 16.8726 8.60912 18.7854Z" fill="white" fill-opacity="0.4"/>
<path d="M25.5222 37.0184C25.336 35.916 21.6563 34.2698 20.4079 34.9342C19.3055 35.1205 18.2433 36.8872 18.5755 37.5114C18.9077 38.1356 21.8172 40.5922 23.5439 40.0738C25.2705 39.5554 25.7085 38.1208 25.5222 37.0184Z" fill="#898989"/>
<path d="M25.5222 37.0184C25.336 35.916 21.6563 34.2698 20.4079 34.9342C19.3055 35.1205 18.2433 36.8872 18.5755 37.5114C18.9077 38.1356 21.8172 40.5922 23.5439 40.0738C25.2705 39.5554 25.7085 38.1208 25.5222 37.0184Z" fill="black" fill-opacity="0.2"/>
<path d="M36.2798 30.8925C36.7177 29.4579 34.9509 28.3957 33.9945 28.1037C33.0381 27.8117 31.3114 28.3301 31.0194 29.2865C30.7275 30.2429 31.2459 31.9696 32.6805 32.4076C34.1151 32.8456 35.8418 32.3271 36.2798 30.8925Z" fill="#898989"/>
<path d="M36.2798 30.8925C36.7177 29.4579 34.9509 28.3957 33.9945 28.1037C33.0381 27.8117 31.3114 28.3301 31.0194 29.2865C30.7275 30.2429 31.2459 31.9696 32.6805 32.4076C34.1151 32.8456 35.8418 32.3271 36.2798 30.8925Z" fill="black" fill-opacity="0.2"/>
<path d="M13.1796 24.3631C12.3692 23.5929 11.4128 23.3009 10.0184 24.4435C9.10219 25.7321 10.869 26.7944 11.9714 26.6082C13.0739 26.422 13.9901 25.1333 13.1796 24.3631Z" fill="#898989"/>
<path d="M24.6567 27.867C25.9051 27.2026 25.0544 24.8518 23.1416 24.2678C21.707 23.8298 19.6884 25.3047 20.685 27.1773C21.6816 29.0499 23.4083 28.5315 24.6567 27.867Z" fill="#898989"/>
<path d="M38.0168 18.3535C40.0756 18.4593 39.9952 15.298 38.0823 14.714C36.7937 13.7978 34.7751 15.2727 34.9613 16.3751C35.1475 17.4775 35.958 18.2477 38.0168 18.3535Z" fill="#898989"/>
<path d="M24.2948 13.6413C24.2545 12.0607 22.5279 12.5791 21.6117 13.8678C21.3197 14.8241 22.2761 15.1162 22.7543 15.2622C23.2325 15.4082 24.335 15.2219 24.2948 13.6413Z" fill="#898989"/>
<path d="M24.2948 13.6413C24.2545 12.0607 22.5279 12.5791 21.6117 13.8678C21.3197 14.8241 22.2761 15.1162 22.7543 15.2622C23.2325 15.4082 24.335 15.2219 24.2948 13.6413Z" fill="white" fill-opacity="0.2"/>
<path d="M20 17L18.5 13L17.5 13.5V17.5L23.5 21L27.5 26L24.5 19.5L20 17Z" fill="#898989"/>
<path d="M20 17L18.5 13L17.5 13.5V17.5L23.5 21L27.5 26L24.5 19.5L20 17Z" fill="black" fill-opacity="0.4"/>
</svg>
