<svg width="50" height="50" viewBox="0 0 50 50" fill="none" xmlns="http://www.w3.org/2000/svg">
<path d="M9.73684 2.01379H40V5.01379L41 7.01379H45V48.0138H11.3158C10.7895 48.0138 8.15789 48.0138 6.57895 46.4456C5 44.8774 5 43.3092 5 42.7865V6.71834C5 5.67288 5.73684 4.41834 6.57895 3.58198C7.42105 2.74561 8.68421 2.01379 9.73684 2.01379Z" fill="#7445B8"/>
<path d="M43 9L40 5V40.0312H38L43 46V9Z" fill="#898989"/>
<path d="M43 9L40 5V40.0312H38L43 46V9Z" fill="white" fill-opacity="0.2"/>
<path d="M10.093 40H38.0001L43.0001 46H10.093C9.58856 46 6.97412 45.0823 6.97412 42.8406C6.97412 40.599 9.58856 40 10.093 40Z" fill="#898989"/>
<path d="M10.093 40H38.0001L43.0001 46H10.093C9.58856 46 6.97412 45.0823 6.97412 42.8406C6.97412 40.599 9.58856 40 10.093 40Z" fill="white" fill-opacity="0.6"/>
<g clip-path="url(#clip0_4815_8345)">
<path d="M32.9044 8.59798C33.8645 8.10978 34.0737 6.71674 34.0583 6.08124C33.7938 6.55136 33.0909 7.47939 32.3947 7.43056C31.5245 7.36952 29.3751 6.11281 26.9657 5.99524C24.5563 5.87767 22.9651 8.02937 24.2534 10.5631C25.284 12.5901 27.7996 13.9068 28.9286 14.3118C28.4344 13.7798 27.3365 12.3688 26.899 10.9802C26.352 9.24429 27.316 8.33457 28.523 8.72787C29.7299 9.12117 31.7042 9.20822 32.9044 8.59798Z" fill="#7445B8"/>
<path d="M32.9044 8.59798C33.8645 8.10978 34.0737 6.71674 34.0583 6.08124C33.7938 6.55136 33.0909 7.47939 32.3947 7.43056C31.5245 7.36952 29.3751 6.11281 26.9657 5.99524C24.5563 5.87767 22.9651 8.02937 24.2534 10.5631C25.284 12.5901 27.7996 13.9068 28.9286 14.3118C28.4344 13.7798 27.3365 12.3688 26.899 10.9802C26.352 9.24429 27.316 8.33457 28.523 8.72787C29.7299 9.12117 31.7042 9.20822 32.9044 8.59798Z" fill="white" fill-opacity="0.6"/>
<path d="M35.1102 18.2175C35.8145 15.5098 31.8725 12.675 29.8135 11.5961C30.7824 13.0615 32.5806 16.1471 32.0228 16.7664C31.3255 17.5405 30.4575 17.814 27.908 16.7607C25.3585 15.7074 20.2787 11.4931 16.9256 15.2959C13.5726 19.0987 18.8158 23.7896 20.8696 24.703C22.0544 25.2299 22.2336 26.1896 22.3681 28.6403C23.0158 27.6896 23.2585 25.5896 22.2336 23.5898C20.8245 20.8403 21.7953 18.1066 26.0569 20.0515C30.3185 21.9965 34.2298 21.6022 35.1102 18.2175Z" fill="#7445B8"/>
<path d="M35.1102 18.2175C35.8145 15.5098 31.8725 12.675 29.8135 11.5961C30.7824 13.0615 32.5806 16.1471 32.0228 16.7664C31.3255 17.5405 30.4575 17.814 27.908 16.7607C25.3585 15.7074 20.2787 11.4931 16.9256 15.2959C13.5726 19.0987 18.8158 23.7896 20.8696 24.703C22.0544 25.2299 22.2336 26.1896 22.3681 28.6403C23.0158 27.6896 23.2585 25.5896 22.2336 23.5898C20.8245 20.8403 21.7953 18.1066 26.0569 20.0515C30.3185 21.9965 34.2298 21.6022 35.1102 18.2175Z" fill="white" fill-opacity="0.6"/>
<path d="M30.289 27.5499C30.5666 25.0591 26.7236 23.0132 24.7674 22.3016C26.0158 23.4896 26.2869 25.7396 25.6724 27.5499C25.1158 29.1896 23.2585 29.7896 23.2585 31.712C23.2585 32.9926 24.3837 34.8601 25.2927 35.7126C25.1992 35.0888 25.1444 33.5726 25.6724 32.4986C26.3324 31.156 29.942 30.6633 30.289 27.5499Z" fill="#7445B8"/>
<path d="M30.289 27.5499C30.5666 25.0591 26.7236 23.0132 24.7674 22.3016C26.0158 23.4896 26.2869 25.7396 25.6724 27.5499C25.1158 29.1896 23.2585 29.7896 23.2585 31.712C23.2585 32.9926 24.3837 34.8601 25.2927 35.7126C25.1992 35.0888 25.1444 33.5726 25.6724 32.4986C26.3324 31.156 29.942 30.6633 30.289 27.5499Z" fill="white" fill-opacity="0.6"/>
<path d="M14.016 21.9895C11.376 19.1095 12.5 13.8 14.0001 11.7C9.20005 14.4 8.00004 21 8.61595 23.7895C9.3948 27.317 12.216 27.9895 15.816 29.7895C18.6959 31.2295 19.2159 33.7895 19.116 34.8895C19.716 34.3895 20.9285 32.8646 20.316 29.1895C19.716 25.5895 17.316 25.5895 14.016 21.9895Z" fill="#FEFEFE"/>
<path d="M32.6 24.6C33.8 21.9 36.5 23.1 37.1 19.5C38.3 23.7 35.3 24.3 35.3 26.4C35.3 28.5 33.5 30.9 30.8 31.2C33.8 28.8 31.7472 26.519 32.6 24.6Z" fill="#FEFEFE"/>
</g>
<defs>
<clipPath id="clip0_4815_8345">
<rect width="30" height="30" fill="white" transform="matrix(-1 0 0 1 38 6)"/>
</clipPath>
</defs>
</svg>
