<svg width="50" height="50" viewBox="0 0 50 50" fill="none" xmlns="http://www.w3.org/2000/svg">
<path fill-rule="evenodd" clip-rule="evenodd" d="M20.9845 40.8931C21.9373 41.6764 23.288 42.6029 25 42.8642C26.4651 43.0878 27.8932 43.7264 29.3253 44.3668C30.718 44.9896 32.1144 45.614 33.5521 45.86C36.5 46.3642 43.2685 44.7676 45.1273 43.4231C46.6144 42.3476 47.662 41.0703 48 40.5662C48.338 40.062 48.5148 38.9171 48 38.1293C47.7397 37.731 47.5825 37.2615 47.4478 36.8594C47.3239 36.4893 47.2191 36.1763 47.0706 36.0286C47.3804 35.7205 48 34.0624 48 29.8945C48 24.6848 47.0706 18.6347 45.7188 16.0298C44 12.718 40.3958 7.87906 35.3264 5.35821C30.257 2.83735 25.5 2.72531 21.8079 3.25749C15.9781 4.09782 11.4156 6.70266 8.71185 9.64366C6.00815 12.5847 3.55792 15.7777 2.37505 20.9035C1.19218 26.0292 3.05098 31.4911 4.57181 34.0119C6.09264 36.5328 8.96532 38.8856 12.176 39.7259C14.7445 40.3981 18.5409 40.2861 20.1181 40.146C20.1387 40.1639 20.1597 40.1823 20.1811 40.201C21.5148 39.4581 23.0446 38.3123 24.4506 37.114C25.9998 35.7938 27.3653 34.4386 28.117 33.5428C29.0531 32.4273 30.22 30.508 31.2292 28.3808C32.2383 26.2537 33.0656 23.9691 33.3515 22.1301C33.924 18.4473 32.7619 14.3749 31.2304 12.1261C29.6143 9.75311 26.5182 7.89671 24.116 7.53091C21.2554 7.0953 18.5532 7.52794 15.8298 8.65893C13.1335 9.77863 11.3384 11.4549 10.0266 13.2205C8.73708 14.9562 7.5 17.7753 7.5 20.7148C7.5 23.0674 9.44498 26.2022 13.2967 26.433C17.2678 26.671 20.6659 24.6831 22.3497 22.407C24.0519 20.106 24.5881 17.7166 23.7196 15.2434C22.8553 12.7823 21.0754 11.4898 18.6241 11.1802C16.2004 10.874 14.4049 11.9367 13.2147 13.2571C12.6051 13.9334 11.9229 15.051 11.5694 16.2055C11.2107 17.3769 11.2294 18.4436 11.7961 19.1615C12.4098 19.9389 13.3907 20.3726 14.453 20.4871C15.5179 20.6018 16.5925 20.3867 17.3326 19.952C18.8363 19.0688 19.3723 17.438 19.3723 16.4041C19.3723 15.855 19.1779 15.2876 18.8544 14.8081C18.5297 14.3268 18.0984 13.9685 17.6637 13.8048C16.7366 13.4558 15.4928 13.6681 14.7001 14.3735C13.8566 15.1242 13.5626 16.0175 13.7484 16.6844C13.9308 17.3389 14.6041 17.8509 15.5353 17.6556C15.9677 17.5649 16.1684 17.3493 16.2876 17.1184C16.4079 16.8855 16.4488 16.6354 16.4895 16.3864L16.4895 16.3863C16.4953 16.3509 16.5011 16.3155 16.5071 16.2803C16.543 16.0694 16.5215 15.9835 16.5076 15.9528L16.5073 15.9523C16.5021 15.9408 16.4794 15.8905 16.3245 15.8324C16.1214 15.7562 16.0604 15.7872 16.0392 15.7979L16.0389 15.798C15.9825 15.8266 15.8854 15.9119 15.7234 16.1715C15.5771 16.4057 15.2687 16.477 15.0344 16.3308C14.8002 16.1845 14.7289 15.8761 14.8751 15.6419C15.0518 15.3589 15.2703 15.0663 15.5872 14.9059C15.9397 14.7274 16.3101 14.759 16.6755 14.896C16.9998 15.0176 17.2715 15.2178 17.4175 15.538C17.5542 15.8379 17.5417 16.1616 17.4929 16.4481C17.4887 16.4731 17.4842 16.5017 17.4792 16.5333L17.4792 16.5334C17.4415 16.773 17.3757 17.1906 17.1761 17.5772C16.9319 18.0502 16.4939 18.4763 15.7406 18.6343C14.3007 18.9363 13.1109 18.122 12.7851 16.9528C12.4628 15.7958 13.0157 14.5338 14.0353 13.6265C15.1057 12.674 16.7412 12.3889 18.016 12.8689C18.6822 13.1197 19.2672 13.6318 19.6834 14.2489C20.101 14.8678 20.3723 15.6268 20.3723 16.4041C20.3723 17.6972 19.7227 19.7079 17.839 20.8143C16.8854 21.3744 15.5887 21.6152 14.3459 21.4813C13.1005 21.3471 11.8372 20.8275 11.0112 19.7811C10.1383 18.6752 10.2204 17.1957 10.6132 15.9127C11.0113 14.6127 11.7687 13.3677 12.472 12.5876C13.8224 11.0895 15.9225 9.831 18.7494 10.1881C21.5486 10.5416 23.6642 12.0676 24.6631 14.912C25.6641 17.7628 25.0083 20.4946 23.1536 23.0017C21.2806 25.5336 17.565 27.6906 13.2369 27.4312C8.78934 27.1647 6.5 23.5258 6.5 20.7148C6.5 17.5197 7.83295 14.4964 9.22392 12.6242C10.6221 10.7423 12.5532 8.93684 15.4462 7.7354C18.3121 6.54525 21.1992 6.0752 24.2666 6.54231C26.9456 6.95027 30.2857 8.96238 32.057 11.5632C33.7253 14.0129 34.9527 18.34 34.3396 22.2837C34.0327 24.2581 33.1611 26.6416 32.1326 28.8094C31.1042 30.9773 29.8947 32.98 28.883 34.1856C28.0842 35.1375 26.6748 36.5323 25.0992 37.8751C23.7803 38.9991 22.3215 40.1069 20.9845 40.8931Z" fill="#546DDB"/>
<path fill-rule="evenodd" clip-rule="evenodd" d="M20.9845 40.8931C21.9373 41.6764 23.288 42.6029 25 42.8642C26.4651 43.0878 27.8932 43.7264 29.3253 44.3668C30.718 44.9896 32.1144 45.614 33.5521 45.86C36.5 46.3642 43.2685 44.7676 45.1273 43.4231C46.6144 42.3476 47.662 41.0703 48 40.5662C48.338 40.062 48.5148 38.9171 48 38.1293C47.7397 37.731 47.5825 37.2615 47.4478 36.8594C47.3239 36.4893 47.2191 36.1763 47.0706 36.0286C47.3804 35.7205 48 34.0624 48 29.8945C48 24.6848 47.0706 18.6347 45.7188 16.0298C44 12.718 40.3958 7.87906 35.3264 5.35821C30.257 2.83735 25.5 2.72531 21.8079 3.25749C15.9781 4.09782 11.4156 6.70266 8.71185 9.64366C6.00815 12.5847 3.55792 15.7777 2.37505 20.9035C1.19218 26.0292 3.05098 31.4911 4.57181 34.0119C6.09264 36.5328 8.96532 38.8856 12.176 39.7259C14.7445 40.3981 18.5409 40.2861 20.1181 40.146C20.1387 40.1639 20.1597 40.1823 20.1811 40.201C21.5148 39.4581 23.0446 38.3123 24.4506 37.114C25.9998 35.7938 27.3653 34.4386 28.117 33.5428C29.0531 32.4273 30.22 30.508 31.2292 28.3808C32.2383 26.2537 33.0656 23.9691 33.3515 22.1301C33.924 18.4473 32.7619 14.3749 31.2304 12.1261C29.6143 9.75311 26.5182 7.89671 24.116 7.53091C21.2554 7.0953 18.5532 7.52794 15.8298 8.65893C13.1335 9.77863 11.3384 11.4549 10.0266 13.2205C8.73708 14.9562 7.5 17.7753 7.5 20.7148C7.5 23.0674 9.44498 26.2022 13.2967 26.433C17.2678 26.671 20.6659 24.6831 22.3497 22.407C24.0519 20.106 24.5881 17.7166 23.7196 15.2434C22.8553 12.7823 21.0754 11.4898 18.6241 11.1802C16.2004 10.874 14.4049 11.9367 13.2147 13.2571C12.6051 13.9334 11.9229 15.051 11.5694 16.2055C11.2107 17.3769 11.2294 18.4436 11.7961 19.1615C12.4098 19.9389 13.3907 20.3726 14.453 20.4871C15.5179 20.6018 16.5925 20.3867 17.3326 19.952C18.8363 19.0688 19.3723 17.438 19.3723 16.4041C19.3723 15.855 19.1779 15.2876 18.8544 14.8081C18.5297 14.3268 18.0984 13.9685 17.6637 13.8048C16.7366 13.4558 15.4928 13.6681 14.7001 14.3735C13.8566 15.1242 13.5626 16.0175 13.7484 16.6844C13.9308 17.3389 14.6041 17.8509 15.5353 17.6556C15.9677 17.5649 16.1684 17.3493 16.2876 17.1184C16.4079 16.8855 16.4488 16.6354 16.4895 16.3864L16.4895 16.3863C16.4953 16.3509 16.5011 16.3155 16.5071 16.2803C16.543 16.0694 16.5215 15.9835 16.5076 15.9528L16.5073 15.9523C16.5021 15.9408 16.4794 15.8905 16.3245 15.8324C16.1214 15.7562 16.0604 15.7872 16.0392 15.7979L16.0389 15.798C15.9825 15.8266 15.8854 15.9119 15.7234 16.1715C15.5771 16.4057 15.2687 16.477 15.0344 16.3308C14.8002 16.1845 14.7289 15.8761 14.8751 15.6419C15.0518 15.3589 15.2703 15.0663 15.5872 14.9059C15.9397 14.7274 16.3101 14.759 16.6755 14.896C16.9998 15.0176 17.2715 15.2178 17.4175 15.538C17.5542 15.8379 17.5417 16.1616 17.4929 16.4481C17.4887 16.4731 17.4842 16.5017 17.4792 16.5333L17.4792 16.5334C17.4415 16.773 17.3757 17.1906 17.1761 17.5772C16.9319 18.0502 16.4939 18.4763 15.7406 18.6343C14.3007 18.9363 13.1109 18.122 12.7851 16.9528C12.4628 15.7958 13.0157 14.5338 14.0353 13.6265C15.1057 12.674 16.7412 12.3889 18.016 12.8689C18.6822 13.1197 19.2672 13.6318 19.6834 14.2489C20.101 14.8678 20.3723 15.6268 20.3723 16.4041C20.3723 17.6972 19.7227 19.7079 17.839 20.8143C16.8854 21.3744 15.5887 21.6152 14.3459 21.4813C13.1005 21.3471 11.8372 20.8275 11.0112 19.7811C10.1383 18.6752 10.2204 17.1957 10.6132 15.9127C11.0113 14.6127 11.7687 13.3677 12.472 12.5876C13.8224 11.0895 15.9225 9.831 18.7494 10.1881C21.5486 10.5416 23.6642 12.0676 24.6631 14.912C25.6641 17.7628 25.0083 20.4946 23.1536 23.0017C21.2806 25.5336 17.565 27.6906 13.2369 27.4312C8.78934 27.1647 6.5 23.5258 6.5 20.7148C6.5 17.5197 7.83295 14.4964 9.22392 12.6242C10.6221 10.7423 12.5532 8.93684 15.4462 7.7354C18.3121 6.54525 21.1992 6.0752 24.2666 6.54231C26.9456 6.95027 30.2857 8.96238 32.057 11.5632C33.7253 14.0129 34.9527 18.34 34.3396 22.2837C34.0327 24.2581 33.1611 26.6416 32.1326 28.8094C31.1042 30.9773 29.8947 32.98 28.883 34.1856C28.0842 35.1375 26.6748 36.5323 25.0992 37.8751C23.7803 38.9991 22.3215 40.1069 20.9845 40.8931Z" fill="white" fill-opacity="0.2"/>
<path d="M5 31.5C4 29.5 3 26.5 3.5 23.5C4 26.5 5.67417 29.6742 6.99999 31C8.5 32.5 11 34 14.5 34C18 34 22.8475 31.2831 26 27.5C28.5 24.5 30 22.5 29.5 13C31.5 17.5 31.2143 21 31 22.5C30.4343 26.4598 27 32 24.5 34C21.187 36.6504 18.5 38.5 14 38C9.5 37.5 6.49999 34.5 5 31.5Z" fill="#546DDB"/>
<path d="M5 31.5C4 29.5 3 26.5 3.5 23.5C4 26.5 5.67417 29.6742 6.99999 31C8.5 32.5 11 34 14.5 34C18 34 22.8475 31.2831 26 27.5C28.5 24.5 30 22.5 29.5 13C31.5 17.5 31.2143 21 31 22.5C30.4343 26.4598 27 32 24.5 34C21.187 36.6504 18.5 38.5 14 38C9.5 37.5 6.49999 34.5 5 31.5Z" fill="white" fill-opacity="0.6"/>
<path d="M8.55377 21.6304C8.21247 20.4203 8.19411 18.319 8.62716 17.1258C8.63351 18.8661 9.04974 20.5544 9.55644 21.6121C9.973 22.4816 11.5251 23.8276 13.5304 23.7909C16.2564 23.741 19.0094 22.531 20.6041 20.284C21.9096 18.4447 23 17 22.5 14.5C23.1475 16 23.3525 16.5141 23 18.5C22.5997 20.7552 21.0269 22.4129 19.2545 23.8945C17.4821 25.376 14.7778 25.9701 12.5002 25.4985C10.0027 24.9813 9.02758 23.3104 8.55377 21.6304Z" fill="#546DDB"/>
<path d="M8.55377 21.6304C8.21247 20.4203 8.19411 18.319 8.62716 17.1258C8.63351 18.8661 9.04974 20.5544 9.55644 21.6121C9.973 22.4816 11.5251 23.8276 13.5304 23.7909C16.2564 23.741 19.0094 22.531 20.6041 20.284C21.9096 18.4447 23 17 22.5 14.5C23.1475 16 23.3525 16.5141 23 18.5C22.5997 20.7552 21.0269 22.4129 19.2545 23.8945C17.4821 25.376 14.7778 25.9701 12.5002 25.4985C10.0027 24.9813 9.02758 23.3104 8.55377 21.6304Z" fill="white" fill-opacity="0.6"/>
<path d="M35.5 7C32.3 5 30 4.5 26 4C31 6 33.5 8 36 10.5C38.9185 13.4185 40.7727 17.5 41.5 21.5C42.4091 26.5 41 30.5 37 38C39.5 35 40.5813 34.8375 42.5 31C44.4188 27.1625 45.3719 21.1156 44 17C43 14 39.5 9.5 35.5 7Z" fill="#546DDB"/>
<path d="M35.5 7C32.3 5 30 4.5 26 4C31 6 33.5 8 36 10.5C38.9185 13.4185 40.7727 17.5 41.5 21.5C42.4091 26.5 41 30.5 37 38C39.5 35 40.5813 34.8375 42.5 31C44.4188 27.1625 45.3719 21.1156 44 17C43 14 39.5 9.5 35.5 7Z" fill="white" fill-opacity="0.6"/>
<path d="M37.5 15.5C35.7204 12.2247 34.1984 10.9492 31 8.5C34.3284 12.6924 35.063 14.4039 35.9967 17.7338C37.0867 21.621 36.2394 26 35.1858 28.9169C33.8915 32.5 30.5594 36.7302 23.4652 40.8605C24.5258 40.3777 29.8982 38.2087 32.5 36.5C35.1018 34.7913 38.1994 30.9691 39 27C39.6005 24.0232 39.7244 19.5941 37.5 15.5Z" fill="#546DDB"/>
<path d="M37.5 15.5C35.7204 12.2247 34.1984 10.9492 31 8.5C34.3284 12.6924 35.063 14.4039 35.9967 17.7338C37.0867 21.621 36.2394 26 35.1858 28.9169C33.8915 32.5 30.5594 36.7302 23.4652 40.8605C24.5258 40.3777 29.8982 38.2087 32.5 36.5C35.1018 34.7913 38.1994 30.9691 39 27C39.6005 24.0232 39.7244 19.5941 37.5 15.5Z" fill="white" fill-opacity="0.6"/>
</svg>
