<svg width="50" height="50" viewBox="0 0 50 50" fill="none" xmlns="http://www.w3.org/2000/svg">
<path d="M43 13.3L21 15.3L19.5 30.3C19.8333 29.8 19.8 28.4 23 26.8C27 24.8 31 25.3 39 30.3C42.5671 32.5294 44 37.3 45 39.8V31.8H43.5C43.6667 30.6333 44.2 27.7 45 25.3C46 22.3 45.5 17.3 45 16.3C44.6 15.5 43.5 13.9667 43 13.3Z" fill="#546DDB"/>
<path d="M43 13.3L21 15.3L19.5 30.3C19.8333 29.8 19.8 28.4 23 26.8C27 24.8 31 25.3 39 30.3C42.5671 32.5294 44 37.3 45 39.8V31.8H43.5C43.6667 30.6333 44.2 27.7 45 25.3C46 22.3 45.5 17.3 45 16.3C44.6 15.5 43.5 13.9667 43 13.3Z" fill="black" fill-opacity="0.4"/>
<path d="M14.7749 14.2336C10.0815 15.227 7.20437 20.4147 8.34859 25.8206C9.49281 31.2266 14.3066 35.2934 19 34.3C22.3412 33.5928 22.5103 31.2979 23 28.3C23.3265 26.3015 23 21.3 23 21.3C22.0004 16.7999 19.4683 13.2402 14.7749 14.2336Z" fill="#546DDB"/>
<path d="M14.7749 14.2336C10.0815 15.227 7.20437 20.4147 8.34859 25.8206C9.49281 31.2266 14.3066 35.2934 19 34.3C22.3412 33.5928 22.5103 31.2979 23 28.3C23.3265 26.3015 23 21.3 23 21.3C22.0004 16.7999 19.4683 13.2402 14.7749 14.2336Z" fill="black" fill-opacity="0.4"/>
<path fill-rule="evenodd" clip-rule="evenodd" d="M44 10.8C41.6638 6.79995 38.4046 3.82668 33 1.79995C25 -1.20006 15.5532 -0.580311 9.55323 5.79994C8.06676 7.38061 7.04046 8.95313 6.38549 10.5837C5.07489 12.8765 4.26742 15.6462 3.99199 18.7349C3.45767 24.7271 4.62859 31.4789 9.32618 35.8013C14.0238 40.1237 18.2544 37.0722 20.5 34.7999C21.7025 33.5832 22.334 32.0925 22.5844 30.1257C22.6457 29.9244 22.7035 29.7205 22.758 29.5142C22.887 24.3187 21.7457 21.1729 19.4985 18.4151C18.7936 17.55 17.5485 16.8204 16.1937 16.6264C14.8655 16.4362 13.4809 16.7639 12.3921 17.9369C11.3931 19.0131 10.6842 20.9537 10.466 23.0382C10.2474 25.126 10.5439 27.1373 11.3202 28.3488C13.1948 31.2739 15.7482 30.6393 16.4611 29.9101C17.5811 28.7642 17.9762 26.7677 17.7711 25.0035C17.5918 23.4622 16.7293 22.6223 15.977 22.5928C15.6357 22.5794 15.2347 22.7576 14.8892 23.2318C14.5442 23.7054 14.2877 24.4436 14.2944 25.3955L12.7945 25.4081C12.7859 24.1922 13.1117 23.1257 13.6774 22.3493C14.2426 21.5735 15.0808 21.0564 16.0377 21.0939C17.8819 21.1661 19.0451 22.9728 19.2609 24.8283C19.4939 26.8313 19.093 29.3619 17.533 30.958C16.0996 32.4244 12.4158 32.8399 10.0571 29.1594C9.01918 27.5398 8.73903 25.1304 8.97423 22.8839C9.20978 20.6341 9.98509 18.3266 11.2934 16.917C12.7695 15.3269 14.6737 14.8931 16.4081 15.1414C18.1159 15.386 19.707 16.2949 20.6617 17.4666C21.6468 18.6755 22.433 19.9505 23.0166 21.3841C23.0111 21.3561 23.0056 21.328 23 21.3L25.6443 19.5371C27.9149 18.2696 31.6707 16.6414 37 15.8C41.5 15.3 44.9132 17.8 44.9132 17.8C45.5185 22.7632 44.4118 31.0407 42.2379 32.0725C40.87 33.2467 38.7637 32.4962 37.1536 31.6851C37.1536 31.6851 39.5021 34.4209 42.359 33.0651C43.4883 32.5291 44.1627 31.334 44.9132 29.2276C45.6636 27.1213 47.2122 16.2999 44 10.8Z" fill="#546DDB"/>
<path fill-rule="evenodd" clip-rule="evenodd" d="M44 10.8C41.6638 6.79995 38.4046 3.82668 33 1.79995C25 -1.20006 15.5532 -0.580311 9.55323 5.79994C8.06676 7.38061 7.04046 8.95313 6.38549 10.5837C5.07489 12.8765 4.26742 15.6462 3.99199 18.7349C3.45767 24.7271 4.62859 31.4789 9.32618 35.8013C14.0238 40.1237 18.2544 37.0722 20.5 34.7999C21.7025 33.5832 22.334 32.0925 22.5844 30.1257C22.6457 29.9244 22.7035 29.7205 22.758 29.5142C22.887 24.3187 21.7457 21.1729 19.4985 18.4151C18.7936 17.55 17.5485 16.8204 16.1937 16.6264C14.8655 16.4362 13.4809 16.7639 12.3921 17.9369C11.3931 19.0131 10.6842 20.9537 10.466 23.0382C10.2474 25.126 10.5439 27.1373 11.3202 28.3488C13.1948 31.2739 15.7482 30.6393 16.4611 29.9101C17.5811 28.7642 17.9762 26.7677 17.7711 25.0035C17.5918 23.4622 16.7293 22.6223 15.977 22.5928C15.6357 22.5794 15.2347 22.7576 14.8892 23.2318C14.5442 23.7054 14.2877 24.4436 14.2944 25.3955L12.7945 25.4081C12.7859 24.1922 13.1117 23.1257 13.6774 22.3493C14.2426 21.5735 15.0808 21.0564 16.0377 21.0939C17.8819 21.1661 19.0451 22.9728 19.2609 24.8283C19.4939 26.8313 19.093 29.3619 17.533 30.958C16.0996 32.4244 12.4158 32.8399 10.0571 29.1594C9.01918 27.5398 8.73903 25.1304 8.97423 22.8839C9.20978 20.6341 9.98509 18.3266 11.2934 16.917C12.7695 15.3269 14.6737 14.8931 16.4081 15.1414C18.1159 15.386 19.707 16.2949 20.6617 17.4666C21.6468 18.6755 22.433 19.9505 23.0166 21.3841C23.0111 21.3561 23.0056 21.328 23 21.3L25.6443 19.5371C27.9149 18.2696 31.6707 16.6414 37 15.8C41.5 15.3 44.9132 17.8 44.9132 17.8C45.5185 22.7632 44.4118 31.0407 42.2379 32.0725C40.87 33.2467 38.7637 32.4962 37.1536 31.6851C37.1536 31.6851 39.5021 34.4209 42.359 33.0651C43.4883 32.5291 44.1627 31.334 44.9132 29.2276C45.6636 27.1213 47.2122 16.2999 44 10.8Z" fill="white" fill-opacity="0.2"/>
<path fill-rule="evenodd" clip-rule="evenodd" d="M34.0875 33.1554C34.0875 33.1554 22.5 37.3 19 35.8L12.5 33.1554C13.8961 35.6566 22 46.8 22 46.8C24.6708 47.399 32.9959 48.7443 37.6936 49.5035C38.9057 49.6993 39.8763 49.8562 40.446 49.9511L45.1411 41.2381L45.1411 31.8L42.5 31.8L39 30.8L34.0875 33.1554ZM40 33.4926L41.3967 33.6741L41.4133 43.7641L40.6598 44.8759L40 33.4926ZM39.3947 45.5527L37.8433 34.1579L35.3131 35.5116L37.5505 45.2992L39.3947 45.5527ZM35.2622 45.1062L33.1596 36.3094L28.4085 37.9655L31.1296 44.6596L35.2622 45.1062ZM26.2551 38.7633L28.8413 44.4665L23.3762 44.2014L19.0807 39.2355L26.2551 38.7633ZM44 34.1578L42.5 33.8L42.2342 43.1477L43.6736 40.4286L44 34.1578Z" fill="#546DDB"/>
<path fill-rule="evenodd" clip-rule="evenodd" d="M34.0875 33.1554C34.0875 33.1554 22.5 37.3 19 35.8L12.5 33.1554C13.8961 35.6566 22 46.8 22 46.8C24.6708 47.399 32.9959 48.7443 37.6936 49.5035C38.9057 49.6993 39.8763 49.8562 40.446 49.9511L45.1411 41.2381L45.1411 31.8L42.5 31.8L39 30.8L34.0875 33.1554ZM40 33.4926L41.3967 33.6741L41.4133 43.7641L40.6598 44.8759L40 33.4926ZM39.3947 45.5527L37.8433 34.1579L35.3131 35.5116L37.5505 45.2992L39.3947 45.5527ZM35.2622 45.1062L33.1596 36.3094L28.4085 37.9655L31.1296 44.6596L35.2622 45.1062ZM26.2551 38.7633L28.8413 44.4665L23.3762 44.2014L19.0807 39.2355L26.2551 38.7633ZM44 34.1578L42.5 33.8L42.2342 43.1477L43.6736 40.4286L44 34.1578Z" fill="white" fill-opacity="0.2"/>
<path d="M6 16.8C5.7841 18.1181 5.5 20.3 6.5 24.8C6.5 20.8 7 18.8 8 16.3C9 13.8 10.4315 11.2629 12.5169 9.02527C15.0193 6.34009 18.6213 4.76027 22.6598 3.69935C26.6983 2.63844 30.4585 3.47045 33.7652 4.36963C30.7806 2.03397 28.8956 1.99067 27.0642 1.6584C25.6596 1.40356 21.9889 1.34831 18.8557 2.41101C14.7038 3.81928 11.6574 6.10787 9.47841 8.89215C7.29947 11.6764 6.39085 14.4138 6 16.8Z" fill="#546DDB"/>
<path d="M6 16.8C5.7841 18.1181 5.5 20.3 6.5 24.8C6.5 20.8 7 18.8 8 16.3C9 13.8 10.4315 11.2629 12.5169 9.02527C15.0193 6.34009 18.6213 4.76027 22.6598 3.69935C26.6983 2.63844 30.4585 3.47045 33.7652 4.36963C30.7806 2.03397 28.8956 1.99067 27.0642 1.6584C25.6596 1.40356 21.9889 1.34831 18.8557 2.41101C14.7038 3.81928 11.6574 6.10787 9.47841 8.89215C7.29947 11.6764 6.39085 14.4138 6 16.8Z" fill="white" fill-opacity="0.6"/>
</svg>
