<svg width="50" height="50" viewBox="0 0 50 50" fill="none" xmlns="http://www.w3.org/2000/svg">
<circle cx="24.8667" cy="24.9074" r="22.4167" stroke="#1D8CE0" stroke-width="0.996296"/>
<circle cx="24.8667" cy="24.9074" r="22.4167" stroke="white" stroke-opacity="0.95" stroke-width="0.996296"/>
<path d="M40.3092 31.8815C43.4974 24.3096 40.3092 15.4426 35.3278 10.9592C36.3241 15.4426 35.6267 22.1177 32.837 28.8926C30.0474 35.6674 23.7043 40.0179 20.8815 41.3463C26.3611 42.8407 37.1211 39.4533 40.3092 31.8815Z" fill="#FEFEFE" fill-opacity="0.15"/>
<path d="M26.6583 21.4464L17.0647 38.063" stroke="#FAA21E" stroke-width="1.42286"/>
<path d="M26.6583 21.4464L17.0647 38.063" stroke="white" stroke-opacity="0.4" stroke-width="1.42286"/>
<path d="M32.8094 16.1019C32.8094 16.1019 33.6773 11.0641 32.8027 10.5591C31.9282 10.0542 27.7468 13.762 27.7468 13.762C27.7468 13.762 22.9368 10.9849 22.3394 11.5146C21.7421 12.0443 23.9104 17.3774 23.9104 17.3774C23.9104 17.3774 19.8214 21.4301 20.3511 22.0275C20.8808 22.6249 25.8938 22.0208 25.8938 22.0208C25.8938 22.0208 28.4069 27.2615 29.4416 26.9843C30.4762 26.7072 31.689 21.5769 31.689 21.5769C31.689 21.5769 37.3917 20.7881 37.5518 20.006C37.7119 19.2238 32.8094 16.1019 32.8094 16.1019Z" fill="#FAA21E"/>
<path d="M23 35.65C25.0084 34.6565 25.6155 33.5529 26.1466 31C26.3871 33.3873 27.0065 34.4111 28.9786 35.65C26.9282 36.7753 26.4138 37.8708 26.1466 40.3C25.4955 37.8574 24.8675 36.7748 23 35.65Z" fill="#FAA21E"/>
<path d="M23 35.65C25.0084 34.6565 25.6155 33.5529 26.1466 31C26.3871 33.3873 27.0065 34.4111 28.9786 35.65C26.9282 36.7753 26.4138 37.8708 26.1466 40.3C25.4955 37.8574 24.8675 36.7748 23 35.65Z" fill="white" fill-opacity="0.6"/>
<path d="M33 27.65C35.0084 26.6565 35.6155 25.5529 36.1466 23C36.3871 25.3873 37.0065 26.4111 38.9786 27.65C36.9282 28.7753 36.4138 29.8708 36.1466 32.3C35.4955 29.8574 34.8675 28.7748 33 27.65Z" fill="#FAA21E"/>
<path d="M33 27.65C35.0084 26.6565 35.6155 25.5529 36.1466 23C36.3871 25.3873 37.0065 26.4111 38.9786 27.65C36.9282 28.7753 36.4138 29.8708 36.1466 32.3C35.4955 29.8574 34.8675 28.7748 33 27.65Z" fill="white" fill-opacity="0.6"/>
<path d="M9 23.2222C11.6874 21.8928 12.4998 20.416 13.2105 17C13.5323 20.1944 14.3612 21.5644 17 23.2222C14.2564 24.7281 13.5681 26.1939 13.2105 29.4444C12.3393 26.176 11.4989 24.7273 9 23.2222Z" fill="#FAA21E"/>
<path d="M9 23.2222C11.6874 21.8928 12.4998 20.416 13.2105 17C13.5323 20.1944 14.3612 21.5644 17 23.2222C14.2564 24.7281 13.5681 26.1939 13.2105 29.4444C12.3393 26.176 11.4989 24.7273 9 23.2222Z" fill="white" fill-opacity="0.6"/>
<path d="M14.4055 8.96672C11.5649 11.4682 10.4203 14.9445 10.4203 17.9334C10.906 15.874 14.0019 11.6997 16.8963 9.96301C19.3595 8.48505 21.3796 6.97413 24.8666 6.47598C21.3796 5.97783 17.2461 6.46529 14.4055 8.96672Z" fill="#FEFEFE"/>
<path d="M33.8333 39.8519C37.3203 37.8593 40.8073 32.8778 40.8073 29.889C40.0672 32.8778 36.1222 36.704 33.3351 38.3575C30.2833 40.168 24.3684 41.8445 20.8814 41.8445C24.3684 42.8408 29.8481 42.1292 33.8333 39.8519Z" fill="#FEFEFE"/>
</svg>
