<svg width="50" height="50" viewBox="0 0 50 50" fill="none" xmlns="http://www.w3.org/2000/svg">
<path d="M39 1.49996C44.0056 2.0166 47 11 46.5001 16.5C46.0001 22 44.9964 22.6406 44 25C42.632 28.239 42 31 41.5 33.5C40.4119 38.9407 39.846 45.1365 36.7866 47.5845C33.7272 50.0325 29.8036 49.2255 27.4682 45.668C25.1327 42.1105 27.4725 38.4816 28.5001 31C29.5276 23.5184 29.5001 21.5 29 17C28.4975 12.479 33.9944 0.983323 39 1.49996Z" fill="#7445B8"/>
<path d="M39 1.49996C44.0056 2.0166 47 11 46.5001 16.5C46.0001 22 44.9964 22.6406 44 25C42.632 28.239 42 31 41.5 33.5C40.4119 38.9407 39.846 45.1365 36.7866 47.5845C33.7272 50.0325 29.8036 49.2255 27.4682 45.668C25.1327 42.1105 27.4725 38.4816 28.5001 31C29.5276 23.5184 29.5001 21.5 29 17C28.4975 12.479 33.9944 0.983323 39 1.49996Z" fill="white" fill-opacity="0.6"/>
<path fill-rule="evenodd" clip-rule="evenodd" d="M36.8888 1.93606C37.5903 1.59038 38.2999 1.4277 39 1.49995C41.9018 1.79945 44.1277 4.94428 45.3887 8.60636L36.8888 1.93606ZM46.2242 11.8043C46.5275 13.464 46.6277 15.0956 46.5 16.5C46.4705 16.8246 46.4393 17.1323 46.4063 17.4245L32.5044 6.41839C33.3173 5.14274 34.2254 4.00019 35.1789 3.13647L46.2242 11.8043ZM31.4909 8.16694L46.0618 19.7026C45.6989 21.5137 45.2368 22.4704 44.7432 23.4449L29.9162 11.7758C30.3315 10.5843 30.8672 9.34969 31.4909 8.16694ZM29.3082 13.8424L43.8727 25.3049C43.2737 26.7587 42.8219 28.1158 42.4611 29.3964L29.1975 18.9578C29.1447 18.3456 29.0781 17.7031 28.9999 17C28.9056 16.1514 29.0227 15.057 29.3082 13.8424ZM29.335 21.6111L41.9219 31.5172C41.7657 32.1978 41.6285 32.8575 41.5 33.5C41.3542 34.2286 41.2179 34.9708 41.0837 35.7157L29.0838 26.2715C29.2752 24.3947 29.35 22.963 29.335 21.6111ZM28.8158 28.6058L40.6808 37.9438C40.385 39.5384 40.0654 41.0955 39.6494 42.5067L28.105 33.4211C28.2479 32.6606 28.3825 31.8555 28.5 31C28.6192 30.1326 28.7241 29.3387 28.8158 28.6058ZM27.6527 35.6102L38.9453 44.4977C38.3954 45.7821 37.7028 46.8514 36.7866 47.5845C36.7713 47.5967 36.7561 47.6088 36.7408 47.6208L26.7341 39.7454C26.8835 38.9455 27.0831 38.0856 27.3013 37.1456C27.4149 36.6564 27.5335 36.1455 27.6527 35.6102ZM26.4665 42.0799L34.8454 48.6742C32.2057 49.5938 29.3315 48.5063 27.4681 45.668C26.7155 44.5215 26.4484 43.3677 26.4665 42.0799Z" fill="#7445B8"/>
<path fill-rule="evenodd" clip-rule="evenodd" d="M36.8888 1.93606C37.5903 1.59038 38.2999 1.4277 39 1.49995C41.9018 1.79945 44.1277 4.94428 45.3887 8.60636L36.8888 1.93606ZM46.2242 11.8043C46.5275 13.464 46.6277 15.0956 46.5 16.5C46.4705 16.8246 46.4393 17.1323 46.4063 17.4245L32.5044 6.41839C33.3173 5.14274 34.2254 4.00019 35.1789 3.13647L46.2242 11.8043ZM31.4909 8.16694L46.0618 19.7026C45.6989 21.5137 45.2368 22.4704 44.7432 23.4449L29.9162 11.7758C30.3315 10.5843 30.8672 9.34969 31.4909 8.16694ZM29.3082 13.8424L43.8727 25.3049C43.2737 26.7587 42.8219 28.1158 42.4611 29.3964L29.1975 18.9578C29.1447 18.3456 29.0781 17.7031 28.9999 17C28.9056 16.1514 29.0227 15.057 29.3082 13.8424ZM29.335 21.6111L41.9219 31.5172C41.7657 32.1978 41.6285 32.8575 41.5 33.5C41.3542 34.2286 41.2179 34.9708 41.0837 35.7157L29.0838 26.2715C29.2752 24.3947 29.35 22.963 29.335 21.6111ZM28.8158 28.6058L40.6808 37.9438C40.385 39.5384 40.0654 41.0955 39.6494 42.5067L28.105 33.4211C28.2479 32.6606 28.3825 31.8555 28.5 31C28.6192 30.1326 28.7241 29.3387 28.8158 28.6058ZM27.6527 35.6102L38.9453 44.4977C38.3954 45.7821 37.7028 46.8514 36.7866 47.5845C36.7713 47.5967 36.7561 47.6088 36.7408 47.6208L26.7341 39.7454C26.8835 38.9455 27.0831 38.0856 27.3013 37.1456C27.4149 36.6564 27.5335 36.1455 27.6527 35.6102ZM26.4665 42.0799L34.8454 48.6742C32.2057 49.5938 29.3315 48.5063 27.4681 45.668C26.7155 44.5215 26.4484 43.3677 26.4665 42.0799Z" fill="white" fill-opacity="0.2"/>
<path d="M12.6638 1.22659C7.7042 1.22252 3.85266 9.72338 3.78179 15.1659C3.71092 20.6084 4.62947 21.3388 5.36566 23.7533C6.3763 27.0679 6.71425 29.8389 6.94942 32.3406C7.46119 37.7851 7.38398 43.9164 10.1334 46.6281C12.8828 49.3398 16.8113 48.949 19.4635 45.6998C22.1158 42.4506 20.1922 38.6547 19.948 31.2158C19.7037 23.7769 19.9366 21.8011 20.8858 17.4409C21.8394 13.0603 17.6234 1.23067 12.6638 1.22659Z" fill="#7445B8"/>
<path d="M12.6638 1.22659C7.7042 1.22252 3.85266 9.72338 3.78179 15.1659C3.71092 20.6084 4.62947 21.3388 5.36566 23.7533C6.3763 27.0679 6.71425 29.8389 6.94942 32.3406C7.46119 37.7851 7.38398 43.9164 10.1334 46.6281C12.8828 49.3398 16.8113 48.949 19.4635 45.6998C22.1158 42.4506 20.1922 38.6547 19.948 31.2158C19.7037 23.7769 19.9366 21.8011 20.8858 17.4409C21.8394 13.0603 17.6234 1.23067 12.6638 1.22659Z" fill="white" fill-opacity="0.6"/>
<path fill-rule="evenodd" clip-rule="evenodd" d="M14.6754 1.86093C14.0271 1.45582 13.3526 1.22716 12.6638 1.22659C9.79539 1.22423 7.29759 4.06681 5.68749 7.51723L14.6754 1.86093ZM4.52504 10.6119C4.06222 12.2009 3.79984 13.7822 3.78182 15.1659C3.77772 15.4809 3.77693 15.7801 3.77923 16.0648L18.5233 6.6976C17.8605 5.37442 17.0925 4.17078 16.2525 3.23149L4.52504 10.6119ZM19.3504 8.54163L3.88628 18.3662C4.05713 20.1602 4.40915 21.1415 4.79045 22.1394L20.517 12.2114C20.2327 11.0101 19.8366 9.75544 19.3504 8.54163ZM20.9077 14.33L5.46356 24.0796C5.89843 25.5544 6.20102 26.9211 6.42319 28.2046L20.4962 19.3206C20.6095 18.7316 20.7391 18.1147 20.8858 17.4409C21.0641 16.6222 21.0617 15.5433 20.9077 14.33ZM20.085 21.9453L6.74005 30.3698C6.82283 31.0473 6.88948 31.7027 6.94945 32.3406C7.01749 33.0645 7.07511 33.8004 7.13036 34.5389L19.8581 26.504C19.8622 24.6617 19.9343 23.2596 20.085 21.9453ZM19.883 28.8535L7.30053 36.7966C7.42721 38.3786 7.58089 39.9265 7.8421 41.3432L20.087 33.6132C20.0251 32.858 19.9757 32.0604 19.948 31.2158C19.9199 30.36 19.8981 29.5766 19.883 28.8535ZM20.3103 35.8374L8.33649 43.3963C8.74429 44.7053 9.31302 45.819 10.1334 46.6281C10.1436 46.6382 10.1538 46.6482 10.164 46.6581L20.7858 39.9527C20.7208 39.1579 20.6135 38.2998 20.4963 37.3625C20.4354 36.8762 20.372 36.3686 20.3103 35.8374ZM20.8098 42.3028L11.9408 47.9016C14.4312 49.0618 17.3519 48.2867 19.4636 45.6998C20.3142 44.6577 20.6941 43.5594 20.8098 42.3028Z" fill="#7445B8"/>
<path fill-rule="evenodd" clip-rule="evenodd" d="M14.6754 1.86093C14.0271 1.45582 13.3526 1.22716 12.6638 1.22659C9.79539 1.22423 7.29759 4.06681 5.68749 7.51723L14.6754 1.86093ZM4.52504 10.6119C4.06222 12.2009 3.79984 13.7822 3.78182 15.1659C3.77772 15.4809 3.77693 15.7801 3.77923 16.0648L18.5233 6.6976C17.8605 5.37442 17.0925 4.17078 16.2525 3.23149L4.52504 10.6119ZM19.3504 8.54163L3.88628 18.3662C4.05713 20.1602 4.40915 21.1415 4.79045 22.1394L20.517 12.2114C20.2327 11.0101 19.8366 9.75544 19.3504 8.54163ZM20.9077 14.33L5.46356 24.0796C5.89843 25.5544 6.20102 26.9211 6.42319 28.2046L20.4962 19.3206C20.6095 18.7316 20.7391 18.1147 20.8858 17.4409C21.0641 16.6222 21.0617 15.5433 20.9077 14.33ZM20.085 21.9453L6.74005 30.3698C6.82283 31.0473 6.88948 31.7027 6.94945 32.3406C7.01749 33.0645 7.07511 33.8004 7.13036 34.5389L19.8581 26.504C19.8622 24.6617 19.9343 23.2596 20.085 21.9453ZM19.883 28.8535L7.30053 36.7966C7.42721 38.3786 7.58089 39.9265 7.8421 41.3432L20.087 33.6132C20.0251 32.858 19.9757 32.0604 19.948 31.2158C19.9199 30.36 19.8981 29.5766 19.883 28.8535ZM20.3103 35.8374L8.33649 43.3963C8.74429 44.7053 9.31302 45.819 10.1334 46.6281C10.1436 46.6382 10.1538 46.6482 10.164 46.6581L20.7858 39.9527C20.7208 39.1579 20.6135 38.2998 20.4963 37.3625C20.4354 36.8762 20.372 36.3686 20.3103 35.8374ZM20.8098 42.3028L11.9408 47.9016C14.4312 49.0618 17.3519 48.2867 19.4636 45.6998C20.3142 44.6577 20.6941 43.5594 20.8098 42.3028Z" fill="white" fill-opacity="0.2"/>
</svg>
