<svg width="50" height="50" viewBox="0 0 50 50" fill="none" xmlns="http://www.w3.org/2000/svg">
<path fill-rule="evenodd" clip-rule="evenodd" d="M30.7912 30.8H27.221C26.5751 30.8 24.6192 31.019 22.1355 31.2972C16.9655 31.8762 9.50856 32.7113 6.81959 32.36C3.95627 31.986 2.75365 29.3527 1.93735 27.5653C1.84575 27.3648 1.75902 27.1749 1.67535 27L1.67529 23C0.980624 23.6947 9.11381e-05 26.3218 0 28.698C0 28.6982 0 28.6984 0 28.6987C4.00444e-05 29.7426 0.189368 30.7381 0.675386 31.5C2.66577 34.62 7.67539 36 11.298 36C13.9914 36 16.496 35.6525 19.0943 35.2921C21.3307 34.9818 23.6365 34.6619 26.1918 34.5457C28.0039 33.5069 29.6601 32.3515 30.7912 30.8Z" fill="#7445B8"/>
<path fill-rule="evenodd" clip-rule="evenodd" d="M30.7912 30.8H27.221C26.5751 30.8 24.6192 31.019 22.1355 31.2972C16.9655 31.8762 9.50856 32.7113 6.81959 32.36C3.95627 31.986 2.75365 29.3527 1.93735 27.5653C1.84575 27.3648 1.75902 27.1749 1.67535 27L1.67529 23C0.980624 23.6947 9.11381e-05 26.3218 0 28.698C0 28.6982 0 28.6984 0 28.6987C4.00444e-05 29.7426 0.189368 30.7381 0.675386 31.5C2.66577 34.62 7.67539 36 11.298 36C13.9914 36 16.496 35.6525 19.0943 35.2921C21.3307 34.9818 23.6365 34.6619 26.1918 34.5457C28.0039 33.5069 29.6601 32.3515 30.7912 30.8Z" fill="white" fill-opacity="0.6"/>
<path fill-rule="evenodd" clip-rule="evenodd" d="M34.3146 14.6644L36.6753 0.5C34.842 1.5 30.9753 3.6 28.1753 4C25.3753 4.4 21.1753 3.83333 20.1753 3.5L26.6753 24.5H30.6196C30.3389 22.6844 29.9636 20.8575 29.6282 19.2255C29.0211 16.2708 28.5452 13.9548 29 13.5C29.4835 13.0165 30.9083 13.507 32.7002 14.1238C33.2128 14.3003 33.7554 14.4871 34.3146 14.6644Z" fill="#7445B8"/>
<path fill-rule="evenodd" clip-rule="evenodd" d="M34.3146 14.6644L36.6753 0.5C34.842 1.5 30.9753 3.6 28.1753 4C25.3753 4.4 21.1753 3.83333 20.1753 3.5L26.6753 24.5H30.6196C30.3389 22.6844 29.9636 20.8575 29.6282 19.2255C29.0211 16.2708 28.5452 13.9548 29 13.5C29.4835 13.0165 30.9083 13.507 32.7002 14.1238C33.2128 14.3003 33.7554 14.4871 34.3146 14.6644Z" fill="black" fill-opacity="0.2"/>
<path fill-rule="evenodd" clip-rule="evenodd" d="M35.4312 14.995C35.7367 10.6984 36.7802 3.53045 37.3451 0C33.807 0.530458 32.399 7.39209 31.4986 13.7188C31.8735 13.8393 32.2766 13.978 32.7002 14.1238C33.5486 14.4159 34.4792 14.7363 35.4312 14.995ZM30.2469 22.3341C29.9577 23.6776 29.6242 24.5 29.1753 24.5C28.2585 24.5 27.6043 21.5085 26.7836 17.7553C25.4559 11.6834 23.6923 3.618 19.6753 3C19.8087 3.73396 19.96 4.52135 20.1172 5.33958C21.1378 10.6529 22.4084 17.2669 20.6753 19C16.6753 23 9.67526 27.5 6.17531 27.5C3.13393 27.5 1.17533 25.5 1.84509 22.5C0.17527 25 0.175287 29.4133 2.67531 31.1885C4.53285 32.5075 7.22113 33.5 11.3451 33.5C13.7838 33.5 16.7982 33.1128 19.764 32.7318C22.6356 32.363 25.4616 32 27.6753 32C28.6362 32 29.1539 32.0739 29.5691 32.1648C30.1119 31.6595 30.5956 31.1097 31 30.5C31.1971 28.1343 30.7724 25.1466 30.2469 22.3341Z" fill="#7445B8"/>
<path fill-rule="evenodd" clip-rule="evenodd" d="M35.4312 14.995C35.7367 10.6984 36.7802 3.53045 37.3451 0C33.807 0.530458 32.399 7.39209 31.4986 13.7188C31.8735 13.8393 32.2766 13.978 32.7002 14.1238C33.5486 14.4159 34.4792 14.7363 35.4312 14.995ZM30.2469 22.3341C29.9577 23.6776 29.6242 24.5 29.1753 24.5C28.2585 24.5 27.6043 21.5085 26.7836 17.7553C25.4559 11.6834 23.6923 3.618 19.6753 3C19.8087 3.73396 19.96 4.52135 20.1172 5.33958C21.1378 10.6529 22.4084 17.2669 20.6753 19C16.6753 23 9.67526 27.5 6.17531 27.5C3.13393 27.5 1.17533 25.5 1.84509 22.5C0.17527 25 0.175287 29.4133 2.67531 31.1885C4.53285 32.5075 7.22113 33.5 11.3451 33.5C13.7838 33.5 16.7982 33.1128 19.764 32.7318C22.6356 32.363 25.4616 32 27.6753 32C28.6362 32 29.1539 32.0739 29.5691 32.1648C30.1119 31.6595 30.5956 31.1097 31 30.5C31.1971 28.1343 30.7724 25.1466 30.2469 22.3341Z" fill="white" fill-opacity="0.2"/>
<path fill-rule="evenodd" clip-rule="evenodd" d="M31.9253 13.8592L32.4954 13.3841C32.6285 13.2732 32.6947 13.1012 32.6703 12.9297C32.646 12.7581 32.5345 12.6114 32.3757 12.5419L29.6408 11.3454L32.971 8.90321C33.1198 8.7941 33.1964 8.61191 33.1703 8.42925C33.1442 8.2466 33.0196 8.09317 32.8462 8.03011L29.4781 6.80536L34.9385 3.42514C35.1733 3.27979 35.2458 2.97162 35.1004 2.73683C34.9551 2.50204 34.6469 2.42953 34.4121 2.57488L28.2813 6.37015L21.8462 4.03011C21.5867 3.93574 21.2998 4.06962 21.2054 4.32914C21.111 4.58865 21.2449 4.87554 21.5044 4.9699L27.1985 7.04047L23.9121 9.07487C23.7541 9.17269 23.6634 9.35008 23.6766 9.53545C23.6897 9.72083 23.8046 9.8836 23.9749 9.95809L27.6494 11.5657L24.8796 13.5968C24.7369 13.7015 24.6601 13.8739 24.6778 14.05C24.6955 14.2262 24.805 14.3798 24.9658 14.454L27.9801 15.8452L25.8552 17.6159C25.7308 17.7196 25.6643 17.8771 25.6768 18.0385C25.6893 18.2 25.7792 18.3454 25.9181 18.4288L27.9715 19.6608L26.3408 21.1284C26.2261 21.2317 26.1654 21.3822 26.1766 21.5362C26.1878 21.6902 26.2695 21.8304 26.398 21.916L28.2905 23.1777L26.8218 24.6465C26.6265 24.8417 26.6265 25.1583 26.8218 25.3536C27.017 25.5488 27.3336 25.5488 27.5289 25.3536L29.139 23.7434L30.6586 24.7565C30.5915 24.3077 30.5181 23.8576 30.4406 23.4093L29.8601 23.0223L30.294 22.5884C30.2205 22.1885 30.1447 21.7918 30.0679 21.4003L29.0116 22.4566L27.4882 21.441L28.8684 20.1989L29.9597 20.8537C29.8692 20.4011 29.7785 19.9572 29.6899 19.5257L29.6458 19.4992L29.6784 19.4699C29.6616 19.388 29.6449 19.3065 29.6282 19.2255C29.5657 18.9211 29.5045 18.6235 29.4457 18.334L28.7489 18.9611L27.0362 17.9334L28.9853 16.3092L29.0617 16.3444C28.9812 15.8847 28.9168 15.4667 28.8747 15.0997L28.8306 15.1364L26.1551 13.9015L28.7085 12.029L31.2337 13.1338L30.7879 13.5053C31.1342 13.5998 31.5161 13.7219 31.9253 13.8592ZM25.2484 9.42374L28.3953 7.47568L31.6251 8.65014L28.5816 10.882L25.2484 9.42374Z" fill="#7445B8"/>
<path fill-rule="evenodd" clip-rule="evenodd" d="M31.9253 13.8592L32.4954 13.3841C32.6285 13.2732 32.6947 13.1012 32.6703 12.9297C32.646 12.7581 32.5345 12.6114 32.3757 12.5419L29.6408 11.3454L32.971 8.90321C33.1198 8.7941 33.1964 8.61191 33.1703 8.42925C33.1442 8.2466 33.0196 8.09317 32.8462 8.03011L29.4781 6.80536L34.9385 3.42514C35.1733 3.27979 35.2458 2.97162 35.1004 2.73683C34.9551 2.50204 34.6469 2.42953 34.4121 2.57488L28.2813 6.37015L21.8462 4.03011C21.5867 3.93574 21.2998 4.06962 21.2054 4.32914C21.111 4.58865 21.2449 4.87554 21.5044 4.9699L27.1985 7.04047L23.9121 9.07487C23.7541 9.17269 23.6634 9.35008 23.6766 9.53545C23.6897 9.72083 23.8046 9.8836 23.9749 9.95809L27.6494 11.5657L24.8796 13.5968C24.7369 13.7015 24.6601 13.8739 24.6778 14.05C24.6955 14.2262 24.805 14.3798 24.9658 14.454L27.9801 15.8452L25.8552 17.6159C25.7308 17.7196 25.6643 17.8771 25.6768 18.0385C25.6893 18.2 25.7792 18.3454 25.9181 18.4288L27.9715 19.6608L26.3408 21.1284C26.2261 21.2317 26.1654 21.3822 26.1766 21.5362C26.1878 21.6902 26.2695 21.8304 26.398 21.916L28.2905 23.1777L26.8218 24.6465C26.6265 24.8417 26.6265 25.1583 26.8218 25.3536C27.017 25.5488 27.3336 25.5488 27.5289 25.3536L29.139 23.7434L30.6586 24.7565C30.5915 24.3077 30.5181 23.8576 30.4406 23.4093L29.8601 23.0223L30.294 22.5884C30.2205 22.1885 30.1447 21.7918 30.0679 21.4003L29.0116 22.4566L27.4882 21.441L28.8684 20.1989L29.9597 20.8537C29.8692 20.4011 29.7785 19.9572 29.6899 19.5257L29.6458 19.4992L29.6784 19.4699C29.6616 19.388 29.6449 19.3065 29.6282 19.2255C29.5657 18.9211 29.5045 18.6235 29.4457 18.334L28.7489 18.9611L27.0362 17.9334L28.9853 16.3092L29.0617 16.3444C28.9812 15.8847 28.9168 15.4667 28.8747 15.0997L28.8306 15.1364L26.1551 13.9015L28.7085 12.029L31.2337 13.1338L30.7879 13.5053C31.1342 13.5998 31.5161 13.7219 31.9253 13.8592ZM25.2484 9.42374L28.3953 7.47568L31.6251 8.65014L28.5816 10.882L25.2484 9.42374Z" fill="white" fill-opacity="0.6"/>
<path d="M19.1443 46.36C15.9597 45.944 14.3293 41.7333 13.5 40L14 37C13.0001 38 11.4078 43.004 13.0001 45.5C14.9905 48.62 20.0001 50 23.6227 50C29.2188 50 34 48.5 40.5001 48.5C41.9929 48.5 42.0144 49 45 49C47.3885 49 49.0024 48.02 49.5 47.5V44.8H39.5457C37.5553 44.8 23.1251 46.88 19.1443 46.36Z" fill="#7445B8"/>
<path d="M19.1443 46.36C15.9597 45.944 14.3293 41.7333 13.5 40L14 37C13.0001 38 11.4078 43.004 13.0001 45.5C14.9905 48.62 20.0001 50 23.6227 50C29.2188 50 34 48.5 40.5001 48.5C41.9929 48.5 42.0144 49 45 49C47.3885 49 49.0024 48.02 49.5 47.5V44.8H39.5457C37.5553 44.8 23.1251 46.88 19.1443 46.36Z" fill="white" fill-opacity="0.6"/>
<path d="M40.5 18C37.7 18.4 33.5 17.8333 32.5 17.5L39 38.5H45L49 14.5C47.1667 15.5 43.3 17.6 40.5 18Z" fill="#7445B8"/>
<path d="M40.5 18C37.7 18.4 33.5 17.8333 32.5 17.5L39 38.5H45L49 14.5C47.1667 15.5 43.3 17.6 40.5 18Z" fill="black" fill-opacity="0.2"/>
<path d="M41.5 38.5C39.1 38.5 38.5 18 32 17C33 22.5 35 31 33 33C29 37 22 41.5 18.5 41.5C15.4587 41.5 13.3302 40 14 37C12.3302 39.5 12.5 43.4133 15 45.1885C16.8576 46.5075 19.5459 47.5 23.6698 47.5C28.4698 47.5 35.5 46 40 46C42.5 46 42 46.5 44.5 46.5C47.7 46.5 48.8334 45.8333 49.5 45C48.8334 42.1667 47.6698 34.6 47.6698 31C47.6698 27.4 49.0031 18.1667 49.6698 14C43 15 43.9 38.5 41.5 38.5Z" fill="#7445B8"/>
<path d="M41.5 38.5C39.1 38.5 38.5 18 32 17C33 22.5 35 31 33 33C29 37 22 41.5 18.5 41.5C15.4587 41.5 13.3302 40 14 37C12.3302 39.5 12.5 43.4133 15 45.1885C16.8576 46.5075 19.5459 47.5 23.6698 47.5C28.4698 47.5 35.5 46 40 46C42.5 46 42 46.5 44.5 46.5C47.7 46.5 48.8334 45.8333 49.5 45C48.8334 42.1667 47.6698 34.6 47.6698 31C47.6698 27.4 49.0031 18.1667 49.6698 14C43 15 43.9 38.5 41.5 38.5Z" fill="white" fill-opacity="0.2"/>
<path d="M47 17L36.5 23.5L44.5 27L38.5 32L43.5 35L39.5 39M34 18.5L45 22.5L37.5 28L44 31L39 35.5L43.5 38.5" stroke="#7445B8" stroke-linecap="round" stroke-linejoin="round"/>
<path d="M47 17L36.5 23.5L44.5 27L38.5 32L43.5 35L39.5 39M34 18.5L45 22.5L37.5 28L44 31L39 35.5L43.5 38.5" stroke="white" stroke-opacity="0.6" stroke-linecap="round" stroke-linejoin="round"/>
</svg>
