<svg width="50" height="50" viewBox="0 0 50 50" fill="none" xmlns="http://www.w3.org/2000/svg">
<path d="M16.2265 12.5C18.5342 10.1923 21.034 7.69231 21.9958 0C26.8033 8.65384 32.2531 11.2189 34.4957 13.4615C37.3804 16.3461 43.1496 20.6731 43.1496 30.7692C43.1496 39.4763 37.3804 50 24.8804 50C14.3034 50 6.72811 41.3898 6.72852 30.7692C6.72888 21.1538 13.3419 15.3846 16.2265 12.5Z" fill="#2FC4A7" fill-opacity="0.4"/>
<path d="M18.4105 16.6192C20.1397 14.89 22.0129 13.0166 22.7336 7.25244C26.3361 13.7371 30.4198 15.6592 32.1004 17.3397C34.2619 19.5013 38.585 22.7436 38.585 30.3091C38.585 36.8337 34.2619 44.7195 24.8952 44.7195C16.9694 44.7195 11.2929 38.2675 11.2932 30.3091C11.2935 23.1039 16.2489 18.7808 18.4105 16.6192Z" fill="#2FC4A7" fill-opacity="0.4"/>
<path d="M20.4556 20.9423C21.6528 19.7452 22.9497 18.4482 23.4486 14.4576C25.9426 18.947 28.7698 20.2777 29.9333 21.4412C31.4297 22.9376 34.4227 25.1823 34.4227 30.4199C34.4227 34.937 31.4297 40.3964 24.945 40.3964C19.458 40.3964 15.5281 35.9296 15.5283 30.4199C15.5285 25.4317 18.9592 22.4388 20.4556 20.9423Z" fill="#2FC4A7" fill-opacity="0.5"/>
<path d="M22.9213 26.6963C23.4423 26.1753 24.0068 25.6109 24.2239 23.8741C25.3093 25.8279 26.5398 26.4071 27.0461 26.9134C27.6974 27.5647 29 28.5416 29 30.8212C29 32.787 27.6974 35.1631 24.8752 35.1631C22.4871 35.1631 20.7768 33.2191 20.7769 30.8212C20.7769 28.6502 22.27 27.3476 22.9213 26.6963Z" fill="#2FC4A7"/>
<path d="M22.9213 26.6963C23.4423 26.1753 24.0068 25.6109 24.2239 23.8741C25.3093 25.8279 26.5398 26.4071 27.0461 26.9134C27.6974 27.5647 29 28.5416 29 30.8212C29 32.787 27.6974 35.1631 24.8752 35.1631C22.4871 35.1631 20.7768 33.2191 20.7769 30.8212C20.7769 28.6502 22.27 27.3476 22.9213 26.6963Z" fill="white" fill-opacity="0.6"/>
</svg>
