<svg width="50" height="50" viewBox="0 0 50 50" fill="none" xmlns="http://www.w3.org/2000/svg">
<g clip-path="url(#clip0_3614_29888)">
<path d="M12.5102 38.449L39.5 11.5L38.5 10.5L11.551 37.4898L12.5102 38.449Z" fill="#2FC4A7"/>
<path d="M48.7896 4.20731C48.7066 3.20461 48.6167 2.11839 49.9233 0.117253C47.0679 1.19497 45.2748 0.712399 44.3004 0.793069C43.047 0.896829 40.8277 0.765068 38.8159 3.14004C37.0808 5.18826 36.341 8.81341 39.2814 11.3042C41.7695 13.4118 45.2672 12.8959 47.3834 10.3975C49.2993 8.13555 48.8933 5.46067 48.7896 4.20731Z" fill="#2FC4A7" fill-opacity="0.4"/>
<path d="M47.4554 4.74117C47.3932 3.98981 47.3258 3.17586 48.3049 1.67632C46.1653 2.4839 44.8217 2.12229 44.0915 2.18274C43.1523 2.26049 41.4892 2.16176 39.9817 3.94142C38.6816 5.47624 38.1271 8.19272 40.3305 10.0592C42.195 11.6385 44.8159 11.2519 46.4017 9.37974C47.8374 7.68477 47.5331 5.68037 47.4554 4.74117Z" fill="#2FC4A7" fill-opacity="0.4"/>
<path d="M46.1125 5.35065C46.0694 4.83048 46.0228 4.26698 46.7006 3.22883C45.2193 3.78793 44.2891 3.53758 43.7836 3.57943C43.1334 3.63326 41.982 3.5649 40.9384 4.79698C40.0383 5.85955 39.6544 7.74018 41.1799 9.03236C42.4706 10.1257 44.2851 9.85808 45.383 8.56197C46.3769 7.38853 46.1663 6.00087 46.1125 5.35065Z" fill="#2FC4A7" fill-opacity="0.5"/>
<path d="M44.3863 6.21265C44.3676 5.98626 44.3473 5.74102 44.6423 5.2892C43.9976 5.53253 43.5927 5.42357 43.3727 5.44179C43.0897 5.46521 42.5887 5.43546 42.1344 5.97168C41.7427 6.43413 41.5757 7.25262 42.2395 7.81499C42.8013 8.29085 43.591 8.17436 44.0688 7.61027C44.5014 7.09957 44.4097 6.49564 44.3863 6.21265Z" fill="#2FC4A7"/>
<path d="M44.3863 6.21265C44.3676 5.98626 44.3473 5.74102 44.6423 5.2892C43.9976 5.53253 43.5927 5.42357 43.3727 5.44179C43.0897 5.46521 42.5887 5.43546 42.1344 5.97168C41.7427 6.43413 41.5757 7.25262 42.2395 7.81499C42.8013 8.29085 43.591 8.17436 44.0688 7.61027C44.5014 7.09957 44.4097 6.49564 44.3863 6.21265Z" fill="white" fill-opacity="0.6"/>
<path d="M37.449 9.67336L34.5714 8.71417L10.5918 32.6938L1 46.1223L3.87755 48.9999L17.3061 39.408L41.2857 15.4285L40.3265 12.5509L13.949 38.9285C12.9898 39.8876 11.8388 39.6958 11.0714 38.9285C10.3041 38.1611 10.1122 37.0101 11.0714 36.0509L37.449 9.67336Z" fill="#898989"/>
<path d="M37.449 9.67336L34.5714 8.71417L10.5918 32.6938L1 46.1223L3.87755 48.9999L17.3061 39.408L41.2857 15.4285L40.3265 12.5509L13.949 38.9285C12.9898 39.8876 11.8388 39.6958 11.0714 38.9285C10.3041 38.1611 10.1122 37.0101 11.0714 36.0509L37.449 9.67336Z" fill="black" fill-opacity="0.2"/>
<path d="M12.5101 4.7261C9.82438 4.36262 5.95567 2.75725 4.35703 2L3.87744 3.8174C5.95567 5.18045 10.5917 7.90655 12.5101 7.90655C14.9081 7.90655 23.0611 7.4522 25.9387 7.90655C28.2407 8.27003 29.9353 9.8754 30.7346 10.6327L33.6121 7.90655L27.3774 4.7261C24.0203 3.8174 15.8672 5.18045 12.5101 4.7261Z" fill="#898989"/>
<path d="M12.5101 4.7261C9.82438 4.36262 5.95567 2.75725 4.35703 2L3.87744 3.8174C5.95567 5.18045 10.5917 7.90655 12.5101 7.90655C14.9081 7.90655 23.0611 7.4522 25.9387 7.90655C28.2407 8.27003 29.9353 9.8754 30.7346 10.6327L33.6121 7.90655L27.3774 4.7261C24.0203 3.8174 15.8672 5.18045 12.5101 4.7261Z" fill="black" fill-opacity="0.2"/>
<path d="M45.2739 36.809C45.6374 39.408 47.2427 43.1365 48 44.6836L46.0816 45.1631C44.7186 43.152 42.0934 38.6655 42.0934 36.809C42.0934 34.4884 42.5478 26.5983 42.0934 23.8136C41.73 21.5858 40.1246 20.0387 39.3673 19.2652L42.2449 16.3876L45.2739 22.4212C46.1826 25.6701 44.8195 33.5601 45.2739 36.809Z" fill="#898989"/>
<path d="M45.2739 36.809C45.6374 39.408 47.2427 43.1365 48 44.6836L46.0816 45.1631C44.7186 43.152 42.0934 38.6655 42.0934 36.809C42.0934 34.4884 42.5478 26.5983 42.0934 23.8136C41.73 21.5858 40.1246 20.0387 39.3673 19.2652L42.2449 16.3876L45.2739 22.4212C46.1826 25.6701 44.8195 33.5601 45.2739 36.809Z" fill="black" fill-opacity="0.2"/>
<path d="M4.35718 5.35718L10.5919 31.7347M18.2653 39.4082L44.6429 44.6837" stroke="#898989" stroke-width="0.959184"/>
<path d="M4.35718 5.35718L10.5919 31.7347M18.2653 39.4082L44.6429 44.6837" stroke="white" stroke-opacity="0.4" stroke-width="0.959184"/>
</g>
<defs>
<clipPath id="clip0_3614_29888">
<rect width="50" height="50" fill="white"/>
</clipPath>
</defs>
</svg>
