<svg width="50" height="50" viewBox="0 0 50 50" fill="none" xmlns="http://www.w3.org/2000/svg">
<circle cx="25.6455" cy="27.2142" r="18.7858" fill="#1D8CE0"/>
<circle cx="25.6455" cy="27.2142" r="18.7858" fill="white" fill-opacity="0.2"/>
<path d="M7.72139 21.6992C9.78952 15.3223 14.6153 11.5307 18.2345 9.97966C20.1304 9.11783 23.604 7.84748 28.5754 8.60076C33.1253 9.29018 36.848 11.8753 37.8821 12.9094C34.7798 12.3924 30.6435 12.3925 26.6795 13.4265C21.9627 14.657 17.5452 18.2522 17.5452 22.3886C17.5452 29.1101 22.1985 27.2143 23.922 31.5229C25.5222 35.5234 23.0602 36.8657 23.4049 38.7615C23.7496 40.6573 30.1264 38.7615 30.1264 42.5531C30.1264 44.9659 26.6795 46.6894 22.1985 45.6553C16.5659 44.3555 12.7195 41.3467 10.1343 37.8997C7.54907 34.4528 5.76509 27.7312 7.72139 21.6992Z" fill="#1D8CE0"/>
<path d="M7.72139 21.6992C9.78952 15.3223 14.6153 11.5307 18.2345 9.97966C20.1304 9.11783 23.604 7.84748 28.5754 8.60076C33.1253 9.29018 36.848 11.8753 37.8821 12.9094C34.7798 12.3924 30.6435 12.3925 26.6795 13.4265C21.9627 14.657 17.5452 18.2522 17.5452 22.3886C17.5452 29.1101 22.1985 27.2143 23.922 31.5229C25.5222 35.5234 23.0602 36.8657 23.4049 38.7615C23.7496 40.6573 30.1264 38.7615 30.1264 42.5531C30.1264 44.9659 26.6795 46.6894 22.1985 45.6553C16.5659 44.3555 12.7195 41.3467 10.1343 37.8997C7.54907 34.4528 5.76509 27.7312 7.72139 21.6992Z" fill="black" fill-opacity="0.2"/>
<path d="M36.0753 38.3968C38.7101 37.3086 40.2387 32.3356 39.1685 30.9507C38.0983 29.5659 35.6164 30.852 33.9888 32.4257C32.7178 33.6546 31.1292 35.2675 31.7588 37.3088C32.3096 39.095 33.4405 39.485 36.0753 38.3968Z" fill="#1D8CE0"/>
<path d="M36.0753 38.3968C38.7101 37.3086 40.2387 32.3356 39.1685 30.9507C38.0983 29.5659 35.6164 30.852 33.9888 32.4257C32.7178 33.6546 31.1292 35.2675 31.7588 37.3088C32.3096 39.095 33.4405 39.485 36.0753 38.3968Z" fill="black" fill-opacity="0.2"/>
<path d="M7.5756 21.6115C5.5 21 1.31862 21.5592 1.02644 23.6796C0.5 27.5 13.263 30.5735 24.6379 32.6416C36.0128 34.7098 48.1721 35.4999 48.5941 32.1246C48.7879 30.5735 47.5 29.4999 44.4313 28.4548" stroke="#FAA21E" stroke-width="2"/>
<path d="M7.5756 21.6115C5.5 21 1.31862 21.5592 1.02644 23.6796C0.5 27.5 13.263 30.5735 24.6379 32.6416C36.0128 34.7098 48.1721 35.4999 48.5941 32.1246C48.7879 30.5735 47.5 29.4999 44.4313 28.4548" stroke="white" stroke-opacity="0.95" stroke-width="2"/>
<path d="M34.5312 6.03034C29.7089 8.38602 28.1979 13.0237 28 15.5053C30.9688 16.6332 35.7188 18.2124 40.4688 15.5053C45.2188 12.7981 47 8.73746 47 4C43.4375 5.35356 38.6875 4.00004 34.5312 6.03034Z" fill="#2FC4A7"/>
<path d="M34.5312 6.03034C29.7089 8.38602 28.1979 13.0237 28 15.5053C30.9688 16.6332 35.7188 18.2124 40.4688 15.5053C45.2188 12.7981 47 8.73746 47 4C43.4375 5.35356 38.6875 4.00004 34.5312 6.03034Z" fill="white" fill-opacity="0.2"/>
</svg>
