<svg width="50" height="51" viewBox="0 0 50 51" fill="none" xmlns="http://www.w3.org/2000/svg">
<path d="M24.974 2.4859L2 10.4886L24.974 18.5356L48 10.4885L24.974 2.4859Z" fill="#1D8CE0"/>
<path d="M24.974 2.4859L2 10.4886L24.974 18.5356L48 10.4885L24.974 2.4859Z" fill="black" fill-opacity="0.2"/>
<ellipse cx="13.5" cy="10" rx="1.5" ry="1" fill="#FEFEFE"/>
<circle cx="22" cy="8" r="1" fill="#FAA21E"/>
<circle cx="22" cy="8" r="1" fill="white" fill-opacity="0.2"/>
<circle cx="21" cy="14" r="1" fill="#FEFEFE"/>
<circle cx="30.5" cy="12.5" r="1.5" fill="#FAA21E"/>
<circle cx="30.5" cy="12.5" r="1.5" fill="white" fill-opacity="0.4"/>
<circle cx="37" cy="10" r="1" fill="#FEFEFE"/>
<path d="M25 26.4941L1.99998 18.4914L1.99999 23.4931L25.0015 31.4958L48 23.4931L48 18.4914L25 26.4941Z" fill="#1D8CE0"/>
<path d="M25 26.4941L1.99998 18.4914L1.99999 23.4931L25.0015 31.4958L48 23.4931L48 18.4914L25 26.4941Z" fill="black" fill-opacity="0.2"/>
<path d="M25 18.4916L1.99992 10.4888L1.99995 12.4896L25 20.4922L47.9999 12.4896L47.9999 10.4889L25 18.4916Z" fill="#1D8CE0"/>
<path d="M25 18.4916L1.99992 10.4888L1.99995 12.4896L25 20.4922L47.9999 12.4896L47.9999 10.4889L25 18.4916Z" fill="black" fill-opacity="0.2"/>
<path d="M25.0001 37.4976L2.00006 29.4951L2.00005 34.4966L25.0001 42.4992L48.0001 34.4966L48.0001 29.4949L25.0001 37.4976Z" fill="#1D8CE0"/>
<path d="M25.0001 37.4976L2.00006 29.4951L2.00005 34.4966L25.0001 42.4992L48.0001 34.4966L48.0001 29.4949L25.0001 37.4976Z" fill="black" fill-opacity="0.2"/>
<path d="M25 31.4956L1.99996 23.4931L1.99996 29.4949L25 37.4976L48 29.4949L48 23.493L25 31.4956Z" fill="#FAA21E"/>
<path d="M25 31.4956L1.99996 23.4931L1.99996 29.4949L25 37.4976L48 29.4949L48 23.493L25 31.4956Z" fill="white" fill-opacity="0.6"/>
<path d="M25 42.4995L2.00002 34.4967L2.00002 40.4988L25 48.5015L48 40.4988L48 34.4968L25 42.4995Z" fill="#FAA21E"/>
<path d="M25 42.4995L2.00002 34.4967L2.00002 40.4988L25 48.5015L48 40.4988L48 34.4968L25 42.4995Z" fill="white" fill-opacity="0.6"/>
<path d="M25.0023 20.4919L1.99998 12.4894L2.00002 18.4912L25.0023 26.4939L48 18.4914L48 12.4894L25.0023 20.4919Z" fill="#FAA21E"/>
<path d="M25.0023 20.4919L1.99998 12.4894L2.00002 18.4912L25.0023 26.4939L48 18.4914L48 12.4894L25.0023 20.4919Z" fill="white" fill-opacity="0.6"/>
</svg>
