<svg width="50" height="50" viewBox="0 0 50 50" fill="none" xmlns="http://www.w3.org/2000/svg">
<g clip-path="url(#clip0_4539_6720)">
<path d="M9.73684 2.01379H40V5.01379L41 7.01379H45V48.0138H11.3158C10.7895 48.0138 8.15789 48.0138 6.57895 46.4456C5 44.8774 5 43.3092 5 42.7865V6.71834C5 5.67288 5.73684 4.41834 6.57895 3.58198C7.42105 2.74561 8.68421 2.01379 9.73684 2.01379Z" fill="#1D8CE0"/>
<path d="M43 9L40 5V40.0312H38L43 46V9Z" fill="#898989"/>
<path d="M43 9L40 5V40.0312H38L43 46V9Z" fill="white" fill-opacity="0.2"/>
<path d="M10.093 40H38.0001L43.0001 46H10.093C9.58856 46 6.97412 45.0823 6.97412 42.8406C6.97412 40.599 9.58856 40 10.093 40Z" fill="#898989"/>
<path d="M10.093 40H38.0001L43.0001 46H10.093C9.58856 46 6.97412 45.0823 6.97412 42.8406C6.97412 40.599 9.58856 40 10.093 40Z" fill="white" fill-opacity="0.6"/>
<g clip-path="url(#clip1_4539_6720)">
<path d="M21.72 9.16003C21.72 8.20003 22.5733 6.81336 23 6.28003C23.4266 6.81336 24.28 8.20003 24.28 9.16003C24.28 10.12 23.4266 10.5467 23 10.76C22.5733 10.5467 21.72 10.12 21.72 9.16003Z" fill="#FEFEFE"/>
<path d="M24.28 32.84C24.28 33.8 23.4267 35.1866 23 35.72C22.5734 35.1866 21.72 33.8 21.72 32.84C21.72 31.88 22.5734 31.4533 23 31.24C23.4267 31.4533 24.28 31.88 24.28 32.84Z" fill="#FEFEFE"/>
<path d="M34.84 19.72C35.8 19.72 37.1866 20.5733 37.72 21C37.1866 21.4266 35.8 22.28 34.84 22.28C33.88 22.28 33.4533 21.4266 33.24 21C33.4533 20.5733 33.88 19.72 34.84 19.72Z" fill="#FEFEFE"/>
<path d="M11.16 22.28C10.2 22.28 8.81336 21.4267 8.28003 21C8.81336 20.5734 10.2 19.72 11.16 19.72C12.12 19.72 12.5467 20.5734 12.76 21C12.5467 21.4267 12.12 22.28 11.16 22.28Z" fill="#FEFEFE"/>
<path d="M27.8115 10.1062C28.2915 9.27483 29.7238 8.50061 30.36 8.25206C30.4628 8.92727 30.5085 10.5548 30.0285 11.3862C29.5485 12.2176 28.5961 12.1604 28.12 12.1319C27.8571 11.7338 27.3315 10.9376 27.8115 10.1062Z" fill="#FEFEFE"/>
<path d="M18.1885 31.8938C17.7085 32.7252 16.2762 33.4994 15.64 33.7479C15.5372 33.0727 15.4915 31.4452 15.9715 30.6138C16.4515 29.7824 17.4039 29.8396 17.88 29.8681C18.1429 30.2662 18.6685 31.0624 18.1885 31.8938Z" fill="#FEFEFE"/>
<path d="M33.8938 25.8115C34.7252 26.2915 35.4994 27.7238 35.7479 28.36C35.0727 28.4628 33.4452 28.5085 32.6138 28.0285C31.7824 27.5485 31.8396 26.5961 31.8681 26.12C32.2662 25.8571 33.0624 25.3315 33.8938 25.8115Z" fill="#FEFEFE"/>
<path d="M12.1062 16.1885C11.2748 15.7085 10.5006 14.2762 10.2521 13.64C10.9273 13.5372 12.5548 13.4915 13.3862 13.9715C14.2176 14.4515 14.1604 15.4039 14.1319 15.88C13.7338 16.1429 12.9376 16.6685 12.1062 16.1885Z" fill="#FEFEFE"/>
<path d="M15.9715 11.3862C15.4915 10.5549 15.5372 8.9273 15.64 8.25209C16.2762 8.50064 17.7085 9.27486 18.1885 10.1062C18.6685 10.9376 18.1428 11.7338 17.88 12.1319C17.4038 12.1605 16.4515 12.2176 15.9715 11.3862Z" fill="#FEFEFE"/>
<path d="M30.0285 30.6138C30.5085 31.4451 30.4628 33.0727 30.36 33.7479C29.7238 33.4994 28.2915 32.7251 27.8115 31.8938C27.3315 31.0624 27.8572 30.2662 28.12 29.8681C28.5962 29.8395 29.5485 29.7824 30.0285 30.6138Z" fill="#FEFEFE"/>
<path d="M32.6138 13.9715C33.4451 13.4915 35.0727 13.5372 35.7479 13.64C35.4994 14.2762 34.7251 15.7085 33.8938 16.1885C33.0624 16.6685 32.2662 16.1428 31.8681 15.88C31.8395 15.4038 31.7824 14.4515 32.6138 13.9715Z" fill="#FEFEFE"/>
<path d="M13.3862 28.0285C12.5549 28.5085 10.9273 28.4628 10.2521 28.36C10.5006 27.7238 11.2749 26.2915 12.1062 25.8115C12.9376 25.3315 13.7338 25.8572 14.1319 26.12C14.1605 26.5962 14.2176 27.5485 13.3862 28.0285Z" fill="#FEFEFE"/>
<circle cx="26.0644" cy="9.56343" r="0.32" transform="rotate(15 26.0644 9.56343)" fill="#FEFEFE"/>
<circle cx="19.9356" cy="32.4365" r="0.32" transform="rotate(15 19.9356 32.4365)" fill="#FEFEFE"/>
<circle cx="34.4366" cy="24.0644" r="0.32" transform="rotate(105 34.4366 24.0644)" fill="#FEFEFE"/>
<circle cx="11.5635" cy="17.9356" r="0.32" transform="rotate(105 11.5635 17.9356)" fill="#FEFEFE"/>
<circle cx="31.3721" cy="12.6278" r="0.32" transform="rotate(45 31.3721 12.6278)" fill="#FEFEFE"/>
<circle cx="14.6279" cy="29.3721" r="0.32" transform="rotate(45 14.6279 29.3721)" fill="#FEFEFE"/>
<circle cx="31.3722" cy="29.3721" r="0.32" transform="rotate(135 31.3722 29.3721)" fill="#FEFEFE"/>
<circle cx="14.6279" cy="12.6278" r="0.32" transform="rotate(135 14.6279 12.6278)" fill="#FEFEFE"/>
<circle cx="19.9356" cy="9.56343" r="0.32" transform="rotate(-15 19.9356 9.56343)" fill="#FEFEFE"/>
<circle cx="26.0644" cy="32.4365" r="0.32" transform="rotate(-15 26.0644 32.4365)" fill="#FEFEFE"/>
<circle cx="34.4366" cy="17.9355" r="0.32" transform="rotate(75 34.4366 17.9355)" fill="#FEFEFE"/>
<circle cx="11.5634" cy="24.0644" r="0.32" transform="rotate(75 11.5634 24.0644)" fill="#FEFEFE"/>
<circle cx="12.12" cy="10.12" r="0.64" fill="#FEFEFE"/>
<circle cx="33.88" cy="10.12" r="0.64" fill="#FEFEFE"/>
<circle cx="12.12" cy="31.88" r="0.64" fill="#FEFEFE"/>
<circle cx="33.88" cy="31.88" r="0.64" fill="#FEFEFE"/>
<circle cx="19.0176" cy="6.13756" r="0.64" transform="rotate(30 19.0176 6.13756)" fill="#FEFEFE"/>
<circle cx="37.8624" cy="17.0176" r="0.64" transform="rotate(30 37.8624 17.0176)" fill="#FEFEFE"/>
<circle cx="8.13758" cy="24.9823" r="0.64" transform="rotate(30 8.13758 24.9823)" fill="#FEFEFE"/>
<circle cx="26.9824" cy="35.8623" r="0.64" transform="rotate(30 26.9824 35.8623)" fill="#FEFEFE"/>
<circle cx="8.13756" cy="17.0176" r="0.64" transform="rotate(-30 8.13756 17.0176)" fill="#FEFEFE"/>
<circle cx="26.9824" cy="6.13758" r="0.64" transform="rotate(-30 26.9824 6.13758)" fill="#FEFEFE"/>
<circle cx="19.0176" cy="35.8623" r="0.64" transform="rotate(-30 19.0176 35.8623)" fill="#FEFEFE"/>
<circle cx="37.8624" cy="24.9823" r="0.64" transform="rotate(-30 37.8624 24.9823)" fill="#FEFEFE"/>
<path fill-rule="evenodd" clip-rule="evenodd" d="M27.9814 28.6799L22.6415 28.6799L22.6415 26.8367C22.6415 26.7095 22.4834 26.3187 22.2982 25.8609C22.0362 25.2134 21.7199 24.4319 21.7199 24.0719L21.7199 20.6927C21.7199 19.4639 21.7199 15.7775 22.6415 15.7775C22.8129 15.7775 22.9843 15.8732 23.1023 16.011L23.1023 19.7711C23.1023 19.856 23.1711 19.9247 23.2559 19.9247C23.3408 19.9247 23.4095 19.856 23.4095 19.7711L23.4095 15.535C23.5467 14.9055 23.7736 14.2415 24.1775 14.2415C24.3978 14.2415 24.544 14.3032 24.6383 14.399L24.6383 19.4639C24.6383 19.5488 24.7071 19.6175 24.7919 19.6175C24.8768 19.6175 24.9455 19.5488 24.9455 19.4639L24.9455 14.148C25.0615 13.7318 25.2677 13.3199 25.7135 13.3199C26.111 13.3199 26.3477 13.6472 26.4815 14.0131L26.4815 19.4639C26.4815 19.5488 26.5503 19.6175 26.6351 19.6175C26.72 19.6175 26.7887 19.5488 26.7887 19.4639L26.7887 14.467C26.8831 14.3443 27.0293 14.2415 27.2495 14.2415C27.8639 14.2415 28.1711 15.4703 28.1711 16.0847C28.1711 16.3609 28.2332 17.1336 28.3015 17.9844C28.3852 19.0263 28.4783 20.1854 28.4783 20.6927C28.4783 20.98 28.5082 21.2972 28.54 21.6349C28.6102 22.3805 28.6898 23.2262 28.4783 24.0719C28.1711 25.3007 27.9814 26.3051 27.9814 26.6123L27.9814 28.6799Z" fill="#1D8CE0"/>
<path fill-rule="evenodd" clip-rule="evenodd" d="M27.9814 28.6799L22.6415 28.6799L22.6415 26.8367C22.6415 26.7095 22.4834 26.3187 22.2982 25.8609C22.0362 25.2134 21.7199 24.4319 21.7199 24.0719L21.7199 20.6927C21.7199 19.4639 21.7199 15.7775 22.6415 15.7775C22.8129 15.7775 22.9843 15.8732 23.1023 16.011L23.1023 19.7711C23.1023 19.856 23.1711 19.9247 23.2559 19.9247C23.3408 19.9247 23.4095 19.856 23.4095 19.7711L23.4095 15.535C23.5467 14.9055 23.7736 14.2415 24.1775 14.2415C24.3978 14.2415 24.544 14.3032 24.6383 14.399L24.6383 19.4639C24.6383 19.5488 24.7071 19.6175 24.7919 19.6175C24.8768 19.6175 24.9455 19.5488 24.9455 19.4639L24.9455 14.148C25.0615 13.7318 25.2677 13.3199 25.7135 13.3199C26.111 13.3199 26.3477 13.6472 26.4815 14.0131L26.4815 19.4639C26.4815 19.5488 26.5503 19.6175 26.6351 19.6175C26.72 19.6175 26.7887 19.5488 26.7887 19.4639L26.7887 14.467C26.8831 14.3443 27.0293 14.2415 27.2495 14.2415C27.8639 14.2415 28.1711 15.4703 28.1711 16.0847C28.1711 16.3609 28.2332 17.1336 28.3015 17.9844C28.3852 19.0263 28.4783 20.1854 28.4783 20.6927C28.4783 20.98 28.5082 21.2972 28.54 21.6349C28.6102 22.3805 28.6898 23.2262 28.4783 24.0719C28.1711 25.3007 27.9814 26.3051 27.9814 26.6123L27.9814 28.6799Z" fill="white" fill-opacity="0.4"/>
<path d="M29.4582 20.7046C28.5547 20.4902 27.8437 19.5156 27.6861 19.8185C27.383 20.401 28.0515 21.3848 28.2769 21.5908C28.3028 21.8833 28.1316 23.0819 28.1316 23.0819C28.1316 23.0819 26.8645 22.814 26.228 24.2352C25.2773 26.3577 27.8214 26.6173 28.1317 26.3169C28.442 26.0165 29.7293 24.881 29.7538 23.3631C29.7687 22.4471 29.4582 20.7046 29.4582 20.7046Z" fill="#1D8CE0"/>
<path d="M29.4582 20.7046C28.5547 20.4902 27.8437 19.5156 27.6861 19.8185C27.383 20.401 28.0515 21.3848 28.2769 21.5908C28.3028 21.8833 28.1316 23.0819 28.1316 23.0819C28.1316 23.0819 26.8645 22.814 26.228 24.2352C25.2773 26.3577 27.8214 26.6173 28.1317 26.3169C28.442 26.0165 29.7293 24.881 29.7538 23.3631C29.7687 22.4471 29.4582 20.7046 29.4582 20.7046Z" fill="white" fill-opacity="0.6"/>
<path d="M20.0173 23.72L15.96 20.04L19.16 14.6H23L19.5826 19.4L23.64 22.7963L17.8778 29.32L20.0173 23.72Z" fill="#1D8CE0"/>
<path d="M20.0173 23.72L15.96 20.04L19.16 14.6H23L19.5826 19.4L23.64 22.7963L17.8778 29.32L20.0173 23.72Z" fill="white" fill-opacity="0.8"/>
</g>
</g>
<defs>
<clipPath id="clip0_4539_6720">
<rect width="50" height="50" fill="white" transform="matrix(-1 0 0 1 50 0)"/>
</clipPath>
<clipPath id="clip1_4539_6720">
<rect width="32" height="32" fill="white" transform="matrix(-1 0 0 1 39 5)"/>
</clipPath>
</defs>
</svg>
