<svg width="50" height="50" viewBox="0 0 50 50" fill="none" xmlns="http://www.w3.org/2000/svg">
<path d="M18.9568 0H15.2833C14.7585 0.524788 5.31232 41.4583 5.83711 41.9831C6.3619 42.5079 11.085 45.6566 17.9072 47.7558C23.365 49.4351 35.2253 50.3797 35.7501 49.8549C36.2749 49.3301 45.721 5.77267 45.1963 5.24788C36.8017 2.97405 32.0912 1.96947 23.6799 0.524778C23.6799 0.524778 19.4816 -1.05064e-05 18.9568 0Z" fill="#898989"/>
<path d="M18.9568 0H15.2833C14.7585 0.524788 5.31232 41.4583 5.83711 41.9831C6.3619 42.5079 11.085 45.6566 17.9072 47.7558C23.365 49.4351 35.2253 50.3797 35.7501 49.8549C36.2749 49.3301 45.721 5.77267 45.1963 5.24788C36.8017 2.97405 32.0912 1.96947 23.6799 0.524778C23.6799 0.524778 19.4816 -1.05064e-05 18.9568 0Z" fill="white" fill-opacity="0.4"/>
<path d="M17.9072 0H14.2337C13.7089 0.524788 4.2627 41.4583 4.78749 41.9831C5.31228 42.5079 10.0354 45.6566 16.8576 47.7558C22.3154 49.4351 33.6509 50.3797 34.1757 49.8549C34.7004 49.3301 43.9662 5.59228 43.6218 5.24788C43.2775 4.90349 37.8492 3.67352 37.8492 3.67352C37.8492 3.67352 32.2514 2.44901 30.5021 2.09915L22.1055 0.524788C22.1055 0.524788 18.432 -1.05064e-05 17.9072 0Z" fill="#898989"/>
<path d="M17.9072 0H14.2337C13.7089 0.524788 4.2627 41.4583 4.78749 41.9831C5.31228 42.5079 10.0354 45.6566 16.8576 47.7558C22.3154 49.4351 33.6509 50.3797 34.1757 49.8549C34.7004 49.3301 43.9662 5.59228 43.6218 5.24788C43.2775 4.90349 37.8492 3.67352 37.8492 3.67352C37.8492 3.67352 32.2514 2.44901 30.5021 2.09915L22.1055 0.524788C22.1055 0.524788 18.432 -1.05064e-05 17.9072 0Z" fill="white" fill-opacity="0.8"/>
<path d="M36.4779 5.87331C36.4779 5.87331 32.5742 5.03253 31.0269 4.72307L20.5311 2.62391L15.808 2.09912C15.3438 2.56332 6.42244 39.9445 6.88664 40.4087C7.35084 40.8729 11.8726 43.7998 17.9072 45.6566C22.7349 47.142 32.6619 47.6951 33.1261 47.2309C33.5903 46.7667 41.9869 7.81121 41.5227 7.34701C41.0585 6.88281 36.4779 5.87331 36.4779 5.87331Z" fill="#898989"/>
<path d="M36.4779 5.87331C36.4779 5.87331 32.5742 5.03253 31.0269 4.72307L20.5311 2.62391L15.808 2.09912C15.3438 2.56332 6.42244 39.9445 6.88664 40.4087C7.35084 40.8729 11.8726 43.7998 17.9072 45.6566C22.7349 47.142 32.6619 47.6951 33.1261 47.2309C33.5903 46.7667 41.9869 7.81121 41.5227 7.34701C41.0585 6.88281 36.4779 5.87331 36.4779 5.87331Z" fill="white" fill-opacity="0.4"/>
<path d="M33.336 46.7061C33.8002 46.2419 41.9869 7.81116 41.5227 7.34696C39.9484 6.29738 32.0765 4.93293 32.0765 4.93293L20.5312 2.62386L16.8577 2.19995C16.3935 2.66415 7.47206 39.9444 7.93626 40.4086C8.40046 40.8728 12.9222 43.2749 18.9568 45.1317C23.7845 46.6172 32.8718 47.1703 33.336 46.7061Z" fill="#898989"/>
<path d="M33.336 46.7061C33.8002 46.2419 41.9869 7.81116 41.5227 7.34696C39.9484 6.29738 32.0765 4.93293 32.0765 4.93293L20.5312 2.62386L16.8577 2.19995C16.3935 2.66415 7.47206 39.9444 7.93626 40.4086C8.40046 40.8728 12.9222 43.2749 18.9568 45.1317C23.7845 46.6172 32.8718 47.1703 33.336 46.7061Z" fill="white" fill-opacity="0.2"/>
<path d="M12.085 43.0327H13.5L22.8 3L21 2.5L12.085 43.0327Z" fill="#898989"/>
<path d="M12.085 43.0327H13.5L22.8 3L21 2.5L12.085 43.0327Z" fill="white" fill-opacity="0.4"/>
<path d="M30 4.3L28.5 4L18.9072 45.6567L21.0064 45.4468L30 4.3Z" fill="#898989"/>
<path d="M30 4.3L28.5 4L18.9072 45.6567L21.0064 45.4468L30 4.3Z" fill="white" fill-opacity="0.4"/>
<path d="M38.8492 6.19258L37.2748 5.77275L28.3534 47.231L29.9278 46.7063L38.8492 6.19258Z" fill="#898989"/>
<path d="M38.8492 6.19258L37.2748 5.77275L28.3534 47.231L29.9278 46.7063L38.8492 6.19258Z" fill="white" fill-opacity="0.4"/>
<path d="M22 2L19.5 1.5L9.46106 43.0326L12.5 44L22 2Z" fill="#898989"/>
<path d="M22 2L19.5 1.5L9.46106 43.0326L12.5 44L22 2Z" fill="white" fill-opacity="0.8"/>
<path d="M29 4L25.5 3L16.2833 45.6566L19.4321 46.7062L29 4Z" fill="#898989"/>
<path d="M29 4L25.5 3L16.2833 45.6566L19.4321 46.7062L29 4Z" fill="white" fill-opacity="0.8"/>
<path d="M37.7996 4.72316L34.1261 3.67358L24.6799 47.231L28.3535 47.7558L37.7996 4.72316Z" fill="#898989"/>
<path d="M37.7996 4.72316L34.1261 3.67358L24.6799 47.231L28.3535 47.7558L37.7996 4.72316Z" fill="white" fill-opacity="0.8"/>
<path d="M19.6248 11.1063L11.5601 11.0206L17.3328 12.595L19.6248 11.1063Z" fill="#FAA21E"/>
<path d="M19.6248 11.1063L11.5601 11.0206L17.3328 12.595L19.6248 11.1063Z" fill="black" fill-opacity="0.4"/>
<path d="M26.779 12.595H19.9568L24.6799 14.6941L26.779 12.595Z" fill="#FAA21E"/>
<path d="M26.779 12.595H19.9568L24.6799 14.6941L26.779 12.595Z" fill="black" fill-opacity="0.4"/>
<path d="M35.7004 14.1693H28.8782L33.6013 16.2685L35.7004 14.1693Z" fill="#FAA21E"/>
<path d="M35.7004 14.1693H28.8782L33.6013 16.2685L35.7004 14.1693Z" fill="black" fill-opacity="0.4"/>
<path d="M16.7116 23.2514H8.93621L14.5268 25.4363L16.7116 23.2514Z" fill="#FAA21E"/>
<path d="M16.7116 23.2514H8.93621L14.5268 25.4363L16.7116 23.2514Z" fill="black" fill-opacity="0.4"/>
<path d="M23.6303 25.4363H16.7116L22.0559 27.289L23.6303 25.4363Z" fill="#FAA21E"/>
<path d="M23.6303 25.4363H16.7116L22.0559 27.289L23.6303 25.4363Z" fill="black" fill-opacity="0.4"/>
<path d="M32.5517 27.8138H25.7294L30.5489 29.8059L32.5517 27.8138Z" fill="#FAA21E"/>
<path d="M32.5517 27.8138H25.7294L30.5489 29.8059L32.5517 27.8138Z" fill="black" fill-opacity="0.4"/>
<path d="M13.0703 35.3965H5.78748L11.6137 37.5814L13.0703 35.3965Z" fill="#FAA21E"/>
<path d="M13.0703 35.3965H5.78748L11.6137 37.5814L13.0703 35.3965Z" fill="black" fill-opacity="0.4"/>
<path d="M21.0813 38.3096H14.1841L18.9072 40.4088L21.0813 38.3096Z" fill="#FAA21E"/>
<path d="M21.0813 38.3096H14.1841L18.9072 40.4088L21.0813 38.3096Z" fill="black" fill-opacity="0.4"/>
<path d="M29.9277 40.4088H23.1055L27.8286 42.5079L29.9277 40.4088Z" fill="#FAA21E"/>
<path d="M29.9277 40.4088H23.1055L27.8286 42.5079L29.9277 40.4088Z" fill="black" fill-opacity="0.4"/>
<path d="M18.1682 8.92151L11.5601 11.0207L19.6248 11.1063L18.1682 8.92151Z" fill="#FAA21E"/>
<path d="M18.1682 8.92151L11.5601 11.0207L19.6248 11.1063L18.1682 8.92151Z" fill="black" fill-opacity="0.1"/>
<path d="M25.2046 10.4959L19.7104 12.595H26.779L25.2046 10.4959Z" fill="#FAA21E"/>
<path d="M25.2046 10.4959L19.7104 12.595H26.779L25.2046 10.4959Z" fill="black" fill-opacity="0.1"/>
<path d="M33.6013 12.0702L28.8782 14.1694H35.7004L33.6013 12.0702Z" fill="#FAA21E"/>
<path d="M33.6013 12.0702L28.8782 14.1694H35.7004L33.6013 12.0702Z" fill="black" fill-opacity="0.1"/>
<path d="M15.2551 21.0666L8.93621 23.2514H16.7116L15.2551 21.0666Z" fill="#FAA21E"/>
<path d="M15.2551 21.0666L8.93621 23.2514H16.7116L15.2551 21.0666Z" fill="black" fill-opacity="0.1"/>
<path d="M22.5807 23.0908L16.7116 25.4363H23.7588L22.5807 23.0908Z" fill="#FAA21E"/>
<path d="M22.5807 23.0908L16.7116 25.4363H23.7588L22.5807 23.0908Z" fill="black" fill-opacity="0.1"/>
<path d="M30.9773 25.19L25.7294 27.8139H32.6052L30.9773 25.19Z" fill="#FAA21E"/>
<path d="M30.9773 25.19L25.7294 27.8139H32.6052L30.9773 25.19Z" fill="black" fill-opacity="0.1"/>
<path d="M12.342 33.2117L5.78748 35.3966H13.0703L12.342 33.2117Z" fill="#FAA21E"/>
<path d="M12.342 33.2117L5.78748 35.3966H13.0703L12.342 33.2117Z" fill="black" fill-opacity="0.1"/>
<path d="M19.432 35.6857L13.8842 38.3097H21.167L19.432 35.6857Z" fill="#FAA21E"/>
<path d="M19.432 35.6857L13.8842 38.3097H21.167L19.432 35.6857Z" fill="black" fill-opacity="0.1"/>
<path d="M28.3534 37.7849L23.1055 40.4088H29.9277L28.3534 37.7849Z" fill="#FAA21E"/>
<path d="M28.3534 37.7849L23.1055 40.4088H29.9277L28.3534 37.7849Z" fill="black" fill-opacity="0.1"/>
</svg>
