<svg width="50" height="50" viewBox="0 0 50 50" fill="none" xmlns="http://www.w3.org/2000/svg">
<path d="M9.73684 2H40V5L41 7H45V48H11.3158C10.7895 48 8.15789 48 6.57895 46.4318C5 44.8636 5 43.2955 5 42.7727V6.70455C5 5.65909 5.73684 4.40455 6.57895 3.56818C7.42105 2.73182 8.68421 2 9.73684 2Z" fill="#FAA21E"/>
<path d="M9.73684 2H40V5L41 7H45V48H11.3158C10.7895 48 8.15789 48 6.57895 46.4318C5 44.8636 5 43.2955 5 42.7727V6.70455C5 5.65909 5.73684 4.40455 6.57895 3.56818C7.42105 2.73182 8.68421 2 9.73684 2Z" fill="black" fill-opacity="0.1"/>
<path d="M43 9.1L40 5V40H38L43 46V9.1Z" fill="#898989"/>
<path d="M43 9.1L40 5V40H38L43 46V9.1Z" fill="white" fill-opacity="0.2"/>
<path d="M10.1304 40H38L43 46H10.1304C9.62415 46 7 45.25 7 43C7 40.75 9.62415 40 10.1304 40Z" fill="#898989"/>
<path d="M10.1304 40H38L43 46H10.1304C9.62415 46 7 45.25 7 43C7 40.75 9.62415 40 10.1304 40Z" fill="white" fill-opacity="0.6"/>
<path d="M23 8.52002L20.76 12.94L22.0068 12.8597L24.92 13L23 8.52002Z" fill="#FEFEFE"/>
<path d="M33.2601 11.5851L29.4001 14.28L31.3201 15.24L32.6733 16.2883L33.2601 11.5851Z" fill="#FEFEFE"/>
<path d="M16.2801 14.28L11.8 11.4L13.0801 16.52L14.3601 15.56L16.2801 14.28Z" fill="#FEFEFE"/>
<path d="M16.036 31.3857C13.986 31.0704 11.9197 30.539 10.3024 29.9608C9.49294 29.6714 8.80767 29.3743 8.29742 29.0928C8.0422 28.9519 7.83984 28.8199 7.69053 28.7005C7.60452 28.6318 7.54434 28.5737 7.50339 28.5274C7.53 27.9081 7.7127 27.0405 8.04292 26.0158C8.39802 24.914 8.91242 23.6649 9.54538 22.407C10.8179 19.8779 12.5379 17.3761 14.3489 15.9531C18.6366 12.5842 25.6373 12.4621 31.0656 15.6704C33.778 17.2735 35.6452 20.388 36.8398 23.2378C37.4327 24.6523 37.8506 25.9791 38.12 26.9809C38.2546 27.4816 38.3516 27.8991 38.4145 28.2036C38.4448 28.3504 38.4669 28.469 38.4813 28.5567C38.4004 28.6231 38.2716 28.7115 38.0887 28.8189C37.6925 29.0515 37.1036 29.3376 36.3612 29.6432C34.8792 30.2532 32.8289 30.9234 30.5784 31.3904C25.6185 32.4196 19.9629 31.9899 16.036 31.3857Z" stroke="#FEFEFE"/>
<path d="M12.2218 19.2831L6.99998 19.08L10.5749 23.4208C10.9283 23.1003 11.5992 22.5371 12.0323 21.6052C12.6098 20.3626 12.291 19.7723 12.2218 19.2831Z" fill="#FEFEFE"/>
<path d="M33.7684 22.0733C33.0424 20.9697 32.9673 19.9311 33.0205 19.5497L39 18.76L35.5125 23.503C35.1793 23.3869 34.4944 23.177 33.7684 22.0733Z" fill="#FEFEFE"/>
<path d="M15.6145 24.8639C14.4401 24.6711 13.8746 25.6941 13.7387 26.2296L12.12 29L15.8592 29.2022C16.2942 29.3093 17.2457 29.2343 17.572 28.0774C17.9798 26.6313 17.0826 25.1049 15.6145 24.8639Z" fill="#FEFEFE"/>
<path d="M22.5515 20.381C21.3771 20.1882 20.7572 21.3718 20.5941 21.9877C20.0499 23.0321 21.0834 24.6389 21.5728 24.9603C22.0622 25.2816 24.4274 25.5226 24.7536 23.5945C25.0798 21.6664 24.0196 20.622 22.5515 20.381Z" fill="#FEFEFE"/>
<path d="M29.4181 25.5143C30.3968 24.4217 31.5658 24.8984 32.028 25.2733L34.84 28.04L31.64 29.2099C31.3137 29.4509 30.1011 29.7011 29.4 29C28.7599 28.36 28.1947 26.8801 29.4181 25.5143Z" fill="#FEFEFE"/>
<path d="M18.0202 18.2234C16.128 18.4804 15.8724 17.2593 15.9812 16.6166L17.24 12.36L20.3854 16.2149C20.3854 16.7773 19.9123 17.9663 18.0202 18.2234Z" fill="#FEFEFE"/>
<path d="M27.3662 18.143C25.8154 18.143 24.8934 16.7237 24.9206 16.0542L28.12 12.36L29.3248 16.5362C29.4607 16.9915 29.0778 18.143 27.3662 18.143Z" fill="#FEFEFE"/>
</svg>
