<svg width="50" height="52" viewBox="0 0 50 52" fill="none" xmlns="http://www.w3.org/2000/svg">
<path d="M19.6786 27.3542L17.1362 23.6408L14.7787 23.0092L14.3997 24.4236L14.896 30.1155L17.5986 31.345L19.8636 30.4358L19.6786 27.3542Z" fill="#898989"/>
<path d="M19.6786 27.3542L17.1362 23.6408L14.7787 23.0092L14.3997 24.4236L14.896 30.1155L17.5986 31.345L19.8636 30.4358L19.6786 27.3542Z" fill="white" fill-opacity="0.6"/>
<path d="M19.0965 40.8428L20.424 36.3685L23.911 32.8815L19.4078 43.4529L19.0965 40.8428Z" fill="#898989"/>
<path d="M19.0965 40.8428L20.424 36.3685L23.911 32.8815L19.4078 43.4529L19.0965 40.8428Z" fill="white" fill-opacity="0.6"/>
<path d="M14.9365 48.8243L16.0397 46.5931L17.488 44.9598L17.1767 42.3497L19.0966 40.8427L19.4079 43.4528L18.6498 46.2818L14.5 51L14.9365 48.8243Z" fill="#FAA21E"/>
<path d="M14.9365 48.8243L16.0397 46.5931L17.488 44.9598L17.1767 42.3497L19.0966 40.8427L19.4079 43.4528L18.6498 46.2818L14.5 51L14.9365 48.8243Z" fill="white" fill-opacity="0.8"/>
<path d="M17.0933 33.231L14.896 30.1155L15.2998 34.2665L13.9101 39.453L16.7729 38.1987L17.0933 33.231Z" fill="#898989"/>
<path d="M17.0933 33.231L14.896 30.1155L15.2998 34.2665L13.9101 39.453L16.7729 38.1987L17.0933 33.231Z" fill="white" fill-opacity="0.6"/>
<path d="M17.0256 37.2556L17.0933 33.231L15.4426 30.3907L17.5987 31.345L19.9259 30.3907L19.9561 31.9767L19.1056 33.2648L17.0256 37.2556Z" fill="#FAA21E"/>
<path d="M17.0256 37.2556L17.0933 33.231L15.4426 30.3907L17.5987 31.345L19.9259 30.3907L19.9561 31.9767L19.1056 33.2648L17.0256 37.2556Z" fill="white" fill-opacity="0.8"/>
<path d="M21.9184 2.49441L15.4425 3.49068L13.7861 11.6256C14.9818 10.9352 19.5118 9.11696 19.5118 9.11696C19.5118 9.11696 21.4203 3.98886 21.9184 2.49441Z" fill="#898989"/>
<path d="M21.9184 2.49441L15.4425 3.49068L13.7861 11.6256C14.9818 10.9352 19.5118 9.11696 19.5118 9.11696C19.5118 9.11696 21.4203 3.98886 21.9184 2.49441Z" fill="white" fill-opacity="0.6"/>
<path d="M19.5118 9.11695L13.7862 11.6256L15.5368 20.1802L19.5705 12.6701L19.5118 9.11695Z" fill="#898989"/>
<path d="M19.5118 9.11695L13.7862 11.6256L15.5368 20.1802L19.5705 12.6701L19.5118 9.11695Z" fill="white" fill-opacity="0.6"/>
<path d="M27.8962 1.49813L21.9184 2.49445L19.5118 9.11701L19.5704 12.6702L26.1466 8.8734L27.8962 1.49813Z" fill="#FAA21E"/>
<path d="M27.8962 1.49813L21.9184 2.49445L19.5118 9.11701L19.5704 12.6702L26.1466 8.8734L27.8962 1.49813Z" fill="white" fill-opacity="0.4"/>
<path d="M22.5167 20.5345L21.0436 16.6023C21.0436 16.6023 20.5382 18.4883 20.7571 19.5576C20.9759 20.6269 21.0684 22.1678 21.0684 22.1678L22.5167 20.5345Z" fill="#FAA21E"/>
<path d="M22.5167 20.5345L21.0436 16.6023C21.0436 16.6023 20.5382 18.4883 20.7571 19.5576C20.9759 20.6269 21.0684 22.1678 21.0684 22.1678L22.5167 20.5345Z" fill="white" fill-opacity="0.8"/>
<path d="M26.1467 8.87334L27.8963 1.49808L31.8815 0.99996L30.3902 10.0104L28.3101 14.0012L24.8156 17.613L26.1467 8.87334Z" fill="#FAA21E"/>
<path d="M26.1467 8.87334L27.8963 1.49808L31.8815 0.99996L30.3902 10.0104L28.3101 14.0012L24.8156 17.613L26.1467 8.87334Z" fill="white" fill-opacity="0.8"/>
<path d="M19.5705 12.6701L26.1467 8.87335L24.9419 17.1415L22.5167 20.5344L19.5705 12.6701Z" fill="#FAA21E"/>
<path d="M19.5705 12.6701L26.1467 8.87335L24.9419 17.1415L22.5167 20.5344L19.5705 12.6701Z" fill="white" fill-opacity="0.8"/>
<path d="M19.5706 12.6701L15.6632 19.7087L14.7788 23.0092L17.1363 23.6409L19.6788 27.3543L20.2482 24.4747L21.0685 22.1678C21.0685 22.1678 21.3211 21.2248 20.6308 20.0291C19.9405 18.8335 21.0437 16.6023 21.0437 16.6023L19.5706 12.6701Z" fill="#FAA21E"/>
<path d="M19.5706 12.6701L15.6632 19.7087L14.7788 23.0092L17.1363 23.6409L19.6788 27.3543L20.2482 24.4747L21.0685 22.1678C21.0685 22.1678 21.3211 21.2248 20.6308 20.0291C19.9405 18.8335 21.0437 16.6023 21.0437 16.6023L19.5706 12.6701Z" fill="white" fill-opacity="0.4"/>
<path d="M28.1838 14.4727L31.0375 20.7962L30.4022 26.1848L29.4876 28.4665L28.4485 29.7041L27.8882 25.0058L27.0715 24.2817L25.4044 24.8456L24.9419 17.1415L28.1838 14.4727Z" fill="#FAA21E"/>
<path d="M28.1838 14.4727L31.0375 20.7962L30.4022 26.1848L29.4876 28.4665L28.4485 29.7041L27.8882 25.0058L27.0715 24.2817L25.4044 24.8456L24.9419 17.1415L28.1838 14.4727Z" fill="white" fill-opacity="0.8"/>
<path d="M32.2313 21.6214L31.0374 20.7962L30.2794 23.6251C29.9004 25.0397 30.4021 26.1848 30.4021 26.1848L32.2313 21.6214Z" fill="#898989"/>
<path d="M32.2313 21.6214L31.0374 20.7962L30.2794 23.6251C29.9004 25.0397 30.4021 26.1848 30.4021 26.1848L32.2313 21.6214Z" fill="white" fill-opacity="0.6"/>
<path d="M30.3902 10.0104L31.8815 0.999979L40.1405 7.56954L34.3132 16.1151L32.2314 21.6215L29.5306 18.8764L28.3101 14.0012L30.3902 10.0104Z" fill="#898989"/>
<path d="M30.3902 10.0104L31.8815 0.999979L40.1405 7.56954L34.3132 16.1151L32.2314 21.6215L29.5306 18.8764L28.3101 14.0012L30.3902 10.0104Z" fill="white" fill-opacity="0.6"/>
<path d="M27.0714 24.2817C25.7023 23.9148 24.8466 25.8754 24.4092 26.4055C23.909 27.0117 22.9147 27.9 22.9147 27.9L23.6017 33.4589L25.993 32.0783C26.3929 31.7841 28.2278 30.1503 28.3542 29.6788C28.4805 29.2072 28.1599 25.8776 28.1069 26.0751C28.1069 26.0751 28.4406 24.6485 27.0714 24.2817Z" fill="#898989"/>
<path d="M27.0714 24.2817C25.7023 23.9148 24.8466 25.8754 24.4092 26.4055C23.909 27.0117 22.9147 27.9 22.9147 27.9L23.6017 33.4589L25.993 32.0783C26.3929 31.7841 28.2278 30.1503 28.3542 29.6788C28.4805 29.2072 28.1599 25.8776 28.1069 26.0751C28.1069 26.0751 28.4406 24.6485 27.0714 24.2817Z" fill="white" fill-opacity="0.6"/>
<path d="M16.7729 38.1986L19.1056 33.2648L20.2336 36.5991L19.1056 40.3537C18.296 41.6988 17.8244 41.2735 17.1767 42.3496C16.529 43.4256 14.9289 45.0805 14.6252 46.214L14.659 44.2017L13.9101 39.4529L16.7729 38.1986Z" fill="#FAA21E"/>
<path d="M16.7729 38.1986L19.1056 33.2648L20.2336 36.5991L19.1056 40.3537C18.296 41.6988 17.8244 41.2735 17.1767 42.3496C16.529 43.4256 14.9289 45.0805 14.6252 46.214L14.659 44.2017L13.9101 39.4529L16.7729 38.1986Z" fill="white" fill-opacity="0.4"/>
<path d="M19.4278 26.4056L20.9222 22.4204L24.9419 17.1416L25.278 25.3172L20.0825 31.5053L19.4278 26.4056Z" fill="#FAA21E"/>
<path d="M19.4278 26.4056L20.9222 22.4204L24.9419 17.1416L25.278 25.3172L20.0825 31.5053L19.4278 26.4056Z" fill="white" fill-opacity="0.4"/>
<path d="M22.9148 27.9L19.9561 31.9768L19.1056 33.2649L20.3599 36.1278L21.9185 34.8741C22.7578 34.2567 23.6271 33.3647 23.7281 32.9875C23.8292 32.6103 22.9878 28.2565 22.9148 27.9Z" fill="#FAA21E"/>
<path d="M22.9148 27.9L19.9561 31.9768L19.1056 33.2649L20.3599 36.1278L21.9185 34.8741C22.7578 34.2567 23.6271 33.3647 23.7281 32.9875C23.8292 32.6103 22.9878 28.2565 22.9148 27.9Z" fill="white" fill-opacity="0.4"/>
<path d="M17.4881 44.9598L16.9371 42.3463L14.6252 46.2141L14 51L15.9134 47.0646L17.4881 44.9598Z" fill="#898989"/>
<path d="M17.4881 44.9598L16.9371 42.3463L14.6252 46.2141L14 51L15.9134 47.0646L17.4881 44.9598Z" fill="white" fill-opacity="0.6"/>
<path d="M22.1505 2.51603L19.4388 8.86432M19.4388 8.86432L13.7132 11.3729M19.4388 8.86432L19.4975 12.4175M19.4975 12.4175L15.4637 19.9276M19.4975 12.4175L26.0736 8.62071M19.4975 12.4175L20.9706 16.3496M26.0736 8.62071L27.8963 1.49815M26.0736 8.62071C25.557 11.1775 24.5928 16.4106 24.8689 16.8888M24.8689 16.8888C25.145 17.3671 27.3868 15.1979 28.3945 13.9519M24.8689 16.8888L22.4437 20.2818M24.8689 16.8888L25.205 25.0645M28.3945 13.9519L30.3171 9.75775L31.8815 1M28.3945 13.9519C28.5712 15.1783 28.9053 17.6672 29.4575 18.6237C29.808 19.2307 30.4301 19.9376 30.9771 20.4966M32.3797 21.9222C32.1808 21.7458 31.2921 20.8185 30.9771 20.4966M22.4437 20.2818L20.9706 16.3496M22.4437 20.2818L20.869 22.3866M20.9706 16.3496C20.645 16.9362 20.4241 18.4352 20.5577 19.7764C20.6973 21.1775 20.9533 22.0723 20.869 22.3866M20.869 22.3866C20.4592 23.2875 19.6327 25.4917 19.6057 27.1016M25.205 25.0645C25.4885 24.6351 26.2441 23.8268 26.9985 24.029C27.7529 24.2311 28.0031 25.3089 28.034 25.8225L28.3945 29.8926M25.205 25.0645L22.8767 27.978M19.8831 31.7241C19.8452 31.4061 19.7943 30.9182 19.7463 30.3485M19.8831 31.7241L22.8767 27.978M19.8831 31.7241L19.0642 32.8943M19.6057 27.1016L17.0632 23.3882L14.7057 22.7565M19.6057 27.1016C19.5885 28.1231 19.663 29.3592 19.7463 30.3485M19.7463 30.3485C19.1633 30.6386 17.9028 31.1934 17.5256 31.0924C17.1484 30.9913 15.2524 30.1464 14.823 29.8629C15.1681 30.4607 16.8452 32.1229 17.0203 32.9784C17.1953 33.8338 16.9105 37.1602 16.6999 37.946M16.6999 37.946L13.8371 39.2003M16.6999 37.946L19.0642 32.8943M30.9771 20.4966C30.9771 20.4966 30.4592 22.4295 30.2065 23.3725C29.9538 24.3155 30.3871 26.4055 30.3871 26.4055M22.8767 27.978C22.8767 27.978 23.9112 33.3796 23.413 33.3796C22.9149 33.3796 21.9844 34.9149 21.4826 35.1847C20.9807 35.4545 20.3921 36.0717 20.1606 36.3466M20.1606 36.3466L19.0642 32.8943M20.1606 36.3466L19.0235 40.59M19.0235 40.59L19.3348 43.2002M19.0235 40.59L17.1037 42.097M17.1037 42.097L14.5522 45.9615M17.1037 42.097L17.415 44.7072L15.9035 46.5762L14.4463 50.8148" stroke="#152242" stroke-width="0.498148" stroke-linecap="round" stroke-linejoin="round"/>
</svg>
