<svg width="51" height="51" viewBox="0 0 51 51" fill="none" xmlns="http://www.w3.org/2000/svg">
<path d="M31.0203 21.9797L33 21L30 18L29.0203 19.9797L31.0203 21.9797Z" fill="#898989"/>
<path d="M31.0203 21.9797L33 21L30 18L29.0203 19.9797L31.0203 21.9797Z" fill="white" fill-opacity="0.8"/>
<path d="M30.1149 22.8851L28.1149 20.8851L0.905407 47.0946L1.00001 49L2.00001 50L3.90542 50.0946L30.1149 22.8851Z" fill="#898989"/>
<path d="M30.1149 22.8851L28.1149 20.8851L0.905407 47.0946L1.00001 49L2.00001 50L3.90542 50.0946L30.1149 22.8851Z" fill="white" fill-opacity="0.8"/>
<path d="M47.4 2.4L51 0L49.2 6L45 8L41.4 14.4L40 18.5L33 21L30 18L31.8 10.2L39 7.8L42 4.2L47.4 2.4Z" fill="#FAA21E"/>
<path d="M47.4 2.4L51 0L49.2 6L45 8L41.4 14.4L40 18.5L33 21L30 18L31.8 10.2L39 7.8L42 4.2L47.4 2.4Z" fill="white" fill-opacity="0.8"/>
<path d="M48.6 4.2L51 0L49.2 4.8L47.4 6.6L44 7.5L42.5 12L38.5 15L37.5 17.5L32.4 20.4L31.2 19.2L33.6 16.2L35.4 13.2L39.6 12L42.6 6.6L45 6L48.6 4.2Z" fill="#FAA21E"/>
<path d="M48.6 4.2L51 0L49.2 4.8L47.4 6.6L44 7.5L42.5 12L38.5 15L37.5 17.5L32.4 20.4L31.2 19.2L33.6 16.2L35.4 13.2L39.6 12L42.6 6.6L45 6L48.6 4.2Z" fill="white" fill-opacity="0.4"/>
<path d="M49.2 4.8L51 0L49 7L45 8.5L42 14L40.5 18.5L33 21L32.4 20.4L37.5 17.5L38.5 15L42.5 11.5L44 7.5L47.4 6.6L49.2 4.8Z" fill="#898989"/>
<path d="M49.2 4.8L51 0L49 7L45 8.5L42 14L40.5 18.5L33 21L32.4 20.4L37.5 17.5L38.5 15L42.5 11.5L44 7.5L47.4 6.6L49.2 4.8Z" fill="white" fill-opacity="0.4"/>
<path d="M47.4 2.4L51 0L47.4 3.6L42.6 4.8L39 9.6L33.6 12L30.6 18.6L30 18L31.8 10.2L39 7.8L42 4.2L47.4 2.4Z" fill="#898989"/>
<path d="M47.4 2.4L51 0L47.4 3.6L42.6 4.8L39 9.6L33.6 12L30.6 18.6L30 18L31.8 10.2L39 7.8L42 4.2L47.4 2.4Z" fill="white" fill-opacity="0.4"/>
</svg>
