<svg width="40" height="40" viewBox="0 0 40 40" fill="none" xmlns="http://www.w3.org/2000/svg">
<path d="M7.43808 4.79612C16.4677 -1.47209 18.8053 10.3942 18.8454 17.1109C24.2548 12.0347 35.6302 5.08372 37.8566 17.8895C40.083 30.6952 20.476 35.7954 10.3942 36.7448C5.64651 28.707 -1.59152 11.0643 7.43808 4.79612Z" fill="#CE4317"/>
<path d="M7.43808 4.79612C16.4677 -1.47209 18.8053 10.3942 18.8454 17.1109C24.2548 12.0347 35.6302 5.08372 37.8566 17.8895C40.083 30.6952 20.476 35.7954 10.3942 36.7448C5.64651 28.707 -1.59152 11.0643 7.43808 4.79612Z" fill="white" fill-opacity="0.15"/>
<path d="M12.218 10.0625C13.3594 9.09983 15.1139 8.40105 13.5357 6.99478C11.9576 5.58856 9.94554 6.90339 8.80372 7.86588C7.35963 9.08315 5.99328 11.0181 7.56932 12.4235C9.67029 14.2969 11.0767 11.0252 12.218 10.0625Z" fill="#FEFEFE"/>
<path d="M9.58049 15.9703C8.91765 15.2977 7.58707 14.6203 6.91444 15.2831C6.2409 15.946 5.69531 17.4114 6.22599 17.9491C6.88975 18.6217 7.93996 19.573 8.89204 18.6364C9.5658 17.9737 10.0492 16.446 9.58049 15.9703Z" fill="#FEFEFE"/>
</svg>
