<svg width="50" height="50" viewBox="0 0 50 50" fill="none" xmlns="http://www.w3.org/2000/svg">
<g clip-path="url(#clip0_1338_7976)">
<g clip-path="url(#clip1_1338_7976)">
<path d="M36.8629 14.7634V18.3862C37.4797 17.6315 38.9907 15.6691 41.9511 15.6691C45.6517 15.6691 47.0394 19.7448 47.0394 22.9149C47.0394 26.0849 45.1891 30.1607 41.9511 30.1607C39.3608 30.1607 37.3255 27.8963 36.8629 27.4435V31.0664C37.3255 31.0664 38.2506 32.8778 41.9511 32.8778C46.5768 32.8778 49.8148 28.8021 49.8148 22.9149C49.8148 17.0277 46.5768 12.9519 41.9511 12.9519C38.7132 12.9519 37.3255 14.7634 36.8629 14.7634Z" fill="#898989"/>
<path d="M36.8629 14.7634V18.3862C37.4797 17.6315 38.9907 15.6691 41.9511 15.6691C45.6517 15.6691 47.0394 19.7448 47.0394 22.9149C47.0394 26.0849 45.1891 30.1607 41.9511 30.1607C39.3608 30.1607 37.3255 27.8963 36.8629 27.4435V31.0664C37.3255 31.0664 38.2506 32.8778 41.9511 32.8778C46.5768 32.8778 49.8148 28.8021 49.8148 22.9149C49.8148 17.0277 46.5768 12.9519 41.9511 12.9519C38.7132 12.9519 37.3255 14.7634 36.8629 14.7634Z" fill="white" fill-opacity="0.95"/>
<path d="M4.98145 6.97412H37.8592V43.3389C37.8592 43.3389 34.8703 48.3204 21.4203 48.3204C7.97036 48.3204 4.98145 43.3389 4.98145 43.3389V6.97412Z" fill="#898989"/>
<path d="M4.98145 6.97412H37.8592V43.3389C37.8592 43.3389 34.8703 48.3204 21.4203 48.3204C7.97036 48.3204 4.98145 43.3389 4.98145 43.3389V6.97412Z" fill="white" fill-opacity="0.85"/>
<ellipse cx="21.4203" cy="6.47598" rx="16.4389" ry="4.48333" fill="#FEFEFE"/>
<ellipse cx="21.4203" cy="6.47597" rx="14.4463" ry="3.48704" fill="#898989"/>
<ellipse cx="21.4203" cy="6.47597" rx="14.4463" ry="3.48704" fill="white" fill-opacity="0.4"/>
<path d="M32.8777 8.46857C32.8777 7.97042 27.748 6.97412 21.4203 6.97412C15.0925 6.97412 9.96289 7.97042 9.96289 8.46857C9.96289 8.96672 15.0925 9.96301 21.4203 9.96301C27.748 9.96301 32.8777 8.96672 32.8777 8.46857Z" fill="#FAA21E"/>
<path d="M32.8777 8.46857C32.8777 7.97042 27.748 6.97412 21.4203 6.97412C15.0925 6.97412 9.96289 7.97042 9.96289 8.46857C9.96289 8.96672 15.0925 9.96301 21.4203 9.96301C27.748 9.96301 32.8777 8.96672 32.8777 8.46857Z" fill="black" fill-opacity="0.6"/>
</g>
<path d="M13.3348 17.1174C19.204 13.0431 20.7235 20.7562 20.7496 25.1221C24.2657 21.8225 31.6597 17.3044 33.1068 25.6281C34.554 33.9519 21.8094 37.267 15.2563 37.8841C12.1703 32.6595 7.46554 21.1918 13.3348 17.1174Z" fill="#CE4317"/>
<path d="M13.3348 17.1174C19.204 13.0431 20.7235 20.7562 20.7496 25.1221C24.2657 21.8225 31.6597 17.3044 33.1068 25.6281C34.554 33.9519 21.8094 37.267 15.2563 37.8841C12.1703 32.6595 7.46554 21.1918 13.3348 17.1174Z" fill="white" fill-opacity="0.15"/>
<path d="M16.4417 20.5406C17.1836 19.9148 18.324 19.4606 17.2982 18.5466C16.2724 17.6325 14.9646 18.4872 14.2224 19.1128C13.2837 19.904 12.3956 21.1617 13.42 22.0752C14.7856 23.2929 15.6998 21.1663 16.4417 20.5406Z" fill="#FEFEFE"/>
<path d="M14.7273 24.3807C14.2964 23.9435 13.4315 23.5031 12.9943 23.934C12.5565 24.3648 12.2019 25.3174 12.5468 25.6669C12.9783 26.1041 13.6609 26.7224 14.2798 26.1137C14.7177 25.6829 15.0319 24.6898 14.7273 24.3807Z" fill="#FEFEFE"/>
</g>
<defs>
<clipPath id="clip0_1338_7976">
<rect width="50" height="50" fill="white"/>
</clipPath>
<clipPath id="clip1_1338_7976">
<rect width="49.8148" height="49.8148" fill="white"/>
</clipPath>
</defs>
</svg>
