<svg width="50" height="50" viewBox="0 0 50 50" fill="none" xmlns="http://www.w3.org/2000/svg">
<path d="M21.5 21.5L25 16L28.5 21.5L34 25L28.5 28.5L25 34L21.5 28.5L16 25L21.5 21.5Z" fill="#898989"/>
<path d="M21.5 21.5L25 16L28.5 21.5L34 25L28.5 28.5L25 34L21.5 28.5L16 25L21.5 21.5Z" fill="white" fill-opacity="0.8"/>
<path d="M25 34L21.5 28.5L25 32L27 31L25 34Z" fill="#FEFEFE"/>
<path d="M25 16V7L31.5 18.5L28.5 21.5L25 16Z" fill="#898989"/>
<path d="M25 16V7L31.5 18.5L28.5 21.5L25 16Z" fill="white" fill-opacity="0.4"/>
<path d="M25 16V7L18.5 18.5L21.5 21.5L25 16Z" fill="#898989"/>
<path d="M25 16V7L18.5 18.5L21.5 21.5L25 16Z" fill="white" fill-opacity="0.6"/>
<path d="M34 25L43 25L31.5 18.5L28.5 21.5L34 25Z" fill="#898989"/>
<path d="M34 25L43 25L31.5 18.5L28.5 21.5L34 25Z" fill="white" fill-opacity="0.6"/>
<path d="M25 34V43L31.5 31.5L28.5 28.5L25 34Z" fill="#898989"/>
<path d="M16 25L7 25L18.5 31.5L21.5 28.5L16 25Z" fill="#898989"/>
<path d="M16 25L7 25L18.5 18.5L21.5 21.5L16 25Z" fill="#898989"/>
<path d="M16 25L7 25L18.5 18.5L21.5 21.5L16 25Z" fill="white" fill-opacity="0.4"/>
<path d="M25.012 34L25 43L18.5 31.5L21.5 28.5L25.012 34Z" fill="#898989"/>
<path d="M25.012 34L25 43L18.5 31.5L21.5 28.5L25.012 34Z" fill="white" fill-opacity="0.6"/>
<path d="M34 24.988L43 25L31.5 31.5L28.5 28.5L34 24.988Z" fill="#898989"/>
<path d="M34 24.988L43 25L31.5 31.5L28.5 28.5L34 24.988Z" fill="black" fill-opacity="0.2"/>
<path d="M25 16L28.5 21.5L25 17.5L22.5 22.5L16 25L21.5 21.5L25 16Z" fill="#FEFEFE"/>
</svg>
