<svg width="50" height="50" viewBox="0 0 50 50" fill="none" xmlns="http://www.w3.org/2000/svg">
<rect x="4" y="4" width="42" height="2" fill="#FEFEFE"/>
<path d="M44 7H6L8 41C8 41.5132 8.5 42.5789 9 43C9.85519 43.7202 10.8311 44 11 44C14.04 44.6842 19 46 25 46C31 46 35.2978 44.6316 38 43.9474C38.3378 43.7763 39.3049 43.5853 40 43C40.5 42.5789 41 42.1316 41 41L44 7Z" fill="#FEFEFE"/>
<rect x="6" y="6" width="38" height="2" fill="#898989"/>
<rect x="6" y="6" width="38" height="2" fill="white" fill-opacity="0.6"/>
<path d="M33.7937 30.3799C32.317 30.7492 30.6058 30.814 29.6893 30.5027C29.6694 29.2861 29.7316 29.0372 30.4207 28.3622C32.6551 26.5993 33.2019 24.9652 33.2019 24.9652C33.2019 24.9652 34.381 25.3335 35.0941 26.1548C35.8073 26.9761 36.512 27.5467 37.5993 28.3622C36.2401 29.5644 34.881 30.1081 33.7937 30.3799Z" fill="#2FC4A7"/>
<path d="M33.7937 30.3799C32.317 30.7492 30.6058 30.814 29.6893 30.5027C29.6694 29.2861 29.7316 29.0372 30.4207 28.3622C32.6551 26.5993 33.2019 24.9652 33.2019 24.9652C33.2019 24.9652 34.381 25.3335 35.0941 26.1548C35.8073 26.9761 36.512 27.5467 37.5993 28.3622C36.2401 29.5644 34.881 30.1081 33.7937 30.3799Z" fill="black" fill-opacity="0.4"/>
<path d="M29.1005 22.7886C28.2812 22.8141 27.3481 23.0404 26.5971 23.0404L25.0951 21.0257C25.3455 20.5219 26.0509 17.9125 28.0536 16.7037C30.557 15.1927 33.9707 15.3459 34.881 15.5722C34.1982 16.4774 33.9079 17.3901 33.7431 19.1932C33.5155 21.6825 31.7708 22.4528 31.3535 22.7886C30.9363 22.7886 29.9012 22.7637 29.1005 22.7886Z" fill="#2FC4A7"/>
<path d="M29.1005 22.7886C28.2812 22.8141 27.3481 23.0404 26.5971 23.0404L25.0951 21.0257C25.3455 20.5219 26.0509 17.9125 28.0536 16.7037C30.557 15.1927 33.9707 15.3459 34.881 15.5722C34.1982 16.4774 33.9079 17.3901 33.7431 19.1932C33.5155 21.6825 31.7708 22.4528 31.3535 22.7886C30.9363 22.7886 29.9012 22.7637 29.1005 22.7886Z" fill="black" fill-opacity="0.4"/>
<path d="M30.9451 29.1365C31.1461 27.6114 34.4115 24.2421 33.706 23.0798C32.8594 21.685 27.4717 22.7308 26.7246 22.5481C25.9775 22.3653 23.5321 17.4887 22.0975 17.7634C20.6629 18.0382 19.8972 23.1132 18.876 24.0512C17.8548 24.9892 13.2045 26.2092 13.1469 27.6725C13.0784 29.4123 17.2953 31.193 18.0008 32.3553C18.7063 33.5176 18.5917 38.0154 19.6608 38.4479C20.7298 38.8805 24.6297 35.5541 25.4682 35.3632C26.3066 35.1724 31.3913 36.9401 32.4056 35.8634C33.4166 34.7902 30.6821 31.1328 30.9451 29.1365Z" fill="#2FC4A7"/>
<path d="M30.9451 29.1365C31.1461 27.6114 34.4115 24.2421 33.706 23.0798C32.8594 21.685 27.4717 22.7308 26.7246 22.5481C25.9775 22.3653 23.5321 17.4887 22.0975 17.7634C20.6629 18.0382 19.8972 23.1132 18.876 24.0512C17.8548 24.9892 13.2045 26.2092 13.1469 27.6725C13.0784 29.4123 17.2953 31.193 18.0008 32.3553C18.7063 33.5176 18.5917 38.0154 19.6608 38.4479C20.7298 38.8805 24.6297 35.5541 25.4682 35.3632C26.3066 35.1724 31.3913 36.9401 32.4056 35.8634C33.4166 34.7902 30.6821 31.1328 30.9451 29.1365Z" fill="white" fill-opacity="0.4"/>
<path d="M22.3768 25.4136C22.3768 26.066 22.9205 26.7728 23.1923 27.0446C23.4641 26.6821 24.0078 25.8485 24.0078 25.4136C24.0078 24.8701 23.736 24.3263 23.1923 24.1564C22.6487 23.9865 22.3768 24.5981 22.3768 25.4136Z" fill="#2FC4A7"/>
<path d="M20.9216 28.6888C21.5625 28.8106 22.3584 28.4085 22.6762 28.1922C22.3709 27.8575 21.6534 27.1677 21.2262 27.0865C20.6922 26.985 20.1072 27.1505 19.8388 27.6529C19.5704 28.1553 20.1205 28.5365 20.9216 28.6888Z" fill="#2FC4A7"/>
<path d="M23.2798 31.1385C23.5205 30.5321 23.2759 29.6747 23.1236 29.3217C22.7372 29.5583 21.9243 30.1326 21.7639 30.5368C21.5633 31.042 21.6154 31.6477 22.058 32.0061C22.5006 32.3646 22.9789 31.8965 23.2798 31.1385Z" fill="#2FC4A7"/>
<path d="M25.4468 31.0446C24.8712 30.5501 24.6289 29.5706 24.5797 29.1427C25.0901 29.1955 26.2069 29.3835 26.5906 29.7131C27.0702 30.1251 27.3593 30.7591 27.128 31.3317C26.8966 31.9043 26.1663 31.6626 25.4468 31.0446Z" fill="#2FC4A7"/>
<path d="M26.5039 28.0086C25.8323 28.3618 25.0951 27.9337 24.4163 28.1149C24.5515 27.1182 25.2392 26.6906 25.6868 26.4551C26.2464 26.1608 26.9424 26.1253 27.3896 26.5512C27.8369 26.977 27.3434 27.5671 26.5039 28.0086Z" fill="#2FC4A7"/>
</svg>
