<svg width="50" height="50" viewBox="0 0 50 50" fill="none" xmlns="http://www.w3.org/2000/svg">
<path d="M41.9109 31.4997C39.0711 32.2098 35.7804 32.3345 34.0179 31.7358C33.9795 29.3962 34.0992 28.9176 35.4245 27.6195C39.7214 24.2293 40.7729 21.0867 40.7729 21.0867C40.7729 21.0867 43.0403 21.795 44.4118 23.3744C45.7833 24.9538 47.1384 26.0512 49.2294 27.6195C46.6156 29.9313 44.0019 30.9769 41.9109 31.4997Z" fill="#2FC4A7"/>
<path d="M41.9109 31.4997C39.0711 32.2098 35.7804 32.3345 34.0179 31.7358C33.9795 29.3962 34.0992 28.9176 35.4245 27.6195C39.7214 24.2293 40.7729 21.0867 40.7729 21.0867C40.7729 21.0867 43.0403 21.795 44.4118 23.3744C45.7833 24.9538 47.1384 26.0512 49.2294 27.6195C46.6156 29.9313 44.0019 30.9769 41.9109 31.4997Z" fill="black" fill-opacity="0.4"/>
<path d="M32.8856 16.9012C31.31 16.9502 29.5157 17.3854 28.0714 17.3855L25.1829 13.511C25.6643 12.5423 27.021 7.52418 30.8724 5.19955C35.6865 2.2938 42.2513 2.58831 44.0019 3.02358C42.6889 4.76435 42.1306 6.51949 41.8136 9.98693C41.376 14.7742 38.0207 16.2554 37.2183 16.9012C36.416 16.9012 34.4254 16.8533 32.8856 16.9012Z" fill="#2FC4A7"/>
<path d="M32.8856 16.9012C31.31 16.9502 29.5157 17.3854 28.0714 17.3855L25.1829 13.511C25.6643 12.5423 27.021 7.52418 30.8724 5.19955C35.6865 2.2938 42.2513 2.58831 44.0019 3.02358C42.6889 4.76435 42.1306 6.51949 41.8136 9.98693C41.376 14.7742 38.0207 16.2554 37.2183 16.9012C36.416 16.9012 34.4254 16.8533 32.8856 16.9012Z" fill="black" fill-opacity="0.4"/>
<path d="M36.4329 29.1088C36.8193 26.1759 43.0991 19.6963 41.7423 17.4612C40.1142 14.779 29.7533 16.79 28.3165 16.4386C26.8797 16.0872 22.1771 6.70899 19.4182 7.2374C16.6593 7.7658 15.1869 17.5255 13.2231 19.3293C11.2593 21.1331 2.3163 23.4793 2.20553 26.2932C2.07383 29.6391 10.1832 33.0636 11.54 35.2987C12.8967 37.5339 12.6763 46.1835 14.7323 47.0153C16.7882 47.8471 24.2879 41.4502 25.9003 41.0832C27.5128 40.7162 37.2909 44.1157 39.2415 42.045C41.1858 39.9811 35.9272 32.9476 36.4329 29.1088Z" fill="#2FC4A7"/>
<path d="M36.4329 29.1088C36.8193 26.1759 43.0991 19.6963 41.7423 17.4612C40.1142 14.779 29.7533 16.79 28.3165 16.4386C26.8797 16.0872 22.1771 6.70899 19.4182 7.2374C16.6593 7.7658 15.1869 17.5255 13.2231 19.3293C11.2593 21.1331 2.3163 23.4793 2.20553 26.2932C2.07383 29.6391 10.1832 33.0636 11.54 35.2987C12.8967 37.5339 12.6763 46.1835 14.7323 47.0153C16.7882 47.8471 24.2879 41.4502 25.9003 41.0832C27.5128 40.7162 37.2909 44.1157 39.2415 42.045C41.1858 39.9811 35.9272 32.9476 36.4329 29.1088Z" fill="white" fill-opacity="0.4"/>
<path d="M19.9554 21.9491C19.9554 23.2037 21.0009 24.5628 21.5237 25.0856C22.0464 24.3885 23.0919 22.7853 23.0919 21.9491C23.0919 20.9037 22.5692 19.8581 21.5237 19.5314C20.4782 19.2046 19.9554 20.3808 19.9554 21.9491Z" fill="#2FC4A7"/>
<path d="M17.157 28.2474C18.3895 28.4816 19.92 27.7083 20.5311 27.2924C19.944 26.6487 18.5642 25.3222 17.7427 25.166C16.7157 24.9708 15.5908 25.2891 15.0746 26.2552C14.5584 27.2213 15.6163 27.9545 17.157 28.2474Z" fill="#2FC4A7"/>
<path d="M21.6919 32.9588C22.1548 31.7927 21.6845 30.1437 21.3915 29.465C20.6484 29.92 19.0852 31.0243 18.7767 31.8016C18.391 32.7731 18.4911 33.9379 19.3423 34.6273C20.1935 35.3167 21.1133 34.4164 21.6919 32.9588Z" fill="#2FC4A7"/>
<path d="M25.8593 32.7778C24.7524 31.8269 24.2864 29.9433 24.1917 29.1203C25.1733 29.2219 27.321 29.5835 28.0588 30.2174C28.9812 31.0097 29.5372 32.229 29.0922 33.3301C28.6473 34.4312 27.243 33.9665 25.8593 32.7778Z" fill="#2FC4A7"/>
<path d="M27.8921 26.9393C26.6005 27.6186 25.1829 26.7951 23.8776 27.1437C24.1374 25.2269 25.4599 24.4045 26.3208 23.9518C27.397 23.3858 28.7353 23.3176 29.5954 24.1365C30.4555 24.9554 29.5065 26.0902 27.8921 26.9393Z" fill="#2FC4A7"/>
</svg>
