<svg width="50" height="50" viewBox="0 0 50 50" fill="none" xmlns="http://www.w3.org/2000/svg">
<g clip-path="url(#clip0_3647_29775)">
<path d="M9.70074 1.99249H39.8518V4.98138L40.8481 6.97397H44.8333V47.8221H11.2738C10.7495 47.8221 8.12764 47.8221 6.55454 46.2597C4.98145 44.6974 4.98145 43.135 4.98145 42.6142V6.67961C4.98145 5.63803 5.71556 4.38813 6.55454 3.55487C7.39353 2.7216 8.65201 1.99249 9.70074 1.99249Z" fill="#2FC4A7"/>
<path d="M9.70074 1.99249H39.8518V4.98138L40.8481 6.97397H44.8333V47.8221H11.2738C10.7495 47.8221 8.12764 47.8221 6.55454 46.2597C4.98145 44.6974 4.98145 43.135 4.98145 42.6142V6.67961C4.98145 5.63803 5.71556 4.38813 6.55454 3.55487C7.39353 2.7216 8.65201 1.99249 9.70074 1.99249Z" fill="black" fill-opacity="0.4"/>
<path d="M42.8407 9.0662L39.8518 4.98138V39.8518H37.8593L42.8407 45.8295V9.0662Z" fill="#898989"/>
<path d="M42.8407 9.0662L39.8518 4.98138V39.8518H37.8593L42.8407 45.8295V9.0662Z" fill="white" fill-opacity="0.2"/>
<path d="M10.093 39.8517H37.8593L42.8408 45.8295H10.093C9.58856 45.8295 6.97412 45.0823 6.97412 42.8406C6.97412 40.599 9.58856 39.8517 10.093 39.8517Z" fill="#898989"/>
<path d="M10.093 39.8517H37.8593L42.8408 45.8295H10.093C9.58856 45.8295 6.97412 45.0823 6.97412 42.8406C6.97412 40.599 9.58856 39.8517 10.093 39.8517Z" fill="white" fill-opacity="0.4"/>
<g clip-path="url(#clip1_3647_29775)">
<circle cx="23" cy="21" r="14.08" stroke="#2FC4A7" stroke-width="1.28"/>
<circle cx="23" cy="21" r="14.08" stroke="white" stroke-opacity="0.95" stroke-width="1.28"/>
<circle cx="23" cy="21" r="10.2756" stroke="#2FC4A7" stroke-width="1.20889"/>
<circle cx="23" cy="21" r="10.2756" stroke="white" stroke-opacity="0.95" stroke-width="1.20889"/>
<path d="M19.16 21H23M26.84 21H23M23 21V17.16M23 21V24.84" stroke="#2FC4A7" stroke-width="1.28"/>
<path d="M19.16 21H23M26.84 21H23M23 21V17.16M23 21V24.84" stroke="white" stroke-opacity="0.4" stroke-width="1.28"/>
<path d="M23 12.68V5M30.68 21H39M23 28.68V37M7 21H15.32" stroke="#2FC4A7" stroke-width="1.28"/>
<path d="M23 12.68V5M30.68 21H39M23 28.68V37M7 21H15.32" stroke="white" stroke-opacity="0.95" stroke-width="1.28"/>
</g>
</g>
<defs>
<clipPath id="clip0_3647_29775">
<rect width="50" height="50" fill="white" transform="matrix(-1 0 0 1 50 0)"/>
</clipPath>
<clipPath id="clip1_3647_29775">
<rect width="32" height="32" fill="white" transform="matrix(-1 0 0 1 39 5)"/>
</clipPath>
</defs>
</svg>
