<svg width="50" height="50" viewBox="0 0 50 50" fill="none" xmlns="http://www.w3.org/2000/svg">
<path d="M40.8451 5L0 18.5L50 37L40.8451 5Z" fill="#FAA21E"/>
<path d="M40.8451 5L0 18.5L50 37L40.8451 5Z" fill="white" fill-opacity="0.6"/>
<path d="M39 8.5L8.5 18.5L45.5 32.3L39 8.5Z" fill="#FAA21E"/>
<path d="M39 8.5L8.5 18.5L45.5 32.3L39 8.5Z" fill="black" fill-opacity="0.1"/>
<path d="M39 12.5V8.5L45.5 32.3L44.5 32L39 12.5Z" fill="#FAA21E"/>
<path d="M39 12.5V8.5L45.5 32.3L44.5 32L39 12.5Z" fill="white" fill-opacity="0.2"/>
<path d="M39 12.4204L15.5 20.5L44.5 31.9L39 12.4204Z" fill="#898989"/>
<path d="M39 12.4204L15.5 20.5L44.5 31.9L39 12.4204Z" fill="white" fill-opacity="0.4"/>
<path d="M36.5 13.2583L14 20.6L42.5 31.162C38.5 28.2747 29 24 29 19C29 16.5 34.1667 14.3389 36.5 13.2583Z" fill="#898989"/>
<path d="M0 26.5V18.5L50 37V45L0 26.5Z" fill="#FAA21E"/>
<path d="M0 26.5V18.5L50 37V45L0 26.5Z" fill="black" fill-opacity="0.1"/>
</svg>
