<svg width="50" height="50" viewBox="0 0 50 50" fill="none" xmlns="http://www.w3.org/2000/svg">
<path d="M37.1688 43.7903C42.3882 39.2855 45.2692 31.1565 44.3161 23.7134C42.1214 16.5073 37.9119 12.4619 27.9052 10.2096C15.3968 7.39425 10.5476 11.9824 7.21895 17.429C3.47884 23.5489 3.79008 32.6632 6.29689 37.8743C9.54314 44.6226 14.6641 48.0188 20.6681 49.3701C26.6721 50.7215 31.9494 48.295 37.1688 43.7903Z" fill="#D0333D"/>
<path d="M37.1688 43.7903C42.3882 39.2855 45.2692 31.1565 44.3161 23.7134C42.1214 16.5073 37.9119 12.4619 27.9052 10.2096C15.3968 7.39425 10.5476 11.9824 7.21895 17.429C3.47884 23.5489 3.79008 32.6632 6.29689 37.8743C9.54314 44.6226 14.6641 48.0188 20.6681 49.3701C26.6721 50.7215 31.9494 48.295 37.1688 43.7903Z" fill="white" fill-opacity="0.6"/>
<path d="M28.4862 0.0140587L23.9305 1.57028C24.4501 2.37566 25.8502 3.55132 26.2688 5.19452C26.6875 6.83772 26.4022 8.49458 25.8843 9.23855C24.4939 8.40928 21.3234 6.1467 18.8217 5.58362C15.8197 4.90794 12.4297 5.17757 10.4845 5.25607C11.4869 7.03066 14.1027 10.201 15.9934 11.1429C17.8277 12.0567 20.1629 12.0814 20.9968 12.269C20.5895 12.5216 18.7742 12.8014 17.052 13.4464C14.9941 14.2171 13.5531 15.7569 13.1651 16.7022C14.5923 17.3676 17.9135 18.4938 19.7801 17.6747C21.6466 16.8557 23.4089 15.5657 24.0567 15.023C23.9461 15.5145 23.1139 16.8761 23.2824 18.463C23.4529 20.0689 25.5277 21.7221 26.6214 22.3125C27.7327 22.0463 29.6214 21.129 30.2871 20.0396C30.9528 18.9503 30.5803 17.1798 30.561 16.487C31.4704 17.8965 33.0665 19.648 34.9007 20.5617C36.7915 21.5036 39.2932 22.0667 40.6836 22.896C40.8679 22.0769 40.5024 19.9638 39.5671 18.5141C38.3979 16.702 36.3966 16.2515 35.6171 15.0434C37.1181 15.3813 39.3986 16.9272 41.6211 16.3948C43.413 15.9656 46.435 13.6919 47.1196 12.9855C45.2289 12.0436 39.7358 10.2909 37.3341 9.75035C34.9325 9.20981 31.2019 9.74699 29.887 10.1395C29.9783 8.95526 30.1272 6.26948 29.9924 4.99997C29.8576 3.73045 28.9321 1.14706 28.4862 0.0140587Z" fill="#2FC4A7"/>
<path d="M28.4862 0.0140587L23.9305 1.57028C24.4501 2.37566 25.8502 3.55132 26.2688 5.19452C26.6875 6.83772 26.4022 8.49458 25.8843 9.23855C24.4939 8.40928 21.3234 6.1467 18.8217 5.58362C15.8197 4.90794 12.4297 5.17757 10.4845 5.25607C11.4869 7.03066 14.1027 10.201 15.9934 11.1429C17.8277 12.0567 20.1629 12.0814 20.9968 12.269C20.5895 12.5216 18.7742 12.8014 17.052 13.4464C14.9941 14.2171 13.5531 15.7569 13.1651 16.7022C14.5923 17.3676 17.9135 18.4938 19.7801 17.6747C21.6466 16.8557 23.4089 15.5657 24.0567 15.023C23.9461 15.5145 23.1139 16.8761 23.2824 18.463C23.4529 20.0689 25.5277 21.7221 26.6214 22.3125C27.7327 22.0463 29.6214 21.129 30.2871 20.0396C30.9528 18.9503 30.5803 17.1798 30.561 16.487C31.4704 17.8965 33.0665 19.648 34.9007 20.5617C36.7915 21.5036 39.2932 22.0667 40.6836 22.896C40.8679 22.0769 40.5024 19.9638 39.5671 18.5141C38.3979 16.702 36.3966 16.2515 35.6171 15.0434C37.1181 15.3813 39.3986 16.9272 41.6211 16.3948C43.413 15.9656 46.435 13.6919 47.1196 12.9855C45.2289 12.0436 39.7358 10.2909 37.3341 9.75035C34.9325 9.20981 31.2019 9.74699 29.887 10.1395C29.9783 8.95526 30.1272 6.26948 29.9924 4.99997C29.8576 3.73045 28.9321 1.14706 28.4862 0.0140587Z" fill="white" fill-opacity="0.2"/>
<ellipse cx="15.3401" cy="23.3877" rx="1.53856" ry="2.5186" transform="rotate(12.6846 15.3401 23.3877)" fill="#CE4317"/>
<ellipse cx="15.3401" cy="23.3877" rx="1.53856" ry="2.5186" transform="rotate(12.6846 15.3401 23.3877)" fill="black" fill-opacity="0.15"/>
<ellipse cx="23.9037" cy="27.3799" rx="1.53856" ry="2.5186" transform="rotate(12.6846 23.9037 27.3799)" fill="#CE4317"/>
<ellipse cx="23.9037" cy="27.3799" rx="1.53856" ry="2.5186" transform="rotate(12.6846 23.9037 27.3799)" fill="black" fill-opacity="0.15"/>
<ellipse cx="33.3521" cy="27.4419" rx="1.53856" ry="2.5186" transform="rotate(12.6846 33.3521 27.4419)" fill="#CE4317"/>
<ellipse cx="33.3521" cy="27.4419" rx="1.53856" ry="2.5186" transform="rotate(12.6846 33.3521 27.4419)" fill="black" fill-opacity="0.15"/>
<ellipse cx="9.22036" cy="17.8794" rx="1.53856" ry="2.5186" transform="rotate(12.6846 9.22036 17.8794)" fill="#CE4317"/>
<ellipse cx="9.22036" cy="17.8794" rx="1.53856" ry="2.5186" transform="rotate(12.6846 9.22036 17.8794)" fill="black" fill-opacity="0.15"/>
<ellipse cx="8.78824" cy="29.1412" rx="1.53856" ry="2.5186" transform="rotate(12.6846 8.78824 29.1412)" fill="#CE4317"/>
<ellipse cx="8.78824" cy="29.1412" rx="1.53856" ry="2.5186" transform="rotate(12.6846 8.78824 29.1412)" fill="black" fill-opacity="0.15"/>
<ellipse cx="16.9095" cy="35.0997" rx="1.53856" ry="2.5186" transform="rotate(12.6846 16.9095 35.0997)" fill="#CE4317"/>
<ellipse cx="16.9095" cy="35.0997" rx="1.53856" ry="2.5186" transform="rotate(12.6846 16.9095 35.0997)" fill="black" fill-opacity="0.15"/>
<ellipse cx="26.9162" cy="37.3521" rx="1.53856" ry="2.5186" transform="rotate(12.6846 26.9162 37.3521)" fill="#CE4317"/>
<ellipse cx="26.9162" cy="37.3521" rx="1.53856" ry="2.5186" transform="rotate(12.6846 26.9162 37.3521)" fill="black" fill-opacity="0.15"/>
<ellipse cx="20.7012" cy="46.2794" rx="1.53856" ry="2.5186" transform="rotate(12.6846 20.7012 46.2794)" fill="#CE4317"/>
<ellipse cx="20.7012" cy="46.2794" rx="1.53856" ry="2.5186" transform="rotate(12.6846 20.7012 46.2794)" fill="black" fill-opacity="0.15"/>
<ellipse cx="10.5788" cy="39.8707" rx="1.53856" ry="2.5186" transform="rotate(12.6846 10.5788 39.8707)" fill="#CE4317"/>
<ellipse cx="10.5788" cy="39.8707" rx="1.53856" ry="2.5186" transform="rotate(12.6846 10.5788 39.8707)" fill="black" fill-opacity="0.15"/>
<ellipse cx="31.8139" cy="43.6182" rx="1.53856" ry="2.5186" transform="rotate(12.6846 31.8139 43.6182)" fill="#CE4317"/>
<ellipse cx="31.8139" cy="43.6182" rx="1.53856" ry="2.5186" transform="rotate(12.6846 31.8139 43.6182)" fill="black" fill-opacity="0.15"/>
<ellipse cx="42.2425" cy="25.3121" rx="1.53856" ry="2.5186" transform="rotate(12.6846 42.2425 25.3121)" fill="#CE4317"/>
<ellipse cx="42.2425" cy="25.3121" rx="1.53856" ry="2.5186" transform="rotate(12.6846 42.2425 25.3121)" fill="black" fill-opacity="0.15"/>
<ellipse cx="38.0288" cy="34.69" rx="1.53856" ry="2.5186" transform="rotate(12.6846 38.0288 34.69)" fill="#CE4317"/>
<ellipse cx="38.0288" cy="34.69" rx="1.53856" ry="2.5186" transform="rotate(12.6846 38.0288 34.69)" fill="black" fill-opacity="0.15"/>
</svg>
