<svg width="50" height="50" viewBox="0 0 50 50" fill="none" xmlns="http://www.w3.org/2000/svg">
<path d="M24.974 1.99976L2 9.99978L24.974 18.0441L48 9.99968L24.974 1.99976Z" fill="#D0333D"/>
<path d="M24.974 1.99976L2 9.99978L24.974 18.0441L48 9.99968L24.974 1.99976Z" fill="white" fill-opacity="0.6"/>
<path d="M25 26L1.99998 17.9999L1.99999 23L25.0015 31L48 22.9999L48 17.9999L25 26Z" fill="#D0333D"/>
<path d="M25 26L1.99998 17.9999L1.99999 23L25.0015 31L48 22.9999L48 17.9999L25 26Z" fill="white" fill-opacity="0.6"/>
<path d="M25 18.0001L1.99995 10L1.99998 12.0001L25 20.0001L48 12.0001L48 10.0001L25 18.0001Z" fill="#D0333D"/>
<path d="M25 18.0001L1.99995 10L1.99998 12.0001L25 20.0001L48 12.0001L48 10.0001L25 18.0001Z" fill="white" fill-opacity="0.6"/>
<path d="M25 36.9998L2.00003 28.9999L2.00002 33.9998L25 41.9998L48 33.9998L48 28.9998L25 36.9998Z" fill="#D0333D"/>
<path d="M25 36.9998L2.00003 28.9999L2.00002 33.9998L25 41.9998L48 33.9998L48 28.9998L25 36.9998Z" fill="white" fill-opacity="0.6"/>
<path d="M25 30.9998L1.99996 22.9999L1.99996 28.9998L25 36.9998L48 28.9998L48 22.9998L25 30.9998Z" fill="#FAA21E"/>
<path d="M25 30.9998L1.99996 22.9999L1.99996 28.9998L25 36.9998L48 28.9998L48 22.9998L25 30.9998Z" fill="white" fill-opacity="0.6"/>
<path d="M25 42L2.00002 33.9999L2.00002 40L25 48L48 40L48 34L25 42Z" fill="#FAA21E"/>
<path d="M25 42L2.00002 33.9999L2.00002 40L25 48L48 40L48 34L25 42Z" fill="white" fill-opacity="0.6"/>
<path d="M25.0023 19.9998L1.99998 11.9999L2.00002 17.9998L25.0023 25.9998L48 17.9999L48 11.9999L25.0023 19.9998Z" fill="#FAA21E"/>
<path d="M25.0023 19.9998L1.99998 11.9999L2.00002 17.9998L25.0023 25.9998L48 17.9999L48 11.9999L25.0023 19.9998Z" fill="white" fill-opacity="0.6"/>
<ellipse cx="26.0541" cy="6.79497" rx="1.53856" ry="2.5186" transform="rotate(12.6846 26.0541 6.79497)" fill="#CE4317"/>
<ellipse cx="26.0541" cy="6.79497" rx="1.53856" ry="2.5186" transform="rotate(12.6846 26.0541 6.79497)" fill="black" fill-opacity="0.15"/>
<ellipse cx="14.054" cy="9.79498" rx="1.53856" ry="2.5186" transform="rotate(12.6846 14.054 9.79498)" fill="#CE4317"/>
<ellipse cx="14.054" cy="9.79498" rx="1.53856" ry="2.5186" transform="rotate(12.6846 14.054 9.79498)" fill="black" fill-opacity="0.15"/>
<ellipse cx="23.054" cy="13.795" rx="1.53856" ry="2.5186" transform="rotate(12.6846 23.054 13.795)" fill="#CE4317"/>
<ellipse cx="23.054" cy="13.795" rx="1.53856" ry="2.5186" transform="rotate(12.6846 23.054 13.795)" fill="black" fill-opacity="0.15"/>
<ellipse cx="37.0541" cy="10.795" rx="1.53856" ry="2.5186" transform="rotate(12.6846 37.0541 10.795)" fill="#CE4317"/>
<ellipse cx="37.0541" cy="10.795" rx="1.53856" ry="2.5186" transform="rotate(12.6846 37.0541 10.795)" fill="black" fill-opacity="0.15"/>
</svg>
