<svg width="50" height="50" viewBox="0 0 50 50" fill="none" xmlns="http://www.w3.org/2000/svg">
<path d="M9.73684 2H40V5L41 7H45V48H11.3158C10.7895 48 8.15789 48 6.57895 46.4318C5 44.8636 5 43.2955 5 42.7727V6.70455C5 5.65909 5.73684 4.40455 6.57895 3.56818C7.42105 2.73182 8.68421 2 9.73684 2Z" fill="#D0333D"/>
<path d="M9.73684 2H40V5L41 7H45V48H11.3158C10.7895 48 8.15789 48 6.57895 46.4318C5 44.8636 5 43.2955 5 42.7727V6.70455C5 5.65909 5.73684 4.40455 6.57895 3.56818C7.42105 2.73182 8.68421 2 9.73684 2Z" fill="black" fill-opacity="0.2"/>
<path d="M43 9.1L40 5V40H38L43 46V9.1Z" fill="#898989"/>
<path d="M10.1304 40H38L43 46H10.1304C9.62415 46 7 45.25 7 43C7 40.75 9.62415 40 10.1304 40Z" fill="#898989"/>
<path d="M10.1304 40H38L43 46H10.1304C9.62415 46 7 45.25 7 43C7 40.75 9.62415 40 10.1304 40Z" fill="white" fill-opacity="0.4"/>
<path d="M16.1825 26.3524L18.492 28.3999L21.153 26.8361L19.9194 29.6653L22.229 31.7128L19.157 31.4138L17.9234 34.2431L17.2584 31.2291L14.1865 30.9302L16.8475 29.3664L16.1825 26.3524Z" fill="#FEFEFE"/>
<path d="M36.6814 35.0435L34.71 33.8624L32.7896 35.2615L33.3036 32.8771L31.5096 31.4202L33.7987 31.1277L34.6104 28.8282L35.5111 31.0318L37.8067 31.0675L36.0743 32.722L36.6814 35.0435Z" fill="#FEFEFE"/>
<path d="M9.41784 18.964L11.5151 20.1554L13.2717 18.3797L12.8112 20.8917L14.9085 22.083L12.5266 22.4441L12.0661 24.9561L11.0546 22.6673L8.67274 23.0284L10.4294 21.2528L9.41784 18.964Z" fill="#FEFEFE"/>
<path d="M28.0482 12.3453L29.4019 9.96537L27.7143 7.97462L30.4778 8.29237L32.0967 6.05L32.4509 8.62631L35.139 9.2312L32.5945 10.5057L32.6369 13.1219L30.7101 11.3333L28.0482 12.3453Z" fill="#FEFEFE"/>
<rect x="26.6848" y="21.9547" width="22.4" height="2.56" rx="1.28" transform="rotate(-142.474 26.6848 21.9547)" fill="#FEFEFE"/>
<path d="M22.7351 26.9213L26.7957 30.04C27.3563 30.4706 28.1599 30.3652 28.5905 29.8046L36.3873 19.6532C36.8179 19.0926 36.7125 18.289 36.1518 17.8584L32.0913 14.7397C31.5306 14.3091 30.7271 14.4145 30.2965 14.9751L22.4997 25.1265C22.0691 25.6871 22.1745 26.4907 22.7351 26.9213Z" fill="#FEFEFE"/>
<rect x="35.3866" y="22.1825" width="8.96" height="1.28" rx="0.64" transform="rotate(-142.474 35.3866 22.1825)" fill="#FEFEFE"/>
<rect x="29.9288" y="29.2883" width="8.96" height="1.28" rx="0.64" transform="rotate(-142.474 29.9288 29.2883)" fill="#FEFEFE"/>
</svg>
