<svg width="50" height="50" viewBox="0 0 50 50" fill="none" xmlns="http://www.w3.org/2000/svg">
<path d="M28.125 17.6154C27.5 17.4103 27.5 17 25.625 17C23.75 17 21.875 17 20.625 18.2308L0 38.5385C0.625 38.9487 2.25 39.8923 3.75 40.3846C5.25 40.8769 6.45833 42.2308 6.875 42.8462C7.5 43.2564 8.875 44.3231 9.375 45.3077C9.875 46.2923 12.0833 46.9487 13.125 47.1538C15 47.7692 19.125 49 20.625 49C22.5 49 26.875 46.5385 28.75 46.5385C30.625 46.5385 34.9242 49.0747 36.25 47.7692C36.875 47.1538 36.875 45.3077 37.5 44.0769C38.125 42.8462 43.125 44.6923 44.375 44.6923C45.625 44.6923 46.25 41.6154 46.875 41C47.375 40.5077 49.1667 37.9231 50 36.6923L28.125 17.6154Z" fill="#1D8CE0"/>
<path d="M28.125 17.6154C27.5 17.4103 27.5 17 25.625 17C23.75 17 21.875 17 20.625 18.2308L0 38.5385C0.625 38.9487 2.25 39.8923 3.75 40.3846C5.25 40.8769 6.45833 42.2308 6.875 42.8462C7.5 43.2564 8.875 44.3231 9.375 45.3077C9.875 46.2923 12.0833 46.9487 13.125 47.1538C15 47.7692 19.125 49 20.625 49C22.5 49 26.875 46.5385 28.75 46.5385C30.625 46.5385 34.9242 49.0747 36.25 47.7692C36.875 47.1538 36.875 45.3077 37.5 44.0769C38.125 42.8462 43.125 44.6923 44.375 44.6923C45.625 44.6923 46.25 41.6154 46.875 41C47.375 40.5077 49.1667 37.9231 50 36.6923L28.125 17.6154Z" fill="white" fill-opacity="0.95"/>
<path d="M28.125 17.6199C27.5 17 26.25 17 25.625 17C25.4167 17.4133 25 19.108 25 20.1C25 21.34 28.125 22.58 28.125 24.44C28.125 26.3 25.625 27.54 26.25 29.4C26.875 31.26 29.375 31.88 30 33.12C30.625 34.36 29.2094 37.7515 30 39.32C30.625 40.56 31.875 40.56 32.5 41.8C33.125 43.04 32.7297 44.1158 33.125 44.9C33.75 46.14 35.4167 47.38 36.25 48C37.5 47.38 36.875 44.9 38.125 44.28C39.8928 43.4032 41.875 44.9 44.375 44.9C46.25 44.9 46.25 41.8 46.875 41.18C47.5 40.56 50 38.08 50 36.84C43.5417 30.64 28.75 18.2398 28.125 17.6199Z" fill="#898989"/>
<path d="M28.125 17.6199C27.5 17 26.25 17 25.625 17C25.4167 17.4133 25 19.108 25 20.1C25 21.34 28.125 22.58 28.125 24.44C28.125 26.3 25.625 27.54 26.25 29.4C26.875 31.26 29.375 31.88 30 33.12C30.625 34.36 29.2094 37.7515 30 39.32C30.625 40.56 31.875 40.56 32.5 41.8C33.125 43.04 32.7297 44.1158 33.125 44.9C33.75 46.14 35.4167 47.38 36.25 48C37.5 47.38 36.875 44.9 38.125 44.28C39.8928 43.4032 41.875 44.9 44.375 44.9C46.25 44.9 46.25 41.8 46.875 41.18C47.5 40.56 50 38.08 50 36.84C43.5417 30.64 28.75 18.2398 28.125 17.6199Z" fill="white" fill-opacity="0.6"/>
<circle cx="30" cy="12" r="2" fill="#FEFEFE"/>
<circle cx="38.5" cy="39.5" r="1.5" fill="#FEFEFE"/>
<circle cx="15" cy="40" r="2" fill="#898989"/>
<circle cx="15" cy="40" r="2" fill="white" fill-opacity="0.6"/>
<circle cx="21.5" cy="43.5" r="1.5" fill="#898989"/>
<circle cx="21.5" cy="43.5" r="1.5" fill="white" fill-opacity="0.6"/>
<circle cx="21" cy="9" r="2" fill="#FEFEFE"/>
<circle cx="24.5" cy="2.5" r="1.5" fill="#FEFEFE"/>
</svg>
