<?xml version="1.0" encoding="utf-8"?><svg fill="none" viewBox="0 0 50 50" xmlns="http://www.w3.org/2000/svg" width="50" height="50"><g clip-path="url(#bdxa)"><path d="m0 50 5-1 3-3 29-29-4-4L4 42l-3 3-1 5Z" fill="#7445B8"/><path d="m0 50 5-1 3-3 29-29-4-4L4 42l-3 3-1 5Z" fill="#000" fill-opacity=".2"/><path d="m42.592 43.753-30.42-5.926-5.925-30.42" stroke="#7445B8"/><path d="m42.592 43.753-30.42-5.926-5.925-30.42" stroke="#fff" stroke-opacity=".4"/><path d="M49.704 31.11C45.49 34.847 44.474 42.559 45 50c-3.95-3.95-7.938-12.568-3.593-16.914C33.901 29.531 32.34 20.821 35.5 14.5c-6.321 3.16-14.24.809-18.586-6.698C12.173 12.543 4.74 9.741 0 5c6.403.864 14.118-.167 18.494-5.099 2.37 10.272 9.086 15.407 19.753 11.852C34.691 22.42 39.64 28.948 49.704 31.11Z" fill="#7445B8"/><path d="M49.704 31.11C45.49 34.847 44.474 42.559 45 50c-3.95-3.95-7.938-12.568-3.593-16.914C33.901 29.531 32.34 20.821 35.5 14.5c-6.321 3.16-14.24.809-18.586-6.698C12.173 12.543 4.74 9.741 0 5c6.403.864 14.118-.167 18.494-5.099 2.37 10.272 9.086 15.407 19.753 11.852C34.691 22.42 39.64 28.948 49.704 31.11Z" fill="#000" fill-opacity=".2"/><path d="M49.703 31.111C45.49 34.846 44.474 42.558 45 50c-2.604-5.988-4.778-13.358-.432-17.704-7.506-3.555-8.176-10.284-8.068-18.796-8.149.36-14.846-.957-19.192-8.463-4.74 4.74-11.562 2.8-17.308 0 6.403.864 14.117-.204 18.494-5.136C20.864 10.173 29.834 13.056 40.5 9.5c-3.556 10.667-.86 19.448 9.203 21.611Z" fill="#7445B8"/><path d="M49.703 31.111C45.49 34.846 44.474 42.558 45 50c-2.604-5.988-4.778-13.358-.432-17.704-7.506-3.555-8.176-10.284-8.068-18.796-8.149.36-14.846-.957-19.192-8.463-4.74 4.74-11.562 2.8-17.308 0 6.403.864 14.117-.204 18.494-5.136C20.864 10.173 29.834 13.056 40.5 9.5c-3.556 10.667-.86 19.448 9.203 21.611Z" fill="#fff" fill-opacity=".2"/><path d="M3.828 46.173 48 2" stroke="#7445B8"/><path d="M3.828 46.173 48 2" stroke="#fff" stroke-opacity=".8"/><path d="m0 44 4-2 .5 3.5L8 46l-2 4H0v-6Z" fill="#7445B8"/><path d="m0 44 4-2 .5 3.5L8 46l-2 4H0v-6Z" fill="#fff" fill-opacity=".2"/><path d="M40 3.5 49.75.25 45 5l-5-1.5Z" fill="#7445B8"/><path d="M40 3.5 49.75.25 45 5l-5-1.5Z" fill="#fff" fill-opacity=".4"/><path d="M46.5 10 49.75.25 45 5l1.5 5Z" fill="#7445B8"/><path d="M46.5 10 49.75.25 45 5l1.5 5Z" fill="#fff" fill-opacity=".6"/><g clip-path="url(#bdxb)"><path d="m18.082 8.03.336 1.16-3.186-.585.726-.964 2.124.39Z" fill="#FAA21E"/><path d="m18.082 8.03.336 1.16-3.186-.585.726-.964 2.124.39Z" fill="#000" fill-opacity=".1"/><path d="m15.958 7.64-.726.965-1.25-3.157 1.328.244.648 1.949Z" fill="#FAA21E"/><path d="m18.082 8.03.336 1.16 2.29-2.506-1.327-.244-1.299 1.59ZM18.026 2.363 15.31 5.692l-1.327-.244 4.468-5.4-.425 2.315Z" fill="#C57A09"/><path d="M16.609 4.1 15.31 5.693l-1.15-.212c.458-.007.716.002 1.022-.086.305-.089 1.02-.91 1.427-1.293Z" fill="#FAA21E"/><path d="M16.609 4.1 15.31 5.693l-1.15-.212c.458-.007.716.002 1.022-.086.305-.089 1.02-.91 1.427-1.293Z" fill="#fff" fill-opacity=".95"/><path d="m19.38 6.44 1.328.244L18.451.048l-.425 2.314 1.355 4.078Z" fill="#FAA21E"/><path d="m19.38 6.44 1.328.244L18.451.048l-.425 2.314 1.355 4.078Z" fill="#fff" fill-opacity=".2"/><path d="m15.958 7.64 2.124.39 1.299-1.59-1.352-4.091-2.719 3.343.648 1.949Z" fill="#FAA21E"/><path d="m15.958 7.64 2.124.39 1.299-1.59-1.352-4.091-2.719 3.343.648 1.949Z" fill="#fff" fill-opacity=".4"/><path d="m18.082 8.03 1.299-1.59c-.289.353-.975 1.09-1.41 1.204-.437.116-1.524.046-2.013-.003l2.124.39Z" fill="#FAA21E"/><path d="m18.082 8.03 1.299-1.59c-.289.353-.975 1.09-1.41 1.204-.437.116-1.524.046-2.013-.003l2.124.39Z" fill="#fff" fill-opacity=".95"/></g><g clip-path="url(#bdxc)"><path d="m41.697 32.08-1.18-.252.81 3.137.91-.793-.54-2.091Z" fill="#FAA21E"/><path d="m41.697 32.08-1.18-.252.81 3.137.91-.793-.54-2.091Z" fill="#000" fill-opacity=".1"/><path d="m42.237 34.172-.91.793 3.238 1.022-.338-1.307-1.99-.508Z" fill="#FAA21E"/><path d="m41.697 32.081-1.18-.253 2.337-2.462.338 1.307-1.495 1.408ZM47.355 31.735l-3.128 2.945.338 1.307 5.069-4.841-2.279.589Z" fill="#C57A09"/><path d="m45.722 33.272-1.495 1.408.293 1.133c-.026-.458-.053-.715.014-1.026.066-.31.835-1.083 1.188-1.515Z" fill="#FAA21E"/><path d="m45.722 33.272-1.495 1.408.293 1.133c-.026-.458-.053-.715.014-1.026.066-.31.835-1.083 1.188-1.515Z" fill="#fff" fill-opacity=".95"/><path d="m43.192 30.672-.337-1.306 6.779 1.78-2.279.589-4.163-1.063Z" fill="#FAA21E"/><path d="m43.192 30.672-.337-1.306 6.779 1.78-2.279.589-4.163-1.063Z" fill="#fff" fill-opacity=".2"/><path d="m42.237 34.172-.54-2.091 1.495-1.409 4.177 1.06-3.142 2.948-1.99-.508Z" fill="#FAA21E"/><path d="m42.237 34.172-.54-2.091 1.495-1.409 4.177 1.06-3.142 2.948-1.99-.508Z" fill="#fff" fill-opacity=".4"/><path d="m41.697 32.08 1.495-1.407c-.332.312-1.017 1.049-1.101 1.492-.084.443.063 1.523.146 2.007l-.54-2.091Z" fill="#FAA21E"/><path d="m41.697 32.08 1.495-1.407c-.332.312-1.017 1.049-1.101 1.492-.084.443.063 1.523.146 2.007l-.54-2.091Z" fill="#fff" fill-opacity=".95"/></g><g clip-path="url(#bdxd)" fill="#152242"><path d="M39.029 28.446a1 1 0 0 1 1.742 0l3.507 6.22a1 1 0 0 0 .673.49l7 1.412a1 1 0 0 1 .538 1.657l-4.833 5.258a1 1 0 0 0-.257.791l.82 7.094a1 1 0 0 1-1.41 1.024l-6.493-2.972a1 1 0 0 0-.832 0l-6.494 2.972a1 1 0 0 1-1.41-1.024l.82-7.094a1 1 0 0 0-.257-.791l-4.833-5.258a1 1 0 0 1 .539-1.657l7-1.412a1 1 0 0 0 .673-.49l3.507-6.22Z"/><path d="m41.935 37.532.339.602.675.135 4.062.82-2.804 3.05-.467.508.08.686.474 4.115-3.766-1.724-.627-.287-.627.288-3.769 1.723.476-4.115.079-.686-.467-.508-2.805-3.05 4.063-.82.676-.135.338-.602 2.035-3.611 2.035 3.611Z" stroke="#FAA21E" stroke-width="3.013"/></g></g><defs><clipPath id="bdxa"><path fill="#fff" transform="matrix(-1 0 0 1 50 0)" d="M0 0h50v50H0z"/></clipPath><clipPath id="bdxb"><path fill="#fff" transform="scale(1 -1) rotate(19.586 38.46 36.17)" d="M0 0h8.998v8.998H0z"/></clipPath><clipPath id="bdxc"><path fill="#fff" transform="rotate(-74.484 43.278 -7.783)" d="M0 0h9.005v8.998H0z"/></clipPath><clipPath id="bdxd"><path fill="#fff" transform="matrix(1 0 0 -1 0 50)" d="M0 0h50v50H0z"/></clipPath></defs></svg>