<svg width="50" height="50" viewBox="0 0 50 50" fill="none" xmlns="http://www.w3.org/2000/svg">
<g clip-path="url(#clip0_4803_7649)">
<path d="M-1.0013e-07 50L4.99999 49L7.99999 46L37 17L33 13L3.99999 42L0.99999 45L-1.0013e-07 50Z" fill="#7445B8"/>
<path d="M-1.0013e-07 50L4.99999 49L7.99999 46L37 17L33 13L3.99999 42L0.99999 45L-1.0013e-07 50Z" fill="black" fill-opacity="0.2"/>
<path d="M42.5924 43.753L12.1726 37.8271L6.24672 7.40735" stroke="#7445B8"/>
<path d="M42.5924 43.753L12.1726 37.8271L6.24672 7.40735" stroke="white" stroke-opacity="0.4"/>
<path d="M49.7038 31.1109C45.4905 34.8455 44.4745 42.5579 45 50C41.0494 46.0494 37.0619 37.4319 41.4075 33.0862C33.9014 29.5307 32.3395 20.821 35.5 14.5C29.179 17.6605 21.2594 15.3085 16.9137 7.80231C12.173 12.543 4.74074 9.74073 7.81641e-07 5C6.40349 5.86393 14.1176 4.83317 18.494 -0.0989186C20.8644 10.1727 27.5804 15.3085 38.2471 11.7529C34.6915 22.4196 39.6394 28.9477 49.7038 31.1109Z" fill="#7445B8"/>
<path d="M49.7038 31.1109C45.4905 34.8455 44.4745 42.5579 45 50C41.0494 46.0494 37.0619 37.4319 41.4075 33.0862C33.9014 29.5307 32.3395 20.821 35.5 14.5C29.179 17.6605 21.2594 15.3085 16.9137 7.80231C12.173 12.543 4.74074 9.74073 7.81641e-07 5C6.40349 5.86393 14.1176 4.83317 18.494 -0.0989186C20.8644 10.1727 27.5804 15.3085 38.2471 11.7529C34.6915 22.4196 39.6394 28.9477 49.7038 31.1109Z" fill="black" fill-opacity="0.2"/>
<path d="M49.7035 31.1111C45.4902 34.8457 44.4745 42.5579 45 50C42.396 44.0122 40.2221 36.642 44.5677 32.2963C37.0616 28.7408 36.3917 22.0118 36.5 13.5C28.3513 13.8605 21.6542 12.5432 17.3085 5.03708C12.5678 9.77782 5.74595 7.83671 -1.57819e-05 5.0371C6.40347 5.90103 14.1173 4.83338 18.4937 -0.0987129C20.864 10.1729 29.8333 13.0556 40.5 9.5C36.9445 20.1667 39.6391 28.9479 49.7035 31.1111Z" fill="#7445B8"/>
<path d="M49.7035 31.1111C45.4902 34.8457 44.4745 42.5579 45 50C42.396 44.0122 40.2221 36.642 44.5677 32.2963C37.0616 28.7408 36.3917 22.0118 36.5 13.5C28.3513 13.8605 21.6542 12.5432 17.3085 5.03708C12.5678 9.77782 5.74595 7.83671 -1.57819e-05 5.0371C6.40347 5.90103 14.1173 4.83338 18.4937 -0.0987129C20.864 10.1729 29.8333 13.0556 40.5 9.5C36.9445 20.1667 39.6391 28.9479 49.7035 31.1111Z" fill="white" fill-opacity="0.2"/>
<path d="M3.82788 46.1727L48 2" stroke="#7445B8"/>
<path d="M3.82788 46.1727L48 2" stroke="white" stroke-opacity="0.8"/>
<path d="M0 44L4 42L4.5 45.5L8 46L6 50H0V44Z" fill="#7445B8"/>
<path d="M0 44L4 42L4.5 45.5L8 46L6 50H0V44Z" fill="white" fill-opacity="0.2"/>
<path d="M40 3.49999L49.75 0.249987L45 5L40 3.49999Z" fill="#7445B8"/>
<path d="M40 3.49999L49.75 0.249987L45 5L40 3.49999Z" fill="white" fill-opacity="0.4"/>
<path d="M46.5 10L49.7501 0.249999L45 5L46.5 10Z" fill="#7445B8"/>
<path d="M46.5 10L49.7501 0.249999L45 5L46.5 10Z" fill="white" fill-opacity="0.6"/>
<g clip-path="url(#clip1_4803_7649)">
<path d="M18.0822 8.03087L18.418 9.19043L15.2321 8.60489L15.9582 7.64051L18.0822 8.03087Z" fill="#FAA21E"/>
<path d="M18.0822 8.03087L18.418 9.19043L15.2321 8.60489L15.9582 7.64051L18.0822 8.03087Z" fill="black" fill-opacity="0.1"/>
<path d="M15.9581 7.64055L15.232 8.60492L13.9825 5.44771L15.3099 5.69168L15.9581 7.64055Z" fill="#FAA21E"/>
<path d="M18.082 8.03089L18.4178 9.19045L20.7082 6.68383L19.3808 6.43986L18.082 8.03089Z" fill="#C57A09"/>
<path d="M18.0261 2.36252L15.31 5.6917L13.9826 5.44773L18.4515 0.0479725L18.0261 2.36252Z" fill="#C57A09"/>
<path d="M16.6087 4.10066L15.31 5.69169L14.1595 5.48025C14.6183 5.47307 14.8765 5.48207 15.1818 5.39367C15.487 5.30527 16.2029 4.48351 16.6087 4.10066Z" fill="#FAA21E"/>
<path d="M16.6087 4.10066L15.31 5.69169L14.1595 5.48025C14.6183 5.47307 14.8765 5.48207 15.1818 5.39367C15.487 5.30527 16.2029 4.48351 16.6087 4.10066Z" fill="white" fill-opacity="0.95"/>
<path d="M19.3808 6.43986L20.7083 6.68384L18.4514 0.0479455L18.026 2.36249L19.3808 6.43986Z" fill="#FAA21E"/>
<path d="M19.3808 6.43986L20.7083 6.68384L18.4514 0.0479455L18.026 2.36249L19.3808 6.43986Z" fill="white" fill-opacity="0.2"/>
<path d="M15.9583 7.64056L18.0822 8.03092L19.381 6.43989L18.0287 2.34891L15.3101 5.6917L15.9583 7.64056Z" fill="#FAA21E"/>
<path d="M15.9583 7.64056L18.0822 8.03092L19.381 6.43989L18.0287 2.34891L15.3101 5.6917L15.9583 7.64056Z" fill="white" fill-opacity="0.4"/>
<path d="M18.0822 8.03092L19.381 6.43989C19.0924 6.7934 18.4063 7.52921 17.9703 7.6444C17.5343 7.7596 16.4473 7.68984 15.9583 7.64056L18.0822 8.03092Z" fill="#FAA21E"/>
<path d="M18.0822 8.03092L19.381 6.43989C19.0924 6.7934 18.4063 7.52921 17.9703 7.6444C17.5343 7.7596 16.4473 7.68984 15.9583 7.64056L18.0822 8.03092Z" fill="white" fill-opacity="0.95"/>
</g>
<g clip-path="url(#clip2_4803_7649)">
<path d="M41.6973 32.0809L40.5168 31.8282L41.327 34.9646L42.2374 34.1718L41.6973 32.0809Z" fill="#FAA21E"/>
<path d="M41.6973 32.0809L40.5168 31.8282L41.327 34.9646L42.2374 34.1718L41.6973 32.0809Z" fill="black" fill-opacity="0.1"/>
<path d="M42.2373 34.1718L41.3269 34.9646L44.5648 35.9869L44.2273 34.6801L42.2373 34.1718Z" fill="#FAA21E"/>
<path d="M41.6972 32.081L40.5167 31.8283L42.8545 29.3658L43.1921 30.6726L41.6972 32.081Z" fill="#C57A09"/>
<path d="M47.3554 31.7346L44.2273 34.68L44.5649 35.9868L49.6339 31.146L47.3554 31.7346Z" fill="#C57A09"/>
<path d="M45.7221 33.2717L44.2273 34.6801L44.5198 35.8127C44.4944 35.3546 44.4671 35.0976 44.5336 34.7869C44.6002 34.4761 45.3691 33.7037 45.7221 33.2717Z" fill="#FAA21E"/>
<path d="M45.7221 33.2717L44.2273 34.6801L44.5198 35.8127C44.4944 35.3546 44.4671 35.0976 44.5336 34.7869C44.6002 34.4761 45.3691 33.7037 45.7221 33.2717Z" fill="white" fill-opacity="0.95"/>
<path d="M43.1921 30.6725L42.8545 29.3657L49.6338 31.146L47.3553 31.7346L43.1921 30.6725Z" fill="#FAA21E"/>
<path d="M43.1921 30.6725L42.8545 29.3657L49.6338 31.146L47.3553 31.7346L43.1921 30.6725Z" fill="white" fill-opacity="0.2"/>
<path d="M42.2373 34.1718L41.6973 32.0809L43.1921 30.6725L47.3687 31.7311L44.2273 34.68L42.2373 34.1718Z" fill="#FAA21E"/>
<path d="M42.2373 34.1718L41.6973 32.0809L43.1921 30.6725L47.3687 31.7311L44.2273 34.68L42.2373 34.1718Z" fill="white" fill-opacity="0.4"/>
<path d="M41.6973 32.0809L43.1921 30.6725C42.86 30.9854 42.1747 31.722 42.0907 32.1651C42.0068 32.6082 42.1535 33.6875 42.2373 34.1718L41.6973 32.0809Z" fill="#FAA21E"/>
<path d="M41.6973 32.0809L43.1921 30.6725C42.86 30.9854 42.1747 31.722 42.0907 32.1651C42.0068 32.6082 42.1535 33.6875 42.2373 34.1718L41.6973 32.0809Z" fill="white" fill-opacity="0.95"/>
</g>
</g>
<defs>
<clipPath id="clip0_4803_7649">
<rect width="50" height="50" fill="white" transform="matrix(-1 0 0 1 50 0)"/>
</clipPath>
<clipPath id="clip1_4803_7649">
<rect width="8.99797" height="8.99797" fill="white" transform="matrix(0.94214 -0.335218 -0.335218 -0.94214 14.3501 10.8)"/>
</clipPath>
<clipPath id="clip2_4803_7649">
<rect width="9.00472" height="8.99797" fill="white" transform="translate(39.2 36) rotate(-74.4835)"/>
</clipPath>
</defs>
</svg>
