<svg width="50" height="50" viewBox="0 0 50 50" fill="none" xmlns="http://www.w3.org/2000/svg">
<path d="M24.1025 7.82605C24.4688 7.08083 25.5312 7.08083 25.8975 7.82605L27.7904 11.6776C28.0574 12.2208 28.7418 12.4042 29.2446 12.0673L32.8097 9.67819C33.4995 9.21594 34.4196 9.74714 34.3642 10.5757L34.0778 14.8577C34.0374 15.4616 34.5384 15.9626 35.1423 15.9222L39.4243 15.6358C40.2529 15.5804 40.7841 16.5005 40.3218 17.1903L37.9327 20.7554C37.5958 21.2582 37.7792 21.9426 38.3224 22.2096L42.174 24.1025C42.9192 24.4688 42.9192 25.5312 42.174 25.8975L38.3224 27.7904C37.7792 28.0574 37.5958 28.7418 37.9327 29.2446L40.3218 32.8097C40.7841 33.4995 40.2529 34.4196 39.4243 34.3642L35.1423 34.0778C34.5384 34.0374 34.0374 34.5384 34.0778 35.1423L34.3642 39.4243C34.4196 40.2529 33.4995 40.7841 32.8097 40.3218L29.2446 37.9327C28.7418 37.5958 28.0574 37.7792 27.7904 38.3224L25.8975 42.174C25.5312 42.9192 24.4688 42.9192 24.1025 42.174L22.2096 38.3224C21.9426 37.7792 21.2582 37.5958 20.7554 37.9327L17.1903 40.3218C16.5005 40.7841 15.5804 40.2529 15.6358 39.4243L15.9222 35.1423C15.9626 34.5384 15.4616 34.0374 14.8577 34.0778L10.5757 34.3642C9.74714 34.4196 9.21594 33.4995 9.67819 32.8097L12.0673 29.2446C12.4042 28.7418 12.2208 28.0574 11.6776 27.7904L7.82605 25.8975C7.08083 25.5312 7.08083 24.4688 7.82605 24.1025L11.6776 22.2096C12.2208 21.9426 12.4042 21.2582 12.0673 20.7554L9.67819 17.1903C9.21594 16.5005 9.74714 15.5804 10.5757 15.6358L14.8577 15.9222C15.4616 15.9626 15.9626 15.4616 15.9222 14.8577L15.6358 10.5757C15.5804 9.74714 16.5005 9.21594 17.1903 9.67819L20.7554 12.0673C21.2582 12.4042 21.9426 12.2208 22.2096 11.6776L24.1025 7.82605Z" fill="#FAA21E"/>
<path d="M24.1025 7.82605C24.4688 7.08083 25.5312 7.08083 25.8975 7.82605L27.7904 11.6776C28.0574 12.2208 28.7418 12.4042 29.2446 12.0673L32.8097 9.67819C33.4995 9.21594 34.4196 9.74714 34.3642 10.5757L34.0778 14.8577C34.0374 15.4616 34.5384 15.9626 35.1423 15.9222L39.4243 15.6358C40.2529 15.5804 40.7841 16.5005 40.3218 17.1903L37.9327 20.7554C37.5958 21.2582 37.7792 21.9426 38.3224 22.2096L42.174 24.1025C42.9192 24.4688 42.9192 25.5312 42.174 25.8975L38.3224 27.7904C37.7792 28.0574 37.5958 28.7418 37.9327 29.2446L40.3218 32.8097C40.7841 33.4995 40.2529 34.4196 39.4243 34.3642L35.1423 34.0778C34.5384 34.0374 34.0374 34.5384 34.0778 35.1423L34.3642 39.4243C34.4196 40.2529 33.4995 40.7841 32.8097 40.3218L29.2446 37.9327C28.7418 37.5958 28.0574 37.7792 27.7904 38.3224L25.8975 42.174C25.5312 42.9192 24.4688 42.9192 24.1025 42.174L22.2096 38.3224C21.9426 37.7792 21.2582 37.5958 20.7554 37.9327L17.1903 40.3218C16.5005 40.7841 15.5804 40.2529 15.6358 39.4243L15.9222 35.1423C15.9626 34.5384 15.4616 34.0374 14.8577 34.0778L10.5757 34.3642C9.74714 34.4196 9.21594 33.4995 9.67819 32.8097L12.0673 29.2446C12.4042 28.7418 12.2208 28.0574 11.6776 27.7904L7.82605 25.8975C7.08083 25.5312 7.08083 24.4688 7.82605 24.1025L11.6776 22.2096C12.2208 21.9426 12.4042 21.2582 12.0673 20.7554L9.67819 17.1903C9.21594 16.5005 9.74714 15.5804 10.5757 15.6358L14.8577 15.9222C15.4616 15.9626 15.9626 15.4616 15.9222 14.8577L15.6358 10.5757C15.5804 9.74714 16.5005 9.21594 17.1903 9.67819L20.7554 12.0673C21.2582 12.4042 21.9426 12.2208 22.2096 11.6776L24.1025 7.82605Z" fill="white" fill-opacity="0.6"/>
<path d="M33.1095 9.78993L28.1792 14.2023C28.0096 14.3541 28.0642 14.6321 28.2786 14.7085L30.2641 15.4159C30.4007 15.4646 30.5526 15.4086 30.6249 15.2829L33.5696 10.1631C33.7396 9.86761 33.3635 9.56264 33.1095 9.78993Z" fill="#FAA21E"/>
<path d="M33.1095 9.78993L28.1792 14.2023C28.0096 14.3541 28.0642 14.6321 28.2786 14.7085L30.2641 15.4159C30.4007 15.4646 30.5526 15.4086 30.6249 15.2829L33.5696 10.1631C33.7396 9.86761 33.3635 9.56264 33.1095 9.78993Z" fill="white" fill-opacity="0.4"/>
<path d="M39.4469 15.9204L33.3313 17.201C33.0749 17.2547 33.0057 17.5882 33.2195 17.7395L34.8477 18.8922C34.9409 18.9582 35.0636 18.9655 35.164 18.911L39.6514 16.4778C39.9553 16.3129 39.7853 15.8495 39.4469 15.9204Z" fill="#FAA21E"/>
<path d="M39.4469 15.9204L33.3313 17.201C33.0749 17.2547 33.0057 17.5882 33.2195 17.7395L34.8477 18.8922C34.9409 18.9582 35.0636 18.9655 35.164 18.911L39.6514 16.4778C39.9553 16.3129 39.7853 15.8495 39.4469 15.9204Z" fill="white" fill-opacity="0.4"/>
<path d="M42.2178 24.415L35.9454 22.356C35.7281 22.2847 35.5141 22.4731 35.5573 22.6977L35.9532 24.7567C35.9804 24.8979 36.104 25 36.2478 25H42.1242C42.4653 25 42.5419 24.5214 42.2178 24.415Z" fill="#FAA21E"/>
<path d="M42.2178 24.415L35.9454 22.356C35.7281 22.2847 35.5141 22.4731 35.5573 22.6977L35.9532 24.7567C35.9804 24.8979 36.104 25 36.2478 25H42.1242C42.4653 25 42.5419 24.5214 42.2178 24.415Z" fill="white" fill-opacity="0.4"/>
<path d="M40.0649 32.9473L35.8755 28.2662C35.7081 28.0791 35.3986 28.1682 35.3562 28.4157L35.034 30.3009C35.0135 30.4212 35.0679 30.5421 35.1717 30.6064L39.6833 33.4023C39.9778 33.5849 40.296 33.2055 40.0649 32.9473Z" fill="#FAA21E"/>
<path d="M40.0649 32.9473L35.8755 28.2662C35.7081 28.0791 35.3986 28.1682 35.3562 28.4157L35.034 30.3009C35.0135 30.4212 35.0679 30.5421 35.1717 30.6064L39.6833 33.4023C39.9778 33.5849 40.296 33.2055 40.0649 32.9473Z" fill="white" fill-opacity="0.4"/>
<path d="M34.1135 39.6088L32.7616 33.1531C32.7149 32.9301 32.4465 32.8385 32.2732 32.9864L30.6895 34.3382C30.5796 34.432 30.5522 34.5908 30.6242 34.716L33.5598 39.8199C33.73 40.1158 34.1835 39.943 34.1135 39.6088Z" fill="#FAA21E"/>
<path d="M34.1135 39.6088L32.7616 33.1531C32.7149 32.9301 32.4465 32.8385 32.2732 32.9864L30.6895 34.3382C30.5796 34.432 30.5522 34.5908 30.6242 34.716L33.5598 39.8199C33.73 40.1158 34.1835 39.943 34.1135 39.6088Z" fill="white" fill-opacity="0.4"/>
<path d="M25.585 42.2178L27.609 36.0521C27.6873 35.8134 27.4552 35.5899 27.2197 35.6772L25.1957 36.4274C25.0781 36.4711 25 36.5833 25 36.7087V42.1242C25 42.4653 25.4786 42.5419 25.585 42.2178Z" fill="#FAA21E"/>
<path d="M25.585 42.2178L27.609 36.0521C27.6873 35.8134 27.4552 35.5899 27.2197 35.6772L25.1957 36.4274C25.0781 36.4711 25 36.5833 25 36.7087V42.1242C25 42.4653 25.4786 42.5419 25.585 42.2178Z" fill="white" fill-opacity="0.4"/>
<path d="M17.2629 39.8768L21.612 35.9845C21.8172 35.8009 21.6873 35.461 21.4119 35.461H19.6605C19.5602 35.461 19.4666 35.5111 19.4109 35.5944L16.8133 39.4867C16.6176 39.7799 17.0002 40.1119 17.2629 39.8768Z" fill="#FAA21E"/>
<path d="M17.2629 39.8768L21.612 35.9845C21.8172 35.8009 21.6873 35.461 21.4119 35.461H19.6605C19.5602 35.461 19.4666 35.5111 19.4109 35.5944L16.8133 39.4867C16.6176 39.7799 17.0002 40.1119 17.2629 39.8768Z" fill="white" fill-opacity="0.4"/>
<path d="M10.5531 34.0796L16.6687 32.799C16.9251 32.7453 16.9943 32.4118 16.7805 32.2605L15.1523 31.1078C15.0591 31.0418 14.9364 31.0345 14.836 31.089L10.3486 33.5222C10.0447 33.6871 10.2147 34.1505 10.5531 34.0796Z" fill="#FAA21E"/>
<path d="M10.5531 34.0796L16.6687 32.799C16.9251 32.7453 16.9943 32.4118 16.7805 32.2605L15.1523 31.1078C15.0591 31.0418 14.9364 31.0345 14.836 31.089L10.3486 33.5222C10.0447 33.6871 10.2147 34.1505 10.5531 34.0796Z" fill="white" fill-opacity="0.4"/>
<path d="M7.78224 25.585L13.9479 27.609C14.1866 27.6873 14.4101 27.4552 14.3228 27.2197L13.5726 25.1957C13.5289 25.0781 13.4167 25 13.2913 25H7.87581C7.53469 25 7.45814 25.4786 7.78224 25.585Z" fill="#FAA21E"/>
<path d="M7.78224 25.585L13.9479 27.609C14.1866 27.6873 14.4101 27.4552 14.3228 27.2197L13.5726 25.1957C13.5289 25.0781 13.4167 25 13.2913 25H7.87581C7.53469 25 7.45814 25.4786 7.78224 25.585Z" fill="white" fill-opacity="0.4"/>
<path d="M9.69756 16.7873L14.1103 21.7179C14.2802 21.9078 14.5944 21.8128 14.6308 21.5607L14.9702 19.2069C14.9881 19.0826 14.9267 18.9602 14.8162 18.9004L10.0641 16.3235C9.76828 16.1631 9.47313 16.5365 9.69756 16.7873Z" fill="#FAA21E"/>
<path d="M9.69756 16.7873L14.1103 21.7179C14.2802 21.9078 14.5944 21.8128 14.6308 21.5607L14.9702 19.2069C14.9881 19.0826 14.9267 18.9602 14.8162 18.9004L10.0641 16.3235C9.76828 16.1631 9.47313 16.5365 9.69756 16.7873Z" fill="white" fill-opacity="0.4"/>
<path d="M15.9204 10.5531L17.201 16.6687C17.2547 16.9251 17.5882 16.9943 17.7395 16.7805L18.8922 15.1523C18.9582 15.0591 18.9655 14.9364 18.911 14.836L16.4778 10.3486C16.3129 10.0447 15.8495 10.2147 15.9204 10.5531Z" fill="#FAA21E"/>
<path d="M15.9204 10.5531L17.201 16.6687C17.2547 16.9251 17.5882 16.9943 17.7395 16.7805L18.8922 15.1523C18.9582 15.0591 18.9655 14.9364 18.911 14.836L16.4778 10.3486C16.3129 10.0447 15.8495 10.2147 15.9204 10.5531Z" fill="white" fill-opacity="0.4"/>
<path d="M24.415 7.78224L22.391 13.9479C22.3127 14.1866 22.5448 14.4101 22.7803 14.3228L24.8043 13.5726C24.9219 13.5289 25 13.4167 25 13.2913V7.87581C25 7.53469 24.5214 7.45814 24.415 7.78224Z" fill="#FAA21E"/>
<path d="M24.415 7.78224L22.391 13.9479C22.3127 14.1866 22.5448 14.4101 22.7803 14.3228L24.8043 13.5726C24.9219 13.5289 25 13.4167 25 13.2913V7.87581C25 7.53469 24.5214 7.45814 24.415 7.78224Z" fill="white" fill-opacity="0.4"/>
<circle cx="25" cy="25" r="12" fill="#FAA21E"/>
<ellipse cx="23.7187" cy="24.1166" rx="8.91275" ry="10" transform="rotate(30 23.7187 24.1166)" fill="#FAA21E"/>
<ellipse cx="23.7187" cy="24.1166" rx="8.91275" ry="10" transform="rotate(30 23.7187 24.1166)" fill="white" fill-opacity="0.2"/>
<ellipse cx="21.9995" cy="23.3713" rx="5.4843" ry="6.5" transform="rotate(30 21.9995 23.3713)" fill="#FAA21E"/>
<ellipse cx="21.9995" cy="23.3713" rx="5.4843" ry="6.5" transform="rotate(30 21.9995 23.3713)" fill="white" fill-opacity="0.4"/>
<ellipse cx="21.9629" cy="18.5349" rx="3.5" ry="2.5" transform="rotate(-31.3035 21.9629 18.5349)" fill="#FEFEFE"/>
<circle cx="17.0055" cy="24.1216" r="1.5" transform="rotate(-8.16705 17.0055 24.1216)" fill="#FEFEFE"/>
</svg>
