<svg width="50" height="50" viewBox="0 0 50 50" fill="none" xmlns="http://www.w3.org/2000/svg">
<g clip-path="url(#clip0_1880_9357)">
<path d="M45.0037 37.5001C45.0037 39.7709 42.943 42.1497 38.8497 44.0184C34.8447 45.8467 29.242 47.0038 23 47.0038C16.758 47.0038 11.1552 45.8467 7.15027 44.0184C3.05692 42.1497 0.996266 39.7709 0.996266 37.5001C0.996266 35.2292 3.05692 32.8505 7.15027 30.9818C11.1552 29.1534 16.758 27.9964 23 27.9964C29.242 27.9964 34.8447 29.1534 38.8497 30.9818C42.943 32.8505 45.0037 35.2292 45.0037 37.5001Z" fill="#FAA21E"/>
<path d="M45.0037 37.5001C45.0037 39.7709 42.943 42.1497 38.8497 44.0184C34.8447 45.8467 29.242 47.0038 23 47.0038C16.758 47.0038 11.1552 45.8467 7.15027 44.0184C3.05692 42.1497 0.996266 39.7709 0.996266 37.5001C0.996266 35.2292 3.05692 32.8505 7.15027 30.9818C11.1552 29.1534 16.758 27.9964 23 27.9964C29.242 27.9964 34.8447 29.1534 38.8497 30.9818C42.943 32.8505 45.0037 35.2292 45.0037 37.5001Z" fill="white" fill-opacity="0.95"/>
<path d="M45.0037 37.5001C45.0037 39.7709 42.943 42.1497 38.8497 44.0184C34.8447 45.8467 29.242 47.0038 23 47.0038C16.758 47.0038 11.1552 45.8467 7.15027 44.0184C3.05692 42.1497 0.996266 39.7709 0.996266 37.5001C0.996266 35.2292 3.05692 32.8505 7.15027 30.9818C11.1552 29.1534 16.758 27.9964 23 27.9964C29.242 27.9964 34.8447 29.1534 38.8497 30.9818C42.943 32.8505 45.0037 35.2292 45.0037 37.5001Z" stroke="#FAA21E" stroke-width="1.99259"/>
<ellipse cx="23" cy="37.5001" rx="17" ry="6.5" fill="#898989"/>
<ellipse cx="23" cy="37.5001" rx="17" ry="6.5" fill="white" fill-opacity="0.8"/>
<g clip-path="url(#clip1_1880_9357)">
<path d="M22.8299 42.171C17.4017 42.171 13.8964 40.1858 13.4001 39.1932C12.9038 38.2006 12.9038 34.6574 12.9038 34.6574H32.756C32.756 36.775 32.879 38.1965 32.2596 39.1932C31.2727 40.7814 27.7647 42.171 22.8299 42.171Z" fill="#FAA21E"/>
<path d="M40.085 20.0494C39.2788 20.0136 38.108 19.0908 38.5885 17.3708C39.0689 15.6509 41.1426 14.4371 43.5614 14.5447C45.9802 14.6524 47.1316 16.0096 48.3023 16.9323C48.2636 17.8013 48.5121 21.295 46.3612 24.2467C44.2102 27.1984 41.8272 28.3651 39.276 29.1555C37.6377 29.6631 37.183 30.8037 37.1443 31.6727C37.1057 32.5416 37.8733 33.4464 38.6795 33.4823" stroke="#FAA21E" stroke-width="2.48152" stroke-linecap="round"/>
<path d="M41.6894 9.00897H3.97037C5.58844 12.7845 6.66715 13.3238 7.74587 17.6387C8.28523 19.7961 7.74587 26.6574 8.82458 30.4329C10.1907 35.2142 12.9944 37.7154 15.8362 39.0626C18.6661 40.4042 26.5038 40.4042 29.8595 39.0626C32.7798 37.8952 35.5473 35.2871 36.8712 30.4329C38.3996 24.8286 37.3065 20.8558 37.9499 17.6387C38.4892 14.9419 39.532 13.3238 41.6894 9.00897Z" fill="#898989"/>
<path d="M41.6894 9.00897H3.97037C5.58844 12.7845 6.66715 13.3238 7.74587 17.6387C8.28523 19.7961 7.74587 26.6574 8.82458 30.4329C10.1907 35.2142 12.9944 37.7154 15.8362 39.0626C18.6661 40.4042 26.5038 40.4042 29.8595 39.0626C32.7798 37.8952 35.5473 35.2871 36.8712 30.4329C38.3996 24.8286 37.3065 20.8558 37.9499 17.6387C38.4892 14.9419 39.532 13.3238 41.6894 9.00897Z" fill="white" fill-opacity="0.95"/>
<path d="M41.6894 8.80528C41.6894 11.4836 33.4724 13.7435 23.0566 13.7435C12.6408 13.7435 3.97037 11.4836 3.97037 8.80528C3.97037 6.12692 12.6408 3.95569 23.0566 3.95569C33.4724 3.95569 41.6894 6.12692 41.6894 8.80528Z" fill="#898989"/>
<path d="M41.6894 8.80528C41.6894 11.4836 33.4724 13.7435 23.0566 13.7435C12.6408 13.7435 3.97037 11.4836 3.97037 8.80528C3.97037 6.12692 12.6408 3.95569 23.0566 3.95569C33.4724 3.95569 41.6894 6.12692 41.6894 8.80528Z" fill="white" fill-opacity="0.6"/>
<path d="M41.6894 8.80528C41.6894 11.4836 33.4724 13.7435 23.0566 13.7435C12.6408 13.7435 3.97037 11.4836 3.97037 8.80528C3.97037 6.12692 12.6408 3.95569 23.0566 3.95569C33.4724 3.95569 41.6894 6.12692 41.6894 8.80528Z" stroke="#FAA21E" stroke-width="1.48891"/>
<path d="M36.8629 11.3808C36.8629 11.0321 29.2425 9.88636 22.9148 9.88636C16.587 9.88636 8.96664 11.0321 8.96664 11.3808C8.96664 11.7294 14.9444 13.1741 22.9148 13.1741C31.8815 13.1741 36.8629 11.7294 36.8629 11.3808Z" fill="#FAA21E"/>
<path d="M36.8629 11.3808C36.8629 11.0321 29.2425 9.88636 22.9148 9.88636C16.587 9.88636 8.96664 11.0321 8.96664 11.3808C8.96664 11.7294 14.9444 13.1741 22.9148 13.1741C31.8815 13.1741 36.8629 11.7294 36.8629 11.3808Z" fill="white" fill-opacity="0.4"/>
</g>
<path d="M20.3371 27.6159C20.211 26.4045 20.6795 25.4607 20.9231 25.2861L19.0603 25.4382L17.7536 27.6529C17.7825 27.9183 18.4755 29.1395 19.1877 29.9451C20.1196 30.9992 21.0397 31.779 21.4594 32.0803L22.0892 31.5683C21.353 30.5155 20.4388 28.5935 20.3371 27.6159Z" fill="#898989"/>
<path d="M20.3371 27.6159C20.211 26.4045 20.6795 25.4607 20.9231 25.2861L19.0603 25.4382L17.7536 27.6529C17.7825 27.9183 18.4755 29.1395 19.1877 29.9451C20.1196 30.9992 21.0397 31.779 21.4594 32.0803L22.0892 31.5683C21.353 30.5155 20.4388 28.5935 20.3371 27.6159Z" fill="white" fill-opacity="0.2"/>
<path d="M22.75 23.0814H17.7121C17.7121 23.0814 16.2916 24.4314 15.25 26.1961C14.2083 27.9608 14 31.6863 14 36H18.375C18.3308 35.3055 17.7121 33.1221 17.7121 31.0326C17.7121 28.7451 17.9179 27.4754 18.7916 26.5883C19.6505 25.7163 21.2916 25.804 22.75 25.804V23.0814Z" fill="#898989"/>
<path d="M22.75 23.0814H17.7121C17.7121 23.0814 16.2916 24.4314 15.25 26.1961C14.2083 27.9608 14 31.6863 14 36H18.375C18.3308 35.3055 17.7121 33.1221 17.7121 31.0326C17.7121 28.7451 17.9179 27.4754 18.7916 26.5883C19.6505 25.7163 21.2916 25.804 22.75 25.804V23.0814Z" fill="white" fill-opacity="0.6"/>
<path d="M28.375 16.0001L22.75 23.0589V25.804L28.375 32.4707C28.0972 31.621 27.3333 28.6667 27.3333 24.4314C27.3333 20.1961 28.0972 17.0458 28.375 16.0001Z" fill="#898989"/>
<path d="M28.375 16.0001L22.75 23.0589V25.804L28.375 32.4707C28.0972 31.621 27.3333 28.6667 27.3333 24.4314C27.3333 20.1961 28.0972 17.0458 28.375 16.0001Z" fill="white" fill-opacity="0.6"/>
<ellipse cx="28.5833" cy="24.2354" rx="1.25" ry="8.2353" fill="#898989"/>
<rect x="27.5" y="24.0001" width="3" height="1" fill="#D0333D"/>
<rect x="27.5" y="24.0001" width="3" height="1" fill="black" fill-opacity="0.2"/>
<ellipse cx="30.5" cy="24.5001" rx="1.5" ry="1.5" fill="#D0333D"/>
<ellipse cx="30.5" cy="24.5001" rx="1.5" ry="1.5" fill="black" fill-opacity="0.2"/>
</g>
<defs>
<clipPath id="clip0_1880_9357">
<rect width="50" height="50" fill="white"/>
</clipPath>
<clipPath id="clip1_1880_9357">
<rect width="49.8148" height="49.8148" fill="white" transform="translate(-3.05176e-05 -1.99994)"/>
</clipPath>
</defs>
</svg>
