<svg width="51" height="50" viewBox="0 0 51 50" fill="none" xmlns="http://www.w3.org/2000/svg">
<g clip-path="url(#clip0_1887_13435)">
<ellipse cx="21.8999" cy="42.5" rx="21.5" ry="7.5" fill="#FAA21E"/>
<g clip-path="url(#clip1_1887_13435)">
<path d="M37.3998 12.8182V16.4546C38.0188 15.697 39.5355 13.7273 42.5069 13.7273C46.2212 13.7273 47.6141 17.8182 47.6141 21.0001C47.6141 24.1819 45.7569 28.2728 42.5069 28.2728C39.9069 28.2728 37.8641 26.0001 37.3998 25.5455V29.1819C37.8641 29.1819 38.7926 31.0001 42.5069 31.0001C47.1498 31.0001 50.3998 26.9092 50.3998 21.0001C50.3998 15.091 47.1498 11.0001 42.5069 11.0001C39.2569 11.0001 37.8641 12.8182 37.3998 12.8182Z" fill="#FAA21E"/>
<path d="M5.3999 5.00006H38.3999V41.5001C38.3999 41.5001 35.3999 46.5001 21.8999 46.5001C8.39993 46.5001 5.3999 41.5001 5.3999 41.5001V5.00006Z" fill="#FAA21E"/>
<path d="M5.3999 5.00006H38.3999V41.5001C38.3999 41.5001 35.3999 46.5001 21.8999 46.5001C8.39993 46.5001 5.3999 41.5001 5.3999 41.5001V5.00006Z" fill="white" fill-opacity="0.95"/>
<ellipse cx="21.8999" cy="4.50006" rx="16.5" ry="4.5" fill="#FAA21E"/>
<ellipse cx="21.8999" cy="4.50009" rx="14.5" ry="3.5" fill="#898989"/>
<ellipse cx="21.8999" cy="4.50009" rx="14.5" ry="3.5" fill="white" fill-opacity="0.4"/>
<path d="M33.3998 6.50009C33.3998 6.00009 28.2511 5.00009 21.8998 5.00009C15.5485 5.00009 10.3998 6.00009 10.3998 6.50009C10.3998 7.00009 15.5485 8.00009 21.8998 8.00009C28.2511 8.00009 33.3998 7.00009 33.3998 6.50009Z" fill="#FAA21E"/>
<path d="M33.3998 6.50009C33.3998 6.00009 28.2511 5.00009 21.8998 5.00009C15.5485 5.00009 10.3998 6.00009 10.3998 6.50009C10.3998 7.00009 15.5485 8.00009 21.8998 8.00009C28.2511 8.00009 33.3998 7.00009 33.3998 6.50009Z" fill="black" fill-opacity="0.6"/>
</g>
<path d="M29.0784 30.7365L22.5487 20.4692L17.5737 23.2694L23.2547 34.1589C25.2126 36.6548 27.2128 38.2036 30.0137 39.063C30.6331 36.0257 30.2596 33.6811 29.0784 30.7365Z" fill="#D0333D"/>
<path d="M29.0784 30.7365L22.5487 20.4692L17.5737 23.2694L23.2547 34.1589C25.2126 36.6548 27.2128 38.2036 30.0137 39.063C30.6331 36.0257 30.2596 33.6811 29.0784 30.7365Z" fill="white" fill-opacity="0.6"/>
<path d="M18.5788 14.6523C18.2586 13.9669 17.4203 13.7031 16.7652 14.0815L14.7985 15.2176C14.1391 15.5986 13.951 16.4649 14.393 17.0849L18.2022 22.428C18.5929 22.9761 19.3391 23.1315 19.9162 22.785L20.8418 22.2293C21.4088 21.8889 21.6269 21.1749 21.3469 20.5758L18.5788 14.6523Z" fill="#D0333D"/>
<rect width="13.5962" height="1.70004" rx="0.850021" transform="matrix(-0.865895 0.500226 0.499774 0.866156 25.4857 17.6186)" fill="#D0333D"/>
</g>
<defs>
<clipPath id="clip0_1887_13435">
<rect width="50" height="50" fill="white" transform="translate(0.399902)"/>
</clipPath>
<clipPath id="clip1_1887_13435">
<rect width="50" height="50" fill="white" transform="translate(0.399902 -1.99997)"/>
</clipPath>
</defs>
</svg>
