<svg width="51" height="50" viewBox="0 0 51 50" fill="none" xmlns="http://www.w3.org/2000/svg">
<g clip-path="url(#clip0_1887_13437)">
<ellipse cx="22.3" cy="42.5" rx="21.5" ry="7.5" fill="#FAA21E"/>
<g clip-path="url(#clip1_1887_13437)">
<g clip-path="url(#clip2_1887_13437)">
<path d="M37.7999 12.8182V16.4546C38.419 15.697 39.9356 13.7273 42.9071 13.7273C46.6214 13.7273 48.0142 17.8182 48.0142 21.0001C48.0142 24.1819 46.1571 28.2728 42.9071 28.2728C40.3071 28.2728 38.2642 26.0001 37.7999 25.5455V29.1819C38.2642 29.1819 39.1928 31.0001 42.9071 31.0001C47.5499 31.0001 50.7999 26.9092 50.7999 21.0001C50.7999 15.091 47.5499 11.0001 42.9071 11.0001C39.6571 11.0001 38.2642 12.8182 37.7999 12.8182Z" fill="#FAA21E"/>
<path d="M5.80005 5.00006H38.8V41.5001C38.8 41.5001 35.8 46.5001 22.3001 46.5001C8.80008 46.5001 5.80005 41.5001 5.80005 41.5001V5.00006Z" fill="#FAA21E"/>
<path d="M5.80005 5.00006H38.8V41.5001C38.8 41.5001 35.8 46.5001 22.3001 46.5001C8.80008 46.5001 5.80005 41.5001 5.80005 41.5001V5.00006Z" fill="white" fill-opacity="0.95"/>
<ellipse cx="22.3" cy="4.50006" rx="16.5" ry="4.5" fill="#FAA21E"/>
<ellipse cx="22.3" cy="4.50009" rx="14.5" ry="3.5" fill="#898989"/>
<ellipse cx="22.3" cy="4.50009" rx="14.5" ry="3.5" fill="white" fill-opacity="0.4"/>
<path d="M33.7999 6.50009C33.7999 6.00009 28.6512 5.00009 22.2999 5.00009C15.9487 5.00009 10.7999 6.00009 10.7999 6.50009C10.7999 7.00009 15.9487 8.00009 22.2999 8.00009C28.6512 8.00009 33.7999 7.00009 33.7999 6.50009Z" fill="#FAA21E"/>
<path d="M33.7999 6.50009C33.7999 6.00009 28.6512 5.00009 22.2999 5.00009C15.9487 5.00009 10.7999 6.00009 10.7999 6.50009C10.7999 7.00009 15.9487 8.00009 22.2999 8.00009C28.6512 8.00009 33.7999 7.00009 33.7999 6.50009Z" fill="black" fill-opacity="0.6"/>
</g>
<path d="M9.33167 24.5486C9.33182 21.504 11.7131 19.9584 12.3934 19.9584C12.2658 20.5139 12.2537 20.8502 12.3934 21.5226C12.5029 22.0496 12.6202 22.4192 12.7336 22.5313L13.7541 22.1951C13.3806 21.3033 13.2723 19.8344 13.7541 18.8328C14.4011 17.4879 15.1148 16.4793 17.496 16.4793C20.014 16.4793 20.5242 17.1517 21.238 17.8242L22.2251 17.2686L21.2046 16.26C21.7715 16.0358 23.4151 15.6723 25.3201 16.4793C27.1836 17.2686 27.3277 18.2773 28.0081 19.286L28.7218 18.8328L28.0415 17.4879C28.495 17.544 29.6027 17.4879 31.1031 18.4966C32.361 19.3422 32.8039 20.1217 32.8039 20.5139C32.3504 20.5139 31.2391 20.5812 30.4227 20.8502C29.6063 21.1191 28.9486 21.6347 28.7218 21.8588L29.4022 22.5313C30.0492 22.1951 30.2192 21.5226 32.1236 21.5226C34.3651 21.5226 35.5253 23.9931 35.5253 26.2297C35.5253 29.0364 34.1646 30.6006 32.1236 31.2731C30.4907 31.811 28.7218 31.7214 28.0415 31.6093C28.2683 32.0576 28.7565 32.8694 29.0286 33.4073C29.3008 33.9453 29.3688 34.416 29.4022 34.9715L27.3611 34.6353C27.0209 34.187 26.3072 33.0711 25.3201 32.2817C24.4225 31.564 22.9055 30.9417 22.5653 30.7175C22.9055 30.7175 23.9053 30.1774 24.2662 30.0451C24.5851 29.9282 24.9465 29.7089 25.6602 29.2557L24.6397 28.5833C23.846 29.1437 21.7142 30.1972 19.5371 29.9282C16.8157 29.5919 16.1353 28.0278 16.1353 26.4399C16.1353 25.3375 17.4627 24.1332 18.143 23.6569L17.1559 23.2037C16.5889 23.5399 15.3869 24.6158 15.1148 26.2297C14.8427 27.8436 15.6818 28.9195 16.1353 29.2557C15.3416 29.3678 13.1867 29.5239 12.0531 29.0364C10.9993 28.5833 9.33151 27.6915 9.33167 24.5486Z" fill="#CE4317"/>
<path d="M9.33167 24.5486C9.33182 21.504 11.7131 19.9584 12.3934 19.9584C12.2658 20.5139 12.2537 20.8502 12.3934 21.5226C12.5029 22.0496 12.6202 22.4192 12.7336 22.5313L13.7541 22.1951C13.3806 21.3033 13.2723 19.8344 13.7541 18.8328C14.4011 17.4879 15.1148 16.4793 17.496 16.4793C20.014 16.4793 20.5242 17.1517 21.238 17.8242L22.2251 17.2686L21.2046 16.26C21.7715 16.0358 23.4151 15.6723 25.3201 16.4793C27.1836 17.2686 27.3277 18.2773 28.0081 19.286L28.7218 18.8328L28.0415 17.4879C28.495 17.544 29.6027 17.4879 31.1031 18.4966C32.361 19.3422 32.8039 20.1217 32.8039 20.5139C32.3504 20.5139 31.2391 20.5812 30.4227 20.8502C29.6063 21.1191 28.9486 21.6347 28.7218 21.8588L29.4022 22.5313C30.0492 22.1951 30.2192 21.5226 32.1236 21.5226C34.3651 21.5226 35.5253 23.9931 35.5253 26.2297C35.5253 29.0364 34.1646 30.6006 32.1236 31.2731C30.4907 31.811 28.7218 31.7214 28.0415 31.6093C28.2683 32.0576 28.7565 32.8694 29.0286 33.4073C29.3008 33.9453 29.3688 34.416 29.4022 34.9715L27.3611 34.6353C27.0209 34.187 26.3072 33.0711 25.3201 32.2817C24.4225 31.564 22.9055 30.9417 22.5653 30.7175C22.9055 30.7175 23.9053 30.1774 24.2662 30.0451C24.5851 29.9282 24.9465 29.7089 25.6602 29.2557L24.6397 28.5833C23.846 29.1437 21.7142 30.1972 19.5371 29.9282C16.8157 29.5919 16.1353 28.0278 16.1353 26.4399C16.1353 25.3375 17.4627 24.1332 18.143 23.6569L17.1559 23.2037C16.5889 23.5399 15.3869 24.6158 15.1148 26.2297C14.8427 27.8436 15.6818 28.9195 16.1353 29.2557C15.3416 29.3678 13.1867 29.5239 12.0531 29.0364C10.9993 28.5833 9.33151 27.6915 9.33167 24.5486Z" fill="white" fill-opacity="0.6"/>
</g>
</g>
<defs>
<clipPath id="clip0_1887_13437">
<rect width="50" height="50" fill="white" transform="translate(0.800049)"/>
</clipPath>
<clipPath id="clip1_1887_13437">
<rect width="50.1859" height="50.1859" fill="white" transform="translate(0.800049 -1.99997)"/>
</clipPath>
<clipPath id="clip2_1887_13437">
<rect width="50" height="50" fill="white" transform="translate(0.800049 -1.99997)"/>
</clipPath>
</defs>
</svg>
