<svg width="50" height="50" viewBox="0 0 50 50" fill="none" xmlns="http://www.w3.org/2000/svg">
<g clip-path="url(#clip0_6018_11595)">
<path d="M45.1747 37.5C45.1747 39.7689 43.1074 42.1482 38.9969 44.0177C34.9762 45.8465 29.3516 47.0037 23.0855 47.0037C16.8194 47.0037 11.1948 45.8465 7.17407 44.0177C3.0636 42.1482 0.996296 39.7689 0.996296 37.5C0.996296 35.2311 3.0636 32.8518 7.17407 30.9823C11.1948 29.1535 16.8194 27.9963 23.0855 27.9963C29.3516 27.9963 34.9762 29.1535 38.9969 30.9823C43.1074 32.8518 45.1747 35.2311 45.1747 37.5Z" fill="#FAA21E"/>
<path d="M45.1747 37.5C45.1747 39.7689 43.1074 42.1482 38.9969 44.0177C34.9762 45.8465 29.3516 47.0037 23.0855 47.0037C16.8194 47.0037 11.1948 45.8465 7.17407 44.0177C3.0636 42.1482 0.996296 39.7689 0.996296 37.5C0.996296 35.2311 3.0636 32.8518 7.17407 30.9823C11.1948 29.1535 16.8194 27.9963 23.0855 27.9963C29.3516 27.9963 34.9762 29.1535 38.9969 30.9823C43.1074 32.8518 45.1747 35.2311 45.1747 37.5Z" fill="white" fill-opacity="0.95"/>
<path d="M45.1747 37.5C45.1747 39.7689 43.1074 42.1482 38.9969 44.0177C34.9762 45.8465 29.3516 47.0037 23.0855 47.0037C16.8194 47.0037 11.1948 45.8465 7.17407 44.0177C3.0636 42.1482 0.996296 39.7689 0.996296 37.5C0.996296 35.2311 3.0636 32.8518 7.17407 30.9823C11.1948 29.1535 16.8194 27.9963 23.0855 27.9963C29.3516 27.9963 34.9762 29.1535 38.9969 30.9823C43.1074 32.8518 45.1747 35.2311 45.1747 37.5Z" stroke="#FAA21E" stroke-width="1.99259"/>
<ellipse cx="23.0855" cy="37.5" rx="17.0632" ry="6.5" fill="#898989"/>
<ellipse cx="23.0855" cy="37.5" rx="17.0632" ry="6.5" fill="white" fill-opacity="0.8"/>
<path d="M22.8299 42.171C17.4017 42.171 13.8965 40.1857 13.4002 39.1931C12.9039 38.2005 12.9039 34.6573 12.9039 34.6573H32.756C32.756 36.7749 32.8791 38.1965 32.2597 39.1931C31.2727 40.7813 27.7647 42.171 22.8299 42.171Z" fill="#FAA21E"/>
<path d="M40.0851 20.0494C39.2788 20.0135 38.1081 19.0907 38.5886 17.3708C39.069 15.6508 41.1427 14.4371 43.5614 14.5447C45.9802 14.6523 47.1316 16.0095 48.3024 16.9323C48.2637 17.8012 48.5122 21.295 46.3612 24.2466C44.2102 27.1983 41.8272 28.365 39.276 29.1554C37.6377 29.663 37.183 30.8037 37.1444 31.6726C37.1057 32.5416 37.8733 33.4464 38.6796 33.4823" stroke="#FAA21E" stroke-width="2.48152" stroke-linecap="round"/>
<path d="M41.6894 9.00891H3.9704C5.58847 12.7844 6.66718 13.3238 7.7459 17.6386C8.28526 19.7961 7.7459 26.6574 8.82461 30.4329C10.1907 35.2142 12.9945 37.7154 15.8363 39.0626C18.6661 40.4042 26.5039 40.4042 29.8595 39.0626C32.7798 37.8951 35.5473 35.2871 36.8712 30.4329C38.3997 24.8285 37.3065 20.8557 37.9499 17.6386C38.4893 14.9418 39.532 13.3238 41.6894 9.00891Z" fill="#898989"/>
<path d="M41.6894 9.00891H3.9704C5.58847 12.7844 6.66718 13.3238 7.7459 17.6386C8.28526 19.7961 7.7459 26.6574 8.82461 30.4329C10.1907 35.2142 12.9945 37.7154 15.8363 39.0626C18.6661 40.4042 26.5039 40.4042 29.8595 39.0626C32.7798 37.8951 35.5473 35.2871 36.8712 30.4329C38.3997 24.8285 37.3065 20.8557 37.9499 17.6386C38.4893 14.9418 39.532 13.3238 41.6894 9.00891Z" fill="white" fill-opacity="0.95"/>
<path d="M41.6894 8.80522C41.6894 11.4836 33.4725 13.7434 23.0566 13.7434C12.6408 13.7434 3.9704 11.4836 3.9704 8.80522C3.9704 6.12686 12.6408 3.95563 23.0566 3.95563C33.4725 3.95563 41.6894 6.12686 41.6894 8.80522Z" fill="#898989"/>
<path d="M41.6894 8.80522C41.6894 11.4836 33.4725 13.7434 23.0566 13.7434C12.6408 13.7434 3.9704 11.4836 3.9704 8.80522C3.9704 6.12686 12.6408 3.95563 23.0566 3.95563C33.4725 3.95563 41.6894 6.12686 41.6894 8.80522Z" fill="white" fill-opacity="0.6"/>
<path d="M41.6894 8.80522C41.6894 11.4836 33.4725 13.7434 23.0566 13.7434C12.6408 13.7434 3.9704 11.4836 3.9704 8.80522C3.9704 6.12686 12.6408 3.95563 23.0566 3.95563C33.4725 3.95563 41.6894 6.12686 41.6894 8.80522Z" stroke="#FAA21E" stroke-width="1.19556"/>
<path d="M37 11.3807C37 11.032 29.3513 9.88629 23 9.88629C16.6487 9.88629 9 11.032 9 11.3807C9 11.7293 15 13.1741 23 13.1741C32 13.1741 37 11.7293 37 11.3807Z" fill="#FAA21E"/>
<path d="M37 11.3807C37 11.032 29.3513 9.88629 23 9.88629C16.6487 9.88629 9 11.032 9 11.3807C9 11.7293 15 13.1741 23 13.1741C32 13.1741 37 11.7293 37 11.3807Z" fill="white" fill-opacity="0.4"/>
<path d="M19.1353 29.7029L18.8454 28.2537L13.0483 31L18.5556 30.2826L19.1353 29.7029Z" fill="#898989"/>
<path d="M19.1353 29.7029L18.8454 28.2537L13.0483 31L18.5556 30.2826L19.1353 29.7029Z" fill="white" fill-opacity="0.2"/>
<path d="M22.9788 31.0648L22.0338 28.8333L26.473 27.5707L28.6965 28.8413L33.0483 35L22.9788 31.0648Z" fill="#898989"/>
<path d="M22.9788 31.0648L22.0338 28.8333L26.473 27.5707L28.6965 28.8413L33.0483 35L22.9788 31.0648Z" fill="white" fill-opacity="0.2"/>
<path d="M26.3816 27.0942L24.3527 25.3551L27.7436 15.5L26.3816 27.0942Z" fill="#898989"/>
<path d="M26.3816 27.0942L24.3527 25.3551L27.7436 15.5L26.3816 27.0942Z" fill="white" fill-opacity="0.2"/>
<path d="M22.0259 28.206L22.9034 24.7754L25.8377 27.253L22.0259 28.206Z" fill="#898989"/>
<path d="M22.0259 28.206L22.9034 24.7754L25.8377 27.253L22.0259 28.206Z" fill="white" fill-opacity="0.2"/>
<path d="M20.8744 33.1812L21.744 29.4131L22.6135 31.4421L24.0628 32.0218L20.8744 33.1812Z" fill="#898989"/>
<path d="M20.8744 33.1812L21.744 29.4131L22.6135 31.4421L24.0628 32.0218L20.8744 33.1812Z" fill="white" fill-opacity="0.2"/>
<path d="M18.5556 18.9783L17.1063 18.1087L20.2947 33.1812L21.3906 28.8413L22.0339 26.2246L18.5556 18.9783Z" fill="#898989"/>
<path d="M18.5556 18.9783L17.1063 18.1087L20.2947 33.1812L21.3906 28.8413L22.0339 26.2246L18.5556 18.9783Z" fill="white" fill-opacity="0.2"/>
<path d="M17.0785 20.233L16.6815 18.1087L13.6281 22.1667L17.0785 20.233Z" fill="#898989"/>
<path d="M17.0785 20.233L16.6815 18.1087L13.6281 22.1667L17.0785 20.233Z" fill="white" fill-opacity="0.2"/>
</g>
<defs>
<clipPath id="clip0_6018_11595">
<rect width="50" height="50" fill="white"/>
</clipPath>
</defs>
</svg>
