<svg width="51" height="50" viewBox="0 0 51 50" fill="none" xmlns="http://www.w3.org/2000/svg">
<g clip-path="url(#clip0_1887_13436)">
<ellipse cx="22.1" cy="42.5" rx="21.5" ry="7.5" fill="#FAA21E"/>
<g clip-path="url(#clip1_1887_13436)">
<path d="M37.5999 12.8182V16.4546C38.2189 15.697 39.7356 13.7273 42.707 13.7273C46.4213 13.7273 47.8141 17.8182 47.8141 21.0001C47.8141 24.1819 45.957 28.2728 42.707 28.2728C40.107 28.2728 38.0641 26.0001 37.5999 25.5455V29.1819C38.0641 29.1819 38.9927 31.0001 42.707 31.0001C47.3499 31.0001 50.5999 26.9092 50.5999 21.0001C50.5999 15.091 47.3499 11.0001 42.707 11.0001C39.457 11.0001 38.0641 12.8182 37.5999 12.8182Z" fill="#FAA21E"/>
<path d="M5.59998 5.00006H38.6V41.5001C38.6 41.5001 35.6 46.5001 22.1 46.5001C8.6 46.5001 5.59998 41.5001 5.59998 41.5001V5.00006Z" fill="#FAA21E"/>
<path d="M5.59998 5.00006H38.6V41.5001C38.6 41.5001 35.6 46.5001 22.1 46.5001C8.6 46.5001 5.59998 41.5001 5.59998 41.5001V5.00006Z" fill="white" fill-opacity="0.95"/>
<ellipse cx="22.1" cy="4.50006" rx="16.5" ry="4.5" fill="#FAA21E"/>
<ellipse cx="22.1" cy="4.50009" rx="14.5" ry="3.5" fill="#898989"/>
<ellipse cx="22.1" cy="4.50009" rx="14.5" ry="3.5" fill="white" fill-opacity="0.4"/>
<path d="M33.5998 6.50009C33.5998 6.00009 28.4511 5.00009 22.0999 5.00009C15.7486 5.00009 10.5999 6.00009 10.5999 6.50009C10.5999 7.00009 15.7486 8.00009 22.0999 8.00009C28.4511 8.00009 33.5998 7.00009 33.5998 6.50009Z" fill="#FAA21E"/>
<path d="M33.5998 6.50009C33.5998 6.00009 28.4511 5.00009 22.0999 5.00009C15.7486 5.00009 10.5999 6.00009 10.5999 6.50009C10.5999 7.00009 15.7486 8.00009 22.0999 8.00009C28.4511 8.00009 33.5998 7.00009 33.5998 6.50009Z" fill="black" fill-opacity="0.6"/>
</g>
<path d="M16.7748 16.0548C15.1304 16.729 12.6936 17.1082 11.6808 17.2135V27.326C11.6808 29.2221 11.7767 30.756 13.8256 33.3302C15.8745 35.9044 22.0039 38.8078 22.0039 38.8078C22.0039 38.8078 28.1332 35.9044 30.1531 33.3302C32.1731 30.756 32.3547 28.5198 32.3249 27.326V17.2135C31.044 17.038 28.1782 16.5604 26.9628 16.0548C25.7474 15.5492 23.1952 13.8076 22.0036 13C20.9907 13.7374 18.4192 15.3807 16.7748 16.0548Z" fill="#546DDB"/>
<path d="M16.7748 16.0548C15.1304 16.729 12.6936 17.1082 11.6808 17.2135V27.326C11.6808 29.2221 11.7767 30.756 13.8256 33.3302C15.8745 35.9044 22.0039 38.8078 22.0039 38.8078C22.0039 38.8078 28.1332 35.9044 30.1531 33.3302C32.1731 30.756 32.3547 28.5198 32.3249 27.326V17.2135C31.044 17.038 28.1782 16.5604 26.9628 16.0548C25.7474 15.5492 23.1952 13.8076 22.0036 13C20.9907 13.7374 18.4192 15.3807 16.7748 16.0548Z" fill="white" fill-opacity="0.2"/>
<path d="M18.0822 18.0246C16.8489 18.564 15.0213 18.8674 14.2616 18.9516V27.0416V27.0655C14.2616 28.5707 14.2615 29.7323 15.8703 31.845C17.4876 33.9688 22.0039 36.227 22.0039 36.227C22.0039 36.227 25.8751 34.2914 28.0024 31.845C30.1298 29.3985 29.7675 27.9966 29.7452 27.0416V18.9516C28.7844 18.8112 26.6351 18.4291 25.7235 18.0246C24.8119 17.6202 22.8976 16.2269 22.0039 15.5808C21.2443 16.1707 19.3155 17.4853 18.0822 18.0246Z" fill="#FEFEFE"/>
<path d="M19.4231 19.9945C18.6008 20.399 17.3487 20.6792 16.8423 20.7424V26.7572C16.8423 27.8948 17.4875 29.4525 18.1327 30.4203C18.7779 31.3881 22.0038 33.6462 22.0038 33.6462C22.0038 33.6462 24.9072 31.7107 25.875 30.4203C26.8428 29.1299 27.1796 27.4735 27.1647 26.7572V20.7424C26.5242 20.637 25.1923 20.2978 24.5846 19.9945C23.9769 19.6911 22.5996 18.6461 22.0038 18.1616C21.4974 18.604 20.2453 19.59 19.4231 19.9945Z" fill="#546DDB"/>
<path d="M19.4231 19.9945C18.6008 20.399 17.3487 20.6792 16.8423 20.7424V26.7572C16.8423 27.8948 17.4875 29.4525 18.1327 30.4203C18.7779 31.3881 22.0038 33.6462 22.0038 33.6462C22.0038 33.6462 24.9072 31.7107 25.875 30.4203C26.8428 29.1299 27.1796 27.4735 27.1647 26.7572V20.7424C26.5242 20.637 25.1923 20.2978 24.5846 19.9945C23.9769 19.6911 22.5996 18.6461 22.0038 18.1616C21.4974 18.604 20.2453 19.59 19.4231 19.9945Z" fill="white" fill-opacity="0.2"/>
</g>
<defs>
<clipPath id="clip0_1887_13436">
<rect width="50" height="50" fill="white" transform="translate(0.599976)"/>
</clipPath>
<clipPath id="clip1_1887_13436">
<rect width="50" height="50" fill="white" transform="translate(0.599976 -1.99997)"/>
</clipPath>
</defs>
</svg>
