<svg width="50" height="50" viewBox="0 0 50 50" fill="none" xmlns="http://www.w3.org/2000/svg">
<g clip-path="url(#clip0_1887_13433)">
<ellipse cx="21.5" cy="42.5" rx="21.5" ry="7.5" fill="#FAA21E"/>
<g clip-path="url(#clip1_1887_13433)">
<g clip-path="url(#clip2_1887_13433)">
<path d="M36.8629 12.7634V16.3863C37.4797 15.6315 38.9907 13.6691 41.9511 13.6691C45.6517 13.6691 47.0394 17.7449 47.0394 20.9149C47.0394 24.0849 45.1891 28.1607 41.9511 28.1607C39.3608 28.1607 37.3255 25.8964 36.8629 25.4435V29.0664C37.3255 29.0664 38.2506 30.8779 41.9511 30.8779C46.5768 30.8779 49.8148 26.8021 49.8148 20.9149C49.8148 15.0277 46.5768 10.9519 41.9511 10.9519C38.7132 10.9519 37.3255 12.7634 36.8629 12.7634Z" fill="#FAA21E"/>
<path d="M4.98145 4.97415H37.8592V41.339C37.8592 41.339 34.8703 46.3204 21.4203 46.3204C7.97036 46.3204 4.98145 41.339 4.98145 41.339V4.97415Z" fill="#FAA21E"/>
<path d="M4.98145 4.97415H37.8592V41.339C37.8592 41.339 34.8703 46.3204 21.4203 46.3204C7.97036 46.3204 4.98145 41.339 4.98145 41.339V4.97415Z" fill="white" fill-opacity="0.95"/>
<ellipse cx="21.4203" cy="4.47601" rx="16.4389" ry="4.48333" fill="#FAA21E"/>
<ellipse cx="21.4204" cy="4.47602" rx="14.4463" ry="3.48704" fill="#898989"/>
<ellipse cx="21.4204" cy="4.47602" rx="14.4463" ry="3.48704" fill="white" fill-opacity="0.4"/>
<path d="M32.8778 6.4686C32.8778 5.97045 27.7482 4.97415 21.4204 4.97415C15.0927 4.97415 9.96301 5.97045 9.96301 6.4686C9.96301 6.96675 15.0927 7.96304 21.4204 7.96304C27.7482 7.96304 32.8778 6.96675 32.8778 6.4686Z" fill="#FAA21E"/>
<path d="M32.8778 6.4686C32.8778 5.97045 27.7482 4.97415 21.4204 4.97415C15.0927 4.97415 9.96301 5.97045 9.96301 6.4686C9.96301 6.96675 15.0927 7.96304 21.4204 7.96304C27.7482 7.96304 32.8778 6.96675 32.8778 6.4686Z" fill="black" fill-opacity="0.6"/>
</g>
<path d="M9.80005 16.6416C10.0943 16.3474 10.9764 16.2421 11.3893 16.2421C13.1547 16.2421 17.0386 16.4775 18.4511 17.4192C20.2167 18.5962 29.2213 26.9408 30.2216 29.1897C30.9181 30.7556 30.8106 34.1921 30.8106 35.6634C30.8106 36.063 30.8106 36.7618 30.3984 37.24" stroke="#1D8CE0" stroke-width="2.96679"/>
<path d="M15.9344 30.9165L31.2501 15.6" stroke="#898989" stroke-width="1.97786" stroke-linecap="round"/>
<path d="M15.9344 30.9165L31.2501 15.6" stroke="white" stroke-opacity="0.4" stroke-width="1.97786" stroke-linecap="round"/>
<path d="M31.2501 20.8L25.7251 15.275L33.5251 13.325L31.2501 20.8Z" fill="#898989"/>
<path d="M31.2501 20.8L25.7251 15.275L33.5251 13.325L31.2501 20.8Z" fill="white" fill-opacity="0.4"/>
<path d="M13.7 28.6H18.25V33.15L13.7 37.7V33.15H9.15002L13.7 28.6Z" fill="#898989"/>
<path d="M13.7 28.6H18.25V33.15L13.7 37.7V33.15H9.15002L13.7 28.6Z" fill="white" fill-opacity="0.4"/>
<path d="M13.7 28.6H18.25V33.15L13.7 37.7V33.15H9.15002L13.7 28.6Z" stroke="#898989" stroke-width="0.98893"/>
<path d="M13.7 28.6H18.25V33.15L13.7 37.7V33.15H9.15002L13.7 28.6Z" stroke="white" stroke-opacity="0.4" stroke-width="0.98893"/>
<path d="M10.9769 16.4696L30.3982 35.8909" stroke="#1D8CE0" stroke-width="0.98893"/>
</g>
</g>
<defs>
<clipPath id="clip0_1887_13433">
<rect width="50" height="50" fill="white"/>
</clipPath>
<clipPath id="clip1_1887_13433">
<rect width="50" height="50" fill="white" transform="translate(0 -1.99997)"/>
</clipPath>
<clipPath id="clip2_1887_13433">
<rect width="49.8148" height="49.8148" fill="white" transform="translate(0 -1.99997)"/>
</clipPath>
</defs>
</svg>
