<svg width="50" height="50" viewBox="0 0 50 50" fill="none" xmlns="http://www.w3.org/2000/svg">
<g clip-path="url(#clip0_1887_13438)">
<ellipse cx="21.5" cy="42.5" rx="21.5" ry="7.5" fill="#FAA21E"/>
<path d="M36.9999 12.8182V16.4546C37.6189 15.697 39.1356 13.7273 42.107 13.7273C45.8213 13.7273 47.2142 17.8182 47.2142 21.0001C47.2142 24.1819 45.357 28.2728 42.107 28.2728C39.507 28.2728 37.4642 26.0001 36.9999 25.5455V29.1819C37.4642 29.1819 38.3927 31.0001 42.107 31.0001C46.7499 31.0001 49.9999 26.9092 49.9999 21.0001C49.9999 15.091 46.7499 11.0001 42.107 11.0001C38.857 11.0001 37.4642 12.8182 36.9999 12.8182Z" fill="#FAA21E"/>
<path d="M5 5.00006H38V41.5001C38 41.5001 35 46.5001 21.5 46.5001C8.00003 46.5001 5 41.5001 5 41.5001V5.00006Z" fill="#898989"/>
<path d="M5 5.00006H38V41.5001C38 41.5001 35 46.5001 21.5 46.5001C8.00003 46.5001 5 41.5001 5 41.5001V5.00006Z" fill="white" fill-opacity="0.95"/>
<ellipse cx="21.5" cy="4.50006" rx="16.5" ry="4.5" fill="#FAA21E"/>
<ellipse cx="21.5" cy="4.50009" rx="14.5" ry="3.5" fill="#898989"/>
<ellipse cx="21.5" cy="4.50009" rx="14.5" ry="3.5" fill="white" fill-opacity="0.6"/>
<path d="M32.9999 6.50009C32.9999 6.00009 27.8511 5.00009 21.4999 5.00009C15.1486 5.00009 9.99988 6.00009 9.99988 6.50009C9.99988 7.00009 15.1486 8.00009 21.4999 8.00009C27.8511 8.00009 32.9999 7.00009 32.9999 6.50009Z" fill="#FAA21E"/>
<path d="M32.9999 6.50009C32.9999 6.00009 27.8511 5.00009 21.4999 5.00009C15.1486 5.00009 9.99988 6.00009 9.99988 6.50009C9.99988 7.00009 15.1486 8.00009 21.4999 8.00009C27.8511 8.00009 32.9999 7.00009 32.9999 6.50009Z" fill="black" fill-opacity="0.6"/>
<path d="M13.3347 15.1175C19.204 11.0432 20.7234 18.7563 20.7495 23.1221C24.2656 19.8226 31.6596 15.3044 33.1067 23.6282C34.5539 31.9519 21.8094 35.2671 15.2562 35.8841C12.1702 30.6596 7.46547 19.1918 13.3347 15.1175Z" fill="#CE4317"/>
<path d="M13.3347 15.1175C19.204 11.0432 20.7234 18.7563 20.7495 23.1221C24.2656 19.8226 31.6596 15.3044 33.1067 23.6282C34.5539 31.9519 21.8094 35.2671 15.2562 35.8841C12.1702 30.6596 7.46547 19.1918 13.3347 15.1175Z" fill="white" fill-opacity="0.15"/>
<path d="M16.4417 18.5407C17.1836 17.9149 18.324 17.4607 17.2982 16.5466C16.2724 15.6326 14.9646 16.4872 14.2224 17.1128C13.2838 17.9041 12.3956 19.1618 13.4201 20.0753C14.7857 21.293 15.6998 19.1664 16.4417 18.5407Z" fill="#FEFEFE"/>
<path d="M14.7273 22.3807C14.2964 21.9435 13.4315 21.5032 12.9943 21.934C12.5565 22.3649 12.2019 23.3174 12.5468 23.6669C12.9783 24.1041 13.6609 24.7224 14.2798 24.1137C14.7177 23.6829 15.0319 22.6899 14.7273 22.3807Z" fill="#FEFEFE"/>
</g>
<defs>
<clipPath id="clip0_1887_13438">
<rect width="50" height="50" fill="white"/>
</clipPath>
</defs>
</svg>
