<svg width="50" height="50" viewBox="0 0 50 50" fill="none" xmlns="http://www.w3.org/2000/svg">
<g clip-path="url(#clip0_1880_9355)">
<path d="M45.0037 37.5001C45.0037 39.7709 42.9431 42.1497 38.8497 44.0184C34.8448 45.8467 29.242 47.0038 23 47.0038C16.758 47.0038 11.1553 45.8467 7.15033 44.0184C3.05698 42.1497 0.996327 39.7709 0.996327 37.5001C0.996327 35.2292 3.05698 32.8505 7.15033 30.9818C11.1553 29.1534 16.758 27.9964 23 27.9964C29.242 27.9964 34.8448 29.1534 38.8497 30.9818C42.9431 32.8505 45.0037 35.2292 45.0037 37.5001Z" fill="#FAA21E"/>
<path d="M45.0037 37.5001C45.0037 39.7709 42.9431 42.1497 38.8497 44.0184C34.8448 45.8467 29.242 47.0038 23 47.0038C16.758 47.0038 11.1553 45.8467 7.15033 44.0184C3.05698 42.1497 0.996327 39.7709 0.996327 37.5001C0.996327 35.2292 3.05698 32.8505 7.15033 30.9818C11.1553 29.1534 16.758 27.9964 23 27.9964C29.242 27.9964 34.8448 29.1534 38.8497 30.9818C42.9431 32.8505 45.0037 35.2292 45.0037 37.5001Z" fill="white" fill-opacity="0.95"/>
<path d="M45.0037 37.5001C45.0037 39.7709 42.9431 42.1497 38.8497 44.0184C34.8448 45.8467 29.242 47.0038 23 47.0038C16.758 47.0038 11.1553 45.8467 7.15033 44.0184C3.05698 42.1497 0.996327 39.7709 0.996327 37.5001C0.996327 35.2292 3.05698 32.8505 7.15033 30.9818C11.1553 29.1534 16.758 27.9964 23 27.9964C29.242 27.9964 34.8448 29.1534 38.8497 30.9818C42.9431 32.8505 45.0037 35.2292 45.0037 37.5001Z" stroke="#FAA21E" stroke-width="1.99259"/>
<ellipse cx="23" cy="37.5001" rx="17" ry="6.5" fill="#898989"/>
<ellipse cx="23" cy="37.5001" rx="17" ry="6.5" fill="white" fill-opacity="0.8"/>
<g clip-path="url(#clip1_1880_9355)">
<path d="M22.83 42.171C17.4017 42.171 13.8965 40.1858 13.4002 39.1932C12.9039 38.2006 12.9039 34.6574 12.9039 34.6574H32.756C32.756 36.775 32.8791 38.1965 32.2597 39.1932C31.2728 40.7814 27.7647 42.171 22.83 42.171Z" fill="#FAA21E"/>
<path d="M40.0851 20.0494C39.2788 20.0136 38.1081 19.0908 38.5886 17.3708C39.069 15.6509 41.1427 14.4371 43.5614 14.5447C45.9802 14.6524 47.1316 16.0096 48.3024 16.9323C48.2637 17.8013 48.5122 21.295 46.3612 24.2467C44.2102 27.1984 41.8272 28.3651 39.276 29.1555C37.6377 29.6631 37.183 30.8037 37.1444 31.6727C37.1057 32.5416 37.8733 33.4464 38.6796 33.4823" stroke="#FAA21E" stroke-width="2.48152" stroke-linecap="round"/>
<path d="M41.6895 9.00897H3.97043C5.5885 12.7845 6.66721 13.3238 7.74593 17.6387C8.28529 19.7961 7.74593 26.6574 8.82464 30.4329C10.1907 35.2142 12.9945 37.7154 15.8363 39.0626C18.6662 40.4042 26.5039 40.4042 29.8596 39.0626C32.7798 37.8952 35.5473 35.2871 36.8712 30.4329C38.3997 24.8286 37.3065 20.8558 37.9499 17.6387C38.4893 14.9419 39.532 13.3238 41.6895 9.00897Z" fill="#898989"/>
<path d="M41.6895 9.00897H3.97043C5.5885 12.7845 6.66721 13.3238 7.74593 17.6387C8.28529 19.7961 7.74593 26.6574 8.82464 30.4329C10.1907 35.2142 12.9945 37.7154 15.8363 39.0626C18.6662 40.4042 26.5039 40.4042 29.8596 39.0626C32.7798 37.8952 35.5473 35.2871 36.8712 30.4329C38.3997 24.8286 37.3065 20.8558 37.9499 17.6387C38.4893 14.9419 39.532 13.3238 41.6895 9.00897Z" fill="white" fill-opacity="0.95"/>
<path d="M41.6895 8.80528C41.6895 11.4836 33.4725 13.7435 23.0567 13.7435C12.6409 13.7435 3.97043 11.4836 3.97043 8.80528C3.97043 6.12692 12.6409 3.95569 23.0567 3.95569C33.4725 3.95569 41.6895 6.12692 41.6895 8.80528Z" fill="#898989"/>
<path d="M41.6895 8.80528C41.6895 11.4836 33.4725 13.7435 23.0567 13.7435C12.6409 13.7435 3.97043 11.4836 3.97043 8.80528C3.97043 6.12692 12.6409 3.95569 23.0567 3.95569C33.4725 3.95569 41.6895 6.12692 41.6895 8.80528Z" fill="white" fill-opacity="0.6"/>
<path d="M41.6895 8.80528C41.6895 11.4836 33.4725 13.7435 23.0567 13.7435C12.6409 13.7435 3.97043 11.4836 3.97043 8.80528C3.97043 6.12692 12.6409 3.95569 23.0567 3.95569C33.4725 3.95569 41.6895 6.12692 41.6895 8.80528Z" stroke="#FAA21E" stroke-width="1.48891"/>
<path d="M36.863 11.3808C36.863 11.0321 29.2426 9.88636 22.9149 9.88636C16.5871 9.88636 8.96671 11.0321 8.96671 11.3808C8.96671 11.7294 14.9445 13.1741 22.9149 13.1741C31.8815 13.1741 36.863 11.7294 36.863 11.3808Z" fill="#FAA21E"/>
<path d="M36.863 11.3808C36.863 11.0321 29.2426 9.88636 22.9149 9.88636C16.5871 9.88636 8.96671 11.0321 8.96671 11.3808C8.96671 11.7294 14.9445 13.1741 22.9149 13.1741C31.8815 13.1741 36.863 11.7294 36.863 11.3808Z" fill="white" fill-opacity="0.4"/>
</g>
<path d="M27 32.8485C27 34.3637 26.5953 35.5001 22.9524 35.5001C21.4683 35.5001 18.5 34.9698 18.5 32.8485C18.5 30.197 19.7143 23.0001 22.9524 23.0001C26.1905 23.0001 27 31.3334 27 32.8485Z" fill="#546DDB"/>
<path d="M27 32.8485C27 34.3637 26.5953 35.5001 22.9524 35.5001C21.4683 35.5001 18.5 34.9698 18.5 32.8485C18.5 30.197 19.7143 23.0001 22.9524 23.0001C26.1905 23.0001 27 31.3334 27 32.8485Z" fill="white" fill-opacity="0.6"/>
<path d="M32.9371 25.2501C33.675 23.2858 27.7718 17.0001 22.9753 17.0001C17.0726 17.0001 12.719 23.6786 13.0142 25.2501C13.3831 27.2143 18.917 28.0001 22.9753 28.0001C27.0337 28.0001 32.1993 27.2143 32.9371 25.2501Z" fill="#7445B8"/>
<path d="M32.9371 25.2501C33.675 23.2858 27.7718 17.0001 22.9753 17.0001C17.0726 17.0001 12.719 23.6786 13.0142 25.2501C13.3831 27.2143 18.917 28.0001 22.9753 28.0001C27.0337 28.0001 32.1993 27.2143 32.9371 25.2501Z" fill="white" fill-opacity="0.4"/>
<path d="M20.883 20.6186C21.4795 20.1567 22.3799 19.8411 21.613 19.0979C20.8461 18.3547 19.8027 18.9758 19.2059 19.4376C18.4513 20.0215 17.7206 20.9694 18.4865 21.7121C19.5075 22.7022 20.2865 21.0804 20.883 20.6186Z" fill="#FEFEFE"/>
<path d="M18.1863 23.1536C17.9686 22.729 17.4296 22.2012 17.0051 22.419C16.5801 22.6367 16.0955 23.2606 16.27 23.6001C16.4882 24.0247 16.8506 24.6421 17.4512 24.3347C17.8762 24.1171 18.3403 23.4537 18.1863 23.1536Z" fill="#FEFEFE"/>
</g>
<defs>
<clipPath id="clip0_1880_9355">
<rect width="50" height="50" fill="white"/>
</clipPath>
<clipPath id="clip1_1880_9355">
<rect width="49.8148" height="49.8148" fill="white" transform="translate(3.05176e-05 -1.99994)"/>
</clipPath>
</defs>
</svg>
