<svg width="50" height="50" viewBox="0 0 50 50" fill="none" xmlns="http://www.w3.org/2000/svg">
<g clip-path="url(#clip0_1880_9353)">
<path d="M45.0036 37.5001C45.0036 39.7709 42.943 42.1497 38.8496 44.0184C34.8447 45.8467 29.2419 47.0038 22.9999 47.0038C16.7579 47.0038 11.1552 45.8467 7.15024 44.0184C3.05689 42.1497 0.996235 39.7709 0.996235 37.5001C0.996235 35.2292 3.05689 32.8505 7.15024 30.9818C11.1552 29.1534 16.7579 27.9964 22.9999 27.9964C29.2419 27.9964 34.8447 29.1534 38.8496 30.9818C42.943 32.8505 45.0036 35.2292 45.0036 37.5001Z" fill="#FAA21E"/>
<path d="M45.0036 37.5001C45.0036 39.7709 42.943 42.1497 38.8496 44.0184C34.8447 45.8467 29.2419 47.0038 22.9999 47.0038C16.7579 47.0038 11.1552 45.8467 7.15024 44.0184C3.05689 42.1497 0.996235 39.7709 0.996235 37.5001C0.996235 35.2292 3.05689 32.8505 7.15024 30.9818C11.1552 29.1534 16.7579 27.9964 22.9999 27.9964C29.2419 27.9964 34.8447 29.1534 38.8496 30.9818C42.943 32.8505 45.0036 35.2292 45.0036 37.5001Z" fill="white" fill-opacity="0.95"/>
<path d="M45.0036 37.5001C45.0036 39.7709 42.943 42.1497 38.8496 44.0184C34.8447 45.8467 29.2419 47.0038 22.9999 47.0038C16.7579 47.0038 11.1552 45.8467 7.15024 44.0184C3.05689 42.1497 0.996235 39.7709 0.996235 37.5001C0.996235 35.2292 3.05689 32.8505 7.15024 30.9818C11.1552 29.1534 16.7579 27.9964 22.9999 27.9964C29.2419 27.9964 34.8447 29.1534 38.8496 30.9818C42.943 32.8505 45.0036 35.2292 45.0036 37.5001Z" stroke="#FAA21E" stroke-width="1.99259"/>
<ellipse cx="22.9999" cy="37.5001" rx="17" ry="6.5" fill="#898989"/>
<ellipse cx="22.9999" cy="37.5001" rx="17" ry="6.5" fill="white" fill-opacity="0.8"/>
<g clip-path="url(#clip1_1880_9353)">
<path d="M22.8299 42.171C17.4016 42.171 13.8964 40.1858 13.4001 39.1932C12.9038 38.2006 12.9038 34.6574 12.9038 34.6574H32.7559C32.7559 36.775 32.879 38.1965 32.2596 39.1932C31.2727 40.7814 27.7646 42.171 22.8299 42.171Z" fill="#FAA21E"/>
<path d="M40.085 20.0494C39.2788 20.0136 38.108 19.0908 38.5885 17.3708C39.0689 15.6509 41.1426 14.4371 43.5614 14.5447C45.9802 14.6524 47.1316 16.0096 48.3023 16.9323C48.2636 17.8013 48.5121 21.295 46.3612 24.2467C44.2102 27.1984 41.8272 28.3651 39.276 29.1555C37.6377 29.6631 37.183 30.8037 37.1443 31.6727C37.1057 32.5416 37.8733 33.4464 38.6795 33.4823" stroke="#FAA21E" stroke-width="2.48152" stroke-linecap="round"/>
<path d="M41.6894 9.00897H3.97034C5.58841 12.7845 6.66712 13.3238 7.74584 17.6387C8.2852 19.7961 7.74584 26.6574 8.82455 30.4329C10.1906 35.2142 12.9944 37.7154 15.8362 39.0626C18.6661 40.4042 26.5038 40.4042 29.8595 39.0626C32.7797 37.8952 35.5473 35.2871 36.8711 30.4329C38.3996 24.8286 37.3064 20.8558 37.9498 17.6387C38.4892 14.9419 39.5319 13.3238 41.6894 9.00897Z" fill="#898989"/>
<path d="M41.6894 9.00897H3.97034C5.58841 12.7845 6.66712 13.3238 7.74584 17.6387C8.2852 19.7961 7.74584 26.6574 8.82455 30.4329C10.1906 35.2142 12.9944 37.7154 15.8362 39.0626C18.6661 40.4042 26.5038 40.4042 29.8595 39.0626C32.7797 37.8952 35.5473 35.2871 36.8711 30.4329C38.3996 24.8286 37.3064 20.8558 37.9498 17.6387C38.4892 14.9419 39.5319 13.3238 41.6894 9.00897Z" fill="white" fill-opacity="0.95"/>
<path d="M41.6894 8.80528C41.6894 11.4836 33.4724 13.7435 23.0566 13.7435C12.6408 13.7435 3.97034 11.4836 3.97034 8.80528C3.97034 6.12692 12.6408 3.95569 23.0566 3.95569C33.4724 3.95569 41.6894 6.12692 41.6894 8.80528Z" fill="#898989"/>
<path d="M41.6894 8.80528C41.6894 11.4836 33.4724 13.7435 23.0566 13.7435C12.6408 13.7435 3.97034 11.4836 3.97034 8.80528C3.97034 6.12692 12.6408 3.95569 23.0566 3.95569C33.4724 3.95569 41.6894 6.12692 41.6894 8.80528Z" fill="white" fill-opacity="0.6"/>
<path d="M41.6894 8.80528C41.6894 11.4836 33.4724 13.7435 23.0566 13.7435C12.6408 13.7435 3.97034 11.4836 3.97034 8.80528C3.97034 6.12692 12.6408 3.95569 23.0566 3.95569C33.4724 3.95569 41.6894 6.12692 41.6894 8.80528Z" stroke="#FAA21E" stroke-width="1.48891"/>
<path d="M36.8629 11.3808C36.8629 11.0321 29.2425 9.88636 22.9148 9.88636C16.587 9.88636 8.96661 11.0321 8.96661 11.3808C8.96661 11.7294 14.9444 13.1741 22.9148 13.1741C31.8814 13.1741 36.8629 11.7294 36.8629 11.3808Z" fill="#FAA21E"/>
<path d="M36.8629 11.3808C36.8629 11.0321 29.2425 9.88636 22.9148 9.88636C16.587 9.88636 8.96661 11.0321 8.96661 11.3808C8.96661 11.7294 14.9444 13.1741 22.9148 13.1741C31.8814 13.1741 36.8629 11.7294 36.8629 11.3808Z" fill="white" fill-opacity="0.4"/>
</g>
<g clip-path="url(#clip2_1880_9353)">
<path d="M29.4999 23.5001H16.4999C16.4999 24.3424 16.5839 26.3197 16.9999 27.9737C17.4159 29.6278 17.9999 31.0001 18.4999 32.0001H27.4999C28.0199 31.2343 28.5839 29.2602 28.9999 27.9737C29.4159 26.6873 29.4999 24.4956 29.4999 23.5001Z" fill="#2FC4A7"/>
<path d="M29.4999 23.5001H16.4999C16.4999 24.3424 16.5839 26.3197 16.9999 27.9737C17.4159 29.6278 17.9999 31.0001 18.4999 32.0001H27.4999C28.0199 31.2343 28.5839 29.2602 28.9999 27.9737C29.4159 26.6873 29.4999 24.4956 29.4999 23.5001Z" fill="white" fill-opacity="0.4"/>
<path d="M29.4999 23.5001H16.4999C16.4999 24.3424 16.5839 26.3197 16.9999 27.9737C17.4159 29.6278 17.9999 31.0001 18.4999 32.0001H27.4999C28.0199 31.2343 28.5839 29.2602 28.9999 27.9737C29.4159 26.6873 29.4999 24.4956 29.4999 23.5001Z" stroke="#2FC4A7" stroke-width="0.992606"/>
<path d="M29.4999 23.5001H16.4999C16.4999 24.3424 16.5839 26.3197 16.9999 27.9737C17.4159 29.6278 17.9999 31.0001 18.4999 32.0001H27.4999C28.0199 31.2343 28.5839 29.2602 28.9999 27.9737C29.4159 26.6873 29.4999 24.4956 29.4999 23.5001Z" stroke="white" stroke-opacity="0.4" stroke-width="0.992606"/>
<path d="M13.9999 34.7001C13.3203 34.1563 13.1666 33.7001 12.9999 33.5001H32.9999C32.7499 33.7001 32.6249 34.2001 31.9999 34.7001C31.3749 35.2001 30.3333 35.3001 29.9999 35.5001H15.9999C15.6666 35.3001 14.6796 35.2438 13.9999 34.7001Z" fill="#2FC4A7"/>
<path d="M13.9999 34.7001C13.3203 34.1563 13.1666 33.7001 12.9999 33.5001H32.9999C32.7499 33.7001 32.6249 34.2001 31.9999 34.7001C31.3749 35.2001 30.3333 35.3001 29.9999 35.5001H15.9999C15.6666 35.3001 14.6796 35.2438 13.9999 34.7001Z" fill="white" fill-opacity="0.2"/>
<path d="M13.9999 34.7001C13.3203 34.1563 13.1666 33.7001 12.9999 33.5001H32.9999C32.7499 33.7001 32.6249 34.2001 31.9999 34.7001C31.3749 35.2001 30.3333 35.3001 29.9999 35.5001H15.9999C15.6666 35.3001 14.6796 35.2438 13.9999 34.7001Z" stroke="#2FC4A7" stroke-width="0.992606"/>
<path d="M13.9999 34.7001C13.3203 34.1563 13.1666 33.7001 12.9999 33.5001H32.9999C32.7499 33.7001 32.6249 34.2001 31.9999 34.7001C31.3749 35.2001 30.3333 35.3001 29.9999 35.5001H15.9999C15.6666 35.3001 14.6796 35.2438 13.9999 34.7001Z" stroke="white" stroke-opacity="0.2" stroke-width="0.992606"/>
<path d="M28.7499 25.25C29.0512 25.0898 30.7499 24.5001 31.4999 25.0001C32.5795 25.7198 32.5512 26.5386 32.2499 27.5C32.0089 28.2691 29.2072 29.6989 27.4999 30.5" stroke="#2FC4A7" stroke-width="0.996296"/>
<path d="M28.7499 25.25C29.0512 25.0898 30.7499 24.5001 31.4999 25.0001C32.5795 25.7198 32.5512 26.5386 32.2499 27.5C32.0089 28.2691 29.2072 29.6989 27.4999 30.5" stroke="white" stroke-opacity="0.4" stroke-width="0.996296"/>
<path d="M21.9999 17.0001C22.4166 17.1667 23.9999 17.4219 23.9999 18.5001C23.9999 19.5782 21.9999 20.0001 21.9999 21.0001C21.9999 22.0001 22.9999 22.2501 23.9999 22.5001" stroke="#1D8CE0" stroke-width="0.996296" stroke-linecap="round"/>
<path d="M21.9999 17.0001C22.4166 17.1667 23.9999 17.4219 23.9999 18.5001C23.9999 19.5782 21.9999 20.0001 21.9999 21.0001C21.9999 22.0001 22.9999 22.2501 23.9999 22.5001" stroke="white" stroke-opacity="0.6" stroke-width="0.996296" stroke-linecap="round"/>
</g>
</g>
<defs>
<clipPath id="clip0_1880_9353">
<rect width="50" height="50" fill="white"/>
</clipPath>
<clipPath id="clip1_1880_9353">
<rect width="49.8148" height="49.8148" fill="white" transform="translate(-6.10352e-05 -1.99994)"/>
</clipPath>
<clipPath id="clip2_1880_9353">
<rect width="20" height="20" fill="white" transform="translate(12.9999 16.0001)"/>
</clipPath>
</defs>
</svg>
