<svg width="50" height="50" viewBox="0 0 50 50" fill="none" xmlns="http://www.w3.org/2000/svg">
<g clip-path="url(#clip0_1880_9351)">
<path d="M45.0037 37.5001C45.0037 39.7709 42.9431 42.1497 38.8497 44.0184C34.8448 45.8467 29.242 47.0038 23 47.0038C16.758 47.0038 11.1552 45.8467 7.1503 44.0184C3.05695 42.1497 0.996296 39.7709 0.996296 37.5001C0.996296 35.2292 3.05695 32.8505 7.1503 30.9818C11.1552 29.1534 16.758 27.9964 23 27.9964C29.242 27.9964 34.8448 29.1534 38.8497 30.9818C42.9431 32.8505 45.0037 35.2292 45.0037 37.5001Z" fill="#FAA21E"/>
<path d="M45.0037 37.5001C45.0037 39.7709 42.9431 42.1497 38.8497 44.0184C34.8448 45.8467 29.242 47.0038 23 47.0038C16.758 47.0038 11.1552 45.8467 7.1503 44.0184C3.05695 42.1497 0.996296 39.7709 0.996296 37.5001C0.996296 35.2292 3.05695 32.8505 7.1503 30.9818C11.1552 29.1534 16.758 27.9964 23 27.9964C29.242 27.9964 34.8448 29.1534 38.8497 30.9818C42.9431 32.8505 45.0037 35.2292 45.0037 37.5001Z" fill="white" fill-opacity="0.95"/>
<path d="M45.0037 37.5001C45.0037 39.7709 42.9431 42.1497 38.8497 44.0184C34.8448 45.8467 29.242 47.0038 23 47.0038C16.758 47.0038 11.1552 45.8467 7.1503 44.0184C3.05695 42.1497 0.996296 39.7709 0.996296 37.5001C0.996296 35.2292 3.05695 32.8505 7.1503 30.9818C11.1552 29.1534 16.758 27.9964 23 27.9964C29.242 27.9964 34.8448 29.1534 38.8497 30.9818C42.9431 32.8505 45.0037 35.2292 45.0037 37.5001Z" stroke="#FAA21E" stroke-width="1.99259"/>
<ellipse cx="23" cy="37.5001" rx="17" ry="6.5" fill="#898989"/>
<ellipse cx="23" cy="37.5001" rx="17" ry="6.5" fill="white" fill-opacity="0.8"/>
<g clip-path="url(#clip1_1880_9351)">
<path d="M22.8299 42.171C17.4017 42.171 13.8965 40.1858 13.4002 39.1932C12.9039 38.2006 12.9039 34.6574 12.9039 34.6574H32.756C32.756 36.775 32.8791 38.1965 32.2597 39.1932C31.2727 40.7814 27.7647 42.171 22.8299 42.171Z" fill="#FAA21E"/>
<path d="M40.0851 20.0494C39.2788 20.0136 38.1081 19.0908 38.5886 17.3708C39.069 15.6509 41.1427 14.4371 43.5614 14.5447C45.9802 14.6524 47.1316 16.0096 48.3024 16.9323C48.2637 17.8013 48.5122 21.295 46.3612 24.2467C44.2102 27.1984 41.8272 28.3651 39.276 29.1555C37.6377 29.6631 37.183 30.8037 37.1444 31.6727C37.1057 32.5416 37.8733 33.4464 38.6796 33.4823" stroke="#FAA21E" stroke-width="2.48152" stroke-linecap="round"/>
<path d="M41.6894 9.00897H3.9704C5.58847 12.7845 6.66718 13.3238 7.7459 17.6387C8.28526 19.7961 7.7459 26.6574 8.82461 30.4329C10.1907 35.2142 12.9945 37.7154 15.8363 39.0626C18.6661 40.4042 26.5039 40.4042 29.8595 39.0626C32.7798 37.8952 35.5473 35.2871 36.8712 30.4329C38.3997 24.8286 37.3065 20.8558 37.9499 17.6387C38.4893 14.9419 39.532 13.3238 41.6894 9.00897Z" fill="#898989"/>
<path d="M41.6894 9.00897H3.9704C5.58847 12.7845 6.66718 13.3238 7.7459 17.6387C8.28526 19.7961 7.7459 26.6574 8.82461 30.4329C10.1907 35.2142 12.9945 37.7154 15.8363 39.0626C18.6661 40.4042 26.5039 40.4042 29.8595 39.0626C32.7798 37.8952 35.5473 35.2871 36.8712 30.4329C38.3997 24.8286 37.3065 20.8558 37.9499 17.6387C38.4893 14.9419 39.532 13.3238 41.6894 9.00897Z" fill="white" fill-opacity="0.95"/>
<path d="M41.6894 8.80528C41.6894 11.4836 33.4725 13.7435 23.0566 13.7435C12.6408 13.7435 3.9704 11.4836 3.9704 8.80528C3.9704 6.12692 12.6408 3.95569 23.0566 3.95569C33.4725 3.95569 41.6894 6.12692 41.6894 8.80528Z" fill="#898989"/>
<path d="M41.6894 8.80528C41.6894 11.4836 33.4725 13.7435 23.0566 13.7435C12.6408 13.7435 3.9704 11.4836 3.9704 8.80528C3.9704 6.12692 12.6408 3.95569 23.0566 3.95569C33.4725 3.95569 41.6894 6.12692 41.6894 8.80528Z" fill="white" fill-opacity="0.6"/>
<path d="M41.6894 8.80528C41.6894 11.4836 33.4725 13.7435 23.0566 13.7435C12.6408 13.7435 3.9704 11.4836 3.9704 8.80528C3.9704 6.12692 12.6408 3.95569 23.0566 3.95569C33.4725 3.95569 41.6894 6.12692 41.6894 8.80528Z" stroke="#FAA21E" stroke-width="1.48891"/>
<path d="M36.863 11.3808C36.863 11.0321 29.2426 9.88636 22.9148 9.88636C16.5871 9.88636 8.96667 11.0321 8.96667 11.3808C8.96667 11.7294 14.9445 13.1741 22.9148 13.1741C31.8815 13.1741 36.863 11.7294 36.863 11.3808Z" fill="#FAA21E"/>
<path d="M36.863 11.3808C36.863 11.0321 29.2426 9.88636 22.9148 9.88636C16.5871 9.88636 8.96667 11.0321 8.96667 11.3808C8.96667 11.7294 14.9445 13.1741 22.9148 13.1741C31.8815 13.1741 36.863 11.7294 36.863 11.3808Z" fill="white" fill-opacity="0.4"/>
</g>
<path d="M17.5955 34.5133L17.3531 28.9625C14.8507 27.1437 12.7665 26.2929 13.9955 22.9389C14.9196 20.4169 17.6503 19.4331 19.6917 21.315C19.2955 19.4432 21.0298 16.5944 24.1428 16.7609C27.2559 16.9274 29.0303 20.2268 28.0161 22.4323C29.372 22.3879 32.4435 22.462 32.3796 25.5C32.3232 28.1853 30.1436 29.4226 27.5763 29.5385L26.7558 34.7664L17.5955 34.5133Z" fill="#FEFEFE"/>
<path d="M17.5955 34.5133L17.3531 28.9625C14.8507 27.1437 12.7665 26.2929 13.9955 22.9389C14.9196 20.4169 17.6503 19.4331 19.6917 21.315C19.2955 19.4432 21.0298 16.5944 24.1428 16.7609C27.2559 16.9274 29.0303 20.2268 28.0161 22.4323C29.372 22.3879 32.4435 22.462 32.3796 25.5C32.3232 28.1853 30.1436 29.4226 27.5763 29.5385L26.7558 34.7664L17.5955 34.5133Z" stroke="#898989" stroke-width="0.498148"/>
<path d="M17.5955 34.5133L17.3531 28.9625C14.8507 27.1437 12.7665 26.2929 13.9955 22.9389C14.9196 20.4169 17.6503 19.4331 19.6917 21.315C19.2955 19.4432 21.0298 16.5944 24.1428 16.7609C27.2559 16.9274 29.0303 20.2268 28.0161 22.4323C29.372 22.3879 32.4435 22.462 32.3796 25.5C32.3232 28.1853 30.1436 29.4226 27.5763 29.5385L26.7558 34.7664L17.5955 34.5133Z" stroke="white" stroke-opacity="0.2" stroke-width="0.498148"/>
<path d="M19.9218 29.2303C19.9226 28.9552 19.7002 28.7315 19.4251 28.7307C19.15 28.7299 18.9263 28.9522 18.9255 29.2274L19.9218 29.2303ZM18.9255 29.2274L18.9099 34.5154L19.9062 34.5184L19.9218 29.2303L18.9255 29.2274Z" fill="#898989"/>
<path d="M19.9218 29.2303C19.9226 28.9552 19.7002 28.7315 19.4251 28.7307C19.15 28.7299 18.9263 28.9522 18.9255 29.2274L19.9218 29.2303ZM18.9255 29.2274L18.9099 34.5154L19.9062 34.5184L19.9218 29.2303L18.9255 29.2274Z" fill="white" fill-opacity="0.2"/>
<path d="M22.8892 29.3952C22.9021 29.1204 22.6897 28.8871 22.4149 28.8743C22.1401 28.8614 21.9069 29.0738 21.894 29.3486L22.8892 29.3952ZM21.894 29.3486L21.6508 34.5449L22.646 34.5914L22.8892 29.3952L21.894 29.3486Z" fill="#898989"/>
<path d="M22.8892 29.3952C22.9021 29.1204 22.6897 28.8871 22.4149 28.8743C22.1401 28.8614 21.9069 29.0738 21.894 29.3486L22.8892 29.3952ZM21.894 29.3486L21.6508 34.5449L22.646 34.5914L22.8892 29.3952L21.894 29.3486Z" fill="white" fill-opacity="0.2"/>
<path d="M25.7771 29.6525C25.8024 29.3785 25.6008 29.136 25.3268 29.1107C25.0529 29.0854 24.8103 29.287 24.785 29.561L25.7771 29.6525ZM24.785 29.561L24.3142 34.6655L25.3063 34.757L25.7771 29.6525L24.785 29.561Z" fill="#898989"/>
<path d="M25.7771 29.6525C25.8024 29.3785 25.6008 29.136 25.3268 29.1107C25.0529 29.0854 24.8103 29.287 24.785 29.561L25.7771 29.6525ZM24.785 29.561L24.3142 34.6655L25.3063 34.757L25.7771 29.6525L24.785 29.561Z" fill="white" fill-opacity="0.2"/>
</g>
<defs>
<clipPath id="clip0_1880_9351">
<rect width="50" height="50" fill="white"/>
</clipPath>
<clipPath id="clip1_1880_9351">
<rect width="49.8148" height="49.8148" fill="white" transform="translate(0 -1.99994)"/>
</clipPath>
</defs>
</svg>
