<svg width="51" height="50" viewBox="0 0 51 50" fill="none" xmlns="http://www.w3.org/2000/svg">
<g clip-path="url(#clip0_1887_13434)">
<ellipse cx="21.7" cy="42.5" rx="21.5" ry="7.5" fill="#FAA21E"/>
<g clip-path="url(#clip1_1887_13434)">
<g clip-path="url(#clip2_1887_13434)">
<path d="M37.2 12.8182V16.4546C37.819 15.697 39.3357 13.7273 42.3071 13.7273C46.0214 13.7273 47.4142 17.8182 47.4142 21.0001C47.4142 24.1819 45.5571 28.2728 42.3071 28.2728C39.7071 28.2728 37.6642 26.0001 37.2 25.5455V29.1819C37.6642 29.1819 38.5928 31.0001 42.3071 31.0001C46.9499 31.0001 50.1999 26.9092 50.1999 21.0001C50.1999 15.091 46.9499 11.0001 42.3071 11.0001C39.0571 11.0001 37.6642 12.8182 37.2 12.8182Z" fill="#FAA21E"/>
<path d="M5.19995 5.00006H38.1999V41.5001C38.1999 41.5001 35.1999 46.5001 21.7 46.5001C8.19998 46.5001 5.19995 41.5001 5.19995 41.5001V5.00006Z" fill="#FAA21E"/>
<path d="M5.19995 5.00006H38.1999V41.5001C38.1999 41.5001 35.1999 46.5001 21.7 46.5001C8.19998 46.5001 5.19995 41.5001 5.19995 41.5001V5.00006Z" fill="white" fill-opacity="0.95"/>
<ellipse cx="21.6999" cy="4.50006" rx="16.5" ry="4.5" fill="#FAA21E"/>
<ellipse cx="21.7" cy="4.50009" rx="14.5" ry="3.5" fill="#898989"/>
<ellipse cx="21.7" cy="4.50009" rx="14.5" ry="3.5" fill="white" fill-opacity="0.4"/>
<path d="M33.1999 6.50009C33.1999 6.00009 28.0512 5.00009 21.6999 5.00009C15.3487 5.00009 10.2 6.00009 10.2 6.50009C10.2 7.00009 15.3487 8.00009 21.6999 8.00009C28.0512 8.00009 33.1999 7.00009 33.1999 6.50009Z" fill="#FAA21E"/>
<path d="M33.1999 6.50009C33.1999 6.00009 28.0512 5.00009 21.6999 5.00009C15.3487 5.00009 10.2 6.00009 10.2 6.50009C10.2 7.00009 15.3487 8.00009 21.6999 8.00009C28.0512 8.00009 33.1999 7.00009 33.1999 6.50009Z" fill="black" fill-opacity="0.6"/>
</g>
<path fill-rule="evenodd" clip-rule="evenodd" d="M13.2986 23.4944C13.2986 21.5372 13.7717 19.1068 14.6034 18.2751C15.2558 17.6227 16.5077 16.9703 17.5393 16.9703C18.5179 16.9703 20.8014 17.6227 21.4538 18.2751C22.1062 18.9276 21.78 19.9061 20.8014 20.2324C20.3784 20.3734 19.8944 20.3315 19.4286 20.2912C18.8166 20.2383 18.2359 20.1881 17.8655 20.5586C17.3497 21.0743 17.3497 22.3263 17.8655 22.842C18.3836 23.3601 18.696 23.6725 19.4561 24.1059C19.4621 24.1125 19.4683 24.119 19.4747 24.1254C19.5489 24.1989 19.6583 24.2854 19.7528 24.36L19.7605 24.3661L19.7766 24.3788L19.7766 24.3789C19.8794 24.4601 19.9897 24.5473 20.101 24.6426C20.3475 24.8536 20.5381 25.055 20.6223 25.2246C20.7401 25.4619 20.7953 25.7274 20.8215 26.0164C20.8345 26.1607 20.8399 26.3055 20.8438 26.4539L20.8461 26.5487V26.5487C20.8489 26.6643 20.8518 26.7847 20.858 26.8967C20.8732 27.1694 21.1066 27.3781 21.3793 27.3628C21.6519 27.3476 21.8606 27.1143 21.8454 26.8416C21.8401 26.747 21.8378 26.6481 21.8351 26.5357L21.8351 26.5356L21.8324 26.4279C21.8284 26.2746 21.8223 26.1041 21.8064 25.9273C21.7745 25.5744 21.7014 25.1747 21.5085 24.7857C23.5199 25.025 26.8032 24.8974 27.6517 24.4731C28.3042 24.1469 28.9566 23.1682 29.2175 22.1896C29.3807 21.5776 28.9756 21.5673 28.6304 21.8634C28.4863 22.0074 28.3805 22.2405 28.2622 22.5008C28.1126 22.8301 27.9432 23.203 27.6517 23.4945C27.0291 24.1171 22.0902 24.2156 20.3725 23.5893C20.2583 23.499 20.198 23.4499 20.1707 23.4228C20.0543 23.3075 19.8951 23.2619 19.7448 23.2858C18.6507 22.6995 17.9002 22.0855 18.1917 21.211C18.2998 20.8867 18.7035 20.9654 19.2424 21.0705C19.7877 21.1768 20.4714 21.3102 21.1276 21.0805C22.3971 20.6362 23.0848 18.9276 22.4324 17.9489C21.78 16.9703 18.5179 15.9917 17.5393 15.9917C16.853 15.9917 16.2202 16.259 15.7534 16.4563C15.5545 16.5403 15.3858 16.6116 15.2558 16.6441C15.582 15.7742 16.8216 13.7082 17.8655 13.7082C19.1703 13.7082 21.4538 14.0344 23.0848 14.6869C24.7159 15.3393 28.3042 16.9702 29.609 18.2751C30.724 19.3901 30.648 21.9342 30.6023 23.4651C30.5945 23.7258 30.5876 23.957 30.5876 24.1469C30.5876 25.0426 29.8191 26.7068 29.2316 27.979C28.9632 28.56 28.7327 29.0593 28.6304 29.3662C28.5571 29.5861 28.4673 29.839 28.3684 30.1175C28.0274 31.0779 27.5784 32.3424 27.3255 33.6069C27.161 34.4295 27.1175 35.641 27.0806 36.6694C27.0589 37.2722 27.0395 37.8122 26.9993 38.1738C26.8595 38.2204 26.7131 38.2737 26.5561 38.3308C25.6146 38.6731 24.2965 39.1525 21.78 39.1525C19.2635 39.1525 17.7856 38.8329 16.73 38.6047C16.554 38.5666 16.3898 38.5311 16.2345 38.5C16.6694 37.1952 17.5393 34.2593 17.5393 32.9545C17.5393 31.6497 17.3218 30.6711 17.2131 30.3448C16.7781 29.8012 15.7125 28.3876 14.9296 27.0828C14.768 26.8135 14.6037 26.5581 14.4446 26.3108C13.8328 25.3601 13.2986 24.53 13.2986 23.4944Z" fill="#FAA21E"/>
<path fill-rule="evenodd" clip-rule="evenodd" d="M13.2986 23.4944C13.2986 21.5372 13.7717 19.1068 14.6034 18.2751C15.2558 17.6227 16.5077 16.9703 17.5393 16.9703C18.5179 16.9703 20.8014 17.6227 21.4538 18.2751C22.1062 18.9276 21.78 19.9061 20.8014 20.2324C20.3784 20.3734 19.8944 20.3315 19.4286 20.2912C18.8166 20.2383 18.2359 20.1881 17.8655 20.5586C17.3497 21.0743 17.3497 22.3263 17.8655 22.842C18.3836 23.3601 18.696 23.6725 19.4561 24.1059C19.4621 24.1125 19.4683 24.119 19.4747 24.1254C19.5489 24.1989 19.6583 24.2854 19.7528 24.36L19.7605 24.3661L19.7766 24.3788L19.7766 24.3789C19.8794 24.4601 19.9897 24.5473 20.101 24.6426C20.3475 24.8536 20.5381 25.055 20.6223 25.2246C20.7401 25.4619 20.7953 25.7274 20.8215 26.0164C20.8345 26.1607 20.8399 26.3055 20.8438 26.4539L20.8461 26.5487V26.5487C20.8489 26.6643 20.8518 26.7847 20.858 26.8967C20.8732 27.1694 21.1066 27.3781 21.3793 27.3628C21.6519 27.3476 21.8606 27.1143 21.8454 26.8416C21.8401 26.747 21.8378 26.6481 21.8351 26.5357L21.8351 26.5356L21.8324 26.4279C21.8284 26.2746 21.8223 26.1041 21.8064 25.9273C21.7745 25.5744 21.7014 25.1747 21.5085 24.7857C23.5199 25.025 26.8032 24.8974 27.6517 24.4731C28.3042 24.1469 28.9566 23.1682 29.2175 22.1896C29.3807 21.5776 28.9756 21.5673 28.6304 21.8634C28.4863 22.0074 28.3805 22.2405 28.2622 22.5008C28.1126 22.8301 27.9432 23.203 27.6517 23.4945C27.0291 24.1171 22.0902 24.2156 20.3725 23.5893C20.2583 23.499 20.198 23.4499 20.1707 23.4228C20.0543 23.3075 19.8951 23.2619 19.7448 23.2858C18.6507 22.6995 17.9002 22.0855 18.1917 21.211C18.2998 20.8867 18.7035 20.9654 19.2424 21.0705C19.7877 21.1768 20.4714 21.3102 21.1276 21.0805C22.3971 20.6362 23.0848 18.9276 22.4324 17.9489C21.78 16.9703 18.5179 15.9917 17.5393 15.9917C16.853 15.9917 16.2202 16.259 15.7534 16.4563C15.5545 16.5403 15.3858 16.6116 15.2558 16.6441C15.582 15.7742 16.8216 13.7082 17.8655 13.7082C19.1703 13.7082 21.4538 14.0344 23.0848 14.6869C24.7159 15.3393 28.3042 16.9702 29.609 18.2751C30.724 19.3901 30.648 21.9342 30.6023 23.4651C30.5945 23.7258 30.5876 23.957 30.5876 24.1469C30.5876 25.0426 29.8191 26.7068 29.2316 27.979C28.9632 28.56 28.7327 29.0593 28.6304 29.3662C28.5571 29.5861 28.4673 29.839 28.3684 30.1175C28.0274 31.0779 27.5784 32.3424 27.3255 33.6069C27.161 34.4295 27.1175 35.641 27.0806 36.6694C27.0589 37.2722 27.0395 37.8122 26.9993 38.1738C26.8595 38.2204 26.7131 38.2737 26.5561 38.3308C25.6146 38.6731 24.2965 39.1525 21.78 39.1525C19.2635 39.1525 17.7856 38.8329 16.73 38.6047C16.554 38.5666 16.3898 38.5311 16.2345 38.5C16.6694 37.1952 17.5393 34.2593 17.5393 32.9545C17.5393 31.6497 17.3218 30.6711 17.2131 30.3448C16.7781 29.8012 15.7125 28.3876 14.9296 27.0828C14.768 26.8135 14.6037 26.5581 14.4446 26.3108C13.8328 25.3601 13.2986 24.53 13.2986 23.4944Z" fill="white" fill-opacity="0.4"/>
</g>
</g>
<defs>
<clipPath id="clip0_1887_13434">
<rect width="50" height="50" fill="white" transform="translate(0.199951)"/>
</clipPath>
<clipPath id="clip1_1887_13434">
<rect width="50.1859" height="50.1859" fill="white" transform="translate(0.199951 -1.99997)"/>
</clipPath>
<clipPath id="clip2_1887_13434">
<rect width="50" height="50" fill="white" transform="translate(0.199951 -1.99997)"/>
</clipPath>
</defs>
</svg>
