<svg width="50" height="50" viewBox="0 0 50 50" fill="none" xmlns="http://www.w3.org/2000/svg">
<g clip-path="url(#clip0_1880_9349)">
<path d="M45.0037 37.5001C45.0037 39.7709 42.9431 42.1497 38.8497 44.0184C34.8448 45.8467 29.242 47.0038 23 47.0038C16.758 47.0038 11.1552 45.8467 7.1503 44.0184C3.05695 42.1497 0.996296 39.7709 0.996296 37.5001C0.996296 35.2292 3.05695 32.8505 7.1503 30.9818C11.1552 29.1534 16.758 27.9964 23 27.9964C29.242 27.9964 34.8448 29.1534 38.8497 30.9818C42.9431 32.8505 45.0037 35.2292 45.0037 37.5001Z" fill="#FAA21E"/>
<path d="M45.0037 37.5001C45.0037 39.7709 42.9431 42.1497 38.8497 44.0184C34.8448 45.8467 29.242 47.0038 23 47.0038C16.758 47.0038 11.1552 45.8467 7.1503 44.0184C3.05695 42.1497 0.996296 39.7709 0.996296 37.5001C0.996296 35.2292 3.05695 32.8505 7.1503 30.9818C11.1552 29.1534 16.758 27.9964 23 27.9964C29.242 27.9964 34.8448 29.1534 38.8497 30.9818C42.9431 32.8505 45.0037 35.2292 45.0037 37.5001Z" fill="white" fill-opacity="0.95"/>
<path d="M45.0037 37.5001C45.0037 39.7709 42.9431 42.1497 38.8497 44.0184C34.8448 45.8467 29.242 47.0038 23 47.0038C16.758 47.0038 11.1552 45.8467 7.1503 44.0184C3.05695 42.1497 0.996296 39.7709 0.996296 37.5001C0.996296 35.2292 3.05695 32.8505 7.1503 30.9818C11.1552 29.1534 16.758 27.9964 23 27.9964C29.242 27.9964 34.8448 29.1534 38.8497 30.9818C42.9431 32.8505 45.0037 35.2292 45.0037 37.5001Z" stroke="#FAA21E" stroke-width="1.99259"/>
<ellipse cx="23" cy="37.5001" rx="17" ry="6.5" fill="#898989"/>
<ellipse cx="23" cy="37.5001" rx="17" ry="6.5" fill="white" fill-opacity="0.8"/>
<g clip-path="url(#clip1_1880_9349)">
<path d="M22.8299 42.171C17.4017 42.171 13.8965 40.1858 13.4002 39.1932C12.9039 38.2006 12.9039 34.6574 12.9039 34.6574H32.756C32.756 36.775 32.8791 38.1965 32.2597 39.1932C31.2727 40.7814 27.7647 42.171 22.8299 42.171Z" fill="#FAA21E"/>
<path d="M40.0851 20.0494C39.2788 20.0136 38.1081 19.0908 38.5886 17.3708C39.069 15.6509 41.1427 14.4371 43.5614 14.5447C45.9802 14.6524 47.1316 16.0096 48.3024 16.9323C48.2637 17.8013 48.5122 21.295 46.3612 24.2467C44.2102 27.1984 41.8272 28.3651 39.276 29.1555C37.6377 29.6631 37.183 30.8037 37.1444 31.6727C37.1057 32.5416 37.8733 33.4464 38.6796 33.4823" stroke="#FAA21E" stroke-width="2.48152" stroke-linecap="round"/>
<path d="M41.6894 9.00897H3.9704C5.58847 12.7845 6.66718 13.3238 7.7459 17.6387C8.28526 19.7961 7.7459 26.6574 8.82461 30.4329C10.1907 35.2142 12.9945 37.7154 15.8363 39.0626C18.6661 40.4042 26.5039 40.4042 29.8595 39.0626C32.7798 37.8952 35.5473 35.2871 36.8712 30.4329C38.3997 24.8286 37.3065 20.8558 37.9499 17.6387C38.4893 14.9419 39.532 13.3238 41.6894 9.00897Z" fill="#898989"/>
<path d="M41.6894 9.00897H3.9704C5.58847 12.7845 6.66718 13.3238 7.7459 17.6387C8.28526 19.7961 7.7459 26.6574 8.82461 30.4329C10.1907 35.2142 12.9945 37.7154 15.8363 39.0626C18.6661 40.4042 26.5039 40.4042 29.8595 39.0626C32.7798 37.8952 35.5473 35.2871 36.8712 30.4329C38.3997 24.8286 37.3065 20.8558 37.9499 17.6387C38.4893 14.9419 39.532 13.3238 41.6894 9.00897Z" fill="white" fill-opacity="0.95"/>
<path d="M41.6894 8.80528C41.6894 11.4836 33.4725 13.7435 23.0566 13.7435C12.6408 13.7435 3.9704 11.4836 3.9704 8.80528C3.9704 6.12692 12.6408 3.95569 23.0566 3.95569C33.4725 3.95569 41.6894 6.12692 41.6894 8.80528Z" fill="#898989"/>
<path d="M41.6894 8.80528C41.6894 11.4836 33.4725 13.7435 23.0566 13.7435C12.6408 13.7435 3.9704 11.4836 3.9704 8.80528C3.9704 6.12692 12.6408 3.95569 23.0566 3.95569C33.4725 3.95569 41.6894 6.12692 41.6894 8.80528Z" fill="white" fill-opacity="0.6"/>
<path d="M41.6894 8.80528C41.6894 11.4836 33.4725 13.7435 23.0566 13.7435C12.6408 13.7435 3.9704 11.4836 3.9704 8.80528C3.9704 6.12692 12.6408 3.95569 23.0566 3.95569C33.4725 3.95569 41.6894 6.12692 41.6894 8.80528Z" stroke="#FAA21E" stroke-width="1.48891"/>
<path d="M36.863 11.3808C36.863 11.0321 29.2426 9.88636 22.9148 9.88636C16.5871 9.88636 8.96667 11.0321 8.96667 11.3808C8.96667 11.7294 14.9445 13.1741 22.9148 13.1741C31.8815 13.1741 36.863 11.7294 36.863 11.3808Z" fill="#FAA21E"/>
<path d="M36.863 11.3808C36.863 11.0321 29.2426 9.88636 22.9148 9.88636C16.5871 9.88636 8.96667 11.0321 8.96667 11.3808C8.96667 11.7294 14.9445 13.1741 22.9148 13.1741C31.8815 13.1741 36.863 11.7294 36.863 11.3808Z" fill="white" fill-opacity="0.4"/>
</g>
<path d="M22.0886 25.0002L16.9926 34.317" stroke="#FAA21E" stroke-width="2.98889" stroke-linecap="round"/>
<path d="M22.0886 25.0002L16.9926 34.317" stroke="white" stroke-opacity="0.2" stroke-width="2.98889" stroke-linecap="round"/>
<path d="M28.1447 28.124L30.1942 24.4154C30.728 23.4494 30.3749 22.2334 29.4066 21.7036L20.8087 16.9992C19.8514 16.4754 18.6509 16.819 18.1157 17.77L15.9751 21.574C15.4259 22.5499 15.7885 23.7867 16.7779 24.3115L25.467 28.9205C26.4274 29.43 27.6189 29.0755 28.1447 28.124Z" fill="#FAA21E"/>
<path d="M28.1447 28.124L30.1942 24.4154C30.728 23.4494 30.3749 22.2334 29.4066 21.7036L20.8087 16.9992C19.8514 16.4754 18.6509 16.819 18.1157 17.77L15.9751 21.574C15.4259 22.5499 15.7885 23.7867 16.7779 24.3115L25.467 28.9205C26.4274 29.43 27.6189 29.0755 28.1447 28.124Z" fill="white" fill-opacity="0.2"/>
<path fill-rule="evenodd" clip-rule="evenodd" d="M16.3964 20.8252C16.7438 21.1594 17.2738 21.2649 17.7376 21.0503C18.3414 20.7711 18.6045 20.0552 18.3253 19.4513C18.1687 19.1128 17.8748 18.8813 17.5403 18.7925L16.3964 20.8252ZM26.1156 19.9029C25.8751 20.2433 25.8181 20.6992 26.0056 21.1047C26.2849 21.7085 27.0008 21.9716 27.6046 21.6923C27.8935 21.5587 28.1044 21.3251 28.2152 21.0517L26.1156 19.9029ZM20.6232 20.5932C20.9673 21.3372 21.8494 21.6614 22.5934 21.3173C23.3374 20.9732 23.6615 20.0911 23.3174 19.3471C22.9733 18.6031 22.0912 18.2789 21.3473 18.6231C20.6033 18.9672 20.2791 19.8492 20.6232 20.5932ZM24.4034 24.7949C24.0008 24.9811 23.5236 24.8057 23.3374 24.4031C23.1512 24.0006 23.3266 23.5233 23.7292 23.3371C24.1317 23.1509 24.609 23.3263 24.7952 23.7289C24.9813 24.1314 24.8059 24.6087 24.4034 24.7949ZM18.2898 23.7047C18.4496 24.0504 18.8594 24.201 19.2051 24.0411C19.5507 23.8813 19.7013 23.4715 19.5414 23.1258C19.3816 22.7802 18.9718 22.6296 18.6261 22.7895C18.2805 22.9493 18.1299 23.3591 18.2898 23.7047ZM25.9955 28.208C25.4578 28.3521 24.9051 28.033 24.761 27.4953C24.617 26.9576 24.936 26.4049 25.4737 26.2609C26.0114 26.1168 26.5641 26.4359 26.7082 26.9736C26.8522 27.5113 26.5331 28.0639 25.9955 28.208ZM27.6682 24.7016C27.7613 24.9028 27.9999 24.9905 28.2012 24.8974C28.4025 24.8043 28.4902 24.5657 28.3971 24.3644C28.304 24.1632 28.0654 24.0755 27.8641 24.1686C27.6628 24.2616 27.5751 24.5003 27.6682 24.7016Z" fill="#FAA21E"/>
<path fill-rule="evenodd" clip-rule="evenodd" d="M16.3964 20.8252C16.7438 21.1594 17.2738 21.2649 17.7376 21.0503C18.3414 20.7711 18.6045 20.0552 18.3253 19.4513C18.1687 19.1128 17.8748 18.8813 17.5403 18.7925L16.3964 20.8252ZM26.1156 19.9029C25.8751 20.2433 25.8181 20.6992 26.0056 21.1047C26.2849 21.7085 27.0008 21.9716 27.6046 21.6923C27.8935 21.5587 28.1044 21.3251 28.2152 21.0517L26.1156 19.9029ZM20.6232 20.5932C20.9673 21.3372 21.8494 21.6614 22.5934 21.3173C23.3374 20.9732 23.6615 20.0911 23.3174 19.3471C22.9733 18.6031 22.0912 18.2789 21.3473 18.6231C20.6033 18.9672 20.2791 19.8492 20.6232 20.5932ZM24.4034 24.7949C24.0008 24.9811 23.5236 24.8057 23.3374 24.4031C23.1512 24.0006 23.3266 23.5233 23.7292 23.3371C24.1317 23.1509 24.609 23.3263 24.7952 23.7289C24.9813 24.1314 24.8059 24.6087 24.4034 24.7949ZM18.2898 23.7047C18.4496 24.0504 18.8594 24.201 19.2051 24.0411C19.5507 23.8813 19.7013 23.4715 19.5414 23.1258C19.3816 22.7802 18.9718 22.6296 18.6261 22.7895C18.2805 22.9493 18.1299 23.3591 18.2898 23.7047ZM25.9955 28.208C25.4578 28.3521 24.9051 28.033 24.761 27.4953C24.617 26.9576 24.936 26.4049 25.4737 26.2609C26.0114 26.1168 26.5641 26.4359 26.7082 26.9736C26.8522 27.5113 26.5331 28.0639 25.9955 28.208ZM27.6682 24.7016C27.7613 24.9028 27.9999 24.9905 28.2012 24.8974C28.4025 24.8043 28.4902 24.5657 28.3971 24.3644C28.304 24.1632 28.0654 24.0755 27.8641 24.1686C27.6628 24.2616 27.5751 24.5003 27.6682 24.7016Z" fill="white" fill-opacity="0.8"/>
</g>
<defs>
<clipPath id="clip0_1880_9349">
<rect width="50" height="50" fill="white"/>
</clipPath>
<clipPath id="clip1_1880_9349">
<rect width="49.8148" height="49.8148" fill="white" transform="translate(0 -1.99994)"/>
</clipPath>
</defs>
</svg>
