<svg width="51" height="50" viewBox="0 0 51 50" fill="none" xmlns="http://www.w3.org/2000/svg">
<g clip-path="url(#clip0_1887_13432)">
<ellipse cx="22.3" cy="42.5" rx="21.5" ry="7.5" fill="#FAA21E"/>
<g clip-path="url(#clip1_1887_13432)">
<g clip-path="url(#clip2_1887_13432)">
<path d="M37.663 12.7634V16.3863C38.2797 15.6315 39.7908 13.6691 42.7512 13.6691C46.4517 13.6691 47.8394 17.7449 47.8394 20.9149C47.8394 24.0849 45.9892 28.1607 42.7512 28.1607C40.1608 28.1607 38.1255 25.8964 37.663 25.4435V29.0664C38.1255 29.0664 39.0507 30.8779 42.7512 30.8779C47.3769 30.8779 50.6148 26.8021 50.6148 20.9149C50.6148 15.0277 47.3769 10.9519 42.7512 10.9519C39.5132 10.9519 38.1255 12.7634 37.663 12.7634Z" fill="#FAA21E"/>
<path d="M5.78149 4.97415H38.6593V41.339C38.6593 41.339 35.6704 46.3204 22.2204 46.3204C8.77041 46.3204 5.78149 41.339 5.78149 41.339V4.97415Z" fill="#FAA21E"/>
<path d="M5.78149 4.97415H38.6593V41.339C38.6593 41.339 35.6704 46.3204 22.2204 46.3204C8.77041 46.3204 5.78149 41.339 5.78149 41.339V4.97415Z" fill="white" fill-opacity="0.95"/>
<ellipse cx="22.2204" cy="4.47601" rx="16.4389" ry="4.48333" fill="#FAA21E"/>
<ellipse cx="22.2205" cy="4.47602" rx="14.4463" ry="3.48704" fill="#898989"/>
<ellipse cx="22.2205" cy="4.47602" rx="14.4463" ry="3.48704" fill="white" fill-opacity="0.4"/>
<path d="M33.6779 6.4686C33.6779 5.97045 28.5482 4.97415 22.2205 4.97415C15.8927 4.97415 10.7631 5.97045 10.7631 6.4686C10.7631 6.96675 15.8927 7.96304 22.2205 7.96304C28.5482 7.96304 33.6779 6.96675 33.6779 6.4686Z" fill="#FAA21E"/>
<path d="M33.6779 6.4686C33.6779 5.97045 28.5482 4.97415 22.2205 4.97415C15.8927 4.97415 10.7631 5.97045 10.7631 6.4686C10.7631 6.96675 15.8927 7.96304 22.2205 7.96304C28.5482 7.96304 33.6779 6.96675 33.6779 6.4686Z" fill="black" fill-opacity="0.6"/>
</g>
<path d="M25.2251 13.65V17.55" stroke="#FAA21E" stroke-width="1.97786"/>
<path d="M25.2251 13.65V17.55" stroke="white" stroke-opacity="0.4" stroke-width="1.97786"/>
<path d="M27.5001 29.25V33.15" stroke="#FAA21E" stroke-width="1.97786"/>
<path d="M27.5001 29.25V33.15" stroke="white" stroke-opacity="0.4" stroke-width="1.97786"/>
<path d="M34.65 23.4L30.75 23.4" stroke="#FAA21E" stroke-width="1.97786"/>
<path d="M34.65 23.4L30.75 23.4" stroke="white" stroke-opacity="0.4" stroke-width="1.97786"/>
<path d="M19.05 20.8L15.15 20.8" stroke="#FAA21E" stroke-width="1.97786"/>
<path d="M19.05 20.8L15.15 20.8" stroke="white" stroke-opacity="0.4" stroke-width="1.97786"/>
<path d="M22.4574 26L10.1074 38.35" stroke="#FAA21E" stroke-width="1.97786"/>
<path d="M22.4574 26L10.1074 38.35" stroke="white" stroke-opacity="0.4" stroke-width="1.97786"/>
<path d="M29.125 22.75C29.125 22.75 31.075 18.525 30.425 17.875C29.775 17.2249 25.225 19.5 25.225 19.5C25.225 19.5 21.65 15.925 21 16.25C20.35 16.575 21 21.775 21 21.775C21 21.775 16.45 24.3749 16.775 25.025C17.1 25.675 21.65 26.325 21.65 26.325C21.65 26.325 22.625 31.5249 23.6 31.525C24.575 31.525 26.85 27.3 26.85 27.3C26.85 27.3 32.05 27.95 32.375 27.3C32.7 26.65 29.125 22.75 29.125 22.75Z" fill="#FAA21E"/>
</g>
</g>
<defs>
<clipPath id="clip0_1887_13432">
<rect width="50" height="50" fill="white" transform="translate(0.800049)"/>
</clipPath>
<clipPath id="clip1_1887_13432">
<rect width="50" height="50" fill="white" transform="translate(0.800049 -1.99997)"/>
</clipPath>
<clipPath id="clip2_1887_13432">
<rect width="49.8148" height="49.8148" fill="white" transform="translate(0.800049 -1.99997)"/>
</clipPath>
</defs>
</svg>
