<svg width="50" height="50" viewBox="0 0 50 50" fill="none" xmlns="http://www.w3.org/2000/svg">
<path d="M25.5 47C35 47 41.1969 40.9749 44 36C40.116 38.3788 33.0371 39.6951 26.0028 40.4916C18.9686 41.2881 8.99658 38.8264 7 37.5C9 41.5 15 47 25.5 47Z" fill="#2FC4A7"/>
<path d="M25.5 47C35 47 41.1969 40.9749 44 36C40.116 38.3788 33.0371 39.6951 26.0028 40.4916C18.9686 41.2881 8.99658 38.8264 7 37.5C9 41.5 15 47 25.5 47Z" fill="black" fill-opacity="0.6"/>
<circle cx="25" cy="25" r="22.5" stroke="#1D8CE0"/>
<circle cx="25" cy="25" r="22.5" stroke="white" stroke-opacity="0.95"/>
<path d="M40.5 32C43.7 24.4 40.5 15.5 35.5 11C36.5 15.5 35.8 22.2 33 29C30.2 35.8 23.8333 40.1667 21 41.5C26.5 43 37.3 39.6 40.5 32Z" fill="#FEFEFE" fill-opacity="0.15"/>
<path d="M16.3023 38.7313C17.0114 42.6507 21.2607 45.1273 24.4656 46.8605C21.2767 46.281 14.9744 44.1758 14.0626 39.1365C13.2521 34.6572 15.9156 31.5838 18.2968 27.3836C20.4886 23.5175 21.0089 20.0017 20.3927 16.5959C19.7848 13.2363 18.3197 7.11326 16.3023 5.55078C18.7783 6.45202 21.8219 11.7112 22.6324 16.1906C23.6455 21.7898 22.2697 23.7735 20.6378 27.5383C18.8134 31.7474 15.5931 34.8118 16.3023 38.7313Z" fill="#2FC4A7"/>
<path d="M16.3023 38.7313C17.0114 42.6507 21.2607 45.1273 24.4656 46.8605C21.2767 46.281 14.9744 44.1758 14.0626 39.1365C13.2521 34.6572 15.9156 31.5838 18.2968 27.3836C20.4886 23.5175 21.0089 20.0017 20.3927 16.5959C19.7848 13.2363 18.3197 7.11326 16.3023 5.55078C18.7783 6.45202 21.8219 11.7112 22.6324 16.1906C23.6455 21.7898 22.2697 23.7735 20.6378 27.5383C18.8134 31.7474 15.5931 34.8118 16.3023 38.7313Z" fill="black" fill-opacity="0.4"/>
<path d="M22.075 8.69314C21.0967 9.86313 21.6321 11.9083 21.8318 13.0121C23.4106 12.299 24.654 11.903 25.3279 11.0971C26.1703 10.0897 26.0438 7.97505 25.8941 7.14716C24.9019 7.32668 22.9877 7.60177 22.075 8.69314Z" fill="#2FC4A7"/>
<path d="M22.075 8.69314C21.0967 9.86313 21.6321 11.9083 21.8318 13.0121C23.4106 12.299 24.654 11.903 25.3279 11.0971C26.1703 10.0897 26.0438 7.97505 25.8941 7.14716C24.9019 7.32668 22.9877 7.60177 22.075 8.69314Z" fill="black" fill-opacity="0.2"/>
<path d="M17.1942 17.5172C15.4958 16.3434 12.8081 17.3197 11.3462 17.7263C12.5043 19.7666 13.1932 21.3941 14.3631 22.2027C15.8254 23.2134 18.6579 22.78 19.7543 22.4751C19.3884 21.1594 18.7784 18.6122 17.1942 17.5172Z" fill="#2FC4A7"/>
<path d="M17.1942 17.5172C15.4958 16.3434 12.8081 17.3197 11.3462 17.7263C12.5043 19.7666 13.1932 21.3941 14.3631 22.2027C15.8254 23.2134 18.6579 22.78 19.7543 22.4751C19.3884 21.1594 18.7784 18.6122 17.1942 17.5172Z" fill="black" fill-opacity="0.2"/>
<path d="M24.681 31.3745C26.5368 31.0424 27.7656 28.6409 28.5089 27.417C26.4961 26.8228 25.0494 26.1953 23.771 26.4241C22.173 26.71 20.5192 28.8468 19.9617 29.7647C21.0021 30.3966 22.9499 31.6843 24.681 31.3745Z" fill="#2FC4A7"/>
<path d="M24.681 31.3745C26.5368 31.0424 27.7656 28.6409 28.5089 27.417C26.4961 26.8228 25.0494 26.1953 23.771 26.4241C22.173 26.71 20.5192 28.8468 19.9617 29.7647C21.0021 30.3966 22.9499 31.6843 24.681 31.3745Z" fill="black" fill-opacity="0.2"/>
<path d="M8.22946 36.1391C9.54566 37.5733 12.2209 37.2373 13.65 37.169C13.0115 35.051 12.7182 33.4107 11.8116 32.4228C10.6783 31.1879 7.98339 30.9945 6.9116 31.0458C6.97312 32.3319 7.00169 34.8013 8.22946 36.1391Z" fill="#2FC4A7"/>
<path d="M8.22946 36.1391C9.54566 37.5733 12.2209 37.2373 13.65 37.169C13.0115 35.051 12.7182 33.4107 11.8116 32.4228C10.6783 31.1879 7.98339 30.9945 6.9116 31.0458C6.97312 32.3319 7.00169 34.8013 8.22946 36.1391Z" fill="black" fill-opacity="0.2"/>
<path d="M14.58 29.2127C15.3985 30.3059 15.2216 32.7589 15.2892 33.1322L16.665 31.1485C16.5637 30.5886 16.4624 30.0286 15.6999 29.0101C15.1542 28.2813 13.869 27.4139 13.0549 27.1757C13.7162 27.6343 14.0701 28.5316 14.58 29.2127Z" fill="#2FC4A7"/>
<path d="M14.58 29.2127C15.3985 30.3059 15.2216 32.7589 15.2892 33.1322L16.665 31.1485C16.5637 30.5886 16.4624 30.0286 15.6999 29.0101C15.1542 28.2813 13.869 27.4139 13.0549 27.1757C13.7162 27.6343 14.0701 28.5316 14.58 29.2127Z" fill="black" fill-opacity="0.4"/>
<path d="M24.4135 16.4467C23.6897 17.4903 22.9018 19.8155 22.7817 20.2115L21.8165 18.0731C21.9967 17.4791 22.7399 16.1102 23.6509 15.4282C24.6695 14.6656 25.7893 14.463 27.0105 14.8203C25.9591 15.1501 24.8721 15.7855 24.4135 16.4467Z" fill="#2FC4A7"/>
<path d="M24.4135 16.4467C23.6897 17.4903 22.9018 19.8155 22.7817 20.2115L21.8165 18.0731C21.9967 17.4791 22.7399 16.1102 23.6509 15.4282C24.6695 14.6656 25.7893 14.463 27.0105 14.8203C25.9591 15.1501 24.8721 15.7855 24.4135 16.4467Z" fill="black" fill-opacity="0.4"/>
<path d="M18.6102 38.3308C17.7203 39.237 16.5507 41.3955 16.3654 41.7655L15.7756 39.4947C16.0536 38.9397 17.0176 37.7162 18.0308 37.198C19.1636 36.6186 20.3016 36.6083 21.4447 37.1669C20.3527 37.3141 19.174 37.7566 18.6102 38.3308Z" fill="#2FC4A7"/>
<path d="M18.6102 38.3308C17.7203 39.237 16.5507 41.3955 16.3654 41.7655L15.7756 39.4947C16.0536 38.9397 17.0176 37.7162 18.0308 37.198C19.1636 36.6186 20.3016 36.6083 21.4447 37.1669C20.3527 37.3141 19.174 37.7566 18.6102 38.3308Z" fill="black" fill-opacity="0.4"/>
<path d="M31.2808 36.0357C30.3197 39.6786 26.974 42.1358 24.6235 43.7422C26.8195 43.2083 31.4861 41.0997 32.7219 36.4159C33.8203 32.2525 32.4297 29.3911 31.3677 25.4824C30.3902 21.8846 30.4821 18.6151 31.3172 15.4495C32.1411 12.327 35.7672 7.34611 37.3057 5.89652C35.5442 6.73064 30.9746 10.9059 29.8762 15.0693C28.5032 20.2735 29.1721 22.1199 29.7893 25.6226C30.4794 29.5388 32.2419 32.3928 31.2808 36.0357Z" fill="#2FC4A7"/>
<path d="M31.2808 36.0357C30.3197 39.6786 26.974 42.1358 24.6235 43.7422C26.8195 43.2083 31.4861 41.0997 32.7219 36.4159C33.8203 32.2525 32.4297 29.3911 31.3677 25.4824C30.3902 21.8846 30.4821 18.6151 31.3172 15.4495C32.1411 12.327 35.7672 7.34611 37.3057 5.89652C35.5442 6.73064 30.9746 10.9059 29.8762 15.0693C28.5032 20.2735 29.1721 22.1199 29.7893 25.6226C30.4794 29.5388 32.2419 32.3928 31.2808 36.0357Z" fill="black" fill-opacity="0.4"/>
<path d="M28.2239 35.8982C29.0484 36.6017 30.4583 36.2096 31.2206 36.0624C30.7043 34.924 30.4124 34.027 29.8445 33.5424C29.1345 32.9367 27.6707 33.0336 27.099 33.144C27.2373 33.8601 27.4547 35.242 28.2239 35.8982Z" fill="#2FC4A7"/>
<path d="M28.2239 35.8982C29.0484 36.6017 30.4583 36.2096 31.2206 36.0624C30.7043 34.924 30.4124 34.027 29.8445 33.5424C29.1345 32.9367 27.6707 33.0336 27.099 33.144C27.2373 33.8601 27.4547 35.242 28.2239 35.8982Z" fill="black" fill-opacity="0.2"/>
<path d="M34.2543 27.2273C33.0773 27.8878 32.9537 29.6807 32.8101 30.623C34.3735 30.4997 35.5574 30.5354 36.3682 30.0805C37.3817 29.5117 37.8773 27.7794 37.985 27.0727C37.0793 26.9347 35.3522 26.6112 34.2543 27.2273Z" fill="#2FC4A7"/>
<path d="M34.2543 27.2273C33.0773 27.8878 32.9537 29.6807 32.8101 30.623C34.3735 30.4997 35.5574 30.5354 36.3682 30.0805C37.3817 29.5117 37.8773 27.7794 37.985 27.0727C37.0793 26.9347 35.3522 26.6112 34.2543 27.2273Z" fill="black" fill-opacity="0.2"/>
<path d="M31.649 19.0323C30.8086 19.6795 30.865 21.1479 30.8348 21.9271C32.0145 21.6802 32.9186 21.5982 33.4975 21.1524C34.2212 20.5951 34.4531 19.1409 34.4757 18.5566C33.7747 18.5294 32.433 18.4286 31.649 19.0323Z" fill="#2FC4A7"/>
<path d="M31.649 19.0323C30.8086 19.6795 30.865 21.1479 30.8348 21.9271C32.0145 21.6802 32.9186 21.5982 33.4975 21.1524C34.2212 20.5951 34.4531 19.1409 34.4757 18.5566C33.7747 18.5294 32.433 18.4286 31.649 19.0323Z" fill="black" fill-opacity="0.2"/>
<path d="M32.5566 6.93924C32.0528 6.00582 30.5943 5.8257 29.8301 5.67079C29.8844 6.87481 29.8202 7.78041 30.1672 8.4234C30.601 9.22714 31.9991 9.68947 32.5723 9.80565C32.7117 9.11809 33.0266 7.80996 32.5566 6.93924Z" fill="#2FC4A7"/>
<path d="M32.5566 6.93924C32.0528 6.00582 30.5943 5.8257 29.8301 5.67079C29.8844 6.87481 29.8202 7.78041 30.1672 8.4234C30.601 9.22714 31.9991 9.68947 32.5723 9.80565C32.7117 9.11809 33.0266 7.80996 32.5566 6.93924Z" fill="black" fill-opacity="0.2"/>
<path d="M32.6508 14.9528C31.889 15.5978 30.8179 17.2027 30.6462 17.4789L30.3484 15.6592C30.606 15.2449 31.4488 14.3569 32.2791 14.0244C33.2075 13.6527 34.0988 13.7267 34.9532 14.2463C34.0879 14.2828 33.1335 14.5441 32.6508 14.9528Z" fill="#2FC4A7"/>
<path d="M32.6508 14.9528C31.889 15.5978 30.8179 17.2027 30.6462 17.4789L30.3484 15.6592C30.606 15.2449 31.4488 14.3569 32.2791 14.0244C33.2075 13.6527 34.0988 13.7267 34.9532 14.2463C34.0879 14.2828 33.1335 14.5441 32.6508 14.9528Z" fill="black" fill-opacity="0.4"/>
<path d="M28.4446 26.3279C29.2694 26.5112 30.6402 27.7252 30.811 27.9272L30.7456 26.3167C30.4894 26.0136 29.6497 25.4464 28.8201 25.3799C27.8927 25.3056 27.0005 25.6253 26.1436 26.3391C27.0092 26.127 27.5867 26.1373 28.4446 26.3279Z" fill="#2FC4A7"/>
<path d="M28.4446 26.3279C29.2694 26.5112 30.6402 27.7252 30.811 27.9272L30.7456 26.3167C30.4894 26.0136 29.6497 25.4464 28.8201 25.3799C27.8927 25.3056 27.0005 25.6253 26.1436 26.3391C27.0092 26.127 27.5867 26.1373 28.4446 26.3279Z" fill="black" fill-opacity="0.4"/>
<path d="M33.2074 39.234C32.4392 39.1801 30.57 40.0793 30.3942 40.2181L31.1173 38.6057C31.3809 38.3974 32.2017 38.1043 32.9624 38.2664C33.8128 38.4476 34.5912 38.9796 35.2975 39.8624C34.5323 39.436 34.0064 39.2902 33.2074 39.234Z" fill="#2FC4A7"/>
<path d="M33.2074 39.234C32.4392 39.1801 30.57 40.0793 30.3942 40.2181L31.1173 38.6057C31.3809 38.3974 32.2017 38.1043 32.9624 38.2664C33.8128 38.4476 34.5912 38.9796 35.2975 39.8624C34.5323 39.436 34.0064 39.2902 33.2074 39.234Z" fill="black" fill-opacity="0.4"/>
<path d="M14.5 9.00006C11.6488 11.5108 10.5 15 10.5 18C10.9875 15.933 14.0948 11.7432 17 10.0001C19.4724 8.5166 21.5 7.00006 25 6.50006C21.5 6.00006 17.3512 6.48933 14.5 9.00006Z" fill="#FEFEFE"/>
<path d="M34 40.0001C37.5 38.0001 41 33.0001 41 30.0001C40.2571 33.0001 36.2975 36.8405 33.5 38.5001C30.4369 40.3173 24.5 42.0001 21 42.0001C24.5 43.0001 30 42.2858 34 40.0001Z" fill="#FEFEFE"/>
</svg>
