<svg width="50" height="50" viewBox="0 0 50 50" fill="none" xmlns="http://www.w3.org/2000/svg">
<path d="M9.73684 2H40V5L41 7H45V48H11.3158C10.7895 48 8.15789 48 6.57895 46.4318C5 44.8636 5 43.2955 5 42.7727V6.70455C5 5.65909 5.73684 4.40455 6.57895 3.56818C7.42105 2.73182 8.68421 2 9.73684 2Z" fill="#D0333D"/>
<path d="M9.73684 2H40V5L41 7H45V48H11.3158C10.7895 48 8.15789 48 6.57895 46.4318C5 44.8636 5 43.2955 5 42.7727V6.70455C5 5.65909 5.73684 4.40455 6.57895 3.56818C7.42105 2.73182 8.68421 2 9.73684 2Z" fill="black" fill-opacity="0.2"/>
<path d="M43 9.1L40 5V40H38L43 46V9.1Z" fill="#898989"/>
<path d="M10.1304 40H38L43 46H10.1304C9.62415 46 7 45.25 7 43C7 40.75 9.62415 40 10.1304 40Z" fill="#898989"/>
<path d="M10.1304 40H38L43 46H10.1304C9.62415 46 7 45.25 7 43C7 40.75 9.62415 40 10.1304 40Z" fill="white" fill-opacity="0.4"/>
<path d="M14.2148 11.6714C18.8738 10.1769 23.6151 11.9399 29.2365 14.7269C24.6454 13.8703 19.6028 13.2913 16.2755 15.5322C14.056 17.027 13.1404 20.507 17.2862 24.2471C21.432 27.9871 30.0923 30.9546 36.611 30.5384C27.3606 32.9081 17.0871 31.3039 11.1467 23.8918C6.76673 18.4267 9.51457 13.1792 14.2148 11.6714Z" fill="#FEFEFE"/>
<rect x="28.9567" y="16.1919" width="22.4" height="2.56" rx="1.28" transform="rotate(120 28.9567 16.1919)" fill="#FEFEFE"/>
<path d="M34.4993 19.3922L37.0593 14.9581C37.4128 14.3459 37.203 13.5631 36.5908 13.2096L25.5057 6.80961C24.8934 6.45615 24.1106 6.66591 23.7571 7.27812L21.1971 11.7122C20.8437 12.3244 21.0534 13.1072 21.6657 13.4607L32.7508 19.8607C33.363 20.2141 34.1458 20.0044 34.4993 19.3922Z" fill="#FEFEFE"/>
<rect x="28.0429" y="7.53516" width="8.96" height="1.28" rx="0.64" transform="rotate(120 28.0429 7.53516)" fill="#FEFEFE"/>
<rect x="35.8023" y="12.0151" width="8.96" height="1.28" rx="0.64" transform="rotate(120 35.8023 12.0151)" fill="#FEFEFE"/>
</svg>
