<svg width="50" height="50" viewBox="0 0 50 50" fill="none" xmlns="http://www.w3.org/2000/svg">
<path d="M37 14.8182V18.4545C37.619 17.697 39.1357 15.7273 42.1071 15.7273C45.8214 15.7273 47.2143 19.8182 47.2143 23C47.2143 26.1818 45.3571 30.2727 42.1071 30.2727C39.5071 30.2727 37.4643 28 37 27.5455V31.1818C37.4643 31.1818 38.3929 33 42.1071 33C46.75 33 50 28.9091 50 23C50 17.0909 46.75 13 42.1071 13C38.8571 13 37.4643 14.8182 37 14.8182Z" fill="#898989"/>
<path d="M37 14.8182V18.4545C37.619 17.697 39.1357 15.7273 42.1071 15.7273C45.8214 15.7273 47.2143 19.8182 47.2143 23C47.2143 26.1818 45.3571 30.2727 42.1071 30.2727C39.5071 30.2727 37.4643 28 37 27.5455V31.1818C37.4643 31.1818 38.3929 33 42.1071 33C46.75 33 50 28.9091 50 23C50 17.0909 46.75 13 42.1071 13C38.8571 13 37.4643 14.8182 37 14.8182Z" fill="white" fill-opacity="0.95"/>
<path d="M5 7H38V43.5C38 43.5 35 48.5 21.5 48.5C8.00003 48.5 5 43.5 5 43.5V7Z" fill="#898989"/>
<path d="M5 7H38V43.5C38 43.5 35 48.5 21.5 48.5C8.00003 48.5 5 43.5 5 43.5V7Z" fill="white" fill-opacity="0.85"/>
<ellipse cx="21.5" cy="6.5" rx="16.5" ry="4.5" fill="#FEFEFE"/>
<ellipse cx="21.5" cy="6.5" rx="14.5" ry="3.5" fill="#898989"/>
<ellipse cx="21.5" cy="6.5" rx="14.5" ry="3.5" fill="white" fill-opacity="0.4"/>
<path d="M33 8.5C33 8 27.8513 7 21.5 7C15.1487 7 10 8 10 8.5C10 9 15.1487 10 21.5 10C27.8513 10 33 9 33 8.5Z" fill="#FAA21E"/>
<path d="M33 8.5C33 8 27.8513 7 21.5 7C15.1487 7 10 8 10 8.5C10 9 15.1487 10 21.5 10C27.8513 10 33 9 33 8.5Z" fill="black" fill-opacity="0.6"/>
<path d="M27.0679 31.9533L20.2 25.7783L25.4428 16.65H32.1996L26.3321 24.7043L33.2 30.4034L23.4464 41.35L27.0679 31.9533Z" fill="#1D8CE0"/>
<line x1="10.45" y1="19.2" x2="20.85" y2="19.2" stroke="#1D8CE0" stroke-width="4"/>
<line x1="10.45" y1="19.2" x2="20.85" y2="19.2" stroke="white" stroke-opacity="0.6" stroke-width="4"/>
<line x1="10.45" y1="25.05" x2="18.25" y2="25.05" stroke="#1D8CE0" stroke-width="4"/>
<line x1="10.45" y1="25.05" x2="18.25" y2="25.05" stroke="white" stroke-opacity="0.6" stroke-width="4"/>
<line x1="10.45" y1="30.9" x2="22.15" y2="30.9" stroke="#1D8CE0" stroke-width="4"/>
<line x1="10.45" y1="30.9" x2="22.15" y2="30.9" stroke="white" stroke-opacity="0.6" stroke-width="4"/>
<line x1="10.45" y1="36.75" x2="20.85" y2="36.75" stroke="#1D8CE0" stroke-width="4"/>
<line x1="10.45" y1="36.75" x2="20.85" y2="36.75" stroke="white" stroke-opacity="0.6" stroke-width="4"/>
</svg>
