<svg width="40" height="40" viewBox="0 0 40 40" fill="none" xmlns="http://www.w3.org/2000/svg">
<path d="M20 4.8C17.15 4.8 14.775 2.9 14.3 1L7.175 3.375L1 14.3L8.6 17.15V39H31.4V17.15L39 14.3L32.825 3.375L25.7 1C25.225 2.9 22.85 4.8 20 4.8Z" fill="#D0333D"/>
<path d="M20 4.8C17.15 4.8 14.775 2.9 14.3 1L7.175 3.375L1 14.3L8.6 17.15V39H31.4V17.15L39 14.3L32.825 3.375L25.7 1C25.225 2.9 22.85 4.8 20 4.8Z" fill="white" fill-opacity="0.2"/>
<path d="M20 6.88571C17.6644 6.88571 13.6857 4.45714 12.7143 3L8.82858 4.45714L3.48572 13.2L10.7714 16.1143V37H29.3424L29.2286 16.1143L36.5143 13.2L31.1714 4.45714L27.2857 3C26.3143 4.45714 22.3356 6.88571 20 6.88571Z" stroke="#FEFEFE" stroke-width="0.971429" stroke-linecap="round" stroke-dasharray="1.94 2.91"/>
</svg>
