<svg width="50" height="50" viewBox="0 0 50 50" fill="none" xmlns="http://www.w3.org/2000/svg">
<circle cx="25.0667" cy="25.0665" r="22.4167" stroke="#1D8CE0" stroke-width="0.996296"/>
<circle cx="25.0667" cy="25.0665" r="22.4167" stroke="white" stroke-opacity="0.95" stroke-width="0.996296"/>
<path d="M37.5 37.5001C43 33.0454 45 21.5 38.5745 13.0016C39.2992 19.1626 37.6992 26.8689 32.5142 32.0453C27.3291 37.2217 15.4045 38.4225 11 37.5001C22.5965 45.5482 31.1158 42.671 37.5 37.5001Z" fill="#FEFEFE" fill-opacity="0.15"/>
<path d="M26 13.6C23.8625 13.6 22.0812 12.175 21.725 10.75L16.3812 12.5312L11.75 20.725L17.45 22.8625V39.25H34.55V22.8625L40.25 20.725L35.6187 12.5312L30.275 10.75C29.9187 12.175 28.1375 13.6 26 13.6Z" fill="#CE4317"/>
<path d="M26 13.6C23.8625 13.6 22.0812 12.175 21.725 10.75L16.3812 12.5312L11.75 20.725L17.45 22.8625V39.25H34.55V22.8625L40.25 20.725L35.6187 12.5312L30.275 10.75C29.9187 12.175 28.1375 13.6 26 13.6Z" fill="white" fill-opacity="0.15"/>
<path d="M26 15.1643C24.2483 15.1643 21.2643 13.3429 20.5357 12.25L17.6214 13.3429L13.6143 19.9L19.0785 22.0857V37.75H33.0068L32.9214 22.0857L38.3857 19.9L34.3785 13.3429L31.4643 12.25C30.7357 13.3429 27.7517 15.1643 26 15.1643Z" stroke="#FEFEFE" stroke-width="0.728571" stroke-linecap="round" stroke-dasharray="1.46 2.19"/>
<path d="M14.6055 9.12572C11.7649 11.6271 10.6203 15.1035 10.6203 18.0924C11.106 16.033 14.2018 11.8587 17.0962 10.122C19.5595 8.64405 21.5796 7.13312 25.0666 6.63497C21.5796 6.13682 17.4461 6.62428 14.6055 9.12572Z" fill="#FEFEFE"/>
<path d="M34.5 40C37.5 38.5 40.5 35.5 42 30C40 34 37.0518 37.1895 34 39C30.9482 40.8105 27 42.5 21 42C27.5 43.5 30.6529 41.9235 34.5 40Z" fill="#FEFEFE"/>
</svg>
