<svg width="50" height="50" viewBox="0 0 50 50" fill="none" xmlns="http://www.w3.org/2000/svg">
<path d="M23.5027 0.607403C21.6377 0.421051 20.7751 -0.263345 20.6197 0.109358C20.4643 1.0411 23.3473 4.33445 24.9016 5.26621C26.1449 6.01161 27.9919 8.27473 28.1991 8.77167C28.3545 8.21261 28.2872 5.42907 29.2819 4.98183C30.5253 4.42278 29.9787 0.837182 29.8233 0.65083C29.6679 0.464479 25.3678 0.793754 23.5027 0.607403Z" fill="#898989"/>
<path d="M37 15.5C37.8151 10.9269 40.1018 7.24352 41.6645 7.77377C43.1956 8.03468 45.1654 18.7275 46.5 25C47.032 27.5001 47.7484 29.2021 47 30.5L41 31.4999C39.5 30.4999 39.2265 28.1322 39 27C37.4 19 36.7283 17.0244 37 15.5Z" fill="#898989"/>
<path d="M37 15.5C37.8151 10.9269 40.1018 7.24352 41.6645 7.77377C43.1956 8.03468 45.1654 18.7275 46.5 25C47.032 27.5001 47.7484 29.2021 47 30.5L41 31.4999C39.5 30.4999 39.2265 28.1322 39 27C37.4 19 36.7283 17.0244 37 15.5Z" fill="white" fill-opacity="0.8"/>
<path d="M40.155 32.2747L39.4324 29.3205C42.9495 29.0037 44.7108 28.6733 47.3354 27.7259L48.058 30.6802C45.6363 32.0101 43.8407 32.2881 40.155 32.2747Z" fill="#898989"/>
<path d="M40.155 32.2747L39.4324 29.3205C42.9495 29.0037 44.7108 28.6733 47.3354 27.7259L48.058 30.6802C45.6363 32.0101 43.8407 32.2881 40.155 32.2747Z" fill="white" fill-opacity="0.6"/>
<path d="M10.6095 6.32659C11.9829 5.62802 18.3924 2.55433 19.1554 2.2749C21.3428 2.9269 25.333 3.76152 26.6331 5.3486C27.5488 6.4663 28.9222 10.9371 29.5327 15.408C30.1431 19.8788 29.8379 29.6587 29.9905 34.8281C30.1126 38.9636 30.1104 46.7969 30.3647 49.9172C26.2444 50.1034 18.3619 49.9172 17.6294 49.9172C16.7137 49.9172 13.6616 49.3583 12.8986 47.6817C12.2882 46.3405 12.1355 44.4218 12.1355 43.6301C13.1529 40.7892 15.0351 33.403 14.4246 26.585C13.6616 18.0625 11.9575 12.0199 10.8747 10.3957C10.2007 9.38473 9.01438 7.54908 8.70917 7.68879C9.06525 7.26965 9.51071 6.88544 10.6095 6.32659Z" fill="#898989"/>
<path d="M10.6095 6.32659C11.9829 5.62802 18.3924 2.55433 19.1554 2.2749C21.3428 2.9269 25.333 3.76152 26.6331 5.3486C27.5488 6.4663 28.9222 10.9371 29.5327 15.408C30.1431 19.8788 29.8379 29.6587 29.9905 34.8281C30.1126 38.9636 30.1104 46.7969 30.3647 49.9172C26.2444 50.1034 18.3619 49.9172 17.6294 49.9172C16.7137 49.9172 13.6616 49.3583 12.8986 47.6817C12.2882 46.3405 12.1355 44.4218 12.1355 43.6301C13.1529 40.7892 15.0351 33.403 14.4246 26.585C13.6616 18.0625 11.9575 12.0199 10.8747 10.3957C10.2007 9.38473 9.01438 7.54908 8.70917 7.68879C9.06525 7.26965 9.51071 6.88544 10.6095 6.32659Z" fill="black" fill-opacity="0.2"/>
<path d="M9.08224 6.07503C10.5872 5.37243 17.6103 2.28104 18.4464 2C20.8431 2.65575 25.0754 3.40378 26.5 5C26.8772 5.42259 27.4652 6.41315 27.9131 7.60973C27.9443 6.21321 28.7637 4.17802 29.5424 4.17802C31.3183 4.17802 31.423 2.77958 31.9153 2.5445C34.8687 4.00199 41.1201 6.92549 41.7764 7.60252C42.5968 8.4488 40.7835 11.1609 39.5 13.5C38.0233 16.1914 38 23.766 38 26.4502C38 31.3592 39.7375 41.3002 40.1356 42.9597C40.7387 45.4741 39.9715 48.7686 38.6588 48.9942C38.6588 48.9942 32.5207 50 29.7813 50C27.042 50 17.5328 49.9167 16.7742 49.9167C15.7709 49.9167 12.4266 49.3546 11.5905 47.6684C10.9216 46.3194 10.7544 44.3896 10.7544 43.5934C11.8692 40.7362 13.9315 33.3074 13.2627 26.4502C12.4266 17.8785 10.5593 11.8011 9.37288 10.1676C8.63435 9.15078 7.33443 7.30456 7 7.44508C7.39017 7.02352 7.87828 6.6371 9.08224 6.07503Z" fill="#898989"/>
<path d="M9.08224 6.07503C10.5872 5.37243 17.6103 2.28104 18.4464 2C20.8431 2.65575 25.0754 3.40378 26.5 5C26.8772 5.42259 27.4652 6.41315 27.9131 7.60973C27.9443 6.21321 28.7637 4.17802 29.5424 4.17802C31.3183 4.17802 31.423 2.77958 31.9153 2.5445C34.8687 4.00199 41.1201 6.92549 41.7764 7.60252C42.5968 8.4488 40.7835 11.1609 39.5 13.5C38.0233 16.1914 38 23.766 38 26.4502C38 31.3592 39.7375 41.3002 40.1356 42.9597C40.7387 45.4741 39.9715 48.7686 38.6588 48.9942C38.6588 48.9942 32.5207 50 29.7813 50C27.042 50 17.5328 49.9167 16.7742 49.9167C15.7709 49.9167 12.4266 49.3546 11.5905 47.6684C10.9216 46.3194 10.7544 44.3896 10.7544 43.5934C11.8692 40.7362 13.9315 33.3074 13.2627 26.4502C12.4266 17.8785 10.5593 11.8011 9.37288 10.1676C8.63435 9.15078 7.33443 7.30456 7 7.44508C7.39017 7.02352 7.87828 6.6371 9.08224 6.07503Z" fill="white" fill-opacity="0.8"/>
<path d="M28.9905 50C28.9905 47 29.1126 38.9636 28.9905 34.8281C28.8379 29.6587 29.1431 19.8788 28.5327 15.408C27.9223 10.9371 27.1965 7.79466 26 6C25 4.5 24.5 5.5 22.3402 3.5" stroke="#898989" stroke-width="2"/>
<path d="M28.9905 50C28.9905 47 29.1126 38.9636 28.9905 34.8281C28.8379 29.6587 29.1431 19.8788 28.5327 15.408C27.9223 10.9371 27.1965 7.79466 26 6C25 4.5 24.5 5.5 22.3402 3.5" stroke="white" stroke-opacity="0.6" stroke-width="2"/>
<path d="M12.544 15.7803C11.412 11.17 8.68913 6.5471 7.14648 7.16048C5.61751 7.49855 4.15219 20.3316 3.22745 26.7718L3.22318 26.8015C2.90527 29.0154 2.66021 30.7219 3.49999 32.0001L9.49999 32.5001C10.5 32.0001 10.87 30.1658 11 29.5001C12.014 24.3064 12.9214 17.3171 12.544 15.7803Z" fill="#898989"/>
<path d="M12.544 15.7803C11.412 11.17 8.68913 6.5471 7.14648 7.16048C5.61751 7.49855 4.15219 20.3316 3.22745 26.7718L3.22318 26.8015C2.90527 29.0154 2.66021 30.7219 3.49999 32.0001L9.49999 32.5001C10.5 32.0001 10.87 30.1658 11 29.5001C12.014 24.3064 12.9214 17.3171 12.544 15.7803Z" fill="white" fill-opacity="0.8"/>
<path d="M22.6703 2.49534C21.6048 1.42983 20.4675 0.261944 20.6197 0.109729C20.5621 0.0709411 19.3234 1.38231 18.5 2.00035C18.703 2.35552 19.3911 3.71304 20 4.77854C20.6089 5.84405 20.3153 7.84791 20.6197 8.00012C20.9241 8.15234 22.6703 5.88816 24 5.00012C24.5905 4.60577 25.5941 4.37266 26 4.47413C25.3911 4.1697 23.5227 3.34774 22.6703 2.49534Z" fill="#898989"/>
<path d="M22.6703 2.49534C21.6048 1.42983 20.4675 0.261944 20.6197 0.109729C20.5621 0.0709411 19.3234 1.38231 18.5 2.00035C18.703 2.35552 19.3911 3.71304 20 4.77854C20.6089 5.84405 20.3153 7.84791 20.6197 8.00012C20.9241 8.15234 22.6703 5.88816 24 5.00012C24.5905 4.60577 25.5941 4.37266 26 4.47413C25.3911 4.1697 23.5227 3.34774 22.6703 2.49534Z" fill="white" fill-opacity="0.4"/>
<path d="M29.8233 2.81668C29.8233 3.54731 29.2537 4.24642 29 4.50012C29.2537 4.50012 29.9767 4.53502 30.5855 4.77854C31.3466 5.08296 32.7909 6.53977 33 6.50012C33.0917 6.48274 32.6415 5.46618 32.5 4.50012C32.4268 4.00012 32.4775 3.12112 32.4268 2.81668C31.8279 2.22674 29.9365 0.640133 29.8244 0.651127C29.5215 0.680852 29.8233 1.7339 29.8233 2.81668Z" fill="#898989"/>
<path d="M29.8233 2.81668C29.8233 3.54731 29.2537 4.24642 29 4.50012C29.2537 4.50012 29.9767 4.53502 30.5855 4.77854C31.3466 5.08296 32.7909 6.53977 33 6.50012C33.0917 6.48274 32.6415 5.46618 32.5 4.50012C32.4268 4.00012 32.4775 3.12112 32.4268 2.81668C31.8279 2.22674 29.9365 0.640133 29.8244 0.651127C29.5215 0.680852 29.8233 1.7339 29.8233 2.81668Z" fill="white" fill-opacity="0.4"/>
<circle cx="28.8334" cy="18.6667" r="0.666667" fill="#898989"/>
<circle cx="28.8334" cy="18.6667" r="0.666667" fill="white" fill-opacity="0.2"/>
<circle cx="28.1667" cy="10.6667" r="0.666667" fill="#898989"/>
<circle cx="28.1667" cy="10.6667" r="0.666667" fill="white" fill-opacity="0.2"/>
<circle cx="28.8334" cy="26.6667" r="0.666667" fill="#898989"/>
<circle cx="28.8334" cy="26.6667" r="0.666667" fill="white" fill-opacity="0.2"/>
<circle cx="28.8334" cy="42.6667" r="0.666667" fill="#898989"/>
<circle cx="28.8334" cy="42.6667" r="0.666667" fill="white" fill-opacity="0.2"/>
<circle cx="28.8334" cy="34.6667" r="0.666667" fill="#898989"/>
<circle cx="28.8334" cy="34.6667" r="0.666667" fill="white" fill-opacity="0.2"/>
<path d="M2 32.5L2.5 29.5C5.87022 30.4542 7.73407 30.7035 11 30.5L10.5 33.5C7.00663 33.7629 5.17137 33.4469 2 32.5Z" fill="#898989"/>
<path d="M2 32.5L2.5 29.5C5.87022 30.4542 7.73407 30.7035 11 30.5L10.5 33.5C7.00663 33.7629 5.17137 33.4469 2 32.5Z" fill="white" fill-opacity="0.6"/>
<path d="M12 18.5C12.7012 12.9848 13.27 9.89678 12.5 4.38163L17 2.5C18.0605 10.3256 21.3979 15.6508 25 23V37.8478C25 41.5321 18.8596 43.3027 11 41C11.1871 39.209 12.5 31.8136 12.5 29.5C12.5 28 11.8129 21.8261 12 18.5Z" fill="#898989"/>
<path d="M12 18.5C12.7012 12.9848 13.27 9.89678 12.5 4.38163L17 2.5C18.0605 10.3256 21.3979 15.6508 25 23V37.8478C25 41.5321 18.8596 43.3027 11 41C11.1871 39.209 12.5 31.8136 12.5 29.5C12.5 28 11.8129 21.8261 12 18.5Z" fill="white" fill-opacity="0.2"/>
<path d="M32.5 37.8478C32.5 36.0056 32 26.8379 32 23C34 15.5 34.5 11.5 34 3.5L38 5.5C38 11 37.9628 13.3373 38.5 18.5C38.6871 21.5703 38.5 27.4649 38.5 29C38.5 30.2281 40 38.5 40.5 41C36 42.5 32.5 41.6857 32.5 37.8478Z" fill="#898989"/>
<path d="M32.5 37.8478C32.5 36.0056 32 26.8379 32 23C34 15.5 34.5 11.5 34 3.5L38 5.5C38 11 37.9628 13.3373 38.5 18.5C38.6871 21.5703 38.5 27.4649 38.5 29C38.5 30.2281 40 38.5 40.5 41C36 42.5 32.5 41.6857 32.5 37.8478Z" fill="white" fill-opacity="0.2"/>
<path d="M15.9 3L13.5 4.00005C15.1307 7.62656 17.1687 14.6205 16.4894 20.4489C15.9492 25.083 14.4513 32.1055 16.4891 42.4669L19.2067 41.8193C16.4894 30.8103 19.2067 25.7591 19.2067 18.5061C19.2067 11.2531 17.2587 6.49698 15.9 3Z" fill="#FAA21E"/>
<path d="M37.5 5.2L35.3 4.25909C34.1678 8.79223 33.6161 20.6207 34.1522 23.6868C34.8316 27.5723 36.1902 34.0483 35.5109 39.229C35.1739 41.7993 34.8316 42.4669 33.4729 46.3525L36 47.2C37.5 43 38.2283 39.229 38.2283 36.6386C38.2283 33.4007 37.8117 30.1198 36.8696 25.6296C35.5109 19.1537 36.3678 9.08554 37.5 5.2Z" fill="#FAA21E"/>
<path d="M16 40L18 39.5M15.5 33.5H17.5M15.7 27L17.8 27.4M16.4 21L18.5 21.3M16.4 15L18.5 15.1M15.4 9.5L17.5 9M13.6 4.2L15.5 3.5M34.4 45.4L36.4 46.1M35.8 40L37.8 40.5M36.3 34H38.1M35.5 28L37.3 27.6M34.4 21.7L36.3 21.5M34.5 15L36.2 15.1M35 8.6L36.8 9" stroke="#FAA21E" stroke-width="0.4"/>
<path d="M16 40L18 39.5M15.5 33.5H17.5M15.7 27L17.8 27.4M16.4 21L18.5 21.3M16.4 15L18.5 15.1M15.4 9.5L17.5 9M13.6 4.2L15.5 3.5M34.4 45.4L36.4 46.1M35.8 40L37.8 40.5M36.3 34H38.1M35.5 28L37.3 27.6M34.4 21.7L36.3 21.5M34.5 15L36.2 15.1M35 8.6L36.8 9" stroke="black" stroke-opacity="0.4" stroke-width="0.4"/>
</svg>
