<svg width="50" height="50" viewBox="0 0 50 50" fill="none" xmlns="http://www.w3.org/2000/svg">
<path d="M11.5 12C11.9298 8.12202 12.2154 3.01978 12.9317 1C15.5849 1.49875 20.7022 2 25 2C29.2978 2 34.3989 1.40397 36.906 1.00001C37.4432 2.21188 37.5 6.5 38 10.5C38.2709 12.6669 38.4259 21.7565 39 29.9066C39.5949 38.3519 40.6075 45.8554 40.7898 47.5C36.97 49.5 31.0493 49 27.2428 48.2629C27.1481 46.9823 27.8208 38.0488 27.2428 29.9066C26.7268 22.638 26.2027 16 26 16C25.7973 16 25.3821 22.638 25 29.9066C24.572 38.0488 25 46.9823 25 48.2629C21.12 48.8464 18.2914 49.046 15.9612 49C13.6311 48.954 11.4099 48.5 9.5 48C9.5 47.6704 10.5071 39.1971 11 30C11.4133 22.2873 11.304 13.7688 11.5 12Z" fill="#898989"/>
<path d="M11.5 12C11.9298 8.12202 12.2154 3.01978 12.9317 1C15.5849 1.49875 20.7022 2 25 2C29.2978 2 34.3989 1.40397 36.906 1.00001C37.4432 2.21188 37.5 6.5 38 10.5C38.2709 12.6669 38.4259 21.7565 39 29.9066C39.5949 38.3519 40.6075 45.8554 40.7898 47.5C36.97 49.5 31.0493 49 27.2428 48.2629C27.1481 46.9823 27.8208 38.0488 27.2428 29.9066C26.7268 22.638 26.2027 16 26 16C25.7973 16 25.3821 22.638 25 29.9066C24.572 38.0488 25 46.9823 25 48.2629C21.12 48.8464 18.2914 49.046 15.9612 49C13.6311 48.954 11.4099 48.5 9.5 48C9.5 47.6704 10.5071 39.1971 11 30C11.4133 22.2873 11.304 13.7688 11.5 12Z" fill="black" fill-opacity="0.4"/>
<path d="M12.6715 4C13.8355 4.24379 17.1219 4.63991 18.5 4.8M37.1695 4C37.1695 4 34.5 4.52009 34 4.52009M18.5 4.8C17.8333 5.76425 15.5 7.5 12 7.5M18.5 4.8C23.456 5.37573 28.0981 5.19879 34 4.52009M34 4.52009C34.6667 5.51339 36.7 7.5 37.7 7.5" stroke="#898989"/>
<path d="M12.6715 4C13.8355 4.24379 17.1219 4.63991 18.5 4.8M37.1695 4C37.1695 4 34.5 4.52009 34 4.52009M18.5 4.8C17.8333 5.76425 15.5 7.5 12 7.5M18.5 4.8C23.456 5.37573 28.0981 5.19879 34 4.52009M34 4.52009C34.6667 5.51339 36.7 7.5 37.7 7.5" stroke="black" stroke-opacity="0.2"/>
<path d="M23.8978 4.80444C23.8978 7.78601 23.8618 10.2222 24.7826 11.4384C25.6855 12.631 26.438 12.631 26.5884 12.631V4.87898" stroke="#898989"/>
<path d="M23.8978 4.80444C23.8978 7.78601 23.8618 10.2222 24.7826 11.4384C25.6855 12.631 26.438 12.631 26.5884 12.631V4.87898" stroke="black" stroke-opacity="0.2"/>
<path d="M12.1895 4.53125L12.6335 2.03125C16.1855 2.69792 22.0549 3.4 26.5 3.4L26.5118 3.39947C30.9501 3.19978 33.7372 3.07438 37.1925 2.07526L37.5 4.5C34 5.5 30.5 6 26.5 6C22.5 6 16.1854 5.19792 12.1895 4.53125Z" fill="#FAA21E"/>
<path d="M12.1895 4.53125L12.6335 2.03125C16.1855 2.69792 22.0549 3.4 26.5 3.4L26.5118 3.39947C30.9501 3.19978 33.7372 3.07438 37.1925 2.07526L37.5 4.5C34 5.5 30.5 6 26.5 6C22.5 6 16.1854 5.19792 12.1895 4.53125Z" fill="black" fill-opacity="0.8"/>
<path d="M23.5 2.69995C23.2239 2.69995 23 2.92381 23 3.19995V6.19995C23 6.47609 23.2239 6.69995 23.5 6.69995H28.5C28.7761 6.69995 29 6.47609 29 6.19995V3.19995C29 2.92381 28.7761 2.69995 28.5 2.69995L23.5 2.69995Z" stroke="#FAA21E" stroke-linejoin="round"/>
<path d="M23.5 2.69995C23.2239 2.69995 23 2.92381 23 3.19995V6.19995C23 6.47609 23.2239 6.69995 23.5 6.69995H28.5C28.7761 6.69995 29 6.47609 29 6.19995V3.19995C29 2.92381 28.7761 2.69995 28.5 2.69995L23.5 2.69995Z" stroke="white" stroke-opacity="0.4" stroke-linejoin="round"/>
</svg>
