<svg width="50" height="50" viewBox="0 0 50 50" fill="none" xmlns="http://www.w3.org/2000/svg">
<path d="M22.9148 44.3352C17.4664 44.3352 13.9481 42.3426 13.45 41.3463C12.9518 40.35 12.9518 36.7936 12.9518 36.7936H32.8778C32.8778 38.9191 33.0013 40.3459 32.3796 41.3463C31.389 42.9404 27.8679 44.3352 22.9148 44.3352Z" fill="#898989"/>
<path d="M22.9148 44.3352C17.4664 44.3352 13.9481 42.3426 13.45 41.3463C12.9518 40.35 12.9518 36.7936 12.9518 36.7936H32.8778C32.8778 38.9191 33.0013 40.3459 32.3796 41.3463C31.389 42.9404 27.8679 44.3352 22.9148 44.3352Z" fill="white" fill-opacity="0.6"/>
<path d="M40.2341 22.1313C39.4248 22.0953 38.2497 21.1691 38.732 19.4428C39.2142 17.7164 41.2956 16.4981 43.7233 16.6062C46.1511 16.7142 47.3068 18.0764 48.4819 19.0026C48.4431 19.8748 48.6925 23.3816 46.5335 26.3442C44.3746 29.3068 41.9827 30.4779 39.422 31.2712C37.7776 31.7807 37.3212 32.9256 37.2824 33.7978C37.2436 34.6699 38.0141 35.5781 38.8233 35.6141" stroke="#FEFEFE" stroke-width="2.49074" stroke-linecap="round"/>
<path d="M41.8444 11.0499H3.98517C5.60926 14.8394 6.69198 15.3808 7.7747 19.7117C8.31607 21.8771 7.77471 28.7639 8.85743 32.5535C10.2286 37.3525 13.0428 39.863 15.8951 41.2153C18.7355 42.5618 26.6024 42.5618 29.9706 41.2153C32.9017 40.0434 35.6795 37.4257 37.0083 32.5535C38.5424 26.9283 37.4452 22.9407 38.091 19.7117C38.6324 17.0049 39.679 15.3808 41.8444 11.0499Z" fill="#898989"/>
<path d="M41.8444 11.0499H3.98517C5.60926 14.8394 6.69198 15.3808 7.7747 19.7117C8.31607 21.8771 7.77471 28.7639 8.85743 32.5535C10.2286 37.3525 13.0428 39.863 15.8951 41.2153C18.7355 42.5618 26.6024 42.5618 29.9706 41.2153C32.9017 40.0434 35.6795 37.4257 37.0083 32.5535C38.5424 26.9283 37.4452 22.9407 38.091 19.7117C38.6324 17.0049 39.679 15.3808 41.8444 11.0499Z" fill="white" fill-opacity="0.95"/>
<path d="M41.8444 10.8454C41.8444 13.5337 33.5969 15.802 23.1424 15.802C12.6878 15.802 3.98517 13.5337 3.98517 10.8454C3.98517 8.15709 12.6878 5.97778 23.1424 5.97778C33.5969 5.97778 41.8444 8.15709 41.8444 10.8454Z" fill="#898989"/>
<path d="M41.8444 10.8454C41.8444 13.5337 33.5969 15.802 23.1424 15.802C12.6878 15.802 3.98517 13.5337 3.98517 10.8454C3.98517 8.15709 12.6878 5.97778 23.1424 5.97778C33.5969 5.97778 41.8444 8.15709 41.8444 10.8454Z" fill="white" fill-opacity="0.6"/>
<path d="M41.8444 10.8454C41.8444 13.5337 33.5969 15.802 23.1424 15.802C12.6878 15.802 3.98517 13.5337 3.98517 10.8454C3.98517 8.15709 12.6878 5.97778 23.1424 5.97778C33.5969 5.97778 41.8444 8.15709 41.8444 10.8454Z" stroke="#FEFEFE" stroke-width="1.49444"/>
<path d="M37 13.4304C37 13.0805 29.3513 11.9305 23 11.9305C16.6487 11.9305 9 13.0805 9 13.4304C9 13.7804 15 15.2305 23 15.2305C32 15.2305 37 13.7804 37 13.4304Z" fill="#FAA21E"/>
<path d="M37 13.4304C37 13.0805 29.3513 11.9305 23 11.9305C16.6487 11.9305 9 13.0805 9 13.4304C9 13.7804 15 15.2305 23 15.2305C32 15.2305 37 13.7804 37 13.4304Z" fill="white" fill-opacity="0.4"/>
<path d="M23 20.4C21.575 20.4 20.3875 19.45 20.15 18.5L16.5875 19.6875L13.5 25.15L17.3 26.575V37.5H28.7V26.575L32.5 25.15L29.4125 19.6875L25.85 18.5C25.6125 19.45 24.425 20.4 23 20.4Z" fill="#CE4317"/>
<path d="M23 20.4C21.575 20.4 20.3875 19.45 20.15 18.5L16.5875 19.6875L13.5 25.15L17.3 26.575V37.5H28.7V26.575L32.5 25.15L29.4125 19.6875L25.85 18.5C25.6125 19.45 24.425 20.4 23 20.4Z" fill="white" fill-opacity="0.15"/>
<path d="M23 21.4429C21.8322 21.4429 19.8429 20.2286 19.3571 19.5L17.4143 20.2286L14.7429 24.6L18.3857 26.0571V36.5H27.6712L27.6143 26.0571L31.2571 24.6L28.5857 20.2286L26.6429 19.5C26.1571 20.2286 24.1678 21.4429 23 21.4429Z" stroke="#FEFEFE" stroke-width="0.485714" stroke-linecap="round" stroke-dasharray="0.97 1.46"/>
</svg>
