<svg width="50" height="50" viewBox="0 0 50 50" fill="none" xmlns="http://www.w3.org/2000/svg">
<path d="M9.25066 11.8699L31.544 2.5307L48.419 16.7469L43.0007 40.3022L20.7074 49.6414L3.83236 35.4253L9.25066 11.8699Z" fill="#7445B8"/>
<path d="M9.25066 11.8699L31.544 2.5307L48.419 16.7469L43.0007 40.3022L20.7074 49.6414L3.83236 35.4253L9.25066 11.8699Z" fill="white" fill-opacity="0.2"/>
<path d="M6.99932 9.97341L28.7578 0.183636L44.5631 13.4987L38.61 36.6034L16.8515 46.3932L1.04617 33.0782L6.99932 9.97341Z" fill="#7445B8"/>
<path d="M6.99932 9.97341L28.7578 0.183636L44.5631 13.4987L38.61 36.6034L16.8515 46.3932L1.04617 33.0782L6.99932 9.97341Z" fill="white" fill-opacity="0.6"/>
<path d="M10.404 12.8417L27.4754 5.1608L39.8761 15.6076L35.2053 33.7352L18.1339 41.4162L5.73327 30.9694L10.404 12.8417Z" fill="#7445B8"/>
<path d="M10.404 12.8417L27.4754 5.1608L39.8761 15.6076L35.2053 33.7352L18.1339 41.4162L5.73327 30.9694L10.404 12.8417Z" fill="white" fill-opacity="0.2"/>
<path d="M38.8328 36.3254L16.9812 46.4108L20.9033 49.7726L42.7549 40.2475L38.8328 36.3254Z" fill="#7445B8"/>
<path d="M38.8328 36.3254L16.9812 46.4108L20.9033 49.7726L42.7549 40.2475L38.8328 36.3254Z" fill="black" fill-opacity="0.2"/>
<path fill-rule="evenodd" clip-rule="evenodd" d="M35.0354 20.7886L18.3505 31.4877L11.5516 21.4818L15.6872 18.6717L19.7499 24.6507L32.3364 16.5796L35.0354 20.7886Z" fill="#7445B8"/>
<path fill-rule="evenodd" clip-rule="evenodd" d="M35.0354 20.7886L18.3505 31.4877L11.5516 21.4818L15.6872 18.6717L19.7499 24.6507L32.3364 16.5796L35.0354 20.7886Z" fill="white" fill-opacity="0.95"/>
</svg>
