<svg width="50" height="50" viewBox="0 0 50 50" fill="none" xmlns="http://www.w3.org/2000/svg">
<path d="M25.9214 2.58911L15.7122 9.65707L20.6205 12.2094L27.4921 8.47908L25.9214 2.58911Z" stroke="black" stroke-width="0.392664"/>
<path d="M20.7677 12.1112L15.7122 9.65698L16.1718 41.5253L22.1465 40.1465L20.7677 12.1112Z" fill="#7445B8"/>
<path d="M20.7677 12.1112L15.7122 9.65698L16.1718 41.5253L22.1465 40.1465L20.7677 12.1112Z" fill="white" fill-opacity="0.8"/>
<path d="M20.7677 12.1111L27.202 8.89392L27.6616 37.3889L22.1465 40.1464L20.7677 12.1111Z" fill="#7445B8"/>
<path d="M20.7677 12.1111L27.202 8.89392L27.6616 37.3889L22.1465 40.1464L20.7677 12.1111Z" fill="white" fill-opacity="0.4"/>
<path d="M25.8233 2L15.7122 9.65699L20.7677 12.1111L27.2021 8.89394L25.8233 2Z" fill="#7445B8"/>
<path d="M25.8233 2L15.7122 9.65699L20.7677 12.1111L27.2021 8.89394L25.8233 2Z" fill="white" fill-opacity="0.6"/>
<path d="M27.202 8.89394L35.9344 11.2276L25.8232 2L27.202 8.89394Z" fill="#7445B8"/>
<path d="M31.3384 42.4444L27.6616 37.3889L27.202 8.89392L35.9343 11.1919L31.3384 42.4444Z" fill="#7445B8"/>
<path d="M31.3384 42.4444L27.6616 37.3889L27.202 8.89392L35.9343 11.1919L31.3384 42.4444Z" fill="white" fill-opacity="0.2"/>
<path d="M27.6616 37.3889L22.1465 40.1465L25.3637 47.5L31.3384 42.4445L27.6616 37.3889Z" fill="#7445B8"/>
<path d="M22.1465 40.1465L16.1718 41.5253L25.3324 47.3529L22.1465 40.1465Z" fill="#7445B8"/>
<path d="M22.1465 40.1465L16.1718 41.5253L25.3324 47.3529L22.1465 40.1465Z" fill="white" fill-opacity="0.6"/>
<path d="M40.0986 22.6872L42.3689 10.7322L46.5052 22.6817L40.0986 22.6872Z" fill="#C57A09"/>
<path d="M40.0986 22.6872L34.5557 19.9241L42.3689 10.7322L40.0986 22.6872Z" fill="#FAA21E"/>
<path d="M46.6215 22.6873L40.0986 22.6873L33.1769 43.8232L39.1517 41.9848L46.6215 22.6873Z" fill="#FAA21E"/>
<path d="M40.0986 22.6873L34.6277 19.9519L30.8788 39.6869L33.177 43.8232L40.0986 22.6873Z" fill="#FAA21E"/>
<path d="M40.0986 22.6873L34.6277 19.9519L30.8788 39.6869L33.177 43.8232L40.0986 22.6873Z" fill="white" fill-opacity="0.4"/>
<path d="M10.3989 20.5804L7.07959 12.5167L4.16921 23.7735L8.91216 25.7503L10.3989 20.5804Z" fill="#898989"/>
<path d="M10.3989 20.5804L7.07959 12.5167L4.16921 23.7735L8.91216 25.7503L10.3989 20.5804Z" fill="white" fill-opacity="0.6"/>
<path d="M16.2017 17.8774L7.07959 12.5166L10.3989 20.5804L14.8577 18.4306L16.2017 17.8774Z" fill="#898989"/>
<path d="M10.399 20.5804L17.0707 23.8065L16.2017 17.8774L10.399 20.5804Z" fill="#898989"/>
<path d="M10.399 20.5804L17.0707 23.8065L16.2017 17.8774L10.399 20.5804Z" fill="white" fill-opacity="0.2"/>
<path d="M8.91215 25.7503L4.16919 23.7734L11.9774 43.5059L16.104 43.2218L8.91215 25.7503Z" fill="#898989"/>
<path d="M8.91215 25.7503L4.16919 23.7734L11.9774 43.5059L16.104 43.2218L8.91215 25.7503Z" fill="white" fill-opacity="0.8"/>
<path d="M10.399 20.5802L8.91222 25.7502L16.1041 43.2217L18.9032 37.0401L17.0707 23.8064L10.399 20.5802Z" fill="#898989"/>
<path d="M10.399 20.5802L8.91222 25.7502L16.1041 43.2217L18.9032 37.0401L17.0707 23.8064L10.399 20.5802Z" fill="white" fill-opacity="0.4"/>
</svg>
