<svg width="50" height="50" viewBox="0 0 50 50" fill="none" xmlns="http://www.w3.org/2000/svg">
<g clip-path="url(#clip0_4546_6845)">
<path d="M9.73684 2.01379H40V5.01379L41 7.01379H45V48.0138H11.3158C10.7895 48.0138 8.15789 48.0138 6.57895 46.4456C5 44.8774 5 43.3092 5 42.7865V6.71834C5 5.67288 5.73684 4.41834 6.57895 3.58198C7.42105 2.74561 8.68421 2.01379 9.73684 2.01379Z" fill="#FAA21E"/>
<path d="M9.73684 2.01379H40V5.01379L41 7.01379H45V48.0138H11.3158C10.7895 48.0138 8.15789 48.0138 6.57895 46.4456C5 44.8774 5 43.3092 5 42.7865V6.71834C5 5.67288 5.73684 4.41834 6.57895 3.58198C7.42105 2.74561 8.68421 2.01379 9.73684 2.01379Z" fill="black" fill-opacity="0.1"/>
<path d="M43 9L40 5V40.0312H38L43 46V9Z" fill="#898989"/>
<path d="M43 9L40 5V40.0312H38L43 46V9Z" fill="white" fill-opacity="0.2"/>
<path d="M10.093 40H38.0001L43.0001 46H10.093C9.58856 46 6.97412 45.0823 6.97412 42.8406C6.97412 40.599 9.58856 40 10.093 40Z" fill="#898989"/>
<path d="M10.093 40H38.0001L43.0001 46H10.093C9.58856 46 6.97412 45.0823 6.97412 42.8406C6.97412 40.599 9.58856 40 10.093 40Z" fill="white" fill-opacity="0.6"/>
<g clip-path="url(#clip1_4546_6845)">
<path d="M21.1567 23.5514C21.4819 23.2098 21.2922 21.2395 21.1567 20.3856H24.2288C24.2288 21.2395 23.9339 23.2098 24.2591 23.5514C24.6656 23.9783 28.2324 24.5264 28.7306 24.8322C29.979 25.5987 30.897 29.7133 31.9826 31.6635L35.2346 33.1839C35.2346 32.6146 35.7156 31.9884 37.0164 32.33C38.6424 32.757 37.2671 34.8917 35.6411 34.8917C34.3403 34.8917 31.1985 33.7983 29.979 32.9444L27.2253 27.8209C27.5313 31.6635 25.959 32.9937 26.2916 36.36H19.7876C19.5406 33.6013 18.658 31.6635 18.658 27.8209L16.5162 32.5619C15.4322 33.4158 12.6347 34.7711 11.0087 35.1126C8.97618 35.5396 7.64737 33.324 8.86687 32.8971C10.4865 32.33 10.4381 33.6109 10.8446 33.6109C11.1698 33.6109 13.4191 32.2328 14.5031 31.2366C15.5983 29.3968 16.5162 25.5987 17.3486 24.8322C17.7813 24.4338 20.7502 23.9783 21.1567 23.5514Z" fill="#FAA21E"/>
<path d="M21.1567 23.5514C21.4819 23.2098 21.2922 21.2395 21.1567 20.3856H24.2288C24.2288 21.2395 23.9339 23.2098 24.2591 23.5514C24.6656 23.9783 28.2324 24.5264 28.7306 24.8322C29.979 25.5987 30.897 29.7133 31.9826 31.6635L35.2346 33.1839C35.2346 32.6146 35.7156 31.9884 37.0164 32.33C38.6424 32.757 37.2671 34.8917 35.6411 34.8917C34.3403 34.8917 31.1985 33.7983 29.979 32.9444L27.2253 27.8209C27.5313 31.6635 25.959 32.9937 26.2916 36.36H19.7876C19.5406 33.6013 18.658 31.6635 18.658 27.8209L16.5162 32.5619C15.4322 33.4158 12.6347 34.7711 11.0087 35.1126C8.97618 35.5396 7.64737 33.324 8.86687 32.8971C10.4865 32.33 10.4381 33.6109 10.8446 33.6109C11.1698 33.6109 13.4191 32.2328 14.5031 31.2366C15.5983 29.3968 16.5162 25.5987 17.3486 24.8322C17.7813 24.4338 20.7502 23.9783 21.1567 23.5514Z" fill="white" fill-opacity="0.6"/>
<path d="M22.6357 15.4703C25.3895 15.4703 25.2615 18.8647 24.9441 19.8864C24.5124 21.2758 23.9575 22.117 22.9417 22.117C21.6719 22.117 20.9776 21.1675 20.4999 19.8864C19.8651 18.1835 20.3079 15.4703 22.6357 15.4703Z" fill="#FAA21E"/>
<path d="M22.6357 15.4703C25.3895 15.4703 25.2615 18.8647 24.9441 19.8864C24.5124 21.2758 23.9575 22.117 22.9417 22.117C21.6719 22.117 20.9776 21.1675 20.4999 19.8864C19.8651 18.1835 20.3079 15.4703 22.6357 15.4703Z" fill="white" fill-opacity="0.6"/>
<path d="M8.92001 5.64001H7.64001V10.12C11.16 12.04 14.04 15.24 15.64 18.12L13.72 18.76L17.88 20.36L18.2 15.88L16.92 17.48C15 12.04 12.12 8.52001 8.92001 5.64001Z" fill="#FAA21E"/>
<path d="M8.92001 5.64001H7.64001V10.12C11.16 12.04 14.04 15.24 15.64 18.12L13.72 18.76L17.88 20.36L18.2 15.88L16.92 17.48C15 12.04 12.12 8.52001 8.92001 5.64001Z" fill="white" fill-opacity="0.95"/>
<path d="M24.3714 5.64001H26.84C25.5541 7.99139 24.92 9.80001 24.6 12.232L26.2 12.04L23.64 14.6L22.04 11.4L23.64 12.04C23.64 10.44 23.64 7.88001 24.3714 5.64001Z" fill="#FAA21E"/>
<path d="M24.3714 5.64001H26.84C25.5541 7.99139 24.92 9.80001 24.6 12.232L26.2 12.04L23.64 14.6L22.04 11.4L23.64 12.04C23.64 10.44 23.64 7.88001 24.3714 5.64001Z" fill="white" fill-opacity="0.95"/>
<path d="M38.36 5.64001H35.8C32.28 8.84001 30.68 10.952 28.76 15.24L27.48 13.64V18.12L31.64 16.52L29.72 15.88C32.6 12.04 34.84 10.12 38.36 8.20001V5.64001Z" fill="#FAA21E"/>
<path d="M38.36 5.64001H35.8C32.28 8.84001 30.68 10.952 28.76 15.24L27.48 13.64V18.12L31.64 16.52L29.72 15.88C32.6 12.04 34.84 10.12 38.36 8.20001V5.64001Z" fill="white" fill-opacity="0.95"/>
</g>
</g>
<defs>
<clipPath id="clip0_4546_6845">
<rect width="50" height="50" fill="white" transform="matrix(-1 0 0 1 50 0)"/>
</clipPath>
<clipPath id="clip1_4546_6845">
<rect width="32" height="32" fill="white" transform="matrix(-1 0 0 1 39 5)"/>
</clipPath>
</defs>
</svg>
