<svg width="50" height="50" viewBox="0 0 50 50" fill="none" xmlns="http://www.w3.org/2000/svg">
<path d="M32.0395 23C35.5 30.5 44.5 28.5 44.5 32.5C44.5 37.2125 23.5 36.5 22.5 40.5C21.4639 44.6445 36.8597 43.3488 39.5 48" stroke="#7445B8"/>
<path d="M32.0395 23C35.5 30.5 44.5 28.5 44.5 32.5C44.5 37.2125 23.5 36.5 22.5 40.5C21.4639 44.6445 36.8597 43.3488 39.5 48" stroke="white" stroke-opacity="0.4"/>
<circle cx="20.5" cy="17.5" r="15.5" fill="#7445B8"/>
<path fill-rule="evenodd" clip-rule="evenodd" d="M35.9242 19.0427C35.9743 18.5352 36 18.0206 36 17.5C36 17.3886 35.9988 17.2775 35.9965 17.1667C35.1392 15.7937 34.0937 14.3774 32.8582 13.1418C32.0624 12.3461 30.8885 11.399 29.7705 10.5922C31.1068 10.947 32.3874 11.3675 33.6141 11.7702L33.6142 11.7702C34.1143 11.9344 34.6054 12.0956 35.0877 12.2483C34.9373 11.8307 34.7696 11.4215 34.5853 11.0215C34.3922 10.9584 34.1967 10.8943 33.999 10.8293C31.9429 10.1543 29.6435 9.39933 27.2197 9.00022C25.6937 8.74893 24.1016 8.63421 22.4603 8.76332C21.176 8.86435 19.8635 9.11454 18.531 9.56385C18.1224 9.70161 17.7121 9.85802 17.3005 10.0344C16.5897 10.3391 15.8928 10.733 15.2154 11.1932C14.3265 11.797 13.4666 12.518 12.6481 13.3086C11.8836 14.0471 11.1526 14.8486 10.4653 15.6764C9.74331 16.546 9.06815 17.4461 8.45153 18.3348C7.79413 19.2824 7.20237 20.2184 6.69057 21.0927C6.383 21.6181 6.10383 22.122 5.85632 22.5935C6.17576 23.512 6.57917 24.3912 7.05737 25.2218C9.50354 26.301 13.677 27.6861 18.4663 28.0054C21.4935 28.2072 23.8687 28.1156 25.6139 27.9163C26.9219 27.7669 27.8934 27.555 28.524 27.3526C28.7606 27.9955 28.9404 28.5904 29.0801 29.1229C26.7967 29.6329 22.2183 30.4091 18.7256 30.1821C15.6497 29.9821 11.6465 28.8638 9.12689 28.0311C9.65796 28.6044 10.2318 29.1374 10.8434 29.6252C13.2511 30.3278 16.2178 31.0342 18.6599 31.193C22.2969 31.4294 26.9898 30.6284 29.3127 30.109C29.3216 30.1515 29.3304 30.1933 29.3388 30.2345C29.6443 30.0221 29.9418 29.7989 30.2308 29.5656C30.2173 29.5061 30.2033 29.4455 30.1888 29.3839C29.9997 28.581 29.7214 27.6047 29.2878 26.5143C28.9107 25.5662 28.4165 24.5326 27.7619 23.4521C27.1173 22.3881 26.3179 21.2795 25.3228 20.163C25.0197 19.823 24.6985 19.4822 24.3582 19.1418C23.495 18.2787 22.6404 17.5348 21.809 16.8947C18.69 14.4937 15.8899 13.5499 14.1924 13.2658C14.6597 12.8595 15.1352 12.484 15.6164 12.1471C17.4827 12.5053 21.8453 14.0617 25.6418 17.8582C29.0397 21.256 30.8465 25.7782 31.6988 28.2162C31.9652 27.9379 32.2214 27.6496 32.4666 27.3521C31.5294 24.7738 29.6767 20.4604 26.3582 17.1418C22.9656 13.7492 19.1322 12.0571 16.8169 11.397C17.1105 11.2362 17.4049 11.0918 17.6995 10.9656C18.0317 10.8232 18.3625 10.6949 18.6918 10.5797C20.6405 11.2764 24.6713 13.3876 27.1418 15.8582C30.0731 18.7895 32.0056 21.1998 33.4685 25.9925C33.7152 25.6165 33.946 25.2292 34.1599 24.8314C32.6645 20.3919 30.6859 17.9696 27.8582 15.1418C25.7044 12.9881 22.4728 11.1212 20.2557 10.1253C20.9852 9.95537 21.7076 9.84446 22.422 9.78294C23.1362 10.0832 24.434 10.857 25.8717 11.8653C27.3704 12.9164 28.9699 14.1862 30.1418 15.3582C33.0403 18.2566 34.0151 20.1736 34.9799 23.0419C35.177 22.5273 35.3474 21.9994 35.4895 21.46C34.5821 19.0987 33.4387 17.2224 30.8582 14.6418C29.6301 13.4138 27.9796 12.1064 26.4533 11.0359C25.7595 10.5493 25.0806 10.1041 24.4703 9.73431C25.3179 9.7647 26.1533 9.85436 26.9747 9.9867C28.24 10.661 30.788 12.5043 32.1418 13.8582C33.7139 15.4303 34.9762 17.3291 35.9242 19.0427ZM5.11335 19.3841C5.17563 19.898 5.26307 20.4043 5.3744 20.9015C6.17137 19.4957 7.71539 17.3256 9.61838 15.1705C11.9374 12.5441 14.7092 10.0329 17.1995 8.96557C22.3803 6.74524 26.9436 7.41927 33.8761 9.66372C33.6039 9.20015 33.3083 8.75198 32.991 8.32084C26.6302 6.35707 22.0094 5.80205 16.8005 8.03444C14.094 9.19436 11.1991 11.8498 8.859 14.5C7.33974 16.2205 6.02051 17.978 5.11335 19.3841ZM5.0947 15.7769C5.03213 16.3426 5 16.9176 5 17.5C5 17.5521 5.00026 17.6041 5.00077 17.6561C5.84208 16.3473 7.67013 14.0971 9.83115 11.9602C12.0658 9.75045 14.5832 7.73599 16.6731 6.97603C23.01 4.67169 28.3732 5.99357 32.321 7.47384C31.8312 6.89698 31.3 6.35644 30.7319 5.85681C26.8968 4.66871 21.9814 3.96781 16.3269 6.02399C14.0168 6.86404 11.3675 9.01624 9.11885 11.2398C7.52755 12.8134 6.10029 14.4597 5.0947 15.7769ZM6.61829 10.5968C6.17921 11.4781 5.82157 12.407 5.55524 13.3738C6.33339 12.3565 7.53644 11.0246 8.96282 9.71232C10.8592 7.96759 13.0978 6.30644 15.1881 5.4703C20.0747 3.51565 23.9706 3.51068 28.9007 4.49669L28.9051 4.47457C27.9996 3.88904 27.0291 3.39537 26.0068 3.00675C22.2564 2.57815 18.8486 2.91503 14.8119 4.52972C12.5552 5.43239 10.2105 7.1879 8.27692 8.9668C7.68558 9.51086 7.12778 10.0617 6.61829 10.5968ZM18.5337 26.9946C13.0422 26.6285 8.38737 24.8149 6.38821 23.7833C6.65021 23.2481 6.96767 22.6472 7.33421 22.0038C9.11053 22.7952 12.9924 24.1326 17.4579 24.5048C21.9217 24.8768 25.5005 24.5447 27.0737 24.277C27.5055 25.0186 27.8583 25.7339 28.1482 26.4091C27.6112 26.5747 26.7354 26.7686 25.4989 26.9098C23.8203 27.1015 21.5065 27.1928 18.5337 26.9946ZM17.5421 23.4952C13.285 23.1405 9.57553 21.8781 7.8504 21.1243C8.20877 20.5311 8.60207 19.914 9.02579 19.2887C10.1498 19.8406 12.6215 20.656 16.4541 21.0044C20.5357 21.3755 23.4957 21.2079 24.7467 21.0416C25.4236 21.8197 26.0011 22.5912 26.4947 23.3422C24.8432 23.5796 21.5703 23.8309 17.5421 23.4952ZM16.5459 19.9956C12.9253 19.6664 10.636 18.9177 9.61205 18.4463C10.0639 17.8141 10.5439 17.1812 11.0476 16.5632C11.9486 16.764 13.7884 17.1449 15.9167 17.4996C18.1953 17.8794 20.3546 17.8746 21.3423 17.8149C22.0915 18.4015 22.862 19.0783 23.6418 19.8582C23.7269 19.9432 23.8106 20.0282 23.8931 20.1133C22.4682 20.2327 19.9072 20.3011 16.5459 19.9956ZM16.0833 16.5004C14.3255 16.2074 12.768 15.8966 11.7868 15.6874C12.2456 15.1631 12.7202 14.6566 13.2075 14.1779C14.2327 14.2039 16.8278 14.7195 19.9853 16.8309C18.9365 16.8212 17.5344 16.7422 16.0833 16.5004Z" fill="#7445B8"/>
<path fill-rule="evenodd" clip-rule="evenodd" d="M35.9242 19.0427C35.9743 18.5352 36 18.0206 36 17.5C36 17.3886 35.9988 17.2775 35.9965 17.1667C35.1392 15.7937 34.0937 14.3774 32.8582 13.1418C32.0624 12.3461 30.8885 11.399 29.7705 10.5922C31.1068 10.947 32.3874 11.3675 33.6141 11.7702L33.6142 11.7702C34.1143 11.9344 34.6054 12.0956 35.0877 12.2483C34.9373 11.8307 34.7696 11.4215 34.5853 11.0215C34.3922 10.9584 34.1967 10.8943 33.999 10.8293C31.9429 10.1543 29.6435 9.39933 27.2197 9.00022C25.6937 8.74893 24.1016 8.63421 22.4603 8.76332C21.176 8.86435 19.8635 9.11454 18.531 9.56385C18.1224 9.70161 17.7121 9.85802 17.3005 10.0344C16.5897 10.3391 15.8928 10.733 15.2154 11.1932C14.3265 11.797 13.4666 12.518 12.6481 13.3086C11.8836 14.0471 11.1526 14.8486 10.4653 15.6764C9.74331 16.546 9.06815 17.4461 8.45153 18.3348C7.79413 19.2824 7.20237 20.2184 6.69057 21.0927C6.383 21.6181 6.10383 22.122 5.85632 22.5935C6.17576 23.512 6.57917 24.3912 7.05737 25.2218C9.50354 26.301 13.677 27.6861 18.4663 28.0054C21.4935 28.2072 23.8687 28.1156 25.6139 27.9163C26.9219 27.7669 27.8934 27.555 28.524 27.3526C28.7606 27.9955 28.9404 28.5904 29.0801 29.1229C26.7967 29.6329 22.2183 30.4091 18.7256 30.1821C15.6497 29.9821 11.6465 28.8638 9.12689 28.0311C9.65796 28.6044 10.2318 29.1374 10.8434 29.6252C13.2511 30.3278 16.2178 31.0342 18.6599 31.193C22.2969 31.4294 26.9898 30.6284 29.3127 30.109C29.3216 30.1515 29.3304 30.1933 29.3388 30.2345C29.6443 30.0221 29.9418 29.7989 30.2308 29.5656C30.2173 29.5061 30.2033 29.4455 30.1888 29.3839C29.9997 28.581 29.7214 27.6047 29.2878 26.5143C28.9107 25.5662 28.4165 24.5326 27.7619 23.4521C27.1173 22.3881 26.3179 21.2795 25.3228 20.163C25.0197 19.823 24.6985 19.4822 24.3582 19.1418C23.495 18.2787 22.6404 17.5348 21.809 16.8947C18.69 14.4937 15.8899 13.5499 14.1924 13.2658C14.6597 12.8595 15.1352 12.484 15.6164 12.1471C17.4827 12.5053 21.8453 14.0617 25.6418 17.8582C29.0397 21.256 30.8465 25.7782 31.6988 28.2162C31.9652 27.9379 32.2214 27.6496 32.4666 27.3521C31.5294 24.7738 29.6767 20.4604 26.3582 17.1418C22.9656 13.7492 19.1322 12.0571 16.8169 11.397C17.1105 11.2362 17.4049 11.0918 17.6995 10.9656C18.0317 10.8232 18.3625 10.6949 18.6918 10.5797C20.6405 11.2764 24.6713 13.3876 27.1418 15.8582C30.0731 18.7895 32.0056 21.1998 33.4685 25.9925C33.7152 25.6165 33.946 25.2292 34.1599 24.8314C32.6645 20.3919 30.6859 17.9696 27.8582 15.1418C25.7044 12.9881 22.4728 11.1212 20.2557 10.1253C20.9852 9.95537 21.7076 9.84446 22.422 9.78294C23.1362 10.0832 24.434 10.857 25.8717 11.8653C27.3704 12.9164 28.9699 14.1862 30.1418 15.3582C33.0403 18.2566 34.0151 20.1736 34.9799 23.0419C35.177 22.5273 35.3474 21.9994 35.4895 21.46C34.5821 19.0987 33.4387 17.2224 30.8582 14.6418C29.6301 13.4138 27.9796 12.1064 26.4533 11.0359C25.7595 10.5493 25.0806 10.1041 24.4703 9.73431C25.3179 9.7647 26.1533 9.85436 26.9747 9.9867C28.24 10.661 30.788 12.5043 32.1418 13.8582C33.7139 15.4303 34.9762 17.3291 35.9242 19.0427ZM5.11335 19.3841C5.17563 19.898 5.26307 20.4043 5.3744 20.9015C6.17137 19.4957 7.71539 17.3256 9.61838 15.1705C11.9374 12.5441 14.7092 10.0329 17.1995 8.96557C22.3803 6.74524 26.9436 7.41927 33.8761 9.66372C33.6039 9.20015 33.3083 8.75198 32.991 8.32084C26.6302 6.35707 22.0094 5.80205 16.8005 8.03444C14.094 9.19436 11.1991 11.8498 8.859 14.5C7.33974 16.2205 6.02051 17.978 5.11335 19.3841ZM5.0947 15.7769C5.03213 16.3426 5 16.9176 5 17.5C5 17.5521 5.00026 17.6041 5.00077 17.6561C5.84208 16.3473 7.67013 14.0971 9.83115 11.9602C12.0658 9.75045 14.5832 7.73599 16.6731 6.97603C23.01 4.67169 28.3732 5.99357 32.321 7.47384C31.8312 6.89698 31.3 6.35644 30.7319 5.85681C26.8968 4.66871 21.9814 3.96781 16.3269 6.02399C14.0168 6.86404 11.3675 9.01624 9.11885 11.2398C7.52755 12.8134 6.10029 14.4597 5.0947 15.7769ZM6.61829 10.5968C6.17921 11.4781 5.82157 12.407 5.55524 13.3738C6.33339 12.3565 7.53644 11.0246 8.96282 9.71232C10.8592 7.96759 13.0978 6.30644 15.1881 5.4703C20.0747 3.51565 23.9706 3.51068 28.9007 4.49669L28.9051 4.47457C27.9996 3.88904 27.0291 3.39537 26.0068 3.00675C22.2564 2.57815 18.8486 2.91503 14.8119 4.52972C12.5552 5.43239 10.2105 7.1879 8.27692 8.9668C7.68558 9.51086 7.12778 10.0617 6.61829 10.5968ZM18.5337 26.9946C13.0422 26.6285 8.38737 24.8149 6.38821 23.7833C6.65021 23.2481 6.96767 22.6472 7.33421 22.0038C9.11053 22.7952 12.9924 24.1326 17.4579 24.5048C21.9217 24.8768 25.5005 24.5447 27.0737 24.277C27.5055 25.0186 27.8583 25.7339 28.1482 26.4091C27.6112 26.5747 26.7354 26.7686 25.4989 26.9098C23.8203 27.1015 21.5065 27.1928 18.5337 26.9946ZM17.5421 23.4952C13.285 23.1405 9.57553 21.8781 7.8504 21.1243C8.20877 20.5311 8.60207 19.914 9.02579 19.2887C10.1498 19.8406 12.6215 20.656 16.4541 21.0044C20.5357 21.3755 23.4957 21.2079 24.7467 21.0416C25.4236 21.8197 26.0011 22.5912 26.4947 23.3422C24.8432 23.5796 21.5703 23.8309 17.5421 23.4952ZM16.5459 19.9956C12.9253 19.6664 10.636 18.9177 9.61205 18.4463C10.0639 17.8141 10.5439 17.1812 11.0476 16.5632C11.9486 16.764 13.7884 17.1449 15.9167 17.4996C18.1953 17.8794 20.3546 17.8746 21.3423 17.8149C22.0915 18.4015 22.862 19.0783 23.6418 19.8582C23.7269 19.9432 23.8106 20.0282 23.8931 20.1133C22.4682 20.2327 19.9072 20.3011 16.5459 19.9956ZM16.0833 16.5004C14.3255 16.2074 12.768 15.8966 11.7868 15.6874C12.2456 15.1631 12.7202 14.6566 13.2075 14.1779C14.2327 14.2039 16.8278 14.7195 19.9853 16.8309C18.9365 16.8212 17.5344 16.7422 16.0833 16.5004Z" fill="white" fill-opacity="0.4"/>
<circle cx="2.5" cy="2.5" r="2.5" transform="matrix(-1 0 0 1 32 38)" fill="#FEFEFE" fill-opacity="0.15"/>
<circle cx="2.00002" cy="2.00002" r="2.00002" transform="matrix(-1 0 0 1 45 27.8571)" fill="#FEFEFE" fill-opacity="0.15"/>
<circle cx="1.50003" cy="1.50003" r="1.50003" transform="matrix(-1 0 0 1 40.4445 19)" fill="#FEFEFE" fill-opacity="0.15"/>
<path d="M26 40.5C29.5 40.1786 29.2083 40.1786 29.5 36C29.7917 40.1786 29.5 40.1786 33 40.5C29.5 40.8214 29.7917 40.8214 29.5 45C29.2083 40.8214 29.5 40.8214 26 40.5Z" fill="#FEFEFE"/>
<path d="M40 29.8571C43 29.5816 42.75 29.5816 43 26C43.25 29.5816 43 29.5816 46 29.8571C43 30.1327 43.25 30.1327 43 33.7143C42.75 30.1327 43 30.1327 40 29.8571Z" fill="#FEFEFE"/>
<path d="M37 20.5C38.9444 20.3214 38.7824 20.3214 38.9444 18C39.1065 20.3214 38.9444 20.3214 40.8889 20.5C38.9444 20.6786 39.1065 20.6786 38.9444 23C38.7824 20.6786 38.9444 20.6786 37 20.5Z" fill="#FEFEFE"/>
</svg>
