<svg width="50" height="50" viewBox="0 0 50 50" fill="none" xmlns="http://www.w3.org/2000/svg">
<path d="M14.2702 9.19236C13.4342 9.19236 10.7868 7.83996 9.56758 7.16377L22.108 2.09227V0.570824C21.7415 0.0551527 21.5178 -0.103174 21.063 0.0636747L8.00002 6.65662L8 47C8.52252 48.0143 14.1671 50 15.2121 50C16.0482 50 32.0358 48.581 40.3961 47.7357C41.533 47.5705 41.9174 47.2689 41.9637 46.2143V8.68521C42.1901 7.74212 41.3205 7.08741 40.3961 7.16377C32.21 7.83996 15.1063 9.19236 14.2702 9.19236Z" fill="#2FC4A7"/>
<path d="M14.2702 9.19236C13.4342 9.19236 10.7868 7.83996 9.56758 7.16377L22.108 2.09227V0.570824C21.7415 0.0551527 21.5178 -0.103174 21.063 0.0636747L8.00002 6.65662L8 47C8.52252 48.0143 14.1671 50 15.2121 50C16.0482 50 32.0358 48.581 40.3961 47.7357C41.533 47.5705 41.9174 47.2689 41.9637 46.2143V8.68521C42.1901 7.74212 41.3205 7.08741 40.3961 7.16377C32.21 7.83996 15.1063 9.19236 14.2702 9.19236Z" fill="white" fill-opacity="0.95"/>
<path fill-rule="evenodd" clip-rule="evenodd" d="M9.56758 7.16377C10.7868 7.83996 13.4342 9.19236 14.2702 9.19236C15.1063 9.19236 32.21 7.83996 40.3961 7.16377C41.3205 7.08741 42.1901 7.74212 41.9637 8.68521V46.2143C41.9174 47.2689 41.533 47.5705 40.3961 47.7357C32.0358 48.581 16.0482 50 15.2121 50C14.1671 50 8.52252 48.0143 8 47L8 38.6209C8.47077 38.9282 9.06509 39.266 9.71731 39.573C10.9118 40.1354 12.3847 40.6356 13.7477 40.6356C14.0278 40.6356 14.2549 40.4086 14.2549 40.1285C14.2549 39.8484 14.0278 39.6213 13.7477 39.6213C12.6027 39.6213 11.2888 39.1918 10.1494 38.6554C9.17661 38.1974 8.39194 37.6909 8.00001 37.376L8.00001 28.3426C8.52126 28.6686 9.11964 29.0006 9.73804 29.3007C11.0551 29.9398 12.5803 30.4927 13.7477 30.4927C14.0278 30.4927 14.2549 30.2656 14.2549 29.9855C14.2549 29.7054 14.0278 29.4784 13.7477 29.4784C12.825 29.4784 11.4764 29.0169 10.1809 28.3882C9.33529 27.9778 8.5627 27.5212 8.00001 27.1282L8.00002 17.3728C9.35314 18.3414 11.5015 19.416 13.6511 19.8332C13.926 19.8866 14.1922 19.707 14.2456 19.432C14.2989 19.157 14.1193 18.8909 13.8444 18.8375C11.4591 18.3745 9.07222 17.0266 8.00002 16.0845L8.00002 6.65662L21.063 0.0636748C21.5178 -0.103174 21.7415 0.0551527 22.108 0.570824V2.09227L9.56758 7.16377ZM39.8582 9.69952C39.8582 9.5565 39.7978 9.42012 39.6919 9.32399C39.586 9.22787 39.4444 9.18093 39.3021 9.19475L18.4014 11.2233C18.1415 11.2486 17.9432 11.467 17.9432 11.7281V47.2286C17.9432 47.3716 18.0036 47.508 18.1095 47.6041C18.2154 47.7002 18.357 47.7472 18.4994 47.7334L39.4001 45.7048C39.66 45.6795 39.8582 45.4611 39.8582 45.2V9.69952ZM18.9575 46.6698V12.1884L38.8439 10.2583V44.7397L18.9575 46.6698ZM15.8224 10.7138C15.8224 10.4337 15.5954 10.2067 15.3153 10.2067C15.0352 10.2067 14.8081 10.4337 14.8081 10.7138V48.75C14.8081 49.0301 15.0352 49.2572 15.3153 49.2572C15.5954 49.2572 15.8224 49.0301 15.8224 48.75V10.7138Z" fill="#2FC4A7"/>
<path fill-rule="evenodd" clip-rule="evenodd" d="M9.56758 7.16377C10.7868 7.83996 13.4342 9.19236 14.2702 9.19236C15.1063 9.19236 32.21 7.83996 40.3961 7.16377C41.3205 7.08741 42.1901 7.74212 41.9637 8.68521V46.2143C41.9174 47.2689 41.533 47.5705 40.3961 47.7357C32.0358 48.581 16.0482 50 15.2121 50C14.1671 50 8.52252 48.0143 8 47L8 38.6209C8.47077 38.9282 9.06509 39.266 9.71731 39.573C10.9118 40.1354 12.3847 40.6356 13.7477 40.6356C14.0278 40.6356 14.2549 40.4086 14.2549 40.1285C14.2549 39.8484 14.0278 39.6213 13.7477 39.6213C12.6027 39.6213 11.2888 39.1918 10.1494 38.6554C9.17661 38.1974 8.39194 37.6909 8.00001 37.376L8.00001 28.3426C8.52126 28.6686 9.11964 29.0006 9.73804 29.3007C11.0551 29.9398 12.5803 30.4927 13.7477 30.4927C14.0278 30.4927 14.2549 30.2656 14.2549 29.9855C14.2549 29.7054 14.0278 29.4784 13.7477 29.4784C12.825 29.4784 11.4764 29.0169 10.1809 28.3882C9.33529 27.9778 8.5627 27.5212 8.00001 27.1282L8.00002 17.3728C9.35314 18.3414 11.5015 19.416 13.6511 19.8332C13.926 19.8866 14.1922 19.707 14.2456 19.432C14.2989 19.157 14.1193 18.8909 13.8444 18.8375C11.4591 18.3745 9.07222 17.0266 8.00002 16.0845L8.00002 6.65662L21.063 0.0636748C21.5178 -0.103174 21.7415 0.0551527 22.108 0.570824V2.09227L9.56758 7.16377ZM39.8582 9.69952C39.8582 9.5565 39.7978 9.42012 39.6919 9.32399C39.586 9.22787 39.4444 9.18093 39.3021 9.19475L18.4014 11.2233C18.1415 11.2486 17.9432 11.467 17.9432 11.7281V47.2286C17.9432 47.3716 18.0036 47.508 18.1095 47.6041C18.2154 47.7002 18.357 47.7472 18.4994 47.7334L39.4001 45.7048C39.66 45.6795 39.8582 45.4611 39.8582 45.2V9.69952ZM18.9575 46.6698V12.1884L38.8439 10.2583V44.7397L18.9575 46.6698ZM15.8224 10.7138C15.8224 10.4337 15.5954 10.2067 15.3153 10.2067C15.0352 10.2067 14.8081 10.4337 14.8081 10.7138V48.75C14.8081 49.0301 15.0352 49.2572 15.3153 49.2572C15.5954 49.2572 15.8224 49.0301 15.8224 48.75V10.7138Z" fill="black" fill-opacity="0.2"/>
<path d="M21.9236 1L9.5 7C10.4447 7.95976 11.2901 8.60255 14 9.2L39 7.3C37.6201 6.63333 34.1358 4.7 31.238 3.5C28.3402 2.3 23.821 1.33333 21.9236 1Z" fill="#898989"/>
<path d="M21.9236 1L9.5 7C10.4447 7.95976 11.2901 8.60255 14 9.2L39 7.3C37.6201 6.63333 34.1358 4.7 31.238 3.5C28.3402 2.3 23.821 1.33333 21.9236 1Z" fill="white" fill-opacity="0.6"/>
<path d="M32.1149 17L28.4368 17.5135V24.7027L22 25.7297V29.8378L28.4368 28.8108V36L32.1149 35.4865V28.2973L37 27.6811V23.573L32.1149 24.1892V17Z" fill="#2FC4A7"/>
<path d="M32.1149 17L28.4368 17.5135V24.7027L22 25.7297V29.8378L28.4368 28.8108V36L32.1149 35.4865V28.2973L37 27.6811V23.573L32.1149 24.1892V17Z" fill="white" fill-opacity="0.6"/>
</svg>
