<svg width="50" height="50" viewBox="0 0 50 50" fill="none" xmlns="http://www.w3.org/2000/svg">
<path d="M14.2702 9.19236C13.4342 9.19236 10.7868 7.83996 9.56758 7.16377L22.108 2.09227V0.570824C21.7415 0.0551527 21.5178 -0.103174 21.063 0.0636747L8.00002 6.65662L8 47C8.52252 48.0143 14.1671 50 15.2121 50C16.0482 50 32.0358 48.581 40.3961 47.7357C41.533 47.5705 41.9174 47.2689 41.9637 46.2143V8.68521C42.1901 7.74212 41.3205 7.08741 40.3961 7.16377C32.21 7.83996 15.1063 9.19236 14.2702 9.19236Z" fill="#2FC4A7"/>
<path d="M14.2702 9.19236C13.4342 9.19236 10.7868 7.83996 9.56758 7.16377L22.108 2.09227V0.570824C21.7415 0.0551527 21.5178 -0.103174 21.063 0.0636747L8.00002 6.65662L8 47C8.52252 48.0143 14.1671 50 15.2121 50C16.0482 50 32.0358 48.581 40.3961 47.7357C41.533 47.5705 41.9174 47.2689 41.9637 46.2143V8.68521C42.1901 7.74212 41.3205 7.08741 40.3961 7.16377C32.21 7.83996 15.1063 9.19236 14.2702 9.19236Z" fill="white" fill-opacity="0.95"/>
<path fill-rule="evenodd" clip-rule="evenodd" d="M9.56758 7.16377C10.7868 7.83996 13.4342 9.19236 14.2702 9.19236C15.1063 9.19236 32.21 7.83996 40.3961 7.16377C41.3205 7.08741 42.1901 7.74212 41.9637 8.68521V46.2143C41.9174 47.2689 41.533 47.5705 40.3961 47.7357C32.0358 48.581 16.0482 50 15.2121 50C14.1671 50 8.52252 48.0143 8 47L8 38.6209C8.47077 38.9282 9.06509 39.266 9.71731 39.573C10.9118 40.1354 12.3847 40.6356 13.7477 40.6356C14.0278 40.6356 14.2549 40.4086 14.2549 40.1285C14.2549 39.8484 14.0278 39.6213 13.7477 39.6213C12.6027 39.6213 11.2888 39.1918 10.1494 38.6554C9.17661 38.1974 8.39194 37.6909 8.00001 37.376L8.00001 28.3426C8.52126 28.6686 9.11964 29.0006 9.73804 29.3007C11.0551 29.9398 12.5803 30.4927 13.7477 30.4927C14.0278 30.4927 14.2549 30.2656 14.2549 29.9855C14.2549 29.7054 14.0278 29.4784 13.7477 29.4784C12.825 29.4784 11.4764 29.0169 10.1809 28.3882C9.33529 27.9778 8.5627 27.5212 8.00001 27.1282L8.00002 17.3728C9.35314 18.3414 11.5015 19.416 13.6511 19.8332C13.926 19.8866 14.1922 19.707 14.2456 19.432C14.2989 19.157 14.1193 18.8909 13.8444 18.8375C11.4591 18.3745 9.07222 17.0266 8.00002 16.0845L8.00002 6.65662L21.063 0.0636748C21.5178 -0.103174 21.7415 0.0551527 22.108 0.570824V2.09227L9.56758 7.16377ZM39.8582 9.69952C39.8582 9.5565 39.7978 9.42012 39.6919 9.32399C39.586 9.22787 39.4444 9.18093 39.3021 9.19475L18.4014 11.2233C18.1415 11.2486 17.9432 11.467 17.9432 11.7281V47.2286C17.9432 47.3716 18.0036 47.508 18.1095 47.6041C18.2154 47.7002 18.357 47.7472 18.4994 47.7334L39.4001 45.7048C39.66 45.6795 39.8582 45.4611 39.8582 45.2V9.69952ZM18.9575 46.6698V12.1884L38.8439 10.2583V44.7397L18.9575 46.6698ZM15.8224 10.7138C15.8224 10.4337 15.5954 10.2067 15.3153 10.2067C15.0352 10.2067 14.8081 10.4337 14.8081 10.7138V48.75C14.8081 49.0301 15.0352 49.2572 15.3153 49.2572C15.5954 49.2572 15.8224 49.0301 15.8224 48.75V10.7138Z" fill="#7445B8"/>
<path fill-rule="evenodd" clip-rule="evenodd" d="M9.56758 7.16377C10.7868 7.83996 13.4342 9.19236 14.2702 9.19236C15.1063 9.19236 32.21 7.83996 40.3961 7.16377C41.3205 7.08741 42.1901 7.74212 41.9637 8.68521V46.2143C41.9174 47.2689 41.533 47.5705 40.3961 47.7357C32.0358 48.581 16.0482 50 15.2121 50C14.1671 50 8.52252 48.0143 8 47L8 38.6209C8.47077 38.9282 9.06509 39.266 9.71731 39.573C10.9118 40.1354 12.3847 40.6356 13.7477 40.6356C14.0278 40.6356 14.2549 40.4086 14.2549 40.1285C14.2549 39.8484 14.0278 39.6213 13.7477 39.6213C12.6027 39.6213 11.2888 39.1918 10.1494 38.6554C9.17661 38.1974 8.39194 37.6909 8.00001 37.376L8.00001 28.3426C8.52126 28.6686 9.11964 29.0006 9.73804 29.3007C11.0551 29.9398 12.5803 30.4927 13.7477 30.4927C14.0278 30.4927 14.2549 30.2656 14.2549 29.9855C14.2549 29.7054 14.0278 29.4784 13.7477 29.4784C12.825 29.4784 11.4764 29.0169 10.1809 28.3882C9.33529 27.9778 8.5627 27.5212 8.00001 27.1282L8.00002 17.3728C9.35314 18.3414 11.5015 19.416 13.6511 19.8332C13.926 19.8866 14.1922 19.707 14.2456 19.432C14.2989 19.157 14.1193 18.8909 13.8444 18.8375C11.4591 18.3745 9.07222 17.0266 8.00002 16.0845L8.00002 6.65662L21.063 0.0636748C21.5178 -0.103174 21.7415 0.0551527 22.108 0.570824V2.09227L9.56758 7.16377ZM39.8582 9.69952C39.8582 9.5565 39.7978 9.42012 39.6919 9.32399C39.586 9.22787 39.4444 9.18093 39.3021 9.19475L18.4014 11.2233C18.1415 11.2486 17.9432 11.467 17.9432 11.7281V47.2286C17.9432 47.3716 18.0036 47.508 18.1095 47.6041C18.2154 47.7002 18.357 47.7472 18.4994 47.7334L39.4001 45.7048C39.66 45.6795 39.8582 45.4611 39.8582 45.2V9.69952ZM18.9575 46.6698V12.1884L38.8439 10.2583V44.7397L18.9575 46.6698ZM15.8224 10.7138C15.8224 10.4337 15.5954 10.2067 15.3153 10.2067C15.0352 10.2067 14.8081 10.4337 14.8081 10.7138V48.75C14.8081 49.0301 15.0352 49.2572 15.3153 49.2572C15.5954 49.2572 15.8224 49.0301 15.8224 48.75V10.7138Z" fill="white" fill-opacity="0.2"/>
<path d="M21.9236 1L9.5 7C10.4447 7.95976 11.2901 8.60255 14 9.2L39 7.3C37.6201 6.63333 34.1358 4.7 31.238 3.5C28.3402 2.3 23.821 1.33333 21.9236 1Z" fill="#898989"/>
<path d="M21.9236 1L9.5 7C10.4447 7.95976 11.2901 8.60255 14 9.2L39 7.3C37.6201 6.63333 34.1358 4.7 31.238 3.5C28.3402 2.3 23.821 1.33333 21.9236 1Z" fill="white" fill-opacity="0.6"/>
<path d="M34.4481 37.7827C36.5184 36.6359 37.8973 35.0038 37.9724 32.6467C36.9925 33.7684 35.6064 33.9572 35.6064 33.9572C36.6791 32.2053 37.6591 31.0836 37.2354 28.4239C36.1627 30.1759 35.0724 30.2009 33.9821 30.2259C34.3706 29.4319 35.0548 28.474 34.9445 27.3774C33.7615 28.0327 31.6693 28.9021 30.4863 29.5573C29.0076 30.3764 28.2272 33.1242 29.2424 35.4562C30.2576 37.7883 32.9401 38.618 34.4481 37.7827Z" fill="#7445B8"/>
<path d="M34.4481 37.7827C36.5184 36.6359 37.8973 35.0038 37.9724 32.6467C36.9925 33.7684 35.6064 33.9572 35.6064 33.9572C36.6791 32.2053 37.6591 31.0836 37.2354 28.4239C36.1627 30.1759 35.0724 30.2009 33.9821 30.2259C34.3706 29.4319 35.0548 28.474 34.9445 27.3774C33.7615 28.0327 31.6693 28.9021 30.4863 29.5573C29.0076 30.3764 28.2272 33.1242 29.2424 35.4562C30.2576 37.7883 32.9401 38.618 34.4481 37.7827Z" fill="white" fill-opacity="0.4"/>
<path d="M33.7032 37.3849C35.4911 36.3945 36.6879 34.9983 36.7683 32.9985C35.9181 33.9583 34.725 34.1303 34.725 34.1303C35.6591 32.6352 36.5094 31.6754 36.1629 29.4232C35.2288 30.9183 34.291 30.9489 33.3533 30.9794C33.6927 30.3026 34.2875 29.4843 34.2 28.5551C33.1783 29.1211 31.3734 29.8764 30.3518 30.4423C29.0746 31.1497 28.3851 33.487 29.2424 35.4563C30.0997 37.4256 32.4008 38.1063 33.7032 37.3849Z" fill="#7445B8"/>
<path d="M33.7032 37.3849C35.4911 36.3945 36.6879 34.9983 36.7683 32.9985C35.9181 33.9583 34.725 34.1303 34.725 34.1303C35.6591 32.6352 36.5094 31.6754 36.1629 29.4232C35.2288 30.9183 34.291 30.9489 33.3533 30.9794C33.6927 30.3026 34.2875 29.4843 34.2 28.5551C33.1783 29.1211 31.3734 29.8764 30.3518 30.4423C29.0746 31.1497 28.3851 33.487 29.2424 35.4563C30.0997 37.4256 32.4008 38.1063 33.7032 37.3849Z" fill="white" fill-opacity="0.8"/>
<path d="M32.5053 36.5434C33.6345 35.9179 34.3836 35.0205 34.4164 33.716C33.8839 34.3326 33.1258 34.4309 33.1258 34.4309C33.7068 33.4658 34.2393 32.8493 33.9979 31.375C33.4169 32.34 32.8202 32.349 32.2234 32.3579C32.4333 31.9201 32.8044 31.3929 32.7401 30.7853C32.0949 31.1427 30.9527 31.6146 30.3074 31.972C29.5008 32.4188 29.0834 33.9364 29.6474 35.232C30.2114 36.5276 31.6827 36.999 32.5053 36.5434Z" fill="#FAA21E"/>
<path d="M32.5053 36.5434C33.6345 35.9179 34.3836 35.0205 34.4164 33.716C33.8839 34.3326 33.1258 34.4309 33.1258 34.4309C33.7068 33.4658 34.2393 32.8493 33.9979 31.375C33.4169 32.34 32.8202 32.349 32.2234 32.3579C32.4333 31.9201 32.8044 31.3929 32.7401 30.7853C32.0949 31.1427 30.9527 31.6146 30.3074 31.972C29.5008 32.4188 29.0834 33.9364 29.6474 35.232C30.2114 36.5276 31.6827 36.999 32.5053 36.5434Z" fill="white" fill-opacity="0.95"/>
<path d="M33.7718 18.2603C35.4706 19.1451 36.6473 21.3784 35.603 24.0752C34.5586 26.772 31.6272 27.2479 30.0726 26.0559C27.7989 24.3125 27.1848 20.5009 25.7471 18.9419C27.707 19.1525 30.9809 16.8067 33.7718 18.2603Z" fill="#7445B8"/>
<path d="M33.7718 18.2603C35.4706 19.1451 36.6473 21.3784 35.603 24.0752C34.5586 26.772 31.6272 27.2479 30.0726 26.0559C27.7989 24.3125 27.1848 20.5009 25.7471 18.9419C27.707 19.1525 30.9809 16.8067 33.7718 18.2603Z" fill="white" fill-opacity="0.6"/>
<path d="M29.2965 21.1244C29.0043 20.4558 28.8735 19.5862 28.1623 19.9566C27.4512 20.3271 27.8105 21.4282 28.1025 22.0969C28.4718 22.9427 29.1402 23.9013 29.8508 23.5316C30.798 23.0387 29.5886 21.7929 29.2965 21.1244Z" fill="#FEFEFE"/>
<path d="M30.7801 23.6408C30.4577 23.7708 30.0371 24.1497 30.1628 24.5174C30.2882 24.8855 30.7023 25.3463 30.9601 25.2421C31.2825 25.1117 31.7547 24.8857 31.5774 24.3655C31.452 23.9974 31.008 23.5489 30.7801 23.6408Z" fill="#FEFEFE"/>
<path d="M34.9236 23.7446C34.3727 25.1672 32.6286 25.5003 31.8255 25.489C32.2881 25.2212 33.3314 24.3806 33.8036 23.1612C34.2758 21.9418 34.2737 20.5569 34.2137 20.0168C34.6799 20.6666 35.4744 22.3219 34.9236 23.7446Z" fill="#FEFEFE" fill-opacity="0.15"/>
<path d="M34.9236 23.7446C34.3727 25.1672 32.6286 25.5003 31.8255 25.489C32.2881 25.2212 33.3314 24.3806 33.8036 23.1612C34.2758 21.9418 34.2737 20.5569 34.2137 20.0168C34.6799 20.6666 35.4744 22.3219 34.9236 23.7446Z" fill="#FEFEFE" fill-opacity="0.15"/>
<path d="M34.9236 23.7446C34.3727 25.1672 32.6286 25.5003 31.8255 25.489C32.2881 25.2212 33.3314 24.3806 33.8036 23.1612C34.2758 21.9418 34.2737 20.5569 34.2137 20.0168C34.6799 20.6666 35.4744 22.3219 34.9236 23.7446Z" fill="#FEFEFE" fill-opacity="0.15"/>
<path d="M27.6249 26.297C26.8814 22.7742 24.2877 21.0703 22.8134 20.5588C21.7103 22.3308 20.0818 25.2007 21.0482 28.7302C22.0146 32.2597 24.2207 34.0518 27.0888 34.7808C26.7737 32.2378 28.2656 29.3332 27.6249 26.297Z" fill="#FAA21E"/>
<path d="M27.6249 26.297C26.8814 22.7742 24.2877 21.0703 22.8134 20.5588C21.7103 22.3308 20.0818 25.2007 21.0482 28.7302C22.0146 32.2597 24.2207 34.0518 27.0888 34.7808C26.7737 32.2378 28.2656 29.3332 27.6249 26.297Z" fill="white" fill-opacity="0.95"/>
<path fill-rule="evenodd" clip-rule="evenodd" d="M24.4479 29.8025C24.3033 29.2873 24.2039 28.3652 24.1634 27.7591C24.6215 27.7504 25.2693 27.7985 25.941 27.9831C26.5749 28.1573 27.2151 28.4488 27.7391 28.9142C27.669 29.6834 27.5315 30.439 27.3972 31.1769C27.3704 31.3245 27.3436 31.4714 27.3176 31.6176C27.0002 31.4249 26.6321 31.307 26.2834 31.2352C25.7986 31.1353 25.3103 31.1163 24.9534 31.132C24.7472 30.6966 24.5842 30.2881 24.4479 29.8025ZM27.2141 32.2259C26.9513 32.0189 26.5839 31.8793 26.1782 31.7957C25.8509 31.7282 25.5195 31.7015 25.239 31.698C25.7825 32.7112 26.463 33.6587 27.0537 34.3793C27.0169 33.6853 27.0959 32.966 27.2141 32.2259ZM26.5493 34.6285C25.9372 33.8677 25.2486 32.8883 24.7047 31.844C24.5486 32.0039 24.3915 32.2483 24.2631 32.5441C24.1404 32.8267 24.0597 33.1202 24.0297 33.3733C24.7783 33.9303 25.6252 34.3404 26.5493 34.6285ZM23.5603 32.9932C22.8688 32.3841 22.2762 31.6289 21.8024 30.7041C21.8178 30.623 21.8392 30.5362 21.867 30.4442C21.97 30.1028 22.1502 29.7241 22.3798 29.3552C22.7484 28.7631 23.217 28.2385 23.6461 27.9398C23.6928 28.5632 23.7924 29.44 23.9424 29.9743C24.0828 30.4745 24.2492 30.8973 24.4517 31.331C24.1746 31.5686 23.9458 31.9377 23.7854 32.3072C23.6911 32.5246 23.6128 32.7596 23.5603 32.9932ZM21.4684 29.9753C21.5899 29.6629 21.7538 29.3444 21.9428 29.0409C22.3893 28.3235 23.0101 27.6355 23.609 27.3092C23.552 26.3244 23.4652 25.1816 23.3024 24.1218C22.6321 24.4288 21.9926 24.9578 21.4784 25.5605C21.1844 25.905 20.9388 26.2647 20.7539 26.6096C20.7579 27.285 20.8465 27.9933 21.0483 28.7302C21.1693 29.172 21.3097 29.5866 21.4684 29.9753ZM20.821 25.5148C20.9073 25.4001 20.9979 25.287 21.0922 25.1766C21.6693 24.5002 22.4088 23.8899 23.2065 23.5505C23.0256 22.5294 22.8249 21.5698 22.6532 20.8186C21.9338 21.9958 21.0658 23.5973 20.821 25.5148ZM23.1711 20.6978C23.3411 21.4431 23.538 22.3851 23.7167 23.3882C24.2065 23.2797 24.8805 23.2196 25.5844 23.327C25.8931 23.3741 26.2104 23.4539 26.5218 23.5777C25.5342 22.0409 24.1811 21.1308 23.1711 20.6978ZM27.0261 24.4923C26.5601 24.1535 26.0284 23.9719 25.5042 23.8919C24.8624 23.794 24.247 23.8511 23.812 23.948C23.9823 25.0301 24.0729 26.1937 24.1315 27.1892C24.634 27.1771 25.3416 27.2279 26.0772 27.4301C26.6489 27.5872 27.2481 27.8387 27.7817 28.2322C27.8018 27.5947 27.7625 26.9489 27.625 26.297C27.4846 25.632 27.2784 25.0318 27.0261 24.4923Z" fill="#7445B8"/>
<path fill-rule="evenodd" clip-rule="evenodd" d="M24.4479 29.8025C24.3033 29.2873 24.2039 28.3652 24.1634 27.7591C24.6215 27.7504 25.2693 27.7985 25.941 27.9831C26.5749 28.1573 27.2151 28.4488 27.7391 28.9142C27.669 29.6834 27.5315 30.439 27.3972 31.1769C27.3704 31.3245 27.3436 31.4714 27.3176 31.6176C27.0002 31.4249 26.6321 31.307 26.2834 31.2352C25.7986 31.1353 25.3103 31.1163 24.9534 31.132C24.7472 30.6966 24.5842 30.2881 24.4479 29.8025ZM27.2141 32.2259C26.9513 32.0189 26.5839 31.8793 26.1782 31.7957C25.8509 31.7282 25.5195 31.7015 25.239 31.698C25.7825 32.7112 26.463 33.6587 27.0537 34.3793C27.0169 33.6853 27.0959 32.966 27.2141 32.2259ZM26.5493 34.6285C25.9372 33.8677 25.2486 32.8883 24.7047 31.844C24.5486 32.0039 24.3915 32.2483 24.2631 32.5441C24.1404 32.8267 24.0597 33.1202 24.0297 33.3733C24.7783 33.9303 25.6252 34.3404 26.5493 34.6285ZM23.5603 32.9932C22.8688 32.3841 22.2762 31.6289 21.8024 30.7041C21.8178 30.623 21.8392 30.5362 21.867 30.4442C21.97 30.1028 22.1502 29.7241 22.3798 29.3552C22.7484 28.7631 23.217 28.2385 23.6461 27.9398C23.6928 28.5632 23.7924 29.44 23.9424 29.9743C24.0828 30.4745 24.2492 30.8973 24.4517 31.331C24.1746 31.5686 23.9458 31.9377 23.7854 32.3072C23.6911 32.5246 23.6128 32.7596 23.5603 32.9932ZM21.4684 29.9753C21.5899 29.6629 21.7538 29.3444 21.9428 29.0409C22.3893 28.3235 23.0101 27.6355 23.609 27.3092C23.552 26.3244 23.4652 25.1816 23.3024 24.1218C22.6321 24.4288 21.9926 24.9578 21.4784 25.5605C21.1844 25.905 20.9388 26.2647 20.7539 26.6096C20.7579 27.285 20.8465 27.9933 21.0483 28.7302C21.1693 29.172 21.3097 29.5866 21.4684 29.9753ZM20.821 25.5148C20.9073 25.4001 20.9979 25.287 21.0922 25.1766C21.6693 24.5002 22.4088 23.8899 23.2065 23.5505C23.0256 22.5294 22.8249 21.5698 22.6532 20.8186C21.9338 21.9958 21.0658 23.5973 20.821 25.5148ZM23.1711 20.6978C23.3411 21.4431 23.538 22.3851 23.7167 23.3882C24.2065 23.2797 24.8805 23.2196 25.5844 23.327C25.8931 23.3741 26.2104 23.4539 26.5218 23.5777C25.5342 22.0409 24.1811 21.1308 23.1711 20.6978ZM27.0261 24.4923C26.5601 24.1535 26.0284 23.9719 25.5042 23.8919C24.8624 23.794 24.247 23.8511 23.812 23.948C23.9823 25.0301 24.0729 26.1937 24.1315 27.1892C24.634 27.1771 25.3416 27.2279 26.0772 27.4301C26.6489 27.5872 27.2481 27.8387 27.7817 28.2322C27.8018 27.5947 27.7625 26.9489 27.625 26.297C27.4846 25.632 27.2784 25.0318 27.0261 24.4923Z" fill="white" fill-opacity="0.6"/>
</svg>
