<svg width="50" height="50" viewBox="0 0 50 50" fill="none" xmlns="http://www.w3.org/2000/svg">
<path d="M9.73684 2H40V5L41 7H45V48H11.3158C10.7895 48 8.15789 48 6.57895 46.4318C5 44.8636 5 43.2955 5 42.7727V6.70455C5 5.65909 5.73684 4.40455 6.57895 3.56818C7.42105 2.73182 8.68421 2 9.73684 2Z" fill="#FAA21E"/>
<path d="M9.73684 2H40V5L41 7H45V48H11.3158C10.7895 48 8.15789 48 6.57895 46.4318C5 44.8636 5 43.2955 5 42.7727V6.70455C5 5.65909 5.73684 4.40455 6.57895 3.56818C7.42105 2.73182 8.68421 2 9.73684 2Z" fill="black" fill-opacity="0.1"/>
<path d="M43 9.1L40 5V40H38L43 46V9.1Z" fill="#898989"/>
<path d="M43 9.1L40 5V40H38L43 46V9.1Z" fill="white" fill-opacity="0.2"/>
<path d="M10.1304 40H38L43 46H10.1304C9.62415 46 7 45.25 7 43C7 40.75 9.62415 40 10.1304 40Z" fill="#898989"/>
<path d="M10.1304 40H38L43 46H10.1304C9.62415 46 7 45.25 7 43C7 40.75 9.62415 40 10.1304 40Z" fill="white" fill-opacity="0.6"/>
<path d="M22.2462 23.8679C19.9752 22.6828 17.4675 22.2798 16.2729 22.2798C15.7967 23.6692 15.4764 25.4561 15.0782 27.8383C14.8112 29.4359 14.68 32.7352 14.68 34.191C15.211 34.588 17.3083 35.5409 21.4498 36.1762C25.5913 36.8114 30.6089 35.6468 32.6 34.985C31.8035 33.2645 30.2903 29.5059 29.016 28.2354C27.4231 26.6472 25.2892 25.4559 22.2462 23.8679Z" fill="#FEFEFE"/>
<path d="M27.6737 15.5265L28.8597 9.47998C31.1 11.1176 35.8968 14.8462 37.1619 16.6602C38.427 18.4741 38.4367 20.9431 38.305 21.9508C35.4903 20.8171 33.7104 19.7212 32.7615 19.1166C31.8127 18.5119 28.5961 16.2823 27.6737 15.5265Z" fill="#FEFEFE"/>
<path d="M30.0457 26.1078C31.6271 27.0148 33.8229 28.5642 35.5333 29.32C36.6419 28.7531 37.1963 27.6194 37.7506 26.4857C38.2733 25.4168 38.305 24.2183 38.305 23.6514C36.46 22.8956 33.3159 21.384 30.8364 19.6834C29.3306 18.6506 27.0147 17.0381 26.0923 16.2823C24.0307 16.6602 22.6132 17.1892 21.3481 17.7939C20.083 18.3985 18.3487 19.6834 17.24 20.8171C17.5036 20.8171 18.2645 20.8927 20.1621 21.195C22.5342 21.5729 28.069 24.9741 30.0457 26.1078Z" fill="#FEFEFE"/>
<path d="M11.8905 22.0292L8.21974 20.6937L10.731 17.7019L10.5269 19.413L17.9452 17.4252L18.2765 18.6616L10.8582 20.6494L11.8905 22.0292Z" fill="#FEFEFE"/>
<path d="M20.0873 15.7796L21.3237 16.1109L22.6488 11.1654L23.9074 10.1775L24.9013 6.46829L22.9417 7.59967L21.8103 5.64007L20.8165 9.34923L21.4125 10.8341L20.0873 15.7796Z" fill="#FEFEFE"/>
</svg>
