<svg width="50" height="50" viewBox="0 0 50 50" fill="none" xmlns="http://www.w3.org/2000/svg">
<path d="M9.70074 1.99249H39.8518V4.98138L40.8481 6.97397H44.8333V47.8221H11.2738C10.7495 47.8221 8.12764 47.8221 6.55454 46.2597C4.98145 44.6974 4.98145 43.135 4.98145 42.6142V6.67961C4.98145 5.63803 5.71556 4.38813 6.55454 3.55487C7.39353 2.7216 8.65201 1.99249 9.70074 1.99249Z" fill="#7445B8"/>
<path d="M42.8407 9.0662L39.8518 4.98138V39.8518H37.8593L42.8407 45.8295V9.0662Z" fill="#898989"/>
<path d="M42.8407 9.0662L39.8518 4.98138V39.8518H37.8593L42.8407 45.8295V9.0662Z" fill="white" fill-opacity="0.2"/>
<path d="M10.093 39.8517H37.8593L42.8408 45.8295H10.093C9.58856 45.8295 6.97412 45.0823 6.97412 42.8406C6.97412 40.599 9.58856 39.8517 10.093 39.8517Z" fill="#898989"/>
<path d="M10.093 39.8517H37.8593L42.8408 45.8295H10.093C9.58856 45.8295 6.97412 45.0823 6.97412 42.8406C6.97412 40.599 9.58856 39.8517 10.093 39.8517Z" fill="white" fill-opacity="0.6"/>
<path d="M18.9823 19.12L22.6563 15.28M18.2474 18.6578L18.9823 13.5141M17.5126 18.6578L16.7778 12.0444M17.1452 18.6578L13.4711 14.6163M16.7778 19.3926L13.1037 17.923M16.7778 20.1274L10.8993 20.4948M16.7778 20.8622L12.3689 23.0667M17.1452 21.2296L14.5734 26.0059M19.3497 19.76L23.7586 18.6578M19.3497 20.4948L25.2282 21.597M18.9823 21.2296L22.6563 23.8015M18.6148 21.597L20.4519 26.3733M17.88 21.597L17.1452 27.843" stroke="#898989" stroke-width="0.734815"/>
<path d="M18.9823 19.12L22.6563 15.28M18.2474 18.6578L18.9823 13.5141M17.5126 18.6578L16.7778 12.0444M17.1452 18.6578L13.4711 14.6163M16.7778 19.3926L13.1037 17.923M16.7778 20.1274L10.8993 20.4948M16.7778 20.8622L12.3689 23.0667M17.1452 21.2296L14.5734 26.0059M19.3497 19.76L23.7586 18.6578M19.3497 20.4948L25.2282 21.597M18.9823 21.2296L22.6563 23.8015M18.6148 21.597L20.4519 26.3733M17.88 21.597L17.1452 27.843" stroke="white" stroke-opacity="0.95" stroke-width="0.734815"/>
<circle cx="17.88" cy="20.1274" r="2.20444" fill="#898989"/>
<circle cx="17.88" cy="20.1274" r="2.20444" fill="white" fill-opacity="0.95"/>
<circle cx="16.4103" cy="11.3097" r="1.46963" fill="#898989"/>
<circle cx="16.4103" cy="11.3097" r="1.46963" fill="white" fill-opacity="0.95"/>
<circle cx="19.3496" cy="12.7793" r="1.46963" fill="#898989"/>
<circle cx="19.3496" cy="12.7793" r="1.46963" fill="white" fill-opacity="0.95"/>
<circle cx="23.1896" cy="14.5096" r="1.46963" fill="#898989"/>
<circle cx="23.1896" cy="14.5096" r="1.46963" fill="white" fill-opacity="0.95"/>
<circle cx="24.4933" cy="18.6578" r="1.46963" fill="#898989"/>
<circle cx="24.4933" cy="18.6578" r="1.46963" fill="white" fill-opacity="0.95"/>
<circle cx="12.7362" cy="13.5141" r="1.46963" fill="#898989"/>
<circle cx="12.7362" cy="13.5141" r="1.46963" fill="white" fill-opacity="0.95"/>
<circle cx="12.0015" cy="17.1881" r="1.46963" fill="#898989"/>
<circle cx="12.0015" cy="17.1881" r="1.46963" fill="white" fill-opacity="0.95"/>
<circle cx="9.79702" cy="20.1274" r="1.46963" fill="#898989"/>
<circle cx="9.79702" cy="20.1274" r="1.46963" fill="white" fill-opacity="0.95"/>
<circle cx="11.2666" cy="23.8015" r="1.46963" fill="#898989"/>
<circle cx="11.2666" cy="23.8015" r="1.46963" fill="white" fill-opacity="0.95"/>
<circle cx="13.4711" cy="26.7407" r="1.46963" fill="#898989"/>
<circle cx="13.4711" cy="26.7407" r="1.46963" fill="white" fill-opacity="0.95"/>
<circle cx="17.1452" cy="28.2104" r="1.46963" fill="#898989"/>
<circle cx="17.1452" cy="28.2104" r="1.46963" fill="white" fill-opacity="0.95"/>
<circle cx="20.8192" cy="27.4755" r="1.46963" fill="#898989"/>
<circle cx="20.8192" cy="27.4755" r="1.46963" fill="white" fill-opacity="0.95"/>
<circle cx="23.7586" cy="24.5363" r="1.46963" fill="#898989"/>
<circle cx="23.7586" cy="24.5363" r="1.46963" fill="white" fill-opacity="0.95"/>
<circle cx="25.963" cy="21.5971" r="1.46963" fill="#898989"/>
<circle cx="25.963" cy="21.5971" r="1.46963" fill="white" fill-opacity="0.95"/>
<path d="M30.9873 31.5868L35.1627 29.7686M30.8125 30.9343L32.5555 28.4181M30.3775 31.0509L29.2274 27.6289M30.0443 31.41L27.6099 29.7433M30.9447 32.2976L32.8927 34.6223M30.5679 32.6317L30.3593 36.295M29.9401 32.5668L27.925 34.6282M29.6823 31.9365L25.868 32.4923M31.5291 32.006L34.0241 32.6627" stroke="#898989" stroke-width="0.45037"/>
<path d="M30.9873 31.5868L35.1627 29.7686M30.8125 30.9343L32.5555 28.4181M30.3775 31.0509L29.2274 27.6289M30.0443 31.41L27.6099 29.7433M30.9447 32.2976L32.8927 34.6223M30.5679 32.6317L30.3593 36.295M29.9401 32.5668L27.925 34.6282M29.6823 31.9365L25.868 32.4923M31.5291 32.006L34.0241 32.6627" stroke="white" stroke-opacity="0.95" stroke-width="0.45037"/>
<circle cx="30.5523" cy="31.7034" r="1.35111" transform="rotate(75 30.5523 31.7034)" fill="#898989"/>
<circle cx="30.5523" cy="31.7034" r="1.35111" transform="rotate(75 30.5523 31.7034)" fill="white" fill-opacity="0.95"/>
<circle cx="35.0317" cy="30.0123" r="0.900741" transform="rotate(75 35.0317 30.0123)" fill="#898989"/>
<circle cx="35.0317" cy="30.0123" r="0.900741" transform="rotate(75 35.0317 30.0123)" fill="white" fill-opacity="0.95"/>
<circle cx="34.4579" cy="32.8164" r="0.900741" transform="rotate(75 34.4579 32.8164)" fill="#898989"/>
<circle cx="34.4579" cy="32.8164" r="0.900741" transform="rotate(75 34.4579 32.8164)" fill="white" fill-opacity="0.95"/>
<circle cx="32.9346" cy="34.5497" r="0.900741" transform="rotate(75 32.9346 34.5497)" fill="#898989"/>
<circle cx="32.9346" cy="34.5497" r="0.900741" transform="rotate(75 32.9346 34.5497)" fill="white" fill-opacity="0.95"/>
<circle cx="32.5146" cy="28.0365" r="0.900741" transform="rotate(75 32.5146 28.0365)" fill="#898989"/>
<circle cx="32.5146" cy="28.0365" r="0.900741" transform="rotate(75 32.5146 28.0365)" fill="white" fill-opacity="0.95"/>
<circle cx="29.0923" cy="27.6283" r="0.900741" transform="rotate(75 29.0923 27.6283)" fill="#898989"/>
<circle cx="29.0923" cy="27.6283" r="0.900741" transform="rotate(75 29.0923 27.6283)" fill="white" fill-opacity="0.95"/>
<circle cx="27.569" cy="29.3617" r="0.900741" transform="rotate(75 27.569 29.3617)" fill="#898989"/>
<circle cx="27.569" cy="29.3617" r="0.900741" transform="rotate(75 27.569 29.3617)" fill="white" fill-opacity="0.95"/>
<circle cx="26.377" cy="32.3313" r="0.900741" transform="rotate(75 26.377 32.3313)" fill="#898989"/>
<circle cx="26.377" cy="32.3313" r="0.900741" transform="rotate(75 26.377 32.3313)" fill="white" fill-opacity="0.95"/>
<circle cx="28.2759" cy="34.4728" r="0.900741" transform="rotate(75 28.2759 34.4728)" fill="#898989"/>
<circle cx="28.2759" cy="34.4728" r="0.900741" transform="rotate(75 28.2759 34.4728)" fill="white" fill-opacity="0.95"/>
<circle cx="30.6275" cy="35.8305" r="0.900741" transform="rotate(75 30.6275 35.8305)" fill="#898989"/>
<circle cx="30.6275" cy="35.8305" r="0.900741" transform="rotate(75 30.6275 35.8305)" fill="white" fill-opacity="0.95"/>
<path d="M33.2413 12.4811L35.0594 16.6565M33.8938 12.3063L36.4099 14.0492M33.7772 11.8712L37.4 11.12M33.4181 11.538L35.0848 9.10371M32.5305 12.4384L30.2058 14.3865M32.1964 12.0617L28.5331 11.8531M32.2613 11.4339L30.1999 9.41875M32.8916 11.176L32.3358 7.36177M32.8221 13.0229L32.1654 15.5179" stroke="#898989" stroke-width="0.45037"/>
<path d="M33.2413 12.4811L35.0594 16.6565M33.8938 12.3063L36.4099 14.0492M33.7772 11.8712L37.4 11.12M33.4181 11.538L35.0848 9.10371M32.5305 12.4384L30.2058 14.3865M32.1964 12.0617L28.5331 11.8531M32.2613 11.4339L30.1999 9.41875M32.8916 11.176L32.3358 7.36177M32.8221 13.0229L32.1654 15.5179" stroke="white" stroke-opacity="0.95" stroke-width="0.45037"/>
<circle cx="33.1247" cy="12.0461" r="1.35111" transform="rotate(165 33.1247 12.0461)" fill="#898989"/>
<circle cx="33.1247" cy="12.0461" r="1.35111" transform="rotate(165 33.1247 12.0461)" fill="white" fill-opacity="0.95"/>
<circle cx="34.9831" cy="16.0632" r="0.900741" transform="rotate(165 34.9831 16.0632)" fill="#898989"/>
<circle cx="34.9831" cy="16.0632" r="0.900741" transform="rotate(165 34.9831 16.0632)" fill="white" fill-opacity="0.95"/>
<circle cx="32.0117" cy="15.9517" r="0.900741" transform="rotate(165 32.0117 15.9517)" fill="#898989"/>
<circle cx="32.0117" cy="15.9517" r="0.900741" transform="rotate(165 32.0117 15.9517)" fill="white" fill-opacity="0.95"/>
<circle cx="29.8631" cy="14.7832" r="0.900741" transform="rotate(165 29.8631 14.7832)" fill="#898989"/>
<circle cx="29.8631" cy="14.7832" r="0.900741" transform="rotate(165 29.8631 14.7832)" fill="white" fill-opacity="0.95"/>
<circle cx="36.7917" cy="14.0083" r="0.900741" transform="rotate(165 36.7917 14.0083)" fill="#898989"/>
<circle cx="36.7917" cy="14.0083" r="0.900741" transform="rotate(165 36.7917 14.0083)" fill="white" fill-opacity="0.95"/>
<circle cx="36.9032" cy="10.9432" r="0.900741" transform="rotate(165 36.9032 10.9432)" fill="#898989"/>
<circle cx="36.9032" cy="10.9432" r="0.900741" transform="rotate(165 36.9032 10.9432)" fill="white" fill-opacity="0.95"/>
<circle cx="34.9831" cy="9.02318" r="0.900741" transform="rotate(165 34.9831 9.02318)" fill="#898989"/>
<circle cx="34.9831" cy="9.02318" r="0.900741" transform="rotate(165 34.9831 9.02318)" fill="white" fill-opacity="0.95"/>
<circle cx="32.4232" cy="7.74321" r="0.900741" transform="rotate(165 32.4232 7.74321)" fill="#898989"/>
<circle cx="32.4232" cy="7.74321" r="0.900741" transform="rotate(165 32.4232 7.74321)" fill="white" fill-opacity="0.95"/>
<circle cx="29.8631" cy="9.02318" r="0.900741" transform="rotate(165 29.8631 9.02318)" fill="#898989"/>
<circle cx="29.8631" cy="9.02318" r="0.900741" transform="rotate(165 29.8631 9.02318)" fill="white" fill-opacity="0.95"/>
<circle cx="28.9977" cy="11.5832" r="0.900741" transform="rotate(165 28.9977 11.5832)" fill="#898989"/>
<circle cx="28.9977" cy="11.5832" r="0.900741" transform="rotate(165 28.9977 11.5832)" fill="white" fill-opacity="0.95"/>
</svg>
