<?xml version="1.0" encoding="utf-8"?><svg fill="none" viewBox="0 0 50 50" xmlns="http://www.w3.org/2000/svg" width="50" height="50"><circle cx="25" cy="28" r="17.5" fill="#898989"/><circle cx="25" cy="28" r="17.5" fill="#000" fill-opacity=".2"/><circle cx="25" cy="28" r="17.5" stroke="#898989" stroke-width="5"/><circle cx="25" cy="28" r="17.5" stroke="#fff" stroke-opacity=".2" stroke-width="5"/><circle cx="25" cy="28" r="19" stroke="#898989" stroke-width="2"/><circle cx="25" cy="28" r="19" stroke="#fff" stroke-opacity=".6" stroke-width="2"/><circle cx="24.991" cy="11.972" r="2" fill="#080B16"/><path d="M27.016 4.343c.162.703.178 1.705-.039 2.82-.062.32-.139.624-.226.91.806.077 1.245.146 2.003.272.07-.26.133-.528.186-.8.258-1.324.264-2.616.026-3.65-.119-.516-.309-1.015-.6-1.424-.294-.415-.73-.783-1.32-.898-.59-.115-1.132.063-1.56.337-.424.27-.787.662-1.09 1.095-.609.87-1.088 2.07-1.345 3.394-.258 1.324-.264 2.616-.026 3.65.118.516.309 1.015.6 1.424.294.414.73.783 1.32.897.59.115 1.132-.063 1.56-.336.162-.104.315-.225.46-.36-.142-.831-.41-1.151-1.257-1.57a1.475 1.475 0 0 1-.279.244.466.466 0 0 1-.1.05.467.467 0 0 1-.075-.084c-.091-.13-.198-.36-.28-.713-.161-.703-.177-1.705.04-2.82.217-1.115.607-2.038 1.02-2.629.208-.297.394-.47.528-.556a.48.48 0 0 1 .1-.051c.016.014.042.04.074.085.092.13.2.36.28.713Z" fill="#898989"/><path d="M27.015 4.33c.161.707.177 1.713-.04 2.834-.063.324-.14.631-.228.92.32.022.5.04.823.08.532-1.792.515-3.527.124-4.206-.45-.783-.762-.568-1.034-.43.016.015.042.04.074.086.092.13.2.362.28.717Z" fill="#898989"/><path d="M27.015 4.33c.161.707.177 1.713-.04 2.834-.063.324-.14.631-.228.92.32.022.5.04.823.08.532-1.792.515-3.527.124-4.206-.45-.783-.762-.568-1.034-.43.016.015.042.04.074.086.092.13.2.362.28.717Z" fill="#000" fill-opacity=".4"/><path d="M25.426 10.364a.47.47 0 0 1-.1.05c.136.204.667.577 1.086.117-.277-.232-.672-.434-.708-.43 0 0-.2.213-.278.263Z" fill="#898989"/><path d="M25.426 10.364a.47.47 0 0 1-.1.05c.136.204.667.577 1.086.117-.277-.232-.672-.434-.708-.43 0 0-.2.213-.278.263Z" fill="#000" fill-opacity=".4"/><path fill-rule="evenodd" clip-rule="evenodd" d="M18.5 26c0-1.5.363-3.363 1-4 .5-.5 1.46-1 2.25-1 .75 0 2.5.5 3 1s.25 1.25-.5 1.5c-.324.108-.695.076-1.052.045-.47-.04-.914-.079-1.198.205-.395.395-.395 1.355 0 1.75.5.5.75.75 1.75 1.25a.942.942 0 0 0 .025.012l.023.02c.19.163.355.33.432.486.1.202.144.424.165.653.01.115.014.23.017.343l.002.074c.002.088.004.178.009.262a.25.25 0 0 0 .498-.027c-.005-.084-.007-.172-.01-.27v-.052a5.838 5.838 0 0 0-.02-.375 2.315 2.315 0 0 0-.216-.83 1.233 1.233 0 0 0-.042-.077c1.52.21 4.194.118 4.867-.219.5-.25 1-1 1.2-1.75.125-.469-.185-.477-.45-.25-.11.11-.192.289-.282.488-.115.253-.245.539-.468.762-.5.5-4.632.559-5.75 0-1-.5-1.75-1-1.5-1.75.083-.248.392-.188.805-.108.418.082.942.184 1.445.008.973-.34 1.5-1.65 1-2.4s-3-1.5-3.75-1.5c-.526 0-1.01.205-1.369.356a2.986 2.986 0 0 1-.381.144c.25-.667 1.2-2.25 2-2.25 1 0 2.75.25 4 .75S30 21 31 22c.855.855.796 2.804.761 3.977-.006.2-.011.378-.011.523 0 .686-.589 1.962-1.04 2.937-.205.445-.382.828-.46 1.063-.056.169-.125.362-.2.576-.262.736-.606 1.705-.8 2.674-.126.63-.16 1.559-.188 2.347-.016.462-.031.876-.062 1.153-.107.036-.22.077-.34.12-.721.263-1.731.63-3.66.63s-3.061-.245-3.87-.42c-.135-.029-.261-.056-.38-.08.333-1 1-3.25 1-4.25s-.167-1.75-.25-2c-.333-.417-1.15-1.5-1.75-2.5-.124-.206-.25-.402-.372-.592-.469-.728-.878-1.364-.878-2.158Z" fill="#898989"/><path fill-rule="evenodd" clip-rule="evenodd" d="M18.5 26c0-1.5.363-3.363 1-4 .5-.5 1.46-1 2.25-1 .75 0 2.5.5 3 1s.25 1.25-.5 1.5c-.324.108-.695.076-1.052.045-.47-.04-.914-.079-1.198.205-.395.395-.395 1.355 0 1.75.5.5.75.75 1.75 1.25a.942.942 0 0 0 .025.012l.023.02c.19.163.355.33.432.486.1.202.144.424.165.653.01.115.014.23.017.343l.002.074c.002.088.004.178.009.262a.25.25 0 0 0 .498-.027c-.005-.084-.007-.172-.01-.27v-.052a5.838 5.838 0 0 0-.02-.375 2.315 2.315 0 0 0-.216-.83 1.233 1.233 0 0 0-.042-.077c1.52.21 4.194.118 4.867-.219.5-.25 1-1 1.2-1.75.125-.469-.185-.477-.45-.25-.11.11-.192.289-.282.488-.115.253-.245.539-.468.762-.5.5-4.632.559-5.75 0-1-.5-1.75-1-1.5-1.75.083-.248.392-.188.805-.108.418.082.942.184 1.445.008.973-.34 1.5-1.65 1-2.4s-3-1.5-3.75-1.5c-.526 0-1.01.205-1.369.356a2.986 2.986 0 0 1-.381.144c.25-.667 1.2-2.25 2-2.25 1 0 2.75.25 4 .75S30 21 31 22c.855.855.796 2.804.761 3.977-.006.2-.011.378-.011.523 0 .686-.589 1.962-1.04 2.937-.205.445-.382.828-.46 1.063-.056.169-.125.362-.2.576-.262.736-.606 1.705-.8 2.674-.126.63-.16 1.559-.188 2.347-.016.462-.031.876-.062 1.153-.107.036-.22.077-.34.12-.721.263-1.731.63-3.66.63s-3.061-.245-3.87-.42c-.135-.029-.261-.056-.38-.08.333-1 1-3.25 1-4.25s-.167-1.75-.25-2c-.333-.417-1.15-1.5-1.75-2.5-.124-.206-.25-.402-.372-.592-.469-.728-.878-1.364-.878-2.158Z" fill="#fff" fill-opacity=".8"/></svg>