<?xml version="1.0" encoding="utf-8"?><svg fill="none" viewBox="0 0 50 50" xmlns="http://www.w3.org/2000/svg" width="50" height="50"><circle cx="25" cy="28" r="17.5" fill="#898989"/><circle cx="25" cy="28" r="17.5" fill="#000" fill-opacity=".2"/><circle cx="25" cy="28" r="17.5" stroke="#898989" stroke-width="5"/><circle cx="25" cy="28" r="17.5" stroke="#fff" stroke-opacity=".2" stroke-width="5"/><circle cx="25" cy="28" r="19" stroke="#898989" stroke-width="2"/><circle cx="25" cy="28" r="19" stroke="#fff" stroke-opacity=".6" stroke-width="2"/><circle cx="24.991" cy="11.972" r="2" fill="#080B16"/><path d="M27.016 4.343c.162.703.178 1.705-.039 2.82-.062.32-.139.624-.226.91.806.077 1.245.146 2.003.272.07-.26.133-.528.186-.8.258-1.324.264-2.616.026-3.65-.119-.516-.309-1.015-.6-1.424-.294-.415-.73-.783-1.32-.898-.59-.115-1.132.063-1.56.337-.424.27-.787.662-1.09 1.095-.609.87-1.088 2.07-1.345 3.394-.258 1.324-.264 2.616-.026 3.65.118.516.309 1.015.6 1.424.294.414.73.783 1.32.897.59.115 1.132-.063 1.56-.336.162-.104.315-.225.46-.36-.142-.831-.41-1.151-1.257-1.57a1.475 1.475 0 0 1-.279.244.466.466 0 0 1-.1.05.467.467 0 0 1-.075-.084c-.091-.13-.198-.36-.28-.713-.161-.703-.177-1.705.04-2.82.217-1.115.607-2.038 1.02-2.629.208-.297.394-.47.528-.556a.48.48 0 0 1 .1-.051c.016.014.042.04.074.085.092.13.2.36.28.713Z" fill="#898989"/><path d="M27.015 4.33c.161.707.177 1.713-.04 2.834-.063.324-.14.631-.228.92.32.022.5.04.823.08.532-1.792.515-3.527.124-4.206-.45-.783-.762-.568-1.034-.43.016.015.042.04.074.086.092.13.2.362.28.717Z" fill="#898989"/><path d="M27.015 4.33c.161.707.177 1.713-.04 2.834-.063.324-.14.631-.228.92.32.022.5.04.823.08.532-1.792.515-3.527.124-4.206-.45-.783-.762-.568-1.034-.43.016.015.042.04.074.086.092.13.2.362.28.717Z" fill="#000" fill-opacity=".4"/><path d="M25.426 10.364a.47.47 0 0 1-.1.05c.136.204.667.577 1.086.117-.277-.232-.672-.434-.708-.43 0 0-.2.213-.278.263Z" fill="#898989"/><path d="M25.426 10.364a.47.47 0 0 1-.1.05c.136.204.667.577 1.086.117-.277-.232-.672-.434-.708-.43 0 0-.2.213-.278.263Z" fill="#000" fill-opacity=".4"/><path d="M28.163 19.488c0-.785-2.013-.988-3.163-.988s-3.163.22-3.163.988c0 .423.432.564.576.705.047.47.057 1.636-.288 2.539-.431 1.128-1.378 1.476-2.012 1.974-.72.565-.863 1.693-.863 2.257v9.027c.144.423 1.238 1.252 2.587 1.693 1.294.423 4.6.423 6.038 0 1.306-.385 2.875-1.27 2.875-1.693v-9.027c0-.611 0-1.749-.863-2.257-.862-.507-1.58-1.128-2.012-1.974-.345-.677-.335-1.928-.288-2.54.288-.14.576-.352.576-.704Z" fill="#898989"/><path d="M28.163 19.488c0-.785-2.013-.988-3.163-.988s-3.163.22-3.163.988c0 .423.432.564.576.705.047.47.057 1.636-.288 2.539-.431 1.128-1.378 1.476-2.012 1.974-.72.565-.863 1.693-.863 2.257v9.027c.144.423 1.238 1.252 2.587 1.693 1.294.423 4.6.423 6.038 0 1.306-.385 2.875-1.27 2.875-1.693v-9.027c0-.611 0-1.749-.863-2.257-.862-.507-1.58-1.128-2.012-1.974-.345-.677-.335-1.928-.288-2.54.288-.14.576-.352.576-.704Z" fill="#fff" fill-opacity=".8"/><path d="M28.671 28.405c-.46.282-.855-.157-1.447-.014-.592.143-.79.337-.987.693-.207.373-.198 1.086.196 1.424.558.48 1.276.967 2.394 1.003 1.28.042 1.517-.686 1.923-1.003V28.75c-.076-.2-.073-.55-.335-.849-.329-.373-.888-.49-1.184-.269-.338.252-.208.558-.56.773Z" fill="#898989"/><path d="M28.671 28.405c-.46.282-.855-.157-1.447-.014-.592.143-.79.337-.987.693-.207.373-.198 1.086.196 1.424.558.48 1.276.967 2.394 1.003 1.28.042 1.517-.686 1.923-1.003V28.75c-.076-.2-.073-.55-.335-.849-.329-.373-.888-.49-1.184-.269-.338.252-.208.558-.56.773Z" fill="#fff" fill-opacity=".8"/><path d="M21.7 23.5c-.418.486-1.002.734-1.25 1 .303.442.633.475 1.148.462.825-.021.362.467 1.528 1.057 1.165.59 2.154-.003 2.395-.658.242-.654-.461-1.066-.744-1.196-.282-.13.002-.485-.045-.924-.048-.44-.131-.93-.732-1.24-.4-.208-1.213-.188-1.7 0-.154.598-.227 1.066-.6 1.5Z" fill="#898989"/><path d="M21.7 23.5c-.418.486-1.002.734-1.25 1 .303.442.633.475 1.148.462.825-.021.362.467 1.528 1.057 1.165.59 2.154-.003 2.395-.658.242-.654-.461-1.066-.744-1.196-.282-.13.002-.485-.045-.924-.048-.44-.131-.93-.732-1.24-.4-.208-1.213-.188-1.7 0-.154.598-.227 1.066-.6 1.5Z" fill="#fff" fill-opacity=".8"/><path d="M21 30.75c-.797-.14-1.75.396-1.75 1V36s.393.596 1 1c1.5 1 3.028 1 3.75 1 0-.5-.788-.568-.77-.91.018-.343.831-.2 1.483-.645.377-.258.763-1.237-.093-1.831-.924-.642-2.06-.121-2.195-.575-.136-.454.36-.54.388-1.273.035-.924-.388-1.766-1.813-2.016Z" fill="#898989"/><path d="M21 30.75c-.797-.14-1.75.396-1.75 1V36s.393.596 1 1c1.5 1 3.028 1 3.75 1 0-.5-.788-.568-.77-.91.018-.343.831-.2 1.483-.645.377-.258.763-1.237-.093-1.831-.924-.642-2.06-.121-2.195-.575-.136-.454.36-.54.388-1.273.035-.924-.388-1.766-1.813-2.016Z" fill="#fff" fill-opacity=".8"/><ellipse cx="25.024" cy="19.387" rx="2.523" ry=".639" transform="rotate(-.057 25.024 19.387)" fill="#898989"/><ellipse cx="25.024" cy="19.387" rx="2.523" ry=".639" transform="rotate(-.057 25.024 19.387)" fill="#fff" fill-opacity=".8"/></svg>