<?xml version="1.0" encoding="utf-8"?><svg fill="none" viewBox="0 0 50 50" xmlns="http://www.w3.org/2000/svg" width="50" height="50"><circle cx="25" cy="28" r="17.5" fill="#898989"/><circle cx="25" cy="28" r="17.5" fill="#000" fill-opacity=".2"/><circle cx="25" cy="28" r="17.5" stroke="#898989" stroke-width="5"/><circle cx="25" cy="28" r="17.5" stroke="#fff" stroke-opacity=".2" stroke-width="5"/><circle cx="25" cy="28" r="19" stroke="#898989" stroke-width="2"/><circle cx="25" cy="28" r="19" stroke="#fff" stroke-opacity=".6" stroke-width="2"/><circle cx="24.991" cy="11.972" r="2" fill="#080B16"/><path d="M27.016 4.343c.162.703.178 1.705-.039 2.82-.062.32-.139.624-.226.91.806.077 1.245.146 2.003.272.07-.26.133-.528.186-.8.258-1.324.264-2.616.026-3.65-.119-.516-.309-1.015-.6-1.424-.294-.415-.73-.783-1.32-.898-.59-.115-1.132.063-1.56.337-.424.27-.787.662-1.09 1.095-.609.87-1.088 2.07-1.345 3.394-.258 1.324-.264 2.616-.026 3.65.118.516.309 1.015.6 1.424.294.414.73.783 1.32.897.59.115 1.132-.063 1.56-.336.162-.104.315-.225.46-.36-.142-.831-.41-1.151-1.257-1.57a1.475 1.475 0 0 1-.279.244.466.466 0 0 1-.1.05.467.467 0 0 1-.075-.084c-.091-.13-.198-.36-.28-.713-.161-.703-.177-1.705.04-2.82.217-1.115.607-2.038 1.02-2.629.208-.297.394-.47.528-.556a.48.48 0 0 1 .1-.051c.016.014.042.04.074.085.092.13.2.36.28.713Z" fill="#898989"/><path d="M27.015 4.33c.161.707.177 1.713-.04 2.834-.063.324-.14.631-.228.92.32.022.5.04.823.08.532-1.792.515-3.527.124-4.206-.45-.783-.762-.568-1.034-.43.016.015.042.04.074.086.092.13.2.362.28.717Z" fill="#898989"/><path d="M27.015 4.33c.161.707.177 1.713-.04 2.834-.063.324-.14.631-.228.92.32.022.5.04.823.08.532-1.792.515-3.527.124-4.206-.45-.783-.762-.568-1.034-.43.016.015.042.04.074.086.092.13.2.362.28.717Z" fill="#000" fill-opacity=".4"/><path d="M25.426 10.364a.47.47 0 0 1-.1.05c.136.204.667.577 1.086.117-.277-.232-.672-.434-.708-.43 0 0-.2.213-.278.263Z" fill="#898989"/><path d="M25.426 10.364a.47.47 0 0 1-.1.05c.136.204.667.577 1.086.117-.277-.232-.672-.434-.708-.43 0 0-.2.213-.278.263Z" fill="#000" fill-opacity=".4"/><path d="m21.087 32.703-.29-1.45L15 34l5.507-.717.58-.58Z" fill="#898989"/><path d="m21.087 32.703-.29-1.45L15 34l5.507-.717.58-.58Z" fill="#fff" fill-opacity=".8"/><path d="m24.93 34.065-.945-2.232 4.44-1.262 2.223 1.27L35 38.001l-10.07-3.936Z" fill="#898989"/><path d="m24.93 34.065-.945-2.232 4.44-1.262 2.223 1.27L35 38.001l-10.07-3.936Z" fill="#fff" fill-opacity=".8"/><path d="m28.333 30.094-2.029-1.739 3.391-9.855-1.362 11.594Z" fill="#898989"/><path d="m28.333 30.094-2.029-1.739 3.391-9.855-1.362 11.594Z" fill="#fff" fill-opacity=".8"/><path d="m23.977 31.206.878-3.43 2.934 2.477-3.812.953Z" fill="#898989"/><path d="m23.977 31.206.878-3.43 2.934 2.477-3.812.953Z" fill="#fff" fill-opacity=".8"/><path d="m22.826 36.181.87-3.768.87 2.03 1.449.579-3.189 1.16Z" fill="#898989"/><path d="m22.826 36.181.87-3.768.87 2.03 1.449.579-3.189 1.16Z" fill="#fff" fill-opacity=".8"/><path d="m20.507 21.978-1.449-.87 3.188 15.073 1.096-4.34.643-2.616-3.478-7.247Z" fill="#898989"/><path d="m20.507 21.978-1.449-.87 3.188 15.073 1.096-4.34.643-2.616-3.478-7.247Z" fill="#fff" fill-opacity=".8"/><path d="m19.03 23.233-.397-2.124-3.053 4.058 3.45-1.934Z" fill="#898989"/><path d="m19.03 23.233-.397-2.124-3.053 4.058 3.45-1.934Z" fill="#fff" fill-opacity=".8"/></svg>