<?xml version="1.0" encoding="utf-8"?><svg fill="none" viewBox="0 0 50 50" xmlns="http://www.w3.org/2000/svg" width="50" height="50"><circle cx="25" cy="28" r="17.5" fill="#898989"/><circle cx="25" cy="28" r="17.5" fill="#000" fill-opacity=".2"/><circle cx="25" cy="28" r="17.5" stroke="#898989" stroke-width="5"/><circle cx="25" cy="28" r="17.5" stroke="#fff" stroke-opacity=".2" stroke-width="5"/><circle cx="25" cy="28" r="19" stroke="#898989" stroke-width="2"/><circle cx="25" cy="28" r="19" stroke="#fff" stroke-opacity=".6" stroke-width="2"/><circle cx="24.991" cy="11.972" r="2" fill="#080B16"/><path d="M27.016 4.343c.162.703.178 1.705-.039 2.82-.062.32-.139.624-.226.91.806.077 1.245.146 2.003.272.07-.26.133-.528.186-.8.258-1.324.264-2.616.026-3.65-.119-.516-.309-1.015-.6-1.424-.294-.415-.73-.783-1.32-.898-.59-.115-1.132.063-1.56.337-.424.27-.787.662-1.09 1.095-.609.87-1.088 2.07-1.345 3.394-.258 1.324-.264 2.616-.026 3.65.118.516.309 1.015.6 1.424.294.414.73.783 1.32.897.59.115 1.132-.063 1.56-.336.162-.104.315-.225.46-.36-.142-.831-.41-1.151-1.257-1.57a1.475 1.475 0 0 1-.279.244.466.466 0 0 1-.1.05.467.467 0 0 1-.075-.084c-.091-.13-.198-.36-.28-.713-.161-.703-.177-1.705.04-2.82.217-1.115.607-2.038 1.02-2.629.208-.297.394-.47.528-.556a.48.48 0 0 1 .1-.051c.016.014.042.04.074.085.092.13.2.36.28.713Z" fill="#898989"/><path d="M27.015 4.33c.161.707.177 1.713-.04 2.834-.063.324-.14.631-.228.92.32.022.5.04.823.08.532-1.792.515-3.527.124-4.206-.45-.783-.762-.568-1.034-.43.016.015.042.04.074.086.092.13.2.362.28.717Z" fill="#898989"/><path d="M27.015 4.33c.161.707.177 1.713-.04 2.834-.063.324-.14.631-.228.92.32.022.5.04.823.08.532-1.792.515-3.527.124-4.206-.45-.783-.762-.568-1.034-.43.016.015.042.04.074.086.092.13.2.362.28.717Z" fill="#000" fill-opacity=".4"/><path d="M25.426 10.364a.47.47 0 0 1-.1.05c.136.204.667.577 1.086.117-.277-.232-.672-.434-.708-.43 0 0-.2.213-.278.263Z" fill="#898989"/><path d="M25.426 10.364a.47.47 0 0 1-.1.05c.136.204.667.577 1.086.117-.277-.232-.672-.434-.708-.43 0 0-.2.213-.278.263Z" fill="#000" fill-opacity=".4"/><path d="M16 20.801c.226-.226.905-.307 1.223-.307 1.358 0 4.345.181 5.432.905 1.358.906 8.284 7.325 9.054 9.055.536 1.204.453 3.848.453 4.98 0 .307 0 .844-.317 1.212" stroke="#898989" stroke-width="1.494"/><path d="M16 20.801c.226-.226.905-.307 1.223-.307 1.358 0 4.345.181 5.432.905 1.358.906 8.284 7.325 9.054 9.055.536 1.204.453 3.848.453 4.98 0 .307 0 .844-.317 1.212" stroke="#fff" stroke-opacity=".8" stroke-width="1.494"/><path d="M20.719 31.782 32.5 20" stroke="#898989" stroke-width=".996" stroke-linecap="round"/><path d="M20.719 31.782 32.5 20" stroke="#fff" stroke-opacity=".8" stroke-width=".996" stroke-linecap="round"/><path d="m32.5 24-4.25-4.25 6-1.5L32.5 24Z" fill="#898989"/><path d="m32.5 24-4.25-4.25 6-1.5L32.5 24Z" fill="#fff" fill-opacity=".8"/><path d="M19 30h3.5v3.5L19 37v-3.5h-3.5L19 30Z" fill="#898989"/><path d="M19 30h3.5v3.5L19 37v-3.5h-3.5L19 30Z" fill="#fff" fill-opacity=".8"/><path d="M19 30h3.5v3.5L19 37v-3.5h-3.5L19 30Z" stroke="#898989" stroke-width=".498"/><path d="M19 30h3.5v3.5L19 37v-3.5h-3.5L19 30Z" stroke="#fff" stroke-opacity=".8" stroke-width=".498"/><path d="m16.905 20.669 14.94 14.94" stroke="#898989" stroke-width=".498"/><path d="m16.905 20.669 14.94 14.94" stroke="#fff" stroke-opacity=".8" stroke-width=".498"/></svg>