<?xml version="1.0" encoding="utf-8"?><svg fill="none" viewBox="0 0 50 50" xmlns="http://www.w3.org/2000/svg" width="50" height="50"><circle cx="25" cy="28" r="17.5" fill="#898989"/><circle cx="25" cy="28" r="17.5" fill="#000" fill-opacity=".2"/><circle cx="25" cy="28" r="17.5" stroke="#898989" stroke-width="5"/><circle cx="25" cy="28" r="17.5" stroke="#fff" stroke-opacity=".2" stroke-width="5"/><circle cx="25" cy="28" r="19" stroke="#898989" stroke-width="2"/><circle cx="25" cy="28" r="19" stroke="#fff" stroke-opacity=".6" stroke-width="2"/><circle cx="24.991" cy="11.972" r="2" fill="#080B16"/><path d="M27.016 4.343c.162.703.178 1.705-.039 2.82-.062.32-.139.624-.226.91.806.077 1.245.146 2.003.272.07-.26.133-.528.186-.8.258-1.324.264-2.616.026-3.65-.119-.516-.309-1.015-.6-1.424-.294-.415-.73-.783-1.32-.898-.59-.115-1.132.063-1.56.337-.424.27-.787.662-1.09 1.095-.609.87-1.088 2.07-1.345 3.394-.258 1.324-.264 2.616-.026 3.65.118.516.309 1.015.6 1.424.294.414.73.783 1.32.897.59.115 1.132-.063 1.56-.336.162-.104.315-.225.46-.36-.142-.831-.41-1.151-1.257-1.57a1.475 1.475 0 0 1-.279.244.466.466 0 0 1-.1.05.467.467 0 0 1-.075-.084c-.091-.13-.198-.36-.28-.713-.161-.703-.177-1.705.04-2.82.217-1.115.607-2.038 1.02-2.629.208-.297.394-.47.528-.556a.48.48 0 0 1 .1-.051c.016.014.042.04.074.085.092.13.2.36.28.713Z" fill="#898989"/><path d="M27.015 4.33c.161.707.177 1.713-.04 2.834-.063.324-.14.631-.228.92.32.022.5.04.823.08.532-1.792.515-3.527.124-4.206-.45-.783-.762-.568-1.034-.43.016.015.042.04.074.086.092.13.2.362.28.717Z" fill="#898989"/><path d="M27.015 4.33c.161.707.177 1.713-.04 2.834-.063.324-.14.631-.228.92.32.022.5.04.823.08.532-1.792.515-3.527.124-4.206-.45-.783-.762-.568-1.034-.43.016.015.042.04.074.086.092.13.2.362.28.717Z" fill="#000" fill-opacity=".4"/><path d="M25.426 10.364a.47.47 0 0 1-.1.05c.136.204.667.577 1.086.117-.277-.232-.672-.434-.708-.43 0 0-.2.213-.278.263Z" fill="#898989"/><path d="M25.426 10.364a.47.47 0 0 1-.1.05c.136.204.667.577 1.086.117-.277-.232-.672-.434-.708-.43 0 0-.2.213-.278.263Z" fill="#000" fill-opacity=".4"/><path d="M28.83 32.858c.4-.152 1.194-1.775 1.335-1.997l-.388-.002s-.94 1.836-1.934 1.715c-.995-.12-.593-3.074-.593-3.074h-.448s.096 2.995 0 3.25c-.096.255-1.302.75-1.802.75-.338 0-1-.5-1-.5l1.25-3.14h-.5s-1.212 2.78-1.5 2.714c-.288-.065-1.156-2.444-1.156-2.444l-.671.124s1.444 2.35 1.077 2.496c-.158.063-1.25-.331-1.25-.331l-1-.87h-.5s.96 1.085 1.344 1.31c.384.223 1.926.717 2.156.891.44.334.5.5.442 1.377-.06.932-.06 1.289-.176 1.86L23.25 38h3.25s-.457-.777-.479-1.514c-.021-.736-.285-1.3.245-2.25.268-.48 1.545-.99 2.565-1.378Z" fill="#898989"/><path d="M28.83 32.858c.4-.152 1.194-1.775 1.335-1.997l-.388-.002s-.94 1.836-1.934 1.715c-.995-.12-.593-3.074-.593-3.074h-.448s.096 2.995 0 3.25c-.096.255-1.302.75-1.802.75-.338 0-1-.5-1-.5l1.25-3.14h-.5s-1.212 2.78-1.5 2.714c-.288-.065-1.156-2.444-1.156-2.444l-.671.124s1.444 2.35 1.077 2.496c-.158.063-1.25-.331-1.25-.331l-1-.87h-.5s.96 1.085 1.344 1.31c.384.223 1.926.717 2.156.891.44.334.5.5.442 1.377-.06.932-.06 1.289-.176 1.86L23.25 38h3.25s-.457-.777-.479-1.514c-.021-.736-.285-1.3.245-2.25.268-.48 1.545-.99 2.565-1.378Z" fill="#fff" fill-opacity=".8"/><circle cx="20.5" cy="27" r="5.5" fill="#898989"/><circle cx="20.5" cy="27" r="5.5" fill="#fff" fill-opacity=".8"/><circle cx="30.5" cy="28.5" r="4.5" fill="#898989"/><circle cx="30.5" cy="28.5" r="4.5" fill="#fff" fill-opacity=".8"/><circle cx="26" cy="24.5" r="6.5" fill="#898989"/><circle cx="26" cy="24.5" r="6.5" fill="#fff" fill-opacity=".8"/></svg>