<?xml version="1.0" encoding="utf-8"?><svg fill="none" viewBox="0 0 50 50" xmlns="http://www.w3.org/2000/svg" width="50" height="50"><circle cx="25" cy="28" r="17.5" fill="#898989"/><circle cx="25" cy="28" r="17.5" fill="#000" fill-opacity=".2"/><circle cx="25" cy="28" r="17.5" stroke="#898989" stroke-width="5"/><circle cx="25" cy="28" r="17.5" stroke="#fff" stroke-opacity=".2" stroke-width="5"/><circle cx="25" cy="28" r="19" stroke="#898989" stroke-width="2"/><circle cx="25" cy="28" r="19" stroke="#fff" stroke-opacity=".6" stroke-width="2"/><circle cx="24.991" cy="11.972" r="2" fill="#080B16"/><path d="M27.016 4.343c.162.703.178 1.705-.039 2.82-.062.32-.139.624-.226.91.806.077 1.245.146 2.003.272.07-.26.133-.528.186-.8.258-1.324.264-2.616.026-3.65-.119-.516-.309-1.015-.6-1.424-.294-.415-.73-.783-1.32-.898-.59-.115-1.132.063-1.56.337-.424.27-.787.662-1.09 1.095-.609.87-1.088 2.07-1.345 3.394-.258 1.324-.264 2.616-.026 3.65.118.516.309 1.015.6 1.424.294.414.73.783 1.32.897.59.115 1.132-.063 1.56-.336.162-.104.315-.225.46-.36-.142-.831-.41-1.151-1.257-1.57a1.475 1.475 0 0 1-.279.244.466.466 0 0 1-.1.05.467.467 0 0 1-.075-.084c-.091-.13-.198-.36-.28-.713-.161-.703-.177-1.705.04-2.82.217-1.115.607-2.038 1.02-2.629.208-.297.394-.47.528-.556a.48.48 0 0 1 .1-.051c.016.014.042.04.074.085.092.13.2.36.28.713Z" fill="#898989"/><path d="M27.015 4.33c.161.707.177 1.713-.04 2.834-.063.324-.14.631-.228.92.32.022.5.04.823.08.532-1.792.515-3.527.124-4.206-.45-.783-.762-.568-1.034-.43.016.015.042.04.074.086.092.13.2.362.28.717Z" fill="#898989"/><path d="M27.015 4.33c.161.707.177 1.713-.04 2.834-.063.324-.14.631-.228.92.32.022.5.04.823.08.532-1.792.515-3.527.124-4.206-.45-.783-.762-.568-1.034-.43.016.015.042.04.074.086.092.13.2.362.28.717Z" fill="#000" fill-opacity=".4"/><path d="M25.426 10.364a.47.47 0 0 1-.1.05c.136.204.667.577 1.086.117-.277-.232-.672-.434-.708-.43 0 0-.2.213-.278.263Z" fill="#898989"/><path d="M25.426 10.364a.47.47 0 0 1-.1.05c.136.204.667.577 1.086.117-.277-.232-.672-.434-.708-.43 0 0-.2.213-.278.263Z" fill="#000" fill-opacity=".4"/><path d="M15 27.542c0-2.325 1.818-3.505 2.338-3.505-.098.424-.107.68 0 1.194.083.403.173.685.26.77l.779-.256c-.285-.681-.368-1.803 0-2.568.494-1.026 1.039-1.797 2.857-1.797 1.922 0 2.312.514 2.857 1.027l.754-.424-.78-.77c.433-.171 1.688-.449 3.143.167 1.423.603 1.533 1.373 2.052 2.143l.545-.346-.52-1.026c.347.042 1.193 0 2.338.77.96.645 1.3 1.24 1.3 1.54-.347 0-1.196.051-1.82.257a3.683 3.683 0 0 0-1.298.77l.52.513c.494-.256.624-.77 2.078-.77 1.711 0 2.597 1.886 2.597 3.594 0 2.143-1.039 3.338-2.597 3.851-1.247.41-2.598.342-3.117.257.173.342.546.962.753 1.373.208.41.26.77.286 1.194l-1.559-.257c-.26-.342-.804-1.194-1.558-1.797-.685-.548-1.844-1.023-2.104-1.194.26 0 1.024-.413 1.3-.514.243-.089.519-.256 1.064-.602l-.78-.514c-.606.428-2.233 1.233-3.896 1.027-2.078-.257-2.597-1.45-2.597-2.663 0-.842 1.013-1.762 1.533-2.125l-.754-.346c-.433.256-1.35 1.078-1.558 2.31-.208 1.233.433 2.054.779 2.31-.606.086-2.252.205-3.117-.167-.805-.346-2.078-1.027-2.078-3.426Z" fill="#898989"/><path d="M15 27.542c0-2.325 1.818-3.505 2.338-3.505-.098.424-.107.68 0 1.194.083.403.173.685.26.77l.779-.256c-.285-.681-.368-1.803 0-2.568.494-1.026 1.039-1.797 2.857-1.797 1.922 0 2.312.514 2.857 1.027l.754-.424-.78-.77c.433-.171 1.688-.449 3.143.167 1.423.603 1.533 1.373 2.052 2.143l.545-.346-.52-1.026c.347.042 1.193 0 2.338.77.96.645 1.3 1.24 1.3 1.54-.347 0-1.196.051-1.82.257a3.683 3.683 0 0 0-1.298.77l.52.513c.494-.256.624-.77 2.078-.77 1.711 0 2.597 1.886 2.597 3.594 0 2.143-1.039 3.338-2.597 3.851-1.247.41-2.598.342-3.117.257.173.342.546.962.753 1.373.208.41.26.77.286 1.194l-1.559-.257c-.26-.342-.804-1.194-1.558-1.797-.685-.548-1.844-1.023-2.104-1.194.26 0 1.024-.413 1.3-.514.243-.089.519-.256 1.064-.602l-.78-.514c-.606.428-2.233 1.233-3.896 1.027-2.078-.257-2.597-1.45-2.597-2.663 0-.842 1.013-1.762 1.533-2.125l-.754-.346c-.433.256-1.35 1.078-1.558 2.31-.208 1.233.433 2.054.779 2.31-.606.086-2.252.205-3.117-.167-.805-.346-2.078-1.027-2.078-3.426Z" fill="#fff" fill-opacity=".8"/></svg>