<svg width="50" height="50" viewBox="0 0 50 50" fill="none" xmlns="http://www.w3.org/2000/svg">
<path d="M17.1142 8.40865C17.5062 7.8071 19.3988 8.42179 18.4535 9.36717L25.2996 3.86042C25.2996 3.86042 24.8686 2.1694 26.7689 2.37348C26.9379 2.66216 27.4665 2.85501 27.7673 3.05104C28.1432 3.29607 28.7643 3.16514 29.1402 3.41018C29.441 3.60621 29.2007 5.23516 29.0429 6.02513L26.3644 11.7788L27.0022 13.2658L23.1957 18.2843C23.9364 17.6957 25.7381 16.1916 27.019 14.8838C28.6202 13.249 28.4892 12.628 29.8285 9.75116C30.9 7.44971 32.6018 2.67576 32.6342 1.80411C32.6408 1.626 33.5796 1.33142 33.5796 1.33142C33.5796 1.33142 38.124 7.21398 39.2519 7.94909C40.1542 8.53718 41.5769 6.72003 42.7387 6.38058C43.5343 7.07767 45.449 8.46847 46.7434 8.45501C48.0378 8.44154 48.5472 10.3448 48.6401 11.2982L47.1698 13.554C47.2684 15.0466 47.3935 18.3065 47.1062 19.4049C46.8189 20.5032 44.7107 24.4502 43.6925 26.2864L42.9743 29.0323L40.4098 33.789C39.217 34.7972 36.8087 37.0129 36.7174 37.8105C36.6261 38.6081 33.8743 41.0515 32.4746 42.1034L31.4239 43.4669C30.9282 43.6795 29.7636 44.2061 29.0708 44.6116C28.378 45.0171 27.388 46.3717 26.9796 46.9983C26.0262 47.0912 25.7609 47.5109 25.2641 47.6156C24.7673 47.7204 19.8698 45.5786 18.366 44.5984L14.1162 42.9L12.4646 39.6809C12.873 39.0543 13.961 37.5493 15.0459 36.5422C16.1308 35.5351 17.7201 34.3569 18.3791 33.8936C19.4029 32.5967 21.7217 29.7512 22.8066 28.7442C23.8915 27.7371 27.1031 22.9737 28.5734 20.7179C27.4299 22.4724 24.7964 26.1842 23.4108 26.9952C22.0251 27.8063 21.2759 29.175 21.0745 29.758C19.555 31.2674 16.2187 34.414 15.029 34.9242C13.8394 35.4345 12.0718 37.8179 11.3367 38.9458C10.9607 38.7008 10.0248 39.5099 10.0248 39.5099L14.2229 17.2574C16.7874 12.5008 16.6241 9.16059 17.1142 8.40865Z" fill="#FAA21E"/>
<path d="M17.1142 8.40865C17.5062 7.8071 19.3988 8.42179 18.4535 9.36717L25.2996 3.86042C25.2996 3.86042 24.8686 2.1694 26.7689 2.37348C26.9379 2.66216 27.4665 2.85501 27.7673 3.05104C28.1432 3.29607 28.7643 3.16514 29.1402 3.41018C29.441 3.60621 29.2007 5.23516 29.0429 6.02513L26.3644 11.7788L27.0022 13.2658L23.1957 18.2843C23.9364 17.6957 25.7381 16.1916 27.019 14.8838C28.6202 13.249 28.4892 12.628 29.8285 9.75116C30.9 7.44971 32.6018 2.67576 32.6342 1.80411C32.6408 1.626 33.5796 1.33142 33.5796 1.33142C33.5796 1.33142 38.124 7.21398 39.2519 7.94909C40.1542 8.53718 41.5769 6.72003 42.7387 6.38058C43.5343 7.07767 45.449 8.46847 46.7434 8.45501C48.0378 8.44154 48.5472 10.3448 48.6401 11.2982L47.1698 13.554C47.2684 15.0466 47.3935 18.3065 47.1062 19.4049C46.8189 20.5032 44.7107 24.4502 43.6925 26.2864L42.9743 29.0323L40.4098 33.789C39.217 34.7972 36.8087 37.0129 36.7174 37.8105C36.6261 38.6081 33.8743 41.0515 32.4746 42.1034L31.4239 43.4669C30.9282 43.6795 29.7636 44.2061 29.0708 44.6116C28.378 45.0171 27.388 46.3717 26.9796 46.9983C26.0262 47.0912 25.7609 47.5109 25.2641 47.6156C24.7673 47.7204 19.8698 45.5786 18.366 44.5984L14.1162 42.9L12.4646 39.6809C12.873 39.0543 13.961 37.5493 15.0459 36.5422C16.1308 35.5351 17.7201 34.3569 18.3791 33.8936C19.4029 32.5967 21.7217 29.7512 22.8066 28.7442C23.8915 27.7371 27.1031 22.9737 28.5734 20.7179C27.4299 22.4724 24.7964 26.1842 23.4108 26.9952C22.0251 27.8063 21.2759 29.175 21.0745 29.758C19.555 31.2674 16.2187 34.414 15.029 34.9242C13.8394 35.4345 12.0718 37.8179 11.3367 38.9458C10.9607 38.7008 10.0248 39.5099 10.0248 39.5099L14.2229 17.2574C16.7874 12.5008 16.6241 9.16059 17.1142 8.40865Z" fill="black" fill-opacity="0.6"/>
<path d="M16.9307 8.60428C17.3227 8.00273 17.7587 8.4297 17.9277 8.71838L16.9643 11.8402L20.2639 5.95567C20.5962 5.9937 21.3851 6.04359 21.8819 5.93884C22.3787 5.8341 24.6378 3.62817 25.7052 2.5383C25.8742 2.82698 26.2873 3.45335 26.5881 3.64938C26.964 3.89441 27.585 3.76348 27.961 4.00852C28.2618 4.20455 28.0215 5.8335 27.8637 6.62347L25.1852 12.3771L25.823 13.8641L22.0165 18.8827C22.7572 18.2941 24.5589 16.79 25.8398 15.4821C27.441 13.8473 27.31 13.2263 28.6493 10.3495C29.7208 8.04805 30.0535 5.72938 30.0859 4.85773C30.821 3.72983 32.3664 1.52302 32.6672 1.71905C33.0432 1.96409 37.2125 7.89545 38.3404 8.63056C39.2427 9.21864 40.8624 7.77451 41.5595 6.97892C42.3551 7.67601 44.2698 9.06681 45.5642 9.05335C46.8586 9.03989 47.368 10.9432 47.4609 11.8965L45.9907 14.1523C46.0892 15.645 46.2143 18.9049 45.927 20.0032C45.6397 21.1016 43.5315 25.0486 42.5133 26.8848L41.7951 29.6306L39.2306 34.3873C38.0378 35.3955 35.6295 37.6113 35.5382 38.4088C35.4469 39.2064 32.6246 41.5095 31.2248 42.5613L30.2447 44.0652C29.749 44.2778 28.5844 44.8044 27.8916 45.2099C27.1988 45.6155 26.2088 46.9701 25.8004 47.5967C24.8471 47.6896 22.8162 47.9016 22.3194 48.0063C21.8226 48.111 18.6906 46.1769 17.1868 45.1968L12.937 43.4984L11.2854 40.2792C11.6938 39.6526 12.7818 38.1476 13.8667 37.1406C14.9516 36.1335 16.5409 34.9552 17.1999 34.4919C18.2237 33.1951 20.5425 30.3496 21.6274 29.3425C22.7123 28.3354 25.9239 23.572 27.3942 21.3162C26.2507 23.0707 23.6172 26.7825 22.2316 27.5936C20.8459 28.4046 20.0967 29.7733 19.8953 30.3563C18.3758 31.8658 15.0395 35.0123 13.8498 35.5226C12.6602 36.0328 10.8926 38.4162 10.1575 39.5441C9.7815 39.2991 8.90536 38.8352 8.40856 38.9399C7.91176 39.0447 6.79619 39.4961 6.30051 39.7087C5.8809 39.2567 4.91747 38.3788 4.42067 38.4835C3.79966 38.6145 1.05378 37.8962 1.67479 37.7652C2.17159 37.6605 3.60265 35.6291 4.25608 34.6266C4.33776 34.5012 4.67433 34.1492 5.36716 33.7437C6.05999 33.3382 6.30927 32.5721 6.34731 32.2398L5.46444 31.1287L3.60142 31.5215L2.34259 30.1654C5.05482 27.6478 10.9922 21.6611 13.0437 17.8558C15.6082 13.0991 16.4406 9.35621 16.9307 8.60428Z" fill="#FAA21E"/>
<path d="M16.9307 8.60428C17.3227 8.00273 17.7587 8.4297 17.9277 8.71838L16.9643 11.8402L20.2639 5.95567C20.5962 5.9937 21.3851 6.04359 21.8819 5.93884C22.3787 5.8341 24.6378 3.62817 25.7052 2.5383C25.8742 2.82698 26.2873 3.45335 26.5881 3.64938C26.964 3.89441 27.585 3.76348 27.961 4.00852C28.2618 4.20455 28.0215 5.8335 27.8637 6.62347L25.1852 12.3771L25.823 13.8641L22.0165 18.8827C22.7572 18.2941 24.5589 16.79 25.8398 15.4821C27.441 13.8473 27.31 13.2263 28.6493 10.3495C29.7208 8.04805 30.0535 5.72938 30.0859 4.85773C30.821 3.72983 32.3664 1.52302 32.6672 1.71905C33.0432 1.96409 37.2125 7.89545 38.3404 8.63056C39.2427 9.21864 40.8624 7.77451 41.5595 6.97892C42.3551 7.67601 44.2698 9.06681 45.5642 9.05335C46.8586 9.03989 47.368 10.9432 47.4609 11.8965L45.9907 14.1523C46.0892 15.645 46.2143 18.9049 45.927 20.0032C45.6397 21.1016 43.5315 25.0486 42.5133 26.8848L41.7951 29.6306L39.2306 34.3873C38.0378 35.3955 35.6295 37.6113 35.5382 38.4088C35.4469 39.2064 32.6246 41.5095 31.2248 42.5613L30.2447 44.0652C29.749 44.2778 28.5844 44.8044 27.8916 45.2099C27.1988 45.6155 26.2088 46.9701 25.8004 47.5967C24.8471 47.6896 22.8162 47.9016 22.3194 48.0063C21.8226 48.111 18.6906 46.1769 17.1868 45.1968L12.937 43.4984L11.2854 40.2792C11.6938 39.6526 12.7818 38.1476 13.8667 37.1406C14.9516 36.1335 16.5409 34.9552 17.1999 34.4919C18.2237 33.1951 20.5425 30.3496 21.6274 29.3425C22.7123 28.3354 25.9239 23.572 27.3942 21.3162C26.2507 23.0707 23.6172 26.7825 22.2316 27.5936C20.8459 28.4046 20.0967 29.7733 19.8953 30.3563C18.3758 31.8658 15.0395 35.0123 13.8498 35.5226C12.6602 36.0328 10.8926 38.4162 10.1575 39.5441C9.7815 39.2991 8.90536 38.8352 8.40856 38.9399C7.91176 39.0447 6.79619 39.4961 6.30051 39.7087C5.8809 39.2567 4.91747 38.3788 4.42067 38.4835C3.79966 38.6145 1.05378 37.8962 1.67479 37.7652C2.17159 37.6605 3.60265 35.6291 4.25608 34.6266C4.33776 34.5012 4.67433 34.1492 5.36716 33.7437C6.05999 33.3382 6.30927 32.5721 6.34731 32.2398L5.46444 31.1287L3.60142 31.5215L2.34259 30.1654C5.05482 27.6478 10.9922 21.6611 13.0437 17.8558C15.6082 13.0991 16.4406 9.35621 16.9307 8.60428Z" fill="black" fill-opacity="0.4"/>
<path d="M17.5079 24.0206C18.2643 23.6424 20.9743 20.3966 22.2349 18.821C20.6592 21.0269 17.5079 25.6277 17.5079 26.384C17.5079 27.3294 15.1445 31.1109 13.7264 31.5836C12.7461 31.9104 9.34178 35.7907 7.11316 38.4658C6.7551 38.9162 6.4207 39.3191 6.16336 39.6194C6.4416 39.2769 6.76285 38.8862 7.11316 38.4658C8.07049 37.2615 9.19699 35.7181 9.4722 34.8925C9.94489 33.4744 12.781 28.7475 13.2537 27.3294C13.7264 25.9113 16.5626 24.4933 17.5079 24.0206Z" fill="#FAA21E"/>
<path d="M17.5079 24.0206C18.2643 23.6424 20.9743 20.3966 22.2349 18.821C20.6592 21.0269 17.5079 25.6277 17.5079 26.384C17.5079 27.3294 15.1445 31.1109 13.7264 31.5836C12.7461 31.9104 9.34178 35.7907 7.11316 38.4658C6.7551 38.9162 6.4207 39.3191 6.16336 39.6194C6.4416 39.2769 6.76285 38.8862 7.11316 38.4658C8.07049 37.2615 9.19699 35.7181 9.4722 34.8925C9.94489 33.4744 12.781 28.7475 13.2537 27.3294C13.7264 25.9113 16.5626 24.4933 17.5079 24.0206Z" fill="black" fill-opacity="0.6"/>
<path d="M30.7433 9.83985C32.6341 7.94908 33.737 4.64025 34.0521 3.22217C34.0521 4.16755 33.9576 6.43647 33.5794 7.94908C33.1068 9.83985 32.6341 10.7852 32.6341 12.2033C32.6341 13.6214 33.1068 15.5121 31.216 16.4575C29.7324 17.1993 27.0664 21.185 26.0727 22.9729C26.0545 23.0087 26.0358 23.0429 26.0164 23.0752C26.0345 23.042 26.0533 23.0079 26.0727 22.9729C26.4973 22.136 26.5991 20.3816 26.9618 19.2937C27.3399 18.1592 28.5374 15.9848 28.3798 15.0394C28.3798 14.2516 28.8525 11.7306 30.7433 9.83985Z" fill="#FAA21E"/>
<path d="M30.7433 9.83985C32.6341 7.94908 33.737 4.64025 34.0521 3.22217C34.0521 4.16755 33.9576 6.43647 33.5794 7.94908C33.1068 9.83985 32.6341 10.7852 32.6341 12.2033C32.6341 13.6214 33.1068 15.5121 31.216 16.4575C29.7324 17.1993 27.0664 21.185 26.0727 22.9729C26.0545 23.0087 26.0358 23.0429 26.0164 23.0752C26.0345 23.042 26.0533 23.0079 26.0727 22.9729C26.4973 22.136 26.5991 20.3816 26.9618 19.2937C27.3399 18.1592 28.5374 15.9848 28.3798 15.0394C28.3798 14.2516 28.8525 11.7306 30.7433 9.83985Z" fill="black" fill-opacity="0.6"/>
<path d="M17.0353 38.2013C16.5626 39.1467 16.5626 41.5101 14.6718 43.8736L15.6172 44.3463C15.7747 43.716 16.279 42.2664 17.0353 41.5101C17.9806 40.5648 17.9806 38.2013 18.926 37.2559C19.8714 36.3105 22.2349 35.8379 23.1802 35.3652C24.1256 34.8925 27.9072 33.9471 29.3252 32.0563C30.7433 30.1656 32.1614 23.5479 32.6341 22.6025C33.1068 21.6571 34.9975 17.4029 35.9429 14.0941C36.6992 11.447 37.8337 9.20959 38.3064 8.42177L37.361 7.47639C37.0458 8.26421 36.3211 10.218 35.9429 11.7306C35.4702 13.6214 34.5248 17.4029 33.5794 19.7664C32.6341 22.1298 29.7979 24.0206 27.9072 25.9113C26.0164 27.8021 23.6529 31.5836 21.7622 33.9471C19.8714 36.3105 17.5079 37.2559 17.0353 38.2013Z" fill="#FAA21E"/>
<path d="M17.0353 38.2013C16.5626 39.1467 16.5626 41.5101 14.6718 43.8736L15.6172 44.3463C15.7747 43.716 16.279 42.2664 17.0353 41.5101C17.9806 40.5648 17.9806 38.2013 18.926 37.2559C19.8714 36.3105 22.2349 35.8379 23.1802 35.3652C24.1256 34.8925 27.9072 33.9471 29.3252 32.0563C30.7433 30.1656 32.1614 23.5479 32.6341 22.6025C33.1068 21.6571 34.9975 17.4029 35.9429 14.0941C36.6992 11.447 37.8337 9.20959 38.3064 8.42177L37.361 7.47639C37.0458 8.26421 36.3211 10.218 35.9429 11.7306C35.4702 13.6214 34.5248 17.4029 33.5794 19.7664C32.6341 22.1298 29.7979 24.0206 27.9072 25.9113C26.0164 27.8021 23.6529 31.5836 21.7622 33.9471C19.8714 36.3105 17.5079 37.2559 17.0353 38.2013Z" fill="black" fill-opacity="0.6"/>
<path d="M38.3064 16.9302C39.0627 13.905 41.4576 9.20959 42.5606 7.47639L46.8148 8.89446C46.1845 10.3125 44.0732 13.905 42.5606 15.0394L42.5605 15.0395C40.6698 16.4575 38.779 17.8756 38.3064 18.821C37.8337 19.7664 36.8883 24.966 35.9429 26.384C34.9975 27.8021 34.0521 30.6383 32.6341 32.529C31.216 34.4198 30.7433 37.2559 30.2706 38.674C29.7979 40.0921 25.5437 42.9282 23.1802 43.8736C21.2895 44.6299 19.8714 46.0795 19.3987 46.7097C19.7138 45.4492 20.7222 42.4555 22.2349 40.5648C24.1256 38.2013 26.9618 37.2559 29.3252 35.8379C31.6887 34.4198 34.0521 28.7475 34.9975 27.3294C35.9429 25.9113 37.361 20.7117 38.3064 16.9302Z" fill="#FAA21E"/>
<path d="M38.3064 16.9302C39.0627 13.905 41.4576 9.20959 42.5606 7.47639L46.8148 8.89446C46.1845 10.3125 44.0732 13.905 42.5606 15.0394L42.5605 15.0395C40.6698 16.4575 38.779 17.8756 38.3064 18.821C37.8337 19.7664 36.8883 24.966 35.9429 26.384C34.9975 27.8021 34.0521 30.6383 32.6341 32.529C31.216 34.4198 30.7433 37.2559 30.2706 38.674C29.7979 40.0921 25.5437 42.9282 23.1802 43.8736C21.2895 44.6299 19.8714 46.0795 19.3987 46.7097C19.7138 45.4492 20.7222 42.4555 22.2349 40.5648C24.1256 38.2013 26.9618 37.2559 29.3252 35.8379C31.6887 34.4198 34.0521 28.7475 34.9975 27.3294C35.9429 25.9113 37.361 20.7117 38.3064 16.9302Z" fill="black" fill-opacity="0.6"/>
<path d="M40.6698 21.6571C41.6152 18.3483 43.0333 18.3483 45.8694 14.5668C45.7118 15.5121 45.3967 17.592 45.3967 18.3483C45.3967 19.1046 44.1362 20.8693 43.506 21.6571C43.506 22.1298 43.3169 23.4533 42.5606 24.966C41.6152 26.8567 38.779 30.1656 37.361 31.5836C35.9429 33.0017 35.9429 33.9471 34.5248 36.3105C33.3904 38.2013 32.7916 40.5648 32.6341 41.5101L31.216 42.4555C31.6887 41.9828 32.7286 40.5648 33.1068 38.674C33.5794 36.3105 36.4156 31.5836 37.8337 30.1656C39.2517 28.7475 39.7244 24.966 40.6698 21.6571Z" fill="#FAA21E"/>
<path d="M40.6698 21.6571C41.6152 18.3483 43.0333 18.3483 45.8694 14.5668C45.7118 15.5121 45.3967 17.592 45.3967 18.3483C45.3967 19.1046 44.1362 20.8693 43.506 21.6571C43.506 22.1298 43.3169 23.4533 42.5606 24.966C41.6152 26.8567 38.779 30.1656 37.361 31.5836C35.9429 33.0017 35.9429 33.9471 34.5248 36.3105C33.3904 38.2013 32.7916 40.5648 32.6341 41.5101L31.216 42.4555C31.6887 41.9828 32.7286 40.5648 33.1068 38.674C33.5794 36.3105 36.4156 31.5836 37.8337 30.1656C39.2517 28.7475 39.7244 24.966 40.6698 21.6571Z" fill="black" fill-opacity="0.6"/>
<path d="M21.2895 8.42177C22.4239 7.66547 25.071 4.32512 26.0164 2.74948L26.9618 3.69486C25.8588 4.34959 23.5584 5.92798 23.1802 7.0037C22.7076 8.34834 23.1802 8.42177 22.7076 9.36716C22.2349 10.3125 23.6529 14.0941 21.7622 15.0394C19.8714 15.9848 20.3441 17.4029 18.926 19.2937C17.5079 21.1844 16.0899 21.1844 14.1991 23.0752C12.3083 24.966 10.4176 27.3294 8.99951 28.7475C7.86505 29.8819 6.32093 32.3715 5.69067 33.4744L6.16336 32.529C6.63606 31.5836 7.86505 29.3147 8.99951 27.8021C10.4176 25.9113 14.1991 22.6025 15.6172 20.7117C17.0353 18.821 17.0353 16.9302 17.5079 14.0941C17.9806 11.2579 19.8714 9.36716 21.2895 8.42177Z" fill="#FAA21E"/>
<path d="M21.2895 8.42177C22.4239 7.66547 25.071 4.32512 26.0164 2.74948L26.9618 3.69486C25.8588 4.34959 23.5584 5.92798 23.1802 7.0037C22.7076 8.34834 23.1802 8.42177 22.7076 9.36716C22.2349 10.3125 23.6529 14.0941 21.7622 15.0394C19.8714 15.9848 20.3441 17.4029 18.926 19.2937C17.5079 21.1844 16.0899 21.1844 14.1991 23.0752C12.3083 24.966 10.4176 27.3294 8.99951 28.7475C7.86505 29.8819 6.32093 32.3715 5.69067 33.4744L6.16336 32.529C6.63606 31.5836 7.86505 29.3147 8.99951 27.8021C10.4176 25.9113 14.1991 22.6025 15.6172 20.7117C17.0353 18.821 17.0353 16.9302 17.5079 14.0941C17.9806 11.2579 19.8714 9.36716 21.2895 8.42177Z" fill="black" fill-opacity="0.6"/>
<path d="M12.781 20.239C14.1991 18.3483 14.6718 15.5121 16.0899 13.6214C15.4596 15.197 14.1046 18.7264 13.7264 20.239C13.2537 22.1298 11.8357 22.6025 10.4176 23.5479C9.28313 24.3042 7.42387 25.4386 6.63606 25.9113L7.58144 24.966C8.84195 24.0206 11.6466 21.7517 12.781 20.239Z" fill="#FAA21E"/>
<path d="M12.781 20.239C14.1991 18.3483 14.6718 15.5121 16.0899 13.6214C15.4596 15.197 14.1046 18.7264 13.7264 20.239C13.2537 22.1298 11.8357 22.6025 10.4176 23.5479C9.28313 24.3042 7.42387 25.4386 6.63606 25.9113L7.58144 24.966C8.84195 24.0206 11.6466 21.7517 12.781 20.239Z" fill="black" fill-opacity="0.6"/>
<path d="M19.8714 11.2579C20.2496 10.5016 21.6046 9.05204 22.2349 8.42178C21.9198 9.2096 20.9114 10.9743 21.2895 11.7306C21.7622 12.676 21.2895 12.676 20.3441 13.1487C19.5878 13.5268 17.9807 17.5605 17.0353 19.2937C17.3504 18.6634 18.0752 17.0248 18.4534 15.5121C18.9261 13.6214 19.3987 12.2033 19.8714 11.2579Z" fill="#A272E4"/>
<path d="M14.1991 27.3294C14.9555 26.195 16.7202 24.966 17.508 24.4933C16.5626 25.9114 16.4681 27.0458 16.0899 27.8021C15.7118 28.5584 13.7265 29.2202 11.8357 31.5836C12.3084 30.6383 13.4428 28.4639 14.1991 27.3294Z" fill="#A272E4"/>
<path d="M27.4345 29.6929C28.8846 29.3303 28.3799 26.8567 31.216 24.0206C30.2706 25.9114 29.3253 27.613 29.3253 28.7475C29.3253 30.1656 28.3799 32.0563 26.9618 32.0563C25.8273 32.0563 23.653 33.7895 22.7076 34.4198C23.653 33.4744 25.5437 30.1656 27.4345 29.6929Z" fill="#A272E4"/>
<path d="M30.2706 12.676C30.6488 11.9197 31.6887 10.155 32.1614 9.36717C32.0038 10.3125 31.6887 11.9197 31.6887 12.676C31.6887 13.6214 31.216 14.3304 30.7433 14.5668C29.987 14.9449 29.0101 17.0878 28.8526 17.4029C29.0101 16.4575 29.8925 13.4323 30.2706 12.676Z" fill="#A272E4"/>
<path d="M41.6152 11.7306C41.9934 10.9743 43.3484 9.52473 43.9787 8.89447C43.9787 9.83986 43.6951 11.9197 42.5606 12.676C41.4261 13.4323 40.1972 15.197 39.7245 15.9848C40.1972 14.8819 41.2371 12.4869 41.6152 11.7306Z" fill="#A272E4"/>
<path d="M41.6152 21.1844C41.9934 20.05 43.3484 18.821 43.9787 18.3483C44.1362 19.1361 44.1678 20.8063 43.0333 21.1844C41.8988 21.5626 40.985 24.8084 40.6698 26.384C40.8274 25.1235 41.2371 22.3189 41.6152 21.1844Z" fill="#A272E4"/>
<path d="M25.5437 39.1467C27.0563 38.0122 28.3799 37.7286 29.798 37.2559C28.3799 38.674 28.758 39.8085 26.4891 40.5648C24.2202 41.3211 22.3925 42.6525 21.7622 43.2237C22.3925 42.3374 24.0311 40.2812 25.5437 39.1467Z" fill="#A272E4"/>
</svg>
