<svg width="50" height="50" viewBox="0 0 50 50" fill="none" xmlns="http://www.w3.org/2000/svg">
<path d="M13.0146 3.52538L13 3.5L10.6842 4.42107C9.71278 8.12345 8 15.8903 8 20.5263C8 26.3214 12.1044 42.2414 15.1579 44.6842C19.6316 48.2632 30.3684 48.2632 34.8421 44.6842C37.728 42.3755 42 26.3214 42 20.5263C42 15.8903 40.2872 8.28442 39.3158 4.42107L37 3.5C36.3524 4.62681 35.1184 6.05263 34 6.5C31.7632 7.39474 18.2368 7.61199 16 6.5C14.2137 5.61199 13.656 4.64151 13.0146 3.52538Z" fill="#FAA21E"/>
<path d="M13.0146 3.52538L13 3.5L10.6842 4.42107C9.71278 8.12345 8 15.8903 8 20.5263C8 26.3214 12.1044 42.2414 15.1579 44.6842C19.6316 48.2632 30.3684 48.2632 34.8421 44.6842C37.728 42.3755 42 26.3214 42 20.5263C42 15.8903 40.2872 8.28442 39.3158 4.42107L37 3.5C36.3524 4.62681 35.1184 6.05263 34 6.5C31.7632 7.39474 18.2368 7.61199 16 6.5C14.2137 5.61199 13.656 4.64151 13.0146 3.52538Z" fill="black" fill-opacity="0.4"/>
<path d="M13.0146 3.52538L13 3.5L10.6842 4.42107C9.71278 8.12345 8 15.8903 8 20.5263C8 26.3214 12.1044 42.2414 15.1579 44.6842C19.6316 48.2632 30.3684 48.2632 34.8421 44.6842C37.728 42.3755 42 26.3214 42 20.5263C42 15.8903 40.2872 8.28442 39.3158 4.42107L37 3.5C36.3524 4.62681 35.1184 6.05263 34 6.5C31.7632 7.39474 18.2368 7.61199 16 6.5C14.2137 5.61199 13.656 4.64151 13.0146 3.52538Z" stroke="#FAA21E" stroke-width="2"/>
<path d="M13.0146 3.52538L13 3.5L10.6842 4.42107C9.71278 8.12345 8 15.8903 8 20.5263C8 26.3214 12.1044 42.2414 15.1579 44.6842C19.6316 48.2632 30.3684 48.2632 34.8421 44.6842C37.728 42.3755 42 26.3214 42 20.5263C42 15.8903 40.2872 8.28442 39.3158 4.42107L37 3.5C36.3524 4.62681 35.1184 6.05263 34 6.5C31.7632 7.39474 18.2368 7.61199 16 6.5C14.2137 5.61199 13.656 4.64151 13.0146 3.52538Z" stroke="black" stroke-opacity="0.6" stroke-width="2"/>
<path d="M11.3318 14.7906C11.7125 13.268 11.1586 6.26884 11 5.00003L13 4.50003C14.1102 6.40324 17.5173 15.3616 17.5173 17.6454C17.5173 20.5002 17.0415 24.7825 17.5173 27.1615C17.9931 29.5405 17.0415 35.7259 16.5657 38.5808C16.185 40.8646 15.4758 42.863 15 43.8146L14.5 43.5C15.1344 40.8038 15.9947 35.155 15.6141 32.8711C15.1383 30.0163 13.7109 23.8309 13.2351 21.9277C12.7593 20.0244 10.856 16.6938 11.3318 14.7906Z" fill="#FAA21E"/>
<path d="M11.3318 14.7906C11.7125 13.268 11.1586 6.26884 11 5.00003L13 4.50003C14.1102 6.40324 17.5173 15.3616 17.5173 17.6454C17.5173 20.5002 17.0415 24.7825 17.5173 27.1615C17.9931 29.5405 17.0415 35.7259 16.5657 38.5808C16.185 40.8646 15.4758 42.863 15 43.8146L14.5 43.5C15.1344 40.8038 15.9947 35.155 15.6141 32.8711C15.1383 30.0163 13.7109 23.8309 13.2351 21.9277C12.7593 20.0244 10.856 16.6938 11.3318 14.7906Z" fill="black" fill-opacity="0.6"/>
<path d="M25.6059 25.2583C28.1227 20.5 27.3505 11.46 27.5091 6.70193C27.6677 8.92235 27.9849 14.4099 27.9849 16.6938C27.9849 19.5486 28.4607 23.3551 27.9849 26.6857C27.7423 28.384 27.9849 32.3953 28.4607 33.8227C28.9366 35.2501 28.4607 39.0566 27.0333 42.3872C25.8914 45.0517 25.6059 45.0968 25.6059 46.5242C25.6059 43.3522 25.6419 44.0452 24.5 41C23.0726 37.1936 23.8124 28.6492 25.6059 25.2583Z" fill="#FAA21E"/>
<path d="M25.6059 25.2583C28.1227 20.5 27.3505 11.46 27.5091 6.70193C27.6677 8.92235 27.9849 14.4099 27.9849 16.6938C27.9849 19.5486 28.4607 23.3551 27.9849 26.6857C27.7423 28.384 27.9849 32.3953 28.4607 33.8227C28.9366 35.2501 28.4607 39.0566 27.0333 42.3872C25.8914 45.0517 25.6059 45.0968 25.6059 46.5242C25.6059 43.3522 25.6419 44.0452 24.5 41C23.0726 37.1936 23.8124 28.6492 25.6059 25.2583Z" fill="black" fill-opacity="0.6"/>
<path d="M36.0736 17.6454C37.501 14.3148 37.0242 6.40324 37.5 4.50003L38.4526 8.50003C38.7698 9.13443 39.2139 11.7455 38.4526 14.7906C37.501 18.597 40.3558 20.9761 39.88 23.3551C39.4042 25.7341 34.1704 31.9195 36.0736 36.2017C37.5962 39.6275 35.293 42.7554 34.5 44.5C34.6586 42.914 35.8833 40.3888 35.122 38.1049C34.1704 35.2501 32.743 30.0163 33.2188 26.2099C33.6946 22.4035 34.6462 20.976 36.0736 17.6454Z" fill="#FAA21E"/>
<path d="M36.0736 17.6454C37.501 14.3148 37.0242 6.40324 37.5 4.50003L38.4526 8.50003C38.7698 9.13443 39.2139 11.7455 38.4526 14.7906C37.501 18.597 40.3558 20.9761 39.88 23.3551C39.4042 25.7341 34.1704 31.9195 36.0736 36.2017C37.5962 39.6275 35.293 42.7554 34.5 44.5C34.6586 42.914 35.8833 40.3888 35.122 38.1049C34.1704 35.2501 32.743 30.0163 33.2188 26.2099C33.6946 22.4035 34.6462 20.976 36.0736 17.6454Z" fill="black" fill-opacity="0.6"/>
<path d="M22.2753 10.5084C22.2753 9.74711 22.5925 9.08594 23.2269 7.49993C23.8613 7.02413 25.9866 6.73875 25.6059 7.50003C25.1301 8.45164 25.1301 10.0326 25.6059 11.9358C26.0817 13.839 25.4758 14.7906 25 19.0728C24.6552 22.1757 24.2611 23.1708 23.3141 24.9247C23.6535 27.6151 23.562 30.376 23 31.5C22.4711 32.5578 19.8963 41.4302 22.2753 46.5242C20.1716 47.242 19.3981 45.4413 19 46.1936C19 43.5 21.547 37.5 19.5 32C18.0209 28.0261 18.9447 21.4518 19.8963 16.6938C20.6576 12.8874 17.4758 8.45153 17 7.49993C17 7.49993 20.4025 10.0326 21 12.5C21.5975 14.9675 20.4457 17 22 20C22.5983 21.1549 23.0252 22.8427 23.2697 24.5907C24.0999 21.4417 23.7027 18.9085 23.7027 17.1696C23.7027 14.7906 22.2753 11.46 22.2753 10.5084Z" fill="#FAA21E"/>
<path d="M22.2753 10.5084C22.2753 9.74711 22.5925 9.08594 23.2269 7.49993C23.8613 7.02413 25.9866 6.73875 25.6059 7.50003C25.1301 8.45164 25.1301 10.0326 25.6059 11.9358C26.0817 13.839 25.4758 14.7906 25 19.0728C24.6552 22.1757 24.2611 23.1708 23.3141 24.9247C23.6535 27.6151 23.562 30.376 23 31.5C22.4711 32.5578 19.8963 41.4302 22.2753 46.5242C20.1716 47.242 19.3981 45.4413 19 46.1936C19 43.5 21.547 37.5 19.5 32C18.0209 28.0261 18.9447 21.4518 19.8963 16.6938C20.6576 12.8874 17.4758 8.45153 17 7.49993C17 7.49993 20.4025 10.0326 21 12.5C21.5975 14.9675 20.4457 17 22 20C22.5983 21.1549 23.0252 22.8427 23.2697 24.5907C24.0999 21.4417 23.7027 18.9085 23.7027 17.1696C23.7027 14.7906 22.2753 11.46 22.2753 10.5084Z" fill="black" fill-opacity="0.6"/>
<path d="M9.42864 12.8874C9.41195 12.9541 9.39253 13.0255 9.37089 13.101C9.05643 14.3099 8.78653 16.1088 8.65188 18.0248C8.7237 18.2308 8.82231 18.423 8.95283 18.597C10.3802 20.5002 9.90444 27.1615 12.2835 28.5889C14.6625 30.0163 13 33.8228 13 36.2017V41C10.5 33.8227 10.5051 28.3629 9.42864 26.2099C8.56855 24.4897 8.43535 21.1059 8.65188 18.0248C8.12843 16.5238 9.02831 14.2956 9.37089 13.101C9.38998 13.0276 9.40924 12.9563 9.42864 12.8874Z" fill="#FAA21E"/>
<path d="M9.42864 12.8874C9.41195 12.9541 9.39253 13.0255 9.37089 13.101C9.05643 14.3099 8.78653 16.1088 8.65188 18.0248C8.7237 18.2308 8.82231 18.423 8.95283 18.597C10.3802 20.5002 9.90444 27.1615 12.2835 28.5889C14.6625 30.0163 13 33.8228 13 36.2017V41C10.5 33.8227 10.5051 28.3629 9.42864 26.2099C8.56855 24.4897 8.43535 21.1059 8.65188 18.0248C8.12843 16.5238 9.02831 14.2956 9.37089 13.101C9.38998 13.0276 9.40924 12.9563 9.42864 12.8874Z" fill="black" fill-opacity="0.6"/>
<path d="M29.4124 11.9358C29.4124 10.0326 30.8398 7.17774 31.3156 6.70193L33.2188 7.50003C31.3156 8.50003 30.3403 9.07543 29.8882 11.5C29.2745 14.7906 31.3156 14.4032 31.3156 16.6938C31.3156 20.7255 30.4274 23.3551 29 28C29.1586 27.0484 31.0046 21.4518 29.8882 19.0728C28.8228 16.8027 29.4124 14.3148 29.4124 11.9358Z" fill="#FAA21E"/>
<path d="M29.4124 11.9358C29.4124 10.0326 30.8398 7.17774 31.3156 6.70193L33.2188 7.50003C31.3156 8.50003 30.3403 9.07543 29.8882 11.5C29.2745 14.7906 31.3156 14.4032 31.3156 16.6938C31.3156 20.7255 30.4274 23.3551 29 28C29.1586 27.0484 31.0046 21.4518 29.8882 19.0728C28.8228 16.8027 29.4124 14.3148 29.4124 11.9358Z" fill="black" fill-opacity="0.6"/>
<path d="M29.8882 30.9679C30.2688 29.0647 31.3414 23.4758 31.5 23C30.5 31.5 31.3156 42 31.3156 42C31.3156 42.793 30.5543 45.4323 29.4124 46.1936C28.2704 46.9548 27.6677 46.0484 27.5091 47C27.6677 45.2554 28.3656 43.9032 29.8882 42C31.7914 39.621 29.4124 33.3469 29.8882 30.9679Z" fill="#FAA21E"/>
<path d="M29.8882 30.9679C30.2688 29.0647 31.3414 23.4758 31.5 23C30.5 31.5 31.3156 42 31.3156 42C31.3156 42.793 30.5543 45.4323 29.4124 46.1936C28.2704 46.9548 27.6677 46.0484 27.5091 47C27.6677 45.2554 28.3656 43.9032 29.8882 42C31.7914 39.621 29.4124 33.3469 29.8882 30.9679Z" fill="black" fill-opacity="0.6"/>
<path d="M35.5978 12.8874C35.9784 10.9842 35.3172 7.47582 35 7.00003C35 7.00003 32.743 10.0726 32.2672 11.5C31.7914 12.9274 31.7914 21.4518 31.7914 21.4518C31.7914 20.8174 31.9817 19.2631 32.743 18.1212C33.6946 16.6938 35.122 15.2664 35.5978 12.8874Z" fill="#FAA21E"/>
<path d="M35.5978 12.8874C35.9784 10.9842 35.3172 7.47582 35 7.00003C35 7.00003 32.743 10.0726 32.2672 11.5C31.7914 12.9274 31.7914 21.4518 31.7914 21.4518C31.7914 20.8174 31.9817 19.2631 32.743 18.1212C33.6946 16.6938 35.122 15.2664 35.5978 12.8874Z" fill="black" fill-opacity="0.6"/>
<path d="M33.6946 38.1049C33.6946 35.8211 32.1086 31.4437 31.3156 29.5405C31.7914 31.7609 32.6478 36.8679 32.2672 39.5323C31.8865 42.1968 32.4258 44.6076 32.743 45.7178C33.0602 43.9732 33.6946 40.3888 33.6946 38.1049Z" fill="#FAA21E"/>
<path d="M33.6946 38.1049C33.6946 35.8211 32.1086 31.4437 31.3156 29.5405C31.7914 31.7609 32.6478 36.8679 32.2672 39.5323C31.8865 42.1968 32.4258 44.6076 32.743 45.7178C33.0602 43.9732 33.6946 40.3888 33.6946 38.1049Z" fill="black" fill-opacity="0.6"/>
<path d="M39.88 16.6938C39.4042 15.2664 40.3558 11.9358 40.8316 9.55675L41.7832 10.0326C41.7832 10.667 41.9735 12.4116 42.7348 14.3148C43.6864 16.6938 40.8316 27.6373 40.3558 29.0647C39.88 30.4921 40.8316 34.2985 39.88 37.1533C39.1187 39.4372 37.3414 42.2312 37.5 43.5C37.1828 41.914 38.3574 38.3904 37.9768 35.7259C37.501 32.3953 39.88 30.0163 40.8316 26.6857C41.7832 23.3551 40.3558 18.1212 39.88 16.6938Z" fill="#FAA21E"/>
<path d="M39.88 16.6938C39.4042 15.2664 40.3558 11.9358 40.8316 9.55675L41.7832 10.0326C41.7832 10.667 41.9735 12.4116 42.7348 14.3148C43.6864 16.6938 40.8316 27.6373 40.3558 29.0647C39.88 30.4921 40.8316 34.2985 39.88 37.1533C39.1187 39.4372 37.3414 42.2312 37.5 43.5C37.1828 41.914 38.3574 38.3904 37.9768 35.7259C37.501 32.3953 39.88 30.0163 40.8316 26.6857C41.7832 23.3551 40.3558 18.1212 39.88 16.6938Z" fill="black" fill-opacity="0.6"/>
<path d="M13.2351 15.7422C13.2351 13.839 12.9179 10.8256 12.7593 9.55676C12.9179 10.3498 13.3302 12.1261 13.7109 12.8874C14.1867 13.839 16 16.5 15.5 19C15.1662 20.6693 16.5 25.5 16.5 29.5C16.3414 28.707 15.4238 24.8776 14.6625 21.4518C13.7109 17.1696 13.2351 18.1212 13.2351 15.7422Z" fill="#A272E4"/>
<path d="M25 33.8227C25 31.5388 26.2404 27.2446 27.0334 25.5C26.5576 27.086 26.0818 28.4937 26.0818 30.0163C26.0818 31.9195 26.5576 32.8711 27.0334 35.7259C27.414 38.0098 26.5576 40.1667 26.0818 40.9597C25.7646 38.7393 25 36.1066 25 33.8227Z" fill="#A272E4"/>
<path d="M34.6462 26.2099C34.6462 23.926 36.5494 19.8658 37.501 18.1212C37.501 19.0728 36.499 20.5966 37.5 22C38.3289 23.1621 37.5 25 36.5 26C34.5591 27.9409 34.5 29.5 34.6462 32.3953C34.1704 29.6563 34.6462 28.4937 34.6462 26.2099Z" fill="#A272E4"/>
<path d="M12.2835 30.4921C11.9028 29.7308 10.3172 27.8172 10 27.5C10 27.9758 10.2267 29.5466 11 31C11.4494 31.8447 11.7812 35.0915 11.7812 35.7259C12.0985 34.9329 12.6641 31.2534 12.2835 30.4921Z" fill="#A272E4"/>
<path d="M20 25.5C20 23.2162 20.1828 21.2446 20.5 19.5C20.5 22 21.8461 26.2306 22 27C22.5 29.5 21.2379 33.0726 21 34.5C20.8097 35.642 21.2379 30.9516 21 30C20.7621 29.0484 20 27.7839 20 25.5Z" fill="#A272E4"/>
<path d="M24.6543 17C24.9245 13.6882 23.8362 12.6831 23.5 12L23.4989 11.9978C22.9986 10.9814 22.0551 9.06436 24.6543 8.00003C24 10 24.1194 10.4775 24.5 12C24.8806 13.5226 25 15.7422 24.6543 17Z" fill="#A272E4"/>
<path d="M33 12C34 11 34.1462 9.68753 34.6462 9.18753C34.6462 9.66333 35.5 12 34.6462 12.8874C33.737 13.8323 33.1586 15.5242 33 16C33 15.5242 32.1489 12.8512 33 12Z" fill="#A272E4"/>
<path d="M20 45.8C19.7438 44.1923 19.8977 43.021 20.5 41.5C20.5879 43.4056 20.5 44.5 21.5 46L20 45.8Z" fill="#A272E4"/>
<path fill-rule="evenodd" clip-rule="evenodd" d="M13.4814 0.993457C13.958 2.06719 14.4808 3.24479 16 4C18.5 5.24281 31.5 5 34 4C35.0435 3.58259 35.9311 1.95208 36.6169 0.692105C36.7526 0.442809 36.8804 0.208019 37 0L41 2C42.0857 6.31787 44 14.8186 44 20C44 26.4768 39.2255 44.4196 36 47C31 51 19 51 14 47C10.5872 44.2698 6 26.4768 6 20C6 14.8186 7.91429 6.13796 9 2L13 0C13.1772 0.308289 13.3269 0.645416 13.4814 0.993457ZM13 3.5L13.0146 3.52538C13.656 4.64151 14.2137 5.61199 16 6.5C18.2368 7.61199 31.7632 7.39474 34 6.5C35.1184 6.05263 36.3524 4.62681 37 3.5L39.3158 4.42107C40.2872 8.28442 42 15.8903 42 20.5263C42 26.3214 37.728 42.3755 34.8421 44.6842C30.3684 48.2632 19.6316 48.2632 15.1579 44.6842C12.1044 42.2414 8 26.3214 8 20.5263C8 15.8903 9.71278 8.12345 10.6842 4.42107L13 3.5Z" fill="#7445B8"/>
<path fill-rule="evenodd" clip-rule="evenodd" d="M13.4814 0.993457C13.958 2.06719 14.4808 3.24479 16 4C18.5 5.24281 31.5 5 34 4C35.0435 3.58259 35.9311 1.95208 36.6169 0.692105C36.7526 0.442809 36.8804 0.208019 37 0L41 2C42.0857 6.31787 44 14.8186 44 20C44 26.4768 39.2255 44.4196 36 47C31 51 19 51 14 47C10.5872 44.2698 6 26.4768 6 20C6 14.8186 7.91429 6.13796 9 2L13 0C13.1772 0.308289 13.3269 0.645416 13.4814 0.993457ZM13 3.5L13.0146 3.52538C13.656 4.64151 14.2137 5.61199 16 6.5C18.2368 7.61199 31.7632 7.39474 34 6.5C35.1184 6.05263 36.3524 4.62681 37 3.5L39.3158 4.42107C40.2872 8.28442 42 15.8903 42 20.5263C42 26.3214 37.728 42.3755 34.8421 44.6842C30.3684 48.2632 19.6316 48.2632 15.1579 44.6842C12.1044 42.2414 8 26.3214 8 20.5263C8 15.8903 9.71278 8.12345 10.6842 4.42107L13 3.5Z" fill="white" fill-opacity="0.2"/>
</svg>
