<svg width="50" height="50" viewBox="0 0 50 50" fill="none" xmlns="http://www.w3.org/2000/svg">
<path d="M13.1327 4.90441C13.4157 3.57602 14.6196 2.65089 15.0126 2.41368L20.2064 3.12532L23.6189 2.05786C25.2694 1.5439 29.5908 0.231325 30.8169 0.0415553C32.043 -0.148215 32.7425 0.357838 32.939 0.634586C31.9958 1.02994 30.0623 2.08158 29.8737 3.12532C29.6379 4.42998 29.52 5.97186 30.4632 8.5812C31.2177 10.6687 33.1354 11.744 34 12.0208L10.5391 24C10.0675 23.2488 9.10075 21.3907 9.00643 19.9674C8.88854 18.1883 10.4212 14.2743 11.1285 12.3766C11.8359 10.4789 12.779 6.56489 13.1327 4.90441Z" fill="#2FC4A7"/>
<path d="M13.1327 4.90441C13.4157 3.57602 14.6196 2.65089 15.0126 2.41368L20.2064 3.12532L23.6189 2.05786C25.2694 1.5439 29.5908 0.231325 30.8169 0.0415553C32.043 -0.148215 32.7425 0.357838 32.939 0.634586C31.9958 1.02994 30.0623 2.08158 29.8737 3.12532C29.6379 4.42998 29.52 5.97186 30.4632 8.5812C31.2177 10.6687 33.1354 11.744 34 12.0208L10.5391 24C10.0675 23.2488 9.10075 21.3907 9.00643 19.9674C8.88854 18.1883 10.4212 14.2743 11.1285 12.3766C11.8359 10.4789 12.779 6.56489 13.1327 4.90441Z" fill="black" fill-opacity="0.4"/>
<path d="M12 42.1778L15.2427 38.7407L32.7366 42.1778L39.5 33C40 34 41.2779 36.6556 41 39.5C40.7221 42.3444 38.0962 46.3654 36.8995 47.9852L34.6991 47.6296L33.1935 50C29.6034 49.6444 24.9709 49.1704 20.6859 47.2741C16.4339 45.3924 12.9651 42.9284 12 42.1778Z" fill="#2FC4A7"/>
<path d="M12 42.1778L15.2427 38.7407L32.7366 42.1778L39.5 33C40 34 41.2779 36.6556 41 39.5C40.7221 42.3444 38.0962 46.3654 36.8995 47.9852L34.6991 47.6296L33.1935 50C29.6034 49.6444 24.9709 49.1704 20.6859 47.2741C16.4339 45.3924 12.9651 42.9284 12 42.1778Z" fill="black" fill-opacity="0.4"/>
<path d="M20.5 4L16.5 4.5C17.2901 5.64473 17.3363 6.63158 18 9C18.8296 11.9605 19.6689 15.8973 17.5 18.5C15 21.5 12 22.5 11.5 23C11.1465 23.3536 11.8839 24.7763 11.7259 24.5C12.3975 26.4737 12.4311 27.9842 13 29.5C13.5689 31.0158 14.3284 36.5526 15 39C17.4494 40.1842 22.9918 42.6474 26.5 43.5C30.0081 44.3526 32.5123 44.421 33.5 44.5C34.4086 43.5921 36.3363 41.5158 37 40C37.8296 38.1053 39 36 40 30C40.6667 26 41 17.5 41 15C41 13.6406 39.7358 8.48684 39.1037 7.22368C38.7481 6.39473 37.8474 4.45263 37.0889 3.31579C36.3304 2.17894 35 2 35 2H33.5C34.2111 2.71053 34.7155 3.83684 35 4.5C35.3555 5.32895 34.1333 8.17105 32 9C29.8666 9.82894 25.4481 8.05263 24.5 7.22368C23.7415 6.56052 22.0012 5.26315 20.5 4Z" fill="#2FC4A7"/>
<path d="M20.5 4L16.5 4.5C17.2901 5.64473 17.3363 6.63158 18 9C18.8296 11.9605 19.6689 15.8973 17.5 18.5C15 21.5 12 22.5 11.5 23C11.1465 23.3536 11.8839 24.7763 11.7259 24.5C12.3975 26.4737 12.4311 27.9842 13 29.5C13.5689 31.0158 14.3284 36.5526 15 39C17.4494 40.1842 22.9918 42.6474 26.5 43.5C30.0081 44.3526 32.5123 44.421 33.5 44.5C34.4086 43.5921 36.3363 41.5158 37 40C37.8296 38.1053 39 36 40 30C40.6667 26 41 17.5 41 15C41 13.6406 39.7358 8.48684 39.1037 7.22368C38.7481 6.39473 37.8474 4.45263 37.0889 3.31579C36.3304 2.17894 35 2 35 2H33.5C34.2111 2.71053 34.7155 3.83684 35 4.5C35.3555 5.32895 34.1333 8.17105 32 9C29.8666 9.82894 25.4481 8.05263 24.5 7.22368C23.7415 6.56052 22.0012 5.26315 20.5 4Z" fill="white" fill-opacity="0.4"/>
<path fill-rule="evenodd" clip-rule="evenodd" d="M14.8371 2.47642L19.8516 1.29717C21.3287 2.55503 24.4696 5.23585 25.2159 5.89623C26.1488 6.72171 29.5306 8.01888 31.6297 7.1934C33.7288 6.36793 33.379 3.77359 33.0291 2.94812C32.7492 2.28774 31.2799 0.707548 30.5802 0L34.5451 0.589623C34.9968 0.94853 35.952 1.80034 36.6905 2.72693L35.4877 12.0163L27.2919 14.9999L17.3158 6.98713C16.5214 5.14113 15.4173 3.32714 14.8371 2.47642ZM17.9726 8.79731C17.977 8.81301 17.9814 8.82869 17.9857 8.84435C18.8021 11.7925 18.6854 16.2736 16.703 18.9859C16.0732 19.8474 15.3023 20.5424 14.521 21.0897C14.5789 21.19 14.6289 21.2983 14.672 21.398C14.7636 21.6102 14.8615 21.878 14.9631 22.1841C15.1669 22.7978 15.3964 23.598 15.6316 24.4856C15.8069 25.1471 15.9864 25.8608 16.162 26.5876L22.5139 24.3617L26.5785 15.7095L17.9726 8.79731ZM13.675 21.6266C12.2966 22.4178 11.036 22.7595 10.639 22.7595C10.0792 22.7595 9.62833 22.2091 9.47284 21.934C10.1337 23.8994 11.5952 28.2076 12.155 29.717C12.7147 31.2264 14.1763 36.478 14.8371 38.9151C15.3976 39.1894 16.135 39.5388 16.9802 39.9244C16.9403 37.4107 16.7308 33.8551 16.0002 30.3972C15.6281 28.6365 15.1308 26.4991 14.665 24.7418C14.4319 23.8623 14.2085 23.0847 14.0141 22.4993C13.9167 22.2059 13.8291 21.9687 13.7539 21.7943C13.7211 21.7184 13.6946 21.6641 13.675 21.6266ZM17.9858 40.3771C19.3167 40.9682 20.8193 41.6041 22.282 42.1651L26.6393 32.9144L22.6371 25.3781L16.3942 27.5659C16.6057 28.4722 16.8056 29.3719 16.9786 30.1905C17.7742 33.9558 17.9643 37.8148 17.9858 40.3771ZM23.2217 42.5168C24.3651 42.9333 25.4542 43.286 26.382 43.5142C29.8338 44.3633 32.6404 44.7327 33.6122 44.8114C34.5062 43.9073 36.4576 41.7217 37.1106 40.2123C37.6352 38.9998 38.3043 37.3002 38.9322 34.9884L36.928 29.435L27.568 33.2895L23.2217 42.5168ZM39.3673 33.2482C39.5587 32.4134 39.7415 31.5129 39.9094 30.5425C40.5182 27.0247 40.8027 22.4575 40.908 18.6507L39.5344 19.2253L37.7375 28.7323L39.3673 33.2482ZM40.9339 17.5558C40.9513 16.6713 40.9589 15.8422 40.9589 15.0944C40.9589 11.7925 39.715 8.45127 39.0931 7.1934C38.8078 6.52036 38.166 5.11039 37.5341 3.99901L36.4595 12.2981L39.3364 18.2242L40.9339 17.5558ZM23.4361 24.7505L27.5632 15.9653L35.6917 13.0062L38.5711 18.9376L36.7799 28.4145L27.4273 32.266L23.4361 24.7505Z" fill="#2FC4A7"/>
<path fill-rule="evenodd" clip-rule="evenodd" d="M14.8371 2.47642L19.8516 1.29717C21.3287 2.55503 24.4696 5.23585 25.2159 5.89623C26.1488 6.72171 29.5306 8.01888 31.6297 7.1934C33.7288 6.36793 33.379 3.77359 33.0291 2.94812C32.7492 2.28774 31.2799 0.707548 30.5802 0L34.5451 0.589623C34.9968 0.94853 35.952 1.80034 36.6905 2.72693L35.4877 12.0163L27.2919 14.9999L17.3158 6.98713C16.5214 5.14113 15.4173 3.32714 14.8371 2.47642ZM17.9726 8.79731C17.977 8.81301 17.9814 8.82869 17.9857 8.84435C18.8021 11.7925 18.6854 16.2736 16.703 18.9859C16.0732 19.8474 15.3023 20.5424 14.521 21.0897C14.5789 21.19 14.6289 21.2983 14.672 21.398C14.7636 21.6102 14.8615 21.878 14.9631 22.1841C15.1669 22.7978 15.3964 23.598 15.6316 24.4856C15.8069 25.1471 15.9864 25.8608 16.162 26.5876L22.5139 24.3617L26.5785 15.7095L17.9726 8.79731ZM13.675 21.6266C12.2966 22.4178 11.036 22.7595 10.639 22.7595C10.0792 22.7595 9.62833 22.2091 9.47284 21.934C10.1337 23.8994 11.5952 28.2076 12.155 29.717C12.7147 31.2264 14.1763 36.478 14.8371 38.9151C15.3976 39.1894 16.135 39.5388 16.9802 39.9244C16.9403 37.4107 16.7308 33.8551 16.0002 30.3972C15.6281 28.6365 15.1308 26.4991 14.665 24.7418C14.4319 23.8623 14.2085 23.0847 14.0141 22.4993C13.9167 22.2059 13.8291 21.9687 13.7539 21.7943C13.7211 21.7184 13.6946 21.6641 13.675 21.6266ZM17.9858 40.3771C19.3167 40.9682 20.8193 41.6041 22.282 42.1651L26.6393 32.9144L22.6371 25.3781L16.3942 27.5659C16.6057 28.4722 16.8056 29.3719 16.9786 30.1905C17.7742 33.9558 17.9643 37.8148 17.9858 40.3771ZM23.2217 42.5168C24.3651 42.9333 25.4542 43.286 26.382 43.5142C29.8338 44.3633 32.6404 44.7327 33.6122 44.8114C34.5062 43.9073 36.4576 41.7217 37.1106 40.2123C37.6352 38.9998 38.3043 37.3002 38.9322 34.9884L36.928 29.435L27.568 33.2895L23.2217 42.5168ZM39.3673 33.2482C39.5587 32.4134 39.7415 31.5129 39.9094 30.5425C40.5182 27.0247 40.8027 22.4575 40.908 18.6507L39.5344 19.2253L37.7375 28.7323L39.3673 33.2482ZM40.9339 17.5558C40.9513 16.6713 40.9589 15.8422 40.9589 15.0944C40.9589 11.7925 39.715 8.45127 39.0931 7.1934C38.8078 6.52036 38.166 5.11039 37.5341 3.99901L36.4595 12.2981L39.3364 18.2242L40.9339 17.5558ZM23.4361 24.7505L27.5632 15.9653L35.6917 13.0062L38.5711 18.9376L36.7799 28.4145L27.4273 32.266L23.4361 24.7505Z" fill="black" fill-opacity="0.2"/>
</svg>
