<svg width="50" height="50" viewBox="0 0 50 50" fill="none" xmlns="http://www.w3.org/2000/svg">
<path fill-rule="evenodd" clip-rule="evenodd" d="M20.1597 9.57633C18.8278 9.61985 17.5096 9.68166 16.1285 9.81475C15.9571 9.88098 15.7707 9.9558 15.5714 10.0385C15.2207 10.1842 14.8381 10.351 14.4397 10.5321C14.6736 10.512 14.8875 10.5 15.0652 10.5C15.912 10.5 17.1267 10.7738 17.6914 10.916C18.3765 10.5329 19.2962 10.0301 20.1465 9.58327C20.1509 9.58096 20.1553 9.57864 20.1597 9.57633ZM12.5696 10.3137C12.2529 10.3726 11.9308 10.4363 11.6028 10.5054C8.1137 11.386 6.31225 12.3291 3.34597 14.7454C1 16.6564 0 19.8125 0 21.5C0 23.1875 0.438449 25.8379 2 28C3.64395 30.2762 7.25122 34.2716 12.8302 36.8379C18.4091 39.4042 24 40.5 30.5 40.5C36.7361 40.5 39.7429 37.6437 41.7503 35.7367C41.8353 35.656 41.9185 35.577 42 35.5C43.7243 33.8715 44.0152 31.9955 44.4867 28.9555C44.5643 28.4545 44.6469 27.922 44.7416 27.3538C45.3346 23.7958 45.8401 23.4769 47.1109 22.675C47.2749 22.5716 47.4515 22.4602 47.6427 22.3327C48.2124 21.9529 48.6399 21.7282 48.9648 21.5575C49.5944 21.2266 49.8386 21.0983 49.9858 20.4359C50.0111 20.3224 50.0021 20.1947 49.9637 20.0552C49.9031 20.0813 49.8363 20.0958 49.7662 20.0958C49.4012 20.0958 48.3169 20.1792 47.1141 20.5228C45.7259 20.9195 44.266 22.1318 43.3079 24.3674C42.8456 25.4462 42.7072 27.0277 42.5939 28.6135L42.5763 28.8607V28.8608C42.5276 29.5503 42.4796 30.2293 42.4028 30.8246C42.3185 31.4777 42.1921 32.1025 41.9496 32.5528C41.7092 32.9993 41.2176 33.516 40.6354 34.0296C40.0393 34.5555 39.3005 35.1189 38.5142 35.6572C36.9523 36.7267 35.1473 37.7353 33.8505 38.148C32.7768 38.4896 31.6385 38.4948 30.6691 38.3741C29.8229 38.2687 29.0787 38.0641 28.5781 37.8784C27.6046 38.2838 25.5006 38.8228 23.2276 38.3857C20.9107 37.9401 19.2631 36.2447 18.5812 35.2595C17.3913 35.2041 15.0781 35.0124 13.6887 34.5782C12.6699 34.2598 11.6741 33.3975 10.9353 32.6726C10.6313 32.3743 10.3559 32.0838 10.1308 31.8464L10.1307 31.8463C10.0765 31.7891 10.0251 31.735 9.97705 31.6845C9.8503 31.5517 9.75053 31.4494 9.67452 31.3781C9.64591 31.3513 9.6248 31.3328 9.61014 31.3207C9.3424 31.2203 8.65073 30.9009 7.85194 30.395C6.98872 29.8483 5.95871 29.058 5.18387 28.0447C3.62077 26.0007 3.0602 22.8235 3.86764 19.4784C4.61291 16.3909 6.62353 14.55 8.21491 13.0929L8.21496 13.0929C8.38148 12.9404 8.54342 12.7921 8.69883 12.6471C9.07722 12.2939 9.70018 11.8821 10.4081 11.4686C10.6628 11.3198 10.9328 11.1683 11.2124 11.0166C11.2192 11.0127 11.226 11.009 11.233 11.0054C11.6628 10.7725 12.1151 10.5391 12.5696 10.3137ZM49.4264 19.1077C48.7867 18.281 47.7084 17.3089 46.6958 16.4602C46.6409 16.4836 46.5809 16.4975 46.5176 16.4997L42.8174 16.6303C42.2357 17.127 41.0899 18.0946 40.2596 18.7588C39.8659 19.0738 39.3952 19.6254 38.9534 20.2181C38.5754 20.7254 38.2381 21.2359 38.0147 21.5966C38.1778 22.6342 38.512 24.5949 38.756 25.4894C38.8754 25.9272 39.1614 26.5668 39.4894 27.2136C39.7073 27.6433 39.9355 28.0601 40.1277 28.3973C40.3197 28.289 40.5368 28.1704 40.7279 28.0748C41.0148 27.9314 41.3184 27.9118 41.5532 27.9285C41.583 27.9306 41.6124 27.9333 41.6413 27.9366C41.7493 26.5562 41.9168 25.0747 42.3887 23.9735C43.439 21.5228 45.1033 20.0573 46.8394 19.5613C47.8851 19.2625 48.8532 19.1429 49.4264 19.1077ZM45.5464 15.5334C44.9245 15.0706 44.1035 14.5346 43.1252 13.9753V15.6189L45.5464 15.5334ZM42.1252 13.4255C41.614 13.1551 41.0705 12.8831 40.4989 12.6149L35.8027 13.5919C35.0977 14.1066 33.6272 15.2419 32.7135 16.1556C32.2579 16.6113 31.6756 17.3867 31.1211 18.1963C30.6672 18.8588 30.2457 19.5238 29.9479 20.0134C30.1238 20.2593 30.3352 20.5737 30.54 20.9139C30.8292 21.3944 31.1247 21.9578 31.2767 22.4647C31.4659 23.0952 31.8687 24.0558 32.1863 24.7698C32.8641 24.1319 33.8673 23.2475 34.6578 22.7444C35.5737 22.1616 36.6275 21.4673 37.1227 21.1381C37.3593 20.7514 37.7312 20.1847 38.1516 19.6205C38.6025 19.0156 39.136 18.3771 39.6349 17.978C40.4332 17.3393 41.5349 16.4099 42.1252 15.9065V13.4255ZM38.9297 11.92C37.6803 11.3989 36.3323 10.9126 34.9227 10.5054C34.6681 10.4318 34.4175 10.3629 34.1707 10.2982L34.7541 11.1299C34.9597 11.3432 35.208 11.6721 35.4256 11.9779C35.5707 12.1817 35.7108 12.3877 35.8284 12.5651L38.9297 11.92ZM31.7537 9.77508C30.6858 9.59355 29.686 9.49027 28.7289 9.4367L29.5046 10.1377L31.7537 9.77508ZM27.1844 9.38868C26.0921 9.37973 25.0406 9.41897 23.9871 9.45828C23.5794 9.47349 23.1714 9.48872 22.7607 9.50117C22.6974 9.50308 22.6342 9.50497 22.5712 9.50682C22.2076 9.65014 21.4661 10.0194 20.6117 10.4685C19.6959 10.9498 18.6966 11.4978 18.0056 11.8863C17.2524 12.3099 16.5646 12.7783 16.0883 13.2546C14.8517 14.4912 14.106 16.3352 13.8832 17.1275C14.0475 17.4947 14.376 18.2151 14.6198 18.7027L15.2911 20.0452C15.8826 19.7792 16.8206 19.4266 17.8682 19.217C18.9985 18.991 20.1582 18.6945 20.7907 18.5218C21.1575 17.2277 22.2285 14.752 24.2413 13.1768C25.8573 11.912 27.4442 11.0154 28.445 10.528L27.1844 9.38868ZM15.0652 11.5C15.4641 11.5 15.9844 11.5762 16.4615 11.6675C16.0612 11.9433 15.6905 12.2382 15.3812 12.5475C14.0593 13.8693 13.264 15.7425 12.9685 16.695C12.7993 16.7897 12.5968 16.8987 12.3678 17.022C11.3401 17.5754 9.77885 18.416 8.29357 19.5306C7.44245 20.1693 6.54728 21.1363 5.78952 22.0767C5.32925 22.6479 4.90996 23.2214 4.57268 23.7239C4.42442 22.4956 4.49697 21.1331 4.83972 19.7131C5.50984 16.9369 7.29626 15.2958 8.89621 13.826L8.89626 13.8259C9.06032 13.6752 9.22241 13.5263 9.38114 13.3782C9.67222 13.1065 10.2116 12.7415 10.9125 12.332C11.1379 12.2004 11.3766 12.066 11.6244 11.9308L11.8052 11.9018C12.1817 11.8414 12.7144 11.7558 13.2631 11.6785C13.9681 11.5793 14.6591 11.5 15.0652 11.5ZM12.7876 17.9328C12.8887 17.8783 12.9858 17.826 13.0785 17.7758C13.258 18.172 13.5189 18.7369 13.7254 19.1499L14.4567 20.6125L14.428 20.6466C14.2913 20.8103 14.1175 21.0404 13.9033 21.351C13.4744 21.9728 12.8712 22.9351 12.0631 24.3717C10.6736 26.8419 9.94495 29.0597 9.66062 30.2541C9.36774 30.1169 8.90921 29.8809 8.38699 29.5502C7.57652 29.0369 6.6539 28.3209 5.97823 27.4373C5.4946 26.8048 5.11325 26.0289 4.85907 25.1482C4.8744 25.1285 4.88846 25.1075 4.90105 25.0851C5.21866 24.5205 5.83242 23.6172 6.56818 22.7041C7.30616 21.7883 8.14045 20.8957 8.89377 20.3304C10.3098 19.2678 11.7579 18.4876 12.7876 17.9328ZM15.3277 21.141C15.3307 21.1381 15.3328 21.136 15.334 21.1347C15.7312 20.9235 16.8134 20.4478 18.0643 20.1976C19.2085 19.9688 20.3769 19.6709 21.0321 19.4925C21.3225 19.8761 21.8111 20.5536 22.1069 21.0712C22.4066 21.5957 22.8488 22.5653 23.1035 23.1471C22.6341 24.0608 21.6801 26.0077 20.8521 27.995C20.0252 29.9795 19.0761 32.7992 18.6081 34.2597C17.4315 34.204 15.2412 34.0157 13.987 33.6237C13.2206 33.3842 12.3753 32.6845 11.6357 31.9588C11.3459 31.6745 11.086 31.4004 10.8615 31.1636C10.8057 31.1047 10.752 31.0482 10.7006 30.9943C10.6508 30.9421 10.6024 30.8916 10.5559 30.844C10.7296 29.9273 11.415 27.5636 12.9347 24.8619C13.7334 23.442 14.3203 22.5076 14.7265 21.9187C14.9298 21.624 15.0847 21.4204 15.1955 21.2877C15.2688 21.1999 15.3114 21.1574 15.3277 21.141ZM22.9751 20.5751C22.6201 19.9538 22.0389 19.1608 21.7539 18.7899C22.0831 17.6283 23.0669 15.3657 24.8576 13.9643C26.8263 12.4236 28.7422 11.459 29.4828 11.1541L33.1364 10.5651L33.959 11.7377L33.984 11.7733L34.0148 11.8041C34.1604 11.9497 34.3808 12.2344 34.6109 12.5578C34.7187 12.7092 34.8239 12.8623 34.9181 13.0025C34.1332 13.5905 32.8574 14.5975 32.0064 15.4485C31.4801 15.9748 30.8536 16.8172 30.2961 17.6312C29.7833 18.3797 29.3116 19.1299 29.003 19.6434C28.3134 19.9296 27.0126 20.483 26.3342 20.8222C25.7318 21.1234 24.6269 21.8699 23.8675 22.4029C23.6047 21.8166 23.2448 21.047 22.9751 20.5751ZM26.7814 21.7167C27.3649 21.4249 28.4635 20.953 29.1767 20.6544C29.3292 20.8705 29.5088 21.1399 29.6832 21.4297C29.9593 21.8883 30.2032 22.3664 30.3189 22.7521C30.5656 23.5743 31.1213 24.8523 31.4529 25.5756C30.9185 26.399 29.9434 28.1653 29.2077 30.3724C28.4421 32.6691 28.2754 35.5056 28.284 36.9164C27.5225 37.2571 25.5453 37.813 23.4165 37.4037C21.5213 37.0392 20.1107 35.6587 19.4841 34.8042C19.9148 33.4438 20.9168 30.4396 21.7752 28.3796C22.6236 26.3434 23.6087 24.3453 24.0453 23.5027C24.7591 22.9909 26.1408 22.037 26.7814 21.7167ZM30.1564 30.6886C30.9293 28.3697 31.9752 26.5706 32.4096 25.9438C32.9826 25.3741 34.2797 24.1704 35.1947 23.5881C35.8516 23.17 36.5775 22.6961 37.1213 22.338C37.3005 23.4248 37.5741 24.9565 37.7912 25.7526C37.9396 26.2967 38.2673 27.0146 38.5976 27.6659C38.8768 28.2165 39.1714 28.7454 39.3941 29.1268C39.1334 29.7977 38.6308 31.0072 38.1694 31.8531C37.5945 32.9071 37.1519 34.7055 37.0024 35.4528C35.7456 36.2411 34.4709 36.9012 33.5473 37.195C32.6571 37.4783 31.6755 37.4917 30.7926 37.3818C30.2125 37.3095 29.6902 37.186 29.2857 37.0619C29.2637 35.7782 29.4097 32.9286 30.1564 30.6886ZM39.0473 32.332C39.5543 31.4024 40.0927 30.0952 40.3523 29.4214C40.5716 29.2933 40.907 29.1033 41.1751 28.9693C41.2452 28.9342 41.3507 28.9166 41.4823 28.926C41.5122 28.9281 41.5411 28.9314 41.5685 28.9356C41.5231 29.5753 41.4787 30.1721 41.411 30.6966C41.3279 31.3406 41.2172 31.8037 41.0691 32.0787C40.9191 32.3574 40.5459 32.7751 39.9739 33.2797C39.4823 33.7134 38.8769 34.1828 38.2189 34.6451C38.4239 33.8676 38.719 32.9339 39.0473 32.332ZM9.59021 31.3053C9.58934 31.3047 9.58894 31.3045 9.58899 31.3045C9.58909 31.3047 9.59079 31.3059 9.59398 31.308C9.59229 31.3067 9.59104 31.3058 9.59021 31.3053Z" fill="#2FC4A7"/>
<path fill-rule="evenodd" clip-rule="evenodd" d="M20.1597 9.57633C18.8278 9.61985 17.5096 9.68166 16.1285 9.81475C15.9571 9.88098 15.7707 9.9558 15.5714 10.0385C15.2207 10.1842 14.8381 10.351 14.4397 10.5321C14.6736 10.512 14.8875 10.5 15.0652 10.5C15.912 10.5 17.1267 10.7738 17.6914 10.916C18.3765 10.5329 19.2962 10.0301 20.1465 9.58327C20.1509 9.58096 20.1553 9.57864 20.1597 9.57633ZM12.5696 10.3137C12.2529 10.3726 11.9308 10.4363 11.6028 10.5054C8.1137 11.386 6.31225 12.3291 3.34597 14.7454C1 16.6564 0 19.8125 0 21.5C0 23.1875 0.438449 25.8379 2 28C3.64395 30.2762 7.25122 34.2716 12.8302 36.8379C18.4091 39.4042 24 40.5 30.5 40.5C36.7361 40.5 39.7429 37.6437 41.7503 35.7367C41.8353 35.656 41.9185 35.577 42 35.5C43.7243 33.8715 44.0152 31.9955 44.4867 28.9555C44.5643 28.4545 44.6469 27.922 44.7416 27.3538C45.3346 23.7958 45.8401 23.4769 47.1109 22.675C47.2749 22.5716 47.4515 22.4602 47.6427 22.3327C48.2124 21.9529 48.6399 21.7282 48.9648 21.5575C49.5944 21.2266 49.8386 21.0983 49.9858 20.4359C50.0111 20.3224 50.0021 20.1947 49.9637 20.0552C49.9031 20.0813 49.8363 20.0958 49.7662 20.0958C49.4012 20.0958 48.3169 20.1792 47.1141 20.5228C45.7259 20.9195 44.266 22.1318 43.3079 24.3674C42.8456 25.4462 42.7072 27.0277 42.5939 28.6135L42.5763 28.8607V28.8608C42.5276 29.5503 42.4796 30.2293 42.4028 30.8246C42.3185 31.4777 42.1921 32.1025 41.9496 32.5528C41.7092 32.9993 41.2176 33.516 40.6354 34.0296C40.0393 34.5555 39.3005 35.1189 38.5142 35.6572C36.9523 36.7267 35.1473 37.7353 33.8505 38.148C32.7768 38.4896 31.6385 38.4948 30.6691 38.3741C29.8229 38.2687 29.0787 38.0641 28.5781 37.8784C27.6046 38.2838 25.5006 38.8228 23.2276 38.3857C20.9107 37.9401 19.2631 36.2447 18.5812 35.2595C17.3913 35.2041 15.0781 35.0124 13.6887 34.5782C12.6699 34.2598 11.6741 33.3975 10.9353 32.6726C10.6313 32.3743 10.3559 32.0838 10.1308 31.8464L10.1307 31.8463C10.0765 31.7891 10.0251 31.735 9.97705 31.6845C9.8503 31.5517 9.75053 31.4494 9.67452 31.3781C9.64591 31.3513 9.6248 31.3328 9.61014 31.3207C9.3424 31.2203 8.65073 30.9009 7.85194 30.395C6.98872 29.8483 5.95871 29.058 5.18387 28.0447C3.62077 26.0007 3.0602 22.8235 3.86764 19.4784C4.61291 16.3909 6.62353 14.55 8.21491 13.0929L8.21496 13.0929C8.38148 12.9404 8.54342 12.7921 8.69883 12.6471C9.07722 12.2939 9.70018 11.8821 10.4081 11.4686C10.6628 11.3198 10.9328 11.1683 11.2124 11.0166C11.2192 11.0127 11.226 11.009 11.233 11.0054C11.6628 10.7725 12.1151 10.5391 12.5696 10.3137ZM49.4264 19.1077C48.7867 18.281 47.7084 17.3089 46.6958 16.4602C46.6409 16.4836 46.5809 16.4975 46.5176 16.4997L42.8174 16.6303C42.2357 17.127 41.0899 18.0946 40.2596 18.7588C39.8659 19.0738 39.3952 19.6254 38.9534 20.2181C38.5754 20.7254 38.2381 21.2359 38.0147 21.5966C38.1778 22.6342 38.512 24.5949 38.756 25.4894C38.8754 25.9272 39.1614 26.5668 39.4894 27.2136C39.7073 27.6433 39.9355 28.0601 40.1277 28.3973C40.3197 28.289 40.5368 28.1704 40.7279 28.0748C41.0148 27.9314 41.3184 27.9118 41.5532 27.9285C41.583 27.9306 41.6124 27.9333 41.6413 27.9366C41.7493 26.5562 41.9168 25.0747 42.3887 23.9735C43.439 21.5228 45.1033 20.0573 46.8394 19.5613C47.8851 19.2625 48.8532 19.1429 49.4264 19.1077ZM45.5464 15.5334C44.9245 15.0706 44.1035 14.5346 43.1252 13.9753V15.6189L45.5464 15.5334ZM42.1252 13.4255C41.614 13.1551 41.0705 12.8831 40.4989 12.6149L35.8027 13.5919C35.0977 14.1066 33.6272 15.2419 32.7135 16.1556C32.2579 16.6113 31.6756 17.3867 31.1211 18.1963C30.6672 18.8588 30.2457 19.5238 29.9479 20.0134C30.1238 20.2593 30.3352 20.5737 30.54 20.9139C30.8292 21.3944 31.1247 21.9578 31.2767 22.4647C31.4659 23.0952 31.8687 24.0558 32.1863 24.7698C32.8641 24.1319 33.8673 23.2475 34.6578 22.7444C35.5737 22.1616 36.6275 21.4673 37.1227 21.1381C37.3593 20.7514 37.7312 20.1847 38.1516 19.6205C38.6025 19.0156 39.136 18.3771 39.6349 17.978C40.4332 17.3393 41.5349 16.4099 42.1252 15.9065V13.4255ZM38.9297 11.92C37.6803 11.3989 36.3323 10.9126 34.9227 10.5054C34.6681 10.4318 34.4175 10.3629 34.1707 10.2982L34.7541 11.1299C34.9597 11.3432 35.208 11.6721 35.4256 11.9779C35.5707 12.1817 35.7108 12.3877 35.8284 12.5651L38.9297 11.92ZM31.7537 9.77508C30.6858 9.59355 29.686 9.49027 28.7289 9.4367L29.5046 10.1377L31.7537 9.77508ZM27.1844 9.38868C26.0921 9.37973 25.0406 9.41897 23.9871 9.45828C23.5794 9.47349 23.1714 9.48872 22.7607 9.50117C22.6974 9.50308 22.6342 9.50497 22.5712 9.50682C22.2076 9.65014 21.4661 10.0194 20.6117 10.4685C19.6959 10.9498 18.6966 11.4978 18.0056 11.8863C17.2524 12.3099 16.5646 12.7783 16.0883 13.2546C14.8517 14.4912 14.106 16.3352 13.8832 17.1275C14.0475 17.4947 14.376 18.2151 14.6198 18.7027L15.2911 20.0452C15.8826 19.7792 16.8206 19.4266 17.8682 19.217C18.9985 18.991 20.1582 18.6945 20.7907 18.5218C21.1575 17.2277 22.2285 14.752 24.2413 13.1768C25.8573 11.912 27.4442 11.0154 28.445 10.528L27.1844 9.38868ZM15.0652 11.5C15.4641 11.5 15.9844 11.5762 16.4615 11.6675C16.0612 11.9433 15.6905 12.2382 15.3812 12.5475C14.0593 13.8693 13.264 15.7425 12.9685 16.695C12.7993 16.7897 12.5968 16.8987 12.3678 17.022C11.3401 17.5754 9.77885 18.416 8.29357 19.5306C7.44245 20.1693 6.54728 21.1363 5.78952 22.0767C5.32925 22.6479 4.90996 23.2214 4.57268 23.7239C4.42442 22.4956 4.49697 21.1331 4.83972 19.7131C5.50984 16.9369 7.29626 15.2958 8.89621 13.826L8.89626 13.8259C9.06032 13.6752 9.22241 13.5263 9.38114 13.3782C9.67222 13.1065 10.2116 12.7415 10.9125 12.332C11.1379 12.2004 11.3766 12.066 11.6244 11.9308L11.8052 11.9018C12.1817 11.8414 12.7144 11.7558 13.2631 11.6785C13.9681 11.5793 14.6591 11.5 15.0652 11.5ZM12.7876 17.9328C12.8887 17.8783 12.9858 17.826 13.0785 17.7758C13.258 18.172 13.5189 18.7369 13.7254 19.1499L14.4567 20.6125L14.428 20.6466C14.2913 20.8103 14.1175 21.0404 13.9033 21.351C13.4744 21.9728 12.8712 22.9351 12.0631 24.3717C10.6736 26.8419 9.94495 29.0597 9.66062 30.2541C9.36774 30.1169 8.90921 29.8809 8.38699 29.5502C7.57652 29.0369 6.6539 28.3209 5.97823 27.4373C5.4946 26.8048 5.11325 26.0289 4.85907 25.1482C4.8744 25.1285 4.88846 25.1075 4.90105 25.0851C5.21866 24.5205 5.83242 23.6172 6.56818 22.7041C7.30616 21.7883 8.14045 20.8957 8.89377 20.3304C10.3098 19.2678 11.7579 18.4876 12.7876 17.9328ZM15.3277 21.141C15.3307 21.1381 15.3328 21.136 15.334 21.1347C15.7312 20.9235 16.8134 20.4478 18.0643 20.1976C19.2085 19.9688 20.3769 19.6709 21.0321 19.4925C21.3225 19.8761 21.8111 20.5536 22.1069 21.0712C22.4066 21.5957 22.8488 22.5653 23.1035 23.1471C22.6341 24.0608 21.6801 26.0077 20.8521 27.995C20.0252 29.9795 19.0761 32.7992 18.6081 34.2597C17.4315 34.204 15.2412 34.0157 13.987 33.6237C13.2206 33.3842 12.3753 32.6845 11.6357 31.9588C11.3459 31.6745 11.086 31.4004 10.8615 31.1636C10.8057 31.1047 10.752 31.0482 10.7006 30.9943C10.6508 30.9421 10.6024 30.8916 10.5559 30.844C10.7296 29.9273 11.415 27.5636 12.9347 24.8619C13.7334 23.442 14.3203 22.5076 14.7265 21.9187C14.9298 21.624 15.0847 21.4204 15.1955 21.2877C15.2688 21.1999 15.3114 21.1574 15.3277 21.141ZM22.9751 20.5751C22.6201 19.9538 22.0389 19.1608 21.7539 18.7899C22.0831 17.6283 23.0669 15.3657 24.8576 13.9643C26.8263 12.4236 28.7422 11.459 29.4828 11.1541L33.1364 10.5651L33.959 11.7377L33.984 11.7733L34.0148 11.8041C34.1604 11.9497 34.3808 12.2344 34.6109 12.5578C34.7187 12.7092 34.8239 12.8623 34.9181 13.0025C34.1332 13.5905 32.8574 14.5975 32.0064 15.4485C31.4801 15.9748 30.8536 16.8172 30.2961 17.6312C29.7833 18.3797 29.3116 19.1299 29.003 19.6434C28.3134 19.9296 27.0126 20.483 26.3342 20.8222C25.7318 21.1234 24.6269 21.8699 23.8675 22.4029C23.6047 21.8166 23.2448 21.047 22.9751 20.5751ZM26.7814 21.7167C27.3649 21.4249 28.4635 20.953 29.1767 20.6544C29.3292 20.8705 29.5088 21.1399 29.6832 21.4297C29.9593 21.8883 30.2032 22.3664 30.3189 22.7521C30.5656 23.5743 31.1213 24.8523 31.4529 25.5756C30.9185 26.399 29.9434 28.1653 29.2077 30.3724C28.4421 32.6691 28.2754 35.5056 28.284 36.9164C27.5225 37.2571 25.5453 37.813 23.4165 37.4037C21.5213 37.0392 20.1107 35.6587 19.4841 34.8042C19.9148 33.4438 20.9168 30.4396 21.7752 28.3796C22.6236 26.3434 23.6087 24.3453 24.0453 23.5027C24.7591 22.9909 26.1408 22.037 26.7814 21.7167ZM30.1564 30.6886C30.9293 28.3697 31.9752 26.5706 32.4096 25.9438C32.9826 25.3741 34.2797 24.1704 35.1947 23.5881C35.8516 23.17 36.5775 22.6961 37.1213 22.338C37.3005 23.4248 37.5741 24.9565 37.7912 25.7526C37.9396 26.2967 38.2673 27.0146 38.5976 27.6659C38.8768 28.2165 39.1714 28.7454 39.3941 29.1268C39.1334 29.7977 38.6308 31.0072 38.1694 31.8531C37.5945 32.9071 37.1519 34.7055 37.0024 35.4528C35.7456 36.2411 34.4709 36.9012 33.5473 37.195C32.6571 37.4783 31.6755 37.4917 30.7926 37.3818C30.2125 37.3095 29.6902 37.186 29.2857 37.0619C29.2637 35.7782 29.4097 32.9286 30.1564 30.6886ZM39.0473 32.332C39.5543 31.4024 40.0927 30.0952 40.3523 29.4214C40.5716 29.2933 40.907 29.1033 41.1751 28.9693C41.2452 28.9342 41.3507 28.9166 41.4823 28.926C41.5122 28.9281 41.5411 28.9314 41.5685 28.9356C41.5231 29.5753 41.4787 30.1721 41.411 30.6966C41.3279 31.3406 41.2172 31.8037 41.0691 32.0787C40.9191 32.3574 40.5459 32.7751 39.9739 33.2797C39.4823 33.7134 38.8769 34.1828 38.2189 34.6451C38.4239 33.8676 38.719 32.9339 39.0473 32.332ZM9.59021 31.3053C9.58934 31.3047 9.58894 31.3045 9.58899 31.3045C9.58909 31.3047 9.59079 31.3059 9.59398 31.308C9.59229 31.3067 9.59104 31.3058 9.59021 31.3053Z" fill="black" fill-opacity="0.2"/>
</svg>
