<svg width="50" height="50" viewBox="0 0 50 50" fill="none" xmlns="http://www.w3.org/2000/svg">
<path d="M26 4.5C21.7299 4.90816 14.7202 3.85031 11 2.99997C10.6765 5.38093 9.40637 7.75508 9.01818 10.2041C8.53294 13.2653 6.59199 22.449 7.07723 30.6122C7.47148 37.2449 10.6356 46.2585 12.4149 50L24 49.5C24.9705 43.0374 24.934 30.6122 26.4868 30.6122C28.0395 30.6122 28.913 35.2041 29.8834 38.7755C30.6598 41.6326 32.3096 46.4285 33.2801 48.4694L42.0144 45.9183C42.1515 42.9634 42.9047 37.0423 42.9849 32.653C43.0939 26.685 42.5967 21.9387 42.0144 18.8775C41.0439 13.7755 37.6473 7.65303 37.162 5.61222C36.7738 3.97956 35.5 3.69048 35.5 2.5C34.0443 3.0102 30.2701 4.09184 26 4.5Z" fill="#2FC4A7"/>
<path d="M26 4.5C21.7299 4.90816 14.7202 3.85031 11 2.99997C10.6765 5.38093 9.40637 7.75508 9.01818 10.2041C8.53294 13.2653 6.59199 22.449 7.07723 30.6122C7.47148 37.2449 10.6356 46.2585 12.4149 50L24 49.5C24.9705 43.0374 24.934 30.6122 26.4868 30.6122C28.0395 30.6122 28.913 35.2041 29.8834 38.7755C30.6598 41.6326 32.3096 46.4285 33.2801 48.4694L42.0144 45.9183C42.1515 42.9634 42.9047 37.0423 42.9849 32.653C43.0939 26.685 42.5967 21.9387 42.0144 18.8775C41.0439 13.7755 37.6473 7.65303 37.162 5.61222C36.7738 3.97956 35.5 3.69048 35.5 2.5C34.0443 3.0102 30.2701 4.09184 26 4.5Z" fill="white" fill-opacity="0.2"/>
<path fill-rule="evenodd" clip-rule="evenodd" d="M10.5 2.5C14.2202 3.35034 22.2167 4.90816 26.4868 4.5C30.7569 4.09184 35.0443 3.51023 36.5 3.00003C36.5 3.68071 36.5895 3.90325 36.7388 4.27421C36.8505 4.55203 36.9958 4.91311 37.162 5.61224C37.3379 6.35188 37.8962 7.62762 38.5828 9.19661C39.5775 11.4697 40.8416 14.3584 41.6023 17.1239L35.0573 19.8481L29.627 10.1147L31.1329 5.14499L30.1758 4.855L28.7092 9.69501L21.682 10.1244L18.2362 4.73081L17.3935 5.26919L20.8432 10.669L15.4082 21.2966L7.60042 19.1467C7.9623 16.2407 8.41303 13.6827 8.73038 11.8816C8.84869 11.2102 8.94846 10.6439 9.01818 10.2041C9.19688 9.07672 9.45652 7.85927 9.71626 6.6413C10.0208 5.21345 10.3254 3.78491 10.5 2.5ZM7.48074 20.151C7.1053 23.4532 6.86999 27.1258 7.07723 30.6122C7.25423 33.59 7.98955 37.0477 8.90718 40.2928L8.94061 40.1405L19.1157 42.375L21.4666 31.1086L15.3607 22.3207L7.48074 20.151ZM9.17466 41.2158C10.2489 44.8358 11.5107 48.0986 12.4149 50L20.8019 49.638L19.0992 43.3952L9.17466 41.2158ZM21.8264 49.5938L24 49.5C24.3561 47.129 24.5766 43.9554 24.7898 40.8872C25.0432 37.2399 25.2862 33.7417 25.7343 31.918L22.3966 31.5471L20.016 42.9561L21.8264 49.5938ZM27.0771 30.8468C26.8913 30.695 26.6952 30.6122 26.4868 30.6122C26.3353 30.6122 26.199 30.7304 26.0754 30.9497L22.281 30.5281L16.2496 21.8476L21.7342 11.1231L28.8035 10.6911L34.2829 20.5126L30.2907 30.0733L27.0771 30.8468ZM27.7312 31.7179C28.3807 32.9309 28.9027 34.974 29.4165 36.9849C29.5718 37.5926 29.7264 38.1974 29.8834 38.7755C30.6598 41.6327 32.3096 46.4286 33.2801 48.4694L34.3379 48.1604V40.7281L30.3555 31.0862L27.7312 31.7179ZM35.3379 47.8684L42.0144 45.9184C42.0682 44.7595 42.2167 43.1445 42.3822 41.3447C42.473 40.3579 42.5688 39.3157 42.657 38.2625L35.3379 40.9768V47.8684ZM42.7455 37.1631C42.8658 35.6013 42.9594 34.0496 42.9849 32.6531C43.0939 26.685 42.5967 21.9388 42.0144 18.8776C41.9658 18.6219 41.9111 18.3637 41.851 18.1036L35.22 20.8636L31.1957 30.501L35.116 39.9925L42.7455 37.1631Z" fill="#2FC4A7"/>
<path fill-rule="evenodd" clip-rule="evenodd" d="M10.5 2.5C14.2202 3.35034 22.2167 4.90816 26.4868 4.5C30.7569 4.09184 35.0443 3.51023 36.5 3.00003C36.5 3.68071 36.5895 3.90325 36.7388 4.27421C36.8505 4.55203 36.9958 4.91311 37.162 5.61224C37.3379 6.35188 37.8962 7.62762 38.5828 9.19661C39.5775 11.4697 40.8416 14.3584 41.6023 17.1239L35.0573 19.8481L29.627 10.1147L31.1329 5.14499L30.1758 4.855L28.7092 9.69501L21.682 10.1244L18.2362 4.73081L17.3935 5.26919L20.8432 10.669L15.4082 21.2966L7.60042 19.1467C7.9623 16.2407 8.41303 13.6827 8.73038 11.8816C8.84869 11.2102 8.94846 10.6439 9.01818 10.2041C9.19688 9.07672 9.45652 7.85927 9.71626 6.6413C10.0208 5.21345 10.3254 3.78491 10.5 2.5ZM7.48074 20.151C7.1053 23.4532 6.86999 27.1258 7.07723 30.6122C7.25423 33.59 7.98955 37.0477 8.90718 40.2928L8.94061 40.1405L19.1157 42.375L21.4666 31.1086L15.3607 22.3207L7.48074 20.151ZM9.17466 41.2158C10.2489 44.8358 11.5107 48.0986 12.4149 50L20.8019 49.638L19.0992 43.3952L9.17466 41.2158ZM21.8264 49.5938L24 49.5C24.3561 47.129 24.5766 43.9554 24.7898 40.8872C25.0432 37.2399 25.2862 33.7417 25.7343 31.918L22.3966 31.5471L20.016 42.9561L21.8264 49.5938ZM27.0771 30.8468C26.8913 30.695 26.6952 30.6122 26.4868 30.6122C26.3353 30.6122 26.199 30.7304 26.0754 30.9497L22.281 30.5281L16.2496 21.8476L21.7342 11.1231L28.8035 10.6911L34.2829 20.5126L30.2907 30.0733L27.0771 30.8468ZM27.7312 31.7179C28.3807 32.9309 28.9027 34.974 29.4165 36.9849C29.5718 37.5926 29.7264 38.1974 29.8834 38.7755C30.6598 41.6327 32.3096 46.4286 33.2801 48.4694L34.3379 48.1604V40.7281L30.3555 31.0862L27.7312 31.7179ZM35.3379 47.8684L42.0144 45.9184C42.0682 44.7595 42.2167 43.1445 42.3822 41.3447C42.473 40.3579 42.5688 39.3157 42.657 38.2625L35.3379 40.9768V47.8684ZM42.7455 37.1631C42.8658 35.6013 42.9594 34.0496 42.9849 32.6531C43.0939 26.685 42.5967 21.9388 42.0144 18.8776C41.9658 18.6219 41.9111 18.3637 41.851 18.1036L35.22 20.8636L31.1957 30.501L35.116 39.9925L42.7455 37.1631Z" fill="black" fill-opacity="0.2"/>
<path d="M24 1.5C20.8 1.5 13.6667 0.666667 10.5 0L10 5C13.3333 5.66667 19.5 6.5 24.5 6.5C28.1 6.5 34.3333 5.5 37 5L36.5 0C33.6667 0.666667 27.2 1.5 24 1.5Z" fill="#2FC4A7"/>
<path d="M24 1.5C20.8 1.5 13.6667 0.666667 10.5 0L10 5C13.3333 5.66667 19.5 6.5 24.5 6.5C28.1 6.5 34.3333 5.5 37 5L36.5 0C33.6667 0.666667 27.2 1.5 24 1.5Z" fill="black" fill-opacity="0.4"/>
</svg>
