<svg width="50" height="50" viewBox="0 0 50 50" fill="none" xmlns="http://www.w3.org/2000/svg">
<circle cx="24.9075" cy="24.9073" r="22.4167" stroke="#1D8CE0" stroke-width="0.996296"/>
<circle cx="24.9075" cy="24.9073" r="22.4167" stroke="white" stroke-opacity="0.95" stroke-width="0.996296"/>
<path d="M40.3501 31.8814C43.5383 24.3096 40.3501 15.4425 35.3687 10.9592C36.365 15.4425 35.6675 22.1177 32.8779 28.8925C30.0883 35.6673 23.7452 40.0178 20.9224 41.3462C26.402 42.8407 37.162 39.4533 40.3501 31.8814Z" fill="#FEFEFE" fill-opacity="0.15"/>
<path d="M24.6324 11.4634C22.5419 10.2716 18.0026 9.13951 16.5692 14.1447C15.2253 14.5916 12.6271 16.1111 12.9855 18.6137C13.3439 21.1163 16.1212 21.7419 17.4651 21.7419C17.4651 22.7847 18.8089 25.049 24.1844 25.764C29.5599 26.479 32.397 24.2744 33.1436 23.0826C33.8902 23.6785 35.8314 24.6021 37.6232 23.5295C39.415 22.457 39.863 19.8054 39.863 18.6137C40.3109 18.1668 41.1173 16.9155 40.7589 15.4854C40.4005 14.0554 38.2205 13.9958 37.1752 14.1447C37.1752 13.5489 36.4585 11.9996 33.5916 10.5696C30.7246 9.13951 26.4242 10.5696 24.6324 11.4634Z" fill="#546DDB"/>
<path d="M24.6324 11.4634C22.5419 10.2716 18.0026 9.13951 16.5692 14.1447C15.2253 14.5916 12.6271 16.1111 12.9855 18.6137C13.3439 21.1163 16.1212 21.7419 17.4651 21.7419C17.4651 22.7847 18.8089 25.049 24.1844 25.764C29.5599 26.479 32.397 24.2744 33.1436 23.0826C33.8902 23.6785 35.8314 24.6021 37.6232 23.5295C39.415 22.457 39.863 19.8054 39.863 18.6137C40.3109 18.1668 41.1173 16.9155 40.7589 15.4854C40.4005 14.0554 38.2205 13.9958 37.1752 14.1447C37.1752 13.5489 36.4585 11.9996 33.5916 10.5696C30.7246 9.13951 26.4242 10.5696 24.6324 11.4634Z" fill="black" fill-opacity="0.2"/>
<path fill-rule="evenodd" clip-rule="evenodd" d="M17.0518 31.0855C21.4299 31.636 25.7938 29.1917 27.4933 24.8992C29.1928 20.6069 27.6851 15.8378 24.1169 13.2421C24.9279 13.3441 25.7394 13.5488 26.5346 13.8637C31.6222 15.878 34.1136 21.6353 32.0992 26.723C30.0849 31.8106 24.3276 34.3019 19.2399 32.2876C18.4447 31.9727 17.7129 31.5664 17.0518 31.0855Z" fill="#CE4317"/>
<path d="M18.8121 32.6316C20.0813 32.0358 22.8373 31.4697 23.7076 33.9723C24.5235 34.1958 26.101 34.9555 25.8834 36.2068C25.6658 37.4581 23.9796 37.7709 23.1637 37.7709C23.1637 38.2923 22.3477 39.4244 19.0841 39.782C15.8204 40.1395 14.0979 39.0371 13.6446 38.4413C13.1913 38.7392 12.0127 39.201 10.9248 38.6647C9.83692 38.1285 9.56494 36.8027 9.56494 36.2068C9.29297 35.9834 8.80341 35.3577 9.02099 34.6427C9.23857 33.9276 10.5622 33.8978 11.1968 33.9723C11.1968 33.6744 11.6319 32.8998 13.3726 32.1848C15.1132 31.4697 17.7242 32.1848 18.8121 32.6316Z" fill="#546DDB"/>
<path d="M18.8121 32.6316C20.0813 32.0358 22.8373 31.4697 23.7076 33.9723C24.5235 34.1958 26.101 34.9555 25.8834 36.2068C25.6658 37.4581 23.9796 37.7709 23.1637 37.7709C23.1637 38.2923 22.3477 39.4244 19.0841 39.782C15.8204 40.1395 14.0979 39.0371 13.6446 38.4413C13.1913 38.7392 12.0127 39.201 10.9248 38.6647C9.83692 38.1285 9.56494 36.8027 9.56494 36.2068C9.29297 35.9834 8.80341 35.3577 9.02099 34.6427C9.23857 33.9276 10.5622 33.8978 11.1968 33.9723C11.1968 33.6744 11.6319 32.8998 13.3726 32.1848C15.1132 31.4697 17.7242 32.1848 18.8121 32.6316Z" fill="white" fill-opacity="0.2"/>
<path d="M14.4463 8.96666C11.6057 11.4681 10.4611 14.9444 10.4611 17.9333C10.9468 15.8739 14.0426 11.6996 16.937 9.96295C19.4003 8.48499 21.4204 6.97407 24.9074 6.47591C21.4204 5.97777 17.2869 6.46523 14.4463 8.96666Z" fill="#FEFEFE"/>
<path d="M33.874 39.8519C37.3611 37.8592 40.8481 32.8778 40.8481 29.8889C40.1079 32.8778 36.163 36.7039 33.3759 38.3574C30.3241 40.1679 24.4092 41.8444 20.9222 41.8444C24.4092 42.8407 29.8889 42.1291 33.874 39.8519Z" fill="#FEFEFE"/>
</svg>
