<svg width="50" height="50" viewBox="0 0 50 50" fill="none" xmlns="http://www.w3.org/2000/svg">
<g clip-path="url(#clip0_5929_9699)">
<path d="M45.0037 37.5001C45.0037 39.7709 42.9431 42.1497 38.8497 44.0184C34.8448 45.8467 29.242 47.0038 23 47.0038C16.758 47.0038 11.1552 45.8467 7.1503 44.0184C3.05695 42.1497 0.996296 39.7709 0.996296 37.5001C0.996296 35.2292 3.05695 32.8505 7.1503 30.9818C11.1552 29.1534 16.758 27.9964 23 27.9964C29.242 27.9964 34.8448 29.1534 38.8497 30.9818C42.9431 32.8505 45.0037 35.2292 45.0037 37.5001Z" fill="#FAA21E"/>
<path d="M45.0037 37.5001C45.0037 39.7709 42.9431 42.1497 38.8497 44.0184C34.8448 45.8467 29.242 47.0038 23 47.0038C16.758 47.0038 11.1552 45.8467 7.1503 44.0184C3.05695 42.1497 0.996296 39.7709 0.996296 37.5001C0.996296 35.2292 3.05695 32.8505 7.1503 30.9818C11.1552 29.1534 16.758 27.9964 23 27.9964C29.242 27.9964 34.8448 29.1534 38.8497 30.9818C42.9431 32.8505 45.0037 35.2292 45.0037 37.5001Z" fill="white" fill-opacity="0.95"/>
<path d="M45.0037 37.5001C45.0037 39.7709 42.9431 42.1497 38.8497 44.0184C34.8448 45.8467 29.242 47.0038 23 47.0038C16.758 47.0038 11.1552 45.8467 7.1503 44.0184C3.05695 42.1497 0.996296 39.7709 0.996296 37.5001C0.996296 35.2292 3.05695 32.8505 7.1503 30.9818C11.1552 29.1534 16.758 27.9964 23 27.9964C29.242 27.9964 34.8448 29.1534 38.8497 30.9818C42.9431 32.8505 45.0037 35.2292 45.0037 37.5001Z" stroke="#D0333D" stroke-width="1.99259"/>
<ellipse cx="23" cy="37.5001" rx="17" ry="6.5" fill="#898989"/>
<ellipse cx="23" cy="37.5001" rx="17" ry="6.5" fill="white" fill-opacity="0.8"/>
<g clip-path="url(#clip1_5929_9699)">
<path d="M22.8299 42.171C17.4017 42.171 13.8965 40.1858 13.4002 39.1932C12.9039 38.2006 12.9039 34.6574 12.9039 34.6574H32.756C32.756 36.775 32.8791 38.1965 32.2597 39.1932C31.2727 40.7814 27.7647 42.171 22.8299 42.171Z" fill="#D0333D"/>
<path d="M40.0851 20.0494C39.2788 20.0136 38.1081 19.0908 38.5885 17.3708C39.069 15.6509 41.1426 14.4371 43.5614 14.5447C45.9802 14.6524 47.1316 16.0096 48.3023 16.9323C48.2637 17.8013 48.5122 21.295 46.3612 24.2467C44.2102 27.1984 41.8272 28.3651 39.276 29.1555C37.6377 29.6631 37.183 30.8037 37.1444 31.6727C37.1057 32.5416 37.8733 33.4464 38.6796 33.4823" stroke="#D0333D" stroke-width="2.48152" stroke-linecap="round"/>
<path d="M41.6894 9.00897H3.9704C5.58847 12.7845 6.66718 13.3238 7.7459 17.6387C8.28526 19.7961 7.7459 26.6574 8.82461 30.4329C10.1907 35.2142 12.9945 37.7154 15.8363 39.0626C18.6661 40.4042 26.5039 40.4042 29.8595 39.0626C32.7798 37.8952 35.5473 35.2871 36.8712 30.4329C38.3997 24.8286 37.3065 20.8558 37.9499 17.6387C38.4893 14.9419 39.532 13.3238 41.6894 9.00897Z" fill="#898989"/>
<path d="M41.6894 9.00897H3.9704C5.58847 12.7845 6.66718 13.3238 7.7459 17.6387C8.28526 19.7961 7.7459 26.6574 8.82461 30.4329C10.1907 35.2142 12.9945 37.7154 15.8363 39.0626C18.6661 40.4042 26.5039 40.4042 29.8595 39.0626C32.7798 37.8952 35.5473 35.2871 36.8712 30.4329C38.3997 24.8286 37.3065 20.8558 37.9499 17.6387C38.4893 14.9419 39.532 13.3238 41.6894 9.00897Z" fill="white" fill-opacity="0.95"/>
<path d="M41.6894 8.80528C41.6894 11.4836 33.4725 13.7435 23.0566 13.7435C12.6408 13.7435 3.9704 11.4836 3.9704 8.80528C3.9704 6.12692 12.6408 3.95569 23.0566 3.95569C33.4725 3.95569 41.6894 6.12692 41.6894 8.80528Z" fill="#898989"/>
<path d="M41.6894 8.80528C41.6894 11.4836 33.4725 13.7435 23.0566 13.7435C12.6408 13.7435 3.9704 11.4836 3.9704 8.80528C3.9704 6.12692 12.6408 3.95569 23.0566 3.95569C33.4725 3.95569 41.6894 6.12692 41.6894 8.80528Z" fill="white" fill-opacity="0.6"/>
<path d="M41.6894 8.80528C41.6894 11.4836 33.4725 13.7435 23.0566 13.7435C12.6408 13.7435 3.9704 11.4836 3.9704 8.80528C3.9704 6.12692 12.6408 3.95569 23.0566 3.95569C33.4725 3.95569 41.6894 6.12692 41.6894 8.80528Z" stroke="#D0333D" stroke-width="1.48891"/>
<path d="M36.863 11.3808C36.863 11.0321 29.2426 9.88636 22.9148 9.88636C16.5871 9.88636 8.96667 11.0321 8.96667 11.3808C8.96667 11.7294 14.9445 13.1741 22.9148 13.1741C31.8815 13.1741 36.863 11.7294 36.863 11.3808Z" fill="#D0333D"/>
<path d="M36.863 11.3808C36.863 11.0321 29.2426 9.88636 22.9148 9.88636C16.5871 9.88636 8.96667 11.0321 8.96667 11.3808C8.96667 11.7294 14.9445 13.1741 22.9148 13.1741C31.8815 13.1741 36.863 11.7294 36.863 11.3808Z" fill="white" fill-opacity="0.4"/>
</g>
<g clip-path="url(#clip2_5929_9699)">
<circle cx="23" cy="27" r="9.5" stroke="#546DDB"/>
<circle cx="23" cy="27" r="9.5" stroke="white" stroke-opacity="0.2"/>
<path d="M26.1049 27C26.1049 29.2348 25.7157 31.2343 25.1062 32.6565C24.8011 33.3684 24.4506 33.9126 24.0868 34.2716C23.7253 34.6284 23.3779 34.778 23.0571 34.778C22.7364 34.778 22.389 34.6284 22.0274 34.2716C21.6637 33.9126 21.3132 33.3684 21.0081 32.6565C20.3986 31.2343 20.0094 29.2348 20.0094 27C20.0094 24.7651 20.3986 22.7656 21.0081 21.3435C21.3132 20.6315 21.6637 20.0873 22.0274 19.7283C22.389 19.3715 22.7364 19.2219 23.0571 19.2219C23.3779 19.2219 23.7253 19.3715 24.0868 19.7283C24.4506 20.0873 24.8011 20.6315 25.1062 21.3435C25.7157 22.7656 26.1049 24.7651 26.1049 27Z" stroke="#546DDB"/>
<path d="M26.1049 27C26.1049 29.2348 25.7157 31.2343 25.1062 32.6565C24.8011 33.3684 24.4506 33.9126 24.0868 34.2716C23.7253 34.6284 23.3779 34.778 23.0571 34.778C22.7364 34.778 22.389 34.6284 22.0274 34.2716C21.6637 33.9126 21.3132 33.3684 21.0081 32.6565C20.3986 31.2343 20.0094 29.2348 20.0094 27C20.0094 24.7651 20.3986 22.7656 21.0081 21.3435C21.3132 20.6315 21.6637 20.0873 22.0274 19.7283C22.389 19.3715 22.7364 19.2219 23.0571 19.2219C23.3779 19.2219 23.7253 19.3715 24.0868 19.7283C24.4506 20.0873 24.8011 20.6315 25.1062 21.3435C25.7157 22.7656 26.1049 24.7651 26.1049 27Z" stroke="white" stroke-opacity="0.2"/>
<path d="M24.581 29.6394C22.6456 30.7568 20.7194 31.4196 19.183 31.6028C18.4139 31.6945 17.7673 31.6631 17.2746 31.5276C16.7848 31.3929 16.4815 31.1668 16.3212 30.889C16.1608 30.6113 16.1166 30.2356 16.2449 29.7441C16.3739 29.2496 16.6699 28.674 17.134 28.0537C18.0608 26.8148 19.5979 25.478 21.5333 24.3606C23.4687 23.2432 25.3949 22.5805 26.9313 22.3972C27.7004 22.3055 28.347 22.3369 28.8397 22.4724C29.3295 22.6071 29.6327 22.8332 29.7931 23.111C29.9535 23.3888 29.9977 23.7644 29.8694 24.256C29.7404 24.7504 29.4444 25.3261 28.9803 25.9463C28.0535 27.1852 26.5164 28.522 24.581 29.6394Z" stroke="#546DDB"/>
<path d="M24.581 29.6394C22.6456 30.7568 20.7194 31.4196 19.183 31.6028C18.4139 31.6945 17.7673 31.6631 17.2746 31.5276C16.7848 31.3929 16.4815 31.1668 16.3212 30.889C16.1608 30.6113 16.1166 30.2356 16.2449 29.7441C16.3739 29.2496 16.6699 28.674 17.134 28.0537C18.0608 26.8148 19.5979 25.478 21.5333 24.3606C23.4687 23.2432 25.3949 22.5805 26.9313 22.3972C27.7004 22.3055 28.347 22.3369 28.8397 22.4724C29.3295 22.6071 29.6327 22.8332 29.7931 23.111C29.9535 23.3888 29.9977 23.7644 29.8694 24.256C29.7404 24.7504 29.4444 25.3261 28.9803 25.9463C28.0535 27.1852 26.5164 28.522 24.581 29.6394Z" stroke="white" stroke-opacity="0.2"/>
<path d="M21.5333 29.6394C19.5979 28.522 18.0608 27.1852 17.134 25.9463C16.6699 25.326 16.3739 24.7504 16.2449 24.2559C16.1166 23.7644 16.1608 23.3888 16.3212 23.111C16.4815 22.8332 16.7848 22.6071 17.2746 22.4724C17.7673 22.3369 18.4139 22.3055 19.183 22.3972C20.7194 22.5805 22.6456 23.2432 24.581 24.3606C26.5164 25.478 28.0535 26.8148 28.9803 28.0537C29.4444 28.6739 29.7404 29.2496 29.8694 29.744C29.9977 30.2356 29.9535 30.6112 29.7931 30.889C29.6327 31.1668 29.3295 31.3929 28.8397 31.5276C28.347 31.6631 27.7004 31.6945 26.9313 31.6028C25.3949 31.4195 23.4687 30.7568 21.5333 29.6394Z" stroke="#546DDB"/>
<path d="M21.5333 29.6394C19.5979 28.522 18.0608 27.1852 17.134 25.9463C16.6699 25.326 16.3739 24.7504 16.2449 24.2559C16.1166 23.7644 16.1608 23.3888 16.3212 23.111C16.4815 22.8332 16.7848 22.6071 17.2746 22.4724C17.7673 22.3369 18.4139 22.3055 19.183 22.3972C20.7194 22.5805 22.6456 23.2432 24.581 24.3606C26.5164 25.478 28.0535 26.8148 28.9803 28.0537C29.4444 28.6739 29.7404 29.2496 29.8694 29.744C29.9977 30.2356 29.9535 30.6112 29.7931 30.889C29.6327 31.1668 29.3295 31.3929 28.8397 31.5276C28.347 31.6631 27.7004 31.6945 26.9313 31.6028C25.3949 31.4195 23.4687 30.7568 21.5333 29.6394Z" stroke="white" stroke-opacity="0.2"/>
<circle cx="23" cy="27" r="1.5" fill="#546DDB"/>
<circle cx="23" cy="27" r="1.5" fill="white" fill-opacity="0.2"/>
<circle cx="18" cy="31.5" r="1" fill="#D0333D"/>
<circle cx="18" cy="31.5" r="1" fill="white" fill-opacity="0.2"/>
<circle cx="21.5" cy="20.5" r="1" fill="#FAA21E"/>
<circle cx="29.5" cy="29" r="1" fill="#2FC4A7"/>
</g>
</g>
<defs>
<clipPath id="clip0_5929_9699">
<rect width="50" height="50" fill="white"/>
</clipPath>
<clipPath id="clip1_5929_9699">
<rect width="49.8148" height="49.8148" fill="white" transform="translate(0 -1.99994)"/>
</clipPath>
<clipPath id="clip2_5929_9699">
<rect width="20" height="20" fill="white" transform="matrix(-1 0 0 1 33 17)"/>
</clipPath>
</defs>
</svg>
