<svg width="51" height="51" viewBox="0 0 51 51" fill="none" xmlns="http://www.w3.org/2000/svg">
<g clip-path="url(#clip0_5959_10080)">
<ellipse cx="22.3" cy="42.8518" rx="21.5" ry="7.5" fill="#D0333D"/>
<path d="M37.663 13.1152V16.7381C38.2797 15.9833 39.7908 14.0209 42.7512 14.0209C46.4517 14.0209 47.8394 18.0967 47.8394 21.2667C47.8394 24.4367 45.9892 28.5125 42.7512 28.5125C40.1608 28.5125 38.1255 26.2482 37.663 25.7953V29.4182C38.1255 29.4182 39.0507 31.2297 42.7512 31.2297C47.3769 31.2297 50.6148 27.1539 50.6148 21.2667C50.6148 15.3795 47.3769 11.3037 42.7512 11.3037C39.5132 11.3037 38.1255 13.1152 37.663 13.1152Z" fill="#D0333D"/>
<path d="M5.78149 5.32596H38.6593V41.6908C38.6593 41.6908 35.6704 46.6722 22.2204 46.6722C8.77041 46.6722 5.78149 41.6908 5.78149 41.6908V5.32596Z" fill="#FAA21E"/>
<path d="M5.78149 5.32596H38.6593V41.6908C38.6593 41.6908 35.6704 46.6722 22.2204 46.6722C8.77041 46.6722 5.78149 41.6908 5.78149 41.6908V5.32596Z" fill="white" fill-opacity="0.95"/>
<ellipse cx="22.2204" cy="4.82782" rx="16.4389" ry="4.48333" fill="#D0333D"/>
<ellipse cx="22.2205" cy="4.8278" rx="14.4463" ry="3.48704" fill="#898989"/>
<ellipse cx="22.2205" cy="4.8278" rx="14.4463" ry="3.48704" fill="white" fill-opacity="0.4"/>
<path d="M33.6779 6.82041C33.6779 6.32226 28.5482 5.32596 22.2205 5.32596C15.8927 5.32596 10.7631 6.32226 10.7631 6.82041C10.7631 7.31855 15.8927 8.31485 22.2205 8.31485C28.5482 8.31485 33.6779 7.31855 33.6779 6.82041Z" fill="#D0333D"/>
<path d="M33.6779 6.82041C33.6779 6.32226 28.5482 5.32596 22.2205 5.32596C15.8927 5.32596 10.7631 6.32226 10.7631 6.82041C10.7631 7.31855 15.8927 8.31485 22.2205 8.31485C28.5482 8.31485 33.6779 7.31855 33.6779 6.82041Z" fill="white" fill-opacity="0.4"/>
<path d="M25.2251 14.0018V17.9018" stroke="#FAA21E" stroke-width="1.97786"/>
<path d="M25.2251 14.0018V17.9018" stroke="white" stroke-opacity="0.4" stroke-width="1.97786"/>
<path d="M27.5001 29.6018V33.5018" stroke="#FAA21E" stroke-width="1.97786"/>
<path d="M27.5001 29.6018V33.5018" stroke="white" stroke-opacity="0.4" stroke-width="1.97786"/>
<path d="M34.65 23.7518L30.75 23.7518" stroke="#FAA21E" stroke-width="1.97786"/>
<path d="M34.65 23.7518L30.75 23.7518" stroke="white" stroke-opacity="0.4" stroke-width="1.97786"/>
<path d="M19.05 21.1518L15.15 21.1518" stroke="#FAA21E" stroke-width="1.97786"/>
<path d="M19.05 21.1518L15.15 21.1518" stroke="white" stroke-opacity="0.4" stroke-width="1.97786"/>
<path d="M22.4574 26.3518L10.1074 38.7018" stroke="#FAA21E" stroke-width="1.97786"/>
<path d="M22.4574 26.3518L10.1074 38.7018" stroke="white" stroke-opacity="0.4" stroke-width="1.97786"/>
<path d="M29.125 23.1018C29.125 23.1018 31.075 18.8768 30.425 18.2268C29.775 17.5767 25.225 19.8518 25.225 19.8518C25.225 19.8518 21.65 16.2768 21 16.6018C20.35 16.9268 21 22.1268 21 22.1268C21 22.1268 16.45 24.7267 16.775 25.3768C17.1 26.0268 21.65 26.6768 21.65 26.6768C21.65 26.6768 22.625 31.8767 23.6 31.8768C24.575 31.8768 26.85 27.6518 26.85 27.6518C26.85 27.6518 32.05 28.3018 32.375 27.6518C32.7 27.0018 29.125 23.1018 29.125 23.1018Z" fill="#FAA21E"/>
</g>
<defs>
<clipPath id="clip0_5959_10080">
<rect width="50" height="50" fill="white" transform="translate(0.800049 0.351807)"/>
</clipPath>
</defs>
</svg>
