<svg width="50" height="51" viewBox="0 0 50 51" fill="none" xmlns="http://www.w3.org/2000/svg">
<g clip-path="url(#clip0_5846_63742)">
<path d="M45.0037 37.7706C45.0037 40.0414 42.9431 42.4202 38.8497 44.2889C34.8448 46.1172 29.242 47.2743 23 47.2743C16.758 47.2743 11.1552 46.1172 7.1503 44.2889C3.05695 42.4202 0.996296 40.0414 0.996296 37.7706C0.996296 35.4997 3.05695 33.121 7.1503 31.2523C11.1552 29.4239 16.758 28.2669 23 28.2669C29.242 28.2669 34.8448 29.4239 38.8497 31.2523C42.9431 33.121 45.0037 35.4997 45.0037 37.7706Z" fill="#FAA21E"/>
<path d="M45.0037 37.7706C45.0037 40.0414 42.9431 42.4202 38.8497 44.2889C34.8448 46.1172 29.242 47.2743 23 47.2743C16.758 47.2743 11.1552 46.1172 7.1503 44.2889C3.05695 42.4202 0.996296 40.0414 0.996296 37.7706C0.996296 35.4997 3.05695 33.121 7.1503 31.2523C11.1552 29.4239 16.758 28.2669 23 28.2669C29.242 28.2669 34.8448 29.4239 38.8497 31.2523C42.9431 33.121 45.0037 35.4997 45.0037 37.7706Z" fill="white" fill-opacity="0.95"/>
<path d="M45.0037 37.7706C45.0037 40.0414 42.9431 42.4202 38.8497 44.2889C34.8448 46.1172 29.242 47.2743 23 47.2743C16.758 47.2743 11.1552 46.1172 7.1503 44.2889C3.05695 42.4202 0.996296 40.0414 0.996296 37.7706C0.996296 35.4997 3.05695 33.121 7.1503 31.2523C11.1552 29.4239 16.758 28.2669 23 28.2669C29.242 28.2669 34.8448 29.4239 38.8497 31.2523C42.9431 33.121 45.0037 35.4997 45.0037 37.7706Z" stroke="#D0333D" stroke-width="1.99259"/>
<ellipse cx="23" cy="37.7706" rx="17" ry="6.5" fill="#898989"/>
<ellipse cx="23" cy="37.7706" rx="17" ry="6.5" fill="white" fill-opacity="0.8"/>
<g clip-path="url(#clip1_5846_63742)">
<path d="M22.8299 42.4415C17.4017 42.4415 13.8965 40.4563 13.4002 39.4637C12.9039 38.4711 12.9039 34.9279 12.9039 34.9279H32.756C32.756 37.0455 32.8791 38.467 32.2597 39.4637C31.2727 41.0519 27.7647 42.4415 22.8299 42.4415Z" fill="#D0333D"/>
<path d="M40.0851 20.3199C39.2788 20.2841 38.1081 19.3613 38.5885 17.6414C39.069 15.9214 41.1426 14.7076 43.5614 14.8153C45.9802 14.9229 47.1316 16.2801 48.3023 17.2028C48.2637 18.0718 48.5122 21.5655 46.3612 24.5172C44.2102 27.4689 41.8272 28.6356 39.276 29.426C37.6377 29.9336 37.183 31.0742 37.1444 31.9432C37.1057 32.8121 37.8733 33.717 38.6796 33.7528" stroke="#D0333D" stroke-width="2.48152" stroke-linecap="round"/>
<path d="M41.6894 9.27948H3.9704C5.58847 13.055 6.66718 13.5943 7.7459 17.9092C8.28526 20.0666 7.7459 26.9279 8.82461 30.7034C10.1907 35.4847 12.9945 37.9859 15.8363 39.3332C18.6661 40.6747 26.5039 40.6747 29.8595 39.3332C32.7798 38.1657 35.5473 35.5577 36.8712 30.7034C38.3997 25.0991 37.3065 21.1263 37.9499 17.9092C38.4893 15.2124 39.532 13.5943 41.6894 9.27948Z" fill="#898989"/>
<path d="M41.6894 9.27948H3.9704C5.58847 13.055 6.66718 13.5943 7.7459 17.9092C8.28526 20.0666 7.7459 26.9279 8.82461 30.7034C10.1907 35.4847 12.9945 37.9859 15.8363 39.3332C18.6661 40.6747 26.5039 40.6747 29.8595 39.3332C32.7798 38.1657 35.5473 35.5577 36.8712 30.7034C38.3997 25.0991 37.3065 21.1263 37.9499 17.9092C38.4893 15.2124 39.532 13.5943 41.6894 9.27948Z" fill="white" fill-opacity="0.95"/>
<path d="M41.6894 9.07579C41.6894 11.7541 33.4725 14.014 23.0566 14.014C12.6408 14.014 3.9704 11.7541 3.9704 9.07579C3.9704 6.39743 12.6408 4.2262 23.0566 4.2262C33.4725 4.2262 41.6894 6.39743 41.6894 9.07579Z" fill="#898989"/>
<path d="M41.6894 9.07579C41.6894 11.7541 33.4725 14.014 23.0566 14.014C12.6408 14.014 3.9704 11.7541 3.9704 9.07579C3.9704 6.39743 12.6408 4.2262 23.0566 4.2262C33.4725 4.2262 41.6894 6.39743 41.6894 9.07579Z" fill="white" fill-opacity="0.6"/>
<path d="M41.6894 9.07579C41.6894 11.7541 33.4725 14.014 23.0566 14.014C12.6408 14.014 3.9704 11.7541 3.9704 9.07579C3.9704 6.39743 12.6408 4.2262 23.0566 4.2262C33.4725 4.2262 41.6894 6.39743 41.6894 9.07579Z" stroke="#D0333D" stroke-width="1.48891"/>
<path d="M36.863 11.6513C36.863 11.3026 29.2426 10.1569 22.9148 10.1569C16.5871 10.1569 8.96667 11.3026 8.96667 11.6513C8.96667 11.9999 14.9445 13.4446 22.9148 13.4446C31.8815 13.4446 36.863 11.9999 36.863 11.6513Z" fill="#D0333D"/>
<path d="M36.863 11.6513C36.863 11.3026 29.2426 10.1569 22.9148 10.1569C16.5871 10.1569 8.96667 11.3026 8.96667 11.6513C8.96667 11.9999 14.9445 13.4446 22.9148 13.4446C31.8815 13.4446 36.863 11.9999 36.863 11.6513Z" fill="white" fill-opacity="0.4"/>
</g>
<path d="M17.5955 34.7838L17.3531 29.2331C14.8507 27.4142 12.7665 26.5634 13.9954 23.2094C14.9195 20.6874 17.6503 19.7036 19.6916 21.5855C19.2954 19.7137 21.0298 16.8649 24.1428 17.0314C27.2559 17.198 29.0303 20.4973 28.016 22.7028C29.372 22.6584 32.4434 22.7325 32.3796 25.7705C32.3231 28.4558 30.1436 29.6931 27.5763 29.809L26.7558 35.0369L17.5955 34.7838Z" fill="#FEFEFE"/>
<path d="M17.5955 34.7838L17.3531 29.2331C14.8507 27.4142 12.7665 26.5634 13.9954 23.2094C14.9195 20.6874 17.6503 19.7036 19.6916 21.5855C19.2954 19.7137 21.0298 16.8649 24.1428 17.0314C27.2559 17.198 29.0303 20.4973 28.016 22.7028C29.372 22.6584 32.4434 22.7325 32.3796 25.7705C32.3231 28.4558 30.1436 29.6931 27.5763 29.809L26.7558 35.0369L17.5955 34.7838Z" stroke="#898989" stroke-width="0.498148"/>
<path d="M17.5955 34.7838L17.3531 29.2331C14.8507 27.4142 12.7665 26.5634 13.9954 23.2094C14.9195 20.6874 17.6503 19.7036 19.6916 21.5855C19.2954 19.7137 21.0298 16.8649 24.1428 17.0314C27.2559 17.198 29.0303 20.4973 28.016 22.7028C29.372 22.6584 32.4434 22.7325 32.3796 25.7705C32.3231 28.4558 30.1436 29.6931 27.5763 29.809L26.7558 35.0369L17.5955 34.7838Z" stroke="white" stroke-opacity="0.2" stroke-width="0.498148"/>
<path d="M19.9218 29.5008C19.9226 29.2257 19.7002 29.002 19.4251 29.0012C19.15 29.0004 18.9263 29.2227 18.9255 29.4979L19.9218 29.5008ZM18.9255 29.4979L18.9099 34.7859L19.9062 34.7889L19.9218 29.5008L18.9255 29.4979Z" fill="#898989"/>
<path d="M19.9218 29.5008C19.9226 29.2257 19.7002 29.002 19.4251 29.0012C19.15 29.0004 18.9263 29.2227 18.9255 29.4979L19.9218 29.5008ZM18.9255 29.4979L18.9099 34.7859L19.9062 34.7889L19.9218 29.5008L18.9255 29.4979Z" fill="white" fill-opacity="0.2"/>
<path d="M22.8892 29.6657C22.902 29.3909 22.6897 29.1577 22.4149 29.1448C22.14 29.1319 21.9068 29.3443 21.894 29.6191L22.8892 29.6657ZM21.894 29.6191L21.6508 34.8154L22.646 34.862L22.8892 29.6657L21.894 29.6191Z" fill="#898989"/>
<path d="M22.8892 29.6657C22.902 29.3909 22.6897 29.1577 22.4149 29.1448C22.14 29.1319 21.9068 29.3443 21.894 29.6191L22.8892 29.6657ZM21.894 29.6191L21.6508 34.8154L22.646 34.862L22.8892 29.6657L21.894 29.6191Z" fill="white" fill-opacity="0.2"/>
<path d="M25.7771 29.923C25.8024 29.6491 25.6008 29.4065 25.3268 29.3812C25.0529 29.3559 24.8103 29.5575 24.785 29.8315L25.7771 29.923ZM24.785 29.8315L24.3142 34.936L25.3063 35.0275L25.7771 29.923L24.785 29.8315Z" fill="#898989"/>
<path d="M25.7771 29.923C25.8024 29.6491 25.6008 29.4065 25.3268 29.3812C25.0529 29.3559 24.8103 29.5575 24.785 29.8315L25.7771 29.923ZM24.785 29.8315L24.3142 34.936L25.3063 35.0275L25.7771 29.923L24.785 29.8315Z" fill="white" fill-opacity="0.2"/>
</g>
<defs>
<clipPath id="clip0_5846_63742">
<rect width="50" height="50" fill="white" transform="translate(0 0.270508)"/>
</clipPath>
<clipPath id="clip1_5846_63742">
<rect width="49.8148" height="49.8148" fill="white" transform="translate(0 -1.72943)"/>
</clipPath>
</defs>
</svg>
