<svg width="50" height="51" viewBox="0 0 50 51" fill="none" xmlns="http://www.w3.org/2000/svg">
<g clip-path="url(#clip0_5959_10079)">
<ellipse cx="21.5" cy="43.1222" rx="21.5" ry="7.5" fill="#D0333D"/>
<path d="M36.8629 13.3856V17.0085C37.4797 16.2537 38.9907 14.2913 41.9511 14.2913C45.6517 14.2913 47.0394 18.3671 47.0394 21.5371C47.0394 24.7071 45.1891 28.7829 41.9511 28.7829C39.3608 28.7829 37.3255 26.5186 36.8629 26.0657V29.6886C37.3255 29.6886 38.2506 31.5001 41.9511 31.5001C46.5768 31.5001 49.8148 27.4243 49.8148 21.5371C49.8148 15.6499 46.5768 11.5741 41.9511 11.5741C38.7132 11.5741 37.3255 13.3856 36.8629 13.3856Z" fill="#D0333D"/>
<path d="M4.98145 5.59634H37.8592V41.9612C37.8592 41.9612 34.8703 46.9426 21.4203 46.9426C7.97036 46.9426 4.98145 41.9612 4.98145 41.9612V5.59634Z" fill="#FAA21E"/>
<path d="M4.98145 5.59634H37.8592V41.9612C37.8592 41.9612 34.8703 46.9426 21.4203 46.9426C7.97036 46.9426 4.98145 41.9612 4.98145 41.9612V5.59634Z" fill="white" fill-opacity="0.95"/>
<ellipse cx="21.4203" cy="5.0982" rx="16.4389" ry="4.48333" fill="#D0333D"/>
<ellipse cx="21.4204" cy="5.09818" rx="14.4463" ry="3.48704" fill="#898989"/>
<ellipse cx="21.4204" cy="5.09818" rx="14.4463" ry="3.48704" fill="white" fill-opacity="0.4"/>
<path d="M32.8778 7.09079C32.8778 6.59264 27.7482 5.59635 21.4204 5.59635C15.0927 5.59635 9.96301 6.59264 9.96301 7.09079C9.96301 7.58894 15.0927 8.58524 21.4204 8.58524C27.7482 8.58524 32.8778 7.58894 32.8778 7.09079Z" fill="#D0333D"/>
<path d="M32.8778 7.09079C32.8778 6.59264 27.7482 5.59635 21.4204 5.59635C15.0927 5.59635 9.96301 6.59264 9.96301 7.09079C9.96301 7.58894 15.0927 8.58524 21.4204 8.58524C27.7482 8.58524 32.8778 7.58894 32.8778 7.09079Z" fill="white" fill-opacity="0.4"/>
<path d="M9.80005 17.2638C10.0943 16.9696 10.9764 16.8643 11.3893 16.8643C13.1547 16.8643 17.0386 17.0997 18.4511 18.0414C20.2167 19.2184 29.2213 27.563 30.2216 29.8118C30.9181 31.3777 30.8106 34.8143 30.8106 36.2856C30.8106 36.6852 30.8106 37.384 30.3984 37.8622" stroke="#1D8CE0" stroke-width="2.96679"/>
<path d="M15.9344 31.5387L31.2501 16.2221" stroke="#898989" stroke-width="1.97786" stroke-linecap="round"/>
<path d="M15.9344 31.5387L31.2501 16.2221" stroke="white" stroke-opacity="0.4" stroke-width="1.97786" stroke-linecap="round"/>
<path d="M31.2501 21.4222L25.7251 15.8972L33.5251 13.9472L31.2501 21.4222Z" fill="#898989"/>
<path d="M31.2501 21.4222L25.7251 15.8972L33.5251 13.9472L31.2501 21.4222Z" fill="white" fill-opacity="0.4"/>
<path d="M13.7 29.2222H18.25V33.7722L13.7 38.3222V33.7722H9.15002L13.7 29.2222Z" fill="#898989"/>
<path d="M13.7 29.2222H18.25V33.7722L13.7 38.3222V33.7722H9.15002L13.7 29.2222Z" fill="white" fill-opacity="0.4"/>
<path d="M13.7 29.2222H18.25V33.7722L13.7 38.3222V33.7722H9.15002L13.7 29.2222Z" stroke="#898989" stroke-width="0.98893"/>
<path d="M13.7 29.2222H18.25V33.7722L13.7 38.3222V33.7722H9.15002L13.7 29.2222Z" stroke="white" stroke-opacity="0.4" stroke-width="0.98893"/>
<path d="M10.9769 17.0918L30.3982 36.5131" stroke="#1D8CE0" stroke-width="0.98893"/>
</g>
<defs>
<clipPath id="clip0_5959_10079">
<rect width="50" height="50" fill="white" transform="translate(0 0.622192)"/>
</clipPath>
</defs>
</svg>
