<svg width="51" height="50" viewBox="0 0 51 50" fill="none" xmlns="http://www.w3.org/2000/svg">
<g clip-path="url(#clip0_5846_63739)">
<path d="M45.8037 37.5001C45.8037 39.7709 43.743 42.1497 39.6497 44.0184C35.6447 45.8467 30.042 47.0038 23.8 47.0038C17.558 47.0038 11.9552 45.8467 7.95029 44.0184C3.85693 42.1497 1.79628 39.7709 1.79628 37.5001C1.79628 35.2292 3.85693 32.8505 7.95029 30.9818C11.9552 29.1534 17.558 27.9964 23.8 27.9964C30.042 27.9964 35.6447 29.1534 39.6497 30.9818C43.743 32.8505 45.8037 35.2292 45.8037 37.5001Z" fill="#FAA21E"/>
<path d="M45.8037 37.5001C45.8037 39.7709 43.743 42.1497 39.6497 44.0184C35.6447 45.8467 30.042 47.0038 23.8 47.0038C17.558 47.0038 11.9552 45.8467 7.95029 44.0184C3.85693 42.1497 1.79628 39.7709 1.79628 37.5001C1.79628 35.2292 3.85693 32.8505 7.95029 30.9818C11.9552 29.1534 17.558 27.9964 23.8 27.9964C30.042 27.9964 35.6447 29.1534 39.6497 30.9818C43.743 32.8505 45.8037 35.2292 45.8037 37.5001Z" fill="white" fill-opacity="0.95"/>
<path d="M45.8037 37.5001C45.8037 39.7709 43.743 42.1497 39.6497 44.0184C35.6447 45.8467 30.042 47.0038 23.8 47.0038C17.558 47.0038 11.9552 45.8467 7.95029 44.0184C3.85693 42.1497 1.79628 39.7709 1.79628 37.5001C1.79628 35.2292 3.85693 32.8505 7.95029 30.9818C11.9552 29.1534 17.558 27.9964 23.8 27.9964C30.042 27.9964 35.6447 29.1534 39.6497 30.9818C43.743 32.8505 45.8037 35.2292 45.8037 37.5001Z" stroke="#D0333D" stroke-width="1.99259"/>
<ellipse cx="23.8" cy="37.5001" rx="17" ry="6.5" fill="#898989"/>
<ellipse cx="23.8" cy="37.5001" rx="17" ry="6.5" fill="white" fill-opacity="0.8"/>
<g clip-path="url(#clip1_5846_63739)">
<path d="M23.6299 42.171C18.2017 42.171 14.6964 40.1858 14.2001 39.1932C13.7039 38.2006 13.7039 34.6574 13.7039 34.6574H33.556C33.556 36.775 33.679 38.1965 33.0597 39.1932C32.0727 40.7814 28.5647 42.171 23.6299 42.171Z" fill="#D0333D"/>
<path d="M40.8851 20.0494C40.0788 20.0136 38.9081 19.0908 39.3885 17.3708C39.869 15.6509 41.9426 14.4371 44.3614 14.5447C46.7802 14.6524 47.9316 16.0096 49.1023 16.9323C49.0637 17.8013 49.3122 21.295 47.1612 24.2467C45.0102 27.1984 42.6272 28.3651 40.076 29.1555C38.4377 29.6631 37.983 30.8037 37.9444 31.6727C37.9057 32.5416 38.6733 33.4464 39.4796 33.4823" stroke="#D0333D" stroke-width="2.48152" stroke-linecap="round"/>
<path d="M42.4894 9.00897H4.77039C6.38846 12.7845 7.46717 13.3238 8.54589 17.6387C9.08524 19.7961 8.54589 26.6574 9.6246 30.4329C10.9907 35.2142 13.7945 37.7154 16.6362 39.0626C19.4661 40.4042 27.3038 40.4042 30.6595 39.0626C33.5798 37.8952 36.3473 35.2871 37.6712 30.4329C39.1996 24.8286 38.1065 20.8558 38.7499 17.6387C39.2893 14.9419 40.332 13.3238 42.4894 9.00897Z" fill="#898989"/>
<path d="M42.4894 9.00897H4.77039C6.38846 12.7845 7.46717 13.3238 8.54589 17.6387C9.08524 19.7961 8.54589 26.6574 9.6246 30.4329C10.9907 35.2142 13.7945 37.7154 16.6362 39.0626C19.4661 40.4042 27.3038 40.4042 30.6595 39.0626C33.5798 37.8952 36.3473 35.2871 37.6712 30.4329C39.1996 24.8286 38.1065 20.8558 38.7499 17.6387C39.2893 14.9419 40.332 13.3238 42.4894 9.00897Z" fill="white" fill-opacity="0.95"/>
<path d="M42.4894 8.80528C42.4894 11.4836 34.2725 13.7435 23.8566 13.7435C13.4408 13.7435 4.77039 11.4836 4.77039 8.80528C4.77039 6.12692 13.4408 3.95569 23.8566 3.95569C34.2725 3.95569 42.4894 6.12692 42.4894 8.80528Z" fill="#898989"/>
<path d="M42.4894 8.80528C42.4894 11.4836 34.2725 13.7435 23.8566 13.7435C13.4408 13.7435 4.77039 11.4836 4.77039 8.80528C4.77039 6.12692 13.4408 3.95569 23.8566 3.95569C34.2725 3.95569 42.4894 6.12692 42.4894 8.80528Z" fill="white" fill-opacity="0.6"/>
<path d="M42.4894 8.80528C42.4894 11.4836 34.2725 13.7435 23.8566 13.7435C13.4408 13.7435 4.77039 11.4836 4.77039 8.80528C4.77039 6.12692 13.4408 3.95569 23.8566 3.95569C34.2725 3.95569 42.4894 6.12692 42.4894 8.80528Z" stroke="#D0333D" stroke-width="1.48891"/>
<path d="M37.663 11.3808C37.663 11.0321 30.0426 9.88636 23.7148 9.88636C17.3871 9.88636 9.76666 11.0321 9.76666 11.3808C9.76666 11.7294 15.7444 13.1741 23.7148 13.1741C32.6815 13.1741 37.663 11.7294 37.663 11.3808Z" fill="#D0333D"/>
<path d="M37.663 11.3808C37.663 11.0321 30.0426 9.88636 23.7148 9.88636C17.3871 9.88636 9.76666 11.0321 9.76666 11.3808C9.76666 11.7294 15.7444 13.1741 23.7148 13.1741C32.6815 13.1741 37.663 11.7294 37.663 11.3808Z" fill="white" fill-opacity="0.4"/>
</g>
<path d="M22.8886 25.0002L17.7926 34.317" stroke="#FAA21E" stroke-width="2.98889" stroke-linecap="round"/>
<path d="M22.8886 25.0002L17.7926 34.317" stroke="white" stroke-opacity="0.2" stroke-width="2.98889" stroke-linecap="round"/>
<path d="M28.9447 28.124L30.9942 24.4154C31.528 23.4494 31.1749 22.2334 30.2066 21.7036L21.6087 16.9992C20.6514 16.4754 19.4509 16.819 18.9157 17.77L16.7751 21.574C16.2258 22.5499 16.5885 23.7867 17.5778 24.3115L26.267 28.9205C27.2274 29.43 28.4189 29.0755 28.9447 28.124Z" fill="#FAA21E"/>
<path d="M28.9447 28.124L30.9942 24.4154C31.528 23.4494 31.1749 22.2334 30.2066 21.7036L21.6087 16.9992C20.6514 16.4754 19.4509 16.819 18.9157 17.77L16.7751 21.574C16.2258 22.5499 16.5885 23.7867 17.5778 24.3115L26.267 28.9205C27.2274 29.43 28.4189 29.0755 28.9447 28.124Z" fill="white" fill-opacity="0.2"/>
<path fill-rule="evenodd" clip-rule="evenodd" d="M17.1964 20.8252C17.5438 21.1594 18.0738 21.2649 18.5376 21.0503C19.1414 20.7711 19.4045 20.0552 19.1252 19.4513C18.9686 19.1128 18.6747 18.8813 18.3403 18.7925L17.1964 20.8252ZM26.9156 19.9029C26.6751 20.2433 26.6181 20.6992 26.8056 21.1047C27.0849 21.7085 27.8008 21.9716 28.4046 21.6923C28.6935 21.5587 28.9044 21.3251 29.0152 21.0517L26.9156 19.9029ZM21.4232 20.5932C21.7673 21.3372 22.6494 21.6614 23.3934 21.3173C24.1374 20.9732 24.4615 20.0911 24.1174 19.3471C23.7733 18.6031 22.8912 18.2789 22.1473 18.6231C21.4033 18.9672 21.0791 19.8492 21.4232 20.5932ZM25.2034 24.7949C24.8008 24.9811 24.3236 24.8057 24.1374 24.4031C23.9512 24.0006 24.1266 23.5233 24.5291 23.3371C24.9317 23.1509 25.409 23.3263 25.5951 23.7289C25.7813 24.1314 25.6059 24.6087 25.2034 24.7949ZM19.0897 23.7047C19.2496 24.0504 19.6594 24.201 20.005 24.0411C20.3507 23.8813 20.5013 23.4715 20.3414 23.1258C20.1815 22.7802 19.7718 22.6296 19.4261 22.7895C19.0805 22.9493 18.9299 23.3591 19.0897 23.7047ZM26.7954 28.208C26.2578 28.3521 25.7051 28.033 25.561 27.4953C25.4169 26.9576 25.736 26.4049 26.2737 26.2609C26.8114 26.1168 27.3641 26.4359 27.5081 26.9736C27.6522 27.5113 27.3331 28.0639 26.7954 28.208ZM28.4682 24.7016C28.5613 24.9028 28.7999 24.9905 29.0012 24.8974C29.2025 24.8043 29.2902 24.5657 29.1971 24.3644C29.104 24.1632 28.8654 24.0755 28.6641 24.1686C28.4628 24.2616 28.3751 24.5003 28.4682 24.7016Z" fill="#FAA21E"/>
<path fill-rule="evenodd" clip-rule="evenodd" d="M17.1964 20.8252C17.5438 21.1594 18.0738 21.2649 18.5376 21.0503C19.1414 20.7711 19.4045 20.0552 19.1252 19.4513C18.9686 19.1128 18.6747 18.8813 18.3403 18.7925L17.1964 20.8252ZM26.9156 19.9029C26.6751 20.2433 26.6181 20.6992 26.8056 21.1047C27.0849 21.7085 27.8008 21.9716 28.4046 21.6923C28.6935 21.5587 28.9044 21.3251 29.0152 21.0517L26.9156 19.9029ZM21.4232 20.5932C21.7673 21.3372 22.6494 21.6614 23.3934 21.3173C24.1374 20.9732 24.4615 20.0911 24.1174 19.3471C23.7733 18.6031 22.8912 18.2789 22.1473 18.6231C21.4033 18.9672 21.0791 19.8492 21.4232 20.5932ZM25.2034 24.7949C24.8008 24.9811 24.3236 24.8057 24.1374 24.4031C23.9512 24.0006 24.1266 23.5233 24.5291 23.3371C24.9317 23.1509 25.409 23.3263 25.5951 23.7289C25.7813 24.1314 25.6059 24.6087 25.2034 24.7949ZM19.0897 23.7047C19.2496 24.0504 19.6594 24.201 20.005 24.0411C20.3507 23.8813 20.5013 23.4715 20.3414 23.1258C20.1815 22.7802 19.7718 22.6296 19.4261 22.7895C19.0805 22.9493 18.9299 23.3591 19.0897 23.7047ZM26.7954 28.208C26.2578 28.3521 25.7051 28.033 25.561 27.4953C25.4169 26.9576 25.736 26.4049 26.2737 26.2609C26.8114 26.1168 27.3641 26.4359 27.5081 26.9736C27.6522 27.5113 27.3331 28.0639 26.7954 28.208ZM28.4682 24.7016C28.5613 24.9028 28.7999 24.9905 29.0012 24.8974C29.2025 24.8043 29.2902 24.5657 29.1971 24.3644C29.104 24.1632 28.8654 24.0755 28.6641 24.1686C28.4628 24.2616 28.3751 24.5003 28.4682 24.7016Z" fill="white" fill-opacity="0.8"/>
</g>
<defs>
<clipPath id="clip0_5846_63739">
<rect width="50" height="50" fill="white" transform="translate(0.799988)"/>
</clipPath>
<clipPath id="clip1_5846_63739">
<rect width="49.8148" height="49.8148" fill="white" transform="translate(0.799988 -1.99994)"/>
</clipPath>
</defs>
</svg>
