<svg width="51" height="51" viewBox="0 0 51 51" fill="none" xmlns="http://www.w3.org/2000/svg">
<g clip-path="url(#clip0_5959_10078)">
<ellipse cx="21.7" cy="43.1222" rx="21.5" ry="7.5" fill="#D0333D"/>
<path d="M37.2 13.4404V17.0768C37.819 16.3192 39.3357 14.3495 42.3071 14.3495C46.0214 14.3495 47.4142 18.4404 47.4142 21.6223C47.4142 24.8041 45.5571 28.895 42.3071 28.895C39.7071 28.895 37.6642 26.6223 37.2 26.1677V29.8041C37.6642 29.8041 38.5928 31.6223 42.3071 31.6223C46.95 31.6223 50.2 27.5313 50.2 21.6223C50.2 15.7132 46.95 11.6223 42.3071 11.6223C39.0571 11.6223 37.6642 13.4404 37.2 13.4404Z" fill="#D0333D"/>
<path d="M5.19995 5.62225H38.1999V42.1222C38.1999 42.1222 35.1999 47.1222 21.7 47.1222C8.19998 47.1222 5.19995 42.1222 5.19995 42.1222V5.62225Z" fill="#FAA21E"/>
<path d="M5.19995 5.62225H38.1999V42.1222C38.1999 42.1222 35.1999 47.1222 21.7 47.1222C8.19998 47.1222 5.19995 42.1222 5.19995 42.1222V5.62225Z" fill="white" fill-opacity="0.95"/>
<ellipse cx="21.6999" cy="5.12225" rx="16.5" ry="4.5" fill="#D0333D"/>
<ellipse cx="21.6998" cy="5.12228" rx="14.5" ry="3.5" fill="#898989"/>
<ellipse cx="21.6998" cy="5.12228" rx="14.5" ry="3.5" fill="white" fill-opacity="0.4"/>
<path d="M33.1998 7.12225C33.1998 6.62225 28.0511 5.62225 21.6998 5.62225C15.3486 5.62225 10.1998 6.62225 10.1998 7.12225C10.1998 7.62225 15.3486 8.62225 21.6998 8.62225C28.0511 8.62225 33.1998 7.62225 33.1998 7.12225Z" fill="#D0333D"/>
<path d="M33.1998 7.12225C33.1998 6.62225 28.0511 5.62225 21.6998 5.62225C15.3486 5.62225 10.1998 6.62225 10.1998 7.12225C10.1998 7.62225 15.3486 8.62225 21.6998 8.62225C28.0511 8.62225 33.1998 7.62225 33.1998 7.12225Z" fill="white" fill-opacity="0.4"/>
<path fill-rule="evenodd" clip-rule="evenodd" d="M13.2985 24.1166C13.2985 22.1594 13.7716 19.729 14.6033 18.8973C15.2557 18.2449 16.5076 17.5925 17.5392 17.5925C18.5178 17.5925 20.8012 18.2449 21.4537 18.8973C22.1061 19.5498 21.7799 20.5283 20.8012 20.8545C20.3783 20.9955 19.8943 20.9537 19.4285 20.9134C18.8165 20.8605 18.2358 20.8103 17.8654 21.1808C17.3496 21.6965 17.3496 22.9485 17.8654 23.4642C18.3835 23.9823 18.6958 24.2947 19.4559 24.7281C19.462 24.7347 19.4682 24.7412 19.4746 24.7476C19.5488 24.821 19.6582 24.9076 19.7527 24.9822L19.7603 24.9883L19.7765 25.001L19.7765 25.0011C19.8793 25.0822 19.9896 25.1695 20.1009 25.2647C20.3473 25.4758 20.538 25.6772 20.6222 25.8468C20.74 26.0841 20.7952 26.3496 20.8213 26.6386C20.8344 26.7829 20.8398 26.9277 20.8437 27.076L20.846 27.1709C20.8488 27.2865 20.8516 27.4069 20.8579 27.5189C20.8731 27.7915 21.1065 28.0002 21.3791 27.985C21.6518 27.9698 21.8605 27.7364 21.8453 27.4638C21.84 27.3692 21.8376 27.2702 21.8349 27.1578L21.8323 27.0501C21.8283 26.8968 21.8222 26.7263 21.8062 26.5495C21.7743 26.1966 21.7013 25.7969 21.5084 25.4079C23.5198 25.6472 26.803 25.5196 27.6516 25.0953C28.304 24.7691 28.9565 23.7904 29.2174 22.8118C29.3806 22.1998 28.9754 22.1895 28.6302 22.4856C28.4862 22.6296 28.3803 22.8627 28.2621 23.123C28.1125 23.4523 27.9431 23.8252 27.6516 24.1167C27.029 24.7393 22.0901 24.8378 20.3724 24.2115C20.2582 24.1212 20.1979 24.0721 20.1706 24.045C20.0542 23.9297 19.8949 23.8841 19.7446 23.908C18.6505 23.3217 17.9001 22.7077 18.1916 21.8332C18.2997 21.5089 18.7034 21.5876 19.2423 21.6927C19.7875 21.799 20.4713 21.9324 21.1275 21.7027C22.3969 21.2584 23.0847 19.5498 22.4323 18.5711C21.7799 17.5925 18.5178 16.6139 17.5392 16.6139C16.8529 16.6139 16.2201 16.8812 15.7532 17.0785C15.5544 17.1625 15.3856 17.2338 15.2557 17.2663C15.5819 16.3964 16.8215 14.3304 17.8654 14.3304C19.1702 14.3304 21.4537 14.6566 23.0847 15.309C24.7157 15.9615 28.304 17.5924 29.6089 18.8973C30.7239 20.0123 30.6479 22.5564 30.6022 24.0873C30.5944 24.3479 30.5875 24.5792 30.5875 24.7691C30.5875 25.6648 29.8189 27.329 29.2315 28.6011C28.9631 29.1822 28.7325 29.6815 28.6302 29.9884C28.5569 30.2083 28.4671 30.4612 28.3683 30.7397C28.0273 31.7001 27.5783 32.9646 27.3254 34.2291C27.1609 35.0517 27.1174 36.2632 27.0804 37.2915C27.0588 37.8944 27.0394 38.4343 26.9992 38.796C26.8594 38.8426 26.7129 38.8959 26.556 38.953C25.6145 39.2953 24.2963 39.7747 21.7799 39.7747C19.2634 39.7747 17.7855 39.4551 16.7298 39.2269C16.5539 39.1888 16.3897 39.1533 16.2343 39.1222C16.6693 37.8174 17.5392 34.8815 17.5392 33.5767C17.5392 32.2719 17.3217 31.2932 17.213 30.967C16.778 30.4234 15.7124 29.0098 14.9295 27.705C14.7679 27.4357 14.6036 27.1803 14.4445 26.933C13.8326 25.9823 13.2985 25.1522 13.2985 24.1166Z" fill="#FAA21E"/>
<path fill-rule="evenodd" clip-rule="evenodd" d="M13.2985 24.1166C13.2985 22.1594 13.7716 19.729 14.6033 18.8973C15.2557 18.2449 16.5076 17.5925 17.5392 17.5925C18.5178 17.5925 20.8012 18.2449 21.4537 18.8973C22.1061 19.5498 21.7799 20.5283 20.8012 20.8545C20.3783 20.9955 19.8943 20.9537 19.4285 20.9134C18.8165 20.8605 18.2358 20.8103 17.8654 21.1808C17.3496 21.6965 17.3496 22.9485 17.8654 23.4642C18.3835 23.9823 18.6958 24.2947 19.4559 24.7281C19.462 24.7347 19.4682 24.7412 19.4746 24.7476C19.5488 24.821 19.6582 24.9076 19.7527 24.9822L19.7603 24.9883L19.7765 25.001L19.7765 25.0011C19.8793 25.0822 19.9896 25.1695 20.1009 25.2647C20.3473 25.4758 20.538 25.6772 20.6222 25.8468C20.74 26.0841 20.7952 26.3496 20.8213 26.6386C20.8344 26.7829 20.8398 26.9277 20.8437 27.076L20.846 27.1709C20.8488 27.2865 20.8516 27.4069 20.8579 27.5189C20.8731 27.7915 21.1065 28.0002 21.3791 27.985C21.6518 27.9698 21.8605 27.7364 21.8453 27.4638C21.84 27.3692 21.8376 27.2702 21.8349 27.1578L21.8323 27.0501C21.8283 26.8968 21.8222 26.7263 21.8062 26.5495C21.7743 26.1966 21.7013 25.7969 21.5084 25.4079C23.5198 25.6472 26.803 25.5196 27.6516 25.0953C28.304 24.7691 28.9565 23.7904 29.2174 22.8118C29.3806 22.1998 28.9754 22.1895 28.6302 22.4856C28.4862 22.6296 28.3803 22.8627 28.2621 23.123C28.1125 23.4523 27.9431 23.8252 27.6516 24.1167C27.029 24.7393 22.0901 24.8378 20.3724 24.2115C20.2582 24.1212 20.1979 24.0721 20.1706 24.045C20.0542 23.9297 19.8949 23.8841 19.7446 23.908C18.6505 23.3217 17.9001 22.7077 18.1916 21.8332C18.2997 21.5089 18.7034 21.5876 19.2423 21.6927C19.7875 21.799 20.4713 21.9324 21.1275 21.7027C22.3969 21.2584 23.0847 19.5498 22.4323 18.5711C21.7799 17.5925 18.5178 16.6139 17.5392 16.6139C16.8529 16.6139 16.2201 16.8812 15.7532 17.0785C15.5544 17.1625 15.3856 17.2338 15.2557 17.2663C15.5819 16.3964 16.8215 14.3304 17.8654 14.3304C19.1702 14.3304 21.4537 14.6566 23.0847 15.309C24.7157 15.9615 28.304 17.5924 29.6089 18.8973C30.7239 20.0123 30.6479 22.5564 30.6022 24.0873C30.5944 24.3479 30.5875 24.5792 30.5875 24.7691C30.5875 25.6648 29.8189 27.329 29.2315 28.6011C28.9631 29.1822 28.7325 29.6815 28.6302 29.9884C28.5569 30.2083 28.4671 30.4612 28.3683 30.7397C28.0273 31.7001 27.5783 32.9646 27.3254 34.2291C27.1609 35.0517 27.1174 36.2632 27.0804 37.2915C27.0588 37.8944 27.0394 38.4343 26.9992 38.796C26.8594 38.8426 26.7129 38.8959 26.556 38.953C25.6145 39.2953 24.2963 39.7747 21.7799 39.7747C19.2634 39.7747 17.7855 39.4551 16.7298 39.2269C16.5539 39.1888 16.3897 39.1533 16.2343 39.1222C16.6693 37.8174 17.5392 34.8815 17.5392 33.5767C17.5392 32.2719 17.3217 31.2932 17.213 30.967C16.778 30.4234 15.7124 29.0098 14.9295 27.705C14.7679 27.4357 14.6036 27.1803 14.4445 26.933C13.8326 25.9823 13.2985 25.1522 13.2985 24.1166Z" fill="white" fill-opacity="0.4"/>
</g>
<defs>
<clipPath id="clip0_5959_10078">
<rect width="50" height="50" fill="white" transform="translate(0.199951 0.622192)"/>
</clipPath>
</defs>
</svg>
