<svg width="51" height="51" viewBox="0 0 51 51" fill="none" xmlns="http://www.w3.org/2000/svg">
<g clip-path="url(#clip0_5959_10081)">
<ellipse cx="22.1" cy="43.1222" rx="21.5" ry="7.5" fill="#D0333D"/>
<path d="M37.6 13.4404V17.0768C38.219 16.3192 39.7357 14.3495 42.7071 14.3495C46.4214 14.3495 47.8143 18.4404 47.8143 21.6223C47.8143 24.8041 45.9571 28.895 42.7071 28.895C40.1071 28.895 38.0643 26.6223 37.6 26.1677V29.8041C38.0643 29.8041 38.9928 31.6223 42.7071 31.6223C47.35 31.6223 50.6 27.5313 50.6 21.6223C50.6 15.7132 47.35 11.6223 42.7071 11.6223C39.4571 11.6223 38.0643 13.4404 37.6 13.4404Z" fill="#D0333D"/>
<path d="M5.59998 5.62225H38.6V42.1223C38.6 42.1223 35.6 47.1223 22.1 47.1223C8.6 47.1223 5.59998 42.1223 5.59998 42.1223V5.62225Z" fill="#FAA21E"/>
<path d="M5.59998 5.62225H38.6V42.1223C38.6 42.1223 35.6 47.1223 22.1 47.1223C8.6 47.1223 5.59998 42.1223 5.59998 42.1223V5.62225Z" fill="white" fill-opacity="0.95"/>
<ellipse cx="22.1" cy="5.12225" rx="16.5" ry="4.5" fill="#D0333D"/>
<ellipse cx="22.1" cy="5.12228" rx="14.5" ry="3.5" fill="#898989"/>
<ellipse cx="22.1" cy="5.12228" rx="14.5" ry="3.5" fill="white" fill-opacity="0.4"/>
<path d="M33.5998 7.12225C33.5998 6.62225 28.4511 5.62225 22.0999 5.62225C15.7486 5.62225 10.5999 6.62225 10.5999 7.12225C10.5999 7.62225 15.7486 8.62225 22.0999 8.62225C28.4511 8.62225 33.5998 7.62225 33.5998 7.12225Z" fill="#D0333D"/>
<path d="M33.5998 7.12225C33.5998 6.62225 28.4511 5.62225 22.0999 5.62225C15.7486 5.62225 10.5999 6.62225 10.5999 7.12225C10.5999 7.62225 15.7486 8.62225 22.0999 8.62225C28.4511 8.62225 33.5998 7.62225 33.5998 7.12225Z" fill="white" fill-opacity="0.4"/>
<path d="M16.7748 16.677C15.1304 17.3512 12.6936 17.7304 11.6808 17.8357V27.9482C11.6808 29.8442 11.7767 31.3782 13.8256 33.9524C15.8745 36.5266 22.0039 39.43 22.0039 39.43C22.0039 39.43 28.1332 36.5266 30.1531 33.9524C32.1731 31.3782 32.3547 29.142 32.3249 27.9482V17.8357C31.044 17.6602 28.1782 17.1826 26.9628 16.677C25.7474 16.1714 23.1952 14.4298 22.0036 13.6222C20.9907 14.3596 18.4192 16.0029 16.7748 16.677Z" fill="#546DDB"/>
<path d="M16.7748 16.677C15.1304 17.3512 12.6936 17.7304 11.6808 17.8357V27.9482C11.6808 29.8442 11.7767 31.3782 13.8256 33.9524C15.8745 36.5266 22.0039 39.43 22.0039 39.43C22.0039 39.43 28.1332 36.5266 30.1531 33.9524C32.1731 31.3782 32.3547 29.142 32.3249 27.9482V17.8357C31.044 17.6602 28.1782 17.1826 26.9628 16.677C25.7474 16.1714 23.1952 14.4298 22.0036 13.6222C20.9907 14.3596 18.4192 16.0029 16.7748 16.677Z" fill="white" fill-opacity="0.2"/>
<path d="M18.0822 18.6468C16.8489 19.1862 15.0213 19.4895 14.2616 19.5738V27.6638V27.6877C14.2616 29.1929 14.2615 30.3545 15.8703 32.4672C17.4876 34.591 22.0039 36.8492 22.0039 36.8492C22.0039 36.8492 25.8751 34.9136 28.0024 32.4672C30.1298 30.0207 29.7675 28.6188 29.7452 27.6638V19.5738C28.7844 19.4334 26.6351 19.0513 25.7235 18.6468C24.8119 18.2423 22.8976 16.8491 22.0039 16.203C21.2443 16.7929 19.3155 18.1075 18.0822 18.6468Z" fill="#FEFEFE"/>
<path d="M19.4231 20.6167C18.6008 21.0212 17.3487 21.3014 16.8423 21.3646V27.3793C16.8423 28.517 17.4875 30.0747 18.1327 31.0425C18.7779 32.0103 22.0038 34.2684 22.0038 34.2684C22.0038 34.2684 24.9072 32.3329 25.875 31.0425C26.8428 29.7521 27.1796 28.0956 27.1647 27.3793V21.3646C26.5242 21.2592 25.1923 20.92 24.5846 20.6167C23.9769 20.3133 22.5996 19.2683 22.0038 18.7838C21.4974 19.2262 20.2453 20.2122 19.4231 20.6167Z" fill="#546DDB"/>
<path d="M19.4231 20.6167C18.6008 21.0212 17.3487 21.3014 16.8423 21.3646V27.3793C16.8423 28.517 17.4875 30.0747 18.1327 31.0425C18.7779 32.0103 22.0038 34.2684 22.0038 34.2684C22.0038 34.2684 24.9072 32.3329 25.875 31.0425C26.8428 29.7521 27.1796 28.0956 27.1647 27.3793V21.3646C26.5242 21.2592 25.1923 20.92 24.5846 20.6167C23.9769 20.3133 22.5996 19.2683 22.0038 18.7838C21.4974 19.2262 20.2453 20.2122 19.4231 20.6167Z" fill="white" fill-opacity="0.2"/>
</g>
<defs>
<clipPath id="clip0_5959_10081">
<rect width="50" height="50" fill="white" transform="translate(0.599976 0.622192)"/>
</clipPath>
</defs>
</svg>
