<svg width="51" height="50" viewBox="0 0 51 50" fill="none" xmlns="http://www.w3.org/2000/svg">
<g clip-path="url(#clip0_5846_63740)">
<path d="M45.6037 37.5001C45.6037 39.7709 43.543 42.1497 39.4497 44.0184C35.4447 45.8467 29.842 47.0038 23.6 47.0038C17.358 47.0038 11.7552 45.8467 7.75027 44.0184C3.65692 42.1497 1.59627 39.7709 1.59627 37.5001C1.59627 35.2292 3.65692 32.8505 7.75027 30.9818C11.7552 29.1534 17.358 27.9964 23.6 27.9964C29.842 27.9964 35.4447 29.1534 39.4497 30.9818C43.543 32.8505 45.6037 35.2292 45.6037 37.5001Z" fill="#FAA21E"/>
<path d="M45.6037 37.5001C45.6037 39.7709 43.543 42.1497 39.4497 44.0184C35.4447 45.8467 29.842 47.0038 23.6 47.0038C17.358 47.0038 11.7552 45.8467 7.75027 44.0184C3.65692 42.1497 1.59627 39.7709 1.59627 37.5001C1.59627 35.2292 3.65692 32.8505 7.75027 30.9818C11.7552 29.1534 17.358 27.9964 23.6 27.9964C29.842 27.9964 35.4447 29.1534 39.4497 30.9818C43.543 32.8505 45.6037 35.2292 45.6037 37.5001Z" fill="white" fill-opacity="0.95"/>
<path d="M45.6037 37.5001C45.6037 39.7709 43.543 42.1497 39.4497 44.0184C35.4447 45.8467 29.842 47.0038 23.6 47.0038C17.358 47.0038 11.7552 45.8467 7.75027 44.0184C3.65692 42.1497 1.59627 39.7709 1.59627 37.5001C1.59627 35.2292 3.65692 32.8505 7.75027 30.9818C11.7552 29.1534 17.358 27.9964 23.6 27.9964C29.842 27.9964 35.4447 29.1534 39.4497 30.9818C43.543 32.8505 45.6037 35.2292 45.6037 37.5001Z" stroke="#D0333D" stroke-width="1.99259"/>
<ellipse cx="23.6" cy="37.5001" rx="17" ry="6.5" fill="#898989"/>
<ellipse cx="23.6" cy="37.5001" rx="17" ry="6.5" fill="white" fill-opacity="0.8"/>
<g clip-path="url(#clip1_5846_63740)">
<path d="M23.4299 42.171C18.0017 42.171 14.4964 40.1858 14.0001 39.1932C13.5038 38.2006 13.5038 34.6574 13.5038 34.6574H33.356C33.356 36.775 33.479 38.1965 32.8597 39.1932C31.8727 40.7814 28.3647 42.171 23.4299 42.171Z" fill="#D0333D"/>
<path d="M40.6851 20.0494C39.8788 20.0136 38.7081 19.0908 39.1885 17.3708C39.669 15.6509 41.7426 14.4371 44.1614 14.5447C46.5802 14.6524 47.7316 16.0096 48.9023 16.9323C48.8637 17.8013 49.1122 21.295 46.9612 24.2467C44.8102 27.1984 42.4272 28.3651 39.876 29.1555C38.2377 29.6631 37.783 30.8037 37.7444 31.6727C37.7057 32.5416 38.4733 33.4464 39.2796 33.4823" stroke="#D0333D" stroke-width="2.48152" stroke-linecap="round"/>
<path d="M42.2895 9.00897H4.57043C6.18851 12.7845 7.26722 13.3238 8.34594 17.6387C8.88529 19.7961 8.34594 26.6574 9.42465 30.4329C10.7907 35.2142 13.5945 37.7154 16.4363 39.0626C19.2662 40.4042 27.1039 40.4042 30.4596 39.0626C33.3798 37.8952 36.1474 35.2871 37.4712 30.4329C38.9997 24.8286 37.9065 20.8558 38.5499 17.6387C39.0893 14.9419 40.132 13.3238 42.2895 9.00897Z" fill="#898989"/>
<path d="M42.2895 9.00897H4.57043C6.18851 12.7845 7.26722 13.3238 8.34594 17.6387C8.88529 19.7961 8.34594 26.6574 9.42465 30.4329C10.7907 35.2142 13.5945 37.7154 16.4363 39.0626C19.2662 40.4042 27.1039 40.4042 30.4596 39.0626C33.3798 37.8952 36.1474 35.2871 37.4712 30.4329C38.9997 24.8286 37.9065 20.8558 38.5499 17.6387C39.0893 14.9419 40.132 13.3238 42.2895 9.00897Z" fill="white" fill-opacity="0.95"/>
<path d="M42.2895 8.80528C42.2895 11.4836 34.0725 13.7435 23.6567 13.7435C13.2409 13.7435 4.57043 11.4836 4.57043 8.80528C4.57043 6.12692 13.2409 3.95569 23.6567 3.95569C34.0725 3.95569 42.2895 6.12692 42.2895 8.80528Z" fill="#898989"/>
<path d="M42.2895 8.80528C42.2895 11.4836 34.0725 13.7435 23.6567 13.7435C13.2409 13.7435 4.57043 11.4836 4.57043 8.80528C4.57043 6.12692 13.2409 3.95569 23.6567 3.95569C34.0725 3.95569 42.2895 6.12692 42.2895 8.80528Z" fill="white" fill-opacity="0.6"/>
<path d="M42.2895 8.80528C42.2895 11.4836 34.0725 13.7435 23.6567 13.7435C13.2409 13.7435 4.57043 11.4836 4.57043 8.80528C4.57043 6.12692 13.2409 3.95569 23.6567 3.95569C34.0725 3.95569 42.2895 6.12692 42.2895 8.80528Z" stroke="#D0333D" stroke-width="1.48891"/>
<path d="M37.4629 11.3808C37.4629 11.0321 29.8425 9.88636 23.5148 9.88636C17.187 9.88636 9.56665 11.0321 9.56665 11.3808C9.56665 11.7294 15.5444 13.1741 23.5148 13.1741C32.4815 13.1741 37.4629 11.7294 37.4629 11.3808Z" fill="#D0333D"/>
<path d="M37.4629 11.3808C37.4629 11.0321 29.8425 9.88636 23.5148 9.88636C17.187 9.88636 9.56665 11.0321 9.56665 11.3808C9.56665 11.7294 15.5444 13.1741 23.5148 13.1741C32.4815 13.1741 37.4629 11.7294 37.4629 11.3808Z" fill="white" fill-opacity="0.4"/>
</g>
<path d="M27.6 32.8485C27.6 34.3637 27.1952 35.5001 23.5524 35.5001C22.0682 35.5001 19.1 34.9698 19.1 32.8485C19.1 30.197 20.3143 23.0001 23.5524 23.0001C26.7905 23.0001 27.6 31.3334 27.6 32.8485Z" fill="#546DDB"/>
<path d="M27.6 32.8485C27.6 34.3637 27.1952 35.5001 23.5524 35.5001C22.0682 35.5001 19.1 34.9698 19.1 32.8485C19.1 30.197 20.3143 23.0001 23.5524 23.0001C26.7905 23.0001 27.6 31.3334 27.6 32.8485Z" fill="white" fill-opacity="0.6"/>
<path d="M33.5371 25.2501C34.275 23.2858 28.3717 17.0001 23.5753 17.0001C17.6725 17.0001 13.319 23.6786 13.6141 25.2501C13.9831 27.2143 19.517 28.0001 23.5753 28.0001C27.6336 28.0001 32.7992 27.2143 33.5371 25.2501Z" fill="#7445B8"/>
<path d="M33.5371 25.2501C34.275 23.2858 28.3717 17.0001 23.5753 17.0001C17.6725 17.0001 13.319 23.6786 13.6141 25.2501C13.9831 27.2143 19.517 28.0001 23.5753 28.0001C27.6336 28.0001 32.7992 27.2143 33.5371 25.2501Z" fill="white" fill-opacity="0.4"/>
<path d="M21.483 20.6186C22.0795 20.1567 22.9799 19.8411 22.213 19.0979C21.4461 18.3547 20.4027 18.9758 19.806 19.4376C19.0513 20.0215 18.3206 20.9694 19.0865 21.7121C20.1075 22.7022 20.8865 21.0804 21.483 20.6186Z" fill="#FEFEFE"/>
<path d="M18.7863 23.1536C18.5685 22.729 18.0295 22.2012 17.605 22.419C17.1801 22.6367 16.6954 23.2606 16.8699 23.6001C17.0881 24.0247 17.4505 24.6421 18.0511 24.3347C18.4762 24.1171 18.9403 23.4537 18.7863 23.1536Z" fill="#FEFEFE"/>
</g>
<defs>
<clipPath id="clip0_5846_63740">
<rect width="50" height="50" fill="white" transform="translate(0.599976)"/>
</clipPath>
<clipPath id="clip1_5846_63740">
<rect width="49.8148" height="49.8148" fill="white" transform="translate(0.599976 -1.99994)"/>
</clipPath>
</defs>
</svg>
