<svg width="50" height="50" viewBox="0 0 50 50" fill="none" xmlns="http://www.w3.org/2000/svg">
<g clip-path="url(#clip0_5846_63738)">
<path d="M45.0037 37.5001C45.0037 39.7709 42.9431 42.1497 38.8497 44.0184C34.8448 45.8467 29.242 47.0038 23 47.0038C16.758 47.0038 11.1552 45.8467 7.1503 44.0184C3.05695 42.1497 0.996296 39.7709 0.996296 37.5001C0.996296 35.2292 3.05695 32.8505 7.1503 30.9818C11.1552 29.1534 16.758 27.9964 23 27.9964C29.242 27.9964 34.8448 29.1534 38.8497 30.9818C42.9431 32.8505 45.0037 35.2292 45.0037 37.5001Z" fill="#FAA21E"/>
<path d="M45.0037 37.5001C45.0037 39.7709 42.9431 42.1497 38.8497 44.0184C34.8448 45.8467 29.242 47.0038 23 47.0038C16.758 47.0038 11.1552 45.8467 7.1503 44.0184C3.05695 42.1497 0.996296 39.7709 0.996296 37.5001C0.996296 35.2292 3.05695 32.8505 7.1503 30.9818C11.1552 29.1534 16.758 27.9964 23 27.9964C29.242 27.9964 34.8448 29.1534 38.8497 30.9818C42.9431 32.8505 45.0037 35.2292 45.0037 37.5001Z" fill="white" fill-opacity="0.95"/>
<path d="M45.0037 37.5001C45.0037 39.7709 42.9431 42.1497 38.8497 44.0184C34.8448 45.8467 29.242 47.0038 23 47.0038C16.758 47.0038 11.1552 45.8467 7.1503 44.0184C3.05695 42.1497 0.996296 39.7709 0.996296 37.5001C0.996296 35.2292 3.05695 32.8505 7.1503 30.9818C11.1552 29.1534 16.758 27.9964 23 27.9964C29.242 27.9964 34.8448 29.1534 38.8497 30.9818C42.9431 32.8505 45.0037 35.2292 45.0037 37.5001Z" stroke="#D0333D" stroke-width="1.99259"/>
<ellipse cx="23" cy="37.5001" rx="17" ry="6.5" fill="#898989"/>
<ellipse cx="23" cy="37.5001" rx="17" ry="6.5" fill="white" fill-opacity="0.8"/>
<g clip-path="url(#clip1_5846_63738)">
<path d="M22.8299 42.171C17.4017 42.171 13.8965 40.1858 13.4002 39.1932C12.9039 38.2006 12.9039 34.6574 12.9039 34.6574H32.756C32.756 36.775 32.8791 38.1965 32.2597 39.1932C31.2727 40.7814 27.7647 42.171 22.8299 42.171Z" fill="#D0333D"/>
<path d="M40.0851 20.0494C39.2788 20.0136 38.1081 19.0908 38.5886 17.3708C39.069 15.6509 41.1427 14.4371 43.5614 14.5447C45.9802 14.6524 47.1316 16.0096 48.3024 16.9323C48.2637 17.8013 48.5122 21.295 46.3612 24.2467C44.2102 27.1984 41.8272 28.3651 39.276 29.1555C37.6377 29.6631 37.183 30.8037 37.1444 31.6727C37.1057 32.5416 37.8733 33.4464 38.6796 33.4823" stroke="#D0333D" stroke-width="2.48152" stroke-linecap="round"/>
<path d="M41.6894 9.00897H3.9704C5.58847 12.7845 6.66718 13.3238 7.7459 17.6387C8.28526 19.7961 7.7459 26.6574 8.82461 30.4329C10.1907 35.2142 12.9945 37.7154 15.8363 39.0626C18.6661 40.4042 26.5039 40.4042 29.8595 39.0626C32.7798 37.8952 35.5473 35.2871 36.8712 30.4329C38.3997 24.8286 37.3065 20.8558 37.9499 17.6387C38.4893 14.9419 39.532 13.3238 41.6894 9.00897Z" fill="#898989"/>
<path d="M41.6894 9.00897H3.9704C5.58847 12.7845 6.66718 13.3238 7.7459 17.6387C8.28526 19.7961 7.7459 26.6574 8.82461 30.4329C10.1907 35.2142 12.9945 37.7154 15.8363 39.0626C18.6661 40.4042 26.5039 40.4042 29.8595 39.0626C32.7798 37.8952 35.5473 35.2871 36.8712 30.4329C38.3997 24.8286 37.3065 20.8558 37.9499 17.6387C38.4893 14.9419 39.532 13.3238 41.6894 9.00897Z" fill="white" fill-opacity="0.95"/>
<path d="M41.6894 8.80528C41.6894 11.4836 33.4725 13.7435 23.0566 13.7435C12.6408 13.7435 3.9704 11.4836 3.9704 8.80528C3.9704 6.12692 12.6408 3.95569 23.0566 3.95569C33.4725 3.95569 41.6894 6.12692 41.6894 8.80528Z" fill="#898989"/>
<path d="M41.6894 8.80528C41.6894 11.4836 33.4725 13.7435 23.0566 13.7435C12.6408 13.7435 3.9704 11.4836 3.9704 8.80528C3.9704 6.12692 12.6408 3.95569 23.0566 3.95569C33.4725 3.95569 41.6894 6.12692 41.6894 8.80528Z" fill="white" fill-opacity="0.6"/>
<path d="M41.6894 8.80528C41.6894 11.4836 33.4725 13.7435 23.0566 13.7435C12.6408 13.7435 3.9704 11.4836 3.9704 8.80528C3.9704 6.12692 12.6408 3.95569 23.0566 3.95569C33.4725 3.95569 41.6894 6.12692 41.6894 8.80528Z" stroke="#D0333D" stroke-width="1.19556"/>
<path d="M36.863 11.3808C36.863 11.0321 29.2426 9.88636 22.9148 9.88636C16.5871 9.88636 8.96667 11.0321 8.96667 11.3808C8.96667 11.7294 14.9445 13.1741 22.9148 13.1741C31.8815 13.1741 36.863 11.7294 36.863 11.3808Z" fill="#D0333D"/>
<path d="M36.863 11.3808C36.863 11.0321 29.2426 9.88636 22.9148 9.88636C16.5871 9.88636 8.96667 11.0321 8.96667 11.3808C8.96667 11.7294 14.9445 13.1741 22.9148 13.1741C31.8815 13.1741 36.863 11.7294 36.863 11.3808Z" fill="white" fill-opacity="0.4"/>
</g>
<path d="M26.1625 17.4875C26.1625 16.7029 24.15 16.5002 23 16.5002C21.85 16.5002 19.8375 16.7206 19.8375 17.4875C19.8375 17.9107 20.2687 18.0517 20.4125 18.1928C20.4604 18.6629 20.47 19.8289 20.125 20.7316C19.6937 21.86 18.7475 22.2079 18.1125 22.7063C17.3937 23.2705 17.25 24.3989 17.25 24.9631L17.25 33.9902C17.3937 34.4134 18.488 35.2414 19.8375 35.6828C21.1312 36.106 24.4375 36.106 25.875 35.6828C27.1812 35.2983 28.75 34.4134 28.75 33.9902L28.75 24.9631C28.75 24.3519 28.75 23.2141 27.8875 22.7063C27.025 22.1986 26.3062 21.5779 25.875 20.7317C25.53 20.0546 25.5396 18.804 25.5875 18.1928C25.875 18.0517 26.1625 17.8402 26.1625 17.4875Z" fill="white"/>
<path d="M26.1625 17.4875C26.1625 16.7029 24.15 16.5002 23 16.5002C21.85 16.5002 19.8375 16.7206 19.8375 17.4875C19.8375 17.9107 20.2687 18.0517 20.4125 18.1928C20.4604 18.6629 20.47 19.8289 20.125 20.7316C19.6937 21.86 18.7475 22.2079 18.1125 22.7063C17.3937 23.2705 17.25 24.3989 17.25 24.9631L17.25 33.9902C17.3937 34.4134 18.488 35.2414 19.8375 35.6828C21.1312 36.106 24.4375 36.106 25.875 35.6828C27.1812 35.2983 28.75 34.4134 28.75 33.9902L28.75 24.9631C28.75 24.3519 28.75 23.2141 27.8875 22.7063C27.025 22.1986 26.3062 21.5779 25.875 20.7317C25.53 20.0546 25.5396 18.804 25.5875 18.1928C25.875 18.0517 26.1625 17.8402 26.1625 17.4875Z" stroke="#898989" stroke-width="0.498148"/>
<path d="M26.1625 17.4875C26.1625 16.7029 24.15 16.5002 23 16.5002C21.85 16.5002 19.8375 16.7206 19.8375 17.4875C19.8375 17.9107 20.2687 18.0517 20.4125 18.1928C20.4604 18.6629 20.47 19.8289 20.125 20.7316C19.6937 21.86 18.7475 22.2079 18.1125 22.7063C17.3937 23.2705 17.25 24.3989 17.25 24.9631L17.25 33.9902C17.3937 34.4134 18.488 35.2414 19.8375 35.6828C21.1312 36.106 24.4375 36.106 25.875 35.6828C27.1812 35.2983 28.75 34.4134 28.75 33.9902L28.75 24.9631C28.75 24.3519 28.75 23.2141 27.8875 22.7063C27.025 22.1986 26.3062 21.5779 25.875 20.7317C25.53 20.0546 25.5396 18.804 25.5875 18.1928C25.875 18.0517 26.1625 17.8402 26.1625 17.4875Z" stroke="white" stroke-opacity="0.2" stroke-width="0.498148"/>
<path d="M26.6711 26.4051C26.2104 26.6868 25.8164 26.2485 25.2243 26.3911C24.6323 26.5337 24.4348 26.7281 24.237 27.0844C24.0303 27.4568 24.0384 28.1698 24.4326 28.5084C24.991 28.9881 25.7092 29.4749 26.8272 29.5112C28.1078 29.5527 28.344 28.8249 28.75 28.5084L28.75 26.7501C28.6735 26.5498 28.6772 26.1998 28.4145 25.9011C28.0861 25.5278 27.5273 25.4108 27.2311 25.632C26.8933 25.8841 27.0234 26.1896 26.6711 26.4051Z" fill="#898989"/>
<path d="M26.6711 26.4051C26.2104 26.6868 25.8164 26.2485 25.2243 26.3911C24.6323 26.5337 24.4348 26.7281 24.237 27.0844C24.0303 27.4568 24.0384 28.1698 24.4326 28.5084C24.991 28.9881 25.7092 29.4749 26.8272 29.5112C28.1078 29.5527 28.344 28.8249 28.75 28.5084L28.75 26.7501C28.6735 26.5498 28.6772 26.1998 28.4145 25.9011C28.0861 25.5278 27.5273 25.4108 27.2311 25.632C26.8933 25.8841 27.0234 26.1896 26.6711 26.4051Z" fill="white" fill-opacity="0.2"/>
<path d="M19.7 21.5002C19.2816 21.9861 18.6984 22.2343 18.45 22.5002C18.7525 22.9421 19.0827 22.9749 19.5981 22.9617C20.4226 22.9406 19.9603 23.4285 21.1258 24.0191C22.2914 24.6096 23.2796 24.0156 23.5207 23.3612C23.7627 22.7068 23.0599 22.2947 22.7773 22.1649C22.4947 22.0351 22.7788 21.6801 22.7316 21.2409C22.6835 20.8012 22.6004 20.311 22 20.0001C21.5991 19.7926 20.7871 19.8129 20.3 20.0001C20.1464 20.5991 20.0733 21.0666 19.7 21.5002Z" fill="#898989"/>
<path d="M19.7 21.5002C19.2816 21.9861 18.6984 22.2343 18.45 22.5002C18.7525 22.9421 19.0827 22.9749 19.5981 22.9617C20.4226 22.9406 19.9603 23.4285 21.1258 24.0191C22.2914 24.6096 23.2796 24.0156 23.5207 23.3612C23.7627 22.7068 23.0599 22.2947 22.7773 22.1649C22.4947 22.0351 22.7788 21.6801 22.7316 21.2409C22.6835 20.8012 22.6004 20.311 22 20.0001C21.5991 19.7926 20.7871 19.8129 20.3 20.0001C20.1464 20.5991 20.0733 21.0666 19.7 21.5002Z" fill="white" fill-opacity="0.2"/>
<path d="M18.9998 28.7502C18.203 28.6103 17.2505 29.146 17.2498 29.75L17.2498 34.0001C17.2498 34.0001 17.6431 34.5957 18.2498 35.0002C19.7498 36.0003 21.2774 36.0012 21.9998 36.0006C21.9998 35.5006 21.212 35.4323 21.2301 35.0898C21.2482 34.7474 22.0611 34.8908 22.7129 34.4452C23.0897 34.1875 23.4761 33.2084 22.6203 32.6142C21.696 31.9725 20.56 32.493 20.4246 32.0392C20.2892 31.5854 20.7847 31.499 20.8127 30.7664C20.8479 29.8427 20.4246 29.0004 18.9998 28.7502Z" fill="#898989"/>
<path d="M18.9998 28.7502C18.203 28.6103 17.2505 29.146 17.2498 29.75L17.2498 34.0001C17.2498 34.0001 17.6431 34.5957 18.2498 35.0002C19.7498 36.0003 21.2774 36.0012 21.9998 36.0006C21.9998 35.5006 21.212 35.4323 21.2301 35.0898C21.2482 34.7474 22.0611 34.8908 22.7129 34.4452C23.0897 34.1875 23.4761 33.2084 22.6203 32.6142C21.696 31.9725 20.56 32.493 20.4246 32.0392C20.2892 31.5854 20.7847 31.499 20.8127 30.7664C20.8479 29.8427 20.4246 29.0004 18.9998 28.7502Z" fill="white" fill-opacity="0.2"/>
<ellipse cx="23.0238" cy="17.3867" rx="2.52321" ry="0.639213" transform="matrix(1 -0.000998568 0.00100092 1 -0.0173912 0.0229996)" fill="#898989"/>
<ellipse cx="23.0238" cy="17.3867" rx="2.52321" ry="0.639213" transform="matrix(1 -0.000998568 0.00100092 1 -0.0173912 0.0229996)" fill="white" fill-opacity="0.6"/>
</g>
<defs>
<clipPath id="clip0_5846_63738">
<rect width="50" height="50" fill="white"/>
</clipPath>
<clipPath id="clip1_5846_63738">
<rect width="49.8148" height="49.8148" fill="white" transform="translate(0 -1.99994)"/>
</clipPath>
</defs>
</svg>
