<svg width="51" height="51" viewBox="0 0 51 51" fill="none" xmlns="http://www.w3.org/2000/svg">
<g clip-path="url(#clip0_5959_10077)">
<ellipse cx="22.3" cy="43.1222" rx="21.5" ry="7.5" fill="#D0333D"/>
<path d="M37.8 13.4404V17.0768C38.4191 16.3192 39.9358 14.3495 42.9072 14.3495C46.6215 14.3495 48.0143 18.4404 48.0143 21.6223C48.0143 24.8041 46.1572 28.895 42.9072 28.895C40.3072 28.895 38.2643 26.6223 37.8 26.1677V29.8041C38.2643 29.8041 39.1929 31.6223 42.9072 31.6223C47.55 31.6223 50.8 27.5313 50.8 21.6223C50.8 15.7132 47.55 11.6223 42.9072 11.6223C39.6572 11.6223 38.2643 13.4404 37.8 13.4404Z" fill="#D0333D"/>
<path d="M5.80005 5.62225H38.8V42.1222C38.8 42.1222 35.8 47.1222 22.3001 47.1222C8.80008 47.1222 5.80005 42.1222 5.80005 42.1222V5.62225Z" fill="#FAA21E"/>
<path d="M5.80005 5.62225H38.8V42.1222C38.8 42.1222 35.8 47.1222 22.3001 47.1222C8.80008 47.1222 5.80005 42.1222 5.80005 42.1222V5.62225Z" fill="white" fill-opacity="0.95"/>
<ellipse cx="22.3" cy="5.12225" rx="16.5" ry="4.5" fill="#D0333D"/>
<ellipse cx="22.2999" cy="5.12228" rx="14.5" ry="3.5" fill="#898989"/>
<ellipse cx="22.2999" cy="5.12228" rx="14.5" ry="3.5" fill="white" fill-opacity="0.4"/>
<path d="M33.7999 7.12225C33.7999 6.62225 28.6512 5.62225 22.2999 5.62225C15.9487 5.62225 10.7999 6.62225 10.7999 7.12225C10.7999 7.62225 15.9487 8.62225 22.2999 8.62225C28.6512 8.62225 33.7999 7.62225 33.7999 7.12225Z" fill="#D0333D"/>
<path d="M33.7999 7.12225C33.7999 6.62225 28.6512 5.62225 22.2999 5.62225C15.9487 5.62225 10.7999 6.62225 10.7999 7.12225C10.7999 7.62225 15.9487 8.62225 22.2999 8.62225C28.6512 8.62225 33.7999 7.62225 33.7999 7.12225Z" fill="white" fill-opacity="0.4"/>
<path d="M9.33167 25.1708C9.33182 22.1262 11.7131 20.5806 12.3934 20.5806C12.2658 21.1361 12.2537 21.4723 12.3934 22.1448C12.5029 22.6718 12.6202 23.0414 12.7336 23.1535L13.7541 22.8173C13.3806 21.9255 13.2723 20.4566 13.7541 19.455C14.4011 18.1101 15.1148 17.1014 17.496 17.1014C20.014 17.1014 20.5242 17.7739 21.238 18.4464L22.2251 17.8908L21.2046 16.8821C21.7715 16.658 23.4151 16.2945 25.3201 17.1014C27.1836 17.8908 27.3277 18.8995 28.0081 19.9082L28.7218 19.455L28.0415 18.1101C28.495 18.1661 29.6027 18.1101 31.1031 19.1188C32.361 19.9644 32.8039 20.7439 32.8039 21.1361C32.3504 21.1361 31.2391 21.2034 30.4227 21.4723C29.6063 21.7413 28.9486 22.2569 28.7218 22.481L29.4022 23.1535C30.0492 22.8173 30.2192 22.1448 32.1236 22.1448C34.3651 22.1448 35.5253 24.6153 35.5253 26.8519C35.5253 29.6586 34.1646 31.2228 32.1236 31.8953C30.4907 32.4332 28.7218 32.3436 28.0415 32.2315C28.2683 32.6798 28.7565 33.4916 29.0286 34.0295C29.3008 34.5675 29.3688 35.0382 29.4022 35.5937L27.3611 35.2575C27.0209 34.8092 26.3072 33.6933 25.3201 32.9039C24.4225 32.1862 22.9055 31.5639 22.5653 31.3397C22.9055 31.3397 23.9053 30.7996 24.2662 30.6673C24.5851 30.5504 24.9465 30.3311 25.6602 29.8779L24.6397 29.2055C23.846 29.7658 21.7142 30.8193 19.5371 30.5504C16.8157 30.2141 16.1353 28.65 16.1353 27.0621C16.1353 25.9597 17.4627 24.7554 18.143 24.2791L17.1559 23.8259C16.5889 24.1621 15.3869 25.238 15.1148 26.8519C14.8427 28.4658 15.6818 29.5417 16.1353 29.8779C15.3416 29.99 13.1867 30.1461 12.0531 29.6586C10.9993 29.2055 9.33151 28.3137 9.33167 25.1708Z" fill="#CE4317"/>
<path d="M9.33167 25.1708C9.33182 22.1262 11.7131 20.5806 12.3934 20.5806C12.2658 21.1361 12.2537 21.4723 12.3934 22.1448C12.5029 22.6718 12.6202 23.0414 12.7336 23.1535L13.7541 22.8173C13.3806 21.9255 13.2723 20.4566 13.7541 19.455C14.4011 18.1101 15.1148 17.1014 17.496 17.1014C20.014 17.1014 20.5242 17.7739 21.238 18.4464L22.2251 17.8908L21.2046 16.8821C21.7715 16.658 23.4151 16.2945 25.3201 17.1014C27.1836 17.8908 27.3277 18.8995 28.0081 19.9082L28.7218 19.455L28.0415 18.1101C28.495 18.1661 29.6027 18.1101 31.1031 19.1188C32.361 19.9644 32.8039 20.7439 32.8039 21.1361C32.3504 21.1361 31.2391 21.2034 30.4227 21.4723C29.6063 21.7413 28.9486 22.2569 28.7218 22.481L29.4022 23.1535C30.0492 22.8173 30.2192 22.1448 32.1236 22.1448C34.3651 22.1448 35.5253 24.6153 35.5253 26.8519C35.5253 29.6586 34.1646 31.2228 32.1236 31.8953C30.4907 32.4332 28.7218 32.3436 28.0415 32.2315C28.2683 32.6798 28.7565 33.4916 29.0286 34.0295C29.3008 34.5675 29.3688 35.0382 29.4022 35.5937L27.3611 35.2575C27.0209 34.8092 26.3072 33.6933 25.3201 32.9039C24.4225 32.1862 22.9055 31.5639 22.5653 31.3397C22.9055 31.3397 23.9053 30.7996 24.2662 30.6673C24.5851 30.5504 24.9465 30.3311 25.6602 29.8779L24.6397 29.2055C23.846 29.7658 21.7142 30.8193 19.5371 30.5504C16.8157 30.2141 16.1353 28.65 16.1353 27.0621C16.1353 25.9597 17.4627 24.7554 18.143 24.2791L17.1559 23.8259C16.5889 24.1621 15.3869 25.238 15.1148 26.8519C14.8427 28.4658 15.6818 29.5417 16.1353 29.8779C15.3416 29.99 13.1867 30.1461 12.0531 29.6586C10.9993 29.2055 9.33151 28.3137 9.33167 25.1708Z" fill="white" fill-opacity="0.6"/>
</g>
<defs>
<clipPath id="clip0_5959_10077">
<rect width="50" height="50" fill="white" transform="translate(0.800049 0.622192)"/>
</clipPath>
</defs>
</svg>
