<svg width="50" height="50" viewBox="0 0 50 50" fill="none" xmlns="http://www.w3.org/2000/svg">
<g clip-path="url(#clip0_5959_10075)">
<ellipse cx="21.5" cy="42.5" rx="21.5" ry="7.5" fill="#D0333D"/>
<path d="M37 12.8182V16.4546C37.619 15.697 39.1357 13.7273 42.1071 13.7273C45.8214 13.7273 47.2143 17.8182 47.2143 21.0001C47.2143 24.1819 45.3571 28.2728 42.1071 28.2728C39.5071 28.2728 37.4643 26.0001 37 25.5455V29.1819C37.4643 29.1819 38.3929 31.0001 42.1071 31.0001C46.75 31.0001 50 26.9092 50 21.0001C50 15.091 46.75 11.0001 42.1071 11.0001C38.8571 11.0001 37.4643 12.8182 37 12.8182Z" fill="#D0333D"/>
<path d="M5 5.00006H38V41.5001C38 41.5001 35 46.5001 21.5 46.5001C8.00003 46.5001 5 41.5001 5 41.5001V5.00006Z" fill="#898989"/>
<path d="M5 5.00006H38V41.5001C38 41.5001 35 46.5001 21.5 46.5001C8.00003 46.5001 5 41.5001 5 41.5001V5.00006Z" fill="white" fill-opacity="0.95"/>
<ellipse cx="21.5" cy="4.50006" rx="16.5" ry="4.5" fill="#D0333D"/>
<ellipse cx="21.5" cy="4.50009" rx="14.5" ry="3.5" fill="#898989"/>
<ellipse cx="21.5" cy="4.50009" rx="14.5" ry="3.5" fill="white" fill-opacity="0.6"/>
<path d="M32.9999 6.50006C32.9999 6.00006 27.8511 5.00006 21.4999 5.00006C15.1486 5.00006 9.99988 6.00006 9.99988 6.50006C9.99988 7.00006 15.1486 8.00006 21.4999 8.00006C27.8511 8.00006 32.9999 7.00006 32.9999 6.50006Z" fill="#D0333D"/>
<path d="M32.9999 6.50006C32.9999 6.00006 27.8511 5.00006 21.4999 5.00006C15.1486 5.00006 9.99988 6.00006 9.99988 6.50006C9.99988 7.00006 15.1486 8.00006 21.4999 8.00006C27.8511 8.00006 32.9999 7.00006 32.9999 6.50006Z" fill="white" fill-opacity="0.4"/>
<path d="M13.3347 15.1175C19.204 11.0432 20.7234 18.7563 20.7495 23.1221C24.2656 19.8226 31.6596 15.3044 33.1067 23.6282C34.5539 31.9519 21.8094 35.2671 15.2562 35.8841C12.1702 30.6596 7.46547 19.1918 13.3347 15.1175Z" fill="#CE4317"/>
<path d="M13.3347 15.1175C19.204 11.0432 20.7234 18.7563 20.7495 23.1221C24.2656 19.8226 31.6596 15.3044 33.1067 23.6282C34.5539 31.9519 21.8094 35.2671 15.2562 35.8841C12.1702 30.6596 7.46547 19.1918 13.3347 15.1175Z" fill="white" fill-opacity="0.15"/>
<path d="M16.4417 18.5407C17.1836 17.9149 18.324 17.4607 17.2982 16.5466C16.2724 15.6326 14.9646 16.4872 14.2224 17.1128C13.2838 17.9041 12.3956 19.1618 13.4201 20.0753C14.7857 21.293 15.6998 19.1664 16.4417 18.5407Z" fill="#FEFEFE"/>
<path d="M14.7273 22.3807C14.2964 21.9435 13.4315 21.5032 12.9943 21.934C12.5565 22.3649 12.2019 23.3174 12.5468 23.6669C12.9783 24.1041 13.6609 24.7224 14.2798 24.1137C14.7177 23.6829 15.0319 22.6899 14.7273 22.3807Z" fill="#FEFEFE"/>
</g>
<defs>
<clipPath id="clip0_5959_10075">
<rect width="50" height="50" fill="white"/>
</clipPath>
</defs>
</svg>
