<svg width="51" height="51" viewBox="0 0 51 51" fill="none" xmlns="http://www.w3.org/2000/svg">
<g clip-path="url(#clip0_5846_63741)">
<path d="M45.4037 37.7706C45.4037 40.0414 43.3431 42.4202 39.2497 44.2889C35.2448 46.1172 29.642 47.2743 23.4 47.2743C17.158 47.2743 11.5553 46.1172 7.55032 44.2889C3.45697 42.4202 1.39632 40.0414 1.39632 37.7706C1.39632 35.4997 3.45697 33.121 7.55032 31.2523C11.5553 29.4239 17.158 28.2669 23.4 28.2669C29.642 28.2669 35.2448 29.4239 39.2497 31.2523C43.3431 33.121 45.4037 35.4997 45.4037 37.7706Z" fill="#FAA21E"/>
<path d="M45.4037 37.7706C45.4037 40.0414 43.3431 42.4202 39.2497 44.2889C35.2448 46.1172 29.642 47.2743 23.4 47.2743C17.158 47.2743 11.5553 46.1172 7.55032 44.2889C3.45697 42.4202 1.39632 40.0414 1.39632 37.7706C1.39632 35.4997 3.45697 33.121 7.55032 31.2523C11.5553 29.4239 17.158 28.2669 23.4 28.2669C29.642 28.2669 35.2448 29.4239 39.2497 31.2523C43.3431 33.121 45.4037 35.4997 45.4037 37.7706Z" fill="white" fill-opacity="0.95"/>
<path d="M45.4037 37.7706C45.4037 40.0414 43.3431 42.4202 39.2497 44.2889C35.2448 46.1172 29.642 47.2743 23.4 47.2743C17.158 47.2743 11.5553 46.1172 7.55032 44.2889C3.45697 42.4202 1.39632 40.0414 1.39632 37.7706C1.39632 35.4997 3.45697 33.121 7.55032 31.2523C11.5553 29.4239 17.158 28.2669 23.4 28.2669C29.642 28.2669 35.2448 29.4239 39.2497 31.2523C43.3431 33.121 45.4037 35.4997 45.4037 37.7706Z" stroke="#D0333D" stroke-width="1.99259"/>
<ellipse cx="23.4" cy="37.7706" rx="17" ry="6.5" fill="#898989"/>
<ellipse cx="23.4" cy="37.7706" rx="17" ry="6.5" fill="white" fill-opacity="0.8"/>
<path d="M23.23 42.4415C17.8017 42.4415 14.2965 40.4563 13.8002 39.4637C13.3039 38.4711 13.3039 34.9279 13.3039 34.9279H33.156C33.156 37.0455 33.2791 38.467 32.6597 39.4637C31.6728 41.0519 28.1647 42.4415 23.23 42.4415Z" fill="#D0333D"/>
<path d="M40.4851 20.3199C39.6788 20.2841 38.5081 19.3613 38.9885 17.6414C39.469 15.9214 41.5426 14.7076 43.9614 14.8153C46.3802 14.9229 47.5316 16.2801 48.7023 17.2028C48.6637 18.0718 48.9121 21.5655 46.7612 24.5172C44.6102 27.4689 42.2272 28.6356 39.676 29.426C38.0377 29.9336 37.583 31.0742 37.5443 31.9432C37.5057 32.8121 38.2733 33.717 39.0796 33.7528" stroke="#D0333D" stroke-width="2.48152" stroke-linecap="round"/>
<path d="M42.0895 9.27948H4.37048C5.98856 13.055 7.06727 13.5943 8.14598 17.9092C8.68534 20.0666 8.14598 26.9279 9.2247 30.7034C10.5908 35.4847 13.3946 37.9859 16.2363 39.3332C19.0662 40.6747 26.9039 40.6747 30.2596 39.3332C33.1799 38.1657 35.9474 35.5577 37.2713 30.7034C38.7997 25.0991 37.7066 21.1263 38.35 17.9092C38.8894 15.2124 39.9321 13.5943 42.0895 9.27948Z" fill="#898989"/>
<path d="M42.0895 9.27948H4.37048C5.98856 13.055 7.06727 13.5943 8.14598 17.9092C8.68534 20.0666 8.14598 26.9279 9.2247 30.7034C10.5908 35.4847 13.3946 37.9859 16.2363 39.3332C19.0662 40.6747 26.9039 40.6747 30.2596 39.3332C33.1799 38.1657 35.9474 35.5577 37.2713 30.7034C38.7997 25.0991 37.7066 21.1263 38.35 17.9092C38.8894 15.2124 39.9321 13.5943 42.0895 9.27948Z" fill="white" fill-opacity="0.95"/>
<path d="M42.0895 9.07579C42.0895 11.7541 33.8726 14.014 23.4567 14.014C13.0409 14.014 4.37048 11.7541 4.37048 9.07579C4.37048 6.39743 13.0409 4.2262 23.4567 4.2262C33.8726 4.2262 42.0895 6.39743 42.0895 9.07579Z" fill="#898989"/>
<path d="M42.0895 9.07579C42.0895 11.7541 33.8726 14.014 23.4567 14.014C13.0409 14.014 4.37048 11.7541 4.37048 9.07579C4.37048 6.39743 13.0409 4.2262 23.4567 4.2262C33.8726 4.2262 42.0895 6.39743 42.0895 9.07579Z" fill="white" fill-opacity="0.6"/>
<path d="M42.0895 9.07579C42.0895 11.7541 33.8726 14.014 23.4567 14.014C13.0409 14.014 4.37048 11.7541 4.37048 9.07579C4.37048 6.39743 13.0409 4.2262 23.4567 4.2262C33.8726 4.2262 42.0895 6.39743 42.0895 9.07579Z" stroke="#D0333D" stroke-width="1.48891"/>
<path d="M37.263 11.6513C37.263 11.3026 29.6426 10.1569 23.3148 10.1569C16.9871 10.1569 9.3667 11.3026 9.3667 11.6513C9.3667 11.9999 15.3445 13.4446 23.3148 13.4446C32.2815 13.4446 37.263 11.9999 37.263 11.6513Z" fill="#D0333D"/>
<path d="M37.263 11.6513C37.263 11.3026 29.6426 10.1569 23.3148 10.1569C16.9871 10.1569 9.3667 11.3026 9.3667 11.6513C9.3667 11.9999 15.3445 13.4446 23.3148 13.4446C32.2815 13.4446 37.263 11.9999 37.263 11.6513Z" fill="white" fill-opacity="0.4"/>
<path d="M20.7371 27.8864C20.611 26.675 21.0796 25.7312 21.3232 25.5566L19.4603 25.7087L18.1537 27.9234C18.1825 28.1888 18.8756 29.41 19.5877 30.2156C20.5196 31.2697 21.4398 32.0495 21.8594 32.3508L22.4893 31.8388C21.7531 30.786 20.8388 28.864 20.7371 27.8864Z" fill="#898989"/>
<path d="M20.7371 27.8864C20.611 26.675 21.0796 25.7312 21.3232 25.5566L19.4603 25.7087L18.1537 27.9234C18.1825 28.1888 18.8756 29.41 19.5877 30.2156C20.5196 31.2697 21.4398 32.0495 21.8594 32.3508L22.4893 31.8388C21.7531 30.786 20.8388 28.864 20.7371 27.8864Z" fill="white" fill-opacity="0.2"/>
<path d="M23.15 23.3519H18.1121C18.1121 23.3519 16.6917 24.7019 15.65 26.4666C14.6084 28.2313 14.4 31.9568 14.4 36.2705H18.775C18.7308 35.576 18.1121 33.3926 18.1121 31.3031C18.1121 29.0156 18.3179 27.7459 19.1917 26.8588C20.0506 25.9868 21.6917 26.0745 23.15 26.0745V23.3519Z" fill="#898989"/>
<path d="M23.15 23.3519H18.1121C18.1121 23.3519 16.6917 24.7019 15.65 26.4666C14.6084 28.2313 14.4 31.9568 14.4 36.2705H18.775C18.7308 35.576 18.1121 33.3926 18.1121 31.3031C18.1121 29.0156 18.3179 27.7459 19.1917 26.8588C20.0506 25.9868 21.6917 26.0745 23.15 26.0745V23.3519Z" fill="white" fill-opacity="0.6"/>
<path d="M28.775 16.2706L23.15 23.3294V26.0745L28.775 32.7412C28.4972 31.8915 27.7334 28.9372 27.7334 24.702C27.7334 20.4667 28.4972 17.3163 28.775 16.2706Z" fill="#898989"/>
<path d="M28.775 16.2706L23.15 23.3294V26.0745L28.775 32.7412C28.4972 31.8915 27.7334 28.9372 27.7334 24.702C27.7334 20.4667 28.4972 17.3163 28.775 16.2706Z" fill="white" fill-opacity="0.6"/>
<ellipse cx="28.9834" cy="24.5059" rx="1.25" ry="8.2353" fill="#898989"/>
<rect x="27.9" y="24.2706" width="3" height="1" fill="#D0333D"/>
<rect x="27.9" y="24.2706" width="3" height="1" fill="black" fill-opacity="0.2"/>
<ellipse cx="30.9" cy="24.7706" rx="1.5" ry="1.5" fill="#D0333D"/>
<ellipse cx="30.9" cy="24.7706" rx="1.5" ry="1.5" fill="black" fill-opacity="0.2"/>
</g>
<defs>
<clipPath id="clip0_5846_63741">
<rect width="50" height="50" fill="white" transform="translate(0.400024 0.270508)"/>
</clipPath>
</defs>
</svg>
