<svg width="50" height="50" viewBox="0 0 50 50" fill="none" xmlns="http://www.w3.org/2000/svg">
<g clip-path="url(#clip0_6018_11597)">
<path d="M45.1747 37.5C45.1747 39.7689 43.1074 42.1482 38.9969 44.0177C34.9762 45.8465 29.3516 47.0037 23.0855 47.0037C16.8194 47.0037 11.1948 45.8465 7.17407 44.0177C3.0636 42.1482 0.996296 39.7689 0.996296 37.5C0.996296 35.2311 3.0636 32.8518 7.17407 30.9823C11.1948 29.1535 16.8194 27.9963 23.0855 27.9963C29.3516 27.9963 34.9762 29.1535 38.9969 30.9823C43.1074 32.8518 45.1747 35.2311 45.1747 37.5Z" fill="#FAA21E"/>
<path d="M45.1747 37.5C45.1747 39.7689 43.1074 42.1482 38.9969 44.0177C34.9762 45.8465 29.3516 47.0037 23.0855 47.0037C16.8194 47.0037 11.1948 45.8465 7.17407 44.0177C3.0636 42.1482 0.996296 39.7689 0.996296 37.5C0.996296 35.2311 3.0636 32.8518 7.17407 30.9823C11.1948 29.1535 16.8194 27.9963 23.0855 27.9963C29.3516 27.9963 34.9762 29.1535 38.9969 30.9823C43.1074 32.8518 45.1747 35.2311 45.1747 37.5Z" fill="white" fill-opacity="0.95"/>
<path d="M45.1747 37.5C45.1747 39.7689 43.1074 42.1482 38.9969 44.0177C34.9762 45.8465 29.3516 47.0037 23.0855 47.0037C16.8194 47.0037 11.1948 45.8465 7.17407 44.0177C3.0636 42.1482 0.996296 39.7689 0.996296 37.5C0.996296 35.2311 3.0636 32.8518 7.17407 30.9823C11.1948 29.1535 16.8194 27.9963 23.0855 27.9963C29.3516 27.9963 34.9762 29.1535 38.9969 30.9823C43.1074 32.8518 45.1747 35.2311 45.1747 37.5Z" stroke="#D0333D" stroke-width="1.99259"/>
<ellipse cx="23.0855" cy="37.5" rx="17.0632" ry="6.5" fill="#898989"/>
<ellipse cx="23.0855" cy="37.5" rx="17.0632" ry="6.5" fill="white" fill-opacity="0.8"/>
<path d="M22.8299 42.171C17.4017 42.171 13.8965 40.1857 13.4002 39.1931C12.9039 38.2005 12.9039 34.6573 12.9039 34.6573H32.756C32.756 36.7749 32.8791 38.1965 32.2597 39.1931C31.2727 40.7813 27.7647 42.171 22.8299 42.171Z" fill="#D0333D"/>
<path d="M40.0851 20.0494C39.2788 20.0135 38.1081 19.0907 38.5886 17.3708C39.069 15.6508 41.1427 14.4371 43.5614 14.5447C45.9802 14.6523 47.1316 16.0095 48.3024 16.9323C48.2637 17.8012 48.5122 21.295 46.3612 24.2466C44.2102 27.1983 41.8272 28.365 39.276 29.1554C37.6377 29.663 37.183 30.8037 37.1444 31.6726C37.1057 32.5416 37.8733 33.4464 38.6796 33.4823" stroke="#D0333D" stroke-width="2.48152" stroke-linecap="round"/>
<path d="M41.6894 9.00891H3.9704C5.58847 12.7844 6.66718 13.3238 7.7459 17.6386C8.28526 19.7961 7.7459 26.6574 8.82461 30.4329C10.1907 35.2142 12.9945 37.7154 15.8363 39.0626C18.6661 40.4042 26.5039 40.4042 29.8595 39.0626C32.7798 37.8951 35.5473 35.2871 36.8712 30.4329C38.3997 24.8285 37.3065 20.8557 37.9499 17.6386C38.4893 14.9418 39.532 13.3238 41.6894 9.00891Z" fill="#898989"/>
<path d="M41.6894 9.00891H3.9704C5.58847 12.7844 6.66718 13.3238 7.7459 17.6386C8.28526 19.7961 7.7459 26.6574 8.82461 30.4329C10.1907 35.2142 12.9945 37.7154 15.8363 39.0626C18.6661 40.4042 26.5039 40.4042 29.8595 39.0626C32.7798 37.8951 35.5473 35.2871 36.8712 30.4329C38.3997 24.8285 37.3065 20.8557 37.9499 17.6386C38.4893 14.9418 39.532 13.3238 41.6894 9.00891Z" fill="white" fill-opacity="0.95"/>
<path d="M41.6894 8.80522C41.6894 11.4836 33.4725 13.7434 23.0566 13.7434C12.6408 13.7434 3.9704 11.4836 3.9704 8.80522C3.9704 6.12686 12.6408 3.95563 23.0566 3.95563C33.4725 3.95563 41.6894 6.12686 41.6894 8.80522Z" fill="#898989"/>
<path d="M41.6894 8.80522C41.6894 11.4836 33.4725 13.7434 23.0566 13.7434C12.6408 13.7434 3.9704 11.4836 3.9704 8.80522C3.9704 6.12686 12.6408 3.95563 23.0566 3.95563C33.4725 3.95563 41.6894 6.12686 41.6894 8.80522Z" fill="white" fill-opacity="0.6"/>
<path d="M41.6894 8.80522C41.6894 11.4836 33.4725 13.7434 23.0566 13.7434C12.6408 13.7434 3.9704 11.4836 3.9704 8.80522C3.9704 6.12686 12.6408 3.95563 23.0566 3.95563C33.4725 3.95563 41.6894 6.12686 41.6894 8.80522Z" stroke="#D0333D" stroke-width="1.19556"/>
<path d="M37 11.3807C37 11.032 29.3513 9.88629 23 9.88629C16.6487 9.88629 9 11.032 9 11.3807C9 11.7293 15 13.1741 23 13.1741C32 13.1741 37 11.7293 37 11.3807Z" fill="#D0333D"/>
<path d="M37 11.3807C37 11.032 29.3513 9.88629 23 9.88629C16.6487 9.88629 9 11.032 9 11.3807C9 11.7293 15 13.1741 23 13.1741C32 13.1741 37 11.7293 37 11.3807Z" fill="white" fill-opacity="0.4"/>
<path d="M23.0483 18.4C21.6233 18.4 20.4358 17.45 20.1983 16.5L16.6358 17.6875L13.5483 23.15L17.3483 24.575V35.5H28.7483V24.575L32.5483 23.15L29.4608 17.6875L25.8983 16.5C25.6608 17.45 24.4733 18.4 23.0483 18.4Z" fill="#CE4317"/>
<path d="M23.0483 18.4C21.6233 18.4 20.4358 17.45 20.1983 16.5L16.6358 17.6875L13.5483 23.15L17.3483 24.575V35.5H28.7483V24.575L32.5483 23.15L29.4608 17.6875L25.8983 16.5C25.6608 17.45 24.4733 18.4 23.0483 18.4Z" fill="white" fill-opacity="0.15"/>
<path d="M23.0483 19.4429C21.8805 19.4429 19.8912 18.2286 19.4055 17.5L17.4626 18.2286L14.7912 22.6L18.4341 24.0571V34.5H27.7195L27.6626 24.0571L31.3055 22.6L28.6341 18.2286L26.6912 17.5C26.2055 18.2286 24.2161 19.4429 23.0483 19.4429Z" stroke="#FEFEFE" stroke-width="0.485714" stroke-linecap="round" stroke-dasharray="0.97 1.46"/>
</g>
<defs>
<clipPath id="clip0_6018_11597">
<rect width="50" height="50" fill="white"/>
</clipPath>
</defs>
</svg>
