<svg width="51" height="51" viewBox="0 0 51 51" fill="none" xmlns="http://www.w3.org/2000/svg">
<g clip-path="url(#clip0_5846_63743)">
<path d="M45.8037 37.7706C45.8037 40.0414 43.7431 42.4202 39.6497 44.2889C35.6448 46.1172 30.042 47.2743 23.8 47.2743C17.558 47.2743 11.9553 46.1172 7.95032 44.2889C3.85696 42.4202 1.79631 40.0414 1.79631 37.7706C1.79631 35.4997 3.85696 33.121 7.95032 31.2523C11.9553 29.4239 17.558 28.2669 23.8 28.2669C30.042 28.2669 35.6448 29.4239 39.6497 31.2523C43.7431 33.121 45.8037 35.4997 45.8037 37.7706Z" fill="#FAA21E"/>
<path d="M45.8037 37.7706C45.8037 40.0414 43.7431 42.4202 39.6497 44.2889C35.6448 46.1172 30.042 47.2743 23.8 47.2743C17.558 47.2743 11.9553 46.1172 7.95032 44.2889C3.85696 42.4202 1.79631 40.0414 1.79631 37.7706C1.79631 35.4997 3.85696 33.121 7.95032 31.2523C11.9553 29.4239 17.558 28.2669 23.8 28.2669C30.042 28.2669 35.6448 29.4239 39.6497 31.2523C43.7431 33.121 45.8037 35.4997 45.8037 37.7706Z" fill="white" fill-opacity="0.95"/>
<path d="M45.8037 37.7706C45.8037 40.0414 43.7431 42.4202 39.6497 44.2889C35.6448 46.1172 30.042 47.2743 23.8 47.2743C17.558 47.2743 11.9553 46.1172 7.95032 44.2889C3.85696 42.4202 1.79631 40.0414 1.79631 37.7706C1.79631 35.4997 3.85696 33.121 7.95032 31.2523C11.9553 29.4239 17.558 28.2669 23.8 28.2669C30.042 28.2669 35.6448 29.4239 39.6497 31.2523C43.7431 33.121 45.8037 35.4997 45.8037 37.7706Z" stroke="#D0333D" stroke-width="1.99259"/>
<ellipse cx="23.8" cy="37.7706" rx="17" ry="6.5" fill="#898989"/>
<ellipse cx="23.8" cy="37.7706" rx="17" ry="6.5" fill="white" fill-opacity="0.8"/>
<g clip-path="url(#clip1_5846_63743)">
<path d="M23.63 42.4415C18.2017 42.4415 14.6965 40.4563 14.2002 39.4637C13.7039 38.4711 13.7039 34.9279 13.7039 34.9279H33.556C33.556 37.0455 33.6791 38.467 33.0597 39.4637C32.0727 41.0519 28.5647 42.4415 23.63 42.4415Z" fill="#D0333D"/>
<path d="M40.8851 20.3199C40.0788 20.2841 38.9081 19.3613 39.3885 17.6414C39.869 15.9214 41.9426 14.7076 44.3614 14.8153C46.7802 14.9229 47.9316 16.2801 49.1023 17.2028C49.0637 18.0718 49.3122 21.5655 47.1612 24.5172C45.0102 27.4689 42.6272 28.6356 40.076 29.426C38.4377 29.9336 37.983 31.0742 37.9444 31.9432C37.9057 32.8121 38.6733 33.717 39.4796 33.7528" stroke="#D0333D" stroke-width="2.48152" stroke-linecap="round"/>
<path d="M42.4895 9.27948H4.77042C6.38849 13.055 7.4672 13.5943 8.54592 17.9092C9.08527 20.0666 8.54592 26.9279 9.62463 30.7034C10.9907 35.4847 13.7945 37.9859 16.6363 39.3332C19.4661 40.6747 27.3039 40.6747 30.6596 39.3332C33.5798 38.1657 36.3473 35.5577 37.6712 30.7034C39.1997 25.0991 38.1065 21.1263 38.7499 17.9092C39.2893 15.2124 40.332 13.5943 42.4895 9.27948Z" fill="#898989"/>
<path d="M42.4895 9.27948H4.77042C6.38849 13.055 7.4672 13.5943 8.54592 17.9092C9.08527 20.0666 8.54592 26.9279 9.62463 30.7034C10.9907 35.4847 13.7945 37.9859 16.6363 39.3332C19.4661 40.6747 27.3039 40.6747 30.6596 39.3332C33.5798 38.1657 36.3473 35.5577 37.6712 30.7034C39.1997 25.0991 38.1065 21.1263 38.7499 17.9092C39.2893 15.2124 40.332 13.5943 42.4895 9.27948Z" fill="white" fill-opacity="0.95"/>
<path d="M42.4895 9.07579C42.4895 11.7541 34.2725 14.014 23.8567 14.014C13.4408 14.014 4.77042 11.7541 4.77042 9.07579C4.77042 6.39743 13.4408 4.2262 23.8567 4.2262C34.2725 4.2262 42.4895 6.39743 42.4895 9.07579Z" fill="#898989"/>
<path d="M42.4895 9.07579C42.4895 11.7541 34.2725 14.014 23.8567 14.014C13.4408 14.014 4.77042 11.7541 4.77042 9.07579C4.77042 6.39743 13.4408 4.2262 23.8567 4.2262C34.2725 4.2262 42.4895 6.39743 42.4895 9.07579Z" fill="white" fill-opacity="0.6"/>
<path d="M42.4895 9.07579C42.4895 11.7541 34.2725 14.014 23.8567 14.014C13.4408 14.014 4.77042 11.7541 4.77042 9.07579C4.77042 6.39743 13.4408 4.2262 23.8567 4.2262C34.2725 4.2262 42.4895 6.39743 42.4895 9.07579Z" stroke="#D0333D" stroke-width="1.48891"/>
<path d="M37.663 11.6513C37.663 11.3026 30.0426 10.1569 23.7148 10.1569C17.3871 10.1569 9.76669 11.3026 9.76669 11.6513C9.76669 11.9999 15.7445 13.4446 23.7148 13.4446C32.6815 13.4446 37.663 11.9999 37.663 11.6513Z" fill="#D0333D"/>
<path d="M37.663 11.6513C37.663 11.3026 30.0426 10.1569 23.7148 10.1569C17.3871 10.1569 9.76669 11.3026 9.76669 11.6513C9.76669 11.9999 15.7445 13.4446 23.7148 13.4446C32.6815 13.4446 37.663 11.9999 37.663 11.6513Z" fill="white" fill-opacity="0.4"/>
</g>
<g clip-path="url(#clip2_5846_63743)">
<path d="M30.3 23.7706H17.3C17.3 24.6129 17.384 26.5902 17.8 28.2443C18.216 29.8983 18.8 31.2706 19.3 32.2706H28.3C28.82 31.5048 29.384 29.5307 29.8 28.2443C30.216 26.9578 30.3 24.7661 30.3 23.7706Z" fill="#2FC4A7"/>
<path d="M30.3 23.7706H17.3C17.3 24.6129 17.384 26.5902 17.8 28.2443C18.216 29.8983 18.8 31.2706 19.3 32.2706H28.3C28.82 31.5048 29.384 29.5307 29.8 28.2443C30.216 26.9578 30.3 24.7661 30.3 23.7706Z" fill="white" fill-opacity="0.4"/>
<path d="M30.3 23.7706H17.3C17.3 24.6129 17.384 26.5902 17.8 28.2443C18.216 29.8983 18.8 31.2706 19.3 32.2706H28.3C28.82 31.5048 29.384 29.5307 29.8 28.2443C30.216 26.9578 30.3 24.7661 30.3 23.7706Z" stroke="#2FC4A7" stroke-width="0.992606"/>
<path d="M30.3 23.7706H17.3C17.3 24.6129 17.384 26.5902 17.8 28.2443C18.216 29.8983 18.8 31.2706 19.3 32.2706H28.3C28.82 31.5048 29.384 29.5307 29.8 28.2443C30.216 26.9578 30.3 24.7661 30.3 23.7706Z" stroke="white" stroke-opacity="0.4" stroke-width="0.992606"/>
<path d="M14.8 34.9706C14.1203 34.4268 13.9667 33.9706 13.8 33.7706H33.8C33.55 33.9706 33.425 34.4706 32.8 34.9706C32.175 35.4706 31.1334 35.5706 30.8 35.7706H16.8C16.4667 35.5706 15.4797 35.5143 14.8 34.9706Z" fill="#2FC4A7"/>
<path d="M14.8 34.9706C14.1203 34.4268 13.9667 33.9706 13.8 33.7706H33.8C33.55 33.9706 33.425 34.4706 32.8 34.9706C32.175 35.4706 31.1334 35.5706 30.8 35.7706H16.8C16.4667 35.5706 15.4797 35.5143 14.8 34.9706Z" fill="white" fill-opacity="0.2"/>
<path d="M14.8 34.9706C14.1203 34.4268 13.9667 33.9706 13.8 33.7706H33.8C33.55 33.9706 33.425 34.4706 32.8 34.9706C32.175 35.4706 31.1334 35.5706 30.8 35.7706H16.8C16.4667 35.5706 15.4797 35.5143 14.8 34.9706Z" stroke="#2FC4A7" stroke-width="0.992606"/>
<path d="M14.8 34.9706C14.1203 34.4268 13.9667 33.9706 13.8 33.7706H33.8C33.55 33.9706 33.425 34.4706 32.8 34.9706C32.175 35.4706 31.1334 35.5706 30.8 35.7706H16.8C16.4667 35.5706 15.4797 35.5143 14.8 34.9706Z" stroke="white" stroke-opacity="0.2" stroke-width="0.992606"/>
<path d="M29.55 25.5205C29.8513 25.3603 31.55 24.7706 32.3 25.2706C33.3796 25.9903 33.3513 26.8091 33.05 27.7705C32.809 28.5396 30.0073 29.9694 28.3 30.7705" stroke="#2FC4A7" stroke-width="0.996296"/>
<path d="M29.55 25.5205C29.8513 25.3603 31.55 24.7706 32.3 25.2706C33.3796 25.9903 33.3513 26.8091 33.05 27.7705C32.809 28.5396 30.0073 29.9694 28.3 30.7705" stroke="white" stroke-opacity="0.4" stroke-width="0.996296"/>
<path d="M22.8 17.2706C23.2167 17.4372 24.8 17.6924 24.8 18.7706C24.8 19.8487 22.8 20.2706 22.8 21.2706C22.8 22.2706 23.8 22.5206 24.8 22.7706" stroke="#1D8CE0" stroke-width="0.996296" stroke-linecap="round"/>
<path d="M22.8 17.2706C23.2167 17.4372 24.8 17.6924 24.8 18.7706C24.8 19.8487 22.8 20.2706 22.8 21.2706C22.8 22.2706 23.8 22.5206 24.8 22.7706" stroke="white" stroke-opacity="0.6" stroke-width="0.996296" stroke-linecap="round"/>
</g>
</g>
<defs>
<clipPath id="clip0_5846_63743">
<rect width="50" height="50" fill="white" transform="translate(0.800049 0.270508)"/>
</clipPath>
<clipPath id="clip1_5846_63743">
<rect width="49.8148" height="49.8148" fill="white" transform="translate(0.800018 -1.72943)"/>
</clipPath>
<clipPath id="clip2_5846_63743">
<rect width="20" height="20" fill="white" transform="translate(13.8 16.2706)"/>
</clipPath>
</defs>
</svg>
