<svg width="51" height="51" viewBox="0 0 51 51" fill="none" xmlns="http://www.w3.org/2000/svg">
<g clip-path="url(#clip0_5959_10076)">
<ellipse cx="21.8999" cy="43.1222" rx="21.5" ry="7.5" fill="#D0333D"/>
<path d="M37.3999 13.4404V17.0768C38.019 16.3192 39.5356 14.3495 42.507 14.3495C46.2213 14.3495 47.6142 18.4404 47.6142 21.6223C47.6142 24.8041 45.757 28.895 42.507 28.895C39.907 28.895 37.8642 26.6223 37.3999 26.1677V29.8041C37.8642 29.8041 38.7928 31.6223 42.507 31.6223C47.1499 31.6223 50.3999 27.5313 50.3999 21.6223C50.3999 15.7132 47.1499 11.6223 42.507 11.6223C39.257 11.6223 37.8642 13.4404 37.3999 13.4404Z" fill="#D0333D"/>
<path d="M5.3999 5.62225H38.3999V42.1223C38.3999 42.1223 35.3999 47.1223 21.8999 47.1223C8.39993 47.1223 5.3999 42.1223 5.3999 42.1223V5.62225Z" fill="#FAA21E"/>
<path d="M5.3999 5.62225H38.3999V42.1223C38.3999 42.1223 35.3999 47.1223 21.8999 47.1223C8.39993 47.1223 5.3999 42.1223 5.3999 42.1223V5.62225Z" fill="white" fill-opacity="0.95"/>
<ellipse cx="21.8999" cy="5.12225" rx="16.5" ry="4.5" fill="#D0333D"/>
<ellipse cx="21.8999" cy="5.12228" rx="14.5" ry="3.5" fill="#898989"/>
<ellipse cx="21.8999" cy="5.12228" rx="14.5" ry="3.5" fill="white" fill-opacity="0.4"/>
<path d="M33.3998 7.12225C33.3998 6.62225 28.2511 5.62225 21.8998 5.62225C15.5485 5.62225 10.3998 6.62225 10.3998 7.12225C10.3998 7.62225 15.5485 8.62225 21.8998 8.62225C28.2511 8.62225 33.3998 7.62225 33.3998 7.12225Z" fill="#D0333D"/>
<path d="M33.3998 7.12225C33.3998 6.62225 28.2511 5.62225 21.8998 5.62225C15.5485 5.62225 10.3998 6.62225 10.3998 7.12225C10.3998 7.62225 15.5485 8.62225 21.8998 8.62225C28.2511 8.62225 33.3998 7.62225 33.3998 7.12225Z" fill="white" fill-opacity="0.4"/>
<path d="M29.0784 31.3587L22.5487 21.0914L17.5737 23.8916L23.2547 34.7811C25.2126 37.277 27.2128 38.8258 30.0137 39.6851C30.6331 36.6479 30.2596 34.3033 29.0784 31.3587Z" fill="#D0333D"/>
<path d="M29.0784 31.3587L22.5487 21.0914L17.5737 23.8916L23.2547 34.7811C25.2126 37.277 27.2128 38.8258 30.0137 39.6851C30.6331 36.6479 30.2596 34.3033 29.0784 31.3587Z" fill="white" fill-opacity="0.6"/>
<path d="M18.5788 15.2745C18.2586 14.5891 17.4203 14.3252 16.7652 14.7037L14.7985 15.8398C14.1391 16.2208 13.951 17.0871 14.393 17.7071L18.2022 23.0502C18.5929 23.5983 19.3391 23.7537 19.9162 23.4072L20.8418 22.8515C21.4088 22.5111 21.6269 21.7971 21.3469 21.198L18.5788 15.2745Z" fill="#D0333D"/>
<rect width="13.5962" height="1.70004" rx="0.850021" transform="matrix(-0.865895 0.500226 0.499774 0.866156 25.4857 18.2408)" fill="#D0333D"/>
</g>
<defs>
<clipPath id="clip0_5959_10076">
<rect width="50" height="50" fill="white" transform="translate(0.399902 0.622192)"/>
</clipPath>
</defs>
</svg>
