<svg width="50" height="50" viewBox="0 0 50 50" fill="none" xmlns="http://www.w3.org/2000/svg">
<g clip-path="url(#clip0_6018_11596)">
<path d="M45.1747 37.5C45.1747 39.7689 43.1074 42.1482 38.9969 44.0177C34.9762 45.8465 29.3516 47.0037 23.0855 47.0037C16.8194 47.0037 11.1948 45.8465 7.17407 44.0177C3.0636 42.1482 0.996296 39.7689 0.996296 37.5C0.996296 35.2311 3.0636 32.8518 7.17407 30.9823C11.1948 29.1535 16.8194 27.9963 23.0855 27.9963C29.3516 27.9963 34.9762 29.1535 38.9969 30.9823C43.1074 32.8518 45.1747 35.2311 45.1747 37.5Z" fill="#FAA21E"/>
<path d="M45.1747 37.5C45.1747 39.7689 43.1074 42.1482 38.9969 44.0177C34.9762 45.8465 29.3516 47.0037 23.0855 47.0037C16.8194 47.0037 11.1948 45.8465 7.17407 44.0177C3.0636 42.1482 0.996296 39.7689 0.996296 37.5C0.996296 35.2311 3.0636 32.8518 7.17407 30.9823C11.1948 29.1535 16.8194 27.9963 23.0855 27.9963C29.3516 27.9963 34.9762 29.1535 38.9969 30.9823C43.1074 32.8518 45.1747 35.2311 45.1747 37.5Z" fill="white" fill-opacity="0.95"/>
<path d="M45.1747 37.5C45.1747 39.7689 43.1074 42.1482 38.9969 44.0177C34.9762 45.8465 29.3516 47.0037 23.0855 47.0037C16.8194 47.0037 11.1948 45.8465 7.17407 44.0177C3.0636 42.1482 0.996296 39.7689 0.996296 37.5C0.996296 35.2311 3.0636 32.8518 7.17407 30.9823C11.1948 29.1535 16.8194 27.9963 23.0855 27.9963C29.3516 27.9963 34.9762 29.1535 38.9969 30.9823C43.1074 32.8518 45.1747 35.2311 45.1747 37.5Z" stroke="#D0333D" stroke-width="1.99259"/>
<ellipse cx="23.0855" cy="37.5" rx="17.0632" ry="6.5" fill="#898989"/>
<ellipse cx="23.0855" cy="37.5" rx="17.0632" ry="6.5" fill="white" fill-opacity="0.8"/>
<path d="M22.8299 42.171C17.4017 42.171 13.8965 40.1857 13.4002 39.1931C12.9039 38.2005 12.9039 34.6573 12.9039 34.6573H32.756C32.756 36.7749 32.8791 38.1965 32.2597 39.1931C31.2727 40.7813 27.7647 42.171 22.8299 42.171Z" fill="#D0333D"/>
<path d="M40.0851 20.0494C39.2788 20.0135 38.1081 19.0907 38.5886 17.3708C39.069 15.6508 41.1427 14.4371 43.5614 14.5447C45.9802 14.6523 47.1316 16.0095 48.3024 16.9323C48.2637 17.8012 48.5122 21.295 46.3612 24.2466C44.2102 27.1983 41.8272 28.365 39.276 29.1554C37.6377 29.663 37.183 30.8037 37.1444 31.6726C37.1057 32.5416 37.8733 33.4464 38.6796 33.4823" stroke="#D0333D" stroke-width="2.48152" stroke-linecap="round"/>
<path d="M41.6894 9.00891H3.9704C5.58847 12.7844 6.66718 13.3238 7.7459 17.6386C8.28526 19.7961 7.7459 26.6574 8.82461 30.4329C10.1907 35.2142 12.9945 37.7154 15.8363 39.0626C18.6661 40.4042 26.5039 40.4042 29.8595 39.0626C32.7798 37.8951 35.5473 35.2871 36.8712 30.4329C38.3997 24.8285 37.3065 20.8557 37.9499 17.6386C38.4893 14.9418 39.532 13.3238 41.6894 9.00891Z" fill="#898989"/>
<path d="M41.6894 9.00891H3.9704C5.58847 12.7844 6.66718 13.3238 7.7459 17.6386C8.28526 19.7961 7.7459 26.6574 8.82461 30.4329C10.1907 35.2142 12.9945 37.7154 15.8363 39.0626C18.6661 40.4042 26.5039 40.4042 29.8595 39.0626C32.7798 37.8951 35.5473 35.2871 36.8712 30.4329C38.3997 24.8285 37.3065 20.8557 37.9499 17.6386C38.4893 14.9418 39.532 13.3238 41.6894 9.00891Z" fill="white" fill-opacity="0.95"/>
<path d="M41.6894 8.80522C41.6894 11.4836 33.4725 13.7434 23.0566 13.7434C12.6408 13.7434 3.9704 11.4836 3.9704 8.80522C3.9704 6.12686 12.6408 3.95563 23.0566 3.95563C33.4725 3.95563 41.6894 6.12686 41.6894 8.80522Z" fill="#898989"/>
<path d="M41.6894 8.80522C41.6894 11.4836 33.4725 13.7434 23.0566 13.7434C12.6408 13.7434 3.9704 11.4836 3.9704 8.80522C3.9704 6.12686 12.6408 3.95563 23.0566 3.95563C33.4725 3.95563 41.6894 6.12686 41.6894 8.80522Z" fill="white" fill-opacity="0.6"/>
<path d="M41.6894 8.80522C41.6894 11.4836 33.4725 13.7434 23.0566 13.7434C12.6408 13.7434 3.9704 11.4836 3.9704 8.80522C3.9704 6.12686 12.6408 3.95563 23.0566 3.95563C33.4725 3.95563 41.6894 6.12686 41.6894 8.80522Z" stroke="#D0333D" stroke-width="1.19556"/>
<path d="M37 11.3807C37 11.032 29.3513 9.88629 23 9.88629C16.6487 9.88629 9 11.032 9 11.3807C9 11.7293 15 13.1741 23 13.1741C32 13.1741 37 11.7293 37 11.3807Z" fill="#D0333D"/>
<path d="M37 11.3807C37 11.032 29.3513 9.88629 23 9.88629C16.6487 9.88629 9 11.032 9 11.3807C9 11.7293 15 13.1741 23 13.1741C32 13.1741 37 11.7293 37 11.3807Z" fill="white" fill-opacity="0.4"/>
<path d="M26.9533 30.8582C27.3531 30.7063 28.1462 29.0833 28.2876 28.8608L27.9 28.8587C27.9 28.8587 26.9602 30.6949 25.9652 30.5742C24.9703 30.4535 25.3727 27.5 25.3727 27.5L24.925 27.5C24.925 27.5 25.0208 30.4952 24.925 30.75C24.8293 31.0048 23.6227 31.5 23.1227 31.5C22.7848 31.5 22.1227 31 22.1227 31L23.3727 27.8597L22.8727 27.8597C22.8727 27.8597 21.6606 30.6391 21.3727 30.5742C21.0847 30.5094 20.2166 28.13 20.2166 28.13L19.5456 28.2535C19.5456 28.2535 20.9899 30.6039 20.6227 30.75C20.4644 30.813 19.3727 30.4187 19.3727 30.4187L18.3727 29.5488L17.8727 29.5488C17.8727 29.5488 18.8321 30.6343 19.2164 30.8582C19.6007 31.0821 21.143 31.5762 21.3727 31.75C21.8134 32.0835 21.8727 32.25 21.8152 33.1273C21.7541 34.0592 21.7547 34.4157 21.6384 34.9864L21.3727 36L24.6227 36C24.6227 36 24.1658 35.2228 24.1442 34.4864C24.1227 33.75 23.8585 33.1851 24.3884 32.2364C24.6566 31.7563 25.9338 31.2456 26.9533 30.8582Z" fill="#FAA21E"/>
<path d="M26.9533 30.8582C27.3531 30.7063 28.1462 29.0833 28.2876 28.8608L27.9 28.8587C27.9 28.8587 26.9602 30.6949 25.9652 30.5742C24.9703 30.4535 25.3727 27.5 25.3727 27.5L24.925 27.5C24.925 27.5 25.0208 30.4952 24.925 30.75C24.8293 31.0048 23.6227 31.5 23.1227 31.5C22.7848 31.5 22.1227 31 22.1227 31L23.3727 27.8597L22.8727 27.8597C22.8727 27.8597 21.6606 30.6391 21.3727 30.5742C21.0847 30.5094 20.2166 28.13 20.2166 28.13L19.5456 28.2535C19.5456 28.2535 20.9899 30.6039 20.6227 30.75C20.4644 30.813 19.3727 30.4187 19.3727 30.4187L18.3727 29.5488L17.8727 29.5488C17.8727 29.5488 18.8321 30.6343 19.2164 30.8582C19.6007 31.0821 21.143 31.5762 21.3727 31.75C21.8134 32.0835 21.8727 32.25 21.8152 33.1273C21.7541 34.0592 21.7547 34.4157 21.6384 34.9864L21.3727 36L24.6227 36C24.6227 36 24.1658 35.2228 24.1442 34.4864C24.1227 33.75 23.8585 33.1851 24.3884 32.2364C24.6566 31.7563 25.9338 31.2456 26.9533 30.8582Z" fill="black" fill-opacity="0.4"/>
<circle cx="18.6227" cy="25" r="5.5" fill="#2FC4A7"/>
<circle cx="18.6227" cy="25" r="5.5" fill="black" fill-opacity="0.4"/>
<circle cx="28.6227" cy="26.5" r="4.5" fill="#2FC4A7"/>
<circle cx="28.6227" cy="26.5" r="4.5" fill="black" fill-opacity="0.4"/>
<circle cx="24.1227" cy="22.5" r="6.5" fill="#2FC4A7"/>
<circle cx="24.1227" cy="22.5" r="6.5" fill="black" fill-opacity="0.2"/>
</g>
<defs>
<clipPath id="clip0_6018_11596">
<rect width="50" height="50" fill="white"/>
</clipPath>
</defs>
</svg>
