<svg width="50" height="50" viewBox="0 0 50 50" fill="none" xmlns="http://www.w3.org/2000/svg">
<path d="M4.33656 12.3859L8.08432 4.89038C8.71436 5.37685 9.68226 5.95301 10.8115 6.31318C12.1022 6.72481 13.626 6.86084 15.0985 6.22979C16.572 5.59828 17.4882 4.41538 17.9698 3.20492C18.3879 2.15401 18.4882 1.05707 18.3241 0.25H31.667C31.5012 0.994211 31.5641 2.04966 31.9534 3.08778C32.4103 4.30626 33.3273 5.53015 34.8985 6.22845C38.0935 7.64847 40.5263 6.19816 41.48 4.97435L45.6418 12.3731C42.8432 13.5401 37.75 17.3955 37.75 24.5C37.75 31.6318 42.8833 35.8038 45.6678 37.1232L42.8655 43.1948C40.743 42.5487 36.4729 42.0788 32.9209 43.2628C30.6323 44.0257 28.7278 45.2959 27.3318 46.565C26.2295 47.5671 25.4277 48.5839 25.0093 49.3655C24.1823 47.6355 21.7939 44.7135 17.0735 43.2611C14.606 42.5018 12.3988 42.3321 10.6644 42.438C9.14252 42.5309 7.96666 42.8375 7.2981 43.1577L4.32735 37.0997C5.68055 36.2997 7.59148 34.8005 9.19715 32.7412C10.8866 30.5745 12.25 27.7718 12.25 24.5C12.25 21.2292 10.9292 18.5088 9.25682 16.4427C7.67316 14.4862 5.76579 13.1053 4.33656 12.3859Z" fill="#898989"/>
<path d="M4.33656 12.3859L8.08432 4.89038C8.71436 5.37685 9.68226 5.95301 10.8115 6.31318C12.1022 6.72481 13.626 6.86084 15.0985 6.22979C16.572 5.59828 17.4882 4.41538 17.9698 3.20492C18.3879 2.15401 18.4882 1.05707 18.3241 0.25H31.667C31.5012 0.994211 31.5641 2.04966 31.9534 3.08778C32.4103 4.30626 33.3273 5.53015 34.8985 6.22845C38.0935 7.64847 40.5263 6.19816 41.48 4.97435L45.6418 12.3731C42.8432 13.5401 37.75 17.3955 37.75 24.5C37.75 31.6318 42.8833 35.8038 45.6678 37.1232L42.8655 43.1948C40.743 42.5487 36.4729 42.0788 32.9209 43.2628C30.6323 44.0257 28.7278 45.2959 27.3318 46.565C26.2295 47.5671 25.4277 48.5839 25.0093 49.3655C24.1823 47.6355 21.7939 44.7135 17.0735 43.2611C14.606 42.5018 12.3988 42.3321 10.6644 42.438C9.14252 42.5309 7.96666 42.8375 7.2981 43.1577L4.32735 37.0997C5.68055 36.2997 7.59148 34.8005 9.19715 32.7412C10.8866 30.5745 12.25 27.7718 12.25 24.5C12.25 21.2292 10.9292 18.5088 9.25682 16.4427C7.67316 14.4862 5.76579 13.1053 4.33656 12.3859Z" fill="black" fill-opacity="0.4"/>
<path d="M4.33656 12.3859L8.08432 4.89038C8.71436 5.37685 9.68226 5.95301 10.8115 6.31318C12.1022 6.72481 13.626 6.86084 15.0985 6.22979C16.572 5.59828 17.4882 4.41538 17.9698 3.20492C18.3879 2.15401 18.4882 1.05707 18.3241 0.25H31.667C31.5012 0.994211 31.5641 2.04966 31.9534 3.08778C32.4103 4.30626 33.3273 5.53015 34.8985 6.22845C38.0935 7.64847 40.5263 6.19816 41.48 4.97435L45.6418 12.3731C42.8432 13.5401 37.75 17.3955 37.75 24.5C37.75 31.6318 42.8833 35.8038 45.6678 37.1232L42.8655 43.1948C40.743 42.5487 36.4729 42.0788 32.9209 43.2628C30.6323 44.0257 28.7278 45.2959 27.3318 46.565C26.2295 47.5671 25.4277 48.5839 25.0093 49.3655C24.1823 47.6355 21.7939 44.7135 17.0735 43.2611C14.606 42.5018 12.3988 42.3321 10.6644 42.438C9.14252 42.5309 7.96666 42.8375 7.2981 43.1577L4.32735 37.0997C5.68055 36.2997 7.59148 34.8005 9.19715 32.7412C10.8866 30.5745 12.25 27.7718 12.25 24.5C12.25 21.2292 10.9292 18.5088 9.25682 16.4427C7.67316 14.4862 5.76579 13.1053 4.33656 12.3859Z" stroke="#898989" stroke-width="0.5"/>
<path d="M22.5 10C22.5 7.2 23.9836 3.5 24.9754 2.5C26 3.5 27.5 7 27.5 10C27.5 13.535 26 14.5 26 18.5C26 22.5 27.5 24 27.5 29.5C27.5 33.9 25.9672 42.6667 24.9754 46C23.9836 42 22.5 33.5 22.5 29.5C22.5 24.5 24 22 24 18.5C24 15 22.5 13.5 22.5 10Z" fill="#898989"/>
<path d="M22.5 10C22.5 7.2 23.9836 3.5 24.9754 2.5C26 3.5 27.5 7 27.5 10C27.5 13.535 26 14.5 26 18.5C26 22.5 27.5 24 27.5 29.5C27.5 33.9 25.9672 42.6667 24.9754 46C23.9836 42 22.5 33.5 22.5 29.5C22.5 24.5 24 22 24 18.5C24 15 22.5 13.5 22.5 10Z" fill="black" fill-opacity="0.6"/>
</svg>
