<svg width="50" height="50" viewBox="0 0 50 50" fill="none" xmlns="http://www.w3.org/2000/svg">
<path d="M18.0199 20.2255C22.5 10.5 31.7606 0.924021 34.6035 0.552622C37.4464 0.181223 39.7556 3.43277 39.1062 6.55371C38.2944 10.4549 33.2223 25.4129 31.2035 29.2853C29.1848 33.1577 25.2817 33.3362 23.5 34.5C23.5 34.5 18 39 17 38.5C16 38 18.0199 20.2255 18.0199 20.2255Z" fill="#D0333D"/>
<path d="M18.0199 20.2255C22.5 10.5 31.7606 0.924021 34.6035 0.552622C37.4464 0.181223 39.7556 3.43277 39.1062 6.55371C38.2944 10.4549 33.2223 25.4129 31.2035 29.2853C29.1848 33.1577 25.2817 33.3362 23.5 34.5C23.5 34.5 18 39 17 38.5C16 38 18.0199 20.2255 18.0199 20.2255Z" fill="white" fill-opacity="0.9"/>
<path d="M23 16.5C25.4 11.7 31 5.83333 33.5 3.5C31.1667 7.33333 26 15.9 24 19.5C22 23.1 18.5 32.3333 17 36.5L17.5 31C18.3333 28.1667 20.6 21.3 23 16.5Z" fill="#FEFEFE"/>
<path d="M17.5 21.5C18.5 19 19.6667 16.8333 20.5 15.5C22 15 20 18 20.5 18.5C21 19 18.5 25 19 25.5C19.5 26 20 21.5 21 21.5C22 21.5 21 24.5 20.5 25.5C20.2764 25.9472 16.8233 35.7845 18 35C19.5 34 21.1056 31.0528 22 31.5C22.6634 31.8317 21.5668 32.8501 22 33.5C23 34.5 28.5 32 27.5 33C26.5 33.5 24 34.5 23.5 35C23 35.5 19.4925 38.6344 18 40.5L11 50C11.6667 46.8333 12.5 42 13.5 37C14.6611 31.1947 16.0858 25.0355 17.5 21.5Z" fill="#CE4317"/>
<path d="M17.5 21.5C18.5 19 19.6667 16.8333 20.5 15.5C22 15 20 18 20.5 18.5C21 19 18.5 25 19 25.5C19.5 26 20 21.5 21 21.5C22 21.5 21 24.5 20.5 25.5C20.2764 25.9472 16.8233 35.7845 18 35C19.5 34 21.1056 31.0528 22 31.5C22.6634 31.8317 21.5668 32.8501 22 33.5C23 34.5 28.5 32 27.5 33C26.5 33.5 24 34.5 23.5 35C23 35.5 19.4925 38.6344 18 40.5L11 50C11.6667 46.8333 12.5 42 13.5 37C14.6611 31.1947 16.0858 25.0355 17.5 21.5Z" fill="black" fill-opacity="0.15"/>
<path d="M28.7364 28.6195C30.2455 27.8496 30.2455 26.3097 31 24C29.491 25.5398 28.9817 27.2529 27.2274 27.8496C25.6268 28.394 23.2851 30.4577 24.2093 30.9292C25.1336 31.4008 27.2274 29.3894 28.7364 28.6195Z" fill="#CE4317"/>
<path d="M28.7364 28.6195C30.2455 27.8496 30.2455 26.3097 31 24C29.491 25.5398 28.9817 27.2529 27.2274 27.8496C25.6268 28.394 23.2851 30.4577 24.2093 30.9292C25.1336 31.4008 27.2274 29.3894 28.7364 28.6195Z" fill="black" fill-opacity="0.15"/>
</svg>
