<svg width="50" height="50" viewBox="0 0 50 50" fill="none" xmlns="http://www.w3.org/2000/svg">
<path d="M9.73684 2H40V5L41 7H45V48H11.3158C10.7895 48 8.15789 48 6.57895 46.4318C5 44.8636 5 43.2955 5 42.7727V6.70455C5 5.65909 5.73684 4.40455 6.57895 3.56818C7.42105 2.73182 8.68421 2 9.73684 2Z" fill="#FAA21E"/>
<path d="M9.73684 2H40V5L41 7H45V48H11.3158C10.7895 48 8.15789 48 6.57895 46.4318C5 44.8636 5 43.2955 5 42.7727V6.70455C5 5.65909 5.73684 4.40455 6.57895 3.56818C7.42105 2.73182 8.68421 2 9.73684 2Z" fill="black" fill-opacity="0.1"/>
<path d="M43 9.1L40 5V40H38L43 46V9.1Z" fill="#898989"/>
<path d="M43 9.1L40 5V40H38L43 46V9.1Z" fill="white" fill-opacity="0.2"/>
<path d="M10.1304 40H38L43 46H10.1304C9.62415 46 7 45.25 7 43C7 40.75 9.62415 40 10.1304 40Z" fill="#898989"/>
<path d="M10.1304 40H38L43 46H10.1304C9.62415 46 7 45.25 7 43C7 40.75 9.62415 40 10.1304 40Z" fill="white" fill-opacity="0.6"/>
<path d="M29.2541 36.0483C27.718 34.5139 30.1522 31.0019 31.2749 29.3198C32.6221 31.1141 34.9797 34.3661 33.2957 36.0483C32.105 37.2377 30.6013 37.3939 29.2541 36.0483Z" fill="#FEFEFE"/>
<path d="M33.88 34.7602C32.6 36.6802 27.8 35.4002 30.04 31.2402C29.08 32.8402 28.76 34.1202 28.76 35.0802C28.76 36.0402 30.04 37.0002 31.32 37.0002C33.1341 37.0002 33.88 35.7202 33.88 34.7602Z" fill="#FEFEFE"/>
<path d="M22.8933 16.4276C18.3699 16.4276 10.4489 15.3108 7 14.6001C8.92 16.3261 11.3947 19.7171 14.4667 21.9101C18.3067 24.6513 26.52 25.2605 31.4267 21.9101C34.2568 19.9776 36.5467 16.6306 39 14.6001C35.5511 15.2431 27.9067 16.4276 22.8933 16.4276Z" fill="#FEFEFE"/>
<path d="M17.24 15.9717L14.7395 28.0402L12.12 15.2402L17.24 15.9717Z" fill="#FEFEFE"/>
<path d="M28.76 15.9717L31.2605 28.0402L33.88 15.2402L28.76 15.9717Z" fill="#FEFEFE"/>
<path d="M13.3787 11.4663C11.7628 12.7391 8.80731 14.0386 7 14.6002C10.5083 15.1929 18.4605 16.5202 23.0532 16.5202C27.6458 16.5202 35.8815 15.1305 39 14.6002C37.3344 13.8202 33.6206 12.215 32.5149 11.4663C31.1329 10.5303 29.9252 9.16017 27.48 9.16016C25.0348 9.16014 24.9668 9.80024 23.0532 9.80024C21.1395 9.80024 20.4319 9.16016 18.2 9.16016C15.96 9.16016 15.3987 9.87518 13.3787 11.4663Z" fill="#FEFEFE"/>
</svg>
