<svg width="50" height="50" viewBox="0 0 50 50" fill="none" xmlns="http://www.w3.org/2000/svg">
<path d="M12.4372 27.5654C18.0136 21.2171 27.1352 16.0623 29.3487 16.4237C31.5621 16.7851 32.6993 19.2846 31.5 21.5C30.0009 24.2692 22.635 34.9275 20.2387 37.4022C17.8424 39.8768 14.8793 39.1297 13.2793 39.6079L1.5 48.5C4.83716 39.8879 7.08645 35.2365 12.4372 27.5654Z" fill="#CE4317"/>
<path d="M19.5385 23.6376C22.7692 20.8873 28.6581 18.3506 31.1987 17.426C28.3155 19.4936 21.9069 24.1288 19.3383 26.1297C16.7698 28.1305 11.3677 33.7663 8.9877 36.334L11.0524 32.4869C12.535 30.6831 16.3078 26.3879 19.5385 23.6376Z" fill="#FEFEFE"/>
<path d="M27.7818 20.4215C26.4967 19.175 25.0929 18.322 24.3315 18.0922L29.5876 15.815L46.0896 1.04853C46.7078 0.376524 47.8497 0.721241 48.7542 1.85282C49.6516 2.97567 49.5957 4.1102 49.1836 4.5582L32.6816 19.3247L29.8769 24.4883C29.6069 23.5482 28.8099 21.4187 27.7818 20.4215Z" fill="#898989"/>
<path d="M26.5 17C25 18 26.1561 19.078 28 20C30 21 32 21.5 31 23M24.5 17.5C24 19 24 20.4 27 21C29.5 21.5 31 23.5 30 25M32 13C31 13.5 30.5257 15.577 31 17C31.5 18.5 33 20 32 21M38.5 7C37.5 8 37.5 9.5 38 11C38.4744 12.423 39 13 38.5 14.5M44.5 2C43.5 3 43.5481 4.07212 44.5 5.5C45.5 7 45 8 44.5 9M23 18.5C22 20 23 22 25.5 22C28 22 29 25 28.5 27" stroke="#D0333D" stroke-width="1.5" stroke-linecap="round"/>
<path d="M26.5 17C25 18 26.1561 19.078 28 20C30 21 32 21.5 31 23M24.5 17.5C24 19 24 20.4 27 21C29.5 21.5 31 23.5 30 25M32 13C31 13.5 30.5257 15.577 31 17C31.5 18.5 33 20 32 21M38.5 7C37.5 8 37.5 9.5 38 11C38.4744 12.423 39 13 38.5 14.5M44.5 2C43.5 3 43.5481 4.07212 44.5 5.5C45.5 7 45 8 44.5 9M23 18.5C22 20 23 22 25.5 22C28 22 29 25 28.5 27" stroke="black" stroke-opacity="0.4" stroke-width="1.5" stroke-linecap="round"/>
</svg>
