<svg width="50" height="50" viewBox="0 0 50 50" fill="none" xmlns="http://www.w3.org/2000/svg">
<g clip-path="url(#clip0_3633_30010)">
<path d="M48 2L2 48" stroke="#D0333D"/>
<path d="M48 2L2 48" stroke="white" stroke-opacity="0.6"/>
<path d="M31 31V38L18 44L3.57609 45.9127L0 49L1.02174 50L4.08696 46.3118L18 45.9127L34 41L35.5 35.5L41 34L45.9722 19L46.3795 4L50 1L49 0L45.9722 3.5L44 19L38 31H31Z" fill="#D0333D"/>
<path d="M45.4464 23.0833C43.7406 20.6229 40.7258 18.4358 39.9249 18.4715C39.1241 18.5073 38.6461 19.5147 38.9765 20.3426C39.3894 21.3773 41.5122 25.2498 42.2561 26.2181C43 27.1863 44.0834 27.046 44.6305 27.2799C44.6305 27.2799 46.3634 28.252 46.6145 28.0657C46.8656 27.8795 45.4464 23.0833 45.4464 23.0833Z" fill="#D0333D"/>
<path d="M45.4464 23.0833C43.7406 20.6229 40.7258 18.4358 39.9249 18.4715C39.1241 18.5073 38.6461 19.5147 38.9765 20.3426C39.3894 21.3773 41.5122 25.2498 42.2561 26.2181C43 27.1863 44.0834 27.046 44.6305 27.2799C44.6305 27.2799 46.3634 28.252 46.6145 28.0657C46.8656 27.8795 45.4464 23.0833 45.4464 23.0833Z" fill="white" fill-opacity="0.9"/>
<path d="M43.8943 22.2993C43.0005 21.0941 41.1736 19.7506 40.372 19.2295C41.2006 20.1717 43.0392 22.2797 43.7647 23.1739C44.4901 24.0681 45.9022 26.4406 46.5175 27.515L46.1128 26.0249C45.7458 25.2852 44.7882 23.5045 43.8943 22.2993Z" fill="#FEFEFE"/>
<path d="M45.6515 23.409C45.2547 22.7692 44.8283 22.2292 44.5341 21.9026C44.0968 21.8377 44.7931 22.5667 44.6797 22.7286C44.5663 22.8906 45.546 24.4213 45.4326 24.5833C45.3192 24.7452 44.9631 23.5304 44.6877 23.579C44.4124 23.6275 44.8334 24.405 45.0196 24.6561C45.1029 24.7684 46.5313 27.3094 46.1692 27.1505C45.7077 26.948 45.1225 26.2145 44.8979 26.381C44.7313 26.5046 45.0827 26.7317 44.995 26.9317C44.7682 27.2556 43.1324 26.8343 43.4563 27.0611C43.7559 27.1502 44.4928 27.3042 44.6548 27.4176C44.8167 27.531 45.9347 28.2237 46.4363 28.665L48.825 30.941C48.4877 30.1014 48.0235 28.811 47.5054 27.4828C46.9039 25.9406 46.2125 24.3139 45.6515 23.409Z" fill="#CE4317"/>
<path d="M45.6515 23.409C45.2547 22.7692 44.8283 22.2292 44.5341 21.9026C44.0968 21.8377 44.7931 22.5667 44.6797 22.7286C44.5663 22.8906 45.546 24.4213 45.4326 24.5833C45.3192 24.7452 44.9631 23.5304 44.6877 23.579C44.4124 23.6275 44.8334 24.405 45.0196 24.6561C45.1029 24.7684 46.5313 27.3094 46.1692 27.1505C45.7077 26.948 45.1225 26.2145 44.8979 26.381C44.7313 26.5046 45.0827 26.7317 44.995 26.9317C44.7682 27.2556 43.1324 26.8343 43.4563 27.0611C43.7559 27.1502 44.4928 27.3042 44.6548 27.4176C44.8167 27.531 45.9347 28.2237 46.4363 28.665L48.825 30.941C48.4877 30.1014 48.0235 28.811 47.5054 27.4828C46.9039 25.9406 46.2125 24.3139 45.6515 23.409Z" fill="black" fill-opacity="0.15"/>
<path d="M42.9033 25.9149C42.4504 25.7762 42.3756 25.3522 42.0557 24.7528C42.546 25.1036 42.7694 25.5505 43.2814 25.6297C43.7485 25.7018 44.4935 26.1564 44.2619 26.3311C44.0303 26.5058 43.3561 26.0536 42.9033 25.9149Z" fill="#CE4317"/>
<path d="M42.9033 25.9149C42.4504 25.7762 42.3756 25.3522 42.0557 24.7528C42.546 25.1036 42.7694 25.5505 43.2814 25.6297C43.7485 25.7018 44.4935 26.1564 44.2619 26.3311C44.0303 26.5058 43.3561 26.0536 42.9033 25.9149Z" fill="black" fill-opacity="0.15"/>
<path d="M22.7106 44.0288C20.5838 41.9217 18.9534 38.5728 19.1276 37.7904C19.3019 37.0079 20.3771 36.7122 21.1349 37.1812C22.0823 37.7676 25.5273 40.5306 26.3517 41.4314C27.1761 42.3321 26.8497 43.3746 26.9851 43.954C26.9851 43.954 27.6415 45.8294 27.4145 46.0444C27.1875 46.2593 22.7106 44.0288 22.7106 44.0288Z" fill="#D0333D"/>
<path d="M22.7106 44.0288C20.5838 41.9217 18.9534 38.5728 19.1276 37.7904C19.3019 37.0079 20.3771 36.7122 21.1349 37.1812C22.0823 37.7676 25.5273 40.5306 26.3517 41.4314C27.1761 42.3321 26.8497 43.3746 26.9851 43.954C26.9851 43.954 27.6415 45.8294 27.4145 46.0444C27.1875 46.2593 22.7106 44.0288 22.7106 44.0288Z" fill="white" fill-opacity="0.9"/>
<path d="M22.2079 42.3641C21.1762 41.2745 20.1704 39.2422 19.7964 38.3622C20.5804 39.3418 22.3371 41.5185 23.0917 42.3883C23.8463 43.258 25.9376 45.0606 26.8889 45.8531L25.4916 45.1958C24.8269 44.7059 23.2395 43.4537 22.2079 42.3641Z" fill="#FEFEFE"/>
<path d="M22.9957 44.2873C22.4345 43.7855 21.9768 43.2718 21.7061 42.9254C21.7182 42.4834 22.3152 43.2958 22.4944 43.2122C22.6735 43.1287 24.0109 44.3593 24.1901 44.2758C24.3693 44.1922 23.2348 43.6305 23.3304 43.3678C23.426 43.105 24.1186 43.6546 24.3335 43.8816C24.4296 43.9832 26.684 45.8311 26.5905 45.447C26.4712 44.9572 25.8504 44.2535 26.0534 44.0613C26.204 43.9187 26.3667 44.3043 26.5789 44.2526C26.9372 44.0855 26.8063 42.4013 26.9735 42.7597C27.0092 43.0702 27.0329 43.8227 27.1164 44.0019C27.2 44.1811 27.6881 45.4024 28.0355 45.9729L29.8621 48.7206C29.0939 48.2426 27.9037 47.5614 26.6856 46.8205C25.2714 45.9603 23.7894 44.997 22.9957 44.2873Z" fill="#CE4317"/>
<path d="M22.9957 44.2873C22.4345 43.7855 21.9768 43.2718 21.7061 42.9254C21.7182 42.4834 22.3152 43.2958 22.4944 43.2122C22.6735 43.1287 24.0109 44.3593 24.1901 44.2758C24.3693 44.1922 23.2348 43.6305 23.3304 43.3678C23.426 43.105 24.1186 43.6546 24.3335 43.8816C24.4296 43.9832 26.684 45.8311 26.5905 45.447C26.4712 44.9572 25.8504 44.2535 26.0534 44.0613C26.204 43.9187 26.3667 44.3043 26.5789 44.2526C26.9372 44.0855 26.8063 42.4013 26.9735 42.7597C27.0092 43.0702 27.0329 43.8227 27.1164 44.0019C27.2 44.1811 27.6881 45.4024 28.0355 45.9729L29.8621 48.7206C29.0939 48.2426 27.9037 47.5614 26.6856 46.8205C25.2714 45.9603 23.7894 44.997 22.9957 44.2873Z" fill="black" fill-opacity="0.15"/>
<path d="M25.9408 42.0159C25.8828 41.5458 25.4783 41.3986 24.9436 40.9794C25.2038 41.5232 25.6052 41.8208 25.5942 42.3388C25.5842 42.8114 25.9025 43.624 26.1148 43.4262C26.3271 43.2285 25.9988 42.486 25.9408 42.0159Z" fill="#CE4317"/>
<path d="M25.9408 42.0159C25.8828 41.5458 25.4783 41.3986 24.9436 40.9794C25.2038 41.5232 25.6052 41.8208 25.5942 42.3388C25.5842 42.8114 25.9025 43.624 26.1148 43.4262C26.3271 43.2285 25.9988 42.486 25.9408 42.0159Z" fill="black" fill-opacity="0.15"/>
<path d="M30.1776 36.7634L28.7634 38.1776C28.9991 38.649 29.4705 39.7332 29.4705 40.2989C29.8241 41.3596 34.4202 43.1274 34.7738 42.7738C35.1274 42.4202 33.3596 37.824 32.2989 37.4705C31.7332 37.4705 30.649 36.9991 30.1776 36.7634Z" fill="#D0333D"/>
<path d="M30.1776 36.7634L28.7634 38.1776C28.9991 38.649 29.4705 39.7332 29.4705 40.2989C29.8241 41.3596 34.4202 43.1274 34.7738 42.7738C35.1274 42.4202 33.3596 37.824 32.2989 37.4705C31.7332 37.4705 30.649 36.9991 30.1776 36.7634Z" fill="black" fill-opacity="0.4"/>
<path d="M31.2213 29.7787L29.7787 31.2213C30.1283 31.8113 30.8493 33.1574 30.9366 33.8218C31.5155 35.122 37.1862 37.9076 37.5469 37.5469C37.9076 37.1862 35.122 31.5155 33.8218 30.9366C33.1574 30.8493 31.8113 30.1283 31.2213 29.7787Z" fill="#D0333D"/>
<path d="M31.2213 29.7787L29.7787 31.2213C30.1283 31.8113 30.8493 33.1574 30.9366 33.8218C31.5155 35.122 37.1862 37.9076 37.5469 37.5469C37.9076 37.1862 35.122 31.5155 33.8218 30.9366C33.1574 30.8493 31.8113 30.1283 31.2213 29.7787Z" fill="black" fill-opacity="0.4"/>
<path d="M38.1776 28.7634L36.7634 30.1776C36.9991 30.649 37.4705 31.7332 37.4705 32.2989C37.8241 33.3596 42.4202 35.1274 42.7738 34.7738C43.1274 34.4202 41.3596 29.824 40.2989 29.4705C39.7332 29.4705 38.649 28.9991 38.1776 28.7634Z" fill="#D0333D"/>
<path d="M38.1776 28.7634L36.7634 30.1776C36.9991 30.649 37.4705 31.7332 37.4705 32.2989C37.8241 33.3596 42.4202 35.1274 42.7738 34.7738C43.1274 34.4202 41.3596 29.824 40.2989 29.4705C39.7332 29.4705 38.649 28.9991 38.1776 28.7634Z" fill="black" fill-opacity="0.4"/>
</g>
<defs>
<clipPath id="clip0_3633_30010">
<rect width="50" height="50" fill="white" transform="matrix(-1 0 0 1 50 0)"/>
</clipPath>
</defs>
</svg>
