<svg width="50" height="50" viewBox="0 0 50 50" fill="none" xmlns="http://www.w3.org/2000/svg">
<path fill-rule="evenodd" clip-rule="evenodd" d="M48 25C48 37.7025 37.7025 48 25 48C12.2975 48 2 37.7025 2 25C2 12.2975 12.2975 2 25 2C37.7025 2 48 12.2975 48 25ZM25 39C32.732 39 39 32.732 39 25C39 17.268 32.732 11 25 11C17.268 11 11 17.268 11 25C11 32.732 17.268 39 25 39ZM25 40C33.2843 40 40 33.2843 40 25C40 16.7157 33.2843 10 25 10C16.7157 10 10 16.7157 10 25C10 33.2843 16.7157 40 25 40ZM25 3L22 6L25 9L28 6L25 3ZM25 41L22 44L25 47L28 44L25 41ZM3 25L6 22L9 25L6 28L3 25ZM44 22L41 25L44 28L47 25L44 22ZM9.5 9.5H13.5V13.5H9.5V9.5ZM40.5 9.5H36.5V13.5H40.5V9.5ZM9.5 36.5H13.5V40.5H9.5V36.5ZM40.5 36.5H36.5V40.5H40.5V36.5Z" fill="#2FC4A7"/>
<path fill-rule="evenodd" clip-rule="evenodd" d="M48 25C48 37.7025 37.7025 48 25 48C12.2975 48 2 37.7025 2 25C2 12.2975 12.2975 2 25 2C37.7025 2 48 12.2975 48 25ZM25 39C32.732 39 39 32.732 39 25C39 17.268 32.732 11 25 11C17.268 11 11 17.268 11 25C11 32.732 17.268 39 25 39ZM25 40C33.2843 40 40 33.2843 40 25C40 16.7157 33.2843 10 25 10C16.7157 10 10 16.7157 10 25C10 33.2843 16.7157 40 25 40ZM25 3L22 6L25 9L28 6L25 3ZM25 41L22 44L25 47L28 44L25 41ZM3 25L6 22L9 25L6 28L3 25ZM44 22L41 25L44 28L47 25L44 22ZM9.5 9.5H13.5V13.5H9.5V9.5ZM40.5 9.5H36.5V13.5H40.5V9.5ZM9.5 36.5H13.5V40.5H9.5V36.5ZM40.5 36.5H36.5V40.5H40.5V36.5Z" fill="white" fill-opacity="0.2"/>
<circle cx="25" cy="25" r="14" fill="#2FC4A7"/>
<circle cx="25" cy="25" r="14" fill="white" fill-opacity="0.8"/>
</svg>
