<svg width="50" height="50" viewBox="0 0 50 50" fill="none" xmlns="http://www.w3.org/2000/svg">
<path d="M5.99999 50L-1.36332e-05 44C1.178 42.2785 5.0289 37.6265 7 35.5C9.46388 32.8419 16.1165 29.3998 17.5 28C18.866 26.6178 21.6354 22.3688 22 22C22.4163 21.5788 23.873 20.6968 24.5 20.5C25.1043 20.6911 26.4505 21.5043 27.5 22.5C28.5495 23.4957 29.5318 24.9569 29.5 25.5C29.3148 26.0341 28.4406 27.6034 28 28C27.5594 28.3965 23.1963 31.289 22 32.5C20.3473 34.1728 17.3586 40.0361 14.4556 42.9733C11.9794 45.4787 7.59709 49.0037 5.99999 50Z" fill="#2FC4A7"/>
<path d="M5.99999 50L-1.36332e-05 44C1.178 42.2785 5.0289 37.6265 7 35.5C9.46388 32.8419 16.1165 29.3998 17.5 28C18.866 26.6178 21.6354 22.3688 22 22C22.4163 21.5788 23.873 20.6968 24.5 20.5C25.1043 20.6911 26.4505 21.5043 27.5 22.5C28.5495 23.4957 29.5318 24.9569 29.5 25.5C29.3148 26.0341 28.4406 27.6034 28 28C27.5594 28.3965 23.1963 31.289 22 32.5C20.3473 34.1728 17.3586 40.0361 14.4556 42.9733C11.9794 45.4787 7.59709 49.0037 5.99999 50Z" fill="white" fill-opacity="0.8"/>
<path d="M29.3938 17.2189L24.5 20.5C25.1821 20.6941 26.4483 21.5138 27.5 22.5C28.5517 23.4862 29.4637 24.8044 29.5 25.5L32.7426 20.5677C32.8464 20.1115 32.4413 19.4413 31.5 18.5C30.6628 17.6628 29.7054 17.1601 29.3938 17.2189Z" fill="#2FC4A7"/>
<path d="M29.3938 17.2189L24.5 20.5C25.1821 20.6941 26.4483 21.5138 27.5 22.5C28.5517 23.4862 29.4637 24.8044 29.5 25.5L32.7426 20.5677C32.8464 20.1115 32.4413 19.4413 31.5 18.5C30.6628 17.6628 29.7054 17.1601 29.3938 17.2189Z" fill="white" fill-opacity="0.95"/>
<path d="M31.5 15.4999C31.1877 15.8123 30.0351 16.7943 29.3939 17.219C29.8546 17.246 30.6628 17.6627 31.5 18.4999C32.2384 19.2383 32.833 20.342 32.7427 20.5678C33.0858 19.9715 34.174 18.7871 34.4863 18.4748C34.9569 18.0042 36.9295 18.8601 38 18.9999L49 7.99994L42 0.999939L31 11.9999C31.0996 12.9304 31.8916 15.1083 31.5 15.4999Z" fill="#2FC4A7"/>
<path d="M41 2.00003L43 1.53593e-05L50 7.00003L48 9.00003L41 2.00003Z" fill="#2FC4A7"/>
<path d="M41 2.00003L43 1.53593e-05L50 7.00003L48 9.00003L41 2.00003Z" fill="white" fill-opacity="0.95"/>
</svg>
