<svg width="50" height="50" viewBox="0 0 50 50" fill="none" xmlns="http://www.w3.org/2000/svg">
<path d="M25 0C18.3669 3.6394 15.2979 5.11422 8 7C9 11 11 20 11 25C11 30 7 39 7 39C7 39 9 43 13.5 46C18 49 25 50 25 50C25 50 32.5 49 36.5 46C40.5 43 43 39 43 39C43 39 39 31 39 25C39 19 40.5067 10.7919 42 7C34.2416 4.66321 31.2376 3.20722 25 0Z" fill="#2FC4A7"/>
<path d="M25 0C18.3669 3.6394 15.2979 5.11422 8 7C9 11 11 20 11 25C11 30 7 39 7 39C7 39 9 43 13.5 46C18 49 25 50 25 50C25 50 32.5 49 36.5 46C40.5 43 43 39 43 39C43 39 39 31 39 25C39 19 40.5067 10.7919 42 7C34.2416 4.66321 31.2376 3.20722 25 0Z" fill="white" fill-opacity="0.2"/>
<path d="M25 10L22 5C18.1244 6.99143 15.8373 7.82475 11.5 9C11.5 9 14 22 14 25C14 28 12.1 34.5 10.5 38.5C12.5 41.5 17.5 45 25 46C32.5 45 37.5 41.5 39.5 38.5C38 35.5 36 30.2 36 25C36 19.8 37.8333 12.1667 38.5 9C33.9197 7.94827 31.6465 7.04259 28 5L25 10Z" fill="#2FC4A7"/>
<path d="M25 10L22 5C18.1244 6.99143 15.8373 7.82475 11.5 9C11.5 9 14 22 14 25C14 28 12.1 34.5 10.5 38.5C12.5 41.5 17.5 45 25 46C32.5 45 37.5 41.5 39.5 38.5C38 35.5 36 30.2 36 25C36 19.8 37.8333 12.1667 38.5 9C33.9197 7.94827 31.6465 7.04259 28 5L25 10Z" fill="white" fill-opacity="0.8"/>
<path d="M11.4999 9.00023L39 41.0002" stroke="#2FC4A7" stroke-linecap="square"/>
<path d="M11.4999 9.00023L39 41.0002" stroke="white" stroke-opacity="0.2" stroke-linecap="square"/>
<path d="M38.5 9L11.5 40.5" stroke="#2FC4A7" stroke-linecap="square"/>
<path d="M38.5 9L11.5 40.5" stroke="white" stroke-opacity="0.2" stroke-linecap="square"/>
<path d="M25 18L20 25L25 31.5L30 25L25 18Z" fill="#2FC4A7"/>
<path d="M25 18L20 25L25 31.5L30 25L25 18Z" fill="white" fill-opacity="0.2"/>
<path d="M25 22L23 24.5926L25 27L27 24.5926L25 22Z" fill="#2FC4A7"/>
<path d="M25 22L23 24.5926L25 27L27 24.5926L25 22Z" fill="white" fill-opacity="0.8"/>
</svg>
