<svg width="50" height="50" viewBox="0 0 50 50" fill="none" xmlns="http://www.w3.org/2000/svg">
<path d="M35.8279 30.8347C40.3021 35.181 40.0948 41.6059 41 46.2221L44 28.088L32.5 3.22209C32.5 3.22209 21 -3.7779 11.5 4.22209C2 12.2221 5 20.7221 5 20.7221L19.0722 37.1429C19.0722 33.8831 17.7938 27.7258 22.268 26.277C25.2945 25.297 31.9913 27.1077 35.8279 30.8347Z" fill="#898989"/>
<path d="M35.8279 30.8347C40.3021 35.181 40.0948 41.6059 41 46.2221L44 28.088L32.5 3.22209C32.5 3.22209 21 -3.7779 11.5 4.22209C2 12.2221 5 20.7221 5 20.7221L19.0722 37.1429C19.0722 33.8831 17.7938 27.7258 22.268 26.277C25.2945 25.297 31.9913 27.1077 35.8279 30.8347Z" fill="black" fill-opacity="0.2"/>
<path fill-rule="evenodd" clip-rule="evenodd" d="M44.2346 16.393C43.5285 12.2221 39.9977 4.7415 32.23 1.91688C27.3979 0.159741 23.0709 -0.260575 18.9863 0.711057C19.2799 0.724517 19.5763 0.741186 19.8706 0.760692C21.3207 0.856813 22.7751 1.0255 23.6213 1.23704C25.6906 1.75437 29.297 3.29748 31.8841 6.40202C32.9454 7.67558 33.8024 9.62304 34.4122 11.465C35.0241 13.3134 35.4106 15.1288 35.4983 16.1806C35.5212 16.4558 35.3167 16.6974 35.0415 16.7204C34.7663 16.7433 34.5247 16.5388 34.5017 16.2636C34.4227 15.3154 34.0593 13.5809 33.4628 11.7792C32.8643 9.97119 32.0546 8.16865 31.1159 7.04221C28.703 4.14674 25.3094 2.68984 23.3787 2.20718C22.6249 2.01871 21.246 1.85406 19.8044 1.7585C18.3662 1.66317 16.9223 1.6403 16.0453 1.72003C16.0052 1.72367 15.9659 1.72249 15.9278 1.71696C14.5175 2.31231 13.1293 3.08429 11.7515 4.03536C8.44353 6.31886 6.34708 9.14179 5.33913 12.6486C6.3097 12.4717 7.9298 12.2221 9 12.2221H9.01594C10.5228 12.2221 13.1384 12.222 15.7572 13.7933C17.7541 14.9914 18.8539 16.219 19.6869 17.1488L19.6869 17.1488C19.9261 17.4159 20.1434 17.6584 20.3536 17.8685C20.5488 18.0638 20.5488 18.3804 20.3536 18.5756C20.1583 18.7709 19.8417 18.7709 19.6464 18.5756C19.3955 18.3247 19.1525 18.054 18.8955 17.7676C18.0687 16.8465 17.0961 15.7628 15.2428 14.6508C12.8709 13.2277 10.4957 13.2221 9 13.2221C7.85433 13.2221 5.93074 13.5458 5.09806 13.7124C5.08875 13.7142 5.07946 13.7158 5.07018 13.7171C4.479 16.4365 4.48701 19.5446 5.04309 23.1015C5.87818 28.4429 6.00675 28.8089 6.33884 29.7542C6.38729 29.8921 6.44007 30.0423 6.5 30.2221L12.5 32.9876L14.5 39.7221C17.3293 42.7391 20.8903 44.5139 24.9457 46.5351C26.8618 47.4901 28.8882 48.5001 31 49.7221C30.8999 49.0211 30.7997 48.3403 30.6996 47.6596C30.2999 44.9419 29.9003 42.2253 29.5 38.2221C29.1389 34.6107 29.1 31.9207 29.0619 29.286C29.0472 28.2729 29.0327 27.268 29 26.2221L41 24.2221C41.1574 26.347 41.1043 28.7887 41.0518 31.2008C41.0258 32.3959 41 33.5837 41 34.7221C41 36.0224 41.0264 37.5167 41.0527 39.0046C41.1048 41.9608 41.1566 44.8912 41 46.2221L43.5284 32.9876C43.5284 32.9876 44.9407 20.5639 44.2346 16.393Z" fill="#898989"/>
<path fill-rule="evenodd" clip-rule="evenodd" d="M44.2346 16.393C43.5285 12.2221 39.9977 4.7415 32.23 1.91688C27.3979 0.159741 23.0709 -0.260575 18.9863 0.711057C19.2799 0.724517 19.5763 0.741186 19.8706 0.760692C21.3207 0.856813 22.7751 1.0255 23.6213 1.23704C25.6906 1.75437 29.297 3.29748 31.8841 6.40202C32.9454 7.67558 33.8024 9.62304 34.4122 11.465C35.0241 13.3134 35.4106 15.1288 35.4983 16.1806C35.5212 16.4558 35.3167 16.6974 35.0415 16.7204C34.7663 16.7433 34.5247 16.5388 34.5017 16.2636C34.4227 15.3154 34.0593 13.5809 33.4628 11.7792C32.8643 9.97119 32.0546 8.16865 31.1159 7.04221C28.703 4.14674 25.3094 2.68984 23.3787 2.20718C22.6249 2.01871 21.246 1.85406 19.8044 1.7585C18.3662 1.66317 16.9223 1.6403 16.0453 1.72003C16.0052 1.72367 15.9659 1.72249 15.9278 1.71696C14.5175 2.31231 13.1293 3.08429 11.7515 4.03536C8.44353 6.31886 6.34708 9.14179 5.33913 12.6486C6.3097 12.4717 7.9298 12.2221 9 12.2221H9.01594C10.5228 12.2221 13.1384 12.222 15.7572 13.7933C17.7541 14.9914 18.8539 16.219 19.6869 17.1488L19.6869 17.1488C19.9261 17.4159 20.1434 17.6584 20.3536 17.8685C20.5488 18.0638 20.5488 18.3804 20.3536 18.5756C20.1583 18.7709 19.8417 18.7709 19.6464 18.5756C19.3955 18.3247 19.1525 18.054 18.8955 17.7676C18.0687 16.8465 17.0961 15.7628 15.2428 14.6508C12.8709 13.2277 10.4957 13.2221 9 13.2221C7.85433 13.2221 5.93074 13.5458 5.09806 13.7124C5.08875 13.7142 5.07946 13.7158 5.07018 13.7171C4.479 16.4365 4.48701 19.5446 5.04309 23.1015C5.87818 28.4429 6.00675 28.8089 6.33884 29.7542C6.38729 29.8921 6.44007 30.0423 6.5 30.2221L12.5 32.9876L14.5 39.7221C17.3293 42.7391 20.8903 44.5139 24.9457 46.5351C26.8618 47.4901 28.8882 48.5001 31 49.7221C30.8999 49.0211 30.7997 48.3403 30.6996 47.6596C30.2999 44.9419 29.9003 42.2253 29.5 38.2221C29.1389 34.6107 29.1 31.9207 29.0619 29.286C29.0472 28.2729 29.0327 27.268 29 26.2221L41 24.2221C41.1574 26.347 41.1043 28.7887 41.0518 31.2008C41.0258 32.3959 41 33.5837 41 34.7221C41 36.0224 41.0264 37.5167 41.0527 39.0046C41.1048 41.9608 41.1566 44.8912 41 46.2221L43.5284 32.9876C43.5284 32.9876 44.9407 20.5639 44.2346 16.393Z" fill="white" fill-opacity="0.4"/>
<path d="M44.5877 19.8013C44.5877 17.3802 43.5501 16.7221 42.5 16.2221C41.4499 15.7221 39.9977 15.4453 35.4077 15.6869C28.6993 16.0399 22.697 16.8167 19.8723 18.5115C17.0477 20.2063 17.0477 23.1015 17.4008 24.5138C17.7539 25.9261 18.7803 28.9865 22.6268 31.2199C27.9931 34.3359 31.877 31.5753 32.9362 30.5161C34.3695 29.0828 35.4077 26.0396 36.82 25.8827C37.781 25.7759 37.9972 26.7655 39.6446 28.0011C41.2921 29.2367 43.0009 27.6085 43.5501 26.3729C43.9962 25.3692 44.5877 22.2224 44.5877 19.8013Z" fill="#1D8CE0"/>
<path d="M28.0606 18.7917C29.4729 18.7917 32.6506 18.7917 33.3568 20.9101C34.0629 23.0286 33.4063 24.6455 33.0037 25.8532C32.6506 26.9124 31.2383 28.9132 29.826 29.384C28.4137 29.8548 26.6483 30.4432 24.1768 29.0309C21.8421 27.6968 20.5007 25.4796 20.2929 24.4409C19.9399 22.6755 19.9399 21.6163 21.3522 20.5571C22.7645 19.4978 26.6483 18.7917 28.0606 18.7917Z" fill="#1D8CE0"/>
<path d="M28.0606 18.7917C29.4729 18.7917 32.6506 18.7917 33.3568 20.9101C34.0629 23.0286 33.4063 24.6455 33.0037 25.8532C32.6506 26.9124 31.2383 28.9132 29.826 29.384C28.4137 29.8548 26.6483 30.4432 24.1768 29.0309C21.8421 27.6968 20.5007 25.4796 20.2929 24.4409C19.9399 22.6755 19.9399 21.6163 21.3522 20.5571C22.7645 19.4978 26.6483 18.7917 28.0606 18.7917Z" fill="white" fill-opacity="0.8"/>
<path d="M28.0606 18.7917C29.4729 18.7917 32.6506 18.7917 33.3568 20.9101C34.0629 23.0286 33.4063 24.6455 33.0037 25.8532C32.6506 26.9124 31.2383 28.9132 29.826 29.384C28.4137 29.8548 26.6483 30.4432 24.1768 29.0309C21.8421 27.6968 20.5007 25.4796 20.2929 24.4409C19.9399 22.6755 19.9399 21.6163 21.3522 20.5571C22.7645 19.4978 26.6483 18.7917 28.0606 18.7917Z" stroke="#898989" stroke-width="1.41231"/>
<path d="M28.0606 18.7917C29.4729 18.7917 32.6506 18.7917 33.3568 20.9101C34.0629 23.0286 33.4063 24.6455 33.0037 25.8532C32.6506 26.9124 31.2383 28.9132 29.826 29.384C28.4137 29.8548 26.6483 30.4432 24.1768 29.0309C21.8421 27.6968 20.5007 25.4796 20.2929 24.4409C19.9399 22.6755 19.9399 21.6163 21.3522 20.5571C22.7645 19.4978 26.6483 18.7917 28.0606 18.7917Z" stroke="white" stroke-opacity="0.4" stroke-width="1.41231"/>
<path d="M27.2869 29.8099L24.1092 19.9238L21.9908 19.9238L25.1685 29.8099L27.2869 29.8099Z" fill="#1D8CE0"/>
<path d="M27.2869 29.8099L24.1092 19.9238L21.9908 19.9238L25.1685 29.8099L27.2869 29.8099Z" fill="white" fill-opacity="0.6"/>
<path d="M29.0523 29.4568L25.8746 19.5707L25.1685 19.5707L28.3462 29.4568L29.0523 29.4568Z" fill="#1D8CE0"/>
<path d="M29.0523 29.4568L25.8746 19.5707L25.1685 19.5707L28.3462 29.4568L29.0523 29.4568Z" fill="white" fill-opacity="0.6"/>
<path d="M28.0606 18.7917C29.4729 18.7917 32.6506 18.7917 33.3568 20.9101C34.0629 23.0286 33.4063 24.6455 33.0037 25.8532C32.6506 26.9124 31.2383 28.9132 29.826 29.384C28.4137 29.8548 26.6483 30.4432 24.1768 29.0309C21.8421 27.6968 20.5007 25.4796 20.2929 24.4409C19.9399 22.6755 19.9399 21.6163 21.3522 20.5571C22.7645 19.4978 26.6483 18.7917 28.0606 18.7917Z" stroke="#1D8CE0" stroke-width="1.41231"/>
<path d="M28.0606 18.7917C29.4729 18.7917 32.6506 18.7917 33.3568 20.9101C34.0629 23.0286 33.4063 24.6455 33.0037 25.8532C32.6506 26.9124 31.2383 28.9132 29.826 29.384C28.4137 29.8548 26.6483 30.4432 24.1768 29.0309C21.8421 27.6968 20.5007 25.4796 20.2929 24.4409C19.9399 22.6755 19.9399 21.6163 21.3522 20.5571C22.7645 19.4978 26.6483 18.7917 28.0606 18.7917Z" stroke="white" stroke-opacity="0.4" stroke-width="1.41231"/>
<path d="M39.6201 17.8641C38.9424 18.0564 37.4176 18.489 37.5396 20.2096C37.6616 21.9301 38.3285 23.0806 38.7844 23.9519C39.1842 24.716 40.2972 26.0579 41.0773 26.2267C41.8575 26.3954 43.0424 26.727 43.7114 25.1868C44.3477 23.7219 44.6731 22.3174 44.6621 21.2613C44.6473 19.8465 44.1315 18.9245 43.2233 18.3045C42.3152 17.6846 40.2979 17.6718 39.6201 17.8641Z" fill="#1D8CE0"/>
<path d="M39.6201 17.8641C38.9424 18.0564 37.4176 18.489 37.5396 20.2096C37.6616 21.9301 38.3285 23.0806 38.7844 23.9519C39.1842 24.716 40.2972 26.0579 41.0773 26.2267C41.8575 26.3954 43.0424 26.727 43.7114 25.1868C44.3477 23.7219 44.6731 22.3174 44.6621 21.2613C44.6473 19.8465 44.1315 18.9245 43.2233 18.3045C42.3152 17.6846 40.2979 17.6718 39.6201 17.8641Z" fill="white" fill-opacity="0.8"/>
<path d="M39.6201 17.8641C38.9424 18.0564 37.4176 18.489 37.5396 20.2096C37.6616 21.9301 38.3285 23.0806 38.7844 23.9519C39.1842 24.716 40.2972 26.0579 41.0773 26.2267C41.8575 26.3954 43.0424 26.727 43.7114 25.1868C44.3477 23.7219 44.6731 22.3174 44.6621 21.2613C44.6473 19.8465 44.1315 18.9245 43.2233 18.3045C42.3152 17.6846 40.2979 17.6718 39.6201 17.8641Z" stroke="#1D8CE0" stroke-width="1.41231"/>
<path d="M39.6201 17.8641C38.9424 18.0564 37.4176 18.489 37.5396 20.2096C37.6616 21.9301 38.3285 23.0806 38.7844 23.9519C39.1842 24.716 40.2972 26.0579 41.0773 26.2267C41.8575 26.3954 43.0424 26.727 43.7114 25.1868C44.3477 23.7219 44.6731 22.3174 44.6621 21.2613C44.6473 19.8465 44.1315 18.9245 43.2233 18.3045C42.3152 17.6846 40.2979 17.6718 39.6201 17.8641Z" stroke="white" stroke-opacity="0.4" stroke-width="1.41231"/>
</svg>
