<svg width="50" height="50" viewBox="0 0 50 50" fill="none" xmlns="http://www.w3.org/2000/svg">
<path d="M34.2815 4.33879C36.9782 4.87812 41.3633 5.05905 43.9254 5.09655V31.6834C43.7876 31.9842 43.6457 32.3029 43.4973 32.636C42.276 35.3789 40.6171 39.1044 37.1956 41.9557C33.6923 44.8751 29.1405 46.9711 25.8865 48.4695C25.5453 48.6266 25.2183 48.7772 24.9083 48.9215C22.0431 47.894 16.1947 45.2786 12.7821 42.0025C9.29021 38.6503 6.84545 33.8455 6 31.715V5.0972C7.15052 5.0816 8.62964 5.03916 10.1225 4.95358C12.0764 4.84158 14.1285 4.65205 15.4902 4.33163C17.91 3.76227 22.69 2.164 24.9801 1.10242C27.1102 2.03927 31.385 3.75949 34.2815 4.33879Z" fill="#898989"/>
<path d="M34.2815 4.33879C36.9782 4.87812 41.3633 5.05905 43.9254 5.09655V31.6834C43.7876 31.9842 43.6457 32.3029 43.4973 32.636C42.276 35.3789 40.6171 39.1044 37.1956 41.9557C33.6923 44.8751 29.1405 46.9711 25.8865 48.4695C25.5453 48.6266 25.2183 48.7772 24.9083 48.9215C22.0431 47.894 16.1947 45.2786 12.7821 42.0025C9.29021 38.6503 6.84545 33.8455 6 31.715V5.0972C7.15052 5.0816 8.62964 5.03916 10.1225 4.95358C12.0764 4.84158 14.1285 4.65205 15.4902 4.33163C17.91 3.76227 22.69 2.164 24.9801 1.10242C27.1102 2.03927 31.385 3.75949 34.2815 4.33879Z" fill="white" fill-opacity="0.2"/>
<path d="M34.2815 4.33879C36.9782 4.87812 41.3633 5.05905 43.9254 5.09655V31.6834C43.7876 31.9842 43.6457 32.3029 43.4973 32.636C42.276 35.3789 40.6171 39.1044 37.1956 41.9557C33.6923 44.8751 29.1405 46.9711 25.8865 48.4695C25.5453 48.6266 25.2183 48.7772 24.9083 48.9215C22.0431 47.894 16.1947 45.2786 12.7821 42.0025C9.29021 38.6503 6.84545 33.8455 6 31.715V5.0972C7.15052 5.0816 8.62964 5.03916 10.1225 4.95358C12.0764 4.84158 14.1285 4.65205 15.4902 4.33163C17.91 3.76227 22.69 2.164 24.9801 1.10242C27.1102 2.03927 31.385 3.75949 34.2815 4.33879Z" stroke="#FEFEFE" stroke-width="2" stroke-linecap="round"/>
<circle cx="25" cy="24" r="13" fill="#FAA21E"/>
<circle cx="25" cy="24" r="13" stroke="#1D8CE0" stroke-width="2"/>
<circle cx="25" cy="24" r="13" stroke="white" stroke-opacity="0.95" stroke-width="2"/>
<circle cx="25" cy="24" r="7" fill="#FAA21E"/>
<circle cx="25" cy="24" r="7" stroke="#1D8CE0" stroke-width="2"/>
<circle cx="25" cy="24" r="7" stroke="white" stroke-opacity="0.95" stroke-width="2"/>
<path d="M6.5 24H44M25 1V48.5" stroke="#1D8CE0" stroke-width="2"/>
<path d="M6.5 24H44M25 1V48.5" stroke="white" stroke-opacity="0.95" stroke-width="2"/>
</svg>
