<svg width="50" height="50" viewBox="0 0 50 50" fill="none" xmlns="http://www.w3.org/2000/svg">
<g clip-path="url(#clip0_3498_30256)">
<path d="M23.2857 39.6435C23.2857 37.7454 22.4286 34.1073 22 33H28C27.5714 34.1073 26.7143 37.7454 26.7143 39.6435C26.7143 41.5417 27.5714 45.0764 28 46.5C25.5 47.5 24.5 47.5 22 46.5C22.4286 45.0764 23.2857 41.5417 23.2857 39.6435Z" fill="#FAA21E"/>
<path d="M23.2857 39.6435C23.2857 37.7454 22.4286 34.1073 22 33H28C27.5714 34.1073 26.7143 37.7454 26.7143 39.6435C26.7143 41.5417 27.5714 45.0764 28 46.5C25.5 47.5 24.5 47.5 22 46.5C22.4286 45.0764 23.2857 41.5417 23.2857 39.6435Z" fill="black" fill-opacity="0.1"/>
<path d="M15 46.8C15 44.7188 20.5 45.2 23 42H27C29.5 45.2 35 44.5 35 46.8C35 48.4 29 50 25 50C21 50 15 48.4 15 46.8Z" fill="#FAA21E"/>
<path d="M15 46.8C15 44.7188 20.5 45.2 23 42H27C29.5 45.2 35 44.5 35 46.8C35 48.4 29 50 25 50C21 50 15 48.4 15 46.8Z" fill="black" fill-opacity="0.4"/>
<path d="M15 46.2C15 45.08 20.5 44.8 23 42H27C29.5 44.8 35 45.08 35 46.2C35 47.6 29 49 25 49C21 49 15 47.6 15 46.2Z" fill="#FAA21E"/>
<path d="M15 46.2C15 45.08 20.5 44.8 23 42H27C29.5 44.8 35 45.08 35 46.2C35 47.6 29 49 25 49C21 49 15 47.6 15 46.2Z" fill="black" fill-opacity="0.1"/>
<path d="M19.8236 -0.318471L25 11.3607L30.1764 -0.318472L28.8197 12.3842L39.1422 4.85791L31.6159 15.1804L44.3185 13.8237L32.6393 19L44.3185 24.1764L31.6159 22.8197L39.1422 33.1422L28.8197 25.6159L30.1764 38.3186L25 26.6394L19.8236 38.3186L21.1804 25.6159L10.8579 33.1422L18.3842 22.8197L5.68151 24.1764L17.3607 19L5.68151 13.8237L18.3842 15.1804L10.8579 4.85791L21.1804 12.3842L19.8236 -0.318471Z" fill="#FAA21E"/>
<ellipse cx="25.139" cy="20.3432" rx="12.9144" ry="12.9144" fill="#546DDB"/>
<ellipse cx="25.139" cy="20.3432" rx="12.9144" ry="12.9144" fill="white" fill-opacity="0.95"/>
<path d="M12.2246 20.3432C12.2246 27.4756 18.0066 33.2576 25.139 33.2576C30.138 33.2576 34.4737 30.4172 36.6201 26.2623C33.7486 29.2218 28.3676 32.9885 21.1033 28.9528C13.8389 24.917 13.8389 18.4598 14.377 13.202C13.017 15.2474 12.2246 17.7028 12.2246 20.3432Z" fill="#546DDB"/>
<path d="M12.2246 20.3432C12.2246 27.4756 18.0066 33.2576 25.139 33.2576C30.138 33.2576 34.4737 30.4172 36.6201 26.2623C33.7486 29.2218 28.3676 32.9885 21.1033 28.9528C13.8389 24.917 13.8389 18.4598 14.377 13.202C13.017 15.2474 12.2246 17.7028 12.2246 20.3432Z" fill="white" fill-opacity="0.6"/>
<path d="M14.1081 26.8004C14.1988 26.3091 14.3132 26.07 14.6462 25.7242M14.6462 25.7242C14.3074 24.926 14.1622 24.4638 14.1081 23.5718C14.1081 22.9412 14.1082 23.1264 14.1081 22.4956M14.6462 25.7242C15.2337 25.6596 15.583 25.6539 16.2605 25.7242M14.1081 22.4956C15.3115 22.2536 15.7323 21.422 15.9915 20.6122M14.1081 22.4956L13.301 21.4194C13.0319 21.1503 13.301 20.0741 13.8391 19.8051M13.8391 19.8051C13.8443 19.7637 13.301 19.267 12.3862 19.8051M13.8391 19.8051C14.4669 19.0876 15.6686 17.2222 15.4534 15.5003M16.2605 25.7242C16.2745 26.8468 16.5082 27.5012 17.3367 28.6837C18.2879 29.7762 18.9841 30.3139 20.5653 31.1052M16.2605 25.7242C17.4566 25.9037 18.0504 26.1286 18.951 26.8004M20.5653 31.1052C21.3557 31.5775 21.6514 31.9303 21.9106 32.7195M20.5653 31.1052C21.4388 30.7364 21.9616 30.6508 22.9868 30.8361M22.9868 30.8361C23.7355 31.2241 24.1481 31.2894 24.8701 31.1052M22.9868 30.8361C22.9868 30.8361 23.7939 30.298 24.063 29.7599C24.332 29.2218 24.063 28.1456 24.063 28.1456M18.951 26.8004C19.8967 26.6084 20.4268 26.5863 21.3725 26.8004M18.951 26.8004C19.4528 27.3373 19.6273 27.6317 19.7582 28.1456M29.9821 30.029C30.2511 31.1052 30.2511 31.5153 30.2511 32.1814C29.8698 32.086 29.2401 31.864 28.6368 31.5153M29.9821 30.029C29.7757 29.2036 29.1749 28.4147 28.0987 27.8766M29.9821 30.029C30.5202 29.7599 31.1121 29.0604 31.3273 28.4147M31.3273 28.4147C31.5964 27.6075 31.5964 27.3385 31.5964 26.5313M31.3273 28.4147C31.686 28.4147 32.5111 28.3609 32.9416 28.1456M28.6368 31.5153C28.1052 31.2079 27.5941 30.8022 27.2916 30.298M28.6368 31.5153C28.3678 31.7373 27.6144 32.1276 26.7535 31.9123M15.4534 15.5003C15.2381 13.7784 14.8256 12.9891 14.6462 12.8098M15.4534 15.5003C15.6281 15.2382 15.9261 14.8486 16.2605 14.5177M17.3367 13.886C17.0055 13.886 16.6128 14.1692 16.2605 14.5177M16.2605 14.5177C16.3502 14.8453 16.691 15.6079 17.3367 16.0384M17.3367 16.0384C17.9824 16.4688 18.1439 16.9352 18.1439 17.1146M17.3367 16.0384C17.247 16.7558 17.2291 18.2984 17.8748 18.7289" stroke="#D0333D" stroke-width="0.26905" stroke-linecap="round" stroke-linejoin="round"/>
<path d="M14.1081 26.8004C14.1988 26.3091 14.3132 26.07 14.6462 25.7242M14.6462 25.7242C14.3074 24.926 14.1622 24.4638 14.1081 23.5718C14.1081 22.9412 14.1082 23.1264 14.1081 22.4956M14.6462 25.7242C15.2337 25.6596 15.583 25.6539 16.2605 25.7242M14.1081 22.4956C15.3115 22.2536 15.7323 21.422 15.9915 20.6122M14.1081 22.4956L13.301 21.4194C13.0319 21.1503 13.301 20.0741 13.8391 19.8051M13.8391 19.8051C13.8443 19.7637 13.301 19.267 12.3862 19.8051M13.8391 19.8051C14.4669 19.0876 15.6686 17.2222 15.4534 15.5003M16.2605 25.7242C16.2745 26.8468 16.5082 27.5012 17.3367 28.6837C18.2879 29.7762 18.9841 30.3139 20.5653 31.1052M16.2605 25.7242C17.4566 25.9037 18.0504 26.1286 18.951 26.8004M20.5653 31.1052C21.3557 31.5775 21.6514 31.9303 21.9106 32.7195M20.5653 31.1052C21.4388 30.7364 21.9616 30.6508 22.9868 30.8361M22.9868 30.8361C23.7355 31.2241 24.1481 31.2894 24.8701 31.1052M22.9868 30.8361C22.9868 30.8361 23.7939 30.298 24.063 29.7599C24.332 29.2218 24.063 28.1456 24.063 28.1456M18.951 26.8004C19.8967 26.6084 20.4268 26.5863 21.3725 26.8004M18.951 26.8004C19.4528 27.3373 19.6273 27.6317 19.7582 28.1456M29.9821 30.029C30.2511 31.1052 30.2511 31.5153 30.2511 32.1814C29.8698 32.086 29.2401 31.864 28.6368 31.5153M29.9821 30.029C29.7757 29.2036 29.1749 28.4147 28.0987 27.8766M29.9821 30.029C30.5202 29.7599 31.1121 29.0604 31.3273 28.4147M31.3273 28.4147C31.5964 27.6075 31.5964 27.3385 31.5964 26.5313M31.3273 28.4147C31.686 28.4147 32.5111 28.3609 32.9416 28.1456M28.6368 31.5153C28.1052 31.2079 27.5941 30.8022 27.2916 30.298M28.6368 31.5153C28.3678 31.7373 27.6144 32.1276 26.7535 31.9123M15.4534 15.5003C15.2381 13.7784 14.8256 12.9891 14.6462 12.8098M15.4534 15.5003C15.6281 15.2382 15.9261 14.8486 16.2605 14.5177M17.3367 13.886C17.0055 13.886 16.6128 14.1692 16.2605 14.5177M16.2605 14.5177C16.3502 14.8453 16.691 15.6079 17.3367 16.0384M17.3367 16.0384C17.9824 16.4688 18.1439 16.9352 18.1439 17.1146M17.3367 16.0384C17.247 16.7558 17.2291 18.2984 17.8748 18.7289" stroke="white" stroke-opacity="0.4" stroke-width="0.26905" stroke-linecap="round" stroke-linejoin="round"/>
<ellipse cx="27.8295" cy="17.6526" rx="7.5334" ry="8.0715" transform="rotate(-34.2042 27.8295 17.6526)" fill="#D0333D"/>
<path d="M26.5186 15.7242L23.897 11.8673M31.7617 23.4381L29.1402 19.5812M29.6095 16.4427L33.1697 14.0228M22.489 21.2826L26.0492 18.8627M30.015 18.1608L34.3862 19.1769M21.2726 16.1285L25.6438 17.1446M28.1612 15.4335L28.825 10.9951M26.8338 24.3103L27.4975 19.8719M29.0001 15.8165L31.3416 12.144M24.3171 23.1614L26.6586 19.4889M29.9689 17.2451L34.2479 16.4299M21.4108 18.8755L25.6898 18.0603M27.2834 15.4109L26.1914 10.9274M29.4674 24.378L28.3754 19.8945M29.7287 18.9596L33.5275 21.5735M22.1312 13.732L25.93 16.3458" stroke="#D0333D" stroke-width="0.531741" stroke-linecap="round"/>
<path d="M26.5186 15.7242L23.897 11.8673M31.7617 23.4381L29.1402 19.5812M29.6095 16.4427L33.1697 14.0228M22.489 21.2826L26.0492 18.8627M30.015 18.1608L34.3862 19.1769M21.2726 16.1285L25.6438 17.1446M28.1612 15.4335L28.825 10.9951M26.8338 24.3103L27.4975 19.8719M29.0001 15.8165L31.3416 12.144M24.3171 23.1614L26.6586 19.4889M29.9689 17.2451L34.2479 16.4299M21.4108 18.8755L25.6898 18.0603M27.2834 15.4109L26.1914 10.9274M29.4674 24.378L28.3754 19.8945M29.7287 18.9596L33.5275 21.5735M22.1312 13.732L25.93 16.3458" stroke="white" stroke-opacity="0.4" stroke-width="0.531741" stroke-linecap="round"/>
<ellipse cx="27.9146" cy="17.1347" rx="2.93106" ry="3.2286" transform="rotate(-34.2042 27.9146 17.1347)" fill="#D0333D"/>
<ellipse cx="27.9146" cy="17.1347" rx="2.93106" ry="3.2286" transform="rotate(-34.2042 27.9146 17.1347)" fill="black" fill-opacity="0.8"/>
<ellipse cx="1.23505" cy="2.13058" rx="1.23505" ry="2.13058" transform="matrix(0.999076 -0.0429867 0.102545 0.994728 20.4902 15.3216)" fill="#FEFEFE"/>
<circle cx="25" cy="20" r="13.2632" stroke="#FAA21E" stroke-width="1.47368"/>
</g>
<defs>
<clipPath id="clip0_3498_30256">
<rect width="50" height="50" fill="white"/>
</clipPath>
</defs>
</svg>
