<svg width="50" height="50" viewBox="0 0 50 50" fill="none" xmlns="http://www.w3.org/2000/svg">
<path d="M9.70074 1.99249H39.8518V4.98138L40.8481 6.97397H44.8333V47.8221H11.2738C10.7495 47.8221 8.12764 47.8221 6.55454 46.2597C4.98145 44.6974 4.98145 43.135 4.98145 42.6142V6.67961C4.98145 5.63803 5.71556 4.38813 6.55454 3.55487C7.39353 2.7216 8.65201 1.99249 9.70074 1.99249Z" fill="#7445B8"/>
<path d="M42.8407 9.0662L39.8518 4.98138V39.8518H37.8593L42.8407 45.8295V9.0662Z" fill="#898989"/>
<path d="M42.8407 9.0662L39.8518 4.98138V39.8518H37.8593L42.8407 45.8295V9.0662Z" fill="white" fill-opacity="0.2"/>
<path d="M10.093 39.8517H37.8593L42.8408 45.8295H10.093C9.58856 45.8295 6.97412 45.0823 6.97412 42.8406C6.97412 40.599 9.58856 39.8517 10.093 39.8517Z" fill="#898989"/>
<path d="M10.093 39.8517H37.8593L42.8408 45.8295H10.093C9.58856 45.8295 6.97412 45.0823 6.97412 42.8406C6.97412 40.599 9.58856 39.8517 10.093 39.8517Z" fill="white" fill-opacity="0.6"/>
<path d="M32.6683 35.2111C35.1981 35.8485 37.5761 35.3416 38.3678 34.8341C37.0512 33.7009 35.5423 31.8623 34.8882 30.4122C34.1132 28.6938 33.7467 22.6627 32.107 19.5273C30.7952 17.0189 28.4661 16.1197 27.4656 15.9837C27.6935 16.1889 28.3149 16.8751 28.9773 17.979C29.6398 19.0829 29.7455 20.7366 29.7155 21.4254C29.099 20.6264 27.604 18.5193 26.5558 16.4825C25.2456 13.9366 22.4178 12.0565 20.12 11.4C17.88 10.76 16.0029 11.3756 15.2193 11.6952C15.8013 11.9263 18.1028 12.6346 19.48 13.64C20.8572 14.6454 21.3997 16.6078 21.8954 17.4608C19.16 17.16 18.52 16.84 17.24 15.56C15.8133 14.1333 16.3071 13.6306 13.9347 11.0069C12.0367 8.90796 9.62843 7.95635 7.44856 8.39867C9.61059 9.26809 11.2862 10.3815 12.2233 12.5169C13.4668 15.3502 12.7898 22.637 18.6079 23.6281C24.4259 24.6192 25.5999 26.2128 26.8856 29.3224C28.1712 32.4319 29.5059 34.4143 32.6683 35.2111Z" fill="#898989"/>
<path d="M32.6683 35.2111C35.1981 35.8485 37.5761 35.3416 38.3678 34.8341C37.0512 33.7009 35.5423 31.8623 34.8882 30.4122C34.1132 28.6938 33.7467 22.6627 32.107 19.5273C30.7952 17.0189 28.4661 16.1197 27.4656 15.9837C27.6935 16.1889 28.3149 16.8751 28.9773 17.979C29.6398 19.0829 29.7455 20.7366 29.7155 21.4254C29.099 20.6264 27.604 18.5193 26.5558 16.4825C25.2456 13.9366 22.4178 12.0565 20.12 11.4C17.88 10.76 16.0029 11.3756 15.2193 11.6952C15.8013 11.9263 18.1028 12.6346 19.48 13.64C20.8572 14.6454 21.3997 16.6078 21.8954 17.4608C19.16 17.16 18.52 16.84 17.24 15.56C15.8133 14.1333 16.3071 13.6306 13.9347 11.0069C12.0367 8.90796 9.62843 7.95635 7.44856 8.39867C9.61059 9.26809 11.2862 10.3815 12.2233 12.5169C13.4668 15.3502 12.7898 22.637 18.6079 23.6281C24.4259 24.6192 25.5999 26.2128 26.8856 29.3224C28.1712 32.4319 29.5059 34.4143 32.6683 35.2111Z" fill="white" fill-opacity="0.95"/>
<path d="M22.9245 27.4439C24.7625 27.5784 26.2 29.32 26.84 30.6C26.6041 29.64 26.0882 28.0969 24.6 26.44C22.8875 24.5332 20.4195 24.582 17.7623 23.8411C15.2389 23.1375 14.5518 21.5835 14.1643 20.9818C14.1332 21.6963 14.7114 23.8759 15.9018 25.855C17.3899 28.3289 20.627 27.2758 22.9245 27.4439Z" fill="#898989"/>
<path d="M22.9245 27.4439C24.7625 27.5784 26.2 29.32 26.84 30.6C26.6041 29.64 26.0882 28.0969 24.6 26.44C22.8875 24.5332 20.4195 24.582 17.7623 23.8411C15.2389 23.1375 14.5518 21.5835 14.1643 20.9818C14.1332 21.6963 14.7114 23.8759 15.9018 25.855C17.3899 28.3289 20.627 27.2758 22.9245 27.4439Z" fill="white" fill-opacity="0.6"/>
<path d="M24.0684 30.7554C25.3117 30.8464 26.6299 31.399 26.84 31.88C26.4919 30.5908 25.1691 28.4746 23.5252 28.035C21.8813 27.5955 20.76 28.36 19.16 28.04C19.3096 28.583 20.1606 29.7911 20.9687 30.3291C21.9789 31.0016 22.5142 30.6417 24.0684 30.7554Z" fill="#898989"/>
<path d="M24.0684 30.7554C25.3117 30.8464 26.6299 31.399 26.84 31.88C26.4919 30.5908 25.1691 28.4746 23.5252 28.035C21.8813 27.5955 20.76 28.36 19.16 28.04C19.3096 28.583 20.1606 29.7911 20.9687 30.3291C21.9789 31.0016 22.5142 30.6417 24.0684 30.7554Z" fill="white" fill-opacity="0.95"/>
<path d="M32.6454 30.067C33.76 32.6946 37.2465 34.7355 38.36 34.76C37.3536 34.9882 35.0109 34.8312 32.6253 33.2198C29.8801 31.3654 30.5575 29.2964 28.4225 25.6799C26.395 22.2455 22.6485 21.374 21.5322 21.1681C22.5345 20.7619 26.4112 19.6276 28.8717 21.2635C31.6398 23.1038 31.252 26.7826 32.6454 30.067Z" fill="#898989"/>
<path d="M32.6454 30.067C33.76 32.6946 37.2465 34.7355 38.36 34.76C37.3536 34.9882 35.0109 34.8312 32.6253 33.2198C29.8801 31.3654 30.5575 29.2964 28.4225 25.6799C26.395 22.2455 22.6485 21.374 21.5322 21.1681C22.5345 20.7619 26.4112 19.6276 28.8717 21.2635C31.6398 23.1038 31.252 26.7826 32.6454 30.067Z" fill="white" fill-opacity="0.6"/>
<circle cx="10.2" cy="11.9428" r="1.28" fill="#898989"/>
<circle cx="10.2" cy="11.9428" r="1.28" fill="white" fill-opacity="0.95"/>
<circle cx="25.56" cy="15.24" r="1.28" fill="#898989"/>
<circle cx="25.56" cy="15.24" r="1.28" fill="white" fill-opacity="0.95"/>
<circle cx="33.56" cy="7.24003" r="0.96" fill="#898989"/>
<circle cx="33.56" cy="7.24003" r="0.96" fill="white" fill-opacity="0.95"/>
<circle cx="13.08" cy="32.2" r="0.96" fill="#898989"/>
<circle cx="13.08" cy="32.2" r="0.96" fill="white" fill-opacity="0.95"/>
<circle cx="36.76" cy="25.7028" r="0.96" fill="#898989"/>
<circle cx="36.76" cy="25.7028" r="0.96" fill="white" fill-opacity="0.95"/>
</svg>
