<svg width="50" height="50" viewBox="0 0 50 50" fill="none" xmlns="http://www.w3.org/2000/svg">
<path fill-rule="evenodd" clip-rule="evenodd" d="M11.7365 7.8861C10.3896 7.89098 8.63319 8.02617 7.87511 8.5296C6.6253 9.35958 4.301 15.3875 4.99998 16.179C5.21307 16.4202 5.69102 17.3191 6.29481 18.4546C7.67169 21.0439 9.70298 24.864 10.7401 24.9235C11.9335 24.9919 13.0964 23.9566 13.5287 23.4303C13.6781 23.6252 13.8278 23.8426 13.9767 24.0781C13.9593 23.9688 13.9779 23.8531 14.0375 23.7498C14.1756 23.5106 14.4814 23.4287 14.7205 23.5668C14.8681 23.652 15.07 23.8063 15.276 23.9637L15.276 23.9638L15.3699 24.0354C15.6258 24.2302 15.9237 24.4529 16.2527 24.6646C16.9249 25.0972 17.6587 25.4382 18.3474 25.4382C20.72 25.4382 23.4264 24.9613 25.3379 24.0345C26.2948 23.5705 27.0057 23.0164 27.3981 22.3989C27.7744 21.8067 27.8808 21.1232 27.5716 20.2984C27.4746 20.0399 27.6056 19.7516 27.8642 19.6547C28.1227 19.5577 28.4109 19.6887 28.5079 19.9473C28.9255 21.061 28.7896 22.0736 28.2421 22.9352C27.7107 23.7716 26.8163 24.429 25.7742 24.9343C23.6877 25.9459 20.821 26.4382 18.3474 26.4382C17.3617 26.4382 16.4251 25.9648 15.7115 25.5056C15.3477 25.2714 15.0239 25.0288 14.7642 24.8311L14.6741 24.7624C14.449 24.5909 14.3076 24.483 14.2205 24.4328C14.2048 24.4237 14.1897 24.4139 14.1753 24.4034C15.6407 26.8836 16.997 30.9324 17.3877 32.1456C17.4164 32.2659 17.4536 32.3841 17.5 32.5C17.8744 33.2488 18.1684 33.8968 18.4305 34.4744L18.4305 34.4744C19.5684 36.9822 20.1038 38.1623 24 40.5C26.5 42 26.5306 44.7593 26 47.1823L46.5705 47.1823C47.4624 43.3054 48.9162 25.8593 46.5705 20.9953C45.3944 18.5567 43.7177 15.2461 42.7718 13.8153C42.1074 15.1227 41.7559 16.5356 41.4295 17.9345L41.3649 18.2123C40.9735 19.8992 40.5771 21.6073 39.5763 22.8583C38.985 23.5974 38.0309 23.9949 37.0341 24.2085C36.0249 24.4248 34.8899 24.4698 33.8404 24.439C32.7871 24.408 31.799 24.2998 31.0758 24.1997C30.7136 24.1497 30.4165 24.1014 30.2091 24.0656C30.1054 24.0477 30.0241 24.0328 29.9683 24.0223L29.904 24.0101L29.8868 24.0068L29.8822 24.0058L29.8808 24.0056L29.8804 24.0055C29.8802 24.0055 29.8801 24.0054 29.9782 23.5152L29.8801 24.0054C29.6093 23.9513 29.4337 23.6879 29.4879 23.4171C29.542 23.1463 29.8055 22.9707 30.0762 23.0249L30.0768 23.025L30.0801 23.0256L30.0942 23.0284L30.1523 23.0394C30.2039 23.0491 30.2806 23.0631 30.3795 23.0802C30.5773 23.1144 30.8632 23.1608 31.2128 23.2092C31.9131 23.306 32.8634 23.4098 33.8698 23.4394C34.8799 23.4691 35.9257 23.4233 36.8246 23.2307C37.7359 23.0354 38.4175 22.7059 38.7954 22.2336C39.65 21.1653 39.9995 19.6653 40.4146 17.8837L40.4557 17.7073C40.8451 16.0381 41.3013 14.1834 42.3684 12.5049C41.5439 9.62007 39.7363 6.06499 37.5838 5.12381C35.097 4.03645 30.5561 4.89202 28.9607 5.79979C28.9537 5.80725 28.9463 5.81518 28.9385 5.82357C28.8711 5.89616 28.7738 6.00293 28.6567 6.13742C28.422 6.40694 28.1099 6.78493 27.7989 7.21987C27.4869 7.65622 27.1826 8.14063 26.958 8.62343C26.7308 9.11173 26.6013 9.56421 26.6013 9.9459C26.6013 10.5663 26.5503 11.2126 26.4985 11.8704L26.4985 11.8706C26.4692 12.2421 26.4396 12.6173 26.4188 12.9935C26.3595 14.0635 26.3601 15.2419 26.5945 16.6483C26.6399 16.9207 26.4558 17.1783 26.1835 17.2237C25.9111 17.2691 25.6535 17.0851 25.6081 16.8127C25.3578 15.3114 25.3584 14.0549 25.4203 12.9382C25.4442 12.5062 25.4759 12.1084 25.506 11.7297L25.506 11.7296L25.506 11.7295C25.5557 11.1055 25.6013 10.5334 25.6013 9.9459C25.6013 9.35835 25.7944 8.75374 26.0513 8.20158C26.3108 7.64392 26.652 7.10452 26.9855 6.63821C27.2364 6.2873 27.4867 5.97254 27.7014 5.71629C27.6394 5.60731 27.5748 5.48618 27.5056 5.35658C26.9852 4.38181 26.2092 2.92824 24.419 2.56564C21.3142 1.9368 18.1626 2.05662 16.2879 3.30159C14.7881 4.29756 13.3741 6.79117 12.8546 7.91348C12.8405 7.91268 12.8262 7.91188 12.8117 7.9111C12.7141 8.13238 12.5884 8.43634 12.4659 8.77418C12.2392 9.39974 12.0628 10.0381 12.0628 10.4305C12.0628 11.2482 12.1217 12.4263 12.2714 13.5813C12.4232 14.7513 12.6611 15.8373 12.9932 16.5089C13.1156 16.7564 13.0142 17.0563 12.7666 17.1787C12.5191 17.3011 12.2192 17.1996 12.0968 16.9521C11.6867 16.1227 11.4336 14.8959 11.2798 13.7099C11.124 12.5087 11.0628 11.2874 11.0628 10.4305C11.0628 9.84378 11.3001 9.05617 11.5258 8.43345C11.5952 8.24197 11.6671 8.05648 11.7365 7.8861Z" fill="#898989"/>
<path fill-rule="evenodd" clip-rule="evenodd" d="M11.7365 7.8861C10.3896 7.89098 8.63319 8.02617 7.87511 8.5296C6.6253 9.35958 4.301 15.3875 4.99998 16.179C5.21307 16.4202 5.69102 17.3191 6.29481 18.4546C7.67169 21.0439 9.70298 24.864 10.7401 24.9235C11.9335 24.9919 13.0964 23.9566 13.5287 23.4303C13.6781 23.6252 13.8278 23.8426 13.9767 24.0781C13.9593 23.9688 13.9779 23.8531 14.0375 23.7498C14.1756 23.5106 14.4814 23.4287 14.7205 23.5668C14.8681 23.652 15.07 23.8063 15.276 23.9637L15.276 23.9638L15.3699 24.0354C15.6258 24.2302 15.9237 24.4529 16.2527 24.6646C16.9249 25.0972 17.6587 25.4382 18.3474 25.4382C20.72 25.4382 23.4264 24.9613 25.3379 24.0345C26.2948 23.5705 27.0057 23.0164 27.3981 22.3989C27.7744 21.8067 27.8808 21.1232 27.5716 20.2984C27.4746 20.0399 27.6056 19.7516 27.8642 19.6547C28.1227 19.5577 28.4109 19.6887 28.5079 19.9473C28.9255 21.061 28.7896 22.0736 28.2421 22.9352C27.7107 23.7716 26.8163 24.429 25.7742 24.9343C23.6877 25.9459 20.821 26.4382 18.3474 26.4382C17.3617 26.4382 16.4251 25.9648 15.7115 25.5056C15.3477 25.2714 15.0239 25.0288 14.7642 24.8311L14.6741 24.7624C14.449 24.5909 14.3076 24.483 14.2205 24.4328C14.2048 24.4237 14.1897 24.4139 14.1753 24.4034C15.6407 26.8836 16.997 30.9324 17.3877 32.1456C17.4164 32.2659 17.4536 32.3841 17.5 32.5C17.8744 33.2488 18.1684 33.8968 18.4305 34.4744L18.4305 34.4744C19.5684 36.9822 20.1038 38.1623 24 40.5C26.5 42 26.5306 44.7593 26 47.1823L46.5705 47.1823C47.4624 43.3054 48.9162 25.8593 46.5705 20.9953C45.3944 18.5567 43.7177 15.2461 42.7718 13.8153C42.1074 15.1227 41.7559 16.5356 41.4295 17.9345L41.3649 18.2123C40.9735 19.8992 40.5771 21.6073 39.5763 22.8583C38.985 23.5974 38.0309 23.9949 37.0341 24.2085C36.0249 24.4248 34.8899 24.4698 33.8404 24.439C32.7871 24.408 31.799 24.2998 31.0758 24.1997C30.7136 24.1497 30.4165 24.1014 30.2091 24.0656C30.1054 24.0477 30.0241 24.0328 29.9683 24.0223L29.904 24.0101L29.8868 24.0068L29.8822 24.0058L29.8808 24.0056L29.8804 24.0055C29.8802 24.0055 29.8801 24.0054 29.9782 23.5152L29.8801 24.0054C29.6093 23.9513 29.4337 23.6879 29.4879 23.4171C29.542 23.1463 29.8055 22.9707 30.0762 23.0249L30.0768 23.025L30.0801 23.0256L30.0942 23.0284L30.1523 23.0394C30.2039 23.0491 30.2806 23.0631 30.3795 23.0802C30.5773 23.1144 30.8632 23.1608 31.2128 23.2092C31.9131 23.306 32.8634 23.4098 33.8698 23.4394C34.8799 23.4691 35.9257 23.4233 36.8246 23.2307C37.7359 23.0354 38.4175 22.7059 38.7954 22.2336C39.65 21.1653 39.9995 19.6653 40.4146 17.8837L40.4557 17.7073C40.8451 16.0381 41.3013 14.1834 42.3684 12.5049C41.5439 9.62007 39.7363 6.06499 37.5838 5.12381C35.097 4.03645 30.5561 4.89202 28.9607 5.79979C28.9537 5.80725 28.9463 5.81518 28.9385 5.82357C28.8711 5.89616 28.7738 6.00293 28.6567 6.13742C28.422 6.40694 28.1099 6.78493 27.7989 7.21987C27.4869 7.65622 27.1826 8.14063 26.958 8.62343C26.7308 9.11173 26.6013 9.56421 26.6013 9.9459C26.6013 10.5663 26.5503 11.2126 26.4985 11.8704L26.4985 11.8706C26.4692 12.2421 26.4396 12.6173 26.4188 12.9935C26.3595 14.0635 26.3601 15.2419 26.5945 16.6483C26.6399 16.9207 26.4558 17.1783 26.1835 17.2237C25.9111 17.2691 25.6535 17.0851 25.6081 16.8127C25.3578 15.3114 25.3584 14.0549 25.4203 12.9382C25.4442 12.5062 25.4759 12.1084 25.506 11.7297L25.506 11.7296L25.506 11.7295C25.5557 11.1055 25.6013 10.5334 25.6013 9.9459C25.6013 9.35835 25.7944 8.75374 26.0513 8.20158C26.3108 7.64392 26.652 7.10452 26.9855 6.63821C27.2364 6.2873 27.4867 5.97254 27.7014 5.71629C27.6394 5.60731 27.5748 5.48618 27.5056 5.35658C26.9852 4.38181 26.2092 2.92824 24.419 2.56564C21.3142 1.9368 18.1626 2.05662 16.2879 3.30159C14.7881 4.29756 13.3741 6.79117 12.8546 7.91348C12.8405 7.91268 12.8262 7.91188 12.8117 7.9111C12.7141 8.13238 12.5884 8.43634 12.4659 8.77418C12.2392 9.39974 12.0628 10.0381 12.0628 10.4305C12.0628 11.2482 12.1217 12.4263 12.2714 13.5813C12.4232 14.7513 12.6611 15.8373 12.9932 16.5089C13.1156 16.7564 13.0142 17.0563 12.7666 17.1787C12.5191 17.3011 12.2192 17.1996 12.0968 16.9521C11.6867 16.1227 11.4336 14.8959 11.2798 13.7099C11.124 12.5087 11.0628 11.2874 11.0628 10.4305C11.0628 9.84378 11.3001 9.05617 11.5258 8.43345C11.5952 8.24197 11.6671 8.05648 11.7365 7.8861Z" fill="white" fill-opacity="0.4"/>
<path d="M21.2603 15.5695C20.6106 14.5751 19.371 12.3674 18.771 11.8542C17.7566 11.565 14.8662 12.8556 14.8662 12.8556C14.298 13.7078 13.1488 17.5875 13.5 22C13.9857 28.1026 19.6006 32.4142 20.6506 31.7764C21.7006 31.1386 19.9859 29.774 20.0189 26.8165C20.0387 25.0371 20.7514 23.0934 21.24 22.484C21.631 21.9965 24.2457 19.2215 24.1825 18.7255C24.0878 17.9816 21.9101 16.5639 21.2603 15.5695Z" fill="#CE4317"/>
<path d="M21.2603 15.5695C20.6106 14.5751 19.371 12.3674 18.771 11.8542C17.7566 11.565 14.8662 12.8556 14.8662 12.8556C14.298 13.7078 13.1488 17.5875 13.5 22C13.9857 28.1026 19.6006 32.4142 20.6506 31.7764C21.7006 31.1386 19.9859 29.774 20.0189 26.8165C20.0387 25.0371 20.7514 23.0934 21.24 22.484C21.631 21.9965 24.2457 19.2215 24.1825 18.7255C24.0878 17.9816 21.9101 16.5639 21.2603 15.5695Z" fill="black" fill-opacity="0.3"/>
<path d="M31.6648 13.2124C31.1263 13.1399 28.7248 13.8094 27.9399 14.5416C27.3308 15.6733 25.5814 18.7482 27 24.5C28.1614 29.2092 31.478 32.1279 32.4065 31.9394C32.9187 31.8353 32.8915 30.3336 32.6331 28.1804C32.3101 25.4889 33.7513 22.2748 34.2191 21.3448C34.6869 20.4147 36.208 19.2954 36.2955 18.6452C36.383 17.9949 34.545 16.6625 33.9097 16.007C32.9299 14.9963 32.3378 13.303 31.6648 13.2124Z" fill="#CE4317"/>
<path d="M31.6648 13.2124C31.1263 13.1399 28.7248 13.8094 27.9399 14.5416C27.3308 15.6733 25.5814 18.7482 27 24.5C28.1614 29.2092 31.478 32.1279 32.4065 31.9394C32.9187 31.8353 32.8915 30.3336 32.6331 28.1804C32.3101 25.4889 33.7513 22.2748 34.2191 21.3448C34.6869 20.4147 36.208 19.2954 36.2955 18.6452C36.383 17.9949 34.545 16.6625 33.9097 16.007C32.9299 14.9963 32.3378 13.303 31.6648 13.2124Z" fill="black" fill-opacity="0.3"/>
<path d="M6.23212 14.3075C5.02223 14.2375 3.56496 14.7329 3.22744 15.4606C2.52428 16.9765 0.927295 21.5931 3.16186 26.8512C4.50003 30 7.50003 32 8.25006 31.5C9.00008 31 7.48288 27.2658 8.25006 24.969C9.01724 22.6723 11.4647 20.2031 11.5629 19.6383C11.661 19.0734 8.87367 17.269 8.25006 16.685C7.62645 16.101 6.29596 14.7056 6.23212 14.3075Z" fill="#CE4317"/>
<path d="M6.23212 14.3075C5.02223 14.2375 3.56496 14.7329 3.22744 15.4606C2.52428 16.9765 0.927295 21.5931 3.16186 26.8512C4.50003 30 7.50003 32 8.25006 31.5C9.00008 31 7.48288 27.2658 8.25006 24.969C9.01724 22.6723 11.4647 20.2031 11.5629 19.6383C11.661 19.0734 8.87367 17.269 8.25006 16.685C7.62645 16.101 6.29596 14.7056 6.23212 14.3075Z" fill="black" fill-opacity="0.3"/>
</svg>
