<svg width="50" height="50" viewBox="0 0 50 50" fill="none" xmlns="http://www.w3.org/2000/svg">
<path d="M39.5 16C36.5 21.5 33.1394 22.6401 30.6289 24.6037L32.1352 26.6121C32.5097 29.9911 31.7801 31.3734 30.5 34C34.8711 31.3562 35.5 30 38 26.5C39.3099 28.4805 39.564 30.0453 39.5 33C41.7721 29.7614 42.4376 27.5269 43 23C44.9921 23.8811 45.816 25.3089 47 27.5C48.0149 22.6214 47.7734 19.5368 46 15C47.6901 14.986 48.6914 15.5732 50 17C49.62 12.4161 48.4827 10.2724 46 7.00005C46.967 6.39604 48.0604 6.62864 50 7.50002C47.7435 3.97793 45.4861 2.49116 41.5 5.63561e-09C43 6 42.5 10.5 39.5 16Z" fill="#CE4317"/>
<path d="M39.5 16C36.5 21.5 33.1394 22.6401 30.6289 24.6037L32.1352 26.6121C32.5097 29.9911 31.7801 31.3734 30.5 34C34.8711 31.3562 35.5 30 38 26.5C39.3099 28.4805 39.564 30.0453 39.5 33C41.7721 29.7614 42.4376 27.5269 43 23C44.9921 23.8811 45.816 25.3089 47 27.5C48.0149 22.6214 47.7734 19.5368 46 15C47.6901 14.986 48.6914 15.5732 50 17C49.62 12.4161 48.4827 10.2724 46 7.00005C46.967 6.39604 48.0604 6.62864 50 7.50002C47.7435 3.97793 45.4861 2.49116 41.5 5.63561e-09C43 6 42.5 10.5 39.5 16Z" fill="black" fill-opacity="0.15"/>
<path d="M46 10V7C46.6667 7.83333 48.2 10 49 12C49.8 14 50 16.1667 50 17C49.5 15.8333 48.4 13.3 48 12.5C47.6 11.7 46.5 10.3333 46 10Z" fill="#CE4317"/>
<path d="M46 10V7C46.6667 7.83333 48.2 10 49 12C49.8 14 50 16.1667 50 17C49.5 15.8333 48.4 13.3 48 12.5C47.6 11.7 46.5 10.3333 46 10Z" fill="white" fill-opacity="0.8"/>
<path d="M46 3C44.4 1.8 42.3333 0.5 41.5 0L42 2.5C42.8333 2.66667 44.8 3.7 46 4.5C47.2 5.3 49.1667 6.83333 50 7.5C49.3333 6.5 47.6 4.2 46 3Z" fill="#CE4317"/>
<path d="M46 3C44.4 1.8 42.3333 0.5 41.5 0L42 2.5C42.8333 2.66667 44.8 3.7 46 4.5C47.2 5.3 49.1667 6.83333 50 7.5C49.3333 6.5 47.6 4.2 46 3Z" fill="white" fill-opacity="0.8"/>
<path d="M1.59048 50L0.0433975 47.973L30.6289 24.6036L32.1353 26.6121L1.59048 50Z" fill="#898989"/>
<path d="M1.59048 50L0.0433975 47.973L30.6289 24.6036L32.1353 26.6121L1.59048 50Z" fill="black" fill-opacity="0.2"/>
<path d="M38 26.5L36 27.5C35.8333 28 34.8 29.3 34 30.5C33.2 31.7 31.3333 33.3333 30.5 34C31.5 33.5 33.7 32.3 34.5 31.5C35.8438 30.1562 37 28.5 38 26.5Z" fill="#CE4317"/>
<path d="M38 26.5L36 27.5C35.8333 28 34.8 29.3 34 30.5C33.2 31.7 31.3333 33.3333 30.5 34C31.5 33.5 33.7 32.3 34.5 31.5C35.8438 30.1562 37 28.5 38 26.5Z" fill="white" fill-opacity="0.8"/>
<path d="M41.5 24.5L43 23C43 23.6667 42.9 25.4 42.5 27C41.875 29.5 40.3333 31.6667 39.5 33C39.8333 31.8333 40.6 29.2 41 28C41.4 26.8 41.6667 25 41.5 24.5Z" fill="#CE4317"/>
<path d="M41.5 24.5L43 23C43 23.6667 42.9 25.4 42.5 27C41.875 29.5 40.3333 31.6667 39.5 33C39.8333 31.8333 40.6 29.2 41 28C41.4 26.8 41.6667 25 41.5 24.5Z" fill="white" fill-opacity="0.8"/>
<path d="M47.5 20C47.1 18 46.3333 15.8333 46 15L45.5 17.5C45.6667 17.6667 46 19.5 46.5 21C47 22.5 47 25.5 47 27.5C47.3333 25.8333 47.9 22 47.5 20Z" fill="#CE4317"/>
<path d="M47.5 20C47.1 18 46.3333 15.8333 46 15L45.5 17.5C45.6667 17.6667 46 19.5 46.5 21C47 22.5 47 25.5 47 27.5C47.3333 25.8333 47.9 22 47.5 20Z" fill="white" fill-opacity="0.8"/>
</svg>
