<svg width="50" height="50" viewBox="0 0 50 50" fill="none" xmlns="http://www.w3.org/2000/svg">
<path d="M34.3584 15.8616L2.32746 47.8925" stroke="#FAA21E" stroke-width="2"/>
<path d="M40.3943 17.2547C43.3884 14.2606 45.655 7.04157 46.8929 3.32784C42.5602 4.56575 35.2255 7.56797 32.9668 9.82725C30.1819 12.6129 31.1096 16.3259 32.5022 17.7185C33.8949 19.1112 36.6806 20.9684 40.3943 17.2547Z" fill="#FAA21E"/>
<path d="M40.3943 17.2547C43.3884 14.2606 45.655 7.04157 46.8929 3.32784C42.5602 4.56575 35.2255 7.56797 32.9668 9.82725C30.1819 12.6129 31.1096 16.3259 32.5022 17.7185C33.8949 19.1112 36.6806 20.9684 40.3943 17.2547Z" fill="white" fill-opacity="0.4"/>
<path d="M40.3943 17.2547C43.3884 14.2606 45.655 7.04157 46.8929 3.32784C42.5602 4.56575 35.2255 7.56797 32.9668 9.82725C30.1819 12.6129 31.1096 16.3259 32.5022 17.7185C33.8949 19.1112 36.6806 20.9684 40.3943 17.2547Z" stroke="#FAA21E"/>
<path d="M28.7555 18.672C28.6235 14.4397 24.9142 7.8448 23.0552 4.39975C20.9908 8.40506 18.1566 15.8064 18.2566 18.9995C18.38 22.9365 21.7212 24.8028 23.6897 24.7414C25.6583 24.68 28.9193 23.9214 28.7555 18.672Z" fill="#FAA21E"/>
<path d="M28.7555 18.672C28.6235 14.4397 24.9142 7.8448 23.0552 4.39975C20.9908 8.40506 18.1566 15.8064 18.2566 18.9995C18.38 22.9365 21.7212 24.8028 23.6897 24.7414C25.6583 24.68 28.9193 23.9214 28.7555 18.672Z" fill="white" fill-opacity="0.4"/>
<path d="M28.7555 18.672C28.6235 14.4397 24.9142 7.8448 23.0552 4.39975C20.9908 8.40506 18.1566 15.8064 18.2566 18.9995C18.38 22.9365 21.7212 24.8028 23.6897 24.7414C25.6583 24.68 28.9193 23.9214 28.7555 18.672Z" stroke="#FAA21E"/>
<path d="M16.6863 30.742C16.5543 26.5098 12.845 19.9149 10.9861 16.4698C8.92159 20.4751 6.0874 27.8764 6.18744 31.0695C6.3108 35.0066 9.65202 36.8728 11.6206 36.8114C13.5891 36.75 16.8501 35.9915 16.6863 30.742Z" fill="#FAA21E"/>
<path d="M16.6863 30.742C16.5543 26.5098 12.845 19.9149 10.9861 16.4698C8.92159 20.4751 6.0874 27.8764 6.18744 31.0695C6.3108 35.0066 9.65202 36.8728 11.6206 36.8114C13.5891 36.75 16.8501 35.9915 16.6863 30.742Z" fill="white" fill-opacity="0.4"/>
<path d="M16.6863 30.742C16.5543 26.5098 12.845 19.9149 10.9861 16.4698C8.92159 20.4751 6.0874 27.8764 6.18744 31.0695C6.3108 35.0066 9.65202 36.8728 11.6206 36.8114C13.5891 36.75 16.8501 35.9915 16.6863 30.742Z" stroke="#FAA21E"/>
<path d="M31.1929 21.2761C35.4036 21.3377 41.9071 24.9212 45.3057 26.7148C41.2847 28.8359 33.8706 31.7792 30.6937 31.7323C26.7767 31.6745 24.9742 28.3793 25.0678 26.4188C25.1614 24.4582 25.9702 21.1997 31.1929 21.2761Z" fill="#FAA21E"/>
<path d="M31.1929 21.2761C35.4036 21.3377 41.9071 24.9212 45.3057 26.7148C41.2847 28.8359 33.8706 31.7792 30.6937 31.7323C26.7767 31.6745 24.9742 28.3793 25.0678 26.4188C25.1614 24.4582 25.9702 21.1997 31.1929 21.2761Z" fill="white" fill-opacity="0.4"/>
<path d="M31.1929 21.2761C35.4036 21.3377 41.9071 24.9212 45.3057 26.7148C41.2847 28.8359 33.8706 31.7792 30.6937 31.7323C26.7767 31.6745 24.9742 28.3793 25.0678 26.4188C25.1614 24.4582 25.9702 21.1997 31.1929 21.2761Z" stroke="#FAA21E"/>
<path d="M18.9801 33.4902C23.1908 33.5518 29.6944 37.1353 33.093 38.9289C29.0719 41.05 21.6578 43.9933 18.481 43.9464C14.564 43.8886 12.7614 40.5934 12.855 38.6329C12.9486 36.6723 13.7574 33.4138 18.9801 33.4902Z" fill="#FAA21E"/>
<path d="M18.9801 33.4902C23.1908 33.5518 29.6944 37.1353 33.093 38.9289C29.0719 41.05 21.6578 43.9933 18.481 43.9464C14.564 43.8886 12.7614 40.5934 12.855 38.6329C12.9486 36.6723 13.7574 33.4138 18.9801 33.4902Z" fill="white" fill-opacity="0.4"/>
<path d="M18.9801 33.4902C23.1908 33.5518 29.6944 37.1353 33.093 38.9289C29.0719 41.05 21.6578 43.9933 18.481 43.9464C14.564 43.8886 12.7614 40.5934 12.855 38.6329C12.9486 36.6723 13.7574 33.4138 18.9801 33.4902Z" stroke="#FAA21E"/>
</svg>
