<svg width="50" height="50" viewBox="0 0 50 50" fill="none" xmlns="http://www.w3.org/2000/svg">
<path d="M36.9999 14.8182V18.4546C37.619 17.697 39.1357 15.7273 42.1071 15.7273C45.8214 15.7273 47.2142 19.8182 47.2142 23C47.2142 26.1818 45.3571 30.2728 42.1071 30.2728C39.5071 30.2728 37.4642 28 36.9999 27.5455V31.1818C37.4642 31.1818 38.3928 33 42.1071 33C46.7499 33 49.9999 28.9091 49.9999 23C49.9999 17.0909 46.7499 13 42.1071 13C38.8571 13 37.4642 14.8182 36.9999 14.8182Z" fill="#898989"/>
<path d="M36.9999 14.8182V18.4546C37.619 17.697 39.1357 15.7273 42.1071 15.7273C45.8214 15.7273 47.2142 19.8182 47.2142 23C47.2142 26.1818 45.3571 30.2728 42.1071 30.2728C39.5071 30.2728 37.4642 28 36.9999 27.5455V31.1818C37.4642 31.1818 38.3928 33 42.1071 33C46.7499 33 49.9999 28.9091 49.9999 23C49.9999 17.0909 46.7499 13 42.1071 13C38.8571 13 37.4642 14.8182 36.9999 14.8182Z" fill="white" fill-opacity="0.95"/>
<path d="M4.99994 7.00003H37.9999V43.5C37.9999 43.5 34.9999 48.5 21.5 48.5C7.99997 48.5 4.99994 43.5 4.99994 43.5V7.00003Z" fill="#898989"/>
<path d="M4.99994 7.00003H37.9999V43.5C37.9999 43.5 34.9999 48.5 21.5 48.5C7.99997 48.5 4.99994 43.5 4.99994 43.5V7.00003Z" fill="white" fill-opacity="0.85"/>
<ellipse cx="21.4999" cy="6.50003" rx="16.5" ry="4.5" fill="#FEFEFE"/>
<ellipse cx="21.4999" cy="6.50003" rx="14.5" ry="3.5" fill="#898989"/>
<ellipse cx="21.4999" cy="6.50003" rx="14.5" ry="3.5" fill="white" fill-opacity="0.4"/>
<path d="M32.9999 8.50003C32.9999 8.00003 27.8512 7.00003 21.4999 7.00003C15.1487 7.00003 9.99994 8.00003 9.99994 8.50003C9.99994 9.00003 15.1487 10 21.4999 10C27.8512 10 32.9999 9.00003 32.9999 8.50003Z" fill="#FAA21E"/>
<path d="M32.9999 8.50003C32.9999 8.00003 27.8512 7.00003 21.4999 7.00003C15.1487 7.00003 9.99994 8.00003 9.99994 8.50003C9.99994 9.00003 15.1487 10 21.4999 10C27.8512 10 32.9999 9.00003 32.9999 8.50003Z" fill="black" fill-opacity="0.6"/>
<path d="M10.2269 21.9077L21.4519 15L32.6768 21.9077V33.5644L21.4519 40.9037L10.2269 33.5644V21.9077Z" fill="#546DDB"/>
<path d="M15.1041 23.3108L17.1886 26.8928L19.273 23.3108H21.2225L18.2544 28.1745L21.2967 33.1326H19.327L17.1886 29.4832L15.0502 33.1326H13.0737L16.1228 28.1745L13.1479 23.3108H15.1041Z" fill="#FEFEFE"/>
<path d="M26.2751 29.4697H23.7185V28.1273H26.2751C26.7203 28.1273 27.0801 28.0553 27.3544 27.9114C27.6288 27.7675 27.8289 27.5696 27.9548 27.3178C28.0852 27.0614 28.1504 26.7691 28.1504 26.4408C28.1504 26.1305 28.0852 25.8404 27.9548 25.5706C27.8289 25.2963 27.6288 25.0759 27.3544 24.9095C27.0801 24.7431 26.7203 24.6599 26.2751 24.6599H24.2379V33.1326H22.5447V23.3108H26.2751C27.0351 23.3108 27.6805 23.4457 28.2111 23.7155C28.7463 23.9809 29.1533 24.3496 29.4321 24.8218C29.711 25.2895 29.8504 25.8247 29.8504 26.4273C29.8504 27.0614 29.711 27.6056 29.4321 28.0598C29.1533 28.514 28.7463 28.8625 28.2111 29.1054C27.6805 29.3482 27.0351 29.4697 26.2751 29.4697Z" fill="#FEFEFE"/>
</svg>
