<svg width="50" height="50" viewBox="0 0 50 50" fill="none" xmlns="http://www.w3.org/2000/svg">
<g clip-path="url(#clip0_2644_11927)">
<path d="M39.7367 5.32922C38.1358 2.13648 33.5229 -0.223472 21.0952 1.62743C16.2623 2.61458 6.45826 5.47733 5.90592 9.03105C5.2155 13.4732 15.1493 7.54097 16.1274 11.6223C17.1056 15.7036 1.4552 19.3326 3.14423 24.2084C4.42935 27.9182 15.5718 27.1698 20.4048 27.9102L20.4792 27.9216C25.2822 28.6573 29.5832 29.3162 32.142 30.5015C36.6686 32.5982 35.2014 26.2111 32.142 24.2084C29.6192 22.557 25.4199 21.298 24.4417 17.8588C23.4636 14.4196 28.6899 13.8434 33.5229 11.6223C38.3558 9.40123 40.6453 7.14131 39.7367 5.32922Z" stroke="#898989" stroke-width="2" stroke-linecap="round"/>
<path d="M39.7367 5.32922C38.1358 2.13648 33.5229 -0.223472 21.0952 1.62743C16.2623 2.61458 6.45826 5.47733 5.90592 9.03105C5.2155 13.4732 15.1493 7.54097 16.1274 11.6223C17.1056 15.7036 1.4552 19.3326 3.14423 24.2084C4.42935 27.9182 15.5718 27.1698 20.4048 27.9102L20.4792 27.9216C25.2822 28.6573 29.5832 29.3162 32.142 30.5015C36.6686 32.5982 35.2014 26.2111 32.142 24.2084C29.6192 22.557 25.4199 21.298 24.4417 17.8588C23.4636 14.4196 28.6899 13.8434 33.5229 11.6223C38.3558 9.40123 40.6453 7.14131 39.7367 5.32922Z" stroke="white" stroke-opacity="0.6" stroke-width="2" stroke-linecap="round"/>
<path d="M33.2727 37.9847L40.2274 36.1212L34.5759 28.9392L33.2727 37.9847Z" fill="#7445B8"/>
<path d="M40.2273 36.1211L46.0645 37.0417L34.5759 28.9391L40.2273 36.1211Z" fill="#7445B8"/>
<path d="M40.2273 36.1211L46.0645 37.0417L34.5759 28.9391L40.2273 36.1211Z" fill="white" fill-opacity="0.6"/>
<path d="M33.2727 37.9846L28.6779 41.7004L34.5759 28.9391L33.2727 37.9846Z" fill="#7445B8"/>
<path d="M33.2727 37.9846L28.6779 41.7004L34.5759 28.9391L33.2727 37.9846Z" fill="white" fill-opacity="0.2"/>
<path d="M46.0645 37.0418L40.1664 49.8031L40.2273 36.1212L46.0645 37.0418Z" fill="#7445B8"/>
<path d="M28.6778 41.7006L40.1664 49.8032L33.2727 37.9847L28.6778 41.7006Z" fill="#7445B8"/>
<path d="M28.6778 41.7006L40.1664 49.8032L33.2727 37.9847L28.6778 41.7006Z" fill="white" fill-opacity="0.4"/>
<path d="M33.2727 37.9847L40.2273 36.1212L40.1664 49.8032L33.2727 37.9847Z" fill="#7445B8"/>
<path d="M33.2727 37.9847L40.2273 36.1212L40.1664 49.8032L33.2727 37.9847Z" fill="white" fill-opacity="0.2"/>
<path d="M28.6779 41.7006L34.5759 28.9392C34.0172 30.3312 30.153 39.0923 30.2404 39.4183C30.318 39.7081 31.6116 38.7403 33.2727 37.9848L28.6779 41.7006Z" fill="#7445B8"/>
<path d="M28.6779 41.7006L34.5759 28.9392C34.0172 30.3312 30.153 39.0923 30.2404 39.4183C30.318 39.7081 31.6116 38.7403 33.2727 37.9848L28.6779 41.7006Z" fill="white" fill-opacity="0.95"/>
</g>
<defs>
<clipPath id="clip0_2644_11927">
<rect width="50" height="50" fill="white"/>
</clipPath>
</defs>
</svg>
