<svg width="50" height="50" viewBox="0 0 50 50" fill="none" xmlns="http://www.w3.org/2000/svg">
<circle cx="25.0667" cy="25.0665" r="22.4167" stroke="#1D8CE0" stroke-width="0.996296"/>
<circle cx="25.0667" cy="25.0665" r="22.4167" stroke="white" stroke-opacity="0.95" stroke-width="0.996296"/>
<path d="M37.5 37.5001C43 33.0454 45 21.5 38.5745 13.0016C39.2992 19.1626 37.6992 26.8689 32.5142 32.0453C27.3291 37.2217 15.4045 38.4225 11 37.5001C22.5965 45.5482 31.1158 42.671 37.5 37.5001Z" fill="#FEFEFE" fill-opacity="0.15"/>
<path d="M30.7459 32.2873C31.3456 32.0594 32.5352 29.6249 32.7474 29.2912L32.166 29.288C32.166 29.288 30.7562 32.0424 29.2638 31.8614C27.7714 31.6803 28.3749 27.25 28.3749 27.25L27.7035 27.25C27.7035 27.25 27.8471 31.7428 27.7035 32.125C27.5598 32.5072 25.7499 33.25 24.9999 33.25C24.4932 33.25 23.4999 32.5 23.4999 32.5L25.3749 27.7896L24.6249 27.7896C24.6249 27.7896 22.8068 31.9586 22.3749 31.8614C21.943 31.7641 20.6409 28.195 20.6409 28.195L19.6344 28.3802C19.6344 28.3802 21.8008 31.9058 21.2499 32.125C21.0125 32.2195 19.3749 31.6281 19.3749 31.6281L17.8749 30.3232L17.1249 30.3232C17.1249 30.3232 18.5641 31.9514 19.1406 32.2873C19.7171 32.6231 22.0305 33.3643 22.3749 33.625C23.036 34.1253 23.1249 34.375 23.0387 35.6909C22.9471 37.0888 22.948 37.6235 22.7736 38.4796L22.3749 40L27.2499 40C27.2499 40 26.5647 38.8343 26.5323 37.7296C26.4999 36.625 26.1036 35.7776 26.8986 34.3546C27.3009 33.6345 29.2167 32.8683 30.7459 32.2873Z" fill="#FAA21E"/>
<path d="M30.7459 32.2873C31.3456 32.0594 32.5352 29.6249 32.7474 29.2912L32.166 29.288C32.166 29.288 30.7562 32.0424 29.2638 31.8614C27.7714 31.6803 28.3749 27.25 28.3749 27.25L27.7035 27.25C27.7035 27.25 27.8471 31.7428 27.7035 32.125C27.5598 32.5072 25.7499 33.25 24.9999 33.25C24.4932 33.25 23.4999 32.5 23.4999 32.5L25.3749 27.7896L24.6249 27.7896C24.6249 27.7896 22.8068 31.9586 22.3749 31.8614C21.943 31.7641 20.6409 28.195 20.6409 28.195L19.6344 28.3802C19.6344 28.3802 21.8008 31.9058 21.2499 32.125C21.0125 32.2195 19.3749 31.6281 19.3749 31.6281L17.8749 30.3232L17.1249 30.3232C17.1249 30.3232 18.5641 31.9514 19.1406 32.2873C19.7171 32.6231 22.0305 33.3643 22.3749 33.625C23.036 34.1253 23.1249 34.375 23.0387 35.6909C22.9471 37.0888 22.948 37.6235 22.7736 38.4796L22.3749 40L27.2499 40C27.2499 40 26.5647 38.8343 26.5323 37.7296C26.4999 36.625 26.1036 35.7776 26.8986 34.3546C27.3009 33.6345 29.2167 32.8683 30.7459 32.2873Z" fill="black" fill-opacity="0.4"/>
<circle cx="18.25" cy="23.5" r="8.25" fill="#2FC4A7"/>
<circle cx="18.25" cy="23.5" r="8.25" fill="black" fill-opacity="0.4"/>
<circle cx="33.25" cy="25.75" r="6.75" fill="#2FC4A7"/>
<circle cx="33.25" cy="25.75" r="6.75" fill="black" fill-opacity="0.4"/>
<circle cx="26.5" cy="19.75" r="9.75" fill="#2FC4A7"/>
<circle cx="26.5" cy="19.75" r="9.75" fill="black" fill-opacity="0.2"/>
<path d="M14.6055 9.12572C11.7649 11.6271 10.6203 15.1035 10.6203 18.0924C11.106 16.033 14.2018 11.8587 17.0962 10.122C19.5595 8.64405 21.5796 7.13312 25.0666 6.63497C21.5796 6.13682 17.4461 6.62428 14.6055 9.12572Z" fill="#FEFEFE"/>
<path d="M34.5 40C37.5 38.5 40.5 35.5 42 30C40 34 37.0518 37.1895 34 39C30.9482 40.8105 27 42.5 21 42C27.5 43.5 30.6529 41.9235 34.5 40Z" fill="#FEFEFE"/>
</svg>
