<svg width="50" height="50" viewBox="0 0 50 50" fill="none" xmlns="http://www.w3.org/2000/svg">
<path d="M22.9148 44.3352C17.4664 44.3352 13.9481 42.3426 13.45 41.3463C12.9518 40.35 12.9518 36.7936 12.9518 36.7936H32.8778C32.8778 38.9191 33.0013 40.3459 32.3796 41.3463C31.389 42.9404 27.8679 44.3352 22.9148 44.3352Z" fill="#898989"/>
<path d="M22.9148 44.3352C17.4664 44.3352 13.9481 42.3426 13.45 41.3463C12.9518 40.35 12.9518 36.7936 12.9518 36.7936H32.8778C32.8778 38.9191 33.0013 40.3459 32.3796 41.3463C31.389 42.9404 27.8679 44.3352 22.9148 44.3352Z" fill="white" fill-opacity="0.6"/>
<path d="M40.2341 22.1313C39.4248 22.0953 38.2497 21.1691 38.732 19.4428C39.2142 17.7164 41.2956 16.4981 43.7233 16.6062C46.1511 16.7142 47.3068 18.0764 48.4819 19.0026C48.4431 19.8748 48.6925 23.3816 46.5335 26.3442C44.3746 29.3068 41.9827 30.4779 39.422 31.2712C37.7776 31.7807 37.3212 32.9256 37.2824 33.7978C37.2436 34.6699 38.0141 35.5781 38.8233 35.6141" stroke="#FEFEFE" stroke-width="2.49074" stroke-linecap="round"/>
<path d="M41.8444 11.0499H3.98517C5.60926 14.8394 6.69198 15.3808 7.7747 19.7117C8.31607 21.8771 7.77471 28.7639 8.85743 32.5535C10.2286 37.3525 13.0428 39.863 15.8951 41.2153C18.7355 42.5618 26.6024 42.5618 29.9706 41.2153C32.9017 40.0434 35.6795 37.4257 37.0083 32.5535C38.5424 26.9283 37.4452 22.9407 38.091 19.7117C38.6324 17.0049 39.679 15.3808 41.8444 11.0499Z" fill="#898989"/>
<path d="M41.8444 11.0499H3.98517C5.60926 14.8394 6.69198 15.3808 7.7747 19.7117C8.31607 21.8771 7.77471 28.7639 8.85743 32.5535C10.2286 37.3525 13.0428 39.863 15.8951 41.2153C18.7355 42.5618 26.6024 42.5618 29.9706 41.2153C32.9017 40.0434 35.6795 37.4257 37.0083 32.5535C38.5424 26.9283 37.4452 22.9407 38.091 19.7117C38.6324 17.0049 39.679 15.3808 41.8444 11.0499Z" fill="white" fill-opacity="0.95"/>
<path d="M41.8444 10.8454C41.8444 13.5337 33.5969 15.802 23.1424 15.802C12.6878 15.802 3.98517 13.5337 3.98517 10.8454C3.98517 8.15709 12.6878 5.97778 23.1424 5.97778C33.5969 5.97778 41.8444 8.15709 41.8444 10.8454Z" fill="#898989"/>
<path d="M41.8444 10.8454C41.8444 13.5337 33.5969 15.802 23.1424 15.802C12.6878 15.802 3.98517 13.5337 3.98517 10.8454C3.98517 8.15709 12.6878 5.97778 23.1424 5.97778C33.5969 5.97778 41.8444 8.15709 41.8444 10.8454Z" fill="white" fill-opacity="0.6"/>
<path d="M41.8444 10.8454C41.8444 13.5337 33.5969 15.802 23.1424 15.802C12.6878 15.802 3.98517 13.5337 3.98517 10.8454C3.98517 8.15709 12.6878 5.97778 23.1424 5.97778C33.5969 5.97778 41.8444 8.15709 41.8444 10.8454Z" stroke="#FEFEFE" stroke-width="1.49444"/>
<path d="M37 13.4304C37 13.0805 29.3513 11.9305 23 11.9305C16.6487 11.9305 9 13.0805 9 13.4304C9 13.7804 15 15.2305 23 15.2305C32 15.2305 37 13.7804 37 13.4304Z" fill="#FAA21E"/>
<path d="M37 13.4304C37 13.0805 29.3513 11.9305 23 11.9305C16.6487 11.9305 9 13.0805 9 13.4304C9 13.7804 15 15.2305 23 15.2305C32 15.2305 37 13.7804 37 13.4304Z" fill="white" fill-opacity="0.4"/>
<path d="M26.8306 33.8582C27.2304 33.7063 28.0235 32.0833 28.1649 31.8608L27.7773 31.8587C27.7773 31.8587 26.8375 33.6949 25.8426 33.5742C24.8476 33.4535 25.25 30.5 25.25 30.5L24.8023 30.5C24.8023 30.5 24.8981 33.4952 24.8023 33.75C24.7066 34.0048 23.5 34.5 23 34.5C22.6622 34.5 22 34 22 34L23.25 30.8597L22.75 30.8597C22.75 30.8597 21.5379 33.6391 21.25 33.5742C20.962 33.5094 20.094 31.13 20.094 31.13L19.423 31.2535C19.423 31.2535 20.8672 33.6039 20.5 33.75C20.3417 33.813 19.25 33.4187 19.25 33.4187L18.25 32.5488L17.75 32.5488C17.75 32.5488 18.7094 33.6343 19.0937 33.8582C19.4781 34.0821 21.0203 34.5762 21.25 34.75C21.6907 35.0835 21.75 35.25 21.6925 36.1273C21.6314 37.0592 21.632 37.4157 21.5157 37.9864L21.25 39L24.5 39C24.5 39 24.0431 38.2228 24.0216 37.4864C24 36.75 23.7358 36.1851 24.2657 35.2364C24.5339 34.7563 25.8111 34.2456 26.8306 33.8582Z" fill="#FAA21E"/>
<path d="M26.8306 33.8582C27.2304 33.7063 28.0235 32.0833 28.1649 31.8608L27.7773 31.8587C27.7773 31.8587 26.8375 33.6949 25.8426 33.5742C24.8476 33.4535 25.25 30.5 25.25 30.5L24.8023 30.5C24.8023 30.5 24.8981 33.4952 24.8023 33.75C24.7066 34.0048 23.5 34.5 23 34.5C22.6622 34.5 22 34 22 34L23.25 30.8597L22.75 30.8597C22.75 30.8597 21.5379 33.6391 21.25 33.5742C20.962 33.5094 20.094 31.13 20.094 31.13L19.423 31.2535C19.423 31.2535 20.8672 33.6039 20.5 33.75C20.3417 33.813 19.25 33.4187 19.25 33.4187L18.25 32.5488L17.75 32.5488C17.75 32.5488 18.7094 33.6343 19.0937 33.8582C19.4781 34.0821 21.0203 34.5762 21.25 34.75C21.6907 35.0835 21.75 35.25 21.6925 36.1273C21.6314 37.0592 21.632 37.4157 21.5157 37.9864L21.25 39L24.5 39C24.5 39 24.0431 38.2228 24.0216 37.4864C24 36.75 23.7358 36.1851 24.2657 35.2364C24.5339 34.7563 25.8111 34.2456 26.8306 33.8582Z" fill="black" fill-opacity="0.4"/>
<circle cx="18.5" cy="28" r="5.5" fill="#2FC4A7"/>
<circle cx="18.5" cy="28" r="5.5" fill="black" fill-opacity="0.4"/>
<circle cx="28.5" cy="29.5" r="4.5" fill="#2FC4A7"/>
<circle cx="28.5" cy="29.5" r="4.5" fill="black" fill-opacity="0.4"/>
<circle cx="24" cy="25.5" r="6.5" fill="#2FC4A7"/>
<circle cx="24" cy="25.5" r="6.5" fill="black" fill-opacity="0.2"/>
</svg>
