<svg width="51" height="50" viewBox="0 0 51 50" fill="none" xmlns="http://www.w3.org/2000/svg">
<path d="M43.4344 2.85779L4.85775 41.4345" stroke="#FAA21E" stroke-linecap="round"/>
<path d="M43.4344 2.85779L4.85775 41.4345" stroke="black" stroke-opacity="0.1" stroke-linecap="round"/>
<path d="M36.5001 25.0001C34.7828 25.2117 30.0432 25.9571 28.5001 27.5001C26.9571 29.0432 26.2117 33.2828 26.0001 35.0001" stroke="#FAA21E" stroke-width="2.72778" stroke-linecap="round"/>
<path d="M36.5001 25.0001C34.7828 25.2117 30.0432 25.9571 28.5001 27.5001C26.9571 29.0432 26.2117 33.2828 26.0001 35.0001" stroke="black" stroke-opacity="0.6" stroke-width="2.72778" stroke-linecap="round"/>
<path d="M47.4822 3.37558C46.6848 2.5782 45.2135 4.00012 46.0356 4.82221C46.8577 5.6443 48.3332 5.66697 49 5.00012C49.6668 4.33327 49.8933 2.89337 48.9288 1.92896C47.9644 0.964539 46.4049 0.595199 45.0712 1.9289C43.7375 3.2626 41.8879 6.646 41.2135 11.5731C40.5391 16.5003 41.8748 20.5414 39.2775 23.1388C36.7399 25.6763 32.2567 27.2809 30.1228 29.4148C27.9888 31.5487 26.863 35.5532 24.329 38.0872C21.795 40.6213 16.6209 40.0234 12.281 40.5056C7.07312 41.0843 4.37061 42.6295 2.6368 44.3633C0.902993 46.0971 2.10521 47.6894 2.6368 48.221C3.16839 48.7526 4.72984 49.0212 5.53005 48.221C6.49447 47.2566 6.49447 46.2922 5.53005 45.3277C4.56564 44.3633 3.11901 45.8099 4.08343 46.7744" stroke="#FAA21E" stroke-linecap="round"/>
<path d="M47.4822 3.37558C46.6848 2.5782 45.2135 4.00012 46.0356 4.82221C46.8577 5.6443 48.3332 5.66697 49 5.00012C49.6668 4.33327 49.8933 2.89337 48.9288 1.92896C47.9644 0.964539 46.4049 0.595199 45.0712 1.9289C43.7375 3.2626 41.8879 6.646 41.2135 11.5731C40.5391 16.5003 41.8748 20.5414 39.2775 23.1388C36.7399 25.6763 32.2567 27.2809 30.1228 29.4148C27.9888 31.5487 26.863 35.5532 24.329 38.0872C21.795 40.6213 16.6209 40.0234 12.281 40.5056C7.07312 41.0843 4.37061 42.6295 2.6368 44.3633C0.902993 46.0971 2.10521 47.6894 2.6368 48.221C3.16839 48.7526 4.72984 49.0212 5.53005 48.221C6.49447 47.2566 6.49447 46.2922 5.53005 45.3277C4.56564 44.3633 3.11901 45.8099 4.08343 46.7744" stroke="black" stroke-opacity="0.1" stroke-linecap="round"/>
<path d="M44.6001 2.00012C43.2664 3.33382 41.4168 6.71723 40.7424 11.6444C40.068 16.5715 41.4036 20.6127 38.8063 23.21C36.2688 25.7475 31.7855 27.3521 29.6516 29.486C27.5177 31.6199 26.3919 35.6244 23.8579 38.1585C21.3238 40.6925 16.1497 40.0947 11.8099 40.5769C6.602 41.1555 3.89949 42.7007 2.16568 44.4345" stroke="#FAA21E" stroke-width="3" stroke-linecap="round"/>
<path d="M44.6001 2.00012C43.2664 3.33382 41.4168 6.71723 40.7424 11.6444C40.068 16.5715 41.4036 20.6127 38.8063 23.21C36.2688 25.7475 31.7855 27.3521 29.6516 29.486C27.5177 31.6199 26.3919 35.6244 23.8579 38.1585C21.3238 40.6925 16.1497 40.0947 11.8099 40.5769C6.602 41.1555 3.89949 42.7007 2.16568 44.4345" stroke="black" stroke-opacity="0.6" stroke-width="3" stroke-linecap="round"/>
</svg>
