<svg width="40" height="40" viewBox="0 0 40 40" fill="none" xmlns="http://www.w3.org/2000/svg">
<path d="M27.6613 29.7163C28.4609 29.4125 30.047 26.1665 30.3299 25.7217L29.5547 25.7174C29.5547 25.7174 27.675 29.3899 25.6851 29.1485C23.6952 28.9071 24.5 23 24.5 23L23.6047 23C23.6047 23 23.7962 28.9904 23.6047 29.5C23.4132 30.0096 21 31 20 31C19.3243 31 18 30 18 30L20.5 23.7195L19.5 23.7195C19.5 23.7195 17.0758 29.2782 16.5 29.1485C15.9241 29.0187 14.1879 24.26 14.1879 24.26L12.8459 24.507C12.8459 24.507 15.7344 29.2077 15 29.5C14.6834 29.626 12.5 28.8375 12.5 28.8375L10.5 27.0977L9.49997 27.0977C9.49997 27.0977 11.4188 29.2686 12.1875 29.7163C12.9561 30.1641 16.0407 31.1524 16.5 31.5C17.3814 32.167 17.5 32.5 17.385 34.2546C17.2628 36.1184 17.2641 36.8314 17.0315 37.9728L16.5 40L23 40C23 40 22.0863 38.4457 22.0431 36.9728C22 35.5 21.4716 34.3701 22.5315 32.4728C23.0679 31.5126 25.6223 30.4911 27.6613 29.7163Z" fill="#FAA21E"/>
<path d="M27.6613 29.7163C28.4609 29.4125 30.047 26.1665 30.3299 25.7217L29.5547 25.7174C29.5547 25.7174 27.675 29.3899 25.6851 29.1485C23.6952 28.9071 24.5 23 24.5 23L23.6047 23C23.6047 23 23.7962 28.9904 23.6047 29.5C23.4132 30.0096 21 31 20 31C19.3243 31 18 30 18 30L20.5 23.7195L19.5 23.7195C19.5 23.7195 17.0758 29.2782 16.5 29.1485C15.9241 29.0187 14.1879 24.26 14.1879 24.26L12.8459 24.507C12.8459 24.507 15.7344 29.2077 15 29.5C14.6834 29.626 12.5 28.8375 12.5 28.8375L10.5 27.0977L9.49997 27.0977C9.49997 27.0977 11.4188 29.2686 12.1875 29.7163C12.9561 30.1641 16.0407 31.1524 16.5 31.5C17.3814 32.167 17.5 32.5 17.385 34.2546C17.2628 36.1184 17.2641 36.8314 17.0315 37.9728L16.5 40L23 40C23 40 22.0863 38.4457 22.0431 36.9728C22 35.5 21.4716 34.3701 22.5315 32.4728C23.0679 31.5126 25.6223 30.4911 27.6613 29.7163Z" fill="black" fill-opacity="0.4"/>
<circle cx="11" cy="18" r="11" fill="#2FC4A7"/>
<circle cx="11" cy="18" r="11" fill="black" fill-opacity="0.4"/>
<circle cx="31" cy="21" r="9" fill="#2FC4A7"/>
<circle cx="31" cy="21" r="9" fill="black" fill-opacity="0.4"/>
<circle cx="22" cy="13" r="13" fill="#2FC4A7"/>
<circle cx="22" cy="13" r="13" fill="black" fill-opacity="0.2"/>
</svg>
